<?xml version="1.0" encoding="utf-8"?>
<!-- Generator: Adobe Illustrator 24.3.0, SVG Export Plug-In . SVG Version: 6.00 Build 0)  -->
<svg version="1.1" id="Layer_1" xmlns="http://www.w3.org/2000/svg" xmlns:xlink="http://www.w3.org/1999/xlink" x="0px" y="0px"
	 viewBox="0 0 864 864" style="enable-background:new 0 0 864 864;" xml:space="preserve">
<style type="text/css">
	.st0{fill:#BDE59E;}
	.st1{fill:#333333;}
	.st2{fill:#039187;}
	.st3{fill:#02746C;}
	.st4{fill:#FEFEFE;}
	.st5{fill:#F0F1F0;}
</style>
<path id="_x37_.background" class="st0" d="M49.29,218.96h762.58v409.43H51.22C51.22,628.39,51.7,216.55,49.29,218.96z"/>
<path id="_x36_.dark.grey" class="st1" d="M431.12,423.97c0,46.94,0,93.87,0,140.81c8.92,0.37,21.16-0.07,35.16-3.53
	c11.52-2.85,20.91-6.92,27.94-10.6C473.19,508.43,452.16,466.2,431.12,423.97z"/>
<path id="_x35_.black" d="M431.34,424.56c20.93,42.07,41.85,84.13,62.78,126.2c7.01-3.79,14.65-8.46,22.56-14.21
	c5.27-3.83,10.03-7.67,14.29-11.4C497.76,491.62,464.55,458.09,431.34,424.56z"/>
<polygon id="_x34_.dark.green" class="st2" points="324.61,424.23 431.06,532.13 431.3,424.48 "/>
<polygon id="_x33_.dark.green.shadow" class="st3" points="431.28,424.49 324.17,424.15 338.22,438.2 "/>
<polygon id="_x32_.white" class="st4" points="430.7,282.7 431.42,423.83 289.33,423.83 "/>
<polygon id="_x31_.white.grey" class="st5" points="430.78,282.7 430.78,424.32 572.4,565.93 572.4,423.03 "/>
</svg>
