<?xml version="1.0" encoding="utf-8"?>
<!-- Generator: Adobe Illustrator 24.3.0, SVG Export Plug-In . SVG Version: 6.00 Build 0)  -->
<svg version="1.1" id="Layer_1" xmlns="http://www.w3.org/2000/svg" xmlns:xlink="http://www.w3.org/1999/xlink" x="0px" y="0px"
	 viewBox="0 0 864 864" style="enable-background:new 0 0 864 864;" xml:space="preserve">
<style type="text/css">
	.st0{fill:#A0CAD6;}
	.st1{fill:#67909C;}
	.st2{fill:#79A1AD;}
	.st3{fill:#577F8C;}
	.st4{fill:#A0C9D5;}
	.st5{fill:#CF8E82;}
	.st6{fill:#DBE0DF;}
	.st7{fill:#9CC4D0;}
	.st8{fill:#0E0C0B;}
	.st9{fill:#4D7581;}
	.st10{fill:#446875;}
	.st11{fill:#314F5B;}
	.st12{fill:#6E256B;}
	.st13{fill:#4E194C;}
	.st14{fill:#DBC1A3;}
	.st15{fill:#A62166;}
	.st16{fill:#EDD5B8;}
	.st17{fill:#8DB3BF;}
	.st18{fill:#AD276D;}
	.st19{fill:#B99F83;}
	.st20{fill:#8A2150;}
	.st21{fill:#46281E;}
	.st22{fill:#A08A75;}
	.st23{fill:#F6E2C9;}
</style>
<rect x="38.68" y="32.48" class="st0" width="788.13" height="809.81"/>
<g id="ears">
	<path class="st1" d="M445.11,160.95c4.59-6.92,8.63-14.3,13.89-20.66c11.9-14.37,24.25-28.38,36.81-42.19
		c2.13-2.35,6.16-2.98,9.65-3.45c-23.12,19.7-39.75,44.64-57.63,68.44C446.91,162.37,446.01,161.66,445.11,160.95z"/>
	<path class="st1" d="M513.38,122.9c2.38,12.69,4.76,25.38,7.13,38.08c-1.86-0.58-5.11-0.79-5.38-1.79
		c-4.81-17.93-8.04-36.1-6.39-54.8c0.02-0.26,0.9-0.44,1.48-0.7C511.28,110.12,512.33,116.51,513.38,122.9z"/>
	<path class="st2" d="M211.34,123.01c-5.54-4.68-11.03-9.41-16.63-14.01c-2.66-2.19-5.52-4.14-8.28-6.2
		c-0.88-2.01-1.76-4.02-2.65-6.03c0.34-1.77,0.68-3.54,1.02-5.31c7.15,6.85,14.38,13.63,21.41,20.6c2.96,2.94,5.5,6.3,8.23,9.47
		C213.41,122.02,212.38,122.52,211.34,123.01z"/>
	<path class="st3" d="M211.34,123.01c1.03-0.49,2.07-0.99,3.1-1.48c8.3,9.58,16.6,19.15,24.9,28.73c-0.4,0.47-0.8,0.93-1.21,1.4
		c-1.06-0.48-2.12-0.97-3.17-1.46C227.09,141.13,219.22,132.07,211.34,123.01z"/>
	<path class="st2" d="M175.06,142.78c-0.08,3.85-0.15,7.7-0.23,11.55c-3.35,3.32,1.14,11.9-7.73,11.49
		c1.57-7.65,3.13-15.29,4.69-22.94C172.87,142.85,173.96,142.81,175.06,142.78z"/>
	<path class="st3" d="M183.78,96.77c0.88,2.01,1.76,4.02,2.65,6.03c-1,9.71-3.24,18.98-9.87,26.66
		C178.97,118.57,181.38,107.67,183.78,96.77z"/>
	<path class="st4" d="M175.06,142.78c-1.09,0.03-2.18,0.07-3.27,0.1c1.09-1.69,2.18-3.37,3.27-5.06l0.01,0.01
		C175.06,139.48,175.06,141.13,175.06,142.78z"/>
	<path class="st4" d="M175.05,137.82c0.35-1.39,0.7-2.79,1.06-4.18c0.58,0.39,1.16,0.78,1.74,1.17
		C176.92,135.81,175.99,136.82,175.05,137.82C175.06,137.82,175.05,137.82,175.05,137.82z"/>
</g>
<path id="screen" class="st5" d="M489.27,409.09c0,3.88,0,7.77,0,11.65c0.01,14.32,0.02,28.63,0.02,42.95
	c0,1.12,0.01,2.24,0.01,3.36c0,3.84-0.01,7.69-0.01,11.53c0,1.67,0,3.34,0.01,5.01c0,1.09,0,2.18,0.01,3.27
	c0.01,2.77,0.02,5.53,0.03,8.3c-0.55,3.16-1.56,6.31-1.57,9.47c-0.13,26.46-0.06,52.93-0.07,79.39c0,12-0.01,12.01-11.81,12.02
	c-86.83,0.01-173.67-0.1-260.5,0.19c-8.2,0.03-10.74-1.89-10.72-10.47c0.29-118.81,0.28-237.62,0.01-356.43
	c-0.02-8.35,2.13-10.66,10.57-10.63c82.42,0.32,164.84,0.19,247.27,0.19c5.51,0,11.04,0.26,16.54-0.07c5.49-0.33,7.05,2,7.13,7.27
	c0.22,14.28,0.92,28.56,1.58,42.83c0.1,2.08,1.01,4.13,1.55,6.19c0,4.42-0.01,8.84-0.01,13.27c-1,1.36-2.89,2.74-2.87,4.09
	c0.28,20.38,0.94,40.76,1.23,61.14c0.22,15.62-0.03,31.24,0.12,46.86C487.8,403.34,488.75,406.22,489.27,409.09z M226.08,324.9
	c9.06,0.07,16.22-6.38,16.47-14.83c0.25-8.59-6.94-16.63-14.85-16.62c-7.76,0.01-15.08,8.39-15.26,17.48
	C212.26,319.57,217.4,324.83,226.08,324.9z M455.67,314.83c8.4-0.07,13.75-4.91,13.53-12.21c-0.25-7.99-7.44-15.29-14.75-14.96
	c-7.27,0.32-14.47,8.3-14.2,15.74C440.5,310.54,446.39,314.91,455.67,314.83z M338.45,314.63c0.96,0.15,1.93,0.29,2.89,0.44
	c3.15-6.22,6.3-12.44,10.07-19.89c-9.23,0-16.28,0-25.08,0C331.05,302.76,334.75,308.69,338.45,314.63z"/>
<g id="borders">
	<path class="st6" d="M172.85,180.37c-0.31-1.46-0.62-2.91-0.93-4.37c0,0-0.14-0.04-0.14-0.04c1.14-0.57,2.29-1.14,3.43-1.72
		c10.82-0.55,21.64-1.24,32.47-1.59c8.37-0.27,16.76-0.12,25.14-0.16c0.03,0.54,0.08,1.09,0.14,1.63c-14.31,0.25-28.65,0-42.91,0.97
		C184.21,175.49,178.57,178.53,172.85,180.37z"/>
	<path class="st7" d="M232.95,174.12c-0.06-0.54-0.1-1.08-0.14-1.63c8.75-0.01,17.5-0.02,26.25-0.03c0.13,0.37,0.24,0.74,0.33,1.12
		C250.58,173.76,241.76,173.94,232.95,174.12z"/>
	<path id="boarder.black" class="st8" d="M232.95,174.12c8.81-0.18,17.63-0.35,26.44-0.53c1.17,0,2.34,0,3.51-0.01
		c2.64,0,5.28-0.01,7.91-0.01c32.42,0.17,64.83,0.38,97.25,0.5c31.05,0.11,62.11,0.12,93.16,0.17c2.03,0.41,4.05,1.16,6.08,1.18
		c13.34,0.13,26.71-0.37,40.02,0.36c5.03,0.27,9.91,3.24,14.86,4.98c0.9,10.57,2.56,21.14,2.6,31.71
		c0.44,135.16,0.67,270.33,0.8,405.5c0,4.51-1.68,9.03-2.58,13.54c-0.71,1.44-1.43,2.88-2.14,4.31c-6.69,1-13.38,2.79-20.08,2.88
		c-31.94,0.44-63.89,0.41-95.83,0.56c-31.86-0.17-63.72-0.42-95.58-0.5c-40.67-0.09-81.33,0-122-0.12
		c-4.62-0.01-9.24-0.92-13.86-1.42c-1.52-2.17-3.04-4.35-4.56-6.52c-0.22-3.29-0.61-6.57-0.63-9.86
		c-0.11-23.61-0.14-47.23-0.19-70.84c0.09-3.3,0.26-6.6,0.27-9.9c0.53-115.13,1.01-230.26,1.67-345.39
		c0.03-4.81,1.69-9.61,2.59-14.41c0,0,0.2,0.07,0.2,0.07c5.72-1.84,11.37-4.88,17.19-5.28C204.3,174.12,218.64,174.36,232.95,174.12
		z M489.3,478.58c0-3.84,0.01-7.69,0.01-11.53c0-1.12-0.01-2.24-0.01-3.36c-0.01-14.32-0.02-28.63-0.02-42.95c0-3.88,0-7.77,0-11.65
		c0.01-40.24,0.02-80.48,0.03-120.72c0-4.42,0.01-8.84,0.01-13.27c0-19.68,0-39.36,0-58.92c-96.04,0-191,0-285.98,0
		c0,127.37,0,254.28,0,381.11c95.64,0,190.83,0,286.01,0c0-34.41,0-68.27,0-102.14c-0.01-2.77-0.02-5.53-0.03-8.3
		c0-1.09,0-2.18-0.01-3.27C489.3,481.92,489.3,480.25,489.3,478.58z"/>
	<path class="st6" d="M172.65,180.29c-0.9,4.8-2.56,9.6-2.59,14.41c-0.66,115.13-1.14,230.26-1.67,345.39
		c-0.02,3.3-0.18,6.6-0.27,9.89c-0.45-3.21-1.25-6.4-1.29-9.61c-0.24-16.74-0.3-33.49-0.42-50.23c0-3.28,0-6.57,0.01-9.85
		c0-8.32,0.01-16.63,0.01-24.95c-0.02-85.4-0.05-170.8-0.07-256.21c0.21-4.12-0.2-8.42,0.86-12.3
		C167.9,184.34,170.76,182.45,172.65,180.29z"/>
	<path class="st6" d="M522.18,180.75c0.1-0.81,0.2-1.61,0.3-2.42c1.67,4.68,4.79,9.37,4.8,14.06c0.29,110.92,0.25,221.84,0.3,332.75
		c0,4.39,0.32,8.78,0.49,13.17c0.12,7.22,0.24,14.43,0.35,21.65c0.04,11.04,0.09,22.09,0.13,33.14c-0.15,5.26-0.29,10.52-0.44,15.78
		c-0.06,1.34-0.11,2.67-0.16,4c-0.02,1.47-0.03,2.94-0.05,4.41c-0.12,1.78-0.24,3.56-0.36,5.34c-1,3.4-2,6.8-3.01,10.2
		c-0.52-0.44-1.03-0.88-1.55-1.33c0.9-4.51,2.59-9.03,2.58-13.54c-0.12-135.17-0.36-270.33-0.8-405.5
		C524.74,201.89,523.08,191.32,522.18,180.75z"/>
</g>
<g id="tails">
	<path class="st1" d="M424.82,685.25c-16.29,3.33-32.84,5.74-48.78,10.29c-12.73,3.63-24.72,9.87-37.04,14.95
		c-0.08-0.75-0.15-1.49-0.23-2.23c18.41-10.62,37.6-18.77,59.07-21.19c9.11-1.02,17.98-4.13,26.97-6.29
		C424.8,682.27,424.81,683.76,424.82,685.25z"/>
	<path class="st2" d="M367.1,733.04c-8.91,4.12-17.58,8.92-26.79,12.15c-7.17,2.52-15.4,4.09-21.34-3.03
		c-1.66-1.99-1.23-5.72-1.76-8.65c1.58-1.2,3.16-2.4,4.73-3.6c1.21,13.27,7.78,16.55,19.29,9.99c8.18-4.66,15.14-12.35,25.86-11.2
		C367.09,730.15,367.09,731.6,367.1,733.04z"/>
	<path class="st1" d="M487.93,718.82c-5.38,0.13-11.23,1.72-16.04,0.13c-18.15-6.01-35.84-4.2-53.63,0.9
		c-1.26,0.36-2.58,0.52-4.28,0.85c6.39-10.44,45.32-12.22,73.76-3.9C487.79,717.47,487.86,718.14,487.93,718.82z"/>
	<path class="st2" d="M482.61,683.92c13.38-0.83,26.76-1.66,40.14-2.49c0.05,1.03,0.1,2.06,0.15,3.09
		c-13.34,1.94-26.38,7.51-40.3,2.32C482.6,685.87,482.6,684.89,482.61,683.92z"/>
	<path class="st1" d="M367.1,733.04c0-1.44-0.01-2.88-0.01-4.32c12.36-2.63,24.73-5.26,37.09-7.89c0.26,1.08,0.53,2.16,0.79,3.23
		C392.35,727.05,379.72,730.04,367.1,733.04z"/>
	<path class="st3" d="M487.93,718.82c-0.07-0.67-0.13-1.35-0.2-2.02c11.58,0.43,23.17,1.06,34.75,1.16
		c3.32,0.03,6.65-1.52,9.98-2.34c0.01,1.23,0.02,2.45,0.02,3.68c-5.96,0.13-11.92,0.45-17.87,0.36
		C505.71,719.52,496.82,719.11,487.93,718.82z"/>
	<path class="st9" d="M532.48,719.29c-0.01-1.23-0.02-2.45-0.02-3.68c2.71-0.29,5.42-0.57,8.14-0.86c8.3-0.91,16.6-1.82,24.91-2.72
		c0.57,0.07,1.14,0.15,1.7,0.22c0,0.83,0,1.66-0.01,2.5c-4.45,1.4-8.89,2.81-13.34,4.21C546.73,719.07,539.61,719.18,532.48,719.29z
		"/>
	<path class="st3" d="M482.61,683.92c-0.01,0.98-0.01,1.95-0.02,2.93c-9.84-1.13-19.68-2.26-29.52-3.39
		c0.02-0.81,0.05-1.62,0.08-2.43C462.97,681.99,472.79,682.95,482.61,683.92z"/>
	<path class="st3" d="M321.93,729.92c-1.58,1.2-3.15,2.4-4.73,3.6c3.88-11.24,8.54-21.82,21.56-25.26c0.08,0.74,0.15,1.49,0.23,2.23
		C330.71,714.69,325.4,721.49,321.93,729.92z"/>
	<path class="st2" d="M424.82,685.25c-0.01-1.49-0.02-2.98-0.02-4.47c3.88-0.09,7.76-0.19,11.63-0.29
		c-0.05,1.14-0.09,2.29-0.14,3.43C432.47,684.37,428.64,684.81,424.82,685.25z"/>
	<path class="st1" d="M436.29,683.92c0.05-1.14,0.09-2.29,0.14-3.43c5.57,0.18,11.15,0.35,16.72,0.53
		c-0.02,0.81-0.05,1.62-0.07,2.43C447.48,683.61,441.89,683.77,436.29,683.92z"/>
	<path class="st10" d="M567.2,714.75c0-0.83,0-1.67,0.01-2.5c2.69-1.29,5.38-2.58,8.07-3.86c1.8-1.49,3.6-2.97,5.4-4.46
		c2.73-2.85,5.47-5.7,8.2-8.55c1.95-0.59,3.9-1.17,5.86-1.76c1.88,0.64,3.76,1.28,5.63,1.92c-2.29,2.62-4.59,5.25-6.88,7.87
		c-3.27,1.54-6.54,3.07-9.8,4.61c-2.22,1.29-4.44,2.59-6.66,3.89c-2.22,0.93-4.43,1.85-6.65,2.78
		C569.32,714.71,568.26,714.73,567.2,714.75z"/>
	<path class="st11" d="M600.37,695.54c-1.88-0.64-3.76-1.28-5.63-1.92c0.28-1.05,0.54-2.1,0.81-3.15
		c3.82-4.51,7.63-9.02,11.45-13.53c1.68,0.67,3.35,1.34,5.03,2.01c-3.39,5.44-6.79,10.89-10.19,16.33
		C601.35,695.36,600.86,695.44,600.37,695.54z"/>
	<path class="st11" d="M557.27,673.79c-1.7,1.32-3.4,2.64-5.1,3.96c-1.04-0.7-2.08-1.41-3.13-2.11
		C551.78,675.02,554.52,674.41,557.27,673.79z"/>
	<path class="st11" d="M565.21,660.66c0.7-3.88,1.41-7.75,2.11-11.63c1.22-0.8,2.44-1.6,3.66-2.4c0.54,0.26,1.08,0.52,1.63,0.78
		c-0.6,2.26-1.2,4.52-1.8,6.78c0.4,0.69,0.8,1.38,1.2,2.07c-0.11,0.79-0.22,1.58-0.33,2.37c-1.53,2.85-3.06,5.69-4.59,8.54
		c-1.66,0.57-3.31,1.14-4.97,1.71C563.15,666.13,564.18,663.4,565.21,660.66z"/>
	<path class="st11" d="M562.19,668.81c-0.58,1.5-1.16,3-1.75,4.49c-1.09,0.19-2.18,0.37-3.27,0.56c0.05-1.05,0.11-2.09,0.16-3.13
		C558.95,670.09,560.57,669.45,562.19,668.81z"/>
</g>
<g id="hand">
	<path class="st12" d="M767.77,716.72c9.29,19.44,18.48,38.94,27.99,58.27c1.25,2.53,4.14,4.25,6.27,6.35c-24.26,0-48.53,0-72.79,0
		c-1.48-2.02-2.61-4.46-4.49-5.97c-6.45-5.18-13.05-9.71-11.91-19.86c0.43-3.82-2.32-8-3.62-12.01c1.39-0.81,2.7-1.83,4.18-2.38
		c15.86-5.88,31.82-11.5,47.56-17.68C763.69,722.36,765.53,719.02,767.77,716.72z"/>
	<path class="st13" d="M679.61,781.34c-1.14-3.86-2.49-7.68-3.37-11.6c-1.24-5.49-2.13-11.05-3.17-16.59
		c11.46,3.47,19.13-4.95,28.2-8.98c1.62-0.35,3.25-0.69,4.87-1.04c1.03,0.12,2.05,0.24,3.08,0.37c1.3,4.01,4.05,8.19,3.62,12.01
		c-1.14,10.15,5.46,14.68,11.91,19.86c1.88,1.51,3.02,3.95,4.49,5.97C712.7,781.34,696.16,781.34,679.61,781.34z M687.96,761.56
		c-1.1,0.17-2.2,0.35-3.3,0.52c-0.1,0.74-0.18,1.49-0.31,2.23c-2.4,13.62-2.43,14.01,10.93,14.92c4.98,0.34,10.12-1.57,15.18-2.46
		c-0.05-1.21-0.1-2.43-0.16-3.64c-7.24-0.69-14.47-1.39-21.53-2.06C688.53,768.2,688.24,764.88,687.96,761.56z"/>
	<path class="st14" d="M682.9,591.14c1.14-0.05,2.27-0.1,3.4-0.15c1.05,0.09,2.1,0.18,3.15,0.27c0,0-0.1,0.01-0.09,0.01
		c1.68,1.65,3.35,3.29,5.03,4.94c0,0-0.1,0.09-0.1,0.09c10.1,16.77,17.14,34.67,20.02,54.1c0,0-0.52,0.13-0.52,0.13
		c-7-2.14-14-4.29-21-6.43c1.03-0.15,2.07-0.29,1.1-0.16c-0.67-7.83-1.14-15.31-2.02-22.74c-0.59-4.93-1.36-9.92-2.81-14.65
		C687.46,601.28,684.99,596.27,682.9,591.14z"/>
	<path class="st15" d="M753.61,683.94c3.51,8.75,7.01,17.5,10.51,26.25c-5.53,0.59-11.07,1.18-16.6,1.77c0,0-0.14-0.21-0.14-0.21
		c2.8-1.47,5.61-2.94,8.71-4.57c-0.89-1.7-1.87-3.55-2.51-4.77c-4.95,1.17-9.36,2.22-12.72,3.01c-0.33-3.48-0.58-6.1-0.85-8.97
		c3.29-1.23,6.72-2.52,10.05-3.76c-3.4-13.99-8.01-16.54-20.17-12.32c-2.12,0.74-4.7,0.13-7.07,0.14c1.8-1.02,3.61-2.05,5.41-3.07
		c2.59-0.68,5.19-1.3,7.75-2.05C746.49,672.32,749.1,673.57,753.61,683.94z"/>
	<path class="st14" d="M642.54,570.14c2.33,0.98,4.66,1.96,6.99,2.94c3.91,2.29,7.82,4.57,11.74,6.86c2.91,1.91,5.81,3.82,8.71,5.74
		c-2.4,1.05-4.8,2.1-7.77,3.39c4.48,6.02-0.42,5.19-4.11,5.34c-1.6-0.06-3.2-0.12-4.8-0.17c-5.42-5.06-10.25-11.07-16.43-14.91
		c-6.78-4.21-14.59-7.23-22.36-9.19c-4.85-1.22-8.83,2.05-8.41,8.15c0.15,2.17,0.21,4.34,0.31,6.51c-3.11,1.28-6.13,2.91-9.36,3.73
		c-2.5,0.64-5.75,1.13-7.72,0.02c-1.16-0.65-1.45-5.2-0.38-6.89c1.64-2.57,4.75-4.23,7.31-6.17c3.43-2.6,6.94-5.09,10.41-7.63
		c3.35-1.08,6.71-2.16,10.06-3.24C625.35,566.46,633.95,568.3,642.54,570.14z"/>
	<path class="st16" d="M658.1,594.41c3.69-0.15,8.58,0.68,4.11-5.34c2.97-1.29,5.37-2.34,7.77-3.39c4.31,1.82,8.61,3.64,12.92,5.46
		c2.09,5.13,4.56,10.14,6.17,15.42c1.45,4.73,2.22,9.72,2.81,14.65c0.88,7.43,1.35,14.9,2.02,22.74c0.96-0.14-0.07,0.01-1.1,0.16
		c-3.33-0.83-6.66-1.65-9.98-2.47c-1.62-0.87-3.23-1.75-4.85-2.63c-0.05-5.89,0.26-11.81-0.26-17.66
		c-0.41-4.72,3.81-13.03-7.29-11.18c-1.06,0.18-2.8-1.37-3.62-2.54C663.76,603.32,660.98,598.83,658.1,594.41z"/>
	<path class="st17" d="M694.39,596.21c-1.68-1.65-3.35-3.3-5.03-4.94C691.04,592.92,692.71,594.57,694.39,596.21z"/>
	<path class="st17" d="M689.45,591.26c-1.05-0.09-2.1-0.18-3.15-0.27C687.36,591.08,688.41,591.17,689.45,591.26z"/>
	<path class="st18" d="M747.52,711.97c5.53-0.59,11.07-1.18,16.6-1.77c1.22,2.17,2.43,4.35,3.65,6.52c-2.24,2.3-4.08,5.64-6.81,6.72
		c-15.74,6.18-31.7,11.8-47.56,17.68c-1.48,0.55-2.79,1.57-4.18,2.38c-1.03-0.12-2.06-0.24-3.08-0.36
		c-0.04-4.87,1.14-10.16-0.37-14.51c-2.82-8.08,0.96-10.92,7.52-12.83c1.83-0.54,3.59-1.84,5.39-1.85
		c2.72-0.02,5.45,0.79,10.02,1.56c-6.47,2.82-10.4,4.52-14.33,6.23c0.31,0.73,0.62,1.45,0.92,2.18
		C726.95,722.6,737.72,718.7,747.52,711.97z"/>
	<path class="st19" d="M625.14,693.35c-4.36-4.8-8.73-9.6-13.1-14.4c-1.68-0.67-3.36-1.34-5.03-2.01c-1.59-2.65-2.6-6.05-4.87-7.82
		c-9.63-7.5-19.65-14.52-29.53-21.71c-0.55-0.26-1.09-0.52-1.63-0.78c-1.18-0.93-2.36-1.85-3.54-2.78l-0.15,0.04
		c-2.24-2.14-4.47-4.28-6.71-6.42c0,0-0.14-0.12-0.14-0.12c-1.19-0.58-2.38-1.16-3.57-1.74c-1.53-1.22-3.05-2.44-4.58-3.66
		c-3.28-2.72-6.56-5.43-9.84-8.15c7.08,1.27,14.16,2.55,21.24,3.82c3.9,3.79,7.81,7.59,11.71,11.38c4.9,3.94,9.79,7.88,14.69,11.83
		c1.22,5.98,6.02,4.66,10.04,4.91c0.53,0.54,1.06,1.09,1.59,1.63c1.81,2.59,3.38,5.41,5.48,7.73c3.34,3.7,8.09,6.53,10.34,10.74
		c2.97,5.57,6.8,7.06,12.38,6.3c0.08,0.49,0.18,0.97,0.29,1.45c0.41,10.78,11.37,20.36,24.84,21.71c-0.17,0.49-0.36,0.97-0.58,1.43
		c-3.31,0.71-6.61,1.42-9.92,2.12c-5.38-4-10.75-7.99-16.13-11.99c0,0-0.03,0.02-0.03,0.02
		C627.32,695.72,626.23,694.54,625.14,693.35z"/>
	<path class="st20" d="M644.57,708.87c3.31-0.71,6.61-1.42,9.92-2.13c1.59,5.22,4.27,10.4,4.49,15.69c0.31,7.48,3.99,8.7,10.03,8.01
		c1.27-0.15,2.56-0.14,3.67-0.2c-0.36,2.72-0.65,4.9-1.18,8.96c9.76-4.39,17.88-8.04,26-11.7c0.53,1.18,1.07,2.36,1.6,3.54
		c-7.82,3.7-15.63,7.4-23.45,11.1c0.23,0.94,0.46,1.89,0.7,2.83c4.25-0.75,8.49-1.96,12.76-2.12c4.04-0.15,8.11,0.82,12.17,1.3
		c-9.07,4.03-16.74,12.46-28.2,8.98c0,0-0.02,0.03-0.02,0.03c-0.5-0.62-0.99-1.24-1.49-1.85c-8.82-11.87-17.75-23.66-26.33-35.7
		C644.09,714.04,644.74,711.16,644.57,708.87z"/>
	<path class="st13" d="M671.56,751.33c0.5,0.62,0.99,1.24,1.49,1.85C672.55,752.57,672.06,751.95,671.56,751.33z"/>
	<path class="st10" d="M625.14,693.35c1.09,1.18,2.18,2.37,3.27,3.55C627.32,695.72,626.23,694.54,625.14,693.35z"/>
	<path class="st10" d="M625.03,700.28c-0.18-0.1-0.36-0.2-0.54-0.3C624.66,700.08,624.84,700.18,625.03,700.28
		C625.02,700.29,625.03,700.28,625.03,700.28z"/>
	<path class="st15" d="M701.27,744.17c-4.06-0.48-8.14-1.44-12.17-1.3c-4.27,0.15-8.51,1.37-12.76,2.12
		c-0.23-0.94-0.46-1.89-0.7-2.83c7.82-3.7,15.63-7.4,23.45-11.1c-0.53-1.18-1.07-2.36-1.6-3.54c-8.12,3.65-16.24,7.31-26,11.7
		c0.54-4.06,0.83-6.25,1.18-8.96c-1.1,0.06-2.39,0.05-3.67,0.2c-6.04,0.7-9.71-0.53-10.03-8.01c-0.22-5.28-2.9-10.46-4.49-15.69
		c0.22-0.47,0.41-0.95,0.58-1.43c3.12-1.18,6.23-2.36,9.35-3.54c3.38-0.64,6.76-1.27,10.14-1.91c-4.69,9.46-0.94,16.75,5.64,23.33
		c10.94-3.32,12.19-5.49,7.24-11.98c4.59-4.57,9.88-4.52,12.2,1.19c2.19,5.37,4.49,4.26,8.04,2.8c6.32-2.61,12.57-5.44,19.05-7.55
		c2.73-0.89,6.1-0.72,8.96-0.06c4,0.92,7.8,2.74,11.69,4.17c0,0,0.14,0.21,0.14,0.21c-9.8,6.73-20.57,10.63-32.22,11.95
		c-0.31-0.73-0.62-1.45-0.92-2.18c3.93-1.71,7.85-3.42,14.33-6.23c-4.57-0.77-7.3-1.58-10.02-1.56c-1.8,0.01-3.56,1.31-5.39,1.85
		c-6.56,1.92-10.34,4.76-7.52,12.83c1.52,4.35,0.34,9.64,0.37,14.51C704.51,743.48,702.89,743.82,701.27,744.17z M678.44,726.02
		c-0.37-0.13-0.6-0.21-0.84-0.29c0.04,0.17,0.08,0.33,0.13,0.5C677.91,726.18,678.1,726.13,678.44,726.02z"/>
	<path class="st21" d="M687.96,761.56c0.28,3.32,0.57,6.64,0.82,9.51c7.05,0.68,14.29,1.37,21.53,2.06c0.05,1.21,0.1,2.43,0.16,3.64
		c-5.07,0.89-10.2,2.8-15.18,2.46c-13.36-0.91-13.33-1.3-10.93-14.92c0.13-0.74,0.21-1.49,0.31-2.23
		C685.76,761.91,686.86,761.74,687.96,761.56z"/>
	<path class="st22" d="M682.81,641.62c3.33,0.83,6.66,1.65,9.99,2.48c7,2.14,14,4.29,21,6.43c0.68,2.24,1.37,4.48,2.06,6.72
		c-10.56-3.71-21.13-7.42-31.69-11.13C683.72,644.62,683.26,643.12,682.81,641.62z"/>
	<path class="st18" d="M747.38,711.76c-3.89-1.43-7.68-3.25-11.69-4.17c-2.86-0.66-6.23-0.83-8.96,0.06
		c-6.48,2.11-12.73,4.95-19.05,7.55c-3.54,1.46-5.85,2.58-8.04-2.8c-2.33-5.72-7.61-5.77-12.2-1.19c4.96,6.49,3.7,8.66-7.24,11.98
		c-6.58-6.57-10.33-13.86-5.64-23.33c3.87-1.57,7.75-3.14,11.62-4.71c5.09,10.15,4.94,9.99,12.82,2.49
		c2.09-1.99,5.49-2.57,8.22-3.93c0.6-0.3,0.93-1.15,1.96-2.51c-2.74,0.17-4.68,0.28-7.99,0.48c2.32-2.17,3.66-3.42,4.99-4.66
		c4.25-2.1,8.5-4.19,12.75-6.29c1.3-0.07,2.6-0.15,3.9-0.22c2.37-0.01,4.95,0.59,7.07-0.14c12.16-4.22,16.77-1.67,20.17,12.32
		c-3.33,1.25-6.76,2.53-10.05,3.76c0.27,2.87,0.52,5.49,0.85,8.97c3.37-0.8,7.77-1.84,12.72-3.01c0.64,1.22,1.61,3.07,2.51,4.77
		C752.98,708.82,750.18,710.29,747.38,711.76z"/>
	<path class="st16" d="M684.17,646.12c10.56,3.71,21.13,7.42,31.69,11.13c0.63,2.87,1.27,5.73,1.9,8.59
		c-1.06-0.24-2.11-0.48-3.16-0.72c-2.1-1.2-4.07-2.82-6.33-3.53c-32.77-10.27-65.58-20.42-98.39-30.6
		c-0.32-0.36-0.53-0.77-0.62-1.25c0.41-1.11,0.81-2.22,1.22-3.32c0.89-0.12,1.77-0.24,2.66-0.36c6.89,7.39,17.11,2.73,24.89,6.88
		C653.41,637.33,668.79,641.73,684.17,646.12z"/>
	<path class="st10" d="M714.6,665.12c1.05,0.24,2.11,0.48,3.17,0.72c-0.17,0.54-0.16,1.06,0.05,1.59c-0.12,0.46-0.16,0.93-0.14,1.41
		c-3.9-0.52-7.8-1.03-11.7-1.55c-1.02-0.17-2.04-0.34-3.05-0.51l-0.05,0.3c-1.67-0.63-3.33-1.26-5-1.9l0.12,0.15
		c-2.08-1.08-4.16-2.17-6.24-3.25c2.83,0.05,5.71-0.19,8.49,0.23C705.06,663.03,709.81,664.16,714.6,665.12z"/>
	<path class="st14" d="M705.98,667.29c3.9,0.52,7.8,1.03,11.7,1.55c0.42,3.97,0.83,7.94,1.25,11.91c-4.25,2.1-8.5,4.19-12.75,6.29
		c-2.28,0.47-4.56,0.95-6.84,1.42c-1.83-5.55-3.48-11.18-5.56-16.63c-1.69-4.43,0.05-6.12,4.22-6.49c0,0-0.12-0.15-0.12-0.15
		c1.67,0.63,3.33,1.26,5,1.89c0,0,0.05-0.3,0.05-0.29C703.94,666.95,704.96,667.12,705.98,667.29z"/>
	<path class="st23" d="M658.1,594.41c2.88,4.42,5.66,8.91,8.69,13.22c0.82,1.17,2.56,2.71,3.62,2.54c11.1-1.85,6.87,6.45,7.29,11.18
		c0.51,5.85,0.21,11.77,0.26,17.66c-15.41-4.69-31.59-7.55-44.32-18.62c-1.83-6.39-3.67-12.79-5.5-19.18
		c-2.74-1.66-5.47-3.31-8.21-4.97c-1.06-0.07-2.11-0.14-3.17-0.21c-1.09-3.29-2.69-6.51-3.1-9.88c-0.29-2.41,1.31-7.24,1.57-7.21
		c5.55,0.72,11.39,1.14,16.42,3.34c7.52,3.29,14.47,7.91,21.66,11.96C654.91,594.29,656.51,594.35,658.1,594.41z"/>
	<path class="st19" d="M600.3,568.41c2.13-0.18,4.26-0.37,6.39-0.55c-3.47,2.54-6.98,5.03-10.41,7.63
		c-2.56,1.94-5.67,3.61-7.31,6.17c-1.07,1.68-0.78,6.23,0.38,6.89c1.97,1.11,5.22,0.62,7.72-0.02c3.23-0.82,6.25-2.45,9.37-3.74
		c0.25,2.05,0.49,4.11,0.73,6.16c-0.18,0.63-0.37,1.27-0.55,1.9c-4.45,1.81-8.89,3.61-14.3,5.81c-2.57,11.77-11.01,15.29-20.97,7.26
		c1.86-6.05,3.71-12.09,5.57-18.14l0.09-0.12c0.59-1.05,1.18-2.1,1.76-3.16l-0.02,0.03c1.08-1.1,2.16-2.2,3.24-3.3
		c0.21-0.49,0.36-1.01,0.44-1.53c4.42-3.21,8.83-6.43,13.25-9.64C597.22,569.51,598.76,568.96,600.3,568.41z"/>
	<path class="st16" d="M607.17,590.95c-0.24-2.05-0.49-4.11-0.73-6.16c-0.11-2.17-0.17-4.34-0.32-6.51
		c-0.42-6.1,3.56-9.38,8.41-8.15c7.76,1.96,15.58,4.98,22.36,9.19c6.18,3.84,11,9.86,16.43,14.91c-7.19-4.06-14.13-8.67-21.66-11.96
		c-5.03-2.2-10.88-2.62-16.42-3.34c-0.26-0.03-1.86,4.8-1.57,7.21c0.41,3.37,2.01,6.59,3.1,9.88
		C613.56,594.33,610.36,592.64,607.17,590.95z"/>
	<path class="st19" d="M633.64,620.38c12.73,11.07,28.91,13.93,44.31,18.62c1.62,0.88,3.24,1.76,4.85,2.63
		c0.45,1.49,0.91,2.99,1.36,4.49c-15.38-4.39-30.76-8.78-46.13-13.18c-3.01-2.8-6.03-5.59-9.04-8.39c0.27-1.17,0.54-2.33,0.81-3.5
		C631.09,620.83,632.36,620.6,633.64,620.38z"/>
	<path class="st16" d="M698,665.33c-4.17,0.36-5.91,2.05-4.22,6.49c2.08,5.46,3.72,11.08,5.56,16.63c-4.38,2.23-8.77,4.47-13.16,6.7
		c-3.87,1.57-7.75,3.14-11.62,4.71c-3.38,0.63-6.76,1.27-10.14,1.91c-7.21-0.03-14.05,1.36-18.6-7.8c-2.41-4.84-10.22-7-15.59-10.37
		c-0.11-0.48-0.21-0.96-0.29-1.45c-5.16-13.08-11.5-24.82-28.2-24.78c-0.53-0.54-1.06-1.09-1.59-1.63c-0.49-1.17-0.98-2.33-1.48-3.5
		c4.66,1.3,9.34,2.55,13.98,3.92c6.35,1.88,9.32-0.45,9-7.03c2.81,2.82,5.53,5.74,8.45,8.44c2.2,2.04,4.65,3.8,7,5.69
		c1.03-2.67,2.47-5.27,2.96-8.03c0.47-2.65-0.06-5.47-0.15-8.22c17.29,5.02,34.58,10.05,51.86,15.07
		C693.84,663.16,695.92,664.25,698,665.33z"/>
	<path class="st16" d="M590.1,650.83c-4.9-3.94-9.79-7.88-14.69-11.83c-0.48-7.32-5.35-10.11-11.71-11.38
		c-7.08-1.27-14.16-2.55-21.24-3.82c2.29-4.02,4.58-8.05,6.87-12.07c5.73,0.27,11.87-0.7,17.1,1.06c9.96,3.35,19.4,8.25,29.06,12.5
		c-1.16,0.44-2.33,1.27-3.48,1.25c-8.93-0.12-10.85,2.16-7.15,10.14c2.28,4.92,5.83,9.25,8.82,13.85
		C592.47,650.63,591.28,650.73,590.1,650.83z"/>
	<path class="st14" d="M601.74,657.37c16.69-0.04,23.04,11.7,28.2,24.78c-5.58,0.75-9.41-0.73-12.38-6.3
		c-2.25-4.21-6.99-7.04-10.34-10.74C605.12,662.78,603.55,659.97,601.74,657.37z"/>
	<path class="st14" d="M630.22,683.61c5.37,3.37,13.19,5.53,15.59,10.37c4.55,9.16,11.39,7.77,18.6,7.8
		c-3.12,1.18-6.24,2.36-9.35,3.54C641.59,703.96,630.63,694.38,630.22,683.61z"/>
	<path class="st14" d="M563.7,627.62c6.36,1.27,11.23,4.06,11.71,11.38C571.51,635.21,567.6,631.42,563.7,627.62z"/>
	<path class="st14" d="M590.1,650.83c1.19-0.1,2.37-0.2,3.56-0.29c1.67,0.57,3.34,1.14,5.01,1.7c0.49,1.17,0.99,2.33,1.48,3.5
		C596.11,655.5,591.32,656.81,590.1,650.83z"/>
	<path class="st9" d="M560.44,637.35c-1.19-0.58-2.38-1.16-3.57-1.74C558.06,636.19,559.25,636.77,560.44,637.35z"/>
	<path class="st18" d="M678.44,726.02c-0.35,0.1-0.53,0.16-0.71,0.21c-0.04-0.17-0.08-0.33-0.13-0.5
		C677.84,725.82,678.08,725.9,678.44,726.02z"/>
	<path class="st15" d="M686.18,695.16c4.39-2.24,8.77-4.47,13.16-6.7c2.28-0.47,4.56-0.95,6.84-1.42c-1.33,1.25-2.67,2.49-4.99,4.66
		c3.31-0.2,5.25-0.32,7.99-0.48c-1.03,1.35-1.35,2.21-1.96,2.51c-2.73,1.36-6.13,1.95-8.22,3.93
		C691.11,705.14,691.27,705.31,686.18,695.16z"/>
	<path class="st21" d="M549.32,611.73c0.3-1.41,0.61-2.82,0.91-4.22c0.62-0.57,1.25-1.14,1.87-1.72c6.41,0.04,12.83,0.08,19.24,0.12
		c9.97,8.04,18.41,4.51,20.98-7.26c5.41-2.2,9.85-4,14.3-5.81c1,9.16,8.24,10.55,14.54,11.68c0.49,7.32,3.99,12.21,8.65,16.51
		c-0.27,1.17-0.54,2.33-0.8,3.49c-5.28,0.5-10.57,1.01-15.86,1.52c-0.89,0.12-1.77,0.24-2.66,0.36c-1.75-0.22-3.51-0.43-5.26-0.65
		c-0.12,0.52-0.23,1.04-0.35,1.56c1.46,0.8,2.93,1.61,4.39,2.41c0.09,0.47,0.29,0.89,0.62,1.25c0.64,2.15,1.28,4.29,1.91,6.44
		c-5.44-4.05-10.88-8.09-16.32-12.14c-9.66-4.25-19.1-9.15-29.06-12.5C561.19,611.04,555.05,612,549.32,611.73z"/>
	<path class="st22" d="M611.8,637.43c-0.64-2.15-1.28-4.29-1.91-6.44c32.8,10.18,65.61,20.33,98.39,30.6
		c2.26,0.71,4.22,2.33,6.33,3.53c-4.78-0.96-9.54-2.09-14.35-2.81c-2.78-0.42-5.66-0.18-8.49-0.23
		c-17.28-5.02-34.57-10.05-51.86-15.07c-6.17-0.25-12.33-0.5-18.5-0.76C618.19,643.31,614.99,640.37,611.8,637.43z"/>
	<path class="st22" d="M609.27,629.75c-1.46-0.8-2.93-1.61-4.39-2.41c0.12-0.52,0.23-1.04,0.35-1.56c1.75,0.22,3.51,0.43,5.26,0.65
		C610.08,627.53,609.67,628.64,609.27,629.75z"/>
	<path class="st16" d="M702.88,667.08c-1.67-0.63-3.33-1.26-5-1.89C699.55,665.81,701.21,666.44,702.88,667.08z"/>
	<path class="st16" d="M705.98,667.29c-1.02-0.17-2.04-0.34-3.05-0.51C703.94,666.95,704.96,667.12,705.98,667.29z"/>
	<path class="st14" d="M629.81,621.05c-4.66-4.31-8.17-9.19-8.65-16.51c-6.3-1.13-13.54-2.53-14.54-11.68
		c0.18-0.63,0.37-1.27,0.55-1.9c3.2,1.69,6.4,3.38,9.6,5.07c1.06,0.07,2.11,0.14,3.17,0.21c2.74,1.66,5.47,3.31,8.21,4.97
		c1.83,6.4,3.67,12.79,5.5,19.18C632.36,620.6,631.09,620.83,629.81,621.05z"/>
	<path class="st16" d="M628.14,601.2c-2.74-1.66-5.47-3.31-8.21-4.97C622.67,597.88,625.4,599.54,628.14,601.2z"/>
	<path class="st1" d="M578.75,584.53c1.08-1.1,2.16-2.2,3.24-3.3C580.91,582.33,579.83,583.43,578.75,584.53z"/>
	<path class="st1" d="M577,587.66c0.59-1.05,1.17-2.1,1.76-3.16C578.18,585.55,577.59,586.61,577,587.66z"/>
	<path class="st23" d="M611.8,637.43c3.2,2.94,6.4,5.88,9.6,8.82c0.08,0.96,0.17,1.92,0.25,2.88c0.32,6.59-2.64,8.92-9,7.03
		c-4.64-1.37-9.32-2.62-13.98-3.92c-1.67-0.57-3.34-1.14-5.01-1.71c-2.98-4.6-6.54-8.93-8.81-13.85c-3.7-7.98-1.78-10.27,7.15-10.14
		c1.15,0.02,2.32-0.81,3.48-1.25C600.92,629.34,606.36,633.39,611.8,637.43z"/>
	<path class="st14" d="M621.64,649.13c-0.08-0.96-0.16-1.92-0.25-2.88c6.17,0.26,12.33,0.51,18.5,0.76
		c0.09,2.74,0.61,5.57,0.15,8.22c-0.49,2.77-1.93,5.36-2.96,8.03c-2.34-1.89-4.79-3.65-7-5.69
		C627.17,654.87,624.45,651.95,621.64,649.13z"/>
	<path class="st3" d="M572.01,656.26c-0.4-0.69-0.8-1.38-1.2-2.07C571.21,654.88,571.61,655.57,572.01,656.26z"/>
</g>
<path id="nose" class="st8" d="M338.45,314.63c-3.7-5.94-7.4-11.87-12.12-19.45c8.8,0,15.84,0,25.08,0
	c-3.77,7.45-6.92,13.67-10.07,19.89C340.38,314.92,339.42,314.78,338.45,314.63z"/>
<g id="eyes">
	<path class="st6" d="M226.08,324.9c-8.68-0.07-13.81-5.33-13.65-13.97c0.18-9.09,7.49-17.47,15.26-17.48
		c7.92-0.01,15.1,8.03,14.85,16.62C242.3,318.52,235.13,324.97,226.08,324.9z M229.1,315.91c2.58-3.4,5.29-5.44,5.34-7.54
		c0.04-1.63-3.67-5-4.95-4.66c-2.38,0.62-4.83,3.08-5.94,5.4C223.12,309.99,226.31,312.6,229.1,315.91z"/>
	<path class="st6" d="M455.67,314.83c-9.29,0.08-15.17-4.28-15.43-11.44c-0.27-7.44,6.93-15.42,14.2-15.74
		c7.31-0.33,14.5,6.97,14.75,14.96C469.43,309.92,464.07,314.75,455.67,314.83z M460.72,302.72c-4.03-2.87-6.39-5.86-8.36-5.61
		c-2.14,0.26-3.91,3.52-5.85,5.48c2.01,1.38,3.92,3.63,6.05,3.87C454.5,306.67,456.68,304.69,460.72,302.72z"/>
	<path class="st8" d="M229.1,315.91c-2.79-3.31-5.98-5.92-5.55-6.8c1.11-2.32,3.56-4.77,5.94-5.4c1.28-0.33,4.99,3.03,4.95,4.66
		C234.39,310.47,231.68,312.51,229.1,315.91z"/>
	<path class="st8" d="M460.72,302.72c-4.04,1.97-6.22,3.95-8.15,3.73c-2.14-0.24-4.04-2.49-6.05-3.87c1.93-1.95,3.7-5.21,5.85-5.48
		C454.33,296.86,456.69,299.85,460.72,302.72z"/>
</g>
<g>
</g>
<g>
</g>
<g>
</g>
<g>
</g>
<g>
</g>
<g>
</g>
</svg>
