<?xml version="1.0" encoding="utf-8"?>
<!-- Generator: Adobe Illustrator 24.3.0, SVG Export Plug-In . SVG Version: 6.00 Build 0)  -->
<svg version="1.1" id="Layer_1" xmlns="http://www.w3.org/2000/svg" xmlns:xlink="http://www.w3.org/1999/xlink" x="0px" y="0px"
	 viewBox="0 0 864 864" style="enable-background:new 0 0 864 864;" xml:space="preserve">
<style type="text/css">
	.st0{fill:#888A8C;}
	.st1{fill:#FFFFFF;}
	.st2{fill:#C9CACC;}
</style>
<path id="background" class="st0" d="M206.9,190.81c71.72-2.8,145.29-4.66,220.65-5.42c84.83-0.85,167.45-0.26,247.74,1.55
	c7.48,153.29,14.97,306.58,22.45,459.87c-159.74,4.65-319.48,9.29-479.23,13.94C214.65,504.1,210.77,347.45,206.9,190.81z"/>
<g>
	<g>
		<path class="st1" d="M322.17,458.05c-6.77,0-11.96-2.09-15.59-6.28c-3.63-4.19-5.45-10.06-5.45-17.61c0-12.71,4.67-26.12,14-40.22
			c9.34-14.1,18.02-21.15,26.04-21.15c3.65,0,6.8,2.13,9.44,6.39c2.64,4.26,3.96,8.78,3.96,13.55c0,2.87-0.58,5.35-1.73,7.42
			c-1.15,2.07-2.31,3.1-3.48,3.1c-2.62,0-4.46-2.85-5.55-8.55c-1.22-6.14-2.98-9.21-5.28-9.21c-4.69,0-10.24,6.02-16.64,18.05
			c-6.4,12.03-9.61,22.19-9.61,30.47c0,8.28,4.35,12.42,13.06,12.42c6.63,0,14.43-3.36,23.41-10.08c3.16-2.39,5.48-3.58,6.97-3.58
			c1.53,0,2.3,0.95,2.3,2.85c0,3.7-4.04,8.37-12.11,13.99C337.84,455.24,329.93,458.05,322.17,458.05z"/>
		<path class="st1" d="M433.23,427.29c-6.31,9.16-12.56,16.02-18.74,20.6s-11.84,6.87-16.98,6.87c-3.47,0-6.47-1.58-9-4.75
			c-2.53-3.17-3.79-7.23-3.79-12.2c0-12.81,5.3-26.6,15.9-41.39c10.6-14.78,21.13-22.17,31.59-22.17c3.79,0,6.61,2.34,8.46,7.01
			c0.59,1.56,1.51,2.34,2.77,2.34c3.61,0,5.41,1.51,5.41,4.53c0,1.51-0.23,3.58-0.68,6.21c-2.43,14.37-3.65,24.5-3.65,30.39
			c0,11.79,2.07,18.85,6.22,21.19c1.98,1.17,2.98,2.61,2.98,4.31c0,1.51-0.97,3.03-2.91,4.57c-1.94,1.54-3.81,2.3-5.61,2.3
			c-3.47,0-6.34-2.58-8.59-7.74C434.36,444.19,433.23,436.84,433.23,427.29z M429.11,386.16c-5.95,0-12.88,6.03-20.77,18.08
			c-7.89,12.06-11.84,22.05-11.84,29.99c0,5.6,1.71,8.4,5.14,8.4c4.96,0,11.84-5.41,20.63-16.22c8.79-10.81,13.19-20.75,13.19-29.81
			C435.47,389.64,433.35,386.16,429.11,386.16z"/>
		<path class="st1" d="M506.35,330.19c3.25,0,4.87,2.24,4.87,6.72c0,3.99-1.96,13.49-5.89,28.49c-2.48,9.45-4.4,19.87-5.75,31.27
			c-1.35,11.4-2.03,20.34-2.03,26.81c0,8.04,0.47,16.03,1.42,23.96c0.18,1.51,0.27,2.61,0.27,3.29c0,2.44-0.77,4.53-2.3,6.28
			c-1.53,1.75-3.16,2.63-4.87,2.63c-2.39,0-4.05-1.61-4.97-4.82c-0.92-3.21-1.39-8.4-1.39-15.56c0-16.32,1.82-36.53,5.45-60.64
			c3.63-24.11,6.52-38.21,8.66-42.3C501.96,332.24,504.14,330.19,506.35,330.19z"/>
		<path class="st1" d="M559.7,330.19c3.25,0,4.87,2.24,4.87,6.72c0,3.99-1.96,13.49-5.89,28.49c-2.48,9.45-4.4,19.87-5.75,31.27
			c-1.35,11.4-2.03,20.34-2.03,26.81c0,8.04,0.47,16.03,1.42,23.96c0.18,1.51,0.27,2.61,0.27,3.29c0,2.44-0.77,4.53-2.3,6.28
			c-1.53,1.75-3.16,2.63-4.87,2.63c-2.39,0-4.05-1.61-4.97-4.82c-0.92-3.21-1.39-8.4-1.39-15.56c0-16.32,1.82-36.53,5.45-60.64
			c3.63-24.11,6.52-38.21,8.66-42.3C555.32,332.24,557.49,330.19,559.7,330.19z"/>
	</g>
</g>
<g>
	<path class="st1" d="M387.82,521.97c-3.67,0.09-11.54,12.75-23.59,37.96c-4.07,8.5-6.44,13.13-7.11,13.88
		c-0.67,0.76-1.91,1.44-3.7,2.03c-1.8,0.6-3.29,0.9-4.47,0.9c-2.65,0-3.97-5.99-3.97-17.98c0-6.75,1.25-18.97,3.73-36.65
		c1.03-7.17,1.54-12.29,1.54-15.36c0-3.03,1.17-4.55,3.5-4.55c4.39,0,6.58,3.68,6.58,11.02c0,3.44-0.73,10.2-2.19,20.26
		c-1.7,11.48-2.57,18.46-2.61,20.95c2.45-2.76,6.04-8.79,10.79-18.12c6.72-12.77,11.67-20.86,14.85-24.29
		c3.18-3.42,6.47-5.13,9.87-5.13c2.57,0,4.61,2,6.13,5.99c1.52,4,2.44,13.53,2.76,28.59c0.08,3.77,0.38,6.57,0.89,8.41
		c0.51,1.84,0.89,2.76,1.13,2.76c1.86,0,5.89-7.35,12.09-22.05c3.32-7.76,6.55-13.67,9.69-17.71c3.14-4.04,6.63-6.06,10.46-6.06
		c3.2,0,5.53,1.92,6.99,5.75c1.46,3.84,2.51,9.52,3.14,17.05c0.59,7.63,1.51,14.61,2.76,20.95c1.25,6.34,3.53,10.4,6.85,12.2
		c2.25,1.24,3.38,2.69,3.38,4.34c0,1.61-0.95,3.26-2.84,4.96s-3.64,2.55-5.22,2.55c-3.16,0-5.99-2.25-8.47-6.75
		c-2.49-4.5-4.37-14.24-5.63-29.21c-0.55-6.02-1.09-10.29-1.6-12.82c-0.51-2.53-1.32-3.79-2.43-3.79c-1.66,0-3.62,1.84-5.9,5.51
		c-2.27,3.67-5.94,11.14-10.99,22.39c-3.95,8.77-6.94,14.62-8.98,17.54c-2.04,2.92-4,4.38-5.9,4.38c-1.7,0-3.22-0.79-4.56-2.38
		c-1.34-1.58-2.19-3.49-2.55-5.72c-0.36-2.23-0.73-7.71-1.13-16.43C390.49,532.81,389.4,524.36,387.82,521.97z"/>
	<path class="st1" d="M530.58,553.11c0,4.68-3.57,10.33-10.7,16.95s-14.49,9.92-22.08,9.92c-6.36,0-11.27-2.18-14.73-6.54
		c-3.46-4.36-5.19-10.45-5.19-18.26c0-13.14,3.81-25.63,11.44-37.48c7.62-11.85,15.96-17.78,25.01-17.78c2.96,0,5.38,1.13,7.26,3.38
		c1.88,2.25,2.82,4.96,2.82,8.13c0,7.07-2.98,13.85-8.95,20.33c-5.97,6.48-13.95,12.84-23.94,19.08c-2.05,1.24-3.08,2.85-3.08,4.82
		c0,3.81,0.95,6.87,2.84,9.16s4.7,3.44,8.42,3.44c8.49,0,17.17-5.47,26.02-16.4c1.3-1.52,2.29-2.27,2.96-2.27
		C529.94,549.6,530.58,550.77,530.58,553.11z M489.39,542.36c16.75-11.58,25.13-20.88,25.13-27.9c0-2.76-1.07-4.13-3.2-4.13
		c-3.64,0-7.73,3.1-12.3,9.3S491.24,533.41,489.39,542.36z"/>
</g>
<g>
	<path class="st1" d="M617.34,562.14c0,4.55-0.98,7.76-2.93,9.65c-1.96,1.88-3.64,2.83-5.07,2.83c-2.92,0-4.39-2.23-4.39-6.68
		c0-1.75,0.71-3.82,2.13-6.24c1.42-2.41,2.88-3.62,4.38-3.62c0.99,0,2.22,0.51,3.71,1.52C616.66,560.6,617.38,561.45,617.34,562.14z
		 M617.34,541.67c-0.99,0-2.35-0.18-4.09-0.55c-1.74-0.37-2.93-0.83-3.56-1.38c-0.51-4.91,0.47-14.15,2.96-27.7
		c2.02-10.93,3.02-18.58,3.02-22.94c0-6.16,0.97-10.31,2.9-12.47c1.93-2.16,3.55-3.24,4.86-3.24c0.99,0,1.99,0.48,3.02,1.45
		c1.03,0.96,1.54,2.04,1.54,3.24c0,1.01-2.17,12.66-6.52,34.93c-1.82,9.33-2.77,16.47-2.84,21.43
		C618.57,537.65,618.13,540.07,617.34,541.67z"/>
</g>
<path id="paper.clip" class="st2" d="M327.06,186.55c2.58,0,5.16,0,7.74,0c0.69-0.86,2.14-2.44,4.52-3.48
	c0.64-0.28,3.4-1.42,6.97-0.77c0.51,0.09,3.96,0.77,6.71,3.61c3.13,3.24,3.57,7.44,3.87,10.97c0.51,5.97,0.97,14.08,0.9,24
	c0.73,23.78,1.46,47.57,2.19,71.35c-0.09,5.59-0.17,11.18-0.26,16.77c-0.16,1.05-0.5,2.57-1.29,4.26c-0.57,1.22-2.14,4.44-5.68,6.45
	c-2.53,1.44-4.82,1.54-8.13,1.68c-2.46,0.11-4.17,0.18-6.19-0.65c-2.04-0.83-3.22-2.08-5.03-4c-1.2-1.28-2.84-3.23-4.39-5.94
	c-0.3-19.05-0.6-38.11-0.9-57.16c0.11-5.65-0.11-11.88-0.9-18.58c-0.32-2.74-0.72-5.36-1.16-7.87c-0.15-0.27-0.98-1.65-2.71-2.06
	c-0.22-0.05-2.25-0.51-3.74,0.9c-0.91,0.86-1.11,1.94-1.16,2.32c0.32,0.81,0.75,2.01,1.16,3.48c1.02,3.69,1.19,6.62,1.29,8.52
	c0.44,8.35,0.59,15.66,0.65,18.58c0.15,14.89,0.49,29.94,1.03,45.16c0.08,2.28,0.17,4.56,0.26,6.84c0.45,1.18,1.14,2.82,2.19,4.65
	c1.51,2.63,3.68,6.4,7.87,9.03c5.01,3.15,10.16,2.95,12.26,2.84c2-0.1,7.42-0.46,12.52-4.52c5.38-4.28,6.93-9.93,7.35-11.74
	c0.13-2.06,0.26-4.13,0.39-6.19c-0.13-19.96-0.26-39.91-0.39-59.87c-0.22-10.34-0.64-21.02-1.29-32c-0.49-8.33-1.1-16.46-1.81-24.39
	c-0.58-1.78-1.78-4.51-4.26-6.97c-2.11-2.09-4.23-3.08-5.68-3.74c-1.85-0.84-4.37-1.99-7.74-1.94c-3.37,0.06-5.81,1.28-7.87,2.32
	c-0.63,0.32-3.65,1.88-6.71,5.03C328.51,184.63,327.66,185.72,327.06,186.55z"/>
<g>
</g>
<g>
</g>
<g>
</g>
<g>
</g>
<g>
</g>
<g>
</g>
</svg>
