<?xml version="1.0" encoding="utf-8"?>
<!-- Generator: Adobe Illustrator 24.3.0, SVG Export Plug-In . SVG Version: 6.00 Build 0)  -->
<svg version="1.1" id="Layer_1" xmlns="http://www.w3.org/2000/svg" xmlns:xlink="http://www.w3.org/1999/xlink" x="0px" y="0px"
	 viewBox="0 0 864 864" style="enable-background:new 0 0 864 864;" xml:space="preserve">
<style type="text/css">
	.st0{fill:#040404;}
	.st1{fill:#0C0C0C;}
	.st2{fill:#080808;}
	.st3{fill:#010101;}
</style>
<path id="border" class="st0" d="M267.44,760.77c-5.3-13.79-10.59-27.59-16.69-43.47c-12.65,0-27.64-0.35-42.6,0.11
	c-11.2,0.35-15.95-4.26-15.38-15.49c0.51-9.99,0.11-20.03,0.11-30.63c-14.6-3.3-28.31-6.48-42.06-9.48
	c-17.41-3.81-19.06-5.97-15.24-23.2c15.91-71.88,32.2-143.68,47.66-215.65c2.12-9.85,2.2-20.9,0.15-30.75
	c-15.23-73.43-31.16-146.72-47.07-220.01c-2.19-10.1,0.77-15.73,11.17-17.8c14.78-2.94,29.45-6.44,45.39-9.97
	c0-9.73,0.47-19.25-0.12-28.7c-0.76-12.12,4.73-16.37,16.35-15.96c15.06,0.53,30.15,0.13,46.07,0.13
	c2.35-10.33,4.86-19.95,6.68-29.7c2.11-11.27,7.41-15.17,19.31-12.41C328.84,68.81,376.51,80,424.57,89.06
	c13.61,2.57,28.81-0.56,42.83-3.35c40.36-8.04,80.48-17.28,120.71-25.96c17.33-3.74,19.88-2.02,23.58,14.87
	c1.76,8.03,3.72,16.03,5.87,25.27c13.66,0,27.3-0.03,40.94,0.01c18.39,0.06,19.12,0.83,19.17,19.75c0.02,8.62,0,17.25,0,26.3
	c14.8,3.32,28.54,6.47,42.31,9.48c17.22,3.77,18.83,5.96,14.96,23.42c-15.94,71.87-32.21,143.67-47.74,215.63
	c-2.04,9.44-2.31,20.02-0.36,29.44c15.23,73.43,31.03,146.75,47.15,219.99c2.6,11.83-1.33,17.26-12.45,19.48
	c-14.34,2.86-28.61,6.05-43.87,9.3c0,9.52-0.51,18.63,0.12,27.65c0.87,12.35-3.91,17.68-16.6,17.12
	c-15.04-0.66-30.13-0.16-44.75-0.16c-4.66,15.19-9,29.33-13.33,43.46c-4.59,0-9.17,0-13.76,0c-21.07-5.24-42.01-11.1-63.24-15.59
	c-48.6-10.29-96.76-29.14-147.3-9.05c-3.77,1.5-8,1.83-12.01,2.74c-32.21,7.3-64.41,14.6-96.61,21.9
	C269.27,760.77,268.35,760.77,267.44,760.77z M213.84,696.19c148.43,0,295.36,0,442.64,0c0-192.19,0-383.54,0-574.92
	c-148.06,0-295.28,0-442.64,0C213.84,313.38,213.84,504.38,213.84,696.19z M678,330.89c0.63-0.13,1.27-0.25,1.9-0.38
	c11.43-51.45,22.86-102.89,34.47-155.13c-12.93-2.74-24.31-5.15-36.37-7.71C678,223.06,678,276.97,678,330.89z M192.57,649.65
	c0-55.66,0-109.41,0-163.16c-0.59-0.1-1.18-0.2-1.76-0.31c-11.5,51.68-23,103.36-34.63,155.62
	C169.05,644.58,180.1,646.96,192.57,649.65z M157.98,173.37c11.04,51.4,21.9,101.98,32.77,152.56c0.41-0.1,0.83-0.19,1.24-0.29
	c0-52.94,0-105.89,0-159.65C180.3,168.52,169.71,170.82,157.98,173.37z M677.92,651.38c12.18-2.69,23.08-5.1,34.67-7.67
	c-11.15-51.72-22-102.1-32.86-152.48c-0.6,0.14-1.21,0.27-1.81,0.41C677.92,544.21,677.92,596.79,677.92,651.38z M276.89,99.53
	c30.71,0,59.41,0,88.1,0c0.09-0.57,0.17-1.14,0.26-1.71c-27.64-6.21-55.28-12.43-83.82-18.84C279.86,86.1,278.51,92.18,276.89,99.53
	z M593.66,717.67c-30.71,0-59.41,0-88.11,0c-0.09,0.57-0.17,1.14-0.26,1.71c27.64,6.21,55.28,12.43,83.82,18.84
	C590.68,731.11,592.03,725.03,593.66,717.67z M510.6,97.72c-0.05,0.45-0.1,0.9-0.15,1.36c28.11,0,56.21,0,85.42,0
	c-1.53-6.81-2.79-12.41-4.25-18.91C563.87,86.18,537.23,91.95,510.6,97.72z M360.16,719.39c-0.16-0.57-0.32-1.15-0.48-1.72
	c-27.88,0-55.77,0-84.94,0c1.44,6.79,2.71,12.79,4.11,19.42C306.94,730.97,333.55,725.18,360.16,719.39z"/>
<path id="_x31_" class="st1" d="M289.45,508.05c-7.63-10.22-15.1-18.98-21.07-28.68c-3.72-6.04-5.15-13.49-7.61-20.3
	c6.67-1.96,13.31-5.52,20.01-5.62c36.68-0.56,73.37-0.27,110.05-0.27c31.18,0,62.36,0,93.55,0c2.75,0,5.5-0.05,8.25,0.02
	c7.31,0.18,14.51,1.23,14.55,10.61c0.04,9.32-6.9,10.68-14.37,10.68c-23.84-0.01-47.69,0-71.53,0c-42.62,0-85.24,0-130.63,0
	c5.76,7.83,9.98,14.6,15.22,20.45c8.28,9.23,7.87,17.58-0.18,26.64c-4.82,5.42-8.78,11.6-14.24,18.94c96.21,0,191,0,289.42,0
	c-26.4-21.36-28.43-42.87,0.15-64.1c-1.02-0.64-2.05-1.28-3.07-1.92c-9.32,0-18.84,1.14-27.87-0.45c-4.97-0.88-9.12-6.38-13.64-9.79
	c4.3-3.68,8.37-10.15,12.94-10.52c15.94-1.31,32.08-0.98,48.1-0.37c13.8,0.53,17.39,8.59,9.27,20.1
	c-8.15,11.57-16.82,22.77-25.64,34.65c8.07,10.85,16.34,21.15,23.61,32.12c3.01,4.54,6.87,12.55,4.97,15.34
	c-2.79,4.1-10.36,6.82-15.92,6.88c-45.39,0.53-90.79,0.3-136.19,0.3c-59.61,0-119.23,0.18-178.84-0.27
	c-6.12-0.05-12.2-3.85-18.31-5.9c2.17-6.05,3.34-12.73,6.72-18.01C273.79,528.17,281.63,518.6,289.45,508.05z"/>
<path id="heart" class="st2" d="M575.78,252.38c1.37,24.94-11.15,44.14-25.83,61.99c-29.71,36.12-66.44,64.24-105.64,89.15
	c-4.28,2.72-13.16,3.19-17.21,0.56c-45.07-29.36-87.97-61.31-118.74-106.7c-33.31-49.14-1.56-125.01,56.76-134.8
	c22.49-3.77,42.55,3.65,60.76,16.13c6.45,4.42,10.86,5.7,18.01,0.7c26.51-18.52,55.43-25.37,85.07-8.86
	C560.44,188.1,573.81,217.39,575.78,252.38z M383.87,182.34c-32.1,0.57-47.87,13.77-58.36,33.3c-12.08,22.5-15.51,46.21-0.62,68.98
	c26.9,41.14,65.66,69.68,105.44,96.92c2.25,1.54,7.3,1.71,9.48,0.22c37.94-25.84,73.79-53.83,102.06-90.85
	c23.96-31.37,10.3-73.48-9.64-92.46c-22.62-21.52-52.22-21.84-81.83,1.8c-11.8,9.42-19.62,7.73-31.2-0.32
	C406.51,191.11,391.3,185.91,383.87,182.34z"/>
<path id="line.1" class="st3" d="M436.68,586.4c40.34,0,80.68-0.02,121.01,0.02c4.11,0,8.83-0.83,12.17,0.87
	c3.46,1.75,7.75,6.16,7.7,9.34c-0.06,3.33-4.29,7.54-7.75,9.55c-2.79,1.62-7.14,0.63-10.8,0.63c-82.51,0.02-165.02,0.02-247.53,0
	c-3.66,0-8.03,0.98-10.8-0.64c-3.45-2.02-7.66-6.26-7.69-9.59c-0.03-3.18,4.29-7.55,7.75-9.29c3.36-1.69,8.06-0.85,12.18-0.86
	C354.17,586.38,395.42,586.4,436.68,586.4z"/>
<path id="line.2" class="st3" d="M436.35,650.95c-41.25,0-82.5,0-123.74,0c-3.21,0-7.13,1.1-9.47-0.34
	c-4.09-2.53-7.21-6.63-10.74-10.07c3.27-3.21,6.2-6.93,9.95-9.41c1.95-1.29,5.35-0.46,8.1-0.46c83.41-0.01,166.82-0.01,250.24,0
	c2.29,0,5.24-0.79,6.74,0.33c3.92,2.92,7.2,6.7,10.74,10.13c-3.73,3.26-7.28,9.04-11.23,9.32c-15.5,1.11-31.13,0.49-46.71,0.5
	C492.26,650.96,464.31,650.95,436.35,650.95z"/>
</svg>
