<?xml version="1.0" encoding="utf-8"?>
<!-- Generator: Adobe Illustrator 24.3.0, SVG Export Plug-In . SVG Version: 6.00 Build 0)  -->
<svg version="1.1" id="Layer_1" xmlns="http://www.w3.org/2000/svg" xmlns:xlink="http://www.w3.org/1999/xlink" x="0px" y="0px"
	 viewBox="0 0 864 864" style="enable-background:new 0 0 864 864;" xml:space="preserve">
<style type="text/css">
	.st0{fill:#636466;}
	.st1{fill:#97979B;}
	.st2{fill:#FFFFFF;}
	.st3{fill:#F7F5F7;}
</style>
<rect id="rectangle.post" x="424.77" y="210.55" class="st0" width="35.61" height="518.71"/>
<g id="top.sign">
	<g>
		<path class="st1" d="M322.52,108.81c-5.07,1.41-8.69,4.13-8.69,4.13c-3.17,2.38-4.98,5.09-5.99,6.97c0,31.57,0,63.14,0,94.71
			c0.5,1.65,1.6,4.44,4.2,7.23c3.13,3.36,6.79,4.98,8.69,5.68c80.31,0,160.63,0,240.94,0c1.99-0.53,5.83-1.82,9.29-4.9
			c2.45-2.18,3.78-4.43,4.5-5.94c0-32.26,0-64.52,0-96.77c-0.66-1.54-2.16-4.38-5.39-6.97c-3.71-2.97-7.71-4.01-9.59-4.39
			C427.57,106.71,330.11,106.69,322.52,108.81z"/>
		<path d="M328.61,113.38c-4.8,1.29-8.21,3.77-8.21,3.77c-3,2.18-4.7,4.65-5.66,6.37c0,28.84,0,57.69,0,86.53
			c0.47,1.51,1.51,4.05,3.97,6.6c2.96,3.07,6.42,4.55,8.21,5.19c75.91,0,151.81,0,227.72,0c1.88-0.49,5.51-1.66,8.78-4.48
			c2.31-1.99,3.57-4.05,4.25-5.42c0-29.47,0-58.95,0-88.42c-0.63-1.4-2.04-4-5.1-6.37c-3.51-2.72-7.28-3.66-9.06-4.01
			C427.89,111.46,335.78,111.45,328.61,113.38z"/>
	</g>
	<circle class="st2" cx="444.35" cy="123.19" r="5.55"/>
	<circle class="st2" cx="443.97" cy="214.55" r="5.55"/>
</g>
<g id="shield_1_">
	<g id="shield">
		<path class="st1" d="M333.65,242.03c-6.05,7.77-13.24,18.1-20.13,30.97c-10.09,18.85-15.03,34.79-17.03,41.81
			c-2.84,9.95-6.49,23.08-7.23,40.77c-0.65,15.76,1.32,27.58,3.1,38.19c3.16,18.89,7.9,32.84,9.81,38.19
			c2.61,7.31,7.29,20.22,16.52,35.61c1.6,2.66,8.22,13.55,19.1,26.32c4.46,5.24,11.82,13.79,23.23,23.23
			c10.04,8.31,18.54,13.42,23.74,16.52c13.47,8.03,24.53,12.56,33.03,16c7.46,3.02,17.02,6.53,28.39,9.81
			c3.81-0.93,8.95-2.27,14.97-4.13c5.95-1.84,16.76-5.22,29.94-11.35c6.45-3.01,15.74-7.38,26.84-14.97
			c11.3-7.72,18.81-14.9,24.77-20.65c5.19-5,13.29-12.87,22.19-24.77c2.69-3.59,10.41-14.18,18.06-29.42
			c7.5-14.93,11.52-27.53,13.42-34.06c1.57-5.4,4.9-17.76,6.71-34.06c0.73-6.56,1.89-17.54,1.03-32
			c-0.87-14.56-3.35-25.34-5.16-33.03c-2.26-9.62-4.86-20.41-10.84-33.55c-3.49-7.67-6.8-13.2-13.42-24.26
			c-5.33-8.91-10.04-16.13-13.42-21.16c-5.41,2.17-12.56,4.66-21.16,6.65c-3.64,0.84-15.62,3.45-31.74,3.68
			c-14.41,0.2-25.22-1.6-35.03-3.29c-11.28-1.94-20.64-4.37-27.48-6.39c-3.15,1.26-7.42,2.82-12.58,4.26
			c-1.87,0.52-10.18,2.79-22.65,4.06c-11.45,1.17-20.13,0.87-27.68,0.58c-9.18-0.35-16.41-0.63-25.94-2.52
			C347.08,247.1,339.12,244.28,333.65,242.03z"/>
		<path d="M586.36,308.1H308.34c2.67-7.37,6.63-16.86,12.3-27.31c6.52-12.03,13.34-21.69,19.08-28.95
			c5.19,2.11,12.73,4.74,22.13,6.58c9.03,1.75,15.88,2.02,24.59,2.35c7.15,0.27,15.38,0.55,26.23-0.55
			c11.82-1.19,19.7-3.31,21.47-3.8c4.89-1.34,8.94-2.8,11.92-3.98c6.49,1.89,15.36,4.16,26.05,5.98c9.31,1.57,19.55,3.26,33.21,3.07
			c15.28-0.21,26.63-2.65,30.09-3.44c8.15-1.85,14.93-4.18,20.06-6.21c3.2,4.7,7.66,11.46,12.71,19.79
			c6.28,10.33,9.41,15.5,12.72,22.68C583.17,299.24,584.93,303.81,586.36,308.1z"/>
		<path d="M595.09,386.47c-1.71,15.25-4.87,26.8-6.36,31.85c-1.79,6.11-5.61,17.89-12.72,31.85c-7.25,14.25-14.57,24.15-17.12,27.51
			c-8.44,11.12-16.12,18.48-21.04,23.16c-5.65,5.37-12.77,12.08-23.48,19.3c-10.52,7.1-19.32,11.19-25.44,14
			c-12.49,5.74-22.74,8.9-28.38,10.61c-5.7,1.74-10.57,3-14.18,3.86c-10.78-3.06-19.84-6.34-26.91-9.16
			c-8.06-3.22-18.54-7.46-31.31-14.96c-4.93-2.9-12.98-7.68-22.51-15.45c-10.81-8.81-17.78-16.81-22.01-21.71
			c-10.31-11.94-16.59-22.12-18.1-24.61c-8.75-14.39-13.19-26.46-15.66-33.3c-1.81-5-6.3-18.05-9.29-35.71
			c-1.68-9.92-3.56-20.97-2.94-35.71c0.7-16.54,4.16-28.82,6.85-38.12c0.25-0.86,0.55-1.87,0.9-3.01h283.59
			c0.82,3.06,1.53,5.98,2.2,8.8c1.71,7.19,4.07,17.28,4.89,30.89C596.89,370.07,595.78,380.34,595.09,386.47z"/>
	</g>
	<circle class="st2" cx="445.26" cy="261" r="5.55"/>
	<circle class="st2" cx="445" cy="536.61" r="5.55"/>
</g>
<g id="arrow.sign">
	<g>
		<path class="st1" d="M342.16,573c-4.37,1.41-7.48,4.13-7.48,4.13c-2.73,2.38-4.29,5.09-5.16,6.97c0,31.57,0,63.14,0,94.71
			c0.43,1.65,1.38,4.44,3.61,7.23c2.69,3.36,5.85,4.98,7.48,5.68c69.16,0,138.32,0,207.48,0c1.71-0.53,5.02-1.82,8-4.9
			c2.11-2.18,3.26-4.43,3.87-5.94c0-32.26,0-64.52,0-96.77c-0.57-1.54-1.86-4.38-4.65-6.97c-3.2-2.97-6.64-4.01-8.26-4.39
			C432.62,570.9,348.7,570.89,342.16,573z"/>
		<path d="M347.4,577.57c-4.13,1.29-7.07,3.77-7.07,3.77c-2.58,2.18-4.05,4.65-4.88,6.37c0,28.84,0,57.69,0,86.53
			c0.4,1.51,1.3,4.05,3.41,6.6c2.55,3.07,5.53,4.55,7.07,5.19c65.37,0,130.73,0,196.1,0c1.62-0.49,4.74-1.66,7.56-4.48
			c1.99-1.99,3.08-4.05,3.66-5.42c0-29.47,0-58.95,0-88.42c-0.54-1.4-1.76-4-4.39-6.37c-3.02-2.72-6.27-3.66-7.8-4.01
			C432.9,575.65,353.58,575.64,347.4,577.57z"/>
	</g>
	<path class="st3" d="M395.32,614.29v28.9h62.97v14.71l60.65-29.16l-60.65-29.68v15.23C458.29,614.29,394.81,613.77,395.32,614.29z"
		/>
	<circle class="st2" cx="444.61" cy="589.26" r="5.55"/>
	<circle class="st2" cx="444.23" cy="674.42" r="5.55"/>
</g>
<g>
	<path class="st2" d="M334.35,187.75c-1.15-0.37-2.23-0.92-3.24-1.64c-1.01-0.72-1.91-1.58-2.71-2.6l2.2-6.02
		c0.97,1.23,2.09,2.17,3.36,2.84s2.57,1,3.91,1c1.55,0,2.75-0.4,3.6-1.21c0.85-0.81,1.28-1.95,1.28-3.42v-0.03
		c0-1.03-0.19-1.85-0.57-2.45c-0.38-0.6-0.88-1.05-1.49-1.33c-0.61-0.28-1.4-0.54-2.35-0.77c-0.04-0.02-0.07-0.03-0.1-0.03
		c-0.03,0-0.06-0.01-0.09-0.03l-0.38-0.08c-1.69-0.41-3.08-0.92-4.19-1.53c-1.11-0.61-2.05-1.69-2.82-3.22s-1.16-3.72-1.16-6.54
		v-0.03c0-2.5,0.36-4.64,1.09-6.42c0.73-1.78,1.78-3.13,3.17-4.06c1.39-0.93,3.06-1.4,5.02-1.4c0.9,0,1.82,0.16,2.76,0.48
		c0.94,0.32,1.86,0.78,2.76,1.39c0.9,0.6,1.75,1.33,2.56,2.18l-2.01,6.18c-0.97-1.03-1.98-1.83-3.04-2.4
		c-1.06-0.57-2.07-0.85-3.04-0.85c-1.45,0-2.58,0.37-3.38,1.11c-0.8,0.74-1.19,1.77-1.19,3.1v0.03c0,1.12,0.21,2,0.62,2.65
		c0.42,0.65,0.93,1.12,1.54,1.43c0.61,0.3,1.47,0.62,2.58,0.96c0.05,0.02,0.09,0.03,0.14,0.04c0.05,0.01,0.09,0.02,0.14,0.04
		c0.07,0.02,0.14,0.04,0.2,0.07c0.06,0.03,0.13,0.05,0.2,0.07c1.59,0.48,2.92,1.06,3.99,1.75s1.96,1.78,2.67,3.3
		s1.07,3.59,1.07,6.22v0.05c0,2.47-0.38,4.58-1.12,6.34s-1.84,3.1-3.28,4.02c-1.44,0.92-3.17,1.39-5.19,1.39
		C336.67,188.3,335.5,188.12,334.35,187.75z"/>
	<path class="st2" d="M354.96,149.17h4.74v38.73h-4.74V149.17z M357.07,180.87h14.75v7.03h-14.75V180.87z"/>
	<path class="st2" d="M381.95,186.53c-1.39-1.18-2.47-2.85-3.23-5.01s-1.14-4.66-1.14-7.5v-10.98c0-2.84,0.38-5.34,1.14-7.5
		c0.76-2.16,1.84-3.83,3.23-5.01c1.39-1.18,3-1.77,4.82-1.77c1.82,0,3.43,0.59,4.82,1.77c1.39,1.18,2.47,2.85,3.23,5.01
		c0.76,2.16,1.14,4.66,1.14,7.5v10.98c0,2.84-0.38,5.34-1.14,7.5s-1.84,3.83-3.23,5.01c-1.39,1.18-3,1.77-4.82,1.77
		C384.95,188.3,383.34,187.71,381.95,186.53z M389.02,180.17c0.65-0.56,1.15-1.35,1.5-2.38c0.35-1.03,0.53-2.22,0.53-3.57v-11.35
		c0-1.35-0.18-2.54-0.53-3.57c-0.35-1.03-0.85-1.82-1.5-2.38s-1.4-0.84-2.25-0.84c-0.85,0-1.6,0.28-2.25,0.84s-1.15,1.35-1.5,2.38
		c-0.35,1.03-0.53,2.22-0.53,3.57v11.35c0,1.35,0.18,2.54,0.53,3.57c0.35,1.03,0.85,1.83,1.5,2.38c0.65,0.56,1.4,0.84,2.25,0.84
		C387.63,181.01,388.38,180.73,389.02,180.17z"/>
	<path class="st2" d="M414.83,149.17h3.81l4.81,25.84l3.24-25.84h4.88l-5.8,38.73h-4.47l-4.47-27.07l-4.67,27.07h-4.47l-5.8-38.73
		h4.88l3.24,25.84L414.83,149.17z"/>
	<path class="st2" d="M451.06,149.17h4.74v38.73h-4.74V149.17z M453.45,180.87h6.04c1.56,0,2.76-0.58,3.62-1.73
		c0.85-1.15,1.28-2.79,1.28-4.9v-11.4c0-2.11-0.43-3.75-1.28-4.9c-0.85-1.15-2.06-1.73-3.62-1.73h-6.04v-7.03h5.94
		c2.1,0,3.89,0.54,5.38,1.62c1.48,1.08,2.61,2.66,3.38,4.74c0.77,2.08,1.16,4.58,1.16,7.51v10.98c0,2.79-0.37,5.22-1.12,7.3
		c-0.75,2.08-1.86,3.69-3.35,4.85c-1.49,1.15-3.31,1.73-5.47,1.73h-5.92V180.87z"/>
	<path class="st2" d="M480.99,186.53c-1.39-1.18-2.47-2.85-3.23-5.01s-1.14-4.66-1.14-7.5v-10.98c0-2.84,0.38-5.34,1.14-7.5
		c0.76-2.16,1.84-3.83,3.23-5.01c1.39-1.18,3-1.77,4.82-1.77c1.82,0,3.43,0.59,4.82,1.77c1.39,1.18,2.47,2.85,3.23,5.01
		c0.76,2.16,1.14,4.66,1.14,7.5v10.98c0,2.84-0.38,5.34-1.14,7.5s-1.84,3.83-3.23,5.01c-1.39,1.18-3,1.77-4.82,1.77
		C483.99,188.3,482.38,187.71,480.99,186.53z M488.07,180.17c0.65-0.56,1.15-1.35,1.5-2.38c0.35-1.03,0.53-2.22,0.53-3.57v-11.35
		c0-1.35-0.18-2.54-0.53-3.57c-0.35-1.03-0.85-1.82-1.5-2.38s-1.4-0.84-2.25-0.84c-0.85,0-1.6,0.28-2.25,0.84s-1.15,1.35-1.5,2.38
		c-0.35,1.03-0.53,2.22-0.53,3.57v11.35c0,1.35,0.18,2.54,0.53,3.57c0.35,1.03,0.85,1.83,1.5,2.38c0.65,0.56,1.4,0.84,2.25,0.84
		C486.67,181.01,487.42,180.73,488.07,180.17z"/>
	<path class="st2" d="M513.87,149.17h3.81l4.81,25.84l3.24-25.84h4.88l-5.8,38.73h-4.47l-4.47-27.07l-4.67,27.07h-4.47l-5.8-38.73
		h4.88l3.24,25.84L513.87,149.17z"/>
	<path class="st2" d="M537.24,149.17h5.8l9.37,29.68l-0.42,0.69v-30.37h4.54v38.71h-5.83l-9.33-29.22l0.42-0.69v29.92h-4.54V149.17z
		"/>
</g>
<g>
	<path class="st2" d="M359.04,270.16h5.42l8.74,24.69l-0.39,0.58v-25.27h4.23v32.21h-5.45l-8.71-24.32l0.39-0.58v24.89h-4.23V270.16
		z"/>
	<path class="st2" d="M385.49,270.16h4.43v32.23h-4.43V270.16z M387.09,270.16h14.14v5.85h-14.14V270.16z M387.09,283.46h12.36v5.85
		h-12.36V283.46z M387.09,296.54h14.14v5.85h-14.14V296.54z"/>
	<path class="st2" d="M414.43,282.56l5.29-12.39h4.67l-7.77,18.22l-5.98,14.01h-4.67L414.43,282.56z M414.38,289.21l-0.45-1.04
		l-7.77-18h4.67l5.27,12.21l0.61,1.44l8.03,18.58h-4.67L414.38,289.21z"/>
	<path class="st2" d="M428.67,270.16h17.23v5.85h-17.23V270.16z M435.07,272.8h4.43v29.59h-4.43V272.8z"/>
	<path class="st2" d="M463.28,270.16h4.43v32.23h-4.43V270.16z M464.88,270.16h14.14v5.85h-14.14V270.16z M464.88,283.46h12.36v5.85
		h-12.36V283.46z M464.88,296.54h14.14v5.85h-14.14V296.54z"/>
	<path class="st2" d="M492.22,282.56l5.29-12.39h4.67l-7.77,18.22l-5.98,14.01h-4.67L492.22,282.56z M492.17,289.21l-0.45-1.04
		l-7.77-18h4.67l5.27,12.21l0.61,1.44l8.03,18.58h-4.67L492.17,289.21z"/>
	<path class="st2" d="M512.99,302.4h-4.59v-32.23h4.59V302.4z"/>
	<path class="st2" d="M519.17,270.16h17.23v5.85h-17.23V270.16z M525.57,272.8H530v29.59h-4.43V272.8z"/>
</g>
<g>
	<path class="st2" d="M335.29,361.03h8.32v16.62h9.09v-16.62h8.32v41.16h-8.32v-16.83h-9.09v16.83h-8.32V361.03z"/>
	<path class="st2" d="M373.78,361.03h23.01v7.06H382.1v9.56h11.42v7.06H382.1v10.13h14.69v7.36h-23.01V361.03z"/>
	<path class="st2" d="M413.16,361.03h8.37l10.81,41.16h-8.5l-1.89-8.5h-10.66l-1.86,8.5h-7.64L413.16,361.03z M420.39,386.63
		l-3.82-16.86l-3.67,16.86H420.39z"/>
	<path class="st2" d="M441.12,361.03h8.32v33.44h12.2v7.72h-20.51V361.03z"/>
	<path class="st2" d="M465.42,361.03h23.59v7.72h-7.73v33.44h-8.32v-33.44h-7.54V361.03z"/>
	<path class="st2" d="M497.51,361.03h8.32v16.62h9.09v-16.62h8.32v41.16h-8.32v-16.83h-9.09v16.83h-8.32V361.03z"/>
	<path class="st2" d="M530.83,361.03h9.16l5.34,15l5.71-15h8.12l-10.51,23.76v17.4h-8.32v-17.4L530.83,361.03z"/>
</g>
<g>
	<path class="st2" d="M395.04,431.71h7.97v33.44h11.7v7.72h-19.67V431.71z"/>
	<path class="st2" d="M423.61,431.71h7.97v41.16h-7.97V431.71z"/>
	<path class="st2" d="M443.83,431.71h21.53v7.06H451.8v10.77h10.45v7.06H451.8v16.28h-7.97V431.71z"/>
	<path class="st2" d="M473.33,431.71h22.06v7.06H481.3v9.56h10.95v7.06H481.3v10.13h14.09v7.36h-22.06V431.71z"/>
</g>
<g>
</g>
<g>
</g>
<g>
</g>
<g>
</g>
<g>
</g>
<g>
</g>
</svg>
