<?xml version="1.0" encoding="utf-8"?>
<!-- Generator: Adobe Illustrator 24.3.0, SVG Export Plug-In . SVG Version: 6.00 Build 0)  -->
<svg version="1.1" id="Layer_1" xmlns="http://www.w3.org/2000/svg" xmlns:xlink="http://www.w3.org/1999/xlink" x="0px" y="0px"
	 viewBox="0 0 864 864" style="enable-background:new 0 0 864 864;" xml:space="preserve">
<style type="text/css">
	.st0{fill:#5C5D60;}
	.st1{fill:#FFFFFF;}
</style>
<rect id="background.rectangle" x="42.16" y="320.1" class="st0" width="794.32" height="149.42"/>
<g>
	<path class="st1" d="M119.1,363.91h6.38l-6.33,51.01h16.58l-1.05,8.52h-22.95L119.1,363.91z"/>
	<path class="st1" d="M145.52,423.44l5.33-42.92h6.38l-5.33,42.92H145.52z M151.84,368.55c0-3.58,1.83-5.95,3.91-5.95
		c2.03,0,3.51,2.12,3.53,5.37c-0.03,3.56-1.77,5.91-4.03,5.91C153.28,373.88,151.83,371.69,151.84,368.55z"/>
	<path class="st1" d="M166.63,423.44l4.35-35.3h-3.71l0.96-7.62h3.71l0.26-2.25c0.66-5.77,2.06-11.39,4.78-14.98
		c2.06-2.74,4.81-3.96,7.37-3.96c2.04,0,3.43,0.56,4.2,1.2l-1.19,7.81c-0.77-0.55-1.77-0.85-2.88-0.85c-3.45,0-5.24,4.74-5.97,10.93
		l-0.26,2.11h6.09l-0.96,7.62h-6.06l-4.35,35.3H166.63z"/>
	<path class="st1" d="M212.29,420.88c-2.66,2.2-6.66,3.58-10.34,3.58c-7.99,0-11.88-7.55-11.88-18.11
		c0-13.19,6.67-26.86,16.38-26.86c5.69,0,9.4,4.8,9.4,12.05c0,11.16-8.14,14.3-19.53,13.88c-0.14,1.69,0.14,4.72,0.77,6.53
		c1.22,3.25,3.46,4.81,6.29,4.81c3.42,0,6.2-1.39,8.23-2.99L212.29,420.88z M205.62,386.71c-4.71,0-7.81,6.4-8.65,11.43
		c7.76,0.13,12.75-1.15,12.75-6.63C209.72,388.51,208.03,386.71,205.62,386.71z"/>
	<path class="st1" d="M224.73,414.14c1.54,1.29,4.46,3,7.04,3c2.94,0,4.74-2.58,4.74-5.64c0-2.74-0.93-4.54-3.94-6.79
		c-3.49-2.58-5.83-6.3-5.83-11.28c0-8.19,4.8-13.95,11.4-13.95c3,0,5.53,1.11,6.77,2.29l-1.67,7.1c-1.1-0.87-3.09-2.06-5.57-2.06
		c-2.63,0-4.51,2.2-4.51,5.24c0,2.55,1.31,4.27,3.97,6.29c3.21,2.41,6.02,5.91,6.02,11.5c0,9.35-5.28,14.62-11.99,14.62
		c-3.43,0-6.55-1.52-8.1-3.31L224.73,414.14z"/>
	<path class="st1" d="M267.72,368.72l-1.44,11.8h6.66l-0.99,7.62h-6.67l-2.19,17.3c-0.28,2.15-0.56,4.49-0.56,6.65
		c0,2.39,0.72,4.06,2.66,4.06c0.85,0,1.69-0.08,2.37-0.3l-0.52,7.71c-0.91,0.57-2.68,0.9-4.33,0.9c-4.76,0-6.71-4.11-6.71-8.88
		c0-2.59,0.2-5.07,0.63-8.31l2.43-19.14h-3.96l0.96-7.62h3.96l1.15-9.47L267.72,368.72z"/>
	<path class="st1" d="M287.4,380.52l2.75,21.01c0.65,4.92,1.05,8.14,1.35,10.96h0.14c0.69-2.48,1.44-5.33,2.87-10.18l6.59-21.79
		h6.81l-10.54,31.31c-3.44,10.27-6.49,17.78-10.31,23.53c-3.54,5.4-7.58,7.57-9.4,8.03l-1.28-8.45c1.24-0.56,3.32-1.68,5.21-3.81
		c1.94-2.16,3.81-5.19,5.25-9.05c0.25-0.67,0.23-1.16,0.12-1.96l-6.25-39.6H287.4z"/>
	<path class="st1" d="M313.56,423.44l7.87-63.08h6.38l-7.87,63.08H313.56z"/>
	<path class="st1" d="M356.55,420.88c-2.66,2.2-6.66,3.58-10.34,3.58c-7.99,0-11.88-7.55-11.88-18.11
		c0-13.19,6.67-26.86,16.38-26.86c5.69,0,9.4,4.8,9.4,12.05c0,11.16-8.14,14.3-19.53,13.88c-0.14,1.69,0.14,4.72,0.77,6.53
		c1.22,3.25,3.46,4.81,6.29,4.81c3.42,0,6.2-1.39,8.23-2.99L356.55,420.88z M349.88,386.71c-4.71,0-7.81,6.4-8.65,11.43
		c7.76,0.13,12.75-1.15,12.75-6.63C353.98,388.51,352.29,386.71,349.88,386.71z"/>
	<path class="st1" d="M385.87,423.44l4.35-35.3h-3.71l0.96-7.62h3.71l0.26-2.25c0.66-5.77,2.06-11.39,4.78-14.98
		c2.06-2.74,4.81-3.96,7.37-3.96c2.04,0,3.43,0.56,4.2,1.2l-1.19,7.81c-0.77-0.55-1.77-0.85-2.88-0.85c-3.45,0-5.24,4.74-5.97,10.93
		l-0.26,2.11h6.09l-0.96,7.62h-6.06l-4.35,35.3H385.87z"/>
	<path class="st1" d="M438.49,398.05c0,14.77-7.09,26.42-16.84,26.42c-7.32,0-12.21-7.6-12.21-18.38c0-14.84,7.05-26.61,16.74-26.61
		C434.03,379.48,438.49,387.86,438.49,398.05z M416.08,405.89c0,6.66,2.63,11.01,6.47,11.01c5.35,0,9.3-9.39,9.3-18.62
		c0-4.78-1.56-11.22-6.37-11.22C419.6,387.05,416.08,397.22,416.08,405.89z"/>
	<path class="st1" d="M447.59,423.44l3.26-26.29c0.74-6.07,1.14-12.69,1.46-16.63h5.58c-0.22,3.11-0.44,6.22-0.73,9.44h0.17
		c1.9-5.92,5.07-10.48,9.13-10.48c0.51,0,1.11,0.04,1.56,0.13l-1.25,9.5c-0.39-0.09-0.84-0.13-1.42-0.13
		c-4.86,0-8.11,7.63-9.32,17.58l-2.06,16.86H447.59z"/>
	<path class="st1" d="M510.18,423.44c0-2.59,0.25-6.49,0.56-10.57h-0.12c-2.91,8.56-6.95,11.6-10.98,11.6
		c-5.31,0-8.84-6.32-8.84-14.98c0-15.15,7.37-30.01,20.55-30.01c3.1,0,6.5,0.86,8.76,1.91l-2.82,21.96
		c-0.86,6.96-1.29,15.04-1.16,20.09H510.18z M512.92,387.64c-0.68-0.3-1.71-0.56-3.19-0.56c-6.67,0-12.22,9.93-12.23,20.78
		c0,4.52,1.24,8.72,4.64,8.72c3.61,0,7.99-6.39,9.41-18.08L512.92,387.64z"/>
	<path class="st1" d="M545.66,423.44l7.87-63.08h6.38l-7.87,63.08H545.66z"/>
	<path class="st1" d="M566.03,423.44l5.33-42.92h6.38l-5.33,42.92H566.03z M572.35,368.55c0-3.58,1.83-5.95,3.91-5.95
		c2.03,0,3.51,2.12,3.53,5.37c-0.03,3.56-1.77,5.91-4.03,5.91C573.79,373.88,572.35,371.69,572.35,368.55z"/>
	<path class="st1" d="M587.14,423.44l4.35-35.3h-3.71l0.96-7.62h3.71l0.26-2.25c0.66-5.77,2.06-11.39,4.78-14.98
		c2.06-2.74,4.81-3.96,7.37-3.96c2.04,0,3.43,0.56,4.2,1.2l-1.19,7.81c-0.76-0.55-1.77-0.85-2.88-0.85c-3.45,0-5.24,4.74-5.97,10.93
		l-0.26,2.11h6.08l-0.96,7.62h-6.06l-4.35,35.3H587.14z"/>
	<path class="st1" d="M632.8,420.88c-2.66,2.2-6.66,3.58-10.34,3.58c-7.99,0-11.88-7.55-11.88-18.11c0-13.19,6.67-26.86,16.38-26.86
		c5.7,0,9.4,4.8,9.4,12.05c0,11.16-8.14,14.3-19.54,13.88c-0.14,1.69,0.14,4.72,0.77,6.53c1.22,3.25,3.46,4.81,6.29,4.81
		c3.42,0,6.2-1.39,8.23-2.99L632.8,420.88z M626.13,386.71c-4.71,0-7.81,6.4-8.65,11.43c7.76,0.13,12.75-1.15,12.75-6.63
		C630.23,388.51,628.54,386.71,626.13,386.71z"/>
	<path class="st1" d="M658.78,368.72l-1.44,11.8H664l-0.99,7.62h-6.67l-2.18,17.3c-0.28,2.15-0.56,4.49-0.56,6.65
		c0,2.39,0.72,4.06,2.66,4.06c0.85,0,1.69-0.08,2.37-0.3l-0.52,7.71c-0.91,0.57-2.68,0.9-4.33,0.9c-4.76,0-6.71-4.11-6.71-8.88
		c0-2.59,0.2-5.07,0.63-8.31l2.43-19.14h-3.96l0.96-7.62h3.96l1.15-9.47L658.78,368.72z"/>
	<path class="st1" d="M670.18,423.44l5.33-42.92h6.38l-5.33,42.92H670.18z M676.5,368.55c0-3.58,1.83-5.95,3.91-5.95
		c2.03,0,3.51,2.12,3.53,5.37c-0.03,3.56-1.77,5.91-4.03,5.91C677.94,373.88,676.5,371.69,676.5,368.55z"/>
	<path class="st1" d="M690.53,423.44l3.65-30.13c0.61-4.88,1.02-9.12,1.33-12.79h5.55l-0.7,7.89h0.12
		c2.72-6.01,6.42-8.92,10.29-8.92c4.69,0,6.83,4.45,7.04,9.41c2.63-6.24,6.38-9.33,10.62-9.41c3.76,0,7.27,3.55,7.27,11.94
		c0,1.9-0.18,5.02-0.42,7.15l-3.05,24.87h-6.19l2.86-23.65c0.18-1.52,0.38-3.56,0.38-5.19c0-4.31-1.09-7.15-4-7.15
		c-3.44,0-7.25,6.21-8.37,15.63l-2.46,20.37h-6.18l2.97-24.06c0.21-1.76,0.35-3.34,0.35-4.81c0-3.57-0.66-7.12-3.95-7.12
		c-3.48,0-7.49,6.98-8.55,16l-2.38,20H690.53z"/>
	<path class="st1" d="M768.65,420.88c-2.66,2.2-6.66,3.58-10.34,3.58c-7.99,0-11.88-7.55-11.88-18.11
		c0-13.19,6.67-26.86,16.38-26.86c5.7,0,9.4,4.8,9.4,12.05c0,11.16-8.14,14.3-19.54,13.88c-0.14,1.69,0.14,4.72,0.77,6.53
		c1.22,3.25,3.46,4.81,6.29,4.81c3.42,0,6.2-1.39,8.23-2.99L768.65,420.88z M761.98,386.71c-4.71,0-7.81,6.4-8.65,11.43
		c7.76,0.13,12.75-1.15,12.75-6.63C766.08,388.51,764.39,386.71,761.98,386.71z"/>
	<path class="st1" d="M779.57,418.25c0-4.04,1.85-7.29,4.58-7.29c2.3,0,3.95,2.59,3.95,6.33c0,4.04-1.88,7.1-4.62,7.1
		C781.15,424.39,779.57,421.72,779.57,418.25z"/>
</g>
<g>
</g>
<g>
</g>
<g>
</g>
<g>
</g>
<g>
</g>
<g>
</g>
</svg>
