<?xml version="1.0" encoding="utf-8"?>
<!-- Generator: Adobe Illustrator 24.3.0, SVG Export Plug-In . SVG Version: 6.00 Build 0)  -->
<svg version="1.1" id="Layer_1" xmlns="http://www.w3.org/2000/svg" xmlns:xlink="http://www.w3.org/1999/xlink" x="0px" y="0px"
	 viewBox="0 0 864 864" style="enable-background:new 0 0 864 864;" xml:space="preserve">
<style type="text/css">
	.st0{fill:#686A69;}
	.st1{fill:#156B37;}
	.st2{fill:none;stroke:#FFFFFF;stroke-width:4;stroke-miterlimit:10;}
	.st3{fill:#E1E6E7;}
	.st4{fill:#D7DCDF;}
	.st5{fill:#F4F7F3;}
	.st6{fill:#C8D2DA;}
	.st7{fill:#939598;}
</style>
<rect x="243.45" y="494.65" class="st0" width="25.55" height="97.55"/>
<rect x="604.61" y="494.65" class="st0" width="25.55" height="97.55"/>
<path class="st1" d="M160.03,172.81c0.22-3.43,1.15-7.19,3.87-9.97c3.68-3.76,9-4.16,10.84-4.16c176.94,0,353.87,0,530.81,0
	c1.24,0.13,4.64,0.66,7.74,3.39c3.56,3.13,4.36,7.07,4.55,8.23c0,106.19,0,212.39,0,318.58c-0.12,1.53-0.57,4.5-2.61,7.45
	c-3.52,5.09-9.07,6.18-10.26,6.39c-177.16,0-354.32,0-531.48,0c-1.35-0.09-4.84-0.49-8.13-3.1c-4.26-3.38-5.14-8.05-5.32-9.19
	C160.03,384.55,160.03,278.68,160.03,172.81z"/>
<path class="st2" d="M171.84,183.42c0.21-3.18,1.1-6.68,3.7-9.26c3.51-3.5,8.6-3.87,10.35-3.87c168.95,0,337.91,0,506.86,0
	c1.19,0.12,4.43,0.62,7.39,3.15c3.4,2.91,4.16,6.57,4.34,7.65c0,98.7,0,197.39,0,296.09c-0.11,1.42-0.55,4.19-2.5,6.93
	c-3.37,4.73-8.66,5.74-9.8,5.94c-169.17,0-338.34,0-507.51,0c-1.28-0.08-4.62-0.45-7.76-2.88c-4.07-3.14-4.91-7.48-5.08-8.54
	C171.84,380.21,171.84,281.82,171.84,183.42z"/>
<g id="self.defense">
	<path class="st3" d="M353.53,433.56c0.07-0.1,0.09-0.2,0.05-0.32c-0.01-0.66-0.02-1.33-0.03-1.99c-1.01-0.73-1.93-1.71-3.06-2.13
		c-2.01-0.76-4.19-1.07-6.23-1.76c-3.3-1.11-4.7-3.1-4.49-6.02c0.2-2.79,2.26-4.85,5.49-5.46c3.46-0.65,6.81-0.49,9.36,2.28
		c0.91,0.99,1.31,2.45,2.03,3.87c-1.97,0.56-3.02,0.78-3.8-1.23c-1.19-3.07-7.66-3.48-9.58-0.8c-1.08,1.51-0.53,3.54,1.31,4.23
		c1.66,0.63,3.41,0.99,5.13,1.47c0.8,0.22,1.61,0.4,2.39,0.66c4.01,1.37,5.39,3.7,4.71,7.89c-2.09,4.79-7,5.48-11.96,4.47
		c-3.44-0.7-5.73-3.72-5.83-7.56c0.83-0.06,1.67-0.12,2.47-0.19c1.81,4.68,4.59,6.3,9.02,5.19
		C351.86,435.82,353.42,435.45,353.53,433.56z"/>
	<path class="st4" d="M408.84,445.32c-2.35-0.92-4.38-2.1-4.25-5.22c1.38-0.14,2.46-0.25,3.27,1.37c0.85,1.7,2.67,1.67,4.38,1.41
		c1.77-0.27,2.93-1.23,3.27-2.99c0.15-0.78,0.02-1.61,0.02-2.48c-0.27,0.08-0.46,0.09-0.61,0.18c-4.5,2.56-8.83,1.14-10.3-3.78
		c-0.66-2.2-0.69-4.85-0.15-7.09c1.09-4.57,6.9-6.2,10.39-3.7c0.25,0.18,0.49,0.36,0.61,0.05c0.9-0.4,1.79-0.8,3.14-1.41
		c0,1.63,0,2.69,0,3.74c-0.01,4.08-0.03,8.15-0.02,12.23c0.01,3.06-0.89,5.63-3.72,7.22C412.87,445,410.86,445.16,408.84,445.32z
		 M406.98,430.52c0.05,0.48,0.09,1.5,0.29,2.49c0.39,1.97,2.08,3.32,4.06,3.35c2.81,0.04,4.53-2.13,4.59-5.83
		c0.07-3.72-1.67-6.18-4.43-6.23C408.75,424.26,407.07,426.37,406.98,430.52z"/>
	<path class="st4" d="M541.9,415.9c0.87,0.04,1.74,0.07,2.61,0.11c0,7.51,0,15.02,0,22.72c-0.86,0.05-1.59,0.1-2.45,0.15
		c-0.11-0.58-0.21-1.08-0.33-1.67c-4.4,3.88-10.02,1.45-11.16-3.69c-0.48-2.14-0.36-4.61,0.21-6.74c1.22-4.5,5.34-6.05,9.49-3.92
		c0.38,0.19,0.76,0.39,1.2,0.62C541.62,420.86,541.76,418.38,541.9,415.9z M532.91,430.15c0.22,1.33,0.29,2.35,0.56,3.32
		c0.52,1.83,2.15,3.1,3.85,3.19c1.98,0.1,3.32-0.87,3.99-2.63c0.94-2.47,0.89-5-0.22-7.41c-0.65-1.41-1.79-2.24-3.44-2.32
		c-1.71-0.08-3.05,0.61-3.72,2.12C533.39,427.67,533.19,429.08,532.91,430.15z"/>
	<path class="st4" d="M513.18,425.14c0.06-0.11,0.1-0.23,0.11-0.35c0.62-0.65,1.25-1.29,1.87-1.94c0.12-0.11,0.24-0.21,0.35-0.32
		c1.75-0.16,3.49-0.45,5.24-0.46c4.66-0.05,5.98,1.28,6.1,5.97c0.06,2.47,0.01,4.94,0.11,7.41c0.04,0.92,0.37,1.83,0.57,2.74
		c-0.07,0.23-0.14,0.46-0.21,0.69c-1.33-0.17-3.09,0.54-3.15-1.17c-2.33,0.48-4.5,1.25-6.69,1.3c-3,0.06-4.8-1.68-5.03-4.16
		c-0.23-2.5,1.41-4.56,4.28-5.21c1.67-0.37,3.4-0.46,5.06-0.88c0.77-0.19,1.89-0.75,2.02-1.33c0.31-1.36-0.5-2.43-1.87-2.92
		c-2.29-0.81-4.49,0.02-5.98,1.9c-0.39,0.49-1.5,0.53-2.28,0.55c-0.27,0.01-0.55-0.66-0.83-1.02c0,0-0.01,0.01-0.01,0.01
		C512.97,425.67,513.07,425.4,513.18,425.14z M523.75,430.74c-2.18,0.43-4.29,0.67-6.26,1.33c-0.8,0.27-1.66,1.38-1.85,2.24
		c-0.26,1.25,0.69,2.04,1.96,2.37C521.41,437.69,524.23,435.07,523.75,430.74z"/>
	<path class="st4" d="M363.51,416.66c0.24,0.05,0.48,0.1,0.72,0.16c0.15,0.73,0.31,1.46,0.46,2.19c-0.43,1.07-1.2,2.19,0.35,3.03
		c0.55,0.06,1.1,0.11,1.77,0.19c0.09,0.58,0.18,1.17,0.27,1.76c-0.05,0.12-0.11,0.24-0.16,0.36c0,0,0.02-0.01,0.02-0.01
		c-0.86,0-1.72,0-2.62,0c0,1.08,0,1.89,0,2.7c-0.03,2.29-0.03,4.59-0.1,6.88c-0.05,1.52,0.17,2.7,2.14,2.5
		c0.28-0.03,0.6,0.38,0.9,0.59c0,0.68,0,1.36,0,2.01c-4.08,0.8-6.09-0.55-6.04-3.94c0-3.47,0-6.95,0-10.54
		c-0.6-0.1-1.19-0.2-1.84-0.31c0-0.63,0-1.18,0-1.87c0.57-0.13,1.15-0.26,1.88-0.43c0.1-1.87-0.46-4.08,1.87-5.16
		C363.27,416.74,363.39,416.7,363.51,416.66z"/>
	<path class="st5" d="M387.09,345.1c0,1.81,0.01,3.62,0.01,5.43c0,0-0.1,0.15-0.1,0.15l0.09,0.16c-0.01,0.53-0.03,1.06-0.04,1.59
		c-0.18,0.17-0.37,0.33-0.55,0.5c-1.8,0-3.6,0-5.39,0c-0.12,0-0.24-0.01-0.36-0.01c-1.92-0.01-3.85-0.02-5.77-0.03
		c-1.01-0.33-1.22,0.22-1.21,1.07c0.04,7.14,0.06,14.27,0.09,21.41c0,0.75,0,1.5,0,2.51c4.93,0,9.79,0,14.75,0c0,3.16,0,6.05,0,9.08
		c-8.29,0-16.48,0-25.09,0c0-8.76,0-17.45,0-26.14c0.04-1.14,0.12-2.28,0.12-3.42c0-14.45-0.01-28.91-0.02-43.36
		c0-0.7,0-1.39,0-2.27c8.37,0,16.6,0,25,0c0,3.02,0,5.99,0,8.96c-0.25,0.07-0.5,0.15-0.74,0.22c-0.45-0.03-0.89-0.06-1.34-0.08
		c-0.67,0-1.35,0.01-2.02,0.01c-0.21,0.01-0.43,0.01-0.64,0.02c-1.87,0.03-3.74,0.05-5.61,0.08c-1.15,0-2.31,0-3.46-0.01
		c-2.02,0.12-0.64,1.56-0.92,2.36c0,1.02,0,2.03,0,3.05c0,2.04,0,4.09,0,6.13c0,1.02,0,2.03,0,3.05c0.02,2.55,0.04,5.11,0.06,7.66
		c1.07,0.15,2.14,0.38,3.22,0.42c3.28,0.14,6.57,0.22,9.86,0.32c0.02,0.27,0.03,0.54,0.05,0.81
		C386.96,344.89,386.97,345.01,387.09,345.1z"/>
	<path class="st5" d="M429.73,387.18c-0.25,0-0.5,0-0.75,0.01c-0.5-0.13-1-0.26-1.5-0.39c0,0,0.02,0,0.02,0
		c0.11-0.74,0.3-1.47,0.31-2.21c0.03-24.23,0.04-48.45,0.05-72.68c8.28-0.01,16.56-0.01,24.84-0.02c0.05,2.66,0.09,5.31,0.14,7.97
		c-0.06,0.25-0.12,0.49-0.18,0.74c0,0,0,0,0,0c-0.5,0.06-1,0.12-1.5,0.18c-3.82,0.01-7.63,0.01-11.45,0.02
		c-1.6-0.59-1.99,0.14-1.98,1.63c0.04,6.47-0.01,12.95,0.02,19.42c0,0.57,0.27,1.14,0.41,1.71c4.25,0,8.5,0,12.87,0
		c0,3.17,0,6.06,0,9.18c-4.33,0-8.62,0-13.05,0c0,8.46,0,16.69,0,25.15c4.91,0,9.71,0,14.67,0c0.1,1.59,0.18,2.95,0.27,4.32
		c0,0.52,0,1.04,0,1.56c-0.01,0.39-0.01,0.79-0.02,1.18c-0.01,0.37-0.01,0.75-0.02,1.12c-0.56,0.32-1.12,0.92-1.68,0.93
		C444.04,387.11,436.88,387.13,429.73,387.18z"/>
	<path class="st5" d="M505.89,198.62c0,2.92,0,5.83,0,8.95c-5.11,0-9.94,0-14.87,0c0,7.7,0,15.2,0,22.91c4.35,0,8.6,0,12.98,0
		c0,3.1,0,5.99,0,9.12c-4.35,0-8.59,0-13.08,0c0,0.91,0,1.58,0,2.26c0,9.95,0,19.9-0.03,29.85c0,0.73-0.25,1.46-0.38,2.19
		c-1.57,0.12-3.13,0.32-4.7,0.33c-1.61,0.01-3.23-0.16-4.94-0.26c0-25.32,0-50.32,0-75.54c0.89,0,1.7,0,2.51,0
		c6.88-0.01,13.76-0.02,20.65-0.01C504.63,198.41,505.26,198.55,505.89,198.62z"/>
	<path class="st5" d="M418.64,343.63c0.23,0.31,0.66,0.61,0.66,0.92c0.05,2.66,0.03,5.33,0.03,8.24c-4.46,0-8.75,0-13.24,0
		c0,11.51,0,22.76,0,34.16c-3.41,0-6.62,0-9.99,0c0-25.06,0-50.08,0-75.23c8.23,0,16.43,0,24.96,0c0,2.87,0,5.71,0,8.55
		c-0.04,0.12-0.09,0.24-0.13,0.37c-0.13,0.06-0.26,0.11-0.39,0.17c-3.82,0.01-7.63,0.02-11.45,0.02c-0.14,0-0.28-0.01-0.42-0.01
		c-0.24,0-0.49,0-0.73,0c-0.78,0.01-1.99-0.78-1.83,0.98c0,0.26-0.01,0.52-0.01,0.78c0,0.38,0,0.76,0.01,1.14c0,0.39,0,0.77,0,1.16
		c0,5.61-0.01,11.21-0.01,16.82c0.03,0.5,0.05,1.01,0.08,1.51c0.28,0.17,0.56,0.5,0.84,0.5
		C410.88,343.7,414.76,343.66,418.64,343.63z"/>
	<path class="st5" d="M481.02,386.85c-0.03-0.25-0.06-0.49-0.09-0.74c0.04-4.18,0.28-8.38,0.02-12.55
		c-0.14-2.26-1.13-4.46-1.74-6.68l-0.08,0.07c0,0,0.08-0.07,0.08-0.07c-1.04-3.3-2.08-6.6-3.11-9.9c0,0-0.02-0.01-0.02-0.01
		c-1.8-5.97-3.61-11.94-5.41-17.91c-0.17,0.03-0.35,0.07-0.52,0.1c0,15.89,0,31.79,0,48.03c-3.49,0-6.78,0-10.07,0
		c-0.13-0.23-0.25-0.45-0.38-0.68c0.12-0.33,0.35-0.65,0.35-0.98c0-24.56-0.01-49.12-0.03-73.67c2.8-0.07,5.6-0.08,8.39-0.25
		c1.46-0.09,1.95,0.53,2.33,1.84c2.8,9.66,5.67,19.29,8.53,28.93c0.45,1.51,0.97,3,1.46,4.5c0.13-0.03,0.27-0.05,0.4-0.08
		c0-11.64,0-23.28,0-34.97c3.37,0,6.57,0,9.75,0c0,25.14,0,50.09,0,75.02C487.49,386.85,484.25,386.85,481.02,386.85z"/>
	<path class="st5" d="M516.82,356.5c-3.34-1.89-6.69-3.79-10.03-5.68c-0.03-0.11-0.06-0.23-0.1-0.34c-0.17-0.1-0.34-0.19-0.51-0.29
		c-0.13,0.02-0.22-0.03-0.27-0.15c-0.37-0.22-0.75-0.45-1.12-0.67c-0.16-0.11-0.31-0.22-0.47-0.33c-0.24-0.14-0.48-0.28-0.72-0.42
		c-0.39-0.26-0.78-0.52-1.17-0.78c-0.24-0.25-0.48-0.51-0.72-0.76c-0.14-0.13-0.28-0.26-0.42-0.39c-0.1-0.14-0.2-0.28-0.29-0.42
		l-0.04-0.05c-0.09-0.11-0.17-0.22-0.26-0.33c-0.05-0.15-0.1-0.3-0.16-0.45c-0.35-1-0.71-2-1.06-3.01c0.01-0.89,0.02-1.78,0.03-2.67
		c0.08-6.17-0.07-12.36,0.29-18.52c0.32-5.39,3.96-8.96,9.32-9.4c3.66-0.31,7.4-0.33,11.06-0.01c5.66,0.5,8.89,3.78,9.49,9.41
		c0.35,3.22,0.26,6.48,0.36,9.72c0.11,0.23,0.23,0.45,0.34,0.68c-0.25,0.12-0.51,0.23-0.76,0.35c-1.57-0.01-3.14,0.02-4.71-0.06
		c-1.73-0.09-3.46-0.28-5.19-0.42c0.01-2.47,0.09-4.95,0-7.42c-0.06-1.73-1.11-2.82-2.83-3.1c-1.06-0.17-2.15-0.24-3.22-0.18
		c-2.7,0.14-3.96,1.38-4,4.07c-0.07,4.39-0.02,8.78-0.04,13.17c-0.01,1.45,0.5,2.6,1.81,3.32c3.51,1.91,7.01,3.81,10.52,5.72
		c0.89,0.5,1.78,1,2.67,1.51c0.45,0.28,0.91,0.55,1.36,0.83c3.3,2.07,4.12,5.2,4.03,8.86c-0.17,6.42,0.09,12.86-0.38,19.25
		c-0.42,5.69-3.85,8.81-9.53,9.31c-3.22,0.28-6.48,0.26-9.72,0.17c-3.84-0.11-6.96-1.76-9.15-5c0,0-0.03-0.02-0.03-0.02
		c-1.8-3.82-1.7-7.92-1.83-11.99c0-0.13,0.01-0.26,0.01-0.39c1.87-0.09,3.75-0.25,5.62-0.27c4.48-0.04,4.48-0.01,4.63,4.35
		c0.08,2.44,1.01,3.84,3.23,4.22c2.67,0.46,5.18,0.17,6.17-1.74c0.55-1.05,0.74-2.38,0.78-3.59c0.1-3.69-0.04-7.39,0.07-11.08
		C519.97,359.08,518.91,357.52,516.82,356.5z"/>
	<path class="st5" d="M538.2,314.17c0.22-0.9,0.44-1.79,0.66-2.69c4.18,0.03,8.35,0.05,12.53,0.09c3.98,0.04,7.97,0.12,11.95,0.18
		c-0.01,2.94-0.02,5.88-0.03,8.81c-0.62,0.09-1.23,0.18-1.85,0.27c-1.05,0-2.1,0.01-3.14,0.01c-0.87,0-1.73,0-2.6,0
		c-2.05-0.01-4.09-0.01-6.14-0.02c-0.4,0.28-1.16,0.56-1.16,0.84c-0.03,6.67,0.01,13.35,0.05,20.02c0,0.26,0,0.51,0,0.77
		c-0.36,1.18,0.39,1.25,1.23,1.25c2.78,0,5.57-0.03,8.35,0.02c1.24,0.02,2.48,0.22,3.72,0.33c-0.01,2.86-0.02,5.72-0.03,8.58
		c-0.11,0.07-0.23,0.14-0.34,0.21c-0.63,0.01-1.25,0.03-1.88,0.04c-0.13,0-0.26,0.01-0.39,0.01c-1.02,0.01-2.04,0.01-3.06,0.02
		c-1.15-0.01-2.29-0.01-3.44-0.02c-1.03-0.01-2.07-0.01-3.1-0.02c-0.39,0.3-1.12,0.6-1.12,0.91c-0.03,7.19,0.02,14.39,0.06,21.58
		c0.1,0.79,0.2,1.58,0.3,2.37c0.67,0.09,1.34,0.24,2.01,0.25c4.18,0.06,8.35,0.08,12.53,0.12c-0.01,2.96-0.03,5.92-0.04,8.88
		c-1.02,0.03-2.04,0.07-3.05,0.08c-7.13,0.04-14.26,0.08-21.38,0.12c-0.2-0.25-0.4-0.51-0.6-0.76c0-0.22,0-0.44,0-0.67
		c0-0.3,0-0.59,0-0.88c-0.01-0.47-0.01-0.94-0.02-1.41c0-0.3,0-0.59,0-0.89c0-1.48-0.01-2.97-0.01-4.45c0-0.81,0-1.62,0-2.43
		c-0.02-0.18-0.03-0.37-0.05-0.55c-0.01-0.87-0.03-1.73-0.04-2.6c0-2.2,0-4.39,0-6.59c0-0.87,0-1.74,0-2.6c0-2.19,0-4.39,0-6.58
		c0.06-0.43,0.18-0.86,0.18-1.3c0.01-13.45,0-26.9-0.01-40.36C538.3,314.8,538.24,314.49,538.2,314.17z"/>
	<path class="st3" d="M457.23,431.37c1.84-4.84,3.65-9.7,5.56-14.51c0.17-0.42,0.89-0.75,1.41-0.86c0.73-0.15,1.51-0.04,2.38-0.04
		c0.86,2.11,1.67,4.21,2.57,6.27c0.28,0.64,0.81,1.18,1.22,1.76c0.36,1.05,0.71,2.11,1.07,3.16c-0.05,0.1-0.04,0.19,0.04,0.27
		c0.17,0.65,0.28,1.33,0.53,1.95c1.25,3.08,2.54,6.15,3.99,9.63c-1.57-0.19-2.67-0.32-3.78-0.45c-0.06-0.17-0.12-0.34-0.18-0.52
		l-0.01-0.03c-0.66-1.69-1.32-3.39-1.99-5.08c0,0-0.06-0.15-0.06-0.15c0.13-1.1-0.63-1.03-1.35-1.03c-1.97,0-3.95,0.14-5.9-0.04
		c-1.93-0.18-2.94,0.46-3.31,2.38c-0.22,1.1-0.89,2.11-1.14,3.21c-0.28,1.24-1.01,1.62-2.13,1.61c-0.51-0.26-1.01-0.51-1.52-0.77
		C455.5,435.88,456.36,433.62,457.23,431.37z M468.73,429.18c-1.31-3.55-2.51-6.8-3.81-10.35c-1.3,3.66-2.45,6.91-3.68,10.35
		C463.82,429.18,466.08,429.18,468.73,429.18z"/>
	<path class="st4" d="M381.98,422.87c0.82-0.26,1.63-0.68,2.47-0.76c1.57-0.15,3.18-0.26,4.74-0.09c3.16,0.33,4.47,1.87,4.53,5.02
		c0.03,1.78,0.02,3.56,0.03,5.34c0.01,1.08-0.04,2.17,0.06,3.24c0.09,1,0.33,1.99,0.54,3.16c-0.98,0-1.9,0-2.82,0
		c-0.2-0.56-0.39-1.12-0.61-1.75c-1.03,0.66-1.92,1.23-2.8,1.79c0,0-0.1-0.01-0.1-0.01c-1.78,0.16-3.57,0.33-5.35,0.49
		c-1.02-0.9-2.04-1.79-3.06-2.69c-0.32-5.24,0.85-6.61,6.23-7.37c1.26-0.18,2.54-0.3,3.74-0.69c0.51-0.17,1.08-0.93,1.15-1.47
		c0.17-1.42-0.77-2.2-2.04-2.59c-2.1-0.65-4.65-0.17-5.36,1.29c-0.82,1.7-1.93,1.44-3.41,0.97c0.34-1.08,0.66-2.08,0.98-3.09
		c0.08,0.07,0.16,0.06,0.22-0.02C381.4,423.37,381.69,423.12,381.98,422.87z M390.67,430.7c-2.14,0.42-4.19,0.81-6.24,1.24
		c-1.28,0.27-2.03,1.1-1.98,2.42c0.05,1.28,0.78,2.06,2.07,2.38C388.23,437.68,390.98,435.07,390.67,430.7z"/>
	<path class="st4" d="M425.72,438.74c-0.96,0-1.75,0-2.7,0c-0.04-0.71-0.11-1.32-0.12-1.94c-0.07-6.67-0.14-13.33-0.18-20
		c0-0.32,0.32-0.93,0.47-0.92c0.87,0.03,1.75,0.15,2.58,0.39c0.2,0.06,0.3,0.74,0.29,1.13c-0.09,1.98-0.22,3.96-0.37,6.42
		c2.31-1.81,4.46-2.28,6.82-1.77c1.9,0.4,3.58,1.78,3.65,3.66c0.16,4.3,0.05,8.62,0.05,13.04c-0.76,0-1.56,0-2.64,0
		c0-2.88,0-5.72,0-8.56c0-0.64,0.01-1.27-0.01-1.91c-0.06-2.58-1.07-3.84-3.15-3.95c-2.51-0.13-4.34,1.36-4.48,3.9
		c-0.15,2.86-0.08,5.73-0.12,8.59C425.81,437.43,425.76,438.05,425.72,438.74z"/>
	<path class="st3" d="M477.99,415.89c0.81,0,1.63,0,2.6,0c0,2.52,0,4.85,0,6.98c1.92-0.31,3.73-0.93,5.49-0.81
		c3.73,0.25,5.17,2,5.24,5.77c0.06,3.43,0.06,6.86,0.09,10.29c-0.58,0.35-1.16,1.01-1.72,1c-1.73-0.03-1.12-1.55-1.37-2.52
		c0.02-3.1,0.11-6.21,0.02-9.31c-0.05-1.92-1.31-2.96-3.21-3c-2.51-0.05-4.32,1.6-4.41,4.21c-0.12,3.42-0.1,6.85-0.14,10.27
		c-0.92-0.25-2.03,1.22-2.82-0.29c0.04-7.51,0.09-15.02,0.13-22.53L477.99,415.89z"/>
	<path class="st3" d="M438.86,422.84c0.57-0.34,1.14-0.69,2.02-1.22c0-0.85-0.35-2.26,0.11-3.31c0.38-0.88,1.71-1.34,2.9-2.18
		c0,1.32-0.02,2.15,0,2.97c0.1,3.22-0.54,2.7,2.82,3.24c0,0.58,0,1.18,0,1.92c-0.81,0.06-1.61,0.12-2.41,0.19
		c-0.03,3.69-0.06,7.39-0.09,11.08c0.64,0.36,1.26,1,1.91,1.03c1.23,0.05,1.28,0.68,1.17,1.57c-0.1,0.26-0.19,0.51-0.29,0.77
		c-0.08,0.09-0.11,0.19-0.08,0.31c-4.92,0.25-5.7-0.45-5.72-5.22c-0.01-3.15,0-6.3,0-9.46c-0.87-0.11-1.54-0.19-2.21-0.28
		C438.95,423.72,438.91,423.28,438.86,422.84z"/>
	<path class="st3" d="M369.56,424.37c0.01-0.51,0.02-1.02,0.03-1.53c0-0.13,0.01-0.26,0.01-0.4c0.14-0.12,0.29-0.24,0.43-0.37
		c0.51-0.01,1.01-0.02,1.52-0.02c0,0,0.18,0.07,0.18,0.07l0.19-0.02c0,0-0.02-0.01-0.02-0.01c0.19,0.48,0.38,0.96,0.46,1.17
		c0.51-0.38,1.03-0.77,1.56-1.17c0.11,0.01,0.22-0.02,0.32-0.07c1.15,0.02,2.29,0.04,3.44,0.05c0.35,0.23,0.69,0.47,1.04,0.7
		c-0.21,0.53-0.42,1.06-0.63,1.59c-0.06,0.17-0.12,0.35-0.18,0.52c-4.54-0.3-5.46,0.6-5.49,5.45c-0.02,2.73,0,5.46,0,8.39
		c-1.16-0.23-2.47,0.97-2.85-0.98C369.56,433.28,369.56,428.83,369.56,424.37z"/>
	<path class="st4" d="M399.15,421.8c1.31-0.19,1.88,0.11,1.83,1.69c-0.14,4.3-0.04,8.61-0.03,12.91c0,0.74,0,1.49,0,2.52
		c-1.18-0.15-2.08-0.27-2.98-0.39c-0.02-1.67-0.03-3.33-0.05-5c0-1.02,0-2.04,0-3.06c0-2.17,0-4.34,0.01-6.51
		c0.01-0.38,0.01-0.75,0.02-1.13C398.35,422.5,398.75,422.15,399.15,421.8z"/>
	<path class="st6" d="M398.72,415.5c0.39,0,0.78,0,1.17,0.01c1.34,0.31,1.7,1.29,1.36,2.43c-0.33,1.14-0.93,2.22-2.5,1.76
		c-0.22-0.13-0.44-0.25-0.66-0.38C397.65,417.93,396.72,416.47,398.72,415.5z"/>
	<path class="st5" d="M322.96,386.76c0-24.08,0-48.17,0-72.25c0-0.25-0.05-0.51-0.08-0.76c0.06-0.62,0.12-1.25,0.2-2.02
		c0.71-0.04,1.39-0.11,2.07-0.11c4.84-0.01,9.68,0.04,14.52-0.03c4.4-0.07,8.48,0.84,11.93,3.68c0.65,0.53,0.88,1.57,1.32,2.36
		c1.49,2.63,1.83,5.51,1.83,8.47c-0.01,11.27,0,22.53,0.01,33.8c0,0.7,0.08,1.39,0.12,2.09c-0.01,4.6-0.01,9.2-0.02,13.8
		c-0.04,0.88-0.08,1.77-0.12,2.65c-0.4,1.26-0.8,2.52-1.2,3.78c-2.54,3.63-6.19,4.79-10.41,4.77c-4.19-0.02-8.38,0.03-12.57,0
		C328.03,386.96,325.49,386.84,322.96,386.76z M333.27,377.91c2.69,0,5.23,0.09,7.76-0.03c2.79-0.13,3.69-1.19,3.69-4
		c0-15.75,0-31.51-0.03-47.26c0-0.95-0.12-1.92-0.35-2.83c-0.41-1.62-1.49-2.8-3.17-2.9c-2.59-0.15-5.19-0.04-7.91-0.04
		C333.27,339.84,333.27,358.7,333.27,377.91z"/>
	<path class="st5" d="M380.37,231.47c-0.12-6.85-0.25-13.7-0.35-20.55c-0.01-0.95,0.07-1.91,0.22-2.84
		c1.02-6.21,4.53-9.3,10.84-9.63c0.76-0.04,1.51-0.11,2.26-0.17c2.03,0.01,4.06,0.03,6.09,0.04c0.78,0.09,1.55,0.18,2.33,0.27
		c5.53,1.32,8.26,4.98,8.55,10.5c0.17,3.1,0.03,6.23,0.03,9.52c-3.2,0-6.47,0-10.03,0c0-2.18,0.04-4.32-0.01-6.46
		c-0.08-3.51-1.34-4.52-5.53-4.5c-3.24,0.02-4.57,1.26-4.6,4.46c-0.04,4.2,0.04,8.41-0.01,12.61c-0.02,1.73,0.68,2.9,2.15,3.71
		c4.23,2.34,8.38,4.82,12.68,7c4.09,2.07,5.71,5.21,5.54,9.72c-0.2,5.22-0.06,10.45-0.04,15.67c0.03,5.93-1.54,10.84-7.97,12.71
		c-6.2,0.2-12.5,1.42-18.38-1.75c-2.88-2.73-4.38-6.01-4.2-10.05c0.06-1.35-0.3-2.71-0.38-4.08c-0.02-0.43,0.24-0.88,0.37-1.32
		c0.39-0.07,0.78-0.14,1.17-0.21c2.54,0.01,5.08,0.02,7.62,0.03c0.4,0.06,0.79,0.12,1.19,0.18c0.09,1.05,0.2,2.11,0.25,3.16
		c0.2,4.25,2.36,6.08,6.59,5.21c1.03-0.21,1.86-1.38,2.78-2.11c0.27-0.72,0.76-1.44,0.77-2.16c0.07-4.27,0.11-8.54-0.03-12.81
		c-0.03-1-0.78-1.97-1.2-2.95c-0.03-0.1-0.09-0.15-0.19-0.17c-0.88-0.69-1.7-1.49-2.66-2.05c-1.9-1.12-3.9-2.05-5.8-3.16
		c-3.01-1.76-5.97-3.61-8.96-5.42C381.12,233.08,380.74,232.27,380.37,231.47z"/>
	<path class="st5" d="M443.91,273.58c-0.88,0.08-1.76,0.23-2.64,0.23c-6.62,0.02-13.25,0.02-19.87,0.01c-2.47,0-2.5-0.01-2.5-2.51
		c-0.01-19.1-0.01-38.2,0-57.3c0-5.15,0.08-10.3,0.12-15.46c8.27,0.03,16.54,0.06,24.82,0.09c0,2.92,0,5.83,0,8.94
		c-4.98,0-9.8,0-14.76,0c0,7.62,0,15.05,0,22.77c4.29,0,8.58,0,13.01,0c0,3.17,0,6.06,0,9.23c-4.34,0-8.63,0-13.04,0
		c0,8.46,0,16.66,0,25.07c4.88,0,9.7,0,14.85,0C443.91,267.78,443.91,270.68,443.91,273.58z"/>
	<path class="st5" d="M451.34,198.58c3.28,0,6.45,0,9.88,0c0,22.07,0,44.03,0,66.18c4.71,0,9.15,0,13.82,0
		c0,2.84,0.04,5.49-0.05,8.13c-0.01,0.32-0.72,0.87-1.11,0.88c-7.45,0.05-14.91,0.04-22.53,0.04
		C451.34,248.7,451.34,223.74,451.34,198.58z"/>
	<path class="st3" d="M509.63,431.24c-3.96,0-7.95,0-11.95,0c0.14,2.9,1.38,4.75,3.43,5.31c2.2,0.59,3.74-0.18,5.45-2.17
		c0.56-0.65,1.82-0.68,2.76-1c0.16,0.23,0.33,0.46,0.49,0.7c-0.63,1.03-1.13,2.18-1.93,3.06c-2.56,2.8-10.13,3.21-12.48-2.28
		c-1.54-3.59-0.65-9.37,1.86-11.4c2.21-1.79,6.52-2.05,9.1-0.55C508.77,424.31,510.16,427.77,509.63,431.24z M506.63,428.83
		c0.01-2.83-1.56-4.47-4.15-4.52c-2.74-0.05-4.48,1.66-4.5,4.52C500.83,428.83,503.67,428.83,506.63,428.83z"/>
</g>
<circle class="st7" cx="256" cy="455.35" r="4.81"/>
<circle class="st7" cx="256.48" cy="198.32" r="4.81"/>
<circle class="st7" cx="619.48" cy="455.35" r="4.81"/>
<circle class="st7" cx="619.97" cy="198.32" r="4.81"/>
<g>
</g>
<g>
</g>
<g>
</g>
<g>
</g>
<g>
</g>
<g>
</g>
</svg>
