<?xml version="1.0" encoding="utf-8"?>
<!-- Generator: Adobe Illustrator 24.3.0, SVG Export Plug-In . SVG Version: 6.00 Build 0)  -->
<svg version="1.1" id="Layer_1" xmlns="http://www.w3.org/2000/svg" xmlns:xlink="http://www.w3.org/1999/xlink" x="0px" y="0px"
	 viewBox="0 0 864 864" style="enable-background:new 0 0 864 864;" xml:space="preserve">
<style type="text/css">
	.st0{fill:#0A0A0A;}
	.st1{fill:#070707;}
	.st2{fill:#060606;}
	.st3{fill:#050505;}
	.st4{fill:#080808;}
	.st5{fill:#020202;}
</style>
<path id="border.2" class="st0" d="M93.94,686.67c6.71-2.42,13.42-6.94,20.14-6.95c198.62-0.38,397.24-0.31,595.86-0.3
	c9.08,0,19.72-0.37,19.33,12.2c-0.35,11.52-10.51,10.95-19.14,10.95c-191.53-0.03-383.06-0.02-574.58-0.02c-4.69,0-9.37,0-15.94,0
	c7.38,13.02,16.21,20.57,29.57,21.87c4.84,0.47,9.73,0.44,14.6,0.44c180.44,0.02,360.89-0.5,541.33,0.51
	c30.95,0.17,50.63-17.63,47.29-47.46c-0.69-6.13-0.1-12.39-0.1-19.16c-1.65-0.54-3.19-1.39-4.79-1.52
	c-15.96-1.3-17.69-3.1-17.7-19.6c-0.03-55.42-0.01-110.84-0.01-166.26c0-53.2,0.05-106.4-0.02-159.61
	c-0.03-25.02-15.38-40.5-40.26-40.57c-39.9-0.1-79.8-0.02-119.7-0.04c-3.54,0-7.92,1.14-10.44-0.5
	c-4.26-2.77-10.15-7.36-10.12-11.15c0.03-3.82,5.9-9.93,10.14-10.88c8.03-1.81,16.73-0.7,25.15-0.7c34.14-0.02,68.28-0.05,102.41,0
	c40.75,0.07,65.45,24.49,65.5,65.18c0.11,101.53,0.04,203.05,0.04,304.58c0,4.82,0,9.63,0,14.25c22.72,5.17,22.72,5.17,22.72,28.79
	c0,4.88,0,9.75,0,14.63c0,41.59-10.18,56.98-47.94,72.5c-196.03,0-392.05,0-588.08,0c-21.4-8.76-36.72-23.6-45.24-45.24
	C93.94,697.31,93.94,691.99,93.94,686.67z"/>
<path id="border.1" class="st1" d="M185.17,633.7c166.77,0,332.15,0,498.7,0c0.2-3.99,0.56-7.81,0.57-11.63
	c0.03-94.89,0.03-189.79,0.02-284.68c0-17.89-2.95-20.83-20.76-20.85c-31.04-0.03-62.08-0.01-93.12-0.01c-3.1,0-6.88,1.1-9.17-0.28
	c-4.71-2.83-11.18-6.33-12.31-10.73c-2.07-8.07,4.68-11.98,12.11-12.02c37.69-0.18,75.4-0.8,113.06,0.37
	c19.9,0.62,32.57,17.4,32.61,39.64c0.13,61.19,0.05,122.39,0.05,183.58c0,40.35,0.06,80.7-0.03,121.06
	c-0.03,16.3-2.57,18.96-18.23,18.97c-169.39,0.04-338.78,0.04-508.17,0c-15.36,0-18.26-2.69-18.27-17.58
	c-0.09-101.99,0.46-203.98-0.42-305.97c-0.2-23.66,23.91-38.97,47.74-39.88c32.32-1.23,64.74-0.78,97.09,0.16
	c4.75,0.14,12.32,6.22,13.33,10.72c1.97,8.82-5.49,11.92-13.51,11.94c-30.6,0.06-61.2-0.28-91.79,0.26
	c-7.23,0.13-15.2,1.71-21.33,5.23c-4.25,2.44-8.37,9.34-8.39,14.27c-0.47,97.11-0.33,194.22-0.29,291.33
	C184.65,629.28,184.93,630.96,185.17,633.7z"/>
<path id="rocket.body" class="st2" d="M525.58,475.43c-0.75,10.64,1.38,22.76-11.47,21.42c-5.53-0.58-10.04-10.8-15.02-16.64
	c1.03-1.62,2.05-3.24,3.08-4.86c-6.87,0-13.76,0.34-20.61-0.09c-7.4-0.46-14.21-3.98-11.99-12.09c1.19-4.35,7.96-9.93,12.44-10.15
	c21.6-1.06,43.27-0.47,65.9-0.47c0.67-24.88-1.5-48.29-18.3-66.62c-21.2-23.12-28.49-49.47-27.22-80.35
	c1.4-34.06,0.31-68.26-0.77-102.36c-0.64-19.97-8.37-37.7-21.61-53.05c-15.02-17.42-29.52-35.28-45.67-54.67
	c-20.68,29.52-50.79,50.82-62.15,85.6c-4.17,12.77-5.3,26.92-5.64,40.5c-0.78,31.91-0.88,63.86-0.04,95.76
	c0.61,23.36-5.58,43.67-21.41,60.87c-18.87,20.51-25.18,45.11-23.9,74.29c18.23,0,36.64-0.01,55.04,0.01c4.43,0,9.63-1.34,13.1,0.51
	c4.33,2.31,9.34,6.94,10.05,11.23c0.49,2.96-5.23,9.09-9.18,10.19c-7.04,1.95-14.83,1.15-22.63,1.52
	c-3.02,8.39,1.37,23.28-13.51,20.85c-5.49-0.9-9.37-11.67-13.99-17.93c0.91-1.15,1.81-2.3,2.72-3.44c-9.64,0-19.29,0-28.93,0
	c-10.09,0-14.95-4.18-15.58-15.12c-2.16-37.35,5.3-71.24,31.57-99.51c10.81-11.63,14.39-25.79,14.15-41.63
	c-0.5-33.25,0.22-66.51-0.25-99.76c-0.47-33.75,8.95-63.4,31.92-88.83c16.32-18.08,31.19-37.46,46.99-56.02
	c9.13-10.73,14.57-10.8,23.63-0.14c18.94,22.29,37.92,44.57,56.15,67.43c14.8,18.56,21.9,40.51,22.33,64.07
	c0.69,37.68,0.72,75.38,0.27,113.06c-0.19,16.36,3.75,30.75,14.87,42.72c26.33,28.36,33.01,62.54,30.79,99.74
	c-0.57,9.62-5.15,13.7-13.98,13.92C546.64,475.62,536.53,475.43,525.58,475.43z"/>
<path id="border.3" class="st3" d="M139.27,473.79c0,53.66,0,107.32,0,160.97c0,3.55,1.18,7.81-0.36,10.48
	c-2.55,4.42-6.88,7.82-10.46,11.64c-3.8-3.56-8.53-6.56-11.08-10.86c-1.78-3-0.67-7.78-0.67-11.76
	c-0.02-105.98,0.99-211.98-0.5-317.95c-0.62-44.16,31.53-70.58,69.51-68.76c38.49,1.84,77.14,0.38,115.72,0.42
	c8.49,0.01,18.63-0.84,18.85,11.19c0.24,13.09-10.5,11.93-19.37,11.95c-40.35,0.06-80.71-0.04-121.06,0.05
	c-25.05,0.06-40.52,15.44-40.56,40.32C139.22,365.58,139.27,419.69,139.27,473.79z"/>
<path id="smoke" class="st4" d="M382.12,539.83c35.01-25.5,70.03-25.47,104.89,0.07c24.49-22.46,49.28-25.85,67.95-6.88
	c8.87,9.01,16.11,11.71,28.85,10.98c28.11-1.6,54.12,24.36,54.53,52.54c0.07,4.89-6.21,9.88-9.55,14.82
	c-4.31-4.1-11.34-7.56-12.49-12.41c-6.74-28.43-22.83-38.09-50.63-28.18c-9.83,3.51-15.65,0.3-18.32-8.89
	c-3.43-11.8-11.09-18.57-22.99-18.08c-11.23,0.47-17.8,7.51-21.12,18.76c-4.17,14.11-13.89,16.1-22.97,4.12
	c-22.96-30.33-68.68-30.34-91.59,0.16c-8.94,11.9-18.67,9.73-22.89-4.48c-3.35-11.27-10.04-18.18-21.27-18.56
	c-11.19-0.38-19.03,5.68-22.36,17.05c-3.07,10.48-9.17,13.68-20.17,9.33c-24.72-9.77-43.94,1.48-48.62,27.78
	c-1.39,7.82-4.41,14.38-13.29,13.11c-8.59-1.23-10.54-8.03-9.68-16.13c3.44-32.46,32.1-54.79,64.38-50.44
	c3.64,0.49,9.04-0.66,11.3-3.15c24.37-26.92,48.38-27.97,73.74-2.68C380.4,539.24,381.34,539.44,382.12,539.83z"/>
<path id="circle" class="st4" d="M479.81,248.36c-0.09,25.22-20.36,45.1-45.77,44.9c-25.26-0.2-45.15-20.59-44.77-45.89
	c0.36-24.26,20.85-44.56,45.1-44.67C459.1,202.58,479.9,223.48,479.81,248.36z M435.05,226.01c-12.78-0.26-22.86,9.66-22.78,22.4
	c0.07,11.94,9.9,22.03,21.77,22.36c12.21,0.34,22.84-10.25,22.76-22.67C456.71,235.87,447.24,226.25,435.05,226.01z"/>
<path id="line.1" class="st5" d="M423.4,440.91c0-14.17,0.04-28.35-0.02-42.52c-0.03-7.67,2.72-13.36,11.18-13.34
	c8.47,0.02,11.14,5.75,11.13,13.4c-0.04,28.79,0.42,57.6-0.49,86.36c-0.14,4.39-6.53,8.59-10.03,12.87
	c-3.92-4.31-10.75-8.32-11.23-12.97C422.47,470.24,423.41,455.53,423.4,440.91z"/>
</svg>
