<?xml version="1.0" encoding="utf-8"?>
<!-- Generator: Adobe Illustrator 24.3.0, SVG Export Plug-In . SVG Version: 6.00 Build 0)  -->
<svg version="1.1" id="Layer_1" xmlns="http://www.w3.org/2000/svg" xmlns:xlink="http://www.w3.org/1999/xlink" x="0px" y="0px"
	 viewBox="0 0 864 864" style="enable-background:new 0 0 864 864;" xml:space="preserve">
<style type="text/css">
	.st0{fill:#797A7D;}
	.st1{fill:#FFFFFF;}
	.st2{fill:none;stroke:#FFFFFF;stroke-width:7;stroke-miterlimit:10;}
</style>
<rect id="background.rectangle" x="51.06" y="297.9" class="st0" width="795.1" height="182.71"/>
<path id="quote.cloud" class="st1" d="M125.65,361.65c15.23,0,30.45,0,45.68,0c1.3,0.44,3.36,1.33,5.42,3.1
	c2.29,1.97,3.52,4.13,4.13,5.42c0,8.87,0,17.74,0,26.61c-8.17,7.99-16.34,15.98-24.52,23.97c0-4.73,0-9.46,0-14.2
	c-10.67-0.09-21.33-0.17-32-0.26c-1.31-0.83-3.16-2.22-4.9-4.39c-1.63-2.04-2.56-4.01-3.1-5.42c0-8.86,0-17.72,0-26.58
	c0.3-1.03,1.08-3.21,3.1-5.16C121.87,362.41,124.6,361.82,125.65,361.65z"/>
<ellipse id="circle" class="st2" cx="148.9" cy="389.23" rx="64.65" ry="64.77"/>
<path id="arrow" class="st1" d="M736.74,344.1h27.1l42.58,41.03l-41.55,42.84H737l42.84-42.06
	C779.84,385.9,736.35,343.71,736.74,344.1z"/>
<g>
	<path class="st1" d="M254.44,373.92l-9.95-36.48h7.68l3.75,15.44c1.09,4.34,2.03,8.47,2.8,13.02h0.1
		c0.78-4.38,1.79-8.71,2.84-12.89l3.94-15.57h7.46l-10.43,36.48H254.44z"/>
	<path class="st1" d="M286.67,340.07c0.01,2.29-1.43,4.11-3.77,4.11c-2.22,0-3.65-1.82-3.65-4.11c-0.01-2.35,1.46-4.12,3.71-4.12
		C285.23,335.95,286.65,337.71,286.67,340.07z M279.46,373.92v-26.49h7.02v26.49H279.46z"/>
	<path class="st1" d="M302.03,363.32c0.21,3.42,3.08,5.04,6.35,5.04c2.37,0,4.31-0.37,6.2-1.12l0.95,5.57
		c-2.33,1.12-5.14,1.67-8.16,1.67c-7.63,0-12.02-5.23-12.02-13.48c0-6.73,3.57-14.17,11.36-14.17c7.3,0,10.06,6.67,10.06,13.23
		c0,1.44-0.13,2.65-0.25,3.26H302.03z M310.26,357.68c0.01-1.98-0.74-5.37-3.93-5.37c-2.96,0-4.16,3.18-4.35,5.37H310.26z"/>
	<path class="st1" d="M330.06,347.43l1.81,10.86c0.45,2.72,0.9,5.67,1.28,8.69h0.11c0.42-3.01,1.1-6.03,1.65-8.63l2.37-10.92h5.55
		l2.25,10.56c0.61,3.02,1.21,5.98,1.65,8.99h0.1c0.31-3,0.77-6,1.3-9.04l1.92-10.51h6.84l-6.89,26.49h-6.56l-2.12-9.29
		c-0.58-2.61-1-4.97-1.46-8.27h-0.09c-0.41,3.32-0.88,5.79-1.44,8.23l-2.25,9.33h-6.57l-6.57-26.49H330.06z"/>
	<path class="st1" d="M407.21,355.31c0,11.97-6.14,19.2-15.22,19.2c-9.2,0-14.61-8.18-14.61-18.59c0-10.9,5.97-19.08,15.1-19.08
		C402.01,336.84,407.21,345.22,407.21,355.31z M384.8,355.77c0,7.15,2.86,12.18,7.55,12.18c4.74,0,7.45-5.27,7.45-12.36
		c0-6.58-2.64-12.19-7.47-12.19C387.57,343.4,384.8,348.68,384.8,355.77z"/>
	<path class="st1" d="M437.6,365.43c0,3.44,0.09,6.29,0.18,8.49h-6.08l-0.32-3.74h-0.15c-0.88,1.64-2.98,4.33-7.02,4.33
		c-4.58,0-7.91-3.37-7.91-11.51v-15.58h7.02v14.24c0,3.88,1.06,6.2,3.53,6.2c1.9,0,3.03-1.55,3.48-2.9
		c0.18-0.48,0.26-1.09,0.26-1.75v-15.79h7.02V365.43z"/>
	<path class="st1" d="M447.78,356.16c0-3.89-0.06-6.45-0.18-8.73h6.02l0.26,4.9h0.17c1.16-3.87,3.9-5.5,6.08-5.5
		c0.65,0,0.98,0.02,1.5,0.15v7.74c-0.54-0.13-1.11-0.23-1.89-0.23c-2.57,0-4.33,1.6-4.8,4.18c-0.09,0.52-0.13,1.17-0.13,1.83v13.4
		h-7.02V356.16z"/>
</g>
<g>
	<path class="st1" d="M260.49,402.07h-10.88v-9.63h31.02v9.63H269.6v41.11h-9.11V402.07z"/>
	<path class="st1" d="M293.24,428.44c0.27,4.75,4,7.01,8.25,7.01c3.08,0,5.6-0.52,8.05-1.56l1.23,7.75
		c-3.03,1.55-6.68,2.33-10.6,2.33c-9.91,0-15.61-7.27-15.61-18.75c0-9.36,4.64-19.72,14.75-19.72c9.49,0,13.07,9.28,13.07,18.4
		c0,2-0.17,3.69-0.33,4.54H293.24z M303.92,420.59c0.02-2.76-0.96-7.47-5.1-7.47c-3.84,0-5.4,4.42-5.65,7.47H303.92z"/>
	<path class="st1" d="M323.69,433.2c1.66,1.28,5.15,2.74,7.8,2.74c2.75,0,3.92-1.17,3.92-3.04c0-1.91-0.93-2.83-4.29-4.26
		c-6.09-2.52-8.38-6.69-8.34-11.01c0-6.92,4.64-12.12,11.9-12.12c3.42,0,6.45,1.01,8.24,2.15l-1.58,7.89
		c-1.32-0.87-3.87-2.08-6.34-2.08c-2.22,0-3.49,1.11-3.49,2.97c0,1.76,1.16,2.7,4.75,4.25c5.55,2.37,7.88,5.97,7.92,11.34
		c0,6.88-4.26,11.94-12.65,11.94c-3.81,0-7.24-1.09-9.48-2.59L323.69,433.2z"/>
	<path class="st1" d="M365.75,395.82v10.51h6.55v8.45h-6.55v13.35c0,4.44,0.88,6.49,3.59,6.49c1.17,0,2.08-0.16,2.71-0.34l0.07,8.7
		c-1.17,0.53-3.35,0.98-5.9,0.98c-2.94,0-5.4-1.29-6.86-3.2c-1.69-2.18-2.52-5.69-2.52-10.92v-15.07h-3.89v-8.45h3.89v-7.92
		L365.75,395.82z"/>
	<path class="st1" d="M392.84,396.1c0.01,3.19-1.86,5.72-4.89,5.72c-2.88,0-4.75-2.53-4.74-5.72c-0.01-3.27,1.9-5.74,4.82-5.74
		C390.97,390.36,392.81,392.81,392.84,396.1z M383.47,443.18v-36.85h9.11v36.85H383.47z"/>
	<path class="st1" d="M405.78,418.1c0-4.59-0.11-8.47-0.24-11.77h7.69l0.39,4.99h0.19c1.24-2.33,3.85-5.82,8.83-5.82
		c3.8,0,6.75,2.44,8.01,6.32h0.12c1.09-1.95,2.39-3.45,3.8-4.49c1.58-1.2,3.37-1.82,5.55-1.82c5.59,0,9.85,4.98,9.85,15.99v21.69
		h-8.85v-20.01c0-5.34-1.37-8.44-4.31-8.44c-2.11,0-3.57,1.81-4.19,3.99c-0.22,0.83-0.33,1.99-0.33,2.91v21.55h-8.85v-20.66
		c0-4.64-1.31-7.79-4.22-7.79c-2.34,0-3.72,2.26-4.27,4.11c-0.27,0.9-0.34,1.94-0.34,2.9v21.44h-8.85V418.1z"/>
	<path class="st1" d="M492,424.38c0,13.47-7.58,19.62-15.42,19.62c-8.51,0-15.11-7.09-15.11-18.99c0-11.89,6.23-19.52,15.64-19.52
		C486.05,405.5,492,413.26,492,424.38z M470.84,424.76c0,6.29,2.11,11.06,5.99,11.06c3.55,0,5.79-4.47,5.79-11.12
		c0-5.43-1.66-11.02-5.79-11.02C472.5,413.68,470.84,419.3,470.84,424.76z"/>
	<path class="st1" d="M503.56,418.1c0-4.59-0.11-8.47-0.24-11.77h7.89l0.42,5.11h0.19c1.18-2.37,4.16-5.93,9.04-5.93
		c5.98,0,10.48,5.02,10.48,15.87v21.81h-9.11v-20.42c0-4.75-1.35-8-4.63-8c-2.5,0-3.98,2.21-4.61,4.33
		c-0.23,0.72-0.32,1.81-0.32,2.83v21.26h-9.11V418.1z"/>
	<path class="st1" d="M553.9,396.1c0.01,3.19-1.86,5.72-4.89,5.72c-2.88,0-4.75-2.53-4.74-5.72c-0.01-3.27,1.9-5.74,4.82-5.74
		C552.03,390.36,553.86,392.81,553.9,396.1z M544.53,443.18v-36.85h9.11v36.85H544.53z"/>
	<path class="st1" d="M583.49,443.18l-0.54-3.66h-0.19c-1.91,2.93-4.9,4.49-8.36,4.49c-5.96,0-9.46-5.39-9.46-11.27
		c0-9.6,6.82-14.15,17.18-14.13v-0.47c0-1.96-0.84-4.76-5.36-4.75c-2.98,0-6.12,1.28-8.07,2.75l-1.67-7.33
		c2.04-1.47,6.03-3.3,11.38-3.3c9.74,0,12.83,7.25,12.83,15.9v12.85c0,3.51,0.15,6.85,0.47,8.92H583.49z M582.39,425.75
		c-4.79-0.03-8.49,1.42-8.49,5.81c0,2.97,1.54,4.41,3.61,4.41c2.23,0,4.11-1.87,4.71-4.23c0.14-0.59,0.17-1.31,0.17-1.96V425.75z"/>
	<path class="st1" d="M604.33,389.72h9.11v53.45h-9.11V389.72z"/>
	<path class="st1" d="M626.66,433.2c1.66,1.28,5.15,2.74,7.8,2.74c2.75,0,3.92-1.17,3.92-3.04c0-1.91-0.93-2.83-4.29-4.26
		c-6.08-2.52-8.38-6.69-8.34-11.01c0-6.92,4.64-12.12,11.9-12.12c3.42,0,6.45,1.01,8.24,2.15l-1.58,7.89
		c-1.32-0.87-3.87-2.08-6.34-2.08c-2.22,0-3.49,1.11-3.49,2.97c0,1.76,1.16,2.7,4.75,4.25c5.55,2.37,7.88,5.97,7.92,11.34
		c0,6.88-4.26,11.94-12.65,11.94c-3.82,0-7.25-1.09-9.48-2.59L626.66,433.2z"/>
</g>
<g>
</g>
<g>
</g>
<g>
</g>
<g>
</g>
<g>
</g>
<g>
</g>
</svg>
