<?xml version="1.0" encoding="utf-8"?>
<!-- Generator: Adobe Illustrator 24.3.0, SVG Export Plug-In . SVG Version: 6.00 Build 0)  -->
<svg version="1.1" id="jesse-james-body-wellness-logo"
	 xmlns="http://www.w3.org/2000/svg" xmlns:xlink="http://www.w3.org/1999/xlink" x="0px" y="0px" viewBox="0 0 864 864"
	 style="enable-background:new 0 0 864 864;" xml:space="preserve">
<style type="text/css">
	.st0{fill:#ED1C24;}
</style>
<g id="jesse-james-body-wellness-logo-parts">
	<circle id="red-circle-background" class="st0" cx="175.74" cy="265.03" r="82.06"/>
	<path id="jesse-word" d="M222.31,253.31c-0.21-1.08-0.02-2.36,0.56-3.86c0.58-1.49,1.33-2.92,2.26-4.29
		c0.92-1.36,1.98-2.66,3.18-3.9c1.19-1.24,2.33-2.27,3.42-3.11c1.39,0.1,2.5,0.76,3.29,1.99c0.8,1.22,1.26,2.13,1.38,2.72
		c0.14,0.73-0.19,1.76-0.99,3.11c-0.81,1.34-1.76,2.72-2.85,4.12c-1.1,1.41-2.18,2.74-3.24,4.01c-1.06,1.27-1.81,2.14-2.21,2.59
		c-1.72,0.21-2.91-0.18-3.61-1.17C222.79,254.52,222.4,253.79,222.31,253.31z M495.71,329.92c0,1.17-1.46,3.07-4.36,5.68
		c-3.67,3.13-8.07,6.17-13.2,9.11c-5.13,2.94-10.53,5.52-16.19,7.74c-5.66,2.22-11.25,4.02-16.76,5.39
		c-5.51,1.37-10.56,2.06-15.15,2.06c-4.44,0-7.89-0.78-10.33-2.35c-2.45-1.57-3.67-4.51-3.67-8.82c0-3.66,0.54-7.45,1.61-11.37
		c1.07-3.92,2.49-7.77,4.25-11.56c1.76-3.79,3.79-7.38,6.08-10.78c2.3-3.39,4.74-6.47,7.35-9.21c5.82-6.14,12.36-11.07,19.63-14.8
		c7.27-3.72,14.58-5.59,21.93-5.59c3.06,0,5.47,0.56,7.23,1.67c1.76,1.11,2.64,2.58,2.64,4.41c0,2.62-1.92,5.36-5.74,8.23
		c-3.83,2.87-8.5,5.72-14.01,8.52c-5.51,2.81-11.25,5.39-17.22,7.74c-5.97,2.35-11.1,4.31-15.38,5.88c-0.46,0.91-1,2.22-1.61,3.92
		c-0.61,1.7-1.15,3.56-1.61,5.59c-0.46,2.03-0.88,4.18-1.26,6.47c-0.38,2.29-0.57,4.54-0.57,6.76c0,6.54,3.82,9.8,11.48,9.8
		c5.51,0,11.13-0.95,16.88-2.84c5.74-1.89,11.13-4.21,16.19-6.96c5.05-2.74,9.45-5.58,13.2-8.52c3.75-2.94,6.46-5.45,8.15-7.54
		C495.56,329.34,495.71,329.79,495.71,329.92z M435.78,318.36c3.82-1.04,8.11-2.55,12.86-4.51c4.74-1.96,9.11-3.85,13.09-5.68
		c4.59-2.22,7.84-4.34,9.76-6.37c1.91-2.03,2.87-4.34,2.87-6.96c0-1.17-0.46-2.28-1.38-3.33c-0.92-1.04-2.53-1.57-4.82-1.57
		c-3.83,0-8,1.24-12.51,3.72c-4.52,2.48-9,7.05-13.43,13.72c-1.07,1.57-2.14,3.27-3.21,5.1
		C437.93,314.31,436.85,316.27,435.78,318.36z M417.65,296.21c0,0.13-0.04,0.23-0.11,0.3c-0.08,0.07-0.12,0.16-0.12,0.3l-0.23,0.19
		c0,0.52,0.38,0.78,1.15,0.78c0.46,0,1.22-0.45,2.3-1.37c1.07-0.91,2.1-1.99,3.1-3.23c0.99-1.24,1.91-2.51,2.76-3.82
		c0.84-1.31,1.26-2.28,1.26-2.94c0-0.26-0.57-0.69-1.72-1.27c-1.15-0.59-3.79-0.88-7.92-0.88c-4.13,0-8.5,0.62-13.09,1.86
		s-8.84,2.97-12.74,5.19c-3.9,2.22-7.16,4.8-9.76,7.74c-2.6,2.94-3.9,6.11-3.9,9.5c0,1.83,0.65,4.15,1.95,6.96
		c1.3,2.81,2.76,5.72,4.36,8.72c1.61,3.01,3.06,6.04,4.36,9.11c1.3,3.07,1.95,5.78,1.95,8.13c0,4.05-1.61,7.51-4.82,10.39
		c-3.21,2.88-7.12,4.31-11.71,4.31c-4.59,0-8.23-0.98-10.91-2.94c-2.68-1.96-4.02-3.66-4.02-5.1c0-0.26,0.04-0.39,0.11-0.39
		c0.08,0,0.12-0.06,0.12-0.2c0-0.39-0.23-0.59-0.69-0.59c-0.31,0-0.76,0.39-1.38,1.17c-0.61,0.78-1.22,1.77-1.84,2.94
		c-0.61,1.18-1.15,2.49-1.61,3.92c-0.46,1.44-0.69,2.74-0.69,3.92c0,0.39,0.42,1.01,1.26,1.86c0.84,0.85,3.25,1.27,7.23,1.27
		c2.75,0,5.43-0.29,8.04-0.88c2.6-0.59,5.13-1.31,7.58-2.16c2.45-0.85,4.63-1.76,6.54-2.74c1.91-0.98,3.56-1.92,4.94-2.84
		c1.22-0.78,2.64-1.79,4.25-3.04c1.61-1.24,3.1-2.64,4.48-4.21c1.38-1.57,2.56-3.3,3.56-5.19c0.99-1.89,1.49-3.82,1.49-5.78
		c0-1.83-0.61-4.08-1.84-6.76c-1.23-2.68-2.53-5.49-3.9-8.43c-1.38-2.94-2.68-5.91-3.9-8.92c-1.23-3-1.84-5.68-1.84-8.04
		c0-2.09,0.46-3.98,1.38-5.68c0.92-1.7,2.14-3.14,3.67-4.31c1.53-1.18,3.17-2.06,4.94-2.64c1.76-0.59,3.56-0.88,5.4-0.88
		c1.84,0,3.44,0.26,4.82,0.78c1.38,0.52,2.49,1.17,3.33,1.96c0.84,0.78,1.45,1.54,1.84,2.25
		C417.45,295.27,417.65,295.82,417.65,296.21z M342.8,293.08c1.53-1.18,3.17-2.06,4.94-2.64c1.76-0.59,3.56-0.88,5.4-0.88
		c1.84,0,3.44,0.26,4.82,0.78c1.38,0.52,2.49,1.17,3.33,1.96c0.84,0.78,1.45,1.54,1.84,2.25c0.38,0.72,0.57,1.27,0.57,1.66
		c0,0.13-0.04,0.23-0.11,0.3c-0.08,0.07-0.12,0.16-0.12,0.3l-0.23,0.19c0,0.52,0.38,0.78,1.15,0.78c0.46,0,1.22-0.45,2.3-1.37
		c1.07-0.91,2.1-1.99,3.1-3.23c0.99-1.24,1.91-2.51,2.76-3.82c0.84-1.31,1.26-2.28,1.26-2.94c0-0.26-0.57-0.69-1.72-1.27
		c-1.15-0.59-3.79-0.88-7.92-0.88c-4.13,0-8.5,0.62-13.09,1.86s-8.84,2.97-12.74,5.19c-3.9,2.22-7.16,4.8-9.76,7.74
		c-2.6,2.94-3.9,6.11-3.9,9.5c0,1.83,0.65,4.15,1.95,6.96c1.3,2.81,2.76,5.72,4.36,8.72c1.61,3.01,3.06,6.04,4.36,9.11
		c1.3,3.07,1.95,5.78,1.95,8.13c0,4.05-1.61,7.51-4.82,10.39c-3.21,2.88-7.12,4.31-11.71,4.31s-8.23-0.98-10.91-2.94
		c-2.68-1.96-4.02-3.66-4.02-5.1c0-0.26,0.04-0.39,0.11-0.39c0.08,0,0.12-0.06,0.12-0.2c0-0.39-0.23-0.59-0.69-0.59
		c-0.31,0-0.76,0.39-1.38,1.17c-0.61,0.78-1.22,1.77-1.84,2.94c-0.61,1.18-1.15,2.49-1.61,3.92c-0.46,1.44-0.69,2.74-0.69,3.92
		c0,0.39,0.42,1.01,1.26,1.86c0.84,0.85,3.25,1.27,7.23,1.27c2.75,0,5.43-0.29,8.04-0.88c2.6-0.59,5.13-1.31,7.58-2.16
		c2.45-0.85,4.63-1.76,6.54-2.74c1.91-0.98,3.56-1.92,4.94-2.84c1.22-0.78,2.64-1.79,4.25-3.04c1.61-1.24,3.1-2.64,4.48-4.21
		c1.38-1.57,2.56-3.3,3.56-5.19c0.99-1.89,1.49-3.82,1.49-5.78c0-1.83-0.61-4.08-1.84-6.76c-1.23-2.68-2.53-5.49-3.9-8.43
		c-1.38-2.94-2.68-5.91-3.9-8.92c-1.23-3-1.84-5.68-1.84-8.04c0-2.09,0.46-3.98,1.38-5.68C340.04,295.69,341.27,294.25,342.8,293.08
		z M303.88,344.72c-5.13,2.94-10.53,5.52-16.19,7.74c-5.66,2.22-11.25,4.02-16.76,5.39s-10.56,2.06-15.15,2.06
		c-4.44,0-7.89-0.78-10.33-2.35c-2.45-1.57-3.67-4.51-3.67-8.82c0-0.87,0.03-1.76,0.1-2.65c-0.34,0.4-0.7,0.82-1.09,1.26
		c-1.01,1.15-5.33,6.11-11.1,12.13c-8.88,9.26-16.98,16.67-19.23,18.71c-5.45,4.95-5.09,4.35-18.96,16.26
		c-7.96,6.82-13.21,11.43-20.78,18.06c-10.65,9.34-13.97,12.36-17.42,15.61c-10.01,9.44-13.13,13.24-14.32,14.71
		c-3.8,4.73-3.28,4.93-9.42,12.91c-5.36,6.96-9.07,11.1-10.71,12.9c-6.4,7.01-6.99,6.34-8.13,8.26c-0.15,0.25-0.66,1.15-1.68,1.55
		c-1.3,0.51-2.81-0.07-3.61-0.65c-2.26-1.65-1.51-5.83-1.29-7.1c0.84-4.89,3.8-8.19,7.23-11.74c5.34-5.54,9.51-9.29,12.9-12.39
		c10.47-9.56,12.52-11.96,14.32-14.45c2.55-3.51,3.53-5.73,6.07-10.58c5.89-11.28,7.69-12.97,13.67-23.61
		c3.02-5.37,7-13.69,14.97-30.32c7.21-15.05,10.81-22.57,14.07-29.94c7.68-17.37,9.4-23.22,12.9-29.93c2.04-3.91,2.8-8.5,5.29-12.13
		c0.15-0.22,1.01-1.46,1.03-3.1c0.01-0.45,0.02-1.49-0.64-2.06c-0.68-0.59-1.7-0.4-2.45-0.26c-1.66,0.3-3.61,0.62-6.2,1.03
		c0.13,0.11,0.94,0.82,0.78,1.55c-0.17,0.71-1.18,0.97-1.94,1.16c-0.65,0.16-3.68,0.92-5.16-0.9c-0.17-0.21-0.83-1.03-0.65-1.94
		c0.13-0.65,0.74-1.59,4.26-2.58c2.78-0.78,4.45-0.77,6.71-1.03c4.4-0.51,7.27-0.84,10.2-2.58c1.97-1.18,3.1-2.48,5.8-3.1
		c2.32-0.53,3.2,0.04,3.49,0.26c1.35,1.02,1.18,3.09,1.16,3.35c-0.26,1.21-0.52,2.41-0.78,3.62c-1.26,2.71-3.08,6.59-5.29,11.22
		c-2.48,5.21-11.67,24.4-28,55.49c-8.83,16.82-15.6,30.74-22.06,41.03c-2.08,3.3-4.12,6.63-6.2,9.93
		c-4.09,6.53-6.39,10.13-9.41,15.49c-1.25,2.2-2.23,4.01-2.84,5.16c2.99-2.46,7.37-6.07,12.64-10.45
		c12.39-10.31,18.59-15.46,25.94-21.94c6.8-6,5.05-4.73,18.71-17.16c17.59-16.02,18.12-15.97,22.96-21.16
		c7.76-8.29,4.7-6.6,16.17-20.61c1.02-3.46,2.29-6.87,3.85-10.22c1.76-3.79,3.79-7.38,6.08-10.78c2.3-3.39,4.74-6.47,7.35-9.21
		c5.82-6.14,12.36-11.07,19.63-14.8c7.27-3.72,14.58-5.59,21.93-5.59c3.06,0,5.47,0.56,7.23,1.67c1.76,1.11,2.64,2.58,2.64,4.41
		c0,2.62-1.92,5.36-5.74,8.23c-3.83,2.87-8.5,5.72-14.01,8.52c-5.51,2.81-11.25,5.39-17.22,7.74c-5.97,2.35-11.1,4.31-15.38,5.88
		c-0.46,0.91-1,2.22-1.61,3.92c-0.61,1.7-1.15,3.56-1.61,5.59c-0.46,2.03-0.88,4.18-1.26,6.47c-0.38,2.29-0.57,4.54-0.57,6.76
		c0,6.54,3.82,9.8,11.48,9.8c5.51,0,11.13-0.95,16.88-2.84c5.74-1.89,11.13-4.21,16.19-6.96c5.05-2.74,9.45-5.58,13.2-8.52
		c3.75-2.94,6.46-5.45,8.15-7.54c0.31,0.78,0.46,1.24,0.46,1.37c0,1.17-1.46,3.07-4.36,5.68
		C313.41,338.74,309.01,341.78,303.88,344.72z M261.52,318.36c3.82-1.04,8.11-2.55,12.86-4.51c4.74-1.96,9.11-3.85,13.09-5.68
		c4.59-2.22,7.84-4.34,9.76-6.37c1.91-2.03,2.87-4.34,2.87-6.96c0-1.17-0.46-2.28-1.38-3.33c-0.92-1.04-2.53-1.57-4.82-1.57
		c-3.83,0-8,1.24-12.51,3.72c-4.52,2.48-9,7.05-13.43,13.72c-1.07,1.57-2.14,3.27-3.21,5.1
		C263.66,314.31,262.59,316.27,261.52,318.36z"/>
	<path id="james-word" d="M444.76,343.11c-0.21-1.08-0.02-2.36,0.56-3.86c0.58-1.49,1.33-2.92,2.26-4.29
		c0.92-1.36,1.98-2.66,3.18-3.9c1.19-1.24,2.33-2.27,3.42-3.11c1.39,0.1,2.5,0.76,3.29,1.99c0.8,1.22,1.26,2.13,1.38,2.72
		c0.14,0.73-0.19,1.76-0.99,3.11c-0.81,1.34-1.76,2.72-2.85,4.12c-1.1,1.41-2.18,2.74-3.24,4.01c-1.06,1.27-1.81,2.14-2.21,2.59
		c-1.72,0.21-2.91-0.18-3.61-1.17C445.24,344.33,444.85,343.6,444.76,343.11z M721.61,438.76c-4.82,3.16-9.89,5.94-15.21,8.33
		c-5.32,2.39-10.57,4.33-15.75,5.8c-5.18,1.48-9.92,2.21-14.24,2.21c-4.17,0-7.41-0.84-9.71-2.53c-2.3-1.69-3.45-4.85-3.45-9.49
		c0-0.81,0.04-1.62,0.08-2.44c-1.69,1.24-3.46,2.47-5.36,3.71c-4.53,2.95-9.03,5.52-13.48,7.7c-4.46,2.18-7.84,3.27-10.14,3.27
		c-0.72,0-1.65-0.25-2.8-0.74c-1.15-0.49-2.26-1.09-3.34-1.79c-1.08-0.7-1.98-1.48-2.7-2.32c-0.72-0.84-1.08-1.61-1.08-2.32
		c0-0.42,0.18-1.09,0.54-2c0.36-0.91,0.68-1.72,0.97-2.43c1.73-4.08,3.63-8.82,5.72-14.24c2.08-5.41,4.06-10.76,5.93-16.03
		c1.87-5.27,3.45-10.13,4.75-14.55c1.29-4.43,1.94-7.7,1.94-9.81c0-1.26-0.47-2.39-1.4-3.37c-0.94-0.98-2.12-1.48-3.56-1.48
		c-1.73,0-4.07,1.13-7.01,3.38c-2.95,2.25-5.93,4.82-8.95,7.7c-3.02,2.88-5.75,5.77-8.2,8.65c-2.45,2.88-4.1,4.96-4.96,6.22
		c-0.72,0.98-1.29,1.83-1.73,2.53c-0.43,0.7-0.97,1.62-1.62,2.74c-0.65,1.13-1.4,2.78-2.26,4.96c-0.86,2.18-2.02,5.24-3.45,9.18
		l-7.33,19.83c-0.72,1.69-1.44,3.06-2.16,4.11c-0.72,1.06-1.87,1.58-3.45,1.58c-1.73,0-3.42-0.18-5.07-0.53
		c-1.65-0.35-2.48-0.74-2.48-1.16c0-0.56,0.22-0.84,0.65-0.84c0.43,0,1.26-1.33,2.48-4.01c1.22-2.67,2.62-6.08,4.21-10.23
		c1.58-4.15,3.27-8.72,5.07-13.71c1.8-4.99,3.45-9.81,4.96-14.45c1.51-4.64,2.73-8.82,3.67-12.55c0.93-3.73,1.4-6.36,1.4-7.91
		c0-3.65-1.51-5.48-4.53-5.48c-1.72,0-4.06,1.06-7.01,3.16c-2.95,2.11-5.97,4.64-9.06,7.6c-3.09,2.95-6.01,5.91-8.74,8.86
		c-2.73,2.95-4.68,5.27-5.82,6.96c-0.72,1.13-1.8,2.85-3.24,5.17c-1.44,2.32-2.52,4.53-3.24,6.64l-10.14,28.06
		c-0.72,1.55-1.55,2.67-2.48,3.37c-0.94,0.7-1.98,1.06-3.13,1.06c-1.58,0-3.31-0.18-5.18-0.53c-1.87-0.35-2.8-0.67-2.8-0.95
		c0-0.14,0-0.35,0-0.63c0-0.28,0.14-0.42,0.43-0.42c0.72,0,1.83-1.58,3.34-4.75c1.51-3.16,3.13-6.99,4.85-11.5
		c0.02-0.04,0.03-0.08,0.05-0.13c-1.77,1.52-4.01,3.25-6.73,5.19c-3.17,2.25-6.44,4.43-9.81,6.54c-3.38,2.11-6.58,3.9-9.6,5.38
		c-3.02,1.48-5.32,2.22-6.9,2.22c-0.72,0-1.65-0.25-2.8-0.74c-1.15-0.49-2.26-1.13-3.34-1.9c-1.08-0.77-2.05-1.65-2.91-2.64
		c-0.86-0.98-1.29-1.9-1.29-2.74c0-0.14,0.03-0.53,0.11-1.16c0.07-0.63,0.4-1.83,0.97-3.59c0.57-1.76,1.44-4.32,2.59-7.7
		c1.15-3.38,2.73-7.94,4.75-13.71c-2.45,3.09-5.65,6.58-9.6,10.44c-3.96,3.87-8.13,7.52-12.51,10.97
		c-4.39,3.45-8.84,6.33-13.37,8.65c-4.53,2.32-8.6,3.48-12.19,3.48c-1.58,0-2.95-0.6-4.1-1.79c-1.15-1.19-1.73-3.2-1.73-6.01
		c0-0.16,0.01-0.32,0.01-0.48c-1.86,2.05-4.2,4.59-6.86,7.36c-8.88,9.26-16.98,16.67-19.23,18.71c-5.45,4.95-5.09,4.35-18.96,16.26
		c-7.96,6.82-13.21,11.43-20.78,18.06c-10.65,9.34-13.97,12.36-17.42,15.61c-10.01,9.44-13.13,13.24-14.32,14.71
		c-3.8,4.73-3.28,4.93-9.42,12.91c-5.36,6.96-9.07,11.1-10.71,12.9c-6.4,7.01-6.99,6.34-8.13,8.26c-0.15,0.25-0.66,1.15-1.68,1.55
		c-1.3,0.51-2.81-0.07-3.61-0.65c-2.26-1.65-1.51-5.83-1.29-7.1c0.84-4.89,3.8-8.19,7.23-11.74c5.34-5.54,9.51-9.29,12.9-12.39
		c10.47-9.56,12.52-11.96,14.32-14.45c2.55-3.51,3.53-5.73,6.07-10.58c5.89-11.28,7.69-12.97,13.67-23.61
		c3.02-5.37,7-13.69,14.97-30.32c7.21-15.05,10.81-22.57,14.07-29.94c7.68-17.37,9.4-23.22,12.9-29.93c2.04-3.91,2.8-8.5,5.29-12.13
		c0.15-0.22,1.01-1.46,1.03-3.1c0.01-0.45,0.02-1.49-0.64-2.06c-0.68-0.59-1.7-0.4-2.45-0.26c-1.66,0.3-3.61,0.62-6.2,1.03
		c0.13,0.11,0.94,0.82,0.78,1.55c-0.17,0.71-1.18,0.97-1.94,1.16c-0.65,0.16-3.68,0.92-5.16-0.9c-0.17-0.21-0.83-1.03-0.65-1.94
		c0.13-0.65,0.74-1.59,4.26-2.58c2.78-0.78,4.45-0.77,6.71-1.03c4.4-0.51,7.27-0.84,10.2-2.58c1.97-1.18,3.1-2.48,5.8-3.1
		c2.32-0.53,3.2,0.04,3.49,0.26c1.35,1.02,1.18,3.09,1.16,3.35c-0.26,1.21-0.52,2.41-0.78,3.62c-1.26,2.71-3.08,6.59-5.29,11.22
		c-2.48,5.21-11.67,24.4-28,55.49c-8.83,16.82-15.6,30.74-22.06,41.03c-2.08,3.3-4.12,6.63-6.2,9.93
		c-4.09,6.53-6.39,10.13-9.41,15.49c-1.25,2.2-2.23,4.01-2.84,5.16c2.99-2.46,7.37-6.07,12.64-10.45
		c12.39-10.31,18.59-15.46,25.94-21.94c6.8-6,5.05-4.73,18.71-17.16c17.59-16.02,18.12-15.97,22.96-21.16
		c5.86-6.26,5.55-6.83,9.99-12.77c0.22-0.97,0.47-1.96,0.76-2.98c1.22-4.29,2.77-8.58,4.64-12.87c1.87-4.29,3.99-8.37,6.36-12.23
		c2.37-3.87,4.78-7.2,7.23-10.02c2.3-2.67,5.03-5.41,8.2-8.23c3.16-2.81,6.65-5.38,10.46-7.7c3.81-2.32,7.87-4.22,12.19-5.69
		c4.31-1.48,8.84-2.21,13.59-2.21c3.31,0,6,0.21,8.09,0.63c2.08,0.42,3.7,0.63,4.85,0.63c1.15,0,2.23-0.07,3.24-0.21
		c1-0.14,1.8-0.28,2.37-0.42c0.57,0,0.86,0.42,0.86,1.26c0,0.42-0.43,0.84-1.29,1.26c-0.29,0.29-0.68,0.67-1.19,1.16
		c-0.51,0.49-1.12,1.44-1.83,2.85c-2.16,3.94-4.31,8.3-6.47,13.08c-2.16,4.78-4.1,9.49-5.83,14.13c-1.72,4.64-3.27,9-4.64,13.08
		c-1.37,4.08-2.41,7.46-3.13,10.13c-0.43,1.41-0.75,2.6-0.97,3.59c-0.22,0.98-0.4,1.83-0.54,2.53c-0.14,0.71-0.22,1.34-0.22,1.9
		c0,1.55,0.65,2.92,1.94,4.11c1.29,1.2,2.8,1.79,4.53,1.79c2.01,0,4.49-0.77,7.44-2.32c2.95-1.54,5.86-3.34,8.74-5.38
		c2.87-2.04,5.5-4.11,7.87-6.22c0.53-0.47,1.02-0.92,1.48-1.34c1.25-3.35,2.49-6.76,3.7-10.26c1.65-4.78,2.98-8.79,3.99-12.02
		c0.72-2.39,1.47-4.89,2.26-7.49c0.79-2.6,1.51-5.02,2.16-7.28c0.65-2.25,1.15-4.22,1.51-5.91c0.36-1.69,0.54-2.95,0.54-3.8
		c0-2.25-0.36-3.37-1.08-3.37c-0.72,0-1.26,0.07-1.62,0.21c-0.36,0.14-0.68,0.21-0.97,0.21c-0.72,0-1.08-0.35-1.08-1.06
		c0-0.42,0.86-1.02,2.59-1.79c1.73-0.77,3.7-1.51,5.93-2.21c2.23-0.7,4.46-1.3,6.69-1.79c2.23-0.49,3.92-0.74,5.07-0.74
		c1,0,1.51,0.42,1.51,1.26c0,0.42-0.43,1.06-1.29,1.9c-0.43,0.56-1.19,2.21-2.26,4.96c-1.08,2.74-2.23,5.8-3.45,9.18
		c-1.22,3.37-2.41,6.61-3.56,9.7c-1.15,3.1-1.94,5.27-2.37,6.54c3.02-3.23,6.47-6.82,10.35-10.76c3.88-3.94,7.8-7.6,11.76-10.97
		c3.95-3.38,7.84-6.22,11.65-8.54c3.81-2.32,7.23-3.48,10.25-3.48c2.01,0,3.67,0.6,4.96,1.79c1.29,1.2,1.94,2.85,1.94,4.96
		c0,1.13-0.4,2.85-1.19,5.17c-0.79,2.32-1.69,4.82-2.7,7.49c-1.01,2.67-2.02,5.27-3.02,7.81c-1.01,2.53-1.73,4.64-2.16,6.33
		c3.16-3.51,6.54-7.24,10.14-11.18c3.59-3.93,7.3-7.56,11.11-10.86c3.81-3.3,7.55-6.04,11.22-8.23c3.67-2.18,7.15-3.27,10.46-3.27
		c2.3,0,4.1,0.63,5.39,1.9c1.29,1.26,1.94,2.88,1.94,4.85c0,2.39-1.01,6.3-3.02,11.71c-2.02,5.42-4.28,11.22-6.79,17.4
		c-2.52,6.19-4.78,12.2-6.79,18.04c-2.02,5.84-3.02,10.37-3.02,13.6c0,1.13,0.5,2.29,1.51,3.48c1,1.2,2.73,1.79,5.18,1.79
		c1.87,0,4.24-0.74,7.12-2.21c2.87-1.48,5.75-3.27,8.63-5.38c0.9-0.66,1.77-1.33,2.63-2c0.24-2.45,0.64-4.94,1.25-7.49
		c1-4.22,2.33-8.36,3.99-12.45c1.65-4.08,3.56-7.94,5.72-11.6c2.16-3.65,4.46-6.96,6.9-9.91c5.46-6.61,11.61-11.92,18.44-15.93
		c6.83-4.01,13.69-6.01,20.6-6.01c2.87,0,5.14,0.6,6.79,1.79c1.66,1.2,2.48,2.78,2.48,4.75c0,2.82-1.8,5.77-5.39,8.86
		c-3.6,3.09-7.98,6.15-13.16,9.18c-5.18,3.02-10.57,5.8-16.18,8.33c-5.61,2.53-10.43,4.64-14.45,6.33
		c-0.43,0.98-0.94,2.39-1.51,4.22c-0.57,1.83-1.08,3.83-1.51,6.01c-0.43,2.18-0.83,4.5-1.19,6.96s-0.54,4.89-0.54,7.28
		c0,7.04,3.59,10.55,10.78,10.55c5.18,0,10.46-1.02,15.86-3.06c5.4-2.04,10.46-4.53,15.21-7.49c4.75-2.95,8.88-6.01,12.4-9.18
		c3.52-3.16,6.07-5.87,7.65-8.12c0.29,0.84,0.43,1.34,0.43,1.48c0,1.26-1.37,3.3-4.1,6.12
		C730.56,432.32,726.43,435.59,721.61,438.76z M681.81,410.38c3.59-1.12,7.62-2.74,12.08-4.85c4.45-2.11,8.55-4.15,12.29-6.12
		c4.31-2.39,7.37-4.68,9.17-6.86c1.8-2.18,2.7-4.68,2.7-7.49c0-1.26-0.43-2.46-1.3-3.59c-0.86-1.12-2.37-1.69-4.53-1.69
		c-3.59,0-7.51,1.34-11.76,4.01c-4.24,2.67-8.45,7.59-12.62,14.77c-1.01,1.69-2.02,3.52-3.02,5.48
		C683.82,406.03,682.82,408.13,681.81,410.38z M514.64,411.44c0.86-1.97,1.9-4.46,3.13-7.49c1.22-3.02,2.37-6.01,3.45-8.96
		c1.08-2.96,2.01-5.48,2.8-7.6c0.79-2.11,1.19-3.23,1.19-3.37c0-0.98-0.72-1.83-2.16-2.53c-1.44-0.7-3.38-1.06-5.83-1.06
		c-7.48,0-14.09,2.25-19.85,6.75c-5.75,4.5-10.57,9.91-14.45,16.24c-3.88,6.33-6.83,12.94-8.84,19.83
		c-2.02,6.89-3.02,12.73-3.02,17.51c0,2.53,0.39,4.29,1.19,5.27c0.79,0.98,1.76,1.48,2.91,1.48c2.16,0,5.18-1.3,9.06-3.9
		c3.88-2.6,7.84-5.77,11.86-9.49c4.02-3.73,7.8-7.66,11.32-11.81C510.94,418.15,513.35,414.53,514.64,411.44z M785.67,374.63
		c-1.08-0.63-3.56-0.95-7.44-0.95c-3.88,0-7.98,0.67-12.29,2.01c-4.32,1.34-8.31,3.2-11.97,5.59c-3.67,2.39-6.72,5.17-9.17,8.33
		c-2.45,3.16-3.67,6.58-3.67,10.23c0,1.97,0.61,4.47,1.83,7.49c1.22,3.02,2.59,6.15,4.1,9.39c1.51,3.24,2.88,6.51,4.1,9.81
		c1.22,3.3,1.83,6.22,1.83,8.76c0,4.36-1.51,8.09-4.53,11.18c-3.02,3.1-6.69,4.64-11,4.64c-4.32,0-7.73-1.05-10.25-3.16
		c-2.52-2.11-3.78-3.93-3.78-5.48c0-0.28,0.04-0.42,0.11-0.42c0.07,0,0.11-0.07,0.11-0.21c0-0.42-0.22-0.63-0.65-0.63
		c-0.29,0-0.72,0.42-1.3,1.26c-0.57,0.84-1.15,1.9-1.72,3.16c-0.57,1.27-1.08,2.68-1.51,4.22c-0.43,1.55-0.65,2.95-0.65,4.22
		c0,0.42,0.4,1.09,1.19,2.01c0.79,0.91,3.06,1.37,6.79,1.37c2.59,0,5.1-0.31,7.55-0.95c2.44-0.63,4.82-1.41,7.12-2.32
		c2.3-0.91,4.35-1.9,6.15-2.95c1.8-1.06,3.34-2.07,4.64-3.06c1.15-0.84,2.48-1.93,3.99-3.27c1.51-1.33,2.91-2.85,4.21-4.53
		c1.29-1.69,2.4-3.55,3.34-5.59c0.93-2.04,1.4-4.11,1.4-6.22c0-1.97-0.58-4.39-1.73-7.28c-1.15-2.88-2.37-5.91-3.67-9.07
		c-1.3-3.16-2.52-6.36-3.67-9.6c-1.15-3.23-1.73-6.12-1.73-8.65c0-2.25,0.43-4.29,1.3-6.12c0.86-1.83,2.01-3.38,3.45-4.64
		c1.44-1.27,2.98-2.21,4.64-2.85c1.65-0.64,3.34-0.95,5.07-0.95c1.73,0,3.24,0.28,4.53,0.84c1.29,0.56,2.33,1.26,3.13,2.11
		c0.79,0.84,1.36,1.65,1.72,2.43c0.36,0.78,0.54,1.37,0.54,1.79c0,0.14-0.04,0.25-0.11,0.32c-0.07,0.07-0.11,0.18-0.11,0.32
		l-0.22,0.21c0,0.56,0.36,0.84,1.08,0.84c0.43,0,1.15-0.49,2.16-1.48c1-0.98,1.97-2.14,2.91-3.48c0.93-1.34,1.8-2.71,2.59-4.11
		c0.79-1.4,1.19-2.46,1.19-3.16C787.29,375.72,786.75,375.26,785.67,374.63z"/>
	<path id="body-word" d="M452.16,482.17c2.67-0.67,4.97-2.92,4.97-6.39c0-4.22-3.31-7.19-9.48-7.19h-11.23v29.24h11.41
		c5.61,0,10.44-2.59,10.44-8.44C458.28,484.8,454.46,482.76,452.16,482.17z M438.87,470.68h8.93c4.51,0,6.72,2.34,6.72,5.22
		c0,3.38-2.12,5.26-7.68,5.26h-7.96V470.68z M447.93,495.75h-9.06v-12.49h7.73c6.49,0,9.11,2.55,9.11,6.27
		C455.71,493.83,452.16,495.75,447.93,495.75z M478.02,468.18c-9.57,0-14.68,6.77-14.68,15.04c0,8.4,5.29,15.04,14.36,15.04
		c9.94,0,14.63-7.27,14.63-15.25C492.33,474.49,486.85,468.18,478.02,468.18z M477.83,496.17c-7.73,0-11.82-6.35-11.82-13.08
		c0-6.6,3.63-12.83,11.92-12.83c7.78,0,11.73,5.97,11.73,12.78C489.66,489.99,486.16,496.17,477.83,496.17z M510.08,468.59h-10.67
		v29.24h10.63c9.02,0,15-6.14,15-14.87C525.04,474.19,518.92,468.59,510.08,468.59z M509.67,495.75h-7.78v-25.07h7.78
		c8.93,0,12.7,5.97,12.7,12.41C522.37,490.32,518.18,495.75,509.67,495.75z M553.65,468.59l-12.01,17.76
		c-0.09,0.17-0.14,0.33-0.14,0.63v10.86h-2.53v-10.99c0-0.25-0.09-0.54-0.18-0.67l-11.5-17.59h2.9c3.22,4.97,8.83,13.62,10.21,15.79
		c1.38-2.17,7.04-10.74,10.49-15.79H553.65z"/>
	<path id="wellness-word" d="M600.8,469.76h2.15L594.59,499h-2.42c-1.8-6.89-6.06-23.81-6.53-26.32h-0.04
		c-0.7,3.8-4.92,19.05-6.88,26.32h-2.38l-7.58-29.24h2.19c1.84,7.02,5.98,23.19,6.6,26.61h0.04c0.51-2.72,5-18.88,6.92-26.61h2.34
		c1.8,7.14,6.17,24.31,6.6,26.57h0.04C594.36,492.19,598.93,476.73,600.8,469.76z M609.98,484.63h13.95v-2.09h-13.95v-10.7h14.65
		v-2.09h-16.76V499h17.08l0.31-2.09h-15.28V484.63z M632.76,469.76h-2.11V499h16.41l0.39-2.09h-14.69V469.76z M653.78,469.76h-2.11
		V499h16.41l0.39-2.09h-14.69V469.76z M691.64,483c0,4.76-0.04,9.07,0.2,13.29h-0.04c-1.72-3.18-11.72-19.51-15.98-26.53h-3.13V499
		h2.15v-13.58c0-5.31,0.04-9.57-0.16-13.41h0.04c1.95,3.22,12.11,20.22,16.18,26.99h2.89v-29.24h-2.15V483z M703.95,484.63h13.95
		v-2.09h-13.95v-10.7h14.65v-2.09h-16.76V499h17.08l0.31-2.09h-15.28V484.63z M733.14,482.46c-5.04-1.34-6.84-2.59-6.84-5.81
		c0-3.26,2.15-5.22,6.1-5.22c4.3,0,6.21,2.26,6.84,5.39h2.19c-0.35-3.55-2.89-7.48-8.91-7.48c-5.86,0-8.48,3.59-8.48,7.44
		c0,4.22,2.5,6.23,8.28,7.77c6.02,1.59,7.39,3.63,7.39,6.94c0,3.18-1.91,5.85-6.92,5.85c-4.49,0-6.92-2.3-7.74-6.18h-2.19
		c0.51,3.93,3.01,8.19,9.85,8.19c6.33,0,9.26-3.72,9.26-8.02C741.97,487.8,740.83,484.5,733.14,482.46z M756.27,482.46
		c-5.04-1.34-6.84-2.59-6.84-5.81c0-3.26,2.15-5.22,6.1-5.22c4.3,0,6.21,2.26,6.84,5.39h2.19c-0.35-3.55-2.89-7.48-8.91-7.48
		c-5.86,0-8.48,3.59-8.48,7.44c0,4.22,2.5,6.23,8.28,7.77c6.02,1.59,7.39,3.63,7.39,6.94c0,3.18-1.91,5.85-6.92,5.85
		c-4.49,0-6.92-2.3-7.74-6.18h-2.19c0.51,3.93,3.01,8.19,9.85,8.19c6.33,0,9.26-3.72,9.26-8.02
		C765.1,487.8,763.96,484.5,756.27,482.46z"/>
	<path id="delivering-word" d="M444.54,503.21h-1.2v7.21c-0.36-0.77-1.32-1.8-3.73-1.8c-3.27,0-5.31,2.74-5.31,6.44
		c0,3.61,1.88,6.16,5,6.16c2.09,0,3.44-0.84,4.04-2.31c0,0.6,0.02,1.73,0.07,2.02h1.15c-0.02-1.2-0.02-2.31-0.02-3.46V503.21z
		 M439.35,520.09c-2.07,0-3.78-1.78-3.78-5.07c0-3.37,1.61-5.27,3.99-5.27c3.08,0,3.82,1.78,3.82,4.88
		C443.39,517.9,442.52,520.09,439.35,520.09z M452.74,508.62c-3.51,0-5.22,2.96-5.22,6.4c0,3.05,1.42,6.2,5.07,6.2
		c2.96,0,4.23-1.8,4.74-3.39h-1.23c-0.43,0.99-1.2,2.26-3.46,2.26c-2.31,0-3.87-1.92-3.9-5.03h8.85c0.02-0.31,0.02-0.65,0.02-0.99
		C457.62,511.82,456.45,508.62,452.74,508.62z M448.82,514.01c0.26-2.53,1.39-4.26,3.87-4.26c2.36,0,3.66,1.88,3.68,4.26H448.82z
		 M460.65,503.21h1.2v17.72h-1.2V503.21z M465.8,503.21h1.2v2.33h-1.2V503.21z M465.8,508.91h1.2v12.02h-1.2V508.91z M478.47,508.91
		h1.27l-4.54,12.02h-1.44l-4.28-12.02h1.27c1.95,5.51,3.29,9.26,3.75,10.8h0.02C474.79,518.82,476.14,515.24,478.47,508.91z
		 M486.36,508.62c-3.51,0-5.22,2.96-5.22,6.4c0,3.05,1.42,6.2,5.07,6.2c2.96,0,4.23-1.8,4.74-3.39h-1.23
		c-0.43,0.99-1.2,2.26-3.46,2.26c-2.31,0-3.87-1.92-3.9-5.03h8.85c0.02-0.31,0.02-0.65,0.02-0.99
		C491.24,511.82,490.06,508.62,486.36,508.62z M482.44,514.01c0.26-2.53,1.39-4.26,3.87-4.26c2.36,0,3.66,1.88,3.68,4.26H482.44z
		 M499.56,508.62v1.3c-2.5,0.17-4.18,1.9-4.18,4.76v6.25h-1.2v-8.75c0-2.02-0.02-2.89-0.02-3.27h1.18c0.02,0.38,0.05,1.15,0.05,2.69
		C496.07,509.8,497.61,508.72,499.56,508.62z M501.77,503.21h1.2v2.33h-1.2V503.21z M501.77,508.91h1.2v12.02h-1.2V508.91z
		 M516.15,513.14v7.79h-1.2v-7.6c0-2.14-0.89-3.54-2.98-3.54c-2.86,0-3.85,2.38-3.85,5v6.13h-1.2v-8.99c0-1.06,0-2.07-0.02-3.03
		h1.18c0.05,0.38,0.07,1.95,0.05,2.29c0.53-1.23,1.51-2.57,3.99-2.57C514.25,508.62,516.15,509.82,516.15,513.14z M528.2,508.91
		c-0.02,0.29-0.05,1.13-0.07,1.83c-0.34-0.96-1.39-2.12-3.85-2.12c-2.84,0-5.15,2.26-5.15,6.3c0,3.73,2.16,6.01,4.98,6.01
		c2.19,0,3.37-0.84,4.02-2.41v1.25c0,3.05-0.87,5.07-3.99,5.07c-1.73,0-3.1-0.79-3.54-2.45h-1.23c0.29,1.83,1.59,3.58,4.71,3.58
		c3.49,0,5.19-2.02,5.19-5.87v-7.72c0-1.15,0.05-3.05,0.05-3.49H528.2z M524.23,519.8c-2.31,0-3.82-2.07-3.82-4.93
		c0-2.74,1.13-5.12,3.9-5.12c2.89,0,3.85,1.76,3.85,4.93C528.15,517.81,527.23,519.8,524.23,519.8z"/>
	<path id="transformational-word" d="M541.11,508.91h2.86v1.13h-2.86v7.82c0,1.35,0.29,2.12,1.44,2.12c0.36,0,0.87-0.02,1.25-0.14
		v1.06c-0.41,0.17-0.99,0.22-1.49,0.22c-1.54,0-2.41-0.77-2.41-2.69v-8.37h-2.24v-1.13h2.24v-3.75h1.2V508.91z M547.41,511.6
		c0-1.54-0.02-2.31-0.05-2.69h-1.18c0,0.38,0.02,1.25,0.02,3.27v8.75h1.2v-6.25c0-2.86,1.68-4.59,4.18-4.76v-1.3
		C549.64,508.72,548.11,509.8,547.41,511.6z M561.84,518.65c0,1.06,0.1,1.9,0.17,2.28h-1.15c-0.1-0.29-0.17-0.82-0.22-1.85
		c-0.41,0.89-1.47,2.14-3.94,2.14c-2.79,0-3.99-1.8-3.99-3.61c0-2.65,2.04-3.85,5.65-3.85c1.01,0,1.8,0,2.28,0v-1.23
		c0-1.2-0.36-2.81-3.1-2.81c-2.43,0-2.79,1.27-3.05,2.26h-1.2c0.14-1.32,0.96-3.37,4.28-3.37c2.74,0,4.28,1.15,4.28,3.8V518.65z
		 M560.66,514.8c-0.46,0-1.56,0-2.36,0c-2.67,0-4.33,0.7-4.33,2.77c0,1.51,1.08,2.55,2.77,2.55c3.44,0,3.92-2.29,3.92-4.88V514.8z
		 M571,508.62c-2.48,0-3.46,1.35-3.99,2.57c0.02-0.34,0-1.9-0.05-2.29h-1.18c0.02,0.96,0.02,1.97,0.02,3.03v8.99h1.2v-6.13
		c0-2.62,0.99-5,3.85-5c2.09,0,2.98,1.39,2.98,3.54v7.6h1.2v-7.79C575.04,509.82,573.14,508.62,571,508.62z M582.37,513.96
		c-2.38-0.58-2.96-1.13-2.96-2.24c0-0.96,0.6-2,2.69-2c2.04,0,2.84,1.25,3.05,2.26h1.2c-0.19-1.71-1.49-3.37-4.21-3.37
		c-2.72,0-3.97,1.54-3.97,3.2c0,1.59,0.77,2.53,3.87,3.27c2.69,0.65,3.27,1.32,3.27,2.69c0,1.35-0.87,2.33-3.01,2.33
		c-1.9,0-3.01-0.94-3.42-2.5h-1.23c0.34,2.16,1.88,3.61,4.62,3.61c2.53,0,4.3-1.35,4.3-3.53
		C586.6,515.88,585.76,514.78,582.37,513.96z M589.97,507.2v1.71h-2.07v1.13h2.07v10.89h1.2v-10.89h2.62v-1.13h-2.62v-1.66
		c0-2.09,0.53-3.1,1.95-3.1c0.36,0,0.94,0.05,1.3,0.14v-1.15c-0.29-0.1-0.82-0.17-1.18-0.17
		C590.54,502.97,589.97,505.18,589.97,507.2z M605.43,514.9c0,3.34-1.85,6.32-5.43,6.32c-3.25,0-5.27-2.67-5.27-6.3
		c0-3.44,1.9-6.3,5.39-6.3C603.31,508.62,605.43,511.12,605.43,514.9z M604.15,514.92c0-2.84-1.44-5.17-4.11-5.17
		c-2.74,0-4.04,2.29-4.04,5.17c0,2.86,1.54,5.17,4.09,5.17C602.69,520.09,604.15,517.95,604.15,514.92z M609.61,511.6
		c0-1.54-0.02-2.31-0.05-2.69h-1.18c0,0.38,0.02,1.25,0.02,3.27v8.75h1.2v-6.25c0-2.86,1.68-4.59,4.18-4.76v-1.3
		C611.85,508.72,610.31,509.8,609.61,511.6z M628.15,508.62c-2.12,0-3.32,1.13-3.92,2.38c-0.48-1.54-1.8-2.38-3.49-2.38
		c-2,0-3.1,1.23-3.61,2.43c0.02-0.7-0.02-1.73-0.05-2.14h-1.18c0.02,0.94,0.02,2.07,0.02,3.1v8.92h1.2v-6.61
		c0-2.45,1.13-4.52,3.46-4.52c2.21,0,2.74,1.63,2.74,3.39v7.74h1.18v-6.93c0-2.33,1.06-4.21,3.39-4.21c2.24,0,2.81,1.75,2.81,3.37
		v7.77h1.2v-7.91C631.93,509.68,630,508.62,628.15,508.62z M643.97,518.65c0,1.06,0.1,1.9,0.17,2.28h-1.15
		c-0.1-0.29-0.17-0.82-0.22-1.85c-0.41,0.89-1.47,2.14-3.94,2.14c-2.79,0-3.99-1.8-3.99-3.61c0-2.65,2.04-3.85,5.65-3.85
		c1.01,0,1.8,0,2.28,0v-1.23c0-1.2-0.36-2.81-3.1-2.81c-2.43,0-2.79,1.27-3.05,2.26h-1.2c0.14-1.32,0.96-3.37,4.28-3.37
		c2.74,0,4.28,1.15,4.28,3.8V518.65z M642.79,514.8c-0.46,0-1.56,0-2.36,0c-2.67,0-4.33,0.7-4.33,2.77c0,1.51,1.08,2.55,2.77,2.55
		c3.44,0,3.92-2.29,3.92-4.88V514.8z M649.46,505.16h-1.2v3.75h-2.24v1.13h2.24v8.37c0,1.92,0.87,2.69,2.41,2.69
		c0.5,0,1.08-0.05,1.49-0.22v-1.06c-0.38,0.12-0.89,0.14-1.25,0.14c-1.15,0-1.44-0.77-1.44-2.12v-7.82h2.86v-1.13h-2.86V505.16z
		 M654.77,520.93h1.2v-12.02h-1.2V520.93z M654.77,505.54h1.2v-2.33h-1.2V505.54z M669.65,514.9c0,3.34-1.85,6.32-5.43,6.32
		c-3.25,0-5.27-2.67-5.27-6.3c0-3.44,1.9-6.3,5.39-6.3C667.54,508.62,669.65,511.12,669.65,514.9z M668.38,514.92
		c0-2.84-1.44-5.17-4.11-5.17c-2.74,0-4.04,2.29-4.04,5.17c0,2.86,1.54,5.17,4.09,5.17C666.91,520.09,668.38,517.95,668.38,514.92z
		 M677.83,508.62c-2.48,0-3.46,1.35-3.99,2.57c0.02-0.34,0-1.9-0.05-2.29h-1.18c0.02,0.96,0.02,1.97,0.02,3.03v8.99h1.2v-6.13
		c0-2.62,0.99-5,3.85-5c2.09,0,2.98,1.39,2.98,3.54v7.6h1.2v-7.79C681.87,509.82,679.97,508.62,677.83,508.62z M693.92,518.65
		c0,1.06,0.1,1.9,0.17,2.28h-1.15c-0.1-0.29-0.17-0.82-0.22-1.85c-0.41,0.89-1.47,2.14-3.94,2.14c-2.79,0-3.99-1.8-3.99-3.61
		c0-2.65,2.04-3.85,5.65-3.85c1.01,0,1.8,0,2.28,0v-1.23c0-1.2-0.36-2.81-3.1-2.81c-2.43,0-2.79,1.27-3.05,2.26h-1.2
		c0.14-1.32,0.96-3.37,4.28-3.37c2.74,0,4.28,1.15,4.28,3.8V518.65z M692.74,514.8c-0.46,0-1.56,0-2.36,0
		c-2.67,0-4.33,0.7-4.33,2.77c0,1.51,1.08,2.55,2.77,2.55c3.44,0,3.92-2.29,3.92-4.88V514.8z M697.88,503.21v17.72h1.2v-17.72
		H697.88z"/>
	<path id="results-word" d="M714.67,508.62v1.3c-2.5,0.17-4.18,1.9-4.18,4.76v6.25h-1.2v-8.75c0-2.02-0.02-2.89-0.02-3.27h1.18
		c0.02,0.38,0.05,1.15,0.05,2.69C711.18,509.8,712.72,508.72,714.67,508.62z M726.01,514.08c0,0.34,0,0.67-0.02,0.99h-8.85
		c0.02,3.1,1.59,5.03,3.9,5.03c2.26,0,3.03-1.27,3.46-2.26h1.23c-0.5,1.59-1.78,3.39-4.74,3.39c-3.66,0-5.07-3.15-5.07-6.2
		c0-3.44,1.71-6.4,5.22-6.4C724.84,508.62,726.01,511.82,726.01,514.08z M724.76,514.01c-0.02-2.38-1.32-4.26-3.68-4.26
		c-2.48,0-3.61,1.73-3.87,4.26H724.76z M732.7,513.96c-2.38-0.58-2.96-1.13-2.96-2.24c0-0.96,0.6-2,2.69-2
		c2.04,0,2.84,1.25,3.05,2.26h1.2c-0.19-1.71-1.49-3.37-4.21-3.37c-2.72,0-3.97,1.54-3.97,3.2c0,1.59,0.77,2.53,3.87,3.27
		c2.69,0.65,3.27,1.32,3.27,2.69c0,1.35-0.87,2.33-3.01,2.33c-1.9,0-3.01-0.94-3.42-2.5h-1.23c0.34,2.16,1.88,3.61,4.62,3.61
		c2.53,0,4.3-1.35,4.3-3.53C736.93,515.88,736.09,514.78,732.7,513.96z M748.62,508.91h-1.2v6.18c0,3.44-1.01,4.95-3.7,4.95
		c-2.38,0-2.93-1.71-2.93-3.46v-7.67h-1.18v7.96c0,3.68,2.21,4.35,3.94,4.35c2.14,0,3.37-0.96,3.87-2.38c0,0.99,0.02,1.78,0.07,2.09
		h1.15c0-0.46-0.02-2.33-0.02-3.51V508.91z M752.56,520.93h1.2v-17.72h-1.2V520.93z M759.51,505.16h-1.2v3.75h-2.24v1.13h2.24v8.37
		c0,1.92,0.87,2.69,2.41,2.69c0.5,0,1.08-0.05,1.49-0.22v-1.06c-0.38,0.12-0.89,0.14-1.25,0.14c-1.15,0-1.44-0.77-1.44-2.12v-7.82
		h2.86v-1.13h-2.86V505.16z M768.69,513.96c-2.38-0.58-2.96-1.13-2.96-2.24c0-0.96,0.6-2,2.69-2c2.04,0,2.84,1.25,3.05,2.26h1.2
		c-0.19-1.71-1.49-3.37-4.21-3.37c-2.72,0-3.97,1.54-3.97,3.2c0,1.59,0.77,2.53,3.87,3.27c2.69,0.65,3.27,1.32,3.27,2.69
		c0,1.35-0.87,2.33-3.01,2.33c-1.9,0-3.01-0.94-3.42-2.5H764c0.34,2.16,1.88,3.61,4.62,3.61c2.53,0,4.3-1.35,4.3-3.53
		C772.93,515.88,772.08,514.78,768.69,513.96z"/>
</g>
</svg>
