<svg id="Layer_1" data-name="Layer 1" xmlns="http://www.w3.org/2000/svg" viewBox="0 0 292.33 764.53"><title>bravo-icon06edit2</title><path d="M169.71,440.59c28.4-8.44,44.76-25.13,52.11-46.85,2.68,3.34,5.15,6.25,7.43,9.31,4.9,6.58,9.86,13.14,14.51,19.9,3.46,5,6.62,10.23,9.67,15.51q7.33,12.72,14.33,25.64a77.62,77.62,0,0,1,4.37,9.55q5.12,13.49,9.94,27.09C286.78,514.1,289,528,290.88,542a174.95,174.95,0,0,1-3.22,62.5,165.38,165.38,0,0,1-8,25.95,275.88,275.88,0,0,1-15.91,32.49,218.37,218.37,0,0,1-19.48,28,365.78,365.78,0,0,1-25,27,252.73,252.73,0,0,1-21.65,19.49c-9.39,7.45-19.29,14.24-29.07,21.19a57.79,57.79,0,0,1-10.88,6c3.48-2.78,7-5.5,10.42-8.36,7.42-6.25,14.94-12.4,22.12-18.91,6.17-5.59,12.13-11.45,17.83-17.52a164.16,164.16,0,0,0,13.25-15.84c6.4-8.81,12.42-17.92,18.45-27a43.6,43.6,0,0,0,4.37-8.41c3.67-9.49,7.38-19,10.6-28.65a123.34,123.34,0,0,0,4.8-56C258,572.81,255,562,252,551.3a105,105,0,0,0-7.64-18.82c-4.12-8.1-8.82-15.91-13.5-23.72A131.67,131.67,0,0,0,221.65,495c-5.82-7.43-11.9-14.67-18.1-21.79-4.15-4.76-8.51-9.38-13.1-13.71-6.32-6-12.95-11.57-19.44-17.35A18.17,18.17,0,0,1,169.71,440.59Z"/><path d="M134.92,0c-6.06,4.9-11.84,9.39-17.43,14.13-6.36,5.4-12.78,10.77-18.75,16.59-7.58,7.38-15,15-22,22.9A157.09,157.09,0,0,0,63.48,71.13c-5.28,8-10.07,16.27-15,24.49a51.7,51.7,0,0,0-3.66,7.61q-3,7.77-5.71,15.67c-6.81,20.19-9.3,41-6.39,62A214.46,214.46,0,0,0,41,215.68c2.8,8.87,7,17.41,11.37,25.66,6.16,11.63,13.07,22.86,21.61,33,7.28,8.61,14.35,17.41,22,25.68,5.42,5.84,11.67,10.92,17.54,16.35.83.77,1.56,1.64,2.6,2.75-23.55,9.13-41.35,23.64-47.58,50.12-4.67-6.19-8.84-11.44-12.71-16.9-5.08-7.15-10.07-14.38-14.83-21.75A173.77,173.77,0,0,1,32,315c-5.21-10.25-10.21-20.61-15.1-31a103.3,103.3,0,0,1-4.44-11.76,273.38,273.38,0,0,1-10.4-42.66c-2.74-17.13-2.48-34.13-.85-51.19A103.18,103.18,0,0,1,5,158.29C8.55,146.72,12.4,135.21,16.93,124a132.61,132.61,0,0,1,11.74-22.43c6.54-10.07,13.8-19.7,21.06-29.28A168.57,168.57,0,0,1,63,56.93c6.91-7.14,13.95-14.2,21.37-20.78,7.1-6.28,14.58-12.17,22.22-17.77C115,12.23,123.74,6.59,132.39.76A10.44,10.44,0,0,1,134.92,0Z"/><path d="M75.83,638.64C70.17,631.43,64.1,624.5,59,616.94c-6.39-9.37-12.14-19.18-17.92-29a56.06,56.06,0,0,1-4.57-10.57c-2.12-6.22-4-12.52-5.83-18.84-5.55-19.42-5.28-39.13-1.52-58.68a119,119,0,0,1,13.14-36.16c3.1-5.5,5.76-11.31,9.37-16.45,5.62-8,11.79-15.59,17.9-23.22,2.94-3.68,6.28-7.05,9.74-10.89,10.83,13.49,24.52,21.9,40.89,27-4,4.18-7.59,7.76-11,11.45-4.85,5.17-9.78,10.28-14.37,15.67-4.87,5.73-9.57,11.64-14,17.71a127.45,127.45,0,0,0-8.86,14c-5.5,10.12-11.12,20.22-13.91,31.56-1.21,4.94-2.5,9.86-3.78,14.78A85.85,85.85,0,0,0,52.66,580c1.66,11.14,3.88,22.3,9.38,32.42,3.12,5.74,6,11.6,9.17,17.31,1.61,2.88,3.63,5.53,5.46,8.29Z"/><path d="M215.06,349.34c-9.58-14.3-22.3-23.54-38.14-29.46,3.72-3.89,7.18-7.38,10.51-11C191,305,194.62,301.11,198,297c4.84-5.91,9.67-11.85,14.09-18.07a179.49,179.49,0,0,0,9.58-15.57c5.75-10.16,10.76-20.65,13.44-32.11.9-3.84,2-7.65,3-11.46a86.57,86.57,0,0,0,1.59-34.65c-1.54-10.6-3.79-21.15-8.77-30.85-3-5.91-5.9-11.92-9.12-17.73-1.91-3.46-4.36-6.63-6.1-10.37,1.53,1.63,3.17,3.17,4.56,4.91,4.38,5.45,8.93,10.78,12.91,16.51,5.19,7.48,10,15.25,14.77,23a56.71,56.71,0,0,1,4.48,9.12c3.87,9.91,7.77,19.74,10.19,30.23,4,17.36,4,34.69,1.16,52a130.7,130.7,0,0,1-11.61,35.4,145.36,145.36,0,0,1-12,21.17c-6.44,9-13.82,17.41-20.83,26C218,346.2,216.56,347.68,215.06,349.34Z"/><path d="M166.66,316.82a97.9,97.9,0,0,0-41-.25c1.16-7,2.33-13.41,3.28-19.89.89-6.11,1.47-12.26,2.3-18.38q2.1-15.41,4.33-30.8c1.31-9.24,2.68-18.47,4-27.71,1.42-9.93,2.81-19.86,4.27-29.79a3.38,3.38,0,0,1,1.69-2.29c.74,5.3,1.41,10.61,2.21,15.9q2.1,13.84,4.35,27.66c1,6.51,2.23,13,3.29,19.5,1.42,8.65,2.76,17.3,4.15,26s2.7,17.1,4.17,25.63C164.51,306.92,165.56,311.43,166.66,316.82Z"/><path d="M146.68,570.35q-2.79-18.23-5.58-36.43-2.11-13.68-4.32-27.34c-1-6.39-2.22-12.76-3.26-19.16-1.48-9.1-2.82-18.22-4.35-27.32-1-6-2.26-12-3.51-18.57a97.91,97.91,0,0,0,40.87-.25c-.87,5-1.75,9.55-2.41,14.09-.89,6.21-1.58,12.46-2.42,18.69q-2.47,18.31-5,36.6c-1,7.44-2.25,14.85-3.34,22.27-1.43,9.81-2.75,19.63-4.25,29.43-.4,2.65-1.24,5.24-1.88,7.85Z"/></svg>