<svg id="Layer_1" data-name="Layer 1" xmlns="http://www.w3.org/2000/svg" viewBox="0 0 300.92 767.11"><title>bravo-icon06-inside2</title><path fill="#6c757d" id="_Path_br_" data-name="&lt;Path br&gt;" d="M174.08,442c25.92-7.69,45.18-21.39,54.45-47.33,4.13,5.29,7.88,9.92,11.42,14.69,5.43,7.32,10.86,14.65,16,22.15,3.13,4.55,5.88,9.39,8.61,14.2q6.53,11.46,12.78,23.08a71.45,71.45,0,0,1,4.08,8.95c3.14,8.4,6.46,16.75,9.06,25.31,2.73,9,4.89,18.18,6.95,27.35,4.61,20.5,4.16,41.24,1.29,61.83-1.47,10.6-3.67,21.24-8,31.22-1.4,3.21-2.25,6.67-3.7,9.85-4.09,8.95-7.73,18.18-12.72,26.61a297.31,297.31,0,0,1-19.55,28.31,278.71,278.71,0,0,1-19.2,22.29A227.1,227.1,0,0,1,217.07,728c-8.63,7.3-17.46,14.42-26.6,21.06-8.62,6.27-17.76,11.83-26.68,17.67a8.35,8.35,0,0,1-2,.41c5.76-4.45,11.06-8.29,16.08-12.47,7.73-6.44,15.47-12.89,22.81-19.76,7-6.55,13.77-13.38,20.11-20.56A246.42,246.42,0,0,0,236.56,694c4.5-6.31,8.67-12.9,12.55-19.62a117.76,117.76,0,0,0,7.47-15.57c2.25-5.7,3.88-11.65,5.75-17.5A127.67,127.67,0,0,0,267,585.14c-1.33-10.1-4.1-20.06-6.83-29.91a103.75,103.75,0,0,0-6.95-17.67c-3.67-7.45-7.8-14.7-12.08-21.83-3.66-6.08-7.65-12-11.79-17.76a189.06,189.06,0,0,0-11.71-14.91c-5.19-5.93-10.54-11.76-16.26-17.17-7.87-7.45-16.16-14.47-24.28-21.65C176.46,443.63,175.65,443.16,174.08,442Z"/><path fill="#6c757d" id="_Path_tl_" data-name="&lt;Path tl&gt;" d="M119.75,320c-24.19,9-42.43,23.5-48.93,49.74l-1.1-.23c-7.47-10.45-15.12-20.77-22.34-31.39-5.06-7.44-9.83-15.12-14.17-23-5.48-9.95-10.52-20.16-15.52-30.36A71.58,71.58,0,0,1,13.27,273C10.18,262.2,7,251.4,4.55,240.44c-1.78-8.1-2.4-16.46-3.49-24.71-.44-3.39-1.25-6.83-1-10.18C.88,193.34,1.47,181.06,3.37,169a145.6,145.6,0,0,1,7.42-27.62,208.59,208.59,0,0,1,13.74-30.2,291.2,291.2,0,0,1,21.1-31.81A202.14,202.14,0,0,1,75.45,47.1c11.19-9.54,22.2-19.33,33.89-28.21C118.44,12,128.47,6.27,138.09.05c.16-.1.43,0,1.27,0-5.14,3.88-10,7.28-14.6,11.1-8.06,6.75-16.07,13.59-23.8,20.71C94.34,38,88,44.35,81.81,50.94a174.49,174.49,0,0,0-12,14.69C65.36,71.57,61,77.6,57,83.85a124,124,0,0,0-8.07,14.92A187.71,187.71,0,0,0,36.67,133c-3.66,15-4.07,30.16-2.73,45.32a128,128,0,0,0,5.11,27.52A227.4,227.4,0,0,0,52.79,239.3a184.45,184.45,0,0,0,17.56,28,397.28,397.28,0,0,0,26.4,30.72c6.85,7.33,14.61,13.81,22,20.67A12.52,12.52,0,0,1,119.75,320Z"/><path fill="#6c757d" id="_Path_bl_" data-name="&lt;Path bl&gt;" d="M82.19,414.54c10.9,13.61,25,21.73,41.82,26.86-2.46,2.51-4.38,4.46-6.3,6.43-5.59,5.73-11.35,11.31-16.72,17.24S90.4,477.35,85.35,483.69a91.6,91.6,0,0,0-7.85,11.44c-4.75,8.32-9.27,16.78-13.67,25.29a65.86,65.86,0,0,0-3.68,9.51,118.16,118.16,0,0,0-3.32,64.35,97.72,97.72,0,0,0,15,34.19,97.16,97.16,0,0,1,7.08,12c-1.59-1.68-3.3-3.26-4.74-5.06C69,629,63.59,622.76,59,616c-5.85-8.54-11.09-17.51-16.42-26.39a48.88,48.88,0,0,1-3.92-8.65c-2-5.77-3.91-11.62-5.75-17.47-4.89-15.56-7-31.56-4.77-47.68a213.35,213.35,0,0,1,7.62-33.24,100,100,0,0,1,9.79-21.16,229.37,229.37,0,0,1,16.2-24.05c5.78-7.49,12.44-14.3,18.74-21.4A14,14,0,0,1,82.19,414.54Z"/><path fill="#6c757d" id="_Path_tr_" data-name="&lt;Path tr&gt;" d="M221.78,351c-10-15.06-23.34-24.19-40-30.37,3.76-3.61,7.22-6.66,10.35-10,5.4-5.76,10.86-11.49,15.8-17.62,5.79-7.19,11.26-14.66,16.46-22.28a102,102,0,0,0,8.23-14.82c3.5-7.58,7.23-15.17,9.51-23.15a130,130,0,0,0,4.76-26.53,110.54,110.54,0,0,0-1.15-25.7,97.45,97.45,0,0,0-12.2-34.36c-3.52-5.9-7.34-11.61-11-17.41a1.89,1.89,0,0,1-.16-1.88c3.34,3.81,6.89,7.45,10,11.45,5.72,7.39,11.32,14.89,16.67,22.56a84.22,84.22,0,0,1,7.47,12.87c3.34,7.18,6.25,14.58,9.22,21.93a102.23,102.23,0,0,1,7.13,33.58c.22,4.55,1.26,9.12.91,13.61-.64,8.19-1.26,16.53-3.31,24.44a193.93,193.93,0,0,1-10.07,28.84A133.25,133.25,0,0,1,241,327.73Z"/><path fill="#6c757d" id="_Path_tm_" data-name="&lt;Path tm&gt;" d="M150,188c.75,5.41,1.43,10.82,2.26,16.22,1.17,7.54,2.42,15.08,3.67,22.61,1,6.18,2.17,12.35,3.2,18.53q3.57,21.42,7.08,42.84c1.35,8.23,2.66,16.46,4,24.68.23,1.41.69,2.78,1.05,4.18-6.91-.56-13.81-1.53-20.72-1.57s-13.62.87-21,1.4c1-5.89,2.12-11.78,3-17.7,1.88-13.13,3.59-26.29,5.43-39.43,1.08-7.67,2.27-15.34,3.42-23,1.12-7.45,2.28-14.89,3.38-22.33,1.23-8.24,2.4-16.5,3.62-24.74a8.11,8.11,0,0,1,.75-1.79Z"/><path fill="#6c757d" id="_Path_br_2" data-name="&lt;Path br&gt;" d="M151,571.91c-1.58-10.45-3.12-20.9-4.74-31.34-1.17-7.55-2.42-15.1-3.67-22.64-1.07-6.4-2.21-12.79-3.28-19.19-2.36-14.16-4.65-28.33-7.07-42.49-.73-4.32-1.78-8.59-2.7-12.93,7.49.53,14.4,1.43,21.31,1.39s13.59-1,20.08-1.58c-1.09,8.6-2.13,17.29-3.3,26s-2.46,17.41-3.73,26.1c-1.08,7.33-2.23,14.65-3.33,22-1.18,7.89-2.34,15.78-3.53,23.67-1.1,7.33-2.17,14.67-3.37,22-.51,3.06-1.31,6.08-2,9.12Z"/><path fill="#6c757d" id="_Path_br2_" data-name="&lt;Path br2&gt;" d="M155.54,390.51l8.48-7.36c6.77,8.48,12,18.31,10.89,30.38-.84,8.78-9.67,21.65-15.46,23.55C174.33,421.73,173.16,405.8,155.54,390.51Z"/><path fill="#6c757d" id="_Path_tl2_" data-name="&lt;Path tl2&gt;" d="M143.45,368.26l-7.11,7.86c-16.4-18.55-12.52-40.34,7.87-53.9-7.42,6.32-12.92,14-12.46,23.95S138,363.61,143.45,368.26Z"/><path fill="#6c757d" id="_Path_bl2_" data-name="&lt;Path bl2&gt;" d="M146.19,390c-7.46,7.73-14,15.68-9.28,28.1a12.45,12.45,0,0,1-2.3-1.68c-5.47-7.43-5-18.91,1-25.94,1.24-1.44,2.28-3.74,3.76-4.07,1.31-.29,3.11,1.62,4.7,2.53C144.77,389.35,145.48,389.67,146.19,390Z"/><path fill="#6c757d" id="_Path_tr2_" data-name="&lt;Path tr2&gt;" d="M164.42,342.08c8.84,8.87,6.94,26.4-2.11,32.45l-6-4.46C163.81,362.59,169,354.22,164.42,342.08Z"/><path fill="#6c757d" id="_Path_tm2_" data-name="&lt;Path tm2&gt;" d="M154.08,369.55h-6.77c1-6.56,2-12.88,3-19.2h.41C151.8,356.68,152.92,363,154.08,369.55Z"/><path fill="#6c757d" id="_Path_bm2_" data-name="&lt;Path bm2&gt;" d="M150.58,408.74c-1.08-5.95-2.16-11.9-3.29-18.15h6.82c-1,6.1-2,12.12-3.06,18.15Z"/></svg>