<?xml version="1.0" encoding="utf-8"?>
<!-- Generator: Adobe Illustrator 24.3.0, SVG Export Plug-In . SVG Version: 6.00 Build 0)  -->
<svg version="1.1" id="star-icon" xmlns="http://www.w3.org/2000/svg" xmlns:xlink="http://www.w3.org/1999/xlink" x="0px" y="0px"
	 viewBox="0 0 864 864" style="enable-background:new 0 0 864 864;" xml:space="preserve">
<style type="text/css">
	.st0{fill:#FF2323;}
</style>
<path id="star-icon-combined" class="st0" d="M651.9,212.1C593.2,153.3,515.1,121,432,121s-161.2,32.3-219.9,91.1S121,348.9,121,432
	s32.3,161.2,91.1,219.9S348.9,743,432,743s161.2-32.3,219.9-91.1S743,515.1,743,432S710.7,270.8,651.9,212.1z M432,733
	c-166,0-301-135-301-301c0-166,135-301,301-301c166,0,301,135,301,301C733,598,598,733,432,733z M582.6,388.3L484,374.1l-44.1-88.2
	c-1.7-3.4-5.2-5.5-8.9-5.5c0,0,0,0,0,0c-3.8,0-7.3,2.2-8.9,5.6l-43.1,88.2l-97.5,14.7c-3.8,0.6-6.9,3.2-8,6.8s-0.2,7.6,2.5,10.2
	l70.6,69.1l-16.7,97c-0.6,3.7,0.9,7.5,4,9.8c1.7,1.3,3.8,1.9,5.9,1.9c1.6,0,3.2-0.4,4.6-1.1L432,537l86.7,45.6
	c1.5,0.8,3.1,1.1,4.7,1.1c2.1,0,4.1-0.6,5.9-1.9c3.1-2.2,4.6-6,4-9.7L517,474l71.1-68.6c2.7-2.7,3.7-6.6,2.6-10.3
	S586.4,388.8,582.6,388.3z M506.3,470.5l17,103.2l-91.4-48l-92.4,48l17.5-102.2l-74.3-72.8l102.7-15.5l45.4-92.9l46.5,92.9l103.7,15
	L506.3,470.5z"/>
</svg>
