<?xml version="1.0" encoding="utf-8"?>
<!-- Generator: Adobe Illustrator 24.3.0, SVG Export Plug-In . SVG Version: 6.00 Build 0)  -->
<svg version="1.1" id="armond-logo" xmlns="http://www.w3.org/2000/svg" xmlns:xlink="http://www.w3.org/1999/xlink" x="0px"
	 y="0px" viewBox="0 0 864 864" style="enable-background:new 0 0 864 864;" xml:space="preserve">
<style type="text/css">
	.st0{fill:#A1A4A3;}
</style>
<path id="armond-logo-combined" class="st0" d="M296.38,490.25c0,0,1.16-263.23,0.39-262.45h28.26v121.55l66.19,0.77v24h-66.97
	v95.23h81.68v20.9H296.38z M443.48,231.28v20.9h81.68v95.23h-66.97v24l66.19,0.77v121.55h28.26c-0.77,0.77,0.39-262.45,0.39-262.45
	H443.48z M276.96,591.56l18.29,43.83h-8.92l-4.51-11.17h-17.35l-4.51,11.17h-8.99l18.29-43.83H276.96z M277.52,613.6
	c-1.25-3.11-2.69-6.94-4.31-11.5h-0.14c-1.61,4.58-3.05,8.42-4.31,11.5l-1.57,3.9h11.91L277.52,613.6z M338.16,617.37l13.71,18.02
	h-10.12l-12.54-16.97h-5.79v16.97h-8.44v-43.83H329c2.32,0,4.48,0.13,6.47,0.38c2,0.25,3.71,0.63,5.13,1.13
	c2.71,0.98,4.8,2.44,6.27,4.37c1.47,1.93,2.2,4.36,2.2,7.29c0,3.06-0.89,5.65-2.67,7.78c-1.78,2.13-4.53,3.71-8.25,4.73V617.37z
	 M335.88,610.72c1.7-0.61,2.88-1.45,3.53-2.51s0.98-2.28,0.98-3.65c0-1.18-0.26-2.22-0.77-3.13s-1.39-1.62-2.63-2.15
	c-0.8-0.35-1.81-0.61-3.03-0.77c-1.22-0.16-2.72-0.25-4.51-0.25h-6.03v13.43h4.17c1.93,0,3.56-0.08,4.91-0.25
	C333.84,611.3,334.97,611.05,335.88,610.72z M399.9,612.52c-1.49,3.95-2.74,7.65-3.75,11.1h-0.21c-1.17-4-2.42-7.73-3.75-11.2
	l-7.96-20.87h-11.78v43.83h8.44v-22.24c0-3.49-0.14-7.26-0.41-11.3h0.31c0.39,1.25,0.85,2.64,1.38,4.19
	c0.53,1.55,1.08,3.08,1.65,4.59l9.54,24.76h5.44l9.54-24.76c0.57-1.51,1.12-3.04,1.65-4.59c0.53-1.55,0.99-2.95,1.38-4.19h0.31
	c-0.28,4.3-0.41,8.08-0.41,11.33v22.21h8.44v-43.83h-11.85L399.9,612.52z M485.26,604.28c1,2.79,1.5,5.85,1.5,9.19
	c0,3.34-0.5,6.4-1.5,9.19c-1,2.79-2.46,5.18-4.37,7.19c-1.92,2.01-4.27,3.57-7.06,4.68c-2.79,1.11-5.96,1.67-9.52,1.67
	s-6.73-0.56-9.52-1.67c-2.79-1.11-5.14-2.67-7.06-4.68c-1.92-2.01-3.38-4.41-4.37-7.19c-1-2.78-1.5-5.85-1.5-9.19
	c0-3.34,0.5-6.4,1.5-9.19c1-2.78,2.46-5.18,4.37-7.19c1.92-2.01,4.27-3.57,7.06-4.68c2.79-1.11,5.96-1.67,9.52-1.67
	s6.73,0.56,9.52,1.67c2.79,1.11,5.14,2.67,7.06,4.68C482.8,599.1,484.26,601.5,485.26,604.28z M478.04,613.47
	c0-2.66-0.34-5-1.03-6.99c-0.69-2-1.64-3.66-2.86-5c-1.22-1.33-2.66-2.33-4.34-2.98s-3.51-0.98-5.51-0.98s-3.83,0.33-5.51,0.98
	c-1.68,0.66-3.12,1.65-4.34,2.98c-1.22,1.33-2.17,3-2.86,5c-0.69,2-1.03,4.33-1.03,6.99c0,2.67,0.34,5,1.03,6.99
	c0.69,2,1.64,3.66,2.86,4.98c1.22,1.32,2.66,2.31,4.34,2.98c1.67,0.67,3.51,1,5.51,1s3.83-0.33,5.51-1s3.12-1.66,4.34-2.98
	c1.22-1.32,2.17-2.98,2.86-4.98C477.7,618.47,478.04,616.14,478.04,613.47z M540.75,611.41c0,2.6,0.14,6.75,0.41,12.45h-0.21
	c-2.07-3.47-4.75-7.45-8.06-11.92l-15.15-20.38h-8.85v43.83h8.44v-19.85c0-2.95-0.14-7.11-0.41-12.48h0.21
	c2.82,4.61,5.56,8.66,8.2,12.15l15.01,20.18h8.85v-43.83h-8.44V611.41z M613.04,613.31c0,2.36-0.28,4.57-0.83,6.63
	c-0.55,2.06-1.39,3.95-2.51,5.65c-1.12,1.7-2.54,3.21-4.25,4.5c-1.71,1.3-3.74,2.36-6.08,3.19c-1.95,0.7-4.17,1.22-6.65,1.57
	c-2.48,0.35-5.27,0.52-8.37,0.52H573.4v-43.83h12.19c1.08,0,2.17,0.03,3.29,0.1c1.11,0.07,2.2,0.16,3.25,0.29s2.08,0.29,3.07,0.48
	c0.99,0.19,1.89,0.41,2.72,0.67c2.46,0.74,4.63,1.75,6.51,3.01c1.88,1.27,3.46,2.76,4.74,4.49c1.27,1.73,2.24,3.65,2.89,5.78
	C612.71,608.51,613.04,610.82,613.04,613.31z M604.36,613.24c0-1.79-0.21-3.41-0.62-4.85c-0.41-1.44-1.01-2.72-1.79-3.85
	c-0.78-1.12-1.73-2.09-2.84-2.9c-1.11-0.81-2.37-1.47-3.77-2c-1.31-0.48-2.77-0.83-4.37-1.05c-1.61-0.22-3.41-0.33-5.41-0.33h-3.72
	v30.4h3.48c4.94,0,8.79-0.64,11.57-1.93c2.46-1.16,4.32-2.84,5.58-5.04C603.73,619.49,604.36,616.67,604.36,613.24z"/>
</svg>
