<?xml version="1.0" encoding="utf-8"?>
<!-- Generator: Adobe Illustrator 24.3.0, SVG Export Plug-In . SVG Version: 6.00 Build 0)  -->
<svg version="1.1" id="Layer_2" xmlns="http://www.w3.org/2000/svg" xmlns:xlink="http://www.w3.org/1999/xlink" x="0px" y="0px"
	 viewBox="0 0 864 864" style="enable-background:new 0 0 864 864;" xml:space="preserve">
<style type="text/css">
	.st0{fill:#A1A4A3;}
</style>
<path id="f.2" class="st0" d="M273.03,175.1h28.26v121.55l66.19,0.77v24h-66.97v95.23h81.68v20.9H272.65
	C272.65,437.55,273.81,174.32,273.03,175.1z"/>
<path id="f.1" class="st0" d="M528.9,441.03h-28.26V319.48l-66.19-0.77v-24h66.97v-95.23h-81.68v-20.9h109.55
	C529.29,178.58,528.13,441.8,528.9,441.03z"/>
<g>
	<path class="st0" d="M258.08,571.52h-17.35l-4.51,11.17h-8.99l18.29-43.83h7.71l18.29,43.83h-8.92L258.08,571.52z M249.34,549.41
		c-1.61,4.58-3.05,8.42-4.31,11.5l-1.57,3.9h11.91l-1.58-3.9c-1.25-3.11-2.69-6.94-4.31-11.5H249.34z"/>
	<path class="st0" d="M325.34,552.03c0,3.06-0.89,5.65-2.67,7.78s-4.53,3.71-8.25,4.73v0.13l13.71,18.02H318l-12.54-16.97h-5.79
		v16.97h-8.44v-43.83h14.02c2.32,0,4.48,0.13,6.47,0.38c2,0.25,3.71,0.63,5.13,1.13c2.71,0.98,4.8,2.44,6.27,4.37
		S325.34,549.1,325.34,552.03z M303.85,559.01c1.93,0,3.56-0.08,4.91-0.25c1.34-0.16,2.47-0.41,3.39-0.74
		c1.7-0.61,2.88-1.45,3.53-2.51s0.98-2.28,0.98-3.65c0-1.18-0.26-2.22-0.77-3.13s-1.39-1.62-2.63-2.15
		c-0.8-0.35-1.81-0.61-3.03-0.77c-1.22-0.16-2.72-0.25-4.51-0.25h-6.03v13.43H303.85z"/>
	<path class="st0" d="M372.42,570.93c1.01-3.45,2.26-7.15,3.75-11.1l7.96-20.96h11.85v43.83h-8.44v-22.21
		c0-3.25,0.14-7.03,0.41-11.33h-0.31c-0.39,1.25-0.85,2.64-1.38,4.19c-0.53,1.55-1.08,3.08-1.65,4.59l-9.54,24.76h-5.44l-9.54-24.76
		c-0.57-1.51-1.12-3.04-1.65-4.59c-0.53-1.55-0.99-2.95-1.38-4.19h-0.31c0.28,4.04,0.41,7.81,0.41,11.3v22.24h-8.44v-43.83h11.78
		l7.96,20.87c1.33,3.47,2.58,7.21,3.75,11.2H372.42z"/>
	<path class="st0" d="M463.02,560.78c0,3.34-0.5,6.4-1.5,9.19c-1,2.79-2.46,5.18-4.37,7.19c-1.92,2.01-4.27,3.57-7.06,4.68
		c-2.79,1.11-5.96,1.67-9.52,1.67s-6.73-0.56-9.52-1.67c-2.79-1.11-5.14-2.67-7.06-4.68c-1.92-2.01-3.38-4.41-4.37-7.19
		c-1-2.78-1.5-5.85-1.5-9.19c0-3.34,0.5-6.4,1.5-9.19c1-2.78,2.46-5.18,4.37-7.19c1.92-2.01,4.27-3.57,7.06-4.68
		c2.79-1.11,5.96-1.67,9.52-1.67s6.73,0.56,9.52,1.67c2.79,1.11,5.14,2.67,7.06,4.68c1.92,2.01,3.38,4.41,4.37,7.19
		C462.52,554.37,463.02,557.43,463.02,560.78z M454.31,560.78c0-2.66-0.34-5-1.03-6.99s-1.64-3.66-2.86-5
		c-1.22-1.33-2.66-2.33-4.34-2.98s-3.51-0.98-5.51-0.98c-2,0-3.84,0.33-5.51,0.98c-1.68,0.66-3.12,1.65-4.34,2.98
		c-1.22,1.33-2.17,3-2.86,5c-0.69,2-1.03,4.33-1.03,6.99c0,2.67,0.34,5,1.03,6.99c0.69,2,1.64,3.66,2.86,4.98s2.66,2.31,4.34,2.98
		c1.67,0.67,3.51,1,5.51,1c2,0,3.83-0.33,5.51-1s3.12-1.66,4.34-2.98c1.21-1.32,2.17-2.98,2.86-4.98S454.31,563.44,454.31,560.78z"
		/>
	<path class="st0" d="M509.17,559.24c3.31,4.48,5.99,8.45,8.06,11.92h0.21c-0.28-5.7-0.41-9.85-0.41-12.45v-19.85h8.44v43.83h-8.85
		l-15.02-20.18c-2.64-3.49-5.37-7.54-8.2-12.15h-0.21c0.28,5.37,0.41,9.53,0.41,12.48v19.85h-8.44v-43.83h8.85L509.17,559.24z"/>
	<path class="st0" d="M549.67,582.69v-43.83h12.19c1.08,0,2.17,0.03,3.29,0.1c1.11,0.07,2.2,0.16,3.25,0.29s2.08,0.29,3.07,0.48
		c0.99,0.19,1.89,0.41,2.72,0.67c2.46,0.74,4.63,1.75,6.51,3.01c1.88,1.27,3.46,2.76,4.73,4.49c1.27,1.73,2.24,3.65,2.89,5.78
		c0.65,2.13,0.98,4.44,0.98,6.93c0,2.36-0.28,4.57-0.83,6.63c-0.55,2.06-1.39,3.95-2.51,5.65c-1.12,1.7-2.54,3.21-4.25,4.5
		c-1.71,1.3-3.74,2.36-6.08,3.19c-1.95,0.7-4.17,1.22-6.65,1.57c-2.48,0.35-5.27,0.52-8.37,0.52H549.67z M561.58,575.98
		c4.94,0,8.79-0.64,11.57-1.93c2.46-1.16,4.32-2.84,5.58-5.04c1.26-2.21,1.89-5.02,1.89-8.45c0-1.79-0.21-3.41-0.62-4.85
		c-0.41-1.44-1.01-2.72-1.79-3.85c-0.78-1.12-1.73-2.09-2.84-2.9c-1.11-0.81-2.37-1.47-3.77-2c-1.31-0.48-2.77-0.83-4.37-1.05
		c-1.61-0.22-3.41-0.33-5.41-0.33h-3.72v30.4H561.58z"/>
</g>
</svg>
