<?xml version="1.0" encoding="utf-8"?>
<!-- Generator: Adobe Illustrator 24.3.0, SVG Export Plug-In . SVG Version: 6.00 Build 0)  -->
<svg version="1.1" id="bastil-logo" xmlns="http://www.w3.org/2000/svg" xmlns:xlink="http://www.w3.org/1999/xlink" x="0px"
	 y="0px" viewBox="0 0 864 864" style="enable-background:new 0 0 864 864;" xml:space="preserve">
<path id="bastil-logo-combined" d="M373.52,237.19c0.13-27.23,0.26-54.45,0.39-81.68c11.1,0.13,22.19,0.26,33.29,0.39
	c-0.13,20.26-0.26,40.52-0.39,60.77c-3.42-0.13-9.38,0.13-15.87,3.1C379.86,224.83,374.93,234.23,373.52,237.19z M471.45,339.45
	c8.57-3.99,20.77-9.67,27.48-23.23c6.67-13.46,4.17-27.08,3.48-30.58c-1.51-7.66-4.44-12.91-6.97-17.42
	c-5.36-9.57-9.34-11.5-10.45-12c-3.79-1.69-7.3-1.47-9.1-1.35c-3.16,0.2-9.03,0.57-11.42,4.84c-1.7,3.04-0.7,6.39-0.58,6.77
	c0.87,2.76,2.92,4.2,4.65,5.61c0,0,4.97,4.07,9.48,10.84c4.88,7.31,3.9,16.09,3.48,19.74c-0.94,8.4-4.64,14.11-6.97,17.61
	c-1.27,1.91-6.2,9.03-15.48,14.52c-2.36,1.39-6.94,4.05-13.55,5.42c-5.4,1.12-9.49,0.82-14.9,0.39c-7.66-0.62-13.85-1.11-21.1-4.65
	c-6.41-3.12-10.79-7.22-13.35-10.06c-2.91-3.22-7.91-8.75-9.68-17.61c-1.85-9.25,0.88-16.86,2.32-20.13
	c4.07-9.23,11.18-13.95,18.97-18.97c8.57-5.52,10.91-5.02,27.87-12.58c10.88-4.84,19.44-8.7,29.42-15.29
	c11.44-7.55,17.31-11.43,21.48-19.55c5.44-10.59,4.31-21.23,3.87-25.35c-0.48-4.47-1.33-11.69-6.19-18.97
	c-3.67-5.49-7.96-8.51-13.74-12.58c-4.61-3.24-9.18-6.47-15.29-8.52c-11.25-3.77-21.89-1.63-28.26,0.39
	c3.33,0.09,11.64,0.78,19.74,6.58c2.61,1.87,10.47,7.68,13.16,18.58c2.52,10.19-1.02,18.57-2.32,21.29
	c-4.79,9.97-13.58,14.54-23.61,19.74c-11.32,5.87-12.98,3.93-25.55,10.06c-9.08,4.43-16.84,8.22-24,16.26
	c-9.74,10.93-12.42,23.04-13.16,27.1c-3.43,18.74,3.81,33.56,6.97,39.1c9.61,16.89,24.61,23.71,30.58,26.32
	C438.5,354.8,466.42,341.79,471.45,339.45z M271.57,511.53c0,4.61-1.52,9.02-4.55,13.23c-3.04,4.22-7.2,7.29-12.49,9.23
	c-5.29,1.94-13.37,2.91-24.23,2.91h-45.55v-2.53h3.63c4.03,0,6.93-1.23,8.68-3.69c1.09-1.59,1.64-4.99,1.64-10.19v-59.9
	c0-5.74-0.69-9.37-2.06-10.87c-1.85-2-4.6-3.01-8.26-3.01h-3.63v-2.53h41.71c7.78,0,14.02,0.55,18.72,1.64
	c7.12,1.64,12.55,4.55,16.3,8.72c3.75,4.17,5.62,8.97,5.62,14.39c0,4.65-1.47,8.81-4.41,12.48c-2.94,3.67-7.28,6.39-13.02,8.17
	c6.69,1.37,11.69,3.56,15.02,6.56C269.26,500.34,271.57,505.47,271.57,511.53z M212.35,485.89c1.75,0.32,3.76,0.56,6.01,0.72
	c2.25,0.16,4.73,0.24,7.44,0.24c6.93,0,12.13-0.72,15.62-2.15c3.49-1.44,6.16-3.63,8.01-6.6c1.85-2.96,2.78-6.2,2.78-9.71
	c0-5.42-2.3-10.05-6.9-13.88c-4.6-3.83-11.32-5.74-20.14-5.74c-4.75,0-9.02,0.5-12.81,1.5V485.89z M255.05,512.69
	c0-3.6-1.02-7.07-3.06-10.39c-2.04-3.33-5.36-5.95-9.96-7.86c-4.6-1.91-10.3-2.87-17.08-2.87c-2.94,0-5.46,0.05-7.54,0.14
	c-2.09,0.09-3.77,0.25-5.05,0.48v38.02c5.5,1.23,10.94,1.85,16.3,1.85c8.59,0,15.13-1.86,19.64-5.57
	C252.8,522.75,255.05,518.16,255.05,512.69z M373.94,531.26c2.21,1.85,5.28,2.88,9.22,3.11v2.53h-38.08v-2.53
	c3.84-0.18,6.44-0.8,7.79-1.85c1.35-1.05,2.03-2.33,2.03-3.83c0-2.01-0.95-5.17-2.85-9.5l-5.84-13.33h-37.36l-6.55,14.63
	c-1.61,3.6-2.42,6.29-2.42,8.07c0,1.41,0.7,2.66,2.1,3.73c1.4,1.07,4.42,1.77,9.07,2.08v2.53h-30.39v-2.53
	c4.03-0.68,6.64-1.57,7.83-2.67c2.42-2.19,5.1-6.63,8.04-13.33l33.95-76.31h2.49l33.59,77.13
	C369.28,525.39,371.74,529.41,373.94,531.26z M344.23,500.79l-16.37-37.47l-16.8,37.47H344.23z M447.74,493.85
	c-3.3-2.48-9.45-6.05-18.47-10.7c-11.05-5.7-18.05-10.26-20.99-13.67c-2.04-2.33-3.06-4.9-3.06-7.73c0-3.69,1.61-6.99,4.84-9.88
	c3.23-2.89,7.31-4.34,12.24-4.34c4.37,0,8.59,1.07,12.67,3.21s7.22,5.04,9.43,8.68c2.21,3.65,3.74,8.55,4.59,14.7h2.63v-32.07h-2.63
	c-0.47,2.14-1.1,3.57-1.89,4.27s-1.79,1.06-3.02,1.06c-1.09,0-2.97-0.57-5.62-1.71c-5.74-2.42-11.17-3.62-16.3-3.62
	c-8.21,0-14.97,2.4-20.28,7.21c-5.31,4.81-7.97,10.54-7.97,17.2c0,3.83,0.9,7.34,2.7,10.53c1.8,3.19,4.45,6.11,7.94,8.75
	c3.49,2.64,9.36,6.19,17.62,10.63c8.25,4.44,13.31,7.35,15.16,8.72c2.75,2.01,4.78,4.17,6.08,6.5c1.3,2.33,1.96,4.63,1.96,6.91
	c0,4.1-1.72,7.66-5.16,10.67c-3.44,3.01-8.13,4.51-14.06,4.51c-5.12,0-9.83-1.09-14.13-3.28c-4.29-2.19-7.48-4.93-9.57-8.24
	c-2.09-3.3-3.75-8.28-4.98-14.94h-2.63v31.8h2.63c0.33-2.14,0.84-3.56,1.53-4.24c0.69-0.68,1.62-1.03,2.81-1.03
	c1.23,0,4.16,0.72,8.79,2.15c4.63,1.44,7.67,2.27,9.15,2.5c2.46,0.41,5.1,0.62,7.9,0.62c8.92,0,16.21-2.54,21.88-7.62
	s8.51-11.13,8.51-18.15c0-3.69-0.89-7.22-2.67-10.6C453.58,499.27,451.04,496.34,447.74,493.85z M530.91,449.99
	c3.99,0,7.2,0.63,9.64,1.88c2.44,1.25,4.4,3.2,5.87,5.85c0.9,1.64,1.61,4.38,2.13,8.21h2.71l-1.07-21.74h-78.78l-1.14,21.74h2.71
	c0.33-4.19,1.38-7.52,3.13-9.98c1.75-2.46,3.87-4.12,6.33-4.99c1.9-0.64,5.1-0.96,9.61-0.96h11.6v70.84c0,5.2-0.52,8.52-1.57,9.98
	c-1.71,2.37-4.6,3.56-8.68,3.56h-3.42v2.53h40.92v-2.53h-3.34c-3.75,0-6.52-0.96-8.33-2.87c-1.28-1.41-1.92-4.97-1.92-10.67v-70.84
	H530.91z M599.87,534.37h-3.49c-2.28,0-4.44-0.55-6.48-1.64c-1.52-0.82-2.52-1.8-2.99-2.94c-0.62-1.5-0.93-4.6-0.93-9.3v-59.9
	c0-5.56,0.59-9.07,1.78-10.53c1.8-2.23,4.67-3.35,8.61-3.35h3.49v-2.53h-41.35v2.53h3.42c2.28,0,4.46,0.55,6.55,1.64
	c1.47,0.82,2.44,1.8,2.92,2.94c0.62,1.5,0.92,4.6,0.92,9.3v59.9c0,5.56-0.57,9.07-1.71,10.53c-1.8,2.23-4.7,3.35-8.68,3.35h-3.42
	v2.53h41.35V534.37z M686.98,511.26c-2.47,5.74-4.94,9.95-7.4,12.62c-2.47,2.67-5.2,4.52-8.18,5.57c-2.99,1.05-8.18,1.57-15.59,1.57
	h-7.05c-6.22,0-9.92-0.23-11.1-0.68c-1.19-0.46-2.06-1.16-2.63-2.12c-0.76-1.41-1.14-4.01-1.14-7.79v-58.26
	c0-5.52,0.38-9,1.14-10.46c0.76-1.46,2.17-2.67,4.24-3.62c2.06-0.96,5.66-1.41,10.78-1.37v-2.53h-43.7v2.53h3.63
	c3.65,0,6.41,1,8.25,3.01c1.33,1.46,1.99,5.08,1.99,10.87v59.83c0,5.29-0.5,8.66-1.49,10.12c-1.76,2.55-4.67,3.83-8.75,3.83h-3.63
	v2.53h74.73l8.26-25.16L686.98,511.26z M219.71,605.51c0.95,1.26,1.42,2.81,1.42,4.65c0,1.5-0.31,2.82-0.93,3.97
	c-0.62,1.14-1.52,2.09-2.7,2.86s-2.61,1.34-4.31,1.73s-3.61,0.58-5.75,0.58c-1.03,0-2.09-0.04-3.19-0.13v12.15h-3.75v-29.56h8.52
	c1.27,0,2.45,0.07,3.53,0.22c1.08,0.15,2.07,0.38,2.97,0.69C217.36,603.31,218.76,604.25,219.71,605.51z M217.18,610.16
	c0-1.15-0.29-2.09-0.86-2.83c-0.57-0.74-1.39-1.3-2.45-1.68c-0.66-0.24-1.42-0.4-2.28-0.5s-1.85-0.14-2.99-0.14h-4.35v10.87
	c0.51,0.06,1.03,0.1,1.59,0.13s1.07,0.04,1.56,0.04c1.76,0,3.27-0.13,4.51-0.4c1.24-0.27,2.25-0.65,3.03-1.16
	c0.78-0.51,1.35-1.13,1.7-1.86S217.18,611.09,217.18,610.16z M251.01,618.69l9.11,12.64h-3.75l-9.47-12.24h-4.53v12.24h-3.75v-29.56
	h7.97c1.35,0,2.49,0.05,3.43,0.14c0.94,0.1,1.8,0.25,2.58,0.45c2.14,0.56,3.78,1.51,4.92,2.86c1.13,1.35,1.7,3.03,1.7,5.05
	c0,1.19-0.2,2.26-0.6,3.2c-0.4,0.94-0.96,1.76-1.68,2.45c-0.72,0.69-1.58,1.26-2.59,1.7s-2.12,0.77-3.35,0.97V618.69z
	 M249.01,615.73c0.81-0.07,1.54-0.21,2.18-0.4c1.3-0.38,2.31-0.99,3.01-1.83c0.71-0.84,1.06-1.94,1.06-3.29
	c-0.02-1.27-0.35-2.29-1.01-3.06c-0.66-0.77-1.57-1.33-2.74-1.67c-0.55-0.16-1.21-0.28-1.98-0.35c-0.77-0.07-1.74-0.11-2.92-0.11
	h-4.25v10.83h3.7C247.22,615.84,248.2,615.8,249.01,615.73z M304.26,610.37c0.65,1.88,0.98,3.94,0.98,6.2c0,2.24-0.33,4.29-1,6.16
	c-0.67,1.87-1.63,3.48-2.87,4.84c-1.25,1.36-2.75,2.41-4.5,3.17c-1.76,0.76-3.72,1.14-5.9,1.14c-2.25,0-4.27-0.38-6.04-1.14
	c-1.78-0.76-3.29-1.82-4.52-3.17c-1.23-1.35-2.17-2.97-2.83-4.84c-0.65-1.87-0.98-3.92-0.98-6.16c0-2.25,0.34-4.32,1.01-6.2
	c0.68-1.88,1.63-3.49,2.87-4.85c1.24-1.36,2.74-2.41,4.5-3.17c1.76-0.76,3.74-1.14,5.93-1.14c2.24,0,4.24,0.38,6.01,1.14
	s3.27,1.81,4.51,3.17C302.66,606.88,303.6,608.49,304.26,610.37z M301.51,616.57c0-1.99-0.27-3.74-0.81-5.26
	c-0.54-1.52-1.29-2.78-2.24-3.8c-0.95-1.02-2.08-1.79-3.37-2.31s-2.69-0.78-4.17-0.78c-1.49,0-2.88,0.26-4.17,0.78
	c-1.29,0.52-2.42,1.29-3.37,2.31c-0.95,1.02-1.7,2.28-2.24,3.8c-0.54,1.52-0.81,3.27-0.81,5.26s0.27,3.74,0.83,5.25
	s1.3,2.77,2.25,3.79c0.95,1.02,2.08,1.78,3.37,2.3c1.29,0.52,2.69,0.77,4.2,0.77c1.49,0,2.87-0.26,4.15-0.77
	c1.28-0.52,2.39-1.28,3.35-2.3c0.95-1.02,1.7-2.28,2.24-3.79S301.51,618.56,301.51,616.57z M323.39,631.33h3.75v-13.52h12.94v-3.25
	h-12.94v-9.54h14.6v-3.25h-18.35V631.33z M362.14,617.81h13.27v-3.25h-13.27v-9.54h14.92v-3.25H358.4v29.56h19.52v-3.25h-15.77
	V617.81z M411.94,617.04c-0.9-0.6-1.93-1.06-3.08-1.4s-2.33-0.65-3.52-0.93c-0.89-0.21-1.74-0.43-2.56-0.66
	c-0.82-0.24-1.54-0.54-2.15-0.91c-0.62-0.37-1.11-0.84-1.48-1.4c-0.37-0.57-0.55-1.29-0.55-2.15c0-0.78,0.14-1.49,0.41-2.13
	c0.28-0.64,0.7-1.19,1.26-1.63s1.28-0.79,2.14-1.04c0.86-0.24,1.87-0.36,3.04-0.36c1.55,0.01,3,0.18,4.36,0.51s2.67,0.74,3.94,1.26
	v-3.33c-1.18-0.49-2.48-0.88-3.9-1.18c-1.42-0.3-2.95-0.45-4.59-0.45c-1.44,0-2.8,0.17-4.07,0.51c-1.27,0.34-2.4,0.86-3.37,1.57
	s-1.75,1.6-2.32,2.68c-0.57,1.08-0.86,2.38-0.86,3.88c0,1.44,0.27,2.63,0.82,3.56c0.54,0.93,1.26,1.69,2.16,2.28
	c0.9,0.59,1.92,1.05,3.06,1.38c1.14,0.33,2.31,0.63,3.51,0.89c0.9,0.21,1.77,0.43,2.59,0.66c0.82,0.24,1.54,0.54,2.17,0.92
	c0.63,0.38,1.13,0.85,1.51,1.42c0.38,0.57,0.56,1.3,0.56,2.19c0,1.08-0.21,1.97-0.64,2.68c-0.43,0.71-1.01,1.28-1.75,1.69
	c-0.74,0.41-1.59,0.71-2.56,0.88s-2,0.26-3.07,0.26c-0.66,0-1.36-0.04-2.12-0.13c-0.75-0.09-1.49-0.21-2.23-0.36
	c-0.74-0.16-1.45-0.34-2.14-0.56c-0.69-0.22-1.31-0.46-1.86-0.73v3.29c0.35,0.21,0.84,0.41,1.45,0.62c0.61,0.21,1.3,0.39,2.06,0.55
	c0.76,0.16,1.56,0.29,2.39,0.39s1.65,0.14,2.45,0.14c1.73,0,3.33-0.17,4.78-0.52c1.46-0.35,2.72-0.88,3.78-1.59
	c1.07-0.71,1.9-1.63,2.51-2.74c0.61-1.11,0.91-2.43,0.91-3.96c0-1.5-0.28-2.73-0.84-3.69C413.57,618.42,412.84,617.64,411.94,617.04
	z M449.18,617.04c-0.9-0.6-1.93-1.06-3.08-1.4s-2.33-0.65-3.52-0.93c-0.89-0.21-1.74-0.43-2.56-0.66c-0.82-0.24-1.54-0.54-2.16-0.91
	s-1.11-0.84-1.48-1.4c-0.37-0.57-0.55-1.29-0.55-2.15c0-0.78,0.14-1.49,0.41-2.13c0.28-0.64,0.7-1.19,1.26-1.63s1.28-0.79,2.14-1.04
	s1.87-0.36,3.04-0.36c1.55,0.01,3,0.18,4.36,0.51c1.36,0.32,2.67,0.74,3.94,1.26v-3.33c-1.18-0.49-2.48-0.88-3.9-1.18
	c-1.42-0.3-2.95-0.45-4.59-0.45c-1.44,0-2.8,0.17-4.07,0.51s-2.4,0.86-3.37,1.57s-1.75,1.6-2.32,2.68
	c-0.57,1.08-0.86,2.38-0.86,3.88c0,1.44,0.27,2.63,0.82,3.56c0.54,0.93,1.26,1.69,2.16,2.28c0.9,0.59,1.92,1.05,3.06,1.38
	c1.14,0.33,2.31,0.63,3.51,0.89c0.9,0.21,1.77,0.43,2.59,0.66c0.82,0.24,1.54,0.54,2.17,0.92c0.63,0.38,1.13,0.85,1.51,1.42
	c0.38,0.57,0.56,1.3,0.56,2.19c0,1.08-0.21,1.97-0.64,2.68c-0.43,0.71-1.01,1.28-1.75,1.69c-0.74,0.41-1.59,0.71-2.56,0.88
	c-0.97,0.18-2,0.26-3.07,0.26c-0.66,0-1.36-0.04-2.12-0.13c-0.75-0.09-1.49-0.21-2.23-0.36c-0.74-0.16-1.45-0.34-2.14-0.56
	c-0.69-0.22-1.31-0.46-1.86-0.73v3.29c0.35,0.21,0.83,0.41,1.45,0.62s1.3,0.39,2.06,0.55c0.76,0.16,1.56,0.29,2.39,0.39
	c0.83,0.1,1.65,0.14,2.45,0.14c1.73,0,3.33-0.17,4.78-0.52c1.46-0.35,2.72-0.88,3.78-1.59c1.07-0.71,1.9-1.63,2.51-2.74
	c0.6-1.11,0.91-2.43,0.91-3.96c0-1.5-0.28-2.73-0.84-3.69C450.81,618.42,450.08,617.64,449.18,617.04z M470.08,631.33h3.75v-29.56
	h-3.75V631.33z M519.42,610.37c0.65,1.88,0.98,3.94,0.98,6.2c0,2.24-0.33,4.29-1,6.16c-0.67,1.87-1.63,3.48-2.87,4.84
	c-1.25,1.36-2.75,2.41-4.5,3.17c-1.76,0.76-3.72,1.14-5.9,1.14c-2.25,0-4.26-0.38-6.04-1.14c-1.78-0.76-3.29-1.82-4.52-3.17
	c-1.23-1.35-2.17-2.97-2.83-4.84c-0.65-1.87-0.98-3.92-0.98-6.16c0-2.25,0.34-4.32,1.02-6.2s1.63-3.49,2.87-4.85
	c1.24-1.36,2.74-2.41,4.5-3.17c1.76-0.76,3.74-1.14,5.93-1.14c2.24,0,4.24,0.38,6.01,1.14s3.27,1.81,4.5,3.17
	C517.82,606.88,518.77,608.49,519.42,610.37z M516.68,616.57c0-1.99-0.27-3.74-0.81-5.26c-0.54-1.52-1.29-2.78-2.24-3.8
	c-0.95-1.02-2.08-1.79-3.37-2.31c-1.29-0.52-2.68-0.78-4.17-0.78c-1.49,0-2.88,0.26-4.17,0.78s-2.42,1.29-3.37,2.31
	c-0.95,1.02-1.7,2.28-2.24,3.8c-0.54,1.52-0.81,3.27-0.81,5.26s0.27,3.74,0.83,5.25c0.55,1.51,1.3,2.77,2.25,3.79
	c0.95,1.02,2.08,1.78,3.37,2.3s2.69,0.77,4.2,0.77c1.49,0,2.87-0.26,4.15-0.77s2.39-1.28,3.35-2.3c0.95-1.02,1.7-2.28,2.24-3.79
	C516.41,620.31,516.68,618.56,516.68,616.57z M559.78,617.5c0,2.99,0.1,5.92,0.3,8.79h-0.14c-1.84-2.75-3.7-5.43-5.59-8.04
	l-12.07-16.48h-3.72v29.56h3.75v-15.09c0-3.59-0.1-6.74-0.3-9.43h0.14c1.64,2.49,3.5,5.17,5.59,8.04l12.07,16.48h3.75v-29.56h-3.77
	V617.5z M595.27,601.77l12.53,29.56h-4.07l-3.67-8.9h-12.86l-3.67,8.9h-4.02l12.53-29.56H595.27z M597.56,616.39
	c-1.26-3.06-2.55-6.41-3.86-10.03h-0.09c-1.37,3.68-2.68,7.02-3.93,10.03l-1.15,2.78h10.2L597.56,616.39z M627.51,601.77h-3.75
	v29.56h18.76v-3.25h-15.01V601.77z M675.86,617.04c-0.9-0.6-1.93-1.06-3.08-1.4s-2.33-0.65-3.52-0.93
	c-0.89-0.21-1.74-0.43-2.56-0.66c-0.82-0.24-1.54-0.54-2.16-0.91s-1.11-0.84-1.48-1.4c-0.37-0.57-0.55-1.29-0.55-2.15
	c0-0.78,0.14-1.49,0.41-2.13c0.28-0.64,0.7-1.19,1.26-1.63s1.28-0.79,2.14-1.04s1.87-0.36,3.04-0.36c1.55,0.01,3,0.18,4.36,0.51
	c1.36,0.32,2.67,0.74,3.94,1.26v-3.33c-1.18-0.49-2.48-0.88-3.9-1.18c-1.42-0.3-2.95-0.45-4.59-0.45c-1.44,0-2.8,0.17-4.07,0.51
	s-2.4,0.86-3.37,1.57s-1.75,1.6-2.32,2.68c-0.57,1.08-0.86,2.38-0.86,3.88c0,1.44,0.27,2.63,0.82,3.56
	c0.54,0.93,1.26,1.69,2.16,2.28c0.9,0.59,1.92,1.05,3.06,1.38c1.14,0.33,2.31,0.63,3.51,0.89c0.9,0.21,1.77,0.43,2.59,0.66
	c0.82,0.24,1.54,0.54,2.17,0.92c0.63,0.38,1.13,0.85,1.51,1.42c0.38,0.57,0.56,1.3,0.56,2.19c0,1.08-0.21,1.97-0.64,2.68
	c-0.43,0.71-1.01,1.28-1.75,1.69c-0.74,0.41-1.59,0.71-2.56,0.88c-0.97,0.18-2,0.26-3.07,0.26c-0.66,0-1.36-0.04-2.12-0.13
	c-0.75-0.09-1.49-0.21-2.23-0.36c-0.74-0.16-1.45-0.34-2.14-0.56c-0.69-0.22-1.31-0.46-1.86-0.73v3.29
	c0.35,0.21,0.83,0.41,1.45,0.62s1.3,0.39,2.06,0.55c0.76,0.16,1.56,0.29,2.39,0.39c0.83,0.1,1.65,0.14,2.45,0.14
	c1.73,0,3.33-0.17,4.78-0.52c1.46-0.35,2.72-0.88,3.78-1.59c1.07-0.71,1.9-1.63,2.51-2.74c0.6-1.11,0.91-2.43,0.91-3.96
	c0-1.5-0.28-2.73-0.84-3.69C677.5,618.42,676.76,617.64,675.86,617.04z"/>
<g>
</g>
<g>
</g>
<g>
</g>
<g>
</g>
<g>
</g>
<g>
</g>
</svg>
