<?xml version="1.0" encoding="utf-8"?>
<!-- Generator: Adobe Illustrator 24.3.0, SVG Export Plug-In . SVG Version: 6.00 Build 0)  -->
<svg version="1.1" id="Layer_1" xmlns="http://www.w3.org/2000/svg" xmlns:xlink="http://www.w3.org/1999/xlink" x="0px" y="0px"
	 viewBox="0 0 864 864" style="enable-background:new 0 0 864 864;" xml:space="preserve">
<style type="text/css">
	.st0{fill:#A0A2A1;}
</style>
<path class="st0" d="M407.19,155.9c-11.1-0.13-22.19-0.26-33.29-0.39c-0.13,27.23-0.26,54.45-0.39,81.68
	c1.41-2.97,6.34-12.37,17.42-17.42c6.49-2.96,12.45-3.22,15.87-3.1C406.94,196.42,407.06,176.16,407.19,155.9z"/>
<path class="st0" d="M426.94,156.74c3.33,0.09,11.64,0.78,19.74,6.58c2.61,1.87,10.47,7.68,13.16,18.58
	c2.52,10.19-1.02,18.57-2.32,21.29c-4.79,9.97-13.58,14.54-23.61,19.74c-11.32,5.87-12.98,3.93-25.55,10.06
	c-9.08,4.43-16.84,8.22-24,16.26c-9.74,10.93-12.42,23.04-13.16,27.1c-3.43,18.74,3.81,33.56,6.97,39.1
	c9.61,16.89,24.61,23.71,30.58,26.32c29.76,13.03,57.68,0.02,62.71-2.32c8.57-3.99,20.77-9.67,27.48-23.23
	c6.67-13.46,4.17-27.08,3.48-30.58c-1.51-7.66-4.44-12.91-6.97-17.42c-5.36-9.57-9.34-11.5-10.45-12c-3.79-1.69-7.3-1.47-9.1-1.35
	c-3.16,0.2-9.03,0.57-11.42,4.84c-1.7,3.04-0.7,6.39-0.58,6.77c0.87,2.76,2.92,4.2,4.65,5.61c0,0,4.97,4.07,9.48,10.84
	c4.88,7.31,3.89,16.09,3.48,19.74c-0.94,8.4-4.64,14.11-6.97,17.61c-1.27,1.91-6.2,9.03-15.48,14.52
	c-2.36,1.39-6.94,4.05-13.55,5.42c-5.4,1.12-9.49,0.82-14.9,0.39c-7.66-0.62-13.85-1.11-21.1-4.65
	c-6.41-3.12-10.79-7.22-13.35-10.06c-2.91-3.22-7.91-8.75-9.68-17.61c-1.85-9.25,0.88-16.86,2.32-20.13
	c4.07-9.23,11.18-13.95,18.97-18.97c8.57-5.52,10.91-5.02,27.87-12.58c10.88-4.84,19.44-8.7,29.42-15.29
	c11.44-7.55,17.31-11.43,21.48-19.55c5.44-10.59,4.31-21.23,3.87-25.35c-0.48-4.47-1.33-11.69-6.19-18.97
	c-3.67-5.49-7.96-8.51-13.74-12.58c-4.61-3.24-9.18-6.47-15.29-8.52C443.95,152.58,433.3,154.72,426.94,156.74z"/>
<g>
	<path d="M249.65,489.58c6.69,1.37,11.7,3.56,15.02,6.56c4.6,4.2,6.9,9.32,6.9,15.38c0,4.61-1.52,9.02-4.55,13.23
		c-3.04,4.22-7.2,7.29-12.49,9.23c-5.29,1.94-13.37,2.91-24.23,2.91h-45.55v-2.53h3.63c4.03,0,6.93-1.23,8.68-3.69
		c1.09-1.59,1.64-4.99,1.64-10.19v-59.9c0-5.74-0.69-9.37-2.06-10.87c-1.85-2-4.6-3.01-8.26-3.01h-3.63v-2.53h41.7
		c7.78,0,14.02,0.55,18.72,1.64c7.12,1.64,12.55,4.55,16.3,8.72c3.75,4.17,5.62,8.97,5.62,14.39c0,4.65-1.47,8.81-4.41,12.48
		C259.73,485.08,255.39,487.8,249.65,489.58z M212.35,485.89c1.75,0.32,3.76,0.56,6.01,0.72c2.25,0.16,4.73,0.24,7.44,0.24
		c6.93,0,12.13-0.72,15.62-2.15c3.49-1.44,6.16-3.63,8.01-6.6c1.85-2.96,2.78-6.2,2.78-9.71c0-5.42-2.3-10.05-6.9-13.88
		c-4.6-3.83-11.32-5.74-20.14-5.74c-4.75,0-9.02,0.5-12.81,1.5V485.89z M212.35,530.2c5.5,1.23,10.94,1.85,16.3,1.85
		c8.59,0,15.13-1.86,19.64-5.57c4.51-3.71,6.76-8.31,6.76-13.78c0-3.6-1.02-7.07-3.06-10.39c-2.04-3.33-5.36-5.95-9.96-7.86
		c-4.6-1.91-10.3-2.87-17.08-2.87c-2.94,0-5.46,0.05-7.54,0.14c-2.09,0.09-3.77,0.25-5.05,0.48V530.2z"/>
	<path d="M346.22,505.85h-37.36l-6.55,14.63c-1.61,3.6-2.42,6.29-2.42,8.07c0,1.41,0.7,2.66,2.1,3.73c1.4,1.07,4.42,1.77,9.07,2.08
		v2.53h-30.39v-2.53c4.03-0.68,6.64-1.57,7.83-2.67c2.42-2.19,5.1-6.63,8.04-13.33l33.95-76.31h2.49l33.59,77.13
		c2.7,6.2,5.16,10.22,7.37,12.07c2.21,1.85,5.28,2.88,9.22,3.11v2.53h-38.08v-2.53c3.84-0.18,6.44-0.8,7.79-1.85
		c1.35-1.05,2.03-2.33,2.03-3.83c0-2.01-0.95-5.17-2.85-9.5L346.22,505.85z M344.23,500.79l-16.37-37.47l-16.8,37.47H344.23z"/>
	<path d="M451.62,442.06v32.07h-2.63c-0.85-6.15-2.38-11.05-4.59-14.7c-2.21-3.65-5.35-6.54-9.43-8.68
		c-4.08-2.14-8.3-3.21-12.67-3.21c-4.93,0-9.01,1.45-12.24,4.34c-3.23,2.9-4.84,6.19-4.84,9.88c0,2.83,1.02,5.4,3.06,7.73
		c2.94,3.42,9.94,7.98,20.99,13.67c9.01,4.65,15.17,8.22,18.47,10.7c3.3,2.49,5.84,5.41,7.62,8.79c1.78,3.37,2.67,6.91,2.67,10.6
		c0,7.02-2.83,13.07-8.5,18.15c-5.67,5.08-12.97,7.62-21.88,7.62c-2.8,0-5.43-0.21-7.9-0.62c-1.47-0.23-4.52-1.06-9.15-2.5
		c-4.63-1.44-7.56-2.15-8.79-2.15c-1.19,0-2.12,0.34-2.81,1.03c-0.69,0.68-1.2,2.1-1.53,4.24h-2.63v-31.8h2.63
		c1.23,6.66,2.89,11.64,4.98,14.94c2.09,3.31,5.28,6.05,9.57,8.24c4.29,2.19,9,3.28,14.13,3.28c5.93,0,10.62-1.5,14.06-4.51
		c3.44-3.01,5.16-6.56,5.16-10.67c0-2.28-0.65-4.58-1.96-6.91c-1.31-2.32-3.33-4.49-6.08-6.5c-1.85-1.37-6.9-4.27-15.16-8.72
		c-8.25-4.45-14.13-7.99-17.61-10.63c-3.49-2.64-6.13-5.56-7.94-8.75c-1.8-3.19-2.7-6.7-2.7-10.53c0-6.66,2.66-12.39,7.97-17.2
		c5.31-4.81,12.07-7.21,20.28-7.21c5.12,0,10.56,1.21,16.3,3.62c2.66,1.14,4.53,1.71,5.62,1.71c1.23,0,2.24-0.35,3.02-1.06
		c0.78-0.71,1.41-2.13,1.89-4.27H451.62z"/>
	<path d="M550.19,444.18l1.07,21.74h-2.7c-0.52-3.83-1.23-6.56-2.13-8.21c-1.47-2.64-3.43-4.59-5.87-5.85
		c-2.44-1.25-5.66-1.88-9.64-1.88h-13.59v70.84c0,5.7,0.64,9.25,1.92,10.67c1.8,1.91,4.58,2.87,8.33,2.87h3.35v2.53h-40.92v-2.53
		h3.42c4.08,0,6.97-1.18,8.68-3.56c1.04-1.46,1.57-4.79,1.57-9.98v-70.84h-11.6c-4.51,0-7.71,0.32-9.61,0.96
		c-2.47,0.87-4.58,2.53-6.33,4.99c-1.76,2.46-2.8,5.79-3.13,9.98h-2.71l1.14-21.74H550.19z"/>
	<path d="M599.87,534.37v2.53h-41.35v-2.53h3.42c3.99,0,6.88-1.12,8.68-3.35c1.14-1.46,1.71-4.97,1.71-10.53v-59.9
		c0-4.69-0.31-7.79-0.93-9.3c-0.47-1.14-1.45-2.12-2.92-2.94c-2.09-1.09-4.27-1.64-6.55-1.64h-3.42v-2.53h41.35v2.53h-3.49
		c-3.94,0-6.81,1.12-8.61,3.35c-1.19,1.46-1.78,4.97-1.78,10.53v59.9c0,4.7,0.31,7.79,0.93,9.3c0.47,1.14,1.47,2.12,2.99,2.94
		c2.04,1.09,4.2,1.64,6.48,1.64H599.87z"/>
	<path d="M686.98,511.26l2.35,0.48l-8.26,25.16h-74.73v-2.53h3.63c4.08,0,7-1.28,8.75-3.83c1-1.46,1.49-4.83,1.49-10.12v-59.83
		c0-5.79-0.67-9.41-1.99-10.87c-1.85-2-4.6-3.01-8.25-3.01h-3.63v-2.53h43.7v2.53c-5.12-0.04-8.72,0.41-10.78,1.37
		c-2.06,0.96-3.48,2.17-4.24,3.62c-0.76,1.46-1.14,4.95-1.14,10.46v58.26c0,3.78,0.38,6.38,1.14,7.79c0.57,0.96,1.45,1.66,2.63,2.12
		c1.19,0.46,4.89,0.68,11.1,0.68h7.04c7.4,0,12.6-0.52,15.59-1.57c2.99-1.05,5.72-2.91,8.18-5.57
		C682.04,521.21,684.51,517,686.98,511.26z"/>
</g>
<g>
	<path d="M204.25,631.33h-3.75v-29.56h8.52c1.27,0,2.45,0.07,3.53,0.22c1.08,0.15,2.07,0.38,2.97,0.69
		c1.84,0.63,3.23,1.58,4.18,2.84c0.95,1.26,1.42,2.81,1.42,4.65c0,1.5-0.31,2.82-0.93,3.97c-0.62,1.14-1.52,2.09-2.7,2.86
		s-2.61,1.34-4.31,1.73s-3.61,0.58-5.75,0.58c-1.03,0-2.09-0.04-3.19-0.13V631.33z M204.25,615.88c0.51,0.06,1.03,0.1,1.59,0.13
		s1.07,0.04,1.56,0.04c1.76,0,3.27-0.13,4.51-0.4c1.24-0.27,2.25-0.65,3.03-1.16s1.35-1.13,1.7-1.86c0.35-0.73,0.53-1.56,0.53-2.49
		c0-1.15-0.29-2.09-0.86-2.83s-1.39-1.3-2.45-1.68c-0.66-0.24-1.42-0.4-2.28-0.5s-1.85-0.14-2.99-0.14h-4.35V615.88z"/>
	<path d="M242.36,619.09v12.24h-3.75v-29.56h7.97c1.35,0,2.49,0.05,3.43,0.14c0.94,0.1,1.8,0.25,2.58,0.45
		c2.14,0.56,3.78,1.51,4.91,2.86c1.13,1.35,1.7,3.03,1.7,5.05c0,1.19-0.2,2.26-0.6,3.2c-0.4,0.94-0.96,1.76-1.68,2.45
		c-0.72,0.69-1.58,1.26-2.59,1.7c-1,0.44-2.12,0.77-3.35,0.97v0.09l9.11,12.64h-3.75l-9.47-12.24H242.36z M242.36,605.01v10.83h3.7
		c1.15,0,2.13-0.04,2.94-0.11c0.81-0.07,1.54-0.21,2.18-0.4c1.3-0.38,2.31-0.99,3.01-1.83c0.7-0.84,1.06-1.94,1.06-3.29
		c-0.02-1.27-0.35-2.29-1.01-3.06c-0.66-0.77-1.57-1.33-2.74-1.67c-0.55-0.16-1.21-0.28-1.98-0.35c-0.77-0.07-1.74-0.11-2.92-0.11
		H242.36z"/>
	<path d="M305.24,616.57c0,2.24-0.33,4.29-1,6.16c-0.67,1.87-1.63,3.48-2.87,4.84c-1.25,1.36-2.75,2.41-4.5,3.17
		c-1.76,0.76-3.72,1.14-5.9,1.14c-2.25,0-4.27-0.38-6.04-1.14c-1.78-0.76-3.29-1.82-4.52-3.17c-1.23-1.35-2.17-2.97-2.83-4.84
		c-0.65-1.87-0.98-3.92-0.98-6.16c0-2.25,0.34-4.32,1.01-6.2s1.63-3.49,2.87-4.85c1.24-1.36,2.74-2.41,4.5-3.17
		c1.76-0.76,3.74-1.14,5.93-1.14c2.24,0,4.24,0.38,6.01,1.14s3.27,1.81,4.51,3.17c1.23,1.35,2.17,2.97,2.83,4.85
		C304.91,612.25,305.24,614.32,305.24,616.57z M301.51,616.57c0-1.99-0.27-3.74-0.81-5.26c-0.54-1.52-1.29-2.78-2.24-3.8
		c-0.95-1.02-2.08-1.79-3.37-2.31c-1.29-0.52-2.69-0.78-4.17-0.78c-1.49,0-2.88,0.26-4.17,0.78s-2.42,1.29-3.37,2.31
		c-0.95,1.02-1.7,2.28-2.24,3.8c-0.54,1.52-0.81,3.27-0.81,5.26s0.27,3.74,0.83,5.25s1.3,2.77,2.25,3.79
		c0.95,1.02,2.08,1.78,3.37,2.3c1.29,0.52,2.69,0.77,4.2,0.77c1.49,0,2.87-0.26,4.15-0.77c1.28-0.52,2.39-1.28,3.35-2.3
		c0.95-1.02,1.7-2.28,2.24-3.79S301.51,618.56,301.51,616.57z"/>
	<path d="M327.14,631.33h-3.75v-29.56h18.35v3.25h-14.6v9.54h12.94v3.25h-12.94V631.33z"/>
	<path d="M362.14,628.08h15.77v3.25H358.4v-29.56h18.67v3.25h-14.92v9.54h13.27v3.25h-13.27V628.08z"/>
	<path d="M398.6,609.59c0,0.87,0.18,1.59,0.55,2.15c0.37,0.57,0.86,1.03,1.48,1.4s1.34,0.67,2.16,0.91
		c0.82,0.24,1.67,0.46,2.56,0.66c1.19,0.28,2.37,0.59,3.52,0.93c1.15,0.34,2.18,0.81,3.08,1.4c0.9,0.6,1.63,1.37,2.19,2.33
		c0.56,0.96,0.84,2.19,0.84,3.69c0,1.53-0.3,2.85-0.91,3.96c-0.6,1.11-1.44,2.03-2.51,2.74c-1.07,0.71-2.33,1.25-3.78,1.59
		c-1.46,0.35-3.05,0.52-4.78,0.52c-0.8,0-1.61-0.05-2.45-0.14c-0.84-0.1-1.63-0.22-2.39-0.39c-0.76-0.16-1.45-0.35-2.06-0.55
		c-0.61-0.21-1.1-0.41-1.45-0.62v-3.29c0.55,0.27,1.17,0.51,1.86,0.73c0.69,0.22,1.4,0.41,2.14,0.56c0.74,0.15,1.48,0.28,2.23,0.36
		c0.75,0.09,1.46,0.13,2.12,0.13c1.07,0,2.1-0.09,3.07-0.26s1.83-0.47,2.56-0.88c0.74-0.41,1.32-0.98,1.75-1.69
		c0.43-0.71,0.64-1.61,0.64-2.68c0-0.88-0.19-1.61-0.56-2.19s-0.88-1.05-1.51-1.42c-0.63-0.38-1.35-0.68-2.17-0.92
		c-0.82-0.24-1.68-0.46-2.59-0.66c-1.2-0.26-2.36-0.56-3.51-0.89c-1.14-0.33-2.16-0.79-3.06-1.38c-0.9-0.59-1.62-1.35-2.16-2.28
		c-0.54-0.93-0.82-2.11-0.82-3.56c0-1.5,0.29-2.79,0.86-3.88c0.57-1.08,1.35-1.98,2.32-2.68s2.1-1.23,3.37-1.57
		c1.27-0.34,2.63-0.51,4.07-0.51c1.64,0,3.17,0.15,4.59,0.45c1.42,0.3,2.72,0.7,3.9,1.18v3.33c-1.27-0.51-2.59-0.93-3.94-1.26
		s-2.81-0.49-4.36-0.51c-1.17,0-2.18,0.12-3.03,0.36c-0.86,0.24-1.57,0.59-2.14,1.04s-0.99,0.99-1.26,1.63
		C398.74,608.1,398.6,608.81,398.6,609.59z"/>
	<path d="M435.83,609.59c0,0.87,0.18,1.59,0.55,2.15c0.37,0.57,0.86,1.03,1.48,1.4s1.34,0.67,2.16,0.91
		c0.82,0.24,1.67,0.46,2.56,0.66c1.19,0.28,2.37,0.59,3.52,0.93s2.18,0.81,3.08,1.4c0.9,0.6,1.63,1.37,2.19,2.33
		c0.56,0.96,0.84,2.19,0.84,3.69c0,1.53-0.3,2.85-0.91,3.96c-0.6,1.11-1.44,2.03-2.51,2.74c-1.07,0.71-2.33,1.25-3.78,1.59
		c-1.46,0.35-3.05,0.52-4.78,0.52c-0.8,0-1.61-0.05-2.45-0.14c-0.84-0.1-1.63-0.22-2.39-0.39c-0.76-0.16-1.44-0.35-2.06-0.55
		s-1.1-0.41-1.45-0.62v-3.29c0.55,0.27,1.17,0.51,1.86,0.73c0.69,0.22,1.4,0.41,2.14,0.56c0.74,0.15,1.48,0.28,2.23,0.36
		c0.75,0.09,1.46,0.13,2.12,0.13c1.07,0,2.1-0.09,3.07-0.26c0.97-0.18,1.83-0.47,2.56-0.88c0.74-0.41,1.32-0.98,1.75-1.69
		c0.43-0.71,0.64-1.61,0.64-2.68c0-0.88-0.19-1.61-0.56-2.19c-0.38-0.57-0.88-1.05-1.51-1.42c-0.63-0.38-1.35-0.68-2.17-0.92
		c-0.82-0.24-1.68-0.46-2.59-0.66c-1.2-0.26-2.37-0.56-3.51-0.89c-1.14-0.33-2.16-0.79-3.06-1.38c-0.9-0.59-1.62-1.35-2.16-2.28
		c-0.54-0.93-0.82-2.11-0.82-3.56c0-1.5,0.29-2.79,0.86-3.88c0.57-1.08,1.35-1.98,2.32-2.68s2.1-1.23,3.37-1.57s2.63-0.51,4.07-0.51
		c1.64,0,3.17,0.15,4.59,0.45c1.42,0.3,2.72,0.7,3.9,1.18v3.33c-1.27-0.51-2.59-0.93-3.94-1.26c-1.36-0.32-2.81-0.49-4.36-0.51
		c-1.17,0-2.18,0.12-3.04,0.36s-1.57,0.59-2.14,1.04s-0.99,0.99-1.26,1.63C435.97,608.1,435.83,608.81,435.83,609.59z"/>
	<path d="M470.08,631.33v-29.56h3.75v29.56H470.08z"/>
	<path d="M520.4,616.57c0,2.24-0.33,4.29-1,6.16c-0.67,1.87-1.63,3.48-2.87,4.84c-1.25,1.36-2.75,2.41-4.5,3.17
		c-1.76,0.76-3.72,1.14-5.9,1.14c-2.25,0-4.26-0.38-6.04-1.14c-1.78-0.76-3.29-1.82-4.52-3.17c-1.23-1.35-2.17-2.97-2.83-4.84
		c-0.65-1.87-0.98-3.92-0.98-6.16c0-2.25,0.34-4.32,1.02-6.2s1.63-3.49,2.87-4.85c1.24-1.36,2.74-2.41,4.5-3.17
		c1.76-0.76,3.74-1.14,5.93-1.14c2.24,0,4.24,0.38,6.01,1.14s3.27,1.81,4.5,3.17c1.23,1.35,2.17,2.97,2.83,4.85
		C520.07,612.25,520.4,614.32,520.4,616.57z M516.68,616.57c0-1.99-0.27-3.74-0.81-5.26c-0.54-1.52-1.29-2.78-2.24-3.8
		c-0.95-1.02-2.08-1.79-3.37-2.31s-2.68-0.78-4.17-0.78c-1.49,0-2.88,0.26-4.17,0.78s-2.42,1.29-3.37,2.31
		c-0.95,1.02-1.7,2.28-2.24,3.8c-0.54,1.52-0.81,3.27-0.81,5.26s0.27,3.74,0.83,5.25c0.55,1.51,1.3,2.77,2.25,3.79
		c0.95,1.02,2.08,1.78,3.37,2.3s2.69,0.77,4.2,0.77c1.49,0,2.87-0.26,4.15-0.77s2.39-1.28,3.35-2.3c0.95-1.02,1.7-2.28,2.24-3.79
		C516.4,620.31,516.68,618.56,516.68,616.57z"/>
	<path d="M554.35,618.25c1.88,2.61,3.75,5.29,5.59,8.04h0.14c-0.2-2.87-0.3-5.8-0.3-8.79v-15.73h3.77v29.56h-3.75l-12.07-16.48
		c-2.08-2.87-3.95-5.55-5.59-8.04H542c0.2,2.7,0.3,5.84,0.3,9.43v15.09h-3.75v-29.56h3.72L554.35,618.25z"/>
	<path d="M579.49,631.33l12.53-29.56h3.24l12.53,29.56h-4.07l-3.67-8.9h-12.86l-3.67,8.9H579.49z M593.61,606.36
		c-1.37,3.68-2.68,7.02-3.93,10.03l-1.15,2.78h10.2l-1.17-2.78c-1.26-3.06-2.55-6.41-3.86-10.03H593.61z"/>
	<path d="M627.51,601.77v26.31h15.01v3.25h-18.76v-29.56H627.51z"/>
	<path d="M662.52,609.59c0,0.87,0.18,1.59,0.55,2.15c0.37,0.57,0.86,1.03,1.48,1.4s1.34,0.67,2.16,0.91
		c0.82,0.24,1.67,0.46,2.56,0.66c1.19,0.28,2.37,0.59,3.52,0.93s2.18,0.81,3.08,1.4c0.9,0.6,1.63,1.37,2.19,2.33
		c0.56,0.96,0.84,2.19,0.84,3.69c0,1.53-0.3,2.85-0.91,3.96c-0.6,1.11-1.44,2.03-2.51,2.74c-1.07,0.71-2.33,1.25-3.78,1.59
		c-1.46,0.35-3.05,0.52-4.78,0.52c-0.8,0-1.61-0.05-2.45-0.14c-0.84-0.1-1.63-0.22-2.39-0.39c-0.76-0.16-1.44-0.35-2.06-0.55
		s-1.1-0.41-1.45-0.62v-3.29c0.55,0.27,1.17,0.51,1.86,0.73c0.69,0.22,1.4,0.41,2.14,0.56c0.74,0.15,1.48,0.28,2.23,0.36
		c0.75,0.09,1.46,0.13,2.12,0.13c1.07,0,2.1-0.09,3.07-0.26c0.97-0.18,1.83-0.47,2.56-0.88c0.74-0.41,1.32-0.98,1.75-1.69
		c0.43-0.71,0.64-1.61,0.64-2.68c0-0.88-0.19-1.61-0.56-2.19c-0.38-0.57-0.88-1.05-1.51-1.42c-0.63-0.38-1.35-0.68-2.17-0.92
		c-0.82-0.24-1.68-0.46-2.59-0.66c-1.2-0.26-2.37-0.56-3.51-0.89c-1.14-0.33-2.16-0.79-3.06-1.38c-0.9-0.59-1.62-1.35-2.16-2.28
		c-0.54-0.93-0.82-2.11-0.82-3.56c0-1.5,0.29-2.79,0.86-3.88c0.57-1.08,1.35-1.98,2.32-2.68s2.1-1.23,3.37-1.57s2.63-0.51,4.07-0.51
		c1.64,0,3.17,0.15,4.59,0.45c1.42,0.3,2.72,0.7,3.9,1.18v3.33c-1.27-0.51-2.59-0.93-3.94-1.26c-1.36-0.32-2.81-0.49-4.36-0.51
		c-1.17,0-2.18,0.12-3.04,0.36s-1.57,0.59-2.14,1.04s-0.99,0.99-1.26,1.63C662.66,608.1,662.52,608.81,662.52,609.59z"/>
</g>
<g>
</g>
<g>
</g>
<g>
</g>
<g>
</g>
<g>
</g>
<g>
</g>
</svg>
