<?xml version="1.0" encoding="utf-8"?>
<!-- Generator: Adobe Illustrator 24.3.0, SVG Export Plug-In . SVG Version: 6.00 Build 0)  -->
<svg version="1.1" id="boleir-logo" xmlns="http://www.w3.org/2000/svg" xmlns:xlink="http://www.w3.org/1999/xlink" x="0px"
	 y="0px" viewBox="0 0 864 864" style="enable-background:new 0 0 864 864;" xml:space="preserve">
<path id="boleir-logo-combined" d="M228.77,441.77c-1.79-0.56-3.64-0.88-5.46-1.35c-0.27-0.07-0.48-0.39-0.71-0.6
	c0.22-0.24,0.4-0.52,0.66-0.7c0.22-0.15,0.53-0.17,0.79-0.26c4.39-1.45,8.42-3.53,11.59-6.96c5.77-6.24,7-13.66,5.1-21.67
	c-1.7-7.16-6.66-11.56-13.22-14.3c-7.23-3.03-14.86-3.52-22.58-3.44c-10.87,0.12-21.74,0.17-32.61,0.24c-1.75,0.01-3.49,0-5.24,0
	c-0.33,0.98,0.11,1.32,1.09,1.58c2.08,0.55,4.14,1.2,6.15,1.95c3.41,1.27,5.09,3.83,5.2,7.45c0.03,1.08,0.08,2.16,0.08,3.24
	c0,23.92,0.01,47.84,0,71.76c0,6.28-1.53,8.41-7.45,10.39c-1.02,0.34-2.06,0.62-3.1,0.92c-0.68,0.2-1.35,0.38-2.02,0.57
	c0,0.46,0,0.82,0,1.1c3.84,0,7.59-0.02,11.34,0c9.99,0.08,19.99,0.1,29.98,0.29c6.98,0.13,13.83-0.45,20.38-2.97
	c9.9-3.81,16.65-10.43,18.32-21.31c0.92-5.96-0.05-11.57-3.77-16.48C239.59,446.35,234.49,443.55,228.77,441.77z M197.3,398.98
	c1.38-0.13,2.8-0.47,4.18-0.35c2.97,0.26,6,0.45,8.87,1.21c6.04,1.6,9.93,5.61,11.5,11.7c1.21,4.73,1.22,9.5-0.08,14.22
	c-1.88,6.83-6.86,11.2-13.92,11.84c-3.44,0.31-6.93,0.05-10.54,0.05C197.3,424.88,197.3,412.06,197.3,398.98z M225.71,476.82
	c-3.27,5.74-8.37,8.73-14.89,9.01c-4.46,0.19-8.94-0.12-13.52-0.21c0-14.05,0-27.79,0-41.53c0.08-0.06,0.14-0.15,0.2-0.14
	c4.95,0.12,9.97-0.25,14.83,0.47c8.83,1.32,14.72,7.94,15.89,16.83C228.94,466.69,228.47,471.97,225.71,476.82z M335.39,394.85
	c-9.4-4.43-19.35-5.62-29.6-4.26c-11.6,1.54-21.47,6.59-29.4,15.2c-9.8,10.64-13.91,23.46-14.1,36.87
	c0.07,6.88,0.8,12.82,2.64,18.58c4.16,13.04,12.16,22.83,24.67,28.63c9.43,4.38,19.41,5.52,29.63,3.98
	c15.48-2.32,27.5-10.14,35.43-23.65c8.6-14.66,9.8-30.4,5.14-46.54C356.01,410.52,347.87,400.74,335.39,394.85z M338.84,468.86
	c-2.29,5.98-5.64,11.21-11.02,14.91c-9.76,6.7-23.31,5.45-31.78-2.83c-5.48-5.36-8.8-11.95-10.76-19.23
	c-3.72-13.77-4.44-27.67-0.91-41.61c1.39-5.48,3.81-10.49,7.48-14.86c9.56-11.4,27.07-11.43,37.1-1.54
	c5.49,5.42,8.6,12.14,10.63,19.43c2.1,7.52,2.83,15.23,2.9,23.01C342.52,453.92,341.64,461.55,338.84,468.86z M444.51,459.71
	c0.25,10.74,0.51,21.42,0.76,32.09c-22.79,0-45.68,0-68.65,0c0-0.34,0-0.75,0-1.24c1.21-0.33,2.43-0.66,3.65-1.01
	c0.77-0.22,1.53-0.46,2.28-0.73c5.05-1.79,6.63-3.98,6.74-9.34c0.03-1.6,0.01-3.2,0.01-4.8c0-22.88,0-45.76-0.01-68.65
	c0-1.08-0.07-2.16-0.17-3.23c-0.3-3.14-2.04-5.27-4.9-6.39c-2.19-0.86-4.47-1.47-6.71-2.19c-0.3-0.1-0.6-0.18-0.93-0.27
	c0-0.44,0-0.83,0-1.21c15.28,0,30.57,0,45.95,0c0.02,0.28,0.04,0.66,0.07,1.21c-1.18,0.25-2.35,0.44-3.48,0.76
	c-2.57,0.73-5.16,1.39-7.66,2.33c-2.94,1.1-4.24,3.49-4.43,6.54c-0.04,0.6-0.04,1.2-0.04,1.8c0,26.36,0,52.73,0,79.09
	c0,0.44,0,0.87,0,1.43c2.58,0,5.09,0.07,7.59-0.02c3.76-0.14,7.48-0.58,11.09-1.77c6.54-2.15,10.74-6.79,13.46-12.85
	c1.55-3.45,2.7-7.08,3.95-10.66C443.38,459.72,443.76,459.42,444.51,459.71z M530.94,462.46c0.26,9.8,0.51,19.57,0.77,29.34
	c-24.11,0-48.28,0-72.52,0c0-0.35,0-0.77,0-1.19c1.95-0.59,3.9-1.16,5.84-1.76c0.61-0.19,1.19-0.46,1.78-0.7
	c3.23-1.33,4.82-3.8,5.01-7.23c0.04-0.76,0.06-1.52,0.06-2.28c0-24.24,0-48.49,0-72.73c0-6.31-1.55-8.49-7.54-10.44
	c-1.7-0.56-3.44-1-5.18-1.5c0-0.44,0-0.83,0-1.22c23.95,0,47.88,0,71.83,0c-0.35,8.41-0.7,16.89-1.06,25.42
	c-0.85,0.33-1.28,0-1.68-0.93c-1.13-2.64-2.23-5.31-3.66-7.78c-2.99-5.13-7.68-7.97-13.38-9.32c-7.07-1.67-14.27-1.5-21.55-1.57
	c0,12.58,0,25.07,0,37.71c5.31-0.17,10.64,0.52,15.84-1.03c4-1.19,6.91-3.77,9.07-7.24c1.06-1.69,2.01-3.45,2.9-5.24
	c0.4-0.81,0.85-1.2,1.78-0.9c-0.19,5.79-0.53,11.6-0.53,17.41c0,5.82,0.34,11.65,0.53,17.53c-0.4,0-0.82,0-1.21,0
	c-0.91-1.73-1.76-3.44-2.69-5.11c-3-5.37-7.52-8.55-13.7-9.02c-3.97-0.3-7.96-0.31-12.02-0.46c0,14.68,0,29.11,0,43.7
	c1.94,0,3.89,0.1,5.83-0.02c4.42-0.28,8.87-0.42,13.24-1.08c8.56-1.3,14.39-6.32,17.84-14.16c1.04-2.37,1.98-4.8,2.84-7.25
	C529.7,462.49,530.11,462.18,530.94,462.46z M579.64,403.83c-0.02,0.64-0.04,1.28-0.04,1.92c0,24.36,0,48.72,0.01,73.08
	c0,0.96,0.11,1.91,0.18,2.87c0.22,3.23,1.97,5.37,4.89,6.5c2.41,0.94,4.91,1.66,7.46,2.5c0,0.37,0,0.75,0,1.09
	c-14.28,0-28.5,0-42.8,0c0-0.33,0-0.75,0-1.2c1.72-0.51,3.44-1.01,5.15-1.53c0.38-0.11,0.76-0.25,1.13-0.39
	c4.65-1.77,6.18-3.91,6.34-8.91c0.01-0.32,0-0.64,0-0.96c0-24.36,0-48.72-0.01-73.08c0-0.92-0.05-1.84-0.14-2.75
	c-0.28-2.84-1.58-5.08-4.24-6.21c-2.34-0.99-4.79-1.76-7.23-2.48c-0.94-0.28-1.3-0.63-1.03-1.56c14.24,0,28.48,0,42.79,0
	c0.31,0.82,0.09,1.28-0.98,1.55c-1.97,0.49-3.91,1.13-5.83,1.79C581.59,397.32,579.77,399.97,579.64,403.83z M696.88,490.52
	c-2.73-0.78-4.98-2.42-7.05-4.33c-3.85-3.54-7.1-7.62-9.84-12.04c-5.55-8.92-10.91-17.96-16.34-26.96
	c-0.05-0.09-0.04-0.22-0.05-0.31c0.08-0.07,0.13-0.15,0.2-0.18c0.29-0.14,0.58-0.27,0.87-0.4c7.07-3.26,12.58-8.14,15.8-15.35
	c5.44-12.15,1.3-25.55-10.05-32.49c-5.79-3.54-12.19-5.22-18.87-5.64c-4.46-0.28-8.94-0.09-13.42-0.09c-8.79-0.01-17.59,0-26.39,0
	c-1.55,0-3.09,0-4.64,0c-0.3,0.89,0.01,1.27,0.97,1.55c2.56,0.76,5.12,1.55,7.57,2.59c2.24,0.95,3.56,2.83,3.84,5.28
	c0.2,1.74,0.31,3.5,0.32,5.26c0.02,14.6,0.02,29.2,0.01,43.81c-0.01,9.6-0.01,19.2-0.09,28.8c-0.04,4.69-1.67,6.89-6.06,8.58
	c-0.45,0.17-0.9,0.34-1.36,0.47c-1.75,0.52-3.5,1.03-5.29,1.56c0.02,0.45,0.04,0.83,0.06,1.16c14.98,0,29.88,0,44.83,0
	c0-0.38,0-0.8,0-1.07c-3.01-0.88-5.94-1.65-8.82-2.59c-3.87-1.27-5.63-4.08-5.63-8.11c0-10.32-0.02-20.64-0.03-30.96
	c0-0.22,0.06-0.44,0.05-0.4c2.87,0.42,5.65,0.92,8.46,1.19c0.93,0.09,1.4,0.38,1.83,1.15c5.96,10.81,11.92,21.62,17.94,32.39
	c1.01,1.8,2.19,3.54,3.49,5.15c3.59,4.43,8.34,6.43,13.99,5.78c4.24-0.49,8.42-1.44,12.63-2.11
	C696.93,492.05,697.24,491.6,696.88,490.52z M644.45,443.81c-2.1-0.04-4.2-0.81-6.28-1.34c-0.32-0.08-0.75-0.64-0.75-0.98
	c-0.03-14-0.03-27.99-0.02-41.99c0-0.11,0.06-0.22,0.12-0.44c4.77-0.84,9.38-0.48,13.87,1.13c5.52,1.97,9.25,5.78,11.02,11.35
	c2.31,7.26,2.27,14.54-1.05,21.49C658.02,440.03,652.41,443.97,644.45,443.81z M338.94,374.66h-55.23v-5.16h55.23V374.66z"/>
<g>
</g>
<g>
</g>
<g>
</g>
<g>
</g>
<g>
</g>
<g>
</g>
</svg>
