<?xml version="1.0" encoding="utf-8"?>
<!-- Generator: Adobe Illustrator 24.3.0, SVG Export Plug-In . SVG Version: 6.00 Build 0)  -->
<svg version="1.1" id="Layer_1" xmlns="http://www.w3.org/2000/svg" xmlns:xlink="http://www.w3.org/1999/xlink" x="0px" y="0px"
	 viewBox="0 0 864 864" style="enable-background:new 0 0 864 864;" xml:space="preserve">
<path id="R" d="M592.37,339.85c1.55,0,3.1,0,4.64,0c8.79,0,17.59,0,26.39,0c4.47,0,8.96-0.19,13.42,0.09
	c6.69,0.42,13.09,2.1,18.87,5.64c11.35,6.94,15.49,20.34,10.05,32.49c-3.23,7.21-8.73,12.09-15.8,15.35
	c-0.29,0.13-0.58,0.26-0.87,0.4c-0.07,0.03-0.12,0.1-0.2,0.18c0.02,0.09,0,0.22,0.05,0.31c5.43,9,10.79,18.04,16.34,26.96
	c2.75,4.42,5.99,8.49,9.84,12.04c2.08,1.91,4.32,3.55,7.05,4.33c0.36,1.07,0.05,1.53-1.09,1.7c-4.22,0.66-8.4,1.62-12.63,2.11
	c-5.64,0.65-10.39-1.35-13.99-5.78c-1.3-1.61-2.48-3.34-3.49-5.15c-6.02-10.77-11.98-21.58-17.94-32.39
	c-0.43-0.78-0.89-1.06-1.83-1.15c-2.8-0.28-5.59-0.77-8.46-1.19c0.01-0.04-0.05,0.18-0.05,0.4c0.01,10.32,0.03,20.64,0.03,30.96
	c0,4.03,1.76,6.84,5.63,8.11c2.88,0.94,5.81,1.71,8.82,2.59c0,0.27,0,0.69,0,1.07c-14.96,0-29.85,0-44.83,0
	c-0.02-0.32-0.04-0.7-0.06-1.16c1.79-0.53,3.54-1.04,5.29-1.56c0.46-0.14,0.91-0.3,1.36-0.47c4.4-1.69,6.02-3.89,6.06-8.58
	c0.08-9.6,0.08-19.2,0.09-28.8c0.01-14.6,0.01-29.2-0.01-43.81c0-1.75-0.12-3.51-0.32-5.26c-0.28-2.45-1.6-4.33-3.84-5.28
	c-2.45-1.04-5.01-1.83-7.57-2.59C592.38,341.12,592.07,340.75,592.37,339.85z M622.81,346.17c-0.06,0.21-0.12,0.33-0.12,0.44
	c-0.01,14-0.02,27.99,0.02,41.99c0,0.34,0.43,0.9,0.75,0.98c2.08,0.53,4.17,1.29,6.28,1.34c7.96,0.16,13.56-3.77,16.92-10.79
	c3.33-6.95,3.37-14.22,1.05-21.49c-1.77-5.56-5.5-9.38-11.02-11.35C632.2,345.69,627.58,345.33,622.81,346.17z"/>
<path id="B" d="M152.33,438.81c0-0.28,0-0.64,0-1.1c0.67-0.19,1.35-0.38,2.02-0.57c1.03-0.3,2.08-0.58,3.1-0.92
	c5.92-1.97,7.45-4.11,7.45-10.39c0-23.92,0-47.84,0-71.76c0-1.08-0.05-2.16-0.08-3.24c-0.11-3.61-1.79-6.17-5.2-7.45
	c-2.01-0.75-4.07-1.41-6.15-1.95c-0.98-0.26-1.42-0.6-1.09-1.58c1.75,0,3.5,0.01,5.24,0c10.87-0.07,21.74-0.12,32.61-0.24
	c7.72-0.08,15.35,0.41,22.58,3.44c6.56,2.75,11.51,7.15,13.22,14.3c1.91,8.01,0.68,15.43-5.1,21.67c-3.17,3.43-7.2,5.51-11.59,6.96
	c-0.27,0.09-0.57,0.11-0.79,0.26c-0.26,0.18-0.44,0.46-0.66,0.7c0.24,0.21,0.44,0.53,0.71,0.6c1.81,0.47,3.67,0.79,5.46,1.35
	c5.72,1.78,10.82,4.58,14.52,9.46c3.72,4.91,4.69,10.51,3.77,16.48c-1.67,10.89-8.42,17.5-18.32,21.31
	c-6.55,2.52-13.4,3.11-20.38,2.97c-9.99-0.19-19.98-0.22-29.98-0.29C159.92,438.78,156.17,438.81,152.33,438.81z M182.59,432.73
	c4.59,0.09,9.06,0.4,13.52,0.21c6.52-0.27,11.63-3.27,14.89-9.01c2.76-4.85,3.22-10.13,2.5-15.57c-1.17-8.9-7.06-15.51-15.89-16.83
	c-4.86-0.73-9.88-0.36-14.83-0.47c-0.06,0-0.12,0.09-0.2,0.14C182.59,404.94,182.59,418.68,182.59,432.73z M182.59,384.76
	c3.61,0,7.1,0.26,10.54-0.05c7.06-0.64,12.04-5.01,13.92-11.84c1.3-4.73,1.29-9.5,0.08-14.22c-1.56-6.09-5.45-10.09-11.5-11.7
	c-2.86-0.76-5.9-0.95-8.87-1.21c-1.38-0.12-2.8,0.22-4.18,0.35C182.59,359.17,182.59,372,182.59,384.76z"/>
<path id="O" d="M247.57,389.78c0.19-13.41,4.31-26.23,14.1-36.87c7.93-8.61,17.8-13.67,29.4-15.2c10.25-1.36,20.2-0.17,29.6,4.26
	c12.47,5.88,20.61,15.66,24.4,28.81c4.65,16.14,3.46,31.89-5.14,46.54c-7.93,13.51-19.95,21.33-35.43,23.65
	c-10.23,1.53-20.2,0.4-29.63-3.98c-12.5-5.81-20.5-15.59-24.67-28.63C248.37,402.59,247.64,396.66,247.57,389.78z M327.76,393.26
	c-0.06-7.78-0.8-15.49-2.9-23.01c-2.03-7.29-5.14-14.01-10.63-19.43c-10.02-9.89-27.53-9.86-37.1,1.54
	c-3.67,4.38-6.09,9.38-7.48,14.86c-3.53,13.94-2.81,27.83,0.91,41.61c1.96,7.27,5.27,13.87,10.76,19.23
	c8.47,8.28,22.03,9.53,31.78,2.83c5.38-3.69,8.73-8.93,11.02-14.91C326.92,408.66,327.81,401.03,327.76,393.26z"/>
<path id="E" d="M444.43,341.07c0-0.44,0-0.83,0-1.22c23.95,0,47.88,0,71.83,0c-0.35,8.41-0.7,16.89-1.06,25.42
	c-0.85,0.33-1.28,0-1.68-0.93c-1.13-2.64-2.23-5.31-3.66-7.78c-2.99-5.13-7.68-7.97-13.38-9.32c-7.07-1.67-14.27-1.5-21.55-1.57
	c0,12.58,0,25.07,0,37.71c5.31-0.17,10.64,0.52,15.84-1.03c4-1.19,6.91-3.77,9.07-7.24c1.06-1.69,2.01-3.45,2.9-5.24
	c0.4-0.81,0.85-1.2,1.78-0.9c-0.19,5.79-0.53,11.6-0.53,17.41c0,5.82,0.34,11.65,0.53,17.53c-0.4,0-0.82,0-1.21,0
	c-0.91-1.73-1.76-3.44-2.69-5.11c-3-5.37-7.52-8.55-13.7-9.02c-3.97-0.3-7.96-0.31-12.02-0.46c0,14.68,0,29.11,0,43.7
	c1.94,0,3.89,0.1,5.83-0.02c4.42-0.28,8.87-0.42,13.24-1.08c8.56-1.3,14.39-6.32,17.84-14.16c1.04-2.37,1.98-4.8,2.84-7.25
	c0.32-0.92,0.73-1.23,1.56-0.95c0.26,9.8,0.51,19.57,0.77,29.34c-24.11,0-48.28,0-72.52,0c0-0.35,0-0.77,0-1.19
	c1.95-0.59,3.9-1.16,5.84-1.76c0.61-0.19,1.19-0.46,1.78-0.7c3.23-1.33,4.82-3.8,5.01-7.23c0.04-0.76,0.06-1.52,0.06-2.28
	c0-24.24,0-48.49,0-72.73c0-6.31-1.55-8.49-7.54-10.44C447.91,342.01,446.17,341.57,444.43,341.07z"/>
<path id="L" d="M361.91,437.67c1.21-0.33,2.43-0.66,3.65-1.01c0.77-0.22,1.53-0.46,2.28-0.73c5.05-1.79,6.63-3.98,6.74-9.34
	c0.03-1.6,0.01-3.2,0.01-4.8c0-22.88,0-45.76-0.01-68.65c0-1.08-0.07-2.16-0.17-3.23c-0.3-3.14-2.04-5.27-4.9-6.39
	c-2.19-0.86-4.47-1.47-6.71-2.19c-0.3-0.1-0.6-0.18-0.93-0.27c0-0.44,0-0.83,0-1.21c15.28,0,30.57,0,45.95,0
	c0.02,0.28,0.04,0.66,0.07,1.21c-1.18,0.25-2.35,0.44-3.48,0.76c-2.57,0.73-5.16,1.39-7.66,2.33c-2.94,1.1-4.24,3.49-4.43,6.54
	c-0.04,0.6-0.04,1.2-0.04,1.8c0,26.36,0,52.73,0,79.09c0,0.44,0,0.87,0,1.43c2.58,0,5.09,0.07,7.59-0.02
	c3.76-0.14,7.48-0.58,11.09-1.77c6.54-2.15,10.74-6.79,13.46-12.85c1.55-3.45,2.7-7.08,3.95-10.66c0.31-0.87,0.69-1.17,1.44-0.88
	c0.25,10.74,0.51,21.42,0.76,32.09c-22.79,0-45.68,0-68.65,0C361.91,438.57,361.91,438.16,361.91,437.67z"/>
<path id="I" d="M577.4,437.82c0,0.37,0,0.75,0,1.09c-14.28,0-28.5,0-42.8,0c0-0.33,0-0.75,0-1.2c1.72-0.51,3.44-1.01,5.15-1.53
	c0.38-0.11,0.76-0.25,1.13-0.39c4.65-1.77,6.18-3.91,6.34-8.91c0.01-0.32,0-0.64,0-0.96c0-24.36,0-48.72-0.01-73.08
	c0-0.92-0.05-1.84-0.14-2.75c-0.28-2.84-1.58-5.08-4.24-6.21c-2.34-0.99-4.79-1.76-7.23-2.48c-0.94-0.28-1.3-0.63-1.03-1.56
	c14.24,0,28.48,0,42.79,0c0.31,0.82,0.09,1.28-0.98,1.55c-1.97,0.49-3.91,1.13-5.83,1.79c-3.69,1.25-5.51,3.9-5.65,7.76
	c-0.02,0.64-0.04,1.28-0.04,1.92c0,24.36,0,48.72,0.01,73.08c0,0.96,0.11,1.91,0.18,2.87c0.22,3.23,1.97,5.37,4.89,6.5
	C572.36,436.25,574.86,436.97,577.4,437.82z"/>
<rect id="line" x="269" y="316.61" width="55.23" height="5.16"/>
<g>
</g>
<g>
</g>
<g>
</g>
<g>
</g>
<g>
</g>
<g>
</g>
</svg>
