<?xml version="1.0" encoding="utf-8"?>
<!-- Generator: Adobe Illustrator 24.3.0, SVG Export Plug-In . SVG Version: 6.00 Build 0)  -->
<svg version="1.1" id="Layer_1" xmlns="http://www.w3.org/2000/svg" xmlns:xlink="http://www.w3.org/1999/xlink" x="0px" y="0px"
	 viewBox="0 0 864 864" style="enable-background:new 0 0 864 864;" xml:space="preserve">
<path id="D" d="M186.55,326.94c-2.8-0.87-5.3,0.33-6.71,1.03c-3.8,1.9-5.79,5.08-7.48,8c-3.49,6.02-5.24,9.03-7.23,14.19
	c-0.56,1.45-0.01-0.04-14.45,28.13c-9.44,18.42-8.9,17.56-9.81,19.1c-2.81,4.78-4.83,10-7.74,14.71c-1.61,2.6-3.19,4.93-3.1,8.26
	c0.01,0.35,0.23,5.32,3.87,7.74c2.11,1.4,4.42,1.33,5.42,1.29c16.9-0.72,27.35-4.39,27.35-4.39c10.45-3.66,17.88-6.27,27.35-12.13
	c5.6-3.46,15.07-10.01,24.52-20.65c6.09-6.85,13.13-14.78,17.81-27.61c4.26-11.68,4.37-21.43,4.39-26.06
	c0.03-8.53,0.05-15.09-3.87-22.45c-0.78-1.46-4.78-8.72-13.42-13.94c-5.34-3.22-9.99-4.18-14.97-5.16
	c-12.71-2.5-23.26-0.68-31.23,0.77c-5.67,1.03-10.04,1.83-15.74,4.13c-6.01,2.42-11.58,6.52-22.71,14.71
	c-4.61,3.39-8.5,6.43-12.13,11.35c-1.4,1.9-3.68,5.32-4.39,10.06c-0.3,2.02-0.58,4.12,0.52,6.19c1.5,2.83,4.81,4.47,7.74,4.39
	c2.39-0.07,4.53-1.29,8.19-5.19c6.42-6.85,6.41-10.12,10.94-15.48c3.8-4.51,7.64-6.75,14.32-10.65c4.81-2.81,9.55-5.57,16.55-7.26
	c3.71-0.89,10.33-2.41,18.58-0.77c4.03,0.8,10.05,2,15.29,6.97c4.76,4.51,6.38,9.77,7.55,13.55c2.2,7.12,1.72,12.99,1.55,14.71
	c-0.66,6.47-2.92,10.85-6,16.84c-0.98,1.9-4.18,7.95-10.06,15.29c-4.21,5.26-8.55,9.25-17.23,17.23
	c-10.21,9.39-13.29,11.27-14.9,12.19c-4.48,2.57-2.65,0.7-14.52,6c-3.75,1.67-7.59,3.49-11.42,2.13c-1.83-0.65-2.23-1.53-2.32-1.74
	c-0.74-1.78,1.21-3.97,4.06-7.74c1.82-2.4,3.36-5,5.23-7.35c0,0,5.2-6.56,11.23-15.87c2.23-3.45,4.71-8.04,9.68-17.23
	c5.88-10.88,5.47-10.87,7.74-14.13c2.09-3.01,3.77-4.93,5.23-8.71c1.17-3.04,2.66-7.08,0.77-10.65
	C190.76,330.29,189.39,327.82,186.55,326.94z"/>
<path id="arks" d="M537.52,401.45c-0.21-1.26-1.34-7.55-6.2-13.42c-1.64-1.99-3.9-4.71-7.74-6.84c-3.19-1.76-5.74-2.16-7.42-4.9
	c-0.44-0.72-1.75-2.85-0.97-4.52c1.14-2.41,5.45-1.27,6.97-4.06c0.72-1.33,0.4-2.78,0.19-3.68c-0.58-2.58-2.62-4.63-4.83-5.42
	c-2.8-0.99-5.31,0.25-8.71,1.94c-2.3,1.13-5.96,3-8.52,7.16c-1.26,2.05-3.07,5-2.13,7.74c0.89,2.58,3.31,2.39,8.13,5.61
	c4.3,2.88,6.94,6.08,10.06,9.88c1.83,2.21,3.11,3.79,4.36,6.29c1.49,2.97,3.01,6.01,2.03,9.38c-0.82,2.84-2.99,4.47-3.87,5.13
	c-2.42,1.82-4.78,2.14-8.71,2.61c-3.53,0.44-7.57,0.88-12.29-0.67c-0.46-0.15-3.29-1.12-6.1-3.49c-1.21-1.02-2.79-2.39-2.51-3.67
	c0.19-0.87,1.12-1.24,2.22-1.84c2.26-1.23,3.57-2.53,6.2-5.13c2.36-2.34,3.96-3.92,3.87-6.1c-0.07-1.77-1.22-3.02-1.65-3.48
	c-1.56-1.7-4.05-2.57-6.19-2.03c-1.14,0.28-1.89,0.89-2.32,1.25c-2.04,1.68-4.92,3.61-7.45,6.1c-2.26,2.23-1.88,1.17-12,7.94
	c-5.47,3.65-5.99,4.23-9,5.9c-1.47,0.81-5.01,2.7-9.88,3.87c-5.26,1.27-6.76,0.42-7.45-0.19c-1.27-1.14-1.35-2.88-1.35-3.1
	c-0.07-2.51,2.09-4.42,3.58-5.61c5.03-4.06,9.28-5.55,13.45-7.75c3.58-1.88,9.09-4.85,13.45-10.54c2.07-2.71,5.19-6.78,5.03-12.49
	c-0.03-1.15-0.17-6.38-4.16-10.06c-2.93-2.71-6.36-3.1-9.77-3.49c-5.85-0.66-10.38,0.9-12.49,1.65c-4.81,1.72-7.96,4.23-8.7,4.84
	c-1.78,1.45-3.25,3.03-5.81,5.8c-1.75,1.9-3.18,3.57-5.71,5.42c-1.02,0.75-1.91,1.29-2.52,1.65c0.31-1.62,0.81-4.02,1.65-6.87
	c0.46-1.59,1.83-6.04,6.97-16.55c2.6-5.34,2.7-5.1,5.42-10.74c2.75-5.71,2.64-5.93,4.64-9.87c2.58-5.08,3.96-7.81,6.29-11.42
	c1.33-2.06,2.34-3.99,4.36-7.84c1.3-2.48,1.86-3.7,1.45-5.03c-0.73-2.36-3.9-3.23-4.84-3.49c-0.59-0.16-3.37-0.86-6.2,0.39
	c-3.7,1.63-5.24,5.61-5.9,7.26c-3.22,8.06-8.11,15.37-11.61,23.32c-3.1,7.02-5.61,12.71-9.49,20.23c-5.65,10.94-7.3,12.38-8.8,17.42
	c-0.34,1.12-1.27,4.45-3.68,8.22c-0.79,1.23-1.81,2.64-3.39,4.36c-5.61,6.12-12.59,10.15-16.35,12.09
	c-6.36,3.29-7.11,2.46-11.13,5.33c-1.32,0.93-3.18,2.4-6.19,3.48c-0.24,0.08-5.66,1.98-6.58,0.48c-0.34-0.54,0.03-1.33,0.38-2.03
	c2.63-5.19,4.94-7.35,4.94-7.35c4.41-4.14,6.48-5.94,8.42-7.75c1.45-1.35,3.97-4.03,9-9.38c3.23-3.45,4.04-4.37,4.74-6.1
	c0.39-0.96,1.82-4.66,0.39-8.9c-0.38-1.13-1.22-3.58-3.58-5.23c-2.53-1.75-5.28-1.52-8.42-1.26c-2.42,0.21-5.73,0.48-8.71,2.71
	c-0.2,0.15-1.78,1.62-4.94,4.55c-1.59,1.48-2.15,2-3.19,2.42c-0.27,0.11-3.28,1.26-5.52-0.19c-1.34-0.88-1.08-1.83-2.42-3.78
	c-2.1-3.06-5.21-4.29-5.9-4.55c-1.01-0.37-3.84-1.26-7.26-0.38c-1.38,0.35-4.24,1.09-5.81,3.48c-1.07,1.64-0.78,2.92-0.48,10.55
	c0.23,5.8,0.14,6.8-0.29,8.03c-0.71,2.06-1.79,3.2-4.74,6.2c-6.13,6.21-9.2,9.32-10.84,10.64c-4.8,3.86-4.24,2.45-9.48,6.58
	c-1.09,0.86-2.74,2.2-5.33,3.1c-1.67,0.58-4.15,1.44-5.8,0.39c-1.29-0.82-1.71-2.56-1.74-7.46c-0.05-6.69-0.08-10.03,1.16-14.51
	c0.93-3.41,2.05-7.48,5.03-11.71c0.98-1.4,2.45-3.22,3.29-6.2c0.46-1.62,1.17-4.13-0.1-6c-0.5-0.74-1.76-1.34-4.26-2.51
	c-2.39-1.13-3.59-1.69-4.16-1.65c-3.17,0.24-3.52,5.29-6.48,5.71c-2.28,0.33-3.26-2.5-7.16-4.51c-2.97-1.54-5.61-1.54-9.42-1.55
	c-2.57-0.01-9.77,0.05-17.55,4c-10.32,5.23-15.07,13.94-17.81,18.97c-5.29,9.71-6.05,18.34-6.19,21.93
	c-0.24,5.99-0.44,10.92,2.97,15.23c4.88,6.18,13.33,6.23,15.09,6.19c5.74-0.13,9.81-2.71,12.65-4.52c2.64-1.68,6.94-4.63,9.94-9.93
	c1.48-2.63,2.75-6.05,5.54-6.71c0.32-0.08,1.47-0.35,2.33,0.26c0.84,0.6,1.04,1.79,1.03,3.48c-0.02,4.33-1.35,5.37-1.29,8.26
	c0.01,0.52,0.12,3.76,2.32,6.19c2.64,2.92,6.7,2.95,8.65,2.97c5.25,0.04,9.16-2.45,12-4.26c2.36-1.51,4.07-3.07,7.48-6.19
	c1.68-1.54,2.54-2.42,5.29-5.16c1.89-1.89,4.62-4.58,8-7.87c-1.05,2.51-1.97,4.51-2.58,5.8c-1.46,3.1-2.76,6.28-4.39,9.29
	c-1.33,2.47-2.09,3.56-1.68,4.91c0.51,1.65,2.35,2.42,3.36,2.84c0.23,0.09,4.09,1.63,7.35-0.39c1.39-0.86,2.11-2.01,2.46-2.58
	c4.76-7.81,7.14-11.71,7.74-13.03c0.48-1.07,2.34-5.17,5.93-13.68c2.71-6.42,3.41-8.25,5.42-10.97c1.5-2.02,3.89-4.75,7.49-6.97
	c1.06-0.65,2.7-1.56,4.9-2.19c2.32-0.67,5.3-1.53,6.97,0c1.07,0.98,1.13,2.53,1.16,3.22c0.09,2.29-1.03,3.94-2.45,6.07
	c-5.32,7.96-3.17,5.08-5.81,8.77c-2.39,3.35-3.59,5.03-4.9,6.71c-3.05,3.91-3.72,4.32-5.03,6.58c-1.64,2.82-2.79,4.79-2.59,7.49
	c0.29,3.81,3.06,6.24,3.62,6.71c2.86,2.4,6.19,2.43,8.64,2.45c3.85,0.03,6.72-1.13,8.65-1.94c1.55-0.64,1.7-0.87,9.42-5.93
	c15.5-10.17,10.29-6.24,9.15-5.38c0.45-0.31,2.01-1.27,4.14-1.59c0.77-0.12,2.03-0.31,2.38,0.26c0.37,0.56-0.42,1.5-1.74,3.55
	c-2.21,3.44-2.97,5.43-3.16,5.93c-0.68,1.85-1.29,3.5-0.51,4.65c0.57,0.84,1.68,1.1,3.35,1.22c2.11,0.15,5.46,0.1,9.74-1.19
	c2-2.78,4.88-6.76,8.42-11.52c6.82-9.16,11.04-14.43,12.2-15.87c4.32-5.38,7.36-8.91,10.74-12.48c0.31-0.33,3.87-4.07,9.19-8.13
	c2.37-1.81,4.21-3.01,6.77-3.77c1.89-0.56,5.42-1.61,7.84,0.29c0.17,0.13,1.77,1.42,1.94,3.48c0.14,1.65-0.71,2.95-1.45,3.97
	c-3.17,4.31-7.29,7.02-7.65,7.26c-7.5,4.85-7.52,3.79-11.42,6.77c-3.39,2.59-5.59,5.1-8.51,8.42c-0.86,0.97-2.38,2.74-3.87,5.32
	c-1.29,2.21-2.06,3.57-2.13,5.52c-0.1,2.41,0.93,4.23,1.55,5.32c0.53,0.94,2.24,3.69,5.61,5.23c1.08,0.49,2.38,0.88,7.06,0.96
	c5.81,0.11,8.72,0.16,12.58-0.77c2.26-0.54,5.42-1.31,8.91-3.48c3.14-1.97,3.13-2.96,6.87-5.04c3.12-1.74,3.68-1.35,6.09-3.09
	c1.11-0.8,1.81-1.47,2.91-1.45c1.26,0.01,2.08,0.93,3.58,2.51c4.56,4.81,2.5,2.18,6.29,6.39c2.44,2.71,2.68,3.12,3.68,3.68
	c2.11,1.18,4.16,1.08,6.09,1.03c8.25-0.23,5.63,0.56,16.52,0.06c4.59-0.21,6.07-0.4,7.93-1.09c2.51-0.94,4.22-2.23,5.94-3.55
	c2.86-2.2,5.16-3.96,6.71-6.78C538.84,409.5,538.09,404.93,537.52,401.45z M284.87,384.35c-0.01,2.41-0.79,4.3-1.42,5.55
	c-2.5,4.97-5.74,5.98-9.93,10.33c-6.53,6.75-5.78,11.62-10.71,12.9c-0.17,0.04-3.65,0.89-6.71-1.03c-3.1-1.94-3.84-5.5-4.39-8.13
	c-1.4-6.74,1.03-12.29,1.68-13.68c2.82-6.02,7.5-8.95,9.55-10.19c1.35-0.83,5.55-3.21,11.35-3.62c3.21-0.22,6.65-0.47,8.77,1.81
	C284.89,380.25,284.88,383.15,284.87,384.35z"/>
<path id="ide" d="M747.19,395.71c-1.58-2.15-5.14-1.79-6.19-1.68c-4.07,0.42-5.73,2.65-11.35,6.71c-2.02,1.46-5.65,3.6-12.91,7.87
	c-7.17,4.23-8.47,4.69-9.68,5.04c-1.05,0.29-6.44,1.75-12.77,0c-2.45-0.68-5.51-1.53-5.94-3.49c-0.48-2.21,2.64-4.59,4.78-6.19
	c5.7-4.27,8.56-3.5,15.48-7.1c2.87-1.49,5.57-3.57,10.97-7.74c6.18-4.77,7.63-6.62,8.65-8.78c1.56-3.32,1.6-6.38,1.54-7.74
	c-0.05-1.39-0.24-6.11-3.48-9.55c-3.39-3.59-8.21-3.73-12.77-3.87c-2.17-0.06-9.19-0.05-17.04,4c-5.69,2.95-9.03,6.59-13.29,11.23
	c-1.86,2.03-5.19,5.91-8.38,11.35c-3.48,5.94-4.33,9.54-4.65,11.23c-0.39,2.06-0.5,3.81-0.51,5.03c-1.55,0.77-3.88,2-6.59,3.74
	c-2.12,1.37-3.32,2.32-7.09,4.91c-4.93,3.38-5.9,3.84-7.23,3.87c-1.89,0.05-4.21-0.68-5.8-2.58c-2.12-2.53-1.63-5.52-1.55-5.94
	c3.09-6.23,5.49-11.4,7.09-14.97c3.57-7.88,4.38-10.31,9.68-22.32c0.78-1.76,2.37-5.3,5.55-12.39c4.86-10.83,5.67-12.55,6.97-15.09
	c2.91-5.71,5.42-10.2,5.42-10.2c2.35-4.21,3.79-6.53,5.03-10.45c1.88-5.96,0.91-8.05,0.52-8.77c-1.29-2.32-3.77-3.21-4.52-3.49
	c-0.81-0.29-3.41-1.18-6.32,0c-2.48,1.01-3.73,2.93-4.13,3.62c-2.62,7.12-4.93,12.89-6.58,16.9c-7.67,18.63-7.96,15.99-8.91,20.65
	c-0.17,0.84-1.18,5.97-4.77,10.83c-1.25,1.71-2.11,2.41-3.1,2.84c-3.33,1.46-6.77-0.84-9.8-1.93c-6.08-2.19-11.98-0.07-17.55,1.93
	c-11.83,4.25-18.14,13.92-20,16.78c-5.61,8.59-7.87,14.45-7.87,14.45c-0.7,1.79-2.07,5.65-5.55,9.42c-0.43,0.47-1.35,1.42-3.1,2.84
	c-2.76,2.23-6.61,5.44-12.26,7.22c-3.3,1.05-5.88,1.86-8,0.52c-2.33-1.48-2.69-4.68-2.84-5.94c-0.26-2.32-0.06-5.89,5.55-15.09
	c4.28-7.02,8.91-13.68,8.91-13.68c2.47-3.57,3.9-5.46,3.74-8.26c-0.16-2.73-1.83-6.34-5.16-7.35c-3.46-1.05-6.53,1.34-7.1,1.8
	c-1.84,1.51-2.56,3.41-2.84,4.13c-2.17,5.64-5.37,10.83-7.74,16.39c-4.12,9.67-4.84,9.38-6.97,15.74
	c-2.46,7.34-2.4,10.41-2.06,12.65c0.28,1.88,0.98,6.44,4.77,9.8c5.08,4.51,11.88,3.48,13.29,3.23c4.5-0.81,8.07-3.48,11.36-5.94
	c3.37-2.52,5.06-3.78,5.16-3.87c1.53-1.39,2.91-2.9,5.29-3.48c1.41-0.35,2.02-0.08,2.19,0c1.33,0.64,1.29,2.42,1.94,4.51
	c0.77,2.49,2.41,5.05,4.38,6.46c1.96,1.39,3.97,1.4,7.62,1.42c2.22,0.01,6.02-0.01,10.45-1.81c1.6-0.65,5.82-2.37,9.16-6.19
	c1.86-2.14,4.31-3.7,6.19-5.81c0.26-0.29,0.84-0.95,1.55-0.9c1.14,0.07,1.8,1.87,2.71,4c1.81,4.19,2.71,6.29,4,7.61
	c1.91,1.94,4.33,2.34,7.36,2.84c1.43,0.23,5.63,0.87,10.32-0.91c1.49-0.56,3.36-1.92,7.1-4.64c3.39-2.47,7.02-4.62,10.32-7.23
	c1.42-1.12,2.73-2.22,3.87-1.8c1.18,0.43,1.3,2.18,1.94,4.13c0,0,1.36,4.14,5.41,7.61c2.97,2.54,6.58,2.59,12.52,2.58
	c9.97-0.01,17.55-2.55,20.13-3.48c5.11-1.85,8.68-3.9,13.81-6.84c7.87-4.53,6.27-4.74,12.13-7.75c4.87-2.5,7.86-3.31,9.41-6.58
	C747.25,401.39,748.83,397.94,747.19,395.71z M638.29,380.23c-1.14,4.12-3.17,6.88-7.74,12.25c-5.52,6.49-9.2,10.26-11.87,12.91
	c-7.41,7.33-9.53,8.41-11.36,7.87c-1.86-0.56-2.82-2.64-3.74-4.65c-1.92-4.17-1.31-8.13-1.03-9.8c0.71-4.29,2.62-7.16,4.51-9.94
	c2.65-3.89,5.43-6.25,10.97-10.97c3.7-3.14,5.59-4.73,7.74-5.55c3.9-1.47,10.28-2.24,12.52,0.91
	C639.65,375.17,638.96,377.81,638.29,380.23z M688.1,389.52c0.51-2.3,1.67-5.38,5.55-9.94c2.85-3.37,4.28-5.05,6.58-6.32
	c4.06-2.26,11.01-3.75,13.54-0.52c2.21,2.81-0.07,7.73-0.25,8.13c-0.85,1.78-1.76,2.44-9.17,7.48c-2.34,1.61-6.57,4.45-12.12,6.2
	c-1.15,0.36-2.77,0.81-3.75,0C687.24,393.51,687.76,391.02,688.1,389.52z"/>
<path id="circle" d="M585.13,335.58c-3.52-1.6-7.02,0.11-8.39,0.77c-1.09,0.53-4,2-5.55,5.42c-0.42,0.94-2.12,4.68-0.13,8.26
	c1.74,3.13,5.04,3.89,5.55,4c4.3,0.92,7.67-1.99,8.65-2.84c2.84-2.46,3.62-5.54,3.87-6.58c0.31-1.31,0.66-2.77,0.13-4.52
	C588.34,337.09,585.55,335.77,585.13,335.58z"/>
<g>
	<path d="M323.93,517.6c-1.56-0.33-3.02-0.83-4.37-1.5c-1.35-0.66-2.62-1.5-3.8-2.49l3.17-3.89c1.38,1.2,2.9,2.09,4.56,2.69
		c1.66,0.6,3.46,0.9,5.41,0.9c2.62,0,4.66-0.49,6.1-1.46c1.45-0.97,2.17-2.35,2.17-4.12v-0.02c0-1.26-0.33-2.26-0.98-3
		s-1.5-1.29-2.54-1.64c-1.04-0.36-2.38-0.69-4.02-0.98c-0.05-0.02-0.1-0.02-0.16-0.02c-0.06,0-0.11-0.01-0.16-0.03l-0.37-0.08
		c-2.43-0.42-4.4-0.88-5.92-1.41s-2.82-1.48-3.9-2.87c-1.08-1.39-1.62-3.36-1.62-5.92v-0.03c0-2.24,0.5-4.16,1.51-5.74
		c1-1.59,2.47-2.79,4.4-3.63c1.93-0.83,4.24-1.25,6.95-1.25c1.3,0,2.57,0.14,3.82,0.42s2.49,0.7,3.71,1.26
		c1.22,0.56,2.42,1.26,3.6,2.11l-2.89,4.04c-1.38-1.01-2.75-1.77-4.12-2.28c-1.37-0.51-2.75-0.76-4.12-0.76
		c-2.48,0-4.4,0.5-5.77,1.48c-1.37,0.99-2.06,2.39-2.06,4.2v0.03c0,1.25,0.35,2.23,1.06,2.94c0.71,0.71,1.59,1.24,2.64,1.58
		c1.06,0.34,2.52,0.69,4.4,1.06c0.07,0.02,0.13,0.03,0.19,0.04c0.06,0.01,0.12,0.02,0.19,0.04c0.08,0.02,0.17,0.03,0.27,0.05
		s0.19,0.03,0.27,0.05c2.19,0.45,4.02,0.98,5.49,1.59c1.47,0.62,2.7,1.61,3.69,2.98c0.99,1.37,1.48,3.24,1.48,5.62v0.05
		c0,2.21-0.52,4.1-1.57,5.67c-1.05,1.57-2.56,2.77-4.55,3.59c-1.99,0.82-4.38,1.23-7.19,1.23
		C327.15,518.1,325.49,517.94,323.93,517.6z"/>
	<path d="M349.49,481.5h25.57v4.83h-25.57V481.5z M359.73,484.46h5.08v33.27h-5.08V484.46z"/>
	<path d="M389.44,516.52c-1.9-1.05-3.35-2.59-4.35-4.61s-1.5-4.45-1.5-7.29V481.5h5.08v23.3c0,2.64,0.67,4.69,1.99,6.13
		s3.21,2.17,5.63,2.17c2.44,0,4.33-0.72,5.67-2.17c1.34-1.45,2.01-3.49,2.01-6.13v-23.3h5.08v23.12c0,2.84-0.5,5.27-1.5,7.29
		c-1,2.02-2.45,3.55-4.36,4.61c-1.91,1.06-4.21,1.58-6.9,1.58C393.64,518.1,391.35,517.58,389.44,516.52z"/>
	<path d="M422.1,481.5h5.08v36.23h-5.08V481.5z M425.53,512.89h8.2c2.67,0,4.75-0.69,6.22-2.08c1.47-1.39,2.21-3.34,2.21-5.87
		v-10.67c0-2.53-0.74-4.48-2.21-5.87c-1.47-1.39-3.54-2.08-6.22-2.08h-8.2v-4.83h8.05c2.91,0,5.39,0.51,7.45,1.52
		c2.06,1.01,3.63,2.49,4.71,4.44c1.08,1.94,1.62,4.29,1.62,7.03v10.27c0,2.74-0.54,5.08-1.62,7.03c-1.08,1.94-2.65,3.42-4.72,4.44
		c-2.07,1.01-4.56,1.52-7.46,1.52h-8.02V512.89z"/>
	<path d="M465.22,517.73h-5.08V481.5h5.08V517.73z"/>
	<path d="M484.55,516.45c-1.93-1.1-3.42-2.67-4.47-4.68c-1.06-2.02-1.58-4.36-1.58-7.02v-10.27c0-2.66,0.53-5,1.58-7.01
		c1.05-2.02,2.55-3.58,4.47-4.68c1.93-1.1,4.15-1.66,6.68-1.66s4.75,0.55,6.68,1.66c1.93,1.1,3.42,2.67,4.47,4.68
		s1.58,4.36,1.58,7.01v10.27c0,2.66-0.53,5-1.58,7.02c-1.05,2.02-2.55,3.58-4.47,4.68c-1.93,1.1-4.15,1.66-6.68,1.66
		S486.48,517.55,484.55,516.45z M495.18,512.08c1.14-0.67,2.02-1.63,2.64-2.87s0.93-2.67,0.93-4.3V494.3c0-1.63-0.31-3.06-0.93-4.3
		s-1.5-2.19-2.64-2.87c-1.14-0.67-2.46-1.01-3.95-1.01s-2.81,0.34-3.95,1.01c-1.14,0.67-2.02,1.63-2.64,2.87s-0.93,2.67-0.93,4.3
		v10.62c0,1.63,0.31,3.06,0.93,4.3s1.5,2.19,2.64,2.87c1.14,0.67,2.45,1.01,3.95,1.01S494.04,512.76,495.18,512.08z"/>
	<path d="M522.18,517.6c-1.56-0.33-3.02-0.83-4.37-1.5c-1.35-0.66-2.62-1.5-3.8-2.49l3.16-3.89c1.38,1.2,2.9,2.09,4.56,2.69
		c1.66,0.6,3.46,0.9,5.41,0.9c2.62,0,4.66-0.49,6.11-1.46c1.45-0.97,2.17-2.35,2.17-4.12v-0.02c0-1.26-0.33-2.26-0.98-3
		s-1.5-1.29-2.54-1.64s-2.38-0.69-4.02-0.98c-0.05-0.02-0.1-0.02-0.16-0.02c-0.06,0-0.11-0.01-0.16-0.03l-0.37-0.08
		c-2.43-0.42-4.4-0.88-5.92-1.41c-1.52-0.52-2.82-1.48-3.9-2.87c-1.08-1.39-1.62-3.36-1.62-5.92v-0.03c0-2.24,0.5-4.16,1.51-5.74
		c1-1.59,2.47-2.79,4.4-3.63c1.93-0.83,4.24-1.25,6.95-1.25c1.3,0,2.57,0.14,3.83,0.42s2.49,0.7,3.71,1.26
		c1.22,0.56,2.42,1.26,3.6,2.11l-2.89,4.04c-1.38-1.01-2.75-1.77-4.12-2.28c-1.37-0.51-2.75-0.76-4.12-0.76
		c-2.48,0-4.4,0.5-5.77,1.48c-1.37,0.99-2.06,2.39-2.06,4.2v0.03c0,1.25,0.35,2.23,1.06,2.94s1.59,1.24,2.64,1.58
		c1.05,0.34,2.52,0.69,4.4,1.06c0.07,0.02,0.13,0.03,0.19,0.04c0.06,0.01,0.12,0.02,0.19,0.04c0.08,0.02,0.17,0.03,0.27,0.05
		c0.1,0.02,0.19,0.03,0.27,0.05c2.19,0.45,4.02,0.98,5.5,1.59c1.47,0.62,2.7,1.61,3.69,2.98c0.99,1.37,1.48,3.24,1.48,5.62v0.05
		c0,2.21-0.52,4.1-1.57,5.67c-1.05,1.57-2.56,2.77-4.55,3.59s-4.38,1.23-7.19,1.23C525.39,518.1,523.74,517.94,522.18,517.6z"/>
</g>
<rect id="line.1" x="135.45" y="489.26" width="145.55" height="8.52"/>
<rect id="line.2" x="575.97" y="489.26" width="145.55" height="8.52"/>
<g>
</g>
<g>
</g>
<g>
</g>
<g>
</g>
<g>
</g>
<g>
</g>
</svg>
