<?xml version="1.0" encoding="utf-8"?>
<!-- Generator: Adobe Illustrator 24.3.0, SVG Export Plug-In . SVG Version: 6.00 Build 0)  -->
<svg version="1.1" id="darkside-studios-logo" xmlns="http://www.w3.org/2000/svg" xmlns:xlink="http://www.w3.org/1999/xlink"
	 x="0px" y="0px" viewBox="0 0 864 864" style="enable-background:new 0 0 864 864;" xml:space="preserve">
<path id="darkside-studios-logo-combined" d="M133.9,428.1c-3.65-2.43-3.86-7.4-3.87-7.74c-0.1-3.32,1.49-5.66,3.1-8.26
	c2.91-4.71,4.94-9.93,7.74-14.71c0.9-1.54,0.37-0.68,9.81-19.1c14.44-28.17,13.89-26.68,14.45-28.13c1.99-5.17,3.73-8.17,7.23-14.19
	c1.69-2.92,3.68-6.1,7.48-8c1.41-0.7,3.91-1.9,6.71-1.03c2.84,0.89,4.21,3.36,4.45,3.81c1.89,3.56,0.4,7.6-0.77,10.65
	c-1.46,3.78-3.13,5.7-5.23,8.71c-2.27,3.26-1.86,3.24-7.74,14.13c-4.96,9.18-7.45,13.78-9.68,17.23
	c-6.02,9.31-11.23,15.87-11.23,15.87c-1.87,2.36-3.41,4.96-5.23,7.35c-2.86,3.78-4.8,5.96-4.06,7.74c0.09,0.22,0.49,1.09,2.32,1.74
	c3.83,1.36,7.67-0.46,11.42-2.13c11.87-5.3,10.04-3.43,14.52-6c1.61-0.93,4.69-2.8,14.9-12.19c8.67-7.98,13.01-11.97,17.23-17.23
	c5.88-7.34,9.09-13.39,10.06-15.29c3.08-5.98,5.34-10.37,6-16.84c0.18-1.72,0.65-7.59-1.55-14.71c-1.17-3.78-2.79-9.03-7.55-13.55
	c-5.24-4.97-11.26-6.17-15.29-6.97c-8.25-1.64-14.87-0.12-18.58,0.77c-6.99,1.68-11.74,4.45-16.55,7.26
	c-6.68,3.9-10.52,6.14-14.32,10.65c-4.52,5.36-4.51,8.63-10.94,15.48c-3.66,3.9-5.8,5.12-8.19,5.19c-2.93,0.09-6.24-1.56-7.74-4.39
	c-1.1-2.07-0.82-4.17-0.52-6.19c0.71-4.74,2.98-8.16,4.39-10.06c3.63-4.92,7.52-7.96,12.13-11.35
	c11.13-8.19,16.69-12.29,22.71-14.71c5.7-2.3,10.07-3.09,15.74-4.13c7.97-1.45,18.51-3.28,31.23-0.77
	c4.98,0.98,9.63,1.94,14.97,5.16c8.64,5.22,12.64,12.47,13.42,13.94c3.92,7.36,3.9,13.92,3.87,22.45
	c-0.01,4.64-0.13,14.38-4.39,26.06c-4.68,12.84-11.72,20.76-17.81,27.61c-9.45,10.63-18.91,17.18-24.52,20.65
	c-9.47,5.86-16.91,8.47-27.35,12.13c0,0-10.45,3.67-27.35,4.39C138.32,429.43,136.01,429.5,133.9,428.1z M315.71,417.13
	c-3.41,3.12-5.12,4.68-7.48,6.19c-2.84,1.81-6.75,4.3-12,4.26c-1.95-0.02-6.01-0.05-8.65-2.97c-2.2-2.43-2.31-5.67-2.32-6.19
	c-0.06-2.89,1.27-3.93,1.29-8.26c0.01-1.69-0.19-2.88-1.03-3.48c-0.86-0.61-2.01-0.34-2.33-0.26c-2.79,0.66-4.06,4.08-5.54,6.71
	c-3,5.3-7.3,8.25-9.94,9.93c-2.84,1.81-6.91,4.39-12.65,4.52c-1.76,0.04-10.21-0.01-15.09-6.19c-3.41-4.31-3.21-9.24-2.97-15.23
	c0.14-3.59,0.9-12.22,6.19-21.93c2.74-5.03,7.49-13.74,17.81-18.97c7.78-3.95,14.98-4.01,17.55-4c3.81,0.01,6.45,0.01,9.42,1.55
	c3.9,2.01,4.88,4.84,7.16,4.51c2.96-0.42,3.31-5.47,6.48-5.71c0.57-0.04,1.77,0.52,4.16,1.65c2.5,1.17,3.76,1.77,4.26,2.51
	c1.27,1.87,0.56,4.38,0.1,6c-0.84,2.98-2.31,4.8-3.29,6.2c-2.98,4.23-4.1,8.3-5.03,11.71c-1.24,4.48-1.21,7.82-1.16,14.51
	c0.03,4.9,0.45,6.64,1.74,7.46c1.65,1.05,4.13,0.19,5.8-0.39c2.59-0.9,4.24-2.24,5.33-3.1c5.24-4.13,4.68-2.72,9.48-6.58
	c0.92-0.74,2.3-2.05,4.42-4.17c0.01,0.17,1.02,1.83,0.88,2.86c-0.14,1.03-0.36,1.38-1.59,3.86c-0.39,0.79-2.11,3.74-5.7,7.84
	C318.44,414.89,317.39,415.59,315.71,417.13z M283.06,378.29c-2.12-2.28-5.56-2.03-8.77-1.81c-5.8,0.41-10,2.79-11.35,3.62
	c-2.05,1.24-6.73,4.17-9.55,10.19c-0.65,1.39-3.08,6.94-1.68,13.68c0.55,2.63,1.29,6.19,4.39,8.13c3.06,1.92,6.54,1.07,6.71,1.03
	c4.93-1.28,4.18-6.15,10.71-12.9c4.19-4.35,7.43-5.36,9.93-10.33c0.63-1.25,1.41-3.14,1.42-5.55
	C284.88,383.15,284.89,380.25,283.06,378.29z M400.52,401c2.24-5.2,1.92-3.81,2.18-6.77c-3.62,2.71-9.29,5.21-11.56,6.38
	c-6.36,3.29-7.11,2.46-11.13,5.33c-1.32,0.93-3.18,2.4-6.19,3.48c-0.24,0.08-5.66,1.98-6.58,0.48c-0.34-0.54,0.03-1.33,0.38-2.03
	c2.63-5.19,4.94-7.35,4.94-7.35c4.41-4.14,6.48-5.94,8.42-7.75c1.45-1.35,3.97-4.03,9-9.38c3.23-3.45,4.04-4.37,4.74-6.1
	c0.39-0.96,1.82-4.66,0.39-8.9c-0.38-1.13-1.22-3.58-3.58-5.23c-2.53-1.75-5.28-1.52-8.42-1.26c-2.42,0.21-5.73,0.48-8.71,2.71
	c-0.2,0.15-1.78,1.62-4.94,4.55c-1.59,1.48-2.15,2-3.19,2.42c-0.27,0.11-3.28,1.26-5.52-0.19c-1.34-0.88-1.08-1.83-2.42-3.78
	c-2.1-3.06-5.21-4.29-5.9-4.55c-1.01-0.37-3.84-1.26-7.26-0.38c-1.38,0.35-4.24,1.09-5.81,3.48c-1.07,1.64-0.78,2.92-0.48,10.55
	c0.23,5.8,0.14,6.8-0.29,8.03c-0.71,2.06-2.25,6.37-4.06,10.16c-2.61,5.46-7.49,13.71-8.1,15c-1.46,3.1-2.76,6.28-4.39,9.29
	c-1.33,2.47-2.09,3.56-1.68,4.91c0.51,1.65,2.35,2.42,3.36,2.84c0.23,0.09,4.09,1.63,7.35-0.39c1.39-0.86,2.11-2.01,2.46-2.58
	c4.76-7.81,7.14-11.71,7.74-13.03c0.48-1.07,2.34-5.17,5.93-13.68c2.71-6.42,3.41-8.25,5.42-10.97c1.5-2.02,3.89-4.75,7.49-6.97
	c1.06-0.65,2.7-1.56,4.9-2.19c2.32-0.67,5.3-1.53,6.97,0c1.07,0.98,1.13,2.53,1.16,3.22c0.09,2.29-1.03,3.94-2.45,6.07
	c-5.32,7.96-3.17,5.08-5.81,8.77c-2.39,3.35-3.59,5.03-4.9,6.71c-3.05,3.91-3.72,4.32-5.03,6.58c-1.64,2.82-2.79,4.79-2.59,7.49
	c0.29,3.81,3.06,6.24,3.62,6.71c2.86,2.4,6.19,2.43,8.64,2.45c3.85,0.03,6.72-1.13,8.65-1.94c1.55-0.64,1.7-0.87,9.42-5.93
	C398.18,407.09,399.28,403.88,400.52,401z M497.68,399.55c2.69-1.95,3.96-3.92,3.87-6.1c-0.07-1.77-1.22-3.02-1.65-3.48
	c-1.56-1.7-4.05-2.57-6.19-2.03c-1.14,0.28-1.89,0.89-2.32,1.25c-2.04,1.68-4.92,3.61-7.45,6.1c-2.26,2.23-1.88,1.17-12,7.94
	c-5.47,3.65-5.99,4.23-9,5.9c-1.47,0.81-5.01,2.7-9.88,3.87c-5.26,1.27-6.76,0.42-7.45-0.19c-1.27-1.14-1.35-2.88-1.35-3.1
	c-0.07-2.51,2.09-4.42,3.58-5.61c5.03-4.06,9.28-5.55,13.45-7.75c3.58-1.88,9.09-4.85,13.45-10.54c2.07-2.71,5.19-6.78,5.03-12.49
	c-0.03-1.15-0.17-6.38-4.16-10.06c-2.93-2.71-6.36-3.1-9.77-3.49c-5.85-0.66-10.38,0.9-12.49,1.65c-4.81,1.72-7.96,4.23-8.7,4.84
	c-1.78,1.45-3.25,3.03-5.81,5.8c-1.75,1.9-3.18,3.57-5.71,5.42c-1.02,0.75-1.91,1.29-2.52,1.65c0.31-1.62,0.81-4.02,1.65-6.87
	c0.46-1.59,1.83-6.04,6.97-16.55c2.6-5.34,2.7-5.1,5.42-10.74c2.75-5.71,2.64-5.93,4.64-9.87c2.58-5.08,3.96-7.81,6.29-11.42
	c1.33-2.06,2.34-3.99,4.36-7.84c1.3-2.48,1.86-3.7,1.45-5.03c-0.73-2.36-3.9-3.23-4.84-3.49c-0.59-0.16-3.37-0.86-6.2,0.39
	c-3.7,1.63-5.24,5.61-5.9,7.26c-3.22,8.06-8.11,15.37-11.61,23.32c-3.1,7.02-5.61,12.71-9.49,20.23c-5.65,10.94-7.3,12.38-8.8,17.42
	c-0.34,1.12-1.9,4.12-3.68,8.22c-6.05,13.94-12.94,27.89-14.26,29.94c-2.21,3.44-2.97,5.43-3.16,5.93c-0.68,1.85-1.29,3.5-0.51,4.65
	c0.57,0.84,1.68,1.1,3.35,1.22c2.11,0.15,5.46,0.1,9.74-1.19c2-2.78,4.88-6.76,8.42-11.52c6.82-9.16,11.04-14.43,12.2-15.87
	c4.32-5.38,7.36-8.91,10.74-12.48c0.31-0.33,3.87-4.07,9.19-8.13c2.37-1.81,4.21-3.01,6.77-3.77c1.89-0.56,5.42-1.61,7.84,0.29
	c0.17,0.13,1.77,1.42,1.94,3.48c0.14,1.65-0.71,2.95-1.45,3.97c-3.17,4.31-7.29,7.02-7.65,7.26c-7.5,4.85-7.52,3.79-11.42,6.77
	c-3.39,2.59-5.59,5.1-8.51,8.42c-0.86,0.97-2.38,2.74-3.87,5.32c-1.29,2.21-2.06,3.57-2.13,5.52c-0.1,2.41,0.93,4.23,1.55,5.32
	c0.53,0.94,2.24,3.69,5.61,5.23c1.08,0.49,2.38,0.88,7.06,0.96c5.81,0.11,8.72,0.16,12.58-0.77c2.26-0.54,5.42-1.31,8.91-3.48
	c3.14-1.97,3.37-2.38,7.11-4.46c3.12-1.74,3.44-1.93,5.85-3.67c1.11-0.8,13.28-8.51,14.28-9.05
	C493.31,402.82,494.48,401.87,497.68,399.55z M523.77,424.23c2.51-0.94,4.22-2.23,5.94-3.55c2.86-2.2,5.16-3.96,6.71-6.78
	c2.42-4.4,1.67-8.97,1.1-12.45c-0.21-1.26-1.34-7.55-6.2-13.42c-1.64-1.99-3.9-4.71-7.74-6.84c-3.19-1.76-5.74-2.16-7.42-4.9
	c-0.44-0.72-1.75-2.85-0.97-4.52c1.14-2.41,5.45-1.27,6.97-4.06c0.72-1.33,0.4-2.78,0.19-3.68c-0.58-2.58-2.62-4.63-4.83-5.42
	c-2.8-0.99-5.31,0.25-8.71,1.94c-2.3,1.13-5.96,3-8.52,7.16c-1.26,2.05-3.07,5-2.13,7.74c0.89,2.58,3.31,2.39,8.13,5.61
	c4.3,2.88,6.94,6.08,10.06,9.88c1.83,2.21,3.11,3.79,4.36,6.29c1.49,2.97,3.01,6.01,2.03,9.38c-0.82,2.84-2.99,4.47-3.87,5.13
	c-2.42,1.82-4.78,2.14-8.71,2.61c-3.53,0.44-6.39,0-12.29-0.67c-0.48-0.05-9.12-1.53-9.48-2.52c-0.34,0.19-5.38,0.69-6.56,1.54
	c0.42,0.39,0.88,0.88,1.43,1.46c4.56,4.81,2.5,2.18,6.29,6.39c2.44,2.71,2.68,3.12,3.68,3.68c2.11,1.18,4.16,1.08,6.09,1.03
	c8.25-0.23,5.63,0.56,16.52,0.06C520.43,425.11,521.91,424.92,523.77,424.23z M582.6,413.19c0.09-0.11,1.08-10.57-0.05-9.35
	c-0.43,0.47-1.35,1.42-3.1,2.84c-2.76,2.23-6.61,5.44-12.26,7.22c-3.3,1.05-5.88,1.86-8,0.52c-2.33-1.48-2.69-4.68-2.84-5.94
	c-0.26-2.32-0.06-5.89,5.55-15.09c4.28-7.02,8.91-13.68,8.91-13.68c2.47-3.57,3.9-5.46,3.74-8.26c-0.16-2.73-1.83-6.34-5.16-7.35
	c-3.46-1.05-6.53,1.34-7.1,1.8c-1.84,1.51-2.56,3.41-2.84,4.13c-2.17,5.64-5.37,10.83-7.74,16.39c-4.12,9.67-4.84,9.38-6.97,15.74
	c-2.46,7.34-2.4,10.41-2.06,12.65c0.28,1.88,0.98,6.44,4.77,9.8c5.08,4.51,11.88,3.48,13.29,3.23c4.5-0.81,8.07-3.48,11.36-5.94
	c3.37-2.52,5.06-3.78,5.16-3.87C578.79,416.64,580.52,415.95,582.6,413.19z M576.61,354.03c4.3,0.92,7.67-1.99,8.65-2.84
	c2.84-2.46,3.62-5.54,3.87-6.58c0.31-1.31,0.66-2.77,0.13-4.52c-0.92-3.01-3.71-4.32-4.13-4.52c-3.52-1.6-7.02,0.11-8.39,0.77
	c-1.09,0.53-4,2-5.55,5.42c-0.42,0.94-2.12,4.68-0.13,8.26C572.8,353.16,576.11,353.92,576.61,354.03z M588.1,394.42
	c0,0,2.26-5.86,7.87-14.45c1.86-2.86,8.17-12.53,20-16.78c5.57-2,11.47-4.12,17.55-1.93c3.03,1.09,6.47,3.39,9.8,1.93
	c0.99-0.43,1.85-1.13,3.1-2.84c3.59-4.86,4.6-9.99,4.77-10.83c0.95-4.66,1.24-2.02,8.91-20.65c1.65-4.01,3.96-9.78,6.58-16.9
	c0.4-0.69,1.65-2.61,4.13-3.62c2.91-1.18,5.51-0.29,6.32,0c0.75,0.28,3.23,1.17,4.52,3.49c0.39,0.72,1.36,2.81-0.52,8.77
	c-1.24,3.92-2.68,6.24-5.03,10.45c0,0-2.51,4.49-5.42,10.2c-1.3,2.54-2.11,4.26-6.97,15.09c-3.18,7.09-4.77,10.63-5.55,12.39
	c-5.3,12.01-6.11,14.44-9.68,22.32c-1.6,3.57-4,8.74-7.09,14.97c-0.08,0.42-0.57,3.41,1.55,5.94c1.59,1.9,2.8,3.64,4.69,3.59
	c1.33-0.03,2.96,0.53,7.89-2.85c3.77-2.59,3.78-3.08,5.9-4.45c2.09-1.34,5.56-3.02,7.02-3.77c0.73,3.17-0.73,5.76-2.18,8.13
	c-2.2,3.59-5.35,6.05-8.74,8.52c-3.74,2.72-5.61,4.08-7.1,4.64c-4.69,1.78-8.89,1.14-10.32,0.91c-3.03-0.5-5.45-0.9-7.36-2.84
	c-1.29-1.32-2.19-3.42-4-7.61c-0.91-2.13-1.57-3.93-2.71-4c-0.71-0.05-1.29,0.61-1.55,0.9c-1.88,2.11-4.33,3.67-6.19,5.81
	c-3.34,3.82-7.56,5.54-9.16,6.19c-4.43,1.8-8.23,1.82-10.45,1.81c-3.65-0.02-5.66-0.03-7.62-1.42c-1.97-1.41-3.85-3.19-5.22-5.84
	c-0.77-1.5-2.15-1.87-0.92-12.53C585.74,401,587.77,395.27,588.1,394.42z M603.58,408.61c0.92,2.01,1.88,4.09,3.74,4.65
	c1.83,0.54,3.95-0.54,11.36-7.87c2.67-2.65,6.35-6.42,11.87-12.91c4.57-5.37,6.6-8.13,7.74-12.25c0.67-2.42,1.36-5.06,0-6.97
	c-2.24-3.15-8.62-2.38-12.52-0.91c-2.15,0.82-4.04,2.41-7.74,5.55c-5.54,4.72-8.32,7.08-10.97,10.97c-1.89,2.78-3.8,5.65-4.51,9.94
	C602.27,400.48,601.66,404.44,603.58,408.61z M747.06,401.77c-1.55,3.27-4.54,4.08-9.41,6.58c-5.86,3.01-4.26,3.22-12.13,7.75
	c-5.13,2.94-8.7,4.99-13.81,6.84c-2.58,0.93-10.16,3.47-20.13,3.48c-5.94,0.01-9.55-0.04-12.52-2.58c-4.05-3.47-5.41-7.61-5.41-7.61
	c-3.67-5.17-4.08-14.16-4-14.2c0.01-1.22,0.12-2.97,0.51-5.03c0.32-1.69,1.17-5.29,4.65-11.23c3.19-5.44,6.52-9.32,8.38-11.35
	c4.26-4.64,7.6-8.28,13.29-11.23c7.85-4.05,14.87-4.06,17.04-4c4.56,0.14,9.38,0.28,12.77,3.87c3.24,3.44,3.43,8.16,3.48,9.55
	c0.06,1.36,0.02,4.42-1.54,7.74c-1.02,2.16-2.47,4.01-8.65,8.78c-5.4,4.17-8.1,6.25-10.97,7.74c-6.92,3.6-9.78,2.83-15.48,7.1
	c-2.14,1.6-5.26,3.98-4.78,6.19c0.43,1.96,3.49,2.81,5.94,3.49c6.33,1.75,11.72,0.29,12.77,0c1.21-0.35,2.51-0.81,9.68-5.04
	c7.26-4.27,10.89-6.41,12.91-7.87c5.62-4.06,7.28-6.29,11.35-6.71c1.05-0.11,4.61-0.47,6.19,1.68
	C748.83,397.94,747.25,401.39,747.06,401.77z M688.48,394.55c0.98,0.81,2.6,0.36,3.75,0c5.55-1.75,9.78-4.59,12.12-6.2
	c7.41-5.04,8.32-5.7,9.17-7.48c0.18-0.4,2.46-5.32,0.25-8.13c-2.53-3.23-9.48-1.74-13.54,0.52c-2.3,1.27-3.73,2.95-6.58,6.32
	c-3.88,4.56-5.04,7.64-5.55,9.94C687.76,391.02,687.24,393.51,688.48,394.55z M337.03,498.96c-1.47-0.61-3.3-1.15-5.49-1.59
	c-0.08-0.02-0.17-0.03-0.27-0.05s-0.19-0.03-0.27-0.05c-0.07-0.02-0.13-0.03-0.19-0.04c-0.06-0.01-0.12-0.02-0.19-0.04
	c-1.88-0.37-3.34-0.72-4.4-1.06c-1.06-0.34-1.94-0.87-2.64-1.58c-0.71-0.71-1.06-1.69-1.06-2.94v-0.03c0-1.81,0.69-3.21,2.06-4.2
	c1.37-0.99,3.29-1.48,5.77-1.48c1.38,0,2.75,0.25,4.12,0.76c1.37,0.51,2.75,1.27,4.12,2.28l2.89-4.04c-1.18-0.85-2.38-1.55-3.6-2.11
	c-1.22-0.56-2.46-0.98-3.71-1.26s-2.53-0.42-3.82-0.42c-2.71,0-5.03,0.42-6.95,1.25c-1.93,0.83-3.39,2.04-4.4,3.63
	c-1.01,1.59-1.51,3.5-1.51,5.74v0.03c0,2.56,0.54,4.53,1.62,5.92c1.08,1.39,2.38,2.34,3.9,2.87s3.49,0.99,5.92,1.41l0.37,0.08
	c0.05,0.02,0.1,0.03,0.16,0.03c0.06,0,0.11,0.01,0.16,0.02c1.64,0.3,2.99,0.63,4.02,0.98c1.04,0.36,1.89,0.91,2.54,1.64
	s0.98,1.74,0.98,3v0.02c0,1.78-0.72,3.15-2.17,4.12c-1.45,0.97-3.48,1.46-6.1,1.46c-1.94,0-3.75-0.3-5.41-0.9
	c-1.66-0.6-3.18-1.5-4.56-2.69l-3.17,3.89c1.18,1,2.45,1.83,3.8,2.49c1.35,0.67,2.81,1.16,4.37,1.5c1.56,0.33,3.21,0.5,4.96,0.5
	c2.81,0,5.2-0.41,7.19-1.23c1.98-0.82,3.5-2.02,4.55-3.59c1.05-1.57,1.57-3.46,1.57-5.67v-0.05c0-2.38-0.49-4.25-1.48-5.62
	C339.73,500.57,338.5,499.58,337.03,498.96z M349.49,486.33h10.24v31.4h5.08v-31.4h10.24v-4.83h-25.57V486.33z M403.98,504.79
	c0,2.64-0.67,4.69-2.01,6.13c-1.34,1.45-3.23,2.17-5.67,2.17c-2.43,0-4.3-0.72-5.63-2.17s-1.99-3.49-1.99-6.13v-23.3h-5.08v23.12
	c0,2.84,0.5,5.27,1.5,7.29s2.45,3.55,4.35,4.61c1.9,1.06,4.19,1.58,6.87,1.58c2.69,0,4.99-0.53,6.9-1.58
	c1.91-1.05,3.36-2.59,4.36-4.61c1-2.02,1.5-4.45,1.5-7.29V481.5h-5.08V504.79z M445.74,487.45c1.08,1.94,1.62,4.29,1.62,7.03v10.27
	c0,2.74-0.54,5.08-1.62,7.03c-1.08,1.94-2.65,3.42-4.72,4.44c-2.07,1.01-4.56,1.52-7.46,1.52h-6.38h-1.64h-3.44V481.5h3.44h1.64h6.4
	c2.91,0,5.39,0.51,7.45,1.52C443.09,484.03,444.66,485.51,445.74,487.45z M442.16,494.28c0-2.53-0.74-4.48-2.21-5.87
	c-1.47-1.39-3.54-2.08-6.22-2.08h-6.55v26.56h6.55c2.67,0,4.75-0.69,6.22-2.08c1.47-1.39,2.21-3.34,2.21-5.87V494.28z
	 M460.14,517.73h5.08V481.5h-5.08V517.73z M502.38,487.46c1.05,2.02,1.58,4.36,1.58,7.01v10.27c0,2.66-0.53,5-1.58,7.02
	c-1.05,2.02-2.55,3.58-4.47,4.68c-1.93,1.1-4.15,1.66-6.68,1.66s-4.75-0.55-6.68-1.66c-1.93-1.1-3.42-2.67-4.47-4.68
	c-1.06-2.02-1.58-4.36-1.58-7.02v-10.27c0-2.66,0.53-5,1.58-7.01c1.05-2.02,2.55-3.58,4.47-4.68c1.93-1.1,4.15-1.66,6.68-1.66
	s4.75,0.55,6.68,1.66C499.84,483.88,501.33,485.45,502.38,487.46z M498.76,494.3c0-1.63-0.31-3.06-0.93-4.3s-1.5-2.19-2.64-2.87
	c-1.14-0.67-2.46-1.01-3.95-1.01s-2.81,0.34-3.95,1.01c-1.14,0.67-2.02,1.63-2.64,2.87s-0.93,2.67-0.93,4.3v10.62
	c0,1.63,0.31,3.06,0.93,4.3s1.5,2.19,2.64,2.87c1.14,0.67,2.45,1.01,3.95,1.01s2.81-0.34,3.95-1.01c1.14-0.67,2.02-1.63,2.64-2.87
	s0.93-2.67,0.93-4.3V494.3z M535.27,498.96c-1.47-0.61-3.3-1.15-5.5-1.59c-0.08-0.02-0.17-0.03-0.27-0.05
	c-0.1-0.02-0.19-0.03-0.27-0.05c-0.07-0.02-0.13-0.03-0.19-0.04c-0.06-0.01-0.12-0.02-0.19-0.04c-1.88-0.37-3.34-0.72-4.4-1.06
	c-1.05-0.34-1.94-0.87-2.64-1.58s-1.06-1.69-1.06-2.94v-0.03c0-1.81,0.69-3.21,2.06-4.2c1.37-0.99,3.29-1.48,5.77-1.48
	c1.38,0,2.75,0.25,4.12,0.76c1.37,0.51,2.75,1.27,4.12,2.28l2.89-4.04c-1.18-0.85-2.38-1.55-3.6-2.11
	c-1.22-0.56-2.46-0.98-3.71-1.26s-2.53-0.42-3.83-0.42c-2.71,0-5.03,0.42-6.95,1.25c-1.93,0.83-3.39,2.04-4.4,3.63
	c-1,1.59-1.51,3.5-1.51,5.74v0.03c0,2.56,0.54,4.53,1.62,5.92c1.08,1.39,2.38,2.34,3.9,2.87c1.52,0.52,3.49,0.99,5.92,1.41
	l0.37,0.08c0.05,0.02,0.1,0.03,0.16,0.03c0.06,0,0.11,0.01,0.16,0.02c1.64,0.3,2.99,0.63,4.02,0.98s1.89,0.91,2.54,1.64
	s0.98,1.74,0.98,3v0.02c0,1.78-0.72,3.15-2.17,4.12c-1.45,0.97-3.48,1.46-6.11,1.46c-1.94,0-3.75-0.3-5.41-0.9
	c-1.66-0.6-3.18-1.5-4.56-2.69l-3.16,3.89c1.18,1,2.45,1.83,3.8,2.49c1.35,0.67,2.81,1.16,4.37,1.5c1.56,0.33,3.21,0.5,4.96,0.5
	c2.81,0,5.2-0.41,7.19-1.23s3.5-2.02,4.55-3.59c1.05-1.57,1.57-3.46,1.57-5.67v-0.05c0-2.38-0.5-4.25-1.48-5.62
	C537.97,500.57,536.74,499.58,535.27,498.96z M135.45,497.77H281v-8.52H135.45V497.77z M575.97,497.77h145.55v-8.52H575.97V497.77z"
	/>
<g>
</g>
<g>
</g>
<g>
</g>
<g>
</g>
<g>
</g>
<g>
</g>
</svg>
