<?xml version="1.0" encoding="utf-8"?>
<!-- Generator: Adobe Illustrator 24.3.0, SVG Export Plug-In . SVG Version: 6.00 Build 0)  -->
<svg version="1.1" id="dig-it-logo" xmlns="http://www.w3.org/2000/svg" xmlns:xlink="http://www.w3.org/1999/xlink" x="0px"
	 y="0px" viewBox="0 0 864 864" style="enable-background:new 0 0 864 864;" xml:space="preserve">
<style type="text/css">
	.st0{fill:#A1A4A3;}
</style>
<path id="dig-it-logo-combined" class="st0" d="M261.94,384.46c0-32.93-19.18-47.49-48.94-47.49h-27.55v95.8h28.78
	C242.76,432.77,261.94,417.38,261.94,384.46z M207.47,415.33v-60.93h4.18c16.53,0,27.7,7.14,27.7,30.05
	c0,22.91-11.17,30.88-27.7,30.88H207.47z M302.42,432.77h-22.03v-95.8h22.03V432.77z M320.79,385.43c0-31.78,21.48-50.22,47.5-50.22
	c14.15,0,24.19,5.93,30.75,12.43l-11.62,13.89c-4.84-4.37-10.04-7.62-18.4-7.62c-15,0-25.66,11.58-25.66,30.79
	c0,19.69,9.08,31.14,27.42,31.14c3.9,0,7.95-1,10.32-2.85v-16.54h-16.15v-17.68h35.72v44.17c-6.72,6.47-18.56,11.6-32.16,11.6
	C341.67,434.54,320.79,417.69,320.79,385.43z M437.68,262.71v283.35H720V262.71H437.68z M527.11,493.13h-38.6V325.29h38.6V493.13z
	 M686.37,357.11h-47v136.02h-38.6V357.11h-47v-31.82h132.6V357.11z M186.32,456.77h217.81v21.68H186.32V456.77z"/>
</svg>
