<?xml version="1.0" encoding="utf-8"?>
<!-- Generator: Adobe Illustrator 24.3.0, SVG Export Plug-In . SVG Version: 6.00 Build 0)  -->
<svg version="1.1" id="Layer_2" xmlns="http://www.w3.org/2000/svg" xmlns:xlink="http://www.w3.org/1999/xlink" x="0px" y="0px"
	 viewBox="0 0 864 864" style="enable-background:new 0 0 864 864;" xml:space="preserve">
<style type="text/css">
	.st0{fill:#A1A4A3;}
	.st1{fill:#FFFFFF;}
</style>
<rect id="square" x="437.68" y="262.71" class="st0" width="282.32" height="283.35"/>
<g>
	<path class="st0" d="M185.44,336.97h27.55c29.77,0,48.94,14.56,48.94,47.49s-19.18,48.32-47.71,48.32h-28.78V336.97z
		 M211.65,415.33c16.53,0,27.7-7.97,27.7-30.88c0-22.91-11.17-30.05-27.7-30.05h-4.18v60.93H211.65z"/>
	<path class="st0" d="M280.39,336.97h22.03v95.8h-22.03V336.97z"/>
	<path class="st0" d="M320.79,385.43c0-31.78,21.48-50.22,47.5-50.22c14.15,0,24.19,5.93,30.75,12.43l-11.62,13.89
		c-4.84-4.37-10.04-7.62-18.4-7.62c-15,0-25.66,11.58-25.66,30.79c0,19.69,9.08,31.14,27.42,31.14c3.9,0,7.95-1,10.32-2.85v-16.54
		h-16.15v-17.68h35.72v44.17c-6.72,6.47-18.56,11.6-32.16,11.6C341.67,434.54,320.79,417.69,320.79,385.43z"/>
</g>
<g>
	<path class="st1" d="M488.51,325.29h38.6v167.84h-38.6V325.29z"/>
	<path class="st1" d="M600.77,357.11h-47v-31.82h132.6v31.82h-47v136.02h-38.6V357.11z"/>
</g>
<rect id="line" x="186.32" y="456.77" class="st0" width="217.81" height="21.68"/>
</svg>
