<?xml version="1.0" encoding="utf-8"?>
<!-- Generator: Adobe Illustrator 24.3.0, SVG Export Plug-In . SVG Version: 6.00 Build 0)  -->
<svg version="1.1" id="domain-registration-logo" xmlns="http://www.w3.org/2000/svg" xmlns:xlink="http://www.w3.org/1999/xlink"
	 x="0px" y="0px" viewBox="0 0 864 864" style="enable-background:new 0 0 864 864;" xml:space="preserve">
<style type="text/css">
	.st0{fill:#040404;}
	.st1{fill:#070707;}
	.st2{fill:#080808;}
	.st3{fill:#090909;}
	.st4{fill:#0B0B0B;}
	.st5{fill:#141414;}
	.st6{fill:#0E0E0E;}
	.st7{fill:#0D0D0D;}
</style>
<g id="domain-registration-logo-parts">
	<path id="outer-square-border" class="st0" d="M726.19,524.7c-12.61,7.13-17.71,4.2-17.72-10.42
		c-0.04-86.16-0.02-172.32-0.02-258.48c0-4,0-7.99,0-12.81c-174.96,0-349.57,0-524.81,0c0,132.57,0,265.25,0,398.54
		c174.56,0,348.92,0,524.81,0c0-11.95,0-23.81,0-35.67c0-14.97-0.39-29.95,0.24-44.9c0.19-4.5,2.06-10.34,5.27-12.81
		c2.11-1.62,8.02,1.72,12.23,2.84c0,35.06,0,70.11,0,105.17c-5.79,1.35-11.58,3.87-17.38,3.88c-175.27,0.21-350.54,0.17-525.8,0.17
		c-16.22,0-17.74-1.47-17.74-17.21c-0.01-157.74-0.01-315.48,0-473.22c0-15.73,1.51-17.21,17.74-17.21
		c175.27-0.01,350.54-0.04,525.8,0.17c5.79,0.01,11.59,2.53,17.38,3.88C726.19,279.31,726.19,402.01,726.19,524.7z M513.71,171.48
		c-110.39,0-220.33,0-330.22,0c0,17.92,0,34.97,0,52.24c110.44,0,220.41,0,330.22,0C513.71,205.89,513.71,188.8,513.71,171.48z
		 M532.76,223.72c58.91,0,117.1,0,175.31,0c0-17.81,0-34.85,0-52.46c-58.54,0-116.68,0-175.31,0
		C532.76,188.94,532.76,205.97,532.76,223.72z"/>
	<g id="www-letters">
		<path id="www-letter-w-1" class="st1" d="M295.15,364.31c4.72-7.76,8.36-14.02,12.26-20.1c6.38-9.94,12.59-10.02,19.02-0.32
			c2.01,3.03,3.72,6.26,5.63,9.36c1.87,3.03,3.83,6.01,6.86,10.76c4.47-14.6,8.43-27.53,12.38-40.47c0.85-2.78,0.86-6.62,2.73-8.12
			c3.22-2.57,7.89-5.37,11.4-4.79c2.3,0.38,5.83,7.16,5.05,10.05c-6.21,22.81-12.95,45.49-20.37,67.94
			c-2.91,8.81-11.21,9.38-16.59,1.54c-5.7-8.29-10.6-17.13-16.55-26.87c-5.24,8.69-9.47,16.74-14.75,24.03
			c-2.5,3.46-7.13,7.74-10.5,7.5c-3.21-0.23-7.53-5.36-8.79-9.19c-6.73-20.38-12.77-40.99-18.8-61.59
			c-1.7-5.82-2.49-12.27,5.38-14.23c7.39-1.83,10.19,3.27,12.01,9.51C285.75,333.83,290.26,348.24,295.15,364.31z"/>
		<path id="www-letter-w-2" class="st2" d="M415.4,364.48c5.07-8.37,8.78-15.02,12.99-21.33c5.79-8.68,11.87-8.62,17.78-0.03
			c2.27,3.29,4.16,6.84,6.27,10.25c1.87,3.01,3.82,5.98,6.88,10.77c4.72-15.82,8.87-29.9,13.14-43.95
			c1.86-6.13,4.12-12.71,12.46-10.29c8.26,2.4,6.87,8.71,4.89,15.16c-6.07,19.82-11.55,39.83-18.03,59.52
			c-1.37,4.16-5.47,9.14-9.29,10.18c-2.64,0.72-7.84-4.02-10.34-7.45c-5.12-7.03-9.2-14.83-14.65-23.89
			c-5.29,8.58-9.67,16.67-15.07,24.01c-2.51,3.42-7.22,7.72-10.51,7.38c-3.28-0.33-7.48-5.48-8.75-9.35
			c-6.69-20.38-12.65-41.01-18.71-61.59c-1.75-5.93-2.38-12.13,5.47-14.07c7.54-1.87,10.2,3.43,11.99,9.54
			C406.12,333.63,410.44,347.87,415.4,364.48z"/>
		<path id="www-letter-w-3" class="st2" d="M557.76,363.19c-5.74,9.46-10.19,17.76-15.66,25.34c-2.23,3.1-6.92,6.67-10.01,6.28
			c-3.16-0.41-7.17-4.95-8.31-8.49c-6.8-21.11-13.23-42.36-18.83-63.81c-0.93-3.57,1.66-10.47,4.67-12.16
			c5.85-3.28,10.18,1,12.02,7.09c4.52,14.92,8.97,29.86,14.09,46.91c4.86-7.9,8.58-14.21,12.56-20.36
			c6.37-9.82,12.47-9.75,18.94,0.15c1.99,3.05,3.74,6.25,5.66,9.34c1.86,3,3.79,5.95,6.7,10.52c4.5-14.66,8.5-27.72,12.51-40.77
			c0.75-2.43,0.76-5.73,2.39-7.11c3.17-2.68,7.25-4.28,10.96-6.33c1.98,3.74,6.36,8.12,5.56,11.12
			c-6.01,22.47-12.83,44.74-20.01,66.87c-1.01,3.12-5.22,6.98-8.18,7.2c-3.01,0.22-7.29-2.98-9.31-5.87
			C568.11,381.37,563.62,373,557.76,363.19z"/>
	</g>
	<g id="squares">
		<path id="square-1" class="st3" d="M294.62,503.02c-6.93-0.01-13.85-0.11-20.77,0.02c-7.25,0.13-10.95-3.47-11.01-10.52
			c-0.14-14.94-0.17-29.89,0.03-44.83c0.09-7.13,4.31-10.42,11.3-10.41c14.21,0.01,28.43,0.04,42.64-0.02
			c7.63-0.03,11.56,3.71,11.61,11.29c0.09,14.21,0.02,28.43,0.05,42.64c0.02,8.03-3.57,12.17-11.97,11.88
			C309.21,502.83,301.91,503.03,294.62,503.02z M309.43,484.73c0-10.02,0-19.53,0-28.95c-9.83,0-18.76,0-28.13,0
			c0,9.89,0,19.18,0,28.95C290.96,484.73,300.22,484.73,309.43,484.73z"/>
		<path id="square-2" class="st4" d="M295.33,586.53c-6.93,0-13.86-0.18-20.77,0.05c-8.45,0.28-11.88-4-11.85-11.99
			c0.05-13.85,0.09-27.7,0-41.55c-0.06-8.82,4.45-12.4,12.94-12.3c13.48,0.15,26.97,0.1,40.46,0.02
			c7.98-0.05,12.36,3.46,12.35,11.73c-0.01,14.21-0.02,28.43,0,42.64c0.01,8.3-4.2,11.78-12.35,11.46
			C309.18,586.32,302.25,586.53,295.33,586.53z M309.97,539.48c-10.22,0-19.23,0-28.56,0c0,9.82,0,19.11,0,28.52
			c9.85,0,19.13,0,28.56,0C309.97,558.32,309.97,549.27,309.97,539.48z"/>
	</g>
	<g id="inner-lines">
		<g id="long-lines">
			<path id="longline-1" class="st0" d="M442.59,479.06c-27.71,0-55.43-0.02-83.14,0.02c-6.18,0.01-12.44-0.35-12.59-8.45
				c-0.15-8.63,6.27-9.39,12.96-9.38c55.79,0.03,111.59,0.03,167.38-0.01c6.32,0,12.41,0.92,12.63,8.65c0.25,8.67-6.37,9.2-13,9.19
				C498.75,479.03,470.67,479.07,442.59,479.06z"/>
			<path id="longline-2" class="st1" d="M443.15,562.64c-27.72,0-55.44,0.01-83.16-0.01c-6.42,0-13.36-0.03-13.13-8.99
				c0.22-8.63,6.98-8.95,13.47-8.95c55.44,0,110.88,0.01,166.31-0.01c6.65,0,13.29,0.8,13.2,9.27c-0.09,8.72-7.13,8.69-13.54,8.69
				C498.59,562.64,470.87,562.64,443.15,562.64z"/>
		</g>
		<g id="short-lines">
			<path id="shortline-1" class="st1" d="M584.28,478.97c-5.83-0.02-11.9,0.95-17.42-0.38c-3.32-0.8-7.99-5.16-8.02-7.96
				c-0.03-3.03,4.44-8.51,7.29-8.74c12.32-1.01,24.81-1.12,37.11-0.08c3.1,0.26,7.21,5.68,7.99,9.35c0.41,1.93-5.04,6.76-8.43,7.48
				C596.87,479.89,590.48,478.98,584.28,478.97z"/>
			<path id="shortline-2" class="st4" d="M585.66,544.81c5.83,0.01,12-1.14,17.37,0.42c3.53,1.03,7.39,5.66,8.22,9.33
				c0.44,1.93-5.15,7.35-8.29,7.59c-11.96,0.92-24.07,0.92-36.02-0.02c-3.1-0.24-8.63-5.82-8.15-7.71c0.93-3.67,4.85-8.29,8.39-9.22
				C572.97,543.69,579.46,544.8,585.66,544.81z"/>
		</g>
	</g>
	<g id="dots-group">
		<path id="dot-1" class="st5" d="M585.25,198.81c-6.91,3.8-11.35,8.23-14.6,7.48c-3.42-0.79-7.59-6.43-7.8-10.16
			c-0.14-2.52,6.19-7.73,9.3-7.49C575.83,188.93,579.16,193.78,585.25,198.81z"/>
		<path id="dot-2" class="st6" d="M634.04,197.61c-6.22,4.43-10.16,9.31-12.93,8.72c-3.76-0.8-8.44-5.41-9.22-9.12
			c-0.5-2.37,5.27-8.46,8.36-8.56C623.85,188.53,627.6,193.14,634.04,197.61z"/>
		<path id="dot-3" class="st7" d="M682.82,197.91c-6.3,4.29-10.35,9.08-13.11,8.42c-3.67-0.87-8.17-5.68-8.78-9.38
			c-0.4-2.43,5.45-8.26,8.49-8.26C673.02,188.7,676.61,193.35,682.82,197.91z"/>
	</g>
</g>
</svg>
