<?xml version="1.0" encoding="utf-8"?>
<!-- Generator: Adobe Illustrator 24.3.0, SVG Export Plug-In . SVG Version: 6.00 Build 0)  -->
<svg version="1.1" id="domain-registration-logo" xmlns="http://www.w3.org/2000/svg" xmlns:xlink="http://www.w3.org/1999/xlink"
	 x="0px" y="0px" viewBox="0 0 864 864" style="enable-background:new 0 0 864 864;" xml:space="preserve">
<style type="text/css">
	.st0{fill:#0D0D0D;}
</style>
<path id="domain-registration-logo-combined" class="st0" d="M708.48,514.29c0.01,14.62,5.11,17.55,17.72,10.42
	c0-122.7,0-245.4,0-368.09c-5.79-1.35-11.58-3.87-17.38-3.88c-175.27-0.21-350.54-0.17-525.8-0.17c-16.22,0-17.74,1.47-17.74,17.21
	c-0.01,157.74-0.01,315.48,0,473.22c0,15.73,1.51,17.21,17.74,17.21c175.27,0.01,350.54,0.04,525.8-0.17
	c5.79-0.01,11.59-2.53,17.38-3.88c0-35.06,0-70.11,0-105.17c-4.21-1.12-10.12-4.45-12.23-2.84c-3.22,2.47-5.09,8.31-5.27,12.81
	c-0.62,14.94-0.24,29.93-0.24,44.9c0,11.86,0,23.72,0,35.67c-175.89,0-350.24,0-524.81,0c0-133.29,0-265.96,0-398.54
	c175.23,0,349.85,0,524.81,0c0,4.81,0,8.81,0,12.81C708.45,341.97,708.43,428.13,708.48,514.29z M513.71,223.72
	c-109.81,0-219.78,0-330.22,0c0-17.27,0-34.31,0-52.24c109.89,0,219.83,0,330.22,0C513.71,188.8,513.71,205.89,513.71,223.72z
	 M708.07,223.72c-58.21,0-116.4,0-175.31,0c0-17.75,0-34.77,0-52.46c58.63,0,116.77,0,175.31,0
	C708.07,188.87,708.07,205.91,708.07,223.72z M333.53,390.16c-5.7-8.29-10.6-17.13-16.55-26.87c-5.24,8.69-9.47,16.74-14.75,24.03
	c-2.5,3.46-7.13,7.74-10.5,7.5c-3.21-0.23-7.53-5.36-8.79-9.19c-6.73-20.38-12.77-40.99-18.8-61.59c-1.7-5.82-2.49-12.27,5.38-14.23
	c7.39-1.83,10.19,3.27,12.01,9.51c4.22,14.5,8.73,28.91,13.61,44.98c4.72-7.76,8.36-14.02,12.26-20.1
	c6.38-9.94,12.59-10.02,19.02-0.32c2.01,3.03,3.72,6.26,5.63,9.36c1.87,3.03,3.83,6.01,6.86,10.76c4.47-14.6,8.43-27.53,12.38-40.47
	c0.85-2.78,0.86-6.62,2.73-8.12c3.22-2.57,7.89-5.37,11.4-4.79c2.3,0.38,5.83,7.16,5.05,10.05c-6.21,22.81-12.95,45.49-20.37,67.93
	C347.21,397.42,338.91,397.99,333.53,390.16z M403.18,385.47c-6.69-20.38-12.65-41.01-18.71-61.59c-1.75-5.93-2.38-12.13,5.47-14.07
	c7.54-1.87,10.2,3.43,11.99,9.54c4.19,14.29,8.51,28.53,13.47,45.14c5.07-8.37,8.78-15.02,12.99-21.33
	c5.79-8.68,11.87-8.62,17.78-0.03c2.27,3.29,4.16,6.84,6.27,10.25c1.87,3.01,3.82,5.98,6.88,10.77c4.72-15.82,8.87-29.9,13.14-43.95
	c1.86-6.13,4.12-12.71,12.46-10.29c8.26,2.4,6.87,8.71,4.89,15.16c-6.07,19.82-11.55,39.83-18.03,59.52
	c-1.37,4.16-5.47,9.14-9.29,10.18c-2.64,0.72-7.84-4.02-10.34-7.45c-5.12-7.03-9.2-14.83-14.65-23.89
	c-5.29,8.58-9.67,16.67-15.07,24.01c-2.51,3.42-7.22,7.72-10.51,7.38C408.65,394.48,404.45,389.34,403.18,385.47z M532.09,394.81
	c-3.16-0.41-7.17-4.95-8.31-8.49c-6.8-21.11-13.23-42.36-18.83-63.81c-0.93-3.57,1.66-10.47,4.67-12.16
	c5.85-3.28,10.18,1,12.02,7.09c4.52,14.92,8.97,29.86,14.09,46.91c4.86-7.9,8.58-14.21,12.56-20.36c6.37-9.82,12.47-9.75,18.94,0.15
	c1.99,3.05,3.74,6.25,5.66,9.34c1.86,3,3.79,5.95,6.7,10.52c4.5-14.66,8.5-27.72,12.51-40.77c0.75-2.43,0.76-5.73,2.39-7.11
	c3.17-2.68,7.25-4.28,10.96-6.33c1.98,3.74,6.36,8.12,5.56,11.12c-6.01,22.47-12.83,44.74-20.01,66.87
	c-1.01,3.12-5.22,6.98-8.18,7.2c-3.01,0.22-7.29-2.98-9.31-5.87c-5.4-7.73-9.89-16.11-15.75-25.91
	c-5.74,9.46-10.19,17.76-15.66,25.34C539.87,391.63,535.18,395.2,532.09,394.81z M328.41,448.55c-0.05-7.58-3.98-11.32-11.61-11.29
	c-14.21,0.05-28.43,0.03-42.64,0.02c-6.99-0.01-11.21,3.28-11.3,10.41c-0.2,14.94-0.16,29.89-0.03,44.83
	c0.07,7.05,3.77,10.65,11.01,10.52c6.92-0.13,13.85-0.03,20.77-0.02c7.29,0.01,14.59-0.19,21.87,0.06
	c8.4,0.29,11.98-3.85,11.97-11.88C328.43,476.98,328.5,462.77,328.41,448.55z M309.43,484.73c-9.21,0-18.47,0-28.13,0
	c0-9.77,0-19.06,0-28.95c9.36,0,18.3,0,28.13,0C309.43,465.21,309.43,474.71,309.43,484.73z M274.55,586.57
	c6.92-0.23,13.85-0.05,20.77-0.05c6.93,0,13.86-0.21,20.77,0.06c8.15,0.32,12.36-3.17,12.35-11.46c-0.02-14.21-0.02-28.43,0-42.64
	c0.01-8.27-4.37-11.78-12.35-11.73c-13.49,0.08-26.97,0.13-40.46-0.02c-8.49-0.1-13,3.48-12.94,12.3c0.09,13.85,0.05,27.7,0,41.55
	C262.68,582.57,266.1,586.85,274.55,586.57z M281.41,539.48c9.33,0,18.34,0,28.56,0c0,9.79,0,18.84,0,28.52c-9.43,0-18.71,0-28.56,0
	C281.41,558.59,281.41,549.3,281.41,539.48z M346.86,470.63c-0.15-8.63,6.27-9.39,12.96-9.38c55.79,0.03,111.59,0.03,167.38-0.01
	c6.32,0,12.41,0.92,12.63,8.65c0.25,8.67-6.37,9.21-13,9.19c-28.08-0.05-56.16-0.02-84.24-0.02c-27.71,0-55.43-0.02-83.14,0.02
	C353.26,479.09,347,478.73,346.86,470.63z M346.86,553.64c0.22-8.63,6.98-8.95,13.47-8.95c55.44,0,110.88,0.01,166.31-0.01
	c6.65,0,13.29,0.8,13.2,9.27c-0.09,8.72-7.13,8.69-13.54,8.69c-27.72-0.01-55.44,0-83.16,0c-27.72,0-55.44,0.01-83.16-0.01
	C353.57,562.63,346.63,562.61,346.86,553.64z M611.24,471.16c0.41,1.93-5.04,6.76-8.43,7.48c-5.93,1.26-12.32,0.35-18.52,0.33
	c-5.83-0.02-11.9,0.95-17.42-0.38c-3.32-0.8-7.99-5.16-8.02-7.96c-0.03-3.03,4.44-8.51,7.29-8.74c12.32-1.01,24.81-1.12,37.11-0.08
	C606.35,462.08,610.46,467.5,611.24,471.16z M558.78,554.43c0.93-3.67,4.85-8.29,8.39-9.22c5.8-1.52,12.29-0.41,18.48-0.4
	c5.83,0.01,12-1.14,17.37,0.42c3.53,1.03,7.39,5.66,8.22,9.33c0.44,1.93-5.15,7.35-8.29,7.59c-11.96,0.92-24.07,0.92-36.02-0.02
	C563.83,561.9,558.3,556.32,558.78,554.43z M562.85,196.13c-0.14-2.52,6.19-7.73,9.3-7.49c3.68,0.29,7.01,5.14,13.1,10.17
	c-6.91,3.8-11.35,8.23-14.6,7.48C567.23,205.49,563.06,199.85,562.85,196.13z M611.89,197.2c-0.5-2.37,5.27-8.46,8.36-8.56
	c3.6-0.11,7.35,4.49,13.79,8.96c-6.22,4.43-10.16,9.31-12.93,8.72C617.35,205.53,612.67,200.92,611.89,197.2z M660.94,196.96
	c-0.4-2.43,5.45-8.26,8.49-8.26c3.59,0,7.18,4.65,13.39,9.21c-6.3,4.29-10.35,9.08-13.11,8.42
	C666.04,205.46,661.55,200.65,660.94,196.96z"/>
</svg>
