<?xml version="1.0" encoding="utf-8"?>
<!-- Generator: Adobe Illustrator 24.3.0, SVG Export Plug-In . SVG Version: 6.00 Build 0)  -->
<svg version="1.1" id="ecocode-logo" xmlns="http://www.w3.org/2000/svg" xmlns:xlink="http://www.w3.org/1999/xlink" x="0px"
	 y="0px" viewBox="0 0 864 864" style="enable-background:new 0 0 864 864;" xml:space="preserve">
<style type="text/css">
	.st0{fill:#D7D5D5;}
	.st1{fill:#050606;}
	.st2{fill:#666767;}
</style>
<g id="ecocode-logo-parts">
	<g id="cubes">
		<g id="cube-1">
			<path id="cube-1-light-grey-panel" class="st0" d="M512.7,177.9c-17.8,29.2-35.6,58.5-53.5,87.7H354.6
				c17-28.8,34.1-57.5,51.2-86.2c0.6-1,1.7-2.3,3.3-3.5c3.6-2.7,7.6-2.7,9-2.6c29.9,0,59.9,0,89.8,0c0.3,0,2,0,3.4,1.3
				C512.6,175.9,512.7,177.6,512.7,177.9z"/>
			<path id="cube-1-black-panel" class="st1" d="M404.5,353.4c0.8,1.1,2.1,2.6,4.1,3.7c2.7,1.5,5.3,1.4,6.2,1.4
				c30.3,0,60.6,0,90.8,0c1.3-0.3,2.2-1.2,2.5-2.3c0.1-0.6,0-1.2-0.1-1.5c-16.6-29.7-33.1-59.3-49.7-89c-34.1,0-68.2,0-102.2,0
				c-0.4,0.8-0.8,1.8-1.1,3c-0.9,3.9,0.4,7.1,1.1,8.5C382.4,319.1,401.8,349.5,404.5,353.4z"/>
			<path id="cube-1-dark-grey-panel" class="st2" d="M512.6,177.6c25.3,41.2,43.5,71.5,46.7,77.9c0.9,1.7,1.9,4.1,2.6,7.1
				c0.5,2.1,1.4,6.3,0.3,11.6c-0.6,2.9-1.7,5.3-2.7,7.1c-15.3,24.3-30.7,48.7-46.1,73c-0.1,0.2-1.2,1.5-3.1,1.5
				c-2,0-3.1-1.5-3.2-1.7c-16.4-29.4-32.8-58.8-49.2-88.1C476.1,236.6,494.3,207.1,512.6,177.6z"/>
		</g>
		<g id="cube-2">
			<path id="cube-2-light-grey-panel" class="st0" d="M431.3,323.6c-17.8,29.2-35.6,58.5-53.5,87.8H273.2
				c17-28.8,34.1-57.5,51.2-86.2c0.6-1,1.7-2.3,3.3-3.5c3.6-2.7,7.6-2.7,9-2.6c29.9,0,59.9,0,89.8,0c0.3,0,2,0,3.4,1.3
				C431.2,321.6,431.2,323.2,431.3,323.6z"/>
			<path id="cube-2-black-panel" class="st1" d="M323.1,499c0.8,1.1,2.1,2.6,4.1,3.7c2.7,1.5,5.3,1.4,6.2,1.4c30.3,0,60.6,0,90.8,0
				c1.3-0.3,2.2-1.2,2.5-2.3c0.1-0.6,0-1.2-0.1-1.5c-16.6-29.7-33.1-59.3-49.7-89c-34.1,0-68.2,0-102.2,0c-0.4,0.8-0.8,1.8-1.1,3
				c-0.9,3.9,0.4,7.1,1.1,8.5C301,464.8,320.4,495.2,323.1,499z"/>
			<path id="cube-2-dark-grey-panel" class="st2" d="M431.2,323.2c25.3,41.1,43.5,71.5,46.7,77.9c0.9,1.7,1.9,4.1,2.6,7.1
				c0.5,2.1,1.4,6.3,0.3,11.6c-0.6,2.9-1.7,5.3-2.7,7.1c-15.4,24.3-30.7,48.7-46.1,73c-0.1,0.2-1.2,1.5-3.1,1.5
				c-2,0-3.1-1.5-3.2-1.7c-16.4-29.4-32.8-58.8-49.2-88.1C394.7,382.2,412.9,352.7,431.2,323.2z"/>
		</g>
		<g id="cube-3">
			<path id="cube-3-light-grey-panel" class="st0" d="M594.3,319.9c-17.8,29.2-35.6,58.5-53.5,87.8H436.2
				c17-28.8,34.1-57.5,51.2-86.2c0.6-1,1.7-2.3,3.3-3.5c3.6-2.7,7.6-2.7,9-2.6c29.9,0,59.9,0,89.8,0c0.3,0,2,0,3.4,1.3
				S594.3,319.6,594.3,319.9z"/>
			<path id="cube-3-black-panel" class="st1" d="M486.1,495.4c0.8,1.1,2.1,2.6,4.1,3.7c2.7,1.5,5.3,1.4,6.2,1.4
				c30.3,0,60.6,0,90.8,0c1.3-0.3,2.2-1.2,2.5-2.3c0.1-0.6,0-1.2-0.1-1.5c-16.6-29.7-33.2-59.3-49.7-89c-34.1,0-68.2,0-102.2,0
				c-0.4,0.8-0.8,1.8-1.1,3c-0.9,3.9,0.4,7.1,1.1,8.5C464,461.1,483.4,491.5,486.1,495.4z"/>
			<path id="cube-3-dark-grey-panel" class="st2" d="M594.2,319.6c25.3,41.1,43.5,71.5,46.7,77.9c0.9,1.7,1.9,4.1,2.6,7.1
				c0.5,2.1,1.4,6.3,0.3,11.6c-0.6,2.9-1.7,5.3-2.7,7.1c-15.3,24.3-30.7,48.7-46.1,73c-0.1,0.2-1.2,1.5-3.1,1.5
				c-2,0-3.1-1.5-3.2-1.7c-16.4-29.4-32.8-58.8-49.2-88.1C557.7,378.6,576,349.1,594.2,319.6z"/>
		</g>
	</g>
	<path id="ecocode-word" d="M257.8,638.5h17.9v11h-35.3v-51.4h0h35.2V609h-17.8v9.5h15.4v10.7h-15.4V638.5z M307,604.2
		c-6.3,5-9.5,11.3-9.5,19c0,8.3,3.1,14.9,9.4,20c6.2,5.1,14.4,7.6,24.5,7.6c2.9,0,6.2-0.4,9.9-1.2v-12.2c-3.3,0.8-6.2,1.2-8.6,1.2
		c-5,0-9-1.3-12-4s-4.5-6.3-4.5-11c0-4.3,1.5-7.8,4.5-10.6c3-2.8,6.7-4.2,11.2-4.2c3,0,6.1,0.4,9.4,1.1v-12.2c-3.1-0.7-6.6-1-10.3-1
		C321.3,596.7,313.4,599.2,307,604.2z M417.1,623.5c0,8.6-2.4,15.3-7.3,20.1c-4.8,4.8-11.7,7.1-20.7,7.1c-9.3,0-16.3-2.4-21.2-7.1
		c-4.9-4.8-7.3-11.6-7.3-20.6c0-8.3,2.4-14.7,7.3-19.4s11.7-7,20.4-7c9.3,0,16.4,2.3,21.3,7C414.6,608.3,417.1,614.9,417.1,623.5z
		 M398.5,623.4c0-10-3.3-15-10-15c-6.3,0-9.4,4.9-9.4,14.8c0,6.4,0.8,10.6,2.4,12.7c1.6,2.1,3.9,3.2,6.9,3.2c3.2,0,5.8-1.1,7.5-3.2
		S398.5,629.6,398.5,623.4z M447.6,604.2c-6.3,5-9.5,11.3-9.5,19c0,8.3,3.1,14.9,9.4,20c6.2,5.1,14.4,7.6,24.5,7.6
		c2.9,0,6.2-0.4,9.9-1.2v-12.2c-3.3,0.8-6.2,1.2-8.6,1.2c-5,0-9-1.3-12-4s-4.5-6.3-4.5-11c0-4.3,1.5-7.8,4.5-10.6s6.7-4.2,11.2-4.2
		c3,0,6.1,0.4,9.4,1.1v-12.2c-3.1-0.7-6.6-1-10.3-1C461.9,596.7,453.9,599.2,447.6,604.2z M557.6,623.5c0,8.6-2.4,15.3-7.3,20.1
		c-4.8,4.8-11.7,7.1-20.7,7.1c-9.3,0-16.3-2.4-21.2-7.1c-4.9-4.8-7.3-11.6-7.3-20.6c0-8.3,2.4-14.7,7.3-19.4s11.7-7,20.4-7
		c9.3,0,16.4,2.3,21.3,7S557.6,614.9,557.6,623.5z M539,623.4c0-10-3.3-15-10-15c-6.3,0-9.4,4.9-9.4,14.8c0,6.4,0.8,10.6,2.4,12.7
		s3.9,3.2,6.9,3.2c3.2,0,5.8-1.1,7.5-3.2S539,629.6,539,623.4z M632.8,623.4c0,6.3-1.4,11.3-4.3,15.2s-6.9,6.6-12.1,8.3
		c-5.2,1.7-10.9,2.6-17.2,2.6h-17v-51.4h16.2c11.2,0,19.8,2.2,25.7,6.5C629.9,608.8,632.8,615.1,632.8,623.4z M614,623.9
		c0-3-0.4-5.5-1.2-7.6s-1.9-3.7-3.4-4.8c-1.5-1.1-3-1.8-4.4-2.1c-1.4-0.2-3.3-0.4-5.5-0.5v29.5c5.3-0.3,9-1.6,11.2-3.8
		S614,629,614,623.9z M653.2,596.7v11.5H671v10h-15.5v11.2H671v9.8h-18v11.5h35.4v-54H653.2z"/>
</g>
</svg>
