<?xml version="1.0" encoding="utf-8"?>
<!-- Generator: Adobe Illustrator 24.3.0, SVG Export Plug-In . SVG Version: 6.00 Build 0)  -->
<svg version="1.1" id="ecocode-logo" xmlns="http://www.w3.org/2000/svg" xmlns:xlink="http://www.w3.org/1999/xlink" x="0px"
	 y="0px" viewBox="0 0 864 864" style="enable-background:new 0 0 864 864;" xml:space="preserve">
<style type="text/css">
	.st0{fill:#D7D5D5;}
	.st1{fill:#050606;}
	.st2{fill:#666767;}
</style>
<g id="ecocode-logo-parts">
	<g id="cubes">
		<g id="cube-1">
			<path id="cube-1-light-grey-panel" class="st0" d="M512.68,177.92c-17.82,29.25-35.64,58.5-53.46,87.75H354.6
				c17.05-28.75,34.1-57.49,51.16-86.24c0.65-1.01,1.69-2.32,3.27-3.48c3.63-2.66,7.62-2.69,9.04-2.64c29.94,0,59.87,0,89.81,0
				c0.32,0,1.99,0.01,3.37,1.32C512.62,175.94,512.67,177.61,512.68,177.92z"/>
			<path id="cube-1-black-panel" class="st1" d="M404.53,353.4c0.78,1.09,2.08,2.63,4.13,3.74c2.7,1.46,5.32,1.42,6.19,1.42
				c30.28,0,60.56,0,90.84,0c1.26-0.34,2.21-1.22,2.45-2.32c0.14-0.65-0.01-1.22-0.13-1.55c-16.58-29.66-33.15-59.32-49.73-88.98
				c-34.08,0-68.16,0-102.24,0c-0.41,0.8-0.81,1.79-1.06,2.95c-0.85,3.85,0.41,7.1,1.06,8.52
				C382.37,319.11,401.77,349.55,404.53,353.4z"/>
			<path id="cube-1-dark-grey-panel" class="st2" d="M512.58,177.58c25.28,41.15,43.45,71.54,46.71,77.94
				c0.88,1.73,1.91,4.13,2.58,7.1c0.47,2.09,1.38,6.34,0.26,11.61c-0.62,2.9-1.68,5.28-2.71,7.1
				c-15.35,24.34-30.71,48.69-46.06,73.03c-0.13,0.16-1.21,1.54-3.1,1.55c-2,0.01-3.13-1.54-3.23-1.68
				c-16.39-29.38-32.77-58.75-49.16-88.13C476.11,236.59,494.34,207.09,512.58,177.58z"/>
		</g>
		<g id="cube-2">
			<path id="cube-2-light-grey-panel" class="st0" d="M431.26,323.56c-17.82,29.25-35.64,58.5-53.46,87.75H273.18
				c17.05-28.75,34.1-57.49,51.16-86.24c0.65-1.01,1.69-2.32,3.27-3.48c3.63-2.66,7.62-2.69,9.04-2.64c29.94,0,59.87,0,89.81,0
				c0.32,0,1.99,0.01,3.37,1.32C431.21,321.59,431.25,323.25,431.26,323.56z"/>
			<path id="cube-2-black-panel" class="st1" d="M323.11,499.05c0.78,1.09,2.08,2.63,4.13,3.74c2.7,1.46,5.32,1.42,6.19,1.42
				c30.28,0,60.56,0,90.84,0c1.26-0.34,2.21-1.22,2.45-2.32c0.14-0.65-0.01-1.22-0.13-1.55c-16.58-29.66-33.15-59.32-49.73-88.98
				c-34.08,0-68.16,0-102.24,0c-0.41,0.8-0.81,1.79-1.06,2.95c-0.85,3.85,0.41,7.1,1.06,8.52
				C300.95,464.76,320.36,495.2,323.11,499.05z"/>
			<path id="cube-2-dark-grey-panel" class="st2" d="M431.16,323.23c25.28,41.15,43.45,71.54,46.71,77.94
				c0.88,1.73,1.91,4.13,2.58,7.1c0.47,2.09,1.38,6.34,0.26,11.61c-0.62,2.9-1.68,5.28-2.71,7.1
				c-15.35,24.34-30.71,48.69-46.06,73.03c-0.13,0.16-1.21,1.54-3.1,1.55c-2,0.01-3.13-1.54-3.23-1.68
				c-16.39-29.38-32.77-58.75-49.16-88.13C394.69,382.24,412.92,352.73,431.16,323.23z"/>
		</g>
		<g id="cube-3">
			<path id="cube-3-light-grey-panel" class="st0" d="M594.29,319.92c-17.82,29.25-35.64,58.5-53.46,87.75H436.21
				c17.05-28.75,34.1-57.49,51.16-86.24c0.65-1.01,1.69-2.32,3.27-3.48c3.63-2.66,7.62-2.69,9.04-2.64c29.94,0,59.87,0,89.81,0
				c0.32,0,1.99,0.01,3.37,1.32C594.24,317.94,594.29,319.61,594.29,319.92z"/>
			<path id="cube-3-black-panel" class="st1" d="M486.15,495.4c0.78,1.09,2.08,2.63,4.13,3.74c2.7,1.46,5.32,1.42,6.19,1.42
				c30.28,0,60.56,0,90.84,0c1.26-0.34,2.21-1.22,2.45-2.32c0.14-0.65-0.01-1.22-0.13-1.55c-16.58-29.66-33.15-59.32-49.73-88.98
				c-34.08,0-68.16,0-102.24,0c-0.41,0.8-0.81,1.79-1.06,2.95c-0.85,3.85,0.41,7.1,1.06,8.52
				C463.99,461.11,483.39,491.55,486.15,495.4z"/>
			<path id="cube-3-dark-grey-panel" class="st2" d="M594.19,319.58c25.28,41.15,43.45,71.54,46.71,77.94
				c0.88,1.73,1.91,4.13,2.58,7.1c0.47,2.09,1.38,6.34,0.26,11.61c-0.62,2.9-1.68,5.28-2.71,7.1
				c-15.35,24.34-30.71,48.69-46.06,73.03c-0.13,0.16-1.21,1.54-3.1,1.55c-2,0.01-3.13-1.54-3.23-1.68
				c-16.39-29.38-32.77-58.75-49.16-88.13C557.72,378.59,575.96,349.09,594.19,319.58z"/>
		</g>
	</g>
	<g id="ecocode-letters">
		<path id="ecocode-letter-e-1" d="M240.43,598.1h35.17v10.93h-17.79v9.46h15.44v10.66h-15.44v9.35h17.9v10.97h-35.29V598.1z"/>
		<path id="ecocode-letter-c-1" d="M341.29,637.35v12.2c-3.67,0.79-6.96,1.19-9.87,1.19c-10.06,0-18.22-2.53-24.47-7.6
			c-6.25-5.07-9.38-11.73-9.38-19.99c0-7.67,3.16-14,9.47-18.99c6.31-4.99,14.29-7.48,23.93-7.48c3.75,0,7.19,0.33,10.33,1v12.24
			c-3.33-0.74-6.46-1.12-9.41-1.12c-4.51,0-8.26,1.39-11.25,4.16c-2.98,2.77-4.48,6.3-4.48,10.58c0,4.62,1.5,8.27,4.5,10.95
			c3,2.68,7.01,4.02,12.02,4.02C335.13,638.51,338,638.12,341.29,637.35z"/>
		<path id="ecocode-letter-o-1" d="M389.13,650.74c-9.26,0-16.32-2.38-21.17-7.14c-4.86-4.76-7.29-11.63-7.29-20.61
			c0-8.29,2.44-14.74,7.32-19.37c4.88-4.63,11.68-6.95,20.4-6.95c9.3,0,16.4,2.32,21.32,6.96c4.92,4.64,7.37,11.27,7.37,19.89
			s-2.42,15.31-7.26,20.07C404.97,648.36,398.08,650.74,389.13,650.74z M388.5,608.34c-6.27,0-9.41,4.94-9.41,14.81
			c0,6.36,0.79,10.61,2.38,12.74c1.59,2.13,3.89,3.19,6.91,3.19c3.25,0,5.75-1.06,7.49-3.19c1.74-2.13,2.61-6.3,2.61-12.5
			C398.48,613.35,395.15,608.34,388.5,608.34z"/>
		<path id="ecocode-letter-c-2" d="M481.84,637.35v12.2c-3.67,0.79-6.96,1.19-9.87,1.19c-10.06,0-18.22-2.53-24.47-7.6
			c-6.25-5.07-9.38-11.73-9.38-19.99c0-7.67,3.16-14,9.47-18.99c6.31-4.99,14.29-7.48,23.93-7.48c3.75,0,7.19,0.33,10.33,1v12.24
			c-3.33-0.74-6.46-1.12-9.41-1.12c-4.51,0-8.26,1.39-11.25,4.16s-4.48,6.3-4.48,10.58c0,4.62,1.5,8.27,4.5,10.95
			c3,2.68,7.01,4.02,12.02,4.02C475.68,638.51,478.55,638.12,481.84,637.35z"/>
		<path id="ecocode-letter-o-2" d="M529.68,650.74c-9.26,0-16.32-2.38-21.17-7.14c-4.86-4.76-7.29-11.63-7.29-20.61
			c0-8.29,2.44-14.74,7.32-19.37c4.88-4.63,11.68-6.95,20.4-6.95c9.3,0,16.4,2.32,21.32,6.96c4.92,4.64,7.37,11.27,7.37,19.89
			s-2.42,15.31-7.26,20.07C545.52,648.36,538.63,650.74,529.68,650.74z M529.05,608.34c-6.27,0-9.41,4.94-9.41,14.81
			c0,6.36,0.79,10.61,2.38,12.74c1.59,2.13,3.89,3.19,6.91,3.19c3.25,0,5.75-1.06,7.49-3.19c1.74-2.13,2.61-6.3,2.61-12.5
			C539.03,613.35,535.7,608.34,529.05,608.34z"/>
		<path id="ecocode-letter-d" d="M582.17,598.1h16.24c11.25,0,19.8,2.15,25.65,6.45c5.85,4.3,8.78,10.58,8.78,18.84
			c0,6.26-1.44,11.31-4.33,15.16c-2.89,3.85-6.92,6.63-12.11,8.35c-5.18,1.72-10.91,2.58-17.18,2.58h-17.04V598.1z M599.55,609.03
			v29.47c5.28-0.31,9.01-1.56,11.19-3.75s3.27-5.8,3.27-10.83c0-2.98-0.38-5.5-1.15-7.56c-0.77-2.06-1.9-3.66-3.41-4.77
			c-1.51-1.12-2.98-1.8-4.42-2.06C603.6,609.28,601.77,609.11,599.55,609.03z"/>
		<path id="ecocode-letter-e-2" d="M688.5,650.75h-35.44v-11.53h17.98v-9.83h-15.5v-11.21h15.5v-9.95h-17.87v-11.49h35.33V650.75z"
			/>
	</g>
</g>
<g>
</g>
<g>
</g>
<g>
</g>
<g>
</g>
<g>
</g>
<g>
</g>
</svg>
