<?xml version="1.0" encoding="utf-8"?>
<!-- Generator: Adobe Illustrator 24.3.0, SVG Export Plug-In . SVG Version: 6.00 Build 0)  -->
<svg version="1.1" id="fifthflour-logo" xmlns="http://www.w3.org/2000/svg" xmlns:xlink="http://www.w3.org/1999/xlink" x="0px"
	 y="0px" viewBox="0 0 864 864" style="enable-background:new 0 0 864 864;" xml:space="preserve">
<path id="fifthflour-logo-combined" d="M396.74,479.55h-56.9v-26.71h56.9V479.55z M494.29,399.06h-41.81v80.9h41.81V399.06z
	 M464.48,287.81h-26.71v105.68h0.03v86.39h5.03v-86.39h21.65V287.81z M422.61,479.81h5.42V336.58h0.06v-56.77h10.26v-45.42h-10.32
	v-30.71h-5.42v30.71h-14.97v44.9v0.52v56.77h14.97V479.81z M405.26,479.81h6.71v-33.68h-0.02v-97.78h-22.39v97.81h15.69V479.81z
	 M186.59,526.52h-3.9v54.63h10.68v-21.68h22.26v-9.92h-22.26v-13.11h26.55v-9.92h-26.55H186.59z M229.73,581.16h11.07v-54.63h-11.07
	V581.16z M265.58,559.48h22.26v-9.92h-22.26v-13.11h26.55v-9.92h-26.55h-6.78h-3.9v54.63h10.68V559.48z M339.99,536.44v-9.92h-41.57
	v9.92h15.44v44.71h10.68v-44.71H339.99z M390.35,581.16v-54.63h-10.68v22.58h-20.35v-22.58h-10.68v54.63h10.68v-22.13h20.35v22.13
	H390.35z M409.12,526.52h-3.9v54.63h10.68v-21.68h22.26v-9.92h-22.26v-13.11h26.55v-9.92h-26.55H409.12z M453.04,526.52v54.63h4.76
	h5.93h27.29v-9.92h-27.29v-44.71H453.04z M519.19,581.72c-4.11,0-7.73-0.83-10.86-2.5s-5.56-4.02-7.27-7.06
	c-1.72-3.04-2.57-6.57-2.57-10.58V546.1c0-4.01,0.86-7.53,2.57-10.58c1.72-3.04,4.14-5.4,7.27-7.06c3.13-1.67,6.75-2.5,10.86-2.5
	s7.73,0.83,10.86,2.5c3.13,1.67,5.56,4.02,7.27,7.06c1.71,3.04,2.57,6.57,2.57,10.58v15.48c0,4.01-0.86,7.53-2.57,10.58
	c-1.72,3.04-4.14,5.4-7.27,7.06C526.92,580.89,523.3,581.72,519.19,581.72z M514.12,570.24c1.46,0.79,3.14,1.18,5.07,1.18
	s3.61-0.39,5.07-1.18c1.46-0.79,2.58-1.91,3.37-3.36c0.79-1.45,1.19-3.13,1.19-5.03v-16.01c0-1.9-0.4-3.58-1.19-5.03
	c-0.79-1.45-1.92-2.57-3.37-3.36c-1.46-0.79-3.15-1.18-5.07-1.18s-3.61,0.39-5.07,1.18c-1.46,0.79-2.58,1.91-3.37,3.36
	c-0.79,1.45-1.19,3.13-1.19,5.03v16.01c0,1.9,0.4,3.58,1.19,5.03C511.54,568.33,512.67,569.45,514.12,570.24z M581.98,561.66
	c0,3.13-0.88,5.56-2.63,7.29c-1.75,1.73-4.23,2.59-7.43,2.59c-3.17,0-5.63-0.86-7.37-2.59c-1.74-1.73-2.61-4.16-2.61-7.29v-35.13
	h-10.68v34.87c0,4.28,0.81,7.95,2.42,10.99c1.61,3.04,3.96,5.36,7.06,6.95s6.82,2.39,11.19,2.39c4.37,0,8.1-0.79,11.21-2.39
	c3.11-1.59,5.47-3.91,7.1-6.95c1.62-3.04,2.44-6.71,2.44-10.99v-34.87h-10.68V561.66z M623.15,559.18h-6.48v21.98h-10.68v-54.67
	h4.25h6.43h14.15c3.12,0,5.86,0.68,8.23,2.03s4.2,3.26,5.5,5.73c1.3,2.47,1.95,5.33,1.95,8.58c0,3.26-0.65,6.12-1.95,8.59
	c-1.3,2.47-3.14,4.38-5.52,5.73c-1.15,0.66-2.39,1.15-3.71,1.49l13.55,22.52h-12.95L623.15,559.18z M616.67,549.26h13.3
	c1.09,0,2.05-0.26,2.89-0.79c0.83-0.53,1.47-1.28,1.93-2.25c0.45-0.98,0.7-2.1,0.72-3.38c0-1.28-0.23-2.4-0.68-3.38
	c-0.46-0.98-1.1-1.73-1.93-2.25c-0.83-0.53-1.81-0.79-2.92-0.79h-13.3V549.26z M271.99,617.25c-1.03,0-1.98,0.28-2.83,0.84
	c-0.68,0.44-1.26,1.04-1.74,1.77v-2.36h-3.44v16.86h3.44v-10.67c0-1.03,0.3-1.83,0.9-2.41s1.45-0.87,2.54-0.87
	c0.61,0,1.14,0.09,1.6,0.28c0.46,0.18,0.84,0.45,1.15,0.81l2.24-2.92c-0.48-0.43-1.05-0.76-1.69-0.98
	C273.51,617.36,272.79,617.25,271.99,617.25z M292.39,621.36c0.54,1.33,0.82,2.93,0.82,4.79v1.1h-11.01
	c0.03,1.32,0.4,2.35,1.14,3.07c0.76,0.75,1.85,1.12,3.25,1.12c0.7,0,1.39-0.14,2.07-0.41s1.3-0.65,1.84-1.14l2.26,2.18
	c-0.87,0.8-1.84,1.42-2.92,1.86c-1.08,0.44-2.16,0.66-3.25,0.66c-1.62,0-3-0.29-4.15-0.88c-1.15-0.58-2.02-1.44-2.62-2.57
	c-0.6-1.13-0.9-2.5-0.9-4.1v-1.9c0-1.67,0.29-3.09,0.87-4.27c0.58-1.18,1.42-2.08,2.52-2.7c1.1-0.62,2.43-0.93,3.98-0.93
	c1.46,0,2.71,0.35,3.74,1.06C291.06,619.01,291.85,620.03,292.39,621.36z M289.94,624.59c-0.1-1.38-0.47-2.44-1.1-3.21
	c-0.64-0.76-1.49-1.14-2.55-1.14c-1.3,0-2.31,0.41-3.03,1.23c-0.65,0.75-0.99,1.8-1.05,3.12H289.94z M311.3,620.13
	c0.54,0.94,0.81,2.07,0.81,3.39v10.83h-3.27v-1.32c-0.23,0.26-0.48,0.5-0.77,0.69c-0.44,0.29-0.96,0.51-1.54,0.66
	s-1.24,0.22-1.97,0.22c-2.16,0-3.77-0.43-4.84-1.29c-1.07-0.86-1.6-2.17-1.6-3.92c0-1.67,0.49-2.92,1.47-3.75s2.46-1.25,4.43-1.25
	h4.82v-0.71c0-1.1-0.31-1.96-0.92-2.57c-0.61-0.61-1.48-0.92-2.6-0.92c-0.7,0-1.38,0.1-2.05,0.31c-0.67,0.21-1.26,0.49-1.78,0.86
	l-2.51-1.66c0.66-0.77,1.54-1.37,2.62-1.79s2.29-0.64,3.62-0.64c1.45,0,2.69,0.25,3.73,0.74
	C309.98,618.48,310.76,619.2,311.3,620.13z M308.84,630.23v-3.18h-4.8c-0.9,0-1.57,0.19-2.01,0.58c-0.44,0.38-0.67,0.97-0.67,1.76
	c0,0.86,0.29,1.49,0.88,1.9c0.59,0.41,1.49,0.62,2.69,0.62c1.31,0,2.29-0.13,2.94-0.41C308.52,631.23,308.84,630.8,308.84,630.23z
	 M322.09,630.95c-0.19-0.22-0.28-0.54-0.28-0.95v-19.26h-3.44v19.23c0,1.42,0.36,2.52,1.07,3.3c0.71,0.78,1.72,1.17,3.03,1.17h2.02
	v-3.15h-1.62C322.54,631.29,322.28,631.18,322.09,630.95z M352.68,621.36c0.54,1.33,0.82,2.93,0.82,4.79v1.1h-11.01
	c0.03,1.32,0.4,2.35,1.14,3.07c0.76,0.75,1.85,1.12,3.25,1.12c0.7,0,1.39-0.14,2.07-0.41s1.3-0.65,1.84-1.14l2.26,2.18
	c-0.87,0.8-1.84,1.42-2.92,1.86c-1.08,0.44-2.16,0.66-3.25,0.66c-1.62,0-3-0.29-4.15-0.88c-1.15-0.58-2.02-1.44-2.62-2.57
	c-0.6-1.13-0.9-2.5-0.9-4.1v-1.9c0-1.67,0.29-3.09,0.87-4.27c0.58-1.18,1.42-2.08,2.52-2.7c1.1-0.62,2.43-0.93,3.98-0.93
	c1.46,0,2.71,0.35,3.74,1.06C351.35,619.01,352.14,620.03,352.68,621.36z M350.23,624.59c-0.1-1.38-0.47-2.44-1.1-3.21
	c-0.64-0.76-1.49-1.14-2.55-1.14c-1.3,0-2.31,0.41-3.03,1.23c-0.65,0.75-0.99,1.8-1.05,3.12H350.23z M369.73,624.72
	c-0.86-0.24-1.9-0.39-3.13-0.47c-0.03-0.01-0.07-0.02-0.1-0.02s-0.07,0-0.1,0c-0.08-0.01-0.15-0.02-0.23-0.02s-0.14-0.01-0.21-0.02
	c-0.93-0.05-1.65-0.12-2.16-0.19c-0.51-0.08-0.92-0.23-1.26-0.46c-0.33-0.23-0.5-0.57-0.5-1.02c0-0.77,0.29-1.35,0.88-1.73
	c0.58-0.38,1.46-0.58,2.63-0.58c0.81,0,1.64,0.14,2.49,0.41s1.71,0.68,2.59,1.22l2.07-2.42c-0.7-0.49-1.42-0.89-2.17-1.21
	s-1.54-0.56-2.37-0.72c-0.83-0.16-1.69-0.24-2.6-0.24c-1.51,0-2.76,0.2-3.76,0.59c-1,0.4-1.75,0.99-2.26,1.78
	c-0.51,0.79-0.76,1.78-0.76,2.97c0,1.19,0.26,2.11,0.78,2.75c0.52,0.64,1.18,1.08,1.96,1.31c0.79,0.23,1.75,0.39,2.88,0.48
	c0.04,0,0.09,0,0.13,0.01c0.04,0.01,0.09,0.01,0.13,0.01c0.09,0.01,0.19,0.02,0.29,0.02c0.1,0,0.2,0.01,0.29,0.01
	c1,0.08,1.78,0.16,2.33,0.25c0.55,0.09,1.01,0.27,1.38,0.54c0.37,0.27,0.56,0.68,0.56,1.22c0,0.81-0.34,1.42-1.02,1.83
	c-0.68,0.41-1.7,0.61-3.06,0.61c-0.91,0-1.83-0.17-2.76-0.52c-0.93-0.35-1.87-0.87-2.82-1.56l-2.04,2.42
	c0.66,0.58,1.39,1.07,2.17,1.46c0.79,0.39,1.63,0.68,2.54,0.88s1.87,0.29,2.91,0.29c1.64,0,3-0.2,4.09-0.6s1.9-1,2.44-1.79
	c0.54-0.8,0.81-1.8,0.81-3.01c0-1.33-0.29-2.35-0.88-3.05C371.31,625.43,370.59,624.96,369.73,624.72z M382.09,612.59h-3.44v4.91
	h-1.8v2.99h1.8v9.49c0,1.47,0.33,2.59,0.99,3.34c0.66,0.75,1.69,1.13,3.11,1.13h1.99v-3.15h-1.65c-0.33,0-0.57-0.11-0.74-0.33
	c-0.17-0.22-0.25-0.54-0.25-0.95v-9.52h2.65v-2.99h-2.65V612.59z M402.83,620.13c0.54,0.94,0.81,2.07,0.81,3.39v10.83h-3.27v-1.32
	c-0.23,0.26-0.48,0.5-0.77,0.69c-0.44,0.29-0.96,0.51-1.54,0.66s-1.24,0.22-1.97,0.22c-2.16,0-3.77-0.43-4.84-1.29
	c-1.07-0.86-1.6-2.17-1.6-3.92c0-1.67,0.49-2.92,1.47-3.75s2.46-1.25,4.43-1.25h4.82v-0.71c0-1.1-0.31-1.96-0.92-2.57
	c-0.61-0.61-1.48-0.92-2.6-0.92c-0.7,0-1.38,0.1-2.05,0.31c-0.67,0.21-1.26,0.49-1.78,0.86l-2.51-1.66
	c0.66-0.77,1.54-1.37,2.62-1.79s2.29-0.64,3.62-0.64c1.45,0,2.69,0.25,3.73,0.74C401.5,618.48,402.29,619.2,402.83,620.13z
	 M400.37,630.23v-3.18h-4.8c-0.9,0-1.57,0.19-2.01,0.58c-0.44,0.38-0.67,0.97-0.67,1.76c0,0.86,0.29,1.49,0.88,1.9
	c0.59,0.41,1.49,0.62,2.69,0.62c1.31,0,2.29-0.13,2.94-0.41C400.04,631.23,400.37,630.8,400.37,630.23z M413.79,612.59h-3.44v4.91
	h-1.8v2.99h1.8v9.49c0,1.47,0.33,2.59,0.99,3.34c0.66,0.75,1.69,1.13,3.11,1.13h1.99v-3.15h-1.65c-0.33,0-0.57-0.11-0.74-0.33
	c-0.17-0.22-0.25-0.54-0.25-0.95v-9.52h2.65v-2.99h-2.65V612.59z M435.17,621.36c0.54,1.33,0.82,2.93,0.82,4.79v1.1h-11.01
	c0.03,1.32,0.4,2.35,1.14,3.07c0.76,0.75,1.85,1.12,3.25,1.12c0.7,0,1.39-0.14,2.07-0.41s1.3-0.65,1.84-1.14l2.26,2.18
	c-0.87,0.8-1.84,1.42-2.92,1.86c-1.08,0.44-2.16,0.66-3.25,0.66c-1.62,0-3-0.29-4.15-0.88c-1.15-0.58-2.02-1.44-2.62-2.57
	c-0.6-1.13-0.9-2.5-0.9-4.1v-1.9c0-1.67,0.29-3.09,0.87-4.27c0.58-1.18,1.42-2.08,2.52-2.7c1.1-0.62,2.43-0.93,3.98-0.93
	c1.46,0,2.71,0.35,3.74,1.06C433.83,619.01,434.62,620.03,435.17,621.36z M432.71,624.59c-0.1-1.38-0.47-2.44-1.1-3.21
	c-0.64-0.76-1.49-1.14-2.55-1.14c-1.3,0-2.31,0.41-3.03,1.23c-0.65,0.75-0.99,1.8-1.05,3.12H432.71z M465.02,621.36
	c0.54,1.33,0.82,2.93,0.82,4.79v1.1h-11.01c0.03,1.32,0.4,2.35,1.13,3.07c0.76,0.75,1.85,1.12,3.25,1.12c0.7,0,1.39-0.14,2.07-0.41
	s1.3-0.65,1.84-1.14l2.26,2.18c-0.87,0.8-1.84,1.42-2.92,1.86c-1.08,0.44-2.16,0.66-3.25,0.66c-1.62,0-3-0.29-4.15-0.88
	c-1.15-0.58-2.02-1.44-2.62-2.57c-0.6-1.13-0.9-2.5-0.9-4.1v-1.9c0-1.67,0.29-3.09,0.87-4.27c0.58-1.18,1.42-2.08,2.52-2.7
	c1.1-0.62,2.43-0.93,3.98-0.93c1.46,0,2.71,0.35,3.74,1.06C463.68,619.01,464.47,620.03,465.02,621.36z M462.56,624.59
	c-0.1-1.38-0.47-2.44-1.1-3.21s-1.49-1.14-2.55-1.14c-1.3,0-2.31,0.41-3.03,1.23c-0.65,0.75-0.99,1.8-1.05,3.12H462.56z
	 M484.87,617.5h-3.83l-3.7,5.79l-3.85-5.79h-3.83l5.81,8.3l-6.08,8.56h3.81l4.15-5.83l3.97,5.83h3.81l-6.01-8.44L484.87,617.5z
	 M503.17,620.4c0.46,1.03,0.69,2.27,0.69,3.72v3.67c0,1.43-0.24,2.65-0.71,3.67c-0.47,1.02-1.16,1.79-2.07,2.33s-2,0.8-3.27,0.8
	c-1.09,0-2.04-0.25-2.85-0.76c-0.66-0.41-1.17-0.97-1.55-1.67v9.03h-3.44V617.5h3.44v2.26c0.47-0.71,1.04-1.28,1.72-1.7
	c0.85-0.54,1.8-0.8,2.85-0.8c1.24,0,2.29,0.27,3.18,0.8C502.04,618.59,502.71,619.38,503.17,620.4z M500.42,624.14
	c0-1.24-0.31-2.19-0.94-2.88c-0.62-0.68-1.5-1.02-2.64-1.02c-0.73,0-1.35,0.13-1.86,0.39s-0.9,0.64-1.17,1.14
	c-0.27,0.5-0.4,1.11-0.4,1.81v4.6c0,0.73,0.13,1.34,0.4,1.85c0.27,0.51,0.66,0.9,1.17,1.17s1.13,0.41,1.86,0.41
	c1.14,0,2.01-0.33,2.64-1c0.62-0.67,0.94-1.61,0.94-2.82V624.14z M522.76,621.36c0.54,1.33,0.82,2.93,0.82,4.79v1.1h-11.01
	c0.03,1.32,0.4,2.35,1.13,3.07c0.76,0.75,1.85,1.12,3.25,1.12c0.7,0,1.39-0.14,2.07-0.41s1.3-0.65,1.84-1.14l2.26,2.18
	c-0.87,0.8-1.84,1.42-2.92,1.86c-1.08,0.44-2.16,0.66-3.25,0.66c-1.62,0-3-0.29-4.15-0.88c-1.15-0.58-2.02-1.44-2.62-2.57
	c-0.6-1.13-0.9-2.5-0.9-4.1v-1.9c0-1.67,0.29-3.09,0.87-4.27c0.58-1.18,1.42-2.08,2.52-2.7c1.1-0.62,2.43-0.93,3.98-0.93
	c1.46,0,2.71,0.35,3.74,1.06C521.42,619.01,522.21,620.03,522.76,621.36z M520.3,624.59c-0.1-1.38-0.47-2.44-1.1-3.21
	s-1.49-1.14-2.55-1.14c-1.3,0-2.31,0.41-3.03,1.23c-0.65,0.75-0.99,1.8-1.05,3.12H520.3z M537.34,617.25
	c-1.03,0-1.98,0.28-2.83,0.84c-0.68,0.44-1.26,1.04-1.74,1.77v-2.36h-3.44v16.86h3.44v-10.67c0-1.03,0.3-1.83,0.9-2.41
	c0.6-0.58,1.45-0.87,2.54-0.87c0.61,0,1.14,0.09,1.6,0.28c0.46,0.18,0.84,0.45,1.15,0.81l2.24-2.92c-0.48-0.43-1.05-0.76-1.69-0.98
	S538.14,617.25,537.34,617.25z M548.99,612.59h-3.44v4.91h-1.8v2.99h1.8v9.49c0,1.47,0.33,2.59,0.99,3.34
	c0.66,0.75,1.69,1.13,3.11,1.13h1.99v-3.15h-1.65c-0.33,0-0.57-0.11-0.74-0.33c-0.17-0.22-0.25-0.54-0.25-0.95v-9.52h2.65v-2.99
	h-2.65V612.59z M567.87,624.72c-0.86-0.24-1.9-0.39-3.13-0.47c-0.03-0.01-0.07-0.02-0.1-0.02c-0.03,0-0.07,0-0.1,0
	c-0.08-0.01-0.16-0.02-0.23-0.02c-0.07,0-0.14-0.01-0.21-0.02c-0.93-0.05-1.65-0.12-2.16-0.19c-0.5-0.08-0.92-0.23-1.26-0.46
	c-0.33-0.23-0.5-0.57-0.5-1.02c0-0.77,0.29-1.35,0.88-1.73c0.58-0.38,1.46-0.58,2.63-0.58c0.81,0,1.64,0.14,2.49,0.41
	c0.85,0.27,1.71,0.68,2.59,1.22l2.07-2.42c-0.7-0.49-1.42-0.89-2.17-1.21c-0.75-0.32-1.54-0.56-2.37-0.72
	c-0.83-0.16-1.69-0.24-2.6-0.24c-1.51,0-2.76,0.2-3.76,0.59s-1.75,0.99-2.26,1.78c-0.51,0.79-0.76,1.78-0.76,2.97
	c0,1.19,0.26,2.11,0.78,2.75c0.52,0.64,1.18,1.08,1.96,1.31c0.79,0.23,1.75,0.39,2.88,0.48c0.04,0,0.09,0,0.13,0.01
	c0.04,0.01,0.09,0.01,0.13,0.01c0.09,0.01,0.19,0.02,0.29,0.02c0.1,0,0.2,0.01,0.29,0.01c1,0.08,1.78,0.16,2.33,0.25
	s1.01,0.27,1.38,0.54c0.37,0.27,0.56,0.68,0.56,1.22c0,0.81-0.34,1.42-1.02,1.83c-0.68,0.41-1.7,0.61-3.06,0.61
	c-0.91,0-1.83-0.17-2.76-0.52c-0.93-0.35-1.87-0.87-2.82-1.56l-2.04,2.42c0.66,0.58,1.39,1.07,2.17,1.46
	c0.79,0.39,1.63,0.68,2.54,0.88s1.87,0.29,2.91,0.29c1.64,0,3-0.2,4.09-0.6c1.08-0.4,1.9-1,2.44-1.79c0.54-0.8,0.81-1.8,0.81-3.01
	c0-1.33-0.29-2.35-0.88-3.05C569.45,625.43,568.73,624.96,567.87,624.72z"/>
<g>
</g>
<g>
</g>
<g>
</g>
<g>
</g>
<g>
</g>
<g>
</g>
</svg>
