<?xml version="1.0" encoding="utf-8"?>
<!-- Generator: Adobe Illustrator 24.3.0, SVG Export Plug-In . SVG Version: 6.00 Build 0)  -->
<svg version="1.1" id="fifthflour-logo" xmlns="http://www.w3.org/2000/svg" xmlns:xlink="http://www.w3.org/1999/xlink" x="0px"
	 y="0px" viewBox="0 0 864 864" style="enable-background:new 0 0 864 864;" xml:space="preserve">
<g id="fifthflour-logo-parts">
	<g id="building-logo-parts">
		<rect id="building-logo-part-1" x="339.84" y="452.84" width="56.9" height="26.71"/>
		<rect id="building-logo-part-5" x="452.48" y="399.06" width="41.81" height="80.9"/>
		<polygon id="building-logo-part-4" points="464.48,287.81 437.77,287.81 437.77,393.48 437.81,393.48 437.81,479.87 
			442.84,479.87 442.84,393.48 464.48,393.48 		"/>
		<polygon id="building-logo-part-3" points="438.35,234.39 428.03,234.39 428.03,203.68 422.61,203.68 422.61,234.39 
			407.65,234.39 407.65,279.29 407.65,279.81 407.65,336.58 422.61,336.58 422.61,479.81 428.03,479.81 428.03,336.58 428.1,336.58 
			428.1,279.81 438.35,279.81 		"/>
		<polygon id="building-logo-part-2" points="411.95,446.13 411.95,348.35 389.56,348.35 389.56,446.15 405.26,446.15 
			405.26,479.81 411.97,479.81 411.97,446.13 		"/>
	</g>
	<g id="fifthflour-letters">
		<path id="fifthflour-letter-f-1" d="M182.69,526.52h10.68v54.63h-10.68V526.52z M186.59,526.52h33.34v9.92h-33.34V526.52z
			 M186.59,549.56h29.05v9.92h-29.05V549.56z"/>
		<path id="fifthflour-letter-i" d="M240.8,581.16h-11.07v-54.63h11.07V581.16z"/>
		<path id="fifthflour-letter-f-2" d="M254.9,526.52h10.68v54.63H254.9V526.52z M258.8,526.52h33.34v9.92H258.8V526.52z
			 M258.8,549.56h29.05v9.92H258.8V549.56z"/>
		<path id="fifthflour-letter-t" d="M298.43,526.52h41.57v9.92h-41.57V526.52z M313.87,531h10.68v50.16h-10.68V531z"/>
		<path id="fifthflour-letter-h" d="M348.63,526.52h10.68v54.63h-10.68V526.52z M353.58,549.11h33.03v9.92h-33.03V549.11z
			 M379.67,526.52h10.68v54.63h-10.68V526.52z"/>
		<path id="fifthflour-letter-f-3" d="M405.22,526.52h10.68v54.63h-10.68V526.52z M409.12,526.52h33.34v9.92h-33.34V526.52z
			 M409.12,549.56h29.05v9.92h-29.05V549.56z"/>
		<path id="fifthflour-letter-l" d="M453.04,526.52h10.68v54.63h-10.68V526.52z M457.8,571.24h33.22v9.92H457.8V571.24z"/>
		<path id="fifthflour-letter-o" d="M508.33,579.22c-3.13-1.67-5.56-4.02-7.27-7.06c-1.72-3.04-2.57-6.57-2.57-10.58V546.1
			c0-4.01,0.86-7.53,2.57-10.58c1.72-3.04,4.14-5.4,7.27-7.06c3.13-1.67,6.75-2.5,10.86-2.5s7.73,0.83,10.86,2.5
			c3.13,1.67,5.56,4.02,7.27,7.06c1.71,3.04,2.57,6.57,2.57,10.58v15.48c0,4.01-0.86,7.53-2.57,10.58c-1.72,3.04-4.14,5.4-7.27,7.06
			c-3.13,1.67-6.75,2.5-10.86,2.5S511.46,580.89,508.33,579.22z M524.26,570.24c1.46-0.79,2.58-1.91,3.37-3.36
			c0.79-1.45,1.19-3.13,1.19-5.03v-16.01c0-1.9-0.4-3.58-1.19-5.03c-0.79-1.45-1.92-2.57-3.37-3.36c-1.46-0.79-3.15-1.18-5.07-1.18
			s-3.61,0.39-5.07,1.18c-1.46,0.79-2.58,1.91-3.37,3.36c-0.79,1.45-1.19,3.13-1.19,5.03v16.01c0,1.9,0.4,3.58,1.19,5.03
			c0.79,1.45,1.92,2.57,3.37,3.36c1.46,0.79,3.14,1.18,5.07,1.18S522.8,571.03,524.26,570.24z"/>
		<path id="fifthflour-letter-u" d="M560.73,579.33c-3.09-1.59-5.45-3.91-7.06-6.95c-1.61-3.04-2.42-6.71-2.42-10.99v-34.87h10.68
			v35.13c0,3.13,0.87,5.56,2.61,7.29c1.74,1.73,4.2,2.59,7.37,2.59c3.2,0,5.67-0.86,7.43-2.59c1.75-1.73,2.63-4.16,2.63-7.29v-35.13
			h10.68v34.87c0,4.28-0.81,7.95-2.44,10.99c-1.62,3.04-3.99,5.36-7.1,6.95c-3.11,1.59-6.84,2.39-11.21,2.39
			C567.56,581.72,563.83,580.92,560.73,579.33z"/>
		<path id="fifthflour-letter-r" d="M605.98,526.49h10.68v54.67h-10.68V526.49z M610.23,549.26h19.73c1.09,0,2.05-0.26,2.89-0.79
			c0.83-0.53,1.47-1.28,1.93-2.25c0.45-0.98,0.7-2.1,0.72-3.38c0-1.28-0.23-2.4-0.68-3.38c-0.46-0.98-1.1-1.73-1.93-2.25
			c-0.83-0.53-1.81-0.79-2.92-0.79h-19.73v-9.92h20.59c3.12,0,5.86,0.68,8.23,2.03s4.2,3.26,5.5,5.73c1.3,2.47,1.95,5.33,1.95,8.58
			c0,3.26-0.65,6.12-1.95,8.59c-1.3,2.47-3.14,4.38-5.52,5.73c-2.38,1.35-5.11,2.03-8.21,2.03h-20.59V549.26z M622.16,557.49
			l11.42-1.73l15.29,25.4h-12.95L622.16,557.49z"/>
	</g>
	<g id="real-letters">
		<path id="real-letter-r" d="M263.99,617.5h3.44v16.86h-3.44V617.5z M272.47,620.68c-0.46-0.18-0.99-0.28-1.6-0.28
			c-1.09,0-1.94,0.29-2.54,0.87s-0.9,1.38-0.9,2.41l-0.35-3.25c0.54-1.01,1.24-1.79,2.09-2.35s1.8-0.84,2.83-0.84
			c0.8,0,1.52,0.11,2.17,0.33c0.65,0.22,1.21,0.55,1.69,0.98l-2.24,2.92C273.31,621.13,272.93,620.86,272.47,620.68z"/>
		<path id="real-letter-e_1_" d="M282.44,633.72c-1.15-0.58-2.02-1.44-2.62-2.57c-0.6-1.13-0.9-2.5-0.9-4.1v-1.9
			c0-1.67,0.29-3.09,0.87-4.27c0.58-1.18,1.42-2.08,2.52-2.7c1.1-0.62,2.43-0.93,3.98-0.93c1.46,0,2.71,0.35,3.74,1.06
			c1.03,0.7,1.82,1.72,2.37,3.05c0.54,1.33,0.82,2.93,0.82,4.79v1.1h-11.8v-2.66h8.53c-0.1-1.38-0.47-2.44-1.1-3.21
			c-0.64-0.76-1.49-1.14-2.55-1.14c-1.3,0-2.31,0.41-3.03,1.23c-0.71,0.82-1.07,1.99-1.07,3.49v2.14c0,1.4,0.38,2.47,1.15,3.22
			c0.76,0.75,1.85,1.12,3.25,1.12c0.7,0,1.39-0.14,2.07-0.41s1.3-0.65,1.84-1.14l2.26,2.18c-0.87,0.8-1.84,1.42-2.92,1.86
			c-1.08,0.44-2.16,0.66-3.25,0.66C284.97,634.6,283.58,634.31,282.44,633.72z"/>
		<path id="real-letter-a" d="M299.72,633.31c-1.07-0.86-1.6-2.17-1.6-3.92c0-1.67,0.49-2.92,1.47-3.75s2.46-1.25,4.43-1.25h4.97
			l0.24,2.66h-5.19c-0.9,0-1.57,0.19-2.01,0.58c-0.44,0.38-0.67,0.97-0.67,1.76c0,0.86,0.29,1.49,0.88,1.9
			c0.59,0.41,1.49,0.62,2.69,0.62c1.31,0,2.29-0.13,2.94-0.41c0.65-0.27,0.97-0.69,0.97-1.27l0.35,2.37
			c-0.3,0.45-0.68,0.83-1.12,1.12c-0.44,0.29-0.96,0.51-1.54,0.66s-1.24,0.22-1.97,0.22C302.4,634.6,300.79,634.17,299.72,633.31z
			 M308.84,623.67c0-1.1-0.31-1.96-0.92-2.57c-0.61-0.61-1.48-0.92-2.6-0.92c-0.7,0-1.38,0.1-2.05,0.31
			c-0.67,0.21-1.26,0.49-1.78,0.86l-2.51-1.66c0.66-0.77,1.54-1.37,2.62-1.79s2.29-0.64,3.62-0.64c1.45,0,2.69,0.25,3.73,0.74
			c1.03,0.49,1.82,1.21,2.36,2.14c0.54,0.94,0.81,2.07,0.81,3.39v10.83h-3.27V623.67z"/>
		<path id="real-letter-l" d="M321.81,630c0,0.41,0.09,0.73,0.28,0.95c0.19,0.22,0.45,0.33,0.78,0.33h1.62v3.15h-2.02
			c-1.3,0-2.31-0.39-3.03-1.17c-0.71-0.78-1.07-1.88-1.07-3.3v-19.23h3.44V630z"/>
	</g>
	<g id="estate-groups">
		<path id="estate-letter-e-1" d="M342.73,633.72c-1.15-0.58-2.02-1.44-2.62-2.57c-0.6-1.13-0.9-2.5-0.9-4.1v-1.9
			c0-1.67,0.29-3.09,0.87-4.27c0.58-1.18,1.42-2.08,2.52-2.7c1.1-0.62,2.43-0.93,3.98-0.93c1.46,0,2.71,0.35,3.74,1.06
			c1.03,0.7,1.82,1.72,2.37,3.05c0.54,1.33,0.82,2.93,0.82,4.79v1.1h-11.8v-2.66h8.53c-0.1-1.38-0.47-2.44-1.1-3.21
			c-0.64-0.76-1.49-1.14-2.55-1.14c-1.3,0-2.31,0.41-3.03,1.23c-0.71,0.82-1.07,1.99-1.07,3.49v2.14c0,1.4,0.38,2.47,1.15,3.22
			c0.76,0.75,1.85,1.12,3.25,1.12c0.7,0,1.39-0.14,2.07-0.41s1.3-0.65,1.84-1.14l2.26,2.18c-0.87,0.8-1.84,1.42-2.92,1.86
			c-1.08,0.44-2.16,0.66-3.25,0.66C345.26,634.6,343.88,634.31,342.73,633.72z"/>
		<path id="estate-letter-s" d="M362.53,634.31c-0.9-0.2-1.75-0.49-2.54-0.88c-0.79-0.39-1.51-0.88-2.17-1.46l2.04-2.42
			c0.94,0.69,1.88,1.21,2.82,1.56c0.93,0.35,1.85,0.52,2.76,0.52c1.36,0,2.38-0.2,3.06-0.61c0.68-0.41,1.02-1.02,1.02-1.83
			c0-0.54-0.19-0.95-0.56-1.22c-0.37-0.27-0.83-0.45-1.38-0.54c-0.55-0.09-1.33-0.18-2.33-0.25c-0.09,0-0.19,0-0.29-0.01
			c-0.1-0.01-0.2-0.01-0.29-0.02c-0.04,0-0.09,0-0.13-0.01c-0.05,0-0.09-0.01-0.13-0.01c-1.14-0.09-2.1-0.25-2.88-0.48
			c-0.79-0.23-1.44-0.67-1.96-1.31c-0.52-0.64-0.78-1.55-0.78-2.75c0-1.19,0.25-2.18,0.76-2.97c0.51-0.79,1.26-1.38,2.26-1.78
			c1-0.4,2.25-0.59,3.76-0.59c0.91,0,1.78,0.08,2.6,0.24c0.83,0.16,1.62,0.4,2.37,0.72s1.48,0.72,2.17,1.21l-2.07,2.42
			c-0.88-0.54-1.74-0.95-2.59-1.22s-1.68-0.41-2.49-0.41c-1.17,0-2.05,0.19-2.63,0.58c-0.58,0.38-0.88,0.96-0.88,1.73
			c0,0.46,0.17,0.8,0.5,1.02c0.33,0.23,0.75,0.38,1.26,0.46c0.51,0.08,1.22,0.14,2.16,0.19c0.07,0.01,0.14,0.02,0.21,0.02
			s0.15,0,0.23,0.02c0.03,0,0.07,0,0.1,0s0.07,0.01,0.1,0.02c1.23,0.08,2.27,0.23,3.13,0.47c0.86,0.24,1.58,0.71,2.17,1.41
			c0.58,0.7,0.88,1.72,0.88,3.05c0,1.21-0.27,2.22-0.81,3.01c-0.54,0.8-1.35,1.39-2.44,1.79s-2.45,0.6-4.09,0.6
			C364.41,634.6,363.44,634.5,362.53,634.31z"/>
		<path id="estate-letter-t-1" d="M376.85,617.5h7.89v2.99h-7.89V617.5z M379.64,633.31c-0.66-0.75-0.99-1.87-0.99-3.34v-17.38h3.44
			V630c0,0.41,0.08,0.73,0.25,0.95c0.17,0.22,0.42,0.33,0.74,0.33h1.65v3.15h-1.99C381.33,634.44,380.29,634.06,379.64,633.31z"/>
		<path id="estate-letter-a" d="M391.25,633.31c-1.07-0.86-1.6-2.17-1.6-3.92c0-1.67,0.49-2.92,1.47-3.75s2.46-1.25,4.43-1.25h4.97
			l0.24,2.66h-5.19c-0.9,0-1.57,0.19-2.01,0.58c-0.44,0.38-0.67,0.97-0.67,1.76c0,0.86,0.29,1.49,0.88,1.9
			c0.59,0.41,1.49,0.62,2.69,0.62c1.31,0,2.29-0.13,2.94-0.41c0.65-0.27,0.97-0.69,0.97-1.27l0.35,2.37
			c-0.3,0.45-0.68,0.83-1.12,1.12c-0.44,0.29-0.96,0.51-1.54,0.66s-1.24,0.22-1.97,0.22C393.93,634.6,392.32,634.17,391.25,633.31z
			 M400.37,623.67c0-1.1-0.31-1.96-0.92-2.57c-0.61-0.61-1.48-0.92-2.6-0.92c-0.7,0-1.38,0.1-2.05,0.31
			c-0.67,0.21-1.26,0.49-1.78,0.86l-2.51-1.66c0.66-0.77,1.54-1.37,2.62-1.79s2.29-0.64,3.62-0.64c1.45,0,2.69,0.25,3.73,0.74
			c1.03,0.49,1.82,1.21,2.36,2.14c0.54,0.94,0.81,2.07,0.81,3.39v10.83h-3.27V623.67z"/>
		<path id="estate-letter-t-2" d="M408.55,617.5h7.89v2.99h-7.89V617.5z M411.34,633.31c-0.66-0.75-0.99-1.87-0.99-3.34v-17.38h3.44
			V630c0,0.41,0.08,0.73,0.25,0.95c0.17,0.22,0.42,0.33,0.74,0.33h1.65v3.15h-1.99C413.04,634.44,412,634.06,411.34,633.31z"/>
		<path id="estate-letter-e-2" d="M425.21,633.72c-1.15-0.58-2.02-1.44-2.62-2.57c-0.6-1.13-0.9-2.5-0.9-4.1v-1.9
			c0-1.67,0.29-3.09,0.87-4.27c0.58-1.18,1.42-2.08,2.52-2.7c1.1-0.62,2.43-0.93,3.98-0.93c1.46,0,2.71,0.35,3.74,1.06
			c1.03,0.7,1.82,1.72,2.37,3.05s0.82,2.93,0.82,4.79v1.1h-11.8v-2.66h8.53c-0.1-1.38-0.47-2.44-1.1-3.21
			c-0.64-0.76-1.49-1.14-2.55-1.14c-1.3,0-2.31,0.41-3.03,1.23c-0.71,0.82-1.07,1.99-1.07,3.49v2.14c0,1.4,0.38,2.47,1.15,3.22
			c0.76,0.75,1.85,1.12,3.25,1.12c0.7,0,1.39-0.14,2.07-0.41s1.3-0.65,1.84-1.14l2.26,2.18c-0.87,0.8-1.84,1.42-2.92,1.86
			c-1.08,0.44-2.16,0.66-3.25,0.66C427.74,634.6,426.36,634.31,425.21,633.72z"/>
	</g>
	<g id="experts-letters">
		<path id="experts-letter-e-1" d="M455.06,633.72c-1.15-0.58-2.02-1.44-2.62-2.57c-0.6-1.13-0.9-2.5-0.9-4.1v-1.9
			c0-1.67,0.29-3.09,0.87-4.27c0.58-1.18,1.42-2.08,2.52-2.7c1.1-0.62,2.43-0.93,3.98-0.93c1.46,0,2.71,0.35,3.74,1.06
			c1.03,0.7,1.82,1.72,2.37,3.05s0.82,2.93,0.82,4.79v1.1h-11.8v-2.66h8.53c-0.1-1.38-0.47-2.44-1.1-3.21s-1.49-1.14-2.55-1.14
			c-1.3,0-2.31,0.41-3.03,1.23c-0.71,0.82-1.07,1.99-1.07,3.49v2.14c0,1.4,0.38,2.47,1.15,3.22c0.76,0.75,1.85,1.12,3.25,1.12
			c0.7,0,1.39-0.14,2.07-0.41s1.3-0.65,1.84-1.14l2.26,2.18c-0.87,0.8-1.84,1.42-2.92,1.86c-1.08,0.44-2.16,0.66-3.25,0.66
			C457.59,634.6,456.21,634.31,455.06,633.72z"/>
		<path id="experts-letter-x" d="M476.01,625.05l1.65,3.05l-4.45,6.25h-3.81L476.01,625.05z M476.11,626.69l-6.44-9.19h3.83
			l5.02,7.55l6.62,9.31h-3.81L476.11,626.69z M477.22,623.47l3.83-5.98h3.83l-6.2,9.1L477.22,623.47z"/>
		<path id="experts-letter-p" d="M489.97,617.5h3.44v23.71h-3.44V617.5z M494.96,633.84c-0.81-0.5-1.4-1.22-1.79-2.14l0.24-3.53
			c0,0.73,0.13,1.34,0.4,1.85c0.27,0.51,0.66,0.9,1.17,1.17s1.13,0.41,1.86,0.41c1.14,0,2.01-0.33,2.64-1
			c0.62-0.67,0.94-1.61,0.94-2.82v-3.65c0-1.24-0.31-2.19-0.94-2.88c-0.62-0.68-1.5-1.02-2.64-1.02c-0.73,0-1.35,0.13-1.86,0.39
			s-0.9,0.64-1.17,1.14c-0.27,0.5-0.4,1.11-0.4,1.81l-0.35-3.25c0.53-0.99,1.22-1.75,2.07-2.28c0.85-0.54,1.8-0.8,2.85-0.8
			c1.24,0,2.29,0.27,3.18,0.8c0.88,0.54,1.55,1.32,2.01,2.35c0.46,1.03,0.69,2.27,0.69,3.72v3.67c0,1.43-0.24,2.65-0.71,3.67
			c-0.47,1.02-1.16,1.79-2.07,2.33s-2,0.8-3.27,0.8C496.72,634.6,495.77,634.35,494.96,633.84z"/>
		<path id="experts-letter-e-2" d="M512.8,633.72c-1.15-0.58-2.02-1.44-2.62-2.57c-0.6-1.13-0.9-2.5-0.9-4.1v-1.9
			c0-1.67,0.29-3.09,0.87-4.27c0.58-1.18,1.42-2.08,2.52-2.7c1.1-0.62,2.43-0.93,3.98-0.93c1.46,0,2.71,0.35,3.74,1.06
			c1.03,0.7,1.82,1.72,2.37,3.05s0.82,2.93,0.82,4.79v1.1h-11.8v-2.66h8.53c-0.1-1.38-0.47-2.44-1.1-3.21s-1.49-1.14-2.55-1.14
			c-1.3,0-2.31,0.41-3.03,1.23c-0.71,0.82-1.07,1.99-1.07,3.49v2.14c0,1.4,0.38,2.47,1.15,3.22c0.76,0.75,1.85,1.12,3.25,1.12
			c0.7,0,1.39-0.14,2.07-0.41s1.3-0.65,1.84-1.14l2.26,2.18c-0.87,0.8-1.84,1.42-2.92,1.86c-1.08,0.44-2.16,0.66-3.25,0.66
			C515.33,634.6,513.95,634.31,512.8,633.72z"/>
		<path id="experts-letter-r" d="M529.33,617.5h3.44v16.86h-3.44V617.5z M537.81,620.68c-0.46-0.18-0.99-0.28-1.6-0.28
			c-1.09,0-1.94,0.29-2.54,0.87c-0.6,0.58-0.9,1.38-0.9,2.41l-0.35-3.25c0.54-1.01,1.24-1.79,2.09-2.35
			c0.85-0.56,1.8-0.84,2.83-0.84c0.8,0,1.52,0.11,2.17,0.33s1.21,0.55,1.69,0.98l-2.24,2.92
			C538.65,621.13,538.27,620.86,537.81,620.68z"/>
		<path id="experts-letter-t" d="M543.75,617.5h7.89v2.99h-7.89V617.5z M546.54,633.31c-0.66-0.75-0.99-1.87-0.99-3.34v-17.38h3.44
			V630c0,0.41,0.08,0.73,0.25,0.95c0.17,0.22,0.42,0.33,0.74,0.33h1.65v3.15h-1.99C548.23,634.44,547.2,634.06,546.54,633.31z"/>
		<path id="experts-letter-s" d="M560.67,634.31c-0.9-0.2-1.75-0.49-2.54-0.88c-0.79-0.39-1.51-0.88-2.17-1.46l2.04-2.42
			c0.94,0.69,1.88,1.21,2.82,1.56c0.93,0.35,1.85,0.52,2.76,0.52c1.36,0,2.38-0.2,3.06-0.61c0.68-0.41,1.02-1.02,1.02-1.83
			c0-0.54-0.19-0.95-0.56-1.22c-0.37-0.27-0.83-0.45-1.38-0.54s-1.33-0.18-2.33-0.25c-0.09,0-0.19,0-0.29-0.01
			c-0.1-0.01-0.2-0.01-0.29-0.02c-0.04,0-0.09,0-0.13-0.01c-0.04,0-0.09-0.01-0.13-0.01c-1.14-0.09-2.1-0.25-2.88-0.48
			c-0.79-0.23-1.44-0.67-1.96-1.31c-0.52-0.64-0.78-1.55-0.78-2.75c0-1.19,0.25-2.18,0.76-2.97c0.51-0.79,1.26-1.38,2.26-1.78
			s2.25-0.59,3.76-0.59c0.91,0,1.78,0.08,2.6,0.24c0.83,0.16,1.62,0.4,2.37,0.72c0.75,0.32,1.48,0.72,2.17,1.21l-2.07,2.42
			c-0.88-0.54-1.74-0.95-2.59-1.22c-0.85-0.27-1.68-0.41-2.49-0.41c-1.17,0-2.05,0.19-2.63,0.58c-0.58,0.38-0.88,0.96-0.88,1.73
			c0,0.46,0.17,0.8,0.5,1.02c0.33,0.23,0.75,0.38,1.26,0.46c0.51,0.08,1.23,0.14,2.16,0.19c0.07,0.01,0.14,0.02,0.21,0.02
			c0.07,0,0.15,0,0.23,0.02c0.03,0,0.07,0,0.1,0c0.03,0,0.07,0.01,0.1,0.02c1.22,0.08,2.27,0.23,3.13,0.47
			c0.86,0.24,1.58,0.71,2.17,1.41c0.58,0.7,0.88,1.72,0.88,3.05c0,1.21-0.27,2.22-0.81,3.01c-0.54,0.8-1.35,1.39-2.44,1.79
			c-1.08,0.4-2.45,0.6-4.09,0.6C562.55,634.6,561.58,634.5,560.67,634.31z"/>
	</g>
</g>
<g>
</g>
<g>
</g>
<g>
</g>
<g>
</g>
<g>
</g>
<g>
</g>
</svg>
