<?xml version="1.0" encoding="utf-8"?>
<!-- Generator: Adobe Illustrator 24.3.0, SVG Export Plug-In . SVG Version: 6.00 Build 0)  -->
<svg version="1.1" id="flyer-logo" xmlns="http://www.w3.org/2000/svg" xmlns:xlink="http://www.w3.org/1999/xlink" x="0px" y="0px"
	 viewBox="0 0 864 864" style="enable-background:new 0 0 864 864;" xml:space="preserve">
<style type="text/css">
	.st0{fill:#010101;}
</style>
<path id="flyer-logo-combined" class="st0" d="M734.92,178.85c3.87-17.46,2.27-19.65-14.96-23.42c-13.77-3.01-27.51-6.16-42.31-9.48
	c0-9.05,0.02-17.67,0-26.3c-0.04-18.92-0.78-19.69-19.17-19.75c-13.64-0.04-27.28-0.01-40.94-0.01c-2.16-9.24-4.11-17.23-5.87-25.27
	c-3.7-16.89-6.25-18.61-23.58-14.87c-40.23,8.69-80.35,17.93-120.71,25.96c-14.02,2.79-29.21,5.92-42.83,3.35
	C376.51,80,328.84,68.81,281.18,57.78c-11.9-2.76-17.21,1.14-19.31,12.41c-1.82,9.75-4.33,19.37-6.68,29.7
	c-15.93,0-31.02,0.4-46.07-0.13c-11.61-0.41-17.1,3.84-16.35,15.96c0.59,9.45,0.12,18.97,0.12,28.7
	c-15.93,3.53-30.6,7.03-45.39,9.97c-10.4,2.07-13.36,7.71-11.17,17.8c15.91,73.29,31.84,146.58,47.07,220.01
	c2.04,9.86,1.96,20.9-0.15,30.75c-15.47,71.97-31.75,143.77-47.66,215.65c-3.82,17.24-2.17,19.39,15.24,23.2
	c13.75,3.01,27.46,6.19,42.06,9.48c0,10.6,0.4,20.64-0.11,30.63c-0.57,11.23,4.18,15.84,15.38,15.49
	c14.96-0.46,29.95-0.11,42.6-0.11c6.1,15.88,11.39,29.67,16.69,43.47c0.92,0,1.83,0,2.75,0c32.2-7.3,64.41-14.6,96.61-21.9
	c4.01-0.91,8.24-1.24,12.01-2.74c50.54-20.1,98.7-1.24,147.3,9.05c21.23,4.5,42.17,10.35,63.24,15.59c4.59,0,9.17,0,13.76,0
	c4.34-14.14,8.67-28.27,13.33-43.46c14.62,0,29.71-0.51,44.75,0.16c12.7,0.56,17.47-4.77,16.6-17.12
	c-0.63-9.02-0.12-18.13-0.12-27.65c15.26-3.25,29.53-6.44,43.87-9.3c11.12-2.22,15.05-7.65,12.45-19.48
	c-16.12-73.24-31.92-146.56-47.15-219.99c-1.95-9.42-1.68-20,0.36-29.44C702.72,322.52,718.99,250.72,734.92,178.85z M157.98,173.37
	c11.74-2.55,22.32-4.84,34-7.38c0,53.76,0,106.71,0,159.65c-0.41,0.1-0.83,0.19-1.24,0.29
	C179.88,275.35,169.01,224.77,157.98,173.37z M192.57,649.65c-12.47-2.69-23.52-5.08-36.4-7.85
	c11.63-52.25,23.13-103.94,34.63-155.62c0.59,0.1,1.18,0.2,1.76,0.31C192.57,540.24,192.57,593.99,192.57,649.65z M510.6,97.72
	c26.64-5.77,53.27-11.54,81.03-17.55c1.46,6.5,2.72,12.1,4.25,18.91c-29.2,0-57.31,0-85.42,0C510.5,98.63,510.55,98.18,510.6,97.72z
	 M281.43,78.98c28.54,6.42,56.18,12.63,83.82,18.84c-0.09,0.57-0.17,1.14-0.26,1.71c-28.69,0-57.39,0-88.1,0
	C278.51,92.18,279.86,86.1,281.43,78.98z M278.86,737.09c-1.4-6.63-2.68-12.63-4.11-19.42c29.17,0,57.05,0,84.94,0
	c0.16,0.57,0.32,1.15,0.48,1.72C333.55,725.18,306.94,730.97,278.86,737.09z M589.11,738.22c-28.54-6.42-56.18-12.63-83.82-18.84
	c0.09-0.57,0.17-1.14,0.26-1.71c28.7,0,57.39,0,88.11,0C592.03,725.03,590.68,731.11,589.11,738.22z M656.48,696.19
	c-147.28,0-294.21,0-442.64,0c0-191.82,0-382.82,0-574.92c147.36,0,294.58,0,442.64,0C656.48,312.65,656.48,504,656.48,696.19z
	 M712.59,643.71c-11.59,2.56-22.49,4.97-34.67,7.67c0-54.59,0-107.16,0-159.74c0.6-0.14,1.21-0.27,1.81-0.41
	C690.59,541.6,701.44,591.98,712.59,643.71z M679.9,330.5c-0.63,0.13-1.27,0.25-1.9,0.38c0-53.91,0-107.83,0-163.22
	c12.05,2.55,23.44,4.97,36.37,7.71C702.76,227.61,691.33,279.06,679.9,330.5z M267.16,538.53c6.62-10.36,14.47-19.94,22.29-30.49
	c-7.63-10.22-15.1-18.98-21.07-28.68c-3.72-6.04-5.15-13.49-7.61-20.3c6.67-1.96,13.31-5.52,20.01-5.62
	c36.68-0.56,73.37-0.27,110.05-0.27c31.18,0,62.36,0,93.55,0c2.75,0,5.5-0.05,8.25,0.02c7.31,0.18,14.51,1.23,14.55,10.61
	c0.04,9.32-6.9,10.68-14.37,10.68c-23.85,0-47.69,0-71.53,0c-42.62,0-85.24,0-130.63,0c5.76,7.83,9.98,14.6,15.22,20.45
	c8.28,9.23,7.87,17.58-0.18,26.64c-4.82,5.42-8.78,11.6-14.24,18.94c96.21,0,191,0,289.42,0c-26.4-21.36-28.43-42.87,0.15-64.1
	c-1.02-0.64-2.05-1.28-3.07-1.92c-9.32,0-18.84,1.14-27.87-0.45c-4.97-0.88-9.12-6.38-13.64-9.79c4.3-3.68,8.37-10.15,12.94-10.52
	c15.94-1.31,32.08-0.98,48.1-0.37c13.8,0.53,17.39,8.59,9.27,20.1c-8.15,11.57-16.82,22.77-25.64,34.65
	c8.07,10.85,16.34,21.15,23.61,32.12c3.01,4.54,6.87,12.55,4.97,15.34c-2.79,4.1-10.36,6.82-15.92,6.88
	c-45.39,0.53-90.79,0.3-136.19,0.3c-59.61,0-119.23,0.18-178.84-0.27c-6.12-0.05-12.2-3.85-18.31-5.9
	C262.61,550.49,263.79,543.81,267.16,538.53z M427.1,404.08c4.05,2.63,12.92,2.17,17.21-0.56c39.19-24.92,75.92-53.04,105.64-89.15
	c14.68-17.84,27.2-37.05,25.83-61.99c-1.96-35-15.33-64.28-46.81-81.82c-29.64-16.52-58.56-9.66-85.07,8.86
	c-7.15,4.99-11.56,3.72-18.01-0.7c-18.21-12.48-38.27-19.91-60.76-16.13c-58.32,9.79-90.08,85.66-56.76,134.8
	C339.14,342.78,382.03,374.72,427.1,404.08z M325.52,215.65c10.48-19.53,26.26-32.73,58.36-33.3c7.43,3.57,22.64,8.77,35.33,17.6
	c11.58,8.05,19.4,9.74,31.2,0.32c29.61-23.64,59.22-23.32,81.83-1.8c19.95,18.98,33.6,61.09,9.64,92.46
	c-28.27,37.02-64.13,65.01-102.06,90.85c-2.18,1.49-7.23,1.32-9.48-0.22c-39.78-27.24-78.54-55.78-105.44-96.92
	C310.01,261.85,313.44,238.14,325.52,215.65z M300.67,606.16c-3.45-2.02-7.66-6.26-7.69-9.59c-0.03-3.18,4.29-7.55,7.75-9.29
	c3.36-1.69,8.06-0.85,12.18-0.86c41.25-0.04,82.51-0.02,123.76-0.02c40.34,0,80.68-0.02,121.01,0.02c4.11,0,8.83-0.83,12.17,0.87
	c3.46,1.75,7.75,6.16,7.7,9.34c-0.06,3.33-4.29,7.54-7.75,9.55c-2.79,1.62-7.14,0.63-10.8,0.63c-82.51,0.02-165.02,0.02-247.53,0
	C307.82,606.8,303.45,607.79,300.67,606.16z M578.16,641.13c-3.73,3.26-7.28,9.04-11.23,9.32c-15.5,1.11-31.13,0.49-46.71,0.5
	c-27.96,0.01-55.91,0-83.87,0c-41.25,0-82.5,0-123.74,0c-3.21,0-7.13,1.1-9.47-0.34c-4.09-2.53-7.21-6.63-10.74-10.07
	c3.27-3.21,6.2-6.93,9.95-9.41c1.95-1.29,5.35-0.46,8.1-0.46c83.41-0.01,166.82-0.01,250.24,0c2.29,0,5.24-0.79,6.74,0.33
	C571.34,633.92,574.63,637.69,578.16,641.13z"/>
</svg>
