<?xml version="1.0" encoding="utf-8"?>
<!-- Generator: Adobe Illustrator 24.3.0, SVG Export Plug-In . SVG Version: 6.00 Build 0)  -->
<svg version="1.1" id="Layer_2" xmlns="http://www.w3.org/2000/svg" xmlns:xlink="http://www.w3.org/1999/xlink" x="0px" y="0px"
	 viewBox="0 0 864 864" style="enable-background:new 0 0 864 864;" xml:space="preserve">
<g>
	<path id="m" d="M706.09,447.88c1.74-3,3.47-6,5.22-8.99c0.19-0.32,0.59-0.86,0.76-0.82c2.61,0.72,5.52,1.05,7.64,2.51
		c0.98,0.67,0.99,3.77,0.45,5.45c-3.55,10.98-7.87,21.73-10.91,32.84c-1.95,7.12-2.69,14.72-2.82,22.12
		c-0.05,2.98,2.7,6.01,4.38,9.17c0.1,0.19,0.05,0.43-0.12,0.56c-2.11,1.58-4,0.33-5.98-1.22c-7.83-6.14-8.63-14.38-6.9-23.26
		c0.84-4.33,2.18-8.56,3.27-12.84c0.36-1.43,0.67-2.87,0.61-4.51c-0.01-0.4-0.5-0.58-0.77-0.29c-1.32,1.45-2.59,2.97-4.09,4.2
		c-2.89,2.39-5.77,4.9-9.04,6.67c-3.72,2.01-6.74,0.58-9.89-2.08c-3.98-3.36-4.24-7.39-3.7-11.9c0.12-1,0.21-2-0.03-3.18
		c-0.08-0.38-0.58-0.48-0.8-0.16c-2.04,3.02-4.01,6.09-6.2,8.99c-4.85,6.42-9.59,12.96-14.87,19.01c-3.89,4.45-9.82,2.78-11.57-3.02
		c-0.73-2.43-1.33-5.27-0.78-7.64c2.83-12.11,5.98-24.16,9.19-36.18c0.69-2.59,1.74-5.5,5.57-4.54c3.34,0.84,5.73,4.3,4.79,7.83
		c-2.17,8.15-4.71,16.2-7.1,24.29c-0.17,0.59-0.36,1.18-0.54,1.77c0.96,0.49,0.72,0.37,1.69,0.86c2.32-3.13,4.64-6.27,6.98-9.39
		c3.19-4.25,6.21-8.66,9.73-12.62c1.34-1.51,4.04-2.98,5.82-2.7c4.39,0.71,8.7,2.33,8.24,8.28c-0.34,4.35-0.59,8.71-0.94,14.08
		c-0.02,0.37,0.4,0.61,0.7,0.39c2.22-1.63,4.06-2.73,5.44-4.25c4.17-4.62,8.09-9.47,12.13-14.2c0.99-1.16,2.08-2.24,3.12-3.35
		c-3.09,4.7-6.18,9.4-9.26,14.09c-0.28,0.42,0.26,0.9,0.65,0.58c5.55-4.61,10.98-9.38,12.37-17.6c0.07-0.41-0.4-0.68-0.72-0.42
		C707.15,446.99,706.62,447.44,706.09,447.88z M671.55,455.89c-1.09-0.98-0.62-0.56-1.71-1.54c-2.95,3.12-5.24,6.77-7.06,10.79
		c-0.21,0.46,0.42,0.85,0.74,0.46C666.2,462.36,668.88,459.13,671.55,455.89z"/>
	<path id="e" d="M808.17,448.78c-1.87,0.86-3.82,1.6-5.6,2.61c-3.47,1.97-7.67,2.61-10.12,6.52c-1.03,1.64-3.78,2.14-5.62,3.35
		c-4.51,2.99-8.92,6.11-13.41,9.13c-2.05,1.38-4.03,3.15-6.32,3.86c-8.04,2.51-16.07,5.53-24.34,6.68
		c-10.93,1.52-17.94-5.87-17.95-16.97c0-10.57,6.31-17.49,14.06-22.98c4.51-3.2,10.22-4.8,15.5-6.81c2.54-0.97,4.47,0.6,5.83,2.78
		c2.85,4.56,1.9,11.76-2.17,15.28c-3.73,3.23-7.36,6.65-11.43,9.41c-5.46,3.7-9.43,3-13.79-1.86c-0.16-0.18-0.45-0.21-0.63-0.04
		c-2.43,2.28-3.81,5.28-2.77,8.2c1,2.83,4.29,3.21,7.38,3.12c16.25-0.49,31-6.33,45.66-12.53c7.19-3.04,14.38-6.09,21.58-9.1
		c1.26-0.53,2.58-0.89,3.88-1.32C808.01,448.33,808.09,448.55,808.17,448.78z M757.14,437.35c-8.89,2.43-14.42,8.07-19.03,15.23
		c-0.23,0.35,0.13,0.79,0.52,0.65c7.96-2.89,14.8-6.88,19.02-15.25C757.82,437.64,757.5,437.25,757.14,437.35z M785.97,460.32
		c-0.12-0.4-0.24-0.8-0.36-1.21c-7.12,2.68-14.23,5.36-21.35,8.03c0.12,0.33,0.24,0.66,0.36,0.99
		C771.74,465.53,778.86,462.92,785.97,460.32z"/>
	<g>
		<path d="M69.35,446.52v-3.84h8.73V434c0-6.33,1.6-11,4.8-14.01c3.2-3.01,7.39-4.52,12.56-4.52c2.09,0,4.02,0.15,5.8,0.45v3.79
			c-2.05-0.34-3.89-0.5-5.49-0.5c-4.49,0-7.87,1.21-10.14,3.63c-2.28,2.42-3.42,6.31-3.42,11.66v8.18h15.25v3.84H82.19v43.31h-4.11
			v-43.31H69.35z"/>
		<path d="M119.55,466.36c0-7.54,1.96-13.57,5.88-18.1c3.92-4.53,9.13-6.79,15.64-6.79c6.54,0,11.73,2.25,15.59,6.76
			c3.85,4.51,5.78,10.55,5.78,18.12c0,7.37-1.97,13.33-5.91,17.89c-3.94,4.56-9.09,6.84-15.46,6.84c-6.54,0-11.76-2.25-15.66-6.74
			C121.5,479.86,119.55,473.86,119.55,466.36z M158.12,466.36c0-6.5-1.54-11.65-4.62-15.47c-3.08-3.82-7.22-5.73-12.43-5.73
			c-5.27,0-9.46,1.9-12.56,5.7c-3.1,3.8-4.65,8.97-4.65,15.5c0,6.46,1.53,11.58,4.6,15.35c3.06,3.77,7.27,5.65,12.61,5.65
			c5.27,0,9.43-1.88,12.48-5.63C156.59,477.98,158.12,472.85,158.12,466.36z"/>
		<path d="M188.14,466.66c0-5.99,1.1-10.86,3.31-14.61c2.21-3.75,4.99-6.45,8.34-8.1c3.35-1.65,6.83-2.47,10.42-2.47
			c2.43,0,4.78,0.25,7.04,0.73c2.26,0.49,4.11,1.14,5.55,1.94v4.14c-1.78-0.94-3.83-1.7-6.14-2.27c-2.31-0.57-4.49-0.86-6.55-0.86
			c-2.98,0-5.81,0.71-8.5,2.15c-2.69,1.43-4.89,3.76-6.6,6.99c-1.71,3.23-2.57,7.39-2.57,12.47c0,6.29,1.68,11.3,5.03,15.02
			c3.35,3.72,7.87,5.58,13.56,5.58c3.7,0,7.87-0.96,12.53-2.88v3.79c-3.83,1.88-8.11,2.83-12.84,2.83c-4.21,0-8.02-0.89-11.43-2.67
			c-3.41-1.78-6.12-4.5-8.14-8.15S188.14,472.08,188.14,466.66z"/>
		<path d="M251.02,471.76v-29.08h4.11v30.08c0,5.18,1.22,8.91,3.67,11.18c2.45,2.27,5.78,3.41,9.99,3.41c3.01,0,5.54-0.55,7.57-1.67
			c2.04-1.11,3.56-2.64,4.57-4.59c1.01-1.95,1.51-4.79,1.51-8.53v-29.88h4.11v29.18c0,3.77-0.34,6.73-1.03,8.88
			c-0.69,2.15-1.85,4.05-3.49,5.68c-1.64,1.63-3.54,2.82-5.7,3.56s-4.6,1.11-7.34,1.11c-2.94,0-5.56-0.43-7.86-1.29
			c-2.29-0.86-4.2-2.05-5.73-3.58c-1.52-1.53-2.64-3.32-3.34-5.38C251.38,478.79,251.02,475.77,251.02,471.76z"/>
		<path d="M314.53,488.67v-4.19c3.7,1.99,8.04,2.98,13.04,2.98c4.07,0,7.3-0.93,9.68-2.8c2.38-1.87,3.57-4.48,3.57-7.85
			c0-2.56-0.79-4.53-2.36-5.91c-1.58-1.38-4.21-2.51-7.91-3.38c-3.39-0.81-6.16-1.65-8.32-2.52c-2.16-0.88-3.92-2.15-5.29-3.84
			c-1.37-1.68-2.05-3.9-2.05-6.66c0-4.41,1.51-7.68,4.52-9.82c3.01-2.14,6.86-3.21,11.55-3.21c4.28,0,8.27,0.89,11.96,2.68v3.94
			c-1.99-0.98-3.91-1.72-5.78-2.25c-1.87-0.52-4.03-0.78-6.5-0.78c-3.87,0-6.8,0.79-8.81,2.37c-2,1.58-3,3.82-3,6.71
			c0,2.02,0.47,3.59,1.41,4.72c0.94,1.13,2.23,1.99,3.88,2.6c1.64,0.61,4.12,1.31,7.45,2.12c4.62,1.14,7.99,2.68,10.09,4.62
			c2.11,1.94,3.16,4.7,3.16,8.3c0,4.44-1.54,7.98-4.62,10.63s-7.29,3.96-12.63,3.96C321.82,491.09,317.47,490.29,314.53,488.67z"/>
	</g>
	<g>
		<path d="M377.4,448.86v-3.52h7.63v-7.96c0-5.8,1.4-10.08,4.2-12.84c2.8-2.76,6.46-4.14,10.97-4.14c1.82,0,3.52,0.14,5.07,0.42
			v3.47c-1.8-0.31-3.4-0.46-4.8-0.46c-3.92,0-6.87,1.11-8.86,3.33c-1.99,2.22-2.98,5.79-2.98,10.69v7.5h13.33v3.52h-13.33v39.71
			h-3.59v-39.71H377.4z"/>
		<path d="M425.78,467.04c0-6.91,1.71-12.44,5.14-16.59c3.43-4.15,7.98-6.22,13.67-6.22c5.71,0,10.26,2.07,13.62,6.2
			c3.37,4.14,5.05,9.67,5.05,16.62c0,6.76-1.72,12.23-5.16,16.41c-3.44,4.18-7.94,6.27-13.51,6.27c-5.72,0-10.28-2.06-13.69-6.18
			S425.78,473.93,425.78,467.04z M459.49,467.04c0-5.95-1.35-10.68-4.04-14.19c-2.69-3.5-6.31-5.25-10.86-5.25
			c-4.61,0-8.27,1.74-10.97,5.23c-2.71,3.49-4.06,8.22-4.06,14.21c0,5.92,1.34,10.61,4.02,14.07c2.68,3.46,6.35,5.18,11.02,5.18
			c4.61,0,8.24-1.72,10.91-5.16C458.16,477.7,459.49,473,459.49,467.04z"/>
		<path d="M492.43,472v-26.66h3.59v27.58c0,4.75,1.07,8.17,3.21,10.25c2.14,2.08,5.05,3.12,8.73,3.12c2.63,0,4.84-0.51,6.62-1.53
			c1.78-1.02,3.11-2.42,3.99-4.21c0.88-1.79,1.32-4.4,1.32-7.82v-27.4h3.59v26.75c0,3.46-0.3,6.17-0.9,8.15
			c-0.6,1.98-1.62,3.71-3.05,5.21c-1.44,1.5-3.1,2.58-4.98,3.26c-1.88,0.68-4.02,1.02-6.42,1.02c-2.57,0-4.86-0.39-6.87-1.18
			c-2-0.79-3.67-1.88-5-3.29c-1.33-1.4-2.3-3.05-2.92-4.93C492.74,478.45,492.43,475.67,492.43,472z"/>
		<path d="M558.63,445.34l0.63,7.68h0.09c1.64-2.53,3.99-4.63,7.02-6.29s6.16-2.5,9.36-2.5h1.17v3.66h-1.17
			c-3.29,0-6.46,0.93-9.49,2.78c-3.04,1.85-5.33,4.27-6.89,7.27v30.64h-3.59v-43.23H558.63z"/>
		<path d="M598.35,488.57v-5.97h5.52v5.97H598.35z"/>
	</g>
</g>
</svg>
