<?xml version="1.0" encoding="utf-8"?>
<!-- Generator: Adobe Illustrator 24.3.0, SVG Export Plug-In . SVG Version: 6.00 Build 0)  -->
<svg version="1.1" id="frequency-medicine-logo-2" xmlns="http://www.w3.org/2000/svg" xmlns:xlink="http://www.w3.org/1999/xlink"
	 x="0px" y="0px" viewBox="0 0 864 864" style="enable-background:new 0 0 864 864;" xml:space="preserve">
<style type="text/css">
	.st0{fill:url(#ekg-top-back_1_);}
	.st1{fill:url(#ekg-top-front_1_);}
	.st2{fill:url(#ekg-middle-back-3_1_);}
	.st3{fill:url(#ekg-middle-front-3_1_);}
	.st4{fill:url(#ekg-middle-back-2_1_);}
	.st5{fill:url(#ekg-middle-front-2_1_);}
	.st6{fill:url(#ekg-middle-back-1_1_);}
	.st7{fill:url(#ekg-middle-front-1_1_);}
	.st8{fill:url(#ekg-bottom-back_1_);}
	.st9{fill:url(#ekg-bottom-front_1_);}
	.st10{fill:url(#dna-red-top_1_);}
	.st11{fill:url(#dna-red-bottom_1_);}
	.st12{fill:url(#dna-red-middle_1_);}
	.st13{fill:url(#blue-dna-top_1_);}
	.st14{fill:url(#blue-dna-middle_1_);}
	.st15{fill:url(#blue-dna-bottom_1_);}
	.st16{fill:#0C0C0C;}
	.st17{fill:#DA2528;}
	.st18{fill:#DA2B2B;}
	.st19{fill:#010101;}
</style>
<g id="frequency-medicine-logo-2-parts">
	<g id="dna-strands">
		<g id="ekg-top">
			<linearGradient id="ekg-top-back_1_" gradientUnits="userSpaceOnUse" x1="162.8102" y1="276.1722" x2="231.611" y2="276.1722">
				<stop  offset="0" style="stop-color:#959636"/>
				<stop  offset="0.0252" style="stop-color:#949536"/>
				<stop  offset="0.4969" style="stop-color:#878935"/>
				<stop  offset="1" style="stop-color:#838534"/>
			</linearGradient>
			<path id="ekg-top-back" class="st0" d="M162.81,287.48c2.55-0.84,4.64-1.46,6.06-1.87c0.61-0.18,3.45-0.99,6.84-2.13
				c3.09-1.04,4.01-1.47,4.65-2.45c0.9-1.39,0.71-3.05,0.52-4c0.85,0.61,1.57,1.23,2.19,1.81c0.76,0.71,1.01,1.03,1.55,1.35
				c0.61,0.36,1.5,0.67,2.84,0.58c3.31-0.9,7.53-2.06,10.84-2.97c2.53-0.69,6.63-1.82,9.16-2.52c0.25,0.01,0.64-0.01,0.97-0.26
				c0.46-0.35,0.55-0.96,0.58-1.29c0.12-1.16,0.31-5.51,0.45-11.42c0.94,1.52,1.89,3.05,2.84,4.58c1.61,2.59,3.23,5.17,4.84,7.74
				c0.01,0.03,0.06,0.13,0.17,0.18c0.12,0.06,0.27,0.05,0.39-0.04c0.03-1.26,0.08-2.31,0.12-3.12c0.05-0.84,0.09-1.44,0.35-1.51
				c0.27-0.08,0.69,0.44,1.04,0.88c0.41,0.51,0.53,0.84,0.97,1.04c0.18,0.08,0.35,0.11,0.53,0.12c1.3,0.08,3.45-0.76,4.91-1.21
				c0.32-0.1,0.04,0,1.62-0.44c3.06-0.83,3.89-1.13,4.23-0.75c0.15,0.17,0.28,0.54-0.12,1.52c-1.92,0.36-3.43,0.77-4.45,1.09
				c-1.55,0.48-3.05,1.05-5.52,1.6c-0.39,0.09-0.71,0.15-0.92,0.19c-0.05-0.23-0.31-1.49-1.19-1.77c-0.07-0.02-0.15-0.04-0.24-0.05
				c-0.28,0.76-0.37,1.39-0.41,1.81c-0.06,0.74,0.02,1.29-0.24,2.1c-0.11,0.33-0.23,0.59-0.31,0.75c-0.16-0.03-0.32-0.06-0.48-0.1
				c-1.32-1.7-2.25-2.89-2.9-3.73c-2.76-3.54-2.85-3.63-2.9-3.8c-0.02-0.07-0.1-0.35-0.34-0.46c-0.18-0.09-0.38-0.04-0.51,0
				c-0.17,0.92-0.3,1.69-0.39,2.25c-0.38,2.37-0.57,3.56-0.58,4.14c-0.02,1.18,0.12,1.65-0.27,2.15c-0.51,0.68-1.47,0.74-1.84,0.77
				c-0.55,0.05-3.41,0.64-9.12,1.81c-2.15,0.44-4.68,0.97-6.97,1.91c-0.55,0.23-2.22,0.95-4.52,1.09c-0.37,0.02-0.67,0.03-0.87,0.02
				c-0.56-0.35-1.13-0.74-1.72-1.16c-0.77-0.55-1.48-1.11-2.13-1.65c-0.13,0.2-0.32,0.48-0.56,0.8c-0.41,0.56-0.9,1.18-1.26,1.57
				c-0.74,0.81-1.49,1.28-2.44,1.86c-0.63,0.39-1.62,0.94-3.19,1.6c-1.77,0.73-1.86,0.59-4.48,1.52c-2.4,0.86-3.61,1.29-4.02,1.48
				c-1.41,0.63-2.03,1.05-2.66,0.77C163.06,289.57,162.86,288.2,162.81,287.48z"/>
			<linearGradient id="ekg-top-front_1_" gradientUnits="userSpaceOnUse" x1="163.036" y1="275.9142" x2="231.8368" y2="275.9142">
				<stop  offset="0" style="stop-color:#F2EA1A"/>
				<stop  offset="1" style="stop-color:#F1EA19"/>
			</linearGradient>
			<path id="ekg-top-front" class="st1" d="M163.04,287.23c2.55-0.84,4.64-1.46,6.06-1.87c0.61-0.18,3.45-0.99,6.84-2.13
				c3.09-1.04,4.01-1.47,4.65-2.45c0.9-1.39,0.71-3.05,0.52-4c0.85,0.61,1.57,1.23,2.19,1.81c0.76,0.71,1.01,1.03,1.55,1.35
				c0.61,0.36,1.5,0.67,2.84,0.58c3.31-0.9,7.53-2.06,10.84-2.97c2.53-0.69,6.63-1.82,9.16-2.52c0.25,0.01,0.64-0.01,0.97-0.26
				c0.46-0.35,0.55-0.96,0.58-1.29c0.12-1.16,0.31-5.51,0.45-11.42c0.94,1.52,1.89,3.05,2.84,4.58c1.61,2.59,3.23,5.17,4.84,7.74
				c0.01,0.03,0.06,0.13,0.17,0.18c0.12,0.06,0.27,0.05,0.39-0.04c0.03-1.26,0.08-2.31,0.12-3.12c0.05-0.84,0.09-1.44,0.35-1.51
				c0.27-0.08,0.69,0.44,1.04,0.88c0.41,0.51,0.53,0.84,0.97,1.04c0.18,0.08,0.35,0.11,0.53,0.12c1.3,0.08,3.45-0.76,4.91-1.21
				c0.32-0.1,0.04,0,1.62-0.44c3.06-0.83,3.89-1.13,4.23-0.75c0.15,0.17,0.28,0.54-0.12,1.52c-1.92,0.36-3.43,0.77-4.45,1.09
				c-1.55,0.48-3.05,1.05-5.52,1.6c-0.39,0.09-0.71,0.15-0.92,0.19c-0.05-0.23-0.31-1.49-1.19-1.77c-0.07-0.02-0.15-0.04-0.24-0.05
				c-0.28,0.76-0.37,1.39-0.41,1.81c-0.06,0.74,0.02,1.29-0.24,2.1c-0.11,0.33-0.23,0.59-0.31,0.75c-0.16-0.03-0.32-0.06-0.48-0.1
				c-1.32-1.7-2.25-2.89-2.9-3.73c-2.76-3.54-2.85-3.63-2.9-3.8c-0.02-0.07-0.1-0.35-0.34-0.46c-0.18-0.09-0.38-0.04-0.51,0
				c-0.17,0.92-0.3,1.69-0.39,2.25c-0.38,2.37-0.57,3.56-0.58,4.14c-0.02,1.18,0.12,1.65-0.27,2.15c-0.51,0.68-1.47,0.74-1.84,0.77
				c-0.55,0.05-3.41,0.64-9.12,1.81c-2.15,0.44-4.68,0.97-6.97,1.91c-0.55,0.23-2.22,0.95-4.52,1.09c-0.37,0.02-0.67,0.03-0.87,0.02
				c-0.56-0.35-1.13-0.74-1.72-1.16c-0.77-0.55-1.48-1.11-2.13-1.65c-0.13,0.2-0.32,0.48-0.56,0.8c-0.41,0.56-0.9,1.18-1.26,1.57
				c-0.74,0.81-1.49,1.28-2.44,1.86c-0.63,0.39-1.62,0.94-3.19,1.6c-1.77,0.73-1.86,0.59-4.48,1.52c-2.4,0.86-3.61,1.29-4.02,1.48
				c-1.41,0.63-2.03,1.05-2.66,0.77C163.29,289.31,163.09,287.95,163.04,287.23z"/>
		</g>
		<g id="ekg-middle">
			
				<linearGradient id="ekg-middle-back-3_1_" gradientUnits="userSpaceOnUse" x1="263.593" y1="390.6105" x2="206.0428" y2="429.5371" gradientTransform="matrix(0.9991 -0.0428 0.0428 0.9991 -17.2284 11.5476)">
				<stop  offset="0" style="stop-color:#828635"/>
				<stop  offset="0.0333" style="stop-color:#828635"/>
				<stop  offset="1" style="stop-color:#828635"/>
			</linearGradient>
			<path id="ekg-middle-back-3" class="st2" d="M204.26,423.72c1.99-0.84,4.36-1.68,7.07-2.37c1.72-0.44,3.34-0.75,4.83-0.98
				c-0.08-2.49-0.17-4.99-0.25-7.48c0.84,0.83,1.69,1.72,2.55,2.67c0.73,0.8,1.4,1.59,2.04,2.37c1.44-0.6,3.71-1.57,6.47-2.86
				c3.73-1.73,4.46-2.22,6.96-3.2c3.87-1.52,6.64-2.11,7.29-2.25c2.11-0.44,3.93-0.64,5.27-0.74c-0.82-3.56-1.64-7.12-2.46-10.68
				c1.32,1.26,2.36,2.33,3.07,3.1c1.95,2.08,3.99,4.48,3.99,4.48c0.14-0.11,0.47-0.42,0.61-0.93c0.13-0.48,0.01-0.87-0.04-1.03
				c1.28-0.58,2.59-1.15,3.94-1.72c4.28-1.8,8.43-3.31,12.42-4.6c0.01,0.41,0.01,0.82,0.02,1.23c-2.39,1.2-4.33,2.15-5.69,2.81
				c-1.15,0.56-2.3,1.12-3.45,1.67c-1.61,0.77-2.61,1.25-4,1.99c-0.73,0.39-1.33,0.72-1.73,0.95c0.05,1.28,0.09,2.56,0.14,3.84
				c-0.23-0.18-0.6-0.48-1.03-0.88c-0.49-0.45-1.11-1.08-3.26-3.93c-0.46-0.61-0.93-1.23-1.7-2.01c-0.33-0.33-0.62-0.59-0.81-0.76
				c0.35,1.66,0.67,2.99,0.89,3.88c0.34,1.37,0.63,2.36,0.92,3.91c0.16,0.86,0.27,1.57,0.33,2.02c-0.05,0.08-0.13,0.18-0.26,0.2
				c-0.21,0.05-0.43-0.13-0.69-0.38c-0.75-0.73-0.79-1.08-1.27-1.35c-0.16-0.09-0.43-0.2-0.84-0.23c-0.72,0.22-1.76,0.54-3,0.95
				c-1.59,0.53-3.02,1.06-6.06,2.25c-5.38,2.11-4.66,1.94-7.35,2.93c-1.21,0.45-2.57,0.93-4.52,1.77c-1.14,0.49-2.07,0.93-2.69,1.23
				c0.14,1.14,0.4,2,0.62,2.59c0.18,0.49,0.57,1.42,0.87,2.14c0.1,0.24,0.18,0.44,0.24,0.57c-0.27-0.17-0.53-0.33-0.8-0.5
				c-0.73-0.85-1.26-1.58-1.59-2.06c-0.74-1.07-1.02-1.66-1.93-3.07c-0.52-0.8-0.96-1.43-1.23-1.81c-0.26,0.91-0.33,1.64-0.34,2.15
				c-0.01,0.39,0.02,1.13,0.09,2.61c0,0.1,0.01,0.19,0.01,0.24c-0.58,0.07-1.4,0.18-2.38,0.34c-1.87,0.32-3.25,0.67-4.82,1.08
				c-2.23,0.58-3.35,0.87-4.01,1.14c-0.96,0.4-2.04,0.56-3,0.98c-0.3,0.13-0.61,0.27-0.85,0.16c-0.51-0.24-0.63-1.52,0.12-2.11
				C203.45,423.64,204.1,423.71,204.26,423.72z"/>
			
				<linearGradient id="ekg-middle-front-3_1_" gradientUnits="userSpaceOnUse" x1="263.5115" y1="390.2519" x2="205.9613" y2="429.1784" gradientTransform="matrix(0.9991 -0.0428 0.0428 0.9991 -17.2284 11.5476)">
				<stop  offset="0" style="stop-color:#F2EA1A"/>
				<stop  offset="1" style="stop-color:#F1EA19"/>
			</linearGradient>
			<path id="ekg-middle-front-3" class="st3" d="M204.17,423.37c1.99-0.84,4.36-1.68,7.07-2.37c1.72-0.44,3.34-0.75,4.83-0.98
				c-0.08-2.49-0.17-4.99-0.25-7.48c0.84,0.83,1.69,1.72,2.55,2.67c0.73,0.8,1.4,1.59,2.04,2.37c1.44-0.6,3.71-1.57,6.47-2.86
				c3.73-1.73,4.46-2.22,6.96-3.2c3.87-1.52,6.64-2.11,7.29-2.25c2.11-0.44,3.93-0.64,5.27-0.74c-0.82-3.56-1.64-7.12-2.46-10.68
				c1.32,1.26,2.36,2.33,3.07,3.1c1.95,2.08,3.99,4.48,3.99,4.48c0.14-0.11,0.47-0.42,0.61-0.93c0.13-0.48,0.01-0.87-0.04-1.03
				c1.28-0.58,2.59-1.15,3.94-1.72c4.28-1.8,8.43-3.31,12.42-4.6c0.01,0.41,0.01,0.82,0.02,1.23c-2.39,1.2-4.33,2.15-5.69,2.81
				c-1.15,0.56-2.3,1.12-3.45,1.67c-1.61,0.77-2.61,1.25-4,1.99c-0.73,0.39-1.33,0.72-1.73,0.95c0.05,1.28,0.09,2.56,0.14,3.84
				c-0.23-0.18-0.6-0.48-1.03-0.88c-0.49-0.45-1.11-1.08-3.26-3.93c-0.46-0.61-0.93-1.23-1.7-2.01c-0.33-0.33-0.62-0.59-0.81-0.76
				c0.35,1.66,0.67,2.99,0.89,3.88c0.34,1.37,0.63,2.36,0.92,3.91c0.16,0.86,0.27,1.57,0.33,2.02c-0.05,0.08-0.13,0.18-0.26,0.2
				c-0.21,0.05-0.43-0.13-0.69-0.38c-0.75-0.73-0.79-1.08-1.27-1.35c-0.16-0.09-0.43-0.2-0.84-0.23c-0.72,0.22-1.76,0.54-3,0.95
				c-1.59,0.53-3.02,1.06-6.06,2.25c-5.38,2.11-4.66,1.94-7.35,2.93c-1.21,0.45-2.57,0.93-4.52,1.77c-1.14,0.49-2.07,0.93-2.69,1.23
				c0.14,1.14,0.4,2,0.62,2.59c0.18,0.49,0.57,1.42,0.87,2.14c0.1,0.24,0.18,0.44,0.24,0.57c-0.27-0.17-0.53-0.33-0.8-0.5
				c-0.73-0.85-1.26-1.58-1.59-2.06c-0.74-1.07-1.02-1.66-1.93-3.07c-0.52-0.8-0.96-1.43-1.23-1.81c-0.26,0.91-0.33,1.64-0.34,2.15
				c-0.01,0.39,0.02,1.13,0.09,2.61c0,0.1,0.01,0.19,0.01,0.24c-0.58,0.07-1.4,0.18-2.38,0.34c-1.87,0.32-3.25,0.67-4.82,1.08
				c-2.23,0.58-3.35,0.87-4.01,1.14c-0.96,0.4-2.04,0.56-3,0.98c-0.3,0.13-0.61,0.27-0.85,0.16c-0.51-0.24-0.63-1.52,0.12-2.11
				C203.35,423.29,204.01,423.35,204.17,423.37z"/>
			
				<linearGradient id="ekg-middle-back-2_1_" gradientUnits="userSpaceOnUse" x1="257.6321" y1="373.309" x2="196.0324" y2="414.9746">
				<stop  offset="0" style="stop-color:#828635"/>
				<stop  offset="0.0333" style="stop-color:#828635"/>
				<stop  offset="1" style="stop-color:#828635"/>
			</linearGradient>
			<path id="ekg-middle-back-2" class="st4" d="M192.55,407.77c0.51-0.23,1.24-0.57,2.13-0.97c1.03-0.46,2.83-1.27,4.19-1.84
				c1.67-0.7,3.79-1.58,6.52-2.29c1.32-0.35,3.16-0.75,5.42-1c0.08-1.17,0.15-2.34,0.23-3.52c0.08-1.3,0.15-2.59,0.23-3.87
				c0.41,0.6,0.76,1.09,1,1.42c0.76,1.05,1.16,1.53,1.97,2.65c0.34,0.46,0.6,0.85,0.77,1.1c0.46-0.2,1.14-0.5,1.97-0.87
				c2.72-1.23,3.71-1.79,5.26-2.52c2.25-1.05,3.98-1.65,6.48-2.52c1.76-0.61,3.47-1.25,5.35-1.68c0.89-0.2,1.77-0.36,2.74-0.45
				c0.79-0.08,1.46-0.1,1.97-0.1c-0.02-0.59-0.06-1.2-0.13-1.84c-0.2-1.89-0.57-3.57-1-5.03c-0.31-1.27-0.62-2.54-0.94-3.81
				c0.48,0.49,1.21,1.28,2.03,2.32c0.73,0.93,0.69,0.99,1.68,2.26c0.27,0.35,1.04,1.32,2.1,2.55c0.28,0.33,0.53,0.6,0.71,0.81
				c-0.01-0.28,0.02-0.79,0.29-1.35c0.33-0.69,0.83-1.07,1.06-1.23c1.01-0.34,2.54-0.87,4.39-1.58c2.87-1.11,4.11-1.73,6.35-2.61
				c1.52-0.6,3.75-1.42,6.55-2.23c-0.11,0.24-0.22,0.47-0.32,0.71c-1.95,1.13-3.56,2-4.65,2.58c-1.61,0.85-2.84,1.46-7.94,3.94
				c-1.43,0.69-2.99,1.45-4.39,2.13c0,1.19,0,2.39,0,3.58c-1.2-1.24-1.98-2.37-2.48-3.19c-0.56-0.93-1.02-1.89-2.06-3.1
				c-0.44-0.51-0.85-0.9-1.13-1.16c0.25,1.54,0.46,2.8,0.61,3.68c0.25,1.46,0.39,2.16,0.58,3.39c0.19,1.23,0.33,2.24,0.42,2.9
				c-0.17-0.04-0.34-0.09-0.52-0.13c-0.09-0.25-0.39-1.04-1.23-1.55c-0.53-0.33-1.04-0.4-1.32-0.42c-0.6,0.18-1.52,0.46-2.65,0.84
				c-3.1,1.03-4.13,1.56-8.48,3.26c-3.18,1.24-3.67,1.36-6.71,2.58c-1.47,0.59-2.66,1.09-3.45,1.42c0.38,1.75,0.75,3.51,1.13,5.26
				c-0.16-0.06-0.32-0.13-0.48-0.19c-0.6-1.39-1.18-2.46-1.61-3.19c-0.53-0.89-1.11-1.76-2.19-3.61c-0.15-0.26-0.27-0.47-0.35-0.61
				c-0.09,1-0.16,2.04-0.19,3.13c-0.03,0.74-0.04,1.46-0.03,2.16c-0.7,0.01-1.73,0.06-2.97,0.19c-2.31,0.26-3.93,0.68-6.9,1.48
				c-3.16,0.85-4.74,1.28-6.19,1.87c-2.3,0.94-4.01,1.95-4.32,1.55C191.86,408.84,192.2,408.27,192.55,407.77z"/>
			
				<linearGradient id="ekg-middle-front-2_1_" gradientUnits="userSpaceOnUse" x1="257.3095" y1="373.051" x2="195.7098" y2="414.7166">
				<stop  offset="0" style="stop-color:#F2EA1A"/>
				<stop  offset="1" style="stop-color:#F1EA19"/>
			</linearGradient>
			<path id="ekg-middle-front-2" class="st5" d="M192.23,407.52c0.51-0.23,1.24-0.57,2.13-0.97c1.03-0.46,2.83-1.27,4.19-1.84
				c1.67-0.7,3.79-1.58,6.52-2.29c1.32-0.35,3.16-0.75,5.42-1c0.08-1.17,0.15-2.34,0.23-3.52c0.08-1.3,0.15-2.59,0.23-3.87
				c0.41,0.6,0.76,1.09,1,1.42c0.76,1.05,1.16,1.53,1.97,2.65c0.34,0.46,0.6,0.85,0.77,1.1c0.46-0.2,1.14-0.5,1.97-0.87
				c2.72-1.23,3.71-1.79,5.26-2.52c2.25-1.05,3.98-1.65,6.48-2.52c1.76-0.61,3.47-1.25,5.35-1.68c0.89-0.2,1.77-0.36,2.74-0.45
				c0.79-0.08,1.46-0.1,1.97-0.1c-0.02-0.59-0.06-1.2-0.13-1.84c-0.2-1.89-0.57-3.57-1-5.03c-0.31-1.27-0.62-2.54-0.94-3.81
				c0.48,0.49,1.21,1.28,2.03,2.32c0.73,0.93,0.69,0.99,1.68,2.26c0.27,0.35,1.04,1.32,2.1,2.55c0.28,0.33,0.53,0.6,0.71,0.81
				c-0.01-0.28,0.02-0.79,0.29-1.35c0.33-0.69,0.83-1.07,1.06-1.23c1.01-0.34,2.54-0.87,4.39-1.58c2.87-1.11,4.11-1.73,6.35-2.61
				c1.52-0.6,3.75-1.42,6.55-2.23c-0.11,0.24-0.22,0.47-0.32,0.71c-1.95,1.13-3.56,2-4.65,2.58c-1.61,0.85-2.84,1.46-7.94,3.94
				c-1.43,0.69-2.99,1.45-4.39,2.13c0,1.19,0,2.39,0,3.58c-1.2-1.24-1.98-2.37-2.48-3.19c-0.56-0.93-1.02-1.89-2.06-3.1
				c-0.44-0.51-0.85-0.9-1.13-1.16c0.25,1.54,0.46,2.8,0.61,3.68c0.25,1.46,0.39,2.16,0.58,3.39c0.19,1.23,0.33,2.24,0.42,2.9
				c-0.17-0.04-0.34-0.09-0.52-0.13c-0.09-0.25-0.39-1.04-1.23-1.55c-0.53-0.33-1.04-0.4-1.32-0.42c-0.6,0.18-1.52,0.46-2.65,0.84
				c-3.1,1.03-4.13,1.56-8.48,3.26c-3.18,1.24-3.67,1.36-6.71,2.58c-1.47,0.59-2.66,1.09-3.45,1.42c0.38,1.75,0.75,3.51,1.13,5.26
				c-0.16-0.06-0.32-0.13-0.48-0.19c-0.6-1.39-1.18-2.46-1.61-3.19c-0.53-0.89-1.11-1.76-2.19-3.61c-0.15-0.26-0.27-0.47-0.35-0.61
				c-0.09,1-0.16,2.04-0.19,3.13c-0.03,0.74-0.04,1.46-0.03,2.16c-0.7,0.01-1.73,0.06-2.97,0.19c-2.31,0.26-3.93,0.68-6.9,1.48
				c-3.16,0.85-4.74,1.28-6.19,1.87c-2.3,0.94-4.01,1.95-4.32,1.55C191.54,408.58,191.87,408.01,192.23,407.52z"/>
			
				<linearGradient id="ekg-middle-back-1_1_" gradientUnits="userSpaceOnUse" x1="246.7159" y1="352.4414" x2="193.6871" y2="388.3097">
				<stop  offset="0" style="stop-color:#838634"/>
				<stop  offset="0.0333" style="stop-color:#838634"/>
				<stop  offset="1" style="stop-color:#838634"/>
			</linearGradient>
			<path id="ekg-middle-back-1" class="st6" d="M192.13,381.55c1.83-0.75,3.99-1.49,6.45-2.06c1.56-0.36,3.03-0.61,4.39-0.77
				c0.02-2.49,0.04-4.99,0.06-7.48c0.72,0.86,1.46,1.79,2.19,2.77c0.62,0.83,1.2,1.65,1.74,2.45c1.32-0.54,3.4-1.41,5.94-2.58
				c3.42-1.57,4.1-2.03,6.39-2.9c3.55-1.35,6.06-1.83,6.65-1.94c1.92-0.35,3.56-0.47,4.77-0.52c-0.6-3.59-1.2-7.18-1.81-10.77
				c1.14,1.32,2.03,2.43,2.65,3.23c1.68,2.16,3.42,4.65,3.42,4.65c0.13-0.11,0.44-0.4,0.58-0.9c0.14-0.47,0.05-0.87,0-1.03
				c1.17-0.52,2.38-1.04,3.61-1.55c3.92-1.61,7.72-2.95,11.35-4.06c-0.01,0.41-0.02,0.82-0.03,1.23c-2.19,1.1-3.98,1.96-5.23,2.56
				c-1.06,0.51-2.11,1.02-3.17,1.52c-1.48,0.71-2.39,1.14-3.68,1.81c-0.67,0.36-1.22,0.66-1.6,0.87c-0.01,1.28-0.02,2.56-0.02,3.85
				c-0.2-0.19-0.52-0.5-0.9-0.92c-0.42-0.47-0.95-1.13-2.78-4.06c-0.39-0.63-0.79-1.27-1.45-2.08c-0.29-0.35-0.53-0.62-0.7-0.8
				c0.25,1.67,0.48,3.01,0.65,3.92c0.26,1.38,0.47,2.38,0.68,3.94c0.11,0.87,0.18,1.58,0.22,2.03c-0.05,0.08-0.13,0.17-0.24,0.19
				c-0.19,0.04-0.38-0.15-0.6-0.41c-0.64-0.76-0.67-1.11-1.09-1.4c-0.14-0.1-0.38-0.22-0.75-0.27c-0.66,0.19-1.6,0.46-2.73,0.82
				c-1.45,0.46-2.76,0.93-5.54,1.98c-4.92,1.87-4.27,1.74-6.73,2.61c-1.11,0.39-2.35,0.82-4.14,1.57c-1.05,0.44-1.9,0.84-2.47,1.11
				c0.09,1.14,0.28,2.01,0.46,2.61c0.14,0.5,0.46,1.44,0.7,2.18c0.08,0.24,0.15,0.44,0.19,0.58c-0.23-0.18-0.47-0.35-0.7-0.53
				c-0.62-0.88-1.07-1.63-1.35-2.13c-0.63-1.1-0.86-1.7-1.62-3.15c-0.43-0.82-0.81-1.47-1.04-1.86c-0.27,0.9-0.36,1.62-0.39,2.13
				c-0.02,0.39-0.02,1.13-0.02,2.61c0,0.1,0,0.19,0,0.24c-0.52,0.04-1.27,0.12-2.15,0.24c-1.7,0.24-2.95,0.53-4.38,0.87
				c-2.03,0.48-3.05,0.72-3.65,0.97c-0.88,0.36-1.86,0.47-2.73,0.85c-0.28,0.12-0.56,0.25-0.77,0.12c-0.45-0.26-0.51-1.55,0.19-2.1
				C191.4,381.43,191.99,381.52,192.13,381.55z"/>
			
				<linearGradient id="ekg-middle-front-1_1_" gradientUnits="userSpaceOnUse" x1="246.6675" y1="352.1349" x2="193.6387" y2="388.0032">
				<stop  offset="0" style="stop-color:#EFE919"/>
				<stop  offset="1" style="stop-color:#EFE919"/>
			</linearGradient>
			<path id="ekg-middle-front-1" class="st7" d="M192.08,381.24c1.83-0.75,3.99-1.49,6.45-2.06c1.56-0.36,3.03-0.61,4.39-0.77
				c0.02-2.49,0.04-4.99,0.06-7.48c0.72,0.86,1.46,1.79,2.19,2.77c0.62,0.83,1.2,1.65,1.74,2.45c1.32-0.54,3.4-1.41,5.94-2.58
				c3.42-1.57,4.1-2.03,6.39-2.9c3.55-1.35,6.06-1.83,6.65-1.94c1.92-0.35,3.56-0.47,4.77-0.52c-0.6-3.59-1.2-7.18-1.81-10.77
				c1.14,1.32,2.03,2.43,2.65,3.23c1.68,2.16,3.42,4.65,3.42,4.65c0.13-0.11,0.44-0.4,0.58-0.9c0.14-0.47,0.05-0.87,0-1.03
				c1.17-0.52,2.38-1.04,3.61-1.55c3.92-1.61,7.72-2.95,11.35-4.06c-0.01,0.41-0.02,0.82-0.03,1.23c-2.19,1.1-3.98,1.96-5.23,2.56
				c-1.06,0.51-2.11,1.02-3.17,1.52c-1.48,0.71-2.39,1.14-3.68,1.81c-0.67,0.36-1.22,0.66-1.6,0.87c-0.01,1.28-0.02,2.56-0.02,3.85
				c-0.2-0.19-0.52-0.5-0.9-0.92c-0.42-0.47-0.95-1.13-2.78-4.06c-0.39-0.63-0.79-1.27-1.45-2.08c-0.29-0.35-0.53-0.62-0.7-0.8
				c0.25,1.67,0.48,3.01,0.65,3.92c0.26,1.38,0.47,2.38,0.68,3.94c0.11,0.87,0.18,1.58,0.22,2.03c-0.05,0.08-0.13,0.17-0.24,0.19
				c-0.19,0.04-0.38-0.15-0.6-0.41c-0.64-0.76-0.67-1.11-1.09-1.4c-0.14-0.1-0.38-0.22-0.75-0.27c-0.66,0.19-1.6,0.46-2.73,0.82
				c-1.45,0.46-2.76,0.93-5.54,1.98c-4.92,1.87-4.27,1.74-6.73,2.61c-1.11,0.39-2.35,0.82-4.14,1.57c-1.05,0.44-1.9,0.84-2.47,1.11
				c0.09,1.14,0.28,2.01,0.46,2.61c0.14,0.5,0.46,1.44,0.7,2.18c0.08,0.24,0.15,0.44,0.19,0.58c-0.23-0.18-0.47-0.35-0.7-0.53
				c-0.62-0.88-1.07-1.63-1.35-2.13c-0.63-1.1-0.86-1.7-1.62-3.15c-0.43-0.82-0.81-1.47-1.04-1.86c-0.27,0.9-0.36,1.62-0.39,2.13
				c-0.02,0.39-0.02,1.13-0.02,2.61c0,0.1,0,0.19,0,0.24c-0.52,0.04-1.27,0.12-2.15,0.24c-1.7,0.24-2.95,0.53-4.38,0.87
				c-2.03,0.48-3.05,0.72-3.65,0.97c-0.88,0.36-1.86,0.47-2.73,0.85c-0.28,0.12-0.56,0.25-0.77,0.12c-0.45-0.26-0.51-1.55,0.19-2.1
				C191.35,381.13,191.94,381.22,192.08,381.24z"/>
		</g>
		<g id="ekg-bottom">
			
				<linearGradient id="ekg-bottom-back_1_" gradientUnits="userSpaceOnUse" x1="39.3327" y1="561.8062" x2="131.5291" y2="561.8062" gradientTransform="matrix(-0.6355 0.4298 0.5603 0.8283 -5.6033 11.8844)">
				<stop  offset="0" style="stop-color:#8B8D35"/>
				<stop  offset="0.0333" style="stop-color:#8B8D35"/>
				<stop  offset="1" style="stop-color:#8B8D35"/>
			</linearGradient>
			<path id="ekg-bottom-back" class="st8" d="M292.65,506.7c-2.8,0.54-5.05,1.05-6.57,1.42c-0.65,0.16-3.68,0.89-7.42,1.58
				c-3.42,0.63-4.52,0.68-5.8-0.05c-1.81-1.02-2.9-2.98-3.44-4.14c-0.26,1.17-0.42,2.27-0.51,3.27c-0.12,1.23-0.08,1.73-0.3,2.4
				c-0.25,0.75-0.78,1.61-1.98,2.28c-3.49,0.9-7.96,2.05-11.46,2.95c-2.67,0.69-7.02,1.8-9.69,2.48c-0.2,0.15-0.55,0.36-1.02,0.27
				c-0.65-0.12-1.18-0.75-1.46-1.1c-0.97-1.22-4.4-5.94-8.96-12.42c0.34,2.24,0.68,4.48,1.02,6.72c0.57,3.81,1.14,7.6,1.69,11.38
				c0.01,0.04,0.04,0.18,0,0.3c-0.06,0.14-0.19,0.2-0.36,0.18c-0.97-1.38-1.8-2.52-2.45-3.39c-0.67-0.91-1.16-1.55-1.43-1.48
				c-0.29,0.07-0.25,0.89-0.22,1.58c0.04,0.8,0.18,1.24-0.04,1.71c-0.09,0.19-0.22,0.32-0.36,0.44c-1.05,0.84-3.51,1.15-5.09,1.49
				c-0.35,0.07-0.04,0.02-1.71,0.45c-3.23,0.84-4.16,0.98-4.17,1.61c0,0.27,0.16,0.76,1.25,1.62c1.9-0.71,3.5-1.12,4.61-1.36
				c1.68-0.36,3.38-0.59,5.9-1.4c0.4-0.13,0.72-0.24,0.93-0.31c-0.13-0.28-0.85-1.83-0.32-2.64c0.05-0.07,0.1-0.13,0.17-0.19
				c0.81,0.69,1.36,1.33,1.71,1.78c0.61,0.79,0.96,1.44,1.79,2.2c0.34,0.31,0.64,0.52,0.83,0.65c0.11-0.13,0.23-0.26,0.34-0.39
				c-0.15-2.65-0.25-4.5-0.32-5.81c-0.3-5.52-0.3-5.67-0.38-5.89c-0.03-0.08-0.17-0.44-0.06-0.71c0.09-0.2,0.29-0.27,0.43-0.29
				c0.84,0.93,1.53,1.71,2.02,2.27c2.11,2.42,3.16,3.62,3.6,4.26c0.91,1.3,1.14,1.9,1.84,2.24c0.95,0.45,1.81-0.02,2.15-0.2
				c0.5-0.27,3.38-1.26,9.13-3.24c2.16-0.74,4.71-1.62,7.37-1.89c0.63-0.06,2.6-0.23,4.67-1.4c0.33-0.19,0.59-0.36,0.76-0.47
				c0.21-0.71,0.41-1.47,0.59-2.28c0.24-1.06,0.43-2.08,0.58-3.05c0.26,0.14,0.63,0.34,1.07,0.57c0.77,0.39,1.66,0.79,2.25,1.02
				c1.24,0.47,2.23,0.56,3.48,0.66c0.83,0.07,2.08,0.12,3.92-0.07c2.06-0.2,2.02-0.42,4.96-0.89c2.69-0.43,4.04-0.64,4.53-0.68
				c1.67-0.11,2.52-0.01,2.85-0.67C294,509.15,293.15,507.53,292.65,506.7z"/>
			
				<linearGradient id="ekg-bottom-front_1_" gradientUnits="userSpaceOnUse" x1="38.7192" y1="560.9952" x2="130.9156" y2="560.9952" gradientTransform="matrix(-0.6355 0.4298 0.5603 0.8283 -5.6033 11.8844)">
				<stop  offset="0" style="stop-color:#F2EA1A"/>
				<stop  offset="1" style="stop-color:#F1EA19"/>
			</linearGradient>
			<path id="ekg-bottom-front" class="st9" d="M292.59,505.76c-2.8,0.54-5.05,1.05-6.57,1.42c-0.65,0.16-3.68,0.89-7.42,1.58
				c-3.42,0.63-4.52,0.68-5.8-0.05c-1.81-1.02-2.9-2.98-3.44-4.14c-0.26,1.17-0.42,2.27-0.51,3.27c-0.12,1.23-0.08,1.73-0.3,2.4
				c-0.25,0.75-0.78,1.61-1.98,2.28c-3.49,0.9-7.96,2.05-11.46,2.95c-2.67,0.69-7.02,1.8-9.69,2.48c-0.2,0.15-0.55,0.36-1.02,0.27
				c-0.65-0.12-1.18-0.75-1.46-1.1c-0.97-1.22-4.4-5.94-8.96-12.42c0.34,2.24,0.68,4.48,1.02,6.72c0.57,3.81,1.14,7.6,1.69,11.38
				c0.01,0.04,0.04,0.18,0,0.3c-0.06,0.14-0.19,0.2-0.36,0.18c-0.97-1.38-1.8-2.52-2.45-3.39c-0.67-0.91-1.16-1.55-1.43-1.48
				c-0.29,0.07-0.25,0.89-0.22,1.58c0.04,0.8,0.18,1.24-0.04,1.71c-0.09,0.19-0.22,0.32-0.36,0.44c-1.05,0.84-3.51,1.15-5.09,1.49
				c-0.35,0.07-0.04,0.02-1.71,0.45c-3.23,0.84-4.16,0.98-4.17,1.61c0,0.27,0.16,0.76,1.25,1.62c1.9-0.71,3.5-1.12,4.61-1.36
				c1.68-0.36,3.38-0.59,5.9-1.4c0.4-0.13,0.72-0.24,0.93-0.31c-0.13-0.28-0.85-1.83-0.32-2.64c0.05-0.07,0.1-0.13,0.17-0.19
				c0.81,0.69,1.36,1.33,1.71,1.78c0.61,0.79,0.96,1.44,1.79,2.2c0.34,0.31,0.64,0.52,0.83,0.65c0.11-0.13,0.23-0.26,0.34-0.39
				c-0.15-2.65-0.25-4.5-0.32-5.81c-0.3-5.52-0.3-5.67-0.38-5.89c-0.03-0.08-0.17-0.44-0.06-0.71c0.09-0.2,0.29-0.27,0.43-0.29
				c0.84,0.93,1.53,1.71,2.02,2.27c2.11,2.42,3.16,3.62,3.6,4.26c0.91,1.3,1.14,1.9,1.84,2.24c0.95,0.45,1.81-0.02,2.15-0.2
				c0.5-0.27,3.38-1.26,9.13-3.24c2.16-0.74,4.71-1.62,7.37-1.89c0.63-0.06,2.6-0.23,4.67-1.4c0.33-0.19,0.59-0.36,0.76-0.47
				c0.21-0.71,0.41-1.47,0.59-2.28c0.24-1.06,0.43-2.08,0.58-3.05c0.26,0.14,0.63,0.34,1.07,0.57c0.77,0.39,1.66,0.79,2.25,1.02
				c1.24,0.47,2.23,0.56,3.48,0.66c0.83,0.07,2.08,0.12,3.92-0.07c2.06-0.2,2.02-0.42,4.96-0.89c2.69-0.43,4.04-0.64,4.53-0.68
				c1.67-0.11,2.52-0.01,2.85-0.67C293.94,508.22,293.08,506.59,292.59,505.76z"/>
		</g>
		<g id="dna-red">
			<linearGradient id="dna-red-top_1_" gradientUnits="userSpaceOnUse" x1="132.6235" y1="257.2163" x2="242.9756" y2="257.2163">
				<stop  offset="0" style="stop-color:#EE3424"/>
				<stop  offset="0.2911" style="stop-color:#EE3025"/>
				<stop  offset="0.6685" style="stop-color:#B72226"/>
				<stop  offset="0.8876" style="stop-color:#8A181B"/>
				<stop  offset="1" style="stop-color:#831619"/>
			</linearGradient>
			<path id="dna-red-top" class="st10" d="M137.33,220.36c-1.86-0.07-3.12-1.37-3.23-1.48c-0.79-0.85-1.03-1.76-1.23-2.52
				c-0.51-2.04-0.13-3.88,0.19-4.84c1.15-3.39,4.75-5.14,6.45-5.94c12.53-5.86,23.42-8.26,23.42-8.26c1.93-0.4,3.66-0.79,5.25-1.11
				c6.26-1.25,9.99-2.21,13.26-2.57c8.91-0.97,15.86-1.73,24.13,0.65c8.46,2.43,14.01,6.89,16.77,9.16
				c6.29,5.17,10.72,11.17,13.65,16.81c1.62,3.13,2.9,6.16,3.77,8.85c1.34,4.17,1.85,7.57,2.19,9.44c0.38,2.06,1.48,8.61,0.77,17.1
				c-0.8,9.7-3.52,16.62-6.32,23.61c-4.68,11.67-10.14,19.72-13.61,24.77c-6.54,9.52-13.86,17.97-14.26,17.68
				c-0.2-0.15,1.41-2.38,3.81-6.26c8.35-13.55,12.49-24.89,13.55-27.87c1.41-3.98,2.7-7.62,3.74-12.84
				c1.11-5.52,2.61-13.38,1.03-23.23c-0.63-3.95-2.13-12.69-8.52-21.81c-1.33-1.9-7.08-9.83-17.74-15.55
				c-3.5-1.88-9.38-4.95-17.48-5.48c-2.93-0.19-5.4,0.11-10.32,0.71c-5.59,0.68-13.14,1.61-21.94,4.65
				c-8.82,3.05-11.85,4.56-13.73,5.4C140.56,219.61,139.06,220.42,137.33,220.36z"/>
			
				<linearGradient id="dna-red-bottom_1_" gradientUnits="userSpaceOnUse" x1="191.5395" y1="467.3422" x2="308.0614" y2="467.3422">
				<stop  offset="0" style="stop-color:#66140F"/>
				<stop  offset="0.0537" style="stop-color:#731714"/>
				<stop  offset="0.1296" style="stop-color:#801819"/>
				<stop  offset="0.2078" style="stop-color:#89191B"/>
				<stop  offset="0.2911" style="stop-color:#8B191C"/>
				<stop  offset="0.6685" style="stop-color:#E82927"/>
				<stop  offset="0.8826" style="stop-color:#EE3424"/>
				<stop  offset="1" style="stop-color:#EE3424"/>
			</linearGradient>
			<path id="dna-red-bottom" class="st11" d="M290.33,528.65c0.12,3.23,3.84,5.39,4.32,5.68c0.97,0.57,2.47,1.44,4.52,1.35
				c4.06-0.16,6.32-3.86,6.52-4.19c0.64-1.09,0.83-1.99,1.23-4.84c0.63-4.52,0.94-6.78,1.03-8.84c0.15-3.65,0.45-10.71-1.29-18.58
				c-2.78-12.53-9.38-21.01-12.32-24.71c-0.37-0.46-9.25-11.42-23.1-18.65c-5.38-2.81-11.84-5.22-12.19-5.35
				c-4.17-1.55-4.08-1.24-11.16-3.61c-7.29-2.45-7.78-2.91-15.35-5.42c-4.75-1.57-5.2-1.6-7.68-2.58c-2.91-1.15-6.38-2.54-10.45-5.1
				c-4.81-3.03-8.06-6.19-9.61-7.81c-3.83-3.98-6.16-7.72-7.29-9.68c-1.65-2.86-4.45-7.83-5.45-14.42c-0.22-1.43-0.34-2.91-0.42-2.9
				c-0.13,0.01-0.22,4.14,0.77,8.55c0.74,3.25,1.83,5.6,2.65,7.29c5.83,12.05,11.74,20.52,11.74,20.52
				c4.77,6.83,9.03,11.69,11.74,14.77c2.67,3.04,5.04,5.52,6.84,7.35c1.76,0.55,4.47,1.38,7.81,2.32
				c10.05,2.83,13.28,3.14,18.97,5.16c1.94,0.69,6.61,2.45,11.94,5.61c4.32,2.57,11.99,7.24,18.39,16.32
				c4.9,6.96,6.81,13.33,7.35,15.29c1.79,6.42,1.81,11.72,1.81,14.39c-0.01,5.11-0.02,7.67-0.9,10.06
				C290.56,527.06,290.29,527.73,290.33,528.65z"/>
			
				<linearGradient id="dna-red-middle_1_" gradientUnits="userSpaceOnUse" x1="141.7134" y1="328.1063" x2="142.2134" y2="328.1063">
				<stop  offset="0" style="stop-color:#DA2428"/>
				<stop  offset="9.681595e-03" style="stop-color:#DA2428"/>
				<stop  offset="0.2911" style="stop-color:#DA2428"/>
				<stop  offset="0.5355" style="stop-color:#E73F3F"/>
				<stop  offset="0.7802" style="stop-color:#DA2428"/>
				<stop  offset="1" style="stop-color:#DA2428"/>
			</linearGradient>
			<path id="dna-red-middle" class="st12" d="M225.71,457.68c-3.34-1.2-7.51-2.9-12.13-5.29c-2.57-1.33-7.38-3.85-12.9-8
				c-3.93-2.95-9.59-7.27-14.97-14.58c-2.17-2.94-6.6-9.08-9.29-18.32c-2.99-10.27-2.18-18.75-1.68-23.48
				c0.68-6.43,2.13-11.26,3.23-14.84c0.43-1.39,2.47-7.96,6.84-16.52c3.01-5.89,5.57-9.69,10.71-17.29
				c2.97-4.39,7.27-10.51,12.9-17.68c5.07-6.45,4.93-5.76,8.52-10.45c7.38-9.67,11.93-17.79,13.55-20.77
				c3.22-5.93,6.08-11.25,8.52-18.97c1.13-3.56,2.77-8.89,3.35-16.13c0.48-5.95,0.03-10.62-0.26-13.42
				c-0.4-3.95-0.77-7.59-2.19-12.26c-2.54-8.32-6.62-13.95-8.52-16.52c-1.07-1.45-2.65-3.45-4.77-5.68
				c-4.02-4.22-8.18-7.04-11.16-8.95c0.84,0.33,2.15,0.71,3.45,1.32c1.28,0.6,3.41,1.6,5.65,3.05c2.33,1.5,3.81,2.87,6.77,5.61
				c1.43,1.32,2.54,2.34,3.94,3.87c0.78,0.85,2.69,2.99,4.77,6.06c3.35,4.93,5.11,9.25,5.68,10.71c1.68,4.31,2.37,7.77,2.77,9.87
				c0.86,4.43,1.02,7.82,1.16,11.1c0.13,3.03,0.29,6.87-0.19,11.74c-0.43,4.37-1.17,7.37-2.65,13.35
				c-1.35,5.47-2.31,9.39-4.32,14.52c-0.6,1.54-1.73,4.06-4,9.1c-2.08,4.63-3.12,6.95-4.19,9.1c-2.3,4.61-4.31,8.04-6,10.9
				c-1.74,2.96-3.06,5.02-5.61,9.03c-6.24,9.79-10.54,15.97-11.42,17.23c-1.89,2.7-2.96,4.24-4.52,6.32
				c-0.58,0.77-1.21,1.61-2.19,2.97c-1.37,1.9-2.15,2.98-2.84,4.06c-0.85,1.35-1.51,2.84-2.84,5.81c-0.9,2.01-1.96,4.4-3.16,7.68
				c-0.56,1.52-1.09,2.96-1.68,4.97c-0.89,3.04-1.35,5.41-1.48,6.13c-0.15,0.78-0.77,4.2-0.97,8.9c-0.08,1.79-0.17,4.14,0.06,7.23
				c0.43,5.73,1.7,10.07,2.32,12c0.94,2.93,1.91,5.03,2.77,6.9c1.39,3.01,2.56,5.03,4.58,8.52c1.75,3.02,3.05,5.25,5.1,8.13
				c1.23,1.74,2.26,3.03,3.23,4.26c1.56,1.98,2.02,2.44,5.35,6.39c3.79,4.48,4.3,5.18,6,6.97c1.57,1.65,3.1,2.91,3.87,3.81
				C225.26,456.58,225.43,457.16,225.71,457.68z"/>
		</g>
		<g id="dna-blue">
			<linearGradient id="blue-dna-top_1_" gradientUnits="userSpaceOnUse" x1="146.9179" y1="322.8433" x2="264.6863" y2="322.8433">
				<stop  offset="0" style="stop-color:#516DB4"/>
				<stop  offset="0.0567" style="stop-color:#4C68B1"/>
				<stop  offset="0.1701" style="stop-color:#4562AD"/>
				<stop  offset="0.2911" style="stop-color:#4360AC"/>
				<stop  offset="0.6685" style="stop-color:#2E4D9F"/>
				<stop  offset="0.8876" style="stop-color:#243F92"/>
				<stop  offset="1" style="stop-color:#293986"/>
			</linearGradient>
			<path id="blue-dna-top" class="st13" d="M165.1,257.39c-0.59-2.78-1.6-3.85-4.97-4.94c-0.26-0.09-1.66-0.52-3.45-0.26
				c-2.26,0.32-3.74,1.54-4.48,2.16c0,0-1.64,1.38-2.71,3.42c-4.76,9.06-1.45,26.65-1.45,26.65c0.78,4.16,1.72,8.96,4.29,14.97
				c1.46,3.41,4.87,10.49,11.52,17.71c5.84,6.33,11.44,9.81,15.68,12.39c7.5,4.57,13.56,6.72,25.35,10.84
				c16.63,5.8,17.32,4.6,26.32,8.81c13.46,6.29,19.02,12.29,20.81,14.32c5.48,6.25,7.77,11.96,8.23,13.16
				c2.7,7.04,2.81,13.3,2.59,16.96c0.94-3.21,1.94-7.93,1.86-13.67c-0.02-1.66-0.21-6.65-2.03-12.87c-2.26-7.72-5.84-12.86-9-17.32
				c-5.14-7.25-8.34-12.28-14.81-15.77c-1.56-0.85-3.27-1.47-6.68-2.71c-8.52-3.11-14.72-4.34-18.39-5.23
				c-2.66-0.64-13.31-3.29-23.03-9.1c-4.79-2.86-14.72-8.79-21-20.81c-5.89-11.26-5.9-22.37-5.61-28.26
				C164.3,264.43,164.89,262.03,165.1,257.39z"/>
			
				<linearGradient id="blue-dna-middle_1_" gradientUnits="userSpaceOnUse" x1="242.6052" y1="592.039" x2="242.6052" y2="334.2024">
				<stop  offset="0" style="stop-color:#658FCA"/>
				<stop  offset="0.0215" style="stop-color:#618BC7"/>
				<stop  offset="0.1093" style="stop-color:#517EBF"/>
				<stop  offset="0.1997" style="stop-color:#4876BB"/>
				<stop  offset="0.2961" style="stop-color:#4474B9"/>
				<stop  offset="0.6685" style="stop-color:#4173B9"/>
				<stop  offset="0.8876" style="stop-color:#507DBF"/>
				<stop  offset="1" style="stop-color:#638EC9"/>
			</linearGradient>
			<path id="blue-dna-middle" class="st14" d="M239.32,334.2c1.53,1.68,2.8,3.01,3.65,3.9c1.59,1.64,1.94,1.93,3.1,3.19
				c1.21,1.33,2.11,2.39,3.1,3.58c1.04,1.25,2.01,2.44,2.52,3.1c3.38,4.32,6.1,9.39,6.1,9.39c1.45,2.7,3.46,6.5,4.94,11.9
				c0.59,2.17,1.65,6.14,1.74,11.42c0.02,1.14,0.04,5.25-1.06,10.45c-0.21,1-0.42,1.82-0.58,2.42c-0.01,0.82-0.03,1.95-0.1,3.29
				c-0.09,1.89-0.23,4.55-0.77,7.94c-0.52,3.21-1.17,5.66-1.45,6.68c-0.67,2.41-1.33,4.19-1.94,5.81c-0.28,0.76-1.02,2.71-2.13,5.23
				c-1.08,2.45-2.09,4.75-3.77,7.65c-1.84,3.16-3.52,5.42-3.97,6c-1.04,1.37-2.15,2.7-3.77,4.65c-1.11,1.33-1.92,2.27-2.13,2.52
				c-3.7,4.33-6.52,9.82-11.32,17.03c-1.57,2.35-2.36,3.14-3.77,5.42c-0.47,0.75-0.89,1.47-3.77,6.77c-1.63,3-2.45,4.5-3.29,6.1
				c-1.67,3.17-2.51,4.75-3.48,6.77c-1.22,2.55-2.05,4.5-2.81,6.29c-1.07,2.53-2.11,4.98-3.29,8.32c-1.84,5.18-2.9,9.32-3.39,11.32
				c-0.17,0.68-0.6,2.48-1.06,4.84c-0.5,2.5-1.25,6.28-1.65,10.84c-0.13,1.51-0.53,6.63,0,13.35c0.43,5.45,1.12,9.35,2.32,13.65
				c0.51,1.81,0.76,2.52,2.18,6.27c1.3,3.42,1.5,3.41,1.79,4.09c1.32,3.08,2.75,5.18,4.45,7.65c1.57,2.27,3.09,4.47,5.61,7.06
				c0.57,0.58,2.97,3.01,6.68,5.61c1.77,1.24,4.12,2.87,7.55,4.35c1.52,0.66,4.68,1.91,8.9,2.61c3,0.5,5.85,0.43,11.42,0.29
				c2.53-0.06,5.8-0.19,9.63-0.44c-0.83-0.34-2.09-0.84-3.63-1.4c-5.55-2.03-7.82-2.15-10.84-3.48c-1.58-0.7-5.03-2.32-9-5.13
				c-1.18-0.84-5.45-3.94-9.97-9.19c-2.11-2.46-5.29-6.21-7.94-11.9c-2.03-4.37-2.76-7.77-4.06-13.84
				c-0.8-3.72-1.62-7.64-1.84-12.97c-0.19-4.63,0.17-8.15,0.39-10.16c0.13-1.19,0.76-6.85,2.9-14.23c0.8-2.77,1.5-5.24,2.9-8.42
				c0.24-0.55,0.86-1.92,3.39-6.58c2.46-4.54,3.7-6.82,4.55-8.13c2.84-4.38,4.12-4.99,7.65-9.87c1.73-2.4,2.13-3.54,4.55-7.06
				c1.43-2.08,2.56-3.59,3.48-4.84c7.99-10.71,9.81-12.82,12.97-17.52c0.97-1.44,2.58-3.9,4.45-7.06
				c5.51-9.33,8.45-16.65,9.39-19.06c1.1-2.84,2.13-5.52,3.1-9.29c1.05-4.13,1.51-7.55,1.84-10.06c0.25-1.94,0.54-4.22,0.68-7.26
				c0.13-3.02,0.27-6.15-0.29-10.06c-0.54-3.82-1.48-6.52-2.61-9.77c-0.91-2.61-2-5.71-4.06-9.48c-2.62-4.78-5.34-7.98-6.97-9.87
				c-3.07-3.57-5.76-5.9-8.13-7.94c-1.14-0.98-4.43-3.75-9.1-6.87C246.47,338.17,243.15,336.16,239.32,334.2z"/>
			
				<linearGradient id="blue-dna-bottom_1_" gradientUnits="userSpaceOnUse" x1="326.9089" y1="534.2346" x2="216.7728" y2="534.2346">
				<stop  offset="0.0279" style="stop-color:#5CC9DF"/>
				<stop  offset="0.057" style="stop-color:#57C8E2"/>
				<stop  offset="0.1727" style="stop-color:#44C6E9"/>
				<stop  offset="0.2961" style="stop-color:#3CC5EC"/>
				<stop  offset="0.6685" style="stop-color:#3097D3"/>
				<stop  offset="0.8876" style="stop-color:#3567B1"/>
				<stop  offset="1" style="stop-color:#3662AE"/>
			</linearGradient>
			<path id="blue-dna-bottom" class="st15" d="M239.44,476.92c-3.49,3.49-6.05,6.77-7.85,9.34c-0.51,0.72-2.23,3.2-4.16,6.68
				c-2.01,3.62-3.22,6.46-4.45,9.39c-1.81,4.29-2.77,6.59-3.68,9.97c-0.89,3.34-1.22,5.82-1.74,9.87c-0.49,3.81-0.83,6.35-0.77,9.87
				c0.03,2.23,0.25,4.13,0.68,7.94c0.47,4.13,0.7,6.19,1.26,8.81c1.07,5.01,2.58,8.68,3,9.68c2.2,5.22,4.74,8.76,6.39,11.03
				c1.73,2.39,3.96,5.42,7.65,8.71c1.03,0.92,4.69,4.1,10.26,6.97c4.56,2.35,8.42,3.47,12.48,4.65c2.85,0.83,5.26,1.38,6.97,1.74
				c0.34-0.02,0.84-0.05,1.45-0.1c7.82-0.59,13.11-2.32,21-4.35c8.52-2.19,16.94-5.03,25.16-7.74c0.7-0.23,3.4-0.92,6.68-3
				c3.49-2.22,4.9-4.24,5.23-4.74c0.77-1.17,1.99-3.03,1.94-5.61c-0.04-1.75-0.64-3.11-1.06-3.87c-0.38-0.67-1.33-2.39-3.19-3.19
				c-1.31-0.57-2.58-0.46-5.03,0.1c-4.36,0.99-7.59,2.3-8.13,2.52c0,0-1.02,0.41-8.52,3.39c-5.13,2.04-9.1,3.3-12.39,4.35
				c-4.52,1.44-7.74,2.47-12.29,3.48c-3.42,0.76-6.04,1.34-9.68,1.65c-6.55,0.55-11.58-0.2-13.26-0.48
				c-4.19-0.7-8.09-1.35-12.48-3.87c-3.57-2.05-5.76-4.36-8.52-7.26c-2.38-2.51-4.72-4.97-6.77-8.9c-1.91-3.66-2.59-6.72-3.29-9.87
				c-0.3-1.34-1.32-6.18-1.35-12.97c-0.01-1.49,0.01-8.15,1.94-16.74c1.45-6.48,3.36-11.23,5.61-16.84c1.14-2.85,2.09-5.2,3.68-8.32
				c2.55-5.01,3.84-7.34,4.5-8.35C237.75,479.15,238.73,477.83,239.44,476.92z"/>
		</g>
	</g>
	<g id="jesse-letters">
		<path id="jesse-letter-j" class="st16" d="M319.17,381.49c0.24-0.26,0.43-0.59,0.72-0.76c6.45-3.88,8.78-10.06,8.87-17.06
			c0.22-16.88,0.12-33.77,0.11-50.65c0-2.57-1.28-3.72-4.18-4.05c-0.8-0.09-1.61-0.13-2.75-0.22c1.63-1.53,20.87-1.46,21.95-0.15
			c-0.37,0.11-0.69,0.26-1.01,0.3c-4.04,0.52-4.7,1.16-4.72,5.28c-0.04,14.33,0.03,28.65-0.03,42.98
			c-0.06,12.05-7.03,19.43-17.05,24.63c-0.49,0.25-1.11,0.23-1.67,0.34C319.33,381.92,319.25,381.71,319.17,381.49z"/>
		<path id="jesse-letter-e-1" class="st16" d="M348.81,361.86c0.17-0.12,0.34-0.34,0.52-0.35c4.06-0.2,4.92-1.17,4.97-6.09
			c0.14-13.9,0.09-27.8,0.08-41.7c0-3.36-1.17-4.48-4.6-4.8c-0.73-0.07-1.43-0.35-2.05-0.95c11.28-0.77,22.51,0.13,33.95-0.87
			c-0.33,3.48-0.69,7.27-1.05,11.06c-0.28,0-0.56,0-0.85-0.01c-0.12-0.67-0.28-1.34-0.34-2.02c-0.19-2.25-1.31-3.84-3.57-4.05
			c-3.98-0.37-7.99-0.48-12.14-0.7c0,6.72,0,13.13,0,19.95c5.51-0.86,11.36,1.58,16.97-2.42c-0.39,4.39-0.76,8.49-1.13,12.59
			c-0.24,0-0.48-0.01-0.73-0.01c-0.11-0.37-0.28-0.74-0.31-1.11c-0.24-3.66-0.94-4.61-4.51-4.84c-3.35-0.22-6.72-0.05-10.43-0.05
			c0,0.96,0,2.16,0,3.37c0,4.61-0.03,9.22,0.01,13.83c0.03,3.82,1.56,5.51,5.36,5.76c2.25,0.15,4.53,0.17,6.78,0.02
			c3.97-0.26,5.26-1.45,6.17-5.25c0.15-0.64,0.32-1.28,0.58-2.32c0.5,0.62,0.82,0.85,0.8,1.04c-0.32,3.18-0.55,6.39-1.14,9.52
			c-0.11,0.6-1.68,1.29-2.59,1.31c-3.73,0.07-7.46-0.14-11.19-0.17c-5.63-0.05-11.27-0.04-16.9-0.07c-0.9-0.01-1.79-0.11-2.68-0.16
			C348.79,362.21,348.8,362.03,348.81,361.86z"/>
		<path id="jesse-letter-s-1" class="st16" d="M392.49,347.82c0.18,1.1,0.38,2.2,0.55,3.31c1.15,7.26,9.62,11.32,16.01,7.67
			c5.07-2.89,6.16-10.55,1.87-15c-2.05-2.13-4.75-3.6-7.04-5.52c-2.95-2.47-6.28-4.7-8.57-7.71c-5.72-7.51-4.23-21.47,10.15-23.82
			c4.07-0.66,8.39,0.21,12.59,0.46c1.39,0.08,1.93,0.91,1.8,2.39c-0.22,2.62-0.22,5.26-0.35,7.89c-0.03,0.66-0.23,1.31-0.35,1.96
			c-0.23,0.01-0.45,0.01-0.68,0.02c-0.14-0.63-0.32-1.25-0.4-1.89c-0.5-3.72-3.2-6.68-6.77-7.4c-4.44-0.9-8.76,0.63-10.67,3.77
			c-1.75,2.88-1.44,7.01,1.16,9.5c2.03,1.95,4.53,3.41,6.74,5.18c2.96,2.36,6.25,4.44,8.68,7.27c6.5,7.57,5,19.09-3.03,24.96
			c-4.1,3-8.88,3.87-13.83,3.17c-2.6-0.37-5.17-1.15-7.63-2.08c-0.82-0.31-1.76-1.64-1.78-2.52c-0.07-3.43,0.18-6.87,0.38-10.3
			c0.03-0.47,0.42-0.92,0.64-1.39C392.12,347.77,392.31,347.8,392.49,347.82z"/>
		<path id="jesse-letter-s-2" class="st16" d="M431,347.33c0.47,2.35,0.68,4.16,1.21,5.87c1.28,4.16,5.02,6.62,10.18,6.85
			c3.89,0.17,7.39-1.87,8.91-5.2c1.74-3.82,1.05-8.59-2.13-11.5c-2.41-2.2-5.21-3.98-7.89-5.87c-4.3-3.03-8.23-6.31-9.69-11.71
			c-2.49-9.24,2.81-17.49,12.23-19.15c4.35-0.76,8.59-0.26,12.84,0.55c1.31,0.25,1.99,0.84,1.86,2.37
			c-0.23,2.62-0.22,5.26-0.36,7.89c-0.03,0.67-0.21,1.32-0.32,1.99c-0.22,0.01-0.44,0.03-0.66,0.04c-0.15-0.54-0.37-1.07-0.44-1.63
			c-0.47-3.75-2.93-6.74-6.3-7.61c-4.26-1.1-8.68,0.25-10.87,3.32c-2.06,2.89-1.88,7.21,0.83,9.85c2.02,1.97,4.5,3.44,6.74,5.19
			c2.81,2.2,5.89,4.15,8.3,6.73c7.7,8.23,5.25,23.65-6.84,27.64c-6.24,2.06-12.03,1.3-17.8-1.21c-0.58-0.25-1.23-1.21-1.22-1.83
			c0.04-3.73,0.24-7.45,0.44-11.17C430.04,348.41,430.45,348.1,431,347.33z"/>
		<path id="jesse-letter-e-2" class="st16" d="M465.68,361.86c0.17-0.12,0.34-0.34,0.52-0.35c4.06-0.2,4.92-1.17,4.97-6.09
			c0.14-13.9,0.09-27.8,0.08-41.7c0-3.36-1.17-4.48-4.6-4.8c-0.73-0.07-1.43-0.35-2.05-0.95c11.29-0.73,22.51,0.09,33.95-0.84
			c-0.33,3.45-0.69,7.25-1.05,11.04c-0.28,0-0.56,0-0.85-0.01c-0.12-0.67-0.28-1.34-0.34-2.02c-0.19-2.25-1.31-3.84-3.57-4.05
			c-3.98-0.37-7.99-0.48-12.14-0.7c0,6.72,0,13.13,0,19.95c5.51-0.86,11.36,1.58,16.97-2.42c-0.39,4.39-0.76,8.49-1.13,12.58
			c-0.24,0-0.48,0-0.73-0.01c-0.11-0.37-0.28-0.74-0.31-1.11c-0.24-3.66-0.94-4.61-4.51-4.84c-3.35-0.22-6.72-0.05-10.43-0.05
			c0,0.96,0,2.16,0,3.37c0,4.61-0.03,9.22,0.01,13.83c0.03,3.82,1.56,5.51,5.36,5.76c2.25,0.15,4.53,0.17,6.78,0.02
			c3.97-0.26,5.26-1.45,6.17-5.25c0.15-0.64,0.32-1.28,0.58-2.32c0.5,0.62,0.82,0.85,0.8,1.04c-0.32,3.18-0.55,6.39-1.14,9.52
			c-0.11,0.6-1.68,1.29-2.59,1.31c-3.73,0.07-7.46-0.14-11.19-0.17c-5.63-0.05-11.27-0.04-16.9-0.07c-0.9-0.01-1.8-0.11-2.69-0.16
			C465.66,362.21,465.67,362.03,465.68,361.86z"/>
	</g>
	<g id="james-letters">
		<path id="james-letter-j" class="st16" d="M521.21,381.62c0.23-0.26,0.41-0.6,0.69-0.77c6.77-4.09,8.86-10.61,8.93-17.93
			c0.16-16.37,0.1-32.75,0.1-49.12c0-3.34-1.19-4.49-4.61-4.77c-0.58-0.05-1.16-0.09-1.73-0.17c-0.1-0.01-0.16-0.22-0.5-0.68
			c0.8-0.2,1.47-0.5,2.14-0.51c5.92-0.04,11.84-0.04,17.76,0c0.65,0,1.3,0.3,1.95,0.46c-0.02,0.19-0.04,0.37-0.06,0.56
			c-0.38,0.11-0.76,0.26-1.15,0.31c-3.76,0.48-4.51,1.2-4.52,5.02c-0.03,13.74-0.16,27.49,0.08,41.23
			c0.22,12.41-5.87,20.63-16.36,26.23c-0.74,0.39-1.59,0.56-2.4,0.83C521.43,382.07,521.32,381.85,521.21,381.62z"/>
		<path id="james-letter-a" class="st16" d="M595.15,361.36c-1.01-0.17-1.95-0.77-2.62-1.7c-1.22-1.71-2.4-3.51-3.17-5.45
			c-3.59-8.98-7.04-18.02-10.51-27.05c-2.38-6.18-4.69-12.38-7.12-18.53c-0.4-1.01-1.27-1.83-1.93-2.74c-0.7,0.93-1.4,1.87-2.09,2.8
			c-0.09,0.12-0.15,0.25-0.2,0.39c-3.42,8.89-6.82,17.79-10.25,26.68c-2.61,6.79-5.28,13.56-7.85,20.36
			c-1.21,3.2-3.06,5.46-6.83,5.38c-0.37-0.01-0.74,0.28-1.5,0.58c0.71,0.41,1.09,0.83,1.48,0.83c5.19,0.05,10.39,0.05,15.58-0.01
			c0.35,0,0.69-0.63,1.27-1.2c-5.18-0.57-5.73-1.35-4.22-5.92c1.12-3.38,2.37-6.72,3.71-10.02c0.23-0.57,1.21-1.18,1.86-1.2
			c4.61-0.1,9.23,0.02,13.84-0.1c1.42-0.04,1.89,0.57,2.29,1.73c1.32,3.85,2.72,7.68,4.07,11.52c0.57,1.63,1.68,3.38-1.35,4.55
			c1.01,0.21,1.36,0.34,1.71,0.35c4.62,0.06,9.24,0.12,13.86,0.17C595.16,362.32,595.16,361.84,595.15,361.36z M560.72,340.41
			c2.32-6.56,4.59-12.97,7.08-20.02c2.41,7.02,4.61,13.42,6.87,20.02H560.72z"/>
		<path id="james-letter-m" class="st16" d="M661.5,361.29c-3.73-0.63-4.78-1.55-5.31-5.27c-1.38-9.68-2.67-19.38-4-29.07
			c-0.86-6.29-1.71-12.58-2.66-18.86c-0.12-0.76-0.82-1.44-1.25-2.15c-0.61,0.53-1.32,0.99-1.81,1.63
			c-0.43,0.56-0.62,1.31-0.91,1.97c-5.74,13.05-11.48,26.11-17.37,39.52c-0.58-1.23-1.03-2.14-1.44-3.06
			c-5.61-12.63-11.2-25.28-16.87-37.88c-0.39-0.87-1.4-1.46-2.11-2.18c-0.41,0.73-1.08,1.42-1.19,2.19
			c-1.55,10.76-2.99,21.54-4.51,32.31c-0.82,5.85-1.63,11.71-2.66,17.52c-0.21,1.17-1.18,2.66-2.2,3.14
			c-0.34,0.16-0.69,0.24-1.05,0.29c0.01,0.47,0.01,0.95,0.01,1.42c4.34,0.05,8.68,0.09,13.01,0.13c0.49,0,0.98-0.41,1.47-0.63
			c-0.74-0.66-1.35-0.83-1.97-0.95c-3.43-0.64-3.61-0.83-3.49-4.23c0.02-0.66,0.08-1.31,0.16-1.97c0.68-6.02,1.36-12.05,2.05-18.07
			c0.38-3.32,0.78-6.64,1.23-10.53c0.62,1.31,0.99,2.08,1.34,2.85c4.55,10.08,9.08,20.17,13.67,30.23c0.55,1.2,1.41,2.27,2.12,3.4
			c0.28,0.01,0.56,0.01,0.84,0.02c5.95-12.05,10.9-24.57,16.78-37.05c0.21,0.62,0.34,0.87,0.37,1.13c1.03,8.55,2.17,17.1,3,25.67
			c0.29,2.97,1.83,6.1-0.42,8.99c3.15,1.32,16.44,1.41,17.79,0.02C663.17,361.62,662.34,361.44,661.5,361.29z"/>
		<path id="james-letter-e" class="st16" d="M665.5,307.61c11.14-0.23,22.3,0.46,33.74-0.33c-0.31,3.37-0.66,7.15-1.01,10.93
			c-0.29,0.01-0.58,0.01-0.87,0.02c-0.12-0.72-0.26-1.43-0.36-2.15c-0.34-2.45-1.46-3.77-3.91-3.98c-3.85-0.32-7.72-0.42-11.76-0.62
			c0,6.7,0,13.16,0,19.96c5.53-0.87,11.35,1.47,16.92-2.36c-0.37,4.28-0.73,8.39-1.09,12.51c-0.29,0-0.58,0-0.87,0
			c-0.07-0.72-0.16-1.43-0.22-2.15c-0.18-2.06-1.13-3.54-3.3-3.71c-3.77-0.29-7.56-0.41-11.53-0.62c0,6.58-0.09,12.84,0.05,19.11
			c0.05,2.17,1.47,3.87,3.67,4.02c3.46,0.24,6.97,0.18,10.44-0.05c2.11-0.14,3.24-1.78,3.77-3.77c0.27-1,0.53-2.01,0.79-3.01
			c0.41,0.11,0.66,0.15,0.66,0.18c-0.3,3.43-0.51,6.88-1.06,10.28c-0.08,0.49-1.81,1.01-2.78,1.01c-7.54-0.05-15.07-0.24-22.61-0.36
			c-1.83-0.03-3.66,0.09-5.49,0.11c-0.77,0-1.55-0.1-2.33-0.15c-0.03-0.19-0.05-0.39-0.08-0.58c0.69-0.17,1.37-0.39,2.07-0.5
			c1.85-0.32,3.16-1.15,3.23-3.22c0.17-4.82,0.43-9.63,0.46-14.45c0.05-9.8-0.01-19.61-0.07-29.41c-0.02-4-1.02-4.99-4.97-5.33
			c-0.61-0.05-1.21-0.38-1.81-0.57C665.3,308.15,665.4,307.88,665.5,307.61z"/>
		<path id="james-letter-s" class="st16" d="M735.99,319.54c-0.11-0.59-0.26-1.18-0.34-1.77c-0.48-3.75-3.14-6.74-6.68-7.49
			c-4.4-0.93-8.77,0.57-10.72,3.68c-1.73,2.76-1.51,6.91,0.9,9.35c1.83,1.85,4.08,3.27,6.14,4.89c3.14,2.48,6.67,4.61,9.31,7.53
			c7.42,8.2,4.92,23.3-7.03,27.31c-6.15,2.07-11.89,1.31-17.61-1.07c-0.66-0.27-1.44-1.26-1.44-1.92c0.01-3.73,0.22-7.45,0.42-11.17
			c0.02-0.35,0.42-0.67,1.05-1.62c0.28,1.78,0.46,2.93,0.65,4.08c1.18,7.21,9.78,11.21,16.11,7.49c5.01-2.95,6.02-10.64,1.67-15.03
			c-2.23-2.26-5.12-3.84-7.59-5.88c-2.69-2.22-5.67-4.27-7.77-6.98c-5.95-7.69-4.4-21.84,10.11-24.11c4.01-0.63,8.25,0.2,12.38,0.46
			c1.27,0.08,2.05,0.74,1.9,2.31c-0.24,2.69-0.23,5.4-0.37,8.11c-0.03,0.6-0.21,1.2-0.32,1.79
			C736.51,319.51,736.25,319.53,735.99,319.54z"/>
	</g>
	<g id="method-letters">
		<path id="method-letter-m" class="st17" d="M415.74,385.59c3.45,7.64,6.91,15.28,10.5,23.22c3.55-7.95,6.98-15.6,10.4-23.25
			c0.3,0.02,0.61,0.04,0.91,0.05c0.25,1.19,0.56,2.38,0.73,3.58c1.02,7.29,2.07,14.59,2.97,21.9c0.34,2.76,1.1,4.88,4.78,4.46
			c-0.13,0.21-0.25,0.42-0.38,0.63c-3.1,0-6.19,0-8.86,0c-0.7-6.45-1.37-12.67-2.04-18.9c-0.16-0.05-0.31-0.1-0.47-0.15
			c-2.93,6.47-5.86,12.94-8.79,19.41c-0.28,0.04-0.56,0.09-0.84,0.13c-2.93-6.32-5.86-12.65-9.04-19.51
			c-0.67,5.79-1.28,11.02-1.89,16.25c-0.15,1.25,0.4,1.93,1.64,2.11c0.45,0.06,0.88,0.22,1.26,0.73c-2.93,0-5.85,0-8.78,0
			c4.46-1.17,3.02-5.09,3.51-7.8c1.27-7.03,2.1-14.13,3.12-21.2c0.08-0.53,0.3-1.04,0.45-1.56
			C415.2,385.65,415.47,385.62,415.74,385.59z"/>
		<path id="method-letter-e" class="st17" d="M458.23,415.64c2.85,0.38,3.19-1.45,3.21-3.32c0.06-7.46,0.04-14.91,0.02-22.37
			c0-1.53-0.73-2.47-2.39-2.5c-0.39-0.01-0.77-0.19-1.16-0.29c0.01-0.18,0.01-0.36,0.02-0.55c6.02,0,12.04,0,18.24,0
			c-0.16,1.64-0.36,3.62-0.55,5.6c-1.54-5.4-5.88-2.65-9.1-3.52c0,3.63,0,6.96,0,10.75c2.97-0.19,5.92-0.37,9.05-0.57
			c-0.13,1.66-0.29,3.85-0.46,6.04c-1.17-5.43-5.45-2.65-8.64-3.51c0,3.69-0.04,7.11,0.04,10.52c0.01,0.59,0.37,1.3,0.8,1.72
			c2.38,2.35,7.96,0.89,8.99-2.29c0.09-0.27,0.22-0.53,0.85-0.74c-0.2,1.81-0.32,3.64-0.66,5.42c-0.07,0.37-0.97,0.82-1.49,0.82
			c-2.11,0.01-4.23-0.22-6.34-0.22c-2.84-0.01-5.69,0.14-8.53,0.16c-0.59,0-1.19-0.25-1.78-0.38
			C458.31,416.14,458.27,415.89,458.23,415.64z"/>
		<path id="method-letter-t" class="st17" d="M505.69,388.7c0,8.05-0.1,15.64,0.05,23.23c0.06,3.03,0.32,3.02,3.83,4.24
			c-3.96,0-7.93,0-11.89,0c3.59-0.56,2.95-3.32,2.95-5.66c0.03-7.16,0.01-14.32,0.01-21.68c-2.46,0.14-4.82,0.04-7.07,0.51
			c-1.13,0.23-2.06,1.48-3.38,2.51c0.31-1.82,0.61-3.65,0.92-5.48c8.2,0,16.26,0,24.35,0c0,1.87,0,3.85,0,5.84
			C513.46,387.24,509.16,389.64,505.69,388.7z"/>
		<path id="method-letter-h" class="st17" d="M548.06,386.72c3.79,0,7.59,0,11.38,0c0.03,0.11,0.06,0.21,0.09,0.32
			c-0.28,0.14-0.55,0.39-0.83,0.4c-1.81,0.01-2.18,1.15-2.18,2.63c0,7.39,0.04,14.78-0.01,22.17c-0.02,2.73,1.36,3.78,4.28,3.28
			c-0.12,0.22-0.24,0.45-0.36,0.67c-3.97,0-7.93,0-11.9,0c3.5-0.54,2.94-3.24,2.99-5.53c0.06-2.83,0.02-5.66,0.02-8.59
			c-4.83,0-9.48,0-14.25,0c0,3.74-0.06,7.45,0.03,11.15c0.03,1.49,0.84,2.45,2.53,2.35c0.43-0.02,0.86,0.17,1.23,0.68
			c-3.94,0-7.88,0-11.82,0c3.37-0.59,2.9-3.19,2.92-5.41c0.07-6.14,0.1-12.29,0.06-18.44c-0.03-4.08-0.1-4.08-4.11-5.6
			c4.37,0,8.17,0,11.96,0c-3.94,0.51-2.81,3.54-2.9,5.89c-0.09,2.25-0.02,4.5-0.02,6.96c4.52,0,8.82,0.04,13.13-0.06
			c0.44-0.01,1.23-0.8,1.24-1.25c0.09-2.85,0.01-5.7-0.02-8.56C551.49,387.45,549.48,387.59,548.06,386.72z"/>
		<path id="method-letter-o" class="st17" d="M574.39,401.42c0.01-9.14,6.24-15.3,15.46-15.29c9.24,0.02,14.98,5.7,14.97,14.82
			c-0.01,9.33-6.44,15.96-15.46,15.96C580.39,416.91,574.38,410.68,574.39,401.42z M599.5,401.92c-0.27-3.53-1.04-6.83-3.14-9.7
			c-3.74-5.13-11.27-5.3-14.57-0.37c-3.58,5.35-2.38,15.77,2.31,20.16c5.17,4.84,12.5,3.03,14.41-3.65
			C599.1,406.29,599.19,404.07,599.5,401.92z"/>
		<path id="method-letter-d" class="st17" d="M618.37,386.34c6.54,0.26,13.15-0.03,19.59,0.9c9.09,1.32,11.69,9.5,10.6,16.4
			c-1.37,8.67-7,13.29-15.76,13.21c-4.63-0.04-9.26-0.36-13.91-0.55c0.05-0.28,0.07-0.53,0.09-0.53c2.55,0.04,2.83-1.78,2.84-3.64
			c0.04-7.39-0.01-14.77,0.04-22.16c0.02-2.49-1.97-2.41-3.62-2.82C618.28,386.89,618.32,386.61,618.37,386.34z M626.82,400.7
			c0.01,0,0.02,0,0.03,0c0,3.43-0.01,6.87,0.01,10.3c0.01,1.57,0.46,2.95,2.19,3.35c3.68,0.86,7.26,0.71,10.42-1.66
			c3.72-2.8,4.02-6.87,3.96-11.04c-0.11-8.38-6.55-13.92-14.9-12.93c-1.31,0.15-1.76,0.6-1.73,1.9
			C626.87,393.97,626.82,397.34,626.82,400.7z"/>
	</g>
	<g id="frequency-letters">
		<path id="frequency-letter-f" class="st18" d="M363.18,453.72c3.79,0,7.96,0,12.3,0c-0.07,0.96-0.15,2-0.24,3.29
			c-1.74-3.16-4.42-1.37-6.71-2.01c0,2.3,0,4.32,0,6.48c2.02,0,4.08,0,6.25,0c-0.06,0.95-0.14,2.07-0.23,3.46
			c-1.38-3.11-3.87-1.53-6.06-2.02c0,2.5-0.18,4.84,0.1,7.12c0.1,0.79,1.31,1.45,1.86,2.01c-2.07,0-4.63,0-6.69,0
			c0.35-0.68,1.1-1.47,1.13-2.3c0.15-4.59,0.21-9.2,0.07-13.79C364.92,455.18,363.78,454.44,363.18,453.72z"/>
		<path id="frequency-letter--r" class="st18" d="M397.64,471.92c0-0.05,0-0.09,0.01-0.14c-0.33-0.08-0.68-0.2-1.1-0.39
			c-0.59-0.27-1.18-0.63-1.62-1.1c-1.99-2.13-3.92-4.32-5.86-6.48c0.88-0.95,1.69-1.69,2.34-2.56c2.35-3.14,1.06-6.69-2.81-7.09
			c-3.38-0.35-6.82-0.07-10.23-0.07c1.62-0.02,2.28,0.82,2.26,2.45c-0.05,4.1,0.08,8.2-0.08,12.28c-0.05,1.17-0.86,2.32-1.23,3.27
			h6.88c-2.32,0.05-2.42-1.48-2.39-3.16c0.03-1.38,0.01-2.75,0.01-4.08c2.02-0.48,3.36,0.07,4.28,1.81c0.5,0.96,1.33,1.74,1.95,2.64
			c1.45,2.1,3.38,3.04,5.97,2.96c0.54-0.02,1.09-0.02,1.63-0.03C397.64,472.11,397.64,472.02,397.64,471.92z M383.81,463.25v-7.98
			c1.95-0.42,3.7-0.4,4.87,1.4c1.12,1.73,1.13,3.59,0.06,5.36C387.59,463.94,385.79,463.44,383.81,463.25z"/>
		<path id="frequency-letter-e-1" class="st18" d="M410.39,468.79c-0.89,1.95-4.78,2.96-6.48,1.63c-0.36-0.28-0.7-0.82-0.71-1.26
			c-0.07-2.02-0.03-4.04-0.03-6.36c2.16,0.78,4.75-1.12,6.04,2c0.17-1.24,0.32-2.38,0.46-3.4h-6.38v-6.46
			c2.25,0.73,5.05-1.17,6.41,2.39c0.1-1.49,0.17-2.62,0.24-3.63h-12.04c0.63,0.79,1.74,1.54,1.77,2.32
			c0.14,4.53,0.1,9.06-0.03,13.59c-0.04,1.32-0.34,2.02-0.99,2.2c0,0.05,0,0.1-0.01,0.15c0,0.08,0,0.15-0.01,0.23
			c2.99-0.03,5.99,0.02,8.99,0.02C410.52,472.21,410.9,471.73,410.39,468.79z"/>
		<path id="frequency-letter-q" class="st18" d="M430.15,470.86c6.33,3.06,12.38,6.88,20.15,4.63c-2.4,2.31-9.51,2.96-13.45,1.35
			c-2.08-0.85-4.12-1.86-6.02-3.05c-1.93-1.22-3.75-1.71-6.11-1.32c-5.22,0.87-9.93-2.3-11.08-7.05
			c-1.69-6.95,4.05-12.96,11.47-12.04c4.03,0.5,7.38,2.11,8.71,6.24c1.34,4.19,0.07,7.74-3.21,10.62
			C430.44,470.36,430.35,470.56,430.15,470.86z M430.49,463.69c0.14-0.04,0.27-0.09,0.41-0.13c-0.61-1.9-0.99-3.92-1.89-5.68
			c-1.31-2.58-4.47-3.77-7.31-3.16c-2.52,0.55-4.24,2.68-4.49,5.76c-0.11,1.37-0.13,2.78,0.05,4.14c0.55,4.08,3.89,6.88,7.83,6.7
			c3.27-0.15,5.09-2.49,5.39-6.97C430.51,464.13,430.49,463.91,430.49,463.69z"/>
		<path id="frequency-letter-u" class="st17" d="M450.28,453.82c1.61,0,3.7,0,5.17,0c-0.37,0.92-1.1,1.99-1.17,3.11
			c-0.2,2.91-0.02,5.84-0.14,8.76c-0.17,3.88-2.04,6.12-5.9,6.68c-7.02,1.02-9.95-2.04-9.95-8.12c0-2.56,0.01-5.11,0-7.67
			c-0.01-2.02-0.02-2.02-2.56-2.69c2.89,0,5.29,0,7.19,0c-0.31,0.79-1,1.77-1.04,2.78c-0.14,3.21-0.15,6.43,0.01,9.64
			c0.2,3.98,3.51,6.06,7.04,4.65c2.04-0.82,2.88-2.41,2.93-4.43c0.09-3.5,0.15-7.02-0.02-10.51
			C451.79,455.21,450.75,454.46,450.28,453.82z"/>
		<path id="frequency-letter-e" class="st18" d="M458.07,453.69c3.82,0,7.9,0,12.05,0c-0.07,1.02-0.14,2.15-0.24,3.63
			c-1.36-3.55-4.16-1.66-6.41-2.38c0,2.3,0,4.38,0,6.46c2.09,0,4.2,0,6.37,0c-0.14,1-0.29,2.14-0.46,3.44
			c-1.24-3.28-3.91-1.09-6.03-2.24c0,2.48-0.04,4.5,0.03,6.52c0.02,0.44,0.34,0.99,0.69,1.27c1.67,1.34,5.61,0.34,6.47-1.6
			c0.6,2.85,0.16,3.41-2.68,3.41c-3.17,0-6.35,0-9.15,0c0.37-0.75,1.03-1.46,1.05-2.2c0.13-4.67,0.21-9.35,0.09-14.02
			C459.83,455.22,458.7,454.47,458.07,453.69z"/>
		<path id="frequency-letter-n" class="st18" d="M493.83,453.84c-0.38,0.82-1.11,1.7-1.15,2.62c-0.21,4.59-0.24,9.19-0.34,13.79
			c-0.02,0.76-0.08,1.52-0.12,2.28c-0.2,0.1-0.39,0.21-0.59,0.31c-4.66-4.51-9.31-9.01-14.09-13.63c0,3.79-0.11,7.34,0.09,10.86
			c0.04,0.75,1.22,1.43,1.75,2.01c-1.76,0-3.94,0-6.12,0c2.09-0.25,2.05-1.83,2.05-3.4c0-5.03,0-10.06,0-15.09
			c0.24-0.11,0.49-0.22,0.73-0.33c4.74,4.61,9.48,9.22,14.38,13.99c0-4.1,0.09-7.93-0.09-11.74c-0.03-0.62-1.3-1.17-1.9-1.67
			C490.21,453.84,492.24,453.84,493.83,453.84z"/>
		<path id="frequency-letter-c" class="st18" d="M513.94,453.79c-0.09,1.92-0.16,3.25-0.24,4.85c-1.88-3.59-4.75-4.78-8.69-3.83
			c-2.95,0.71-4.69,3.27-4.76,6.99c-0.09,4.66,2.13,8.01,5.98,9.06c3.53,0.96,5.83,0.11,7.52-2.79c0.28,3.57-0.06,4.13-3.5,4.43
			c-4.49,0.39-8.84-0.06-11.9-3.94c-4.16-5.29-1.4-13.45,5.18-14.67C506.81,453.29,510.29,453.79,513.94,453.79z"/>
		<path id="frequency-letter-y" class="st18" d="M528.56,472.15c-2.55,0-5.1,0-7.07,0c0.35-0.89,0.94-1.87,1.13-2.93
			c1.04-6-3.08-9.86-6.08-14.15c-0.36-0.52-1.13-0.74-1.92-1.23c2.26,0,4.27,0,5.77,0c0.74,3.34,3.06,5.71,4.6,9.08
			c1.31-3.31,4.13-5.41,3.9-9.07c1.41,0,3.18,0,4.39,0c-1.12,1.3-2.49,2.76-3.7,4.34c-2.4,3.13-4.12,6.47-3.57,10.67
			C526.22,470.58,526.14,472.19,528.56,472.15z"/>
	</g>
	<g id="medicine-letters">
		<path id="medicine-letter-m" class="st18" d="M548.61,472.08c-1.71,0-3.69,0-5.66,0c1.71-0.38,1.89-1.71,2.09-3.18
			c0.75-5.32,1.59-10.62,2.42-15.92c0.07-0.46,0.27-0.89,0.58-1.91c2.75,5.59,5.29,10.75,7.99,16.25c2.64-5.46,5.12-10.6,7.61-15.74
			c0.17,0,0.34,0.01,0.51,0.01c0.37,2.38,0.75,4.76,1.12,7.14c0.51,3.31,1.11,6.62,1.47,9.95c0.21,1.99,1,3.11,3.04,3.29
			c-1.99,0-3.98,0-5.86,0c-0.57-4.41-1.12-8.61-1.66-12.82c-0.15-0.04-0.3-0.07-0.44-0.11c-2.12,4.34-4.23,8.68-6.62,13.58
			c-2.35-4.71-4.48-8.98-6.87-13.78c-0.57,4.18-1.16,7.83-1.47,11.5C546.8,470.89,548.04,471.55,548.61,472.08z"/>
		<path id="medicine-letter-e-1" class="st18" d="M576.17,463.44c0,2.15-0.08,3.89,0.04,5.62c0.04,0.56,0.46,1.32,0.93,1.6
			c1.81,1.05,4.83,0.1,5.8-1.69c0.22,2.98,0.04,3.19-2.76,3.19c-2.88,0-5.76,0-8.36,0c0.36-0.58,1.02-1.17,1.04-1.78
			c0.13-4.44,0.19-8.88,0.08-13.31c-0.02-0.65-1.07-1.28-1.62-1.9c3.45,0,7.22,0,11.1,0c-0.07,0.9-0.15,2-0.25,3.29
			c-0.97-2.17-1.02-2.18-5.86-2.02c0,1.9,0,3.82,0,5.78c1.88,0,3.82,0,5.84,0c-0.11,0.88-0.25,1.92-0.4,3.16
			C580.59,462.45,578.2,464.23,576.17,463.44z"/>
		<path id="medicine-letter-d" class="st18" d="M586.34,472.18c0.4-0.82,1.11-1.61,1.13-2.42c0.14-4.16,0.18-8.33,0.05-12.5
			c-0.02-0.73-1.04-1.42-1.59-2.13c-0.12,0.16-0.23,0.32-0.35,0.48c4.23,0,8.51-0.36,12.69,0.1c4.09,0.45,6.32,3.81,6.25,8.1
			c-0.07,4.19-2.87,7.84-7.03,8.28C593.68,472.5,589.79,472.18,586.34,472.18z M590.73,456.65c0,3.79,0,7.49,0,11.19
			c0,0.47-0.1,0.99,0.06,1.4c0.24,0.63,0.52,1.44,1.04,1.72c3.18,1.71,8.16-0.34,9.05-3.83
			C602.94,459.03,597.06,455.37,590.73,456.65z"/>
		<path id="medicine-letter-i-1" class="st18" d="M607.73,455.22c1.77,0,3.9,0,5.52,0c-0.32,0.74-1,1.59-1.03,2.47
			c-0.12,3.83-0.01,7.66-0.07,11.49c-0.03,1.63,0.23,2.85,2.24,2.86c-2.33,0-4.67,0-6.5,0c0.32-0.71,1.02-1.57,1.05-2.45
			c0.13-4.09,0.15-8.19,0.04-12.29C608.96,456.56,608.12,455.85,607.73,455.22z"/>
		<path id="medicine-letter-c" class="st18" d="M632.43,455.57c-0.06,1.36-0.11,2.6-0.18,4c-1.86-3.26-4.6-4.36-8.16-3.4
			c-2.89,0.78-4.31,3.24-4.24,7.36c0.06,3.72,2.33,6.61,5.86,7.45c3.22,0.77,5.12,0,6.52-2.62c0.37,3.14-0.03,3.75-3.12,4.07
			c-3.79,0.4-7.46-0.05-10.35-2.8c-4.4-4.19-2.66-11.99,3.1-14.08C625.33,454.3,628.85,454.74,632.43,455.57z"/>
		<path id="medicine-letter-i-2" class="st18" d="M642.73,472.1c-2.32,0-4.64,0-6.52,0c0.34-0.79,1.04-1.7,1.07-2.62
			c0.13-4.03,0.13-8.06,0.02-12.09c-0.02-0.75-0.77-1.48-1.14-2.13c1.64,0,3.74,0,5.38,0c-0.31,0.82-0.97,1.78-1.01,2.76
			c-0.13,3.76-0.01,7.52-0.07,11.29C640.45,470.89,640.82,471.96,642.73,472.1z"/>
		<path id="medicine-letter-n" class="st18" d="M651.17,472.1c-2.01,0-4.02,0-6.03,0c1.85-0.24,1.95-1.57,1.94-3.03
			c-0.02-4.69-0.01-9.39-0.01-14.08c0.23-0.09,0.46-0.19,0.69-0.28c4.36,4.25,8.72,8.5,13.25,12.91c0-3.77,0.1-7.24-0.09-10.69
			c-0.03-0.64-1.23-1.22-1.76-1.71c1.58,0,3.44,0,5.66,0c-2.34,0.76-1.9,2.57-1.94,4.06c-0.12,3.77-0.09,7.54-0.13,11.31
			c-0.01,0.63-0.09,1.26-0.13,1.89c-0.18,0.09-0.35,0.17-0.53,0.26c-4.27-4.14-8.54-8.27-13.09-12.69c0,1.43-0.01,2.58,0,3.73
			c0.01,1.75,0.03,3.5,0.04,5.25C649.03,470.54,649.27,471.87,651.17,472.1z"/>
		<path id="medicine-letter-e-2" class="st18" d="M678.45,458.52c-0.95-2.23-1.06-2.27-5.87-2.07c0,1.9,0,3.82,0,5.76
			c1.9,0,3.84,0,5.85,0c-0.12,0.9-0.25,1.94-0.41,3.16c-1.17-2.9-3.55-1.15-5.56-1.91c0,2.12-0.07,3.98,0.04,5.83
			c0.03,0.49,0.5,1.14,0.94,1.39c1.83,1.01,4.79,0.09,5.79-1.69c0.18,3.01,0.03,3.17-2.8,3.17c-2.87,0-5.73,0-8.22,0
			c0.33-0.74,0.93-1.46,0.95-2.21c0.12-4.24,0.19-8.48,0.06-12.71c-0.02-0.72-1.05-1.41-1.58-2.08c3.4,0,7.17,0,11.04,0
			C678.63,456.09,678.55,457.19,678.45,458.52z"/>
	</g>
	<g id="arrows">
		<path id="arrow-right" class="st17" d="M718.82,403.48c-18.2,0-37.41,0-56.75,0c0-0.92,0-1.97,0-3.33
			C681.32,401.28,700.6,402.41,718.82,403.48z"/>
		<path id="arrow-left" class="st17" d="M395.59,400.26c0,1.17,0,2.17,0,3.31c-17.88,0-35.77,0-53.66,0c0-0.06,0-0.12-0.01-0.18
			C359.73,402.35,377.54,401.31,395.59,400.26z"/>
	</g>
	<path id="black-line" class="st19" d="M738.74,433.65c0,1.23,0,2.24,0,3.33c-140.27,0-280.47,0-420.75,0c0-1.13,0-2.18,0-3.33
		C458.26,433.65,598.45,433.65,738.74,433.65z"/>
</g>
<g>
</g>
<g>
</g>
<g>
</g>
<g>
</g>
<g>
</g>
<g>
</g>
</svg>
