<?xml version="1.0" encoding="utf-8"?>
<!-- Generator: Adobe Illustrator 24.3.0, SVG Export Plug-In . SVG Version: 6.00 Build 0)  -->
<svg version="1.1" id="geo-logo" xmlns="http://www.w3.org/2000/svg" xmlns:xlink="http://www.w3.org/1999/xlink" x="0px" y="0px"
	 viewBox="0 0 864 864" style="enable-background:new 0 0 864 864;" xml:space="preserve">
<g id="geo-logo-parts">
	<g id="outer-border">
		<path d="M693.39,606.45h-458.9V226.52h458.9V606.45z M264.48,576.45h398.9V256.52h-398.9V576.45z"/>
	</g>
	<g id="geo-letters">
		<path id="geo-letter-g" d="M322.03,506.29h84.65V383.97h-33.03c-0.52-0.52,0,90.84,0,90.84h-18.07v-118.2h66.13l0.06-34.06h-99.74
			V506.29z"/>
		<polygon id="geo-letter-e" points="421.63,356.61 421.65,356.61 421.65,507.84 504.74,507.84 504.74,474.29 454.16,474.29 
			454.16,434.55 504.74,434.55 504.74,402.03 453.65,402.03 453.65,356.61 520.82,356.61 520.85,322.55 421.63,322.55 		"/>
		<path id="geo-letter-o" d="M520.74,322.55v185.29h84.65V322.55H520.74z M572.87,475.32h-20.13c0,0,0.51-117.83,0.52-119.22h19.61
			V475.32z"/>
	</g>
</g>
<g>
</g>
<g>
</g>
<g>
</g>
<g>
</g>
<g>
</g>
<g>
</g>
</svg>
