<?xml version="1.0" encoding="utf-8"?>
<!-- Generator: Adobe Illustrator 24.3.0, SVG Export Plug-In . SVG Version: 6.00 Build 0)  -->
<svg version="1.1" id="Layer_2" xmlns="http://www.w3.org/2000/svg" xmlns:xlink="http://www.w3.org/1999/xlink" x="0px" y="0px"
	 viewBox="0 0 864 864" style="enable-background:new 0 0 864 864;" xml:space="preserve">
<style type="text/css">
	.st0{fill:#E0B300;}
	.st1{fill:#FFFFFF;}
	.st2{fill:#FED406;}
	.st3{fill:#121D3B;}
	.st4{fill:#FFD503;}
	.st5{fill:#1C1A30;}
	.st6{fill:#FA013C;}
	.st7{fill:#FFE228;}
	.st8{fill:#FFEB2E;}
</style>
<rect id="background" x="15.61" y="212.65" class="st0" width="837.29" height="457.55"/>
<polygon id="square.white" class="st1" points="237.74,437.39 442.52,232.61 646.9,437 443.39,640.52 "/>
<polygon id="square.yellow.2" class="st2" points="378.71,567.01 394.01,551.71 409.29,566.99 394.08,582.2 "/>
<polygon id="square.blue.3" class="st3" points="146.45,327.01 161.76,311.71 177.03,326.99 161.82,342.2 "/>
<polygon id="square.yellow.1" class="st4" points="493.23,502.76 508.53,487.45 523.81,502.73 508.6,517.94 "/>
<polygon id="square.blue.2" class="st5" points="264.39,437.45 267.65,434.19 270.9,437.45 267.66,440.69 "/>
<polygon id="square.blue.1" class="st5" points="614.32,437.45 617.58,434.19 620.84,437.45 617.6,440.69 "/>
<g>
	<path class="st3" d="M339.91,409.35c0-8.87,6.64-14.01,14.69-14.01c4.38,0,7.48,1.65,9.51,3.47l-3.59,3.88
		c-1.5-1.22-3.11-2.13-5.69-2.13c-4.64,0-7.94,3.23-7.94,8.59c0,5.49,2.81,8.69,8.48,8.69c1.21,0,2.46-0.28,3.19-0.8v-4.61h-4.99
		v-4.93h11.05v12.32c-2.08,1.8-5.74,3.24-9.95,3.24C346.37,423.05,339.91,418.35,339.91,409.35z"/>
	<path class="st3" d="M369.41,409.08c0-8.73,5.56-13.74,13.69-13.74s13.69,5.04,13.69,13.74c0,8.73-5.56,13.97-13.69,13.97
		S369.41,417.81,369.41,409.08z M389.81,409.08c0-5.36-2.59-8.52-6.71-8.52s-6.71,3.16-6.71,8.52s2.59,8.75,6.71,8.75
		S389.81,414.44,389.81,409.08z"/>
	<path class="st3" d="M402.46,395.83h10.32c6.26,0,11.12,1.52,11.12,6.63c0,2.4-1.51,4.95-3.97,5.77v0.16
		c3.08,0.71,5.46,2.72,5.46,6.29c0,5.44-5.19,7.87-11.74,7.87h-11.18V395.83z M412.47,406.54c3.31,0,4.77-1.24,4.77-3.18
		c0-2.06-1.54-2.86-4.72-2.86h-3.24v6.04H412.47z M413.09,417.89c3.72,0,5.63-1.17,5.63-3.6c0-2.34-1.89-3.3-5.63-3.3h-3.81v6.9
		H413.09z"/>
	<path class="st3" d="M430.44,395.83h6.81v26.72h-6.81V395.83z"/>
	<path class="st3" d="M444.36,395.83h18.89v5.07h-12.07v5.37h10.28v5.07h-10.28v6.16h12.54v5.07h-19.35V395.83z"/>
	<path class="st3" d="M469.7,395.83h10.86c6.39,0,11.63,1.97,11.63,8.32c0,6.14-5.24,8.78-11.63,8.78h-4.04v9.62h-6.82V395.83z
		 M480,408.14c3.58,0,5.51-1.36,5.51-3.99c0-2.64-1.93-3.52-5.51-3.52h-3.49v7.51H480z M479.31,411.35l4.71-3.87l9.62,15.07h-7.62
		L479.31,411.35z"/>
	<path class="st3" d="M498.05,395.83h6.98l7.86,13.29l2.98,5.87h0.19c-0.32-2.83-0.87-6.57-0.87-9.72v-9.44h6.49v26.72h-6.98
		l-7.86-13.32l-2.98-5.84h-0.19c0.32,2.95,0.87,6.53,0.87,9.68v9.48h-6.49V395.83z"/>
	<path class="st3" d="M527.38,409.08c0-8.73,5.56-13.74,13.69-13.74c8.13,0,13.69,5.04,13.69,13.74c0,8.73-5.56,13.97-13.69,13.97
		C532.94,423.05,527.38,417.81,527.38,409.08z M547.77,409.08c0-5.36-2.59-8.52-6.71-8.52s-6.71,3.16-6.71,8.52s2.59,8.75,6.71,8.75
		S547.77,414.44,547.77,409.08z"/>
</g>
<g>
	<path class="st6" d="M368.71,432.4h8.32l9.66,27.94h-7.36l-4.02-14.15c-0.85-2.79-1.68-6.1-2.5-9.01h-0.19
		c-0.74,2.95-1.57,6.22-2.42,9.01l-4.04,14.15h-7.11L368.71,432.4z M365.42,448.77h14.8v4.91h-14.8V448.77z"/>
	<path class="st6" d="M388.62,432.4h10.53c6.39,0,11.34,1.59,11.34,6.93c0,2.51-1.54,5.17-4.05,6.03v0.17
		c3.14,0.74,5.57,2.84,5.57,6.58c0,5.68-5.29,8.23-11.98,8.23h-11.41V432.4z M398.82,443.58c3.37,0,4.87-1.29,4.87-3.33
		c0-2.15-1.58-2.99-4.82-2.99h-3.3v6.32H398.82z M399.45,455.46c3.79,0,5.75-1.22,5.75-3.76c0-2.45-1.93-3.45-5.75-3.45h-3.89v7.21
		H399.45z"/>
	<path class="st6" d="M416.13,432.4h6.95v27.94h-6.95V432.4z"/>
	<path class="st6" d="M429.3,432.4h19.27v5.3h-12.32v5.61h10.49v5.3h-10.49v6.44h12.79v5.3H429.3V432.4z"/>
	<path class="st6" d="M454.13,432.4h11.08c6.52,0,11.87,2.06,11.87,8.7c0,6.42-5.35,9.18-11.87,9.18h-4.12v10.05h-6.95V432.4z
		 M464.64,445.26c3.66,0,5.62-1.42,5.62-4.17c0-2.76-1.96-3.69-5.62-3.69h-3.56v7.85H464.64z M463.93,448.61l4.81-4.04l9.82,15.76
		h-7.78L463.93,448.61z"/>
	<path class="st6" d="M487.19,437.69h-8.47v-5.3h23.89v5.3h-8.47v22.64h-6.95V437.69z"/>
	<path class="st6" d="M503.6,446.24c0-9.13,5.67-14.36,13.97-14.36s13.97,5.27,13.97,14.36c0,9.13-5.67,14.6-13.97,14.6
		S503.6,455.37,503.6,446.24z M524.42,446.24c0-5.6-2.65-8.91-6.84-8.91s-6.84,3.31-6.84,8.91s2.65,9.15,6.84,9.15
		S524.42,451.84,524.42,446.24z"/>
</g>
<rect id="line.yellow.4" x="124.65" y="417.29" transform="matrix(0.7071 0.7071 -0.7071 0.7071 355.1084 -21.6946)" class="st7" width="158.19" height="1.03"/>
<rect id="line.blue.4" x="175.48" y="437.42" transform="matrix(0.7071 0.7071 -0.7071 0.7071 384.2321 -51.7474)" class="st5" width="158.19" height="1.03"/>
<rect id="line.blue.3" x="550.45" y="437.16" transform="matrix(0.7071 0.7071 -0.7071 0.7071 493.8751 -316.9652)" class="st3" width="158.19" height="1.03"/>
<rect id="line.yellow.3" x="622.97" y="474.06" transform="matrix(0.7071 0.7071 -0.7071 0.7071 541.2091 -357.4331)" class="st8" width="158.19" height="1.03"/>
<rect id="line.yellow.2" x="106.06" y="476.65" transform="matrix(0.7071 -0.7071 0.7071 0.7071 -283.1715 270.6861)" class="st7" width="158.19" height="1.03"/>
<rect id="line.blue.2" x="174.45" y="439.23" transform="matrix(0.7071 -0.7071 0.7071 0.7071 -236.6819 308.0832)" class="st5" width="158.19" height="1.03"/>
<rect id="line.yellow.1" x="606.71" y="416.26" transform="matrix(0.7071 -0.7071 0.7071 0.7071 -93.8358 607.0087)" class="st8" width="158.19" height="1.03"/>
<rect id="line.blue.1" x="550.45" y="436.65" transform="matrix(0.7071 -0.7071 0.7071 0.7071 -124.7293 573.1995)" class="st5" width="158.19" height="1.03"/>
</svg>
