<?xml version="1.0" encoding="utf-8"?>
<!-- Generator: Adobe Illustrator 24.3.0, SVG Export Plug-In . SVG Version: 6.00 Build 0)  -->
<svg version="1.1" id="Layer_2" xmlns="http://www.w3.org/2000/svg" xmlns:xlink="http://www.w3.org/1999/xlink" x="0px" y="0px"
	 viewBox="0 0 864 864" style="enable-background:new 0 0 864 864;" xml:space="preserve">
<style type="text/css">
	.st0{fill:#B51E22;}
	.st1{fill:#BB3E2D;}
	.st2{fill:#818283;}
</style>
<rect id="line.4" x="93.93" y="556.7" width="126.43" height="10.48"/>
<g>
	<path class="st0" d="M364.64,372.35h8.66v3.83c-1.03,0.57-1.83,1.3-2.4,2.19c-0.94,1.44-1.58,3.14-1.91,5.1l-0.33,1.93
		c-0.11,0.61-0.35,1.09-0.71,1.44c-0.36,0.35-0.82,0.52-1.37,0.52c-0.57,0-1.04-0.19-1.4-0.57c-0.36-0.38-0.54-0.88-0.54-1.49
		V372.35z M390.59,372.35v37.21c0,0.82,0.17,1.41,0.49,1.77c0.17,0.21,0.34,0.34,0.49,0.4c0.15,0.05,0.66,0.19,1.51,0.4
		c1.05,0.23,1.58,0.81,1.58,1.74c0,0.55-0.29,0.99-0.86,1.33c-0.42,0.25-1.12,0.38-2.11,0.38h-1.09h-14.69h-1.09
		c-0.97,0-1.7-0.14-2.19-0.43c-0.49-0.28-0.74-0.71-0.74-1.28c0-0.93,0.53-1.51,1.58-1.74c0.86-0.21,1.36-0.34,1.52-0.4
		c0.15-0.05,0.31-0.18,0.46-0.4c0.33-0.36,0.49-0.95,0.49-1.77v-37.21H390.59z M401.99,372.35v12.95c0,0.61-0.18,1.11-0.54,1.49
		c-0.36,0.38-0.83,0.57-1.4,0.57c-0.55,0-1-0.17-1.37-0.52c-0.36-0.35-0.6-0.83-0.71-1.44l-0.33-1.93c-0.33-1.96-0.97-3.66-1.91-5.1
		c-0.59-0.89-1.39-1.62-2.4-2.19v-3.83H401.99z"/>
	<path class="st0" d="M424.74,415.58h-14.69h-0.86c-0.79,0-1.4-0.14-1.83-0.43c-0.43-0.28-0.64-0.69-0.64-1.22
		c0-0.87,0.44-1.44,1.32-1.71c0.72-0.23,1.15-0.37,1.27-0.43c0.12-0.05,0.25-0.17,0.38-0.36c0.26-0.34,0.39-0.88,0.39-1.62v-31.7
		c0-0.74-0.13-1.28-0.39-1.62c-0.13-0.19-0.26-0.31-0.38-0.36c-0.12-0.05-0.54-0.19-1.27-0.43c-0.88-0.27-1.32-0.84-1.32-1.71
		c0-0.53,0.21-0.93,0.64-1.22c0.43-0.29,1.04-0.43,1.83-0.43h0.86h14.69h0.86c1.56,0,2.34,0.55,2.34,1.65
		c0,0.89-0.42,1.46-1.25,1.71l-1.02,0.32c-0.64,0.21-0.96,0.91-0.96,2.09v31.7c0,1.18,0.32,1.88,0.96,2.09l1.02,0.32
		c0.83,0.25,1.25,0.82,1.25,1.71c0,1.1-0.78,1.65-2.34,1.65H424.74z M427.51,391.93h5.37v-13.81c0-1.18-0.32-1.88-0.96-2.09
		l-1.05-0.32c-0.83-0.25-1.25-0.82-1.25-1.71c0-1.1,0.79-1.65,2.37-1.65h0.86h14.66h0.89c1.65,0,2.47,0.55,2.47,1.65
		c0,0.87-0.44,1.44-1.32,1.71c-0.72,0.23-1.15,0.38-1.27,0.43c-0.12,0.05-0.25,0.17-0.38,0.36c-0.26,0.34-0.4,0.88-0.4,1.62v31.57
		c0,1.16,0.33,1.87,0.99,2.12l1.05,0.35c0.88,0.27,1.32,0.85,1.32,1.74c0,1.12-0.82,1.68-2.47,1.68h-0.89h-14.66h-0.92
		c-1.54,0-2.31-0.56-2.31-1.68c0-0.89,0.42-1.47,1.25-1.74l1.05-0.35c0.64-0.19,0.96-0.9,0.96-2.12v-14.63h-5.37V391.93z"/>
	<path class="st0" d="M474.93,372.35v43.23h-14.66h-0.86c-0.79,0-1.4-0.14-1.83-0.43c-0.43-0.28-0.64-0.69-0.64-1.22
		c0-0.87,0.44-1.44,1.32-1.71c0.72-0.23,1.15-0.37,1.27-0.43c0.12-0.05,0.25-0.17,0.38-0.36c0.26-0.34,0.4-0.88,0.4-1.62v-31.7
		c0-0.74-0.13-1.28-0.4-1.62c-0.13-0.19-0.26-0.31-0.38-0.36c-0.12-0.05-0.54-0.19-1.27-0.43c-0.88-0.27-1.32-0.84-1.32-1.71
		c0-0.53,0.21-0.93,0.64-1.22c0.43-0.29,1.04-0.43,1.83-0.43h0.86H474.93z M477.7,395.41v-3.67c1.27-0.59,2.22-1.23,2.83-1.93
		c0.62-0.7,1.07-1.63,1.35-2.79c0.18-0.8,0.41-1.36,0.69-1.66c0.29-0.31,0.69-0.46,1.22-0.46c0.7,0,1.19,0.26,1.45,0.79
		c0.15,0.27,0.23,0.9,0.23,1.87v12.07c0,0.99-0.12,1.68-0.35,2.06c-0.23,0.38-0.65,0.57-1.27,0.57c-0.51,0-0.9-0.15-1.19-0.44
		c-0.29-0.3-0.52-0.79-0.69-1.49c-0.37-1.46-0.91-2.58-1.6-3.36C479.69,396.18,478.8,395.66,477.7,395.41z M477.87,372.35h13.27
		v11.21c0,0.65-0.13,1.13-0.39,1.42c-0.26,0.3-0.68,0.44-1.25,0.44c-0.48,0-0.83-0.09-1.05-0.28c-0.22-0.19-0.43-0.58-0.63-1.17
		c-0.83-2.45-2.06-4.32-3.67-5.61c-1.61-1.29-3.71-2.06-6.27-2.31V372.35z M477.9,415.58v-3.42c1.43-0.21,2.61-0.51,3.54-0.89
		c0.93-0.38,1.87-0.96,2.82-1.74c0.94-0.78,1.7-1.59,2.26-2.42c0.56-0.83,1.09-1.94,1.6-3.31c0.24-0.68,0.49-1.13,0.76-1.38
		c0.26-0.24,0.62-0.36,1.09-0.36c0.62,0,1.04,0.17,1.29,0.52c0.24,0.35,0.36,0.96,0.36,1.82v11.18H477.9z"/>
</g>
<g>
	<path d="M233.13,350.59h-18.91h-1.1c-1.02,0-1.8-0.18-2.35-0.55c-0.55-0.36-0.83-0.88-0.83-1.56c0-1.1,0.57-1.83,1.7-2.18
		c0.93-0.3,1.48-0.48,1.63-0.55c0.16-0.07,0.32-0.22,0.49-0.46c0.34-0.43,0.51-1.12,0.51-2.06v-40.46c0-0.94-0.17-1.63-0.51-2.06
		c-0.17-0.24-0.33-0.4-0.49-0.47c-0.16-0.07-0.7-0.25-1.63-0.55c-1.13-0.35-1.7-1.08-1.7-2.18c0-0.67,0.28-1.19,0.83-1.56
		c0.55-0.36,1.34-0.55,2.35-0.55h1.1h18.91h1.1c1.02,0,1.8,0.18,2.35,0.55s0.83,0.88,0.83,1.56c0,1.11-0.57,1.83-1.7,2.18
		c-0.93,0.3-1.48,0.48-1.63,0.55c-0.16,0.07-0.32,0.22-0.49,0.47c-0.34,0.43-0.51,1.12-0.51,2.06v40.46c0,0.94,0.17,1.63,0.51,2.06
		c0.17,0.24,0.33,0.4,0.49,0.46c0.16,0.07,0.7,0.25,1.63,0.55c1.13,0.35,1.7,1.08,1.7,2.18c0,0.67-0.28,1.19-0.83,1.56
		s-1.34,0.55-2.35,0.55H233.13z"/>
	<path d="M285.61,294.32v4.65c-1.75,0.46-3.09,1.17-4.01,2.12c-0.92,0.96-1.38,2.14-1.38,3.54c0,1.35,0.38,2.53,1.14,3.54
		c0.76,1.01,2.01,1.97,3.73,2.89c1.19,0.62,3.87,1.81,8.05,3.56c2.54,1.05,4.51,2,5.91,2.85c1.4,0.85,2.72,1.91,3.96,3.17
		c3.33,3.34,5,7.32,5,11.93c0,3.48-0.9,6.66-2.71,9.54c-1.81,2.88-4.3,5.15-7.46,6.79c-1.7,0.86-3.55,1.54-5.57,2.04
		c-2.02,0.5-3.91,0.75-5.66,0.75v-4.61c2.46-0.57,4.23-1.35,5.32-2.36c1.09-1.01,1.63-2.38,1.63-4.1c0-1.81-0.85-3.4-2.54-4.77
		c-1.13-0.89-3.28-1.99-6.44-3.31c-3.48-1.46-5.86-2.49-7.14-3.11c-1.29-0.62-2.52-1.35-3.71-2.18c-5.31-3.61-7.97-8.42-7.97-14.43
		c0-3.07,0.66-5.91,1.99-8.51c1.33-2.6,3.18-4.7,5.55-6.29C276.62,295.79,280.72,294.56,285.61,294.32z M283.41,347.07v4.61
		c-2.32,0-4.87-0.63-7.67-1.9c-1.05-0.46-1.77-0.75-2.16-0.89c-0.4-0.13-0.78-0.2-1.14-0.2c-0.57,0-0.99,0.09-1.27,0.26
		c-0.28,0.18-0.74,0.61-1.36,1.31c-0.51,0.59-1.06,0.89-1.65,0.89c-1.58,0-2.37-1.16-2.37-3.48v-14.71c0-0.75,0.23-1.39,0.68-1.92
		c0.45-0.53,1.02-0.8,1.7-0.83c0.62-0.03,1.11,0.14,1.46,0.51c0.35,0.36,0.66,1,0.91,1.92c0.65,2.32,1.59,4.49,2.82,6.51
		c1.23,2.02,2.66,3.73,4.3,5.13C279.31,345.74,281.23,346.67,283.41,347.07z M288.96,298.97v-4.45c1.7,0.11,3.16,0.32,4.41,0.63
		c1.24,0.31,3.01,0.92,5.3,1.84c0.56,0.22,1.03,0.32,1.4,0.32c0.54,0,0.93-0.17,1.19-0.53l0.93-1.17c0.45-0.59,1-0.89,1.65-0.89
		c0.76,0,1.32,0.26,1.67,0.79c0.35,0.53,0.53,1.35,0.53,2.49v13.34c0,0.78-0.23,1.42-0.7,1.92c-0.47,0.5-1.07,0.75-1.8,0.75
		c-0.57,0-1.09-0.17-1.57-0.53c-0.25-0.22-0.46-0.48-0.61-0.79c-0.16-0.31-0.3-0.83-0.44-1.56c-0.31-1.32-0.85-2.68-1.61-4.08
		c-0.76-1.4-1.65-2.65-2.67-3.76C294.6,301.11,292.04,299.67,288.96,298.97z"/>
	<path d="M318.29,334.46v-31.69c0-0.94-0.17-1.63-0.51-2.06c-0.17-0.24-0.33-0.4-0.49-0.47c-0.16-0.07-0.7-0.25-1.63-0.55
		c-1.13-0.35-1.7-1.06-1.7-2.14c0-0.7,0.28-1.23,0.83-1.6c0.55-0.36,1.33-0.55,2.35-0.55h1.1h18.9h1.1l1.53,0.16
		c0.48,0.14,0.88,0.38,1.19,0.73c0.31,0.35,0.47,0.77,0.47,1.25c0,1.08-0.57,1.79-1.7,2.14c-0.93,0.3-1.48,0.48-1.63,0.55
		c-0.16,0.07-0.32,0.22-0.49,0.47c-0.34,0.43-0.51,1.12-0.51,2.06v33.92c0,2.29,0.06,3.89,0.19,4.79c0.13,0.9,0.39,1.72,0.78,2.45
		c0.37,0.67,0.78,1.16,1.23,1.46c0.45,0.3,1.31,0.63,2.59,1.01v5.3h-0.93c-3.67,0-6.73-0.31-9.16-0.93
		c-2.85-0.73-5.36-1.81-7.5-3.23c-2.15-1.43-3.67-3.03-4.58-4.81C318.77,340.82,318.29,338.07,318.29,334.46z M345.8,351.68v-5.3
		c2.83-0.35,5.19-1.46,7.08-3.31c2.15-2.13,3.22-5.19,3.22-9.18v-26.36c0-3.69-1.48-6.27-4.45-7.72c-0.88-0.43-1.45-0.8-1.72-1.11
		c-0.27-0.31-0.4-0.76-0.4-1.35c0-0.7,0.27-1.2,0.81-1.5c0.54-0.3,1.41-0.44,2.63-0.44h10.39c0.88,0,1.46,0.02,1.76,0.06
		c0.3,0.04,0.59,0.14,0.87,0.3c0.73,0.4,1.1,0.96,1.1,1.66c0,0.59-0.23,1.09-0.68,1.5c-0.14,0.14-0.75,0.5-1.82,1.09
		c-1.24,0.65-2.22,1.64-2.93,2.97c-0.71,1.33-1.06,2.85-1.06,4.55v26.4c0,4.53-1.05,8.25-3.14,11.16c-1.53,2.16-3.72,3.88-6.57,5.17
		C349.47,350.91,347.78,351.38,345.8,351.68z"/>
	<path d="M396.58,295.41v47.5c0,1.05,0.21,1.81,0.64,2.26c0.23,0.27,0.44,0.44,0.64,0.51c0.2,0.07,0.85,0.24,1.95,0.51
		c1.36,0.3,2.04,1.04,2.04,2.22c0,0.7-0.37,1.27-1.1,1.7c-0.54,0.32-1.43,0.48-2.67,0.48h-1.44h-18.91h-1.1
		c-1.02,0-1.8-0.18-2.35-0.55c-0.55-0.36-0.83-0.88-0.83-1.56c0-1.1,0.57-1.83,1.7-2.18c0.93-0.3,1.48-0.48,1.63-0.55
		c0.15-0.07,0.32-0.22,0.49-0.46c0.34-0.43,0.51-1.12,0.51-2.06v-40.46c0-0.94-0.17-1.63-0.51-2.06c-0.17-0.24-0.33-0.4-0.49-0.47
		c-0.16-0.07-0.7-0.25-1.63-0.55c-1.13-0.35-1.7-1.08-1.7-2.18c0-0.67,0.28-1.19,0.83-1.56c0.55-0.36,1.33-0.55,2.35-0.55h1.1
		H396.58z M409.59,323.54c2.6,0.38,4.6,0.8,6,1.25c1.4,0.46,2.66,1.08,3.79,1.86c1.19,0.84,2.1,1.83,2.73,2.99
		c0.64,1.16,0.95,2.39,0.95,3.68v8.37c0,0.86,0.3,1.29,0.89,1.29c0.23,0,0.42-0.06,0.57-0.18c0.16-0.12,0.38-0.36,0.66-0.71
		c0.71-0.92,1.43-1.37,2.16-1.37c0.48,0,0.96,0.24,1.44,0.73c0.48,0.48,0.72,0.97,0.72,1.46c0,0.84-0.42,1.85-1.25,3.05
		c-0.83,1.2-1.87,2.27-3.12,3.21c-1.16,0.89-2.42,1.53-3.77,1.92c-1.36,0.39-2.95,0.59-4.79,0.59c-3.73,0-6.64-1.02-8.73-3.05
		c-2.09-2.03-3.14-4.87-3.14-8.51v-6.79c0-1.51-0.01-2.38-0.04-2.63c-0.14-1.08-0.54-2.01-1.19-2.79c-0.82-0.94-1.99-1.5-3.52-1.66
		v-4.33c1.53-0.22,2.61-0.59,3.26-1.13c0.57-0.49,0.95-1.04,1.17-1.66c0.21-0.62,0.32-1.54,0.32-2.75v-10.71
		c0-1.7-0.35-2.96-1.04-3.8c-0.69-0.83-1.94-1.5-3.75-1.98v-4.49h1.1c3.14,0,5.81,0.11,8.01,0.32c3.28,0.3,6.2,1.32,8.77,3.07
		c3.7,2.51,5.55,6.08,5.55,10.71c0,3.8-1.24,6.91-3.73,9.34c-1.05,1.02-2.27,1.86-3.67,2.51
		C414.58,322.01,412.45,322.74,409.59,323.54z"/>
	<path d="M500.73,350.59h-18.91h-1.1c-1.02,0-1.8-0.18-2.35-0.55c-0.55-0.36-0.83-0.88-0.83-1.56c0-1.1,0.57-1.83,1.7-2.18
		c0.93-0.3,1.48-0.48,1.63-0.55c0.15-0.07,0.32-0.22,0.49-0.46c0.34-0.43,0.51-1.12,0.51-2.06v-40.46c0-0.94-0.17-1.63-0.51-2.06
		c-0.17-0.24-0.33-0.4-0.49-0.47c-0.16-0.07-0.7-0.25-1.63-0.55c-1.13-0.35-1.7-1.08-1.7-2.18c0-0.67,0.28-1.19,0.83-1.56
		c0.55-0.36,1.33-0.55,2.35-0.55h1.1h18.91h1.1c1.02,0,1.8,0.18,2.35,0.55c0.55,0.36,0.83,0.88,0.83,1.56c0,1.11-0.57,1.83-1.7,2.18
		c-0.93,0.3-1.48,0.48-1.63,0.55c-0.16,0.07-0.32,0.22-0.49,0.47c-0.34,0.43-0.51,1.12-0.51,2.06v40.46c0,0.94,0.17,1.63,0.51,2.06
		c0.17,0.24,0.33,0.4,0.49,0.46c0.15,0.07,0.7,0.25,1.63,0.55c1.13,0.35,1.7,1.08,1.7,2.18c0,0.67-0.28,1.19-0.83,1.56
		c-0.55,0.36-1.34,0.55-2.35,0.55H500.73z"/>
	<path d="M543.67,336.44l-4.03,14.15h-11.15l-15.09-48.31c-0.23-0.73-0.44-1.22-0.64-1.48c-0.2-0.26-0.51-0.48-0.93-0.67
		c-0.9-0.35-1.5-0.67-1.78-0.97c-0.28-0.3-0.42-0.74-0.42-1.33c0-0.81,0.38-1.44,1.14-1.9c0.59-0.35,1.57-0.53,2.92-0.53h18.86
		c1.19,0,2,0.03,2.44,0.08c0.44,0.05,0.8,0.16,1.08,0.32c0.28,0.19,0.52,0.46,0.72,0.81c0.2,0.35,0.3,0.69,0.3,1.01
		c0,1-0.5,1.71-1.48,2.14c-0.73,0.35-1.24,0.71-1.5,1.07c-0.27,0.36-0.4,0.88-0.4,1.56c0,0.43,0.04,0.81,0.13,1.13L543.67,336.44z
		 M545.28,330.66l-2.25-7.6l4.88-17.02c0.31-1.08,0.48-1.74,0.51-1.98c0.06-0.59-0.08-1.25-0.42-1.98
		c-0.45-0.94-1.16-1.56-2.12-1.86l-1.4-0.48c-1.1-0.35-1.65-1.04-1.65-2.06c0-0.73,0.31-1.29,0.93-1.68
		c0.62-0.39,1.48-0.59,2.59-0.59h10.38c1.3,0,2.15,0.12,2.54,0.36c0.68,0.4,1.02,0.98,1.02,1.74c0,0.51-0.11,0.92-0.32,1.21
		c-0.21,0.3-0.6,0.57-1.17,0.81l-2.16,0.97c-0.9,0.4-1.77,1.21-2.61,2.41c-0.83,1.2-1.48,2.57-1.93,4.1L545.28,330.66z"/>
	<path d="M587.5,295.41v55.18h-18.86h-1.1c-1.02,0-1.8-0.18-2.35-0.55c-0.55-0.36-0.83-0.88-0.83-1.56c0-1.1,0.57-1.83,1.7-2.18
		c0.93-0.3,1.48-0.48,1.63-0.55c0.15-0.07,0.32-0.22,0.49-0.46c0.34-0.43,0.51-1.12,0.51-2.06v-40.46c0-0.94-0.17-1.63-0.51-2.06
		c-0.17-0.24-0.33-0.4-0.49-0.47c-0.16-0.07-0.7-0.25-1.63-0.55c-1.13-0.35-1.7-1.08-1.7-2.18c0-0.67,0.28-1.19,0.83-1.56
		c0.55-0.36,1.33-0.55,2.35-0.55h1.1H587.5z M591.06,324.84v-4.69c1.64-0.75,2.85-1.58,3.64-2.47s1.37-2.08,1.74-3.56
		c0.23-1.02,0.52-1.73,0.89-2.12c0.37-0.39,0.89-0.59,1.57-0.59c0.9,0,1.53,0.34,1.86,1.01c0.2,0.35,0.3,1.15,0.3,2.39v15.4
		c0,1.27-0.15,2.14-0.44,2.63c-0.3,0.48-0.84,0.73-1.63,0.73c-0.65,0-1.16-0.19-1.53-0.57c-0.37-0.38-0.66-1.01-0.89-1.9
		c-0.48-1.86-1.17-3.29-2.06-4.29C593.62,325.82,592.47,325.16,591.06,324.84z M591.27,295.41h17.08v14.31
		c0,0.84-0.17,1.44-0.51,1.82c-0.34,0.38-0.88,0.57-1.61,0.57c-0.62,0-1.07-0.12-1.36-0.36c-0.28-0.24-0.55-0.74-0.81-1.5
		c-1.07-3.13-2.65-5.51-4.73-7.16c-2.08-1.64-4.77-2.63-8.07-2.95V295.41z M591.31,350.59v-4.37c1.84-0.27,3.36-0.65,4.56-1.13
		c1.2-0.49,2.41-1.23,3.62-2.22c1.21-1,2.18-2.03,2.9-3.09c0.72-1.06,1.41-2.47,2.06-4.22c0.31-0.86,0.64-1.45,0.97-1.76
		c0.34-0.31,0.81-0.46,1.4-0.46c0.79,0,1.34,0.22,1.65,0.67c0.31,0.44,0.47,1.22,0.47,2.32v14.27H591.31z"/>
	<path d="M638.45,295.41v55.18h-18.86h-1.1c-1.02,0-1.8-0.18-2.35-0.55c-0.55-0.36-0.83-0.88-0.83-1.56c0-1.1,0.57-1.83,1.7-2.18
		c0.93-0.3,1.48-0.48,1.63-0.55c0.15-0.07,0.32-0.22,0.49-0.46c0.34-0.43,0.51-1.12,0.51-2.06v-40.46c0-0.94-0.17-1.63-0.51-2.06
		c-0.17-0.24-0.33-0.4-0.49-0.47c-0.16-0.07-0.7-0.25-1.63-0.55c-1.13-0.35-1.7-1.08-1.7-2.18c0-0.67,0.28-1.19,0.83-1.56
		c0.55-0.36,1.33-0.55,2.35-0.55h1.1H638.45z M647.01,339.03v-31.89c0-1.97-0.3-3.53-0.89-4.69c-0.37-0.75-0.82-1.31-1.36-1.66
		c-0.54-0.35-1.38-0.65-2.54-0.89v-4.49c1.5,0,2.77,0.05,3.81,0.16c3.59,0.38,7.06,1.83,10.43,4.37c3.33,2.45,5.81,5.65,7.42,9.58
		c1.67,3.99,2.5,8.41,2.5,13.26c0,5.5-1.06,10.38-3.18,14.65c-2.12,4.27-5.16,7.63-9.11,10.09c-1.92,1.19-3.71,1.99-5.36,2.43
		c-1.65,0.43-3.82,0.65-6.51,0.65v-4.37c1.19-0.3,2.01-0.57,2.48-0.81c0.47-0.24,0.87-0.62,1.21-1.13c0.42-0.59,0.71-1.26,0.87-2
		C646.93,341.54,647.01,340.46,647.01,339.03z"/>
</g>
<g>
	<g>
		<path class="st0" d="M243.7,576.39l-0.29-2.06l-0.77-0.43l0.58-0.22l0.29-2.06l-0.38-2.71l0.1-0.22l0.38-0.11l-0.38-3.14
			l0.29-0.11v-1.41l0.1-2.17l-0.96-0.76v-4.76l0.87-0.11l0.38-0.43l-1.25-1.41l0.1-2.6l0.48-0.22l-0.29-0.97l0.19-1.41l-0.29-0.33
			l0.1-1.3l0.67-0.22l0.19,0.11l0.48,1.3l1.73,5.2l-0.48,0.65l0.29,0.87h0.38v0.43l0.19,0.22l-0.19,0.76l0.38,0.43l0.48-0.11
			l0.77,1.95h-0.48l-0.29,0.33l1.25,0.65l0.19,0.32l0.48,4l-0.48,0.43l0.29,1.73l0.67,18.94l0.19,1.19l-1.64,0.97l0.38,2.06
			l-0.58,0.11l1.64,0.97l0.29-0.54l0.96,0.11l1.25-0.87l0.19,0.54l1.83-0.11l1.64,0.76l1.06,1.19l0.19,1.62l-0.19,1.19l-0.87,0.87
			l-2.21,0.76l-2.31,0.33l-5.87-0.33l-6.45,0.22l-3.18-1.41l-0.87-1.19l-0.19-0.76l0.48-1.95l5.58-2.71l0.48-0.43l0.48-0.87
			l0.87-6.49v-3.79L243.7,576.39z M239.37,524.54l-0.58,0.22l-0.19,0.65l-0.58-0.43v1.84l1.06-0.22l1.44-0.65l0.77,0.11l0.38-0.43
			h0.87l-0.1-0.54l0.38-0.32l2.89,1.3l1.06,0.11l0.67-0.22l0.87-0.65l0.19,0.32l0.67,0.22l0.38-0.65l2.02,0.33v-0.43l1.25-0.11
			l0.58-0.76l0.48,0.11l0.1,0.54l2.98,1.19l0.48-0.11l0.19-0.97l-0.58-0.54l1.15-0.22l1.64,0.22l-0.1,0.54l0.48-0.22l0.1-0.43
			l1.15,0.11l1.64,0.65l0.96,0.87l1.54,3.79l0.87,3.03l-0.77,0.11v0.65l-0.87-0.43l0.1,1.41l1.25,0.32l-0.1,0.43h-0.38l0.48,0.54
			l-0.19,0.65h0.29v0.65l0.77,0.97l-0.1-0.87h0.39v0.54l0.38,0.11l-0.29,0.32h0.67l-0.48,0.76l-0.19-0.22l-0.19,0.65l0.38,0.43
			l1.25-0.54l0.19,0.54h-0.38l-0.29,0.65l0.58,0.22l-0.39,1.19l0.58,0.33h0.29v-1.3l0.58,2.38l-0.48-0.76l-0.87,0.33l-0.29-0.33
			l-0.1,0.65l0.77,0.11l0.48,3.25l0.29,0.65l-0.48,0.11l0.38,0.76l-0.67,0.54l0.87,1.3l0.87-0.11l0.29-0.97l0.1,0.76l0.96,0.11
			l1.15,1.52l0.48-0.33l0.48-0.97l2.79-9.2h0.48l-0.1-1.19l1.25-0.65l0.1,13.1l-0.19,2.71l-0.77,3.9l-1.92,6.5l-0.77,1.62
			l-0.19,1.19l-0.39,0.11v1.52l-0.19,1.08l-0.58,1.62l-0.38,1.3l-1.15,2.38l-0.29,1.08l0.38,0.33l-0.67,0.22l-0.19,1.41l0.1,0.87
			l-0.58-0.11l-1.83,2.38v0.87l-1.06,0.76l-0.29,0.54l-1.73,1.52l-0.1,1.08l-0.29,0.22v0.54l-0.29-0.33l-0.58-0.11l-0.38,0.76h-0.58
			v0.54l0.39-0.43l0.96,0.43l-0.77,1.51v1.3l0.58,0.11l0.38,0.54l0.87-0.22l-0.19,0.76h0.38l0.38-1.08h0.48l0.29-1.51l0.67-0.43
			v-0.32l0.77-0.11l-0.58,2.27l-0.87-0.11l-0.19,0.87l-0.77,1.08l-0.77,0.76l-0.87-0.65l-0.48-0.11l-0.87,1.3l-1.06-3.03l0.48-0.87
			l-0.58-0.65l1.25-0.76l-0.67-0.87l0.87-0.43v-0.65l-1.64,0.65l-0.29-0.76l0.58-0.33v-0.76l-1.15-1.19l-0.19-2.38l-0.48-0.87
			l0.29-0.33l-0.39-2.38l0.19-1.73l-0.48-0.32l0.38-0.97l-0.48-0.54l-0.1-0.22h-0.77L259,575.2l-0.1,0.43l0.38,0.43l-0.19,0.32
			l0.1,1.08l-1.73-0.97l0.87-0.33l-0.1-1.95l-1.25-0.54h-0.58l-5.97-17.75v-2.38l-1.35-0.76l0.1-0.65l-0.67-1.52l0.67,0.11v-0.87
			l-0.77-1.19l-0.1-0.87l-0.38-0.11l0.19-0.43l-0.48-0.97h-0.1l0.1-0.54l-0.38-0.54l0.1-0.43l-0.39-0.76l0.1-0.33l-0.48-0.76
			l0.38-0.22l-1.25-3.25l0.29-0.22l-0.19-0.87l-0.96-0.43l0.58-0.22l-0.29-1.41l0.39-0.76l-0.48-1.62l-1.73-0.32l-0.1,0.32
			l0.48,0.22l0.39,0.54h-1.25l-2.41-2.6l-3.94-1.95l-0.77-0.65l-0.58-0.97l-0.19-1.19l0.29-1.52l0.48-0.65l2.6-0.76l1.15-0.22
			L239.37,524.54z M247.74,590.14l-0.96-0.32l-0.29,0.11l-0.1,0.33l0.1,0.32L247.74,590.14z M248.22,562.1l-0.48-0.54l-0.67-0.11
			l-0.1,0.65H248.22z M250.44,542.4v0.87l0.48,0.11v1.73l0.19-0.76h0.77l-0.58-0.97l0.58-0.22l-0.29-0.97l-1.54-0.33L250.44,542.4z
			 M252.55,547.6l-0.19-0.33l0.19-0.11l-0.87-0.76h-0.48l0.29-0.32l0.1-0.97h-0.58l0.1,0.65l-0.58,1.84l0.1,0.32l1.73,1.19
			L252.55,547.6z M252.55,552.15h-0.29l-0.19-0.54l-0.67-0.11l-0.38,0.65l0.19,0.87l0.38,0.43l0.48,0.11l0.38-0.65L252.55,552.15z
			 M251.78,550.96l0.48-0.11v-0.43l-0.29-0.22v-0.65l-0.67,1.08L251.78,550.96z M252.55,554.2l-0.19-0.11h-0.38l-0.19,0.22
			l-0.1,0.33l0.1,0.43l0.77,0.32V554.2z M259.67,572.39l0.38-0.33l-1.25-0.22L259.67,572.39z M259.96,573.04l-0.19-0.11h-0.48
			l-0.19,0.22v0.32v0.33l0.29,0.22l1.06,0.32L259.96,573.04z M266.89,535.15l0.77,0.65l-0.48,0.22l-0.1,0.33l-0.48-0.43
			L266.89,535.15z M267.66,540.89l0.48-0.11v-0.43h-0.58L267.66,540.89z M270.74,547.38l0.87,0.11v0.65l-0.1-0.33l-0.77,0.22V547.38
			z M271.32,551.28l-0.1,1.62l0.87-1.95l-0.39-0.33l-0.77,0.22v0.33L271.32,551.28z M282.29,582.35l0.77-0.22l-0.19-1.19l-0.29-0.54
			l-0.29,0.54l-0.29-1.95l0.77-0.97v-0.65l1.15-0.33v-3.79l0.39,0.32l0.29-0.65l-0.96-0.97l-0.1,0.43l-0.38,0.11l-0.29-0.87
			l-0.48-0.43l0.87-0.33l0.1-2.27l1.06-0.43v0.33l0.48-0.22l-0.96-1.95l-0.58-0.22l0.38-0.76l-0.19-0.76l-0.38,0.33l-0.38-1.52
			l0.48-0.87h0.96l-0.19-2.71l-0.38,0.22l0.1,1.62l-0.38,0.33l-0.29-0.22l-0.38-0.87l-0.19-0.97l-0.48-0.43l-0.1-19.48l0.48-0.22
			v-1.95l-0.58-0.22v-4l0.19-1.41l-0.29-2.92l0.19-1.41l0.38-1.08l-0.29-0.11l0.29-1.62l1.15-0.54l-0.1,0.33l-0.67,0.11l0.29,1.84
			l0.67-0.11l1.15-1.3l0.1,0.32l2.79-1.41l1.06,0.76l0.77,0.11l0.96-0.22l0.67-0.32l0.77,0.43l0.38-0.32l0.87,0.43l0.58-0.43
			l0.58,0.43h1.83l0.67,0.22l0.77-0.43l0.77-0.11l-0.19,0.76l0.67,0.65l0.19-1.41l0.77,1.3l0.77-1.19l1.06-0.32v-0.43l2.5-0.11
			l3.27,0.65l1.64,0.65l0.48,0.54l0.48,2.17l-0.1,0.65l-0.38,0.54l-3.75,2.27l-0.39,0.32l-0.29,0.54l-0.29,3.03l0.1,4.44h-1.35
			l0.19,0.97l0.29,0.33l-0.1,1.08l-0.48,1.95l0.48,0.76l-0.1,1.19l-0.58,1.52l-0.1,1.84l-0.29,0.65l-0.77,0.76l0.1,0.87l-0.87,1.3
			l0.38,0.87l0.67-0.11v0.43l0.58-0.65l0.1-0.54l-0.29-0.22l-0.29-1.08l0.96,0.22l0.29,1.3l0.58,0.22l0.38-0.32l0.19,0.43v2.38
			l-0.19-0.43l-0.58,0.87l0.58,0.54l-0.87,1.3l0.96,1.41l-0.38,1.62l0.48,2.6l-0.29,1.41l-0.77,2.49l0.39,0.43l0.38-0.11l-0.19,0.97
			l0.38,0.22l-0.29,1.19H305l0.1,16.56l-1.54-1.19l-0.67,0.87l0.87,1.41l-0.1,1.73l0.1,1.19l0.58-0.11l0.67-1.41h0.67l0.19,0.43
			l0.67-0.65l2.12,0.76l1.15,0.76l0.48,0.76l0.1,1.3l-0.19,1.08l-1.06,0.97l-2.89,1.08l-2.79,0.33l-0.48-0.11l-0.96-0.32l0.48-0.22
			l-0.19-1.3l-0.48-0.22v0.87l-1.64,0.32v0.33h-0.48l-0.87,0.32l-0.87,0.11l-2.31-0.11l-5-0.11l-0.29-0.76l-0.67-0.65v-0.33
			l-1.06-0.11l-0.48,1.08l-0.29-0.97l-2.6,0.65l0.1,0.87l-0.58,0.11l0.1,0.65h-2.5l-4.04-1.08l-1.06-1.19l-0.38-1.3l0.29-1.3
			l0.48-0.87l3.18-1.62l0.48-0.32l0.38-0.76l0.38-2.49v-2.81L282.29,582.35z M283.63,535.91l0.1-0.97l-0.87-0.54l0.29,0.76
			l-0.67,0.97L283.63,535.91z M284.6,559.61l0.1-0.76h-1.25v0.43L284.6,559.61z M289.41,532.34l0.29,0.54l0.38,0.32l0.19-0.87
			l0.48,0.22l0.48-0.43l0.58,0.22l0.19-0.22h0.77l0.58-0.43l0.48-0.11l1.64,0.22l0.1-0.76l-0.29-0.65l-0.1-1.52l-0.58-0.43
			l-0.29,0.43l0.58,0.76l-3.85-0.11v0.97l-1.06,0.22l-0.87,0.33l-0.58,0.97L289.41,532.34z M295.85,529.85v-1.51l-0.38-0.22
			l-0.1,0.76L295.85,529.85z M296.72,528.87h0.77l0.1-0.54l0.48,0.11l0.29-0.87h0.58l-0.67-0.76l-0.19-0.65l-0.96,0.22l-0.77,0.43
			l-0.38,0.76l0.77,1.84V528.87z M297.97,532.66l1.15-0.11l1.06,0.33l1.06-0.22l-0.19-0.65l-0.29-0.22h0.58l0.38-0.43l-0.48-0.32
			l-0.1-0.65l-0.29-0.43h-1.83l-1.92,0.65l-0.96,0.22v0.43L297.97,532.66z M299.03,527.47l0.67-0.43l-0.87-0.65l-0.1,0.54
			L299.03,527.47z M303.65,530.28l-1.15-0.33l0.19,0.33l-0.48,0.65L303.65,530.28z M303.26,595.44v-0.76l0.38,0.11l0.48-1.41
			l-0.96-0.11l-0.87,0.87L303.26,595.44z M303.55,545.65v-0.87l-0.48,0.22l-0.1,0.43L303.55,545.65z M304.23,585.38l0.29-0.65
			l-0.29-0.65l-0.29,0.22v0.54L304.23,585.38z"/>
		<path class="st0" d="M319.81,589.92l0.29-0.32v-0.43l0.67-0.22l0.48-0.54h0.48l0.77-0.65l0.1-1.62h0.38l-0.29-0.97l-0.67-0.76
			v-0.76l-0.96-0.87l-0.1-3.36l-1.06-1.08l0.67-0.11l-0.29-1.51l0.1-2.71l1.25,0.11l0.29-0.43l0.38-0.11l0.39-0.65l-0.39-1.62h-0.87
			l0.38-0.54l-1.92-0.43v-4.11l0.19-2.49l-0.29-8.66l0.1-0.65l0.67-1.95l-0.1-1.41l0.29-0.54h0.29l-0.1-1.84l0.19-1.62l-1.25-0.87
			l0.29-2.38v0.87l0.96-1.3l-1.25-0.33v-2.6l-0.48-7.9l-0.29-0.54l-2.89-1.62l-0.87-0.43l-0.48-1.19l-0.19-0.97l0.29-1.08l1.06-1.19
			l1.83-0.65l1.92-0.43l9.72,0.33l0.48,1.3l0.48-0.22l0.1-0.65l0.29-0.22l1.92,0.11l0.48,0.87l0.87,0.22l1.44-0.11l0.19-0.22
			l0.58-1.08l1.35-0.11l0.58,1.3l0.87-0.65h0.67v-0.65l1.25,0.11l1.06,0.32l0.48,0.65l0.48,4l-0.38,13.75l-1.44-0.33l0.1,0.87
			l-1.44-0.87v0.33h-0.29l0.96,1.3l2.31,0.32l-0.1,0.65l-0.38-0.22l0.38,1.3l-0.87-0.22l0.1,1.19l0.87,1.73l0.1,0.43l-0.19,4.22
			l-0.87-0.43l-0.29,0.87h0.77l0.48,0.97l-0.1,0.54l-0.67-0.43l-0.67,0.22l0.1,1.3l-0.48,0.54l0.1,0.87l-0.29,0.54l0.48,0.54
			l-0.77,0.87l-0.67-0.11l-0.77,2.81l0.96,0.33l1.73-1.3l-0.19-0.32l0.38-1.52l0.67-0.76l0.19,8.55l-0.19,19.38h-0.87l-0.29,0.11
			l0.1,0.43l-0.38,1.19l0.48,0.43H343l-0.1,4l-0.29,1.52l-0.58,0.54l-2.21,0.43l-2.5-0.11l-0.29-1.19l-0.38-0.76l0.58-1.62
			l-0.1-1.41l-0.67-0.11l0.19,0.32l-0.48,0.11l-0.48,0.97l0.19,1.19l-0.38,2.06l-10.39,0.11l-0.19-0.65l0.1-0.87l-0.38-0.22
			l-0.96,0.76l-1.35,0.65l-0.48,0.54l-3.66-0.32l-2.31-0.87l-0.87-0.97l-0.29-1.41l0.19-1.08l0.19-0.32l3.75-2.06L319.81,589.92z
			 M320.39,545.87l0.1-0.65h-0.48v0.65H320.39z M321.16,566.33l0.29-0.97l-0.38-0.11l-0.19,0.87L321.16,566.33z M321.45,583.43
			l0.1,0.65l0.48,0.54l-0.48,0.54l-0.29,0.11l-0.1-0.87l-0.19-0.65v-0.43L321.45,583.43z M335.31,594.69v-0.43l-1.54-0.43
			L335.31,594.69z M335.31,592.3l-1.06-0.54l-0.29,0.43l0.1,0.54l0.48,0.43h0.77V592.3z M338.87,537.1l0.58,0.76l1.25-0.43v-0.43
			l-0.58-0.43l-0.1-0.43l0.67-0.32l0.1-0.22v-0.43l-1.15-0.65l-0.58,0.65l-0.38-0.22l-0.48,1.19L338.87,537.1z M339.54,556.48
			l0.19-0.43l-0.67-0.87L339.54,556.48z M349.35,555.07l0.87,0.22v-1.19l1.54-0.54l0.1-2.06l-0.29-0.65l1.83-4l0.29-0.22l1.35-0.32
			l1.92,0.43l0.58,0.65l0.38,3.03l-0.19,5.84l-0.29,4l0.1,1.84l-0.29,0.43l-0.29,1.52h0.58l0.19,1.19l0.29,5.74l-0.29,1.95
			l-0.87,0.87l-1.73,0.54l-1.25-0.32l-0.48-0.43l-3.27-6.39l-3.66-3.79l-0.58-1.3l-0.19-1.73l0.67-2.92l0.58-0.87l2.41-2.06V555.07z
			 M348.3,524.98l0.96,0.33l0.29-0.43l0.48,0.43l0.96-0.54l1.06,0.76l0.1-0.43l0.67-0.11l0.48,0.87l0.38-0.11l0.19,0.22l0.96-0.87
			l4.62-0.11l5-0.32l0.48,0.11l0.67,0.76l0.38,1.51v2.06l-0.67,0.22l-0.19,0.76l0.38-0.22l-0.58,0.97l-0.39,1.62l0.29,1.41
			l0.29,0.32l0.87,0.33l0.1,1.84l-0.38-0.87l-0.77,0.76l-0.29-1.52l-0.29,1.3l0.67,0.33l0.1,0.97l0.96-0.22l0.77,6.93l-0.38,1.41
			l-0.67,0.76l-1.54,0.32l-2.12-0.54l-0.38-0.32l-2.89-4.66l-4.04-4.98l0.67-0.54l-0.58-0.54l-0.19,0.33l-0.67,0.11l-1.16-0.97
			l1.25,0.11l-1.06-0.33l-0.87,0.11l-5.39-2.6l-0.29-0.33l-0.38-1.08l-0.38-1.73l0.1-1.52l0.29-1.51l0.29-0.43l0.67-0.32l1.15-0.11
			V524.98z M352.82,587l0.87-0.11l0.67,0.32l0.58-1.19l1.25-0.32l0.1-0.65l0.87-0.33l1.54-0.11l0.29-0.32l0.19-0.33v-1.19h-0.77
			v-0.43l0.48-0.54h0.58v-0.87l0.87-0.11l-0.29-0.43l-0.48,0.22l0.38-1.08l0.58,1.3l0.19-0.97l-0.58-0.54l1.54-2.71l2.12-3.14
			l0.77-0.54l1.16-0.22l1.92,0.43l0.96,0.65l0.29,0.43L368.12,587l-0.1,7.68l-0.29,0.87l-0.58,0.54v-0.65l0.19-0.32l-0.19-0.43
			l-0.87,0.22l-0.38-0.65h-0.77l-0.38,1.19l-1.16-1.19l-1.35,0.76l-3.27,0.54l-1.25-1.08l-0.38-0.11l-2.5,0.43l0.1,0.43l-0.87,0.11
			l-0.1,0.32l-2.02,0.11l-2.89,0.76l-1.15,0.11l-1.15-0.87l-0.48-0.76l-0.38-2.71l0.48-2.81l0.38-0.43l4.91-2.27l0.87-0.54
			L352.82,587z M366.67,595.66l-0.29,0.54h-0.96L366.67,595.66z"/>
		<path class="st0" d="M375.24,530.06l-0.29-0.76l0.38-0.43l-0.38,0.22v-1.08l0.67,0.43l0.58-0.54l-0.29-0.22l0.29-0.32l0.38,0.22
			l0.38-1.3l-0.58-0.32l-0.19-0.65l-0.48-0.33l7.89,0.43l0.96-0.54l0.77,1.3l0.38-0.97l0.67-0.22l0.1-0.54l0.77,1.19l-0.77,0.11
			l-0.87,0.76l0.77,0.87l-0.1-0.54l0.39-0.43l0.48,1.08l-0.96,0.76l0.29,0.65l0.48,0.22l0.29-0.11l1.83-0.97v1.95l-0.19,0.65
			l-0.96,1.41l-0.29-0.54l-0.87,0.43l-1.15,0.87l-0.29,0.54l-1.35,3.46l-0.58,0.65l-0.1,1.19l-1.25,2.38l0.58,0.65l-2.02,7.14
			l-0.48,0.43l-1.15,0.54l0.29-0.54h-0.58l0.29-0.76l-0.96-0.32l-0.58,1.08l-0.48,0.22l-0.19,0.54l-1.83-0.76l-0.38-0.54l-0.29-1.84
			l1.06-11.15l-0.38-4.65L375.24,530.06z M391.98,588.73l0.19-0.32l0.38-4.11l0.19-3.9l0.48,0.33l0.19-2.06l0.38-1.52l-0.48-0.97
			l-0.48-0.11l0.1-0.97l0.67-0.11v-0.97l-0.96,0.32l0.19-5.3l0.38,0.43l-0.19-0.87h0.58l0.19,0.54h0.38l0.29-0.97l-0.58-4.22
			l-0.29-0.97l0.29-0.43l-0.29-2.38l0.38-0.11l-0.38-1.52l0.29-0.33l0.19-1.41l-1.06-0.43l0.58-2.06l-0.38-0.97l-0.67-1.19
			l0.48-0.43l-0.29-0.22l0.38-0.54v-0.43l-0.58-0.11l0.1-23.17l2.89-1.62l-0.19-0.97l5.97,0.65l10.78-0.65l2.41,0.54l0.48,0.54
			l0.38,2.27l-0.19,0.97l-0.77,0.97l0.1,1.19l-0.1,0.97l0.58,1.62l-0.29,0.32l0.67,0.76v0.43h-0.77l-0.29,0.76l0.38,0.11l0.1,0.43
			l-0.48,0.65l1.06,1.62v1.62l-0.67,0.54l0.48,1.19l-0.1,0.97l0.38,0.65l-0.1,5.2l-1.25-0.43l-0.29,0.43l0.87,0.65l-0.29,0.22
			l0.19,1.41l-0.1,1.3l0.29,1.19l-0.67,1.62l0.38,0.97v1.08l0.29,1.08h-0.29l-0.38,0.87l0.38,0.22l-0.19,0.97l1.15,0.43v0.43h-0.67
			l-0.1,0.65l0.29,0.32l-0.48,0.33l0.1,0.43h0.67l-0.1,0.43l0.29-0.33v0.43l-0.96,0.22l0.77,0.76v0.76l-0.58-0.76l0.1,0.97
			l0.67,0.11l-0.1,0.33l-0.77,0.22l0.29,0.97l0.1-0.54l0.67,1.19v0.33l-0.29,5.2l0.1,2.6l-0.48,0.22l-0.29-0.11l-0.29,2.27l0.1,0.76
			l0.29,1.19h0.38l0.1,1.41l0.19,0.65h-0.38l-0.1,0.54l-0.67,0.54l0.77,0.54v0.33l-0.48,0.32l0.38,1.62l-1.64-0.11l0.29,0.76
			l-0.19,0.54l-0.77-0.22l-0.48,0.33l0.96,1.62l1.25,0.54l0.67,0.76h-1.44l0.38,0.76l0.67-0.11l0.67-0.33l-0.19-0.87h0.58l0.29-1.41
			l1.15,0.87l4.14,1.62l0.29,0.87l0.29,1.3l-0.19,0.97l-1.06,1.08l-4.62,1.3l-9.82-0.65h-5.1l-0.67-0.11v-0.76l-2.21-0.22
			l-2.02,0.33l-4.91,0.97l-3.85-0.87l-0.58-0.33l-0.48-0.65l-0.1-0.65l0.19-2.27L391.98,588.73z M393.43,584.51v-1.08h-0.38
			l-0.29,0.76L393.43,584.51z M393.43,582.78l-0.19-1.19l-0.29,1.19H393.43z M393.62,573.47l0.1-0.87l-0.58,0.76L393.62,573.47z
			 M394.1,544.03l0.48-0.22l-1.25,0.22v0.22l0.1,0.97L394.1,544.03z M395.93,544.79l0.58-0.87l-1.73,0.43V545L395.93,544.79z
			 M395.54,582.02l0.48-0.43v-0.87l1.06-0.43l0.1-1.41l-2.02,2.6L395.54,582.02z M396.89,578.02l-0.1-0.97l-0.38,0.76l-0.1,0.76
			L396.89,578.02z M411.61,536.77l-0.19,0.87l1.35,0.33l0.87-0.65l-0.48-1.3h-0.38l-0.1-0.65h0.48l0.1-0.43l-0.58,0.11l-0.19-1.73
			l-0.38,0.43l-0.48-0.43l-0.96,1.3v1.52L411.61,536.77z M412.38,532.12l0.29-1.19l-0.77-0.65l-0.19,1.62L412.38,532.12z
			 M412.38,541.21v-0.76l-0.48,0.87L412.38,541.21z M431.34,544.35v0.33l1.25,0.11l-0.48,1.19l0.67-0.22l0.29,0.33l-0.58,2.27
			l0.58-0.11v-0.43l0.38-0.11l-0.1,1.19l-0.29,0.54l-0.96,0.54l-2.21,0.43l-1.44-0.22l-0.48-0.43l-0.29-0.54l-2.21-6.39l-2.21-5.2
			v-0.76l-0.29-1.62h0.29l0.48-0.76l-1.25-0.65l-2.5-1.08l-1.44-3.79l-0.1-1.41l0.29-1.62l1.06-1.19l0.38-0.11l5.29,0.54l5.68-0.43
			l1.15,0.65l0.29,0.32l0.19,5.63v8.66l-0.19,0.76l-0.19,0.54l-1.15,1.62l-0.58,1.19L431.34,544.35z M430.28,547.38l0.29-0.65
			l-0.77,0.32L430.28,547.38z M430.28,545.98l1.25,0.11l-0.29-1.08h-1.06L430.28,545.98z"/>
		<path class="st0" d="M443.46,585.81l0.77-0.97h0.39l0.87-1.62l-0.48-0.43l-0.29,0.11l-1.25-0.97l0.29-0.32l-0.48-0.33l0.19-0.22
			l0.87,0.11l0.96,1.08l-0.48-0.97h0.48l0.38-1.19l-0.58-0.54v0.43l-0.29,0.43l-0.48-0.87l-0.48,0.22l-0.29-0.32v0.32l-0.87,0.87
			l-0.19-5.52l0.58-0.22l-0.38-0.65v-0.76l0.38-0.11v-0.65l-0.48-0.43v-3.14h0.67l0.19-0.43l-0.48-0.43h-0.39v-0.87l0.96-0.11v-0.76
			l-0.96-0.54l0.1-3.57l0.67,0.33l-0.1,0.87h0.77l-0.19-2.38l0.38-0.11l0.1-1.08l-0.58-3.14l-0.1-1.52l-0.29-0.65l-0.58-0.76
			l0.67-1.51l0.1-0.65l-0.38-4.01l1.06-0.22l0.29-1.52l-0.58-3.14V541l-0.19-1.84l-0.38-0.65l-0.87-0.54l-0.1-4.33l-0.29-1.62
			l-4.33-2.92l-0.29-1.62l0.38-1.41l0.77-0.97l2.21-0.76l2.41-0.32l3.18,0.22l0.1,0.33l1.16-0.22l1.06,0.22h1.83l0.58,0.87
			l1.35-0.76l1.64,0.22l0.96,0.32v-0.54h2.41v1.08l1.15-0.11l0.29,0.65l2.5-0.76l0.19-1.08l0.67,0.65l0.67-0.54l0.38,0.76l0.58-0.54
			l0.19,0.43l1.06,0.22l0.19-0.97l1.06,0.11l2.02,0.76l0.67,0.87l0.48,2.17l-0.1,0.76l-3.27,2.71l-0.48,0.54l-0.29,1.08v43.95
			l0.48,10.93l0.29,0.43l2.98,2.71l0.48,0.65l0.1,0.76l-0.29,1.08l-1.44,1.51l-3.66,1.08l-1.92-0.33v-0.11l1.16,0.11l0.38-0.87
			l-1.73-0.22l-0.29,0.32l-1.25-1.08l-1.73-0.33l-1.64-0.76l-1.25,0.11l-0.48-0.54h-0.58l-0.19,0.11l-0.67,1.95l0.48,0.43
			l-0.29,0.32h-1.83l-3.27-0.43l-7.99,0.54l-2.69-0.76l-0.87-0.97l-0.29-1.51l0.38-1.62l4.33-2.71l0.29-1.52l0.19-1.19
			L443.46,585.81z M442.88,556.8l0.48,0.54l-0.77,0.87L442.88,556.8z M445.48,535.04l0.58-0.65l-0.1-0.97l0.38,0.22l0.29-0.33
			l0.58,0.11l-0.58-0.97l-1.44-0.54l-0.58,1.08l0.19,0.97l-0.38-0.32l-1.06,0.97l-0.1,0.33l0.1,0.54l1.25,0.97L445.48,535.04z
			 M445.77,579.86l0.29-0.76l-0.48,0.11l-0.1,0.33L445.77,579.86z M459.24,550.85l0.77-1.19l-0.39-0.43l-0.48,0.65l-0.29,0.11
			L459.24,550.85z M461.17,550.2l0.48-0.97l0.38,0.54l0.1-0.54l-1.25-1.41l0.39,0.87l-0.77,1.08L461.17,550.2z M460.88,595.01
			l0.77,0.76v0.43l-0.87-0.43L460.88,595.01z M461.84,554.96l-0.48-0.11l-0.38,0.97L461.84,554.96z M462.9,554.2l0.96,1.19
			l-0.77-1.41l-0.67-0.22l-0.29,0.65L462.9,554.2z M463.28,553.01l0.29,1.3l0.77,0.22l-0.29-0.54l0.58-0.43l-0.1-0.65l-0.48-0.22
			v-0.32l-0.48-0.22l-0.1,0.43l-0.67-0.11l-0.1,0.87L463.28,553.01z M478.68,553.99h0.48l0.19,0.65l0.39-1.62v-0.33l-0.19-0.22
			h-1.35l0.1,0.54l-0.29,0.65l-0.48-1.08l0.19-1.19l0.29,0.11l0.77-1.19l-2.02-0.87v-1.08l1.73-0.54l1.06,0.33l-0.77-1.95h0.38
			l-0.19-1.19v-1.51l-0.38-0.22l0.38-0.65l0.1-2.6l-0.77-0.87h-0.58l-0.19-0.33h-0.67l-0.39-6.17l-3.27-2.81l-0.29-0.32l-0.29-2.06
			l0.29-1.41l0.58-0.65l3.27-0.97l3.27-0.11l1.54,0.33l0.87,0.76l0.48-0.43l-0.48-0.32l1.44,0.22l-0.29,0.43l0.67-0.22l0.87,0.54
			l1.73-0.54l0.38,0.11l0.29,0.33l0.19,0.54v0.65l-1.92-0.11l0.38,1.41l1.25-0.43l0.77,0.65l2.5-1.73l0.77-1.08h0.38l0.39-0.43
			l0.38-0.11l4.43-0.22l6.74,1.19l0.67,0.76l0.29,1.19l-0.29,1.84l-3.95,2.38l-0.38,0.65l-0.48,2.27l-0.1,1.52l-0.87-0.22
			l-0.48,3.68l-0.39,1.19l0.29,0.33l-0.77,4l0.19,0.97l0.58,0.11l0.1,1.73l0.48,0.76l-0.48,0.65l0.19,0.65l0.77,0.54l-0.1,0.33h0.38
			l-0.19,0.54l-0.29-0.33l-0.38,1.62l0.48,1.41l0.48-0.33l0.29,1.3l-0.58-0.11l-0.38,1.41l0.19,1.19l0.58,0.11l-0.19,0.76l0.29,0.11
			v1.73l-0.1,0.76l0.29,0.97l-0.1,1.52l-0.58,0.54l0.48,0.65l0.29,19.38l-0.39,3.35l-0.38,0.97l0.67,0.87v-0.43l0.48-0.22l-0.1,1.62
			l0.77,0.65l-0.19-0.54l0.58-0.76l3.17,1.73l0.29,0.43v1.84l-0.29,1.08l-0.58,0.54l-5,1.3l-4.04-0.22l0.58-0.97l-1.44,0.11h-3.85
			l-1.25,0.43v-0.54l-1.25,0.43l-0.48-0.11l-0.58,0.22l-0.29-0.54l-0.96,0.54l-5.2,0.43l-1.35-0.76h-1.25l0.19,0.65h-0.67l0.1-0.43
			l0.29-0.11l-0.58-0.22l-0.58,0.87l0.1-1.52l-2.21,0.54l-0.58-0.22l-0.77-0.97l-0.38-1.41l0.19-1.08l1.06-1.41l1.73-0.97l2.02-0.54
			l1.25-0.54l-0.1-0.54l0.29,0.11l0.38-0.54l-0.19-0.76v-1.3l-0.29-0.43v-0.87l-0.48-0.65l0.38,0.11l0.29-0.43l-0.77-1.19
			l-0.77,1.73l0.1-1.08l-0.29-0.65l0.48-0.54l-0.87-1.73l0.1-0.76l0.19-0.11l-0.19-0.76l0.48-2.6l-0.87-0.87l0.77,0.11l-0.29-1.41
			l0.29-1.52l0.38-0.43l-0.38-1.41v-0.54l0.58-1.84l-0.38-0.76l0.1-0.76l-0.96-0.87v-0.97h0.48l0.19,0.76l0.29-0.43l-2.79-2.49
			l-1.73-0.43l-3.75-0.54l-0.48-0.54l-0.39-2.38l0.19-1.41l0.48-0.65l0.48-0.11l4.14-0.65l3.27-0.97l1.35,0.54L478.68,553.99z
			 M478,563.73l0.29-0.32l-0.29-1.08l0.19-0.54l-0.19-0.65l0.19-0.32l-0.19-0.33l-0.38,0.22l0.29,0.87l-0.48,0.32l-0.48-0.32
			l-0.19,0.76L478,563.73z M478.49,536.12l0.19-0.32l-0.38-0.33l-0.39,0.43L478.49,536.12z M479.16,582.35l0.19-0.43l-0.38-0.11
			v-0.32l0.38,0.11l-0.1-0.65l0.29-0.11l-0.29-0.76v0.65l-0.38,0.32l-0.19,0.97L479.16,582.35z M480.99,595.44l0.29-0.32l0.77,0.22
			l-0.67-0.54l-0.77,0.33L480.99,595.44z M484.45,527.25l0.67-0.43l-1.35-0.11L484.45,527.25z M489.36,578.67l-0.39,0.54l1.06,0.76
			l1.25-1.41l1.73-0.33l0.58-0.43l-0.67-0.11l0.1-0.87l-0.96,0.97l-0.96,0.11l0.48-0.43l-0.19-0.87l0.48-1.19l-0.48,0.22l0.1,0.43
			l-0.87,0.87l-0.1,0.22l-0.77,0.54l-1.44,0.22L489.36,578.67z M493.79,575.96l0.77,0.11v-0.65l1.25-1.19l-0.96-0.76l-0.48,0.76
			l-0.58-0.22l-0.29,0.65l-0.38,0.11l-0.19,0.43L493.79,575.96z"/>
		<path class="st0" d="M512.17,547.6l0.87,0.43l0.1-1.41l-0.19-1.19l0.48-0.22l-0.48-0.11l-0.19-0.43h0.67l0.19-0.65l0.87-0.54
			l0.48,0.54l-0.1,0.54l1.35,0.43v-0.65l0.29-0.32h0.48l0.19-0.87l-0.48-0.22l-0.1-1.08l-0.77,0.22l-0.58,0.87h-0.77l0.19-1.19
			l-0.1-0.87h0.67l0.1-1.95l0.67-0.11l0.58-0.87l0.58-0.22l1.64,0.11l-0.87-1.19l-0.19-0.76l0.29-1.3l0.96,0.11l-0.1-1.3l0.19-0.11
			l-0.1-0.54h0.87l0.58-1.62l0.29-0.11v-0.43l0.39,0.22l0.38-0.76l-0.48-0.43l0.87-0.76l2.41-1.73l5-2.49l6.54-1.41l1.25,0.11
			l1.35,0.43l0.38,0.54l0.38,4.11l-0.1,0.76l-3.08,4.11l-0.38,0.76l-1.16,19.92l-1.44-0.22l-0.1,0.65l0.38,1.3l-0.19,0.43l0.29,0.76
			l-0.29,1.08l0.1,1.41l-0.1,1.3l0.38,0.87l-0.48,1.41l0.77,0.32l-0.29,0.65v0.43l-0.58,0.43l-0.19,0.65l0.38,0.43l-0.67,1.19
			l-0.1,0.97l0.87,0.22l-0.1,0.76l0.48,0.32l-0.1,0.65l0.19,0.54v1.3l0.48,0.43l-0.38,0.97l0.67,0.32l0.58,7.47l-0.19,0.87
			l-0.96,2.92l0.67,1.08l0.67-1.08l0.29,1.19l0.48,1.41l2.79,3.36l0.58,3.46l-0.38,1.52l-0.77,0.97l-1.25,0.32l-1.35-0.43v0.32
			l-1.64-0.22l-0.58-0.43l-0.58,0.33l-0.77-0.97l-0.87,0.54l-0.58-0.11l-0.19-0.87l0.58-0.11l0.67-1.19l1.25,1.62l0.1-0.76
			l-0.96-0.76l-0.1-0.43l0.19-0.54l0.1-0.11l0.48,0.11l-0.1-1.52l-0.96,0.11l-0.48,0.54l0.29,1.19h-0.58l-0.38,0.54l0.38,0.32
			l-0.29,0.97l-0.77-0.22v0.76l-1.44-0.54l-3.56-1.84l-3.56-2.71l-1.25-1.19h0.77l-0.19-0.76l-0.67,0.33l-0.1-0.54l0.29-0.87
			l-1.83-0.65l0.38-1.84l-1.44-0.76v-0.87l0.29-0.11l-0.58-0.65l-0.48-0.11l-0.19,0.76l-0.48-0.11l0.1-0.87l-0.29-0.43l0.38-0.11
			l0.58-0.43h-0.58l0.38-0.76l-0.1-1.84l0.38-0.11l0.1-0.76l-0.48-0.54l0.19-0.22l-0.96-1.3l-1.35-0.22l0.1-0.43l-0.58-1.19h0.19
			l-0.1-0.76l-0.48-0.22l-1.15,0.22l-1.15,0.11l-0.19-1.3l-1.16-8.44v-2.92l0.38-8.44l0.96-4l0.96-1.3L512.17,547.6z M511.11,554.31
			l0.19,0.43l-0.38,1.08h-0.38l0.1,1.73l0.29-0.54l0.67-0.11l-0.19-3.36l-0.77-0.87l-0.67,1.62H511.11z M511.68,558.64h0.58
			l-1.06-0.87l-0.77,0.33L511.68,558.64z M511.59,551.71l0.19-0.11l0.19-0.43l-0.1-0.33l-0.58-0.43l-0.67,1.3H511.59z
			 M514.57,546.19l0.1,0.65l0.38-0.11v0.54l0.29-1.52l-1.16,0.22L514.57,546.19z M520.06,583.21l0.19,0.76l0.38,0.11l-0.19,1.08
			l0.58-0.76l-0.1-0.76l-0.48-0.11l0.77-0.76v-0.54l-0.48-0.22l-1.06,0.22l-0.19,0.65L520.06,583.21z M520.63,587.65l1.25-0.33v0.54
			l0.48-0.65l-0.19-0.65l0.19-0.22l-0.67-1.19l-0.77,0.22l-0.19,0.54h-0.58l0.48,0.22l-0.58,0.54l-0.19,0.76L520.63,587.65z
			 M520.44,586.57l0.38-0.11v-0.43h0.29l-0.19,0.87h-0.48V586.57z M533.53,594.47l0.19-0.65l0.58-0.11l-0.87-0.87v0.97l-0.29,0.32
			L533.53,594.47z M546.9,582.56l0.48-0.43l0.1-1.41h0.58v-2.17l0.29-1.84l-0.29-0.22l0.29-1.41l-0.1-1.84l0.38-0.65l0.19-0.97
			l0.67-0.87l-0.38-0.32l0.19-0.33l0.29-0.97l0.58-1.3l-0.67-1.3l0.58-0.87l-0.67-1.41l1.15-1.73l-0.48-0.54l-0.48,0.11l-0.38-0.65
			l0.19-0.33l-1.44-0.22l-0.38-0.54l-0.19,1.3l-0.19-1.84l0.48-0.11v-0.97l0.29,0.11l0.1-3.57l-0.38-1.3L547,552.9l0.19-0.11
			l0.58,0.11l0.19-0.65l-0.29-0.65l-0.48,0.76l-0.19-6.17h0.39l-0.1,0.87l0.29,0.33v1.62l-0.29,0.32v0.54l0.87,0.43l0.19-0.97
			l-0.19-1.41l0.87-0.65l0.96,0.43l0.48-0.11l-0.1-0.54l0.29-0.32l-0.29-0.54l0.29-0.33v-1.41l-0.39-0.43l0.39-0.97l-0.1-1.62
			l0.29-0.97l-0.29-0.65l-1.06-0.65l-1.06-0.22l-0.19,0.76l0.58,0.97l-0.48,0.32l-0.19,1.52l-1.16-0.76l-0.1-0.22l-0.29-4.76
			l-0.58-2.71l-0.67-1.41l-2.5-2.92l-0.29-0.54l-0.19-1.62l0.1-0.97l0.39-2.49l0.48-0.54l0.67-0.11l0.48,0.11l0.96,1.08l0.29-0.33
			h0.38l0.58,0.97l0.48,0.32h0.1l0.67-1.3h0.58l0.58-0.76l0.38,0.65l1.06,0.22l-0.38,0.22l0.77,1.08l0.58,0.22l0.58-0.22l0.77-0.65
			l5.1,2.49l-0.58,0.32l0.77,0.43h0.58l0.29,0.22l-0.58,0.76l0.38,0.22l-0.19,0.87l0.67,0.22l0.19,0.54l-0.19,0.33l0.19,0.76
			l1.64,0.22l0.58,0.54l0.29-0.33l0.38,0.76l1.06,0.65v0.97l0.96,0.22l0.96,1.19l0.29,0.97l-0.1,1.62l0.67,0.65l0.48,0.65l0.1,0.33
			l-0.1,0.43l0.87,0.33l0.48,2.38l0.67,0.54v0.54l-0.29,0.11l0.29,0.43l0.48-0.33l0.67,1.08l0.1,2.38l0.29,1.08l0.38,0.11v3.14h0.77
			v1.95l0.29,1.73l-0.29,2.6l0.38,0.22l-0.29,2.6l0.48,1.95l-0.39,3.57l-0.77,4.44l-1.64,5.63l-0.87,2.06l-0.67,1.19l-0.29-0.33
			l0.19-0.97l-1.06-1.19l-0.58,0.54v0.76l-0.96,0.76l-0.19,1.3l-1.25,1.62v0.65l-0.87,0.33l0.1,1.84h0.48l-0.38,0.97h-1.15
			l-0.1-0.65l-1.73-0.65l-0.96,0.87l-0.38,0.97h-0.29v0.43l-0.96,1.3l0.67,0.87l0.19,0.76l-0.19,0.97l-0.48,0.76l-2.31,1.62
			l-4.04,1.73l-3.46,0.87l-2.21,0.22l-1.83-0.54l-0.96-0.97l-0.29-1.84l0.29-2.92l2.6-3.03l1.25-4.44l0.87-0.54L546.9,582.56z
			 M548.34,543.27h0.58l0.58,1.52l-0.29,0.97l-0.19,1.19h-0.39l-0.29-0.65l0.1-0.65l-0.29-0.65L548.34,543.27z M558.74,587.54
			l0.67,0.43h-0.67V587.54z M561.33,587.76l0.1,0.22l-0.87,0.33l-0.29-0.33L561.33,587.76z"/>
		<path class="st0" d="M582.79,584.73l-0.1-1.08l-0.96-0.87l0.1-9.74l0.77-0.11l-0.38-1.08l0.77-4.11l-0.48-1.62l-0.19-1.95
			l-0.48-0.97l0.48-0.22l-0.39-0.97l0.58-0.97l-0.48-0.97l-0.19-1.52l-0.1-3.03l0.1-1.08l0.29-1.08l0.87-0.11l0.38-0.54l-0.48-4
			l0.1-0.97l0.58-1.41l0.19-1.19l-0.39-2.17l0.48-0.87h-1.15l-0.87-0.43l0.1-6.39l-0.1-2.17l-0.38-0.54l-4.14-2.38l-0.38-1.19
			l-0.19-1.08l0.29-1.3l0.77-0.87l2.79-0.97l1.54-0.33h2.12l0.58,0.33h0.48l0.58,0.76v0.43l0.77-0.54l-0.1-0.65l0.58,0.32h4.04v0.54
			l-0.77,0.33l0.87,0.43l0.96,0.22l0.58-0.11l0.19-0.22l0.29-1.08l0.77-0.11l1.06,0.33l1.92,0.22l0.96,0.22l0.58-0.76l4.04-0.32
			l1.44,0.32l0.77,0.87l0.19,0.76v15.26l-0.77-0.22l-0.29,1.62l1.16,1.3v5.09h-0.87l0.87,4.33l-0.39,5.3l-0.48,0.97l0.67,0.43
			l-0.29,0.32l0.58,0.97l-0.77,0.32l0.38,1.19l-0.38,0.43h0.48v5.41h-0.58l-0.48,1.41l-0.77-0.76l-0.1,0.87l0.87,1.08l1.06,0.43
			v0.97l-0.48-0.11l-0.19-0.54l-0.58-0.11v0.43h-0.77v0.43l1.06,1.08l0.1,0.54h-0.48l-0.67-0.76l-0.19,0.97l0.67,0.87l-0.48,0.97
			l-0.58,1.62l-0.38,1.84l-0.38-0.11l-0.1,0.76l0.48,1.62l1.15-0.65l-0.1-0.97l0.67-1.19l0.19-1.52l0.77-0.54l0.29,1.19v3.25
			l0.19,3.57l-0.58,1.3l0.48,0.87l0.1,4.76l-0.39,2.06l-0.48,0.65l-1.92,0.32l-3.46-0.11l-3.56,0.11l-3.56-0.32l-1.16-0.54
			l-0.38-0.54l-0.87,1.08l-6.35,0.32l-2.69-0.43l-2.5-0.76l-0.87-0.87l-0.29-1.41l0.1-0.87l0.29-0.87l3.95-2.06l1.06-1.52l0.96-1.08
			l0.38-1.19L582.79,584.73z M584.43,569.79l1.16-0.97l0.48-1.84l-0.77,0.43v0.76l-1.35,1.52L584.43,569.79z M592.32,594.04
			l0.87-0.76l-0.38-0.33h-0.48l-0.48,0.97l-0.48-0.11l-0.29,0.43L592.32,594.04z M597.42,544.68l-0.19-0.97l-0.58-0.65v0.54
			L597.42,544.68z M597.61,542.29l0.48,0.97h0.96l0.1-0.65l-0.29-0.54l-0.19-0.65h-0.48l-0.29,0.43l-0.96-0.11L597.61,542.29z
			 M599.82,542.84l-0.48,2.81l0.58,1.08v0.54l-0.29,2.6l1.25,0.22l0.48-0.54l-0.19-2.17l0.1-0.87l0.38-0.65l-0.29-0.87l0.38-0.32
			l-0.77-0.22l0.58-1.08l-0.67-0.65l-0.1-0.65l0.58-0.43l1.15-0.11l-0.58-0.76l-0.19-0.65l-0.48-0.11l0.1-1.41l0.77-0.87l1.64,0.54
			l-0.1-0.54l-0.77-0.33l0.1-0.87l-0.48,0.43l-0.29-0.65l-1.64-0.43l-0.48,0.97l-0.48,2.6l-0.48,0.97l0.38,2.27L599.82,542.84z
			 M601.75,585.7l-0.19-0.87l0.67-0.33l-0.67-1.41l-0.29,0.54l0.38,0.32l-0.58,0.11v0.33l-0.58,0.22L601.75,585.7z M603.29,535.04
			h0.39l0.29,0.54l0.48-0.11l0.29-0.54l-1.25-0.76L603,534.5L603.29,535.04z M604.35,567.08l0.1-0.22v-0.54l-0.29-0.22l-0.29-0.11
			l-0.38,0.11l-0.29,0.33v0.32l0.48,0.76L604.35,567.08z M611.37,589.27l0.87-1.08l1.15-2.6l0.58-2.81l0.67-1.19l-0.67-0.87
			l0.58-1.73l-0.48-1.84l0.48-16.24h0.38l-0.1-0.43h0.48l0.1-1.19h-0.58l-0.19,0.22v-0.33l0.77-0.87l0.19-0.43l0.1-0.97l-0.19-1.19
			l0.19-0.11l0.38-0.87l-0.48-0.22l2.69-2.49h1.16l0.1-0.43l2.02-0.76l-0.19-0.33l-0.48,0.43h-1.73l-1.54,0.54l-0.1-0.43l-0.77-0.65
			l0.1-0.76l-0.87-0.43l0.29-1.51l-0.19-1.08l0.48-2.49l0.29-0.33l-1.06-0.76l-0.1-0.65l-1.44-0.65l-0.58-5.41l-0.87-2.71
			l-0.87-1.08l-1.73-1.3l-0.58-0.97l-0.39,0.32l-0.77-0.76l-0.38-0.76l-0.19-0.97l0.58-2.06l1.06-1.3l2.02-0.54l3.85,0.65l5.58,2.06
			l1.16,0.65l-0.19,0.54l0.1,1.84l2.69,1.73l0.1,1.08l2.31,0.65l0.19,1.62l1.16,0.65l0.29,1.19l0.87-1.3l0.19,1.08l1.06,0.54
			l-0.58-0.87l0.96-0.76l1.06,2.6l-0.58-0.11l0.19,0.43l-0.19,0.65l1.92,0.43l0.96,1.52l1.06,2.6l1.73,6.39l0.1,1.19h-0.39
			l0.48,1.73h0.19l0.38,3.36h-0.77l-0.1,0.65l0.77,0.87l-0.48,2.27h0.38l0.1,0.43l-0.77,0.87l0.29,1.19l-0.38,1.84l0.1,0.97
			l-0.77,1.19v0.33l0.38,0.54l0.87,0.54l-0.19,1.3l-0.67,3.25l-0.67,2.38l-0.58,1.41l-1.44-0.65v0.97l-0.67,0.22l-1.06-1.3
			l-0.67-0.32v2.92l-0.77,1.08l-0.1,0.43l0.1,0.54l0.77,0.87h0.58l0.48,0.33l-0.29,0.76v1.41l-1.06,0.43l-0.39,1.08l-0.48,0.97
			l-0.29,0.22l-0.87-0.11l-0.19,0.76l-0.48,0.11l0.29,0.76l-3.66,3.36l-4.23,2.6l-4.33,1.84l-1.06,0.22l-0.58-0.54l0.48-0.22
			l0.38-0.76l-1.25,0.65l-1.16,1.3l-2.6,0.22l-1.83-0.43l-0.87-0.97l-0.58-2.49l0.38-1.84l0.29-0.43l1.83-1.08l1.06-0.54
			L611.37,589.27z M616.57,541.86l-0.1-0.43l-0.87-0.22v0.43L616.57,541.86z M615.6,549.66l0.58,0.11v0.65l-0.58,0.11V549.66z
			 M617.82,556.69l0.19-0.76l-0.48,0.11l-0.67,0.65H617.82z M618.2,562l0.1-0.43l-0.77-0.11l-0.38,0.43L618.2,562z M622.34,551.06
			l1.73-0.65l0.77-0.65h-1.44l-0.67,0.22l-0.77,0.65L622.34,551.06z"/>
	</g>
</g>
<polygon id="V" class="st0" points="423.98,290.52 448.78,355.13 483.71,275.15 448.43,323.7 "/>
<circle id="red.circle" class="st0" cx="448.83" cy="305.53" r="6.99"/>
<path id="arc.red.1" class="st1" d="M334.66,137.22c20.32-6.72,41.1-11.32,62.35-13.88c19.83-2.39,39.71-3.08,59.62-1.66
	c77.28,5.52,144.44,34.66,200.83,87.78c47.79,45.03,78.82,99.94,93.68,163.92c0.61,2.6,1.16,5.21,1.69,7.83
	c0.83-0.12,1.67-0.19,2.52-0.19c0.54,0,1.07,0.04,1.59,0.08c-6.03-30.3-16.16-59.22-30.38-86.73
	c-39.73-76.81-108.08-134.93-190.25-161.65c-18.2-5.91-36.77-10.29-55.76-12.65c-9.99-1.25-20.04-1.93-30.07-2.87
	c-2.22-0.02-4.44-0.04-6.67-0.06c-5.31,0-10.62-0.01-15.94-0.01c-2.38,0.03-4.76,0.06-7.14,0.08c-9.86,0.93-19.76,1.62-29.59,2.84
	c-20.11,2.51-39.75,7.21-58.95,13.69c-50.54,17.06-94.59,44.6-131.43,83.16c-45.2,47.33-73.83,101.96-85.95,163.7
	c0.61-0.06,1.22-0.1,1.83-0.1c0.77,0,1.52,0.06,2.25,0.15c5.45-27,14.29-53.04,26.65-78.26
	C183.93,224.15,252.29,164.45,334.66,137.22z"/>
<path id="arc.red.2" class="st1" d="M735.81,572.66c-0.72,0-1.42-0.05-2.11-0.12c-2.25,5.33-4.64,10.62-7.19,15.87
	c-16.04,32.95-36.99,62.41-63.03,88.18c-44.6,44.11-97.49,73.16-158.79,86.75c-20.9,4.64-42.07,7.14-63.48,7.33
	c-84.43,0.72-158.44-26.81-221.34-83.08c-36.64-32.78-63.92-71.41-82.2-115.43c-0.64,0.07-1.28,0.11-1.93,0.11
	c-0.85,0-1.67-0.07-2.47-0.18c16.94,41.27,41.83,78.01,74.76,110.09c41.85,40.76,91.22,68.32,147.84,82.77
	c20.2,5.15,40.72,8.2,61.52,9.36c2.84,0.04,5.68,0.07,8.52,0.1c1.86-0.02,3.72-0.08,5.58-0.05c0.41,0,0.83,0.29,1.25,0.44h7.19
	c1.89-0.99,3.9-0.3,5.86-0.4c2.84-0.03,5.68-0.06,8.53-0.09c1.75-0.12,3.5-0.25,5.26-0.37c15.65-1.07,31.13-3.3,46.44-6.72
	c64.51-14.43,119.71-45.54,165.55-93.08c28.87-29.94,51.02-63.89,66.58-101.65C737.37,572.6,736.59,572.66,735.81,572.66z"/>
<path id="arc.grey.2" class="st2" d="M715.1,572.79c-0.42,0-0.83-0.04-1.24-0.06c-3.63,8-7.61,15.9-11.98,23.69
	c-13.52,24.14-30.08,46.03-49.73,65.51c-6.46,6.39-13.32,12.39-20.12,18.42c-7.18,6.38-14.95,12.03-22.81,17.54
	c-2.03,1.42-4.13,2.73-6.2,4.1c-0.26,0.17-0.52,0.35-0.79,0.53c-6.24,3.73-12.38,7.64-18.74,11.17
	c-19.25,10.69-39.43,19.22-60.56,25.47c-32.1,9.5-64.88,13.62-98.32,12.36c-14.01-0.52-27.91-1.97-41.72-4.43
	c-29.64-5.27-57.93-14.63-84.81-28.21c-25.72-12.99-49.09-29.34-70.16-48.96c-4.08-3.8-8.09-7.66-12.02-11.6
	c-2.29-2.31-4.31-4.86-6.52-7.26c-7.75-8.39-14.84-17.33-21.45-26.63c-4.81-6.76-9.2-13.84-13.62-20.87
	c-2.87-4.56-5.74-9.17-8.19-13.98c-2.99-5.89-5.83-11.85-8.52-17.88c-0.4,0.03-0.8,0.05-1.2,0.05c-0.72,0-1.42-0.05-2.11-0.12
	c3.34,7.35,6.91,14.6,10.45,21.86c1.47,3,3.37,5.79,5.09,8.68c1.01,1.72,2.07,3.42,3.06,5.15c0.25,0.43,0.71,1.04-0.33,1.15
	l1.13,1.55c0.31-0.87,0.7-0.32,0.93,0.01c0.6,0.92,1.14,1.88,1.7,2.82c1.2,1.67,2.4,3.36,3.6,5.04c1.27,1.74,2.56,3.45,3.79,5.21
	c0.26,0.36,0.27,0.87,0.4,1.3l4.51,6.22c0.37,0.26,0.85,0.43,1.11,0.79c1.29,1.71,2.52,3.47,3.77,5.22
	c1.22,1.66,2.44,3.32,3.66,4.99c0.72,0.82,1.47,1.64,2.16,2.5c0.26,0.32,0.62,0.86-0.29,0.88l1.13,1.55
	c0.22-0.14,0.57-0.46,0.64-0.41c0.37,0.27,0.71,0.64,1.02,0.99c5.87,6.84,11.98,13.44,18.43,19.74
	c10.06,9.85,20.72,19.01,32.04,27.38c29.59,21.92,62.08,37.99,97.43,48.3c25.07,7.32,50.67,11.36,76.77,12.16
	c36.55,1.12,72.21-4.04,106.91-15.61c20.46-6.82,40.04-15.62,58.56-26.72c1.16-0.69,2.35-1.37,3.54-2.01
	c0.21-0.12,0.43-0.2,0.61-0.17c0.48-0.37,0.97-0.7,1.47-1.02c-0.07-0.39,0.6-0.5,0.86-0.69c2.07-1.44,4.17-2.84,6.25-4.24
	c2.25-1.63,4.49-3.28,6.77-4.88c0.35-0.24,0.86-0.26,1.3-0.37l7.77-5.63c0.83-1.76,2.68-2.36,4.06-3.48
	c1.55-1.11,3.1-2.23,4.65-3.35c1.78-1.43,3.55-2.88,5.35-4.29c0.25-0.2,0.56-0.51,0.8-0.39c0.54-0.46,1.11-0.89,1.69-1.3
	c-0.05-0.26,0.26-0.53,0.5-0.75c1.95-1.77,3.98-3.47,5.9-5.27c1.49-1.42,2.82-3.02,4.32-4.44c2.47-2.33,5.12-4.5,7.53-6.89
	c7.15-7.07,13.78-14.63,20.12-22.43c17.05-20.98,31-43.72,41.91-68.17C716.59,572.74,715.85,572.79,715.1,572.79z"/>
<path id="arc.grey.1" class="st2" d="M732.15,360.69c-6.15-21.18-14.43-41.5-25.04-60.84c-1.12-2.02-2.49-3.89-3.65-5.88
	c-1.35-2.34-2.56-4.75-3.88-7.11c-0.74-1.33-1.56-2.6-2.31-3.92c-0.12-0.21-0.23-0.45-0.19-0.64c-0.33-0.47-0.65-0.95-0.94-1.44
	c-0.21,0-0.4-0.26-0.54-0.46c-0.68-1.04-1.31-2.11-1.96-3.18c-1.29-1.82-2.58-3.64-3.87-5.45c-3.97-5.43-7.94-10.86-11.91-16.28
	c-0.94-1.16-1.9-2.29-2.81-3.46c-0.21-0.26-0.53-0.58-0.37-0.84c-0.6-0.68-1.16-1.4-1.67-2.16c-0.35,0.12-0.63-0.37-0.88-0.65
	c-3.81-4.15-7.58-8.34-11.39-12.49c-2.59-2.81-5.14-5.68-7.85-8.39c-21.03-20.96-44.66-38.42-70.83-52.44
	c-31.81-17.03-65.58-28.16-101.3-33.39c-18.17-2.65-36.43-3.73-54.77-3.13c-39.7,1.32-77.75,9.93-114.11,25.94
	c-12.61,5.55-24.81,11.86-36.47,19.2c-0.95,0.59-1.93,1.13-2.93,1.63c-0.24,0.12-0.47,0.17-0.63,0.1c-1.1,0.89-2.3,1.66-3.56,2.3
	c0.07,0.18,0.12,0.33,0.08,0.36c-0.59,0.41-1.24,0.75-1.87,1.11c-0.78,0.54-1.55,1.08-2.33,1.63c-0.38,0.89-0.82,1.62-1.87,0.7
	l-14.38,10.42l-1.66,1.8c-1.2,0.97-2.39,1.97-3.63,2.89c-0.08,0.05-0.2,0.04-0.34,0c-0.85,0.83-1.78,1.58-2.77,2.25
	c-0.01,0.17-0.14,0.36-0.32,0.52c-0.86,0.84-1.74,1.66-2.66,2.42c-9.46,7.79-18.22,16.3-26.57,25.27
	c-23.7,25.46-42.48,54.16-56.39,86.03c-8.12,18.61-14.3,37.7-18.59,57.25c0.16,0,0.32-0.01,0.49-0.01c0.91,0,1.79,0.09,2.66,0.21
	c4.01-18.13,9.65-35.85,16.98-53.15c14.67-34.61,35.09-65.44,61.19-92.52c2.19-2.26,4.23-4.67,6.45-6.92
	c1.2-1.22,2.64-2.18,3.89-3.35c1.4-1.3,2.65-2.73,4.05-4.02c0.98-0.91,2.16-1.6,3.16-2.49c9.09-8.1,18.64-15.6,28.65-22.51
	c8.89-6.13,18.12-11.73,27.59-16.94c2.42-1.33,4.7-2.92,7.18-4.13c4.59-2.22,9.27-4.27,13.92-6.35
	c23.61-10.61,48.18-18.09,73.69-22.41c20.81-3.51,41.76-4.85,62.85-4.05c16.18,0.62,32.2,2.55,48.08,5.7
	c25.7,5.1,50.33,13.4,73.92,24.85c27.6,13.42,52.6,30.61,74.95,51.63c5.52,5.2,10.8,10.66,16,16.18
	c10.83,11.47,20.4,23.96,29.16,37.06c4.3,6.43,8.28,13.1,12.12,19.83c7.01,12.29,13.09,25.06,18.23,38.25
	c5.95,15.27,10.62,30.75,14.04,46.44c0.17-0.01,0.34-0.01,0.51-0.01c0.86-0.15,1.74-0.24,2.62-0.26
	C735.88,374.46,734.14,367.55,732.15,360.69z"/>
<g>
	<g>
		<path class="st0" d="M90.98,487.52l-0.32-0.95l0.21-2.26l0.63-0.71l1.48-0.95l2.65-0.83l1.16-0.12l0.74,0.95l3.07-0.24l0.21-0.6
			l1.06,0.36l3.39,1.91l0.95,1.31l0.53,1.79l-0.95-0.59h-0.74l1.38,1.55h0.74l0.21,1.31l0.32,4.17l-1.38,5.36l-0.64,1.07l-1.27,0.6
			l-1.16,0.24l-0.21-0.48l-1.06,0.6l1.16-0.12l-0.85,1.07l0.11,0.95l2.01,1.19l1.69,1.19l0.42,0.83l0.32,2.5l-0.42,2.38l-0.95,1.07
			l-1.69,0.48l-3.39-0.6l-1.38-0.36l-0.53-0.24l-0.53-0.83H96.7l-1.91-1.31L94.48,508v0.83l-1.9-1.55l0.21-2.02l-0.11-0.6
			l-1.06-1.79l-1.8-0.36v0.83l-0.63-1.19l-1.16-7.38l0.21-3.69l0.21-1.31L90.98,487.52z M92.15,484.78l-0.11-0.83l-0.32-0.24
			l-0.53,1.31L92.15,484.78z M94.16,507.05l1.48-0.12l-1.38-0.36l-0.74,0.12l-0.32,0.24v0.24l0.21,0.59L94.16,507.05z
			 M101.14,501.69l0.53-0.6h-0.42l-0.21-0.6l-0.53,0.36l-0.11,0.36l0.11,0.6L101.14,501.69z M141.47,435.36h2.43l-0.11,1.07
			l0.32,0.6l0.42-0.36l0.21,0.59h0.53l0.42,0.12v1.43l-0.32,0.71l-3.28,1.79l-1.06,1.19l-0.85-0.24l0.11-0.36h-1.16l-1.16,0.71
			l-0.21-0.36l0.21-0.24l-1.16-0.12l-0.95,0.24l0.21,0.6h0.95l0.32,0.48h0.42l-1.27,0.83l0.85,0.48l0.63-0.36l0.95,0.48l-0.21,0.24
			l0.64,2.02h-1.27l-0.11,1.55l1.48,1.79l0.32-0.6l0.11,1.19l-0.64-0.59l-0.53,0.36l0.32,1.19l0.11,1.43l0.95,1.91l0.11,0.48
			l-0.11,1.55l-0.11,7.03l-0.53-0.24v0.6h0.63l-0.11,28.58l-0.95,6.67l-2.54,4.76l-1.48,1.79l-2.01,1.07l-0.85,0.83l-0.42-0.48
			l-1.38,0.83l-2.54-0.12l-1.8,0.71l-1.9,0.36l-3.18,1.91l-0.42,1.19l-4.97,0.36l-4.02-0.95l-0.85-0.83l-0.42-1.19l-0.11-1.31h0.85
			V508l0.63-0.24v-0.59l1.48-1.43l-0.95,0.24l-0.63-0.71l1.16-1.19l1.38-2.38l0.53-2.86l0.32-20.36l1.06,0.59l0.11-2.02l0.21-0.71
			l-0.32-0.24l-0.21-0.83l0.32-0.24l0.63-5.36h0.32l-0.32-1.55v-1.43l0.53,0.83l0.53-0.24l0.32,0.36l1.38-1.55l0.74-1.67l0.21-1.19
			l0.32,0.24l0.95-0.71l-0.32-1.79l-3.7,4.05l-0.32-0.12l-0.21-0.6l-0.11-1.55l-0.74-0.24l0.11-2.02l-0.95-0.36v-1.07l-0.42-0.12
			l0.11-0.36l-0.32-0.36l0.53-1.19l0.11-0.95l-0.53-2.74l0.53-0.95l0.42-1.67l0.42,0.12l0.74-0.48l-1.91-2.38l-0.42-4.17l-0.21-0.83
			l-0.64-0.83l-0.74-0.48l-4.55-1.91l-0.74-1.79v-0.83l0.21-1.31l0.74-0.83l2.75-0.83l3.39-0.6l13.02,0.71l8.78-0.6l3.07,0.48
			l1.38-0.36l1.38,0.48L141.47,435.36z M111.62,510.38l-0.74-1.31l-0.11,1.31H111.62z M116.7,457.99l0.32-0.12l0.21-0.36l0.11-0.36
			l-0.11-0.36l-0.32-0.36h-0.53l0.11,0.95l-0.32,0.36L116.7,457.99z M118.5,493.35l0.32-1.67l0.63-0.6l-0.11-0.83h-0.95v-0.6
			l-0.42-0.24l-0.42,0.48l0.64,0.36l-0.32,1.67l-0.42,0.48h-0.64L118.5,493.35z M118.08,463.23v-0.71l-0.42,0.24v0.36L118.08,463.23
			z M118.61,462.39l0.85-0.48l-0.32-1.19l-0.53,0.24l-0.42,1.31L118.61,462.39z M136.6,489.9l0.74,0.12l0.85,0.71l0.95-0.95
			l-0.64-1.07l0.21-0.59l0.95-0.48l-0.21-0.83l-0.32-0.48l-1.48-0.36l-0.64-1.07l-0.53,1.55l1.06,0.59l-0.32,0.83l0.74-0.12
			l-0.53,1.67l-2.43-0.24l-0.11,0.48l0.42,0.83l0.74,0.48L136.6,489.9z M136.39,482.76l0.32-0.24l0.74,0.36l0.85-0.48l-1.38-1.43
			l-1.16,0.24l-0.32,0.6L136.39,482.76z M136.18,495.14h1.27l0.42-1.55l-1.27,0.36l-0.64-0.12L136.18,495.14z M136.71,478.11
			l-0.53-0.95l-0.11,0.95H136.71z M137.98,484.54l-0.42-1.31l-0.63,0.6v0.48L137.98,484.54z M137.76,476.21l0.32-2.38l-0.85-0.36
			L137.76,476.21z"/>
		<path class="st0" d="M156.5,505.74l0.32-0.36v-0.48l0.74-0.24l0.53-0.6h0.53l0.85-0.71l0.11-1.79h0.42l-0.32-1.07l-0.74-0.83
			v-0.83l-1.06-0.95l-0.11-3.69l-1.16-1.19l0.74-0.12l-0.32-1.67l0.11-2.98l1.38,0.12l0.32-0.48l0.42-0.12l0.42-0.71l-0.42-1.79
			h-0.95l0.42-0.59l-2.12-0.48v-4.53l0.21-2.74l-0.32-9.53l0.11-0.71l0.74-2.14l-0.11-1.55l0.32-0.6h0.32l-0.11-2.02l0.21-1.79
			l-1.38-0.95l0.32-2.62v0.95l1.06-1.43l-1.38-0.36v-2.86l-0.53-8.69l-0.32-0.6l-3.17-1.79l-0.95-0.48l-0.53-1.31l-0.21-1.07
			l0.32-1.19l1.16-1.31l2.01-0.71l2.12-0.48l10.69,0.36l0.53,1.43l0.53-0.24l0.11-0.71l0.32-0.24l2.12,0.12l0.53,0.95l0.95,0.24
			l1.59-0.12l0.21-0.24l0.64-1.19l1.48-0.12l0.63,1.43l0.95-0.71h0.74v-0.71l1.38,0.12l1.16,0.36l0.53,0.71l0.53,4.41l-0.42,15.12
			l-1.59-0.36l0.11,0.95l-1.59-0.95v0.36h-0.32l1.06,1.43l2.54,0.36l-0.11,0.71l-0.42-0.24l0.42,1.43l-0.95-0.24l0.11,1.31
			l0.95,1.91l0.11,0.48l-0.21,4.64l-0.95-0.48l-0.32,0.95h0.85l0.53,1.07l-0.11,0.6l-0.74-0.48l-0.74,0.24l0.11,1.43l-0.53,0.6
			l0.11,0.95l-0.32,0.59l0.53,0.6l-0.85,0.95l-0.74-0.12l-0.85,3.1l1.06,0.36l1.9-1.43l-0.21-0.36l0.42-1.67l0.74-0.83l0.21,9.41
			l-0.21,21.32h-0.95l-0.32,0.12l0.11,0.48l-0.42,1.31l0.53,0.48h1.38l-0.11,4.41l-0.32,1.67l-0.63,0.6l-2.43,0.48l-2.75-0.12
			l-0.32-1.31l-0.42-0.83l0.63-1.79l-0.11-1.55l-0.74-0.12l0.21,0.36l-0.53,0.12l-0.53,1.07l0.21,1.31l-0.42,2.26l-11.43,0.12
			l-0.21-0.71l0.11-0.95l-0.42-0.24l-1.06,0.83l-1.48,0.71l-0.53,0.6l-4.02-0.36l-2.54-0.95l-0.95-1.07l-0.32-1.55l0.21-1.19
			l0.21-0.36l4.13-2.26L156.5,505.74z M157.14,457.27l0.11-0.71h-0.53v0.71H157.14z M157.98,479.78l0.32-1.07l-0.42-0.12l-0.21,0.95
			L157.98,479.78z M158.3,498.59l0.11,0.71l0.53,0.6l-0.53,0.59l-0.32,0.12l-0.11-0.95l-0.21-0.71v-0.48L158.3,498.59z
			 M173.54,510.98v-0.48l-1.69-0.48L173.54,510.98z M173.54,508.36l-1.16-0.6l-0.32,0.48l0.11,0.6l0.53,0.48h0.85V508.36z
			 M177.46,447.63l0.64,0.83l1.38-0.48v-0.48l-0.63-0.48l-0.11-0.48l0.74-0.36l0.11-0.24v-0.48l-1.27-0.71l-0.64,0.71l-0.42-0.24
			l-0.53,1.31L177.46,447.63z M178.2,468.94l0.21-0.48l-0.74-0.95L178.2,468.94z M188.99,467.4l0.95,0.24v-1.31l1.69-0.6l0.11-2.26
			l-0.32-0.71l2.01-4.41l0.32-0.24l1.48-0.36l2.12,0.48l0.63,0.71l0.42,3.33l-0.21,6.43l-0.32,4.41l0.11,2.02l-0.32,0.48l-0.32,1.67
			h0.63l0.21,1.31l0.32,6.31l-0.32,2.14l-0.95,0.95l-1.9,0.59l-1.38-0.36l-0.53-0.48l-3.6-7.03l-4.02-4.17l-0.63-1.43l-0.21-1.91
			l0.74-3.22l0.63-0.95l2.65-2.26V467.4z M187.83,434.29l1.06,0.36l0.32-0.48l0.53,0.48l1.06-0.6l1.16,0.83l0.11-0.48l0.74-0.12
			l0.53,0.95l0.42-0.12l0.21,0.24l1.06-0.95l5.08-0.12l5.5-0.36l0.53,0.12l0.74,0.83l0.42,1.67v2.26l-0.74,0.24l-0.21,0.83
			l0.42-0.24l-0.64,1.07l-0.42,1.79l0.32,1.55l0.32,0.36l0.95,0.36l0.11,2.02l-0.42-0.95l-0.85,0.83l-0.32-1.67l-0.32,1.43
			l0.74,0.36l0.11,1.07l1.06-0.24l0.85,7.62l-0.42,1.55l-0.74,0.83l-1.69,0.36l-2.33-0.6l-0.42-0.36l-3.18-5.12l-4.44-5.48l0.74-0.6
			l-0.64-0.6l-0.21,0.36l-0.74,0.12l-1.27-1.07l1.38,0.12l-1.16-0.36l-0.95,0.12l-5.93-2.86l-0.32-0.36l-0.42-1.19l-0.42-1.91
			l0.11-1.67l0.32-1.67l0.32-0.48l0.74-0.36l1.27-0.12V434.29z M192.8,502.52l0.95-0.12l0.74,0.36l0.63-1.31l1.38-0.36l0.11-0.71
			l0.95-0.36l1.69-0.12l0.32-0.36l0.21-0.36v-1.31h-0.85v-0.48l0.53-0.6h0.64v-0.95l0.95-0.12l-0.32-0.48l-0.53,0.24l0.42-1.19
			l0.64,1.43l0.21-1.07l-0.63-0.59l1.69-2.98l2.33-3.45l0.85-0.6l1.27-0.24l2.12,0.48l1.06,0.71l0.32,0.48l-0.85,14.05l-0.11,8.46
			l-0.32,0.95l-0.63,0.6v-0.71l0.21-0.36l-0.21-0.48l-0.95,0.24l-0.42-0.71h-0.85l-0.42,1.31l-1.27-1.31l-1.48,0.83l-3.6,0.59
			l-1.38-1.19l-0.42-0.12l-2.75,0.48l0.11,0.48l-0.95,0.12l-0.11,0.36l-2.22,0.12l-3.18,0.83l-1.27,0.12l-1.27-0.95l-0.53-0.83
			l-0.42-2.98l0.53-3.1l0.42-0.48l5.4-2.5l0.95-0.59L192.8,502.52z M208.04,512.05l-0.32,0.6h-1.06L208.04,512.05z"/>
		<path class="st0" d="M220.75,454.06v-0.71l-0.53-0.24l0.21-0.12l-0.11-0.48l0.63-0.59l0.11-0.6l-0.42-0.24l0.53-1.07l0.95-0.83
			l0.85-1.19l-0.53-0.36l1.48-2.38l0.53,0.12l2.33-2.74l0.53-1.19l0.53-0.83l-0.64-0.83v-0.48h1.59v-1.19l1.38,0.71l-0.53,0.12
			l-0.32,1.43l0.74-0.6l0.42-1.43l1.38-0.6l0.64-0.71l0.85-0.12l0.21-0.6h-0.63v-0.48h2.12l1.38-0.48l0.11-0.59l1.8,0.12v-1.19h1.06
			v-0.95l2.65-0.36l1.91,0.6l0.85,0.95l0.42,1.91l-0.32,2.26l-0.32,1.31l-5.5,3.81l-0.85,1.43l-0.42,2.98l0.74,3.93l2.22,3.45
			l3.7,2.62l14.71,5.36l4.13,1.79l2.54,1.55l0.63,1.07h0.85v1.31l0.64,0.48l0.32,0.83l-0.53,0.24l-0.11,1.55l1.48,0.48l0.53,0.48
			l0.32,0.71l0.21,1.31l-0.32,1.19l1.06,0.6l0.74,0.83l0.95,0.71l0.11-1.31l-1.48-0.36l-0.42-1.31l1.06,0.95l1.27-0.95h0.42
			l0.21,0.48l-0.21,0.48l0.85,1.07l-0.32,0.36l0.85,1.31l0.32,1.31l0.95,7.86l-0.53,5.48l-0.32,1.07h-0.53l-0.42,0.95l-0.42-0.95
			l-0.53,0.24v0.6l0.63-0.24l-0.21,1.79L272.5,498l0.11,0.59l0.42,0.24l0.53-1.07l0.95-0.36l-0.42,1.19l-1.59,3.22l-0.74,0.95
			l-0.53-1.19l0.53-0.24v-1.07l0.85-0.12l-0.21-1.55l-1.27,0.48l-0.32,0.36l-0.63,0.12v0.59l-0.32,0.24v0.83l-0.85-0.71h-0.74
			l-2.22,2.38l-1.38,0.6l0.11,0.83l0.95,0.95l-0.95-0.12l-0.11,0.48h-0.21l0.74,2.38l-1.38-0.24v0.48l-0.64,0.12l-0.63,0.71
			l-0.42-0.24l-0.53,0.24v0.36l-2.43,0.59l0.21,1.43l2.22-0.48l-1.38,0.71l-5.93,1.43l-1.16,0.12l0.42-1.07l-2.33,0.12l0.11,0.95
			l-1.06-0.36l0.42-0.24v-2.02l-2.01-0.48l-0.11-1.19l0.32-2.26l0.21-0.48l0.32-0.36l4.55-2.86l0.53-0.48l1.48-2.74l0.42-2.86
			l-0.53-2.86l-1.91-3.1l-3.17-2.38l-5.29-2.5l0.32-0.36l-2.01-0.24l-0.85-0.48v-0.59h0.63l0.74-0.48l0.42,0.24l0.42-0.48l-0.21-0.6
			h0.64l0.32-1.07l0.21-0.36l-0.32-0.71h-0.42v1.43l-1.69,0.95v-1.07l-0.53-0.95l-1.06,0.24l-0.53-0.24l-0.95,0.24l-4.13-0.36v-1.19
			l0.95-0.12v-0.6l0.64-0.24v-0.95l-0.64-0.6l2.01-1.19l-0.85-1.55l-0.95,0.12l-0.53,0.59l-1.91,0.71l0.21,1.31l-0.21,1.07
			l-0.32-0.12l0.32,2.02l-1.06,0.12l-0.11-0.48l-1.69-0.48l0.53-0.36h0.53v-0.83l-2.96-0.36l-0.74,0.71l-0.53-1.07l-1.59-0.71
			l0.11-0.6l1.38-0.12l0.11-0.71h1.16v-1.79l1.06,1.31v0.95l2.33-0.71l0.63,0.83l0.32-0.36l-1.59-2.98l-3.49,0.95l-0.21-0.12
			l-1.69,0.83l0.11,1.07l-1.69-0.12l-2.12-2.5l-1.06-2.02l-1.06-1.19l-1.59-4.41l-0.21-1.07l-0.63-4.41l0.42-5.6L220.75,454.06z
			 M226.04,493.24v1.31h0.85l0.32,1.31h1.06l0.42-2.26l0.95,1.07l2.65,3.93l2.96,2.86l2.54,1.67l6.24,2.98l1.27,2.62v0.95
			l-0.11,0.36l-1.06,0.83l-0.11,1.43l-0.42,0.24v0.71l-2.01,0.12l-1.06-0.24l-1.16-0.36l0.53-1.19l-0.74-0.12l-1.06,1.07l-0.21-1.19
			l-1.8-0.48h-0.85l-0.11-0.24l-1.9-0.12l-0.42-1.31l-4.02,1.91l-2.86,2.14l-2.01-0.36l-1.59-0.48l-0.85-0.71l-0.64-1.19l0.42-0.24
			l-0.11-1.91l0.32-0.24l-0.21-0.71l0.42-0.6l-0.21-0.71l0.42-0.95l-0.32-1.55l0.85-0.6l-0.42-1.07l-1.06-0.36v-1.43l0.11-2.98
			l-0.74-6.19l-0.74-4.64l0.21-0.95l0.53-0.6l2.12-0.36l2.12,0.24l0.63,0.36l1.38,2.98l0.85,2.86l-0.21,1.19l-0.53,1.19H226.04z
			 M223.92,470.85l0.21-0.71h-0.53l-0.42,0.6L223.92,470.85z M227.1,472.04l0.53,1.19l0.21-0.36l1.06,0.48l0.95,0.12l-0.74-1.79
			l-0.85-0.59l-0.42,0.59l-1.38-0.12l-0.11,0.6L227.1,472.04z M226.46,475.25l0.74-0.71l-0.42-0.24L226.46,475.25z M231.75,435.96
			l-0.32,0.83h-0.85L231.75,435.96z M233.87,473.83l1.06-0.48l-0.64-0.95l-0.85,0.36l0.11,0.59L233.87,473.83z M234.5,479.42
			l0.11-0.95l-0.64,0.12l-0.32,0.48L234.5,479.42z M234.82,437.03l0.32-0.71l-0.63-0.12l-0.32,0.6L234.82,437.03z M235.56,473.47
			l0.95-0.12v-0.83l-1.38,0.6L235.56,473.47z M237.47,440.36l-0.11-1.55l-1.06,1.43L237.47,440.36z M238.1,435.84l-0.95-0.48v0.71
			L238.1,435.84z M241.28,512.65l0.53-0.83l0.74,0.36l0.42-0.71l-0.95-0.24l-1.27,0.24l-0.21,0.36l0.11,0.6L241.28,512.65z
			 M246.89,483.71l0.53-0.71l-0.74-0.12l-0.85,0.71L246.89,483.71z M259.16,434.89l1.38,0.48l0.42,0.71l1.16,2.62l1.06,0.59
			l-0.32-3.1l0.42-0.12l-0.32-0.48l2.43-2.14l0.64-0.48l0.95-0.12l0.95,0.24l0.53,0.48l0.42,1.19l0.32,0.36l-0.11,0.71l0.74,0.71
			h0.74l0.42,1.07l0.21,1.31l-0.42,4.05l-1.27,1.43l0.74,0.48v2.38l-0.74,1.31h0.74l0.21,0.95h0.53l0.74,7.26l-0.11,0.71l-0.53,0.59
			l-1.38,0.48l-1.59,0.24h-0.32l-1.69-1.31l0.42-0.48h0.85l-0.32-0.36v-0.48l-0.85-0.48l-0.53,0.83l-0.11,0.6l-3.28-6.67l-2.54-3.57
			l-1.48-1.67l-2.43-1.91l-6.77-3.33l-0.21-0.36l-0.53-3.57l0.42-2.38l0.64-0.71l1.38-0.48l5.5,1.19l1.8,0.83l0.95,0.71
			L259.16,434.89z M256.52,437.03l-0.11-0.83l-0.85,0.12l-0.21,0.48L256.52,437.03z M265.3,479.3l0.42-0.71l-0.74-0.95l-0.42,0.71
			L265.3,479.3z M266.36,478.11l0.21,0.83l0.74-0.71l-0.11-0.6l0.21,0.48h0.53l0.53-0.95l0.74,0.36l0.42-0.48l-0.74-0.71l-1.16,0.48
			l-0.74-1.31l-0.42,0.12l-0.11,0.71l-0.53,0.36l-0.21,0.71L266.36,478.11z M265.83,503.6l0.85,0.12l-0.32,0.59l-0.64-0.24
			L265.83,503.6z M266.26,504.67l0.85,0.83l-0.53-0.12l-0.11,0.48L266.26,504.67z M267,481.57l0.21-0.71l-0.53-0.6L267,481.57z
			 M269.32,485.61l-0.32,2.02l0.11,1.79l-0.21,0.24l-0.21-0.48l-0.32,1.43l0.53,0.71l0.42-1.43l1.27-1.07l0.11-0.48l-0.21-0.83
			l-0.74-1.55l1.06-0.12l0.32-1.55l-1.48-1.55l-0.64,0.83l-1.27,0.12l0.11,0.6L269.32,485.61z M269.01,480.85l0.64-0.36v-0.83
			l-0.64,0.24V480.85z M269.75,501.33h0.63l0.42,0.59l-0.74-0.24v0.71l-0.32,0.12l-0.32-0.48L269.75,501.33z M270.17,434.05
			l0.42,1.19l-0.32,0.48l-0.74-1.31L270.17,434.05z M270.07,479.3l0.42-0.24l-0.42-1.19V479.3z"/>
		<path class="st0" d="M286.16,454.06v-0.71l-0.53-0.24l0.21-0.12l-0.11-0.48l0.64-0.59l0.11-0.6l-0.42-0.24l0.53-1.07l0.95-0.83
			l0.85-1.19l-0.53-0.36l1.48-2.38l0.53,0.12l2.33-2.74l0.53-1.19l0.53-0.83l-0.64-0.83v-0.48h1.59v-1.19l1.38,0.71l-0.53,0.12
			l-0.32,1.43l0.74-0.6l0.42-1.43l1.38-0.6l0.64-0.71l0.85-0.12l0.21-0.6h-0.63v-0.48h2.12l1.38-0.48l0.11-0.59l1.8,0.12v-1.19h1.06
			v-0.95l2.65-0.36l1.91,0.6l0.85,0.95l0.42,1.91l-0.32,2.26l-0.32,1.31l-5.5,3.81l-0.85,1.43l-0.42,2.98l0.74,3.93l2.22,3.45
			l3.7,2.62l14.71,5.36l4.13,1.79l2.54,1.55l0.64,1.07h0.85v1.31l0.63,0.48l0.32,0.83l-0.53,0.24l-0.11,1.55l1.48,0.48l0.53,0.48
			l0.32,0.71l0.21,1.31l-0.32,1.19l1.06,0.6l0.74,0.83l0.95,0.71l0.11-1.31l-1.48-0.36l-0.42-1.31l1.06,0.95l1.27-0.95h0.42
			l0.21,0.48l-0.21,0.48l0.85,1.07l-0.32,0.36l0.85,1.31l0.32,1.31l0.95,7.86l-0.53,5.48l-0.32,1.07h-0.53l-0.42,0.95l-0.42-0.95
			l-0.53,0.24v0.6l0.64-0.24l-0.21,1.79l-1.38,1.07l0.11,0.59l0.42,0.24l0.53-1.07l0.95-0.36l-0.42,1.19l-1.59,3.22l-0.74,0.95
			l-0.53-1.19l0.53-0.24v-1.07l0.85-0.12l-0.21-1.55l-1.27,0.48l-0.32,0.36l-0.63,0.12v0.59l-0.32,0.24v0.83l-0.85-0.71h-0.74
			l-2.22,2.38l-1.38,0.6l0.11,0.83l0.95,0.95l-0.95-0.12l-0.11,0.48h-0.21l0.74,2.38l-1.38-0.24v0.48l-0.64,0.12l-0.63,0.71
			l-0.42-0.24l-0.53,0.24v0.36l-2.43,0.59l0.21,1.43l2.22-0.48l-1.38,0.71l-5.93,1.43l-1.16,0.12l0.42-1.07l-2.33,0.12l0.11,0.95
			l-1.06-0.36l0.42-0.24v-2.02l-2.01-0.48l-0.11-1.19l0.32-2.26l0.21-0.48l0.32-0.36l4.55-2.86l0.53-0.48l1.48-2.74l0.42-2.86
			l-0.53-2.86l-1.9-3.1l-3.18-2.38l-5.29-2.5l0.32-0.36l-2.01-0.24l-0.85-0.48v-0.59h0.64l0.74-0.48l0.42,0.24l0.42-0.48l-0.21-0.6
			h0.64l0.32-1.07l0.21-0.36l-0.32-0.71h-0.42v1.43l-1.69,0.95v-1.07l-0.53-0.95l-1.06,0.24l-0.53-0.24l-0.95,0.24l-4.13-0.36v-1.19
			l0.95-0.12v-0.6l0.63-0.24v-0.95l-0.63-0.6l2.01-1.19l-0.85-1.55l-0.95,0.12l-0.53,0.59l-1.91,0.71l0.21,1.31l-0.21,1.07
			l-0.32-0.12l0.32,2.02l-1.06,0.12l-0.11-0.48l-1.69-0.48l0.53-0.36h0.53v-0.83l-2.96-0.36l-0.74,0.71l-0.53-1.07l-1.59-0.71
			l0.11-0.6l1.38-0.12l0.11-0.71h1.16v-1.79l1.06,1.31v0.95l2.33-0.71l0.63,0.83l0.32-0.36l-1.59-2.98l-3.49,0.95l-0.21-0.12
			l-1.69,0.83l0.11,1.07l-1.69-0.12l-2.12-2.5l-1.06-2.02l-1.06-1.19l-1.59-4.41l-0.21-1.07l-0.64-4.41l0.42-5.6L286.16,454.06z
			 M291.45,493.24v1.31h0.85l0.32,1.31h1.06l0.42-2.26l0.95,1.07l2.65,3.93l2.96,2.86l2.54,1.67l6.24,2.98l1.27,2.62v0.95
			l-0.11,0.36l-1.06,0.83l-0.11,1.43l-0.42,0.24v0.71l-2.01,0.12l-1.06-0.24l-1.16-0.36l0.53-1.19l-0.74-0.12l-1.06,1.07l-0.21-1.19
			l-1.8-0.48h-0.85l-0.11-0.24l-1.91-0.12l-0.42-1.31l-4.02,1.91l-2.86,2.14l-2.01-0.36l-1.59-0.48l-0.85-0.71l-0.64-1.19l0.42-0.24
			l-0.11-1.91l0.32-0.24l-0.21-0.71l0.42-0.6l-0.21-0.71l0.42-0.95L287,503.6l0.85-0.6l-0.42-1.07l-1.06-0.36v-1.43l0.11-2.98
			l-0.74-6.19l-0.74-4.64l0.21-0.95l0.53-0.6l2.12-0.36l2.12,0.24l0.64,0.36l1.38,2.98l0.85,2.86l-0.21,1.19l-0.53,1.19H291.45z
			 M289.33,470.85l0.21-0.71h-0.53l-0.42,0.6L289.33,470.85z M292.51,472.04l0.53,1.19l0.21-0.36l1.06,0.48l0.95,0.12l-0.74-1.79
			l-0.85-0.59l-0.42,0.59l-1.38-0.12l-0.11,0.6L292.51,472.04z M291.87,475.25l0.74-0.71l-0.42-0.24L291.87,475.25z M297.16,435.96
			l-0.32,0.83H296L297.16,435.96z M299.28,473.83l1.06-0.48l-0.63-0.95l-0.85,0.36l0.11,0.59L299.28,473.83z M299.91,479.42
			l0.11-0.95l-0.64,0.12l-0.32,0.48L299.91,479.42z M300.23,437.03l0.32-0.71l-0.64-0.12l-0.32,0.6L300.23,437.03z M300.97,473.47
			l0.95-0.12v-0.83l-1.38,0.6L300.97,473.47z M302.88,440.36l-0.11-1.55l-1.06,1.43L302.88,440.36z M303.51,435.84l-0.95-0.48v0.71
			L303.51,435.84z M306.69,512.65l0.53-0.83l0.74,0.36l0.42-0.71l-0.95-0.24l-1.27,0.24l-0.21,0.36l0.11,0.6L306.69,512.65z
			 M312.3,483.71l0.53-0.71l-0.74-0.12l-0.85,0.71L312.3,483.71z M324.57,434.89l1.38,0.48l0.42,0.71l1.16,2.62l1.06,0.59l-0.32-3.1
			l0.42-0.12l-0.32-0.48l2.43-2.14l0.63-0.48l0.95-0.12l0.95,0.24l0.53,0.48l0.42,1.19l0.32,0.36l-0.11,0.71l0.74,0.71H336
			l0.42,1.07l0.21,1.31l-0.42,4.05l-1.27,1.43l0.74,0.48v2.38l-0.74,1.31h0.74l0.21,0.95h0.53l0.74,7.26l-0.11,0.71l-0.53,0.59
			l-1.38,0.48l-1.59,0.24h-0.32l-1.69-1.31l0.42-0.48h0.85l-0.32-0.36v-0.48l-0.85-0.48l-0.53,0.83l-0.11,0.6l-3.28-6.67l-2.54-3.57
			l-1.48-1.67l-2.43-1.91l-6.77-3.33l-0.21-0.36l-0.53-3.57l0.42-2.38l0.64-0.71l1.38-0.48l5.5,1.19l1.8,0.83l0.95,0.71
			L324.57,434.89z M321.93,437.03l-0.11-0.83l-0.85,0.12l-0.21,0.48L321.93,437.03z M330.71,479.3l0.42-0.71l-0.74-0.95l-0.42,0.71
			L330.71,479.3z M331.77,478.11l0.21,0.83l0.74-0.71l-0.11-0.6l0.21,0.48h0.53l0.53-0.95l0.74,0.36l0.42-0.48l-0.74-0.71
			l-1.16,0.48l-0.74-1.31l-0.42,0.12l-0.11,0.71l-0.53,0.36l-0.21,0.71L331.77,478.11z M331.24,503.6l0.85,0.12l-0.32,0.59
			l-0.64-0.24L331.24,503.6z M331.67,504.67l0.85,0.83l-0.53-0.12l-0.11,0.48L331.67,504.67z M332.41,481.57l0.21-0.71l-0.53-0.6
			L332.41,481.57z M334.73,485.61l-0.32,2.02l0.11,1.79l-0.21,0.24l-0.21-0.48l-0.32,1.43l0.53,0.71l0.42-1.43l1.27-1.07l0.11-0.48
			l-0.21-0.83l-0.74-1.55l1.06-0.12l0.32-1.55l-1.48-1.55l-0.63,0.83l-1.27,0.12l0.11,0.6L334.73,485.61z M334.42,480.85l0.63-0.36
			v-0.83l-0.63,0.24V480.85z M335.16,501.33h0.63l0.42,0.59l-0.74-0.24v0.71l-0.32,0.12l-0.32-0.48L335.16,501.33z M335.58,434.05
			l0.42,1.19l-0.32,0.48l-0.74-1.31L335.58,434.05z M335.48,479.3l0.42-0.24l-0.42-1.19V479.3z"/>
		<path class="st0" d="M353.68,505.74l0.32-0.36v-0.48l0.74-0.24l0.53-0.6h0.53l0.85-0.71l0.11-1.79h0.42l-0.32-1.07l-0.74-0.83
			v-0.83l-1.06-0.95l-0.11-3.69l-1.16-1.19l0.74-0.12l-0.32-1.67l0.11-2.98l1.38,0.12l0.32-0.48l0.42-0.12l0.42-0.71l-0.42-1.79
			h-0.95l0.42-0.59l-2.12-0.48v-4.53l0.21-2.74l-0.32-9.53l0.11-0.71l0.74-2.14l-0.11-1.55l0.32-0.6h0.32l-0.11-2.02l0.21-1.79
			l-1.38-0.95l0.32-2.62v0.95l1.06-1.43l-1.38-0.36v-2.86l-0.53-8.69l-0.32-0.6l-3.18-1.79l-0.95-0.48l-0.53-1.31l-0.21-1.07
			l0.32-1.19l1.17-1.31l2.01-0.71l2.12-0.48l10.69,0.36l0.53,1.43l0.53-0.24l0.11-0.71l0.32-0.24l2.12,0.12l0.53,0.95l0.95,0.24
			l1.59-0.12l0.21-0.24l0.63-1.19l1.48-0.12l0.63,1.43l0.95-0.71h0.74v-0.71l1.38,0.12l1.16,0.36l0.53,0.71l0.53,4.41l-0.42,15.12
			l-1.59-0.36l0.11,0.95l-1.59-0.95v0.36h-0.32l1.06,1.43l2.54,0.36l-0.11,0.71l-0.42-0.24l0.42,1.43l-0.95-0.24l0.11,1.31
			l0.95,1.91l0.11,0.48l-0.21,4.64l-0.95-0.48l-0.32,0.95h0.85l0.53,1.07l-0.11,0.6l-0.74-0.48l-0.74,0.24l0.11,1.43l-0.53,0.6
			l0.11,0.95l-0.32,0.59l0.53,0.6l-0.85,0.95l-0.74-0.12l-0.85,3.1l1.06,0.36l1.91-1.43l-0.21-0.36l0.42-1.67l0.74-0.83l0.21,9.41
			l-0.21,21.32h-0.95l-0.32,0.12l0.11,0.48l-0.42,1.31l0.53,0.48h1.38l-0.11,4.41l-0.32,1.67l-0.63,0.6l-2.43,0.48l-2.75-0.12
			l-0.32-1.31l-0.42-0.83l0.63-1.79l-0.11-1.55l-0.74-0.12l0.21,0.36l-0.53,0.12l-0.53,1.07l0.21,1.31l-0.42,2.26l-11.43,0.12
			l-0.21-0.71l0.11-0.95l-0.42-0.24l-1.06,0.83l-1.48,0.71l-0.53,0.6l-4.02-0.36l-2.54-0.95l-0.95-1.07l-0.32-1.55l0.21-1.19
			l0.21-0.36l4.13-2.26L353.68,505.74z M354.32,457.27l0.11-0.71h-0.53v0.71H354.32z M355.16,479.78l0.32-1.07l-0.42-0.12
			l-0.21,0.95L355.16,479.78z M355.48,498.59l0.11,0.71l0.53,0.6l-0.53,0.59l-0.32,0.12l-0.11-0.95l-0.21-0.71v-0.48L355.48,498.59z
			 M370.72,510.98v-0.48l-1.69-0.48L370.72,510.98z M370.72,508.36l-1.16-0.6l-0.32,0.48l0.11,0.6l0.53,0.48h0.85V508.36z
			 M374.64,447.63l0.63,0.83l1.38-0.48v-0.48l-0.64-0.48l-0.11-0.48l0.74-0.36l0.11-0.24v-0.48l-1.27-0.71l-0.63,0.71l-0.42-0.24
			l-0.53,1.31L374.64,447.63z M375.38,468.94l0.21-0.48l-0.74-0.95L375.38,468.94z M386.17,467.4l0.95,0.24v-1.31l1.69-0.6
			l0.11-2.26l-0.32-0.71l2.01-4.41l0.32-0.24l1.48-0.36l2.12,0.48l0.63,0.71l0.42,3.33l-0.21,6.43l-0.32,4.41l0.11,2.02l-0.32,0.48
			l-0.32,1.67h0.63l0.21,1.31l0.32,6.31l-0.32,2.14l-0.95,0.95l-1.91,0.59l-1.38-0.36l-0.53-0.48l-3.6-7.03l-4.02-4.17l-0.63-1.43
			l-0.21-1.91l0.74-3.22l0.63-0.95l2.65-2.26V467.4z M385.01,434.29l1.06,0.36l0.32-0.48l0.53,0.48l1.06-0.6l1.16,0.83l0.11-0.48
			l0.74-0.12l0.53,0.95l0.42-0.12l0.21,0.24l1.06-0.95l5.08-0.12l5.5-0.36l0.53,0.12l0.74,0.83l0.42,1.67v2.26l-0.74,0.24
			l-0.21,0.83l0.42-0.24l-0.63,1.07l-0.42,1.79l0.32,1.55l0.32,0.36l0.95,0.36l0.11,2.02l-0.42-0.95l-0.85,0.83l-0.32-1.67
			l-0.32,1.43l0.74,0.36l0.11,1.07l1.06-0.24l0.85,7.62l-0.42,1.55l-0.74,0.83l-1.69,0.36l-2.33-0.6l-0.42-0.36l-3.17-5.12
			l-4.45-5.48l0.74-0.6l-0.63-0.6l-0.21,0.36l-0.74,0.12l-1.27-1.07l1.38,0.12l-1.16-0.36l-0.95,0.12l-5.93-2.86l-0.32-0.36
			l-0.42-1.19l-0.42-1.91l0.11-1.67l0.32-1.67l0.32-0.48l0.74-0.36l1.27-0.12V434.29z M389.98,502.52l0.95-0.12l0.74,0.36l0.63-1.31
			l1.38-0.36l0.11-0.71l0.95-0.36l1.69-0.12l0.32-0.36l0.21-0.36v-1.31h-0.85v-0.48l0.53-0.6h0.63v-0.95l0.95-0.12l-0.32-0.48
			l-0.53,0.24l0.42-1.19l0.63,1.43l0.21-1.07l-0.64-0.59l1.69-2.98l2.33-3.45l0.85-0.6l1.27-0.24l2.12,0.48l1.06,0.71l0.32,0.48
			l-0.85,14.05l-0.11,8.46l-0.32,0.95l-0.63,0.6v-0.71l0.21-0.36l-0.21-0.48l-0.95,0.24l-0.42-0.71h-0.85l-0.42,1.31l-1.27-1.31
			l-1.48,0.83l-3.6,0.59l-1.38-1.19l-0.42-0.12l-2.75,0.48l0.11,0.48l-0.95,0.12l-0.11,0.36l-2.22,0.12l-3.17,0.83l-1.27,0.12
			l-1.27-0.95l-0.53-0.83l-0.42-2.98l0.53-3.1l0.42-0.48l5.4-2.5l0.95-0.59L389.98,502.52z M405.22,512.05l-0.32,0.6h-1.06
			L405.22,512.05z"/>
	</g>
</g>
<rect id="line.3" x="93.93" y="385.17" width="252.87" height="9.78"/>
<g>
	<g>
		<path class="st0" d="M444.03,487.52l-0.31-0.95l0.21-2.26l0.63-0.71l1.47-0.95l2.62-0.83l1.15-0.12l0.73,0.95l3.04-0.24l0.21-0.6
			l1.05,0.36l3.35,1.91l0.94,1.31l0.52,1.79l-0.94-0.59h-0.73l1.36,1.55h0.73l0.21,1.31l0.31,4.17l-1.36,5.36l-0.63,1.07l-1.26,0.6
			l-1.15,0.24l-0.21-0.48l-1.05,0.6l1.15-0.12l-0.84,1.07l0.1,0.95l1.99,1.19l1.67,1.19l0.42,0.83l0.31,2.5l-0.42,2.38l-0.94,1.07
			l-1.67,0.48l-3.35-0.6l-1.36-0.36l-0.52-0.24l-0.52-0.83h-1.26l-1.88-1.31l-0.31-1.19v0.83l-1.88-1.55l0.21-2.02l-0.1-0.6
			l-1.05-1.79l-1.78-0.36v0.83l-0.63-1.19l-1.15-7.38l0.21-3.69l0.21-1.31L444.03,487.52z M445.18,484.78l-0.1-0.83l-0.31-0.24
			l-0.52,1.31L445.18,484.78z M447.17,507.05l1.47-0.12l-1.36-0.36l-0.73,0.12l-0.31,0.24v0.24l0.21,0.59L447.17,507.05z
			 M454.08,501.69l0.52-0.6h-0.42l-0.21-0.6l-0.52,0.36l-0.1,0.36l0.1,0.6L454.08,501.69z M493.95,435.36h2.41l-0.1,1.07l0.31,0.6
			l0.42-0.36l0.21,0.59h0.52l0.42,0.12v1.43l-0.31,0.71l-3.25,1.79l-1.05,1.19l-0.84-0.24l0.1-0.36h-1.15l-1.15,0.71l-0.21-0.36
			l0.21-0.24l-1.15-0.12l-0.94,0.24l0.21,0.6h0.94l0.31,0.48h0.42l-1.26,0.83l0.84,0.48l0.63-0.36l0.94,0.48l-0.21,0.24l0.63,2.02
			h-1.26l-0.1,1.55l1.46,1.79l0.31-0.6l0.1,1.19l-0.63-0.59l-0.52,0.36l0.31,1.19l0.1,1.43l0.94,1.91l0.1,0.48l-0.1,1.55l-0.1,7.03
			l-0.52-0.24v0.6h0.63l-0.1,28.58l-0.94,6.67l-2.51,4.76l-1.46,1.79l-1.99,1.07l-0.84,0.83l-0.42-0.48l-1.36,0.83l-2.51-0.12
			l-1.78,0.71l-1.88,0.36l-3.14,1.91l-0.42,1.19l-4.92,0.36l-3.98-0.95l-0.84-0.83l-0.42-1.19l-0.11-1.31h0.84V508l0.63-0.24v-0.59
			l1.46-1.43l-0.94,0.24l-0.63-0.71l1.15-1.19l1.36-2.38l0.52-2.86l0.31-20.36l1.05,0.59l0.1-2.02l0.21-0.71l-0.31-0.24l-0.21-0.83
			l0.31-0.24l0.63-5.36h0.31l-0.31-1.55v-1.43l0.52,0.83l0.52-0.24l0.31,0.36l1.36-1.55l0.73-1.67l0.21-1.19l0.31,0.24l0.94-0.71
			l-0.31-1.79l-3.66,4.05l-0.31-0.12l-0.21-0.6l-0.1-1.55l-0.73-0.24l0.11-2.02l-0.94-0.36v-1.07l-0.42-0.12l0.1-0.36l-0.31-0.36
			l0.52-1.19l0.1-0.95l-0.52-2.74l0.52-0.95l0.42-1.67l0.42,0.12l0.73-0.48l-1.88-2.38l-0.42-4.17l-0.21-0.83l-0.63-0.83l-0.73-0.48
			l-4.5-1.91l-0.73-1.79v-0.83l0.21-1.31l0.73-0.83l2.72-0.83l3.35-0.6l12.87,0.71l8.69-0.6l3.04,0.48l1.36-0.36l1.36,0.48
			L493.95,435.36z M464.44,510.38l-0.73-1.31l-0.11,1.31H464.44z M469.46,457.99l0.31-0.12l0.21-0.36l0.1-0.36l-0.1-0.36l-0.31-0.36
			h-0.52l0.1,0.95l-0.31,0.36L469.46,457.99z M471.24,493.35l0.31-1.67l0.63-0.6l-0.1-0.83h-0.94v-0.6l-0.42-0.24l-0.42,0.48
			l0.63,0.36l-0.31,1.67l-0.42,0.48h-0.63L471.24,493.35z M470.82,463.23v-0.71l-0.42,0.24v0.36L470.82,463.23z M471.34,462.39
			l0.84-0.48l-0.31-1.19l-0.52,0.24l-0.42,1.31L471.34,462.39z M489.14,489.9l0.73,0.12l0.84,0.71l0.94-0.95l-0.63-1.07l0.21-0.59
			l0.94-0.48l-0.21-0.83l-0.31-0.48l-1.46-0.36l-0.63-1.07l-0.52,1.55l1.05,0.59l-0.31,0.83l0.73-0.12l-0.52,1.67l-2.41-0.24
			l-0.1,0.48l0.42,0.83l0.73,0.48L489.14,489.9z M488.93,482.76l0.31-0.24l0.73,0.36l0.84-0.48l-1.36-1.43l-1.15,0.24l-0.31,0.6
			L488.93,482.76z M488.72,495.14h1.26l0.42-1.55l-1.26,0.36l-0.63-0.12L488.72,495.14z M489.24,478.11l-0.52-0.95l-0.11,0.95
			H489.24z M490.5,484.54l-0.42-1.31l-0.63,0.6v0.48L490.5,484.54z M490.29,476.21l0.31-2.38l-0.84-0.36L490.29,476.21z"/>
		<path class="st0" d="M506.51,500.14l0.21-1.31l1.05-0.24l1.36-2.02l0.42-0.95l0.21-1.31l-0.52-0.59l-0.11-0.95l-0.52-0.36
			l0.11-0.95l0.84-0.12l0.1-1.43h0.84l1.05-3.45l0.1-4.53l0.94-2.62v-1.43l0.94-1.79l-0.11-1.67h1.47l0.94-0.48l0.11-0.36l0.63-6.55
			l0.52-1.19l-0.1-0.83l0.31-1.07l0.52-0.12l0.1-1.55l-0.73-0.59l1.99-7.5l0.84-2.38l0.42-0.48l0.42-0.12l0.42,0.12l0.42,0.48
			l0.73,2.26l1.57,8.22l-0.31,2.98l-0.63,2.02l-1.15-0.12l-0.21,0.12l-0.63,0.95l-0.1,0.48l0.73,1.43l-0.63,0.24l0.42,0.48
			l-0.31,2.02l0.52-0.24l-7.33,28.46l-0.94,0.12l-0.31,1.07l1.78,0.48l0.21-0.36l0.73,1.67l0.63,0.95l3.87,1.79l0.84,0.71l0.52,1.43
			v0.36l-0.42,1.67l-1.26,1.43l-3.45,0.95l-8.69-0.48l-0.1-1.19l-3.45,0.6l-1.46,0.6l-1.57-0.24l-1.46-0.6l-0.63-0.71l-0.31-1.07
			l-0.21-1.07l0.1-0.95l0.31-0.71l3.98-2.5l1.88-2.74l0.84-0.83L506.51,500.14z M528.28,483.59l2.72-0.48l0.52-0.48l0.1-1.67
			l-1.78-7.5l0.31-0.71l-0.52-1.31l-0.1-2.74l0.21-0.12l0.1-0.48l-0.73-0.48l-0.1-1.43l-0.84-0.48l-0.31-4.52l0.21-0.24l-0.1-1.19
			l0.42-1.31h-0.52l-0.73-1.07l0.21-0.48l1.15-0.36l-0.21-0.83h-1.15l-0.42-0.83l0.63,0.12l0.1-0.6h-0.42l-0.63-1.19l0.52-0.36
			l0.21,0.36v-1.91l-1.67-0.36v-1.67l-0.52-0.12l-0.63-1.43l0.31-0.95l-0.73-2.5h-0.11l-0.21-0.71l0.63-0.24l-1.05-1.43l-0.21-0.71
			l0.31-1.43l0.73-1.19l0.94-0.6l1.05-0.24l-0.42,1.79l1.47,0.48l0.1-0.48l1.99-0.36l1.88,0.48l0.52-0.48l0.42,0.6h0.73l0.52-1.19
			l-0.1-0.36l-1.05-0.12l-1.05,0.48l0.52-1.55l0.1,0.71l0.84,0.12v-1.07l1.15-0.12l8.79-3.81l1.05-0.24l0.94,0.24l1.67,1.55
			l0.73,1.67l3.56,15.12l-1.57,0.12l-1.05,0.36l0.42,0.71l0.63,0.24l-0.42,2.62l1.05,1.79l-0.42,2.02l0.42,1.31l1.46-0.24l0.21,2.86
			l0.31,0.12l-0.1,2.74l2.09,0.83l-0.63,0.24l0.1,1.07l0.63,0.83l-1.05,1.55l0.52,1.55l0.42-0.12l0.21,0.36l0.63,0.24l0.11,2.5
			l0.1,0.12l0.73,0.59l0.1,3.33l0.31,0.12l0.31,0.6l0.94,0.24l0.21,0.6l-0.94,0.24l-0.21,0.59l0.42,0.12l0.1,2.02h0.63l0.21,0.48
			l0.73,0.12l0.21,1.31l-0.73,0.36l0.94,0.36l1.36,6.19l-1.05-0.12l0.52,0.95l0.84,0.24l1.46,6.67l1.99,4.64l0.63,0.6l3.24,2.26
			l0.31,0.24l0.31,1.79l-0.31,1.67l-0.94,0.95l-4.29,1.07l-1.15,0.12l-0.42-0.95l-0.94-0.12l-0.21,0.71l-1.15,0.36l-1.99-0.24
			l-0.73-1.19l-1.46,0.36l-1.05,0.71l-0.31-0.6l-0.94,0.24l-0.63-0.48l-0.1,0.48l-0.1-0.48l-1.36,0.12l-2.09,0.48l-1.46-0.24
			l-2.2-1.19l-2.93,0.48l-0.63,0.83l-0.52-0.48h-0.73l-0.84,0.48l-2.41,0.83l-2.09-0.36l-1.99-0.6l-0.63-0.24l-0.73-0.83l-0.42-1.55
			l0.1-0.95l0.42-1.43l4.29-2.5l0.84-2.26l0.73-0.83h-0.42l0.1-1.07l0.52-0.12l-0.21-0.95l-1.15-0.71l-0.52-2.14l0.31-0.12
			l-0.42-1.91l0.42-0.12v-0.48l0.52-0.36h-0.31l0.1-0.95l1.15,0.71l0.31-0.12l0.31-0.36l0.21-0.6l-0.31-0.83l-1.05-0.6l-0.63-1.07
			l-1.57,0.95l-0.1-1.19l-2.62,1.31l-4.92-0.36v-0.48l-0.73-0.36l-0.52,0.24l-0.11-0.83l0.31-0.6l-0.1-0.24l-0.52-0.71l-0.84-0.24
			l-0.73,0.24l-0.63,0.6l-0.21,0.36l0.31,1.55l-0.63,0.59l-0.84-0.36l-0.42-0.48l-0.1-0.95l0.21-1.79l1.26-2.62l0.63-1.19H528.28z
			 M534.03,481.92l0.42-0.48l0.21,0.48l0.63-0.6l1.36,0.36l-0.63-0.48l0.94-0.48l0.42-1.55l0.52-0.12l-0.42-0.83l0.1-0.71
			l-0.31-0.59l-1.67,0.36l-0.21,0.83l-0.84,0.48l-0.1,1.67l-0.73-0.12l-0.1,0.83L534.03,481.92z M534.97,438.7l0.31-0.36l-0.1-0.95
			l-1.36,0.48L534.97,438.7z M535.6,441.44l0.1-1.07l-0.52-0.83l-0.1,1.67L535.6,441.44z M537.49,474.42l0.52-0.24l-0.31-0.6
			l-0.73,0.36L537.49,474.42z M549.73,450.96l0.1-0.95h-1.46l-0.42,0.71L549.73,450.96z M548.06,462.27v0.71l0.21,0.36l0.63,0.36
			l0.31-0.12l0.84-1.31H548.06z M552.35,467.51l-0.1-0.83l-0.42,0.83H552.35z M556.32,494.9l0.73-0.83l-1.36-0.12L556.32,494.9z
			 M558,498.12l0.63,0.6l-1.26-0.24l0.31,2.38l-0.42,0.48l0.84,1.79l-0.63,0.71l0.31,0.71h1.47l-0.21-1.55l0.73-2.38l-0.63-0.24
			l0.52-1.91l-0.42,0.12l0.42-1.07l-0.94-0.48l-2.2-0.48l-0.31,0.71L558,498.12z M560.09,494.78l-0.73-0.36l-0.21,0.6h-0.42v1.07
			l0.63,0.36l0.73-0.48V494.78z"/>
		<path class="st0" d="M579.87,490.85l-0.31-2.26l-0.84-0.48l0.63-0.24l0.31-2.26l-0.42-2.98l0.11-0.24l0.42-0.12l-0.42-3.45
			l0.31-0.12v-1.55l0.1-2.38l-1.05-0.83v-5.24l0.94-0.12l0.42-0.48l-1.36-1.55l0.11-2.86l0.52-0.24l-0.31-1.07l0.21-1.55l-0.31-0.36
			l0.1-1.43l0.73-0.24l0.21,0.12l0.52,1.43l1.88,5.72l-0.52,0.71l0.31,0.95h0.42v0.48l0.21,0.24l-0.21,0.83l0.42,0.48l0.52-0.12
			l0.84,2.14h-0.52l-0.31,0.36l1.36,0.71l0.21,0.36l0.52,4.41l-0.52,0.48l0.31,1.91l0.73,20.84l0.21,1.31l-1.78,1.07l0.42,2.26
			l-0.63,0.12l1.78,1.07l0.31-0.6l1.05,0.12l1.36-0.95l0.21,0.59l1.99-0.12l1.78,0.83l1.15,1.31l0.21,1.79l-0.21,1.31l-0.94,0.95
			l-2.41,0.83l-2.51,0.36l-6.38-0.36l-7.01,0.24l-3.45-1.55l-0.94-1.31l-0.21-0.83l0.52-2.14l6.07-2.98l0.52-0.48l0.52-0.95
			l0.94-7.14v-4.17L579.87,490.85z M575.16,433.81l-0.63,0.24l-0.21,0.71l-0.63-0.48v2.02l1.15-0.24l1.57-0.71l0.84,0.12l0.42-0.48
			h0.94l-0.1-0.6l0.42-0.36l3.14,1.43l1.15,0.12l0.73-0.24l0.94-0.71l0.21,0.36l0.73,0.24l0.42-0.71l2.2,0.36v-0.48l1.36-0.12
			l0.63-0.83l0.52,0.12l0.1,0.6l3.24,1.31l0.52-0.12l0.21-1.07l-0.63-0.6l1.26-0.24l1.78,0.24l-0.1,0.6l0.52-0.24l0.1-0.48
			l1.26,0.12l1.78,0.71l1.05,0.95l1.67,4.17l0.94,3.33l-0.84,0.12v0.71l-0.94-0.48l0.1,1.55l1.36,0.36l-0.11,0.48h-0.42l0.52,0.6
			l-0.21,0.71h0.31v0.71l0.84,1.07l-0.1-0.95h0.42v0.6l0.42,0.12l-0.31,0.36h0.73l-0.52,0.83l-0.21-0.24l-0.21,0.71l0.42,0.48
			l1.36-0.59l0.21,0.59h-0.42l-0.31,0.71l0.63,0.24l-0.42,1.31l0.63,0.36h0.31v-1.43l0.63,2.62l-0.52-0.83l-0.94,0.36l-0.31-0.36
			l-0.11,0.71l0.84,0.12l0.52,3.57l0.31,0.71l-0.52,0.12l0.42,0.83l-0.73,0.59l0.94,1.43l0.94-0.12l0.31-1.07l0.11,0.83l1.05,0.12
			l1.26,1.67l0.52-0.36l0.52-1.07l3.04-10.12h0.52l-0.1-1.31l1.36-0.71l0.1,14.41l-0.21,2.98l-0.84,4.29l-2.09,7.14l-0.84,1.79
			l-0.21,1.31l-0.42,0.12v1.67l-0.21,1.19l-0.63,1.79l-0.42,1.43l-1.26,2.62l-0.31,1.19l0.42,0.36l-0.73,0.24l-0.21,1.55l0.1,0.95
			l-0.63-0.12l-1.99,2.62V498l-1.15,0.83l-0.31,0.6l-1.88,1.67l-0.1,1.19l-0.31,0.24v0.6l-0.31-0.36l-0.63-0.12l-0.42,0.83h-0.63
			v0.59l0.42-0.48l1.05,0.48l-0.84,1.67v1.43l0.63,0.12l0.42,0.59l0.94-0.24l-0.21,0.83h0.42l0.42-1.19h0.52l0.31-1.67l0.73-0.48
			v-0.36l0.84-0.12l-0.63,2.5l-0.94-0.12l-0.21,0.95l-0.84,1.19l-0.84,0.83l-0.94-0.71l-0.52-0.12l-0.94,1.43l-1.15-3.33l0.52-0.95
			l-0.63-0.71l1.36-0.83l-0.73-0.95l0.94-0.48v-0.71l-1.78,0.71l-0.31-0.83l0.63-0.36v-0.83l-1.26-1.31l-0.21-2.62l-0.52-0.95
			l0.31-0.36l-0.42-2.62l0.21-1.91l-0.52-0.36l0.42-1.07l-0.52-0.6l-0.1-0.24h-0.84l-0.52,0.24l-0.1,0.48l0.42,0.48l-0.21,0.36
			l0.1,1.19l-1.88-1.07l0.94-0.36l-0.1-2.14l-1.36-0.6h-0.63l-6.49-19.53v-2.62l-1.46-0.83l0.1-0.71l-0.73-1.67l0.73,0.12v-0.95
			l-0.84-1.31l-0.1-0.95l-0.42-0.12l0.21-0.48l-0.52-1.07h-0.1l0.1-0.6l-0.42-0.6l0.1-0.48l-0.42-0.83l0.1-0.36l-0.52-0.83
			l0.42-0.24l-1.36-3.57l0.31-0.24l-0.21-0.95l-1.05-0.48l0.63-0.24l-0.31-1.55l0.42-0.83l-0.52-1.79l-1.88-0.36l-0.1,0.36
			l0.52,0.24l0.42,0.59h-1.36l-2.62-2.86l-4.29-2.14l-0.84-0.71l-0.63-1.07l-0.21-1.31l0.31-1.67l0.52-0.71l2.83-0.83l1.26-0.24
			L575.16,433.81z M584.26,505.98l-1.05-0.36l-0.31,0.12l-0.1,0.36l0.1,0.36L584.26,505.98z M584.79,475.14l-0.52-0.6l-0.73-0.12
			l-0.1,0.71H584.79z M587.19,453.46v0.95l0.52,0.12v1.91l0.21-0.83h0.84l-0.63-1.07l0.63-0.24l-0.31-1.07l-1.67-0.36L587.19,453.46
			z M589.5,459.18l-0.21-0.36l0.21-0.12l-0.94-0.83h-0.52l0.31-0.36l0.1-1.07h-0.63l0.11,0.71l-0.63,2.02l0.1,0.36l1.88,1.31
			L589.5,459.18z M589.5,464.18h-0.31l-0.21-0.59l-0.73-0.12l-0.42,0.71l0.21,0.95l0.42,0.48l0.52,0.12l0.42-0.71L589.5,464.18z
			 M588.66,462.87l0.52-0.12v-0.48l-0.31-0.24v-0.71l-0.73,1.19L588.66,462.87z M589.5,466.44l-0.21-0.12h-0.42l-0.21,0.24
			l-0.1,0.36l0.1,0.48l0.84,0.36V466.44z M597.24,486.45l0.42-0.36l-1.36-0.24L597.24,486.45z M597.55,487.16l-0.21-0.12h-0.52
			l-0.21,0.24v0.36V488l0.31,0.24l1.15,0.36L597.55,487.16z M605.09,445.48l0.84,0.71l-0.52,0.24l-0.1,0.36l-0.52-0.48
			L605.09,445.48z M605.93,451.8l0.52-0.12v-0.48h-0.63L605.93,451.8z M609.28,458.94l0.94,0.12v0.71l-0.1-0.36l-0.84,0.24V458.94z
			 M609.91,463.23l-0.1,1.79l0.94-2.14l-0.42-0.36l-0.84,0.24v0.36L609.91,463.23z M621.84,497.4l0.84-0.24l-0.21-1.31l-0.31-0.6
			l-0.31,0.6l-0.31-2.14l0.84-1.07v-0.71l1.26-0.36v-4.17l0.42,0.36l0.31-0.71l-1.05-1.07l-0.1,0.48l-0.42,0.12l-0.31-0.95
			l-0.52-0.48l0.94-0.36l0.1-2.5l1.15-0.48v0.36l0.52-0.24l-1.05-2.14l-0.63-0.24l0.42-0.83l-0.21-0.83l-0.42,0.36l-0.42-1.67
			l0.52-0.95h1.05l-0.21-2.98l-0.42,0.24l0.1,1.79l-0.42,0.36l-0.31-0.24l-0.42-0.95l-0.21-1.07l-0.52-0.48l-0.1-21.43l0.52-0.24
			v-2.14l-0.63-0.24v-4.41l0.21-1.55l-0.31-3.22l0.21-1.55l0.42-1.19l-0.31-0.12l0.31-1.79l1.26-0.6l-0.1,0.36l-0.73,0.12l0.31,2.02
			l0.73-0.12l1.26-1.43l0.1,0.36l3.04-1.55l1.15,0.83l0.84,0.12l1.05-0.24l0.73-0.36l0.84,0.48l0.42-0.36l0.94,0.48l0.63-0.48
			l0.63,0.48h1.99l0.73,0.24l0.84-0.48l0.84-0.12l-0.21,0.83l0.73,0.71l0.21-1.55l0.84,1.43l0.84-1.31l1.15-0.36v-0.48l2.72-0.12
			l3.56,0.71l1.78,0.71l0.52,0.59l0.52,2.38l-0.1,0.71l-0.42,0.59l-4.08,2.5l-0.42,0.36l-0.31,0.6l-0.31,3.33l0.1,4.88h-1.47
			l0.21,1.07l0.31,0.36l-0.1,1.19l-0.52,2.14l0.52,0.83l-0.1,1.31l-0.63,1.67l-0.1,2.02l-0.31,0.71l-0.84,0.83l0.1,0.95l-0.94,1.43
			l0.42,0.95l0.73-0.12v0.48l0.63-0.71l0.1-0.59l-0.31-0.24l-0.31-1.19l1.05,0.24l0.31,1.43l0.63,0.24l0.42-0.36l0.21,0.48v2.62
			l-0.21-0.48l-0.63,0.95l0.63,0.59l-0.94,1.43l1.05,1.55l-0.42,1.79l0.52,2.86l-0.31,1.55l-0.84,2.74l0.42,0.48l0.42-0.12
			l-0.21,1.07l0.42,0.24l-0.31,1.31h0.52l0.1,18.22l-1.67-1.31l-0.73,0.95l0.94,1.55l-0.11,1.91l0.11,1.31l0.63-0.12l0.73-1.55h0.73
			l0.21,0.48l0.73-0.71l2.3,0.83l1.26,0.83l0.52,0.83l0.1,1.43l-0.21,1.19l-1.15,1.07l-3.14,1.19l-3.04,0.36l-0.52-0.12l-1.05-0.36
			l0.52-0.24l-0.21-1.43l-0.52-0.24v0.95l-1.78,0.36v0.36h-0.52l-0.94,0.36l-0.94,0.12l-2.51-0.12l-5.44-0.12l-0.31-0.83l-0.73-0.71
			v-0.36l-1.15-0.12l-0.52,1.19l-0.31-1.07l-2.83,0.71l0.1,0.95l-0.63,0.12l0.1,0.71h-2.72l-4.4-1.19l-1.15-1.31l-0.42-1.43
			l0.31-1.43l0.52-0.95l3.45-1.79l0.52-0.36l0.42-0.83l0.42-2.74v-3.1L621.84,497.4z M623.3,446.32l0.1-1.07l-0.94-0.59l0.31,0.83
			l-0.73,1.07L623.3,446.32z M624.35,472.4l0.11-0.83h-1.36v0.48L624.35,472.4z M629.58,442.39l0.31,0.59l0.42,0.36l0.21-0.95
			l0.52,0.24l0.52-0.48l0.63,0.24l0.21-0.24h0.84l0.63-0.48l0.52-0.12l1.78,0.24l0.1-0.83l-0.31-0.71l-0.1-1.67l-0.63-0.48
			l-0.31,0.48l0.63,0.83l-4.19-0.12v1.07l-1.15,0.24l-0.94,0.36l-0.63,1.07L629.58,442.39z M636.59,439.65v-1.67l-0.42-0.24
			l-0.1,0.83L636.59,439.65z M637.54,438.58h0.84l0.11-0.6l0.52,0.12l0.31-0.95h0.63l-0.73-0.83L639,435.6l-1.05,0.24l-0.84,0.48
			l-0.42,0.83l0.84,2.02V438.58z M638.9,442.75l1.26-0.12l1.15,0.36l1.15-0.24l-0.21-0.71l-0.31-0.24h0.63l0.42-0.48l-0.52-0.36
			l-0.1-0.71l-0.31-0.48h-1.99l-2.09,0.71l-1.05,0.24v0.48L638.9,442.75z M640.05,437.03l0.73-0.48l-0.94-0.71l-0.1,0.6
			L640.05,437.03z M645.07,440.13l-1.26-0.36l0.21,0.36l-0.52,0.71L645.07,440.13z M644.65,511.81v-0.83l0.42,0.12l0.52-1.55
			l-1.05-0.12l-0.94,0.95L644.65,511.81z M644.97,457.04v-0.95l-0.52,0.24l-0.1,0.48L644.97,457.04z M645.7,500.74l0.31-0.71
			l-0.31-0.71l-0.31,0.24v0.59L645.7,500.74z"/>
		<path class="st0" d="M662.65,505.74l0.31-0.36v-0.48l0.73-0.24l0.52-0.6h0.52l0.84-0.71l0.1-1.79h0.42l-0.31-1.07l-0.73-0.83
			v-0.83l-1.05-0.95l-0.11-3.69l-1.15-1.19l0.73-0.12l-0.31-1.67l0.1-2.98l1.36,0.12l0.31-0.48l0.42-0.12l0.42-0.71l-0.42-1.79
			h-0.94l0.42-0.59l-2.09-0.48v-4.53l0.21-2.74l-0.31-9.53l0.11-0.71l0.73-2.14l-0.1-1.55l0.31-0.6h0.31l-0.11-2.02l0.21-1.79
			l-1.36-0.95l0.31-2.62v0.95l1.05-1.43l-1.36-0.36v-2.86l-0.52-8.69l-0.31-0.6l-3.14-1.79l-0.94-0.48l-0.52-1.31l-0.21-1.07
			l0.31-1.19l1.15-1.31l1.99-0.71l2.09-0.48l10.57,0.36l0.52,1.43l0.52-0.24l0.11-0.71l0.31-0.24l2.09,0.12l0.52,0.95l0.94,0.24
			l1.57-0.12l0.21-0.24l0.63-1.19l1.46-0.12l0.63,1.43l0.94-0.71h0.73v-0.71l1.36,0.12l1.15,0.36l0.52,0.71l0.52,4.41l-0.42,15.12
			l-1.57-0.36l0.1,0.95l-1.57-0.95v0.36h-0.31l1.05,1.43l2.51,0.36l-0.11,0.71l-0.42-0.24l0.42,1.43l-0.94-0.24l0.1,1.31l0.94,1.91
			l0.1,0.48l-0.21,4.64l-0.94-0.48l-0.31,0.95h0.84l0.52,1.07l-0.11,0.6l-0.73-0.48l-0.73,0.24l0.1,1.43l-0.52,0.6l0.11,0.95
			l-0.31,0.59l0.52,0.6l-0.84,0.95l-0.73-0.12l-0.84,3.1l1.05,0.36l1.88-1.43l-0.21-0.36l0.42-1.67l0.73-0.83l0.21,9.41l-0.21,21.32
			h-0.94l-0.31,0.12l0.1,0.48l-0.42,1.31l0.52,0.48h1.36l-0.1,4.41l-0.31,1.67l-0.63,0.6l-2.41,0.48l-2.72-0.12l-0.31-1.31
			l-0.42-0.83l0.63-1.79l-0.11-1.55l-0.73-0.12l0.21,0.36l-0.52,0.12l-0.52,1.07l0.21,1.31l-0.42,2.26l-11.3,0.12l-0.21-0.71
			l0.1-0.95l-0.42-0.24l-1.05,0.83l-1.46,0.71l-0.52,0.6l-3.98-0.36l-2.51-0.95l-0.94-1.07l-0.31-1.55l0.21-1.19l0.21-0.36
			l4.08-2.26L662.65,505.74z M663.27,457.27l0.11-0.71h-0.52v0.71H663.27z M664.11,479.78l0.31-1.07l-0.42-0.12l-0.21,0.95
			L664.11,479.78z M664.43,498.59l0.1,0.71l0.52,0.6l-0.52,0.59l-0.31,0.12l-0.1-0.95l-0.21-0.71v-0.48L664.43,498.59z
			 M679.5,510.98v-0.48l-1.67-0.48L679.5,510.98z M679.5,508.36l-1.15-0.6l-0.31,0.48l0.1,0.6l0.52,0.48h0.84V508.36z
			 M683.37,447.63l0.63,0.83l1.36-0.48v-0.48l-0.63-0.48l-0.1-0.48l0.73-0.36l0.1-0.24v-0.48l-1.26-0.71l-0.63,0.71l-0.42-0.24
			l-0.52,1.31L683.37,447.63z M684.1,468.94l0.21-0.48l-0.73-0.95L684.1,468.94z M694.78,467.4l0.94,0.24v-1.31l1.67-0.6l0.11-2.26
			l-0.31-0.71l1.99-4.41l0.31-0.24l1.46-0.36l2.09,0.48l0.63,0.71l0.42,3.33l-0.21,6.43l-0.31,4.41l0.1,2.02l-0.31,0.48l-0.31,1.67
			h0.63l0.21,1.31l0.31,6.31l-0.31,2.14l-0.94,0.95l-1.88,0.59l-1.36-0.36l-0.52-0.48l-3.56-7.03l-3.98-4.17l-0.63-1.43l-0.21-1.91
			l0.73-3.22l0.63-0.95l2.62-2.26V467.4z M693.63,434.29l1.05,0.36l0.31-0.48l0.52,0.48l1.05-0.6l1.15,0.83l0.1-0.48l0.73-0.12
			l0.52,0.95l0.42-0.12l0.21,0.24l1.05-0.95l5.02-0.12l5.44-0.36l0.52,0.12l0.73,0.83l0.42,1.67v2.26l-0.73,0.24l-0.21,0.83
			l0.42-0.24l-0.63,1.07l-0.42,1.79l0.31,1.55l0.31,0.36l0.94,0.36l0.1,2.02l-0.42-0.95l-0.84,0.83l-0.31-1.67l-0.31,1.43l0.73,0.36
			l0.1,1.07l1.05-0.24l0.84,7.62l-0.42,1.55l-0.73,0.83l-1.67,0.36l-2.3-0.6l-0.42-0.36l-3.14-5.12l-4.4-5.48l0.73-0.6l-0.63-0.6
			l-0.21,0.36l-0.73,0.12l-1.26-1.07l1.36,0.12l-1.15-0.36l-0.94,0.12l-5.86-2.86l-0.31-0.36l-0.42-1.19l-0.42-1.91l0.1-1.67
			l0.31-1.67l0.31-0.48l0.73-0.36l1.26-0.12V434.29z M698.54,502.52l0.94-0.12l0.73,0.36l0.63-1.31l1.36-0.36l0.11-0.71l0.94-0.36
			l1.67-0.12l0.31-0.36l0.21-0.36v-1.31h-0.84v-0.48l0.52-0.6h0.63v-0.95l0.94-0.12l-0.31-0.48l-0.52,0.24l0.42-1.19l0.63,1.43
			l0.21-1.07l-0.63-0.59l1.67-2.98l2.3-3.45l0.84-0.6l1.26-0.24l2.09,0.48l1.05,0.71l0.31,0.48l-0.84,14.05l-0.1,8.46l-0.31,0.95
			l-0.63,0.6v-0.71l0.21-0.36l-0.21-0.48l-0.94,0.24l-0.42-0.71h-0.84l-0.42,1.31l-1.26-1.31l-1.47,0.83l-3.56,0.59l-1.36-1.19
			l-0.42-0.12l-2.72,0.48l0.1,0.48l-0.94,0.12l-0.11,0.36l-2.2,0.12l-3.14,0.83l-1.26,0.12l-1.26-0.95l-0.52-0.83l-0.42-2.98
			l0.52-3.1l0.42-0.48l5.34-2.5l0.94-0.59L698.54,502.52z M713.62,512.05l-0.31,0.6h-1.05L713.62,512.05z"/>
		<path class="st0" d="M726.17,454.06v-0.71l-0.52-0.24l0.21-0.12l-0.1-0.48l0.63-0.59l0.1-0.6l-0.42-0.24l0.52-1.07l0.94-0.83
			l0.84-1.19l-0.52-0.36l1.46-2.38l0.52,0.12l2.3-2.74l0.52-1.19l0.52-0.83l-0.63-0.83v-0.48h1.57v-1.19l1.36,0.71l-0.52,0.12
			l-0.31,1.43l0.73-0.6l0.42-1.43l1.36-0.6l0.63-0.71l0.84-0.12l0.21-0.6h-0.63v-0.48h2.09l1.36-0.48l0.11-0.59l1.78,0.12v-1.19
			h1.05v-0.95l2.62-0.36l1.88,0.6l0.84,0.95l0.42,1.91l-0.31,2.26l-0.31,1.31l-5.44,3.81l-0.84,1.43l-0.42,2.98l0.73,3.93l2.2,3.45
			l3.66,2.62l14.55,5.36l4.08,1.79l2.51,1.55l0.63,1.07h0.84v1.31l0.63,0.48l0.31,0.83l-0.52,0.24l-0.1,1.55l1.47,0.48l0.52,0.48
			l0.31,0.71l0.21,1.31l-0.31,1.19l1.05,0.6l0.73,0.83l0.94,0.71l0.1-1.31l-1.46-0.36l-0.42-1.31l1.05,0.95l1.26-0.95h0.42
			l0.21,0.48l-0.21,0.48l0.84,1.07l-0.31,0.36l0.84,1.31l0.31,1.31l0.94,7.86l-0.52,5.48l-0.31,1.07h-0.52l-0.42,0.95l-0.42-0.95
			l-0.52,0.24v0.6l0.63-0.24l-0.21,1.79l-1.36,1.07l0.1,0.59l0.42,0.24l0.52-1.07l0.94-0.36l-0.42,1.19l-1.57,3.22l-0.73,0.95
			l-0.52-1.19l0.52-0.24v-1.07l0.84-0.12l-0.21-1.55l-1.26,0.48l-0.31,0.36l-0.63,0.12v0.59l-0.31,0.24v0.83l-0.84-0.71h-0.73
			l-2.2,2.38l-1.36,0.6l0.1,0.83l0.94,0.95l-0.94-0.12l-0.1,0.48h-0.21l0.73,2.38l-1.36-0.24v0.48l-0.63,0.12l-0.63,0.71l-0.42-0.24
			l-0.52,0.24v0.36l-2.41,0.59l0.21,1.43l2.2-0.48l-1.36,0.71l-5.86,1.43l-1.15,0.12l0.42-1.07l-2.3,0.12l0.11,0.95l-1.05-0.36
			l0.42-0.24v-2.02l-1.99-0.48l-0.1-1.19l0.31-2.26l0.21-0.48l0.31-0.36l4.5-2.86l0.52-0.48l1.46-2.74l0.42-2.86l-0.52-2.86
			l-1.88-3.1l-3.14-2.38l-5.23-2.5l0.31-0.36l-1.99-0.24l-0.84-0.48v-0.59h0.63l0.73-0.48l0.42,0.24l0.42-0.48l-0.21-0.6h0.63
			l0.31-1.07l0.21-0.36l-0.31-0.71h-0.42v1.43l-1.67,0.95v-1.07l-0.52-0.95l-1.05,0.24l-0.52-0.24l-0.94,0.24l-4.08-0.36v-1.19
			l0.94-0.12v-0.6l0.63-0.24v-0.95l-0.63-0.6l1.99-1.19l-0.84-1.55l-0.94,0.12l-0.52,0.59l-1.88,0.71l0.21,1.31l-0.21,1.07
			l-0.31-0.12l0.31,2.02l-1.05,0.12l-0.1-0.48l-1.67-0.48l0.52-0.36h0.52v-0.83l-2.93-0.36l-0.73,0.71l-0.52-1.07l-1.57-0.71
			l0.1-0.6l1.36-0.12l0.1-0.71h1.15v-1.79l1.05,1.31v0.95l2.3-0.71l0.63,0.83l0.31-0.36l-1.57-2.98l-3.45,0.95l-0.21-0.12
			l-1.67,0.83l0.1,1.07l-1.67-0.12l-2.09-2.5l-1.05-2.02l-1.05-1.19l-1.57-4.41l-0.21-1.07l-0.63-4.41l0.42-5.6L726.17,454.06z
			 M731.4,493.24v1.31h0.84l0.31,1.31h1.05l0.42-2.26l0.94,1.07l2.62,3.93l2.93,2.86l2.51,1.67l6.17,2.98l1.26,2.62v0.95l-0.1,0.36
			l-1.05,0.83l-0.1,1.43l-0.42,0.24v0.71l-1.99,0.12l-1.05-0.24l-1.15-0.36l0.52-1.19l-0.73-0.12l-1.05,1.07l-0.21-1.19l-1.78-0.48
			h-0.84l-0.11-0.24l-1.88-0.12l-0.42-1.31l-3.98,1.91l-2.83,2.14l-1.99-0.36l-1.57-0.48l-0.84-0.71l-0.63-1.19l0.42-0.24l-0.1-1.91
			l0.31-0.24l-0.21-0.71l0.42-0.6l-0.21-0.71l0.42-0.95l-0.31-1.55l0.84-0.6l-0.42-1.07l-1.05-0.36v-1.43l0.1-2.98l-0.73-6.19
			l-0.73-4.64l0.21-0.95l0.52-0.6l2.09-0.36l2.09,0.24l0.63,0.36l1.36,2.98l0.84,2.86l-0.21,1.19l-0.52,1.19H731.4z M729.31,470.85
			l0.21-0.71H729l-0.42,0.6L729.31,470.85z M732.45,472.04l0.52,1.19l0.21-0.36l1.05,0.48l0.94,0.12l-0.73-1.79l-0.84-0.59
			l-0.42,0.59l-1.36-0.12l-0.1,0.6L732.45,472.04z M731.82,475.25l0.73-0.71l-0.42-0.24L731.82,475.25z M737.06,435.96l-0.31,0.83
			h-0.84L737.06,435.96z M739.15,473.83l1.05-0.48l-0.63-0.95l-0.84,0.36l0.1,0.59L739.15,473.83z M739.78,479.42l0.1-0.95
			l-0.63,0.12l-0.31,0.48L739.78,479.42z M740.09,437.03l0.31-0.71l-0.63-0.12l-0.31,0.6L740.09,437.03z M740.82,473.47l0.94-0.12
			v-0.83l-1.36,0.6L740.82,473.47z M742.71,440.36l-0.1-1.55l-1.05,1.43L742.71,440.36z M743.33,435.84l-0.94-0.48v0.71
			L743.33,435.84z M746.47,512.65l0.52-0.83l0.73,0.36l0.42-0.71l-0.94-0.24l-1.26,0.24l-0.21,0.36l0.1,0.6L746.47,512.65z
			 M752.02,483.71l0.52-0.71l-0.73-0.12l-0.84,0.71L752.02,483.71z M764.16,434.89l1.36,0.48l0.42,0.71l1.15,2.62l1.05,0.59
			l-0.31-3.1l0.42-0.12l-0.31-0.48l2.41-2.14l0.63-0.48l0.94-0.12l0.94,0.24l0.52,0.48l0.42,1.19l0.31,0.36l-0.1,0.71l0.73,0.71
			h0.73l0.42,1.07l0.21,1.31l-0.42,4.05l-1.26,1.43l0.73,0.48v2.38l-0.73,1.31h0.73l0.21,0.95h0.52l0.73,7.26l-0.1,0.71l-0.52,0.59
			l-1.36,0.48l-1.57,0.24h-0.31l-1.67-1.31l0.42-0.48h0.84l-0.31-0.36v-0.48l-0.84-0.48l-0.52,0.83l-0.1,0.6l-3.24-6.67l-2.51-3.57
			l-1.46-1.67l-2.41-1.91l-6.7-3.33l-0.21-0.36l-0.52-3.57l0.42-2.38l0.63-0.71l1.36-0.48l5.44,1.19l1.78,0.83l0.94,0.71
			L764.16,434.89z M761.55,437.03l-0.1-0.83l-0.84,0.12l-0.21,0.48L761.55,437.03z M770.23,479.3l0.42-0.71l-0.73-0.95l-0.42,0.71
			L770.23,479.3z M771.28,478.11l0.21,0.83l0.73-0.71l-0.11-0.6l0.21,0.48h0.52l0.52-0.95l0.73,0.36l0.42-0.48l-0.73-0.71
			l-1.15,0.48l-0.73-1.31l-0.42,0.12l-0.1,0.71l-0.52,0.36l-0.21,0.71L771.28,478.11z M770.76,503.6l0.84,0.12l-0.31,0.59
			l-0.63-0.24L770.76,503.6z M771.17,504.67l0.84,0.83l-0.52-0.12l-0.1,0.48L771.17,504.67z M771.91,481.57l0.21-0.71l-0.52-0.6
			L771.91,481.57z M774.21,485.61l-0.31,2.02l0.11,1.79l-0.21,0.24l-0.21-0.48l-0.31,1.43l0.52,0.71l0.42-1.43l1.26-1.07l0.1-0.48
			l-0.21-0.83l-0.73-1.55l1.05-0.12l0.31-1.55l-1.47-1.55l-0.63,0.83l-1.26,0.12l0.1,0.6L774.21,485.61z M773.9,480.85l0.63-0.36
			v-0.83l-0.63,0.24V480.85z M774.63,501.33h0.63l0.42,0.59l-0.73-0.24v0.71l-0.31,0.12l-0.31-0.48L774.63,501.33z M775.05,434.05
			l0.42,1.19l-0.31,0.48l-0.73-1.31L775.05,434.05z M774.94,479.3l0.42-0.24l-0.42-1.19V479.3z"/>
	</g>
</g>
<rect id="line.2" x="525.62" y="385.17" width="252.87" height="9.78"/>
<rect id="line.1" x="652.05" y="556.7" width="126.43" height="10.48"/>
</svg>
