<?xml version="1.0" encoding="utf-8"?>
<!-- Generator: Adobe Illustrator 24.3.0, SVG Export Plug-In . SVG Version: 6.00 Build 0)  -->
<svg version="1.1" id="jesse-james-method-logo" xmlns="http://www.w3.org/2000/svg" xmlns:xlink="http://www.w3.org/1999/xlink"
	 x="0px" y="0px" viewBox="0 0 864 864" style="enable-background:new 0 0 864 864;" xml:space="preserve">
<style type="text/css">
	.st0{fill:#090909;}
	.st1{fill:#080909;}
	.st2{fill:#080808;}
	.st3{fill:#DA2628;}
	.st4{fill:#DA2528;}
</style>
<g id="jesse-james-method-logo-parts">
	<g id="jesse-letters">
		<path id="jesse-letter-j-1" class="st0" d="M69.73,269.43c-1.17,0.28-2.33,0.7-3.52,0.82c-5.82,0.59-7.52,2.24-7.69,8.11
			c-0.19,6.68-0.24,13.38-0.23,20.06c0.04,21.26,0.02,42.53,0.24,63.79c0.22,21.49-10.62,36.25-28.13,47.09
			c-1.86,1.15-3.78,2.24-5.8,3.04c-0.87,0.34-2.06-0.12-3.11-0.22c0.57-0.82,0.97-1.92,1.75-2.41c6.03-3.78,10.39-8.93,13.17-15.44
			c3.07-7.2,3.8-14.89,3.85-22.54c0.2-30.95,0.14-61.9,0.1-92.85c-0.01-5.75-2.63-8.23-8.46-8.57c-1.19-0.07-2.4-0.14-3.56-0.41
			c-0.45-0.1-1.07-0.72-1.08-1.12c-0.01-0.4,0.57-1.03,1.02-1.18c0.73-0.25,1.56-0.26,2.35-0.26c11.89-0.01,23.77-0.03,35.66,0.02
			c1.16,0,2.31,0.43,3.47,0.66C69.76,268.5,69.75,268.97,69.73,269.43z"/>
		<path id="jesse-letter-e" class="st0" d="M79.46,373.71c1-0.3,1.99-0.81,3-0.87c5.58-0.34,7.49-2.03,7.71-7.7
			c0.34-8.57,0.59-17.16,0.62-25.74c0.08-19.67,0.03-39.34-0.01-59.02c-0.02-7.58-2.09-9.7-9.68-10.14
			c-0.2-0.01-0.43,0.05-0.59-0.03c-0.98-0.44-1.95-0.92-2.93-1.38c1.02-0.37,2.05-1.07,3.07-1.07c17.49,0.01,34.98,0.17,52.47,0.11
			c3.52-0.01,7.03-0.8,11.21-1.3c-1.41,7.2-0.5,14.92-2.63,22.28c-0.41-0.01-0.82-0.02-1.22-0.03c-0.16-0.81-0.42-1.61-0.47-2.42
			c-0.42-6.67-2.52-9.38-9.19-9.82c-7.15-0.47-14.36-0.11-21.86-0.11c0,12.04,0,24.64,0,37.92c9.04-0.34,18.09-0.51,27.1-1.18
			c1.87-0.14,3.6-2.16,5.39-3.31c1.1,2.43-0.91,22.98-2.76,24.8c-0.25-1.27-0.53-2.25-0.62-3.24c-0.67-6.83-2.53-8.79-9.34-8.99
			c-6.48-0.19-12.98-0.04-19.76-0.04c-0.01,0.02-0.28,0.57-0.28,1.12c-0.01,10.98-0.13,21.96,0.09,32.94
			c0.14,6.94,2.39,9.68,9.3,10.52c5.31,0.65,10.81,0.65,16.12,0.05c6.86-0.78,9.08-3.5,10.52-10.63c0.24-1.18,0.66-2.31,1-3.47
			c0.32,0.01,0.63,0.02,0.95,0.03c0.24,0.96,0.76,1.93,0.69,2.86c-0.43,5.26-0.93,10.52-1.54,15.76c-0.37,3.12-2.37,4.28-5.43,4.22
			c-12.79-0.25-25.58-0.45-38.37-0.59c-6.4-0.07-12.79,0.08-19.19,0.06c-1.08,0-2.17-0.33-3.25-0.5
			C79.53,374.44,79.49,374.08,79.46,373.71z"/>
		<path id="jesse-letter-s-1" class="st1" d="M216.27,291.36c-0.22-0.73-0.57-1.44-0.66-2.19c-1.36-11.55-9.83-18.06-21.33-16.28
			c-1.66,0.26-3.33,0.69-4.89,1.31c-10.58,4.14-13.62,16.79-5.69,24.95c3.35,3.46,7.66,5.99,11.52,8.96
			c5.83,4.48,12.19,8.43,17.36,13.57c12.23,12.13,13.23,36.57-3.55,49.59c-5.1,3.96-10.92,5.53-17.19,6.04
			c-8.73,0.7-17.32,0.17-25.68-2.68c-2.94-1-4.26-2.77-4.05-6.02c0.4-6.27,0.48-12.56,0.72-18.84c0.02-0.59,0.04-1.26,0.33-1.73
			c0.36-0.6,0.99-1.05,1.5-1.56c0.38,0.63,0.99,1.21,1.11,1.89c0.38,2.15,0.36,4.38,0.88,6.49c2.58,10.62,13.16,17.17,24.34,15.31
			c6.94-1.16,12.12-4.53,14.44-11.36c2.4-7.06,1.91-13.98-3.4-19.54c-3.47-3.63-7.84-6.39-11.79-9.57
			c-5.88-4.74-12.43-8.88-17.44-14.41c-8.12-8.96-9.9-20.01-5.48-31.26c4.38-11.17,13.8-16.19,25.25-17.95
			c7.74-1.19,15.31-0.02,22.89,1.34c2.68,0.48,3.81,1.62,3.52,4.66c-0.46,4.96-0.2,9.97-0.42,14.96c-0.06,1.52-0.68,3.01-1.04,4.51
			C217.1,291.47,216.68,291.42,216.27,291.36z"/>
		<path id="jesse-letter-s-2" class="st1" d="M291.19,291.39c-0.21-1.1-0.53-2.18-0.62-3.29c-0.66-7.87-7.03-14.29-15.19-15.27
			c-9.6-1.15-18.08,3.33-20.28,11.01c-1.61,5.61-0.86,11.1,3.49,15.22c3.58,3.4,7.67,6.34,11.81,9.06
			c7.18,4.72,14.37,9.34,19.66,16.35c9.13,12.08,10.2,34.48-6.43,47.09c-5.05,3.83-10.84,5.29-16.99,5.76
			c-8.52,0.65-16.91,0.15-25.1-2.58c-3.18-1.06-4.71-2.76-4.46-6.32c0.43-6.27,0.5-12.56,0.72-18.84c0.01-0.3-0.05-0.66,0.1-0.88
			c0.5-0.77,1.07-1.5,1.62-2.24c0.43,0.79,1.07,1.53,1.24,2.37c0.42,2.04,0.42,4.17,0.93,6.18c2.67,10.51,13.09,16.96,24.15,15.17
			c6.93-1.13,12.18-4.46,14.52-11.27c2.46-7.15,1.89-14.09-3.46-19.81c-2.83-3.03-6.22-5.59-9.62-8
			c-6.75-4.77-14.02-8.87-19.38-15.38c-7.79-9.47-10.06-20.23-5.66-31.6c4.37-11.3,13.89-16.39,25.48-18.06
			c8.03-1.16,15.9-0.09,23.73,1.69c1.91,0.43,2.64,1.3,2.55,3.29c-0.24,5.28-0.22,10.58-0.45,15.86c-0.07,1.54-0.63,3.06-0.96,4.58
			C292.11,291.45,291.65,291.42,291.19,291.39z"/>
		<path id="jesse-letter-e-2" class="st0" d="M308,373.7c1-0.3,1.99-0.8,3.01-0.86c5.57-0.34,7.48-2.03,7.7-7.71
			c0.34-8.77,0.59-17.56,0.62-26.34c0.08-19.47,0.03-38.94-0.01-58.42c-0.02-7.57-2.09-9.69-9.69-10.13
			c-0.2-0.01-0.43,0.05-0.59-0.03c-0.98-0.45-1.94-0.93-2.91-1.39c1.03-0.37,2.06-1.06,3.08-1.06c17.49,0.01,34.98,0.17,52.47,0.11
			c3.52-0.01,7.04-0.8,11.2-1.31c-1.43,7.2-0.5,14.93-2.64,22.28c-0.41-0.01-0.82-0.02-1.23-0.04c-0.16-0.81-0.41-1.62-0.46-2.44
			c-0.42-6.65-2.53-9.37-9.2-9.81c-7.15-0.47-14.36-0.11-21.85-0.11c0,12.05,0,24.65,0,37.93c9.06-0.35,18.11-0.53,27.12-1.18
			c1.79-0.13,3.45-2.09,5.18-3.21c1.31,1.78-0.49,22.68-2.65,24.76c-0.31-2.03-0.58-3.7-0.83-5.38c-0.67-4.43-2.77-6.67-7.27-6.81
			c-7.08-0.21-14.17-0.06-21.57-0.06c0.01-0.05-0.26,0.51-0.26,1.06c-0.01,10.98-0.13,21.96,0.09,32.94
			c0.14,6.93,2.4,9.67,9.31,10.51c5.31,0.65,10.81,0.65,16.12,0.04c6.85-0.78,9.07-3.51,10.51-10.64c0.24-1.18,0.67-2.32,1.01-3.47
			c0.31,0.01,0.63,0.03,0.94,0.04c0.24,0.96,0.76,1.94,0.68,2.88c-0.43,5.26-0.93,10.52-1.55,15.76c-0.37,3.12-2.38,4.27-5.44,4.21
			c-12.69-0.25-25.38-0.45-38.07-0.59c-6.3-0.07-12.59,0.07-18.89,0.06c-1.23,0-2.45-0.21-3.68-0.32
			C308.18,374.57,308.09,374.13,308,373.7z"/>
	</g>
	<g id="james-letters">
		<path id="james-letter-j" class="st0" d="M468.63,269.43c-1.17,0.28-2.33,0.7-3.52,0.82c-5.82,0.59-7.46,2.24-7.71,8.11
			c-0.14,3.49-0.17,6.99-0.17,10.48c0.05,24.16-0.08,48.32,0.23,72.47c0.28,21.94-10.35,37.16-28.44,48.11
			c-1.78,1.08-3.6,2.17-5.53,2.92c-0.87,0.34-2.06-0.12-3.11-0.22c0.57-0.82,0.97-1.92,1.75-2.41c7.75-4.97,12.97-11.82,14.83-20.82
			c1.16-5.63,2.13-11.43,2.17-17.15c0.23-30.95,0.16-61.9,0.13-92.85c-0.01-5.75-2.63-8.24-8.45-8.57c-1.19-0.07-2.4-0.14-3.56-0.4
			c-0.45-0.1-1.07-0.72-1.08-1.12c-0.01-0.4,0.56-1.03,1.01-1.18c0.73-0.25,1.56-0.26,2.35-0.26c11.89-0.01,23.77-0.03,35.66,0.02
			c1.15,0,2.31,0.43,3.46,0.66C468.65,268.5,468.64,268.97,468.63,269.43z"/>
		<path id="james-letter-a" class="st2" d="M564.77,375.54c0.12-0.58,0.19-1.15,0.23-1.74c0.02-0.29,0.12-0.6-0.41-0.66
			c-1.56-0.16-2.75-1.04-4.31-2.25c-1.24-0.96-2.44-2.17-3.19-3.52c-2.01-3.64-4.07-7.31-5.57-11.17
			c-11.23-28.97-22.33-57.99-33.5-86.98c-0.76-1.96-1.19-5-3.8-4.6c-1.4,0.21-2.85,2.78-3.54,4.56
			c-8.88,22.75-17.61,45.55-26.42,68.33c-3.54,9.17-7.1,18.32-10.77,27.44c-1.56,3.88-4.21,6.79-8.51,7.68
			c-1.35,0.28-2.81,0.02-4.17,0.27c-0.61,0.11-1.11,0.87-1.66,1.33c0.51,0.51,0.94,1.24,1.56,1.48c0.7,0.27,1.58,0.11,2.37,0.11
			c8.79,0,17.58,0.04,26.36-0.05c1.5-0.01,4.08,0.99,4.11-1.51c0.02-2.3-2.47-1.33-3.9-1.4c-4.2-0.2-6.02-1.9-4.84-5.83
			c2.5-8.35,5.55-16.54,8.23-24.84c0.6-1.86,1.5-2.39,3.4-2.37c9.3,0.1,18.6,0.13,27.89-0.01c2.1-0.03,2.99,0.7,3.63,2.56
			c2.84,8.26,5.67,16.53,8.75,24.7c1.11,2.94,1.64,5.25-1.87,6.7c-0.09,0.04-0.07,0.37-0.15,0.96c0.88,0.18,1.77,0.53,2.67,0.54
			C546.51,375.36,555.64,375.46,564.77,375.54C564.77,375.54,564.77,375.54,564.77,375.54z M496.73,331.84
			c4.55-12.87,9.04-25.56,13.83-39.1c4.64,13.5,9,26.16,13.45,39.1H496.73z"/>
		<path id="james-letter-m" class="st2" d="M699.11,373.47c-1.24-0.23-2.48-0.5-3.72-0.68c-7.84-1.16-10.19-2.19-11.43-9.71
			c-1.6-9.62-2.8-19.31-4.14-28.98c-2.98-21.51-5.88-43.03-8.99-64.52c-0.26-1.83-1.84-3.47-2.8-5.2c-1.28,1.38-3,2.55-3.75,4.18
			c-3.96,8.56-7.66,17.24-11.46,25.87c-7.88,17.89-15.76,35.79-23.91,54.28c-0.68-1.45-1.1-2.32-1.49-3.21
			c-5.73-12.89-11.45-25.78-17.19-38.66c-5.82-13.06-11.62-26.14-17.58-39.14c-0.62-1.35-2.26-2.23-3.43-3.33
			c-0.81,1.36-2.13,2.64-2.36,4.09c-1.63,10.33-3.06,20.69-4.52,31.04c-2.1,14.89-4.13,29.79-6.27,44.68
			c-1.09,7.58-2.01,15.21-3.59,22.7c-0.81,3.84-3.22,6.3-6.26,6.41c-0.27,0.07-0.19,0.22-0.2,0.5c-0.04,0.59-0.1,1.17-0.22,1.76
			c8.61,0.08,17.23,0.15,25.84,0.21c1.08,0.01,2.16-0.67,3.24-1.03c-0.04-0.4-0.08-0.81-0.11-1.21c-1.16-0.24-2.31-0.6-3.48-0.71
			c-6.38-0.61-7.58-1.89-7.34-8.16c0.04-1,0.16-1.99,0.27-2.98c1.51-13.47,3.02-26.94,4.55-40.41c0.59-5.24,1.24-10.47,1.86-15.7
			c0.95,0.86,1.34,1.76,1.74,2.64c9.35,20.62,18.66,41.27,28.12,61.84c0.94,2.04,2.8,3.65,4.24,5.46c1.43-1.89,3.26-3.59,4.21-5.69
			c7.28-16,14.39-32.08,21.55-48.13c2.66-5.96,5.32-11.92,7.97-17.87c1.11,4.31,1.66,8.52,2.16,12.74
			c1.76,14.64,3.67,29.27,5.14,43.95c0.42,4.23,3.14,9.01-1.99,12.98c1.31,0.5,2.16,1.08,3.04,1.13c9.58,0.45,19.17,0.87,28.76,1.16
			c1.2,0.04,2.43-0.68,3.64-1.04C699.17,374.3,699.14,373.89,699.11,373.47z"/>
		<path id="james-letter-e" class="st0" d="M703.35,373.7c0.93-0.3,1.85-0.79,2.79-0.86c5.87-0.4,7.56-1.97,7.89-7.84
			c0.29-4.98,0.58-9.97,0.59-14.95c0.06-23.17,0.04-46.33,0-69.5c-0.01-7.79-2.01-9.82-9.83-10.31c-0.6-0.04-1.24,0.01-1.78-0.19
			c-0.58-0.22-1.06-0.69-1.58-1.05c0.57-0.4,1.1-1.07,1.71-1.15c1.37-0.19,2.79-0.12,4.19-0.11c16.59,0.06,33.18,0.21,49.77,0.14
			c3.52-0.01,7.03-0.81,11.08-1.31c-1.43,7.2-0.57,14.9-2.55,22.25c-0.4,0.01-0.8,0.01-1.2,0.02c-0.2-0.76-0.52-1.51-0.57-2.28
			c-0.45-6.67-2.17-9.17-8.46-9.83c-7.41-0.78-14.91-0.79-22.64-1.15c0,13.04,0,25.64,0,37.89c8.91,0,17.67,0.21,26.41-0.15
			c2.07-0.09,4.06-2.09,6.88-3.65c-0.71,8.45-1.4,16.59-2.09,24.72c-0.46,0.02-0.92,0.03-1.38,0.05c-0.22-0.93-0.56-1.85-0.65-2.8
			c-0.69-7.05-2.46-8.93-9.51-9.15c-6.47-0.2-12.95-0.04-19.68-0.04c-0.01,0.05-0.21,0.51-0.21,0.98c0,10.98-0.14,21.96,0.08,32.94
			c0.15,7.13,2.42,9.9,9.45,10.7c5.4,0.62,10.96,0.32,16.42-0.04c5.77-0.38,8.84-3.98,9.8-9.56c0.26-1.5,0.77-2.95,1.17-4.42
			c0.32-0.01,0.64-0.03,0.95-0.04c0.27,0.91,0.85,1.84,0.77,2.72c-0.44,5.36-0.97,10.71-1.58,16.05c-0.37,3.24-2.56,4.13-5.52,4.08
			c-12.69-0.23-25.38-0.45-38.07-0.58c-6.3-0.07-12.59,0.07-18.89,0.06c-1.21,0-2.42-0.25-3.63-0.38
			C703.44,374.52,703.39,374.11,703.35,373.7z"/>
		<path id="james-letter-s" class="st1" d="M839.45,291.39c-0.21-1.09-0.53-2.18-0.63-3.28c-0.66-7.87-7.02-14.29-15.18-15.28
			c-9.58-1.16-18.09,3.32-20.29,11c-1.61,5.61-0.87,11.1,3.48,15.23c3.58,3.4,7.67,6.34,11.81,9.06
			c7.18,4.72,14.37,9.34,19.67,16.34c9.14,12.09,10.2,34.48-6.41,47.09c-5.05,3.83-10.84,5.29-16.99,5.77
			c-8.52,0.65-16.91,0.15-25.1-2.58c-3.18-1.06-4.72-2.75-4.47-6.31c0.43-6.27,0.49-12.56,0.73-18.84c0.02-0.58,0.11-1.23,0.38-1.72
			c0.3-0.54,0.86-0.95,1.31-1.41c0.43,0.58,1.12,1.12,1.23,1.76c0.38,2.15,0.35,4.38,0.85,6.5c2.49,10.62,13.07,17.27,24.25,15.46
			c6.93-1.12,12.19-4.45,14.53-11.26c2.46-7.15,1.9-14.09-3.45-19.81c-2.83-3.03-6.22-5.59-9.62-8
			c-6.75-4.77-14.02-8.87-19.38-15.37c-7.79-9.46-10.07-20.23-5.67-31.6c4.37-11.3,13.88-16.4,25.47-18.07
			c8.03-1.16,15.9-0.09,23.73,1.69c1.9,0.43,2.65,1.28,2.56,3.28c-0.24,5.28-0.22,10.58-0.45,15.86c-0.07,1.54-0.62,3.06-0.95,4.59
			C840.37,291.45,839.91,291.42,839.45,291.39z"/>
	</g>
	<g id="method-letters">
		<path id="method-letter-m" class="st3" d="M199.57,411.06c0.27-1.54,0.81-2.35,1.54-2.35c0.72,0,1.27,0.45,2.44,2.81l24.7,51.03
			l24.61-51.67c0.72-1.45,1.18-2.17,1.99-2.17s1.36,0.9,1.63,2.81l8.23,55.92c0.81,5.7,1.72,8.33,4.43,9.14
			c2.62,0.81,4.43,0.9,5.61,0.9c0.81,0,1.45,0.09,1.45,0.63c0,0.72-1.09,1-2.35,1c-2.26,0-14.75-0.27-18.37-0.54
			c-2.08-0.18-2.62-0.45-2.62-1c0-0.45,0.36-0.72,1-1c0.54-0.18,0.81-1.36,0.45-3.89l-5.43-39.81h-0.36l-19.73,41.08
			c-2.08,4.25-2.53,5.07-3.35,5.07s-1.72-1.81-3.17-4.52c-2.17-4.16-9.32-18.01-10.41-20.54c-0.81-1.9-6.24-13.3-9.41-20.09h-0.36
			l-4.71,36.01c-0.18,1.63-0.27,2.8-0.27,4.25c0,1.72,1.18,2.53,2.71,2.9c1.63,0.36,2.9,0.45,3.8,0.45c0.72,0,1.36,0.18,1.36,0.63
			c0,0.81-0.81,1-2.17,1c-3.8,0-7.87-0.27-9.5-0.27c-1.72,0-6.06,0.27-8.96,0.27c-0.9,0-1.63-0.18-1.63-1
			c0-0.45,0.54-0.63,1.45-0.63c0.72,0,1.36,0,2.71-0.27c2.53-0.54,3.26-4.07,3.71-7.15L199.57,411.06z"/>
		<path id="method-letter-e" class="st3" d="M301.47,443.19c0-11.67,0-13.84-0.09-16.29c-0.18-2.62-0.9-3.44-3.44-4.16
			c-0.63-0.18-1.99-0.27-3.17-0.27c-0.81,0-1.36-0.27-1.36-0.81c0-0.54,0.63-0.72,1.81-0.72c4.16,0,9.23,0.18,11.49,0.18
			c2.53,0,20.18,0.09,21.72,0c1.45-0.09,2.71-0.36,3.35-0.45c0.45-0.09,0.9-0.36,1.27-0.36c0.45,0,0.54,0.36,0.54,0.72
			c0,0.54-0.45,1.45-0.63,4.98c-0.09,0.81-0.27,4.16-0.45,5.07c-0.09,0.36-0.27,1.27-0.9,1.27c-0.54,0-0.63-0.36-0.63-1
			c0-0.54-0.09-1.9-0.54-2.81c-0.63-1.36-1.27-2.44-5.25-2.8c-1.36-0.18-10.86-0.36-12.49-0.36c-0.36,0-0.54,0.27-0.54,0.72v19
			c0,0.45,0.09,0.81,0.54,0.81c1.81,0,12.12,0,13.93-0.18c1.9-0.18,3.08-0.36,3.8-1.18c0.63-0.54,0.9-1,1.27-1
			c0.36,0,0.63,0.36,0.63,0.81s-0.18,1.72-0.63,5.61c-0.18,1.54-0.36,4.61-0.36,5.16c0,0.63-0.09,1.72-0.81,1.72
			c-0.54,0-0.72-0.27-0.72-0.63c-0.09-0.81-0.09-1.81-0.27-2.8c-0.45-1.54-1.45-2.71-4.43-2.99c-1.45-0.18-10.5-0.36-12.49-0.36
			c-0.36,0-0.45,0.36-0.45,0.81v6.15c0,2.62-0.09,9.14,0,11.4c0.18,5.25,2.62,6.42,10.77,6.42c2.08,0,5.43-0.09,7.51-1
			c1.99-0.91,2.9-2.53,3.44-5.7c0.18-0.81,0.36-1.18,0.9-1.18c0.63,0,0.72,1,0.72,1.81c0,1.72-0.63,6.97-1.09,8.51
			c-0.54,1.99-1.27,1.99-4.25,1.99c-5.97,0-10.77-0.09-14.66-0.27c-3.89-0.09-6.88-0.18-9.23-0.18c-0.91,0-2.62,0.09-4.52,0.09
			c-1.9,0.09-3.89,0.18-5.52,0.18c-1,0-1.54-0.27-1.54-0.81c0-0.36,0.27-0.81,1.27-0.81c1.18,0,2.08-0.09,2.81-0.27
			c1.63-0.36,2.08-1.81,2.35-4.07c0.36-3.26,0.36-9.32,0.36-16.38V443.19z"/>
		<path id="method-letter-t" class="st3" d="M376.84,425.63l-11.85,0.27c-4.61,0.09-6.52,0.63-7.69,2.35
			c-0.81,1.09-1.18,2.08-1.36,2.62c-0.18,0.63-0.36,1-0.9,1s-0.72-0.45-0.72-1.27c0-1.27,1.54-8.69,1.72-9.32
			c0.18-1,0.45-1.45,0.9-1.45c0.63,0,1.45,0.63,3.44,0.9c2.35,0.27,5.34,0.36,7.96,0.36h32.3c2.53,0,4.25-0.18,5.43-0.36
			c1.27-0.18,1.9-0.36,2.17-0.36c0.54,0,0.63,0.45,0.63,1.63c0,1.63-0.18,7.33-0.18,9.32c-0.09,0.81-0.27,1.27-0.72,1.27
			c-0.63,0-0.81-0.36-0.9-1.54l-0.09-0.81c-0.18-1.99-2.26-4.34-9.41-4.43l-10.04-0.18v31.13c0,7.06,0.09,13.12,0.45,16.47
			c0.27,2.17,0.72,3.62,3.08,3.98c1.09,0.18,2.9,0.27,4.07,0.27c0.9,0,1.27,0.45,1.27,0.81c0,0.54-0.63,0.81-1.54,0.81
			c-5.25,0-10.59-0.27-12.85-0.27c-1.81,0-7.24,0.27-10.41,0.27c-1,0-1.54-0.27-1.54-0.81c0-0.36,0.27-0.81,1.27-0.81
			c1.18,0,2.17-0.09,2.81-0.27c1.63-0.36,2.08-1.81,2.35-4.07c0.36-3.26,0.36-9.32,0.36-16.38V425.63z"/>
		<path id="method-letter-h" class="st3" d="M477.46,445.99c0.18,0,0.45-0.09,0.45-0.54v-1.63c0-11.67-0.09-14.48-0.18-16.92
			c-0.18-2.62-0.9-3.44-3.44-4.16c-0.63-0.18-1.99-0.27-3.08-0.27c-0.91,0-1.36-0.27-1.36-0.81c0-0.54,0.54-0.72,1.72-0.72
			c4.25,0,9.86,0.18,11.94,0.18c1.9,0,7.15-0.18,10.22-0.18c1.18,0,1.72,0.18,1.72,0.72c0,0.54-0.54,0.81-1.45,0.81
			c-0.63,0-1.36,0.09-2.35,0.27c-2.08,0.36-2.71,1.45-2.9,4.16c-0.18,2.44-0.18,4.61-0.18,16.29v13.57c0,7.06,0,13.12,0.36,16.47
			c0.27,2.17,0.72,3.62,3.17,3.98c1.08,0.18,2.8,0.27,4.07,0.27c0.81,0,1.27,0.45,1.27,0.81c0,0.54-0.63,0.81-1.63,0.81
			c-5.16,0-10.41-0.27-12.58-0.27c-1.81,0-7.42,0.27-10.5,0.27c-1.09,0-1.72-0.27-1.72-0.81c0-0.36,0.36-0.81,1.27-0.81
			c1.27,0,2.17-0.09,2.9-0.27c1.63-0.36,2.08-1.81,2.35-4.07c0.36-3.26,0.36-9.14,0.36-16.2v-5.88c0-0.27-0.27-0.45-0.45-0.45
			h-30.04c-0.27,0-0.54,0.09-0.54,0.45v5.88c0,7.06,0.09,12.94,0.45,16.29c0.27,2.17,0.72,3.62,3.08,3.98
			c1.09,0.18,2.9,0.27,4.07,0.27c0.9,0,1.27,0.45,1.27,0.81c0,0.54-0.63,0.81-1.63,0.81c-5.16,0-10.68-0.27-12.94-0.27
			c-1.81,0-7.06,0.27-10.22,0.27c-1,0-1.54-0.27-1.54-0.81c0-0.36,0.27-0.81,1.27-0.81c1.18,0,2.08-0.09,2.8-0.27
			c1.63-0.36,2.08-1.81,2.35-4.07c0.36-3.26,0.36-9.32,0.36-16.38v-13.57c0-11.67,0-13.84-0.09-16.29c-0.18-2.62-0.9-3.44-3.44-4.16
			c-0.63-0.18-1.99-0.27-3.17-0.27c-0.81,0-1.36-0.27-1.36-0.81c0-0.54,0.63-0.72,1.72-0.72c4.25,0,9.5,0.18,11.67,0.18
			c1.9,0,7.42-0.18,10.59-0.18c1.09,0,1.63,0.18,1.63,0.72c0,0.54-0.45,0.81-1.45,0.81c-0.63,0-1.36,0.09-2.26,0.27
			c-2.17,0.36-2.8,1.45-2.99,4.16c-0.18,2.44-0.18,5.25-0.18,16.92v1.63c0,0.45,0.27,0.54,0.54,0.54H477.46z"/>
		<path id="method-letter-o" class="st3" d="M517.73,449.97c0-13.12,9.23-30.13,33.39-30.13c20.09,0,32.57,11.13,32.57,28.77
			s-12.85,31.49-33.39,31.49C527.14,480.1,517.73,463.64,517.73,449.97z M571.84,451.42c0-17.01-10.22-27.51-23.07-27.51
			c-8.87,0-19.27,4.71-19.27,23.71c0,15.83,9.05,28.32,24.07,28.32C559.18,475.94,571.84,473.32,571.84,451.42z"/>
		<path id="method-letter-d" class="st3" d="M611.21,443.19c0-11.67,0-13.84-0.09-16.29c-0.18-2.62-0.91-3.44-3.44-4.16
			c-0.63-0.18-1.99-0.27-3.17-0.27c-0.81,0-1.36-0.27-1.36-0.81c0-0.54,0.63-0.72,1.81-0.72c4.16,0,9.23,0.18,11.49,0.18
			c2.44,0,8.14-0.18,12.94-0.18c9.95,0,23.35,0,32.03,8.78c3.98,3.98,7.51,10.41,7.51,19.54c0,9.68-4.16,17.01-8.69,21.45
			c-3.62,3.62-12.03,9.05-26.69,9.05c-2.9,0-6.33-0.27-9.5-0.45c-3.17-0.27-6.06-0.45-8.05-0.45c-0.9,0-2.62,0.09-4.52,0.09
			c-1.9,0.09-3.89,0.18-5.52,0.18c-1,0-1.54-0.27-1.54-0.81c0-0.36,0.27-0.81,1.27-0.81c1.18,0,2.08-0.09,2.81-0.27
			c1.63-0.36,2.08-1.81,2.35-4.07c0.36-3.26,0.36-9.32,0.36-16.38V443.19z M621.89,451.69c0,8.14,0.09,14.03,0.18,15.56
			c0.09,1.9,0.27,4.61,0.91,5.43c1,1.45,4.16,3.08,10.41,3.08c7.24,0,12.58-1.27,17.37-5.25c5.16-4.25,6.79-11.13,6.79-19.09
			c0-9.77-3.89-16.11-7.42-19.18c-7.33-6.51-16.02-7.33-22.26-7.33c-1.63,0-4.25,0.18-4.89,0.54c-0.72,0.27-1,0.63-1,1.54
			c-0.09,2.62-0.09,8.96-0.09,15.02V451.69z"/>
	</g>
	<g id="arrows">
		<path id="arrow-right" class="st4" d="M836.62,454.21c-41.13,0-82.26,0-123.57,0c0-2.45,0-4.89,0-7.7
			c41.17,2.43,82.35,4.87,123.54,7.3C836.59,453.95,836.61,454.08,836.62,454.21z"/>
		<path id="arrow-left" class="st4" d="M151.3,445.32c0,2.79,0,5.16,0,7.66c-41.63,0-83.15,0-124.68,0c0-0.1-0.01-0.19-0.01-0.29
			C68.11,450.24,109.61,447.78,151.3,445.32z"/>
	</g>
</g>
<g>
</g>
<g>
</g>
<g>
</g>
<g>
</g>
<g>
</g>
<g>
</g>
</svg>
