<?xml version="1.0" encoding="utf-8"?>
<!-- Generator: Adobe Illustrator 24.3.0, SVG Export Plug-In . SVG Version: 6.00 Build 0)  -->
<svg version="1.1" id="jesse-james-project-logo" xmlns="http://www.w3.org/2000/svg" xmlns:xlink="http://www.w3.org/1999/xlink"
	 x="0px" y="0px" viewBox="0 0 864 864" style="enable-background:new 0 0 864 864;" xml:space="preserve">
<style type="text/css">
	.st0{fill:#090909;}
	.st1{fill:#080909;}
	.st2{fill:#080808;}
	.st3{fill:#DA2528;}
	.st4{fill:#DA2628;}
</style>
<g id="jesse-james-project-logo-parts">
	<g id="jesse">
		<path id="jesse-letter-j" class="st0" d="M117.6,304.4c-0.9,0.3-1.9,0.7-2.8,0.8c-5.6,0.6-7,2-7.1,7.7c-0.1,5.8-0.2,11.7-0.2,17.5
			c0,18.6,0,37.1,0.2,55.7c0.3,19.2-9.2,32.5-24.9,42.2c-1.7,1.1-3.5,2-5.4,2.8c-0.7,0.3-1.7-0.1-2.5-0.2c0.4-0.7,0.7-1.5,1.3-2
			c1.7-1.5,3.7-2.7,5.4-4.3c6.7-6.3,9.3-14.6,9.5-23.4c0.4-28.6,0.4-57.2,0.6-85.9c0-0.9,0-1.8,0-2.7c-0.2-4.8-2.4-7-7.2-7.3
			c-1.1-0.1-2.1-0.1-3.2-0.3c-0.5-0.1-0.9-0.7-1.3-1c0.5-0.4,0.9-1,1.4-1.2c0.6-0.2,1.4-0.1,2.1-0.1c10.3,0,20.5,0,30.8,0
			c1.1,0,2.2,0.4,3.3,0.5C117.6,303.6,117.6,304,117.6,304.4z"/>
		<path id="jesse-letter-e-1" class="st0" d="M152.1,351.4c0,4,0,8.2,0,12.4c0,5.9-0.1,11.8,0.1,17.8c0.2,6.1,2.1,8.6,8.2,9.3
			c4.7,0.6,9.6,0.6,14.3,0c6.1-0.7,8-3.1,9.3-9.4c0.2-1,0.6-2.1,0.9-3.1c0.3,0,0.6,0,0.8,0c0.2,0.8,0.7,1.7,0.6,2.5
			c-0.4,4.7-0.8,9.3-1.4,13.9c-0.3,2.8-2.1,3.8-4.8,3.7c-11.2-0.2-22.5-0.4-33.7-0.5c-5.6-0.1-11.1,0.1-16.7,0.1
			c-1.1,0-2.2-0.2-3.3-0.3c-0.1-0.3-0.1-0.7-0.2-1c0.9-0.3,1.7-0.9,2.6-0.9c4.9-0.3,6.6-1.8,6.8-6.8c0.3-7.6,0.5-15.2,0.6-22.8
			c0.1-17.4,0-34.8,0-52.2c0-6.7-1.9-8.6-8.6-9c-0.2,0-0.4,0-0.5,0c-0.9-0.4-1.7-0.8-2.6-1.2c0.9-0.3,1.8-0.9,2.7-0.9
			c15.5,0,31,0.1,46.4,0.1c3.1,0,6.2-0.7,9.9-1.2c-1.3,6.4-0.4,13.2-2.3,19.7c-0.4,0-0.7,0-1.1,0c-0.1-0.7-0.4-1.4-0.4-2.1
			c-0.4-5.9-2.2-8.3-8.1-8.7c-6.3-0.4-12.7-0.1-19.3-0.1c0,10.7,0,21.8,0,33.6c8-0.3,16-0.5,24-1c1.7-0.1,3.2-1.9,4.8-2.9
			c1,2.2-0.8,20.3-2.5,21.9c-0.2-1.1-0.5-2-0.5-2.9c-0.6-6-2.2-7.8-8.3-8C164.1,351.2,158.4,351.4,152.1,351.4z"/>
		<path id="jesse-letter-s-1" class="st1" d="M202.1,372.5c0.2,0.9,0.5,1.9,0.6,2.8c0.6,13.5,13.4,22,26.2,17.3
			c9.9-3.7,13.5-17.1,6.6-25.6c-2.2-2.7-5.1-4.9-7.9-7c-5-3.8-10.4-7.1-15.1-11.1c-7.7-6.5-11.3-15.1-10-25.2
			c1.6-12.1,10.8-20.5,23.2-22.2c7.1-1,14.1-0.1,21.1,1.2c2.4,0.4,3.3,1.5,3.1,4.1c-0.4,4.4-0.2,8.8-0.4,13.2
			c-0.1,1.3-0.6,2.6-0.9,4c-0.3,0-0.7,0-1-0.1c-0.2-0.8-0.6-1.5-0.7-2.3c-0.7-6.7-4.7-12-10.7-13.6c-7-2-15,0.3-18.8,5.3
			c-3.7,4.9-3.5,12.7,1.1,17.3c3.1,3.1,6.9,5.4,10.4,8.1c5.2,4,10.8,7.5,15.4,12c10.8,10.7,11.7,32.4-3.2,43.9
			c-4.4,3.4-9.5,4.8-15,5.3c-7.6,0.6-15.2,0.3-22.5-2.2c-3.9-1.4-4.1-1.7-4-5.7c0.1-5.5,0.3-10.9,0.6-16.4c0.1-1,0.6-2,0.9-3.1
			C201.3,372.5,201.7,372.5,202.1,372.5z"/>
		<path id="jesse-letter-s-2" class="st1" d="M313.7,323.9c-0.2-1-0.5-1.9-0.6-2.9c-0.6-7-6.1-12.7-13.4-13.6
			c-8.4-1.1-16,2.9-18,9.7c-1.4,5-0.8,9.8,3,13.5c2.9,2.8,6.2,5.2,9.5,7.5c5.7,3.8,11.6,7.4,16.3,12.5c10.4,11.1,11.5,32.5-3.4,44
			c-4.4,3.4-9.5,4.8-15,5.3c-7.8,0.7-15.5,0.2-23-2.4c-2.4-0.8-3.7-2.3-3.5-5.1c0.4-5.6,0.4-11.3,0.6-16.9c0-0.4,0-0.9,0.2-1.3
			c0.3-0.6,0.8-1,1.2-1.5c0.4,0.6,1,1.1,1.2,1.8c0.4,1.9,0.3,3.9,0.8,5.7c2.3,9.3,11.5,15.1,21.3,13.5c6.1-1,10.8-3.9,12.9-9.9
			c2.2-6.3,1.7-12.5-3-17.5c-2.6-2.7-5.7-5-8.7-7.2c-6.2-4.4-12.7-8.2-17.6-14.3c-9.2-11.3-9.8-32.6,9.3-40.7
			c3.6-1.5,7.6-2.7,11.5-2.7c6.2,0,12.4,1.1,18.6,1.8c1.7,0.2,2.1,1.2,2.1,2.8c-0.2,4.7-0.2,9.4-0.4,14c-0.1,1.4-0.5,2.7-0.8,4.1
			C314.5,324,314.1,323.9,313.7,323.9z"/>
		<path id="jesse-letter-e-2" class="st0" d="M383.4,340.3c1,2.1-0.8,20.3-2.4,22c-0.2-1.1-0.5-2-0.6-2.9c-0.6-6.1-2.2-7.8-8.3-8
			c-5.7-0.2-11.5,0-17.5,0c0,0-0.3,0.5-0.3,1c0,9.7-0.1,19.4,0.1,29.2c0.1,6.2,2.1,8.6,8.2,9.3c4.7,0.6,9.6,0.6,14.3,0.1
			c6.1-0.7,8-3.1,9.3-9.4c0.2-1,0.6-2.1,0.9-3.1c0.3,0,0.6,0,0.9,0c0.2,1,0.6,2.1,0.5,3c-0.4,4.4-0.7,8.8-1.3,13.2
			c-0.5,3.2-1.5,4-4.8,4c-17.2-0.1-34.3-0.3-51.5-0.4c-0.8,0-1.6-0.3-2.4-0.5c0-0.3-0.1-0.6-0.1-0.9c0.9-0.3,1.8-0.7,2.6-0.8
			c5-0.3,6.6-1.8,6.9-6.8c0.3-4.6,0.5-9.2,0.5-13.8c0.1-20.3,0-40.7,0-61c0-7.1-1.7-8.8-8.8-9.3c-0.6,0-1.3-0.1-1.8-0.3
			c-0.4-0.2-0.7-0.6-1-1c0.4-0.3,0.7-0.8,1.1-0.9c1.4-0.1,2.8-0.1,4.2-0.1c15,0.1,30.1,0.2,45.1,0.1c2.8,0,5.5-0.8,8.7-1.3
			c-1.5,6.6-0.5,13.4-2.5,19.9c-0.4,0-0.7,0-1.1,0c-0.1-0.7-0.4-1.4-0.4-2.1c-0.4-6-2.4-8.4-8.4-8.7c-6.2-0.4-12.5-0.1-19.1-0.1
			c0,10.7,0,21.8,0,33.6c8-0.3,16-0.4,24-1C380.2,343.1,381.8,341.3,383.4,340.3z"/>
	</g>
	<g id="james">
		<path id="james-letter-j" class="st0" d="M470.7,304.5c-1.1,0.3-2.2,0.6-3.3,0.8c-5,0.5-6.5,2-6.7,7c-0.2,6-0.2,12-0.2,18
			c0,18.6,0,37.1,0.2,55.7c0.3,19.3-9.2,32.7-25,42.4c-1.8,1.1-3.7,2-5.6,2.9c-0.5,0.2-1.4-0.2-2.1-0.3c0.3-0.6,0.4-1.5,0.9-1.9
			c1.7-1.5,3.7-2.6,5.4-4.2c6.8-6.3,9.5-14.6,9.7-23.6c0.5-20.4,0.5-40.8,0.6-61.2c0.1-8.7,0-17.5,0-26.2c0-6.2-2-8.2-8.2-8.6
			c-1.2-0.1-2.3-0.9-3.5-1.4c1.2-0.4,2.5-1.1,3.7-1.1c10.2-0.1,20.3-0.1,30.5,0c1.2,0,2.3,0.4,3.5,0.6
			C470.7,303.7,470.7,304.1,470.7,304.5z"/>
		<path id="james-letter-a" class="st2" d="M555.6,396.3c-0.7-0.4-1.5-0.8-2.5-1.3c-1.5-0.8-3-2.1-3.8-3.5c-2-3.3-3.9-6.7-5.3-10.3
			c-10-25.6-19.8-51.3-29.7-77c-0.7-1.7-1.1-4.4-3.4-4.1c-1.2,0.2-2.5,2.5-3.1,4c-7.9,20.1-15.6,40.3-23.4,60.5
			c-3.2,8.3-6.4,16.6-9.8,24.8c-1.4,3.3-3.8,5.7-7.6,6.4c-1.1,0.2-2.3,0-3.4,0.2c-0.5,0.1-1,0.8-1.5,1.2c0.5,0.5,0.8,1.1,1.4,1.3
			c0.6,0.2,1.4,0.1,2.1,0.1c7.8,0,15.6,0,23.3,0c1.3,0,3.6,0.9,3.6-1.3c0-2-2.2-1.2-3.5-1.2c-3.7-0.2-5.3-1.7-4.3-5.2
			c2.2-7.4,4.9-14.6,7.3-22c0.5-1.7,1.3-2.1,3-2.1c8.2,0.1,16.5,0.1,24.7,0c1.9,0,2.6,0.6,3.2,2.3c2.5,7.3,5,14.6,7.7,21.9
			c1,2.6,1.5,4.7-1.7,5.9c-0.1,0-0.1,0.3-0.1,0.8c0.7,0.2,1.4,0.5,2.1,0.5c8.2,0.1,16.5,0.2,24.7,0.3
			C556,397.6,555.9,396.6,555.6,396.3z M495.5,359.7c4.1-11.5,8-22.7,12.2-34.6c4.1,11.8,7.9,23,11.9,34.6H495.5z"/>
		<path id="james-letter-m" class="st2" d="M674.7,396.5c-1.1-0.2-2.2-0.4-3.3-0.6c-7.2-1-8.4-2.2-9.9-7.3c-0.3-1-0.5-2.1-0.6-3.1
			c-1.3-9.4-2.6-18.9-3.9-28.3c-1.9-13.8-3.8-27.6-5.7-41.4c-0.6-4.4-1.2-8.9-2.1-13.3c-0.2-0.9-1.3-2.3-2.1-2.4s-1.8,1.1-2.5,1.9
			c-0.6,0.7-0.9,1.7-1.3,2.6c-8,18.2-16,36.4-24,54.6c-2.2,5-4.4,10-6.9,15.5c-5.8-13-11.4-25.5-17-38.1c-5-11.2-10-22.5-15.1-33.7
			c-0.5-1.2-2-2-3-2.9c-0.7,1.2-1.9,2.3-2.1,3.6c-1.4,9.1-2.7,18.3-4,27.5c-1.9,13.2-3.7,26.4-5.5,39.5c-1,6.7-1.8,13.5-3.2,20.1
			c-0.6,2.8-2.1,4.6-4.1,5.2c0.1,0.8,0.1,1.7,0.1,2.5c7,0.1,14,0.1,21,0.2c1,0,1.9-0.6,2.9-0.9c0-0.4-0.1-0.7-0.1-1.1
			c-1.9-0.4-3.8-0.7-5.7-1.1c-3.2-0.7-4.1-1.6-3.9-4.8c0.4-5.3,1-10.5,1.6-15.8c1.4-12.8,2.8-25.6,4.3-38.3c0.2,0,0.4,0,0.6,0
			c0.3,0.8,0.7,1.6,1,2.4c8.3,18.3,16.5,36.5,24.9,54.7c0.8,1.8,2.5,3.2,3.8,4.8c1.2-1.6,2.8-3,3.6-4.8
			c6.5-14.2,12.8-28.6,19.2-42.8c2.3-5.3,4.7-10.5,7.1-15.8c1,3.8,1.5,7.6,1.9,11.3c1.6,13,3.2,25.9,4.6,38.9
			c0.4,3.7,2.8,8-1.8,11.5c1.2,0.4,1.9,1,2.7,1c8.5,0.4,17,0.8,25.4,1c1.1,0,2.1-0.6,3.2-0.9C674.7,397.3,674.7,396.9,674.7,396.5z"
			/>
		<path id="james-letter-e" class="st0" d="M678.3,396.8c0.9-0.3,1.7-0.8,2.6-0.8c5-0.3,6.6-1.8,6.9-6.7c0.3-4.8,0.5-9.5,0.5-14.3
			c0.1-20.1,0-40.3,0-60.5c0-7.1-1.7-8.9-8.8-9.3c-0.5,0-1.1,0-1.6-0.2s-0.9-0.6-1.3-1c0.4-0.3,0.9-0.9,1.3-0.9
			c1.2-0.2,2.5-0.1,3.7-0.1c14.8,0.1,29.5,0.2,44.3,0.1c3.1,0,6.2-0.7,9.8-1.2c-1.4,6.4-0.5,13.3-2.4,19.7c-0.3,0-0.7,0-1,0
			c-0.2-0.7-0.4-1.4-0.5-2.1c-0.4-5.9-2-8.1-7.8-8.7c-6.5-0.6-13-0.6-19.7-0.9c0,11.5,0,22.6,0,34c1.7,0,3.5,0,5.2,0
			c5,0,10.1,0,15.1-0.2c3.2-0.1,6.3-0.7,8.2-4.1c1.3,2.5-0.4,20.8-2.1,22.5c-0.2-1.2-0.5-2.2-0.6-3.1c-0.6-5.8-2.3-7.6-8.2-7.8
			c-5.8-0.2-11.6,0-17.9,0c0,4.3,0,9,0,13.6c0,5.5-0.1,11,0.1,16.4c0.2,6.3,2.2,8.8,8.4,9.4c5,0.5,10,0.1,15-0.2
			c4.6-0.3,7-3.2,7.9-7.6c0.3-1.6,0.8-3.1,1.3-4.7c0.3,0,0.6,0,0.8,0c0.2,0.7,0.7,1.5,0.7,2.2c-0.4,4.8-0.9,9.6-1.4,14.5
			c-0.3,2.5-1.9,3.6-4.4,3.5c-5.9-0.1-11.9-0.1-17.8-0.2c-11-0.1-21.9-0.2-32.9-0.3c-1.2,0-2.3-0.2-3.5-0.3
			C678.4,397.5,678.4,397.2,678.3,396.8z"/>
		<path id="james-letter-s" class="st1" d="M798.8,323.9c-0.2-1-0.5-2.1-0.6-3.1c-0.6-6.9-6.4-12.6-13.6-13.4
			c-8.5-0.9-15.8,3-17.8,9.7c-1.5,5.1-0.8,10,3.2,13.7c3.1,2.9,6.8,5.3,10.2,7.9c5.1,3.9,10.6,7.4,15.2,11.8
			c10.9,10.7,11.8,32.4-2.8,43.9c-4.7,3.7-10.2,5.1-16,5.5c-7.4,0.5-14.8,0.1-21.9-2.4c-2.7-0.9-4-2.4-3.8-5.4
			c0.4-5.5,0.4-11.1,0.7-16.7c0.1-1,0.6-2,0.9-3c0.3,0,0.7,0,1,0c0.2,1,0.6,2,0.6,2.9c0.6,13.1,12.5,21.4,25.2,17.5
			c10.6-3.3,14.7-17.1,7.5-25.9c-2.2-2.7-5.1-4.9-7.9-7c-5-3.8-10.4-7.1-15.1-11.1c-7.7-6.5-11.2-15.1-10-25.2
			c1.5-13.8,12.9-20.5,23.5-22.2c6.9-1,13.7-0.1,20.5,1.1c2.7,0.5,3.6,1.7,3.3,4.5c-0.4,4.2-0.2,8.5-0.3,12.7
			c-0.1,1.4-0.5,2.8-0.8,4.1C799.7,324,799.3,323.9,798.8,323.9z"/>
	</g>
	<g id="arrows">
		<path id="arrow-right" class="st3" d="M796.3,468c-36.4,0-72.8,0-109.4,0c0-2.2,0-4.4,0-6.8c36.5,2.2,72.9,4.3,109.4,6.5
			C796.3,467.8,796.3,467.9,796.3,468z"/>
		<path id="arrow-left" class="st3" d="M189.8,460.1c0,2.3,0,4.4,0,6.7c-36.8,0-73.6,0-110.4,0c0-0.1,0-0.1,0-0.2
			C116.1,464.5,152.8,462.3,189.8,460.1z"/>
	</g>
	<g id="project">
		<path id="project-letter-p" class="st4" d="M215.3,454.9c0-10.5,0-12.4-0.1-14.6c-0.1-2.3-0.7-3.4-3-3.9c-0.6-0.1-1.7-0.2-2.7-0.2
			c-0.8,0-1.2-0.1-1.2-0.6s0.5-0.6,1.5-0.6c3.7,0,8,0.2,9.9,0.2c2.8,0,6.8-0.2,10-0.2c8.6,0,11.7,2.9,12.8,3.9
			c1.5,1.4,3.4,4.5,3.4,8.2c0,9.8-7.2,16.7-17,16.7c-0.3,0-1.1,0-1.4-0.1c-0.3-0.1-0.8-0.1-0.8-0.6c0-0.6,0.5-0.8,1.9-0.8
			c3.9,0,9.2-4.3,9.2-11.4c0-2.3-0.2-6.9-4.1-10.3c-2.5-2.3-5.3-2.7-6.9-2.7c-1,0-2.1,0.1-2.7,0.3c-0.3,0.1-0.6,0.6-0.6,1.3v27.6
			c0,6.3,0,11.8,0.3,14.8c0.2,1.9,0.6,3.4,2.7,3.7c1,0.1,2.5,0.3,3.5,0.3c0.8,0,1.1,0.2,1.1,0.6c0,0.5-0.6,0.7-1.3,0.7
			c-4.5,0-8.9-0.2-10.7-0.2c-1.6,0-5.9,0.2-8.7,0.2c-0.9,0-1.4-0.2-1.4-0.7c0-0.3,0.3-0.6,1.1-0.6c1,0,1.9-0.1,2.5-0.3
			c1.4-0.3,1.7-1.8,2-3.8c0.3-2.9,0.3-8.3,0.3-14.7v-12.2H215.3z"/>
		<path id="project-letter-r" class="st4" d="M282.5,454.9c0-10.5,0-12.4-0.1-14.6c-0.1-2.3-0.7-3.4-3-3.9c-0.6-0.1-1.7-0.2-2.7-0.2
			c-0.8,0-1.2-0.1-1.2-0.6s0.5-0.6,1.5-0.6c3.7,0,8,0.2,9.4,0.2c2.3,0,7.6-0.2,9.7-0.2c4.3,0,9,0.4,12.7,3c1.9,1.3,4.7,4.8,4.7,9.4
			c0,5.1-2.1,9.8-9.1,15.4c6.1,7.7,10.9,13.9,15,18.1c3.9,4,6.7,4.5,7.7,4.7c0.8,0.1,1.4,0.2,1.9,0.2c0.6,0,0.8,0.2,0.8,0.6
			c0,0.6-0.5,0.7-1.3,0.7H322c-3.9,0-5.6-0.3-7.4-1.3c-3-1.6-5.6-4.8-9.4-10.1c-2.8-3.8-5.9-8.5-6.8-9.5c-0.3-0.4-0.8-0.5-1.2-0.5
			l-6-0.1c-0.3,0-0.6,0.1-0.6,0.6v1c0,6.4,0,11.9,0.3,14.8c0.2,2,0.6,3.5,2.7,3.8c1,0.1,2.6,0.3,3.4,0.3c0.6,0,0.8,0.2,0.8,0.6
			c0,0.5-0.5,0.7-1.4,0.7c-4,0-9.1-0.2-10.1-0.2c-1.3,0-5.7,0.2-8.4,0.2c-0.9,0-1.4-0.2-1.4-0.7c0-0.3,0.3-0.6,1.1-0.6
			c1,0,1.9-0.1,2.5-0.3c1.4-0.3,1.7-1.8,2-3.8c0.3-2.9,0.3-8.3,0.3-14.7v-12.4H282.5z M290.6,460.4c0,0.8,0.1,1,0.6,1.2
			c1.4,0.5,3.5,0.7,5.2,0.7c2.8,0,3.7-0.3,4.9-1.2c2.1-1.5,4.1-4.7,4.1-10.3c0-9.8-6.5-12.6-10.5-12.6c-1.7,0-3,0.1-3.7,0.3
			c-0.5,0.1-0.6,0.4-0.6,1V460.4z"/>
		<path id="project-letter-o" class="st4" d="M348.7,461c0-11.8,7.8-27,28.5-27c17.2,0,27.9,10,27.9,25.8S394,488,376.5,488
			C356.7,488,348.7,473.2,348.7,461z M395.4,462.3c0-15.4-8.9-25-20.2-25c-7.9,0-17,4.4-17,21.6c0,14.3,7.9,25.7,21.2,25.7
			C384.2,484.6,395.4,482.2,395.4,462.3z"/>
		<path id="project-letter-j" class="st4" d="M441.5,454.9c0-10.5,0-12.4-0.1-14.6c-0.1-2.3-0.7-3.4-3-3.9c-0.6-0.1-1.7-0.2-2.7-0.2
			c-0.8,0-1.2-0.1-1.2-0.6s0.5-0.6,1.5-0.6c3.7,0,8,0.2,9.8,0.2c1.7,0,6-0.2,8.7-0.2c1,0,1.4,0.1,1.4,0.6s-0.4,0.6-1.2,0.6
			c-0.8,0-1.2,0.1-2,0.2c-1.9,0.3-2.4,1.5-2.6,3.9c-0.1,2.2-0.1,4.1-0.1,14.6v12.8c0,3,0.2,6.3,0.2,9.7c0,3.9-0.3,8.3-1.7,12.2
			c-1.4,4.2-5.1,9-11.7,13c-0.9,0.6-2,1.1-3.4,1.8c-0.5,0.3-1,0.4-1.4,0.4c-0.3,0-0.6-0.2-0.6-0.6s0.3-0.6,1.5-1.2
			c0.9-0.5,1.9-1.2,3.3-2.6c5.2-5.3,5.2-12.2,5.2-25.7v-19.8H441.5z"/>
		<path id="project-letter-e" class="st4" d="M492.2,454.9c0-10.5,0-12.4-0.1-14.6c-0.1-2.3-0.7-3.4-3-3.9c-0.6-0.1-1.7-0.2-2.7-0.2
			c-0.8,0-1.2-0.1-1.2-0.6s0.5-0.6,1.5-0.6c1.9,0,3.9,0.1,5.6,0.1c1.8,0.1,3.4,0.1,4.3,0.1c2.2,0,15.9,0,17.2-0.1s2.4-0.3,3-0.4
			c0.3-0.1,0.8-0.3,1.1-0.3s0.4,0.3,0.4,0.6c0,0.5-0.3,1.3-0.6,4.5c-0.1,0.7-0.2,3.7-0.3,4.5c-0.1,0.3-0.2,0.8-0.7,0.8
			s-0.6-0.3-0.6-1c0-0.5-0.1-1.7-0.4-2.5c-0.5-1.2-1.2-2.1-4.6-2.5c-1.2-0.1-8.4-0.3-9.8-0.3c-0.3,0-0.5,0.2-0.5,0.7v17.4
			c0,0.5,0.1,0.8,0.5,0.8c1.5,0,9.4,0,11-0.1c1.7-0.1,2.7-0.3,3.3-1c0.5-0.6,0.8-0.9,1.1-0.9s0.5,0.1,0.5,0.6s-0.3,1.5-0.6,5
			c-0.1,1.4-0.3,4.1-0.3,4.6c0,0.6,0,1.3-0.6,1.3c-0.5,0-0.6-0.3-0.6-0.6c-0.1-0.7-0.1-1.6-0.3-2.5c-0.3-1.4-1.3-2.4-3.9-2.7
			c-1.3-0.1-8.1-0.2-9.8-0.2c-0.3,0-0.4,0.3-0.4,0.7v5.4c0,2.3-0.1,8.7,0,10.7c0.1,4.8,1.2,5.8,8.3,5.8c1.8,0,4.7,0,6.5-0.8
			s2.6-2.3,3.1-5.1c0.1-0.8,0.3-1,0.8-1c0.6,0,0.6,0.6,0.6,1.2c0,1.6-0.6,6.3-0.9,7.7c-0.5,1.8-1.1,1.8-3.7,1.8
			c-5.2,0-9-0.1-11.9-0.2c-3-0.1-5.1-0.2-7.2-0.2c-0.8,0-2.3,0-3.9,0.1c-1.6,0-3.4,0.1-4.8,0.1c-0.9,0-1.4-0.2-1.4-0.7
			c0-0.3,0.3-0.6,1.1-0.6c1,0,1.9-0.1,2.5-0.3c1.4-0.3,1.7-1.8,2-3.8c0.3-2.9,0.3-8.3,0.3-14.7L492.2,454.9L492.2,454.9z"/>
		<path id="project-letter-c" class="st4" d="M558.9,480.5c-6.8-5.9-8.5-13.6-8.5-20.3c0-4.7,1.4-12.8,8.1-18.9
			c5-4.6,11.5-7.3,21.8-7.3c4.3,0,6.8,0.3,10,0.7c2.6,0.3,4.8,1,6.9,1.2c0.8,0.1,1,0.4,1,0.8c0,0.6-0.2,1.4-0.3,3.8
			c-0.1,2.3-0.1,6.1-0.2,7.4c-0.1,1-0.2,1.6-0.8,1.6s-0.7-0.6-0.7-1.5c-0.1-2.1-1-4.5-2.7-6.3c-2.3-2.4-7.7-4.3-14-4.3
			c-6,0-9.9,1.5-13,4.3c-5,4.6-6.3,11.2-6.3,17.9c0,16.4,12.5,24.5,21.7,24.5c6.1,0,9.9-0.7,12.6-3.9c1.2-1.3,2.1-3.3,2.3-4.5
			c0.2-1.1,0.3-1.4,0.9-1.4c0.5,0,0.6,0.5,0.6,1c0,0.8-0.8,6.8-1.5,9.2c-0.3,1.2-0.6,1.5-1.8,2c-2.8,1.1-8,1.6-12.4,1.6
			C573.1,488,565.2,486,558.9,480.5z"/>
		<path id="project-letter-t" class="st4" d="M643.9,438.8l-10.3,0.3c-4,0.1-5.7,0.5-6.7,2c-0.7,1-1,1.9-1.2,2.4
			c-0.1,0.6-0.3,0.8-0.8,0.8s-0.6-0.3-0.6-1.1c0-1.1,1.3-7.4,1.4-7.9c0.2-0.9,0.4-1.3,0.8-1.3c0.6,0,1.2,0.7,3,0.8
			c2,0.2,4.6,0.3,6.9,0.3h27.3c2.2,0,3.7-0.2,4.8-0.3c1-0.2,1.6-0.3,1.9-0.3c0.5,0,0.6,0.4,0.6,1.4c0,1.4-0.2,6.2-0.2,8
			c-0.1,0.7-0.2,1.1-0.6,1.1c-0.6,0-0.7-0.3-0.8-1.4l-0.1-0.8c-0.1-1.8-2-3.7-8.1-3.9l-8.7-0.2V467c0,6.3,0,11.8,0.3,14.8
			c0.2,1.9,0.6,3.4,2.7,3.7c1,0.1,2.5,0.3,3.5,0.3c0.8,0,1.1,0.2,1.1,0.6c0,0.5-0.6,0.7-1.3,0.7c-4.5,0-8.9-0.2-10.8-0.2
			c-1.6,0-5.9,0.2-8.7,0.2c-0.9,0-1.4-0.2-1.4-0.7c0-0.3,0.3-0.6,1.1-0.6c1,0,1.9-0.1,2.5-0.3c1.4-0.3,1.8-1.8,2-3.8
			c0.3-2.9,0.3-8.3,0.3-14.7L643.9,438.8L643.9,438.8z"/>
	</g>
</g>
</svg>
