<?xml version="1.0" encoding="utf-8"?>
<!-- Generator: Adobe Illustrator 24.3.0, SVG Export Plug-In . SVG Version: 6.00 Build 0)  -->
<svg version="1.1" id="jesse-james-ferrell-signature-1"
	 xmlns="http://www.w3.org/2000/svg" xmlns:xlink="http://www.w3.org/1999/xlink" x="0px" y="0px" viewBox="0 0 864 864"
	 style="enable-background:new 0 0 864 864;" xml:space="preserve">
<style type="text/css">
	.st0{stroke:#000000;stroke-width:0.5;stroke-miterlimit:10;}
</style>
<g id="jesse-james-ferrell-signature-1-parts">
	<g id="jesse-letters">
		<path id="jesse-letter-j" d="M146,377.7c-11.4-0.3-20.2-8.3-19.4-20.4c0.6-8,3.4-15.3,7.4-22c17.9-29.6,42.5-51,75.7-61.7
			c6.8-2.2,13.9-2.9,21-1.7c7.9,1.3,12.3,6.1,14.2,13.6c2.1,8.5,1.4,16.9-0.9,25.1c-2.9,10.6-6.4,21-9.7,31.5
			c-0.4,1.2-0.9,2.4-1.4,3.9c2.7-0.5,5-1,7.4-1.5c0.1,0.2,0.2,0.4,0.2,0.6c-1.8,0.8-3.6,1.6-5.4,2.3c-2.3,0.8-3.7,2.3-4.6,4.6
			c-10.2,24.9-20.8,49.7-33.8,73.3c-3.9,7.1-8.8,13.6-13.3,20.3c-1.3,1.9-3.1,4.1-5.8,3.3c-2.8-0.8-2.5-3.6-2.6-5.8
			c-0.7-10.9,1.9-21.4,5.2-31.6c7.8-24.1,22.2-43.5,42.3-58.6c2.7-2.1,4.6-4.4,5.7-7.6c4.8-13.2,9.5-26.4,12-40.2
			c1.1-6.1,1.6-12.3,0-18.4c-1.7-6.3-5.5-9.5-12-10.2c-9-1-17.7,1.1-25.9,4.4c-29.4,12-52.3,31.7-68,59.4
			c-2.7,4.8-4.4,10.4-5.5,15.9c-1.8,8.7,2.2,15.6,10.4,19.1C141.6,376.1,143.9,376.9,146,377.7z M225,354.5
			c-0.3-0.2-0.5-0.5-0.8-0.7c-5.3,5-10.8,9.8-15.7,15.1c-17.8,19-28.2,41.5-31.2,67.4c-0.4,3.3,0.3,6.7,0.4,10.1
			c0.4,0.1,0.8,0.2,1.2,0.3c1.5-1.7,3.2-3.4,4.5-5.2c1.9-2.7,3.6-5.5,5.3-8.3c10.5-17.3,18.5-35.8,26.4-54.4
			C218.4,370.6,221.7,362.6,225,354.5z"/>
		<path id="jesse-letter-e-1" d="M262.1,361.3c-4.9,4.4-9.8,8.8-14.9,13c-2.9,2.3-6.2,4.1-9.4,6c-1.5,0.9-3,0.5-2.9-1.4
			c0.3-2.8,1.1-5.5,1.8-8.2c0.1-0.4,1-0.7,1.6-0.8c6-0.9,11.4-5.9,12.7-11.9c0.7-3.4-1.9-6.2-5.2-5.1c-2.1,0.7-4.2,2-5.6,3.7
			c-2.5,3.2-5,6.6-6.7,10.3c-1.6,3.5-2.7,7.4-3.1,11.2c-0.6,5.7,4,8.5,9.1,5.9c1.9-1,3.8-2.1,5.5-3.5c4.8-4.1,9.4-8.4,14-12.6
			c1.6-1.5,3-3.2,4.1-4.4L262.1,361.3z M246.6,357c-0.7,4.4-3.5,7-7.4,8.8C240.6,362,242.5,358.7,246.6,357z"/>
		<path id="jesse-letter-s-1" d="M287.5,364.7l-1.2-2.2c-0.2,0.2-0.3,0.3-0.5,0.5c-3,2.2-6.2,4.2-9.2,6.3c-1.6,1.1-2.7,0.9-4.1-0.3
			c-5.1-4.6-4.6-12.1,1-16.6c0.2-0.1,0.5-0.2,0.8-0.3c0.5,0.2,0.5,1.3-1,3c1.5,1.7,4.5-2.3,5.4-5c0.2-0.7,0.8-1.8,0.5-2.4
			c-0.3-0.6-1.5-1.1-2.3-1c-1.1,0.1-2.3,0.5-3.3,1.1c-4.1,2.2-6.9,5.5-8.7,9.8c-0.5,1.1-1.1,2.3-2,3.1c-0.2,0.2-0.4,0.4-0.7,0.6
			l1.1,2.1l0,0c2.2,3.4,4.3,6.7,6.6,10.2c-1.1,0.8-2.6,1.7-4,2.9c-0.6,0.6-0.7,1.7-1.1,2.6c0.9,0.3,1.8,0.9,2.6,0.8
			c2.4-0.4,4.8-1,7.2-1.6c4.4-1.2,4.7-2.1,2.6-6.1c0.6-0.5,1.2-1,1.9-1.5C281.8,368.7,284.6,366.8,287.5,364.7z M275.3,375.2
			c-0.1,0.4-0.5,0.5-0.9,0.7c-2.7,1-3,1.2-4.2,1.4c-1.1,0.2-1.2,0.2-1.2,0.1c-0.1-0.2,0.5-0.5,1.8-1.3c0.8-0.5,2-1.2,3.4-2
			c0,0,0.5-0.2,0.9,0C275.3,374.4,275.4,374.9,275.3,375.2z"/>
		<path id="jesse-letter-s-2" d="M300.5,367.4c-0.9,1.2-2.2,1.9-3.7,1.9c-1.1,0-2.2-1.9-3.2-3.1c-0.6-0.7-1.3-1.5-1.4-2.3
			c-0.1-1.1-0.1-2.5,0.5-3.3c1.2-1.6,3-2.7,4.2-4.2c0.7-0.9,0.8-2.2,1.2-3.3c-1.4,0-3.4-0.7-4.2,0c-2.2,2-4,4.6-5.9,7
			c-0.6,0.7-1.1,1.6-1.7,2.3l1.2,2.3c1.5,2.3,3,4.5,4.5,6.8c-1.1,0.6-2.1,1-2.9,1.7c-1,0.8-1.5,1.9-0.1,2.9c1.8,1.3,6.3,0,7.6-1.9
			c1-1.5,2.4-2.7,3.9-4.2c-0.1-0.3-0.1-0.7-0.2-1C300.4,368.3,300.4,367.8,300.5,367.4z"/>
		<path id="jesse-letter-e-2" d="M346.8,358.2c-11.2,9.1-24.5,11.9-38.5,12.1c-1.1,0-2.2-0.8-4-1.3c1.3-1.2,2.1-2,2.9-2.6
			c2.2-1.9,4.6-3.6,6.6-5.7c1.1-1.2,2.4-3.6,1.9-4.5c-1.2-2.1-3.4-0.8-5.1,0c-4.3,1.8-7.5,4.9-9.1,9.3c-0.2,0.6-0.5,1.2-0.9,1.7
			c-0.1,0.5-0.1,1.1,0,1.8c0,0.3,0.1,0.6,0.2,0.9c2.6,4,5.9,4.6,9.5,4.4c8.7-0.7,17-3,25-6.4c5-2.1,9.5-5,12.9-9.3
			c0.5-0.6,0.8-1.5,1.2-2.2C348.2,356.7,347.6,357.5,346.8,358.2z M305.2,363.5c0.7-2,3.2-3.8,3.2-3.8c1-0.7,2.9-2,3.3-1.6
			c0.2,0.2-0.1,0.8-0.3,1.2c-0.2,0.4-0.9,1.7-4.2,3.8c-1.2,0.7-1.8,1-1.9,0.8C305.1,363.8,305.2,363.7,305.2,363.5z"/>
	</g>
	<g id="james-letters">
		<path id="james-letter-j" d="M399.1,316c1.8-7.4,2.3-14.9-0.1-22.4c-2.2-6.8-6.9-10.5-14-11.2c-8-0.8-15.6,0.8-23,3.6
			c-18,6.7-32.8,17.9-46,31.7c-6.9,7.3-13,15.2-17.4,24.3c-0.7,1.3-1.3,2.6,1.2,2.9c0.3-0.5,0.5-0.8,0.6-1.1
			c13.9-24.5,34.1-41.9,59.9-52.8c6.9-2.9,14.1-4.8,21.8-4.6c7.5,0.2,11.9,3.5,13.2,10.8c0.6,3.4,0.8,7.1,0.5,10.6
			c-1.5,14-5.9,27.2-10.6,40.3c-0.4,1-1.3,2-2.2,2.7c-13.1,9.8-24.2,21.4-31.2,36.1c-0.6,1.2-2.2,4.8-2.4,5.2
			c-4.2,9.4-6.8,19.2-7.7,29.5c-0.3,3.8-0.1,7.8,0.4,11.7c0.4,3.2,2.7,3.9,5.3,1.9c0.7-0.5,1.4-1.2,1.9-1.9c2.1-2.9,4.5-5.6,6.1-8.7
			c6-11.5,11.6-23.1,17.5-34.6c0.3-0.5,11.3-28,16.1-39.8c0.5-1.2,1.9-2.1,3.1-2.8c1.6-0.9,3.5-1.5,5.2-2.3l-0.2-0.6
			c-2.1,0.5-4.1,1-6.6,1.5c0.4-1.3,0.7-2.2,1-3.1C394.1,333.8,396.9,325,399.1,316z M382.2,356.7c-3.5,9.1-7.1,18.1-10.5,27.2
			c-0.4,1.1-1.8,4-1.7,4c-5.6,13.2-11.2,26-18.7,37.9c-1.5,2.3-3.1,4.5-4.8,6.6c-0.4,0.5-1.1,0.8-1.9,1.4c-1.8-4.6-1.5-9-1-13.4
			c1.3-9.9,3.9-19.5,8.2-28.5c0.4-0.9,0.8-1.7,1.9-4c7.3-13.9,17.2-25,29.4-34.2C382.8,354.8,382.5,355.8,382.2,356.7z"/>
		<path id="james-letter-a" d="M421.7,362.9c0.4-0.8,0.3-0.4,0.5-1.2c0.2-0.9,1-2.1-1.1-1.2c-3.6,3.4-7.7,6.5-11.6,9.7
			c-0.4,0.3-2.4,1.5-2.3,0.5c1-4.2,0.4-7.9-0.6-12.1c-0.1-0.4-0.2-0.8-0.3-1.1c-1.3-5.2-4.8-6.4-8.7-2.8c-4.4,4-7.5,8.9-9.4,14.5
			c-0.6,1.8-0.9,3.6,0.9,5c1.8,1.4,3.4,0.5,5-0.6c0.9-0.6,1.8-1.3,2.6-2c2.6-2.2,4.5-3.3,7.3-5.7c0.6-0.2-0.1,1.6-0.2,1.9
			c-0.3,2.5-0.6,3.6,2.1,5.3c2.7,1.8,5-0.5,7.1-2c1.9-1.3,3.8-2.7,6-4.4C420,365.9,421.6,363,421.7,362.9z M401.2,363.5
			c-2.6,2.1-7.1,6.7-8.1,6c-1-1.3,4.4-9.3,8.7-12.8C403.7,359.9,403.5,361.5,401.2,363.5z"/>
		<path id="james-letter-m" d="M457.3,361.5c0.1-0.3,0.6-1,0.8-1.3c-2.3,1.8-7,4-9.8,5.1c-1,0.4-3.3,1.5-3.7,0.9
			c-0.7-0.2,0.7-4.3,0.8-6.1c0-0.7-0.3-1.7-0.9-2.1c-0.3-0.3-1.4,0.2-1.9,0.5c-0.8,0.5-1.4,1.1-2,1.8c-1.5,1.6-2.9,3.3-4.3,4.9
			c-1.1,1-1.2,0.3-0.7-0.6c1.1-3.1,2.4-6.2,3.2-9.4c0.3-1.2,0.8-4-0.6-4c-0.7-0.2-2.5,0.9-3.4,1.8c-2.8,2.8-5.5,5.8-8.4,9
			c0.8-3,1.8-5.5,2.2-8.2c0.3-1.4,0.9-4.5-0.4-4.5c-1.3-0.5-2.1,2.2-2.8,3.5c-1.1,1.9-2,4.8-2.7,6.5c-0.7,2-3,8.3-3.3,8.7
			c-0.4,0.9-1,1.8-1,2.4c-0.1,0.9-0.2,1.8,0.7,2.7c0.9,0.7,2-0.4,2.5-1c1.2-1.3,2.2-2.9,3.3-4.4c3.3-4.3,6.7-8.7,10-13
			c2-0.9-3,7.7-4.6,11.4c-0.8,2-2.4,4.6,0.2,6.1c2.5,1.5,3.9-1.1,5.3-2.6c1.8-2,6.1-7.9,6-6.3c-1,4.4,1.9,6.5,6.7,4.5
			c1.2-0.5,2.2-1.2,3.3-1.8c0.9-0.6,1.8-1.1,2.8-1.8C457,362.8,456.9,362.3,457.3,361.5z"/>
		<path id="james-letter-e" d="M479.9,357.8c-2.2,1.9-5.6,4.4-8.1,5.9c-3.1,1.8-6.4,3.4-9.8,4.7c-2.1,0.8-2.9-0.2-2.3-2.4
			c0.5-1.9,1.1-3.5,3.6-3.7c3.1-0.3,5.2-2.5,6.7-5.1c1.3-2.4,0.2-4.1-2.4-4.3c-2.6-0.2-4.5,1.1-6.2,2.9c-1,1.1-2.2,2.5-3.1,3.6
			c-2,2.5-2.2,5.2-2.3,5.7c-0.4,5.2,1.7,8,6.6,6.5c2.9-0.9,5.7-2.4,8.2-4.1c2.8-1.8,6.4-5.1,9.1-7.2
			C479.9,359.8,479.9,358.4,479.9,357.8z M464.4,356.3c0,0,1.4-0.9,3.1-1c0.1,0,0.3,0,0.3,0.1c0.2,0.3-0.5,1-0.8,1.3
			c-0.8,0.8-1.7,1.8-3.3,2.4c-0.5,0.2-1.4,0.4-2.5,0.4C461.9,358.5,462.9,357.2,464.4,356.3z"/>
		<path id="james-letter-s" d="M522.5,366.8c-0.7-0.3-1.6-0.6-2.5-0.6c-8.6-0.1-17.3-0.4-25.9,0c-4,0.2-6.6-0.8-8.8-4.2
			c-1.4-2.3-1.9-4.1,0.1-6.1c0.8-0.8,4.1-2.5,6.5-7.9c0.2-0.5,0.4-1-0.4-0.8c-1.5,0.4-3.4,0.3-4.3,1.2c-2.3,2.2-4.3,4.9-6.3,7.4
			c-0.4,0.5-0.7,1.1-1,2c-0.5,1-0.3,1.9,0.1,3c1.5,2,2.9,3.8,4.6,6c-3,0.5-5.6,0.9-8.2,1.5c-0.6,0.1-1.5,0.7-1.6,1.2
			c-0.1,0.9,1.1,1.6,1.5,1.7c0.6,0.2,1.4,0.1,2.1,0.1c11.2-1,22.3-2,33.5-3c3.6-0.3,7.8-0.7,11.4-1L522.5,366.8z"/>
	</g>
	<g id="ferrell-letters">
		<path id="ferrell-letter-f" d="M647.5,310.8c-6.3,0.1-12.6,0.1-18.8,0.5c-21.5,1.4-42.9,2.9-64.3,4.3c-1.5,0.1-3,0-4.6,0
			c2.5-6.9,4.8-13.6,7.3-20.2c0.8-2.2,0.2-3.3-2.2-3.7c-1.3,3.5-2.6,7-4,10.4c-1.3,3.5-2.7,7-4,10.5c-0.4-1.1-0.2-2.1-0.2-3.1
			c0.5-8.2,1.5-16.4,1.3-24.5c-0.3-10.1-7.4-16.2-17.5-15.7c-3.6,0.2-7.3,0.9-10.6,2.2c-13.8,5.4-26.4,12.8-37.2,22.9
			c-1.6,1.5-3,3.2-4,5.1c-2.3,4-1.5,8,2.2,10.6c2.5,1.8,5.5,3.3,8.4,4.4c12.6,4.9,25.8,5.9,39.2,5.4c4.3-0.1,8.6-0.4,13-0.6
			c-1,7.2-6.8,26.7-9.8,32.7c-0.3,0.7-1.4,1.2-2.2,1.3c-2.8,0.4-5.6,0.4-8.4,0.7c-3.2,0.3-6.4,0.7-10.2,1.1c3,3.8,6.3,2.1,9.2,2
			c3.2-0.1,6.4-0.5,10-0.8c-0.5,1.6-0.9,2.7-1.3,3.8c-8.2,22.2-16.1,44.5-21.9,67.5c-0.6,2.5-0.1,3.9,2.7,4.2c0.2-0.5,0.4-1,0.6-1.5
			c7.9-23.9,15.9-47.8,23.7-71.8c0.6-1.9,1.6-2.7,3.6-2.8c11.2-0.3,22.4-0.8,33.6-1.2c4.1-0.1,8.3,0,12.4,0c0-0.5,0-1,0-1.6
			c-15.7-1.1-31.5-0.1-47.5-0.1c0.3-1.1,0.5-2,0.8-2.8c3.2-8.5,6.7-16.9,9.5-25.6c1.4-4.4,3.3-6.2,8.2-6.4
			c26.1-1.3,52.2-3.1,78.2-4.7c2.8-0.2,5.7-0.4,8.5-0.6c0.1-0.4,0.1-0.7,0.2-1C650,311.5,648.7,310.8,647.5,310.8z M554.6,299.8
			c-0.3,5.1-1.3,10.1-2.2,15.1c-0.1,0.8-1.2,1.8-2,1.9c-6.2,0.5-12.5,0.9-16.4,1.1c-13,0-23.5-0.9-33.6-4.4
			c-2.2-0.8-4.5-1.6-6.5-2.8c-3.9-2.3-4.8-5.6-2.5-9.5c1-1.6,2.1-3.3,3.5-4.5c12.3-10.5,25.7-19.2,41.1-24.3c2.4-0.8,5-1.2,7.5-1.2
			c5.9,0,10.3,3.4,11,9.6C555.3,287,555,293.4,554.6,299.8z"/>
		<path id="ferrell-letter-e-1" d="M610.5,364.2c0,0-0.1,0.1-0.1,0.1c-3.6,3.5-8.9,7.3-14,8.8c-1.4,0.4-3.5,1.1-3.9-1.5
			c-0.4-2.5,1.2-5.3,3-5.5c4.7-0.6,8.6-4.1,9.5-8.8c0.2-1.3,0-3.6-0.7-3.9c-1.2-0.5-3.4-0.5-4.5,0.3c-5.6,3.8-9.6,8.9-11,15.7
			c-1.2,5.4,2.5,8.7,7.9,7.2c4.8-1.4,8.8-4.3,12.4-7.7c0.2-0.2,1.2-1.1,1.5-1.4c0.1,0,0.1-0.1,0.1-0.1
			C610.7,366.7,610.5,364.6,610.5,364.2z M601.6,356c0.2,3.4-2,5.9-6,6.7C597.8,360.3,599.6,358.3,601.6,356z"/>
		<path id="ferrell-letter-r-1" d="M631.2,363.2c-1.6,1.5-4.1,3.8-5.9,5.2c-1.6,1.3-6.9,4.4-6.4,3.1c2.2-5.2,5.6-9.7,0.1-13.7
			c1.2-1.8,2.4-3.3,3.2-5c0.4-0.8,0.5-2.6,0.2-2.8c-0.4-0.5-2.3-0.2-2.7,0.3c-1.6,1.8-3.1,3.9-4.4,6c-0.6,1-0.3,2.5-1,3.3
			c-1.2,1.6-2.6,3.2-3.9,4.6c-0.8,2,0.2,2.9,0.3,3.4c2.2-2,4.5-3.9,7-6c1-0.8-0.2,2.3-0.4,3.4c-0.4,1.3-0.6,2-0.7,3.2
			c-0.2,1.6-0.5,3.9,0.3,4.7c1.1,0.9,3.5,1.2,4.9,0.6c2.8-1.2,5.4-3,7.8-4.9c0.6-0.5,2-1.8,2.6-2.4
			C632,365.8,631.4,363.9,631.2,363.2z"/>
		<path id="ferrell-letter-r-2" d="M652.8,363.2c-2.8,2.5-7.3,5.1-11,6.4c-0.6,0.2-1.3,0.2-2.2,0.3c0.4-4.2,4.2-8.2-0.7-11.5
			c1-1.6,2-3.1,2.8-4.6c0.3-0.5,0.2-1.8-0.1-2c-0.6-0.3-1.6-0.4-2.2,0c-2.3,1.4-4.1,3.2-4.4,6.2c-0.1,0.8-0.4,1.9-1,2.4
			c-0.9,0.9-1.9,1.8-2.8,2.7c0,0,0.9,2.8,0.9,2.9c1.6-1.6,3.2-3.3,5.1-5.2c1-0.9,0.5,2.2,0.4,3c-0.3,1.4-0.9,2.8-1.2,4.2
			c-0.6,3.2,1.1,5.3,4.2,4.5c2.7-0.7,5.3-2.2,7.8-3.6c1.2-0.7,3-2.2,4.2-3.1C652.6,365.5,652.8,363.2,652.8,363.2z"/>
		<path id="ferrell-letter-e-2" d="M675.6,365c0-0.8,1.2-2.7,1.2-2.8c-3.6,2.5-12,5.8-16.5,7c-3,0.8-4.5-1-3.2-3.9
			c0.5-1,1.8-2,2.9-2.4c3.8-1.2,6-3.8,7.3-7.2c0.9-2.5-0.6-4.3-3.1-3.8c-1.3,0.2-2.6,0.9-3.6,1.7c-1.5,1.4-3,3-4.4,4.6
			c-0.1,0.1-2.9,2.8-3.5,5.2c-0.1,0.3-0.1,0.6-0.1,0.9c0,0.3,0,0.8,0.1,1.7c0.1,0.5,0.2,1,0.4,1.6c1.2,4.6,3.4,5.7,8.3,4.3
			c2.9-0.8,5.5-2.3,8.2-3.6C670.4,367.8,674.7,365.5,675.6,365z M659.9,357.9c0.2-0.2,3.5-3.8,4.1-3.3c0.4,0.3-0.5,2-1,2.8
			c0,0-1.7,2.6-4.2,3c-0.2,0-0.4,0-0.5-0.1C658,360,659.3,358.5,659.9,357.9z"/>
		<path id="ferrell-letter-l-1" d="M676.1,373.3c6.7-14.9,13.5-29.8,20.3-44.8c0.7-1.5,2-4.6-0.5-4.8c-1.1-0.2-1.8,1.7-2.3,2.8
			c-4.4,9.2-8.9,18.4-12.9,27.7c-1.6,3.6-6.6,13.2-6.9,14c-1.6,4.4-3.3,8.7-4.5,13.1c-0.4,1.3,0.4,3.5,1.4,4.5
			c1.4,1.4,3.5,0.9,4.9-0.5c3.1-2.8,6.2-5.6,9.1-8.6c1.8-1.8,4.2-4.8,5.9-6.8c-0.1-0.2-0.7-3.3-0.8-3.5c-0.5,1-2.4,3.4-3.2,4.3
			c-1.3,1.4-2.4,3-3.8,4.3c-3,2.8-6.1,5.5-9.2,8.3c-0.7,0.5-1.5,0.3-1.1-0.8C673.6,379.4,674.7,376.3,676.1,373.3z"/>
		<path id="ferrell-letter-l-2" d="M733.2,363.9c-2.7,0.5-5.3,1-8,1.4c-9,1.4-18,2.9-27,4.1c-1.4,0.2-3.6-0.4-4.2-1.4
			c-0.6-1,0.1-3.1,0.9-4.4c2.6-4.6,5.6-8.9,8.4-13.5c1.4-2.4,2.7-5,3.8-7.6c0.3-0.7,0.1-2-0.4-2.4c-0.5-0.4-1.8-0.4-2.5-0.1
			c-1,0.5-2,1.2-2.8,2.1c-5.4,6-8.2,13-11.1,20.6c-1.4,3.7,0,7,0,6.9c2.5,3.2,5.8,4,9.2,3.2c10.6-2.4,21.2-5,31.9-7.5
			c0.7-0.2,1.4-0.6,2.1-0.8C733.4,364.3,733.3,364.1,733.2,363.9z M702.3,345.3c0.7-0.9,1.1-1,0.9,0.5c-2.1,3.6-5.6,11.1-6.2,10.7
			C695.1,354.6,700.3,348.9,702.3,345.3z"/>
	</g>
	<path id="signature-line" d="M518.8,379.4c-48.2-0.7-96.3,1.5-144.4,5.8c-3.7,0.4-4.5,0.5-6.5,0.7c-4.7,0.5-9.4,0.9-14.6,1.5
		c-1.7,0.1-3.5,0.3-4.4,0.5c-23.5,3.5-47.1,6.4-70.5,10.7c-19.2,3.5-38.1,8.6-57.2,13.1c-1.7,0.4-3.3,1.6-5.2,2.5
		c0.7,0.7,0.9,1,1.2,1.3c3.2,2.8,6.7,1.3,9.9,0.4c33.3-10.1,67.2-18,101.6-23.1c6.8-1,13.6-1.9,20.7-2.9c2.4-0.3,2.8-0.2,4-0.4
		c5.2-0.7,10.5-1.3,16-1.9c2.7-0.2,4.9-0.4,5.5-0.5c13.1-1.2,26.1-2.6,39.2-3.2c29.4-1.3,58.8-2.2,88.2-3.1c5.5-0.2,11,0,16.4,0
		C518.8,380.2,518.8,379.8,518.8,379.4z"/>
	<g id="soul-letters">
		<path id="soul-letter-s" class="st0" d="M544.8,407.8c0.7,0.4,1.7,0.8,2.8,0.8c1.6,0,2.5-0.8,2.5-2.1c0-1.1-0.7-1.8-2.3-2.4
			c-2-0.7-3.2-1.7-3.2-3.5c0-1.9,1.6-3.3,3.9-3.3c1.2,0,2.1,0.3,2.7,0.6l-0.4,1.3c-0.4-0.2-1.2-0.6-2.3-0.6c-1.7,0-2.3,1-2.3,1.8
			c0,1.1,0.7,1.7,2.4,2.3c2.1,0.8,3.1,1.8,3.1,3.6c0,1.9-1.4,3.5-4.3,3.5c-1.2,0-2.5-0.3-3.1-0.8L544.8,407.8z"/>
		<path id="soul-letter-o" class="st0" d="M566.8,403.5c0,4.2-2.5,6.4-5.7,6.4c-3.2,0-5.5-2.5-5.5-6.2c0-3.9,2.4-6.4,5.7-6.4
			C564.7,397.4,566.8,399.9,566.8,403.5z M557.4,403.7c0,2.6,1.4,4.9,3.9,4.9c2.5,0,3.9-2.3,3.9-5.1c0-2.4-1.3-5-3.9-5
			C558.7,398.7,557.4,401.1,557.4,403.7z"/>
		<path id="soul-letter-u" class="st0" d="M573,397.6v7.2c0,2.7,1.2,3.9,2.8,3.9c1.8,0,3-1.2,3-3.9v-7.2h1.6v7.1
			c0,3.7-2,5.3-4.6,5.3c-2.5,0-4.4-1.4-4.4-5.2v-7.2H573z"/>
		<path id="soul-letter-l" class="st0" d="M585.6,397.6h1.6v10.9h5.2v1.3h-6.8V397.6z"/>
	</g>
	<g id="messenger-letters">
		<path id="messenger-letter-m" class="st0" d="M627.9,404.4c-0.1-1.7-0.2-3.7-0.2-5.3h-0.1c-0.4,1.4-0.9,2.9-1.5,4.6l-2.2,5.9h-1.2
			l-2-5.8c-0.6-1.7-1.1-3.3-1.4-4.7h0c0,1.5-0.1,3.6-0.2,5.4l-0.3,5.2h-1.5l0.8-12.2h2l2.1,5.9c0.5,1.5,0.9,2.8,1.2,4.1h0.1
			c0.3-1.2,0.7-2.6,1.3-4.1l2.2-5.9h2l0.8,12.2h-1.5L627.9,404.4z"/>
		<path id="messenger-letter-e-1" class="st0" d="M641,404h-4.7v4.4h5.3v1.3h-6.8v-12.2h6.6v1.3h-5v3.8h4.7V404z"/>
		<path id="messenger-letter-s-1" class="st0" d="M645.8,407.8c0.7,0.4,1.7,0.8,2.8,0.8c1.6,0,2.5-0.8,2.5-2.1
			c0-1.1-0.7-1.8-2.3-2.4c-2-0.7-3.2-1.7-3.2-3.5c0-1.9,1.6-3.3,3.9-3.3c1.2,0,2.1,0.3,2.7,0.6l-0.4,1.3c-0.4-0.2-1.2-0.6-2.3-0.6
			c-1.7,0-2.3,1-2.3,1.8c0,1.1,0.7,1.7,2.4,2.3c2.1,0.8,3.1,1.8,3.1,3.6c0,1.9-1.4,3.5-4.3,3.5c-1.2,0-2.5-0.3-3.1-0.8L645.8,407.8z
			"/>
		<path id="messenger-letter-s-2" class="st0" d="M657.3,407.8c0.7,0.4,1.7,0.8,2.8,0.8c1.6,0,2.5-0.8,2.5-2.1
			c0-1.1-0.7-1.8-2.3-2.4c-2-0.7-3.2-1.7-3.2-3.5c0-1.9,1.6-3.3,3.9-3.3c1.2,0,2.1,0.3,2.7,0.6l-0.4,1.3c-0.4-0.2-1.2-0.6-2.3-0.6
			c-1.7,0-2.3,1-2.3,1.8c0,1.1,0.7,1.7,2.4,2.3c2.1,0.8,3.1,1.8,3.1,3.6c0,1.9-1.4,3.5-4.3,3.5c-1.2,0-2.5-0.3-3.1-0.8L657.3,407.8z
			"/>
		<path id="messenger-letter-e-2" class="st0" d="M675.2,404h-4.7v4.4h5.3v1.3h-6.8v-12.2h6.6v1.3h-5v3.8h4.7V404z"/>
		<path id="messenger-letter-n" class="st0" d="M680.4,409.8v-12.2h1.7l3.9,6.2c0.9,1.4,1.6,2.7,2.2,4l0,0c-0.1-1.6-0.2-3.1-0.2-5
			v-5.1h1.5v12.2h-1.6l-3.9-6.2c-0.8-1.4-1.7-2.7-2.3-4.1l-0.1,0c0.1,1.5,0.1,3,0.1,5v5.2H680.4z"/>
		<path id="messenger-letter-g" class="st0" d="M704,409.2c-0.7,0.3-2.1,0.7-3.7,0.7c-1.8,0-3.4-0.5-4.6-1.6c-1-1-1.7-2.6-1.7-4.5
			c0-3.6,2.5-6.3,6.6-6.3c1.4,0,2.5,0.3,3,0.6l-0.4,1.3c-0.7-0.3-1.5-0.5-2.7-0.5c-3,0-4.9,1.8-4.9,4.9c0,3.1,1.9,4.9,4.7,4.9
			c1,0,1.7-0.1,2.1-0.3v-3.6H700v-1.3h4V409.2z"/>
		<path id="messenger-letter-e-3" class="st0" d="M715.3,404h-4.7v4.4h5.3v1.3H709v-12.2h6.6v1.3h-5v3.8h4.7V404z"/>
		<path id="messenger-letter-r" class="st0" d="M720.4,397.7c0.8-0.2,1.9-0.3,3-0.3c1.7,0,2.8,0.3,3.5,1c0.6,0.5,1,1.4,1,2.3
			c0,1.6-1,2.7-2.3,3.1v0.1c0.9,0.3,1.5,1.2,1.8,2.5c0.4,1.7,0.7,2.9,0.9,3.3h-1.6c-0.2-0.3-0.5-1.4-0.8-2.9c-0.4-1.7-1-2.3-2.4-2.4
			H722v5.3h-1.6V397.7z M722,403.3h1.6c1.7,0,2.7-0.9,2.7-2.3c0-1.6-1.1-2.3-2.8-2.3c-0.8,0-1.3,0.1-1.6,0.1V403.3z"/>
	</g>
</g>
</svg>
