<?xml version="1.0" encoding="utf-8"?>
<!-- Generator: Adobe Illustrator 24.3.0, SVG Export Plug-In . SVG Version: 6.00 Build 0)  -->
<svg version="1.1" id="Layer_1" xmlns="http://www.w3.org/2000/svg" xmlns:xlink="http://www.w3.org/1999/xlink" x="0px" y="0px"
	 viewBox="0 0 864 864" style="enable-background:new 0 0 864 864;" xml:space="preserve">
<style type="text/css">
	.st0{fill:#ED1C24;}
	.st1{fill:#010101;}
</style>
<circle id="red.circle" class="st0" cx="175.74" cy="265.03" r="82.06"/>
<path id="J.1" class="st1" d="M243.98,344.26c0.46-0.77,1.09-1.43,1.88-1.9c0.92-1.19,1.72-2.46,1.98-3.87
	c0.15-0.79,0.26-1.72,0.28-2.67c-0.01-0.1-0.02-0.2-0.04-0.3c-0.2-1-0.76-2-1.46-2.96c-0.47,0.59-0.92,1.14-1.33,1.64
	c-13.26,16.02-9.6,13.81-17.68,22.45c-4.84,5.19-5.37,5.14-22.96,21.16c-13.66,12.43-11.91,11.16-18.71,17.16
	c-7.35,6.48-13.55,11.63-25.94,21.94c-5.27,4.38-9.65,7.99-12.64,10.45c0.61-1.15,1.59-2.96,2.84-5.16
	c3.02-5.36,5.32-8.96,9.41-15.49c2.08-3.3,4.12-6.63,6.2-9.93c6.46-10.29,13.23-24.21,22.06-41.03c16.33-31.09,25.52-50.28,28-55.49
	c2.21-4.63,4.03-8.51,5.29-11.22c0.26-1.21,0.52-2.41,0.78-3.62c0.02-0.26,0.19-2.33-1.16-3.35c-0.29-0.22-1.17-0.79-3.49-0.26
	c-2.7,0.62-3.83,1.92-5.8,3.1c-2.93,1.74-5.8,2.07-10.2,2.58c-2.26,0.26-3.93,0.25-6.71,1.03c-3.52,0.99-4.13,1.93-4.26,2.58
	c-0.18,0.91,0.48,1.73,0.65,1.94c1.48,1.82,4.51,1.06,5.16,0.9c0.76-0.19,1.77-0.45,1.94-1.16c0.16-0.73-0.65-1.44-0.78-1.55
	c2.59-0.41,4.54-0.73,6.2-1.03c0.75-0.14,1.77-0.33,2.45,0.26c0.66,0.57,0.65,1.61,0.64,2.06c-0.02,1.64-0.88,2.88-1.03,3.1
	c-2.49,3.63-3.25,8.22-5.29,12.13c-3.5,6.71-5.22,12.56-12.9,29.93c-3.26,7.37-6.86,14.89-14.07,29.94
	c-7.97,16.63-11.95,24.95-14.97,30.32c-5.98,10.64-7.78,12.33-13.67,23.61c-2.54,4.85-3.52,7.07-6.07,10.58
	c-1.8,2.49-3.85,4.89-14.32,14.45c-3.39,3.1-7.56,6.85-12.9,12.39c-3.43,3.55-6.39,6.85-7.23,11.74c-0.22,1.27-0.97,5.45,1.29,7.1
	c0.8,0.58,2.31,1.16,3.61,0.65c1.02-0.4,1.53-1.3,1.68-1.55c1.14-1.92,1.73-1.25,8.13-8.26c1.64-1.8,5.35-5.94,10.71-12.9
	c6.14-7.98,5.62-8.18,9.42-12.91c1.19-1.47,4.31-5.27,14.32-14.71c3.45-3.25,6.77-6.27,17.42-15.61
	c7.57-6.63,12.82-11.24,20.78-18.06c13.87-11.91,13.51-11.31,18.96-16.26c2.25-2.04,10.35-9.45,19.23-18.71
	c5.77-6.02,10.09-10.98,11.1-12.13c1.28-1.47,2.34-2.72,3.09-3.61C243.9,343.9,243.94,344.08,243.98,344.26z"/>
<path id="J.2" class="st1" d="M465.37,438.74c0.46-0.77,1.09-1.43,1.88-1.9c0.92-1.19,1.72-2.46,1.98-3.87
	c0.15-0.79,0.26-1.72,0.28-2.67c-0.01-0.1-0.02-0.2-0.04-0.3c-0.2-1-0.76-2-1.46-2.96c-0.47,0.59-0.92,1.14-1.33,1.64
	c-13.26,16.02-9.6,13.81-17.68,22.45c-4.84,5.19-5.37,5.14-22.96,21.16c-13.66,12.43-11.91,11.16-18.71,17.16
	c-7.35,6.48-13.55,11.63-25.94,21.94c-5.27,4.38-9.65,7.99-12.64,10.45c0.61-1.15,1.59-2.96,2.84-5.16
	c3.02-5.36,5.32-8.96,9.41-15.49c2.08-3.3,4.12-6.63,6.2-9.93c6.46-10.29,13.23-24.21,22.06-41.03c16.33-31.09,25.52-50.28,28-55.49
	c2.21-4.63,4.03-8.51,5.29-11.22c0.26-1.21,0.52-2.41,0.78-3.62c0.02-0.26,0.19-2.33-1.16-3.35c-0.29-0.22-1.17-0.79-3.49-0.26
	c-2.7,0.62-3.83,1.92-5.8,3.1c-2.93,1.74-5.8,2.07-10.2,2.58c-2.26,0.26-3.93,0.25-6.71,1.03c-3.52,0.99-4.13,1.93-4.26,2.58
	c-0.18,0.91,0.48,1.73,0.65,1.94c1.48,1.82,4.51,1.06,5.16,0.9c0.76-0.19,1.77-0.45,1.94-1.16c0.16-0.73-0.65-1.44-0.78-1.55
	c2.59-0.41,4.54-0.73,6.2-1.03c0.75-0.14,1.77-0.33,2.45,0.26c0.66,0.57,0.65,1.61,0.64,2.06c-0.02,1.64-0.88,2.88-1.03,3.1
	c-2.49,3.63-3.25,8.22-5.29,12.13c-3.5,6.71-5.22,12.56-12.9,29.93c-3.26,7.37-6.86,14.89-14.07,29.94
	c-7.97,16.63-11.95,24.95-14.97,30.32c-5.98,10.64-7.78,12.33-13.67,23.61c-2.54,4.85-3.52,7.07-6.07,10.58
	c-1.8,2.49-3.85,4.89-14.32,14.45c-3.39,3.1-7.56,6.85-12.9,12.39c-3.43,3.55-6.39,6.85-7.23,11.74c-0.22,1.27-0.97,5.45,1.29,7.1
	c0.8,0.58,2.31,1.16,3.61,0.65c1.02-0.4,1.53-1.3,1.68-1.55c1.14-1.92,1.73-1.25,8.13-8.26c1.64-1.8,5.35-5.94,10.71-12.9
	c6.14-7.98,5.62-8.18,9.42-12.91c1.19-1.47,4.31-5.27,14.32-14.71c3.45-3.25,6.77-6.27,17.42-15.61
	c7.57-6.63,12.82-11.24,20.78-18.06c13.87-11.91,13.51-11.31,18.96-16.26c2.25-2.04,10.35-9.45,19.23-18.71
	c5.77-6.02,10.09-10.98,11.1-12.13c1.28-1.47,2.34-2.72,3.09-3.61C465.29,438.38,465.33,438.57,465.37,438.74z"/>
<g id="esse">
	<path d="M320.99,328.55c0.31,0.78,0.46,1.24,0.46,1.37c0,1.17-1.46,3.07-4.36,5.68c-3.67,3.13-8.07,6.17-13.2,9.11
		c-5.13,2.94-10.53,5.52-16.19,7.74c-5.66,2.22-11.25,4.02-16.76,5.39c-5.51,1.37-10.56,2.06-15.15,2.06
		c-4.44,0-7.89-0.78-10.33-2.35c-2.45-1.57-3.67-4.51-3.67-8.82c0-3.66,0.54-7.45,1.61-11.37c1.07-3.92,2.49-7.77,4.25-11.56
		c1.76-3.79,3.79-7.38,6.08-10.78c2.3-3.39,4.74-6.47,7.35-9.21c5.82-6.14,12.36-11.07,19.63-14.8c7.27-3.72,14.58-5.59,21.93-5.59
		c3.06,0,5.47,0.56,7.23,1.67c1.76,1.11,2.64,2.58,2.64,4.41c0,2.62-1.92,5.36-5.74,8.23c-3.83,2.87-8.5,5.72-14.01,8.52
		c-5.51,2.81-11.25,5.39-17.22,7.74c-5.97,2.35-11.1,4.31-15.38,5.88c-0.46,0.91-1,2.22-1.61,3.92c-0.61,1.7-1.15,3.56-1.61,5.59
		c-0.46,2.03-0.88,4.18-1.26,6.47c-0.38,2.29-0.57,4.54-0.57,6.76c0,6.54,3.82,9.8,11.48,9.8c5.51,0,11.13-0.95,16.88-2.84
		c5.74-1.89,11.13-4.21,16.19-6.96c5.05-2.74,9.45-5.58,13.2-8.52C316.59,333.16,319.3,330.64,320.99,328.55z M261.52,318.36
		c3.82-1.04,8.11-2.55,12.86-4.51c4.74-1.96,9.11-3.85,13.09-5.68c4.59-2.22,7.84-4.34,9.76-6.37c1.91-2.03,2.87-4.34,2.87-6.96
		c0-1.17-0.46-2.28-1.38-3.33c-0.92-1.04-2.53-1.57-4.82-1.57c-3.83,0-8,1.24-12.51,3.72c-4.52,2.48-9,7.05-13.43,13.72
		c-1.07,1.57-2.14,3.27-3.21,5.1C263.66,314.31,262.59,316.27,261.52,318.36z"/>
	<path d="M363.46,296.8c0-0.13,0.04-0.23,0.12-0.3c0.07-0.06,0.11-0.16,0.11-0.3c0-0.39-0.19-0.94-0.57-1.66
		c-0.38-0.72-1-1.47-1.84-2.25c-0.84-0.78-1.95-1.44-3.33-1.96c-1.38-0.52-2.98-0.78-4.82-0.78c-1.84,0-3.64,0.29-5.4,0.88
		c-1.76,0.59-3.41,1.47-4.94,2.64c-1.53,1.17-2.76,2.62-3.67,4.31c-0.92,1.7-1.38,3.59-1.38,5.68c0,2.35,0.61,5.03,1.84,8.04
		c1.22,3.01,2.53,5.98,3.9,8.92c1.38,2.94,2.68,5.75,3.9,8.43c1.22,2.68,1.84,4.93,1.84,6.76c0,1.96-0.5,3.89-1.49,5.78
		c-1,1.9-2.18,3.63-3.56,5.19c-1.38,1.57-2.87,2.97-4.48,4.21c-1.61,1.24-3.02,2.25-4.25,3.04c-1.38,0.92-3.02,1.86-4.94,2.84
		c-1.92,0.98-4.1,1.9-6.54,2.74c-2.45,0.85-4.98,1.57-7.58,2.16c-2.6,0.59-5.28,0.88-8.04,0.88c-3.98,0-6.39-0.43-7.23-1.27
		c-0.84-0.85-1.26-1.47-1.26-1.86c0-1.17,0.23-2.48,0.69-3.92c0.46-1.44,1-2.74,1.61-3.92c0.61-1.17,1.23-2.16,1.84-2.94
		c0.61-0.78,1.07-1.17,1.38-1.17c0.46,0,0.69,0.2,0.69,0.59c0,0.13-0.04,0.2-0.12,0.2c-0.07,0-0.11,0.13-0.11,0.39
		c0,1.44,1.34,3.14,4.02,5.1c2.68,1.96,6.31,2.94,10.91,2.94c4.59,0,8.5-1.44,11.71-4.31c3.22-2.87,4.82-6.33,4.82-10.39
		c0-2.35-0.65-5.06-1.95-8.13c-1.3-3.07-2.76-6.11-4.36-9.11s-3.06-5.91-4.36-8.72c-1.3-2.81-1.95-5.13-1.95-6.96
		c0-3.39,1.3-6.57,3.9-9.5c2.6-2.94,5.85-5.52,9.76-7.74c3.9-2.22,8.15-3.95,12.74-5.19c4.59-1.24,8.95-1.86,13.09-1.86
		c4.13,0,6.77,0.3,7.92,0.88c1.15,0.59,1.72,1.01,1.72,1.27c0,0.66-0.42,1.63-1.26,2.94c-0.84,1.31-1.76,2.58-2.76,3.82
		c-1,1.24-2.03,2.32-3.1,3.23c-1.07,0.92-1.84,1.37-2.3,1.37c-0.77,0-1.15-0.26-1.15-0.78L363.46,296.8z"/>
	<path d="M417.42,296.8c0-0.13,0.04-0.23,0.12-0.3c0.07-0.06,0.11-0.16,0.11-0.3c0-0.39-0.19-0.94-0.57-1.66
		c-0.38-0.72-1-1.47-1.84-2.25c-0.84-0.78-1.95-1.44-3.33-1.96c-1.38-0.52-2.98-0.78-4.82-0.78c-1.84,0-3.64,0.29-5.4,0.88
		c-1.76,0.59-3.41,1.47-4.94,2.64c-1.53,1.17-2.76,2.62-3.67,4.31c-0.92,1.7-1.38,3.59-1.38,5.68c0,2.35,0.61,5.03,1.84,8.04
		c1.22,3.01,2.53,5.98,3.9,8.92c1.38,2.94,2.68,5.75,3.9,8.43c1.22,2.68,1.84,4.93,1.84,6.76c0,1.96-0.5,3.89-1.49,5.78
		c-1,1.9-2.18,3.63-3.56,5.19c-1.38,1.57-2.87,2.97-4.48,4.21c-1.61,1.24-3.02,2.25-4.25,3.04c-1.38,0.92-3.02,1.86-4.94,2.84
		c-1.92,0.98-4.1,1.9-6.54,2.74c-2.45,0.85-4.98,1.57-7.58,2.16c-2.6,0.59-5.28,0.88-8.04,0.88c-3.98,0-6.39-0.43-7.23-1.27
		c-0.84-0.85-1.26-1.47-1.26-1.86c0-1.17,0.23-2.48,0.69-3.92c0.46-1.44,1-2.74,1.61-3.92c0.61-1.17,1.23-2.16,1.84-2.94
		c0.61-0.78,1.07-1.17,1.38-1.17c0.46,0,0.69,0.2,0.69,0.59c0,0.13-0.04,0.2-0.12,0.2c-0.07,0-0.11,0.13-0.11,0.39
		c0,1.44,1.34,3.14,4.02,5.1c2.68,1.96,6.31,2.94,10.91,2.94c4.59,0,8.5-1.44,11.71-4.31c3.22-2.87,4.82-6.33,4.82-10.39
		c0-2.35-0.65-5.06-1.95-8.13c-1.3-3.07-2.76-6.11-4.36-9.11s-3.06-5.91-4.36-8.72c-1.3-2.81-1.95-5.13-1.95-6.96
		c0-3.39,1.3-6.57,3.9-9.5c2.6-2.94,5.85-5.52,9.76-7.74c3.9-2.22,8.15-3.95,12.74-5.19c4.59-1.24,8.95-1.86,13.09-1.86
		c4.13,0,6.77,0.3,7.92,0.88c1.15,0.59,1.72,1.01,1.72,1.27c0,0.66-0.42,1.63-1.26,2.94c-0.84,1.31-1.76,2.58-2.76,3.82
		c-1,1.24-2.03,2.32-3.1,3.23c-1.07,0.92-1.84,1.37-2.3,1.37c-0.77,0-1.15-0.26-1.15-0.78L417.42,296.8z"/>
	<path d="M495.25,328.55c0.31,0.78,0.46,1.24,0.46,1.37c0,1.17-1.46,3.07-4.36,5.68c-3.67,3.13-8.07,6.17-13.2,9.11
		c-5.13,2.94-10.53,5.52-16.19,7.74c-5.66,2.22-11.25,4.02-16.76,5.39c-5.51,1.37-10.56,2.06-15.15,2.06
		c-4.44,0-7.89-0.78-10.33-2.35c-2.45-1.57-3.67-4.51-3.67-8.82c0-3.66,0.54-7.45,1.61-11.37c1.07-3.92,2.49-7.77,4.25-11.56
		c1.76-3.79,3.79-7.38,6.08-10.78c2.3-3.39,4.74-6.47,7.35-9.21c5.82-6.14,12.36-11.07,19.63-14.8c7.27-3.72,14.58-5.59,21.93-5.59
		c3.06,0,5.47,0.56,7.23,1.67c1.76,1.11,2.64,2.58,2.64,4.41c0,2.62-1.92,5.36-5.74,8.23c-3.83,2.87-8.5,5.72-14.01,8.52
		c-5.51,2.81-11.25,5.39-17.22,7.74c-5.97,2.35-11.1,4.31-15.38,5.88c-0.46,0.91-1,2.22-1.61,3.92c-0.61,1.7-1.15,3.56-1.61,5.59
		c-0.46,2.03-0.88,4.18-1.26,6.47c-0.38,2.29-0.57,4.54-0.57,6.76c0,6.54,3.82,9.8,11.48,9.8c5.51,0,11.13-0.95,16.88-2.84
		c5.74-1.89,11.13-4.21,16.19-6.96c5.05-2.74,9.45-5.58,13.2-8.52C490.85,333.16,493.56,330.64,495.25,328.55z M435.78,318.36
		c3.82-1.04,8.11-2.55,12.86-4.51c4.74-1.96,9.11-3.85,13.09-5.68c4.59-2.22,7.84-4.34,9.76-6.37c1.91-2.03,2.87-4.34,2.87-6.96
		c0-1.17-0.46-2.28-1.38-3.33c-0.92-1.04-2.53-1.57-4.82-1.57c-3.83,0-8,1.24-12.51,3.72c-4.52,2.48-9,7.05-13.43,13.72
		c-1.07,1.57-2.14,3.27-3.21,5.1C437.93,314.31,436.85,316.27,435.78,318.36z"/>
</g>
<g id="J-dot.2">
	<path d="M457.47,329.95c-0.8-1.22-1.9-1.88-3.29-1.99c-1.09,0.84-2.23,1.88-3.42,3.11c-1.2,1.24-2.26,2.53-3.18,3.9
		c-0.92,1.37-1.67,2.8-2.26,4.29c-0.58,1.49-0.77,2.77-0.56,3.86c0.1,0.49,0.49,1.22,1.19,2.21c0.69,0.99,1.89,1.38,3.61,1.17
		c0.4-0.46,1.15-1.32,2.21-2.59s2.14-2.6,3.24-4.01c1.1-1.4,2.05-2.77,2.85-4.12c0.79-1.35,1.13-2.38,0.99-3.11
		C458.73,332.08,458.27,331.16,457.47,329.95z"/>
</g>
<g id="J-dot.1">
	<path d="M235.01,240.14c-0.8-1.22-1.9-1.88-3.29-1.99c-1.09,0.84-2.23,1.88-3.42,3.11c-1.2,1.24-2.26,2.53-3.18,3.9
		c-0.92,1.37-1.67,2.8-2.26,4.29c-0.58,1.49-0.77,2.77-0.56,3.86c0.1,0.49,0.49,1.22,1.19,2.21c0.69,0.99,1.89,1.38,3.61,1.17
		c0.4-0.46,1.15-1.32,2.21-2.59c1.06-1.27,2.14-2.6,3.24-4.01c1.1-1.4,2.05-2.77,2.85-4.12c0.79-1.35,1.13-2.38,0.99-3.11
		C236.28,242.27,235.82,241.36,235.01,240.14z"/>
</g>
<g id="ames">
	<path d="M547.21,435.48c-1.87,1.69-4.39,3.66-7.55,5.91c-3.17,2.25-6.44,4.43-9.81,6.54c-3.38,2.11-6.58,3.9-9.6,5.38
		c-3.02,1.48-5.32,2.22-6.9,2.22c-0.72,0-1.65-0.25-2.8-0.74c-1.15-0.49-2.26-1.13-3.34-1.9c-1.08-0.77-2.05-1.65-2.91-2.64
		c-0.86-0.98-1.29-1.9-1.29-2.74c0-0.14,0.03-0.53,0.11-1.16c0.07-0.63,0.39-1.83,0.97-3.59c0.57-1.76,1.44-4.32,2.59-7.7
		c1.15-3.38,2.73-7.94,4.75-13.71c-2.45,3.09-5.65,6.58-9.6,10.44c-3.96,3.87-8.13,7.52-12.51,10.97
		c-4.39,3.45-8.84,6.33-13.37,8.65c-4.53,2.32-8.6,3.48-12.19,3.48c-1.58,0-2.95-0.6-4.1-1.79c-1.15-1.19-1.73-3.2-1.73-6.01
		c0-3.51,0.61-7.42,1.83-11.71c1.22-4.29,2.77-8.58,4.64-12.87c1.87-4.29,3.99-8.37,6.36-12.23c2.37-3.87,4.78-7.2,7.23-10.02
		c2.3-2.67,5.03-5.41,8.2-8.23c3.16-2.81,6.65-5.38,10.46-7.7c3.81-2.32,7.87-4.22,12.19-5.69c4.31-1.48,8.84-2.21,13.59-2.21
		c3.31,0,6,0.21,8.09,0.63c2.08,0.42,3.7,0.63,4.85,0.63c1.15,0,2.23-0.07,3.24-0.21c1-0.14,1.8-0.28,2.37-0.42
		c0.57,0,0.86,0.42,0.86,1.26c0,0.42-0.43,0.84-1.29,1.26c-0.29,0.29-0.68,0.67-1.19,1.16c-0.51,0.49-1.12,1.44-1.83,2.85
		c-2.16,3.94-4.31,8.3-6.47,13.08c-2.16,4.78-4.1,9.49-5.83,14.13c-1.72,4.64-3.27,9-4.64,13.08c-1.37,4.08-2.41,7.46-3.13,10.13
		c-0.43,1.41-0.75,2.6-0.97,3.59c-0.22,0.98-0.4,1.83-0.54,2.53c-0.14,0.71-0.22,1.34-0.22,1.9c0,1.55,0.65,2.92,1.94,4.11
		c1.29,1.2,2.8,1.79,4.53,1.79c2.01,0,4.49-0.77,7.44-2.32c2.95-1.55,5.86-3.34,8.74-5.38c2.87-2.04,5.5-4.11,7.87-6.22
		c2.37-2.11,3.99-3.72,4.85-4.85c0,0.14,0.07,0.25,0.22,0.31c0.14,0.07,0.22,0.25,0.22,0.53
		C551.53,430.99,550.09,432.82,547.21,435.48z M525.21,384.01c0-0.98-0.72-1.83-2.16-2.53c-1.44-0.7-3.38-1.06-5.83-1.06
		c-7.48,0-14.09,2.25-19.85,6.75c-5.75,4.5-10.57,9.91-14.45,16.24c-3.88,6.33-6.83,12.94-8.84,19.83
		c-2.02,6.89-3.02,12.73-3.02,17.51c0,2.53,0.39,4.29,1.19,5.27c0.79,0.98,1.76,1.48,2.91,1.48c2.16,0,5.18-1.3,9.06-3.9
		c3.88-2.6,7.84-5.77,11.86-9.49c4.02-3.73,7.8-7.66,11.32-11.81c3.52-4.15,5.93-7.77,7.23-10.86c0.86-1.97,1.9-4.46,3.13-7.49
		c1.22-3.02,2.37-6.01,3.45-8.96c1.08-2.96,2.01-5.48,2.8-7.6C524.81,385.28,525.21,384.16,525.21,384.01z"/>
	<path d="M593.81,449.41c-0.72,1.69-1.44,3.06-2.16,4.11c-0.72,1.06-1.87,1.58-3.45,1.58c-1.73,0-3.42-0.18-5.07-0.53
		c-1.65-0.35-2.48-0.74-2.48-1.16c0-0.56,0.22-0.84,0.65-0.84c0.43,0,1.26-1.33,2.48-4.01c1.22-2.67,2.62-6.08,4.21-10.23
		c1.58-4.15,3.27-8.72,5.07-13.71c1.8-4.99,3.45-9.81,4.96-14.45c1.51-4.64,2.73-8.82,3.67-12.55c0.93-3.73,1.4-6.36,1.4-7.91
		c0-3.65-1.51-5.48-4.53-5.48c-1.72,0-4.06,1.06-7.01,3.16c-2.95,2.11-5.97,4.64-9.06,7.6c-3.09,2.95-6.01,5.91-8.74,8.86
		c-2.73,2.95-4.68,5.27-5.82,6.96c-0.72,1.13-1.8,2.85-3.24,5.17c-1.44,2.32-2.52,4.54-3.24,6.64l-10.14,28.06
		c-0.72,1.55-1.55,2.67-2.48,3.37c-0.94,0.7-1.98,1.06-3.13,1.06c-1.58,0-3.31-0.18-5.18-0.53c-1.87-0.35-2.8-0.67-2.8-0.95
		c0-0.14,0-0.35,0-0.63c0-0.28,0.14-0.42,0.43-0.42c0.72,0,1.83-1.58,3.34-4.75c1.51-3.16,3.13-6.99,4.85-11.5
		c1.73-4.5,3.41-9.14,5.07-13.92c1.65-4.78,2.98-8.79,3.99-12.02c0.72-2.39,1.47-4.89,2.26-7.49c0.79-2.6,1.51-5.02,2.16-7.28
		c0.65-2.25,1.15-4.22,1.51-5.91c0.36-1.69,0.54-2.95,0.54-3.8c0-2.25-0.36-3.37-1.08-3.37c-0.72,0-1.26,0.07-1.62,0.21
		c-0.36,0.14-0.68,0.21-0.97,0.21c-0.72,0-1.08-0.35-1.08-1.06c0-0.42,0.86-1.02,2.59-1.79c1.73-0.77,3.7-1.51,5.93-2.21
		c2.23-0.7,4.46-1.3,6.69-1.79c2.23-0.49,3.92-0.74,5.07-0.74c1,0,1.51,0.42,1.51,1.26c0,0.42-0.43,1.06-1.29,1.9
		c-0.43,0.56-1.19,2.21-2.26,4.96c-1.08,2.74-2.23,5.8-3.45,9.18c-1.22,3.37-2.41,6.61-3.56,9.7c-1.15,3.1-1.94,5.27-2.37,6.54
		c3.02-3.23,6.47-6.82,10.35-10.76c3.88-3.94,7.8-7.6,11.76-10.97c3.95-3.38,7.84-6.22,11.65-8.54c3.81-2.32,7.23-3.48,10.25-3.48
		c2.01,0,3.67,0.6,4.96,1.79c1.29,1.2,1.94,2.85,1.94,4.96c0,1.13-0.4,2.85-1.19,5.17c-0.79,2.32-1.69,4.82-2.7,7.49
		c-1.01,2.67-2.02,5.27-3.02,7.81c-1.01,2.53-1.73,4.64-2.16,6.33c3.16-3.51,6.54-7.24,10.14-11.18c3.59-3.93,7.3-7.56,11.11-10.86
		c3.81-3.3,7.55-6.04,11.22-8.23c3.67-2.18,7.15-3.27,10.46-3.27c2.3,0,4.1,0.63,5.39,1.9c1.29,1.26,1.94,2.88,1.94,4.85
		c0,2.39-1.01,6.3-3.02,11.71c-2.02,5.42-4.28,11.22-6.79,17.4c-2.52,6.19-4.78,12.2-6.79,18.04c-2.02,5.84-3.02,10.37-3.02,13.6
		c0,1.13,0.5,2.29,1.51,3.48c1,1.2,2.73,1.79,5.18,1.79c1.87,0,4.24-0.74,7.12-2.21c2.87-1.48,5.75-3.27,8.63-5.38
		c2.87-2.11,5.53-4.29,7.98-6.54c2.45-2.25,4.31-4.15,5.61-5.7c0.29,0,0.43,0.14,0.43,0.42c0,1.69-1.69,4.01-5.07,6.96
		c-3.38,2.96-7.33,5.91-11.86,8.86c-4.53,2.95-9.03,5.52-13.48,7.7c-4.46,2.18-7.84,3.27-10.14,3.27c-0.72,0-1.65-0.25-2.8-0.74
		c-1.15-0.49-2.26-1.09-3.34-1.79c-1.08-0.7-1.98-1.48-2.7-2.32c-0.72-0.84-1.08-1.61-1.08-2.32c0-0.42,0.18-1.09,0.54-2
		c0.36-0.91,0.68-1.72,0.97-2.43c1.73-4.08,3.63-8.82,5.72-14.24c2.08-5.41,4.06-10.76,5.93-16.03c1.87-5.27,3.45-10.13,4.75-14.55
		c1.29-4.43,1.94-7.7,1.94-9.81c0-1.26-0.47-2.39-1.4-3.37c-0.94-0.98-2.12-1.48-3.56-1.48c-1.73,0-4.07,1.13-7.01,3.38
		c-2.95,2.25-5.93,4.82-8.95,7.7c-3.02,2.88-5.75,5.77-8.2,8.65c-2.45,2.88-4.1,4.96-4.96,6.22c-0.72,0.98-1.29,1.83-1.73,2.53
		c-0.43,0.7-0.97,1.62-1.62,2.74c-0.65,1.13-1.4,2.78-2.26,4.96c-0.86,2.18-2.02,5.24-3.45,9.18L593.81,449.41z"/>
	<path d="M737.68,421.35c0.29,0.84,0.43,1.34,0.43,1.48c0,1.26-1.37,3.3-4.1,6.12c-3.45,3.37-7.59,6.64-12.4,9.81
		c-4.82,3.16-9.89,5.94-15.21,8.33c-5.32,2.39-10.57,4.33-15.75,5.8c-5.18,1.48-9.92,2.21-14.24,2.21c-4.17,0-7.41-0.84-9.71-2.53
		c-2.3-1.69-3.45-4.85-3.45-9.49c0-3.94,0.5-8.02,1.51-12.24c1-4.22,2.33-8.36,3.99-12.45c1.65-4.08,3.56-7.94,5.72-11.6
		c2.16-3.65,4.46-6.96,6.9-9.91c5.46-6.61,11.61-11.92,18.44-15.93c6.83-4.01,13.69-6.01,20.6-6.01c2.87,0,5.14,0.6,6.79,1.79
		c1.66,1.2,2.48,2.78,2.48,4.75c0,2.82-1.8,5.77-5.39,8.86c-3.6,3.09-7.98,6.15-13.16,9.18c-5.18,3.02-10.57,5.8-16.18,8.33
		c-5.61,2.53-10.43,4.64-14.45,6.33c-0.43,0.98-0.94,2.39-1.51,4.22c-0.57,1.83-1.08,3.83-1.51,6.01c-0.43,2.18-0.83,4.5-1.19,6.96
		s-0.54,4.89-0.54,7.28c0,7.04,3.59,10.55,10.78,10.55c5.18,0,10.46-1.02,15.86-3.06c5.4-2.04,10.46-4.54,15.21-7.49
		c4.75-2.95,8.88-6.01,12.4-9.18C733.54,426.31,736.09,423.6,737.68,421.35z M681.81,410.38c3.59-1.12,7.62-2.74,12.08-4.85
		c4.45-2.11,8.55-4.15,12.29-6.12c4.31-2.39,7.37-4.68,9.17-6.86c1.8-2.18,2.7-4.68,2.7-7.49c0-1.26-0.43-2.46-1.3-3.59
		c-0.86-1.12-2.37-1.69-4.53-1.69c-3.59,0-7.51,1.34-11.76,4.01c-4.24,2.67-8.45,7.59-12.62,14.77c-1.01,1.69-2.02,3.52-3.02,5.48
		C683.82,406.03,682.82,408.13,681.81,410.38z"/>
	<path d="M777.58,387.18c0-0.14,0.04-0.25,0.11-0.32c0.07-0.07,0.11-0.17,0.11-0.32c0-0.42-0.18-1.02-0.54-1.79
		c-0.36-0.77-0.94-1.58-1.72-2.43c-0.79-0.84-1.83-1.55-3.13-2.11c-1.3-0.56-2.81-0.84-4.53-0.84c-1.73,0-3.42,0.31-5.07,0.95
		c-1.66,0.63-3.2,1.58-4.64,2.85c-1.44,1.26-2.59,2.82-3.45,4.64c-0.86,1.83-1.3,3.87-1.3,6.12c0,2.53,0.57,5.42,1.73,8.65
		c1.15,3.24,2.37,6.43,3.67,9.6c1.29,3.16,2.51,6.19,3.67,9.07c1.15,2.88,1.73,5.31,1.73,7.28c0,2.11-0.47,4.19-1.4,6.22
		c-0.94,2.04-2.05,3.9-3.34,5.59c-1.3,1.69-2.7,3.2-4.21,4.53c-1.51,1.34-2.84,2.43-3.99,3.27c-1.29,0.99-2.84,2-4.64,3.06
		c-1.8,1.06-3.85,2.04-6.15,2.95c-2.3,0.91-4.68,1.69-7.12,2.32c-2.45,0.64-4.96,0.95-7.55,0.95c-3.74,0-6-0.46-6.79-1.37
		c-0.79-0.92-1.19-1.58-1.19-2.01c0-1.26,0.22-2.67,0.65-4.22c0.43-1.55,0.94-2.95,1.51-4.22c0.58-1.26,1.15-2.32,1.72-3.16
		c0.58-0.84,1.01-1.26,1.3-1.26c0.43,0,0.65,0.21,0.65,0.63c0,0.14-0.04,0.21-0.11,0.21c-0.07,0-0.11,0.14-0.11,0.42
		c0,1.55,1.26,3.38,3.78,5.48c2.51,2.11,5.93,3.16,10.25,3.16c4.31,0,7.98-1.55,11-4.64c3.02-3.09,4.53-6.82,4.53-11.18
		c0-2.53-0.61-5.45-1.83-8.76c-1.22-3.3-2.59-6.57-4.1-9.81c-1.51-3.24-2.88-6.36-4.1-9.39c-1.23-3.02-1.83-5.52-1.83-7.49
		c0-3.65,1.22-7.07,3.67-10.23c2.45-3.16,5.5-5.94,9.17-8.33c3.67-2.39,7.66-4.25,11.97-5.59c4.31-1.34,8.41-2.01,12.29-2.01
		c3.88,0,6.36,0.32,7.44,0.95c1.08,0.63,1.62,1.09,1.62,1.37c0,0.71-0.4,1.76-1.19,3.16c-0.79,1.41-1.65,2.78-2.59,4.11
		c-0.94,1.34-1.91,2.5-2.91,3.48c-1.01,0.99-1.73,1.48-2.16,1.48c-0.72,0-1.08-0.28-1.08-0.84L777.58,387.18z"/>
</g>
<g id="body">
	<path d="M436.43,468.59h11.23c6.17,0,9.48,2.97,9.48,7.19c0,3.47-2.3,5.72-4.97,6.39c2.3,0.58,6.12,2.63,6.12,7.23
		c0,5.85-4.83,8.44-10.44,8.44h-11.41V468.59z M446.83,481.17c5.57,0,7.68-1.88,7.68-5.26c0-2.88-2.21-5.22-6.72-5.22h-8.93v10.49
		H446.83z M438.87,495.75h9.06c4.23,0,7.78-1.92,7.78-6.22c0-3.72-2.62-6.27-9.11-6.27h-7.73V495.75z"/>
	<path d="M492.33,483.01c0,7.98-4.69,15.25-14.63,15.25c-9.06,0-14.36-6.64-14.36-15.04c0-8.27,5.11-15.04,14.68-15.04
		C486.85,468.18,492.33,474.49,492.33,483.01z M466.01,483.09c0,6.73,4.09,13.08,11.82,13.08c8.33,0,11.82-6.18,11.82-13.12
		c0-6.81-3.96-12.78-11.73-12.78C469.64,470.27,466.01,476.49,466.01,483.09z"/>
	<path d="M499.41,468.59h10.67c8.83,0,14.95,5.6,14.95,14.37c0,8.73-5.98,14.87-15,14.87h-10.63V468.59z M501.89,495.75h7.78
		c8.51,0,12.7-5.43,12.7-12.66c0-6.43-3.77-12.41-12.7-12.41h-7.78V495.75z"/>
	<path d="M538.97,497.84v-10.99c0-0.25-0.09-0.54-0.18-0.67l-11.5-17.59h2.9c3.22,4.97,8.83,13.62,10.21,15.79
		c1.38-2.17,7.04-10.74,10.49-15.79h2.76l-12.01,17.76c-0.09,0.17-0.14,0.33-0.14,0.63v10.86H538.97z"/>
</g>
<g id="wellness">
	<path d="M576.34,499l-7.58-29.24h2.19c1.84,7.02,5.98,23.19,6.6,26.61h0.04c0.51-2.72,5-18.88,6.92-26.61h2.34
		c1.8,7.14,6.17,24.31,6.6,26.57h0.04c0.86-4.14,5.43-19.59,7.31-26.57h2.15L594.59,499h-2.42c-1.8-6.89-6.06-23.81-6.53-26.32
		h-0.04c-0.7,3.8-4.92,19.05-6.88,26.32H576.34z"/>
	<path d="M623.93,484.63h-13.95v12.28h15.28l-0.31,2.09h-17.08v-29.24h16.76v2.09h-14.65v10.7h13.95V484.63z"/>
	<path d="M630.65,469.76h2.11v27.16h14.69l-0.39,2.09h-16.41V469.76z"/>
	<path d="M651.67,469.76h2.11v27.16h14.69l-0.39,2.09h-16.41V469.76z"/>
	<path d="M672.69,499v-29.24h3.13c4.26,7.02,14.26,23.35,15.98,26.53h0.04c-0.23-4.22-0.2-8.52-0.2-13.28v-13.24h2.15V499h-2.89
		c-4.06-6.77-14.22-23.77-16.18-26.99h-0.04c0.2,3.84,0.16,8.1,0.16,13.41V499H672.69z"/>
	<path d="M717.9,484.63h-13.95v12.28h15.28l-0.31,2.09h-17.08v-29.24h16.76v2.09h-14.65v10.7h13.95V484.63z"/>
	<path d="M725.05,491.15c0.82,3.89,3.24,6.18,7.74,6.18c5,0,6.92-2.67,6.92-5.85c0-3.3-1.37-5.35-7.39-6.94
		c-5.78-1.55-8.28-3.55-8.28-7.77c0-3.84,2.62-7.44,8.48-7.44c6.02,0,8.56,3.93,8.91,7.48h-2.19c-0.63-3.13-2.54-5.39-6.84-5.39
		c-3.95,0-6.1,1.96-6.1,5.22c0,3.22,1.8,4.47,6.84,5.81c7.7,2.05,8.83,5.35,8.83,8.86c0,4.3-2.93,8.02-9.26,8.02
		c-6.84,0-9.34-4.26-9.85-8.19H725.05z"/>
	<path d="M748.18,491.15c0.82,3.89,3.24,6.18,7.74,6.18c5,0,6.92-2.67,6.92-5.85c0-3.3-1.37-5.35-7.39-6.94
		c-5.78-1.55-8.28-3.55-8.28-7.77c0-3.84,2.62-7.44,8.48-7.44c6.02,0,8.56,3.93,8.91,7.48h-2.19c-0.63-3.13-2.54-5.39-6.84-5.39
		c-3.95,0-6.1,1.96-6.1,5.22c0,3.22,1.8,4.47,6.84,5.81c7.7,2.05,8.83,5.35,8.83,8.86c0,4.3-2.93,8.02-9.26,8.02
		c-6.84,0-9.34-4.26-9.85-8.19H748.18z"/>
</g>
<g id="delivering.trans.res">
	<path d="M444.54,503.21v14.26c0,1.15,0,2.26,0.02,3.46h-1.15c-0.05-0.29-0.07-1.42-0.07-2.02c-0.6,1.47-1.95,2.31-4.04,2.31
		c-3.13,0-5-2.55-5-6.16c0-3.7,2.04-6.44,5.31-6.44c2.41,0,3.37,1.03,3.73,1.8v-7.21H444.54z M435.57,515.02
		c0,3.29,1.71,5.07,3.78,5.07c3.17,0,4.04-2.19,4.04-5.46c0-3.1-0.75-4.88-3.82-4.88C437.19,509.75,435.57,511.65,435.57,515.02z"/>
	<path d="M448.75,515.07c0.02,3.1,1.59,5.03,3.9,5.03c2.26,0,3.03-1.27,3.46-2.26h1.23c-0.5,1.59-1.78,3.39-4.74,3.39
		c-3.66,0-5.07-3.15-5.07-6.2c0-3.44,1.71-6.4,5.22-6.4c3.7,0,4.88,3.2,4.88,5.46c0,0.34,0,0.67-0.02,0.99H448.75z M456.37,514.01
		c-0.02-2.38-1.32-4.26-3.68-4.26c-2.48,0-3.61,1.73-3.87,4.26H456.37z"/>
	<path d="M460.65,520.93v-17.72h1.2v17.72H460.65z"/>
	<path d="M465.8,503.21h1.2v2.33h-1.2V503.21z M465.8,508.91h1.2v12.02h-1.2V508.91z"/>
	<path d="M470.75,508.91c1.95,5.51,3.29,9.26,3.75,10.8h0.02c0.26-0.89,1.61-4.47,3.94-10.8h1.27l-4.54,12.02h-1.44l-4.28-12.02
		H470.75z"/>
	<path d="M482.37,515.07c0.02,3.1,1.59,5.03,3.9,5.03c2.26,0,3.03-1.27,3.46-2.26h1.23c-0.5,1.59-1.78,3.39-4.74,3.39
		c-3.66,0-5.07-3.15-5.07-6.2c0-3.44,1.71-6.4,5.22-6.4c3.7,0,4.88,3.2,4.88,5.46c0,0.34,0,0.67-0.02,0.99H482.37z M489.99,514.01
		c-0.02-2.38-1.32-4.26-3.68-4.26c-2.48,0-3.61,1.73-3.87,4.26H489.99z"/>
	<path d="M494.17,512.18c0-2.02-0.02-2.89-0.02-3.27h1.18c0.02,0.38,0.05,1.15,0.05,2.69c0.7-1.8,2.24-2.88,4.18-2.98v1.3
		c-2.5,0.17-4.18,1.9-4.18,4.76v6.25h-1.2V512.18z"/>
	<path d="M501.77,503.21h1.2v2.33h-1.2V503.21z M501.77,508.91h1.2v12.02h-1.2V508.91z"/>
	<path d="M506.91,511.94c0-1.06,0-2.07-0.02-3.03h1.18c0.05,0.38,0.07,1.95,0.05,2.29c0.53-1.23,1.51-2.57,3.99-2.57
		c2.14,0,4.04,1.2,4.04,4.52v7.79h-1.2v-7.6c0-2.14-0.89-3.54-2.98-3.54c-2.86,0-3.85,2.38-3.85,5v6.13h-1.2V511.94z"/>
	<path d="M529.28,520.12c0,3.85-1.71,5.87-5.19,5.87c-3.13,0-4.42-1.75-4.71-3.58h1.23c0.43,1.66,1.8,2.45,3.54,2.45
		c3.13,0,3.99-2.02,3.99-5.07v-1.25c-0.65,1.56-1.83,2.41-4.02,2.41c-2.81,0-4.98-2.28-4.98-6.01c0-4.04,2.31-6.3,5.15-6.3
		c2.45,0,3.51,1.15,3.85,2.12c0.02-0.7,0.05-1.54,0.07-1.83h1.13c0,0.43-0.05,2.33-0.05,3.49V520.12z M520.4,514.88
		c0,2.86,1.52,4.93,3.82,4.93c3.01,0,3.92-2,3.92-5.12c0-3.17-0.96-4.93-3.85-4.93C521.53,509.75,520.4,512.13,520.4,514.88z"/>
	<path d="M537.67,508.91h2.24v-3.75h1.2v3.75h2.86v1.13h-2.86v7.82c0,1.35,0.29,2.12,1.44,2.12c0.36,0,0.87-0.02,1.25-0.14v1.06
		c-0.41,0.17-0.99,0.22-1.49,0.22c-1.54,0-2.41-0.77-2.41-2.69v-8.37h-2.24V508.91z"/>
	<path d="M546.21,512.18c0-2.02-0.02-2.89-0.02-3.27h1.18c0.02,0.38,0.05,1.15,0.05,2.69c0.7-1.8,2.24-2.88,4.18-2.98v1.3
		c-2.5,0.17-4.18,1.9-4.18,4.76v6.25h-1.2V512.18z"/>
	<path d="M561.84,518.65c0,1.06,0.1,1.9,0.17,2.28h-1.15c-0.1-0.29-0.17-0.82-0.22-1.85c-0.41,0.89-1.47,2.14-3.94,2.14
		c-2.79,0-3.99-1.8-3.99-3.61c0-2.65,2.04-3.85,5.65-3.85c1.01,0,1.8,0,2.28,0v-1.23c0-1.2-0.36-2.81-3.1-2.81
		c-2.43,0-2.79,1.27-3.05,2.26h-1.2c0.14-1.32,0.96-3.37,4.28-3.37c2.74,0,4.28,1.15,4.28,3.8V518.65z M560.66,514.8
		c-0.46,0-1.56,0-2.36,0c-2.67,0-4.33,0.7-4.33,2.77c0,1.51,1.08,2.55,2.77,2.55c3.44,0,3.92-2.29,3.92-4.88V514.8z"/>
	<path d="M565.8,511.94c0-1.06,0-2.07-0.02-3.03h1.18c0.05,0.38,0.07,1.95,0.05,2.29c0.53-1.23,1.52-2.57,3.99-2.57
		c2.14,0,4.04,1.2,4.04,4.52v7.79h-1.2v-7.6c0-2.14-0.89-3.54-2.98-3.54c-2.86,0-3.85,2.38-3.85,5v6.13h-1.2V511.94z"/>
	<path d="M578.91,517.62c0.41,1.56,1.52,2.5,3.42,2.5c2.14,0,3.01-0.99,3.01-2.33c0-1.37-0.58-2.04-3.27-2.69
		c-3.1-0.75-3.87-1.68-3.87-3.27c0-1.66,1.25-3.2,3.97-3.2c2.72,0,4.02,1.66,4.21,3.37h-1.2c-0.22-1.01-1.01-2.26-3.05-2.26
		c-2.09,0-2.69,1.03-2.69,2c0,1.11,0.58,1.66,2.96,2.24c3.39,0.82,4.23,1.92,4.23,3.73c0,2.19-1.78,3.53-4.3,3.53
		c-2.74,0-4.28-1.44-4.62-3.61H578.91z"/>
	<path d="M589.97,520.93v-10.89h-2.07v-1.13h2.07v-1.71c0-2.02,0.58-4.23,3.27-4.23c0.36,0,0.89,0.07,1.18,0.17v1.15
		c-0.36-0.1-0.94-0.14-1.3-0.14c-1.42,0-1.95,1.01-1.95,3.1v1.66h2.62v1.13h-2.62v10.89H589.97z"/>
	<path d="M605.43,514.9c0,3.34-1.85,6.32-5.43,6.32c-3.25,0-5.27-2.67-5.27-6.3c0-3.44,1.9-6.3,5.39-6.3
		C603.31,508.62,605.43,511.12,605.43,514.9z M596,514.92c0,2.86,1.54,5.17,4.09,5.17c2.6,0,4.06-2.14,4.06-5.17
		c0-2.84-1.44-5.17-4.11-5.17C597.3,509.75,596,512.04,596,514.92z"/>
	<path d="M608.41,512.18c0-2.02-0.02-2.89-0.02-3.27h1.18c0.02,0.38,0.05,1.15,0.05,2.69c0.7-1.8,2.24-2.88,4.18-2.98v1.3
		c-2.5,0.17-4.18,1.9-4.18,4.76v6.25h-1.2V512.18z"/>
	<path d="M615.93,512.01c0-1.03,0-2.16-0.02-3.1h1.18c0.02,0.41,0.07,1.44,0.05,2.14c0.51-1.2,1.61-2.43,3.61-2.43
		c1.68,0,3.01,0.84,3.49,2.38c0.6-1.25,1.8-2.38,3.92-2.38c1.85,0,3.78,1.06,3.78,4.4v7.91h-1.2v-7.77c0-1.61-0.58-3.37-2.81-3.37
		c-2.33,0-3.39,1.88-3.39,4.21v6.93h-1.18v-7.74c0-1.76-0.53-3.39-2.74-3.39c-2.33,0-3.46,2.07-3.46,4.52v6.61h-1.2V512.01z"/>
	<path d="M643.97,518.65c0,1.06,0.1,1.9,0.17,2.28h-1.15c-0.1-0.29-0.17-0.82-0.22-1.85c-0.41,0.89-1.47,2.14-3.94,2.14
		c-2.79,0-3.99-1.8-3.99-3.61c0-2.65,2.04-3.85,5.65-3.85c1.01,0,1.8,0,2.28,0v-1.23c0-1.2-0.36-2.81-3.1-2.81
		c-2.43,0-2.79,1.27-3.05,2.26h-1.2c0.14-1.32,0.96-3.37,4.28-3.37c2.74,0,4.28,1.15,4.28,3.8V518.65z M642.79,514.8
		c-0.46,0-1.56,0-2.36,0c-2.67,0-4.33,0.7-4.33,2.77c0,1.51,1.08,2.55,2.77,2.55c3.44,0,3.92-2.29,3.92-4.88V514.8z"/>
	<path d="M646.02,508.91h2.24v-3.75h1.2v3.75h2.86v1.13h-2.86v7.82c0,1.35,0.29,2.12,1.44,2.12c0.36,0,0.87-0.02,1.25-0.14v1.06
		c-0.41,0.17-0.99,0.22-1.49,0.22c-1.54,0-2.41-0.77-2.41-2.69v-8.37h-2.24V508.91z"/>
	<path d="M654.77,503.21h1.2v2.33h-1.2V503.21z M654.77,508.91h1.2v12.02h-1.2V508.91z"/>
	<path d="M669.65,514.9c0,3.34-1.85,6.32-5.43,6.32c-3.25,0-5.27-2.67-5.27-6.3c0-3.44,1.9-6.3,5.39-6.3
		C667.54,508.62,669.65,511.12,669.65,514.9z M660.23,514.92c0,2.86,1.54,5.17,4.09,5.17c2.6,0,4.06-2.14,4.06-5.17
		c0-2.84-1.44-5.17-4.11-5.17C661.53,509.75,660.23,512.04,660.23,514.92z"/>
	<path d="M672.63,511.94c0-1.06,0-2.07-0.02-3.03h1.18c0.05,0.38,0.07,1.95,0.05,2.29c0.53-1.23,1.52-2.57,3.99-2.57
		c2.14,0,4.04,1.2,4.04,4.52v7.79h-1.2v-7.6c0-2.14-0.89-3.54-2.98-3.54c-2.86,0-3.85,2.38-3.85,5v6.13h-1.2V511.94z"/>
	<path d="M693.92,518.65c0,1.06,0.1,1.9,0.17,2.28h-1.15c-0.1-0.29-0.17-0.82-0.22-1.85c-0.41,0.89-1.47,2.14-3.94,2.14
		c-2.79,0-3.99-1.8-3.99-3.61c0-2.65,2.04-3.85,5.65-3.85c1.01,0,1.8,0,2.28,0v-1.23c0-1.2-0.36-2.81-3.1-2.81
		c-2.43,0-2.79,1.27-3.05,2.26h-1.2c0.14-1.32,0.96-3.37,4.28-3.37c2.74,0,4.28,1.15,4.28,3.8V518.65z M692.74,514.8
		c-0.46,0-1.56,0-2.36,0c-2.67,0-4.33,0.7-4.33,2.77c0,1.51,1.08,2.55,2.77,2.55c3.44,0,3.92-2.29,3.92-4.88V514.8z"/>
	<path d="M697.88,520.93v-17.72h1.2v17.72H697.88z"/>
	<path d="M709.28,512.18c0-2.02-0.02-2.89-0.02-3.27h1.18c0.02,0.38,0.05,1.15,0.05,2.69c0.7-1.8,2.24-2.88,4.18-2.98v1.3
		c-2.5,0.17-4.18,1.9-4.18,4.76v6.25h-1.2V512.18z"/>
	<path d="M717.14,515.07c0.02,3.1,1.59,5.03,3.9,5.03c2.26,0,3.03-1.27,3.46-2.26h1.23c-0.5,1.59-1.78,3.39-4.74,3.39
		c-3.66,0-5.07-3.15-5.07-6.2c0-3.44,1.71-6.4,5.22-6.4c3.7,0,4.88,3.2,4.88,5.46c0,0.34,0,0.67-0.02,0.99H717.14z M724.76,514.01
		c-0.02-2.38-1.32-4.26-3.68-4.26c-2.48,0-3.61,1.73-3.87,4.26H724.76z"/>
	<path d="M729.23,517.62c0.41,1.56,1.52,2.5,3.42,2.5c2.14,0,3.01-0.99,3.01-2.33c0-1.37-0.58-2.04-3.27-2.69
		c-3.1-0.75-3.87-1.68-3.87-3.27c0-1.66,1.25-3.2,3.97-3.2c2.72,0,4.02,1.66,4.21,3.37h-1.2c-0.22-1.01-1.01-2.26-3.05-2.26
		c-2.09,0-2.69,1.03-2.69,2c0,1.11,0.58,1.66,2.96,2.24c3.39,0.82,4.23,1.92,4.23,3.73c0,2.19-1.78,3.53-4.3,3.53
		c-2.74,0-4.28-1.44-4.62-3.61H729.23z"/>
	<path d="M748.62,517.42c0,1.18,0.02,3.05,0.02,3.51h-1.15c-0.05-0.31-0.07-1.11-0.07-2.09c-0.5,1.42-1.73,2.38-3.87,2.38
		c-1.73,0-3.94-0.67-3.94-4.35v-7.96h1.18v7.67c0,1.76,0.55,3.46,2.93,3.46c2.69,0,3.7-1.52,3.7-4.95v-6.18h1.2V517.42z"/>
	<path d="M752.56,520.93v-17.72h1.2v17.72H752.56z"/>
	<path d="M756.07,508.91h2.24v-3.75h1.2v3.75h2.86v1.13h-2.86v7.82c0,1.35,0.29,2.12,1.44,2.12c0.36,0,0.87-0.02,1.25-0.14v1.06
		c-0.41,0.17-0.99,0.22-1.49,0.22c-1.54,0-2.41-0.77-2.41-2.69v-8.37h-2.24V508.91z"/>
	<path d="M765.23,517.62c0.41,1.56,1.52,2.5,3.42,2.5c2.14,0,3.01-0.99,3.01-2.33c0-1.37-0.58-2.04-3.27-2.69
		c-3.1-0.75-3.87-1.68-3.87-3.27c0-1.66,1.25-3.2,3.97-3.2c2.72,0,4.02,1.66,4.21,3.37h-1.2c-0.22-1.01-1.01-2.26-3.05-2.26
		c-2.09,0-2.69,1.03-2.69,2c0,1.11,0.58,1.66,2.96,2.24c3.39,0.82,4.23,1.92,4.23,3.73c0,2.19-1.78,3.53-4.3,3.53
		c-2.74,0-4.28-1.44-4.62-3.61H765.23z"/>
</g>
</svg>
