<?xml version="1.0" encoding="utf-8"?>
<!-- Generator: Adobe Illustrator 24.3.0, SVG Export Plug-In . SVG Version: 6.00 Build 0)  -->
<svg version="1.1" id="Layer_1" xmlns="http://www.w3.org/2000/svg" xmlns:xlink="http://www.w3.org/1999/xlink" x="0px" y="0px"
	 viewBox="0 0 864 864" style="enable-background:new 0 0 864 864;" xml:space="preserve">
<g id="logo">
	<path d="M175.37,486.74c-7.9,1.18-18.7,2.16-31.48,1.37c-9.06-0.56-20.31-1.35-33.88-6.16c-20.72-7.35-33.4-19.39-36.96-22.93
		c-7.07-7.02-15.36-15.47-18.48-29.09c-1.4-6.13-1.33-11.44-1.03-15.06c12.37-12.09,22.92-21.52,30.45-28.06
		c8.56-7.42,14.31-12.04,35.25-29.77c5.76-4.88,10.5-8.91,13.69-11.63c-5.22,2.36-12.53,5.92-20.87,10.95
		c-13.46,8.11-23.29,16.19-29.77,21.56c-4.02,3.33-5.5,4.75-22.93,19.5c-1.47,1.25-3.09,2.62-4.45,3.76
		c-0.66-4.3-1.19-10.68,0-18.14c2.49-15.65,10.97-26.26,25.32-41.75c24.05-25.96,36.08-38.94,55.78-53.04
		c10.11-7.23,24.65-17.51,46.2-26.69c7.63-3.25,28.74-11.74,57.83-15.74c20.03-2.76,35.84-4.76,55.43,0.68
		c9.97,2.77,22.68,6.49,32.85,18.14c9.44,10.81,11.74,22.77,13,29.77c0.73,4.06,3.23,19.83-6.16,49.27
		c-8.52,26.72-20.6,45.11-30.45,59.88c-15.94,23.89-31.12,39.6-35.25,43.8c-25.13,25.57-48.72,39.85-55.43,43.8
		c-12.21,7.18-31.6,18.38-59.54,25.32c-26.37,6.55-46.23,5.79-52.01,5.47c-16.96-0.92-31.97-1.72-46.88-11.98
		c-5.57-3.83-18.31-12.59-22.58-29.43c-3.95-15.57,1.72-28.63,3.76-32.85c-1.94-2.97-3.88-5.93-5.82-8.9
		c-1.96,3.3-4.44,8.03-6.5,14.03c-0.89,2.59-4.43,12.85-4.11,22.58c0.68,20.85,18.91,35.4,22.58,38.32
		c13.46,10.74,27.36,12.9,42.43,15.06c24.71,3.53,43.9-0.01,61.59-3.42c32.74-6.32,56.75-17.1,66.73-21.9
		c30.23-14.53,49.94-30.96,64.33-43.12c15.63-13.2,33.47-28.49,50.64-53.72c14.81-21.75,21.39-39.53,22.93-43.8
		c4.95-13.74,10.92-30.89,9.58-53.38c-0.69-11.52-1.57-26.29-11.63-41.06c-10.21-14.98-24.12-21.55-30.11-24.3
		c-11.49-5.26-20.9-6.18-35.93-7.53c-11.02-0.98-27.22-1.63-47.91,0.68c-32.95,3.68-57.04,12.59-62.62,14.71
		c-28,10.64-46.72,23.72-60.57,33.53c-20.13,14.27-40.4,28.64-58.17,54.75c-12.05,17.71-18.58,35.72-21.22,42.77
		c-2.9,7.76-4.6,13.65-5.82,19.85c-1.76,8.95-3.45,17.56-1.71,28.06c2.67,16.14,11.8,26.92,15.06,30.45
		c7.28,7.89,15.12,11.53,30.8,18.82c8.72,4.05,17.76,8.25,30.8,11.29c4.26,0.99,19.91,4.42,40.72,3.08
		c12.11-0.78,22.2-2.93,29.6-4.96C173.43,488.68,174.4,487.71,175.37,486.74z"/>
	<path d="M181.19,353.03c-1.34-1.92,5.01-8.53,12.58-16.17c13.92-14.05,20.79-21.17,28.74-27.97
		c13.51-11.56,20.21-17.67,28.23-21.81c3.49-1.8,14.48-7.2,28.49-7.19c6.1,0.01,9.29,1.03,11.81,2.57
		c6.21,3.78,8.27,10.59,9.5,14.89c1.85,6.48,2.46,14.6-0.51,26.43c-2.71,10.79-7.75,19.32-17.71,35.93
		c-9.73,16.23-6.82,9.27-19.76,29.77c-7.24,11.48-10.84,17.92-18.99,21.04c-2.01,0.77-8.9,3.42-14.89,0
		c-1.37-0.78-6.09-3.82-6.42-9.24c-0.16-2.65,0.95-4.68,2.31-7.19c1.87-3.44,3.85-5.28,6.42-7.96c3.06-3.19,5.8-6.69,8.73-10.01
		c2.08-2.36,7.09-8.03,10.78-12.58c5.1-6.28,4.84-6.88,14.12-20.02c8.05-11.4,9.83-13.2,12.83-19.25c2.45-4.95,4.21-9.71,4.88-15.4
		c0.6-5.13,1.19-10.17-2.05-13.86c-3.43-3.9-9.03-3.86-10.27-3.85c-6.11,0.05-10.62,3.58-12.4,4.96
		c-14.31,11.1-29.47,21.06-43.97,31.91c-2.91,2.18-7.39,5.87-16.34,13.26c-6.86,5.66-7.6,6.44-8.38,7.96
		c-0.56,1.09-1.34,2.96-3.25,3.85C184.09,353.84,181.81,353.91,181.19,353.03z"/>
	<path d="M202.57,430.1c-5.32-0.27-9.2,2.74-10.95,4.11c-2.01,1.56-4.27,3.32-5.13,6.5c-0.65,2.39-0.18,4.41,0,5.13
		c1.04,4.24,4.37,6.6,6.16,7.87c1.76,1.25,6.21,3.95,12.32,3.59c1.02-0.06,6.23-0.45,10.95-4.28c2.19-1.78,4.51-3.65,4.79-6.5
		c0.3-3.03-1.86-5.34-5.99-9.75c-3.71-3.97-6.35-5.13-7.19-5.47C206.58,430.91,204.87,430.22,202.57,430.1z"/>
</g>
<g>
	<path d="M370.61,467.46c0-16.65,12.96-40.08,12.96-68.45c0-6.04-2.86-8.97-6.57-8.97c-1.52,0-2.36-0.73-2.36-2.2
		c0-3.84,8.92-9.88,18.52-9.88c8.75,0,14.31,5.12,14.31,14.28c0,15.37-13.47,52.52-13.47,70.09c0,4.76,2.36,7.5,5.39,7.5
		c2.86,0,4.21-1.46,6.4-3.84c1.18-1.28,1.85-1.83,2.86-1.83c1.52,0,2.36,1.46,2.36,2.56c0,2.01-1.01,3.48-2.69,5.86
		c-3.54,4.94-10.61,12.08-21.21,12.08C375.83,484.66,370.61,476.97,370.61,467.46z"/>
	<path d="M474.82,484.66c-10.1,0-12.96-9.7-12.96-9.7s-8.92,9.7-21.21,9.7c-9.93,0-18.01-7.32-18.01-21.41
		c0-18.12,10.1-36.6,34.17-36.6c8.92,0,11.45,3.48,14.14,3.48c2.86,0,10.1-3.48,13.97-3.48c1.51,0,2.53,0.73,2.53,2.75
		c0,4.39-5.89,18.67-5.89,32.94c0,4.76,2.69,7.5,5.72,7.5c2.86,0,4.21-1.46,6.4-3.84c1.18-1.28,1.85-1.83,2.86-1.83
		c1.51,0,2.36,1.46,2.36,2.56c0,2.01-1.01,3.48-2.69,5.86C492.67,477.52,485.43,484.66,474.82,484.66z M458.32,434.7
		c-9.6,0-13.8,19.22-13.8,29.28c0,4.76,2.02,8.6,5.72,8.6c3.2,0,6.57-3.11,8.75-8.6c2.02-4.76,4.38-16.84,4.38-23.97
		C463.38,436.71,461.86,434.7,458.32,434.7z"/>
	<path d="M531.05,479.9c0,3.11-1.18,3.84-3.7,3.84c-5.05,0-11.62,0.92-14.14,0.92c-2.19,0-3.54-0.92-3.54-4.03
		c0-6.77,7.07-31.48,7.07-41.36c0-3.11-1.18-3.48-1.18-5.86c0-4.03,9.09-6.77,18.86-6.77c3.7,0,5.72,1.65,5.72,4.76
		c0,2.93-1.01,7.87-1.01,7.87s4.54-11.9,14.81-11.9c4.71,0,7.74,3.11,7.74,8.6c0,6.77-4.04,14.46-10.94,14.46
		c-4.71,0-7.07-3.66-7.07-6.96c-1.01,0.37-3.2,2.75-5.72,7.87C534.92,457.57,531.05,472.76,531.05,479.9z"/>
	<path d="M634.59,447.32c0,20.5-11.95,38.07-32.66,38.07c-14.82,0-24.41-9.33-24.41-23.98c0-17.75,12.96-35.5,36.03-35.5
		C626,425.91,634.59,434.7,634.59,447.32z M618.76,451.17c-5.22-2.2-6.73-4.21-6.73-7.5c0-4.58,2.53-6.04,2.53-7.14
		c0-0.92-0.5-1.46-1.51-1.46c-0.67,0-2.36,0.55-4.71,2.56c-4.21,3.66-8.25,10.43-8.25,20.86c0,8.24,4.38,13.54,10.94,13.54
		c6.73,0,11.11-7.5,11.11-13.91C622.13,455.01,621.12,452.26,618.76,451.17z"/>
	<path d="M662.2,480.27c-4.88,0-6.9,4.39-9.43,4.39c-1.35,0-2.52-0.73-2.52-2.2v-3.48c0-8.42,0.34-15.19,6.9-18.48
		c9.76-4.76,15.99-8.78,20.54-11.71c1.52-0.92,2.02-1.83,2.02-2.56c0-1.1-1.35-2.38-9.09-2.38c-3.37,0-7.41,1.46-10.27,3.84
		c-1.68,1.28-2.19,2.01-3.54,2.01c-1.01,0-1.85-0.92-1.85-2.56c0.17-4.58,7.41-20.5,17.51-20.5c6.57,0,13.8,2.56,20.71,2.56
		c4.88,0,6.73-1.46,8.25-1.46c1.68,0,2.53,0.73,2.53,2.56c0,3.48-1.68,13.18-7.74,17.39c-6.57,4.58-11.45,7.32-18.69,12.08
		c-1.18,0.92-2.19,1.83-2.19,2.93c0,0.92,0.5,1.83,2.02,2.01c3.03,0.73,9.76,0.92,14.31,0.92c4.38,0,9.09-0.37,13.13-3.29
		c1.52-1.1,2.53-2.01,3.54-2.01c1.18,0,1.85,0.92,1.85,2.01c0,2.01-1.35,4.39-3.03,6.96c-6.06,8.42-12.63,15.37-22.05,15.37
		C673.48,484.66,669.6,480.27,662.2,480.27z"/>
	<path d="M735.77,466.54c0,4.58,1.52,7.69,4.55,7.69c2.36,0,3.7-1.65,3.7-4.94c0-10.8-16.67-12.45-16.67-26.17
		c0-11.53,10.61-17.39,23.23-17.39c12.29,0,17.85,5.12,17.85,12.63c0,4.94-2.36,9.33-7.91,9.33c-3.2,0-6.06-2.75-6.06-6.22
		c0-2.75,1.35-3.84,1.35-5.49c0-1.83-1.35-2.56-3.2-2.56c-2.19,0-4.88,2.56-4.88,6.04c0,10.8,18.52,12.26,18.52,25.62
		c0,11.9-8.75,19.95-23.57,19.95c-12.63,0-21.89-6.04-21.89-15.92c0-5.86,3.87-9.33,7.74-9.33
		C733.07,459.77,735.77,462.15,735.77,466.54z"/>
	<path d="M837.28,468.19c1.68-1.28,2.86-2.2,3.87-2.2c1.35,0,2.19,1.1,2.19,2.2c0,1.83-1.01,3.29-3.7,6.22
		c-3.7,4.03-11.11,10.8-23.4,10.8c-15.83,0-27.44-7.69-27.44-25.26c0-17.75,13.13-33.67,35.52-33.67c11.45,0,16.67,5.49,16.67,13.36
		c0,10.43-11.28,20.5-28.11,21.96c0,6.41,5.39,11.35,11.78,11.35C830.38,472.95,834.59,470.2,837.28,468.19z M828.7,438.36
		c0-2.75-1.35-4.21-4.04-4.21c-5.05,0-11.78,8.97-11.78,19.77C822.47,451.9,828.7,442.75,828.7,438.36z"/>
</g>
<g>
</g>
<g>
</g>
<g>
</g>
<g>
</g>
<g>
</g>
<g>
</g>
</svg>
