<?xml version="1.0" encoding="utf-8"?>
<!-- Generator: Adobe Illustrator 24.3.0, SVG Export Plug-In . SVG Version: 6.00 Build 0)  -->
<svg version="1.1" id="mitochondria-balance-logo-1"
	 xmlns="http://www.w3.org/2000/svg" xmlns:xlink="http://www.w3.org/1999/xlink" x="0px" y="0px" viewBox="0 0 864 864"
	 style="enable-background:new 0 0 864 864;" xml:space="preserve">
<style type="text/css">
	.st0{fill:url(#ekg-top-back_1_);}
	.st1{fill:url(#ekg-top-front_1_);}
	.st2{fill:url(#ekg-middle-back-3_1_);}
	.st3{fill:url(#ekg-middle-front-3_1_);}
	.st4{fill:url(#ekg-middle-back-2_1_);}
	.st5{fill:url(#ekg-middle-front-2_1_);}
	.st6{fill:url(#ekg-middle-back-1_1_);}
	.st7{fill:url(#ekg-middle-front-1_1_);}
	.st8{fill:url(#ekg-bottom-back_1_);}
	.st9{fill:url(#ekg-bottom-front_1_);}
	.st10{fill:url(#dna-red-top_1_);}
	.st11{fill:url(#dna-red-bottom_1_);}
	.st12{fill:url(#dna-red-middle_1_);}
	.st13{fill:url(#blue-dna-top_1_);}
	.st14{fill:url(#blue-dna-middle_1_);}
	.st15{fill:url(#blue-dna-bottom_1_);}
	.st16{fill:#0C0C0C;}
	.st17{fill:#DA2528;}
	.st18{fill:#DA2C29;}
	.st19{fill:#DA2A2A;}
	.st20{fill:#010101;}
</style>
<g id="mitochondria-balance-logo-1-parts">
	<g id="dna-strands">
		<g id="ekg-top">
			<linearGradient id="ekg-top-back_1_" gradientUnits="userSpaceOnUse" x1="174.2323" y1="274.2368" x2="243.0331" y2="274.2368">
				<stop  offset="0" style="stop-color:#959636"/>
				<stop  offset="0.0252" style="stop-color:#949536"/>
				<stop  offset="0.4969" style="stop-color:#878935"/>
				<stop  offset="1" style="stop-color:#838534"/>
			</linearGradient>
			<path id="ekg-top-back" class="st0" d="M174.23,285.55c2.55-0.84,4.64-1.46,6.06-1.87c0.61-0.18,3.45-0.99,6.84-2.13
				c3.09-1.04,4.01-1.47,4.65-2.45c0.9-1.39,0.71-3.05,0.52-4c0.85,0.61,1.57,1.23,2.19,1.81c0.76,0.71,1.01,1.03,1.55,1.35
				c0.61,0.36,1.5,0.67,2.84,0.58c3.31-0.9,7.53-2.06,10.84-2.97c2.53-0.69,6.63-1.82,9.16-2.52c0.25,0.01,0.64-0.01,0.97-0.26
				c0.46-0.35,0.55-0.96,0.58-1.29c0.12-1.16,0.31-5.51,0.45-11.42c0.94,1.52,1.89,3.05,2.84,4.58c1.61,2.59,3.23,5.17,4.84,7.74
				c0.01,0.03,0.06,0.13,0.17,0.18c0.12,0.06,0.27,0.05,0.39-0.04c0.03-1.26,0.08-2.31,0.12-3.12c0.05-0.84,0.09-1.44,0.35-1.51
				c0.27-0.08,0.69,0.44,1.04,0.88c0.41,0.51,0.53,0.84,0.97,1.04c0.18,0.08,0.35,0.11,0.53,0.12c1.3,0.08,3.45-0.76,4.91-1.21
				c0.32-0.1,0.04,0,1.62-0.44c3.06-0.83,3.89-1.13,4.23-0.75c0.15,0.17,0.28,0.54-0.12,1.52c-1.92,0.36-3.43,0.77-4.45,1.09
				c-1.55,0.48-3.05,1.05-5.52,1.6c-0.39,0.09-0.71,0.15-0.92,0.19c-0.05-0.23-0.31-1.49-1.19-1.77c-0.07-0.02-0.15-0.04-0.24-0.05
				c-0.28,0.76-0.37,1.39-0.41,1.81c-0.06,0.74,0.02,1.29-0.24,2.1c-0.11,0.33-0.23,0.59-0.31,0.75c-0.16-0.03-0.32-0.06-0.48-0.1
				c-1.32-1.7-2.25-2.89-2.9-3.73c-2.76-3.54-2.85-3.63-2.9-3.8c-0.02-0.07-0.1-0.35-0.34-0.46c-0.18-0.09-0.38-0.04-0.51,0
				c-0.17,0.92-0.3,1.69-0.39,2.25c-0.38,2.37-0.57,3.56-0.58,4.14c-0.02,1.18,0.12,1.65-0.27,2.15c-0.51,0.68-1.47,0.74-1.84,0.77
				c-0.55,0.05-3.41,0.64-9.12,1.81c-2.15,0.44-4.68,0.97-6.97,1.91c-0.55,0.23-2.22,0.95-4.52,1.09c-0.37,0.02-0.67,0.03-0.87,0.02
				c-0.56-0.35-1.13-0.74-1.72-1.16c-0.77-0.55-1.48-1.11-2.13-1.65c-0.13,0.2-0.32,0.48-0.56,0.8c-0.41,0.56-0.9,1.18-1.26,1.57
				c-0.74,0.81-1.49,1.28-2.44,1.86c-0.63,0.39-1.62,0.94-3.19,1.6c-1.77,0.73-1.86,0.59-4.48,1.52c-2.4,0.86-3.61,1.29-4.02,1.48
				c-1.41,0.63-2.03,1.05-2.66,0.77C174.48,287.63,174.29,286.27,174.23,285.55z"/>
			<linearGradient id="ekg-top-front_1_" gradientUnits="userSpaceOnUse" x1="174.4581" y1="273.9787" x2="243.2589" y2="273.9787">
				<stop  offset="0" style="stop-color:#F2EA1A"/>
				<stop  offset="1" style="stop-color:#F1EA19"/>
			</linearGradient>
			<path id="ekg-top-front" class="st1" d="M174.46,285.29c2.55-0.84,4.64-1.46,6.06-1.87c0.61-0.18,3.45-0.99,6.84-2.13
				c3.09-1.04,4.01-1.47,4.65-2.45c0.9-1.39,0.71-3.05,0.52-4c0.85,0.61,1.57,1.23,2.19,1.81c0.76,0.71,1.01,1.03,1.55,1.35
				c0.61,0.36,1.5,0.67,2.84,0.58c3.31-0.9,7.53-2.06,10.84-2.97c2.53-0.69,6.63-1.82,9.16-2.52c0.25,0.01,0.64-0.01,0.97-0.26
				c0.46-0.35,0.55-0.96,0.58-1.29c0.12-1.16,0.31-5.51,0.45-11.42c0.94,1.52,1.89,3.05,2.84,4.58c1.61,2.59,3.23,5.17,4.84,7.74
				c0.01,0.03,0.06,0.13,0.17,0.18c0.12,0.06,0.27,0.05,0.39-0.04c0.03-1.26,0.08-2.31,0.12-3.12c0.05-0.84,0.09-1.44,0.35-1.51
				c0.27-0.08,0.69,0.44,1.04,0.88c0.41,0.51,0.53,0.84,0.97,1.04c0.18,0.08,0.35,0.11,0.53,0.12c1.3,0.08,3.45-0.76,4.91-1.21
				c0.32-0.1,0.04,0,1.62-0.44c3.06-0.83,3.89-1.13,4.23-0.75c0.15,0.17,0.28,0.54-0.12,1.52c-1.92,0.36-3.43,0.77-4.45,1.09
				c-1.55,0.48-3.05,1.05-5.52,1.6c-0.39,0.09-0.71,0.15-0.92,0.19c-0.05-0.23-0.31-1.49-1.19-1.77c-0.07-0.02-0.15-0.04-0.24-0.05
				c-0.28,0.76-0.37,1.39-0.41,1.81c-0.06,0.74,0.02,1.29-0.24,2.1c-0.11,0.33-0.23,0.59-0.31,0.75c-0.16-0.03-0.32-0.06-0.48-0.1
				c-1.32-1.7-2.25-2.89-2.9-3.73c-2.76-3.54-2.85-3.63-2.9-3.8c-0.02-0.07-0.1-0.35-0.34-0.46c-0.18-0.09-0.38-0.04-0.51,0
				c-0.17,0.92-0.3,1.69-0.39,2.25c-0.38,2.37-0.57,3.56-0.58,4.14c-0.02,1.18,0.12,1.65-0.27,2.15c-0.51,0.68-1.47,0.74-1.84,0.77
				c-0.55,0.05-3.41,0.64-9.12,1.81c-2.15,0.44-4.68,0.97-6.97,1.91c-0.55,0.23-2.22,0.95-4.52,1.09c-0.37,0.02-0.67,0.03-0.87,0.02
				c-0.56-0.35-1.13-0.74-1.72-1.16c-0.77-0.55-1.48-1.11-2.13-1.65c-0.13,0.2-0.32,0.48-0.56,0.8c-0.41,0.56-0.9,1.18-1.26,1.57
				c-0.74,0.81-1.49,1.28-2.44,1.86c-0.63,0.39-1.62,0.94-3.19,1.6c-1.77,0.73-1.86,0.59-4.48,1.52c-2.4,0.86-3.61,1.29-4.02,1.48
				c-1.41,0.63-2.03,1.05-2.66,0.77C174.71,287.37,174.51,286.01,174.46,285.29z"/>
		</g>
		<g id="ekg-middle">
			
				<linearGradient id="ekg-middle-back-3_1_" gradientUnits="userSpaceOnUse" x1="275.0875" y1="389.1657" x2="217.5372" y2="428.0923" gradientTransform="matrix(0.9991 -0.0428 0.0428 0.9991 -17.2284 11.5476)">
				<stop  offset="0" style="stop-color:#828635"/>
				<stop  offset="0.0333" style="stop-color:#828635"/>
				<stop  offset="1" style="stop-color:#828635"/>
			</linearGradient>
			<path id="ekg-middle-back-3" class="st2" d="M215.69,421.79c1.99-0.84,4.36-1.68,7.07-2.37c1.72-0.44,3.34-0.75,4.83-0.98
				c-0.08-2.49-0.17-4.99-0.25-7.48c0.84,0.83,1.69,1.72,2.55,2.67c0.73,0.8,1.4,1.59,2.04,2.37c1.44-0.6,3.71-1.57,6.47-2.86
				c3.73-1.73,4.46-2.22,6.96-3.2c3.87-1.52,6.64-2.11,7.29-2.25c2.11-0.44,3.93-0.64,5.27-0.74c-0.82-3.56-1.64-7.12-2.46-10.68
				c1.32,1.26,2.36,2.33,3.07,3.1c1.95,2.08,3.99,4.48,3.99,4.48c0.14-0.11,0.47-0.42,0.61-0.93c0.13-0.48,0.01-0.87-0.04-1.03
				c1.28-0.58,2.59-1.15,3.94-1.72c4.28-1.8,8.43-3.31,12.42-4.6c0.01,0.41,0.01,0.82,0.02,1.23c-2.39,1.2-4.33,2.15-5.69,2.81
				c-1.15,0.56-2.3,1.12-3.45,1.67c-1.61,0.77-2.61,1.25-4,1.99c-0.73,0.39-1.33,0.72-1.73,0.95c0.05,1.28,0.09,2.56,0.14,3.84
				c-0.23-0.18-0.6-0.48-1.03-0.88c-0.49-0.45-1.11-1.08-3.26-3.93c-0.46-0.61-0.93-1.23-1.7-2.01c-0.33-0.33-0.62-0.59-0.81-0.76
				c0.35,1.66,0.67,2.99,0.89,3.88c0.34,1.37,0.63,2.36,0.92,3.91c0.16,0.86,0.27,1.57,0.33,2.02c-0.05,0.08-0.13,0.18-0.26,0.2
				c-0.21,0.05-0.43-0.13-0.69-0.38c-0.75-0.73-0.79-1.08-1.27-1.35c-0.16-0.09-0.43-0.2-0.84-0.23c-0.72,0.22-1.76,0.54-3,0.95
				c-1.59,0.53-3.02,1.06-6.06,2.25c-5.38,2.11-4.66,1.94-7.35,2.93c-1.21,0.45-2.57,0.93-4.52,1.77c-1.14,0.49-2.07,0.93-2.69,1.23
				c0.14,1.14,0.4,2,0.62,2.59c0.18,0.49,0.57,1.42,0.87,2.14c0.1,0.24,0.18,0.44,0.24,0.57c-0.27-0.17-0.53-0.33-0.8-0.5
				c-0.73-0.85-1.26-1.58-1.59-2.06c-0.74-1.07-1.02-1.66-1.93-3.07c-0.52-0.8-0.96-1.43-1.23-1.81c-0.26,0.91-0.33,1.64-0.34,2.15
				c-0.01,0.39,0.02,1.13,0.09,2.61c0,0.1,0.01,0.19,0.01,0.24c-0.58,0.07-1.4,0.18-2.38,0.34c-1.87,0.32-3.25,0.67-4.82,1.08
				c-2.23,0.58-3.35,0.87-4.01,1.14c-0.96,0.4-2.04,0.56-3,0.98c-0.3,0.13-0.61,0.27-0.85,0.16c-0.51-0.24-0.63-1.52,0.12-2.11
				C214.87,421.71,215.52,421.77,215.69,421.79z"/>
			
				<linearGradient id="ekg-middle-front-3_1_" gradientUnits="userSpaceOnUse" x1="275.006" y1="388.8071" x2="217.4557" y2="427.7336" gradientTransform="matrix(0.9991 -0.0428 0.0428 0.9991 -17.2284 11.5476)">
				<stop  offset="0" style="stop-color:#F2EA1A"/>
				<stop  offset="1" style="stop-color:#F1EA19"/>
			</linearGradient>
			<path id="ekg-middle-front-3" class="st3" d="M215.59,421.43c1.99-0.84,4.36-1.68,7.07-2.37c1.72-0.44,3.34-0.75,4.83-0.98
				c-0.08-2.49-0.17-4.99-0.25-7.48c0.84,0.83,1.69,1.72,2.55,2.67c0.73,0.8,1.4,1.59,2.04,2.37c1.44-0.6,3.71-1.57,6.47-2.86
				c3.73-1.73,4.46-2.22,6.96-3.2c3.87-1.52,6.64-2.11,7.29-2.25c2.11-0.44,3.93-0.64,5.27-0.74c-0.82-3.56-1.64-7.12-2.46-10.68
				c1.32,1.26,2.36,2.33,3.07,3.1c1.95,2.08,3.99,4.48,3.99,4.48c0.14-0.11,0.47-0.42,0.61-0.93c0.13-0.48,0.01-0.87-0.04-1.03
				c1.28-0.58,2.59-1.15,3.94-1.72c4.28-1.8,8.43-3.31,12.42-4.6c0.01,0.41,0.01,0.82,0.02,1.23c-2.39,1.2-4.33,2.15-5.69,2.81
				c-1.15,0.56-2.3,1.12-3.45,1.67c-1.61,0.77-2.61,1.25-4,1.99c-0.73,0.39-1.33,0.72-1.73,0.95c0.05,1.28,0.09,2.56,0.14,3.84
				c-0.23-0.18-0.6-0.48-1.03-0.88c-0.49-0.45-1.11-1.08-3.26-3.93c-0.46-0.61-0.93-1.23-1.7-2.01c-0.33-0.33-0.62-0.59-0.81-0.76
				c0.35,1.66,0.67,2.99,0.89,3.88c0.34,1.37,0.63,2.36,0.92,3.91c0.16,0.86,0.27,1.57,0.33,2.02c-0.05,0.08-0.13,0.18-0.26,0.2
				c-0.21,0.05-0.43-0.13-0.69-0.38c-0.75-0.73-0.79-1.08-1.27-1.35c-0.16-0.09-0.43-0.2-0.84-0.23c-0.72,0.22-1.76,0.54-3,0.95
				c-1.59,0.53-3.02,1.06-6.06,2.25c-5.38,2.11-4.66,1.94-7.35,2.93c-1.21,0.45-2.57,0.93-4.52,1.77c-1.14,0.49-2.07,0.93-2.69,1.23
				c0.14,1.14,0.4,2,0.62,2.59c0.18,0.49,0.57,1.42,0.87,2.14c0.1,0.24,0.18,0.44,0.24,0.57c-0.27-0.17-0.53-0.33-0.8-0.5
				c-0.73-0.85-1.26-1.58-1.59-2.06c-0.74-1.07-1.02-1.66-1.93-3.07c-0.52-0.8-0.96-1.43-1.23-1.81c-0.26,0.91-0.33,1.64-0.34,2.15
				c-0.01,0.39,0.02,1.13,0.09,2.61c0,0.1,0.01,0.19,0.01,0.24c-0.58,0.07-1.4,0.18-2.38,0.34c-1.87,0.32-3.25,0.67-4.82,1.08
				c-2.23,0.58-3.35,0.87-4.01,1.14c-0.96,0.4-2.04,0.56-3,0.98c-0.3,0.13-0.61,0.27-0.85,0.16c-0.51-0.24-0.63-1.52,0.12-2.11
				C214.77,421.35,215.43,421.41,215.59,421.43z"/>
			
				<linearGradient id="ekg-middle-back-2_1_" gradientUnits="userSpaceOnUse" x1="269.0542" y1="371.3735" x2="207.4545" y2="413.0391">
				<stop  offset="0" style="stop-color:#828635"/>
				<stop  offset="0.0333" style="stop-color:#828635"/>
				<stop  offset="1" style="stop-color:#828635"/>
			</linearGradient>
			<path id="ekg-middle-back-2" class="st4" d="M203.97,405.84c0.51-0.23,1.24-0.57,2.13-0.97c1.03-0.46,2.83-1.27,4.19-1.84
				c1.67-0.7,3.79-1.58,6.52-2.29c1.32-0.35,3.16-0.75,5.42-1c0.08-1.17,0.15-2.34,0.23-3.52c0.08-1.3,0.15-2.59,0.23-3.87
				c0.41,0.6,0.76,1.09,1,1.42c0.76,1.05,1.16,1.53,1.97,2.65c0.34,0.46,0.6,0.85,0.77,1.1c0.46-0.2,1.14-0.5,1.97-0.87
				c2.72-1.23,3.71-1.79,5.26-2.52c2.25-1.05,3.98-1.65,6.48-2.52c1.76-0.61,3.47-1.25,5.35-1.68c0.89-0.2,1.77-0.36,2.74-0.45
				c0.79-0.08,1.46-0.1,1.97-0.1c-0.02-0.59-0.06-1.2-0.13-1.84c-0.2-1.89-0.57-3.57-1-5.03c-0.31-1.27-0.62-2.54-0.94-3.81
				c0.48,0.49,1.21,1.28,2.03,2.32c0.73,0.93,0.69,0.99,1.68,2.26c0.27,0.35,1.04,1.32,2.1,2.55c0.28,0.33,0.53,0.6,0.71,0.81
				c-0.01-0.28,0.02-0.79,0.29-1.35c0.33-0.69,0.83-1.07,1.06-1.23c1.01-0.34,2.54-0.87,4.39-1.58c2.87-1.11,4.11-1.73,6.35-2.61
				c1.52-0.6,3.75-1.42,6.55-2.23c-0.11,0.24-0.22,0.47-0.32,0.71c-1.95,1.13-3.56,2-4.65,2.58c-1.61,0.85-2.84,1.46-7.94,3.94
				c-1.43,0.69-2.99,1.45-4.39,2.13c0,1.19,0,2.39,0,3.58c-1.2-1.24-1.98-2.37-2.48-3.19c-0.56-0.93-1.02-1.89-2.06-3.1
				c-0.44-0.51-0.85-0.9-1.13-1.16c0.25,1.54,0.46,2.8,0.61,3.68c0.25,1.46,0.39,2.16,0.58,3.39c0.19,1.23,0.33,2.24,0.42,2.9
				c-0.17-0.04-0.34-0.09-0.52-0.13c-0.09-0.25-0.39-1.04-1.23-1.55c-0.53-0.33-1.04-0.4-1.32-0.42c-0.6,0.18-1.52,0.46-2.65,0.84
				c-3.1,1.03-4.13,1.56-8.48,3.26c-3.18,1.24-3.67,1.36-6.71,2.58c-1.47,0.59-2.66,1.09-3.45,1.42c0.38,1.75,0.75,3.51,1.13,5.26
				c-0.16-0.06-0.32-0.13-0.48-0.19c-0.6-1.39-1.18-2.46-1.61-3.19c-0.53-0.89-1.11-1.76-2.19-3.61c-0.15-0.26-0.27-0.47-0.35-0.61
				c-0.09,1-0.16,2.04-0.19,3.13c-0.03,0.74-0.04,1.46-0.03,2.16c-0.7,0.01-1.73,0.06-2.97,0.19c-2.31,0.26-3.93,0.68-6.9,1.48
				c-3.16,0.85-4.74,1.28-6.19,1.87c-2.3,0.94-4.01,1.95-4.32,1.55C203.28,406.9,203.62,406.33,203.97,405.84z"/>
			
				<linearGradient id="ekg-middle-front-2_1_" gradientUnits="userSpaceOnUse" x1="268.7316" y1="371.1155" x2="207.1319" y2="412.7811">
				<stop  offset="0" style="stop-color:#F2EA1A"/>
				<stop  offset="1" style="stop-color:#F1EA19"/>
			</linearGradient>
			<path id="ekg-middle-front-2" class="st5" d="M203.65,405.58c0.51-0.23,1.24-0.57,2.13-0.97c1.03-0.46,2.83-1.27,4.19-1.84
				c1.67-0.7,3.79-1.58,6.52-2.29c1.32-0.35,3.16-0.75,5.42-1c0.08-1.17,0.15-2.34,0.23-3.52c0.08-1.3,0.15-2.59,0.23-3.87
				c0.41,0.6,0.76,1.09,1,1.42c0.76,1.05,1.16,1.53,1.97,2.65c0.34,0.46,0.6,0.85,0.77,1.1c0.46-0.2,1.14-0.5,1.97-0.87
				c2.72-1.23,3.71-1.79,5.26-2.52c2.25-1.05,3.98-1.65,6.48-2.52c1.76-0.61,3.47-1.25,5.35-1.68c0.89-0.2,1.77-0.36,2.74-0.45
				c0.79-0.08,1.46-0.1,1.97-0.1c-0.02-0.59-0.06-1.2-0.13-1.84c-0.2-1.89-0.57-3.57-1-5.03c-0.31-1.27-0.62-2.54-0.94-3.81
				c0.48,0.49,1.21,1.28,2.03,2.32c0.73,0.93,0.69,0.99,1.68,2.26c0.27,0.35,1.04,1.32,2.1,2.55c0.28,0.33,0.53,0.6,0.71,0.81
				c-0.01-0.28,0.02-0.79,0.29-1.35c0.33-0.69,0.83-1.07,1.06-1.23c1.01-0.34,2.54-0.87,4.39-1.58c2.87-1.11,4.11-1.73,6.35-2.61
				c1.52-0.6,3.75-1.42,6.55-2.23c-0.11,0.24-0.22,0.47-0.32,0.71c-1.95,1.13-3.56,2-4.65,2.58c-1.61,0.85-2.84,1.46-7.94,3.94
				c-1.43,0.69-2.99,1.45-4.39,2.13c0,1.19,0,2.39,0,3.58c-1.2-1.24-1.98-2.37-2.48-3.19c-0.56-0.93-1.02-1.89-2.06-3.1
				c-0.44-0.51-0.85-0.9-1.13-1.16c0.25,1.54,0.46,2.8,0.61,3.68c0.25,1.46,0.39,2.16,0.58,3.39c0.19,1.23,0.33,2.24,0.42,2.9
				c-0.17-0.04-0.34-0.09-0.52-0.13c-0.09-0.25-0.39-1.04-1.23-1.55c-0.53-0.33-1.04-0.4-1.32-0.42c-0.6,0.18-1.52,0.46-2.65,0.84
				c-3.1,1.03-4.13,1.56-8.48,3.26c-3.18,1.24-3.67,1.36-6.71,2.58c-1.47,0.59-2.66,1.09-3.45,1.42c0.38,1.75,0.75,3.51,1.13,5.26
				c-0.16-0.06-0.32-0.13-0.48-0.19c-0.6-1.39-1.18-2.46-1.61-3.19c-0.53-0.89-1.11-1.76-2.19-3.61c-0.15-0.26-0.27-0.47-0.35-0.61
				c-0.09,1-0.16,2.04-0.19,3.13c-0.03,0.74-0.04,1.46-0.03,2.16c-0.7,0.01-1.73,0.06-2.97,0.19c-2.31,0.26-3.93,0.68-6.9,1.48
				c-3.16,0.85-4.74,1.28-6.19,1.87c-2.3,0.94-4.01,1.95-4.32,1.55C202.96,406.65,203.3,406.07,203.65,405.58z"/>
			
				<linearGradient id="ekg-middle-back-1_1_" gradientUnits="userSpaceOnUse" x1="258.138" y1="350.5059" x2="205.1091" y2="386.3742">
				<stop  offset="0" style="stop-color:#838634"/>
				<stop  offset="0.0333" style="stop-color:#838634"/>
				<stop  offset="1" style="stop-color:#838634"/>
			</linearGradient>
			<path id="ekg-middle-back-1" class="st6" d="M203.55,379.61c1.83-0.75,3.99-1.49,6.45-2.06c1.56-0.36,3.03-0.61,4.39-0.77
				c0.02-2.49,0.04-4.99,0.06-7.48c0.72,0.86,1.46,1.79,2.19,2.77c0.62,0.83,1.2,1.65,1.74,2.45c1.32-0.54,3.4-1.41,5.94-2.58
				c3.42-1.57,4.1-2.03,6.39-2.9c3.55-1.35,6.06-1.83,6.65-1.94c1.92-0.35,3.56-0.47,4.77-0.52c-0.6-3.59-1.2-7.18-1.81-10.77
				c1.14,1.32,2.03,2.43,2.65,3.23c1.68,2.16,3.42,4.65,3.42,4.65c0.13-0.11,0.44-0.4,0.58-0.9c0.14-0.47,0.05-0.87,0-1.03
				c1.17-0.52,2.38-1.04,3.61-1.55c3.92-1.61,7.72-2.95,11.35-4.06c-0.01,0.41-0.02,0.82-0.03,1.23c-2.19,1.1-3.98,1.96-5.23,2.56
				c-1.06,0.51-2.11,1.02-3.17,1.52c-1.48,0.71-2.39,1.14-3.68,1.81c-0.67,0.36-1.22,0.66-1.6,0.87c-0.01,1.28-0.02,2.56-0.02,3.85
				c-0.2-0.19-0.52-0.5-0.9-0.92c-0.42-0.47-0.95-1.13-2.78-4.06c-0.39-0.63-0.79-1.27-1.45-2.08c-0.29-0.35-0.53-0.62-0.7-0.8
				c0.25,1.67,0.48,3.01,0.65,3.92c0.26,1.38,0.47,2.38,0.68,3.94c0.11,0.87,0.18,1.58,0.22,2.03c-0.05,0.08-0.13,0.17-0.24,0.19
				c-0.19,0.04-0.38-0.15-0.6-0.41c-0.64-0.76-0.67-1.11-1.09-1.4c-0.14-0.1-0.38-0.22-0.75-0.27c-0.66,0.19-1.6,0.46-2.73,0.82
				c-1.45,0.46-2.76,0.93-5.54,1.98c-4.92,1.87-4.27,1.74-6.73,2.61c-1.11,0.39-2.35,0.82-4.14,1.57c-1.05,0.44-1.9,0.84-2.47,1.11
				c0.09,1.14,0.28,2.01,0.46,2.61c0.14,0.5,0.46,1.44,0.7,2.18c0.08,0.24,0.15,0.44,0.19,0.58c-0.23-0.18-0.47-0.35-0.7-0.53
				c-0.62-0.88-1.07-1.63-1.35-2.13c-0.63-1.1-0.86-1.7-1.62-3.15c-0.43-0.82-0.81-1.47-1.04-1.86c-0.27,0.9-0.36,1.62-0.39,2.13
				c-0.02,0.39-0.02,1.13-0.02,2.61c0,0.1,0,0.19,0,0.24c-0.52,0.04-1.27,0.12-2.15,0.24c-1.7,0.24-2.95,0.53-4.38,0.87
				c-2.03,0.48-3.05,0.72-3.65,0.97c-0.88,0.36-1.86,0.47-2.73,0.85c-0.28,0.12-0.56,0.25-0.77,0.12c-0.45-0.26-0.51-1.55,0.19-2.1
				C202.82,379.5,203.41,379.59,203.55,379.61z"/>
			
				<linearGradient id="ekg-middle-front-1_1_" gradientUnits="userSpaceOnUse" x1="258.0896" y1="350.1994" x2="205.0608" y2="386.0677">
				<stop  offset="0" style="stop-color:#EFE919"/>
				<stop  offset="1" style="stop-color:#EFE919"/>
			</linearGradient>
			<path id="ekg-middle-front-1" class="st7" d="M203.51,379.31c1.83-0.75,3.99-1.49,6.45-2.06c1.56-0.36,3.03-0.61,4.39-0.77
				c0.02-2.49,0.04-4.99,0.06-7.48c0.72,0.86,1.46,1.79,2.19,2.77c0.62,0.83,1.2,1.65,1.74,2.45c1.32-0.54,3.4-1.41,5.94-2.58
				c3.42-1.57,4.1-2.03,6.39-2.9c3.55-1.35,6.06-1.83,6.65-1.94c1.92-0.35,3.56-0.47,4.77-0.52c-0.6-3.59-1.2-7.18-1.81-10.77
				c1.14,1.32,2.03,2.43,2.65,3.23c1.68,2.16,3.42,4.65,3.42,4.65c0.13-0.11,0.44-0.4,0.58-0.9c0.14-0.47,0.05-0.87,0-1.03
				c1.17-0.52,2.38-1.04,3.61-1.55c3.92-1.61,7.72-2.95,11.35-4.06c-0.01,0.41-0.02,0.82-0.03,1.23c-2.19,1.1-3.98,1.96-5.23,2.56
				c-1.06,0.51-2.11,1.02-3.17,1.52c-1.48,0.71-2.39,1.14-3.68,1.81c-0.67,0.36-1.22,0.66-1.6,0.87c-0.01,1.28-0.02,2.56-0.02,3.85
				c-0.2-0.19-0.52-0.5-0.9-0.92c-0.42-0.47-0.95-1.13-2.78-4.06c-0.39-0.63-0.79-1.27-1.45-2.08c-0.29-0.35-0.53-0.62-0.7-0.8
				c0.25,1.67,0.48,3.01,0.65,3.92c0.26,1.38,0.47,2.38,0.68,3.94c0.11,0.87,0.18,1.58,0.22,2.03c-0.05,0.08-0.13,0.17-0.24,0.19
				c-0.19,0.04-0.38-0.15-0.6-0.41c-0.64-0.76-0.67-1.11-1.09-1.4c-0.14-0.1-0.38-0.22-0.75-0.27c-0.66,0.19-1.6,0.46-2.73,0.82
				c-1.45,0.46-2.76,0.93-5.54,1.98c-4.92,1.87-4.27,1.74-6.73,2.61c-1.11,0.39-2.35,0.82-4.14,1.57c-1.05,0.44-1.9,0.84-2.47,1.11
				c0.09,1.14,0.28,2.01,0.46,2.61c0.14,0.5,0.46,1.44,0.7,2.18c0.08,0.24,0.15,0.44,0.19,0.58c-0.23-0.18-0.47-0.35-0.7-0.53
				c-0.62-0.88-1.07-1.63-1.35-2.13c-0.63-1.1-0.86-1.7-1.62-3.15c-0.43-0.82-0.81-1.47-1.04-1.86c-0.27,0.9-0.36,1.62-0.39,2.13
				c-0.02,0.39-0.02,1.13-0.02,2.61c0,0.1,0,0.19,0,0.24c-0.52,0.04-1.27,0.12-2.15,0.24c-1.7,0.24-2.95,0.53-4.38,0.87
				c-2.03,0.48-3.05,0.72-3.65,0.97c-0.88,0.36-1.86,0.47-2.73,0.85c-0.28,0.12-0.56,0.25-0.77,0.12c-0.45-0.26-0.51-1.55,0.19-2.1
				C202.77,379.19,203.36,379.28,203.51,379.31z"/>
		</g>
		<g id="ekg-bottom">
			
				<linearGradient id="ekg-bottom-back_1_" gradientUnits="userSpaceOnUse" x1="25.5875" y1="566.6024" x2="117.7839" y2="566.6024" gradientTransform="matrix(-0.6355 0.4298 0.5603 0.8283 -5.6033 11.8844)">
				<stop  offset="0" style="stop-color:#8B8D35"/>
				<stop  offset="0.0333" style="stop-color:#8B8D35"/>
				<stop  offset="1" style="stop-color:#8B8D35"/>
			</linearGradient>
			<path id="ekg-bottom-back" class="st8" d="M304.08,504.76c-2.8,0.54-5.05,1.05-6.57,1.42c-0.65,0.16-3.68,0.89-7.42,1.58
				c-3.42,0.63-4.52,0.68-5.8-0.05c-1.81-1.02-2.9-2.98-3.44-4.14c-0.26,1.17-0.42,2.27-0.51,3.27c-0.12,1.23-0.08,1.73-0.3,2.4
				c-0.25,0.75-0.78,1.61-1.98,2.28c-3.49,0.9-7.96,2.05-11.46,2.95c-2.67,0.69-7.02,1.8-9.69,2.48c-0.2,0.15-0.55,0.36-1.02,0.27
				c-0.65-0.12-1.18-0.75-1.46-1.1c-0.97-1.22-4.4-5.94-8.96-12.42c0.34,2.24,0.68,4.48,1.02,6.72c0.57,3.81,1.14,7.6,1.69,11.38
				c0.01,0.04,0.04,0.18,0,0.3c-0.06,0.14-0.19,0.2-0.36,0.18c-0.97-1.38-1.8-2.52-2.45-3.39c-0.67-0.91-1.16-1.55-1.43-1.48
				c-0.29,0.07-0.25,0.89-0.22,1.58c0.04,0.8,0.18,1.24-0.04,1.71c-0.09,0.19-0.22,0.32-0.36,0.44c-1.05,0.84-3.51,1.15-5.09,1.49
				c-0.35,0.07-0.04,0.02-1.71,0.45c-3.23,0.84-4.16,0.98-4.17,1.61c0,0.27,0.16,0.76,1.25,1.62c1.9-0.71,3.5-1.12,4.61-1.36
				c1.68-0.36,3.38-0.59,5.9-1.4c0.4-0.13,0.72-0.24,0.93-0.31c-0.13-0.28-0.85-1.83-0.32-2.64c0.05-0.07,0.1-0.13,0.17-0.19
				c0.81,0.69,1.36,1.33,1.71,1.78c0.61,0.79,0.96,1.44,1.79,2.2c0.34,0.31,0.64,0.52,0.83,0.65c0.11-0.13,0.23-0.26,0.34-0.39
				c-0.15-2.65-0.25-4.5-0.32-5.81c-0.3-5.52-0.3-5.67-0.38-5.89c-0.03-0.08-0.17-0.44-0.06-0.71c0.09-0.2,0.29-0.27,0.43-0.29
				c0.84,0.93,1.53,1.71,2.02,2.27c2.11,2.42,3.16,3.62,3.6,4.26c0.91,1.3,1.14,1.9,1.84,2.24c0.95,0.45,1.81-0.02,2.15-0.2
				c0.5-0.27,3.38-1.26,9.13-3.24c2.16-0.74,4.71-1.62,7.37-1.89c0.63-0.06,2.6-0.23,4.67-1.4c0.33-0.19,0.59-0.36,0.76-0.47
				c0.21-0.71,0.41-1.47,0.59-2.28c0.24-1.06,0.43-2.08,0.58-3.05c0.26,0.14,0.63,0.34,1.07,0.57c0.77,0.39,1.66,0.79,2.25,1.02
				c1.24,0.47,2.23,0.56,3.48,0.66c0.83,0.07,2.08,0.12,3.92-0.07c2.06-0.2,2.02-0.42,4.96-0.89c2.69-0.43,4.04-0.64,4.53-0.68
				c1.67-0.11,2.52-0.01,2.85-0.67C305.43,507.22,304.57,505.59,304.08,504.76z"/>
			
				<linearGradient id="ekg-bottom-front_1_" gradientUnits="userSpaceOnUse" x1="24.974" y1="565.7914" x2="117.1704" y2="565.7914" gradientTransform="matrix(-0.6355 0.4298 0.5603 0.8283 -5.6033 11.8844)">
				<stop  offset="0" style="stop-color:#F2EA1A"/>
				<stop  offset="1" style="stop-color:#F1EA19"/>
			</linearGradient>
			<path id="ekg-bottom-front" class="st9" d="M304.01,503.83c-2.8,0.54-5.05,1.05-6.57,1.42c-0.65,0.16-3.68,0.89-7.42,1.58
				c-3.42,0.63-4.52,0.68-5.8-0.05c-1.81-1.02-2.9-2.98-3.44-4.14c-0.26,1.17-0.42,2.27-0.51,3.27c-0.12,1.23-0.08,1.73-0.3,2.4
				c-0.25,0.75-0.78,1.61-1.98,2.28c-3.49,0.9-7.96,2.05-11.46,2.95c-2.67,0.69-7.02,1.8-9.69,2.48c-0.2,0.15-0.55,0.36-1.02,0.27
				c-0.65-0.12-1.18-0.75-1.46-1.1c-0.97-1.22-4.4-5.94-8.96-12.42c0.34,2.24,0.68,4.48,1.02,6.72c0.57,3.81,1.14,7.6,1.69,11.38
				c0.01,0.04,0.04,0.18,0,0.3c-0.06,0.14-0.19,0.2-0.36,0.18c-0.97-1.38-1.8-2.52-2.45-3.39c-0.67-0.91-1.16-1.55-1.43-1.48
				c-0.29,0.07-0.25,0.89-0.22,1.58c0.04,0.8,0.18,1.24-0.04,1.71c-0.09,0.19-0.22,0.32-0.36,0.44c-1.05,0.84-3.51,1.15-5.09,1.49
				c-0.35,0.07-0.04,0.02-1.71,0.45c-3.23,0.84-4.16,0.98-4.17,1.61c0,0.27,0.16,0.76,1.25,1.62c1.9-0.71,3.5-1.12,4.61-1.36
				c1.68-0.36,3.38-0.59,5.9-1.4c0.4-0.13,0.72-0.24,0.93-0.31c-0.13-0.28-0.85-1.83-0.32-2.64c0.05-0.07,0.1-0.13,0.17-0.19
				c0.81,0.69,1.36,1.33,1.71,1.78c0.61,0.79,0.96,1.44,1.79,2.2c0.34,0.31,0.64,0.52,0.83,0.65c0.11-0.13,0.23-0.26,0.34-0.39
				c-0.15-2.65-0.25-4.5-0.32-5.81c-0.3-5.52-0.3-5.67-0.38-5.89c-0.03-0.08-0.17-0.44-0.06-0.71c0.09-0.2,0.29-0.27,0.43-0.29
				c0.84,0.93,1.53,1.71,2.02,2.27c2.11,2.42,3.16,3.62,3.6,4.26c0.91,1.3,1.14,1.9,1.84,2.24c0.95,0.45,1.81-0.02,2.15-0.2
				c0.5-0.27,3.38-1.26,9.13-3.24c2.16-0.74,4.71-1.62,7.37-1.89c0.63-0.06,2.6-0.23,4.67-1.4c0.33-0.19,0.59-0.36,0.76-0.47
				c0.21-0.71,0.41-1.47,0.59-2.28c0.24-1.06,0.43-2.08,0.58-3.05c0.26,0.14,0.63,0.34,1.07,0.57c0.77,0.39,1.66,0.79,2.25,1.02
				c1.24,0.47,2.23,0.56,3.48,0.66c0.83,0.07,2.08,0.12,3.92-0.07c2.06-0.2,2.02-0.42,4.96-0.89c2.69-0.43,4.04-0.64,4.53-0.68
				c1.67-0.11,2.52-0.01,2.85-0.67C305.36,506.28,304.51,504.66,304.01,503.83z"/>
		</g>
		<g id="dna-red">
			<linearGradient id="dna-red-top_1_" gradientUnits="userSpaceOnUse" x1="144.0456" y1="255.2809" x2="254.3977" y2="255.2809">
				<stop  offset="0" style="stop-color:#EE3424"/>
				<stop  offset="0.2911" style="stop-color:#EE3025"/>
				<stop  offset="0.6685" style="stop-color:#B72226"/>
				<stop  offset="0.8876" style="stop-color:#8A181B"/>
				<stop  offset="1" style="stop-color:#831619"/>
			</linearGradient>
			<path id="dna-red-top" class="st10" d="M148.75,218.42c-1.86-0.07-3.12-1.37-3.23-1.48c-0.79-0.85-1.03-1.76-1.23-2.52
				c-0.51-2.04-0.13-3.88,0.19-4.84c1.15-3.39,4.75-5.14,6.45-5.94c12.53-5.86,23.42-8.26,23.42-8.26c1.93-0.4,3.66-0.79,5.25-1.11
				c6.26-1.25,9.99-2.21,13.26-2.57c8.91-0.97,15.86-1.73,24.13,0.65c8.46,2.43,14.01,6.89,16.77,9.16
				c6.29,5.17,10.72,11.17,13.65,16.81c1.62,3.13,2.9,6.16,3.77,8.85c1.34,4.17,1.85,7.57,2.19,9.44c0.38,2.06,1.48,8.61,0.77,17.1
				c-0.8,9.7-3.52,16.62-6.32,23.61c-4.68,11.67-10.14,19.72-13.61,24.77c-6.54,9.52-13.86,17.97-14.26,17.68
				c-0.2-0.15,1.41-2.38,3.81-6.26c8.35-13.55,12.49-24.89,13.55-27.87c1.41-3.98,2.7-7.62,3.74-12.84
				c1.11-5.52,2.61-13.38,1.03-23.23c-0.63-3.95-2.13-12.69-8.52-21.81c-1.33-1.9-7.08-9.83-17.74-15.55
				c-3.5-1.88-9.38-4.95-17.48-5.48c-2.93-0.19-5.4,0.11-10.32,0.71c-5.59,0.68-13.14,1.61-21.94,4.65
				c-8.82,3.05-11.85,4.56-13.73,5.4C151.99,217.68,150.48,218.48,148.75,218.42z"/>
			
				<linearGradient id="dna-red-bottom_1_" gradientUnits="userSpaceOnUse" x1="202.9616" y1="465.4067" x2="319.4835" y2="465.4067">
				<stop  offset="0" style="stop-color:#66140F"/>
				<stop  offset="0.0537" style="stop-color:#731714"/>
				<stop  offset="0.1296" style="stop-color:#801819"/>
				<stop  offset="0.2078" style="stop-color:#89191B"/>
				<stop  offset="0.2911" style="stop-color:#8B191C"/>
				<stop  offset="0.6685" style="stop-color:#E82927"/>
				<stop  offset="0.8826" style="stop-color:#EE3424"/>
				<stop  offset="1" style="stop-color:#EE3424"/>
			</linearGradient>
			<path id="dna-red-bottom" class="st11" d="M301.75,526.71c0.12,3.23,3.84,5.39,4.32,5.68c0.97,0.57,2.47,1.44,4.52,1.35
				c4.06-0.16,6.32-3.86,6.52-4.19c0.64-1.09,0.83-1.99,1.23-4.84c0.63-4.52,0.94-6.78,1.03-8.84c0.15-3.65,0.45-10.71-1.29-18.58
				c-2.78-12.53-9.38-21.01-12.32-24.71c-0.37-0.46-9.25-11.42-23.1-18.65c-5.38-2.81-11.84-5.22-12.19-5.35
				c-4.17-1.55-4.08-1.24-11.16-3.61c-7.29-2.45-7.78-2.91-15.35-5.42c-4.75-1.57-5.2-1.6-7.68-2.58c-2.91-1.15-6.38-2.54-10.45-5.1
				c-4.81-3.03-8.06-6.19-9.61-7.81c-3.83-3.98-6.16-7.72-7.29-9.68c-1.65-2.86-4.45-7.83-5.45-14.42c-0.22-1.43-0.34-2.91-0.42-2.9
				c-0.13,0.01-0.22,4.14,0.77,8.55c0.74,3.25,1.83,5.6,2.65,7.29c5.83,12.05,11.74,20.52,11.74,20.52
				c4.77,6.83,9.03,11.69,11.74,14.77c2.67,3.04,5.04,5.52,6.84,7.35c1.76,0.55,4.47,1.38,7.81,2.32
				c10.05,2.83,13.28,3.14,18.97,5.16c1.94,0.69,6.61,2.45,11.94,5.61c4.32,2.57,11.99,7.24,18.39,16.32
				c4.9,6.96,6.81,13.33,7.35,15.29c1.79,6.42,1.81,11.72,1.81,14.39c-0.01,5.11-0.02,7.67-0.9,10.06
				C301.98,525.12,301.72,525.79,301.75,526.71z"/>
			
				<linearGradient id="dna-red-middle_1_" gradientUnits="userSpaceOnUse" x1="153.1355" y1="326.1708" x2="153.6355" y2="326.1708">
				<stop  offset="0" style="stop-color:#DA2428"/>
				<stop  offset="9.681595e-03" style="stop-color:#DA2428"/>
				<stop  offset="0.2911" style="stop-color:#DA2428"/>
				<stop  offset="0.5355" style="stop-color:#E73F3F"/>
				<stop  offset="0.7802" style="stop-color:#DA2428"/>
				<stop  offset="1" style="stop-color:#DA2428"/>
			</linearGradient>
			<path id="dna-red-middle" class="st12" d="M237.14,455.74c-3.34-1.2-7.51-2.9-12.13-5.29c-2.57-1.33-7.38-3.85-12.9-8
				c-3.93-2.95-9.59-7.27-14.97-14.58c-2.17-2.94-6.6-9.08-9.29-18.32c-2.99-10.27-2.18-18.75-1.68-23.48
				c0.68-6.43,2.13-11.26,3.23-14.84c0.43-1.39,2.47-7.96,6.84-16.52c3.01-5.89,5.57-9.69,10.71-17.29
				c2.97-4.39,7.27-10.51,12.9-17.68c5.07-6.45,4.93-5.76,8.52-10.45c7.38-9.67,11.93-17.79,13.55-20.77
				c3.22-5.93,6.08-11.25,8.52-18.97c1.13-3.56,2.77-8.89,3.35-16.13c0.48-5.95,0.03-10.62-0.26-13.42
				c-0.4-3.95-0.77-7.59-2.19-12.26c-2.54-8.32-6.62-13.95-8.52-16.52c-1.07-1.45-2.65-3.45-4.77-5.68
				c-4.02-4.22-8.18-7.04-11.16-8.95c0.84,0.33,2.15,0.71,3.45,1.32c1.28,0.6,3.41,1.6,5.65,3.05c2.33,1.5,3.81,2.87,6.77,5.61
				c1.43,1.32,2.54,2.34,3.94,3.87c0.78,0.85,2.69,2.99,4.77,6.06c3.35,4.93,5.11,9.25,5.68,10.71c1.68,4.31,2.37,7.77,2.77,9.87
				c0.86,4.43,1.02,7.82,1.16,11.1c0.13,3.03,0.29,6.87-0.19,11.74c-0.43,4.37-1.17,7.37-2.65,13.35
				c-1.35,5.47-2.31,9.39-4.32,14.52c-0.6,1.54-1.73,4.06-4,9.1c-2.08,4.63-3.12,6.95-4.19,9.1c-2.3,4.61-4.31,8.04-6,10.9
				c-1.74,2.96-3.06,5.02-5.61,9.03c-6.24,9.79-10.54,15.97-11.42,17.23c-1.89,2.7-2.96,4.24-4.52,6.32
				c-0.58,0.77-1.21,1.61-2.19,2.97c-1.37,1.9-2.15,2.98-2.84,4.06c-0.85,1.35-1.51,2.84-2.84,5.81c-0.9,2.01-1.96,4.4-3.16,7.68
				c-0.56,1.52-1.09,2.96-1.68,4.97c-0.89,3.04-1.35,5.41-1.48,6.13c-0.15,0.78-0.77,4.2-0.97,8.9c-0.08,1.79-0.17,4.14,0.06,7.23
				c0.43,5.73,1.7,10.07,2.32,12c0.94,2.93,1.91,5.03,2.77,6.9c1.39,3.01,2.56,5.03,4.58,8.52c1.75,3.02,3.05,5.25,5.1,8.13
				c1.23,1.74,2.26,3.03,3.23,4.26c1.56,1.98,2.02,2.44,5.35,6.39c3.79,4.48,4.3,5.18,6,6.97c1.57,1.65,3.1,2.91,3.87,3.81
				C236.68,454.64,236.86,455.23,237.14,455.74z"/>
		</g>
		<g id="dna-blue">
			<linearGradient id="blue-dna-top_1_" gradientUnits="userSpaceOnUse" x1="158.34" y1="320.9078" x2="276.1084" y2="320.9078">
				<stop  offset="0" style="stop-color:#516DB4"/>
				<stop  offset="0.0567" style="stop-color:#4C68B1"/>
				<stop  offset="0.1701" style="stop-color:#4562AD"/>
				<stop  offset="0.2911" style="stop-color:#4360AC"/>
				<stop  offset="0.6685" style="stop-color:#2E4D9F"/>
				<stop  offset="0.8876" style="stop-color:#243F92"/>
				<stop  offset="1" style="stop-color:#293986"/>
			</linearGradient>
			<path id="blue-dna-top" class="st13" d="M176.52,255.45c-0.59-2.78-1.6-3.85-4.97-4.94c-0.26-0.09-1.66-0.52-3.45-0.26
				c-2.26,0.32-3.74,1.54-4.48,2.16c0,0-1.64,1.38-2.71,3.42c-4.76,9.06-1.45,26.65-1.45,26.65c0.78,4.16,1.72,8.96,4.29,14.97
				c1.46,3.41,4.87,10.49,11.52,17.71c5.84,6.33,11.44,9.81,15.68,12.39c7.5,4.57,13.56,6.72,25.35,10.84
				c16.63,5.8,17.32,4.6,26.32,8.81c13.46,6.29,19.02,12.29,20.81,14.32c5.48,6.25,7.77,11.96,8.23,13.16
				c2.7,7.04,2.81,13.3,2.59,16.96c0.94-3.21,1.94-7.93,1.86-13.67c-0.02-1.66-0.21-6.65-2.03-12.87c-2.26-7.72-5.84-12.86-9-17.32
				c-5.14-7.25-8.34-12.28-14.81-15.77c-1.56-0.85-3.27-1.47-6.68-2.71c-8.52-3.11-14.72-4.34-18.39-5.23
				c-2.66-0.64-13.31-3.29-23.03-9.1c-4.79-2.86-14.72-8.79-21-20.81c-5.89-11.26-5.9-22.37-5.61-28.26
				C175.72,262.5,176.31,260.09,176.52,255.45z"/>
			
				<linearGradient id="blue-dna-middle_1_" gradientUnits="userSpaceOnUse" x1="254.0273" y1="590.1035" x2="254.0273" y2="332.2669">
				<stop  offset="0" style="stop-color:#658FCA"/>
				<stop  offset="0.0215" style="stop-color:#618BC7"/>
				<stop  offset="0.1093" style="stop-color:#517EBF"/>
				<stop  offset="0.1997" style="stop-color:#4876BB"/>
				<stop  offset="0.2961" style="stop-color:#4474B9"/>
				<stop  offset="0.6685" style="stop-color:#4173B9"/>
				<stop  offset="0.8876" style="stop-color:#507DBF"/>
				<stop  offset="1" style="stop-color:#638EC9"/>
			</linearGradient>
			<path id="blue-dna-middle" class="st14" d="M250.74,332.27c1.53,1.68,2.8,3.01,3.65,3.9c1.59,1.64,1.94,1.93,3.1,3.19
				c1.21,1.33,2.11,2.39,3.1,3.58c1.04,1.25,2.01,2.44,2.52,3.1c3.38,4.32,6.1,9.39,6.1,9.39c1.45,2.7,3.46,6.5,4.94,11.9
				c0.59,2.17,1.65,6.14,1.74,11.42c0.02,1.14,0.04,5.25-1.06,10.45c-0.21,1-0.42,1.82-0.58,2.42c-0.01,0.82-0.03,1.95-0.1,3.29
				c-0.09,1.89-0.23,4.55-0.77,7.94c-0.52,3.21-1.17,5.66-1.45,6.68c-0.67,2.41-1.33,4.19-1.94,5.81c-0.28,0.76-1.02,2.71-2.13,5.23
				c-1.08,2.45-2.09,4.75-3.77,7.65c-1.84,3.16-3.52,5.42-3.97,6c-1.04,1.37-2.15,2.7-3.77,4.65c-1.11,1.33-1.92,2.27-2.13,2.52
				c-3.7,4.33-6.52,9.82-11.32,17.03c-1.57,2.35-2.36,3.14-3.77,5.42c-0.47,0.75-0.89,1.47-3.77,6.77c-1.63,3-2.45,4.5-3.29,6.1
				c-1.67,3.17-2.51,4.75-3.48,6.77c-1.22,2.55-2.05,4.5-2.81,6.29c-1.07,2.53-2.11,4.98-3.29,8.32c-1.84,5.18-2.9,9.32-3.39,11.32
				c-0.17,0.68-0.6,2.48-1.06,4.84c-0.5,2.5-1.25,6.28-1.65,10.84c-0.13,1.51-0.53,6.63,0,13.35c0.43,5.45,1.12,9.35,2.32,13.65
				c0.51,1.81,0.76,2.52,2.18,6.27c1.3,3.42,1.5,3.41,1.79,4.09c1.32,3.08,2.75,5.18,4.45,7.65c1.57,2.27,3.09,4.47,5.61,7.06
				c0.57,0.58,2.97,3.01,6.68,5.61c1.77,1.24,4.12,2.87,7.55,4.35c1.52,0.66,4.68,1.91,8.9,2.61c3,0.5,5.85,0.43,11.42,0.29
				c2.53-0.06,5.8-0.19,9.63-0.44c-0.83-0.34-2.09-0.84-3.63-1.4c-5.55-2.03-7.82-2.15-10.84-3.48c-1.58-0.7-5.03-2.32-9-5.13
				c-1.18-0.84-5.45-3.94-9.97-9.19c-2.11-2.46-5.29-6.21-7.94-11.9c-2.03-4.37-2.76-7.77-4.06-13.84
				c-0.8-3.72-1.62-7.64-1.84-12.97c-0.19-4.63,0.17-8.15,0.39-10.16c0.13-1.19,0.76-6.85,2.9-14.23c0.8-2.77,1.5-5.24,2.9-8.42
				c0.24-0.55,0.86-1.92,3.39-6.58c2.46-4.54,3.7-6.82,4.55-8.13c2.84-4.38,4.12-4.99,7.65-9.87c1.73-2.4,2.13-3.54,4.55-7.06
				c1.43-2.08,2.56-3.59,3.48-4.84c7.99-10.71,9.81-12.82,12.97-17.52c0.97-1.44,2.58-3.9,4.45-7.06
				c5.51-9.33,8.45-16.65,9.39-19.06c1.1-2.84,2.13-5.52,3.1-9.29c1.05-4.13,1.51-7.55,1.84-10.06c0.25-1.94,0.54-4.22,0.68-7.26
				c0.13-3.02,0.27-6.15-0.29-10.06c-0.54-3.82-1.48-6.52-2.61-9.77c-0.91-2.61-2-5.71-4.06-9.48c-2.62-4.78-5.34-7.98-6.97-9.87
				c-3.07-3.57-5.76-5.9-8.13-7.94c-1.14-0.98-4.43-3.75-9.1-6.87C257.89,336.23,254.58,334.22,250.74,332.27z"/>
			
				<linearGradient id="blue-dna-bottom_1_" gradientUnits="userSpaceOnUse" x1="338.331" y1="532.2991" x2="228.1948" y2="532.2991">
				<stop  offset="0.0279" style="stop-color:#5CC9DF"/>
				<stop  offset="0.057" style="stop-color:#57C8E2"/>
				<stop  offset="0.1727" style="stop-color:#44C6E9"/>
				<stop  offset="0.2961" style="stop-color:#3CC5EC"/>
				<stop  offset="0.6685" style="stop-color:#3097D3"/>
				<stop  offset="0.8876" style="stop-color:#3567B1"/>
				<stop  offset="1" style="stop-color:#3662AE"/>
			</linearGradient>
			<path id="blue-dna-bottom" class="st15" d="M250.86,474.98c-3.49,3.49-6.05,6.77-7.85,9.34c-0.51,0.72-2.23,3.2-4.16,6.68
				c-2.01,3.62-3.22,6.46-4.45,9.39c-1.81,4.29-2.77,6.59-3.68,9.97c-0.89,3.34-1.22,5.82-1.74,9.87c-0.49,3.81-0.83,6.35-0.77,9.87
				c0.03,2.23,0.25,4.13,0.68,7.94c0.47,4.13,0.7,6.19,1.26,8.81c1.07,5.01,2.58,8.68,3,9.68c2.2,5.22,4.74,8.76,6.39,11.03
				c1.73,2.39,3.96,5.42,7.65,8.71c1.03,0.92,4.69,4.1,10.26,6.97c4.56,2.35,8.42,3.47,12.48,4.65c2.85,0.83,5.26,1.38,6.97,1.74
				c0.34-0.02,0.84-0.05,1.45-0.1c7.82-0.59,13.11-2.32,21-4.35c8.52-2.19,16.94-5.03,25.16-7.74c0.7-0.23,3.4-0.92,6.68-3
				c3.49-2.22,4.9-4.24,5.23-4.74c0.77-1.17,1.99-3.03,1.94-5.61c-0.04-1.75-0.64-3.11-1.06-3.87c-0.38-0.67-1.33-2.39-3.19-3.19
				c-1.31-0.57-2.58-0.46-5.03,0.1c-4.36,0.99-7.59,2.3-8.13,2.52c0,0-1.02,0.41-8.52,3.39c-5.13,2.04-9.1,3.3-12.39,4.35
				c-4.52,1.44-7.74,2.47-12.29,3.48c-3.42,0.76-6.04,1.34-9.68,1.65c-6.55,0.55-11.58-0.2-13.26-0.48
				c-4.19-0.7-8.09-1.35-12.48-3.87c-3.57-2.05-5.76-4.36-8.52-7.26c-2.38-2.51-4.72-4.97-6.77-8.9c-1.91-3.66-2.59-6.72-3.29-9.87
				c-0.3-1.34-1.32-6.18-1.35-12.97c-0.01-1.49,0.01-8.15,1.94-16.74c1.45-6.48,3.36-11.23,5.61-16.84c1.14-2.85,2.09-5.2,3.68-8.32
				c2.55-5.01,3.84-7.34,4.5-8.35C249.17,477.22,250.15,475.89,250.86,474.98z"/>
		</g>
	</g>
	<g id="jesse-letters">
		<path id="jesse-letter-j" class="st16" d="M330.6,379.56c0.24-0.26,0.43-0.59,0.72-0.76c6.45-3.88,8.78-10.06,8.87-17.06
			c0.22-16.88,0.12-33.77,0.11-50.65c0-2.57-1.28-3.72-4.18-4.05c-0.8-0.09-1.61-0.13-2.75-0.22c1.63-1.53,20.87-1.46,21.95-0.15
			c-0.37,0.11-0.69,0.26-1.01,0.3c-4.04,0.52-4.7,1.16-4.72,5.28c-0.04,14.33,0.03,28.65-0.03,42.98
			c-0.06,12.05-7.03,19.43-17.05,24.63c-0.49,0.25-1.11,0.23-1.67,0.34C330.75,379.98,330.68,379.77,330.6,379.56z"/>
		<path id="jesse-letter-e-1" class="st16" d="M360.23,359.92c0.17-0.12,0.34-0.34,0.52-0.35c4.06-0.2,4.92-1.17,4.97-6.09
			c0.14-13.9,0.09-27.8,0.08-41.7c0-3.36-1.17-4.48-4.6-4.8c-0.73-0.07-1.43-0.35-2.05-0.95c11.28-0.77,22.51,0.13,33.95-0.87
			c-0.33,3.48-0.69,7.27-1.05,11.06c-0.28,0-0.56,0-0.85-0.01c-0.12-0.67-0.28-1.34-0.34-2.02c-0.19-2.25-1.31-3.84-3.57-4.05
			c-3.98-0.37-7.99-0.48-12.14-0.7c0,6.72,0,13.13,0,19.95c5.51-0.86,11.36,1.58,16.97-2.42c-0.39,4.39-0.76,8.49-1.13,12.59
			c-0.24,0-0.48-0.01-0.73-0.01c-0.11-0.37-0.28-0.74-0.31-1.11c-0.24-3.66-0.94-4.61-4.51-4.84c-3.35-0.22-6.72-0.05-10.43-0.05
			c0,0.96,0,2.16,0,3.37c0,4.61-0.03,9.22,0.01,13.83c0.03,3.82,1.56,5.51,5.36,5.76c2.25,0.15,4.53,0.17,6.78,0.02
			c3.97-0.26,5.26-1.45,6.17-5.25c0.15-0.64,0.32-1.28,0.58-2.32c0.5,0.62,0.82,0.85,0.8,1.04c-0.32,3.18-0.55,6.39-1.14,9.52
			c-0.11,0.6-1.68,1.29-2.59,1.31c-3.73,0.07-7.46-0.14-11.19-0.17c-5.63-0.05-11.27-0.04-16.9-0.07c-0.9-0.01-1.79-0.11-2.68-0.16
			C360.21,360.27,360.22,360.1,360.23,359.92z"/>
		<path id="jesse-letter-s-1" class="st16" d="M403.91,345.89c0.18,1.1,0.38,2.2,0.55,3.31c1.15,7.26,9.62,11.32,16.01,7.67
			c5.07-2.89,6.16-10.55,1.87-15c-2.05-2.13-4.75-3.6-7.04-5.52c-2.95-2.47-6.28-4.7-8.57-7.71c-5.72-7.51-4.23-21.47,10.15-23.82
			c4.07-0.66,8.39,0.21,12.59,0.46c1.39,0.08,1.93,0.91,1.8,2.39c-0.22,2.62-0.22,5.26-0.35,7.89c-0.03,0.66-0.23,1.31-0.35,1.96
			c-0.23,0.01-0.45,0.01-0.68,0.02c-0.14-0.63-0.32-1.25-0.4-1.89c-0.5-3.72-3.2-6.68-6.77-7.4c-4.44-0.9-8.76,0.63-10.67,3.77
			c-1.75,2.88-1.44,7.01,1.16,9.5c2.03,1.95,4.53,3.41,6.74,5.18c2.96,2.36,6.25,4.44,8.68,7.27c6.5,7.57,5,19.09-3.03,24.96
			c-4.1,3-8.88,3.87-13.83,3.17c-2.6-0.37-5.17-1.15-7.63-2.08c-0.82-0.31-1.76-1.64-1.78-2.52c-0.07-3.43,0.18-6.87,0.38-10.3
			c0.03-0.47,0.42-0.92,0.64-1.39C403.55,345.84,403.73,345.86,403.91,345.89z"/>
		<path id="jesse-letter-s-2" class="st16" d="M442.43,345.39c0.47,2.35,0.68,4.16,1.21,5.87c1.28,4.16,5.02,6.62,10.18,6.85
			c3.89,0.17,7.39-1.87,8.91-5.2c1.74-3.82,1.05-8.59-2.13-11.5c-2.41-2.2-5.21-3.98-7.89-5.87c-4.3-3.03-8.23-6.31-9.69-11.71
			c-2.49-9.24,2.81-17.49,12.23-19.15c4.35-0.76,8.59-0.26,12.84,0.55c1.31,0.25,1.99,0.84,1.86,2.37
			c-0.23,2.62-0.22,5.26-0.36,7.89c-0.03,0.67-0.21,1.32-0.32,1.99c-0.22,0.01-0.44,0.03-0.66,0.04c-0.15-0.54-0.37-1.07-0.44-1.63
			c-0.47-3.75-2.93-6.74-6.3-7.61c-4.26-1.1-8.68,0.25-10.87,3.32c-2.06,2.89-1.88,7.21,0.83,9.85c2.02,1.97,4.5,3.44,6.74,5.19
			c2.81,2.2,5.89,4.15,8.3,6.73c7.7,8.23,5.25,23.65-6.84,27.64c-6.24,2.06-12.03,1.3-17.8-1.21c-0.58-0.25-1.23-1.21-1.22-1.83
			c0.04-3.73,0.24-7.45,0.44-11.17C441.46,346.48,441.87,346.16,442.43,345.39z"/>
		<path id="jesse-letter-e-2" class="st16" d="M477.1,359.92c0.17-0.12,0.34-0.34,0.52-0.35c4.06-0.2,4.92-1.17,4.97-6.09
			c0.14-13.9,0.09-27.8,0.08-41.7c0-3.36-1.17-4.48-4.6-4.8c-0.73-0.07-1.43-0.35-2.05-0.95c11.29-0.73,22.51,0.09,33.95-0.84
			c-0.33,3.45-0.69,7.25-1.05,11.04c-0.28,0-0.56,0-0.85-0.01c-0.12-0.67-0.28-1.34-0.34-2.02c-0.19-2.25-1.31-3.84-3.57-4.05
			c-3.98-0.37-7.99-0.48-12.14-0.7c0,6.72,0,13.13,0,19.95c5.51-0.86,11.36,1.58,16.97-2.42c-0.39,4.39-0.76,8.49-1.13,12.58
			c-0.24,0-0.48,0-0.73-0.01c-0.11-0.37-0.28-0.74-0.31-1.11c-0.24-3.66-0.94-4.61-4.51-4.84c-3.35-0.22-6.72-0.05-10.43-0.05
			c0,0.96,0,2.16,0,3.37c0,4.61-0.03,9.22,0.01,13.83c0.03,3.82,1.56,5.51,5.36,5.76c2.25,0.15,4.53,0.17,6.78,0.02
			c3.97-0.26,5.26-1.45,6.17-5.25c0.15-0.64,0.32-1.28,0.58-2.32c0.5,0.62,0.82,0.85,0.8,1.04c-0.32,3.18-0.55,6.39-1.14,9.52
			c-0.11,0.6-1.68,1.29-2.59,1.31c-3.73,0.07-7.46-0.14-11.19-0.17c-5.63-0.05-11.27-0.04-16.9-0.07c-0.9-0.01-1.8-0.11-2.69-0.16
			C477.08,360.27,477.09,360.1,477.1,359.92z"/>
	</g>
	<g id="james-letters">
		<path id="james-letter-j" class="st16" d="M532.63,379.68c0.23-0.26,0.41-0.6,0.69-0.77c6.77-4.09,8.86-10.61,8.93-17.93
			c0.16-16.37,0.1-32.75,0.1-49.12c0-3.34-1.19-4.49-4.61-4.77c-0.58-0.05-1.16-0.09-1.73-0.17c-0.1-0.01-0.16-0.22-0.5-0.68
			c0.8-0.2,1.47-0.5,2.14-0.51c5.92-0.04,11.84-0.04,17.76,0c0.65,0,1.3,0.3,1.95,0.46c-0.02,0.19-0.04,0.37-0.06,0.56
			c-0.38,0.11-0.76,0.26-1.15,0.31c-3.76,0.48-4.51,1.2-4.52,5.02c-0.03,13.74-0.16,27.49,0.08,41.23
			c0.22,12.41-5.87,20.63-16.36,26.23c-0.74,0.39-1.59,0.56-2.4,0.83C532.85,380.14,532.74,379.91,532.63,379.68z"/>
		<path id="james-letter-a" class="st16" d="M606.57,359.43c-1.01-0.17-1.95-0.77-2.62-1.7c-1.22-1.71-2.4-3.51-3.17-5.45
			c-3.59-8.98-7.04-18.02-10.51-27.05c-2.38-6.18-4.69-12.38-7.12-18.53c-0.4-1.01-1.27-1.83-1.93-2.74c-0.7,0.93-1.4,1.87-2.09,2.8
			c-0.09,0.12-0.15,0.25-0.2,0.39c-3.42,8.89-6.82,17.79-10.25,26.68c-2.61,6.79-5.28,13.56-7.85,20.36
			c-1.21,3.2-3.06,5.46-6.83,5.38c-0.37-0.01-0.74,0.28-1.5,0.58c0.71,0.41,1.09,0.83,1.48,0.83c5.19,0.05,10.39,0.05,15.58-0.01
			c0.35,0,0.69-0.63,1.27-1.2c-5.18-0.57-5.73-1.35-4.22-5.92c1.12-3.38,2.37-6.72,3.71-10.02c0.23-0.57,1.21-1.18,1.86-1.2
			c4.61-0.1,9.23,0.02,13.84-0.1c1.42-0.04,1.89,0.57,2.29,1.73c1.32,3.85,2.72,7.68,4.07,11.52c0.57,1.63,1.68,3.38-1.35,4.55
			c1.01,0.21,1.36,0.34,1.71,0.35c4.62,0.06,9.24,0.12,13.86,0.17C606.59,360.38,606.58,359.91,606.57,359.43z M572.15,338.48
			c2.32-6.56,4.59-12.97,7.08-20.02c2.41,7.02,4.61,13.42,6.87,20.02H572.15z"/>
		<path id="james-letter-m" class="st16" d="M672.92,359.36c-3.73-0.63-4.78-1.55-5.31-5.27c-1.38-9.68-2.67-19.38-4-29.07
			c-0.86-6.29-1.71-12.58-2.66-18.86c-0.12-0.76-0.82-1.44-1.25-2.15c-0.61,0.53-1.32,0.99-1.81,1.63
			c-0.43,0.56-0.62,1.31-0.91,1.97c-5.74,13.05-11.48,26.11-17.37,39.52c-0.58-1.23-1.03-2.14-1.44-3.06
			c-5.61-12.63-11.2-25.28-16.87-37.88c-0.39-0.87-1.4-1.46-2.11-2.18c-0.41,0.73-1.08,1.42-1.19,2.19
			c-1.55,10.76-2.99,21.54-4.51,32.31c-0.82,5.85-1.63,11.71-2.66,17.52c-0.21,1.17-1.18,2.66-2.2,3.14
			c-0.34,0.16-0.69,0.24-1.05,0.29c0.01,0.47,0.01,0.95,0.01,1.42c4.34,0.05,8.68,0.09,13.01,0.13c0.49,0,0.98-0.41,1.47-0.63
			c-0.74-0.66-1.35-0.83-1.97-0.95c-3.43-0.64-3.61-0.83-3.49-4.23c0.02-0.66,0.08-1.31,0.16-1.97c0.68-6.02,1.36-12.05,2.05-18.07
			c0.38-3.32,0.78-6.64,1.23-10.53c0.62,1.31,0.99,2.08,1.34,2.85c4.55,10.08,9.08,20.17,13.67,30.23c0.55,1.2,1.41,2.27,2.12,3.4
			c0.28,0.01,0.56,0.01,0.84,0.02c5.95-12.05,10.9-24.57,16.78-37.05c0.21,0.62,0.34,0.87,0.37,1.13c1.03,8.55,2.17,17.1,3,25.67
			c0.29,2.97,1.83,6.1-0.42,8.99c3.15,1.32,16.44,1.41,17.79,0.02C674.59,359.68,673.76,359.5,672.92,359.36z"/>
		<path id="james-letter-e" class="st16" d="M676.93,305.68c11.14-0.23,22.3,0.46,33.74-0.33c-0.31,3.37-0.66,7.15-1.01,10.93
			c-0.29,0.01-0.58,0.01-0.87,0.02c-0.12-0.72-0.26-1.43-0.36-2.15c-0.34-2.45-1.46-3.77-3.91-3.98c-3.85-0.32-7.72-0.42-11.76-0.62
			c0,6.7,0,13.16,0,19.96c5.53-0.87,11.35,1.47,16.92-2.36c-0.37,4.28-0.73,8.39-1.09,12.51c-0.29,0-0.58,0-0.87,0
			c-0.07-0.72-0.16-1.43-0.22-2.15c-0.18-2.06-1.13-3.54-3.3-3.71c-3.77-0.29-7.56-0.41-11.53-0.62c0,6.58-0.09,12.84,0.05,19.11
			c0.05,2.17,1.47,3.87,3.67,4.02c3.46,0.24,6.97,0.18,10.44-0.05c2.11-0.14,3.24-1.78,3.77-3.77c0.27-1,0.53-2.01,0.79-3.01
			c0.41,0.11,0.66,0.15,0.66,0.18c-0.3,3.43-0.51,6.88-1.06,10.28c-0.08,0.49-1.81,1.01-2.78,1.01c-7.54-0.05-15.07-0.24-22.61-0.36
			c-1.83-0.03-3.66,0.09-5.49,0.11c-0.77,0-1.55-0.1-2.33-0.15c-0.03-0.19-0.05-0.39-0.08-0.58c0.69-0.17,1.37-0.39,2.07-0.5
			c1.85-0.32,3.16-1.15,3.23-3.22c0.17-4.82,0.43-9.63,0.46-14.45c0.05-9.8-0.01-19.61-0.07-29.41c-0.02-4-1.02-4.99-4.97-5.33
			c-0.61-0.05-1.21-0.38-1.81-0.57C676.72,306.22,676.82,305.95,676.93,305.68z"/>
		<path id="james-letter-s" class="st16" d="M747.41,317.6c-0.11-0.59-0.26-1.18-0.34-1.77c-0.48-3.75-3.14-6.74-6.68-7.49
			c-4.4-0.93-8.77,0.57-10.72,3.68c-1.73,2.76-1.51,6.91,0.9,9.35c1.83,1.85,4.08,3.27,6.14,4.89c3.14,2.48,6.67,4.61,9.31,7.53
			c7.42,8.2,4.92,23.3-7.03,27.31c-6.15,2.07-11.89,1.31-17.61-1.07c-0.66-0.27-1.44-1.26-1.44-1.92c0.01-3.73,0.22-7.45,0.42-11.17
			c0.02-0.35,0.42-0.67,1.05-1.62c0.28,1.78,0.46,2.93,0.65,4.08c1.18,7.21,9.78,11.21,16.11,7.49c5.01-2.95,6.02-10.64,1.67-15.03
			c-2.23-2.26-5.12-3.84-7.59-5.88c-2.69-2.22-5.67-4.27-7.77-6.98c-5.95-7.69-4.4-21.84,10.11-24.11c4.01-0.63,8.25,0.2,12.38,0.46
			c1.27,0.08,2.05,0.74,1.9,2.31c-0.24,2.69-0.23,5.4-0.37,8.11c-0.03,0.6-0.21,1.2-0.32,1.79
			C747.93,317.58,747.67,317.59,747.41,317.6z"/>
	</g>
	<g id="method-letters">
		<path id="method-letter-m" class="st17" d="M427.16,383.65c3.45,7.64,6.91,15.28,10.5,23.22c3.55-7.95,6.98-15.6,10.4-23.25
			c0.3,0.02,0.61,0.04,0.91,0.05c0.25,1.19,0.56,2.38,0.73,3.58c1.02,7.29,2.07,14.59,2.97,21.9c0.34,2.76,1.1,4.88,4.78,4.46
			c-0.13,0.21-0.25,0.42-0.38,0.63c-3.1,0-6.19,0-8.86,0c-0.7-6.45-1.37-12.67-2.04-18.9c-0.16-0.05-0.31-0.1-0.47-0.15
			c-2.93,6.47-5.86,12.94-8.79,19.41c-0.28,0.04-0.56,0.09-0.84,0.13c-2.93-6.32-5.86-12.65-9.04-19.51
			c-0.67,5.79-1.28,11.02-1.89,16.25c-0.15,1.25,0.4,1.93,1.64,2.11c0.45,0.06,0.88,0.22,1.26,0.73c-2.93,0-5.85,0-8.78,0
			c4.46-1.17,3.02-5.09,3.51-7.8c1.27-7.03,2.1-14.13,3.12-21.2c0.08-0.53,0.3-1.04,0.45-1.56
			C426.62,383.71,426.89,383.68,427.16,383.65z"/>
		<path id="method-letter-e" class="st17" d="M469.65,413.71c2.85,0.38,3.19-1.45,3.21-3.32c0.06-7.46,0.04-14.91,0.02-22.37
			c0-1.53-0.73-2.47-2.39-2.5c-0.39-0.01-0.77-0.19-1.16-0.29c0.01-0.18,0.01-0.36,0.02-0.55c6.02,0,12.04,0,18.24,0
			c-0.16,1.64-0.36,3.62-0.55,5.6c-1.54-5.4-5.88-2.65-9.1-3.52c0,3.63,0,6.96,0,10.75c2.97-0.19,5.92-0.37,9.05-0.57
			c-0.13,1.66-0.29,3.85-0.46,6.04c-1.17-5.43-5.45-2.65-8.64-3.51c0,3.69-0.04,7.11,0.04,10.52c0.01,0.59,0.37,1.3,0.8,1.72
			c2.38,2.35,7.96,0.89,8.99-2.29c0.09-0.27,0.22-0.53,0.85-0.74c-0.2,1.81-0.32,3.64-0.66,5.42c-0.07,0.37-0.97,0.82-1.49,0.82
			c-2.11,0.01-4.23-0.22-6.34-0.22c-2.84-0.01-5.69,0.14-8.53,0.16c-0.59,0-1.19-0.25-1.78-0.38
			C469.73,414.2,469.69,413.95,469.65,413.71z"/>
		<path id="method-letter-t" class="st17" d="M517.11,386.76c0,8.05-0.1,15.64,0.05,23.23c0.06,3.03,0.32,3.02,3.83,4.24
			c-3.96,0-7.93,0-11.89,0c3.59-0.56,2.95-3.32,2.95-5.66c0.03-7.16,0.01-14.32,0.01-21.68c-2.46,0.14-4.82,0.04-7.07,0.51
			c-1.13,0.23-2.06,1.48-3.38,2.51c0.31-1.82,0.61-3.65,0.92-5.48c8.2,0,16.26,0,24.35,0c0,1.87,0,3.85,0,5.84
			C524.89,385.3,520.58,387.7,517.11,386.76z"/>
		<path id="method-letter-h" class="st17" d="M559.48,384.78c3.79,0,7.59,0,11.38,0c0.03,0.11,0.06,0.21,0.09,0.32
			c-0.28,0.14-0.55,0.39-0.83,0.4c-1.81,0.01-2.18,1.15-2.18,2.63c0,7.39,0.04,14.78-0.01,22.17c-0.02,2.73,1.36,3.78,4.28,3.28
			c-0.12,0.22-0.24,0.45-0.36,0.67c-3.97,0-7.93,0-11.9,0c3.5-0.54,2.94-3.24,2.99-5.53c0.06-2.83,0.02-5.66,0.02-8.59
			c-4.83,0-9.48,0-14.25,0c0,3.74-0.06,7.45,0.03,11.15c0.03,1.49,0.84,2.45,2.53,2.35c0.43-0.02,0.86,0.17,1.23,0.68
			c-3.94,0-7.88,0-11.82,0c3.37-0.59,2.9-3.19,2.92-5.41c0.07-6.14,0.1-12.29,0.06-18.44c-0.03-4.08-0.1-4.08-4.11-5.6
			c4.37,0,8.17,0,11.96,0c-3.94,0.51-2.81,3.54-2.9,5.89c-0.09,2.25-0.02,4.5-0.02,6.96c4.52,0,8.82,0.04,13.13-0.06
			c0.44-0.01,1.23-0.8,1.24-1.25c0.09-2.85,0.01-5.7-0.02-8.56C562.91,385.51,560.9,385.65,559.48,384.78z"/>
		<path id="method-letter-o" class="st17" d="M585.81,399.49c0.01-9.14,6.24-15.3,15.46-15.29c9.24,0.02,14.98,5.7,14.97,14.82
			c-0.01,9.33-6.44,15.96-15.46,15.96C591.81,414.97,585.8,408.75,585.81,399.49z M610.93,399.98c-0.27-3.53-1.04-6.83-3.14-9.7
			c-3.74-5.13-11.27-5.3-14.57-0.37c-3.58,5.35-2.38,15.77,2.31,20.16c5.17,4.84,12.5,3.03,14.41-3.65
			C610.52,404.35,610.61,402.13,610.93,399.98z"/>
		<path id="method-letter-d" class="st17" d="M629.79,384.4c6.54,0.26,13.15-0.03,19.59,0.9c9.09,1.32,11.69,9.5,10.6,16.4
			c-1.37,8.67-7,13.29-15.76,13.21c-4.63-0.04-9.26-0.36-13.91-0.55c0.05-0.28,0.07-0.53,0.09-0.53c2.55,0.04,2.83-1.78,2.84-3.64
			c0.04-7.39-0.01-14.77,0.04-22.16c0.02-2.49-1.97-2.41-3.62-2.82C629.7,384.95,629.75,384.68,629.79,384.4z M638.25,398.76
			c0.01,0,0.02,0,0.03,0c0,3.43-0.01,6.87,0.01,10.3c0.01,1.57,0.46,2.95,2.19,3.35c3.68,0.86,7.26,0.71,10.42-1.66
			c3.72-2.8,4.02-6.87,3.96-11.04c-0.11-8.38-6.55-13.92-14.9-12.93c-1.31,0.15-1.76,0.6-1.73,1.9
			C638.29,392.04,638.25,395.4,638.25,398.76z"/>
	</g>
	<g id="mitochondria-letters">
		<path id="mitochondria-letter-m" class="st18" d="M358.29,450.15c0.08-0.46,0.24-0.7,0.46-0.7s0.38,0.13,0.73,0.84l7.37,15.21
			l7.34-15.4c0.22-0.43,0.35-0.65,0.59-0.65s0.4,0.27,0.49,0.84l2.45,16.67c0.24,1.7,0.51,2.48,1.32,2.72
			c0.78,0.24,1.32,0.27,1.67,0.27c0.24,0,0.43,0.03,0.43,0.19c0,0.22-0.32,0.3-0.7,0.3c-0.67,0-4.4-0.08-5.48-0.16
			c-0.62-0.05-0.78-0.13-0.78-0.3c0-0.13,0.11-0.22,0.3-0.3c0.16-0.05,0.24-0.4,0.14-1.16L373,456.65h-0.11l-5.88,12.25
			c-0.62,1.27-0.76,1.51-1,1.51s-0.51-0.54-0.94-1.35c-0.65-1.24-2.78-5.37-3.1-6.12c-0.24-0.57-1.86-3.97-2.81-5.99h-0.11
			l-1.4,10.74c-0.05,0.49-0.08,0.84-0.08,1.27c0,0.51,0.35,0.76,0.81,0.86c0.49,0.11,0.86,0.14,1.13,0.14c0.22,0,0.4,0.05,0.4,0.19
			c0,0.24-0.24,0.3-0.65,0.3c-1.13,0-2.35-0.08-2.83-0.08c-0.51,0-1.81,0.08-2.67,0.08c-0.27,0-0.49-0.05-0.49-0.3
			c0-0.13,0.16-0.19,0.43-0.19c0.22,0,0.4,0,0.81-0.08c0.76-0.16,0.97-1.21,1.11-2.13L358.29,450.15z"/>
		<path id="mitochondria-letter-i-1" class="st18" d="M384.9,459.73c0-3.48,0-4.13-0.03-4.86c-0.05-0.78-0.3-1.05-0.81-1.21
			c-0.27-0.08-0.57-0.11-0.86-0.11c-0.24,0-0.38-0.05-0.38-0.27c0-0.13,0.19-0.19,0.57-0.19c0.89,0,2.51,0.05,3.18,0.05
			c0.59,0,2.13-0.05,3.05-0.05c0.3,0,0.49,0.05,0.49,0.19c0,0.22-0.13,0.27-0.38,0.27c-0.24,0-0.43,0.03-0.7,0.08
			c-0.65,0.11-0.84,0.43-0.89,1.24c-0.05,0.73-0.05,1.38-0.05,4.86v4.05c0,2.21,0,4.05,0.11,5.02c0.08,0.62,0.24,0.97,0.94,1.08
			c0.32,0.05,0.86,0.08,1.21,0.08c0.27,0,0.38,0.13,0.38,0.24c0,0.16-0.19,0.24-0.46,0.24c-1.56,0-3.18-0.08-3.83-0.08
			c-0.54,0-2.16,0.08-3.1,0.08c-0.3,0-0.46-0.08-0.46-0.24c0-0.11,0.08-0.24,0.38-0.24c0.35,0,0.62-0.03,0.84-0.08
			c0.49-0.11,0.62-0.43,0.7-1.11c0.11-0.94,0.11-2.78,0.11-4.99V459.73z"/>
		<path id="mitochondria-letter-t" class="st18" d="M399.04,454.49l-3.53,0.08c-1.38,0.03-1.94,0.19-2.29,0.7
			c-0.24,0.32-0.35,0.62-0.4,0.78c-0.05,0.19-0.11,0.3-0.27,0.3s-0.22-0.13-0.22-0.38c0-0.38,0.46-2.59,0.51-2.78
			c0.05-0.3,0.13-0.43,0.27-0.43c0.19,0,0.43,0.19,1.03,0.27c0.7,0.08,1.59,0.11,2.37,0.11h9.63c0.76,0,1.27-0.05,1.62-0.11
			c0.38-0.05,0.57-0.11,0.65-0.11c0.16,0,0.19,0.13,0.19,0.49c0,0.49-0.05,2.19-0.05,2.78c-0.03,0.24-0.08,0.38-0.22,0.38
			c-0.19,0-0.24-0.11-0.27-0.46l-0.03-0.24c-0.05-0.59-0.67-1.29-2.81-1.32l-2.99-0.05v9.28c0,2.1,0.03,3.91,0.13,4.91
			c0.08,0.65,0.22,1.08,0.92,1.19c0.32,0.05,0.86,0.08,1.21,0.08c0.27,0,0.38,0.13,0.38,0.24c0,0.16-0.19,0.24-0.46,0.24
			c-1.56,0-3.16-0.08-3.83-0.08c-0.54,0-2.16,0.08-3.1,0.08c-0.3,0-0.46-0.08-0.46-0.24c0-0.11,0.08-0.24,0.38-0.24
			c0.35,0,0.65-0.03,0.84-0.08c0.49-0.11,0.62-0.54,0.7-1.21c0.11-0.97,0.11-2.78,0.11-4.88V454.49z"/>
		<path id="mitochondria-letter-o-1" class="st18" d="M410.02,461.75c0-3.91,2.75-8.98,9.96-8.98c5.99,0,9.71,3.32,9.71,8.58
			s-3.83,9.39-9.96,9.39C412.83,470.73,410.02,465.82,410.02,461.75z M426.16,462.18c0-5.07-3.05-8.2-6.88-8.2
			c-2.64,0-5.75,1.4-5.75,7.07c0,4.72,2.7,8.44,7.18,8.44C422.38,469.49,426.16,468.71,426.16,462.18z"/>
		<path id="mitochondria-letter-c" class="st18" d="M435.31,468.25c-2.35-1.97-2.97-4.56-2.97-6.77c0-1.56,0.51-4.26,2.78-6.29
			c1.73-1.51,3.99-2.43,7.53-2.43c1.48,0,2.37,0.11,3.45,0.24c0.89,0.13,1.67,0.3,2.37,0.38c0.27,0.03,0.35,0.13,0.35,0.27
			c0,0.19-0.05,0.46-0.11,1.27c-0.05,0.75-0.05,2.02-0.08,2.48c-0.03,0.32-0.11,0.57-0.32,0.57c-0.19,0-0.24-0.19-0.24-0.49
			c-0.03-0.73-0.32-1.54-0.92-2.13c-0.81-0.78-2.4-1.35-4.59-1.35c-2.08,0-3.4,0.38-4.48,1.29c-1.75,1.51-2.19,3.72-2.19,5.96
			c0,5.45,4.21,8.04,7.39,8.04c2.1,0,3.26-0.16,4.21-1.21c0.41-0.46,0.73-1.11,0.81-1.54c0.05-0.35,0.11-0.46,0.3-0.46
			c0.16,0,0.27,0.22,0.27,0.41c0,0.27-0.27,2.27-0.51,3.05c-0.11,0.41-0.22,0.51-0.62,0.67c-0.94,0.38-2.75,0.51-4.29,0.51
			C440.21,470.73,437.46,470.06,435.31,468.25z"/>
		<path id="mitochondria-letter-h" class="st18" d="M466.25,460.56c0.05,0,0.13-0.03,0.13-0.16v-0.49c0-3.48-0.03-4.32-0.05-5.04
			c-0.05-0.78-0.27-1.03-1.03-1.24c-0.19-0.05-0.59-0.08-0.92-0.08c-0.27,0-0.41-0.08-0.41-0.24s0.16-0.22,0.51-0.22
			c1.27,0,2.94,0.05,3.56,0.05c0.57,0,2.13-0.05,3.05-0.05c0.35,0,0.51,0.05,0.51,0.22s-0.16,0.24-0.43,0.24
			c-0.19,0-0.4,0.03-0.7,0.08c-0.62,0.11-0.81,0.43-0.86,1.24c-0.05,0.73-0.05,1.38-0.05,4.86v4.05c0,2.1,0,3.91,0.11,4.91
			c0.08,0.65,0.22,1.08,0.94,1.19c0.32,0.05,0.84,0.08,1.21,0.08c0.24,0,0.38,0.13,0.38,0.24c0,0.16-0.19,0.24-0.49,0.24
			c-1.54,0-3.1-0.08-3.75-0.08c-0.54,0-2.21,0.08-3.13,0.08c-0.32,0-0.51-0.08-0.51-0.24c0-0.11,0.11-0.24,0.38-0.24
			c0.38,0,0.65-0.03,0.86-0.08c0.49-0.11,0.62-0.54,0.7-1.21c0.11-0.97,0.11-2.73,0.11-4.83v-1.75c0-0.08-0.08-0.13-0.13-0.13h-8.96
			c-0.08,0-0.16,0.03-0.16,0.13v1.75c0,2.1,0.03,3.86,0.13,4.86c0.08,0.65,0.22,1.08,0.92,1.19c0.32,0.05,0.86,0.08,1.21,0.08
			c0.27,0,0.38,0.13,0.38,0.24c0,0.16-0.19,0.24-0.49,0.24c-1.54,0-3.18-0.08-3.86-0.08c-0.54,0-2.1,0.08-3.05,0.08
			c-0.3,0-0.46-0.08-0.46-0.24c0-0.11,0.08-0.24,0.38-0.24c0.35,0,0.62-0.03,0.84-0.08c0.49-0.11,0.62-0.54,0.7-1.21
			c0.11-0.97,0.11-2.78,0.11-4.88v-4.05c0-3.48,0-4.13-0.03-4.86c-0.05-0.78-0.27-1.03-1.02-1.24c-0.19-0.05-0.59-0.08-0.94-0.08
			c-0.24,0-0.41-0.08-0.41-0.24s0.19-0.22,0.51-0.22c1.27,0,2.83,0.05,3.48,0.05c0.57,0,2.21-0.05,3.16-0.05
			c0.32,0,0.49,0.05,0.49,0.22s-0.13,0.24-0.43,0.24c-0.19,0-0.4,0.03-0.67,0.08c-0.65,0.11-0.84,0.43-0.89,1.24
			c-0.05,0.73-0.05,1.56-0.05,5.04v0.49c0,0.14,0.08,0.16,0.16,0.16H466.25z"/>
		<path id="mitochondria-letter-o-2" class="st18" d="M474.49,461.75c0-3.91,2.75-8.98,9.96-8.98c5.99,0,9.71,3.32,9.71,8.58
			s-3.83,9.39-9.96,9.39C477.29,470.73,474.49,465.82,474.49,461.75z M490.62,462.18c0-5.07-3.05-8.2-6.88-8.2
			c-2.64,0-5.75,1.4-5.75,7.07c0,4.72,2.7,8.44,7.18,8.44C486.84,469.49,490.62,468.71,490.62,462.18z"/>
		<path id="mitochondria-letter-n" class="st18" d="M500.07,467.31c0.05,1.78,0.35,2.32,0.81,2.48c0.41,0.13,0.86,0.16,1.24,0.16
			c0.27,0,0.4,0.11,0.4,0.24c0,0.19-0.22,0.24-0.54,0.24c-1.54,0-2.64-0.08-3.08-0.08c-0.21,0-1.35,0.08-2.56,0.08
			c-0.32,0-0.54-0.03-0.54-0.24c0-0.13,0.16-0.24,0.38-0.24c0.32,0,0.76-0.03,1.08-0.11c0.62-0.16,0.7-0.78,0.73-2.78l0.22-13.6
			c0-0.46,0.16-0.78,0.41-0.78c0.3,0,0.62,0.35,1.02,0.75c0.3,0.3,3.86,3.94,7.31,7.31c1.62,1.59,4.77,4.83,5.13,5.15h0.11
			l-0.24-10.2c-0.03-1.4-0.24-1.81-0.81-2.02c-0.35-0.13-0.92-0.13-1.24-0.13c-0.3,0-0.38-0.11-0.38-0.24
			c0-0.19,0.24-0.22,0.59-0.22c1.24,0,2.51,0.05,3.02,0.05c0.27,0,1.16-0.05,2.32-0.05c0.32,0,0.54,0.03,0.54,0.22
			c0,0.13-0.13,0.24-0.4,0.24c-0.24,0-0.43,0-0.73,0.08c-0.65,0.19-0.84,0.59-0.86,1.89l-0.27,14.46c0,0.51-0.19,0.73-0.38,0.73
			c-0.4,0-0.73-0.24-0.97-0.49c-1.48-1.38-4.45-4.21-6.93-6.61c-2.59-2.48-5.1-5.26-5.56-5.67h-0.08L500.07,467.31z"/>
		<path id="mitochondria-letter-d" class="st18" d="M521.28,459.73c0-3.48,0-4.13-0.03-4.86c-0.05-0.78-0.27-1.03-1.02-1.24
			c-0.19-0.05-0.59-0.08-0.94-0.08c-0.24,0-0.41-0.08-0.41-0.24s0.19-0.22,0.54-0.22c1.24,0,2.75,0.05,3.43,0.05
			c0.73,0,2.43-0.05,3.86-0.05c2.97,0,6.96,0,9.55,2.62c1.19,1.19,2.24,3.1,2.24,5.83c0,2.89-1.24,5.07-2.59,6.39
			c-1.08,1.08-3.59,2.7-7.96,2.7c-0.86,0-1.89-0.08-2.83-0.13c-0.94-0.08-1.81-0.13-2.4-0.13c-0.27,0-0.78,0.03-1.35,0.03
			c-0.57,0.03-1.16,0.05-1.65,0.05c-0.3,0-0.46-0.08-0.46-0.24c0-0.11,0.08-0.24,0.38-0.24c0.35,0,0.62-0.03,0.84-0.08
			c0.49-0.11,0.62-0.54,0.7-1.21c0.11-0.97,0.11-2.78,0.11-4.88V459.73z M524.46,462.26c0,2.43,0.03,4.18,0.05,4.64
			c0.03,0.57,0.08,1.38,0.27,1.62c0.3,0.43,1.24,0.92,3.1,0.92c2.16,0,3.75-0.38,5.18-1.56c1.54-1.27,2.02-3.32,2.02-5.69
			c0-2.91-1.16-4.8-2.21-5.72c-2.19-1.94-4.78-2.19-6.64-2.19c-0.49,0-1.27,0.05-1.46,0.16c-0.22,0.08-0.3,0.19-0.3,0.46
			c-0.03,0.78-0.03,2.67-0.03,4.48V462.26z"/>
		<path id="mitochondria-letter-r" class="st18" d="M543.43,459.73c0-3.48,0-4.13-0.03-4.86c-0.05-0.78-0.27-1.03-1.02-1.24
			c-0.19-0.05-0.59-0.08-0.94-0.08c-0.24,0-0.41-0.08-0.41-0.24s0.19-0.22,0.54-0.22c1.24,0,2.75,0.05,3.24,0.05
			c0.81,0,2.97-0.05,3.7-0.05c1.51,0,3.24,0.13,4.5,0.97c0.67,0.46,1.67,1.62,1.67,3.16c0,1.7-0.97,3.21-3.29,5.07
			c2.1,2.59,3.78,4.67,5.21,6.1c1.32,1.32,2.16,1.43,2.54,1.51c0.24,0.05,0.38,0.05,0.57,0.05c0.19,0,0.3,0.13,0.3,0.24
			c0,0.19-0.16,0.24-0.46,0.24h-2.27c-1.32,0-1.97-0.13-2.59-0.46c-1.03-0.51-1.92-1.59-3.24-3.37c-0.94-1.24-1.94-2.78-2.24-3.13
			c-0.13-0.14-0.27-0.16-0.43-0.16l-2.13-0.05c-0.11,0-0.19,0.05-0.19,0.19v0.32c0,2.13,0.03,3.91,0.13,4.88
			c0.08,0.67,0.19,1.11,0.92,1.21c0.35,0.05,0.86,0.08,1.16,0.08c0.19,0,0.3,0.13,0.3,0.24c0,0.16-0.19,0.24-0.49,0.24
			c-1.38,0-3.35-0.08-3.7-0.08c-0.46,0-1.97,0.08-2.91,0.08c-0.3,0-0.46-0.08-0.46-0.24c0-0.11,0.08-0.24,0.38-0.24
			c0.35,0,0.62-0.03,0.84-0.08c0.49-0.11,0.62-0.54,0.7-1.21c0.11-0.97,0.11-2.78,0.11-4.88V459.73z M546.45,461.51
			c0,0.24,0.05,0.32,0.22,0.4c0.51,0.16,1.21,0.22,1.81,0.22c0.94,0,1.27-0.08,1.67-0.38c0.73-0.51,1.54-1.51,1.54-3.4
			c0-3.24-2.21-4.07-3.61-4.07c-0.59,0-1.16,0.03-1.4,0.08c-0.16,0.05-0.22,0.14-0.22,0.32V461.51z"/>
		<path id="mitochondria-letter-i-2" class="st18" d="M561.94,459.73c0-3.48,0-4.13-0.03-4.86c-0.05-0.78-0.3-1.05-0.81-1.21
			c-0.27-0.08-0.57-0.11-0.86-0.11c-0.24,0-0.38-0.05-0.38-0.27c0-0.13,0.19-0.19,0.57-0.19c0.89,0,2.51,0.05,3.18,0.05
			c0.59,0,2.13-0.05,3.05-0.05c0.3,0,0.49,0.05,0.49,0.19c0,0.22-0.14,0.27-0.38,0.27c-0.24,0-0.43,0.03-0.7,0.08
			c-0.65,0.11-0.84,0.43-0.89,1.24c-0.05,0.73-0.05,1.38-0.05,4.86v4.05c0,2.21,0,4.05,0.11,5.02c0.08,0.62,0.24,0.97,0.94,1.08
			c0.32,0.05,0.86,0.08,1.21,0.08c0.27,0,0.38,0.13,0.38,0.24c0,0.16-0.19,0.24-0.46,0.24c-1.56,0-3.18-0.08-3.83-0.08
			c-0.54,0-2.16,0.08-3.1,0.08c-0.3,0-0.46-0.08-0.46-0.24c0-0.11,0.08-0.24,0.38-0.24c0.35,0,0.62-0.03,0.84-0.08
			c0.49-0.11,0.62-0.43,0.7-1.11c0.11-0.94,0.11-2.78,0.11-4.99V459.73z"/>
		<path id="mitochondria-letter-a" class="st18" d="M573.95,464.66c-0.13,0-0.16,0.03-0.22,0.16l-1.27,3.08
			c-0.24,0.57-0.35,1.13-0.35,1.4c0,0.4,0.22,0.65,0.94,0.65h0.35c0.3,0,0.35,0.11,0.35,0.24c0,0.19-0.13,0.24-0.38,0.24
			c-0.78,0-1.89-0.08-2.64-0.08c-0.24,0-1.51,0.08-2.75,0.08c-0.3,0-0.43-0.05-0.43-0.24c0-0.13,0.08-0.24,0.27-0.24
			c0.22,0,0.49-0.03,0.7-0.03c1.08-0.16,1.48-0.86,1.97-2.02l6.2-14.43c0.27-0.65,0.46-0.92,0.7-0.92c0.35,0,0.46,0.22,0.7,0.73
			c0.57,1.27,4.53,10.66,6.04,14.14c0.92,2.08,1.59,2.37,2.02,2.46c0.35,0.05,0.62,0.08,0.89,0.08c0.22,0,0.32,0.08,0.32,0.24
			c0,0.19-0.13,0.24-1.03,0.24c-0.84,0-2.56,0-4.56-0.05c-0.43-0.03-0.7-0.03-0.7-0.19c0-0.13,0.05-0.22,0.3-0.24
			c0.16-0.03,0.32-0.24,0.22-0.51l-1.83-4.61c-0.05-0.13-0.13-0.16-0.24-0.16H573.95z M579.02,463.4c0.11,0,0.13-0.05,0.11-0.13
			l-2.24-5.83c-0.03-0.08-0.05-0.22-0.11-0.22c-0.08,0-0.11,0.13-0.13,0.22l-2.29,5.8c-0.05,0.11,0,0.16,0.08,0.16H579.02z"/>
	</g>
	<g id="balance-letters">
		<path id="balance-letter-b" class="st19" d="M603.9,470.82c0.57-1.04,1.42-1.88,1.45-2.75c0.14-5.24,0.07-10.48,0.11-15.72
			c0.01-1.66-1-2.07-2.37-2.13c3.14,0,6.32-0.33,9.4,0.08c3.83,0.51,4.92,4.15,2.39,7.08c-0.4,0.46-0.84,0.9-1.33,1.42
			c0.71,0.43,1.35,0.79,1.96,1.19c1.93,1.28,3.03,3.06,2.71,5.39c-0.35,2.58-1.98,4.43-4.48,4.8
			C610.36,470.69,606.91,470.65,603.9,470.82z M608.64,460.06c0,2.21,0.03,4.33-0.01,6.46c-0.03,1.52,0.2,2.73,2.09,2.89
			c2.26,0.19,3.87-0.65,4.18-2.43C615.62,462.95,612.5,458.91,608.64,460.06z M608.76,451.19c0,2.5,0,4.92,0,8.03
			c1.54-0.62,3.12-0.79,3.89-1.67c1.27-1.45,0.88-3.33-0.1-4.97C611.69,451.15,610.4,450.85,608.76,451.19z"/>
		<path id="balance-letter-a-1" class="st19" d="M637.92,470.05c-0.8-0.05-1.62-0.25-2.31-0.6c-0.56-0.29-0.83-1.22-1.13-1.9
			c-1.78-4.02-3.53-8.06-5.31-12.09c-0.4-0.92-0.88-1.8-1.53-3.13c-2.29,5.22-4.31,10.03-6.51,14.75c-0.64,1.38-1.8,2.51-2.52,3.48
			h4.45c-0.19-0.75-0.63-1.51-0.49-2.13c0.74-3.3,1.14-3.57,4.49-3.57c0.69,0,1.4-0.09,2.07,0.03c0.44,0.08,1.05,0.38,1.21,0.75
			c0.7,1.6,1.27,3.26,1.91,4.94h5.66C637.89,470.4,637.91,470.23,637.92,470.05z M624.53,463.53c0.8-1.99,1.55-3.85,2.48-6.18
			c0.92,2.3,1.66,4.15,2.47,6.18H624.53z"/>
		<path id="balance-letter-l" class="st19" d="M638.94,469.83c-0.02,0.25-0.04,0.5-0.06,0.75h11.3v-0.63c0,0-0.01,0-0.01,0v-3
			c-1.06,2.25-2.17,2.68-5.12,2.35c-1.53-0.17-2.33-0.81-2.29-2.51c0.09-3.52,0.03-7.05,0.02-10.57c-0.01-1.42-0.22-2.95,1.97-2.86
			h-6.62c0.42,0.59,1.35,1.29,1.37,2.01c0.11,4.28,0.05,8.56-0.04,12.84C639.44,468.69,639.19,469.45,638.94,469.83z"/>
		<path id="balance-letter-a-2" class="st19" d="M669.36,470.04c-0.79-0.06-1.6-0.3-2.3-0.65c-0.51-0.25-0.76-1.11-1.04-1.73
			c-0.85-1.88-1.66-3.78-2.48-5.67c-1.34-3.06-2.69-6.13-4.26-9.69c-0.59,1.18-0.92,1.78-1.19,2.4c-1.84,4.22-3.65,8.45-5.54,12.65
			c-0.32,0.72-0.78,1.37-1.23,2.03c-0.01,0.4-0.03,0.79-0.06,1.19h3.56c-0.29-0.59-0.95-1.3-0.8-1.71c0.52-1.43,0.29-3.61,2.25-3.95
			c4.48-0.79,5.81,0.13,7.07,4.32c0.13,0.43,0.12,0.9,0.17,1.28h5.85V470.04z M656.07,463.48c0.76-1.91,1.51-3.78,2.47-6.17
			c0.93,2.36,1.65,4.19,2.44,6.17H656.07z"/>
		<path id="balance-letter-n" class="st19" d="M683.24,453.35c1.99,0.03,2.21,1.33,2.2,2.86c-0.01,1.86,0.02,3.73,0.03,5.6
			c0.01,1.32,0,2.64,0,4.32c-4.76-4.65-9.21-8.99-13.66-13.34c-0.47,0.92-0.46,1.58-0.48,2.24c-0.08,4.35-0.13,8.69-0.3,13.04
			c-0.02,0.55-0.35,1.42-0.68,1.79v0.65h4.55c-0.5-0.51-1.59-1.09-1.63-1.73c-0.17-3.39-0.08-6.8-0.08-10.39
			c4.51,4.36,8.9,8.61,13.3,12.86c0.18-0.12,0.36-0.23,0.55-0.35c0.03-0.66,0.08-1.32,0.1-1.98c0.1-4.41,0.12-8.83,0.33-13.24
			c0.04-0.86,0.78-1.69,1.11-2.34H683.24z"/>
		<path id="balance-letter-c" class="st19" d="M707.42,466.77c0.08,3.48-0.17,3.92-3.45,4.19c-4.16,0.34-8.21-0.07-11.07-3.63
			c-4.24-5.27-1.19-13.2,5.49-14.08c2.94-0.38,5.97-0.06,8.99-0.06c0,1.8,0,3.09,0,3.89c-1.11-0.83-2.26-2.17-3.68-2.63
			c-1.48-0.48-3.29-0.4-4.86-0.07c-2.79,0.59-4.21,3.08-4.24,6.73c-0.03,4.03,1.97,7.13,5.31,8.2
			C703.17,470.37,705.56,469.55,707.42,466.77z"/>
		<path id="balance-letter-e" class="st19" d="M715.83,454.35c0,2.3,0,4.21,0,6.1c2.05,0,4.04,0,6.08,0
			c-0.13,0.97-0.27,2.04-0.43,3.24c-1.18-3.1-3.71-1-5.7-2.09c0,2.36-0.04,4.27,0.03,6.17c0.02,0.41,0.33,0.93,0.67,1.19
			c1.6,1.26,5.29,0.3,6.11-1.53c0.52,2.73,0.14,3.22-2.57,3.23c-2.96,0-5.93,0-8.8,0c0.42-0.59,1.14-1.13,1.15-1.69
			c0.13-4.62,0.2-9.24,0.08-13.85c-0.02-0.65-1.15-1.27-1.76-1.9c3.65,0,7.53,0,11.48,0c-0.06,0.95-0.14,2.02-0.22,3.3
			C720.63,453.3,718.01,455,715.83,454.35z"/>
	</g>
	<g id="arrows">
		<path id="arrow-right" class="st17" d="M730.24,401.54c-18.2,0-37.41,0-56.75,0c0-0.92,0-1.97,0-3.33
			C692.74,399.34,712.02,400.47,730.24,401.54z"/>
		<path id="arrow-left" class="st17" d="M407.01,398.32c0,1.17,0,2.17,0,3.31c-17.88,0-35.77,0-53.66,0c0-0.06,0-0.12-0.01-0.18
			C371.15,400.42,388.96,399.38,407.01,398.32z"/>
	</g>
	<path id="black-line" class="st20" d="M750.16,431.72c0,1.23,0,2.24,0,3.33c-140.27,0-280.47,0-420.75,0c0-1.13,0-2.18,0-3.33
		C469.68,431.72,609.87,431.72,750.16,431.72z"/>
</g>
<g>
</g>
<g>
</g>
<g>
</g>
<g>
</g>
<g>
</g>
<g>
</g>
</svg>
