<?xml version="1.0" encoding="utf-8"?>
<!-- Generator: Adobe Illustrator 24.3.0, SVG Export Plug-In . SVG Version: 6.00 Build 0)  -->
<svg version="1.1" id="mitochondria-restoration-1" xmlns="http://www.w3.org/2000/svg" xmlns:xlink="http://www.w3.org/1999/xlink"
	 x="0px" y="0px" viewBox="0 0 864 864" style="enable-background:new 0 0 864 864;" xml:space="preserve">
<style type="text/css">
	.st0{fill:#DA2528;}
	.st1{fill:#DA2A2A;}
	.st2{fill:url(#circle-outer-border_1_);}
	.st3{fill:url(#circle-inner-background_1_);}
	.st4{fill:url(#ekg-top-back_1_);}
	.st5{fill:url(#ekg-top-front_1_);}
	.st6{fill:url(#ekg-middle-back-1_1_);}
	.st7{fill:url(#ekg-middle-front-1_1_);}
	.st8{fill:url(#ekg-middle-back-2_1_);}
	.st9{fill:url(#ekg-middle-front-2_1_);}
	.st10{fill:url(#ekg-middle-back-3_1_);}
	.st11{fill:url(#ekg-middle-front-3_1_);}
	.st12{fill:url(#ekg-bottom-back_1_);}
	.st13{fill:url(#ekg-bottom-front_1_);}
	.st14{fill:url(#dna-strand-1-top_1_);}
	.st15{fill:#FFFFFF;}
	.st16{fill:url(#dna-strand-1-bottom_1_);}
	.st17{fill:url(#dna-strand-2-top_1_);}
	.st18{fill:url(#dna-strand-2-middle_1_);}
	.st19{fill:url(#dna-strand-2-bottom_1_);}
	.st20{fill:#0C0C0C;}
</style>
<g id="mitochondria-restoration-1-parts">
	<g id="restoration-letters">
		<path id="restoration-letter-r-1" class="st0" d="M357.17,728.74c-0.13-0.04-0.26-0.08-0.4-0.14c-0.84-0.37-1.77-0.8-2.35-1.46
			c-2.63-3-5.15-6.09-7.61-9.02c1.15-1.5,2.24-2.63,2.99-3.95c2.74-4.79,0.61-9.59-4.81-10.22c-3.74-0.44-7.58-0.08-11.37-0.08
			c2.83,0.09,2.87,2,2.85,4.12c-0.07,5.91-0.04,11.81-0.04,17.72c0,1.68-0.1,3.28-2.29,3.57h8.59c-0.7-0.65-2.22-1.37-2.35-2.29
			c-0.35-2.56-0.12-5.19-0.12-7.69c2.64-0.72,4.23,0.26,5.43,2.37c0.88,1.55,2.03,2.96,3.07,4.42c1.66,2.32,3.8,3.49,6.76,3.37
			c0.55-0.02,1.1-0.03,1.66-0.04C357.16,729.19,357.16,728.97,357.17,728.74z M345.81,716.39c-1.18,0.88-3.09,0.97-4.67,0.97
			c-0.35,0-0.96-1.85-1-2.87c-0.14-2.95-0.05-5.92-0.05-9c2.99-0.58,5.11,0.05,6.41,2.53C347.78,710.46,347.66,714.99,345.81,716.39
			z"/>
		<path id="restoration-letter-e" class="st0" d="M370.64,725.26c-0.26,0.54-0.4,1.03-0.68,1.41c-1.48,1.95-3.6,1.21-5.45,1
			c-0.67-0.08-1.63-1.31-1.71-2.1c-0.23-2.26-0.08-4.55-0.08-7.18c2.35,0.87,5.19-1.21,6.52,2.59c0.2-1.77,0.35-3.08,0.47-4.16h-6.8
			v-7.65c2.45,0.86,5.62-1.28,6.89,3.1c0.1-1.92,0.17-3.25,0.23-4.45h-13.13c0.7,0.7,2.04,1.41,2.06,2.16
			c0.16,5.73,0.09,11.47,0.04,17.2c-0.01,0.85-0.31,1.39-0.83,1.58c-0.01,0.21,0,0.42,0,0.63c3.05-0.04,6.09,0.03,9.14,0.03
			C370.68,729.42,371.04,728.99,370.64,725.26z"/>
		<path id="restoration-letter-s" class="st1" d="M373.88,724.45c1.35,2.37,2.68,4.38,5.58,3.85c1.25-0.23,2.96-1.1,3.33-2.09
			c0.43-1.16,0.01-3.03-0.73-4.14c-0.79-1.2-2.35-1.9-3.61-2.77c-3.56-2.48-4.72-5.16-3.49-8.17c1.1-2.7,4.46-4.2,8.26-3.67
			c0.84,0.12,1.67,0.29,2.58,0.46c0,1.49,0,2.92,0,4.58c-1.48-3.27-2.85-4.27-5.38-3.58c-1.02,0.28-2.38,1.16-2.61,2.03
			c-0.26,1,0.24,2.56,0.97,3.37c1.05,1.17,2.6,1.88,3.94,2.78c2.63,1.76,4.07,4.14,3.58,7.37c-0.68,4.57-8.17,7.61-11.65,4.53
			C373.75,728.19,374.1,726,373.88,724.45z"/>
		<path id="restoration-letter-t-1" class="st0" d="M399.29,709.29c0,6.02-0.11,11.73,0.11,17.44c0.04,0.96,1.5,1.88,2.11,2.59
			c-2.2,0-5.05,0-7.43,0c0.44-0.76,1.36-1.63,1.38-2.52c0.13-5.72,0.07-11.44,0.07-17.45c-2.65,0.59-5.59-0.97-7.9,2.66
			c0.32-1.98,0.52-3.25,0.71-4.39c6.27,0,12.35,0,18.51,0c0,1.32,0,2.67,0,4.32C405.08,708.33,402,709.95,399.29,709.29z"/>
		<path id="restoration-letter-o-1" class="st1" d="M430.57,718.33c-0.07,6.68-5.04,11.6-11.73,11.59
			c-6.64,0-11.63-4.98-11.47-11.46c0.16-6.53,5.12-11.21,11.82-11.17C426.2,707.35,430.64,711.66,430.57,718.33z M426.56,719.56
			c0.17-0.09,0.33-0.19,0.5-0.28c-0.98-2.56-1.52-5.43-3.04-7.61c-3.03-4.35-9.72-3.8-11.58,0.84c-1.81,4.52-1.52,9.06,1.56,13.07
			c1.82,2.37,4.4,3.23,7.29,2.66c2.62-0.52,4.04-2.42,4.63-4.93C426.21,722.09,426.35,720.82,426.56,719.56z"/>
		<path id="restoration-letter-r-2" class="st1" d="M451.06,727.31c-2.31-2.76-4.45-5.31-6.86-8.19c0.98-0.76,1.93-1.28,2.58-2.05
			c3.27-3.89,1.68-8.38-3.35-8.93c-3.48-0.38-7.04-0.07-10.57-0.07c2.38,0,2.31,1.64,2.29,3.36c-0.04,4.79,0.07,9.59-0.08,14.38
			c-0.04,1.22-0.8,2.43-1.19,3.52h7.65c-3.05-1.08-3.26-1.8-2.61-8.62c2.3-0.46,3.64,0.43,4.64,2.34c1.86,3.55,3.94,5.7,7.33,6.21
			C451.38,729.14,451.31,727.64,451.06,727.31z M438.85,718.93v-9.39c2.07-0.43,4.36-0.46,5.12,1.57c0.7,1.88,0.75,4.33,0.18,6.26
			C443.45,719.68,441.08,719.25,438.85,718.93z"/>
		<path id="restoration-letter-a" class="st1" d="M468.74,725.43c-2.31-5.21-4.36-10.54-6.54-15.81c-0.33-0.8-0.81-1.55-1.46-2.79
			c-2.98,7.17-5.76,13.84-8.71,20.94c-0.46,1.02-0.37,1.47-0.7,1.78c1.18,0.04,3.41-0.06,4.81-0.49c-1.93-0.22-1.67-1.45-1.27-2.74
			c1.34-4.35,2.52-4.87,8.92-3.83c0.77,2.24,1.55,4.52,2.34,6.84h5.55C470.78,728.17,469.42,726.96,468.74,725.43z M457.17,720.56
			c0.94-2.48,1.84-4.86,2.91-7.67c1.04,2.8,1.92,5.15,2.86,7.67H457.17z"/>
		<path id="restoration-letter-t-2" class="st0" d="M479.99,709.22c0,6.08,0.02,11.62-0.01,17.17c-0.01,1.96,1.09,2.67,2.85,2.88
			c-2.82,0-5.65,0-8.07,0c0.43-0.78,1.38-1.71,1.4-2.67c0.14-5.63,0.07-11.27,0.07-17.19c-2.63,0.43-5.5-0.97-7.87,2.4
			c0.28-1.8,0.47-3.04,0.65-4.2c6.23,0,12.32,0,18.51,0c0,1.24,0,2.59,0,4.18C485.8,708.33,482.71,709.99,479.99,709.22z"/>
		<path id="restoration-letter-i" class="st0" d="M490.39,707.9c1.86,0,4.37,0,6.27,0c-0.42,1.06-1.22,2.19-1.26,3.34
			c-0.15,4.69-0.07,9.38-0.06,14.08c0,1.94-0.14,3.99,2.76,3.98c-2.78,0-5.56,0-7.78,0c0.43-0.97,1.26-2,1.29-3.05
			c0.14-5.03,0.15-10.07,0.01-15.1C491.59,710.02,490.79,708.91,490.39,707.9z"/>
		<path id="restoration-letter-o-2" class="st1" d="M523.1,718.35c-0.08,6.68-5.06,11.59-11.74,11.58
			c-6.65-0.02-11.62-5-11.45-11.47c0.17-6.53,5.13-11.2,11.84-11.15C518.75,707.36,523.18,711.67,523.1,718.35z M519.08,719.43
			c0.17-0.1,0.35-0.19,0.52-0.29c-1.01-2.54-1.58-5.4-3.13-7.56c-3.01-4.21-9.55-3.68-11.43,0.83c-1.92,4.6-1.62,9.22,1.57,13.28
			c1.76,2.25,4.29,3.1,7.09,2.59c2.75-0.5,4.19-2.47,4.79-5.08C518.77,721.97,518.89,720.69,519.08,719.43z"/>
		<path id="restoration-letter-n" class="st1" d="M544.88,729.54c-5.52-4.96-10.92-9.82-16.17-14.54c0,1.02-0.01,2.65,0,4.28
			c0.01,1.88,0.06,3.77,0.04,5.65c-0.02,2.03,0.07,3.95,2.68,4.41c-2.37,0-4.74,0-7.11,0c2.28-0.58,2.21-2.39,2.2-4.18
			c-0.01-5.8,0-11.6,0-17.41c0.26-0.14,0.52-0.29,0.78-0.43c5.13,5.36,10.26,10.72,15.8,16.51c0-1.66,0.01-2.85,0-4.05
			c-0.02-2.83-0.08-5.65-0.04-8.48c0.02-1.73-0.36-3.06-2.43-3.32c2.19,0,4.38,0,5.92,0c-0.38,0.95-1.23,2.15-1.28,3.38
			c-0.22,5.3-0.2,10.61-0.27,15.92C544.99,728.11,544.91,728.94,544.88,729.54z"/>
	</g>
	<g id="circle-background_1_">
		
			<linearGradient id="circle-outer-border_1_" gradientUnits="userSpaceOnUse" x1="314.8934" y1="216.2335" x2="547.4935" y2="619.1086">
			<stop  offset="0" style="stop-color:#CCCDCC"/>
			<stop  offset="0.4776" style="stop-color:#D1836D"/>
			<stop  offset="1" style="stop-color:#D12228"/>
		</linearGradient>
		<path id="circle-outer-border" class="st2" d="M431.19,650.17c-62.1,0-120.49-24.18-164.4-68.1
			c-43.91-43.91-68.1-102.3-68.1-164.4c0-62.1,24.18-120.49,68.1-164.4s102.3-68.1,164.4-68.1s120.49,24.18,164.4,68.1
			c43.91,43.91,68.1,102.3,68.1,164.4c0,62.1-24.18,120.49-68.1,164.4C551.68,625.99,493.3,650.17,431.19,650.17z M431.19,192.17
			c-124.34,0-225.5,101.16-225.5,225.5c0,124.34,101.16,225.5,225.5,225.5s225.5-101.16,225.5-225.5
			C656.69,293.33,555.53,192.17,431.19,192.17z"/>
		
			<linearGradient id="circle-inner-background_1_" gradientUnits="userSpaceOnUse" x1="220.645" y1="416.9291" x2="643.3547" y2="416.9291">
			<stop  offset="0" style="stop-color:#BF2227"/>
			<stop  offset="0.6199" style="stop-color:#EE3025"/>
		</linearGradient>
		<circle id="circle-inner-background" class="st3" cx="432" cy="416.93" r="211.35"/>
	</g>
	<g id="dna-strands">
		<g id="ekg-top">
			
				<linearGradient id="ekg-top-back_1_" gradientUnits="userSpaceOnUse" x1="373.4927" y1="162.6006" x2="435.3474" y2="162.6006" gradientTransform="matrix(0.9744 0.2248 -0.2248 0.9744 79.5759 53.5632)">
				<stop  offset="0" style="stop-color:#959636"/>
				<stop  offset="0.0252" style="stop-color:#949536"/>
				<stop  offset="0.4969" style="stop-color:#878935"/>
				<stop  offset="1" style="stop-color:#838534"/>
			</linearGradient>
			<path id="ekg-top-back" class="st4" d="M404.66,305.88c2.4-0.22,4.36-0.34,5.69-0.41c0.57-0.03,3.23-0.17,6.42-0.48
				c2.92-0.29,3.81-0.48,4.56-1.21c1.07-1.03,1.24-2.53,1.26-3.4c0.62,0.71,1.13,1.39,1.56,2.03c0.52,0.78,0.67,1.11,1.08,1.5
				c0.46,0.44,1.18,0.89,2.37,1.08c3.08-0.12,7.02-0.28,10.09-0.41c2.35-0.1,6.18-0.25,8.53-0.35c0.21,0.06,0.56,0.12,0.9-0.03
				c0.47-0.21,0.67-0.73,0.77-1.01c0.34-0.99,1.38-4.76,2.7-9.91c0.52,1.53,1.04,3.06,1.56,4.59c0.89,2.6,1.78,5.18,2.67,7.76
				c0.01,0.03,0.03,0.12,0.11,0.19c0.09,0.08,0.23,0.09,0.35,0.05c0.28-1.09,0.54-2.01,0.74-2.71c0.21-0.73,0.37-1.24,0.61-1.25
				c0.25-0.01,0.51,0.53,0.73,0.98c0.25,0.53,0.29,0.85,0.64,1.11c0.14,0.11,0.28,0.17,0.44,0.21c1.12,0.33,3.18,0.04,4.55-0.07
				c0.3-0.02,0.04,0,1.51-0.05c2.85-0.11,3.63-0.21,3.86,0.2c0.1,0.18,0.14,0.53-0.41,1.31c-1.75-0.08-3.16-0.02-4.12,0.05
				c-1.46,0.11-2.88,0.3-5.15,0.28c-0.36,0-0.65-0.01-0.84-0.02c0.01-0.21,0.03-1.37-0.68-1.79c-0.06-0.04-0.13-0.07-0.2-0.09
				c-0.4,0.61-0.61,1.14-0.73,1.51c-0.21,0.64-0.25,1.13-0.64,1.79c-0.16,0.27-0.32,0.47-0.43,0.59c-0.13-0.06-0.27-0.12-0.4-0.18
				c-0.82-1.76-1.39-2.98-1.79-3.85c-1.71-3.66-1.76-3.76-1.78-3.91c-0.01-0.06-0.02-0.32-0.2-0.47c-0.14-0.11-0.32-0.11-0.45-0.1
				c-0.34,0.77-0.6,1.42-0.79,1.89c-0.81,2-1.22,3-1.34,3.51c-0.26,1.03-0.23,1.47-0.67,1.83c-0.59,0.49-1.44,0.35-1.77,0.31
				c-0.49-0.07-3.11-0.13-8.36-0.25c-1.97-0.05-4.29-0.1-6.49,0.27c-0.52,0.09-2.14,0.38-4.18,0.04c-0.33-0.05-0.59-0.11-0.77-0.15
				c-0.42-0.42-0.84-0.88-1.27-1.36c-0.56-0.64-1.07-1.27-1.53-1.87c-0.16,0.15-0.38,0.35-0.65,0.59c-0.47,0.41-1.03,0.85-1.42,1.12
				c-0.81,0.56-1.57,0.82-2.52,1.14c-0.63,0.21-1.61,0.5-3.12,0.75c-1.7,0.29-1.75,0.14-4.23,0.43c-2.28,0.27-3.42,0.4-3.82,0.48
				c-1.36,0.27-1.99,0.51-2.49,0.14C404.46,307.76,404.57,306.53,404.66,305.88z"/>
			
				<linearGradient id="ekg-top-front_1_" gradientUnits="userSpaceOnUse" x1="373.6957" y1="162.3686" x2="435.5504" y2="162.3686" gradientTransform="matrix(0.9744 0.2248 -0.2248 0.9744 79.5759 53.5632)">
				<stop  offset="0" style="stop-color:#F2EA1A"/>
				<stop  offset="1" style="stop-color:#F1EA19"/>
			</linearGradient>
			<path id="ekg-top-front" class="st5" d="M404.91,305.7c2.4-0.22,4.36-0.34,5.69-0.41c0.57-0.03,3.23-0.17,6.42-0.48
				c2.92-0.29,3.81-0.48,4.56-1.21c1.07-1.03,1.24-2.53,1.26-3.4c0.62,0.71,1.13,1.39,1.56,2.03c0.52,0.78,0.67,1.11,1.08,1.5
				c0.46,0.44,1.18,0.89,2.37,1.08c3.08-0.12,7.02-0.28,10.09-0.41c2.35-0.1,6.18-0.25,8.53-0.35c0.21,0.06,0.56,0.12,0.9-0.03
				c0.47-0.21,0.67-0.73,0.77-1.01c0.34-0.99,1.38-4.76,2.7-9.91c0.52,1.53,1.04,3.06,1.56,4.59c0.89,2.6,1.78,5.18,2.67,7.76
				c0.01,0.03,0.03,0.12,0.11,0.19c0.09,0.08,0.23,0.09,0.35,0.05c0.28-1.09,0.54-2.01,0.74-2.71c0.21-0.73,0.37-1.24,0.61-1.25
				c0.25-0.01,0.51,0.53,0.73,0.98c0.25,0.53,0.29,0.85,0.64,1.11c0.14,0.11,0.28,0.17,0.44,0.21c1.12,0.33,3.18,0.04,4.55-0.07
				c0.3-0.02,0.04,0,1.51-0.05c2.85-0.11,3.63-0.21,3.86,0.2c0.1,0.18,0.14,0.53-0.41,1.31c-1.75-0.08-3.16-0.02-4.12,0.05
				c-1.46,0.11-2.88,0.3-5.16,0.28c-0.36,0-0.65-0.01-0.84-0.02c0.01-0.21,0.03-1.37-0.68-1.79c-0.06-0.04-0.13-0.07-0.2-0.09
				c-0.4,0.61-0.61,1.14-0.73,1.51c-0.21,0.64-0.25,1.13-0.64,1.79c-0.16,0.27-0.32,0.47-0.43,0.59c-0.13-0.06-0.27-0.12-0.4-0.18
				c-0.82-1.76-1.39-2.98-1.79-3.85c-1.71-3.66-1.76-3.76-1.78-3.91c-0.01-0.06-0.02-0.32-0.2-0.47c-0.14-0.11-0.32-0.11-0.45-0.1
				c-0.34,0.77-0.6,1.42-0.79,1.89c-0.81,2-1.22,3-1.34,3.51c-0.26,1.03-0.23,1.47-0.67,1.83c-0.59,0.49-1.44,0.35-1.77,0.31
				c-0.49-0.07-3.11-0.13-8.36-0.25c-1.97-0.05-4.29-0.1-6.49,0.27c-0.52,0.09-2.14,0.38-4.18,0.04c-0.33-0.05-0.59-0.11-0.77-0.15
				c-0.42-0.42-0.84-0.88-1.27-1.36c-0.56-0.64-1.07-1.27-1.53-1.87c-0.16,0.15-0.38,0.35-0.65,0.59c-0.47,0.41-1.03,0.85-1.42,1.12
				c-0.81,0.56-1.57,0.82-2.52,1.14c-0.63,0.21-1.61,0.5-3.12,0.75c-1.7,0.29-1.75,0.14-4.23,0.43c-2.28,0.27-3.42,0.4-3.82,0.48
				c-1.36,0.27-1.99,0.51-2.49,0.14C404.71,307.58,404.81,306.34,404.91,305.7z"/>
		</g>
		<g id="ekg-middle">
			
				<linearGradient id="ekg-middle-back-1_1_" gradientUnits="userSpaceOnUse" x1="447.9534" y1="198.0051" x2="396.2134" y2="233.0016" gradientTransform="matrix(0.9521 0.3059 -0.3059 0.9521 104.4423 94.7434)">
				<stop  offset="0" style="stop-color:#828635"/>
				<stop  offset="0.0333" style="stop-color:#828635"/>
				<stop  offset="1" style="stop-color:#828635"/>
			</linearGradient>
			<path id="ekg-middle-back-1" class="st6" d="M410.6,430.05c1.94-0.09,4.2-0.06,6.7,0.2c1.58,0.17,3.05,0.4,4.38,0.68
				c0.71-2.13,1.41-4.26,2.12-6.39c0.45,0.96,0.89,1.97,1.32,3.04c0.36,0.9,0.69,1.78,0.98,2.63c1.4-0.06,3.62-0.17,6.35-0.4
				c3.68-0.3,4.46-0.49,6.87-0.54c3.74-0.08,6.26,0.28,6.85,0.37c1.92,0.29,3.51,0.68,4.68,1.02c0.42-3.26,0.83-6.52,1.25-9.77
				c0.72,1.47,1.26,2.7,1.63,3.57c1,2.36,1.97,5.02,1.97,5.02c0.15-0.05,0.53-0.21,0.8-0.6c0.26-0.36,0.28-0.73,0.28-0.88
				c1.26-0.09,2.55-0.17,3.86-0.22c4.17-0.18,8.14-0.17,11.91-0.01c-0.12,0.35-0.25,0.69-0.37,1.04c-2.39,0.27-4.32,0.47-5.67,0.6
				c-1.14,0.11-2.29,0.23-3.43,0.34c-1.6,0.15-2.59,0.24-3.99,0.43c-0.74,0.1-1.34,0.19-1.76,0.26c-0.36,1.1-0.72,2.19-1.08,3.29
				c-0.14-0.22-0.36-0.59-0.6-1.06c-0.27-0.54-0.6-1.26-1.53-4.33c-0.2-0.65-0.4-1.33-0.81-2.22c-0.18-0.38-0.34-0.69-0.45-0.9
				c-0.22,1.51-0.37,2.73-0.46,3.55c-0.14,1.26-0.21,2.18-0.44,3.58c-0.13,0.78-0.26,1.41-0.35,1.81c-0.07,0.05-0.17,0.11-0.28,0.09
				c-0.19-0.03-0.32-0.24-0.46-0.54c-0.4-0.85-0.33-1.16-0.65-1.53c-0.11-0.13-0.3-0.31-0.64-0.46c-0.67-0.04-1.65-0.09-2.82-0.13
				c-1.5-0.05-2.88-0.05-5.81,0.01c-5.19,0.1-4.54,0.19-7.11,0.18c-1.16,0-2.46-0.02-4.36,0.08c-1.12,0.06-2.04,0.14-2.65,0.2
				c-0.23,1-0.28,1.81-0.28,2.38c0,0.47,0.04,1.37,0.07,2.08c0.01,0.23,0.02,0.42,0.02,0.56c-0.17-0.22-0.35-0.45-0.52-0.67
				c-0.35-0.95-0.57-1.72-0.7-2.24c-0.29-1.13-0.34-1.72-0.68-3.19c-0.19-0.83-0.36-1.5-0.48-1.91c-0.5,0.68-0.79,1.28-0.95,1.7
				c-0.13,0.32-0.33,0.96-0.74,2.23c-0.03,0.09-0.05,0.16-0.07,0.21c-0.51-0.12-1.23-0.29-2.11-0.45c-1.68-0.31-2.95-0.44-4.4-0.59
				c-2.06-0.21-3.09-0.31-3.74-0.29c-0.94,0.04-1.89-0.16-2.83-0.11c-0.3,0.02-0.6,0.04-0.77-0.13c-0.35-0.36-0.06-1.48,0.76-1.74
				C409.94,429.73,410.47,429.99,410.6,430.05z"/>
			
				<linearGradient id="ekg-middle-front-1_1_" gradientUnits="userSpaceOnUse" x1="447.8802" y1="197.6827" x2="396.1402" y2="232.6792" gradientTransform="matrix(0.9521 0.3059 -0.3059 0.9521 104.4423 94.7434)">
				<stop  offset="0" style="stop-color:#F2EA1A"/>
				<stop  offset="1" style="stop-color:#F1EA19"/>
			</linearGradient>
			<path id="ekg-middle-front-1" class="st7" d="M410.63,429.72c1.94-0.09,4.2-0.06,6.7,0.2c1.58,0.17,3.05,0.4,4.38,0.68
				c0.71-2.13,1.41-4.26,2.12-6.39c0.45,0.96,0.89,1.97,1.32,3.04c0.36,0.9,0.69,1.78,0.98,2.63c1.4-0.06,3.62-0.17,6.35-0.4
				c3.68-0.3,4.46-0.49,6.87-0.54c3.74-0.08,6.26,0.28,6.85,0.37c1.92,0.29,3.51,0.68,4.68,1.02c0.42-3.26,0.83-6.52,1.25-9.77
				c0.72,1.47,1.26,2.7,1.63,3.57c1,2.36,1.97,5.02,1.97,5.02c0.15-0.05,0.53-0.21,0.8-0.6c0.26-0.36,0.28-0.73,0.28-0.88
				c1.26-0.09,2.55-0.17,3.86-0.22c4.17-0.18,8.14-0.17,11.91-0.01c-0.12,0.35-0.25,0.69-0.37,1.04c-2.39,0.27-4.32,0.47-5.67,0.6
				c-1.14,0.11-2.29,0.23-3.43,0.34c-1.6,0.15-2.59,0.24-3.99,0.43c-0.74,0.1-1.34,0.19-1.76,0.26c-0.36,1.1-0.72,2.19-1.08,3.29
				c-0.14-0.22-0.36-0.59-0.6-1.06c-0.27-0.54-0.6-1.26-1.53-4.33c-0.2-0.65-0.4-1.33-0.81-2.22c-0.18-0.38-0.34-0.69-0.45-0.9
				c-0.22,1.51-0.37,2.73-0.46,3.55c-0.14,1.26-0.21,2.18-0.44,3.58c-0.13,0.78-0.26,1.41-0.35,1.81c-0.07,0.05-0.17,0.11-0.28,0.09
				c-0.19-0.03-0.32-0.24-0.46-0.54c-0.4-0.85-0.33-1.16-0.65-1.53c-0.11-0.13-0.3-0.31-0.64-0.46c-0.67-0.04-1.65-0.09-2.82-0.13
				c-1.5-0.05-2.88-0.05-5.81,0.01c-5.19,0.1-4.54,0.19-7.11,0.18c-1.16,0-2.46-0.02-4.36,0.08c-1.12,0.06-2.04,0.14-2.65,0.2
				c-0.23,1-0.28,1.81-0.28,2.38c0,0.47,0.04,1.37,0.07,2.08c0.01,0.23,0.02,0.42,0.02,0.56c-0.17-0.22-0.35-0.45-0.52-0.67
				c-0.35-0.95-0.57-1.72-0.7-2.24c-0.29-1.13-0.34-1.72-0.68-3.19c-0.19-0.83-0.36-1.5-0.48-1.91c-0.5,0.68-0.79,1.28-0.95,1.7
				c-0.13,0.32-0.33,0.96-0.74,2.23c-0.03,0.09-0.05,0.16-0.07,0.21c-0.51-0.12-1.23-0.29-2.11-0.45c-1.68-0.31-2.95-0.44-4.4-0.59
				c-2.06-0.21-3.09-0.31-3.74-0.29c-0.94,0.04-1.89-0.16-2.83-0.11c-0.3,0.02-0.6,0.04-0.77-0.13c-0.35-0.36-0.06-1.48,0.76-1.74
				C409.97,429.4,410.5,429.66,410.63,429.72z"/>
			
				<linearGradient id="ekg-middle-back-2_1_" gradientUnits="userSpaceOnUse" x1="434.1051" y1="174.7258" x2="378.7245" y2="212.1849" gradientTransform="matrix(0.9381 0.3464 -0.3464 0.9381 124.604 89.8782)">
				<stop  offset="0" style="stop-color:#828635"/>
				<stop  offset="0.0333" style="stop-color:#828635"/>
				<stop  offset="1" style="stop-color:#828635"/>
			</linearGradient>
			<path id="ekg-middle-back-2" class="st8" d="M405.69,412.96c0.5-0.04,1.23-0.09,2.1-0.15c1.01-0.07,2.78-0.19,4.11-0.24
				c1.63-0.07,3.69-0.15,6.21,0.1c1.22,0.12,2.9,0.35,4.88,0.84c0.43-0.96,0.86-1.92,1.29-2.9c0.47-1.07,0.94-2.13,1.4-3.19
				c0.16,0.64,0.3,1.15,0.4,1.51c0.32,1.13,0.5,1.65,0.84,2.84c0.14,0.5,0.24,0.9,0.31,1.17c0.45-0.02,1.12-0.06,1.93-0.12
				c2.67-0.19,3.69-0.36,5.22-0.48c2.22-0.19,3.87-0.15,6.25-0.1c1.67,0.03,3.32,0.03,5.04,0.25c0.81,0.11,1.61,0.25,2.45,0.47
				c0.69,0.18,1.26,0.37,1.69,0.53c0.17-0.5,0.32-1.03,0.46-1.59c0.42-1.65,0.63-3.19,0.72-4.56c0.13-1.17,0.26-2.33,0.4-3.5
				c0.25,0.56,0.62,1.46,0.99,2.59c0.33,1.01,0.27,1.05,0.71,2.43c0.12,0.38,0.46,1.44,0.97,2.8c0.14,0.37,0.26,0.67,0.35,0.9
				c0.08-0.23,0.26-0.66,0.67-1.05c0.49-0.48,1.03-0.64,1.28-0.7c0.95,0.03,2.41,0.06,4.19,0.03c2.77-0.04,4-0.18,6.17-0.22
				c1.47-0.03,3.6-0.03,6.22,0.16c-0.16,0.17-0.33,0.33-0.49,0.5c-1.99,0.35-3.62,0.58-4.72,0.73c-1.62,0.22-2.85,0.35-7.92,0.85
				c-1.42,0.14-2.97,0.29-4.36,0.43c-0.37,1.01-0.74,2.01-1.12,3.02c-0.63-1.42-0.93-2.61-1.1-3.47c-0.19-0.96-0.27-1.91-0.78-3.25
				c-0.21-0.57-0.43-1.03-0.59-1.33c-0.27,1.38-0.48,2.5-0.63,3.29c-0.24,1.31-0.35,1.94-0.57,3.04c-0.22,1.1-0.42,1.99-0.55,2.58
				c-0.13-0.09-0.26-0.18-0.4-0.27c0-0.24-0.01-1-0.55-1.69c-0.35-0.44-0.76-0.66-0.98-0.77c-0.56-0.03-1.43-0.08-2.49-0.12
				c-2.93-0.09-3.97,0.03-8.17,0.11c-3.07,0.05-3.52,0-6.46,0.09c-1.42,0.04-2.58,0.09-3.35,0.12c-0.23,1.6-0.46,3.19-0.69,4.79
				c-0.12-0.1-0.23-0.21-0.35-0.31c-0.07-1.36-0.23-2.45-0.37-3.2c-0.17-0.91-0.39-1.83-0.72-3.73c-0.05-0.26-0.08-0.48-0.11-0.63
				c-0.39,0.81-0.77,1.67-1.14,2.58c-0.25,0.62-0.49,1.22-0.7,1.81c-0.59-0.21-1.48-0.49-2.56-0.76c-2.03-0.5-3.53-0.65-6.28-0.9
				c-2.93-0.27-4.4-0.4-5.81-0.35c-2.24,0.08-3.99,0.4-4.13-0.04C404.78,413.64,405.24,413.26,405.69,412.96z"/>
			
				<linearGradient id="ekg-middle-front-2_1_" gradientUnits="userSpaceOnUse" x1="436.0547" y1="172.2719" x2="378.2087" y2="211.3985" gradientTransform="matrix(0.9381 0.3464 -0.3464 0.9381 124.604 89.8782)">
				<stop  offset="0" style="stop-color:#EFE919"/>
				<stop  offset="1" style="stop-color:#EFE919"/>
			</linearGradient>
			<path id="ekg-middle-front-2" class="st9" d="M413.24,411.34c1.77-0.07,3.83-0.02,6.08,0.27c1.43,0.18,2.75,0.43,3.94,0.71
				c0.79-2.1,1.59-4.19,2.38-6.29c0.34,0.95,0.67,1.96,0.99,3.02c0.27,0.9,0.5,1.77,0.71,2.61c1.28-0.05,3.31-0.14,5.81-0.33
				c3.38-0.26,4.09-0.44,6.29-0.46c3.41-0.04,5.68,0.34,6.21,0.44c1.73,0.3,3.15,0.71,4.19,1.05c0.61-3.22,1.22-6.43,1.83-9.65
				c0.55,1.46,0.95,2.68,1.23,3.54c0.74,2.35,1.44,4.98,1.44,4.98c0.14-0.05,0.49-0.2,0.77-0.58c0.26-0.36,0.31-0.72,0.32-0.87
				c1.15-0.08,2.33-0.14,3.53-0.18c3.81-0.14,13.44,0.11,16.85,0.3c-0.14,0.34-0.35,0.34-0.48,0.68c-2.19,0.24-9.9,0.57-11.14,0.69
				c-1.05,0.1-2.1,0.2-3.15,0.3c-1.47,0.14-2.37,0.21-3.67,0.39c-0.68,0.09-1.24,0.18-1.62,0.24c-0.41,1.08-0.81,2.16-1.22,3.24
				c-0.11-0.22-0.28-0.59-0.47-1.05c-0.21-0.53-0.45-1.25-1.08-4.29c-0.13-0.65-0.27-1.32-0.58-2.21c-0.13-0.38-0.26-0.69-0.34-0.89
				c-0.31,1.49-0.53,2.69-0.67,3.51c-0.21,1.25-0.34,2.16-0.66,3.54c-0.17,0.77-0.34,1.39-0.45,1.78c-0.07,0.05-0.16,0.1-0.26,0.09
				c-0.17-0.03-0.28-0.24-0.38-0.54c-0.31-0.84-0.22-1.15-0.48-1.52c-0.09-0.13-0.25-0.31-0.55-0.46c-0.61-0.05-1.5-0.11-2.56-0.16
				c-1.37-0.06-2.62-0.08-5.29-0.05c-4.73,0.05-4.15,0.14-6.49,0.11c-1.05-0.01-2.24-0.04-3.98,0.04c-1.02,0.05-1.86,0.12-2.43,0.17
				c-0.28,0.99-0.39,1.79-0.43,2.35c-0.03,0.46-0.06,1.36-0.09,2.05c-0.01,0.23-0.01,0.42-0.02,0.55c-0.14-0.22-0.28-0.44-0.43-0.67
				c-0.25-0.94-0.4-1.71-0.48-2.22c-0.18-1.12-0.19-1.7-0.39-3.16c-0.11-0.83-0.22-1.49-0.3-1.9c-0.51,0.67-0.81,1.26-0.99,1.68
				c-0.14,0.32-0.37,0.94-0.83,2.2c-0.03,0.09-0.06,0.16-0.08,0.2c-0.45-0.13-1.1-0.3-1.89-0.47c-1.51-0.33-2.66-0.47-3.96-0.63
				c-1.86-0.23-2.8-0.34-3.38-0.32c-0.86,0.03-1.71-0.18-2.57-0.14c-0.27,0.01-6.93,0.1-7.07-0.07c-0.29-0.36-0.86-0.72-0.1-0.97
				C405.36,411.83,413.13,411.27,413.24,411.34z"/>
			
				<linearGradient id="ekg-middle-back-3_1_" gradientUnits="userSpaceOnUse" x1="424.291" y1="155.965" x2="376.6159" y2="188.212" gradientTransform="matrix(0.9381 0.3464 -0.3464 0.9381 124.604 89.8782)">
				<stop  offset="0" style="stop-color:#838634"/>
				<stop  offset="0.0333" style="stop-color:#838634"/>
				<stop  offset="1" style="stop-color:#838634"/>
			</linearGradient>
			<path id="ekg-middle-back-3" class="st10" d="M413.51,390.71c1.77-0.07,3.83-0.02,6.08,0.27c1.43,0.18,2.75,0.43,3.94,0.71
				c0.79-2.1,1.59-4.19,2.38-6.29c0.34,0.95,0.67,1.96,0.99,3.02c0.27,0.9,0.5,1.77,0.71,2.61c1.28-0.05,3.31-0.14,5.81-0.33
				c3.38-0.26,4.09-0.44,6.29-0.46c3.41-0.04,5.68,0.34,6.21,0.44c1.73,0.3,3.15,0.71,4.19,1.05c0.61-3.22,1.22-6.43,1.83-9.65
				c0.55,1.46,0.95,2.68,1.23,3.54c0.74,2.35,1.44,4.98,1.44,4.98c0.14-0.05,0.49-0.2,0.77-0.58c0.26-0.36,0.31-0.72,0.32-0.87
				c1.15-0.08,2.33-0.14,3.53-0.18c3.81-0.14,7.43-0.08,10.84,0.11c-0.14,0.34-0.27,0.68-0.41,1.02c-2.19,0.24-3.97,0.42-5.21,0.54
				c-1.05,0.1-2.1,0.2-3.15,0.3c-1.47,0.14-2.37,0.21-3.67,0.39c-0.68,0.09-1.24,0.18-1.62,0.24c-0.41,1.08-0.81,2.16-1.22,3.24
				c-0.11-0.22-0.28-0.59-0.47-1.05c-0.21-0.53-0.45-1.25-1.08-4.29c-0.13-0.65-0.27-1.32-0.58-2.21c-0.13-0.38-0.26-0.69-0.34-0.89
				c-0.31,1.49-0.53,2.69-0.67,3.51c-0.21,1.25-0.34,2.16-0.66,3.54c-0.17,0.77-0.34,1.39-0.45,1.78c-0.07,0.05-0.16,0.1-0.26,0.09
				c-0.17-0.03-0.28-0.24-0.38-0.54c-0.31-0.84-0.22-1.15-0.48-1.52c-0.09-0.13-0.25-0.31-0.55-0.46c-0.61-0.05-1.5-0.11-2.56-0.16
				c-1.37-0.06-2.62-0.08-5.29-0.05c-4.73,0.05-4.15,0.14-6.49,0.11c-1.05-0.01-2.24-0.04-3.98,0.04c-1.02,0.05-1.86,0.12-2.43,0.17
				c-0.28,0.99-0.39,1.79-0.43,2.35c-0.03,0.46-0.06,1.36-0.09,2.05c-0.01,0.23-0.01,0.42-0.02,0.55c-0.14-0.22-0.28-0.44-0.43-0.67
				c-0.25-0.94-0.4-1.71-0.48-2.22c-0.18-1.12-0.19-1.7-0.39-3.16c-0.11-0.83-0.22-1.49-0.3-1.9c-0.51,0.67-0.81,1.26-0.99,1.68
				c-0.14,0.32-0.37,0.94-0.83,2.2c-0.03,0.09-0.06,0.16-0.08,0.2c-0.45-0.13-1.1-0.3-1.89-0.47c-1.51-0.33-2.66-0.47-3.96-0.63
				c-1.86-0.23-2.8-0.34-3.38-0.32c-0.86,0.03-1.71-0.18-2.57-0.14c-0.27,0.01-0.55,0.03-0.69-0.14c-0.29-0.36,0.05-1.46,0.82-1.71
				C412.93,390.38,413.39,390.64,413.51,390.71z"/>
			
				<linearGradient id="ekg-middle-front-3_1_" gradientUnits="userSpaceOnUse" x1="424.2475" y1="155.6895" x2="376.5724" y2="187.9365" gradientTransform="matrix(0.9381 0.3464 -0.3464 0.9381 124.604 89.8782)">
				<stop  offset="0" style="stop-color:#EFE919"/>
				<stop  offset="1" style="stop-color:#EFE919"/>
			</linearGradient>
			<path id="ekg-middle-front-3" class="st11" d="M413.56,390.43c1.77-0.07,3.83-0.02,6.08,0.27c1.43,0.18,2.75,0.43,3.94,0.71
				c0.8-2.1,1.59-4.19,2.38-6.29c0.34,0.95,0.67,1.96,0.99,3.02c0.27,0.9,0.5,1.77,0.71,2.61c1.28-0.05,3.31-0.14,5.81-0.33
				c3.38-0.26,4.09-0.44,6.29-0.46c3.41-0.04,5.68,0.34,6.21,0.44c1.73,0.3,3.15,0.71,4.19,1.05c0.61-3.22,1.22-6.43,1.83-9.65
				c0.55,1.46,0.95,2.68,1.23,3.54c0.74,2.35,1.44,4.98,1.44,4.98c0.14-0.05,0.49-0.2,0.77-0.58c0.26-0.36,0.31-0.72,0.32-0.87
				c1.15-0.08,2.33-0.14,3.53-0.18c3.81-0.14,7.43-0.08,10.84,0.11c-0.14,0.34-0.27,0.68-0.41,1.02c-2.19,0.24-3.97,0.42-5.21,0.54
				c-1.05,0.1-2.1,0.2-3.15,0.3c-1.47,0.14-2.37,0.21-3.67,0.39c-0.68,0.09-1.24,0.18-1.62,0.24c-0.41,1.08-0.81,2.16-1.22,3.24
				c-0.11-0.22-0.28-0.59-0.47-1.05c-0.21-0.53-0.45-1.25-1.08-4.29c-0.13-0.65-0.27-1.32-0.58-2.21c-0.13-0.38-0.26-0.69-0.34-0.89
				c-0.31,1.49-0.53,2.69-0.67,3.51c-0.21,1.25-0.34,2.16-0.66,3.54c-0.17,0.77-0.34,1.39-0.45,1.78c-0.07,0.05-0.16,0.1-0.26,0.09
				c-0.17-0.03-0.28-0.24-0.38-0.54c-0.31-0.84-0.22-1.15-0.48-1.52c-0.09-0.13-0.25-0.31-0.55-0.46c-0.61-0.05-1.5-0.11-2.56-0.16
				c-1.37-0.06-2.62-0.08-5.29-0.05c-4.73,0.05-4.15,0.14-6.49,0.11c-1.05-0.01-2.24-0.04-3.98,0.04c-1.02,0.05-1.86,0.12-2.43,0.17
				c-0.28,0.99-0.39,1.79-0.43,2.35c-0.03,0.46-0.06,1.36-0.09,2.05c-0.01,0.23-0.01,0.42-0.02,0.55c-0.14-0.22-0.28-0.44-0.43-0.67
				c-0.25-0.94-0.4-1.71-0.48-2.22c-0.18-1.12-0.19-1.7-0.39-3.16c-0.11-0.83-0.22-1.49-0.3-1.9c-0.51,0.67-0.81,1.26-0.99,1.68
				c-0.14,0.32-0.37,0.94-0.83,2.2c-0.03,0.09-0.06,0.16-0.08,0.2c-0.45-0.13-1.1-0.3-1.89-0.47c-1.51-0.33-2.66-0.47-3.96-0.63
				c-1.86-0.23-2.8-0.34-3.38-0.32c-0.86,0.03-1.71-0.18-2.57-0.14c-0.27,0.01-0.55,0.03-0.69-0.14c-0.29-0.36,0.05-1.46,0.82-1.71
				C412.98,390.11,413.45,390.37,413.56,390.43z"/>
		</g>
		<g id="ekg-bottom">
			
				<linearGradient id="ekg-bottom-back_1_" gradientUnits="userSpaceOnUse" x1="-273.9089" y1="560.6791" x2="-191.0207" y2="560.6791" gradientTransform="matrix(-0.7159 0.276 0.3597 0.9331 71.4441 63.8835)">
				<stop  offset="0" style="stop-color:#8B8D35"/>
				<stop  offset="0.0333" style="stop-color:#8B8D35"/>
				<stop  offset="1" style="stop-color:#8B8D35"/>
			</linearGradient>
			<path id="ekg-bottom-back" class="st12" d="M474.1,524.17c-2.56-0.1-4.63-0.1-6.04-0.09c-0.6,0.01-3.41,0.04-6.82-0.12
				c-3.12-0.14-4.09-0.32-5.07-1.21c-1.38-1.26-1.94-3.2-2.18-4.32c-0.46,0.97-0.82,1.9-1.11,2.76c-0.35,1.05-0.42,1.5-0.75,2.04
				c-0.37,0.61-1.01,1.26-2.2,1.6c-3.24,0.08-7.39,0.19-10.63,0.27c-2.48,0.06-6.51,0.16-8.99,0.22c-0.21,0.09-0.56,0.2-0.95,0.03
				c-0.55-0.24-0.89-0.89-1.06-1.26c-0.61-1.26-2.65-6.09-5.34-12.69c-0.15,2.03-0.31,4.06-0.46,6.09
				c-0.27,3.45-0.54,6.89-0.82,10.31c0,0.04,0,0.16-0.06,0.26c-0.08,0.11-0.21,0.14-0.35,0.09c-0.57-1.4-1.07-2.57-1.46-3.47
				c-0.41-0.93-0.7-1.59-0.96-1.58c-0.27,0.01-0.4,0.73-0.51,1.34c-0.13,0.71-0.09,1.13-0.38,1.49c-0.12,0.15-0.25,0.24-0.41,0.31
				c-1.09,0.52-3.31,0.3-4.76,0.27c-0.32-0.01-0.04,0.01-1.59,0.05c-3,0.08-3.84,0.02-3.98,0.56c-0.06,0.24-0.01,0.7,0.76,1.67
				c1.81-0.24,3.29-0.27,4.31-0.26c1.55,0.02,3.08,0.16,5.45-0.04c0.37-0.03,0.68-0.07,0.88-0.09c-0.06-0.27-0.38-1.78,0.26-2.38
				c0.05-0.05,0.12-0.1,0.19-0.13c0.57,0.76,0.93,1.44,1.14,1.9c0.38,0.82,0.55,1.46,1.12,2.29c0.24,0.34,0.45,0.59,0.6,0.74
				c0.13-0.09,0.25-0.18,0.38-0.27c0.4-2.35,0.69-3.99,0.89-5.15c0.85-4.9,0.88-5.03,0.86-5.24c-0.01-0.08-0.06-0.42,0.09-0.63
				c0.12-0.16,0.31-0.17,0.44-0.17c0.55,0.98,0.99,1.8,1.31,2.4c1.36,2.54,2.03,3.81,2.29,4.46c0.53,1.32,0.62,1.9,1.16,2.33
				c0.74,0.59,1.59,0.35,1.92,0.26c0.5-0.13,3.22-0.42,8.65-0.99c2.04-0.22,4.45-0.47,6.84-0.17c0.57,0.07,2.33,0.33,4.37-0.28
				c0.33-0.1,0.59-0.19,0.76-0.26c0.33-0.58,0.65-1.21,0.98-1.88c0.43-0.88,0.8-1.73,1.12-2.56c0.2,0.18,0.48,0.43,0.83,0.71
				c0.6,0.5,1.29,1.03,1.77,1.35c0.99,0.67,1.84,0.94,2.91,1.28c0.72,0.23,1.8,0.52,3.45,0.73c1.84,0.24,1.86,0.04,4.52,0.23
				c2.45,0.17,3.67,0.25,4.1,0.32c1.49,0.24,2.21,0.5,2.63-0.01C474.79,526.59,474.36,524.99,474.1,524.17z"/>
			
				<linearGradient id="ekg-bottom-front_1_" gradientUnits="userSpaceOnUse" x1="-274.4605" y1="559.95" x2="-191.5722" y2="559.95" gradientTransform="matrix(-0.7159 0.276 0.3597 0.9331 71.4441 63.8835)">
				<stop  offset="0" style="stop-color:#F2EA1A"/>
				<stop  offset="1" style="stop-color:#F1EA19"/>
			</linearGradient>
			<path id="ekg-bottom-front" class="st13" d="M474.23,523.33c-2.56-0.1-4.63-0.1-6.04-0.09c-0.6,0.01-3.41,0.04-6.82-0.12
				c-3.12-0.14-4.09-0.32-5.07-1.21c-1.38-1.26-1.94-3.2-2.18-4.32c-0.46,0.97-0.82,1.9-1.11,2.76c-0.35,1.05-0.42,1.5-0.75,2.04
				c-0.37,0.61-1.01,1.26-2.2,1.6c-3.24,0.08-7.39,0.19-10.63,0.27c-2.48,0.06-6.51,0.16-8.99,0.22c-0.21,0.09-0.56,0.2-0.95,0.03
				c-0.55-0.24-0.89-0.89-1.06-1.26c-0.61-1.26-2.65-6.09-5.34-12.69c-0.15,2.03-0.31,4.06-0.46,6.09
				c-0.27,3.45-0.54,6.89-0.82,10.31c0,0.04,0,0.16-0.06,0.26c-0.08,0.11-0.21,0.14-0.35,0.09c-0.57-1.4-1.07-2.57-1.46-3.47
				c-0.41-0.93-0.7-1.59-0.96-1.58c-0.27,0.01-0.4,0.73-0.51,1.34c-0.13,0.71-0.09,1.13-0.38,1.49c-0.12,0.15-0.25,0.24-0.41,0.31
				c-1.09,0.52-3.31,0.3-4.76,0.27c-0.32-0.01-0.04,0.01-1.59,0.05c-3,0.08-3.84,0.02-3.98,0.56c-0.06,0.24-0.01,0.7,0.76,1.67
				c1.81-0.24,3.29-0.27,4.31-0.26c1.55,0.02,3.08,0.16,5.45-0.04c0.37-0.03,0.68-0.07,0.88-0.09c-0.06-0.27-0.38-1.78,0.26-2.38
				c0.05-0.05,0.12-0.1,0.19-0.13c0.57,0.76,0.93,1.44,1.14,1.9c0.38,0.82,0.55,1.46,1.12,2.29c0.23,0.34,0.45,0.59,0.6,0.74
				c0.13-0.09,0.25-0.18,0.38-0.27c0.4-2.35,0.69-3.99,0.89-5.15c0.85-4.9,0.88-5.03,0.86-5.24c-0.01-0.08-0.06-0.42,0.09-0.63
				c0.12-0.16,0.31-0.17,0.44-0.17c0.55,0.98,0.99,1.8,1.31,2.4c1.36,2.54,2.03,3.81,2.29,4.46c0.53,1.32,0.62,1.9,1.16,2.33
				c0.74,0.59,1.59,0.35,1.92,0.26c0.5-0.13,3.22-0.42,8.65-0.99c2.04-0.22,4.45-0.47,6.84-0.17c0.57,0.07,2.33,0.33,4.37-0.28
				c0.33-0.1,0.59-0.19,0.76-0.26c0.33-0.58,0.65-1.21,0.98-1.88c0.43-0.88,0.8-1.73,1.12-2.56c0.2,0.18,0.48,0.43,0.83,0.71
				c0.6,0.5,1.29,1.03,1.77,1.35c0.99,0.67,1.84,0.94,2.91,1.28c0.72,0.23,1.8,0.52,3.45,0.73c1.84,0.24,1.86,0.04,4.52,0.23
				c2.45,0.17,3.67,0.25,4.1,0.32c1.49,0.24,2.21,0.5,2.63-0.01C474.92,525.76,474.5,524.16,474.23,523.33z"/>
		</g>
		<g id="dna-strand-1">
			
				<linearGradient id="dna-strand-1-top_1_" gradientUnits="userSpaceOnUse" x1="415.1849" y1="203.4242" x2="388.61" y2="88.2504" gradientTransform="matrix(0.9744 0.2248 -0.2248 0.9744 79.5759 53.5632)">
				<stop  offset="0.1929" style="stop-color:#909090"/>
				<stop  offset="0.3629" style="stop-color:#989797"/>
				<stop  offset="0.3988" style="stop-color:#A2A0A0"/>
				<stop  offset="0.5131" style="stop-color:#BFBDBD"/>
				<stop  offset="0.6298" style="stop-color:#D8D6D5"/>
				<stop  offset="0.7484" style="stop-color:#EBEAE9"/>
				<stop  offset="0.8703" style="stop-color:#F9F8F7"/>
				<stop  offset="1" style="stop-color:#FFFFFF"/>
			</linearGradient>
			<path id="dna-strand-1-top" class="st14" d="M395.91,241.93c-1.62-0.44-2.45-1.83-2.53-1.95c-0.52-0.9-0.55-1.75-0.57-2.45
				c-0.04-1.89,0.67-3.43,1.15-4.2c1.69-2.74,5.2-3.54,6.85-3.9c12.16-2.6,22.19-2.5,22.19-2.5c8.83,0.54,13.27,0.08,16.96,0.52
				c8,0.95,14.24,1.69,21.01,5.44c6.92,3.83,10.88,8.87,12.84,11.42c10.78,13.99,10.3,29.91,10.09,34.71
				c-0.08,1.88-0.45,7.84-2.78,15.13c-2.66,8.34-6.44,13.85-10.31,19.41c-6.46,9.28-12.87,15.23-16.93,18.95
				c-7.65,7.02-15.78,12.94-16.06,12.6c-0.14-0.17,1.72-1.8,4.6-4.71c10.05-10.18,15.97-19.28,17.5-21.68
				c2.04-3.2,3.9-6.13,5.87-10.49c2.08-4.61,4.99-11.19,5.6-20.14c0.24-3.58,0.69-11.54-3.05-20.82
				c-0.78-1.93-4.21-10.04-12.4-17.21c-2.69-2.35-7.21-6.23-14.21-8.34c-2.53-0.76-4.75-1-9.19-1.46
				c-5.04-0.53-11.84-1.25-20.15-0.36c-8.34,0.89-12.51,1.33-13.24,1.65C398.8,241.7,397.41,242.33,395.91,241.93z"/>
			<path id="dna-strand-1-middle" class="st15" d="M425.37,467.69c-2.69-1.73-5.99-4.06-9.56-7.09c-1.98-1.69-5.69-4.87-9.69-9.62
				c-2.84-3.38-6.93-8.31-10.16-15.8c-1.3-3.02-3.95-9.29-4.43-17.93c-0.54-9.6,1.88-16.87,3.28-20.91
				c1.89-5.49,4.14-9.43,5.83-12.35c0.66-1.13,3.77-6.47,9.33-13.09c3.83-4.55,6.84-7.36,12.88-12.98
				c3.49-3.25,8.5-7.74,14.88-12.88c5.74-4.63,5.48-4.05,9.57-7.43c8.42-6.98,14.04-13.17,16.07-15.46
				c4.02-4.55,7.6-8.62,11.29-14.89c1.71-2.89,4.23-7.23,6.2-13.45c1.62-5.12,2.17-9.3,2.49-11.81c0.45-3.54,0.86-6.81,0.56-11.18
				c-0.54-7.8-2.98-13.56-4.12-16.19c-0.64-1.49-1.63-3.56-3.03-5.94c-2.67-4.51-5.75-7.79-7.97-10.06
				c0.67,0.46,1.74,1.03,2.75,1.82c1,0.78,2.66,2.09,4.34,3.81c1.73,1.79,2.76,3.29,4.8,6.29c0.99,1.45,1.75,2.57,2.67,4.19
				c0.51,0.9,1.75,3.16,2.96,6.28c1.94,5,2.61,9.14,2.81,10.53c0.6,4.11,0.5,7.28,0.44,9.21c-0.14,4.06-0.69,7.06-1.23,9.96
				c-0.5,2.68-1.14,6.08-2.54,10.25c-1.26,3.74-2.51,6.22-5.02,11.16c-2.29,4.52-3.92,7.76-6.72,11.84
				c-0.84,1.23-2.34,3.2-5.34,7.16c-2.76,3.64-4.14,5.45-5.51,7.12c-2.94,3.57-5.4,6.17-7.46,8.34c-2.13,2.24-3.69,3.78-6.74,6.78
				c-7.44,7.31-12.46,11.86-13.49,12.78c-2.2,1.99-3.45,3.11-5.23,4.63c-0.66,0.56-1.39,1.17-2.52,2.16
				c-1.59,1.39-2.49,2.17-3.31,2.99c-1.02,1.01-1.9,2.18-3.66,4.51c-1.19,1.58-2.6,3.46-4.32,6.09c-0.8,1.22-1.55,2.37-2.47,4.01
				c-1.4,2.48-2.28,4.47-2.54,5.07c-0.29,0.65-1.52,3.53-2.65,7.6c-0.43,1.55-0.99,3.6-1.4,6.34c-0.78,5.11-0.54,9.17-0.39,10.98
				c0.23,2.76,0.66,4.79,1.03,6.61c0.61,2.92,1.23,4.93,2.29,8.39c0.92,3,1.61,5.22,2.82,8.15c0.73,1.77,1.36,3.11,1.97,4.38
				c0.97,2.05,1.27,2.55,3.4,6.68c2.41,4.69,2.72,5.41,3.85,7.32c1.04,1.77,1.98,3.18,2.62,4.12
				C425.08,466.67,425.23,467.18,425.37,467.69z"/>
			
				<linearGradient id="dna-strand-1-bottom_1_" gradientUnits="userSpaceOnUse" x1="469.9365" y1="402.0479" x2="438.1057" y2="264.0954" gradientTransform="matrix(0.9744 0.2248 -0.2248 0.9744 79.5759 53.5632)">
				<stop  offset="0" style="stop-color:#FFFFFF"/>
				<stop  offset="0.1865" style="stop-color:#E5E4E3"/>
				<stop  offset="0.5643" style="stop-color:#B5B4B3"/>
				<stop  offset="1" style="stop-color:#818282"/>
			</linearGradient>
			<path id="dna-strand-1-bottom" class="st16" d="M467.62,542.92c-0.55,2.86,2.27,5.5,2.64,5.85c0.74,0.69,1.87,1.76,3.68,2.1
				c3.59,0.68,6.32-2.1,6.56-2.36c0.78-0.82,1.13-1.57,2.05-3.99c1.47-3.83,2.2-5.75,2.69-7.53c0.87-3.17,2.56-9.29,2.63-16.54
				c0.1-11.54-3.97-20.3-5.8-24.14c-0.23-0.48-5.8-11.87-16.46-21c-4.14-3.55-9.31-6.97-9.6-7.16c-3.34-2.2-3.33-1.91-9.05-5.42
				c-5.89-3.62-6.23-4.12-12.36-7.85c-3.84-2.34-4.23-2.46-6.2-3.81c-2.32-1.59-5.08-3.51-8.13-6.58c-3.6-3.63-5.81-7.06-6.84-8.78
				c-2.55-4.26-3.84-8.01-4.43-9.95c-0.87-2.84-2.32-7.76-1.86-13.73c0.1-1.29,0.29-2.62,0.22-2.63c-0.11-0.02-1.03,3.58-1.05,7.65
				c-0.01,2.99,0.47,5.27,0.84,6.92c2.67,11.73,6.14,20.35,6.14,20.35c2.8,6.95,5.54,12.07,7.3,15.32c1.73,3.2,3.3,5.86,4.5,7.83
				c1.43,0.84,3.64,2.11,6.37,3.61c8.23,4.51,11,5.44,15.57,8.36c1.56,1,5.29,3.48,9.32,7.33c3.27,3.12,9.04,8.76,12.81,18.02
				c2.88,7.08,3.27,13.06,3.35,14.88c0.27,5.99-0.78,10.63-1.33,12.97c-1.05,4.48-1.57,6.71-2.83,8.63
				C468.15,541.58,467.78,542.11,467.62,542.92z"/>
		</g>
		<g id="dna-strand-2">
			
				<linearGradient id="dna-strand-2-top_1_" gradientUnits="userSpaceOnUse" x1="427.6897" y1="276.3903" x2="395.015" y2="134.7802" gradientTransform="matrix(0.9744 0.2248 -0.2248 0.9744 79.5759 53.5632)">
				<stop  offset="0" style="stop-color:#58595B"/>
				<stop  offset="0.0885" style="stop-color:#76777A"/>
				<stop  offset="0.2245" style="stop-color:#9C9EA0"/>
				<stop  offset="0.3589" style="stop-color:#BDBFC1"/>
				<stop  offset="0.4889" style="stop-color:#D9DADB"/>
				<stop  offset="0.6133" style="stop-color:#ECEDED"/>
				<stop  offset="0.7297" style="stop-color:#F8F9F9"/>
				<stop  offset="0.8302" style="stop-color:#FFFFFF"/>
			</linearGradient>
			<path id="dna-strand-2-top" class="st17" d="M412.75,279.98c-0.08-0.54-0.62-3.7-3.35-5.33c-0.21-0.13-1.35-0.79-2.97-0.92
				c-2.05-0.17-3.59,0.59-4.36,0.99c0,0-1.71,0.88-3.06,2.45c-6,6.98-6.66,23.05-6.66,23.05c-0.16,3.8-0.31,8.2,0.73,13.98
				c0.59,3.29,2.14,10.18,6.51,17.84c3.83,6.73,8.04,10.9,11.23,14.02c5.65,5.52,10.52,8.63,20.02,14.62
				c13.4,8.44,14.24,7.53,21.28,13.04c10.52,8.23,14.18,14.61,15.33,16.75c3.54,6.58,4.39,12.05,4.55,13.19
				c0.94,6.71-0.23,12.22-1.16,15.38c1.47-2.62,3.31-6.55,4.39-11.6c0.31-1.46,1.16-5.87,0.82-11.69
				c-0.42-7.22-2.51-12.45-4.38-16.99c-3.04-7.39-4.83-12.44-9.78-16.81c-1.2-1.06-2.57-1.95-5.3-3.72
				c-6.84-4.44-12.02-6.78-15.05-8.29c-2.2-1.1-11-5.57-18.34-12.62c-3.62-3.48-11.12-10.68-14.19-22.47
				c-2.88-11.05-0.48-20.75,0.79-25.89C410.73,285.16,411.87,282.1,412.75,279.98z"/>
			
				<linearGradient id="dna-strand-2-middle_1_" gradientUnits="userSpaceOnUse" x1="445.2316" y1="446.5775" x2="445.2316" y2="214.772" gradientTransform="matrix(0.9744 0.2248 -0.2248 0.9744 79.5759 53.5632)">
				<stop  offset="0" style="stop-color:#FFFFFF"/>
				<stop  offset="0.0176" style="stop-color:#FFFFFF"/>
				<stop  offset="0.5296" style="stop-color:#FFFFFF"/>
				<stop  offset="0.6886" style="stop-color:#FBFAFA"/>
				<stop  offset="0.7766" style="stop-color:#F1F0EF"/>
				<stop  offset="0.8473" style="stop-color:#E4E2E2"/>
				<stop  offset="0.9087" style="stop-color:#D1D0CF"/>
				<stop  offset="0.9636" style="stop-color:#BCBBBA"/>
				<stop  offset="1" style="stop-color:#AAAAA9"/>
			</linearGradient>
			<path id="dna-strand-2-middle" class="st18" d="M462.24,362.27c1,1.78,1.84,3.2,2.41,4.15c1.06,1.76,1.31,2.08,2.07,3.42
				c0.8,1.41,1.36,2.52,1.99,3.76c0.66,1.3,1.26,2.55,1.58,3.22c2.09,4.47,3.44,9.46,3.44,9.46c0.72,2.65,1.71,6.39,1.92,11.43
				c0.08,2.02,0.21,5.71-0.78,10.36c-0.21,1-1.02,4.61-3.05,8.94c-0.39,0.83-0.74,1.51-1,2c-0.17,0.72-0.42,1.7-0.75,2.86
				c-0.46,1.64-1.12,3.94-2.28,6.8c-1.1,2.71-2.17,4.72-2.62,5.56c-1.07,1.97-2.01,3.4-2.87,4.7c-0.4,0.61-1.44,2.17-2.92,4.15
				c-1.44,1.93-2.8,3.74-4.85,5.93c-2.25,2.4-4.18,4.03-4.69,4.45c-1.19,0.99-2.43,1.93-4.25,3.31c-1.25,0.94-2.14,1.6-2.37,1.77
				c-4.11,3.05-7.69,7.29-13.36,12.63c-1.85,1.75-2.7,2.28-4.4,3.98c-0.56,0.56-1.08,1.11-4.68,5.17c-2.03,2.3-3.05,3.45-4.11,4.68
				c-2.11,2.43-3.16,3.65-4.42,5.23c-1.58,1.98-2.7,3.53-3.73,4.94c-1.45,2-2.85,3.94-4.56,6.63c-2.65,4.17-4.42,7.58-5.26,9.23
				c-0.28,0.57-1.02,2.05-1.91,4.02c-0.94,2.09-2.36,5.25-3.63,9.16c-0.42,1.3-1.81,5.7-2.7,11.7c-0.72,4.87-1.26,8.45-0.72,12.42
				c0.1,0.72,0.36,2.43,0.85,6c0.45,3.26,0.42,3.22,0.53,3.87c0.53,2.96,1.36,5.09,2.35,7.6c0.91,2.31,1.8,4.54,3.49,7.32
				c0.38,0.63,1.99,3.24,4.72,6.27c1.3,1.45,3.03,3.35,5.73,5.34c1.2,0.88,3.72,2.62,7.27,4.09c2.52,1.04,5.03,1.56,9.94,2.56
				c2.23,0.46,5.12,1.01,8.52,1.56c-0.66-0.47-1.66-1.16-2.9-1.96c-4.45-2.9-6.42-3.47-8.79-5.24c-1.24-0.93-3.94-3.05-6.85-6.31
				c-0.87-0.97-3.98-4.55-6.87-10.07c-1.35-2.58-3.38-6.51-4.55-12.03c-0.9-4.24-0.85-7.36-0.76-12.94
				c0.05-3.42,0.12-7.02,1.01-11.73c0.77-4.1,1.8-7.11,2.39-8.82c0.35-1.02,2.05-5.85,5.42-11.88c1.26-2.26,2.37-4.29,4.25-6.79
				c0.32-0.43,1.14-1.51,4.3-5.08c3.08-3.48,4.62-5.22,5.63-6.2c3.37-3.26,4.62-3.54,8.69-7.1c2-1.75,2.58-2.67,5.41-5.27
				c1.67-1.54,2.96-2.63,4.03-3.53c9.17-7.76,11.19-9.24,14.9-12.72c1.14-1.06,3.05-2.89,5.33-5.29
				c6.71-7.06,10.77-12.88,12.08-14.8c1.54-2.27,2.99-4.41,4.59-7.51c1.76-3.41,2.85-6.31,3.65-8.45c0.61-1.65,1.33-3.58,2.06-6.22
				c0.73-2.62,1.48-5.33,1.78-8.88c0.29-3.45,0.02-6.01-0.31-9.09c-0.27-2.47-0.6-5.4-1.64-9.13c-1.33-4.71-3.06-8.07-4.11-10.06
				c-1.97-3.75-3.85-6.33-5.52-8.59c-0.8-1.09-3.12-4.18-6.58-7.86C467.71,367.19,465.21,364.76,462.24,362.27z"/>
			
				<linearGradient id="dna-strand-2-bottom_1_" gradientUnits="userSpaceOnUse" x1="521.024" y1="394.609" x2="422.0072" y2="394.609" gradientTransform="matrix(0.9744 0.2248 -0.2248 0.9744 79.5759 53.5632)">
				<stop  offset="0" style="stop-color:#A19F9F"/>
				<stop  offset="1" style="stop-color:#E5E7E5"/>
			</linearGradient>
			<path id="dna-strand-2-bottom" class="st19" d="M433.5,487.32c-3.76,2.35-6.67,4.71-8.77,6.59c-0.59,0.53-2.6,2.35-5,5.01
				c-2.49,2.76-4.13,5.01-5.8,7.32c-2.45,3.4-3.76,5.21-5.24,7.99c-1.46,2.74-2.24,4.85-3.52,8.3c-1.2,3.24-2.01,5.4-2.67,8.49
				c-0.42,1.96-0.62,3.67-1.01,7.09c-0.43,3.71-0.64,5.57-0.68,7.97c-0.08,4.61,0.51,8.13,0.67,9.08c0.87,5.01,2.38,8.63,3.37,10.96
				c1.04,2.44,2.37,5.55,4.94,9.18c0.72,1.01,3.28,4.54,7.58,8.18c3.52,2.98,6.67,4.74,10,6.59c2.33,1.3,4.33,2.28,5.75,2.93
				c0.3,0.05,0.75,0.13,1.29,0.21c6.97,1.06,11.96,0.79,19.28,0.43c7.88-0.39,15.73-1.26,23.61-1.7c0.67-0.04,3.29-0.18,6.46-1.28
				c3.51-1.22,5.15-2.73,5.54-3.1c0.91-0.87,2.36-2.25,2.83-4.53c0.32-1.54,0.07-2.85-0.15-3.61c-0.19-0.67-0.69-2.37-2.15-3.44
				c-1.04-0.76-2.16-0.92-4.43-0.93c-4.02-0.01-7.11,0.48-7.63,0.56c0,0-0.98,0.16-8.14,1.25c-4.9,0.75-8.64,1.05-11.73,1.31
				c-4.25,0.35-7.28,0.6-11.47,0.57c-3.15-0.03-5.56-0.05-8.81-0.51c-5.85-0.84-10.11-2.52-11.52-3.1
				c-3.53-1.46-6.81-2.82-10.15-5.91c-2.71-2.52-4.17-4.98-5.99-8.08c-1.58-2.68-3.13-5.31-4.13-9.17c-0.93-3.6-0.91-6.41-0.89-9.31
				c0.01-1.23,0.09-5.68,1.43-11.63c0.29-1.3,1.65-7.13,5.08-14.28c2.58-5.38,5.21-9.16,8.32-13.62c1.58-2.26,2.88-4.14,4.9-6.55
				c3.25-3.88,4.85-5.65,5.63-6.4C431.57,488.94,432.7,487.97,433.5,487.32z"/>
		</g>
	</g>
	<g id="mitochondria-letters">
		<path id="mitochondria-letter-m" class="st1" d="M328.27,693.63c-2.59,0-5.19,0-7.53,0c-0.75-5.7-1.45-11.1-2.16-16.5
			c-0.18-0.03-0.36-0.05-0.55-0.08c-2.72,5.58-5.45,11.16-8.51,17.44c-3.03-6.09-5.77-11.58-8.8-17.67
			c-0.73,5.3-1.48,9.93-1.89,14.59c-0.07,0.76,1.38,1.65,1.98,2.32c-1.99,0-4.52,0-6.33,0c0.54-0.98,1.66-2.22,1.9-3.61
			c1.19-6.87,2.15-13.79,3.21-20.68c0.1-0.66,0.38-1.29,0.78-2.59c3.53,7.18,6.8,13.84,10.25,20.86c3.4-7.04,6.6-13.66,9.8-20.28
			c0.21,0.02,0.42,0.04,0.63,0.06c0.47,3.01,0.96,6.02,1.42,9.03c0.63,4.17,1.32,8.34,1.81,12.52
			C324.58,691.58,325.23,693.6,328.27,693.63z"/>
		<path id="mitochondria-letter-i-1" class="st1" d="M339.86,693.82c-2.98,0-5.95,0-8.36,0c0.44-1.02,1.33-2.18,1.37-3.37
			c0.17-5.17,0.17-10.35,0.02-15.51c-0.03-0.96-0.99-1.9-1.46-2.73c2.11,0,4.8,0,6.9,0c-0.4,1.05-1.24,2.28-1.28,3.55
			c-0.16,4.82-0.02,9.66-0.09,14.48C336.93,692.26,337.35,693.7,339.86,693.82z"/>
		<path id="mitochondria-letter-t" class="st1" d="M348.35,693.71c0.5-0.64,1.49-1.34,1.51-2.05c0.13-5.93,0.07-11.86,0.07-17.78
			c-5.72-0.34-6.29-0.2-8.39,2.19c0.27-1.58,0.49-2.82,0.73-4.19c6.52,0,12.99,0,19.57,0c0,1.25,0,2.62,0,4.27
			c-1.75-3.52-4.88-1.87-7.66-2.67c0,6.19-0.09,12.11,0.1,18.01c0.03,0.81,1.47,1.58,2.09,2.21
			C353.96,693.71,350.99,693.71,348.35,693.71z"/>
		<path id="mitochondria-letter-o-1" class="st1" d="M376.08,671.56c7.27-0.01,12.18,4.29,12.29,10.78
			c0.12,6.85-5.38,12.07-12.71,12.08c-6.91,0.01-12.21-4.93-12.22-11.37C363.43,676.42,368.76,671.58,376.08,671.56z M383.86,684.02
			c0.18-0.07,0.36-0.13,0.54-0.2c-0.87-2.46-1.41-5.12-2.71-7.34c-1.67-2.86-4.67-3.71-7.89-3.29c-2.74,0.36-4.49,2.05-5.36,4.64
			c-1.11,3.33-0.94,6.63,0.54,9.82c1.78,3.83,5.37,5.8,9.22,5.15c3.18-0.53,5.22-3.36,5.58-7.74
			C383.81,684.71,383.83,684.36,383.86,684.02z"/>
		<path id="mitochondria-letter-c" class="st1" d="M411.8,672.61c-0.09,1.85-0.16,3.38-0.2,4.25c-1.36-1.02-2.8-2.69-4.59-3.27
			c-1.86-0.6-4.13-0.5-6.08-0.06c-3.8,0.85-5.49,4.27-5.28,9.75c0.18,4.63,3.26,8.2,7.95,9.21c3.9,0.84,6.21-0.18,7.87-3.44
			c0.63,3.73-0.01,5.06-3.6,5.09c-3.53,0.03-7.26-0.33-10.56-1.49c-4.33-1.52-6.61-6.23-6.12-10.64c0.55-5,3.56-8.68,8.2-9.82
			C403.48,671.18,407.57,671.6,411.8,672.61z"/>
		<path id="mitochondria-letter-h" class="st1" d="M421.6,683.21c0,2.36,0.05,4.52-0.01,6.67c-0.06,2.12,0.14,3.96,2.99,3.86
			c-3.02,0-6.03,0-8.47,0c0.4-0.88,1.3-1.98,1.34-3.1c0.17-5.27,0.21-10.55,0.04-15.82c-0.03-0.94-1.29-1.84-1.86-2.6
			c2.3,0,5.23,0,8.01,0c-4.18,2.09-1.01,5.96-2.27,9.05c4.21,0,8.05,0,11.88,0c1-6.52,0.58-8.15-2.99-9.03c3.57,0,6.47,0,8.82,0
			c-0.43,0.78-1.43,1.79-1.47,2.82c-0.17,5.01-0.09,10.03-0.07,15.04c0.01,1.94,0.2,3.8,2.95,3.61c-3.08,0-6.15,0-9.23,0
			c2.28-0.36,2.29-2.09,2.26-3.9c-0.04-2.15-0.01-4.3-0.01-6.62C429.55,683.21,425.72,683.21,421.6,683.21z"/>
		<path id="mitochondria-letter-o-2" class="st1" d="M455.69,671.56c7.28,0.08,12.15,4.49,12.11,10.96
			c-0.05,6.92-5.63,12.06-12.9,11.89c-6.98-0.16-12.18-5.15-12.03-11.55C443.01,676.2,448.37,671.48,455.69,671.56z M463.31,683.65
			c0.16-0.06,0.32-0.13,0.48-0.19c-0.83-2.3-1.35-4.8-2.57-6.87c-1.75-2.96-4.77-3.87-8.1-3.39c-2.74,0.39-4.47,2.14-5.29,4.72
			c-1.16,3.62-0.85,7.17,0.96,10.51c1.83,3.37,5.73,5.13,9.2,4.31c2.91-0.69,4.79-3.35,5.16-7.28
			C463.21,684.86,463.26,684.26,463.31,683.65z"/>
		<path id="mitochondria-letter-n" class="st1" d="M491.77,694.57c-5.46-5.31-10.92-10.61-16.54-16.07c0,4.49-0.13,8.68,0.1,12.85
			c0.05,0.88,1.41,1.69,2.04,2.39c-2.05,0-4.61,0-7.18,0c2.62-0.35,2.41-2.37,2.41-4.26c0-5.86,0-11.72,0-17.59
			c0.29-0.13,0.57-0.26,0.86-0.4c5.6,5.45,11.2,10.9,16.99,16.55c0-4.85,0.11-9.37-0.11-13.88c-0.04-0.73-1.53-1.39-2.23-1.98
			c2.08,0,4.5,0,6.37,0c-0.44,0.94-1.33,1.98-1.38,3.07c-0.25,5.43-0.28,10.87-0.4,16.31c-0.02,0.91-0.09,1.81-0.13,2.72
			C492.31,694.37,492.04,694.47,491.77,694.57z"/>
		<path id="mitochondria-letter-d" class="st1" d="M499.42,693.94c0.59-0.95,1.5-1.73,1.52-2.54c0.17-5.6,0.25-11.21,0.11-16.81
			c-0.02-0.86-1.31-1.68-2.17-2.7c5.28,0.3,10.91,0.14,16.37,1.05c5.35,0.89,7.85,5.03,7.61,10.69c-0.22,5.18-3.9,9.69-9.19,10.21
			C508.83,694.32,503.91,693.94,499.42,693.94z M505.2,674.01c0,5.4-0.06,10.67,0.06,15.94c0.02,0.84,0.65,2.06,1.35,2.43
			c4.11,2.19,10.46-0.45,11.59-4.95C520.87,676.86,513.06,672.32,505.2,674.01z"/>
		<path id="mitochondria-letter-r" class="st1" d="M549.18,693.38c-0.36-0.05-0.76-0.14-1.21-0.32c-0.78-0.31-1.57-0.81-2.14-1.42
			c-2.36-2.51-4.63-5.11-6.92-7.65c1.08-1.2,2.1-2.14,2.89-3.25c2.6-3.65,1.02-7.73-3.44-8.18c-4-0.4-8.06-0.08-11.33-0.08
			c0.4,0.5,1.74,1.41,1.78,2.36c0.2,5.27,0.16,10.55-0.01,15.81c-0.03,1.08-0.97,2.13-1.45,3.1h8.16c-2.74,0.07-2.84-1.77-2.82-3.73
			c0.02-1.63,0-3.25,0-4.83c2.38-0.57,3.93,0.07,5.05,2.11c0.78,1.42,1.78,2.83,2.99,3.88c1.32,1.13,2.97,2.51,4.53,2.58
			c1.3,0.06,2.61,0.09,3.91,0.12V693.38z M532.75,683.4v-9.55c2.26-0.45,4.34-0.44,5.71,1.7c1.31,2.06,1.31,4.25,0.04,6.35
			C537.12,684.16,534.97,683.45,532.75,683.4z"/>
		<path id="mitochondria-letter-i-2" class="st1" d="M557.82,693.33c-0.24-0.05-0.49-0.11-0.73-0.2c-0.79-0.3-1.46-1.95-1.49-3.01
			c-0.16-4.92-0.16-9.86,0-14.78c0.04-1.13,0.9-2.23,1.32-3.18h-7.04c0.5,0.83,1.54,1.76,1.57,2.7c0.12,5.35,0.07,10.71-0.07,16.07
			c-0.03,1.32-0.45,2.09-1.19,2.36v0.6c2.59,0.04,5.15,0.03,7.65,0.02V693.33z"/>
		<path id="mitochondria-letter-a" class="st1" d="M578.98,690.19c-2.39-5.05-4.51-10.23-6.76-15.35c-0.5-1.14-1.1-2.23-1.88-3.81
			c-0.98,2.15-1.73,3.78-2.46,5.43c-2.19,4.95-4.4,9.9-6.54,14.88c-0.57,1.32-1.49,1.94-2.52,2.05v0.53
			c1.98-0.01,3.92-0.03,5.78-0.03c-0.24-1.11-0.81-2.15-0.59-2.98c1.1-4.23,1.25-4.27,5.77-4.27c0.86,0,1.75-0.1,2.59,0.04
			c0.48,0.08,1.12,0.46,1.3,0.87c0.86,2.02,1.58,4.1,2.37,6.22h5.9C581.07,692.75,579.67,691.64,578.98,690.19z M566.45,684.91
			c0.96-2.4,1.9-4.74,3.07-7.67c1.15,2.85,2.08,5.16,3.09,7.67H566.45z"/>
	</g>
	<g id="jesse-letters">
		<path id="jesse-letter-j" class="st20" d="M283.9,133.63c0.18-0.19,0.32-0.44,0.53-0.57c4.81-2.89,6.55-7.5,6.61-12.73
			c0.16-12.59,0.09-25.19,0.08-37.78c0-1.92-0.95-2.77-3.12-3.02c-0.6-0.07-1.2-0.1-2.05-0.17c1.22-1.14,15.57-1.09,16.37-0.11
			c-0.28,0.09-0.51,0.19-0.75,0.23c-3.01,0.39-3.51,0.87-3.52,3.94c-0.03,10.69,0.02,21.37-0.03,32.06
			c-0.04,8.99-5.24,14.49-12.71,18.37c-0.36,0.19-0.83,0.17-1.25,0.25C284.02,133.95,283.96,133.79,283.9,133.63z"/>
		<path id="jesse-letter-e-1" class="st20" d="M306,118.99c0.13-0.09,0.25-0.25,0.39-0.26c3.03-0.15,3.67-0.87,3.71-4.54
			c0.1-10.37,0.07-20.73,0.06-31.1c0-2.51-0.88-3.34-3.43-3.58c-0.54-0.05-1.07-0.26-1.53-0.71c8.42-0.57,16.79,0.1,25.32-0.65
			c-0.25,2.6-0.52,5.43-0.78,8.25c-0.21,0-0.42,0-0.63,0c-0.09-0.5-0.21-1-0.25-1.5c-0.14-1.68-0.98-2.86-2.66-3.02
			c-2.97-0.28-5.96-0.36-9.05-0.52c0,5.02,0,9.79,0,14.88c4.11-0.64,8.47,1.18,12.66-1.81c-0.29,3.27-0.57,6.33-0.84,9.39
			c-0.18,0-0.36,0-0.54-0.01c-0.08-0.28-0.21-0.55-0.23-0.83c-0.18-2.73-0.7-3.44-3.36-3.61c-2.5-0.16-5.01-0.04-7.78-0.04
			c0,0.71,0,1.61,0,2.51c0,3.44-0.02,6.88,0.01,10.31c0.02,2.85,1.16,4.11,3.99,4.3c1.68,0.11,3.38,0.13,5.06,0.02
			c2.96-0.2,3.92-1.08,4.6-3.91c0.11-0.48,0.24-0.95,0.43-1.73c0.37,0.47,0.61,0.63,0.6,0.77c-0.24,2.37-0.41,4.76-0.85,7.1
			c-0.08,0.45-1.25,0.97-1.93,0.98c-2.78,0.05-5.56-0.1-8.35-0.13c-4.2-0.04-8.41-0.03-12.61-0.05c-0.67,0-1.33-0.08-2-0.12
			C305.99,119.25,305.99,119.12,306,118.99z"/>
		<path id="jesse-letter-s-1" class="st20" d="M338.58,108.52c0.14,0.82,0.28,1.64,0.41,2.47c0.86,5.41,7.17,8.44,11.94,5.72
			c3.78-2.16,4.59-7.87,1.39-11.19c-1.53-1.59-3.55-2.69-5.25-4.11c-2.2-1.84-4.68-3.51-6.39-5.75c-4.27-5.6-3.16-16.02,7.57-17.76
			c3.03-0.49,6.26,0.16,9.39,0.34c1.04,0.06,1.44,0.68,1.35,1.78c-0.16,1.95-0.16,3.92-0.26,5.88c-0.03,0.49-0.17,0.98-0.26,1.46
			c-0.17,0-0.34,0.01-0.51,0.01c-0.1-0.47-0.23-0.93-0.3-1.41c-0.37-2.77-2.38-4.98-5.05-5.52c-3.31-0.67-6.54,0.47-7.96,2.81
			c-1.31,2.15-1.07,5.23,0.86,7.08c1.52,1.46,3.38,2.55,5.03,3.86c2.2,1.76,4.66,3.31,6.47,5.42c4.85,5.65,3.73,14.24-2.26,18.62
			c-3.06,2.24-6.62,2.89-10.32,2.37c-1.94-0.27-3.86-0.86-5.69-1.55c-0.61-0.23-1.32-1.22-1.33-1.88c-0.05-2.56,0.14-5.12,0.28-7.68
			c0.02-0.35,0.31-0.69,0.48-1.03C338.31,108.48,338.44,108.5,338.58,108.52z"/>
		<path id="jesse-letter-s-2" class="st20" d="M367.31,108.15c0.35,1.75,0.51,3.1,0.9,4.38c0.95,3.11,3.75,4.94,7.59,5.11
			c2.9,0.13,5.51-1.39,6.64-3.88c1.3-2.85,0.78-6.41-1.59-8.57c-1.8-1.64-3.88-2.97-5.88-4.38c-3.2-2.26-6.14-4.71-7.23-8.73
			c-1.86-6.89,2.09-13.05,9.12-14.28c3.24-0.57,6.41-0.19,9.58,0.41c0.98,0.19,1.49,0.63,1.38,1.77c-0.17,1.95-0.17,3.92-0.27,5.88
			c-0.02,0.5-0.16,0.99-0.24,1.48c-0.16,0.01-0.33,0.02-0.49,0.03c-0.11-0.4-0.28-0.8-0.33-1.21c-0.35-2.8-2.19-5.03-4.7-5.68
			c-3.18-0.82-6.47,0.18-8.1,2.47c-1.54,2.15-1.4,5.38,0.62,7.35c1.5,1.47,3.36,2.57,5.02,3.87c2.09,1.64,4.39,3.1,6.19,5.02
			c5.74,6.14,3.91,17.64-5.1,20.61c-4.65,1.54-8.97,0.97-13.28-0.9c-0.44-0.19-0.92-0.9-0.91-1.37c0.03-2.78,0.18-5.56,0.33-8.33
			C366.59,108.96,366.9,108.72,367.31,108.15z"/>
		<path id="jesse-letter-e-2" class="st20" d="M393.17,118.99c0.13-0.09,0.25-0.25,0.39-0.26c3.03-0.15,3.67-0.87,3.71-4.54
			c0.1-10.37,0.07-20.73,0.06-31.1c0-2.51-0.88-3.34-3.43-3.58c-0.54-0.05-1.07-0.26-1.53-0.71c8.42-0.55,16.79,0.07,25.32-0.63
			c-0.24,2.58-0.51,5.4-0.78,8.23c-0.21,0-0.42,0-0.63-0.01c-0.09-0.5-0.21-1-0.25-1.5c-0.14-1.68-0.98-2.86-2.66-3.02
			c-2.97-0.28-5.96-0.36-9.05-0.52c0,5.02,0,9.79,0,14.88c4.11-0.64,8.47,1.18,12.66-1.81c-0.29,3.27-0.57,6.33-0.84,9.39
			c-0.18,0-0.36,0-0.54,0c-0.08-0.28-0.21-0.55-0.23-0.83c-0.18-2.73-0.7-3.44-3.36-3.61c-2.5-0.16-5.01-0.04-7.78-0.04
			c0,0.71,0,1.61,0,2.51c0,3.44-0.02,6.88,0.01,10.31c0.02,2.85,1.16,4.11,3.99,4.3c1.68,0.11,3.38,0.13,5.06,0.02
			c2.96-0.2,3.92-1.08,4.6-3.91c0.11-0.48,0.24-0.95,0.43-1.73c0.37,0.47,0.61,0.63,0.6,0.77c-0.24,2.37-0.41,4.76-0.85,7.1
			c-0.08,0.45-1.25,0.97-1.93,0.98c-2.78,0.05-5.56-0.1-8.35-0.13c-4.2-0.04-8.41-0.03-12.61-0.05c-0.67,0-1.34-0.08-2.01-0.12
			C393.15,119.25,393.16,119.12,393.17,118.99z"/>
	</g>
	<g id="james-letters">
		<path id="james-letter-j" class="st20" d="M434.59,133.72c0.17-0.19,0.3-0.45,0.51-0.57c5.05-3.05,6.61-7.92,6.66-13.37
			c0.12-12.21,0.07-24.42,0.07-36.64c0-2.49-0.89-3.35-3.44-3.56c-0.43-0.03-0.86-0.07-1.29-0.13c-0.07-0.01-0.12-0.16-0.37-0.51
			c0.6-0.15,1.09-0.38,1.59-0.38c4.42-0.03,8.83-0.03,13.25,0c0.49,0,0.97,0.22,1.46,0.35c-0.01,0.14-0.03,0.28-0.04,0.42
			c-0.29,0.08-0.57,0.19-0.86,0.23c-2.8,0.36-3.37,0.89-3.37,3.74c-0.02,10.25-0.12,20.5,0.06,30.75
			c0.16,9.26-4.38,15.39-12.2,19.57c-0.55,0.29-1.19,0.42-1.79,0.62C434.75,134.06,434.67,133.89,434.59,133.72z"/>
		<path id="james-letter-a" class="st20" d="M489.74,118.62c-0.75-0.13-1.45-0.57-1.95-1.27c-0.91-1.27-1.79-2.62-2.36-4.06
			c-2.67-6.7-5.25-13.44-7.84-20.17c-1.77-4.61-3.5-9.23-5.31-13.82c-0.3-0.75-0.95-1.37-1.44-2.05c-0.52,0.7-1.04,1.39-1.56,2.09
			c-0.06,0.09-0.11,0.19-0.15,0.29c-2.55,6.63-5.09,13.27-7.64,19.9c-1.95,5.06-3.94,10.11-5.86,15.19
			c-0.9,2.39-2.28,4.07-5.09,4.02c-0.27-0.01-0.55,0.21-1.12,0.43c0.53,0.31,0.81,0.62,1.1,0.62c3.87,0.03,7.75,0.04,11.62-0.01
			c0.26,0,0.51-0.47,0.94-0.89c-3.87-0.42-4.27-1.01-3.15-4.42c0.83-2.52,1.77-5.02,2.77-7.48c0.17-0.43,0.9-0.88,1.39-0.89
			c3.44-0.08,6.88,0.01,10.32-0.07c1.06-0.03,1.41,0.43,1.71,1.29c0.98,2.87,2.03,5.73,3.04,8.59c0.43,1.22,1.25,2.52-1,3.39
			c0.75,0.16,1.01,0.26,1.28,0.26c3.45,0.04,6.89,0.09,10.34,0.13C489.75,119.33,489.74,118.97,489.74,118.62z M464.06,102.99
			c1.73-4.9,3.42-9.67,5.28-14.93c1.8,5.24,3.44,10.01,5.13,14.93H464.06z"/>
		<path id="james-letter-m" class="st20" d="M539.22,118.56c-2.78-0.47-3.56-1.16-3.96-3.93c-1.03-7.22-1.99-14.45-2.98-21.68
			c-0.64-4.69-1.28-9.39-1.98-14.07c-0.09-0.57-0.61-1.07-0.94-1.61c-0.46,0.4-0.99,0.74-1.35,1.21c-0.32,0.42-0.46,0.98-0.68,1.47
			c-4.28,9.74-8.56,19.47-12.96,29.47c-0.43-0.92-0.77-1.6-1.07-2.28c-4.19-9.42-8.36-18.85-12.59-28.26
			c-0.29-0.65-1.04-1.09-1.58-1.63c-0.31,0.54-0.81,1.06-0.89,1.63c-1.15,8.03-2.23,16.07-3.36,24.1
			c-0.61,4.36-1.21,8.73-1.99,13.07c-0.16,0.87-0.88,1.99-1.64,2.34c-0.26,0.12-0.52,0.18-0.78,0.22c0.01,0.35,0.01,0.71,0.01,1.06
			c3.24,0.04,6.47,0.07,9.71,0.09c0.36,0,0.73-0.31,1.1-0.47c-0.55-0.49-1.01-0.62-1.47-0.71c-2.56-0.47-2.69-0.62-2.6-3.15
			c0.02-0.49,0.06-0.98,0.12-1.47c0.51-4.49,1.02-8.98,1.53-13.48c0.28-2.48,0.58-4.95,0.92-7.86c0.46,0.98,0.74,1.55,1,2.13
			c3.39,7.52,6.77,15.04,10.2,22.55c0.41,0.9,1.05,1.69,1.58,2.53c0.21,0.01,0.42,0.01,0.62,0.02c4.44-8.99,8.13-18.33,12.52-27.64
			c0.16,0.46,0.25,0.65,0.28,0.84c0.77,6.38,1.62,12.75,2.24,19.15c0.21,2.22,1.36,4.55-0.32,6.7c2.35,0.98,12.26,1.05,13.27,0.01
			C540.47,118.81,539.85,118.67,539.22,118.56z"/>
		<path id="james-letter-e" class="st20" d="M542.21,78.53c8.31-0.17,16.63,0.34,25.16-0.24c-0.23,2.51-0.49,5.33-0.75,8.15
			c-0.22,0.01-0.43,0.01-0.65,0.02c-0.09-0.53-0.19-1.07-0.27-1.6c-0.25-1.83-1.09-2.81-2.92-2.97c-2.87-0.24-5.76-0.31-8.77-0.46
			c0,5,0,9.82,0,14.89c4.12-0.65,8.46,1.1,12.62-1.76c-0.28,3.19-0.55,6.26-0.81,9.33c-0.22,0-0.43,0-0.65,0
			c-0.06-0.53-0.12-1.07-0.17-1.6c-0.13-1.54-0.84-2.64-2.46-2.76c-2.81-0.21-5.64-0.31-8.6-0.46c0,4.91-0.07,9.58,0.04,14.25
			c0.04,1.62,1.1,2.89,2.73,3c2.58,0.18,5.2,0.14,7.79-0.04c1.58-0.11,2.42-1.33,2.81-2.81c0.2-0.75,0.39-1.5,0.59-2.25
			c0.31,0.08,0.5,0.12,0.49,0.13c-0.22,2.56-0.38,5.13-0.79,7.66c-0.06,0.36-1.35,0.76-2.07,0.75c-5.62-0.04-11.24-0.18-16.86-0.27
			c-1.36-0.02-2.73,0.07-4.09,0.08c-0.58,0-1.16-0.07-1.73-0.11c-0.02-0.14-0.04-0.29-0.06-0.43c0.52-0.13,1.03-0.29,1.55-0.38
			c1.38-0.24,2.35-0.86,2.41-2.4c0.12-3.59,0.32-7.18,0.34-10.78c0.04-7.31-0.01-14.62-0.05-21.93c-0.02-2.98-0.76-3.72-3.71-3.98
			c-0.46-0.04-0.9-0.28-1.35-0.43C542.06,78.93,542.13,78.73,542.21,78.53z"/>
		<path id="james-letter-s" class="st20" d="M594.78,87.42c-0.09-0.44-0.19-0.88-0.25-1.32c-0.36-2.8-2.34-5.03-4.98-5.58
			c-3.28-0.69-6.54,0.43-8,2.74c-1.29,2.06-1.13,5.16,0.67,6.98c1.36,1.38,3.05,2.44,4.58,3.65c2.34,1.85,4.97,3.44,6.95,5.62
			c5.53,6.11,3.67,17.38-5.24,20.37c-4.59,1.54-8.87,0.98-13.14-0.8c-0.49-0.2-1.07-0.94-1.07-1.43c0.01-2.78,0.16-5.56,0.31-8.33
			c0.01-0.26,0.31-0.5,0.79-1.21c0.21,1.33,0.35,2.19,0.49,3.05c0.88,5.38,7.29,8.36,12.01,5.59c3.74-2.2,4.49-7.93,1.25-11.21
			c-1.66-1.68-3.82-2.87-5.66-4.39c-2.01-1.65-4.23-3.19-5.79-5.21c-4.44-5.73-3.28-16.29,7.54-17.98c2.99-0.47,6.15,0.15,9.23,0.34
			c0.95,0.06,1.53,0.55,1.42,1.72c-0.18,2.01-0.17,4.03-0.27,6.05c-0.02,0.45-0.15,0.89-0.24,1.34
			C595.17,87.4,594.97,87.41,594.78,87.42z"/>
	</g>
	<g id="method-letters">
		<path id="method-letter-m" class="st0" d="M355.92,136.68c2.58,5.7,5.15,11.4,7.83,17.32c2.65-5.93,5.2-11.64,7.75-17.34
			c0.23,0.01,0.45,0.03,0.68,0.04c0.18,0.89,0.42,1.77,0.54,2.67c0.76,5.44,1.54,10.88,2.22,16.33c0.26,2.06,0.82,3.64,3.57,3.33
			c-0.09,0.16-0.19,0.31-0.28,0.47c-2.31,0-4.62,0-6.61,0c-0.52-4.81-1.02-9.45-1.52-14.1c-0.12-0.04-0.23-0.07-0.35-0.11
			c-2.19,4.82-4.37,9.65-6.56,14.47c-0.21,0.03-0.42,0.06-0.63,0.1c-2.18-4.72-4.37-9.43-6.74-14.55c-0.5,4.32-0.96,8.22-1.41,12.12
			c-0.11,0.93,0.3,1.44,1.22,1.58c0.33,0.05,0.65,0.16,0.94,0.54c-2.18,0-4.36,0-6.55,0c3.33-0.87,2.25-3.79,2.62-5.82
			c0.95-5.24,1.57-10.54,2.33-15.81c0.06-0.4,0.22-0.78,0.34-1.17C355.52,136.73,355.72,136.71,355.92,136.68z"/>
		<path id="method-letter-e" class="st0" d="M387.61,159.1c2.13,0.28,2.38-1.08,2.39-2.48c0.04-5.56,0.03-11.12,0.02-16.69
			c0-1.14-0.54-1.84-1.78-1.87c-0.29-0.01-0.58-0.14-0.86-0.22c0.01-0.14,0.01-0.27,0.02-0.41c4.49,0,8.98,0,13.61,0
			c-0.12,1.22-0.27,2.7-0.41,4.18c-1.15-4.03-4.38-1.98-6.79-2.63c0,2.7,0,5.19,0,8.02c2.21-0.14,4.41-0.28,6.75-0.43
			c-0.09,1.24-0.22,2.87-0.34,4.5c-0.87-4.05-4.06-1.98-6.45-2.62c0,2.76-0.03,5.3,0.03,7.84c0.01,0.44,0.28,0.97,0.6,1.28
			c1.78,1.75,5.94,0.67,6.71-1.71c0.07-0.2,0.17-0.4,0.63-0.55c-0.15,1.35-0.24,2.71-0.49,4.04c-0.05,0.28-0.72,0.61-1.11,0.61
			c-1.58,0-3.15-0.16-4.73-0.17c-2.12,0-4.24,0.1-6.36,0.12c-0.44,0-0.89-0.19-1.33-0.29C387.67,159.47,387.64,159.28,387.61,159.1z
			"/>
		<path id="method-letter-t" class="st0" d="M423.01,139c0,6-0.08,11.67,0.04,17.33c0.05,2.26,0.24,2.25,2.86,3.16
			c-2.96,0-5.91,0-8.87,0c2.68-0.42,2.2-2.47,2.2-4.22c0.02-5.34,0.01-10.68,0.01-16.17c-1.83,0.11-3.6,0.03-5.28,0.38
			c-0.85,0.17-1.53,1.11-2.52,1.87c0.23-1.36,0.46-2.72,0.68-4.08c6.11,0,12.13,0,18.16,0c0,1.39,0,2.88,0,4.36
			C428.81,137.91,425.6,139.7,423.01,139z"/>
		<path id="method-letter-h" class="st0" d="M454.61,137.53c2.83,0,5.66,0,8.49,0c0.02,0.08,0.04,0.16,0.07,0.24
			c-0.21,0.1-0.41,0.29-0.62,0.29c-1.35,0.01-1.62,0.86-1.62,1.96c0,5.51,0.03,11.02-0.01,16.53c-0.01,2.04,1.01,2.82,3.19,2.44
			c-0.09,0.17-0.18,0.33-0.27,0.5c-2.96,0-5.92,0-8.87,0c2.61-0.4,2.19-2.42,2.23-4.12c0.05-2.11,0.01-4.22,0.01-6.41
			c-3.6,0-7.07,0-10.63,0c0,2.79-0.04,5.55,0.02,8.31c0.03,1.11,0.63,1.83,1.89,1.75c0.32-0.02,0.64,0.13,0.92,0.51
			c-2.94,0-5.88,0-8.81,0c2.51-0.44,2.16-2.38,2.18-4.03c0.05-4.58,0.08-9.17,0.04-13.75c-0.02-3.04-0.07-3.04-3.07-4.18
			c3.26,0,6.09,0,8.92,0c-2.94,0.38-2.09,2.64-2.17,4.39c-0.07,1.68-0.01,3.36-0.01,5.19c3.37,0,6.58,0.03,9.79-0.04
			c0.33-0.01,0.92-0.6,0.93-0.93c0.07-2.13,0.01-4.25-0.02-6.38C457.17,138.07,455.67,138.18,454.61,137.53z"/>
		<path id="method-letter-o" class="st0" d="M474.25,148.49c0.01-6.82,4.66-11.41,11.53-11.4c6.89,0.01,11.17,4.25,11.16,11.05
			c-0.01,6.96-4.8,11.91-11.53,11.9C478.73,160.04,474.24,155.4,474.25,148.49z M492.98,148.86c-0.2-2.63-0.78-5.09-2.34-7.23
			c-2.79-3.82-8.41-3.96-10.87-0.27c-2.67,3.99-1.78,11.76,1.72,15.04c3.85,3.61,9.32,2.26,10.75-2.72
			C492.68,152.12,492.75,150.47,492.98,148.86z"/>
		<path id="method-letter-d" class="st0" d="M507.05,137.24c4.87,0.19,9.81-0.02,14.61,0.67c6.78,0.99,8.72,7.08,7.9,12.23
			c-1.02,6.46-5.22,9.91-11.76,9.86c-3.45-0.03-6.9-0.27-10.37-0.41c0.04-0.21,0.05-0.39,0.07-0.39c1.9,0.03,2.11-1.32,2.12-2.72
			c0.03-5.51-0.01-11.02,0.03-16.53c0.01-1.86-1.47-1.79-2.7-2.1C506.99,137.65,507.02,137.45,507.05,137.24z M513.36,147.95
			c0.01,0,0.02,0,0.03,0c0,2.56-0.01,5.12,0,7.68c0.01,1.17,0.34,2.2,1.64,2.5c2.75,0.64,5.41,0.53,7.77-1.24
			c2.78-2.08,3-5.13,2.96-8.24c-0.09-6.25-4.89-10.38-11.12-9.64c-0.97,0.12-1.31,0.45-1.29,1.42
			C513.39,142.94,513.36,145.45,513.36,147.95z"/>
	</g>
	<g id="arrows">
		<path id="arrow-right" class="st0" d="M581.98,150.03c-13.57,0-27.9,0-42.33,0c0-0.68,0-1.47,0-2.48
			C554,148.39,568.38,149.23,581.98,150.03z"/>
		<path id="arrow-left" class="st0" d="M340.89,147.63c0,0.87,0,1.62,0,2.47c-13.34,0-26.68,0-40.02,0c0-0.04,0-0.09,0-0.13
			C314.15,149.19,327.43,148.41,340.89,147.63z"/>
	</g>
</g>
<g>
</g>
<g>
</g>
<g>
</g>
<g>
</g>
<g>
</g>
<g>
</g>
</svg>
