<?xml version="1.0" encoding="utf-8"?>
<!-- Generator: Adobe Illustrator 24.3.0, SVG Export Plug-In . SVG Version: 6.00 Build 0)  -->
<svg version="1.1" id="Layer_1" xmlns="http://www.w3.org/2000/svg" xmlns:xlink="http://www.w3.org/1999/xlink" x="0px" y="0px"
	 viewBox="0 0 864 864" style="enable-background:new 0 0 864 864;" xml:space="preserve">
<style type="text/css">
	.st0{fill:#080B0B;}
	.st1{fill:#121414;}
	.st2{fill:#0E1010;}
	.st3{fill:#0C0E0E;}
	.st4{fill:#171919;}
	.st5{fill:#151717;}
	.st6{fill:#0D1010;}
	.st7{fill:#141616;}
	.st8{fill:#131515;}
	.st9{fill:#090B0B;}
	.st10{fill:#535555;}
	.st11{fill:#F7A8A0;}
	.st12{fill:#FEFDFD;}
	.st13{fill:#EFD8C6;}
	.st14{fill:#101110;}
	.st15{fill:#EFD9C6;}
	.st16{fill:#171615;}
	.st17{fill:#F8AEA6;}
	.st18{fill:#393734;}
	.st19{fill:#332D28;}
	.st20{fill:#44403B;}
	.st21{fill:#4A433D;}
	.st22{fill:#37312C;}
	.st23{fill:#3F3632;}
	.st24{fill:#544942;}
	.st25{fill:#4F4843;}
	.st26{fill:#3F3C38;}
	.st27{fill:#473E38;}
	.st28{fill:#0D0E0E;}
	.st29{fill:#F2DBC8;}
	.st30{fill:#FDFDFD;}
	.st31{fill:#111212;}
	.st32{fill:#E1DFDE;}
	.st33{fill:#858282;}
	.st34{fill:#837A70;}
	.st35{fill:#F1DBC8;}
	.st36{fill:#F7A39B;}
	.st37{fill:#F6A59D;}
	.st38{fill:#F1DAC8;}
	.st39{fill:#111110;}
	.st40{fill:#F0D9C7;}
	.st41{fill:#F5958C;}
	.st42{fill:#F59890;}
	.st43{fill:#F5988F;}
	.st44{fill:#EED8C5;}
	.st45{fill:#F29288;}
	.st46{fill:#F29A92;}
	.st47{fill:#F49B93;}
	.st48{fill:#EBD5C3;}
	.st49{fill:#F29F97;}
	.st50{fill:#EAD4C2;}
	.st51{fill:#352825;}
	.st52{fill:#BFAD9E;}
	.st53{fill:#D7C3B3;}
	.st54{fill:#242220;}
	.st55{fill:#877A70;}
	.st56{fill:#E2CDBB;}
	.st57{fill:#302927;}
	.st58{fill:#362C2B;}
	.st59{fill:#EE9D95;}
	.st60{fill:#D6C1B1;}
	.st61{fill:#746B62;}
	.st62{fill:#423D39;}
	.st63{fill:#F8ABA2;}
	.st64{fill:#CA746D;}
	.st65{fill:#131413;}
	.st66{fill:#5A5552;}
	.st67{fill:#4C4947;}
	.st68{fill:#4E4A47;}
	.st69{fill:#F9B5AE;}
	.st70{fill:#F4EBE2;}
	.st71{fill:#554B44;}
	.st72{fill:#F8B3AC;}
	.st73{fill:#F8B1A9;}
	.st74{fill:#F7ADA6;}
	.st75{fill:#F6AAA2;}
	.st76{fill:#F6B0A9;}
	.st77{fill:#4C4946;}
	.st78{fill:#F39188;}
	.st79{fill:#443B38;}
	.st80{fill:#C6B2A4;}
</style>
<g id="cow">
	<path class="st0" d="M762.97,453.92c-1.39,11.12-2.77,22.25-4.17,33.37c-0.16,1.23-0.17,2.64-0.79,3.62
		c-7.65,12.13-19.8,5.64-29.99,6.84c-6.41,0.75-11.07-2.13-12.66-9.53c-4.56-21.23-9.7-42.34-14.89-64.66
		c9.49,0,18.42,0.11,27.35-0.05c3.73-0.07,4.48,1.59,4.87,5.01c1.82,16.06,4.02,32.09,6.91,48.26c1.44-11.6,3.1-23.18,4.25-34.81
		c1.67-16.94,3.08-18.41,19.88-18.41c1.88,0,3.78,0.19,5.63-0.03c9.92-1.22,14.34,3.48,15.27,13.05
		c1.31,13.57,3.15,27.08,5.79,40.61c2.03-16.02,4.29-32.01,5.92-48.07c0.46-4.54,1.95-5.83,6.22-5.62
		c8.39,0.42,19.23-2.5,24.42,1.68c3.93,3.17-2.15,14.65-3.91,22.41c-3.1,13.63-6.43,27.21-9.22,40.9c-1.3,6.35-5.02,8.92-10.98,9.37
		c-0.31,0.02-0.62,0.06-0.94,0.07c-34.2,0.24-29.94,1.97-33.77-28.23c-0.66-5.25-1.41-10.5-2.11-15.75c-0.65-1.02-1.3-2.05-1.4-3.23
		c0,0.08-0.49-0.15-0.49-0.15s0.17,0.51,0.16,0.62C764.1,452.28,763.51,453.09,762.97,453.92z"/>
	<path class="st0" d="M692.64,437.23c-5.93-14.01-19.79-15.04-33.42-15.68c-43.92-2.08-46.98,18.96-45.06,48.44
		c1.09,16.76,10.87,26.81,27.55,28.75c4.64,0.54,9.34,0.56,12.24,0.73c14.58-0.43,28.66,0.16,36.46-12
		C700.53,471.68,699.65,453.79,692.64,437.23z M663.09,471.57c-0.7,4.52-3.38,6.49-7.65,6.59c-4.38,0.11-7.2-1.94-7.69-6.45
		c-0.44-4.03-0.66-8.08-0.97-11.98c0.32-3.59,0.63-7.01,0.94-10.42c0.43-4.58,3.32-6.56,7.57-6.64c4.33-0.08,7.06,2.15,7.74,6.51
		C664.18,456.63,664.23,464.08,663.09,471.57z"/>
	<path class="st0" d="M575.5,499.5c-3.49-0.2-8.51-0.16-13.44-0.83c-14.7-2-23.36-11.09-25.16-25.78
		c-0.99-8.08-1.08-16.11-0.09-24.21c1.83-15.03,9.71-24.45,24.56-26.31c12.98-1.63,26.16-1.6,39.11,1.64
		c5.07,1.27,6.88,3.62,6.12,9.12c-1.83,13.16-1.54,13.2-14.82,13.2c-2.5,0-5-0.01-7.5,0c-13.22,0.09-19.24,9.59-14.03,21.91
		c1.81,4.28,4.82,6.27,9.38,6.23c4.38-0.04,8.84,0.56,13.11-0.12c9.45-1.5,14.52,0.23,14.95,11.63c0.24,6.49-0.99,9.12-6.66,10.49
		c-3.03,0.73-6.02,1.77-9.1,2.1C586.99,499.09,581.98,499.16,575.5,499.5z"/>
</g>
<g id="Cow">
	<path class="st1" d="M690.21,520.23c-2.77-6.1-9.06-5.53-16.06-5.43c-8.18-2.04-11.78,1.7-10.42,11.32
		c0.69,4.87,0.09,9.91,0.14,14.88c0.02,1.8-0.54,3.87,1.12,5.22c3.9,3.17,23.16,0.11,25.15-4.36
		C693.28,534.81,693.38,527.19,690.21,520.23z M677.15,539.09c-6.13-0.54-1.15-6.13-3.26-8.73c1.63-2.72-2.29-8.14,3.57-7.8
		c5.21,0.29,3.99,5.39,4.05,8.9C681.56,534.79,682,539.51,677.15,539.09z"/>
	<path class="st2" d="M646.35,514.77c-11.22-0.02-15.2,4.25-15.12,16.21c0.08,11.66,3.86,15.83,14.46,15.96
		c11.72,0.14,15.12-3.38,15.21-15.74C660.99,518.59,657.63,514.79,646.35,514.77z M646.79,538.95c-4.96,0.55-4.5-4.04-4.45-7.34
		c0.05-3.5-1.2-8.64,3.84-8.93c4.87-0.28,3.32,4.8,3.95,7.99C649.19,533.51,651.67,538.42,646.79,538.95z"/>
	<path class="st3" d="M627.03,534.86c-3.4-4.65,3.03-5.98,2.27-9.76c-0.69-3.42-0.47-6.96-4.16-8.67
		c-6.58-3.05-13.99-2.82-20.21-0.92c-4.84,1.47-1.49,8.25-2.03,12.62c-0.47,3.7-0.39,7.52,0,11.23c0.29,2.77-2.41,7.02,3.83,7.46
		c5.65,0.41,6.09-2.3,5.82-6.58c-0.1-1.59-1.01-4.15,1.72-4.46c2.12-0.25,3.46,1.49,3.63,3.5c0.64,7.95,5.53,8.48,12.5,6.71
		C629.25,541.9,629.1,537.68,627.03,534.86z M614.6,527.92c-1.97-0.22-2.31-1.52-2.22-3.2c0.14-2.67,2.06-2.59,3.86-2.43
		c1.8,0.16,2.42,1.49,2.42,3.16C618.23,527.78,616.6,528.15,614.6,527.92z"/>
	<path class="st4" d="M723.19,527.59c-0.01,17.12-3.83,21.06-18.11,19.26c-5.96-0.75-9.2-4.1-9.73-9.58
		c-0.57-5.89-0.05-11.87-0.25-17.8c-0.13-3.96,1.99-4.5,5.28-4.58c3.63-0.09,5.07,1.27,5.04,4.86c-0.03,5.3,0.15,10.6,0.42,15.9
		c0.1,1.91,0.79,3.72,3.34,3.62c2.45-0.09,3.19-1.88,3.29-3.76c0.23-4.36,0.15-8.74,0.26-13.11c0.09-3.58-1.04-7.43,5.18-7.61
		c6.26-0.18,5.28,3.53,5.27,7.18C723.18,523.84,723.19,525.71,723.19,527.59z"/>
	<path class="st5" d="M591.11,514.81c-16.26-2.19-17.54-1.2-17.54,14.71c0,0.62,0,1.24,0.01,1.86c0,3.72,0.17,7.45-0.04,11.16
		c-0.25,4.27,2.42,4.14,5.42,4.19c3.08,0.06,5.94-0.04,5.01-4.22c-1.46-6.54,2.48-6.8,7.16-6.64c7.15,0.25,8.82-4.4,8.91-10.29
		C600.13,519.49,597.64,515.68,591.11,514.81z M586.64,528.65c-1.96,0.24-2.55-1.05-2.6-2.74c-0.03-1.87-0.09-3.73,2.65-3.6
		c1.76,0.08,2.69,0.88,2.89,2.68C589.83,527.26,588.71,528.4,586.64,528.65z"/>
	<path class="st6" d="M791.86,524.54c1.32,0.62,2.37,1.13,3.44,1.6c9.76,4.33,13.32,10.23,9.95,16.52
		c-2.04,3.82-16.76,6.18-21.88,3.72c-2.78-1.34-1.89-3.56-1.83-5.58c0.08-2.65,1.84-2.64,3.91-2.36c2.89,0.38,5.86,1.21,8.93-0.44
		c-1.85-3.65-5.64-3.9-8.47-5.42c-5.25-2.81-5.29-7.37-4.47-12.03c0.77-4.41,4.51-6.14,8.42-5.63c5.07,0.67,13.44-3.5,14.51,3.57
		C805.66,527.06,795.01,519.1,791.86,524.54z"/>
	<path class="st7" d="M753.25,521.66c-4.29-0.19-8.13,1.97-12.52,2.03c-4.68,0.06-4.09,4.52-4.13,7.94
		c-0.04,3.44,0.7,6.26,4.88,6.48c2.18,0.11,4.36,0.07,6.53,0.19c3.01,0.18,3.16,2.35,3.25,4.65c0.09,2.35-1.13,3.55-3.27,3.57
		c-6.64,0.05-13.9,2.6-19.18-3.74c-3.74-4.49-4-18.47-0.37-23.15c5.61-7.23,13.33-5.12,20.59-3.8c1.35,0.25,2.58,1.39,4.17,0.74
		C754.74,518.25,754.85,519.95,753.25,521.66z"/>
	<path class="st8" d="M753.25,521.66c-0.01-1.7-0.02-3.4-0.04-5.1c7.63-3.44,15.67-0.82,23.48-1.52c2.57-0.23,2.87,1.67,2.93,3.69
		c0.06,1.92,0.2,4.13-2.53,3.74c-7.73-1.09-6.7,4.13-6.64,8.77c0.04,2.79,0.04,5.59,0,8.38c-0.05,3.53,1.26,7.4-5.11,7.25
		c-5.83-0.14-4.48-3.67-4.56-6.81c-0.09-3.1-0.5-6.3,0.08-9.29C762.12,524.33,758.98,522.05,753.25,521.66z"/>
</g>
<g id="sad">
	<path class="st0" d="M317.18,405.09c0-12.23,0-12.23-12.2-12.23c-20.52,0-20.52,0-19.47,20.56c0.85,3.77,1.48,7.53-0.34,11.22
		c-2.92-0.95-5.78-2.34-8.77-2.78c-22.59-3.36-34.34-1.09-38.92,16.33c-3.7,14.05-3.69,28.43,0.52,42.44
		c3.93,13.06,12.27,18.2,25.98,17.94c10.1-0.19,18.3-4.2,26.28-12.39c-0.58,9.61,3.65,11.94,10.84,10.89c2.76-0.4,5.67-0.37,8.44,0
		c6.12,0.8,7.87-1.45,7.79-7.68C316.98,461.3,317.18,433.19,317.18,405.09z M278.02,473.26c-5.35,0.37-9.41-1.04-9.78-7.17
		c-0.26-4.34-0.17-8.71-0.16-13.07c0.02-6.25,0.33-11.55,9.2-11.81c10.15-0.31,7.76,6.27,7.92,11.81c0.04,1.24,0.01,2.49,0.01,3.74
		c0,2.8-0.34,5.65,0.07,8.4C286.13,470.96,283.15,472.9,278.02,473.26z"/>
	<path class="st9" d="M226.08,491.42c-0.58-15.91,0.83-31.86-0.87-47.75c-1.49-13.99-9.71-22.01-23.8-22.75
		c-15.04-0.79-30.05-0.05-44.98,2c-1.84,0.25-4.57-0.01-4.86,1.97c-0.82,5.57-0.11,11.24,1.73,16.52c1.59,4.58,5.97,2.12,9,2.22
		c8.44,0.29,16.91-0.11,25.37-0.06c3.13,0.02,5.78,1.71,5.78,4.95c-0.01,4.19-3.7,2.32-5.74,2.39c-6.88,0.25-13.8-0.19-20.67,0.19
		c-12.62,0.7-20.16,8.04-20.79,19.68c-0.86,15.91,4.88,24.54,18.07,27.21c12.55,2.54,23.54-0.32,33.98-11.03
		c0.61,7.16,2.44,11.16,9.34,10.15c3.99-0.58,8.14-0.29,12.2-0.06C224.02,497.29,226.25,496.24,226.08,491.42z M193.98,470.87
		c-0.41,6.25-6.19,4.7-8.39,6.29c-5.36,0.45-8.22-1.07-8.14-5.39c0.11-5.86,4.62-5.73,8.73-5.49
		C189.48,466.46,194.39,464.46,193.98,470.87z"/>
	<path class="st0" d="M96.45,444.11c8.28,3.83,17.22,4.73,25.67,7.21c13.1,3.84,18.24,9.8,18.54,21.21
		c0.43,16.34-6.51,24.39-23,25.26c-15.28,0.81-30.58,0.8-45.86-1.43c-5.49-0.8-6.39-3.04-4.93-7.2c1.52-4.33-3.88-12.41,6.51-12.19
		c9.07,0.19,18.15,0.1,27.22,0.01c3.03-0.03,6.31,0.8,9.56-2.32c-9.09-4.58-18.89-5.53-27.96-8.61c-9.2-3.12-16.02-8.23-17.03-18.72
		c-1.51-15.69,5.02-24.66,20.85-26.04c15.55-1.35,31.21-1.15,46.76,1.39c4.18,0.68,4.79,2.15,4.49,6.1
		c-0.99,13.11-0.78,13.09-14.13,13.14c-8.43,0.04-16.87,0.2-25.3,0.39C97.49,442.3,97.16,443.15,96.45,444.11z"/>
	<path class="st10" d="M285.51,413.43c2.51,3.63,1.42,7.6,1.04,11.5c-0.01,0.14-0.5,0.37-0.69,0.32c-0.27-0.08-0.46-0.39-0.69-0.6
		C285.28,420.9,285.39,417.16,285.51,413.43z"/>
</g>
<g>
	<path class="st0" d="M339.39,259.23c-20.68,7.52-39.89-0.57-45.05-18.98c-3.54-12.65,1.29-18.69,14.38-17.26
		c11.4,1.24,22.39-0.35,32.85-4.5c15.55-6.16,25.86-17.37,30.45-33.68c1.22-4.34,0.55-11.04,8.94-8.95c1.36,0.34,4.23-1.36,3.7-4.34
		c1.88,0,3.76,0,5.64,0c4.39,2.9,8.78,3.42,13.16,0c1.88,0,3.76,0,5.64,0c5.01,4.26,10.03,2.32,15.04,0c1.25,0,2.51,0,3.76,0
		c4.39,2.9,8.78,3.42,13.16,0c1.25,0,2.51,0,3.76,0c4.39,2.37,8.78,2.37,13.16,0c1.25,0,2.51,0,3.76,0
		c9.82,30.93,35.87,43.88,62.62,55.87c5.13,2.3,11.02,1.75,16.66,2.01c8.27,0.38,10.95,5.3,7.17,12.67
		c-10.61,20.68-38.96,25-50.53,13.92c2.22-2.52,5.06-1.85,7.81-1.44c2.46,0.37,4.91,0.9,7.4,0.79c5.14-0.23,12.89,0.97,13.29-5.08
		c0.39-5.78-7.57-4.15-12.01-5.27c-2.99-0.76-6.08-1.26-9.17-1.64c-7.38-0.91-14.14-2.76-16.34-12.54
		c-3.9,7.35,0.21,13.63-1.85,19.44c-4.32,2.58-5.47-0.73-6.62-3.68c-1.13-2.9-1.87-5.95-3.52-8.63
		c-6.45-10.46-14.57-11.35-23.4-2.55c-6.71,8.46-2.58,18.79-4.86,28.01c-0.31,12.72-9.03,22.19-13.24,33.42
		c-2.63,7.02-8.64,8.2-16.94,6.95c-16.17-2.43-20.21-13.27-22.77-26.34c-0.17-2.92-0.02-5.85-0.26-8.77
		c-0.27-1.88-0.51-3.76-0.38-5.66c0.67-5.89,1.12-11.77-0.34-17.62c-0.89-3.28-1.43-6.53-3.87-9.36
		c-9.01-10.46-15.15-9.75-21.69,2.3c-2.65,4.89-5.29,9.86-8.8,14.26c-3.83-0.2-2.4-5.73-6.14-6.02c-2-4.38,1.29-9.31-2.07-14.59
		c-2.91,10.66-10.74,11.78-19.63,11.39c-6.2-0.27-12.48-0.56-18.63,0.9c-1.77,0.42-4.12,0.37-4.73,2.41
		c-0.75,2.52,1.46,3.93,3.14,5.19c4.89,3.67,10.4,5.56,16.6,4.99c2.77-0.26,5.5-1.26,8.34-0.56
		C338.39,256.81,339.53,257.5,339.39,259.23z"/>
	<path class="st9" d="M520.27,381.67c-7.14,21.34-24.33,31.81-45.99,39.15c8.36,4.85,11.16,10.57,11.27,17.47
		c0.07,4.32,2.8,6.68,5.37,9.38c12.89,13.6,23.09,28.46,24.22,48.08c0.64,11.04-1.65,21.35-6.31,31.83
		c5.87,0.53,10.21-2.09,14.47-4.35c4.74-2.5,8.81-2.06,12.98,1.03c3.07,2.27,3.05,5.4,2.35,8.43c-1.1,4.78-5.3,5.73-9.36,6.37
		c-13.92,2.2-14.75,2.68-16.58,17.34c-1.05,8.41-5.16,14.47-11.76,19.25c-0.74,0.54-1.65,1.09-2.52,1.17
		c-7.41,0.63-14.98-2.88-22.4,1.26c-1.13,0.63-2.45-2.32-2.37-4.98c0.34-11.29,3.73-21.25,11.12-29.84c0.75-0.87,1.3-1.9,2.73-4.04
		c-45.21,0.88-89.29,2.15-133.94-8.51c4.19-0.59,7.08-1,9.99-1.42c-0.12-0.8,0.01-1.63-0.34-1.93
		c-20.48-18.07-16.86-42.85-0.86-65.61c3.97-5.65,7.15-10.35,5.79-18.33c-1.91-11.23,3.23-15.11,17.82-15.4
		c-8.42-6.19-18.4-4.16-25.67-9.17c-0.05-2.89,2.17-3.02,4.16-3.42c7.86,1.51,16,1.24,23.69,4.15c4.2,1.59,8.62,0.01,12.78-1.17
		c7.19-2.04,14.44-3.64,21.95-3.74c4.56,0.05,9.12,0.04,13.67-0.02c7.6-0.27,14.92,1.47,22.17,3.03c1.08-0.49,0.51,1.24,0.66,0
		c0.14-1.19-1.1-0.82-1.68-1.29c-18.87-4.32-37.54-5.53-56.13,1.49c-4.77,1.8-11.99,4.27-14.22-1.32c-1.92-4.82,5.13-7.79,9.38-9.88
		c22.57-11.11,45.23-9.21,67.77,0.31c11.85,7.75,11.92,7.74,27.52-4.31c9.33-5.49,16.51-13.31,23.39-21.47
		c0.79-0.44,1.63-0.69,2.54-0.73C518.86,380.61,519.64,381.01,520.27,381.67z"/>
	<path class="st11" d="M339.61,404.01c-1.89-2.31-3.77-4.62-5.66-6.93c-0.91-0.88-1.01-1.85-0.33-2.91
		c3.71-3.82,8.67-4.73,13.58-5.63c38.08-6.95,76.28-13.28,114.36-20.23c4.49-0.82,9.15-2.49,13.75-0.15
		c2.21,2.92,2.19,6.17,1.42,9.53c-2.66,6.76-9.02,7.09-14.76,8.1c-33.56,5.94-67.09,12.04-100.7,17.69
		c-4.94,0.83-9.81,1.98-14.64,3.27C343.72,407.36,341.75,405.47,339.61,404.01z"/>
	<path class="st12" d="M452.33,233.41c9.65-10.8,22.76-7.63,28.25,6.33c1.42,3.61-0.97,9.76,5.75,10.61
		c0.77-0.12,1.57-0.21,1.95,0.66c0.15,0.33-0.2,0.79-0.65,1.19c-3.79,5.98-0.14,12.52-1.42,18.69c-0.76,0.87-0.79,2.05-1.29,3.02
		c-0.95,1.56-1.99,3.01-3.96,3.34c-2.41,1.68,0.27,3.91-0.6,5.76c0.14,1.84-2.08,3.1-1.12,5.17c4.48,9.65,1.59,13.84-9.29,13.48
		c-1.5,2.71,2.37,6.73-1.2,8.4c-3.49,1.63-6.83-1.28-8.83-3.72c-4.23-5.15-12.6-8.9-7.68-18.03c7.19-1.38,10.68-6.65,8.75-12.8
		c-2.38-7.55,0.91-17.09-8.1-22.69c-4.15-2.58-1.58-7.3-0.32-11.08c0.1-2.35,4.74-3.77,1.37-6.82
		C453.27,234.53,452.75,234.03,452.33,233.41z"/>
	<path class="st13" d="M337.02,257.42c-11.74,4.38-21.89,1.95-30.51-7.09c-1.5-1.58-3.19-3.06-2.77-5.54
		c0.57-3.38,3.44-1.67,5.24-2.2c10.08-2.97,20.44-1.26,30.67-1.66c4.02-0.16,8.59,0.41,7.79-5.8c-0.54-4.14,2.33-6.2,5.1-6.48
		c3.93-0.4,2.29,4.06,3.41,6.2c1.98,3.78-0.89,7.67-0.74,11.59c0.36,0.47,0.42,0.97,0.16,1.5c-3.77,2.68-7.55,5.37-11.32,8.05
		C341.58,255.82,339.47,257.46,337.02,257.42z"/>
	<path class="st14" d="M320.56,341.86c0.18-6.62,3.29-12.1,7.86-16.38c17.97-16.85,25.55-38.28,28.36-61.95
		c3.79,0.04,3.61,3.5,4.94,5.67c1.37,4.32,3.13,8.53,4.03,13.01c0.45,3.31-0.58,6.33-1.87,9.29c-1.78,5.44-5.38,9.71-10.27,14.9
		c8.94-1.58,14.49,1.82,18.35,8.33c-1.35,3.8-5.12,3.43-7.98,4.65c-18.67,0.04-30.57,9.87-38.04,26.14
		c-0.91,1.98-1.98,3.89-4.41,4.41C318.47,347.57,319.81,344.68,320.56,341.86z"/>
	<path class="st15" d="M487.64,252.19c-0.44-0.61-0.87-1.23-1.31-1.84c-2.21-7.8-2.82-15.61-0.31-24.53
		c3.59,3.21,7.06,4.33,6.96,10.11c-0.06,3.45,5.93,4.62,10,4.81c7.43,0.35,14.59,2.06,21.78,3.77c2.71,0.64,6.08,0.82,6.38,4.19
		c0.35,3.89-2.64,6.03-5.92,7.47c-6.93,3.04-14.02,1.64-21.09,0.66c-2.15-0.3-4.31-0.56-6.46-0.84
		C494.33,254.73,490.99,253.46,487.64,252.19z"/>
	<path class="st16" d="M484.1,272.79c0.71-0.64,1.41-1.27,2.12-1.91c5.29,18.21,15.32,33.67,28.02,47.51
		c13.37,14.57,16.82,31.23,11.14,49.98c-2.74,0.16-2.99-1.99-3.59-3.83c-0.36-1.91-0.39-3.84-0.43-5.77c-0.02-3.24,0.04-6.49,0-9.73
		c0.17-6.43-3.33-11.5-6.29-16.77c-2.64-4.42-5.54-8.6-10.23-11.17c-4.38-3.02-9.17-5.04-14.36-6.28c-2.56-0.61-5.78-0.47-6.57-4.05
		c0.74-1.5,2.29-1.94,3.59-2.74c4.46-2.74,5.27-5.51,2.4-10.68C485.77,289.93,481.98,281.91,484.1,272.79z"/>
	<path class="st17" d="M324.48,377.33c-0.06-0.61-0.12-1.23-0.19-1.84c-3.05-3.15-3.05-6.96-2.36-10.91
		c5.54-5.48,14.74-3.44,19.93-9.67c6.07,5.02,5.63,12.31,6.69,19.08c-3.72,9.31-12.28,7.89-19.76,8.87
		C325.7,382.31,324.67,380.15,324.48,377.33z"/>
	<path class="st18" d="M359.89,269.1c-1.04-1.86-2.08-3.71-3.12-5.57c-1.25-5.13,1.07-10.57-1.39-15.59c-0.04-0.5-0.1-1-0.17-1.5
		c3.86,0.01,2.37,4.42,4.7,5.69C364.25,257.8,364.27,263.45,359.89,269.1z"/>
	<path class="st19" d="M320.56,341.86c0.68,2.62-0.64,5.66,1.66,7.95c0.36,0.27,0.73,0.55,1.1,0.82c1.61,4.27-0.12,8.03-1.77,11.82
		c-0.71,0.71-1.5,0.86-2.39,0.35C319.07,355.79,317.29,348.66,320.56,341.86z"/>
	<path class="st20" d="M523.42,364.16c0.65,1.4,1.3,2.8,1.96,4.2c-0.79,3.32-0.85,6.89-3.38,9.6c-1.4-0.3-2.35-1.15-2.93-2.44
		c-0.25-0.86-0.33-1.74-0.29-2.63C519.8,369.71,519.04,365.57,523.42,364.16z"/>
	<path class="st21" d="M319.16,362.8c0.68-0.03,1.35-0.06,2.03-0.09c1.32,0.05,2.09,0.53,1.57,2.01c-0.82,3.78,0.97,7.19,1.54,10.77
		C318.08,373.08,320.38,367.23,319.16,362.8z"/>
	<path class="st22" d="M363.92,417.27c-1.21,0.53-2.43,1.06-3.64,1.58c-3.69-0.94-7.2-2.26-9.87-5.14c0.31-1.39,1.19-2.29,2.47-2.84
		c0.87-0.17,1.74-0.14,2.61,0.06C358.4,412.9,363.63,411.84,363.92,417.27z"/>
	<path class="st23" d="M339.61,404.01c1.83,0.71,3.67,1.41,5.5,2.12c2.19,0.04,3.93,0.68,4.37,3.14c-0.33,1.27-1.13,2.05-2.42,2.32
		C343.79,409.83,340.61,407.99,339.61,404.01z"/>
	<path class="st24" d="M334.44,394.72c-0.16,0.79-0.32,1.58-0.48,2.37c-3.65-1.37-5.4-4.18-5.98-7.87c0.7-0.66,1.54-0.98,2.5-0.99
		C333.62,389.28,334.9,391.47,334.44,394.72z"/>
	<path class="st25" d="M324.48,377.33c1.09,1.5,2.19,2.99,3.28,4.49c0.91,0.22,1.27,0.8,1.09,1.72c-0.56,1.18-1.43,2-2.74,2.29
		C324.46,383.21,321.43,380.86,324.48,377.33z"/>
	<path class="st26" d="M337.02,257.42c2.1-1.65,4.09-3.86,7.03-1.43c-0.81,2.15-2.68,2.76-4.66,3.23
		C338.6,258.62,337.81,258.02,337.02,257.42z"/>
	<path class="st9" d="M347.05,411.6c0.58-0.6,1.16-1.2,1.74-1.79c2.32-0.99,3.32,0.23,3.83,2.28c-0.74,0.54-1.47,1.09-2.21,1.63
		C349.29,413.01,348.17,412.3,347.05,411.6z"/>
	<path class="st27" d="M326.12,385.83c0.59-0.78,1.18-1.55,1.77-2.33c2.85,1.06,4.2,2.68,2.15,5.61c-0.69,0.03-1.37,0.07-2.06,0.1
		C326.27,388.69,326.25,387.23,326.12,385.83z"/>
	<path class="st28" d="M520.34,376.04c0.55,0.64,1.11,1.28,1.66,1.92c-0.14,1.44,0.06,3.03-1.73,3.71c-0.75-0.04-1.5-0.08-2.26-0.13
		C516.44,378.72,517.51,377.01,520.34,376.04z"/>
	<path class="st29" d="M484.1,272.79c2.35,10.29,5.18,20.39,10.86,29.48c2.08,3.33,3.73,6.55-3.06,5.31
		c-2.5-0.46-3.64,4.18-6.97,2.99c-18.76,7.13-37.07,15.74-57.5,17.37c-14.96,0.38-29.71-0.65-43.8-6.23
		c-3.45-3.5-9.03-3.49-12.29-7.34c-6.35-5.56-13.21-8.81-22.26-3.44c1.93-9.19,11.62-11.59,12.82-19.62c2.26-0.17,4.37,0.2,6.1,1.79
		c0.9,1.88,1.39,4.37,4.5,3.04c7.22-3.1,8.88,0.31,7.07,8.15c5.77-4.82,9.01-9.4,10.39-15.26c1.35-4.28,2.73-8.55,5.28-12.32
		c0.8-0.64,1.6-0.61,2.4,0c1.86,5.55,3.6,11.14,5.63,16.62c1.38,3.72,3.81,6.07,8.32,5.97c2.65-0.06,5.29,0.13,8.05,1.5
		c7.8,3.87,13.11,1.72,14.96-7.04c1.48-6.99,4.03-12.82,8.72-18.05c3.03-3.37-0.19-8.73,3.39-12.11c0.34,0.34,0.68,0.69,1.02,1.02
		c0.93,8.44,4.32,16.44,4.63,25c1.48,9.07,5.05,13.43,15.89,19.39c1.15-2.47-1.08-4.01-1.66-5.95c-0.54-1.8-1.63-3.6,0.25-5.07
		c1.37-1.07,2.96,0.16,4.38,0.16c2.18,0.01,5.06,5.73,6.58-0.47c0.9-3.67,6.04-9.21-3.75-8.43c1.08-3.29,4.99-3.9,4.78-7.26
		c2.14-1.24,0.26-4.11,2.22-5.42C482.09,275.3,483.09,274.05,484.1,272.79z"/>
	<path class="st30" d="M392,289.09c-1.61,9.15-6.67,15.38-15.53,18.98c-1.57-4.5,3.36-7.13,2-11.06c-4.56-1.36-7.64,5.21-11.85,2.43
		c-1.99-1.31,0.42-3.95,1.04-5.94c2.81-4.95-3.36-7.2-3.42-11.29c-2.41-4.05-3.68-8.48-4.36-13.11c0.01-5.66,0.01-11.31,0.02-16.97
		c0.26-8.32,7.64-13.27,9.96-20.9c1.27-4.17,7.92-7.11,12.79-4.7c7.14,3.54,13.94,8.32,13.6,17.95c1.15,4.02,0.65,7.58-2.85,10.32
		c-5.58,0.4-10.12,1.67-7.91,8.98c1.23,4.07-4.64,4.38-4.36,8.59C381.64,280.23,383.9,286.4,392,289.09z"/>
	<path class="st31" d="M392,289.09c-6.2,2.68-9.53-0.47-10.96-5.97c-1.36-5.23-5.3-11.1,1.34-15.57c2.46-1.66,3.01-3.63,0.9-5.03
		c-4.34-2.87-1.4-5.33,0.1-7.59c2.39-3.63,5.6-3,8.76-0.84c4.18,1.99,4.37,5.57,3.77,9.46c0.61,1.28,1.22,2.57,1.83,3.85
		c-2.13,2.82,0.25,6.43-1.63,9.3C395.95,281.23,393.49,285,392,289.09z"/>
	<path class="st32" d="M452.33,233.41c0.71,0.04,1.42,0.08,2.12,0.12c1.86,2.62,0.2,4.81-0.88,7.07c-0.84,4.66-2.69,9-1.6,14.14
		c0.72,3.4,0.19,8.09-5.35,8.62c0,0,0.11,0.22,0.11,0.22c0.16-7.36-0.03-14.75,0.63-22.07C447.64,238.44,448.3,234.64,452.33,233.41
		z"/>
	<path class="st33" d="M395.92,263.55c-1.26-3.15-2.51-6.3-3.77-9.46c2.88-2.56,3.9-5.91,4.1-9.61
		C398.84,250.89,398.3,257.23,395.92,263.55z"/>
	<path class="st34" d="M396.11,276.7c0.12-3.17-1.23-6.6,1.63-9.3c-0.03,3.1-0.06,6.2-0.09,9.3c0,0-0.77-0.21-0.77-0.21
		L396.11,276.7z"/>
	<path class="st35" d="M401.32,441.71c-5.06-5.3-2.63-11.45,6.76-14.32c7.95-2.43,15.78-5.54,24.64-4.73
		c7.73,0.71,13.31,2.93,15.5,10.89c0.38,1.39,1.57,2.57,2.59,4.16c3.2-2.89,5.89-5.91,9.14-8.08c2.62-1.76,5.92-4.58,9.18-1.4
		c3.33,3.24,3.69,8.31,0.52,10.9c-7.6,6.24-4.35,14.35-4.88,21.65c-0.51,6.98-3.49,9.48-10.13,6.45c-2.79-1.28-5.27-3.22-7.9-4.85
		c-1.64,0-2.95-0.7-4.03-1.89c-2.49-0.7-4.16-5.48-6.63-3.2c-3.53,3.26-4.31,8.44-5.31,13.22c-1.17,5.59,5.01,3.49,6.34,6.36
		c-1.94,3.09,1.24,6.38-0.35,9.48c-1.11,1.97-2.06,4.13-4.71,4.5c-1.73-0.94-2.13-2.65-2.59-4.34c-0.51-2.4-1.42-4.63-2.94-6.59
		c-0.77-0.97-1.47-1.99-2.09-3.06c-2.74-7.42-5.56-14.79-11.29-20.57C408.5,452,403.54,447.96,401.32,441.71z"/>
	<path class="st36" d="M363.92,417.27c-3.17-1.77-6.35-3.53-9.52-5.3c0.1-5.69,4.75-5.92,8.51-6.58c48-8.44,95.95-17.13,144-25.22
		c3.35-0.56,6.85-1.39,9.68,1.56c-5.44,9.93-13.34,17.28-23.43,22.36c-9,2.92-18.64,2.75-27.65,5.66
		c-12.78-5.35-25.97-7.76-39.97-7.73c-14.76,0.03-26.96,5.03-38.62,14.64c6.34,0.63,11.22-0.25,16.64-2.14
		c11.18-3.9,22.73-6.17,35.08-3.45c7.62,1.68,16.14-0.84,23.1,4.65c1.39,1.68,1.61,3.36,0.01,5.04c-8.17-1.32-16.35-2.64-24.52-3.96
		c-4.97-0.84-9.93-0.85-14.9,0c-3.64,0.75-7.43,1.08-10.89,2.33C395.3,424.96,379.66,420.39,363.92,417.27z"/>
	<path class="st37" d="M516.6,381.73c-23.86,4-47.73,7.94-71.58,12.01c-27.22,4.65-54.42,9.47-81.65,14.05
		c-3.5,0.59-6.76,1.08-8.97,4.17c0,0-0.9-0.04-0.9-0.04s-0.88,0.15-0.88,0.15c-1.28-0.76-2.55-1.52-3.83-2.28
		c-1.23-1.22-2.45-2.45-3.68-3.67c8.21-6.96,18.79-5.5,28.26-7.33c30.07-5.81,60.39-10.39,90.53-15.9c3.83-0.7,9.18-0.06,11.18-5.33
		c6.33-0.27,12.18-2.67,18.28-4.02c5.8-0.2,11.47-1.48,17.22-1.88c3.32-0.23,6.75-0.32,9.36,2.42c0.13,0.65,0.27,1.3,0.4,1.94
		c-0.78,1.83-1.55,3.67-2.33,5.5C517.55,381.63,517.07,381.69,516.6,381.73z"/>
	<path class="st38" d="M499.55,489.94c5.25,4.74,13.07,7.78,11.18,17.2c-0.35,1.73,0.32,4.08-2.51,3.85
		c-7.87-0.65-10.67,4.63-13.23,10.59c-1.45,3.38-4.48,4.91-8.28,5.18c-1.47-4.68,2.4-8.93,1.22-13.57c-3-4.67-2.69-10.16-3.75-15.31
		c1.23-4.65-3.25-7.72-3.46-12.21c5.33-2.18,10.08-0.57,14.74,1.82C497.51,487.17,498.59,488.45,499.55,489.94z"/>
	<path class="st39" d="M415.26,454.98c4.99,6.77,9.83,13.61,10.87,22.29c-6.01,5.19-10.97,10.22-20.98,6.23
		c-6.87-2.74-10.27,5.94-13.14,11.75c-0.67,1.52-1.45,2.98-2.53,4.25c-0.56,0.55-1.24,0.89-2.01,1.02c-1.5-0.82-3.36,0.41-4.82-0.77
		c-0.45,0.02-0.91,0.03-1.36,0.03c-3.39-5.03-0.04-9.41,1.33-13.99c0.55-1.15,1.21-2.25,1.88-3.34c1.48-2.44,3.11-4.77,5.51-6.43
		c0.13-0.92,0.26-1.84,0.39-2.76c6.74-1.87,11.32-7.7,17.9-9.78c0.86-0.08,1.35,1.23,2.4,0.73c-0.5-0.35-0.78-0.87-0.85-1.58
		C410.07,458.95,412.02,456.51,415.26,454.98z"/>
	<path class="st40" d="M415.26,454.98c1.44,4.23-5.73,4.73-3.97,9.1c-0.73,0.96-1.54,1.03-2.42,0.2c-6.1,3.12-9.81,11.1-18.46,9
		c-0.76-2.29-1.2-4.75-2.33-6.84c-3.99-7.4-4.35-12.88,5.65-15.62c3.75-1.03,7.62-3.95,7.6-9.09
		C405.97,446.14,410.61,450.56,415.26,454.98z"/>
	<path class="st41" d="M473.1,486.62c3.24,3.8,6.1,7.78,5.77,13.14c-11.16,6.74-23.47,7.94-36.13,7.53
		c-4.1-3.26-4.47-7.69-3.93-12.41c-0.72-1.78,0.02-3.33,1.58-3.76C451.08,488.15,461.6,483.79,473.1,486.62z"/>
	<path class="st13" d="M384.02,485.14c-0.91,4.88-1.82,9.76-2.73,14.64c-1.22,7.96-0.52,15.89,0.44,23.79
		c-0.75,0-1.42,0.18-1.93-0.03c-21.13-8.5-22.94-17.92-6.41-33.11C375.79,486.39,379.04,484.04,384.02,485.14z"/>
	<path class="st42" d="M442.74,507.3c12.04-2.51,24.09-5.02,36.13-7.53c0.42,4.39,3.71,8.83-0.24,13.14
		c-10.27,5.58-21.31,6.93-32.78,5.96C443.07,515.47,441.12,511.86,442.74,507.3z"/>
	<path class="st43" d="M392.19,520.4c-2.52-2.62-3.07-6.09-4.06-9.37c-0.43-1.1-0.21-2.05,0.66-2.86
		c13.5-4.47,27.12-8.15,41.59-6.59c1.6,2.63,1.77,5.2-0.3,7.68c-0.65,1.35-1.3,2.69-1.95,4.04
		C417.04,520.13,404.77,521.05,392.19,520.4z"/>
	<path class="st44" d="M495.56,484.97c-3.3-2.57-7.46-4.62-11.17-3.55c-7.07,2.05-11.07-1.53-13.57-6.6
		c-2.57-5.21,4.27-6.47,6.02-10.07c0.49-1.01,1.79-1.62,2.84-2.52c4.29,4.83,9.11,8.67,15.08,10.89c5.91,2.19,7.94,7.66,10.22,12.67
		c2.02,4.45-1.81,2.33-3.46,2.56C499.2,487.81,496.89,487.24,495.56,484.97z"/>
	<path class="st45" d="M473.1,486.62c-9.91,1.9-19.81,3.85-29.74,5.65c-1.93,0.35-3.57,0.81-4.55,2.62
		c-0.61-1.48-1.23-2.97-1.84-4.45c-1.38-3.59-1.19-6.86,1.96-9.53c2.9-4.39,5.92-1.55,8.74,0c3.84,2.11,7.35,2.37,9.28-2.11
		c3.24-7.5,6.71-5.8,10.47-0.64C469.42,480.91,471.21,483.8,473.1,486.62z"/>
	<path class="st46" d="M392.19,520.4c11.98-2.37,23.96-4.74,35.94-7.1c-3.35,11.27-8.29,16.03-19.23,16
		C402.34,529.27,394.01,530.28,392.19,520.4z"/>
	<path class="st47" d="M445.85,518.86c10.65-3.49,21.8-4.29,32.78-5.96c-1.12,8.14-5.61,13.58-13.64,15.26
		C456.46,529.95,449.98,526.56,445.85,518.86z"/>
	<path class="st48" d="M390.01,476.03c0.29,3.01-2.46,4.46-3.49,6.8c-5.23,1.63-10.02,4.49-15.48,5.48
		c-2.44-0.66-4.27,2.72-7.87,0.62c7.55-5.81,12.51-12.99,14.06-22.68C381.85,469.78,385.93,472.91,390.01,476.03z"/>
	<path class="st49" d="M465.52,409.75c8.07-7.44,18.05-5.66,27.65-5.66c-1.97,3.3-5.6,4.54-8.44,6.78
		C478.03,416.16,471.52,417,465.52,409.75z"/>
	<path class="st50" d="M435.18,501.85c0.03,7.9,2.68,15.3,4.63,22.79c0.83,3.2,1.9,5.26-2.59,5.66c-3.8,0.34-6.1-0.52-5.64-4.97
		c0.29-2.79,0.16-5.62,0.21-8.43c2.74-4.72-1.63-9.86,0.84-14.6C433.33,501.32,434.18,501.17,435.18,501.85z"/>
	<path class="st51" d="M433.76,501.85c-0.61,5.02,0.31,10.25-1.97,15.05c-0.8-2.5,0.68-5.5-1.71-7.64c-0.2-2.53-0.4-5.07-0.6-7.6
		c-1.24-1.61-1.87-3.44-1.99-5.46c-0.13-2.46-0.13-4.91,0.22-7.36c0.56-1.86,0.83-4,3.54-3.95c0.26,1.7,0.53,3.4,0.79,5.11
		C433.78,493.78,435.3,497.59,433.76,501.85z"/>
	<path class="st52" d="M484.18,497.87c5.58,4.05,3.2,10.03,3.75,15.31C480.89,509.48,482.28,503.74,484.18,497.87z"/>
	<path class="st53" d="M514.65,533.81c5.29-4.62,9.78-4.9,15.39-3.41C525.76,534.8,521.35,535.6,514.65,533.81z"/>
	<path class="st54" d="M371.04,488.31c4.34-4.12,9.72-5.32,15.48-5.48c-0.83,0.77-1.66,1.55-2.49,2.32
		c-3.54,1.76-7.09,3.53-10.63,5.29C372.61,489.73,371.82,489.02,371.04,488.31z"/>
	<path class="st55" d="M433.76,501.85c-0.57-3.95-1.15-7.9-1.72-11.85c0.97-1.24,1.93-2.47,2.9-3.71c1.84,1.09,1.43,2.61,0.79,4.18
		c-0.19,3.79-0.37,7.59-0.56,11.38c0,0-0.71-0.11-0.71-0.11L433.76,501.85z"/>
	<path class="st56" d="M494.07,529.33c1.77-3.04,3.03-5.39,5.89-4.75c1.72,0.39,1.76,2.72,1.19,3.84
		C499.59,531.44,496.95,529.32,494.07,529.33z"/>
	<path class="st57" d="M435.74,490.47c-0.26-1.39-0.53-2.78-0.79-4.18c0.84-3.11-0.63-6.76,2.18-9.42c0.6,1.35,1.21,2.69,1.81,4.04
		c-0.65,3.18-1.31,6.35-1.96,9.53C436.56,490.44,436.15,490.45,435.74,490.47z"/>
	<path class="st58" d="M388.74,509.16c-0.2,0.62-0.41,1.25-0.61,1.87c-2.4-1.28-3.67-3.19-3.3-5.99c0.74-1.73-0.39-4.09,1.83-5.31
		c0.48,0.01,0.97,0.01,1.45,0.01C391.27,502.69,390.88,505.87,388.74,509.16z"/>
	<path class="st59" d="M422.33,416.8c4.97-2.36,9.93-2.36,14.9,0C432.26,416.8,427.3,416.8,422.33,416.8z"/>
	<path class="st60" d="M442.73,460.49c1.68-0.08,3.22,0.13,4.03,1.89c-1.69,1.24-2.01,5.33-4.97,3.53
		C439.49,464.51,442.05,462.29,442.73,460.49z"/>
	<path class="st61" d="M386.66,499.74c-0.25,1.9,0.55,4.15-1.83,5.31c-1.28-1.54-2.53-3.09-2.18-5.3
		C383.99,499.83,385.32,497.97,386.66,499.74z"/>
	<path class="st62" d="M495.56,484.97c2.38,0.44,4.52,1.31,5.96,3.39c-0.66,0.53-1.31,1.05-1.97,1.58
		c-1.36-0.82-2.72-1.64-4.09-2.46C495.5,486.64,495.53,485.8,495.56,484.97z"/>
	<path class="st59" d="M461.75,420.76c0-1.68,0-3.36-0.01-5.04c2.44,0.25,4.05,1.72,3.71,4.01
		C465.18,421.52,463.17,420.96,461.75,420.76z"/>
	<path class="st63" d="M330.03,389.11c-0.72-1.87-1.44-3.74-2.15-5.61c0.05-0.56,0.01-1.12-0.12-1.68
		c5.93-3.99,15.33,0.35,19.44-8.03c0.3-0.05,0.74-0.27,0.9-0.14c6.59,5.35,12.56,3.82,18.21-1.62
		c33.76-6.67,67.73-12.12,101.58-18.19c3.09-0.55,6.22-0.99,9.07,0.96c2.78,5.13,1.47,9.59-2.26,13.65
		c-27.98,5.02-56,9.81-83.92,15.12c-18.81,3.57-37.98,5.32-56.35,11.13C332.97,392.85,331.5,390.98,330.03,389.11z"/>
	<path class="st64" d="M474.7,368.47c0.66-4.38,1.32-8.75,1.97-13.13c-1.53-8.33,4.04-13.37,8.74-18.83
		c3.18-2.33,6.61-2.41,10.2-1.11c5.89,3.6,7.99,9.09,7.86,15.69c-0.42,3.85-1.53,7.55-2.54,11.28c-2.25,5.11-4.4,10.31-9.44,13.49
		c-5.28,2.46-10.36,6.75-16.42,1.73C474.95,374.54,474.83,371.5,474.7,368.47z"/>
	<path class="st65" d="M446.62,263.36c6.87-6.78,2.03-16.62,6.32-24.07c1.48,0.03,2.59,0.34,1.66,2.19
		c-1.61,5.15-5.25,10.93,4.27,12.38c0.95,0.14,2.52,1.92,2.37,2.63c-2,9.27,6.1,18,1.12,27.56c-2.34,4.5-4.7,7.17-9.99,5.56
		C446.4,281.74,446.93,272.46,446.62,263.36z"/>
	<path class="st66" d="M481.08,276.56c-1,1.7,4.86,6.2-2.22,5.42c-0.53-1.73-1.08-3.46-1.6-5.2c-0.42-1.44-1.01-3.51,0.7-3.89
		C480.4,272.36,480.43,274.97,481.08,276.56z"/>
	<path class="st67" d="M454.6,241.48c-0.55-0.73-1.11-1.46-1.66-2.19c0.5-1.92,1.01-3.84,1.51-5.76c1.71,0.14,3.43,0.28,5.85,0.48
		C458.15,236.83,456.38,239.15,454.6,241.48z"/>
	<path class="st68" d="M474.44,261.81c2.88,2.32,4.49,5.03,2.98,9.55C473.63,268.46,475.52,264.68,474.44,261.81z"/>
	<path class="st69" d="M382.65,319.61c14.85,3.65,29.76,6.83,45.21,5.82c-0.19,4.05-3.57,3.61-6.11,4.2
		c-22.7,5.2-45.71,8.8-68.59,13.06c-4.13,0.31-7.02,2.9-9.95,5.42c-6.51,4.02-13.15,6.26-20.3,1.5c0,0-0.7,0.21-0.7,0.21
		c6.13-21.68,19.73-32.29,41.67-32.5C370.33,316.56,376.81,315.54,382.65,319.61z"/>
	<path class="st70" d="M364.25,282.21c1.13,1.42,1.99,3.63,3.43,4.12c7.66,2.59,2.61,4.81-0.02,7.16c-2.17-0.08-4.45,0.15-5.75-2.19
		C362.69,288.27,363.47,285.24,364.25,282.21z"/>
	<path class="st71" d="M382.65,319.61c-6.25-0.77-12.51-1.54-18.76-2.3c1.65-3.08,5.73-0.05,7.45-2.95
		C375.05,316.24,380.96,313.42,382.65,319.61z"/>
	<path class="st72" d="M350.66,340.42c21.43-4.89,43.64-5.96,64.65-12.96c4.04-1.34,8.81,1.44,12.55-2.03
		c12.48-0.97,24.13-5.03,35.73-9.39c6.89-2.59,13.54-6.32,21.34-5.47c7.23,3.36,16.29,2.55,21.95,9.51
		c1.23,7.22-4.69,6.87-8.77,7.75c-14.93,3.23-30.03,5.58-45.08,8.09c-30.42,5.06-60.61,11.45-91.17,15.67
		C356.3,349.7,352.26,346.28,350.66,340.42z"/>
	<path class="st73" d="M359.98,349.79c44.49-8.03,88.98-16.03,133.46-24.12c4.84-0.88,11.14,1.43,13.46-5.59
		c4.37,2.57,7.33,6.37,9.53,10.84c-5.76,6.2-12.88,7.48-20.83,5.69c-3.26,0.23-6.81-1.03-9.59,1.78
		c-37.95,7.43-76.13,13.59-114.23,20.12c-3.43,0.59-6.85,0.83-9.85-1.53C359.88,354.96,358.3,352.81,359.98,349.79z"/>
	<path class="st74" d="M495.59,336.6c6.94-1.9,13.89-3.79,20.83-5.69c4.34,4.82,6.96,10.35,7.11,16.92
		c-7.01,3.58-14.18,6.25-22.22,3.75C501.62,345.75,499.18,340.96,495.59,336.6z"/>
	<path class="st11" d="M491.5,375.84c2.56-4.37,5.11-8.74,7.67-13.11c7.76-2.99,16.14-1.78,24.09-3.53
		c0.06,1.65,0.11,3.31,0.17,4.96c-2.75,2.76-0.28,7.33-3.48,9.93C510.46,374.68,500.98,375.26,491.5,375.84z"/>
	<path class="st75" d="M523.26,359.21c-7.28,6.25-15.81,4.01-24.09,3.53c0.71-3.72,1.43-7.43,2.15-11.15
		c7.36-1.54,14.57-3.95,22.22-3.75C523.44,351.63,523.35,355.42,523.26,359.21z"/>
	<path class="st64" d="M359.98,349.79c0.78,1.87,1.57,3.74,2.35,5.62c4.31,5.88,6.19,11.99,1.77,18.69
		c-5.81,9.75-5.81,9.75-16.9-0.3c-1.88-6.25-3.76-12.5-5.63-18.76c-3.6-3.6,0.28-6.09,1.35-9c1.7-3.09,3.95-5.42,7.75-5.62
		C354.46,342.86,357.46,346.08,359.98,349.79z"/>
	<path class="st76" d="M342.91,346.04c-0.45,3-0.9,6.01-1.35,9.01c0.67,5.51-3.62,6.34-7.32,7.37c-3.75,1.04-7.65,1.56-11.49,2.31
		c-0.52-0.67-1.05-1.34-1.57-2.01c0.58-4.37,1.15-8.74,1.73-13.11C329.84,349.87,336.84,350.55,342.91,346.04z"/>
	<path class="st77" d="M385.13,237.55c8.71-0.84,7.34,5.19,7.01,10.45C389.88,244.63,387.62,241.26,385.13,237.55z"/>
	<path class="st78" d="M429.55,489.07c-0.05,2.29-0.09,4.58-0.14,6.87c-6.19-2.93-12.41-2.04-18.93-0.96
		c-6.75,1.11-13.6,4.87-20.63,0.88c1.32-6.75,4.88-11.88,11.05-15.09c1.62-0.84,3.98-2.61,5.06-1.14
		c6.18,8.43,10.68,1.74,15.73-1.27c1.25-0.74,2.94-0.75,4.43-1.1c0.6,0.5,1.2,1,1.8,1.5C430.11,481.95,428.04,485.79,429.55,489.07z
		"/>
	<path class="st79" d="M429.55,489.07c-1.91-3.22-1.79-6.76-1.61-10.3c2.72,1.17,2.44,3.96,3.32,6.12
		C430.69,486.28,430.12,487.68,429.55,489.07z"/>
	<path class="st41" d="M389.85,495.87c9.29-1.65,18.61-3.12,27.84-5c5.32-1.08,9.66-0.87,11.72,5.08c0.03,1.9,0.05,3.81,0.08,5.71
		c-13.58,2.5-27.16,5-40.74,7.51c-0.21-3.14-0.42-6.28-0.63-9.42C388.69,498.45,389.27,497.16,389.85,495.87z"/>
	<path class="st80" d="M408.86,464.28c0.81-0.07,1.62-0.13,2.42-0.2c2.08,0.67,4.71,2.65,2.8,4.01
		C411.02,470.28,410.55,465.79,408.86,464.28z"/>
	<path class="st17" d="M364.1,374.1c-0.06-6.28,0.03-12.58-1.77-18.69c9.7,3.29,18.9-1.12,28.08-2.56
		c29.3-4.58,58.4-10.39,87.56-15.84c2.99-0.56,5.52,0.01,8.04,1.38c-3.92,5.2-7.21,10.76-9.32,16.95
		c-23.78,4.07-47.53,8.34-71.36,12.13C391.57,369.65,378.1,373.51,364.1,374.1z"/>
</g>
<g>
</g>
<g>
</g>
<g>
</g>
<g>
</g>
<g>
</g>
<g>
</g>
</svg>
