<?xml version="1.0" encoding="utf-8"?>
<!-- Generator: Adobe Illustrator 24.3.0, SVG Export Plug-In . SVG Version: 6.00 Build 0)  -->
<svg version="1.1" id="Layer_1" xmlns="http://www.w3.org/2000/svg" xmlns:xlink="http://www.w3.org/1999/xlink" x="0px" y="0px"
	 viewBox="0 0 864 864" style="enable-background:new 0 0 864 864;" xml:space="preserve">
<style type="text/css">
	.st0{fill:none;stroke:#000000;stroke-width:3;stroke-miterlimit:10;}
	.st1{fill:none;stroke:#000000;stroke-width:7;stroke-miterlimit:10;}
</style>
<g id="logo.circles">
	<circle class="st0" cx="86.89" cy="364.5" r="51.21"/>
	<circle class="st1" cx="130.85" cy="390.05" r="51.21"/>
	<circle class="st0" cx="86.1" cy="415.9" r="51.21"/>
	<circle class="st0" cx="130.45" cy="441.84" r="51.21"/>
	<circle class="st0" cx="175.68" cy="415.29" r="51.21"/>
	<circle class="st0" cx="175.29" cy="364.26" r="51.21"/>
	<circle class="st0" cx="130.39" cy="339.87" r="51.21"/>
</g>
<g>
	<path d="M283.22,356.68l-7.74,3.03c-1.1-3.6-3.12-5.4-6.06-5.4c-1.37,0-2.46,0.4-3.26,1.2c-0.8,0.8-1.2,1.73-1.2,2.79
		c0,1.23,0.47,2.22,1.42,2.95c0.95,0.73,2.93,1.7,5.95,2.89c2.75,1.04,4.91,2.08,6.48,3.1c1.57,1.02,2.84,2.41,3.81,4.17
		c0.97,1.76,1.45,3.8,1.45,6.12c0,4.07-1.37,7.4-4.1,10.01c-2.74,2.61-6.4,3.91-11,3.91c-7.72,0-12.65-3.99-14.79-11.98l8.18-2.4
		c1,4.39,3.28,6.58,6.84,6.58c1.62,0,2.94-0.43,3.95-1.29c1.01-0.86,1.51-2,1.51-3.4c0-1.06-0.35-2.02-1.06-2.86
		c-0.71-0.84-2.33-1.73-4.87-2.67c-3.27-1.19-5.7-2.27-7.3-3.24c-1.6-0.97-2.92-2.35-3.96-4.15c-1.04-1.8-1.56-3.85-1.56-6.15
		c0-3.92,1.23-7.13,3.7-9.63c2.47-2.5,5.73-3.75,9.79-3.75C276.77,346.52,281.39,349.9,283.22,356.68z"/>
	<path d="M325.57,368.97c0,14.99-5.15,22.48-15.45,22.48c-5.12,0-8.98-1.91-11.58-5.73c-2.6-3.82-3.9-9.4-3.9-16.75
		c0-14.97,5.15-22.45,15.45-22.45c5.04,0,8.87,1.87,11.52,5.62C324.24,355.89,325.57,361.5,325.57,368.97z M315.7,368.97
		c0-5.88-0.45-9.79-1.34-11.74c-0.9-1.95-2.32-2.92-4.28-2.92c-1.94,0-3.35,0.98-4.25,2.94c-0.9,1.96-1.34,5.87-1.34,11.72
		c0,5.75,0.44,9.63,1.33,11.66c0.88,2.02,2.3,3.03,4.26,3.03c1.94,0,3.36-0.97,4.26-2.91C315.25,378.82,315.7,374.89,315.7,368.97z"
		/>
	<path d="M338.42,347.19h9.36v24.91c0,3.51,0.16,5.96,0.47,7.35c0.31,1.38,0.96,2.43,1.95,3.15c0.99,0.71,2.2,1.07,3.64,1.07
		c1.56,0,2.8-0.39,3.71-1.18c0.92-0.79,1.48-1.83,1.69-3.13c0.21-1.3,0.31-3.71,0.31-7.25v-24.91h7.83v24.53
		c0,4.9-0.28,8.55-0.83,10.95c-0.55,2.41-1.96,4.47-4.21,6.2c-2.26,1.72-5.36,2.59-9.32,2.59c-3.7,0-6.62-0.63-8.74-1.9
		s-3.63-3.04-4.53-5.33c-0.9-2.29-1.34-6.33-1.34-12.12V347.19z"/>
	<path d="M381.77,347.19h13.39c2.6,0,4.59,0.12,5.98,0.37c1.38,0.25,2.78,0.91,4.2,1.98c1.41,1.08,2.52,2.54,3.32,4.41
		c0.8,1.86,1.2,3.96,1.2,6.28c0,5.45-2,9.28-5.99,11.5l7.83,19.07h-10.19l-5.7-17.25h-4.68v17.25h-9.36V347.19z M391.13,354.25
		v12.23h4.12c3.66,0,5.49-2.1,5.49-6.29c0-1.45-0.27-2.63-0.81-3.56c-0.54-0.93-1.17-1.55-1.89-1.88c-0.72-0.33-1.77-0.5-3.17-0.5
		H391.13z"/>
	<path d="M443.4,374.91l8.65,0.54c-0.31,4.73-1.78,8.57-4.4,11.54c-2.62,2.97-6.09,4.45-10.39,4.45c-5.24,0-9.24-1.99-11.99-5.97
		c-2.75-3.98-4.12-9.46-4.12-16.45c0-7.05,1.36-12.56,4.09-16.54c2.73-3.98,6.77-5.97,12.14-5.97c8.89,0,13.72,5.62,14.51,16.86
		l-8.55,0.64c-0.23-6.47-2.21-9.71-5.93-9.71c-1.96,0-3.51,1.04-4.67,3.13c-1.16,2.09-1.73,6.13-1.73,12.14
		c0,5.37,0.53,9.05,1.59,11.07c1.06,2.01,2.65,3.02,4.78,3.02C440.79,383.66,442.8,380.74,443.4,374.91z"/>
	<path d="M463.87,347.19h25.91v7.47h-16.54v10.12h12.86v7.47h-12.86v10.73h16.54v7.79h-25.91V347.19z"/>
	<path d="M548.35,368.97c0,14.99-5.15,22.48-15.45,22.48c-5.12,0-8.98-1.91-11.58-5.73c-2.6-3.82-3.9-9.4-3.9-16.75
		c0-14.97,5.15-22.45,15.45-22.45c5.04,0,8.88,1.87,11.52,5.62C547.03,355.89,548.35,361.5,548.35,368.97z M538.49,368.97
		c0-5.88-0.45-9.79-1.34-11.74c-0.89-1.95-2.32-2.92-4.28-2.92c-1.93,0-3.35,0.98-4.25,2.94c-0.89,1.96-1.34,5.87-1.34,11.72
		c0,5.75,0.44,9.63,1.33,11.66c0.88,2.02,2.3,3.03,4.26,3.03c1.94,0,3.36-0.97,4.26-2.91C538.03,378.82,538.49,374.89,538.49,368.97
		z"/>
	<path d="M561.2,347.19h25.28v7.47h-15.92v11.4h12.27v7.47h-12.27v17.25h-9.36V347.19z"/>
	<path d="M614.09,347.19h9.36v17.6h10.24v-17.6h9.36v43.59h-9.36v-17.82h-10.24v17.82h-9.36V347.19z"/>
	<path d="M657.44,347.19h25.91v7.47H666.8v10.12h12.86v7.47H666.8v10.73h16.54v7.79h-25.91V347.19z"/>
	<path d="M701.79,347.19h9.43l12.17,43.59h-9.58l-2.13-9.01h-12l-2.09,9.01h-8.6L701.79,347.19z M709.92,374.3l-4.31-17.86
		l-4.13,17.86H709.92z"/>
	<path d="M733.27,347.19h9.36v35.42h13.73v8.18h-23.1V347.19z"/>
	<path d="M760.64,347.19h26.56v8.18h-8.71v35.42h-9.36v-35.42h-8.49V347.19z"/>
	<path d="M796.78,347.19h9.36v17.6h10.24v-17.6h9.36v43.59h-9.36v-17.82h-10.24v17.82h-9.36V347.19z"/>
</g>
<g>
	<path d="M256.86,407.45h4.8l10.95,17.23l3.29,5.69h0.1c-0.16-2.72-0.57-5.81-0.57-8.7v-14.22h4.17v27.44h-4.8l-10.95-17.23
		l-3.29-5.69h-0.1c0.16,2.8,0.57,5.73,0.57,8.57v14.35h-4.17V407.45z"/>
	<path d="M302.18,407.45h5.01l11.53,27.44h-4.69l-5.89-15.31c-1.2-3.05-2.35-6.06-3.39-9.24h-0.21c-1.1,3.18-2.19,6.19-3.39,9.24
		l-6,15.31h-4.49L302.18,407.45z M296.76,423.72h15.7v2.84h-15.7V423.72z"/>
	<path d="M338.95,410.42h-11.32v-2.97h27.02v2.97h-11.32v24.47h-4.38V410.42z"/>
	<path d="M366.07,424.52v-17.06h4.43v17.15c0,5.65,3.08,7.7,7.15,7.7c4.12,0,7.25-2.05,7.25-7.7v-17.15h4.22v17.06
		c0,7.86-4.8,10.88-11.47,10.88C370.92,435.39,366.07,432.38,366.07,424.52z"/>
	<path d="M403.57,407.45h10.69c6.94,0,12,2.01,12,7.74c0,5.48-5.06,8.11-12,8.11H408v11.59h-4.43V407.45z M413.64,420.46
		c5.32,0,8.24-1.76,8.24-5.27c0-3.6-2.92-4.89-8.24-4.89H408v10.16H413.64z M416.82,420.5l10.43,14.39h-4.96l-8.92-12.55
		L416.82,420.5z"/>
	<path d="M448.01,407.45h5.01l11.53,27.44h-4.69l-5.89-15.31c-1.2-3.05-2.35-6.06-3.39-9.24h-0.21c-1.1,3.18-2.19,6.19-3.39,9.24
		l-6,15.31h-4.49L448.01,407.45z M442.58,423.72h15.7v2.84h-15.7V423.72z"/>
	<path d="M478.31,407.45h4.33v24.47h16.9v2.97h-21.23V407.45z"/>
	<path d="M547.98,407.45h5.32l4.8,11.71l1.67,4.43h0.21l1.62-4.43l4.85-11.71h5.32v27.44h-4.17v-13.72c0-2.68,0.52-7.36,0.73-9.7
		h-0.16l-1.93,5.35l-4.9,10.79h-3.13l-4.8-10.79l-1.98-5.35h-0.1c0.31,2.34,0.73,7.03,0.73,9.7v13.72h-4.07V407.45z"/>
	<path d="M586.63,407.45h21.17v2.97h-16.79V419h14.19v2.97h-14.19v9.95h17.32v2.97h-21.7V407.45z"/>
	<path d="M621.68,407.45h8.45c10.27,0,15.86,4.89,15.86,13.59c0,8.74-5.58,13.84-15.65,13.84h-8.66V407.45z M629.81,432
		c7.77,0,11.63-4.02,11.63-10.96c0-6.9-3.86-10.71-11.63-10.71h-3.76V432H629.81z"/>
	<path d="M658.55,431.92h8.5v-21.5h-8.5v-2.97h21.38v2.97h-8.5v21.5h8.5v2.97h-21.38V431.92z"/>
	<path d="M693.44,421.17c0-8.83,6.42-14.22,15.33-14.22c4.12,0,7.35,1.59,9.39,3.35l-2.5,2.22c-1.77-1.51-4.02-2.47-6.88-2.47
		c-6.52,0-10.8,4.22-10.8,11.04c0,6.9,4.28,11.21,10.8,11.21c3.13,0,5.53-1.09,7.67-3.01l2.5,2.13c-2.66,2.51-6.05,3.97-10.59,3.97
		C699.91,435.39,693.44,430.12,693.44,421.17z"/>
	<path d="M731.46,431.92h8.5v-21.5h-8.5v-2.97h21.38v2.97h-8.5v21.5h8.5v2.97h-21.38V431.92z"/>
	<path d="M767.24,407.45h4.8l10.95,17.23l3.29,5.69h0.1c-0.16-2.72-0.57-5.81-0.57-8.7v-14.22h4.17v27.44h-4.8l-10.95-17.23
		l-3.29-5.69h-0.1c0.16,2.8,0.57,5.73,0.57,8.57v14.35h-4.17V407.45z"/>
	<path d="M805.36,407.45h21.17v2.97h-16.79V419h14.19v2.97h-14.19v9.95h17.32v2.97h-21.7V407.45z"/>
</g>
<g>
</g>
<g>
</g>
<g>
</g>
<g>
</g>
<g>
</g>
<g>
</g>
</svg>
