<?xml version="1.0" encoding="utf-8"?>
<!-- Generator: Adobe Illustrator 24.3.0, SVG Export Plug-In . SVG Version: 6.00 Build 0)  -->
<svg version="1.1" id="startup-logo" xmlns="http://www.w3.org/2000/svg" xmlns:xlink="http://www.w3.org/1999/xlink" x="0px"
	 y="0px" viewBox="0 0 864 864" style="enable-background:new 0 0 864 864;" xml:space="preserve">
<style type="text/css">
	.st0{fill:#020202;}
</style>
<path id="startup-logo-combined" class="st0" d="M775.19,660.74c0,4.88,0,9.75,0,14.63c0,41.59-10.18,56.98-47.94,72.5
	c-196.03,0-392.05,0-588.08,0c-21.4-8.76-36.72-23.6-45.24-45.24c0-5.32,0-10.64,0-15.97c6.71-2.42,13.42-6.94,20.14-6.95
	c198.62-0.38,397.24-0.31,595.86-0.3c9.08,0,19.72-0.37,19.33,12.2c-0.35,11.52-10.51,10.95-19.14,10.95
	c-191.53-0.03-383.06-0.02-574.58-0.02c-4.69,0-9.37,0-15.94,0c7.38,13.02,16.21,20.57,29.57,21.87c4.84,0.47,9.73,0.44,14.6,0.44
	c180.44,0.02,360.89-0.5,541.33,0.51c30.95,0.17,50.63-17.63,47.29-47.46c-0.69-6.13-0.1-12.39-0.1-19.16
	c-1.65-0.54-3.19-1.39-4.79-1.52c-15.96-1.3-17.69-3.1-17.7-19.6c-0.03-55.42-0.01-110.84-0.01-166.26
	c0-53.2,0.05-106.4-0.02-159.61c-0.03-25.02-15.38-40.5-40.26-40.57c-39.9-0.1-79.8-0.02-119.7-0.04c-3.54,0-7.92,1.14-10.44-0.5
	c-4.26-2.77-10.15-7.36-10.12-11.15c0.03-3.82,5.9-9.93,10.14-10.88c8.03-1.81,16.73-0.7,25.15-0.7c34.14-0.02,68.28-0.05,102.41,0
	c40.75,0.07,65.45,24.49,65.5,65.18c0.11,101.53,0.04,203.05,0.04,304.58c0,4.82,0,9.63,0,14.25
	C775.19,637.12,775.19,637.12,775.19,660.74z M706.87,333.49c-0.05-22.23-12.71-39.02-32.61-39.64
	c-37.65-1.17-75.37-0.55-113.06-0.37c-7.43,0.04-14.18,3.95-12.11,12.02c1.13,4.41,7.6,7.91,12.31,10.73
	c2.29,1.37,6.07,0.28,9.17,0.28c31.04,0,62.08-0.02,93.12,0.01c17.81,0.02,20.76,2.96,20.76,20.85
	c0.02,94.89,0.02,189.79-0.02,284.68c0,3.82-0.36,7.65-0.57,11.63c-166.54,0-331.92,0-498.7,0c-0.24-2.74-0.52-4.42-0.52-6.11
	c-0.04-97.11-0.18-194.22,0.29-291.33c0.02-4.93,4.14-11.83,8.39-14.27c6.13-3.52,14.1-5.1,21.33-5.23
	c30.59-0.54,61.19-0.19,91.79-0.26c8.01-0.02,15.48-3.12,13.51-11.94c-1.01-4.51-8.58-10.59-13.33-10.72
	c-32.34-0.93-64.76-1.39-97.09-0.16c-23.83,0.91-47.94,16.22-47.74,39.88c0.88,101.98,0.34,203.98,0.42,305.97
	c0.01,14.9,2.91,17.58,18.27,17.58c169.39,0.04,338.78,0.04,508.17,0c15.66,0,18.2-2.67,18.23-18.97
	c0.09-40.35,0.03-80.7,0.03-121.06C706.92,455.88,707,394.69,706.87,333.49z M116.7,634.26c0,3.98-1.11,8.76,0.67,11.76
	c2.55,4.3,7.28,7.3,11.08,10.86c3.58-3.83,7.91-7.22,10.46-11.64c1.54-2.67,0.36-6.93,0.36-10.48c0.01-53.66,0-107.32,0-160.97
	c0-54.1-0.05-108.2,0.02-162.3c0.03-24.88,15.51-40.26,40.56-40.32c40.35-0.09,80.71,0.01,121.06-0.05
	c8.87-0.01,19.61,1.14,19.37-11.95c-0.22-12.03-10.36-11.18-18.85-11.19c-38.58-0.04-77.23,1.42-115.72-0.42
	c-37.98-1.82-70.13,24.6-69.51,68.76C117.69,422.28,116.68,528.28,116.7,634.26z M298.29,460.32c0.63,10.95,5.49,15.12,15.58,15.12
	c9.64,0,19.29,0,28.93,0c-0.91,1.15-1.81,2.3-2.72,3.44c4.61,6.27,8.49,17.04,13.99,17.93c14.89,2.43,10.49-12.46,13.51-20.85
	c7.8-0.37,15.59,0.43,22.63-1.52c3.95-1.09,9.68-7.22,9.18-10.19c-0.71-4.29-5.72-8.92-10.05-11.23c-3.47-1.85-8.67-0.5-13.1-0.51
	c-18.4-0.02-36.81-0.01-55.04-0.01c-1.29-29.18,5.03-53.79,23.9-74.29c15.82-17.2,22.02-37.51,21.41-60.87
	c-0.83-31.9-0.74-63.86,0.04-95.76c0.33-13.58,1.46-27.72,5.64-40.5c11.36-34.78,41.47-56.08,62.15-85.6
	c16.15,19.39,30.65,37.25,45.67,54.67c13.24,15.35,20.97,33.08,21.61,53.05c1.09,34.1,2.17,68.31,0.77,102.36
	c-1.27,30.88,6.02,57.23,27.22,80.35c16.8,18.33,18.98,41.74,18.3,66.62c-22.62,0-44.3-0.58-65.9,0.47
	c-4.48,0.22-11.25,5.8-12.44,10.15c-2.22,8.12,4.59,11.63,11.99,12.09c6.84,0.43,13.74,0.09,20.61,0.09
	c-1.03,1.62-2.05,3.24-3.08,4.86c4.98,5.84,9.49,16.06,15.02,16.64c12.85,1.35,10.72-10.77,11.47-21.42
	c10.95,0,21.06,0.19,31.16-0.06c8.83-0.22,13.41-4.3,13.98-13.92c2.21-37.2-4.46-71.39-30.79-99.74
	c-11.12-11.97-15.06-26.36-14.87-42.72c0.45-37.68,0.41-75.38-0.27-113.06c-0.43-23.56-7.53-45.51-22.33-64.07
	c-18.23-22.87-37.21-45.14-56.15-67.43c-9.06-10.66-14.5-10.59-23.63,0.14c-15.8,18.56-30.67,37.94-46.99,56.02
	c-22.96,25.43-32.39,55.08-31.92,88.83c0.47,33.25-0.25,66.51,0.25,99.76c0.24,15.83-3.35,30-14.15,41.63
	C303.59,389.08,296.13,422.97,298.29,460.32z M379.82,538.66c-25.36-25.29-49.37-24.24-73.74,2.68c-2.26,2.49-7.66,3.64-11.3,3.15
	c-32.29-4.35-60.95,17.99-64.38,50.44c-0.86,8.1,1.09,14.9,9.68,16.13c8.88,1.27,11.9-5.3,13.29-13.11
	c4.68-26.29,23.91-37.54,48.62-27.78c11,4.34,17.1,1.15,20.17-9.33c3.33-11.37,11.17-17.43,22.36-17.05
	c11.23,0.38,17.92,7.29,21.27,18.56c4.22,14.21,13.95,16.38,22.89,4.48c22.91-30.5,68.63-30.49,91.59-0.16
	c9.07,11.99,18.8,10,22.97-4.12c3.33-11.25,9.9-18.29,21.12-18.76c11.9-0.49,19.57,6.28,22.99,18.08c2.67,9.19,8.48,12.4,18.32,8.89
	c27.8-9.91,43.88-0.25,50.63,28.18c1.15,4.85,8.18,8.31,12.49,12.41c3.35-4.94,9.62-9.93,9.55-14.82
	c-0.41-28.17-26.41-54.14-54.53-52.54c-12.74,0.72-19.98-1.97-28.85-10.98c-18.67-18.97-43.46-15.58-67.95,6.88
	c-34.85-25.54-69.87-25.57-104.89-0.07C381.34,539.44,380.4,539.24,379.82,538.66z M434.04,293.26
	c-25.26-0.2-45.15-20.59-44.77-45.89c0.36-24.26,20.85-44.56,45.1-44.67c24.72-0.12,45.53,20.79,45.44,45.66
	C479.73,273.58,459.46,293.46,434.04,293.26z M456.79,248.1c-0.08-12.22-9.55-21.84-21.75-22.09c-12.78-0.26-22.86,9.66-22.78,22.4
	c0.07,11.94,9.9,22.03,21.77,22.36C446.25,271.1,456.87,260.52,456.79,248.1z M423.95,484.71c0.48,4.66,7.31,8.67,11.23,12.97
	c3.5-4.29,9.89-8.48,10.03-12.87c0.91-28.76,0.45-57.57,0.49-86.36c0.01-7.65-2.66-13.38-11.13-13.4
	c-8.46-0.02-11.21,5.67-11.18,13.34c0.05,14.17,0.02,28.35,0.02,42.52C423.41,455.53,422.47,470.24,423.95,484.71z"/>
</svg>
