<?xml version="1.0" encoding="utf-8"?>
<!-- Generator: Adobe Illustrator 24.3.0, SVG Export Plug-In . SVG Version: 6.00 Build 0)  -->
<svg version="1.1" id="turning-stone-2-logo" xmlns="http://www.w3.org/2000/svg" xmlns:xlink="http://www.w3.org/1999/xlink"
	 x="0px" y="0px" viewBox="0 0 864 864" style="enable-background:new 0 0 864 864;" xml:space="preserve">
<path id="turning-stone-2-logo-combined" d="M139.49,385.09c-4.48,6.62-13.74,6.58-18.21,0.07c-2.11-3.07-3.48-7.13-3.81-10.86
	c-1.26-14.36,2.19-28.15,8.57-40.73c10.88-21.43,22.83-42.31,34.47-63.35c0.64-1.16,2.45-1.67,3.72-2.49
	c-0.17,1.48,0.06,3.17-0.58,4.41c-11.83,23.01-23.81,46-30.63,71.1c-2.92,10.74-4.08,21.95-5.92,32.97
	c-0.22,1.31,0.21,2.78,0.53,4.13C129.48,388.09,131.77,389.14,139.49,385.09z M187.7,264.27c7.16,0.32,14.44,2.21,21.28,4.51
	c7.4,2.49,9.1,8.04,5.96,15.2c-0.71,1.61-1.21,3.3-1.81,4.96c0.49,0.43,0.99,0.86,1.48,1.29c1.61-1.5,3.61-2.75,4.75-4.55
	c3.41-5.35,2.81-13.44-2.53-17.73c-5.71-4.59-12.19-8.66-18.97-11.37c-14.18-5.66-29.23-6.19-44.38-5.52
	c-18.33,0.82-35.96,4.57-52.51,12.49c-9.53,4.56-16.1,11.8-16.39,23.12c-0.11,4.38,1.56,6.98,4.61,7.97c-3-6.81-2.24-9.9,4.49-13.6
	c4.89-2.69,10.09-5.07,15.43-6.68C134.72,266.63,160.97,263.08,187.7,264.27z M203.01,332.53c-1.92,2.95-3.69,6-5.73,8.87
	c-5.14,7.23-10.26,14.47-15.67,21.5c-1.83,2.38-3.83,5.28-8.47,4.61c0.64-2.12,0.92-4.05,1.79-5.68c2.11-3.97,4.88-7.63,6.68-11.73
	c2.27-5.19,4.21-10.61,5.58-16.1c0.88-3.54-0.3-7.06-4.08-8.89c-3.98-1.93-7.34-0.33-10.51,2.01c-0.79,0.58-1.54,1.26-2.17,2.01
	c-5.2,6.11-10.4,12.23-15.52,18.4c-0.61,0.74-0.74,1.87-1.09,2.82c0.43,0.33,0.87,0.66,1.3,0.98c0.55-0.94,0.96-2.01,1.67-2.81
	c5.06-5.68,10.14-11.35,15.3-16.93c1.03-1.11,2.37-2.01,3.71-2.75c0.59-0.33,1.79-0.31,2.25,0.09c0.43,0.38,0.55,1.58,0.28,2.2
	c-0.67,1.53-1.59,2.97-2.49,4.39c-3.36,5.37-7.3,10.46-9.94,16.16c-2.18,4.69-3.52,10.03-3.97,15.19
	c-0.53,6.08,4.72,9.48,10.18,6.59c4.1-2.17,7.7-5.53,11-8.88c3.02-3.07,5.34-6.82,8.34-10.77c-0.91,5.35-1.88,10-2.45,14.7
	c-0.83,6.76,1.22,10.91,5.55,12.57c0-2.3-0.7-4.98,0.13-7.06c3.04-7.66,6.24-15.31,10.04-22.61c3.61-6.93,8.06-13.42,12.11-20.05
	C210.71,325.71,207.24,326.05,203.01,332.53z M267.96,352.81c2.15-2.61,1.18-3.36,1.17-3.77c-2.54,2.76-5.27,5.37-8.12,7.86
	c-4.42,3.86-9.39,7.12-14.26,10.43c-0.91,0.62-3.14,0.7-3.7,0.08c-0.83-0.93-1.09-2.75-0.92-4.11c0.2-1.62,0.93-3.26,1.74-4.71
	c3.72-6.62,7.5-13.2,11.36-19.73c1.51-2.56,3.53-4.95,1.57-8.1c-1.92-3.08-4.84-4.19-8.33-3.86c-3.92,0.37-7.83,0.86-12.05,1.33
	c3.79-5.25,7.15-10.25,6.75-16.74c-0.21-3.36-2.67-4.68-5.45-2.92c-4.15,2.62-8.33,14.69-6.96,19.52c0.35,1.22,0.34,3.02-0.33,3.97
	c-4.51,6.45-9.27,12.73-13.89,19.1c-0.93,1.28-1.65,2.71-2.47,4.07c0.31,0.19,0.62,0.37,0.92,0.56c0.51-0.44,1.13-0.81,1.53-1.34
	c5.51-7.29,11.04-14.56,16.46-21.93c1.77-2.41,5.01-3.09,7.93-1.29c2.88,1.77,0.86,3.81,0.03,5.43c-3,5.89-6.55,11.52-9.28,17.52
	c-1.58,3.47-2.49,7.44-2.81,11.26c-0.39,4.65,2.44,7.38,6.82,8.78c5.58,1.78,10.17-0.46,14.02-3.7
	C256.55,364.74,261.38,358.95,267.96,352.81z M305.53,370.58c0.35-0.76,0.32-0.97,0.38-1.88c0.01-0.24,0.23-1.17,0.19-1.42
	c-0.88,0.54-1.77,1.07-2.61,1.65c-1.67,0.51-1.47-0.12-1.34-1.05c0.33-1.68,0.38-3.48,1.05-5.01c1.18-2.69,2.82-5.17,4.12-7.81
	c2.79-5.65,5.81-11.22,8.13-17.06c1.88-4.74,0.2-9.89-3.07-12.26c-3.29-2.38-7.52-1.99-12.05,1.37c-1.79,1.33-3.47,2.92-4.81,4.69
	c-3.29,4.34-6.36,8.85-9.58,13.38c0.55-4.1,1.29-8.03,1.55-12c0.26-3.98-0.12-7.97-3.81-10.58c-0.64-0.45-1.69-0.34-2.55-0.49
	c-0.09,0.74-0.51,1.65-0.23,2.2c1.78,3.44,0.64,6.46-0.97,9.55c-2.71,5.19-3.42,8.28-5.71,13.24c-1.97,4.16-3.41,5.63-3.52,6.22
	c-3.69,6.1-7.38,12.19-11.02,18.2c5.98,5.64,9.19,5.38,13.62-0.77c0.66-0.91,1.26-1.86,1.85-2.82
	c6.24-10.18,12.21-20.53,18.84-30.45c2.41-3.61,6.3-6.26,9.69-9.15c0.57-0.49,2.28-0.37,2.9,0.14c0.51,0.42,0.49,1.96,0.18,2.81
	c-0.47,1.29-1.4,2.42-2.12,3.62c-3.91,6.5-8.18,12.81-11.56,19.57c-1.89,3.78-2.84,8.25-3.21,12.5c-0.49,5.64,3.96,8.95,9.28,7.15
	C301.79,373.24,303.35,372.31,305.53,370.58z M354.83,320.65c3.64,0.01,7.81-5.63,7.81-10.29c0-3.66-1.13-4.97-4.22-4.9
	c-4.04,0.1-7.68,4.87-7.75,10.06C350.63,318.45,351.54,320.64,354.83,320.65z M308.34,366.85c-0.28,0.77-0.96,1.88-0.76,2.67
	c5.99-5.48,11.57-11.41,17.31-17.16c0.38-0.29,0.76-0.59,1.14-0.88c-0.14,0.56-0.27,1.13-0.41,1.69c-0.81,2.21-1.81,4.37-2.4,6.64
	c-2.12,8.18,1.07,14.53,8.28,14.77c3.71,0.12,8.2-1.55,11.13-3.91c7.58-6.11,21.37-19.6,21.37-19.61c0.28-0.62,0.24-0.79,0.13-1.62
	c-0.04-0.34-0.25-1.31-0.3-1.65c-0.04,0.04-13.37,12.58-20.34,18.64c-1.22,1.06-4.5,1.76-5.15,1.07c-1.19-1.28-1.93-3.94-1.45-5.63
	c2.28-8.07,4.81-16.1,7.73-23.96c1.28-3.46,3.68-6.51,6.27-10.92c-2.78,0.23-4.9-0.2-6.24,0.63c-2.7,1.68-5.25,3.79-7.37,6.16
	c-8.94,9.96-17.61,20.15-26.6,30.06C309.64,364.99,308.56,366.25,308.34,366.85z M356.52,374.2c4.12,2.4,7.05,1.81,10.31-2.91
	c3.12-4.51,5.72-9.36,8.63-14.02c4.47-7.15,8.79-14.41,13.62-21.31c2.05-2.92,5.13-5.18,7.96-7.46c0.71-0.58,2.26-0.12,3.43-0.14
	c0.01,1.17,0.3,2.42-0.03,3.48c-0.36,1.16-1.31,2.14-1.98,3.22c-3.42,5.5-7.44,10.73-10.08,16.58c-2.31,5.11-3.63,10.83-4.36,16.42
	c-0.6,4.58,4.06,7.89,8.4,6.09c4.31-1.8,8.46-4.32,12.14-7.21c3.7-2.91,5.75-6.03,9.15-9.37c2.18-2.95,1.16-4.06,1.08-4.99
	c-4.14,4.75-7.73,10.39-13.05,13.76c-2.6,1.64-4.57,2.09-5.21,1.42c-1.16-0.81-0.05-3.62,0.68-5.04c2.87-5.65,6.07-11.12,9.1-16.69
	c2.6-4.8,4.34-9.8,3.13-15.38c-1.06-4.92-5.47-7.58-10.24-5.88c-2.31,0.82-4.81,1.99-6.42,3.74c-3.51,3.81-6.5,8.08-9.7,12.17
	c-0.84,1.08-1.68,2.16-2.52,3.24c2.36-14.71,0.91-20.99-5.7-21.95c-0.05,0.69-0.36,1.48-0.12,2.03c1.83,4.06,0.76,7.79-1.52,11.16
	c-2.66,3.92-3.41,6.52-4.69,9.49c-1.11,3.19-2.8,6.32-3.02,6.86c-3.45,5.79-6.78,11.65-10.42,17.32
	C353.42,371.45,354.2,372.85,356.52,374.2z M489.34,372.82c17.47,8.85,34.74,6.37,51.39-1.96c5.22-2.61,10.16-6.89,13.67-11.57
	c8.95-11.92,5.81-25.78-6.87-33.69c-5.48-3.42-11.27-6.36-16.62-9.97c-4.04-2.73-4.66-6.46-2.53-10.77c0.8-1.63,1.78-3.21,2.89-4.65
	c11.58-15.05,25.77-27.14,42.45-36.15c3.71-2.01,8.16-2.77,12.36-3.7c1.22-0.27,2.75,0.86,4.63,1.52c-2.38,2.25-4.03,3.77-5.63,5.35
	c-9.26,9.17-16.61,19.6-19.98,32.32c-1.65,6.22-1.62,12.53,3.4,18.1c1.6-12.31,8.11-21.79,15.4-30.97
	c5.16-6.49,10.36-13.02,14.68-20.07c4.05-6.61,0.84-14.17-6.45-16.79c-5.77-2.08-11.66-1.35-17.45,0.2
	c-16.35,4.38-30.07,13.25-41.91,25.07c-5.6,5.59-10.53,11.8-12.82,19.58c-2.49,8.46-1.73,16.47,5.71,22.1
	c5.56,4.21,11.78,7.6,17.93,10.96c8.56,4.68,10.36,13.08,3.96,20.37c-13.75,15.66-31.49,18.38-50.87,15.35
	c-7.86-1.23-15.4-3.54-21.82-8.78C476.52,363.45,481.86,369.04,489.34,372.82z M595.06,299.66c-2.74,4.91-5.52,9.81-7.98,14.86
	c-1.69,3.46-3.76,5.85-7.79,6.76c-2.1,0.47-4.23,2.25-5.64,4c-2.8,3.49-1.72,6.35,2.54,7.81c-3.98,6.65-10.32,11.59-14.42,18.12
	c0.34,0.28,0.68,0.55,1.02,0.83c0.8-0.48,1.6-0.97,2.79-1.68c-0.62,3.72-1.41,6.88-1.62,10.08c-0.31,4.68-0.3,9.64,3.81,12.8
	c4.18,3.21,8.88,1.91,13.1-0.33c2.7-1.44,5.32-3.26,7.51-5.39c4.53-4.43,8.85-9.09,13.31-13.81c0.39-0.78,0.97-3.52,0.45-5.35
	c-5.51,5.97-11.2,11.48-16.85,17.31c-2.42,2.5-6.04,5.35-9.65,2.91c-3.57-2.41-2.53-6.89-1.21-10.17
	c3.45-8.57,7.21-17.03,11.37-25.28c3.13-6.21,6.03-7.31,12.94-5.61c2.57,0.63,4.88,2.36,8.13,4.01c-1.06-7.71-7.23-9.24-13.3-11.47
	c6.97-9.25,13.6-18.05,20.33-26.99C606,290.54,598.65,293.21,595.06,299.66z M629.68,367.64c-1.41,0.55-2.82,1.14-4.26,1.62
	c-4.35,1.45-8.64,3.55-13.11,4.1c-6.49,0.8-9.96-2.75-10.02-9.42c-0.03-3.88,0.34-7.75,1.55-12.13c1.45-5.26,5.58-11.96,8.85-15.42
	c3.95-4.17,7.81-8.68,12.54-11.78c3.38-2.22,8.14-3.21,12.28-3.21c6.59,0.01,10.89,5.32,11.26,11.94
	c0.56,10.16-4.05,18.19-10.36,25.5c-1.44,1.67-3.37,2.93-5.07,4.38c-0.33,0.42-0.01,0.55,0.3,0.89c0.21,0.56,0.52,0.9-0.45,1.86
	C631.67,366.48,631.15,367.07,629.68,367.64z M625.7,365.89c-3.74-4.56-1.7-11.48,4.39-17.28c4.42-4.21,7.72-4.38,12.13-0.43
	c0.86-2.27,1.98-4.39,2.43-6.64c0.73-3.6,0.99-7.24-2.08-10.18c-2.92-2.79-7.98-3.56-12.48-0.74
	c-11.59,7.25-17.92,17.93-18.76,31.58c-0.28,4.58,3.66,7.34,8.18,6.14C621.48,367.83,623.32,366.85,625.7,365.89z M709.28,350.15
	c0-0.03-0.01-0.06-0.01-0.09c-3.65,4.46-7.79,8.45-11.97,12.46c-1.67,1.6-4.09,2.43-6.17,3.62c-0.41-0.33-0.82-0.66-1.22-0.99
	c0.5-1.9,0.69-3.95,1.57-5.66c3.38-6.64,7.35-13.01,10.35-19.81c1.46-3.3,1.9-7.38,1.66-11.03c-0.35-5.31-5.55-8.44-10.43-6.27
	c-3.48,1.54-6.86,3.91-9.45,6.68c-3.23,3.47-5.59,7.73-8.33,11.66c-0.28,0.56-0.56,1.11-0.84,1.67c-0.2-0.07-0.39-0.14-0.59-0.22
	c0.23-0.73,0.46-1.45,0.69-2.18c0.27-3.22,0.63-6.44,0.8-9.67c0.33-6.17-1.44-9.41-6.53-11.35c0.08,1.25,0.23,2.23,0.2,3.2
	c-0.08,2.57,0.6,5.6-0.51,7.64c-6.76,12.34-15.47,23.14-27.15,31.25c-1.91,1.33-3.85,2.64-5.78,4.01c-0.34,0.26-0.41,0.45-0.4,0.67
	c3.24-1.07,6.44-2.19,9.1-4.08c5.54-3.94,10.03-9.34,14.97-14.11c0.29-0.16,0.57-0.32,0.86-0.48c-0.03,0.39-0.05,0.78-0.08,1.17
	c-4.16,6.99-8.33,13.98-12.48,20.94c7.09,5.6,9.51,5.36,14.31-2.02c3.68-5.66,6.97-11.58,10.37-17.41
	c4.83-8.28,9.52-16.69,17.2-22.77c1.26-1,3.46-0.82,5.23-1.19c-0.34,1.64-0.27,3.51-1.08,4.87c-3.59,6.05-7.8,11.77-11.06,17.98
	c-2.24,4.27-3.65,9.09-4.79,13.81c-1.33,5.5,3.08,12.34,10.28,8.76c5.67-2.82,10.54-7.34,15.5-11.42c2.19-1.8,4.01-4.06,5.9-6.22
	c-0.02-0.72-0.04-1.45-0.06-2.17C709.31,351,709.31,350.57,709.28,350.15z M750.69,357.81c-4.98,3.82-9.29,7.09-15.02,9.69
	c-7.4,3.36-12.51,0.47-12.16-7.29c0.63-13.8,7.54-24.24,19.12-31.4c1.83-1.13,5.72-0.82,7.6,0.43c2.64,1.75,2.14,5.52,0.07,7.53
	c-3.65,3.54-7.75,6.76-12.1,9.39c-2.58,1.56-6,1.73-9.04,2.53c1.25,0.88,2.53,1.2,3.76,1.05c8.02-1,14.74-4.56,19.75-10.9
	c2.85-3.6,4.13-7.82,1.95-12.24c-1.67-3.39-7.49-5.25-12.35-4.62c-12.35,1.61-21.16,8.61-26.84,19.06
	c-1.57,2.9-4.07,7.91-4.77,15.64c-0.75,8.22,2.81,15.76,11.66,16.64c3.91,0.39,8.39-0.1,11.9-1.73c5.84-2.72,11.15-6.6,16.71-10.05
	c0.04-0.12,0.09-0.24,0.13-0.36c0.17-0.48,0.33-1.01,0.57-1.49c-0.05-0.1-0.11-0.19-0.16-0.29
	C751.54,359.31,751.04,358.54,750.69,357.81z M784.83,363.34c2.08-6.43,4.05-12.97,6.3-19.42c3.11-8.86,3.25-18.84,10.1-26.41
	c-3.11-2.45-6.43-2.77-9.62-1.19c-3.12,1.54-6.47,3.18-8.79,5.65c-8.5,9.02-16.5,18.51-24.93,27.6c-2.09,2.25-4.31,5.4-5.31,6.77
	c-0.29,0.34-0.46,1.3-0.14,2.02c11.03-11.53,21.8-23.15,33.04-34.3c5.65-5.6,7.95-6.04,12.1-5.47
	c-8.32,6.59-12.69,15.62-16.74,24.93c-2.3,5.27-4.86,10.45-7.71,15.44c-1.43,2.5-3.48,4.87-5.78,6.6
	c-5.61,4.23-10.73,2.65-15.12-4.78c-0.09,0.27-0.18,0.53-0.27,0.78c-0.1,0.27-0.19,0.53-0.29,0.8c0.06,0.16,0.12,0.32,0.17,0.48
	c1.84,5.41,5.07,9.54,10.97,10.56c5.67,0.98,11.23,0.29,16.47-2.34c12.44-6.27,21.23-16.56,29.8-27.08c0.42-0.52,0.33-1.46,0.47-2.2
	C801.85,349.99,793.88,357.58,784.83,363.34z M411.62,487.51c-2.26,1.73-4.86,3.02-7.3,4.52c-3.77,1.4-7.54,2.8-11.32,4.19
	c-0.86,0.03-1.71,0.05-2.57,0.08c-0.67,0.08-1.33,0.17-1.99,0.25c-6.55,0.06-13.21,0.48-19.3-2.5c-4.13-2.02-7.99-4.61-11.97-6.94
	c-0.9-1.56-1.8-3.11-2.71-4.67c-0.11-0.6-0.21-1.2-0.32-1.8c0.29-0.98,0.58-1.96,0.86-2.95c0.2,0.04,0.39,0.08,0.59,0.13
	c0.29,0.43,0.58,0.85,0.87,1.28c2.89,1.41,5.79,2.81,8.68,4.22c0.67,0.13,1.34,0.26,2,0.39c7.2,2.11,14.42,3.02,21.71,0.46
	c2.75-0.51,5.51-1.02,8.26-1.54c1.08-0.44,2.17-0.88,3.25-1.31c3.85-2.97,8.11-5.54,11.45-9c5.04-5.21,3.57-11.96-2.82-15.51
	c-3.76-2.09-7.7-3.88-11.27-6.24c-9.51-6.27-11.74-14.76-6.24-24.75c1.04-1.88,2.17-3.66,3.38-5.36c-3.55-0.96-6.93-2.53-9.98-4.72
	c-6.37-4.58-10.2-13.45-8.04-20.59c0.41,1.6,0.81,3.21,1.24,4.8c2.73,10.14,9.84,17.38,18.08,18.75
	c6.78-8.76,15.85-15.04,25.97-20.03c3.28-1.61,6.63-3,10.11-3.94c0.94-1.54,1.84-3.09,2.69-4.67c6.17-11.48,11.34-23.49,16.93-35.28
	l0.55-1.63c-0.4,0.28-0.79,0.57-1.19,0.85c-4.67,5.08-9.33,10.16-14,15.25c-0.1,0.1-0.2,0.2-0.3,0.3
	c-5.75,5.3-11.35,6.73-15.89,4.05c-4.78-2.82-6.35-8.6-4.45-16.24c0.17-0.67,1.54-7.91,4.1-12.35
	c6.38-11.09,15.21-19.08,28.33-21.38c6.28-1.1,10.87,1.67,14.85,6.16c1.74,1.97,3.64,3.89,5.75,5.43c4.1,2.99,3.69,3.76,1.1,7.88
	c-4.84,7.71-9.1,15.81-13.13,23.98c-4.47,9.06-9.01,18.06-14.49,26.43c5.54,0.38,8.92,2.79,10.02,7.57c0.44,1.93,0.43,4.55-0.56,6.1
	c-3.44,5.43-7.14,10.73-11.21,15.7c-6.13,7.48-11.57,15.2-13.01,25.4c-3.84-4.11-3.99-8.74-2.88-13.45
	c2.52-10.71,8.68-19.29,16.42-26.84c1.27-1.24,2.8-2.22,4.25-3.35c-3.13-3.29-6.14-2.45-8.49-1.13c-1.18,0.67-2.38,1.33-3.57,1.99
	c-1.92,2.2-3.95,4.34-6.12,6.37c-4.62,4.33-10.13,7.22-15.88,8.66c-4.95,4.58-9.51,9.66-13.84,14.82
	c-4.72,5.62-3.67,9.23,2.53,13.18c2.71,1.72,5.55,3.28,8.43,4.7C424.73,460.9,424.37,477.76,411.62,487.51z M457.04,341.98
	c1.54-2.3,2.82-4.9,3.6-7.54c1-3.34-0.75-5.38-4.99-5.25c-0.99,0.46-3,1.15-4.73,2.26c-10.68,6.82-17.8,16.6-22.9,27.98
	c-0.91,2.02-1.64,4.25-1.85,6.44c-0.35,3.6,2.03,5.23,5.39,3.86c1.26-0.51,2.38-1.46,3.47-2.32
	C444,360.35,450.75,351.35,457.04,341.98z M471.51,471.95c-3.01,3.39-6.05,6.76-9.13,10.08c-2.07,2.24-4.86,3.81-7.33,5.69
	l-1.15-0.91c0.4-1.67,0.59-3.43,1.24-5c1.66-3.96,3.69-7.77,5.28-11.76c1.41-3.53,2.79-7.14,3.49-10.85c0.63-3.35,0.04-6.9-3.3-8.86
	c-3.17-1.87-6.57-1.3-9.42,0.78c-2.28,1.66-4.23,3.81-6.18,5.88c-0.74,0.78-1.08,1.94-1.6,2.93c-0.41-0.4-0.81-0.8-1.22-1.19
	c6.78-13.8,14.19-27.26,23.67-39.41c3.94-5.06,8.66-9.54,13.35-13.96c1.24-1.17,3.65-1.11,5.53-1.61c0.3,2.03,1.39,4.36,0.75,6.02
	c-1.64,4.29-3.52,8.68-6.27,12.3c-6.19,8.14-13.79,14.92-22.5,20.37c-0.83,0.52-1.53,1.24-2.29,1.87c0.18,0.3,0.35,0.61,0.53,0.91
	c1.16-0.47,2.43-0.76,3.47-1.42c9.06-5.77,17.11-12.68,23.8-21.12c4.02-5.07,6.4-10.82,7.29-17.24c1.16-8.39-4.03-12.78-12.09-10.15
	c-5.67,1.85-9.97,5.53-13.67,10.05c-9.32,11.37-16.38,24.14-22.31,37.47c-4.77,10.72-9.22,21.52-17.95,29.83
	c-0.51,0.48-0.61,1.39-0.9,2.1c0.32,0.2,0.65,0.41,0.97,0.61c2.75-3.04,5.5-6.07,8.92-9.86c-2.88,9.22-5.45,17.44-8.14,26.07
	c3.65-0.23,5.26-1.99,6.12-4.7c3.27-10.27,8.85-19.29,15.4-27.73c1.73-2.22,3.93-4.23,6.29-5.75c1.24-0.8,3.3-0.34,4.99-0.45
	c-0.12,1.45,0.21,3.13-0.42,4.29c-2.68,4.92-5.89,9.56-8.41,14.56c-1.8,3.57-3.15,7.45-4.07,11.34c-0.65,2.75-0.35,5.73,2.61,7.62
	c2.93,1.87,5.76,1.39,8.38-0.31c2.6-1.69,5.11-3.57,7.36-5.69c2.97-2.79,5.75-5.78,9.03-9.2c0-0.72-0.01-1.43-0.06-2.15
	C471.55,472.92,471.54,472.44,471.51,471.95z M501.98,481.53c-0.85,0.99-2.9,3.78-4.15,5.68c-0.77,0.22-1.53,0.45-2.27,0.71
	c-1.65,0.59-3.21,1.46-4.87,2.02c-3.14,1.06-6.25,2.4-9.49,2.9c-7.42,1.16-9.27-4.36-9.11-9.61c0.08-2.7,0.64-5.39,1.14-9.32
	c2.77-8.99,7.21-12.61,9.44-14.64c5.03-4.59,9.29-9.61,16.39-10.81c6.01-1.01,11.73,3.45,12.35,9.51
	C512.37,467.53,507.81,474.76,501.98,481.53z M505.9,471.4c0.51-1.08,1.06-2.11,1.49-3.19c1.98-4.9,1.4-8.9-1.63-11.56
	c-2.44-2.15-7.02-2.2-11.05,0.49c-8.99,6-13.58,14.74-15.13,25.29c-0.69,4.72,4.23,7.96,8.55,5.9c1.16-0.55,2.27-1.23,3.41-1.85
	c-2.57-4.18-0.45-11.07,4.51-15.13C499.82,468.26,502.3,468.25,505.9,471.4z M582.1,471.07c-1.83,2.21-3.61,4.5-5.72,6.43
	c-4.7,4.3-7.33,3.75-9.73-1.26c-3.89,4.2-7.75,8.75-12.04,12.86c-2.76,2.65-6.33,3.96-10.19,2.04c-3.78-1.88-4.49-5.28-4.21-9.1
	c0.02-0.31-0.11-0.63-0.07-0.4c-2.36,2.08-4.83,4.42-7.46,6.54c-2.86,2.31-5.69,4.79-9.95,3.36c-3.66-1.23-5.97-3.48-5.66-7.21
	c0.3-3.61,1.53-7.14,2.35-10.7c0.42-0.71,0.84-1.41,1.25-2.12c-0.17-0.11-0.35-0.22-0.52-0.33l-1.41,1.75
	c-4.27,3.81-8.25,8.03-12.91,11.27c-1.98,1.38-4.46,2.03-6.94,2.71c0.06-0.11,0.7-0.99,1.29-1.55c4.14-1.22,7.44-3.94,10.16-6.81
	c6.15-6.5,11.86-13.43,17.82-20.11c1.9-2.13,3.89-4.24,6.14-5.98c1.66-1.29,3.78-2.27,5.61-0.6c-2.72,5.79-5.67,11.37-7.96,17.2
	c-1.6,4.07-2.4,8.46-3.29,12.77c-0.23,1.12,0.54,2.45,0.85,3.68c1.18-0.37,2.78-0.38,3.47-1.17c3.36-3.84,6.62-7.79,9.64-11.9
	c2.97-4.04,5.5-8.41,8.46-12.46c1.08-1.48,2.75-2.68,4.39-3.56c1.92-1.03,3.97-1.05,4.66,0.35c-2.63,7.03-5.07,13.28-7.29,19.61
	c-0.58,1.65-0.69,3.53-0.66,5.3c0.02,1.29,0.64,2.56,0.99,3.84c1.28-0.53,2.85-0.74,3.78-1.63c5.31-5.03,10.02-10.19,10.24-18.39
	c0.12-4.33,2.15-8.7,3.86-12.83c0.61-1.48,2.64-2.81,4.3-3.32c1.62-0.5,3.6,0.11,5.42,0.24c-0.54,1.49-0.88,3.09-1.65,4.45
	c-3.32,5.79-7.07,11.4-7.84,18.25c-0.16,1.43,0.31,2.93,0.49,4.39c1.31-0.55,2.88-0.8,3.88-1.69c2.27-2.04,4.27-4.38,6.38-6.61
	c0.28,0.15,0.55,0.3,0.83,0.45C582.62,469.59,582.56,470.5,582.1,471.07z M540.64,480.08c-0.09-0.08-0.17-0.15-0.26-0.23
	c-0.08,0.16-0.18,0.31-0.21,0.48c-0.01,0.06,0.14,0.16,0.21,0.23C540.46,480.41,540.55,480.25,540.64,480.08z M204.97,539.58h6.48
	v-4.02h-6.48V539.58z M223.87,548.33c-0.44,0-0.82-0.11-1.13-0.32c-0.31-0.21-0.57-0.51-0.77-0.89c-0.2-0.38-0.35-0.83-0.44-1.34
	c-0.09-0.52-0.14-1.08-0.14-1.69v-15.35h4.17v-3.69h-4.17v-7.2h-2.28v7.2h-2.69v3.69h2.69v16.02c0,1.11,0.09,2.12,0.26,3.02
	c0.18,0.91,0.44,1.68,0.8,2.31c0.36,0.64,0.81,1.13,1.34,1.47c0.54,0.34,1.18,0.51,1.91,0.51c0.56-0.02,1.04-0.09,1.44-0.22
	c0.4-0.13,0.7-0.27,0.9-0.42v-3.6c-0.28,0.15-0.6,0.27-0.93,0.36S224.17,548.33,223.87,548.33z M241.91,526.19
	c-0.45-0.68-0.94-1.16-1.47-1.43c-0.53-0.27-1.06-0.4-1.59-0.4c-0.51,0-0.99,0.11-1.43,0.33c-0.44,0.22-0.85,0.52-1.24,0.9
	c-0.38,0.38-0.73,0.83-1.04,1.36s-0.6,1.09-0.85,1.7h-0.04v-17.4h-2.28v40.12h2.28v-18.7c0.53-1.44,1.16-2.57,1.88-3.39
	c0.73-0.82,1.49-1.23,2.29-1.23c0.97,0,1.67,0.54,2.09,1.61c0.43,1.07,0.64,2.67,0.64,4.79v16.93h2.28v-17.62
	c0-1.92-0.14-3.49-0.43-4.71C242.73,527.83,242.36,526.88,241.91,526.19z M261.51,531.49c0.29,1.66,0.43,3.66,0.43,5.99
	c0,0.22,0,0.41,0,0.57c0,0.16-0.01,0.51-0.01,1.07h-9.64c0,1.68,0.13,3.11,0.4,4.28s0.64,2.12,1.1,2.85
	c0.47,0.73,1.01,1.26,1.64,1.59c0.63,0.33,1.3,0.5,2.03,0.5c0.75,0,1.44-0.12,2.07-0.35c0.62-0.23,1.24-0.56,1.86-0.98v3.57
	c-0.5,0.46-1.12,0.83-1.85,1.09c-0.73,0.27-1.52,0.4-2.37,0.4c-1,0-1.94-0.24-2.81-0.72c-0.88-0.48-1.64-1.26-2.28-2.33
	s-1.14-2.47-1.51-4.2c-0.36-1.73-0.54-3.81-0.54-6.25c0-2.4,0.18-4.48,0.53-6.25c0.35-1.76,0.82-3.24,1.41-4.42
	c0.59-1.18,1.26-2.07,2.02-2.66c0.76-0.59,1.56-0.89,2.39-0.89c0.78,0,1.51,0.25,2.19,0.73s1.27,1.26,1.77,2.31
	C260.83,528.47,261.22,529.82,261.51,531.49z M259.55,535.42c0-1.03-0.07-2-0.22-2.9c-0.14-0.9-0.35-1.68-0.63-2.34
	c-0.28-0.67-0.62-1.19-1.03-1.57c-0.41-0.38-0.88-0.57-1.41-0.57c-0.53,0-1.01,0.19-1.47,0.58c-0.45,0.39-0.85,0.91-1.18,1.58
	c-0.34,0.67-0.61,1.45-0.82,2.34c-0.21,0.9-0.34,1.85-0.39,2.87H259.55z M287.88,526.19c-0.45-0.68-0.94-1.16-1.47-1.43
	c-0.53-0.27-1.06-0.4-1.59-0.4c-0.51,0-0.99,0.11-1.43,0.33c-0.44,0.22-0.85,0.52-1.24,0.9c-0.38,0.38-0.73,0.83-1.04,1.36
	s-0.6,1.09-0.85,1.7h-0.04v-17.4h-2.28v40.12h2.28v-18.7c0.53-1.44,1.16-2.57,1.88-3.39c0.73-0.82,1.49-1.23,2.29-1.23
	c0.97,0,1.67,0.54,2.09,1.61c0.43,1.07,0.64,2.67,0.64,4.79v16.93h2.28v-17.62c0-1.92-0.14-3.49-0.43-4.71
	C288.7,527.83,288.33,526.88,287.88,526.19z M305.83,541.19c0,1.33-0.08,2.45-0.25,3.35c-0.23,1.18-0.6,2.12-1.12,2.83
	s-1.22,1.05-2.08,1.05c-0.81,0-1.48-0.32-2.01-0.96s-0.9-1.51-1.14-2.62c-0.21-0.98-0.31-2.2-0.31-3.66v-16.13h-2.28v16.16
	c0,0.94,0.03,1.81,0.09,2.61c0.06,0.79,0.16,1.52,0.29,2.19c0.18,0.89,0.42,1.7,0.72,2.45c0.3,0.75,0.67,1.39,1.11,1.93
	c0.44,0.54,0.94,0.95,1.52,1.25c0.58,0.3,1.23,0.44,1.96,0.44c0.74,0,1.41-0.15,2.01-0.46s1.11-0.73,1.57-1.29
	c0.45-0.55,0.83-1.21,1.14-1.98s0.55-1.6,0.73-2.51c0.12-0.65,0.2-1.35,0.26-2.12c0.05-0.77,0.08-1.59,0.08-2.48v-16.18h-2.28
	V541.19z M334.3,526.18c-0.46-0.69-0.97-1.17-1.52-1.43c-0.55-0.26-1.07-0.39-1.56-0.39c-1.06,0-1.99,0.47-2.78,1.4
	c-0.79,0.93-1.5,2.22-2.12,3.87h-0.06c-0.37-1.62-0.9-2.91-1.59-3.85c-0.69-0.94-1.55-1.41-2.59-1.41c-0.52,0-1,0.11-1.44,0.33
	c-0.44,0.22-0.85,0.53-1.21,0.93c-0.37,0.4-0.7,0.86-1,1.39c-0.3,0.53-0.58,1.09-0.83,1.7h-0.04l-0.44-3.66h-1.76v26.33h2.28v-18.7
	c0.53-1.44,1.13-2.57,1.79-3.39c0.67-0.82,1.41-1.23,2.22-1.23c0.43,0,0.82,0.12,1.17,0.36c0.35,0.24,0.65,0.62,0.9,1.14
	c0.25,0.52,0.44,1.18,0.57,1.98c0.13,0.8,0.2,1.78,0.2,2.92v16.93h2.28v-18.7c0.53-1.44,1.13-2.57,1.8-3.39s1.41-1.23,2.23-1.23
	c0.43,0,0.82,0.12,1.17,0.36s0.65,0.62,0.9,1.14c0.25,0.52,0.44,1.18,0.57,1.98c0.13,0.8,0.2,1.78,0.2,2.92v16.93h2.28v-17.62
	c0-1.92-0.15-3.49-0.46-4.71C335.14,527.83,334.76,526.87,334.3,526.18z M353.51,531.47c0.06,0.71,0.1,1.49,0.1,2.34v17.57h-1.91
	l-0.25-2.91h-0.06c-0.19,0.44-0.42,0.88-0.71,1.32c-0.28,0.43-0.61,0.82-0.98,1.16c-0.37,0.34-0.78,0.61-1.22,0.82
	c-0.44,0.2-0.91,0.3-1.41,0.3c-0.68,0-1.3-0.19-1.86-0.57c-0.56-0.38-1.05-0.93-1.46-1.66c-0.41-0.73-0.72-1.62-0.95-2.67
	s-0.34-2.24-0.34-3.57c0-1.31,0.12-2.49,0.38-3.52c0.25-1.03,0.6-1.91,1.05-2.63c0.45-0.72,0.99-1.27,1.62-1.66
	c0.63-0.39,1.33-0.58,2.09-0.58c0.73,0.02,1.4,0.14,2.01,0.36s1.17,0.5,1.65,0.83h0.06v-1.83c0-0.72-0.02-1.36-0.07-1.91
	c-0.05-0.55-0.13-1.04-0.25-1.47c-0.25-0.89-0.66-1.62-1.22-2.2c-0.56-0.58-1.31-0.87-2.26-0.87c-0.71,0-1.37,0.12-1.99,0.37
	c-0.62,0.25-1.24,0.6-1.86,1.04v-3.6c0.24-0.22,0.51-0.43,0.83-0.62c0.32-0.19,0.65-0.36,1.01-0.5s0.73-0.25,1.12-0.32
	c0.39-0.07,0.78-0.11,1.18-0.11c1.41,0,2.56,0.47,3.46,1.41s1.54,2.19,1.93,3.74C353.34,530.11,353.45,530.76,353.51,531.47z
	 M351.33,539.83c-0.42-0.22-0.92-0.43-1.49-0.64c-0.58-0.2-1.21-0.31-1.9-0.33c-0.97,0-1.72,0.39-2.27,1.16
	c-0.55,0.78-0.82,1.97-0.82,3.58c0,0.81,0.07,1.52,0.21,2.13c0.14,0.61,0.32,1.11,0.56,1.51c0.24,0.4,0.52,0.69,0.85,0.89
	c0.33,0.19,0.68,0.29,1.05,0.29c0.49,0,0.94-0.13,1.36-0.4c0.42-0.27,0.79-0.59,1.12-0.96c0.33-0.37,0.61-0.74,0.83-1.11
	c0.23-0.37,0.4-0.66,0.5-0.86V539.83z M371.12,526.47c-0.41-0.74-0.9-1.28-1.46-1.61c-0.56-0.33-1.16-0.5-1.79-0.5
	c-0.54,0-1.04,0.11-1.49,0.33c-0.46,0.22-0.87,0.53-1.26,0.93c-0.38,0.4-0.73,0.86-1.04,1.39s-0.59,1.09-0.85,1.7h-0.04l-0.44-3.66
	H361v26.33h2.28v-18.7c0.53-1.44,1.16-2.57,1.9-3.39c0.73-0.82,1.49-1.23,2.28-1.23c0.89,0,1.57,0.5,2.04,1.5
	c0.47,1,0.7,2.63,0.7,4.91v16.93h2.28v-17.62c0-1.74-0.12-3.2-0.36-4.39S371.53,527.21,371.12,526.47z M399.53,531.49
	c0.29,1.66,0.43,3.66,0.43,5.99c0,0.22,0,0.41,0,0.57c0,0.16-0.01,0.51-0.01,1.07h-9.64c0,1.68,0.13,3.11,0.4,4.28
	s0.64,2.12,1.1,2.85c0.47,0.73,1.01,1.26,1.64,1.59c0.63,0.33,1.3,0.5,2.03,0.5c0.75,0,1.44-0.12,2.07-0.35
	c0.62-0.23,1.24-0.56,1.86-0.98v3.57c-0.5,0.46-1.12,0.83-1.85,1.09c-0.73,0.27-1.52,0.4-2.37,0.4c-1,0-1.94-0.24-2.81-0.72
	c-0.88-0.48-1.64-1.26-2.28-2.33s-1.14-2.47-1.51-4.2c-0.36-1.73-0.54-3.81-0.54-6.25c0-2.4,0.18-4.48,0.53-6.25
	c0.35-1.76,0.82-3.24,1.41-4.42c0.59-1.18,1.26-2.07,2.02-2.66c0.76-0.59,1.56-0.89,2.39-0.89c0.78,0,1.51,0.25,2.19,0.73
	s1.27,1.26,1.77,2.31C398.85,528.47,399.25,529.82,399.53,531.49z M397.57,535.42c0-1.03-0.07-2-0.22-2.9
	c-0.14-0.9-0.35-1.68-0.63-2.34c-0.28-0.67-0.62-1.19-1.03-1.57c-0.41-0.38-0.88-0.57-1.41-0.57c-0.53,0-1.01,0.19-1.47,0.58
	c-0.45,0.39-0.85,0.91-1.18,1.58c-0.34,0.67-0.61,1.45-0.82,2.34c-0.21,0.9-0.34,1.85-0.39,2.87H397.57z M417.82,525.06h-2.51
	l-3.79,10.14h-0.06l-3.85-10.14h-2.51l5.1,12.91l-5.29,13.41h2.47l4.03-10.53h0.06l4.09,10.53h2.47l-5.29-13.3L417.82,525.06z
	 M435.36,531.69c0.34,1.71,0.51,3.78,0.51,6.22c0,1.83-0.1,3.45-0.29,4.86c-0.19,1.41-0.45,2.65-0.76,3.7
	c-0.32,1.05-0.68,1.93-1.11,2.65c-0.42,0.71-0.86,1.28-1.31,1.72c-0.45,0.43-0.91,0.75-1.38,0.94c-0.47,0.19-0.91,0.29-1.32,0.29
	c-0.86,0-1.6-0.26-2.23-0.79c-0.63-0.53-1.2-1.31-1.7-2.34h-0.04v15.32h-2.23v-39.21h1.72l0.49,2.99h0.04
	c0.13-0.37,0.29-0.73,0.49-1.08c0.2-0.35,0.47-0.72,0.81-1.12c0.34-0.4,0.75-0.74,1.22-1.04c0.48-0.29,0.99-0.44,1.55-0.44
	c0.78,0,1.54,0.25,2.27,0.75c0.73,0.5,1.38,1.29,1.93,2.38C434.57,528.59,435.02,529.99,435.36,531.69z M433.48,537.97
	c0-1.53-0.09-2.91-0.26-4.13c-0.17-1.22-0.43-2.26-0.78-3.12c-0.34-0.86-0.77-1.52-1.27-1.98c-0.5-0.46-1.08-0.69-1.74-0.69
	c-0.47,0-0.9,0.12-1.29,0.36c-0.39,0.24-0.74,0.54-1.06,0.91c-0.32,0.37-0.59,0.77-0.81,1.19c-0.23,0.43-0.41,0.8-0.55,1.14v13.77
	c0.48,0.92,1.03,1.65,1.65,2.19c0.62,0.54,1.28,0.8,1.99,0.8c0.43,0,0.89-0.15,1.37-0.46c0.48-0.3,0.93-0.85,1.34-1.64
	c0.41-0.78,0.75-1.85,1.01-3.2C433.35,541.78,433.48,540.06,433.48,537.97z M453.13,531.49c0.29,1.66,0.43,3.66,0.43,5.99
	c0,0.22,0,0.41,0,0.57c0,0.16-0.01,0.51-0.01,1.07h-9.64c0,1.68,0.13,3.11,0.4,4.28s0.64,2.12,1.1,2.85
	c0.47,0.73,1.01,1.26,1.64,1.59c0.63,0.33,1.3,0.5,2.03,0.5c0.75,0,1.44-0.12,2.07-0.35c0.62-0.23,1.24-0.56,1.86-0.98v3.57
	c-0.5,0.46-1.12,0.83-1.85,1.09c-0.73,0.27-1.52,0.4-2.37,0.4c-1,0-1.94-0.24-2.81-0.72c-0.88-0.48-1.64-1.26-2.28-2.33
	s-1.14-2.47-1.51-4.2c-0.36-1.73-0.54-3.81-0.54-6.25c0-2.4,0.18-4.48,0.53-6.25c0.35-1.76,0.82-3.24,1.41-4.42
	c0.59-1.18,1.26-2.07,2.02-2.66c0.76-0.59,1.56-0.89,2.39-0.89c0.78,0,1.51,0.25,2.19,0.73s1.27,1.26,1.77,2.31
	C452.44,528.47,452.84,529.82,453.13,531.49z M451.16,535.42c0-1.03-0.07-2-0.22-2.9c-0.14-0.9-0.35-1.68-0.63-2.34
	c-0.28-0.67-0.62-1.19-1.03-1.57c-0.41-0.38-0.88-0.57-1.41-0.57c-0.53,0-1.01,0.19-1.47,0.58c-0.45,0.39-0.85,0.91-1.18,1.58
	c-0.34,0.67-0.61,1.45-0.82,2.34c-0.21,0.9-0.34,1.85-0.39,2.87H451.16z M467.49,524.37c-0.54,0-1.05,0.12-1.54,0.37
	c-0.49,0.25-0.94,0.6-1.35,1.04c-0.41,0.44-0.78,0.96-1.11,1.55c-0.33,0.59-0.61,1.23-0.83,1.91h-0.04l-0.44-4.18h-1.76v26.33h2.28
	v-18.34c0.25-0.76,0.55-1.41,0.92-1.97c0.37-0.55,0.78-1.02,1.23-1.4c0.46-0.38,0.94-0.66,1.46-0.85c0.52-0.18,1.05-0.28,1.59-0.28
	h0.18v-4.13c-0.08-0.02-0.17-0.03-0.27-0.04C467.69,524.37,467.59,524.37,467.49,524.37z M475.83,514.14h-2.28v4.79h2.28V514.14z
	 M473.61,551.38h2.28v-26.33h-2.28V551.38z M494.11,531.49c0.29,1.66,0.43,3.66,0.43,5.99c0,0.22,0,0.41,0,0.57
	c0,0.16-0.01,0.51-0.01,1.07h-9.64c0,1.68,0.13,3.11,0.4,4.28s0.64,2.12,1.1,2.85c0.47,0.73,1.01,1.26,1.64,1.59
	c0.63,0.33,1.3,0.5,2.03,0.5c0.75,0,1.44-0.12,2.07-0.35c0.62-0.23,1.24-0.56,1.86-0.98v3.57c-0.5,0.46-1.12,0.83-1.85,1.09
	c-0.73,0.27-1.52,0.4-2.37,0.4c-1,0-1.94-0.24-2.81-0.72c-0.88-0.48-1.64-1.26-2.28-2.33s-1.14-2.47-1.51-4.2
	c-0.36-1.73-0.54-3.81-0.54-6.25c0-2.4,0.18-4.48,0.53-6.25c0.35-1.76,0.82-3.24,1.41-4.42c0.59-1.18,1.26-2.07,2.02-2.66
	c0.76-0.59,1.56-0.89,2.39-0.89c0.78,0,1.51,0.25,2.19,0.73s1.27,1.26,1.77,2.31C493.42,528.47,493.82,529.82,494.11,531.49z
	 M492.14,535.42c0-1.03-0.07-2-0.22-2.9c-0.14-0.9-0.35-1.68-0.63-2.34c-0.28-0.67-0.62-1.19-1.03-1.57
	c-0.41-0.38-0.88-0.57-1.41-0.57c-0.53,0-1.01,0.19-1.47,0.58c-0.45,0.39-0.85,0.91-1.18,1.58c-0.34,0.67-0.61,1.45-0.82,2.34
	c-0.21,0.9-0.34,1.85-0.39,2.87H492.14z M511.51,526.47c-0.41-0.74-0.9-1.28-1.46-1.61c-0.56-0.33-1.16-0.5-1.79-0.5
	c-0.54,0-1.04,0.11-1.49,0.33c-0.46,0.22-0.87,0.53-1.26,0.93c-0.38,0.4-0.73,0.86-1.04,1.39s-0.59,1.09-0.85,1.7h-0.04l-0.44-3.66
	h-1.76v26.33h2.28v-18.7c0.53-1.44,1.16-2.57,1.9-3.39c0.73-0.82,1.49-1.23,2.28-1.23c0.89,0,1.57,0.5,2.04,1.5
	c0.47,1,0.7,2.63,0.7,4.91v16.93h2.28v-17.62c0-1.74-0.12-3.2-0.36-4.39S511.92,527.21,511.51,526.47z M526.57,548.33
	c-0.78,0-1.47-0.25-2.07-0.73s-1.09-1.17-1.49-2.05c-0.4-0.88-0.7-1.92-0.9-3.12c-0.2-1.2-0.3-2.51-0.3-3.94
	c0-1.96,0.13-3.6,0.4-4.92c0.27-1.32,0.62-2.38,1.07-3.19c0.44-0.8,0.94-1.38,1.5-1.73c0.56-0.35,1.12-0.53,1.69-0.53
	c0.54,0,1.07,0.11,1.59,0.33s1.09,0.55,1.71,1v-3.57c-0.44-0.48-0.97-0.85-1.59-1.12c-0.62-0.27-1.26-0.4-1.94-0.4
	c-0.51,0-1.03,0.11-1.57,0.32c-0.54,0.21-1.06,0.55-1.57,1.03c-0.5,0.47-0.98,1.08-1.43,1.82c-0.45,0.74-0.84,1.63-1.17,2.69
	s-0.59,2.27-0.79,3.66c-0.19,1.39-0.29,2.95-0.29,4.68c0,2.33,0.18,4.34,0.54,6.04c0.36,1.7,0.86,3.1,1.48,4.21
	c0.63,1.11,1.36,1.93,2.2,2.47c0.84,0.54,1.73,0.8,2.67,0.8c0.36,0,0.73-0.04,1.09-0.12s0.71-0.19,1.03-0.33s0.62-0.3,0.89-0.48
	s0.49-0.37,0.65-0.55V547c-0.55,0.42-1.11,0.75-1.69,0.98C527.71,548.22,527.14,548.33,526.57,548.33z M547.09,531.49
	c0.29,1.66,0.43,3.66,0.43,5.99c0,0.22,0,0.41,0,0.57c0,0.16-0.01,0.51-0.01,1.07h-9.64c0,1.68,0.13,3.11,0.4,4.28
	s0.64,2.12,1.1,2.85c0.47,0.73,1.01,1.26,1.64,1.59c0.63,0.33,1.3,0.5,2.03,0.5c0.75,0,1.44-0.12,2.07-0.35
	c0.62-0.23,1.24-0.56,1.86-0.98v3.57c-0.5,0.46-1.12,0.83-1.85,1.09c-0.73,0.27-1.52,0.4-2.37,0.4c-1,0-1.94-0.24-2.81-0.72
	c-0.88-0.48-1.64-1.26-2.28-2.33s-1.14-2.47-1.51-4.2c-0.36-1.73-0.54-3.81-0.54-6.25c0-2.4,0.18-4.48,0.53-6.25
	c0.35-1.76,0.82-3.24,1.41-4.42c0.59-1.18,1.26-2.07,2.02-2.66c0.76-0.59,1.56-0.89,2.39-0.89c0.78,0,1.51,0.25,2.19,0.73
	s1.27,1.26,1.77,2.31C546.41,528.47,546.81,529.82,547.09,531.49z M545.13,535.42c0-1.03-0.07-2-0.22-2.9
	c-0.14-0.9-0.35-1.68-0.63-2.34c-0.28-0.67-0.62-1.19-1.03-1.57c-0.41-0.38-0.88-0.57-1.41-0.57c-0.53,0-1.01,0.19-1.47,0.58
	c-0.45,0.39-0.85,0.91-1.18,1.58c-0.34,0.67-0.61,1.45-0.82,2.34c-0.21,0.9-0.34,1.85-0.39,2.87H545.13z M574.06,531.49
	c0.29,1.66,0.43,3.66,0.43,5.99c0,0.22,0,0.41,0,0.57c0,0.16-0.01,0.51-0.01,1.07h-9.64c0,1.68,0.13,3.11,0.4,4.28
	s0.64,2.12,1.1,2.85c0.47,0.73,1.01,1.26,1.64,1.59c0.63,0.33,1.3,0.5,2.03,0.5c0.75,0,1.44-0.12,2.07-0.35
	c0.62-0.23,1.24-0.56,1.86-0.98v3.57c-0.5,0.46-1.12,0.83-1.85,1.09c-0.73,0.27-1.52,0.4-2.37,0.4c-1,0-1.94-0.24-2.81-0.72
	c-0.88-0.48-1.64-1.26-2.28-2.33s-1.14-2.47-1.51-4.2c-0.36-1.73-0.54-3.81-0.54-6.25c0-2.4,0.18-4.48,0.53-6.25
	c0.35-1.76,0.82-3.24,1.41-4.42c0.59-1.18,1.26-2.07,2.02-2.66c0.76-0.59,1.56-0.89,2.39-0.89c0.78,0,1.51,0.25,2.19,0.73
	s1.27,1.26,1.77,2.31C573.38,528.47,573.77,529.82,574.06,531.49z M572.09,535.42c0-1.03-0.07-2-0.22-2.9
	c-0.14-0.9-0.35-1.68-0.63-2.34c-0.28-0.67-0.62-1.19-1.03-1.57c-0.41-0.38-0.88-0.57-1.41-0.57c-0.53,0-1.01,0.19-1.47,0.58
	c-0.45,0.39-0.85,0.91-1.18,1.58c-0.34,0.67-0.61,1.45-0.82,2.34c-0.21,0.9-0.34,1.85-0.39,2.87H572.09z M592.34,525.06h-2.51
	l-3.79,10.14h-0.06l-3.85-10.14h-2.51l5.1,12.91l-5.29,13.41h2.47l4.03-10.53h0.06l4.09,10.53h2.47l-5.29-13.3L592.34,525.06z
	 M609.88,531.69c0.34,1.71,0.51,3.78,0.51,6.22c0,1.83-0.1,3.45-0.29,4.86c-0.19,1.41-0.45,2.65-0.76,3.7
	c-0.32,1.05-0.68,1.93-1.11,2.65c-0.42,0.71-0.86,1.28-1.31,1.72c-0.45,0.43-0.91,0.75-1.38,0.94c-0.47,0.19-0.91,0.29-1.32,0.29
	c-0.86,0-1.6-0.26-2.23-0.79c-0.63-0.53-1.2-1.31-1.7-2.34h-0.04v15.32h-2.23v-39.21h1.72l0.49,2.99h0.04
	c0.13-0.37,0.29-0.73,0.49-1.08c0.2-0.35,0.47-0.72,0.81-1.12c0.34-0.4,0.75-0.74,1.22-1.04c0.48-0.29,0.99-0.44,1.55-0.44
	c0.78,0,1.54,0.25,2.27,0.75c0.73,0.5,1.38,1.29,1.93,2.38C609.09,528.59,609.54,529.99,609.88,531.69z M608.01,537.97
	c0-1.53-0.09-2.91-0.26-4.13c-0.17-1.22-0.43-2.26-0.78-3.12c-0.34-0.86-0.77-1.52-1.27-1.98c-0.5-0.46-1.08-0.69-1.74-0.69
	c-0.47,0-0.9,0.12-1.29,0.36c-0.39,0.24-0.74,0.54-1.06,0.91c-0.32,0.37-0.59,0.77-0.81,1.19c-0.23,0.43-0.41,0.8-0.55,1.14v13.77
	c0.48,0.92,1.03,1.65,1.65,2.19c0.62,0.54,1.28,0.8,1.99,0.8c0.43,0,0.89-0.15,1.37-0.46c0.48-0.3,0.93-0.85,1.34-1.64
	c0.41-0.78,0.75-1.85,1.01-3.2C607.87,541.78,608.01,540.06,608.01,537.97z M617.12,551.38h2.28v-40.12h-2.28V551.38z
	 M638.92,532.57c0.3,1.7,0.46,3.59,0.46,5.68c0,2.07-0.16,3.95-0.47,5.65c-0.31,1.7-0.76,3.15-1.33,4.36
	c-0.57,1.21-1.27,2.15-2.08,2.81s-1.72,1-2.73,1c-1.04,0-1.97-0.33-2.79-1c-0.82-0.67-1.51-1.6-2.09-2.81s-1.01-2.67-1.32-4.36
	c-0.3-1.7-0.46-3.58-0.46-5.65c0-2.09,0.16-3.98,0.47-5.68c0.31-1.7,0.76-3.16,1.33-4.38c0.57-1.22,1.27-2.16,2.09-2.83
	c0.82-0.67,1.73-1,2.74-1c1.03,0,1.96,0.33,2.78,1s1.52,1.61,2.09,2.83C638.18,529.41,638.62,530.87,638.92,532.57z M637,538.25
	c0-1.62-0.11-3.07-0.32-4.34c-0.21-1.26-0.5-2.34-0.88-3.21c-0.38-0.88-0.83-1.54-1.34-2s-1.09-0.68-1.71-0.68
	c-0.62,0-1.19,0.23-1.7,0.68c-0.52,0.45-0.97,1.12-1.34,2c-0.38,0.88-0.67,1.95-0.88,3.21c-0.21,1.27-0.32,2.71-0.32,4.34
	c0,1.61,0.11,3.04,0.32,4.31c0.21,1.27,0.51,2.33,0.89,3.2s0.83,1.53,1.35,1.98c0.52,0.45,1.09,0.68,1.71,0.68
	c0.62,0,1.18-0.23,1.7-0.68c0.51-0.45,0.96-1.11,1.34-1.98c0.38-0.87,0.67-1.94,0.88-3.2C636.89,541.29,637,539.86,637,538.25z
	 M653.04,524.37c-0.54,0-1.05,0.12-1.54,0.37c-0.49,0.25-0.94,0.6-1.35,1.04c-0.41,0.44-0.78,0.96-1.11,1.55
	c-0.33,0.59-0.61,1.23-0.83,1.91h-0.04l-0.44-4.18h-1.76v26.33h2.28v-18.34c0.25-0.76,0.55-1.41,0.92-1.97
	c0.37-0.55,0.78-1.02,1.23-1.4c0.46-0.38,0.94-0.66,1.46-0.85c0.52-0.18,1.05-0.28,1.59-0.28h0.18v-4.13
	c-0.08-0.02-0.17-0.03-0.27-0.04C653.24,524.37,653.14,524.37,653.04,524.37z M669.7,531.49c0.29,1.66,0.43,3.66,0.43,5.99
	c0,0.22,0,0.41,0,0.57c0,0.16-0.01,0.51-0.01,1.07h-9.64c0,1.68,0.13,3.11,0.4,4.28s0.64,2.12,1.1,2.85
	c0.47,0.73,1.01,1.26,1.64,1.59c0.63,0.33,1.3,0.5,2.03,0.5c0.75,0,1.44-0.12,2.07-0.35c0.62-0.23,1.24-0.56,1.86-0.98v3.57
	c-0.5,0.46-1.12,0.83-1.85,1.09c-0.73,0.27-1.52,0.4-2.37,0.4c-1,0-1.94-0.24-2.81-0.72c-0.88-0.48-1.64-1.26-2.28-2.33
	s-1.14-2.47-1.51-4.2c-0.36-1.73-0.54-3.81-0.54-6.25c0-2.4,0.18-4.48,0.53-6.25c0.35-1.76,0.82-3.24,1.41-4.42
	c0.59-1.18,1.26-2.07,2.02-2.66c0.76-0.59,1.56-0.89,2.39-0.89c0.78,0,1.51,0.25,2.19,0.73s1.27,1.26,1.77,2.31
	C669.02,528.47,669.41,529.82,669.7,531.49z M667.74,535.42c0-1.03-0.07-2-0.22-2.9c-0.14-0.9-0.35-1.68-0.63-2.34
	c-0.28-0.67-0.62-1.19-1.03-1.57c-0.41-0.38-0.88-0.57-1.41-0.57c-0.53,0-1.01,0.19-1.47,0.58c-0.45,0.39-0.85,0.91-1.18,1.58
	c-0.34,0.67-0.61,1.45-0.82,2.34c-0.21,0.9-0.34,1.85-0.39,2.87H667.74z M686.27,511.26h2.28v40.12h-1.72l-0.47-2.94h-0.06
	c-0.18,0.43-0.38,0.85-0.62,1.29c-0.23,0.43-0.51,0.83-0.83,1.18c-0.32,0.35-0.69,0.63-1.1,0.84c-0.42,0.21-0.9,0.32-1.45,0.32
	c-0.76,0-1.51-0.25-2.25-0.73c-0.73-0.49-1.39-1.27-1.96-2.35c-0.57-1.08-1.04-2.48-1.39-4.18c-0.35-1.71-0.53-3.79-0.53-6.25
	c0-1.83,0.1-3.45,0.29-4.86c0.19-1.41,0.44-2.65,0.76-3.7s0.68-1.93,1.1-2.65c0.42-0.71,0.86-1.29,1.31-1.73
	c0.45-0.44,0.91-0.76,1.37-0.96c0.46-0.19,0.9-0.29,1.32-0.29c0.85,0,1.59,0.27,2.22,0.8s1.19,1.32,1.69,2.36h0.04V511.26z
	 M686.27,531.04c-0.47-0.9-1.01-1.63-1.63-2.17s-1.28-0.82-2-0.82c-0.43,0-0.88,0.15-1.36,0.46c-0.48,0.3-0.92,0.85-1.32,1.65
	c-0.41,0.79-0.74,1.86-1.01,3.2s-0.4,3.05-0.4,5.14c0,1.52,0.09,2.89,0.27,4.12c0.18,1.23,0.44,2.27,0.79,3.13
	c0.34,0.86,0.76,1.52,1.26,1.98c0.5,0.46,1.07,0.69,1.72,0.69c0.48,0,0.92-0.12,1.31-0.36s0.74-0.54,1.05-0.91
	c0.31-0.37,0.57-0.76,0.79-1.18c0.22-0.42,0.39-0.8,0.52-1.15V531.04z M695.64,539.58h6.48v-4.02h-6.48V539.58z"/>
<g>
</g>
<g>
</g>
<g>
</g>
<g>
</g>
<g>
</g>
<g>
</g>
</svg>
