<?xml version="1.0" encoding="utf-8"?>
<!-- Generator: Adobe Illustrator 24.3.0, SVG Export Plug-In . SVG Version: 6.00 Build 0)  -->
<svg version="1.1" id="Layer_1" xmlns="http://www.w3.org/2000/svg" xmlns:xlink="http://www.w3.org/1999/xlink" x="0px" y="0px"
	 viewBox="0 0 864 864" style="enable-background:new 0 0 864 864;" xml:space="preserve">
<g id="stones">
	<path d="M725.77,311.85c-5.27,4.08-9.7,8.15-14.74,11.22c-4.31,2.63-9.14,4.9-14.04,5.93c-6.1,1.28-9.59-2.34-8.02-8.35
		c1.26-4.83,3.81-9.52,6.64-13.7c3.78-5.58,8.4-10.59,12.65-15.85c-0.24-0.58-0.47-1.16-0.71-1.74c-2.25,0.51-5.12,0.33-6.64,1.67
		c-5.58,4.92-11.02,10.06-15.92,15.65c-5.25,5.99-9.66,12.71-14.75,18.85c-4.7,5.67-8.44,5.91-15.22,1.25
		c4.99-6.35,9.97-12.68,14.94-19.01c-0.19-0.22-0.37-0.45-0.56-0.67c-0.72,0.44-1.54,0.77-2.13,1.33
		c-9.55,9.13-19.94,16.37-33.79,17.51c-4.32,0.36-8.45,2.8-12.74,4.07c-1.88,0.56-3.92,0.78-5.88,0.79
		c-7.11,0.03-10.5-3.46-10.12-10.46c0.14-2.61,0.73-5.2,1.27-8.8c-3.84,3.31-6.9,6.48-10.46,8.89c-5.6,3.78-11.16,8.14-17.42,10.29
		c-11.84,4.08-18.17-2.2-15.62-14.4c0.37-1.77,0.88-3.52,1.49-5.92c-1.35,0.6-2.37,1.05-3.4,1.5c-0.24-0.26-0.47-0.52-0.71-0.78
		c5.08-4.75,10.16-9.5,15.26-14.28c-4.95-3.96-4.86-8.53,0.77-9.56c9.47-1.73,12.85-9.01,17.44-15.49
		c6.94-9.78,12.14-12.13,23.74-10.12c-7.57,7.82-14.82,15.32-22.31,23.07c12.82,4.66,12.98,4.78,13.88,9.54
		c-2.18-0.94-4.18-2.01-6.32-2.68c-7.9-2.45-12.71-1.18-17.12,5.52c-4.36,6.62-8.33,13.57-11.74,20.72
		c-1.05,2.2-0.67,6.33,0.82,8.09c1.09,1.29,5.77,1.18,7.61-0.1c8.98-6.21,17.65-12.87,26.21-19.65c5.98-4.74,11.13-10.7,17.55-14.68
		c4.85-3.01,11.05-4.94,16.75-5.24c10.95-0.56,16.74,8.01,12.17,17.97c-2.48,5.4-7.12,9.83-10.93,14.58
		c-1.1,1.37-2.71,2.32-4.09,3.46c0.27,0.48,0.54,0.96,0.81,1.44c5.17-2.71,10.81-4.8,15.39-8.28c6.46-4.89,12.34-10.6,18.07-16.35
		c3.82-3.83,7.52-8.15,4.49-14.46c7.55,0.97,8.42,5.79,5.69,19.69c3.81-4.08,6.97-8.47,11.09-11.57c3.68-2.76,8.28-5.15,12.76-5.79
		c7.11-1.03,11.25,4.8,8.59,11.57c-1.55,3.95-4.3,7.44-6.63,11.06c-2.81,4.35-5.75,8.62-8.64,12.93c0.43,0.56,0.87,1.12,1.3,1.68
		c2.18-0.65,4.86-0.71,6.45-2.05c7.42-6.29,15.02-12.49,21.66-19.56c9.77-10.4,20.94-16.97,35.52-15.46
		c3.01,0.31,6.76,2.48,8.38,4.96c2.09,3.21-0.33,6.72-3.07,9.16c-6.85,6.08-14.82,9.1-24.18,8.79c5.16-1.75,10.16-3.26,15-5.17
		c2.11-0.83,4.5-2.08,5.69-3.86c1.4-2.07,1.63-4.92,2.37-7.44c-2.4-0.63-4.93-2.1-7.18-1.75c-10.08,1.56-22.43,15.09-23.57,25.24
		c-0.83,7.4,3.18,11.16,10.46,9.48c10.89-2.51,19.44-9.28,27.8-16.11c7.72-6.3,14.83-13.37,22.62-19.59
		c4.36-3.48,9.33-6.41,14.44-8.63c3.04-1.32,6.9-0.75,10.02-1.01c-5.81,14.04-11.25,27.2-16.69,40.36c0.17,0.36,0.35,0.72,0.52,1.08
		c8.74-6.13,17.48-12.26,26.47-18.57c-13.83,15.11-28.81,27.49-50.54,26.67c-5.78-0.22-10.36-3.18-12.57-9.15
		c3.51,3.79,8.02,5.81,12.56,3.8c4.22-1.86,8.19-4.93,11.35-8.32c3.23-3.47,5.35-7.98,7.95-12.03c2.6-4.05,4.83-8.41,7.9-12.07
		c3.04-3.62,6.92-6.54,10.29-10.55c-2.66,0.89-5.73,1.22-7.91,2.78c-9.45,6.73-18.61,13.88-27.94,20.77
		c-9.46,6.99-18.83,14.13-28.61,20.65c-3.32,2.21-7.69,3.19-11.72,3.95C732.6,333.11,725.66,326.83,725.77,311.85z M648.84,309.23
		c2.47-4.52,5.19-8.63,1.87-13.33c-2.71-3.83-7.75-4.68-14.19-2.3c-11.04,4.09-18.09,12.09-21.56,23.19
		c-2.23,7.13,2.02,11.34,9.4,9.56c1.86-0.45,3.65-1.21,5.52-1.85c-2.49-5.13-1.2-9.21,3.95-13.74
		C638.99,306.24,643.64,305.7,648.84,309.23z"/>
	<path d="M590.43,233.85c-2.9-0.05-5.93-0.69-8.67-0.05c-15.53,3.62-28.72,12.05-41.42,21.21c-5.64,4.07-11,8.65-15.87,13.6
		c-5.73,5.81-4.95,9.93,2.23,13.65c5.59,2.89,11.57,5.03,17.24,7.78c9.2,4.46,13.34,11.02,12.13,19.11
		c-0.96,6.41-5.24,10.72-10.31,14.04c-14.96,9.79-31.77,12.52-49.16,10.98c-7.29-0.65-14.56-3.2-21.49-5.81
		c-6.15-2.32-10.7-6.92-12.68-13.27c23.03,9.66,46.14,11.65,69.47,1.57c3.9-1.69,7.54-4.27,10.87-6.97
		c7.65-6.2,6.46-13.7-2.65-17.74c-4.25-1.88-8.69-3.34-12.88-5.33c-3.28-1.56-6.54-3.35-9.41-5.55c-6.61-5.07-7.97-12.05-4.24-19.5
		c3.94-7.86,10.53-13.19,17.53-18.05c15.67-10.9,32.69-18.5,52-19.55c4.31-0.23,9.02,0.6,13.01,2.24c6.27,2.57,7.67,8.69,3.29,13.87
		c-4.81,5.69-10.23,10.88-15.54,16.14c-7.48,7.4-14.89,14.81-17.09,26.06c-4.8-3.7-5.4-8.41-4.01-13.45
		c2.7-9.81,9.04-17.28,16.39-23.94c3.65-3.31,7.61-6.28,11.43-9.4C590.53,234.93,590.48,234.39,590.43,233.85z"/>
</g>
<g id="turning.show">
	<path d="M418.95,354.86c7.3,7.2,7.48,10.38,0.38,18.03c-6.78,7.3-14.2,14.04-20.71,21.56c-3.26,3.77-5.14,8.74-7.84,13.5
		c-3.24-2.75-4.27-6.74-2.95-11.4c3.43-12.16,11.93-20.48,21.48-27.96c1.54-1.21,3.11-2.38,4.64-4.89
		c-1.91-0.25-4.25-1.34-5.66-0.62c-10.76,5.53-23.47,6.46-33.22,14.31c-7.25,5.83-15.04,11.04-21.88,17.3
		c-7.08,6.48-6.04,10.78,2.63,14.94c3.89,1.87,7.93,3.45,11.89,5.18c1.22,0.53,2.45,1.06,3.6,1.71c13.18,7.4,14.46,19.36,2.81,28.91
		c-10.34,8.48-22.93,10.95-35.81,12.08c-11.83,1.04-23.24-0.64-33.87-6.26c-5.46-2.88-8.49-6.41-10.11-11.87
		c15.87,8.08,32.57,8.6,49.57,6.41c9.31-1.2,17.52-5.12,24.78-10.95c7.78-6.24,6.84-13.08-2.23-17.16
		c-5.9-2.66-12.07-4.85-17.63-8.09c-9.92-5.78-12-14.42-4.92-23.43c4.63-5.9,11.05-10.41,16.75-15.44c1.48-1.3,3.28-2.23,5.63-3.78
		c-7.65-4.27-13.97-9.21-12.75-19.01c0.52,1.19,0.93,2.46,1.59,3.57c1.84,3.11,3.38,6.53,5.79,9.14c4.79,5.19,6.92,5.2,13.43,2.24
		c10.49-4.76,21.28-8.46,32.95-9.12c1.59-0.09,3.72-1.04,4.58-2.29c9.38-13.6,18.55-27.34,27.78-41.05
		c-0.37-0.28-0.75-0.56-1.12-0.83c-4.65,4.13-9.08,8.54-14.01,12.29c-3.65,2.77-7.71,5.42-12.02,6.83
		c-10,3.27-16.38-2.47-14.91-12.79c0.11-0.81,0.24-1.61,0.49-3.26c-3.94,3.11-7.04,6.2-10.72,8.31c-5.39,3.1-10.96,6.36-16.88,7.95
		c-6.26,1.68-9.79-2.19-8.22-8.54c1.09-4.38,3.41-8.62,5.91-12.44c2.81-4.29,6.48-8,9.7-12.02c1.3-1.62,2.43-3.39,3.63-5.1
		c-0.24-0.52-0.49-1.04-0.73-1.56c-2.3,0.61-5.19,0.54-6.8,1.94c-5.35,4.67-10.57,9.59-15.23,14.94
		c-5.56,6.39-10.29,13.49-15.73,19.99c-4.35,5.19-8.56,5.21-14.53,0.51c4.7-6,9.41-12.02,14.12-18.04c-0.2-0.14-0.41-0.28-0.61-0.42
		c-7.36,5.25-14.5,10.88-22.18,15.61c-4.27,2.64-9.32,4.66-14.26,5.44c-9.09,1.43-13.77-5.11-10.42-13.69
		c0.82-2.11,2.04-4.06,2.63-6.67c-2.6,2.05-5.2,4.11-7.8,6.16c-3.53,2.77-6.97,5.67-10.64,8.25c-2.43,1.71-5.08,3.24-7.83,4.33
		c-4.38,1.74-9.43,3.44-13.03-0.67c-3.39-3.87-1.58-8.78,0.87-12.55c4.07-6.24,8.79-12.06,13.24-18.05
		c1.35-1.82,2.71-3.63,4.07-5.44c-0.25-0.54-0.49-1.08-0.74-1.63c-2.29,0.59-5.2,0.49-6.77,1.89c-5.56,4.94-10.98,10.12-15.86,15.71
		c-5.35,6.13-9.87,12.98-15.11,19.21c-4.41,5.25-8.57,5.29-14.6,0.58c4.62-5.91,9.25-11.83,13.88-17.76
		c-0.17-0.13-0.34-0.26-0.5-0.39c-7,5.15-13.86,10.5-21.05,15.37c-5.55,3.76-11.51,6.62-18.7,5.14c-6.41-1.33-9.58-5.37-7.19-11.44
		c1.91-4.84,5.37-9.07,8.19-13.54c2.18-3.46,4.43-6.86,6.67-10.33c-6.14-3.22-8.92-2.57-12.72,1.52
		c-5.19,5.6-10.69,10.92-16.09,16.33c-0.51,0.51-1.25,0.8-2.71,0.33c1.29-1.29,2.57-2.6,3.88-3.88c3.31-3.27,6.81-6.37,9.9-9.84
		c2.86-3.21,5.1-6.22,4.85-11.56c-0.2-4.19,3.73-8.76,6.4-12.79c0.72-1.09,4.41-1.7,5.12-0.96c1.19,1.24,1.98,4.09,1.35,5.61
		c-1.6,3.9-4.08,7.45-5.83,10.5c4.39,0,9.35-0.38,14.21,0.16c2.53,0.28,5.74,1.6,7,3.52c0.81,1.24-0.95,4.71-2.28,6.69
		c-4.25,6.33-8.95,12.36-13.18,18.7c-0.81,1.21-0.99,4.01-0.19,4.82c0.91,0.92,3.55,1.08,4.92,0.46
		c14.93-6.81,27.75-16.4,37.04-30.09c1.41-2.08,0.84-5.49,1.2-8.32c6.19,0.39,7.42,4.81,4.5,20.16c2.76-3.26,4.7-5.76,6.86-8.07
		c4.69-5.01,9.47-9.99,17.02-10.23c7.51-0.24,11.72,5.18,8.65,12.08c-2.27,5.09-5.97,9.53-9.02,14.27c-2.01,3.12-4,6.26-6.15,9.63
		c4.61,2.5,7.42,0.14,9.78-1.82c9.34-7.74,18.44-15.78,27.64-23.68c2.52-2.16,4.89-4.65,7.75-6.23c2.5-1.38,5.58-1.7,9.17-2.71
		c-4.25,7.37-7.96,13.39-11.21,19.64c-1.59,3.05-2.66,6.48-3.36,9.86c-1.11,5.43,1.2,7.38,6.28,5.25c3.8-1.59,7.63-3.47,10.86-5.98
		c6.8-5.3,13.58-10.75,19.67-16.83c4.04-4.03,9.21-8.38,5.25-15.72c7.63,1.46,8.64,5.19,5.76,20.49c2.6-3.1,4.33-5.33,6.24-7.4
		c4.64-5.04,9.33-10.13,16.75-10.82c8.33-0.78,12.89,5.1,9.19,12.63c-2.9,5.91-7.2,11.12-10.8,16.69c-1.39,2.15-2.55,4.44-3.82,6.66
		c0.36,0.49,0.73,0.97,1.09,1.46c2.32-0.73,5.16-0.85,6.88-2.29c7.09-5.94,14.51-11.7,20.57-18.62
		c9.29-10.62,20.1-17.22,34.39-17.41c5.69-0.08,10.23,2.34,13.81,6.77c0.85,1.06,2.23,1.71,3.42,2.46c1.9,1.2,3.84,2.32,5.17,3.12
		c-10.28,14.99-20.05,29.52-30.14,43.82C426.69,346.63,422.62,350.62,418.95,354.86z M413.18,325.85c1.18-0.53,3.29-0.98,4.71-2.21
		c8.71-7.6,17.32-15.33,25.83-23.16c1.28-1.18,2.1-2.99,2.77-4.66c1.35-3.32-0.26-5.67-3.79-5.53c-1.45,0.05-2.95,0.52-4.32,1.08
		c-12.64,5.17-21.8,14.2-28.47,25.92c-0.65,1.14-1.15,2.42-1.41,3.7C407.85,324.11,409.27,325.71,413.18,325.85z"/>
	<path d="M426.98,404.69c1.33-0.73,2.74-1.33,3.96-2.2c9.58-6.82,19.41-13.33,28.53-20.73c3.4-2.75,5.37-7.46,7.43-11.55
		c0.74-1.47,0.49-4.77-0.52-5.46c-1.39-0.95-4.35-0.96-5.91-0.08c-4.45,2.52-8.89,5.3-12.7,8.69
		c-15.65,13.96-28.01,30.63-38.96,48.4c-0.23,0.37-0.25,0.87,0.38,1.99c2.75-2.93,5.14-6.38,8.36-8.65
		c3.14-2.21,7.02-3.92,10.79-4.56c7.09-1.2,11.76,4.05,9.71,10.93c-1.35,4.53-3.96,8.72-6.16,12.97c-2.24,4.31-4.67,8.53-7.02,12.78
		c0.45,0.51,0.9,1.02,1.35,1.53c1.95-0.79,4.24-1.17,5.81-2.44c10.2-8.24,20.13-16.82,30.39-24.99c4.63-3.69,9.45-7.72,14.88-9.65
		c4.82-1.72,10.83-1.78,15.91-0.7c6.54,1.39,8.9,6.97,7.46,13.59c-1.61,7.36-6.34,12.66-11.67,17.53c-1.57,1.44-3.32,2.68-6.06,4.87
		c9.82-2.12,16.9-6.45,23.22-12.2c6.64-6.05,13.15-12.23,19.91-18.15c3.33-2.92,7-5.64,11.26-3.83
		c-4.11,7.73-8.51,15.12-11.96,22.94c-1.4,3.16-0.7,7.25-0.96,10.92c3.42-1.64,7.56-2.55,10.12-5.06
		c5.8-5.68,10.63-12.34,16.27-18.21c2.43-2.53,5.73-4.39,8.92-5.95c1.34-0.66,3.45,0.23,4.56,0.34c-3.39,7.4-6.51,14.08-9.48,20.82
		c-0.58,1.32-0.79,2.89-0.84,4.36c-0.15,3.72,1.77,5.22,4.86,3.23c7.39-4.76,14.68-9.57,15.4-19.92c0.28-4.08,2.34-8.28,4.46-11.92
		c2.68-4.61,7.49-5.55,13.6-3.29c-2.4,3.27-4.96,6.27-6.95,9.59c-2.29,3.81-4.3,7.83-5.96,11.95c-0.57,1.42,0.29,3.41,0.5,5.14
		c1.67-0.37,3.59-0.33,4.95-1.19c3.06-1.94,5.83-4.32,8.82-6.61c-1.38,4.44-10.21,11.88-14.3,11.38c-2.22-0.27-4.24-2.25-7.03-3.85
		c-2.43,2.31-5.5,5.81-9.16,8.54c-3.53,2.64-7.41,5.38-11.56,6.49c-8.23,2.21-12.59-1.87-12.68-11.72
		c-2.34,2.04-4.04,3.95-6.12,5.25c-3.89,2.43-7.79,5.18-12.08,6.54c-3.99,1.27-9.18,0.71-10.93-3.59
		c-1.32-3.24-0.48-7.62,0.24-11.33c0.42-2.19,2.49-4.05,3.62-5.77c-6.5,4.44-12.63,10.16-19.89,13.2
		c-9.68,4.06-20.11,6.64-30.45,8.73c-10.99,2.23-15.7-3.35-13.13-14.22c0.29-1.25,0.66-2.48,1.33-4.94
		c-4.49,3.49-7.91,6.47-11.66,8.98c-4.53,3.04-9.06,6.51-14.12,8.19c-3.25,1.08-8.6,0.49-10.88-1.64
		c-1.85-1.73-1.34-7.07-0.41-10.39c0.94-3.35,3.56-6.29,5.69-9.24c2.62-3.64,5.73-6.94,8.15-10.7c1.09-1.69,1-4.13,1.45-6.22
		c-2.2,0.14-4.82-0.43-6.52,0.57c-3.82,2.26-7.91,4.72-10.57,8.13c-6.4,8.21-11.94,17.08-18.04,25.52c-1.55,2.15-3.9,3.71-5.89,5.54
		c-0.48-0.41-0.96-0.81-1.44-1.22c3.32-8.31,6.63-16.61,10.49-26.26c-4.69,4.08-8.23,7.17-11.78,10.26
		c-0.38-0.37-0.76-0.74-1.14-1.12c1.36-1.37,2.64-2.82,4.08-4.09c6.28-5.5,11.61-11.56,15.67-19.11
		c8.83-16.44,19.31-31.83,32.79-44.97c5.96-5.81,12.69-10.18,21.03-11.67c10.87-1.93,16.65,4.22,12.44,14.3
		c-2.41,5.77-6.18,11.74-10.97,15.6c-8.99,7.25-19.14,13.06-28.86,19.4c-1.01,0.66-2.35,0.81-3.53,1.2
		C427.31,405.39,427.14,405.04,426.98,404.69z M475.01,447.99c-3.91-5.76-0.4-9.22,2.75-12.55c5.32-5.62,9.79-6.41,15.78-3.17
		c3.8-5.11,4.72-9.59,2.24-12.67c-3.36-4.17-7.81-4.59-12.63-3.03c-12.14,3.94-19.9,12.16-23.35,24.34c-1.82,6.43,2,10.44,8.58,9.22
		C470.45,449.76,472.42,448.85,475.01,447.99z"/>
	<path d="M33.07,261.07c-3.7-2.06-4.6-4.98-4.23-8.43c0.94-8.72,6.83-14.05,14.21-16.47c13.03-4.28,26.34-8.23,39.84-10.47
		c26-4.32,52.08-4.12,77.42,4.4c5.7,1.92,11.23,5.05,16.06,8.65c4.93,3.68,5.41,9.81,2.03,14.2c-1.23,1.6-3.36,2.51-5.08,3.73
		c-0.4-0.36-0.79-0.72-1.19-1.08c0.58-1.42,1.09-2.88,1.76-4.25c2.75-5.65,1.97-9.39-4.02-11.57c-6.32-2.3-13.09-4.04-19.78-4.53
		c-33.45-2.46-66.41,1.23-98.91,9.21c-4.8,1.18-9.47,3.15-13.95,5.28C31.33,252.56,30.64,254.78,33.07,261.07z"/>
	<path d="M132.7,289.93c-5.96-0.03-9.35,4.71-13.43,7.99c-4.25,3.42-8.21,7.21-12.93,10.41c0.34-0.72,0.51-1.63,1.05-2.13
		c5.58-5.23,11.07-10.57,16.92-15.49c2.18-1.83,5.13-3.32,7.92-3.77c8.88-1.43,13.62,4.68,9.54,12.73
		c-2.97,5.87-7.37,11.02-11.02,16.57c-1.35,2.05-2.39,4.32-3.57,6.48c0.49,0.51,0.99,1.01,1.48,1.52c2.43-1.34,5.36-2.2,7.2-4.11
		c8.41-8.73,16.56-17.71,24.69-26.7c4.81-5.31,8.75-5.7,14.79-0.94c-8.92,13.51-22.76,24.22-25.24,41.69
		c-5.89-1.75-6.45-6.65-1.74-23.28c-3.63,3.62-6.66,6.95-10.01,9.91c-4.61,4.07-9.26,8.27-16.04,8.13
		c-5.59-0.11-8.56-3.25-7.26-8.69c0.94-3.94,2.61-7.91,4.84-11.28c3.01-4.55,6.91-8.51,10.35-12.78c1.29-1.6,2.38-3.37,3.56-5.06
		C133.43,290.73,133.07,290.33,132.7,289.93z"/>
	<path d="M117.99,239.19c-2.17,3.27-4.35,6.54-6.52,9.81c-11.51,17.33-22.6,34.94-29.66,54.61c-2.89,8.05-4.62,16.62-5.9,25.1
		c-1.37,9.06,3,12.77,11.99,11.35c-9.5,5.98-21.26,0.91-22.6-9.99c-1.68-13.75,3.09-26.18,10.33-37.21
		c11.76-17.9,24.64-35.08,37.15-52.49c0.86-1.2,2.55-1.81,3.86-2.7C117.09,238.18,117.54,238.68,117.99,239.19z"/>
	<path id="circle.i" d="M325.08,280.01c0.14-5.72,4.94-10.64,8.81-9.77c1.59,0.36,3.65,2.81,3.81,4.47
		c0.36,3.77-4.79,8.56-8.46,8.03C327.51,282.5,326,280.66,325.08,280.01z"/>
</g>
<g>
	<path d="M171.88,503.78h7.18v4.02h-7.18V503.78z"/>
	<path d="M194.91,519.66c-0.22,0.15-0.55,0.29-0.99,0.42c-0.45,0.13-0.98,0.2-1.6,0.22c-0.81,0-1.52-0.17-2.12-0.51
		c-0.6-0.34-1.09-0.83-1.49-1.47c-0.4-0.64-0.69-1.41-0.89-2.31c-0.2-0.9-0.29-1.91-0.29-3.02v-16.02h-2.98v-3.69h2.98v-7.2h2.52
		v7.2h4.62v3.69h-4.62v15.35c0,0.61,0.05,1.17,0.15,1.69c0.1,0.52,0.27,0.97,0.49,1.34c0.22,0.38,0.51,0.67,0.85,0.89
		c0.35,0.21,0.77,0.32,1.25,0.32c0.34,0,0.69-0.05,1.07-0.14c0.37-0.09,0.72-0.21,1.03-0.36V519.66z"/>
	<path d="M204.31,496.88h0.05c0.28-0.61,0.6-1.18,0.94-1.7s0.73-0.98,1.16-1.36s0.88-0.68,1.37-0.9s1.01-0.33,1.58-0.33
		c0.59,0,1.17,0.13,1.76,0.4c0.59,0.27,1.13,0.74,1.63,1.43s0.91,1.63,1.22,2.85c0.31,1.22,0.47,2.79,0.47,4.71v17.62h-2.52v-16.93
		c0-2.12-0.24-3.72-0.71-4.79s-1.25-1.61-2.32-1.61c-0.89,0-1.74,0.41-2.54,1.23c-0.8,0.82-1.5,1.95-2.08,3.39v18.7h-2.52v-40.12
		h2.52V496.88z"/>
	<path d="M230.01,516.56c0.84,0,1.6-0.12,2.29-0.35c0.69-0.23,1.38-0.56,2.06-0.98v3.57c-0.55,0.46-1.24,0.83-2.05,1.09
		c-0.81,0.27-1.69,0.4-2.62,0.4c-1.11,0-2.15-0.24-3.12-0.72c-0.97-0.48-1.81-1.26-2.52-2.33c-0.71-1.07-1.27-2.47-1.67-4.2
		c-0.4-1.73-0.6-3.81-0.6-6.25c0-2.4,0.19-4.48,0.58-6.25c0.39-1.76,0.91-3.24,1.56-4.42c0.65-1.18,1.4-2.07,2.24-2.66
		c0.84-0.59,1.73-0.89,2.65-0.89c0.87,0,1.67,0.25,2.43,0.73c0.75,0.49,1.4,1.26,1.96,2.31c0.55,1.05,0.99,2.41,1.31,4.07
		c0.32,1.66,0.48,3.66,0.48,5.99c0,0.22,0,0.41,0,0.57c0,0.16-0.01,0.51-0.02,1.07h-10.68c0,1.68,0.15,3.11,0.45,4.28
		s0.71,2.12,1.22,2.85c0.52,0.73,1.12,1.26,1.81,1.59C228.46,516.39,229.21,516.56,230.01,516.56z M228.68,496.27
		c-0.58,0-1.12,0.19-1.62,0.58s-0.94,0.91-1.31,1.58s-0.68,1.45-0.91,2.34c-0.23,0.9-0.37,1.85-0.43,2.87h7.91
		c0-1.03-0.08-2-0.24-2.9c-0.16-0.9-0.39-1.68-0.7-2.34s-0.69-1.19-1.14-1.57S229.27,496.27,228.68,496.27z"/>
	<path d="M255.21,496.88h0.05c0.28-0.61,0.6-1.18,0.94-1.7s0.73-0.98,1.16-1.36s0.88-0.68,1.37-0.9s1.01-0.33,1.58-0.33
		c0.59,0,1.17,0.13,1.76,0.4c0.59,0.27,1.13,0.74,1.63,1.43s0.91,1.63,1.22,2.85c0.31,1.22,0.47,2.79,0.47,4.71v17.62h-2.52v-16.93
		c0-2.12-0.24-3.72-0.71-4.79s-1.25-1.61-2.32-1.61c-0.89,0-1.74,0.41-2.54,1.23c-0.8,0.82-1.5,1.95-2.08,3.39v18.7h-2.52v-40.12
		h2.52V496.88z"/>
	<path d="M279.71,520.3c-0.8,0-1.52-0.15-2.17-0.44c-0.64-0.29-1.2-0.71-1.68-1.25c-0.48-0.54-0.89-1.18-1.23-1.93
		c-0.34-0.75-0.6-1.57-0.8-2.45c-0.15-0.67-0.26-1.39-0.33-2.19c-0.06-0.79-0.1-1.66-0.1-2.61v-16.16h2.52v16.13
		c0,1.46,0.11,2.68,0.34,3.66c0.26,1.11,0.68,1.98,1.26,2.62s1.32,0.96,2.22,0.96c0.95,0,1.72-0.35,2.3-1.05
		c0.58-0.7,1-1.64,1.25-2.83c0.18-0.9,0.28-2.02,0.28-3.35v-16.13h2.52v16.18c0,0.89-0.03,1.71-0.09,2.48s-0.15,1.47-0.28,2.12
		c-0.2,0.91-0.46,1.74-0.81,2.51c-0.34,0.77-0.76,1.43-1.26,1.98c-0.5,0.55-1.08,0.98-1.73,1.29
		C281.27,520.14,280.53,520.3,279.71,520.3z"/>
	<path d="M306.75,519.6h-2.52v-16.93c0-1.15-0.07-2.12-0.22-2.92s-0.36-1.46-0.63-1.98c-0.28-0.52-0.61-0.9-0.99-1.14
		c-0.39-0.24-0.82-0.36-1.29-0.36c-0.9,0-1.72,0.41-2.46,1.23s-1.4,1.95-1.99,3.39v18.7h-2.52v-26.33h1.95l0.49,3.66h0.05
		c0.28-0.61,0.59-1.18,0.92-1.7s0.7-0.99,1.11-1.39c0.41-0.4,0.85-0.71,1.34-0.93s1.02-0.33,1.6-0.33c1.15,0,2.1,0.47,2.86,1.41
		c0.76,0.94,1.35,2.23,1.76,3.85h0.06c0.68-1.64,1.47-2.93,2.35-3.87s1.91-1.4,3.08-1.4c0.54,0,1.12,0.13,1.73,0.39
		c0.61,0.26,1.17,0.73,1.68,1.43c0.51,0.69,0.93,1.65,1.27,2.87c0.34,1.22,0.51,2.79,0.51,4.71v17.62h-2.52v-16.93
		c0-1.15-0.07-2.12-0.22-2.92s-0.36-1.46-0.63-1.98c-0.28-0.52-0.61-0.9-0.99-1.14s-0.82-0.36-1.29-0.36c-0.9,0-1.72,0.41-2.47,1.23
		c-0.74,0.82-1.41,1.95-1.99,3.39V519.6z"/>
	<path d="M334.1,516.69h-0.07c-0.21,0.44-0.47,0.88-0.78,1.32c-0.31,0.43-0.68,0.82-1.09,1.16c-0.41,0.34-0.86,0.61-1.35,0.82
		s-1.01,0.3-1.56,0.3c-0.75,0-1.44-0.19-2.06-0.57c-0.62-0.38-1.16-0.93-1.61-1.66c-0.45-0.73-0.8-1.62-1.05-2.67
		c-0.25-1.05-0.37-2.24-0.37-3.57c0-1.31,0.14-2.49,0.42-3.52s0.66-1.91,1.16-2.63s1.1-1.27,1.8-1.66c0.7-0.39,1.47-0.58,2.32-0.58
		c0.8,0.02,1.55,0.14,2.23,0.36s1.29,0.5,1.82,0.83h0.06v-1.83c0-0.72-0.03-1.36-0.08-1.91c-0.05-0.55-0.15-1.04-0.28-1.47
		c-0.28-0.89-0.73-1.62-1.35-2.2c-0.62-0.58-1.45-0.87-2.51-0.87c-0.78,0-1.52,0.12-2.21,0.37c-0.69,0.25-1.38,0.6-2.06,1.04v-3.6
		c0.26-0.22,0.57-0.43,0.92-0.62c0.35-0.19,0.72-0.36,1.11-0.5s0.8-0.25,1.24-0.32c0.43-0.07,0.87-0.11,1.3-0.11
		c1.56,0,2.84,0.47,3.83,1.41c0.99,0.94,1.71,2.19,2.14,3.74c0.16,0.59,0.28,1.24,0.35,1.95c0.07,0.71,0.11,1.49,0.11,2.34v17.57
		h-2.12L334.1,516.69z M333.97,508.05c-0.46-0.22-1.02-0.43-1.65-0.64s-1.34-0.31-2.11-0.33c-1.07,0-1.91,0.39-2.51,1.16
		c-0.61,0.78-0.91,1.97-0.91,3.58c0,0.81,0.08,1.52,0.23,2.13c0.15,0.61,0.36,1.11,0.62,1.51s0.58,0.69,0.94,0.89
		s0.75,0.29,1.16,0.29c0.54,0,1.04-0.13,1.51-0.4c0.46-0.27,0.88-0.59,1.24-0.96c0.36-0.37,0.67-0.74,0.92-1.11
		c0.25-0.37,0.44-0.66,0.56-0.86V508.05z"/>
	<path d="M347.11,496.94h0.05c0.28-0.61,0.59-1.18,0.94-1.7s0.72-0.99,1.15-1.39c0.42-0.4,0.89-0.71,1.39-0.93
		c0.5-0.22,1.06-0.33,1.65-0.33c0.71,0,1.37,0.17,1.99,0.5c0.62,0.33,1.16,0.87,1.61,1.61c0.46,0.74,0.82,1.7,1.08,2.9
		c0.27,1.19,0.4,2.66,0.4,4.39v17.62h-2.52v-16.93c0-2.27-0.26-3.91-0.77-4.91c-0.52-1-1.27-1.5-2.25-1.5
		c-0.87,0-1.71,0.41-2.52,1.23c-0.81,0.82-1.51,1.95-2.1,3.39v18.7h-2.52v-26.33h1.95L347.11,496.94z"/>
	<path d="M382.87,516.56c0.84,0,1.6-0.12,2.29-0.35c0.69-0.23,1.38-0.56,2.06-0.98v3.57c-0.55,0.46-1.24,0.83-2.05,1.09
		c-0.81,0.27-1.69,0.4-2.62,0.4c-1.11,0-2.15-0.24-3.12-0.72c-0.97-0.48-1.81-1.26-2.52-2.33c-0.71-1.07-1.27-2.47-1.67-4.2
		c-0.4-1.73-0.6-3.81-0.6-6.25c0-2.4,0.19-4.48,0.58-6.25c0.39-1.76,0.91-3.24,1.56-4.42c0.65-1.18,1.4-2.07,2.24-2.66
		c0.84-0.59,1.73-0.89,2.65-0.89c0.87,0,1.67,0.25,2.43,0.73c0.75,0.49,1.4,1.26,1.96,2.31c0.55,1.05,0.99,2.41,1.31,4.07
		c0.32,1.66,0.48,3.66,0.48,5.99c0,0.22,0,0.41,0,0.57c0,0.16-0.01,0.51-0.02,1.07h-10.68c0,1.68,0.15,3.11,0.45,4.28
		s0.71,2.12,1.22,2.85c0.52,0.73,1.12,1.26,1.81,1.59C381.31,516.39,382.06,516.56,382.87,516.56z M381.53,496.27
		c-0.58,0-1.12,0.19-1.62,0.58s-0.94,0.91-1.31,1.58s-0.68,1.45-0.91,2.34c-0.23,0.9-0.37,1.85-0.43,2.87h7.91
		c0-1.03-0.08-2-0.24-2.9c-0.16-0.9-0.39-1.68-0.7-2.34s-0.69-1.19-1.14-1.57S382.13,496.27,381.53,496.27z"/>
	<path d="M400.62,503.42l4.2-10.14h2.78l-5.65,13.02l5.86,13.3h-2.73l-4.52-10.53h-0.06l-4.46,10.53h-2.73l5.86-13.41l-5.65-12.91
		h2.78l4.26,10.14H400.62z"/>
	<path d="M427.59,506.14c0,1.83-0.11,3.45-0.32,4.86c-0.21,1.41-0.49,2.65-0.84,3.7c-0.35,1.05-0.76,1.93-1.23,2.65
		c-0.47,0.71-0.95,1.28-1.45,1.72c-0.5,0.43-1.01,0.75-1.53,0.94c-0.52,0.19-1.01,0.29-1.46,0.29c-0.95,0-1.77-0.26-2.47-0.79
		c-0.7-0.53-1.32-1.31-1.88-2.34h-0.05v15.32h-2.48v-39.21h1.9l0.54,2.99h0.05c0.14-0.37,0.32-0.73,0.54-1.08
		c0.22-0.35,0.52-0.72,0.9-1.12c0.37-0.4,0.82-0.74,1.35-1.04c0.53-0.29,1.1-0.44,1.72-0.44c0.87,0,1.71,0.25,2.52,0.75
		c0.81,0.5,1.52,1.29,2.14,2.38c0.62,1.09,1.12,2.49,1.49,4.2C427.4,501.62,427.59,503.7,427.59,506.14z M424.95,506.19
		c0-1.53-0.1-2.91-0.29-4.13c-0.19-1.22-0.48-2.26-0.86-3.12c-0.38-0.86-0.85-1.52-1.41-1.98c-0.56-0.46-1.2-0.69-1.93-0.69
		c-0.52,0-1,0.12-1.43,0.36s-0.82,0.54-1.17,0.91c-0.35,0.37-0.65,0.77-0.9,1.19c-0.25,0.43-0.45,0.8-0.61,1.14v13.77
		c0.53,0.92,1.14,1.65,1.83,2.19c0.68,0.54,1.42,0.8,2.2,0.8c0.48,0,0.99-0.15,1.52-0.46s1.03-0.85,1.48-1.64
		c0.45-0.78,0.83-1.85,1.12-3.2C424.8,510,424.95,508.28,424.95,506.19z"/>
	<path d="M442.21,516.56c0.84,0,1.6-0.12,2.29-0.35c0.69-0.23,1.38-0.56,2.06-0.98v3.57c-0.55,0.46-1.24,0.83-2.05,1.09
		c-0.81,0.27-1.69,0.4-2.62,0.4c-1.11,0-2.15-0.24-3.12-0.72c-0.97-0.48-1.81-1.26-2.52-2.33s-1.27-2.47-1.67-4.2
		c-0.4-1.73-0.6-3.81-0.6-6.25c0-2.4,0.2-4.48,0.58-6.25c0.39-1.76,0.91-3.24,1.56-4.42c0.65-1.18,1.4-2.07,2.24-2.66
		c0.84-0.59,1.73-0.89,2.65-0.89c0.87,0,1.67,0.25,2.43,0.73c0.75,0.49,1.4,1.26,1.96,2.31c0.55,1.05,0.99,2.41,1.31,4.07
		c0.32,1.66,0.48,3.66,0.48,5.99c0,0.22,0,0.41,0,0.57c0,0.16-0.01,0.51-0.02,1.07h-10.68c0,1.68,0.15,3.11,0.45,4.28
		c0.3,1.17,0.71,2.12,1.22,2.85c0.51,0.73,1.12,1.26,1.81,1.59C440.66,516.39,441.41,516.56,442.21,516.56z M440.88,496.27
		c-0.58,0-1.12,0.19-1.62,0.58s-0.94,0.91-1.31,1.58c-0.37,0.67-0.68,1.45-0.91,2.34c-0.23,0.9-0.37,1.85-0.43,2.87h7.91
		c0-1.03-0.08-2-0.24-2.9c-0.16-0.9-0.39-1.68-0.7-2.34s-0.69-1.19-1.14-1.57C442,496.46,441.48,496.27,440.88,496.27z"/>
	<path d="M463.24,496.77h-0.2c-0.6,0-1.18,0.09-1.76,0.28c-0.58,0.19-1.12,0.47-1.62,0.85c-0.5,0.38-0.96,0.84-1.37,1.4
		c-0.41,0.55-0.75,1.21-1.02,1.97v18.34h-2.52v-26.33h1.95l0.49,4.18h0.05c0.25-0.68,0.56-1.32,0.92-1.91
		c0.36-0.59,0.77-1.11,1.23-1.55c0.46-0.44,0.96-0.79,1.5-1.04c0.54-0.25,1.11-0.37,1.71-0.37c0.11,0,0.22,0,0.33,0.01
		c0.11,0.01,0.21,0.02,0.3,0.04V496.77z"/>
	<path d="M469.32,487.15v-4.79h2.52v4.79H469.32z M469.39,519.6v-26.33h2.52v26.33H469.39z"/>
	<path d="M487.6,516.56c0.84,0,1.6-0.12,2.29-0.35c0.69-0.23,1.38-0.56,2.06-0.98v3.57c-0.55,0.46-1.24,0.83-2.05,1.09
		c-0.81,0.27-1.69,0.4-2.62,0.4c-1.11,0-2.15-0.24-3.12-0.72c-0.97-0.48-1.81-1.26-2.52-2.33s-1.27-2.47-1.67-4.2
		c-0.4-1.73-0.6-3.81-0.6-6.25c0-2.4,0.2-4.48,0.58-6.25c0.39-1.76,0.91-3.24,1.56-4.42c0.65-1.18,1.4-2.07,2.24-2.66
		c0.84-0.59,1.73-0.89,2.65-0.89c0.87,0,1.67,0.25,2.43,0.73c0.75,0.49,1.4,1.26,1.96,2.31c0.55,1.05,0.99,2.41,1.31,4.07
		c0.32,1.66,0.48,3.66,0.48,5.99c0,0.22,0,0.41,0,0.57c0,0.16-0.01,0.51-0.02,1.07h-10.68c0,1.68,0.15,3.11,0.45,4.28
		c0.3,1.17,0.71,2.12,1.22,2.85c0.51,0.73,1.12,1.26,1.81,1.59C486.05,516.39,486.8,516.56,487.6,516.56z M486.27,496.27
		c-0.58,0-1.12,0.19-1.62,0.58s-0.94,0.91-1.31,1.58c-0.37,0.67-0.68,1.45-0.91,2.34c-0.23,0.9-0.37,1.85-0.43,2.87h7.91
		c0-1.03-0.08-2-0.24-2.9c-0.16-0.9-0.39-1.68-0.7-2.34s-0.69-1.19-1.14-1.57C487.38,496.46,486.86,496.27,486.27,496.27z"/>
	<path d="M502.59,496.94h0.05c0.28-0.61,0.59-1.18,0.94-1.7s0.72-0.99,1.15-1.39c0.42-0.4,0.89-0.71,1.39-0.93
		c0.5-0.22,1.05-0.33,1.65-0.33c0.71,0,1.37,0.17,1.99,0.5c0.62,0.33,1.16,0.87,1.61,1.61c0.46,0.74,0.82,1.7,1.08,2.9
		c0.27,1.19,0.4,2.66,0.4,4.39v17.62h-2.52v-16.93c0-2.27-0.26-3.91-0.77-4.91c-0.52-1-1.27-1.5-2.25-1.5
		c-0.87,0-1.71,0.41-2.52,1.23c-0.81,0.82-1.51,1.95-2.1,3.39v18.7h-2.52v-26.33h1.95L502.59,496.94z"/>
	<path d="M527.67,492.59c0.75,0,1.47,0.13,2.15,0.4c0.68,0.27,1.27,0.64,1.76,1.12v3.57c-0.68-0.44-1.31-0.78-1.89-1
		s-1.16-0.33-1.76-0.33c-0.63,0-1.25,0.18-1.87,0.53c-0.62,0.35-1.17,0.93-1.66,1.73s-0.88,1.87-1.18,3.19
		c-0.3,1.32-0.45,2.96-0.45,4.92c0,1.42,0.11,2.73,0.33,3.94s0.55,2.24,0.99,3.12c0.44,0.88,0.99,1.56,1.65,2.05
		c0.66,0.49,1.43,0.73,2.29,0.73c0.63,0,1.26-0.12,1.9-0.35c0.64-0.23,1.26-0.56,1.87-0.98v3.57c-0.18,0.18-0.43,0.37-0.72,0.55
		s-0.63,0.35-0.98,0.48c-0.36,0.14-0.74,0.25-1.14,0.33s-0.8,0.12-1.2,0.12c-1.04,0-2.03-0.27-2.96-0.8
		c-0.93-0.54-1.74-1.36-2.43-2.47c-0.7-1.11-1.24-2.51-1.64-4.21c-0.4-1.7-0.6-3.71-0.6-6.04c0-1.74,0.11-3.3,0.32-4.68
		c0.21-1.39,0.5-2.61,0.87-3.66s0.8-1.95,1.29-2.69s1.02-1.34,1.58-1.82c0.56-0.47,1.14-0.81,1.73-1.03
		C526.52,492.69,527.1,492.59,527.67,492.59z"/>
	<path d="M546.28,516.56c0.84,0,1.6-0.12,2.29-0.35c0.69-0.23,1.38-0.56,2.06-0.98v3.57c-0.55,0.46-1.24,0.83-2.05,1.09
		c-0.81,0.27-1.69,0.4-2.62,0.4c-1.11,0-2.15-0.24-3.12-0.72c-0.97-0.48-1.81-1.26-2.52-2.33s-1.27-2.47-1.67-4.2
		c-0.4-1.73-0.6-3.81-0.6-6.25c0-2.4,0.2-4.48,0.58-6.25c0.39-1.76,0.91-3.24,1.56-4.42c0.65-1.18,1.4-2.07,2.24-2.66
		c0.84-0.59,1.73-0.89,2.65-0.89c0.87,0,1.67,0.25,2.43,0.73c0.75,0.49,1.4,1.26,1.96,2.31c0.55,1.05,0.99,2.41,1.31,4.07
		c0.32,1.66,0.48,3.66,0.48,5.99c0,0.22,0,0.41,0,0.57c0,0.16-0.01,0.51-0.02,1.07h-10.68c0,1.68,0.15,3.11,0.45,4.28
		c0.3,1.17,0.71,2.12,1.22,2.85c0.51,0.73,1.12,1.26,1.81,1.59C544.73,516.39,545.48,516.56,546.28,516.56z M544.95,496.27
		c-0.58,0-1.12,0.19-1.62,0.58s-0.94,0.91-1.31,1.58c-0.37,0.67-0.68,1.45-0.91,2.34c-0.23,0.9-0.37,1.85-0.43,2.87h7.91
		c0-1.03-0.08-2-0.24-2.9c-0.16-0.9-0.39-1.68-0.7-2.34s-0.69-1.19-1.14-1.57C546.07,496.46,545.54,496.27,544.95,496.27z"/>
	<path d="M576.14,516.56c0.84,0,1.6-0.12,2.29-0.35c0.69-0.23,1.38-0.56,2.06-0.98v3.57c-0.55,0.46-1.24,0.83-2.05,1.09
		c-0.81,0.27-1.69,0.4-2.62,0.4c-1.11,0-2.15-0.24-3.12-0.72c-0.97-0.48-1.81-1.26-2.52-2.33s-1.27-2.47-1.67-4.2
		c-0.4-1.73-0.6-3.81-0.6-6.25c0-2.4,0.2-4.48,0.58-6.25c0.39-1.76,0.91-3.24,1.56-4.42c0.65-1.18,1.4-2.07,2.24-2.66
		c0.84-0.59,1.73-0.89,2.65-0.89c0.87,0,1.67,0.25,2.43,0.73c0.75,0.49,1.4,1.26,1.96,2.31c0.55,1.05,0.99,2.41,1.31,4.07
		c0.32,1.66,0.48,3.66,0.48,5.99c0,0.22,0,0.41,0,0.57c0,0.16-0.01,0.51-0.02,1.07h-10.68c0,1.68,0.15,3.11,0.45,4.28
		c0.3,1.17,0.71,2.12,1.22,2.85c0.51,0.73,1.12,1.26,1.81,1.59C574.59,516.39,575.34,516.56,576.14,516.56z M574.81,496.27
		c-0.58,0-1.12,0.19-1.62,0.58s-0.94,0.91-1.31,1.58c-0.37,0.67-0.68,1.45-0.91,2.34c-0.23,0.9-0.37,1.85-0.43,2.87h7.91
		c0-1.03-0.08-2-0.24-2.9c-0.16-0.9-0.39-1.68-0.7-2.34s-0.69-1.19-1.14-1.57C575.93,496.46,575.4,496.27,574.81,496.27z"/>
	<path d="M593.9,503.42l4.2-10.14h2.78l-5.65,13.02l5.86,13.3h-2.73l-4.53-10.53h-0.07l-4.46,10.53h-2.74l5.86-13.41l-5.65-12.91
		h2.78l4.26,10.14H593.9z"/>
	<path d="M620.86,506.14c0,1.83-0.11,3.45-0.32,4.86c-0.21,1.41-0.49,2.65-0.84,3.7c-0.35,1.05-0.76,1.93-1.23,2.65
		c-0.47,0.71-0.95,1.28-1.46,1.72c-0.5,0.43-1.01,0.75-1.53,0.94c-0.52,0.19-1.01,0.29-1.46,0.29c-0.95,0-1.77-0.26-2.47-0.79
		c-0.7-0.53-1.32-1.31-1.88-2.34h-0.05v15.32h-2.48v-39.21h1.9l0.54,2.99h0.05c0.14-0.37,0.32-0.73,0.55-1.08
		c0.22-0.35,0.52-0.72,0.89-1.12c0.38-0.4,0.83-0.74,1.35-1.04c0.53-0.29,1.1-0.44,1.72-0.44c0.87,0,1.71,0.25,2.51,0.75
		s1.52,1.29,2.14,2.38c0.62,1.09,1.12,2.49,1.49,4.2C620.68,501.62,620.86,503.7,620.86,506.14z M618.23,506.19
		c0-1.53-0.1-2.91-0.29-4.13c-0.19-1.22-0.48-2.26-0.86-3.12c-0.38-0.86-0.85-1.52-1.41-1.98c-0.56-0.46-1.2-0.69-1.93-0.69
		c-0.52,0-1,0.12-1.43,0.36c-0.43,0.24-0.82,0.54-1.17,0.91c-0.35,0.37-0.65,0.77-0.9,1.19c-0.25,0.43-0.45,0.8-0.61,1.14v13.77
		c0.53,0.92,1.14,1.65,1.83,2.19c0.68,0.54,1.42,0.8,2.2,0.8c0.48,0,0.99-0.15,1.52-0.46c0.54-0.3,1.03-0.85,1.48-1.64
		c0.45-0.78,0.83-1.85,1.12-3.2C618.08,510,618.23,508.28,618.23,506.19z"/>
	<path d="M628.31,519.6v-40.12h2.52v40.12H628.31z"/>
	<path d="M652.97,506.47c0,2.07-0.17,3.95-0.52,5.65c-0.35,1.7-0.84,3.15-1.47,4.36s-1.4,2.15-2.3,2.81c-0.9,0.67-1.91,1-3.03,1
		c-1.15,0-2.18-0.33-3.08-1c-0.91-0.67-1.68-1.6-2.31-2.81s-1.12-2.67-1.46-4.36c-0.34-1.7-0.5-3.58-0.5-5.65
		c0-2.09,0.17-3.98,0.52-5.68c0.35-1.7,0.84-3.16,1.47-4.38c0.63-1.22,1.41-2.16,2.31-2.83s1.92-1,3.04-1c1.14,0,2.17,0.33,3.08,1
		c0.91,0.67,1.68,1.61,2.31,2.83c0.63,1.22,1.11,2.68,1.45,4.38C652.8,502.49,652.97,504.38,652.97,506.47z M650.33,506.47
		c0-1.62-0.12-3.07-0.35-4.34c-0.23-1.26-0.56-2.34-0.98-3.21s-0.91-1.54-1.49-2s-1.2-0.68-1.89-0.68c-0.68,0-1.31,0.23-1.89,0.68
		s-1.07,1.12-1.49,2s-0.74,1.95-0.98,3.21c-0.23,1.27-0.35,2.71-0.35,4.34c0,1.61,0.12,3.04,0.35,4.31c0.23,1.27,0.56,2.33,0.98,3.2
		c0.42,0.87,0.92,1.53,1.5,1.98c0.58,0.45,1.2,0.68,1.89,0.68s1.31-0.23,1.88-0.68c0.57-0.45,1.06-1.11,1.48-1.98
		s0.74-1.94,0.98-3.2C650.22,509.51,650.33,508.08,650.33,506.47z"/>
	<path d="M668.74,496.77h-0.2c-0.6,0-1.18,0.09-1.76,0.28c-0.58,0.19-1.12,0.47-1.62,0.85c-0.5,0.38-0.96,0.84-1.37,1.4
		c-0.41,0.55-0.75,1.21-1.02,1.97v18.34h-2.52v-26.33h1.95l0.49,4.18h0.05c0.25-0.68,0.56-1.32,0.92-1.91
		c0.36-0.59,0.77-1.11,1.23-1.55c0.46-0.44,0.96-0.79,1.5-1.04c0.54-0.25,1.11-0.37,1.71-0.37c0.11,0,0.22,0,0.33,0.01
		c0.11,0.01,0.21,0.02,0.3,0.04V496.77z"/>
	<path d="M682.06,516.56c0.84,0,1.6-0.12,2.29-0.35c0.69-0.23,1.38-0.56,2.06-0.98v3.57c-0.55,0.46-1.24,0.83-2.05,1.09
		c-0.81,0.27-1.69,0.4-2.62,0.4c-1.11,0-2.15-0.24-3.12-0.72c-0.97-0.48-1.81-1.26-2.52-2.33s-1.27-2.47-1.67-4.2
		c-0.4-1.73-0.6-3.81-0.6-6.25c0-2.4,0.2-4.48,0.58-6.25c0.39-1.76,0.91-3.24,1.56-4.42c0.65-1.18,1.4-2.07,2.24-2.66
		c0.84-0.59,1.73-0.89,2.65-0.89c0.87,0,1.67,0.25,2.43,0.73c0.75,0.49,1.4,1.26,1.96,2.31c0.55,1.05,0.99,2.41,1.31,4.07
		c0.32,1.66,0.48,3.66,0.48,5.99c0,0.22,0,0.41,0,0.57c0,0.16-0.01,0.51-0.02,1.07h-10.68c0,1.68,0.15,3.11,0.45,4.28
		c0.3,1.17,0.71,2.12,1.22,2.85c0.51,0.73,1.12,1.26,1.81,1.59C680.51,516.39,681.26,516.56,682.06,516.56z M680.73,496.27
		c-0.58,0-1.12,0.19-1.62,0.58s-0.94,0.91-1.31,1.58c-0.37,0.67-0.68,1.45-0.91,2.34c-0.23,0.9-0.37,1.85-0.43,2.87h7.91
		c0-1.03-0.08-2-0.24-2.9c-0.16-0.9-0.39-1.68-0.7-2.34s-0.69-1.19-1.14-1.57C681.85,496.46,681.33,496.27,680.73,496.27z"/>
	<path d="M693.71,506.77c0-1.83,0.11-3.45,0.32-4.86c0.21-1.41,0.49-2.65,0.84-3.7c0.35-1.05,0.75-1.93,1.22-2.65
		c0.47-0.71,0.95-1.29,1.45-1.73s1.01-0.76,1.52-0.96c0.51-0.19,1-0.29,1.46-0.29c0.94,0,1.76,0.27,2.46,0.8s1.32,1.32,1.87,2.36
		h0.05v-16.27h2.52v40.12h-1.91l-0.52-2.94h-0.07c-0.2,0.43-0.42,0.85-0.68,1.29c-0.26,0.43-0.57,0.83-0.92,1.18
		c-0.35,0.35-0.76,0.63-1.22,0.84c-0.46,0.21-1,0.32-1.6,0.32c-0.85,0-1.68-0.25-2.49-0.73c-0.81-0.49-1.54-1.27-2.17-2.35
		c-0.64-1.08-1.15-2.48-1.54-4.18S693.71,509.23,693.71,506.77z M696.35,506.72c0,1.52,0.1,2.89,0.3,4.12
		c0.2,1.23,0.49,2.27,0.87,3.13c0.38,0.86,0.85,1.52,1.4,1.98c0.55,0.46,1.19,0.69,1.9,0.69c0.53,0,1.01-0.12,1.45-0.36
		c0.43-0.24,0.82-0.54,1.16-0.91c0.34-0.37,0.63-0.76,0.88-1.18c0.24-0.42,0.44-0.8,0.58-1.15v-13.77c-0.52-0.9-1.12-1.63-1.81-2.17
		s-1.42-0.82-2.21-0.82c-0.48,0-0.98,0.15-1.51,0.46s-1.01,0.85-1.46,1.65c-0.45,0.79-0.82,1.86-1.11,3.2
		S696.35,504.63,696.35,506.72z"/>
	<path d="M715.28,503.78h7.18v4.02h-7.18V503.78z"/>
</g>
<g>
</g>
<g>
</g>
<g>
</g>
<g>
</g>
<g>
</g>
<g>
</g>
</svg>
