<?xml version="1.0" encoding="utf-8"?>
<!-- Generator: Adobe Illustrator 24.3.0, SVG Export Plug-In . SVG Version: 6.00 Build 0)  -->
<svg version="1.1" id="Layer_1" xmlns="http://www.w3.org/2000/svg" xmlns:xlink="http://www.w3.org/1999/xlink" x="0px" y="0px"
	 viewBox="0 0 864 864" style="enable-background:new 0 0 864 864;" xml:space="preserve">
<style type="text/css">
	.st0{fill:#181919;}
	.st1{fill:#131313;}
	.st2{fill:#21241D;}
	.st3{fill:#86BF46;}
	.st4{fill:#524B40;}
	.st5{fill:#4F9146;}
	.st6{fill:#3D3A36;}
	.st7{fill:#88847B;}
	.st8{fill:#655E55;}
	.st9{fill:#918A85;}
	.st10{fill:#777168;}
	.st11{fill:#67A84B;}
	.st12{fill:#5B8B44;}
	.st13{fill:#4A4D3E;}
	.st14{fill:#869866;}
	.st15{fill:#E3E9D0;}
	.st16{fill:#589947;}
	.st17{fill:#367B3E;}
	.st18{fill:#458642;}
	.st19{fill:#2D5C30;}
	.st20{fill:#77B849;}
	.st21{fill:#5C7C44;}
	.st22{fill:#84AF57;}
	.st23{fill:#3D362B;}
	.st24{fill:#292A2A;}
	.st25{fill:#2C703A;}
	.st26{fill:#264323;}
</style>
<g id="stone">
	<path class="st0" d="M659.23,347.57c-4.94,4.77-9.43,10.17-14.97,14.11c-4.16,2.96-9.66,4.05-14.57,5.96
		c-1.41,0.55-2.82,1.14-4.26,1.62c-4.35,1.45-8.64,3.55-13.11,4.1c-6.49,0.8-9.96-2.75-10.02-9.42c-0.03-3.88,0.63-7.76,1-11.94
		c-5.06,5.29-9.86,10.55-14.94,15.52c-2.18,2.13-4.8,3.96-7.51,5.39c-4.21,2.24-8.91,3.54-13.1,0.33c-4.11-3.16-4.12-8.12-3.81-12.8
		c0.21-3.2,1-6.36,1.62-10.08c-1.18,0.71-1.99,1.2-2.79,1.68c-0.34-0.28-0.68-0.55-1.02-0.83c4.1-6.53,10.44-11.47,14.42-18.12
		c-4.26-1.46-5.34-4.31-2.54-7.81c1.41-1.76,3.54-3.53,5.64-4c4.04-0.91,6.1-3.3,7.79-6.76c2.46-5.05,5.24-9.95,7.98-14.86
		c3.6-6.45,10.94-9.12,18.82-6.58c-6.73,8.94-13.37,17.74-20.33,26.99c6.07,2.23,12.24,3.76,13.3,11.47
		c-3.25-1.65-5.55-3.38-8.13-4.01c-6.91-1.7-9.81-0.6-12.94,5.61c-4.15,8.25-7.92,16.71-11.37,25.28
		c-1.32,3.28-2.37,7.75,1.21,10.17c3.61,2.44,7.23-0.41,9.65-2.91c9.31-9.6,18.22-19.58,27.42-29.29
		c3.95-4.17,7.81-8.68,12.54-11.78c3.38-2.22,8.14-3.21,12.28-3.21c6.59,0.01,10.89,5.32,11.26,11.94
		c0.56,10.16-4.05,18.19-10.36,25.5c-1.44,1.67-3.37,2.93-5.07,4.38c0.31,0.44,0.61,0.89,0.92,1.33c2.37-1.14,4.94-2,7.07-3.48
		c11.67-8.11,20.39-18.91,27.15-31.25c1.11-2.03,0.43-5.06,0.51-7.64c0.03-0.98-0.11-1.96-0.2-3.2c5.09,1.93,6.86,5.17,6.53,11.35
		c-0.17,3.23-0.53,6.44-0.8,9.67c-0.23,0.73-0.46,1.45-0.69,2.18c0.2,0.07,0.39,0.14,0.59,0.22c0.28-0.56,0.56-1.11,0.84-1.67
		c2.74-3.92,5.1-8.19,8.33-11.66c2.59-2.78,5.97-5.14,9.45-6.68c4.89-2.16,10.09,0.96,10.43,6.27c0.24,3.65-0.2,7.73-1.66,11.03
		c-3,6.8-6.96,13.17-10.35,19.81c-0.87,1.71-1.06,3.76-1.57,5.66c0.41,0.33,0.82,0.66,1.22,0.99c2.08-1.18,4.5-2.01,6.17-3.62
		c6.79-6.51,13.48-12.96,18.12-21.5c5.68-10.45,14.49-17.44,26.84-19.06c4.86-0.64,10.68,1.23,12.35,4.62
		c2.18,4.43,0.9,8.64-1.95,12.24c-5.01,6.34-11.73,9.9-19.75,10.9c-1.23,0.15-2.51-0.17-3.76-1.05c3.04-0.8,6.46-0.97,9.04-2.53
		c4.35-2.63,8.45-5.85,12.1-9.39c2.07-2,2.57-5.77-0.07-7.53c-1.87-1.25-5.76-1.56-7.6-0.43c-11.58,7.16-18.5,17.6-19.12,31.4
		c-0.35,7.76,4.76,10.64,12.16,7.29c8.93-4.05,15.71-10.91,22.22-17.93c8.43-9.09,16.43-18.58,24.93-27.6
		c2.33-2.47,5.67-4.11,8.79-5.65c3.2-1.58,6.51-1.26,9.62,1.19c-6.85,7.58-7,17.55-10.1,26.41c-2.26,6.44-4.23,12.99-6.3,19.42
		c9.05-5.76,17.02-13.36,24.73-21.57c-0.15,0.74-0.05,1.68-0.47,2.2c-8.57,10.51-17.35,20.81-29.8,27.08
		c-5.23,2.64-10.8,3.32-16.47,2.34c-5.89-1.01-9.13-5.14-10.97-10.56c-0.22-0.65-0.5-1.28-0.6-1.52
		c-5.69,3.51-11.09,7.5-17.05,10.27c-3.51,1.63-7.99,2.12-11.9,1.73c-8.85-0.88-12.08-8.4-11.66-16.64
		c0.07-1.35,0.41-2.68-0.06-4.43c-2.35,2.54-4.45,5.39-7.11,7.57c-4.96,4.08-9.83,8.6-15.5,11.42c-7.2,3.59-11.61-3.26-10.28-8.76
		c1.14-4.73,2.54-9.54,4.79-13.81c3.26-6.22,7.47-11.93,11.06-17.98c0.81-1.36,0.74-3.23,1.08-4.87c-1.77,0.37-3.97,0.19-5.23,1.19
		c-7.67,6.08-12.36,14.49-17.2,22.77c-3.41,5.84-6.69,11.76-10.37,17.41c-4.8,7.37-7.22,7.62-14.31,2.02
		c4.15-6.96,8.31-13.95,12.48-20.94c0.03-0.39,0.05-0.78,0.08-1.17C659.8,347.25,659.51,347.41,659.23,347.57z M625.7,365.89
		c-3.74-4.56-1.7-11.48,4.39-17.28c4.42-4.21,7.72-4.38,12.13-0.43c0.86-2.27,1.98-4.39,2.43-6.64c0.73-3.6,0.99-7.24-2.08-10.18
		c-2.92-2.79-7.98-3.56-12.48-0.74c-11.59,7.25-17.92,17.93-18.76,31.58c-0.28,4.58,3.66,7.34,8.18,6.14
		C621.48,367.83,623.32,366.85,625.7,365.89z M751.46,359.39c4.56,8.61,9.95,10.65,15.9,6.16c2.3-1.73,4.35-4.1,5.78-6.6
		c2.85-4.99,5.41-10.17,7.71-15.44c4.06-9.31,8.42-18.34,16.74-24.93c-4.15-0.57-6.46-0.13-12.1,5.47
		C773.91,335.54,762.83,347.52,751.46,359.39z"/>
	<path class="st1" d="M568.5,317.66c-5.02-5.56-5.05-11.87-3.4-18.1c3.37-12.72,10.72-23.15,19.98-32.32
		c1.59-1.58,3.25-3.09,5.63-5.35c-1.88-0.66-3.41-1.79-4.63-1.52c-4.2,0.93-8.64,1.69-12.36,3.7c-16.69,9.01-30.87,21.1-42.45,36.15
		c-1.11,1.44-2.09,3.02-2.89,4.65c-2.13,4.31-1.51,8.04,2.53,10.77c5.34,3.61,11.13,6.55,16.62,9.97
		c12.68,7.9,15.82,21.76,6.87,33.69c-3.51,4.68-8.45,8.96-13.67,11.57c-16.65,8.33-33.92,10.81-51.39,1.96
		c-7.47-3.79-12.81-9.38-14.49-18.15c6.42,5.24,13.96,7.55,21.82,8.78c19.38,3.04,37.12,0.31,50.87-15.35
		c6.4-7.29,4.6-15.69-3.96-20.37c-6.14-3.36-12.37-6.75-17.93-10.96c-7.44-5.63-8.2-13.65-5.71-22.1c2.29-7.79,7.22-14,12.82-19.58
		c11.85-11.83,25.56-20.7,41.91-25.07c5.79-1.55,11.68-2.28,17.45-0.2c7.29,2.63,10.5,10.18,6.45,16.79
		c-4.32,7.04-9.52,13.58-14.68,20.07C576.61,295.86,570.11,305.35,568.5,317.66z"/>
</g>
<g id="leaf">
	<path class="st0" d="M580.15,477.79c-5.03,4.48-9.72,9.46-15.21,13.27c-3.4,2.36-8.04,2.92-12.09,4.38
		c-1.95,0.7-3.78,1.72-5.74,2.38c-3.69,1.25-7.37,2.82-11.18,3.42c-8.74,1.37-10.91-5.13-10.73-11.32
		c0.09-3.18,0.75-6.35,1.34-10.97c-4.71,4.84-8.45,8.96-12.5,12.76c-2.65,2.49-5.61,4.72-8.67,6.7c-3.09,2.01-6.43,2.56-9.88,0.36
		c-3.49-2.22-3.84-5.74-3.08-8.97c1.08-4.58,2.67-9.16,4.79-13.36c2.97-5.88,6.75-11.35,9.91-17.15c0.75-1.37,0.36-3.36,0.5-5.06
		c-1.99,0.13-4.41-0.41-5.88,0.53c-2.78,1.79-5.38,4.15-7.41,6.77c-7.72,9.94-14.28,20.57-18.13,32.67
		c-1.02,3.2-2.92,5.27-7.21,5.54c3.18-10.17,6.2-19.85,9.59-30.71c-4.03,4.46-7.27,8.03-10.51,11.61c-0.38-0.24-0.76-0.48-1.15-0.72
		c0.34-0.84,0.47-1.9,1.06-2.47c10.28-9.79,15.52-22.51,21.14-35.14c6.99-15.71,15.31-30.75,26.28-44.14
		c4.36-5.32,9.42-9.65,16.1-11.83c9.49-3.1,15.61,2.07,14.24,11.96c-1.05,7.57-3.85,14.34-8.59,20.31
		c-7.88,9.94-17.37,18.08-28.04,24.88c-1.22,0.78-2.72,1.13-4.09,1.68c-0.21-0.36-0.41-0.71-0.62-1.07c0.89-0.74,1.72-1.59,2.7-2.2
		c10.27-6.43,19.22-14.41,26.51-24c3.24-4.26,5.44-9.45,7.38-14.49c0.75-1.96-0.53-4.71-0.88-7.1c-2.21,0.59-5.05,0.52-6.51,1.89
		c-5.52,5.2-11.08,10.49-15.72,16.44c-11.17,14.32-19.9,30.17-27.88,46.43c0.48,0.47,0.96,0.94,1.44,1.41
		c0.62-1.16,1.02-2.53,1.89-3.46c2.3-2.43,4.59-4.96,7.28-6.92c3.36-2.45,7.36-3.12,11.09-0.92c3.93,2.31,4.63,6.5,3.88,10.44
		c-0.83,4.37-2.46,8.62-4.11,12.78c-1.87,4.7-4.26,9.19-6.22,13.85c-0.77,1.84-0.99,3.92-1.47,5.89c0.45,0.36,0.91,0.71,1.36,1.07
		c2.9-2.21,6.19-4.07,8.63-6.71c8.13-8.77,16.01-17.78,23.88-26.79c5.28-6.04,10.94-11.32,19.31-12.73
		c7.08-1.19,13.82,4.06,14.55,11.2c1.15,11.24-4.22,19.76-11.09,27.73c-1.01,1.17-2.15,2.22-3.21,3.34
		c-0.08,0.09-0.06,0.27-0.2,1.02c5.44-1.32,9.79-4.19,13.26-7.86c7.25-7.66,13.97-15.82,20.99-23.69c2.24-2.51,4.59-4.99,7.23-7.05
		c1.95-1.52,4.45-2.67,6.61-0.71c-3.2,6.83-6.68,13.39-9.38,20.26c-1.88,4.79-2.83,9.97-3.88,15.04c-0.27,1.32,0.64,2.88,1,4.33
		c1.39-0.44,3.27-0.44,4.09-1.38c3.96-4.52,7.8-9.17,11.36-14.02c3.5-4.76,6.47-9.91,9.97-14.68c1.28-1.74,3.24-3.16,5.17-4.19
		c2.26-1.21,4.68-1.24,5.49,0.41c-3.1,8.28-5.97,15.65-8.59,23.1c-0.68,1.94-0.82,4.16-0.78,6.24c0.03,1.51,0.75,3.02,1.17,4.52
		c1.5-0.62,3.35-0.87,4.45-1.92c6.25-5.92,11.8-12.01,12.07-21.66c0.14-5.1,2.54-10.24,4.54-15.11c0.72-1.75,3.11-3.3,5.06-3.91
		c1.91-0.59,4.24,0.13,6.38,0.28c-0.64,1.75-1.04,3.64-1.95,5.24c-3.91,6.83-8.32,13.43-9.23,21.5c-0.19,1.68,0.36,3.45,0.57,5.18
		c1.54-0.64,3.4-0.94,4.57-2c2.68-2.4,5.03-5.16,7.51-7.78c0.33,0.18,0.65,0.35,0.98,0.53c-0.29,0.88-0.35,1.95-0.9,2.62
		c-2.15,2.61-4.26,5.31-6.74,7.58c-5.54,5.06-8.64,4.41-11.46-1.48c-4.59,4.95-9.13,10.31-14.18,15.15
		c-3.25,3.12-7.45,4.67-12.01,2.4c-4.45-2.21-5.29-6.22-4.96-10.72c0.03-0.37-0.13-0.74-0.08-0.48c-2.78,2.45-5.69,5.2-8.79,7.7
		c-3.37,2.72-6.71,5.64-11.72,3.96c-4.31-1.44-7.04-4.09-6.67-8.49c0.36-4.25,1.8-8.4,2.76-12.6c0.49-0.83,0.98-1.66,1.48-2.49
		c-0.21-0.13-0.41-0.26-0.62-0.39C581.26,476.41,580.7,477.1,580.15,477.79z M548.11,493.75c-3.03-4.93-0.53-13.04,5.32-17.83
		c4.44-3.64,7.37-3.65,11.6,0.06c0.6-1.28,1.25-2.49,1.76-3.75c2.33-5.77,1.65-10.48-1.92-13.62c-2.88-2.53-8.27-2.59-13.02,0.58
		c-10.59,7.07-16,17.37-17.82,29.79c-0.82,5.56,4.98,9.37,10.07,6.95C545.47,495.27,546.77,494.48,548.11,493.75z M605.95,486.2
		c-0.11-0.1-0.21-0.18-0.3-0.27c-0.09,0.19-0.21,0.37-0.25,0.56c-0.01,0.07,0.16,0.18,0.25,0.28
		C605.75,486.59,605.85,486.41,605.95,486.2z"/>
	<path class="st1" d="M440.73,487.66c4.53-3.5,9.55-6.53,13.49-10.61c5.93-6.14,4.2-14.09-3.32-18.27
		c-4.42-2.46-9.07-4.57-13.28-7.35c-11.2-7.39-13.83-17.39-7.35-29.15c8.19-14.87,21.18-24.62,36.12-31.97
		c7.36-3.62,15.07-6.31,23.46-6.12c7.26,0.17,11.66,2.99,13.04,8.97c0.52,2.27,0.5,5.36-0.66,7.19c-4.05,6.39-8.41,12.64-13.2,18.5
		c-7.22,8.81-13.63,17.9-15.33,29.92c-4.53-4.84-4.7-10.29-3.39-15.84c2.97-12.62,10.22-22.72,19.34-31.62
		c1.5-1.46,3.3-2.61,5.01-3.94c-3.69-3.88-7.23-2.89-10-1.33c-8.41,4.75-17.17,9.21-24.6,15.25c-8.02,6.52-15.15,14.32-21.82,22.27
		c-5.56,6.63-4.33,10.88,2.98,15.53c3.19,2.03,6.53,3.86,9.93,5.53c18.28,9,17.86,28.86,2.84,40.35c-2.66,2.04-5.72,3.56-8.6,5.32
		c-4.44,1.65-8.89,3.29-13.33,4.94c-1.01,0.03-2.02,0.06-3.03,0.1c-0.78,0.1-1.57,0.2-2.34,0.3c-7.72,0.08-15.57,0.57-22.74-2.95
		c-4.87-2.39-9.41-5.43-14.1-8.17c-1.06-1.83-2.13-3.67-3.19-5.5c-0.12-0.71-0.25-1.41-0.37-2.12c0.34-1.16,0.68-2.31,1.02-3.47
		c0.23,0.05,0.46,0.1,0.69,0.15c0.34,0.5,0.68,1,1.02,1.5c3.41,1.66,6.81,3.31,10.22,4.97c0.79,0.15,1.57,0.31,2.36,0.46
		c8.48,2.49,16.98,3.56,25.58,0.54c3.24-0.6,6.49-1.21,9.73-1.81C438.18,488.7,439.46,488.18,440.73,487.66z"/>
</g>
<g id="turning">
	<path class="st0" d="M451.24,354.01c-4.67,5.08-9.33,10.16-14,15.25c-0.1,0.1-0.2,0.2-0.3,0.3c-5.75,5.3-11.35,6.73-15.89,4.05
		c-4.78-2.82-6.35-8.6-4.45-16.24c0.17-0.67,0.24-1.36,0.34-2.01c-4.12,3.91-7.96,8.11-12.38,11.58c-3.68,2.89-7.83,5.42-12.14,7.21
		c-4.34,1.81-9-1.5-8.4-6.09c0.73-5.59,2.05-11.32,4.36-16.42c2.65-5.85,6.66-11.08,10.08-16.58c0.67-1.07,1.61-2.05,1.98-3.22
		c0.33-1.06,0.04-2.31,0.03-3.48c-1.17,0.02-2.71-0.44-3.43,0.14c-2.83,2.29-5.91,4.54-7.96,7.46c-4.83,6.9-9.15,14.16-13.62,21.31
		c-2.91,4.65-5.52,9.51-8.63,14.02c-3.26,4.72-6.19,5.31-10.31,2.91c-2.32-1.35-3.09-2.75-1.42-5.36
		c3.63-5.67,6.96-11.54,10.42-17.32c0.22-0.54,0.44-1.08,0.66-1.62c-0.28-0.22-0.55-0.45-0.83-0.67c-0.19,0.48-0.39,0.96-0.58,1.43
		c-7.34,6.73-14.41,13.78-22.14,20.01c-2.93,2.36-7.42,4.03-11.13,3.91c-7.21-0.24-10.4-6.59-8.28-14.77
		c0.59-2.27,1.59-4.43,2.4-6.64c0.14-0.56,0.27-1.13,0.41-1.69c-0.38,0.29-0.76,0.59-1.14,0.88c-5.76,5.76-11.35,11.71-17.35,17.2
		c-2.29,2.1-5.4,3.57-8.39,4.58c-5.32,1.8-9.77-1.51-9.28-7.15c0.37-4.25,1.32-8.72,3.21-12.5c3.38-6.76,7.66-13.07,11.56-19.57
		c0.72-1.2,1.65-2.33,2.12-3.62c0.31-0.85,0.33-2.39-0.18-2.81c-0.62-0.51-2.33-0.63-2.9-0.14c-3.38,2.9-7.28,5.55-9.69,9.15
		c-6.63,9.92-12.6,20.27-18.84,30.45c-0.59,0.96-1.2,1.91-1.85,2.82c-4.43,6.16-7.64,6.41-13.62,0.77
		c3.64-6.01,7.33-12.11,11.02-18.2c0.12-0.59,0.24-1.17,0.36-1.76c-0.41,0.11-0.82,0.22-1.23,0.33
		c-6.69,6.24-13.17,12.73-20.15,18.62c-3.84,3.24-8.43,5.48-14.02,3.7c-4.38-1.4-7.21-4.13-6.82-8.78
		c0.32-3.82,1.23-7.78,2.81-11.26c2.73-6,6.28-11.63,9.28-17.52c0.83-1.63,2.85-3.67-0.03-5.43c-2.92-1.8-6.16-1.12-7.93,1.29
		c-5.41,7.36-10.94,14.64-16.46,21.93c-0.4,0.53-1.01,0.89-1.53,1.34c-0.31-0.19-0.62-0.37-0.92-0.56c0.82-1.36,1.54-2.79,2.47-4.07
		c4.63-6.37,9.38-12.65,13.89-19.1c0.67-0.96,0.67-2.75,0.33-3.97c-1.37-4.83,2.8-16.9,6.96-19.52c2.78-1.76,5.24-0.44,5.45,2.92
		c0.41,6.49-2.96,11.49-6.75,16.74c4.21-0.47,8.12-0.96,12.05-1.33c3.49-0.33,6.42,0.77,8.33,3.86c1.96,3.15-0.06,5.54-1.57,8.1
		c-3.86,6.54-7.64,13.12-11.36,19.73c-0.82,1.45-1.54,3.09-1.74,4.71c-0.17,1.36,0.09,3.18,0.92,4.11c0.56,0.62,2.79,0.54,3.7-0.08
		c4.87-3.31,9.84-6.57,14.26-10.43c7.55-6.59,14.24-14.01,18.94-23.01c1.61-3.1,2.75-6.11,0.97-9.55c-0.28-0.55,0.14-1.46,0.23-2.2
		c0.86,0.15,1.9,0.04,2.55,0.49c3.68,2.61,4.06,6.6,3.81,10.58c-0.26,3.97-1,7.9-1.55,12c3.22-4.53,6.28-9.04,9.58-13.38
		c1.34-1.77,3.03-3.36,4.81-4.69c4.52-3.37,8.76-3.75,12.05-1.37c3.27,2.37,4.95,7.52,3.07,12.26c-2.32,5.84-5.34,11.41-8.13,17.06
		c-1.3,2.64-2.94,5.12-4.12,7.81c-0.67,1.53-0.72,3.33-1.05,5.01c0.45,0.35,0.89,0.7,1.34,1.05c2.41-1.67,5.25-2.97,7.17-5.08
		c8.99-9.91,17.66-20.11,26.6-30.06c2.13-2.37,4.67-4.48,7.37-6.16c1.34-0.83,3.46-0.41,6.24-0.63c-2.58,4.42-4.98,7.46-6.27,10.92
		c-2.91,7.87-5.44,15.89-7.73,23.96c-0.48,1.69,0.26,4.35,1.45,5.63c0.65,0.69,3.92-0.01,5.15-1.07
		c6.98-6.07,13.93-12.2,20.41-18.79c3.61-3.67,6.41-8.18,9.33-12.48c2.29-3.37,3.35-7.1,1.52-11.16c-0.24-0.54,0.06-1.34,0.12-2.03
		c6.61,0.96,8.05,7.24,5.7,21.95c0.84-1.08,1.68-2.16,2.52-3.24c3.2-4.09,6.2-8.36,9.7-12.17c1.61-1.75,4.11-2.91,6.42-3.74
		c4.78-1.7,9.18,0.96,10.24,5.88c1.2,5.57-0.53,10.58-3.13,15.38c-3.02,5.57-6.23,11.05-9.1,16.69c-0.73,1.43-0.48,3.35-0.68,5.04
		c1.77-0.44,4.15-0.31,5.21-1.42c6.55-6.91,13.68-13.51,18.96-21.33c7.15-10.61,15.21-19.08,28.33-21.38
		c6.28-1.1,10.87,1.67,14.85,6.16c1.74,1.97,3.64,3.89,5.75,5.43c4.1,2.99,3.69,3.76,1.1,7.88c-4.84,7.71-9.1,15.81-13.13,23.98
		c-8,16.2-16.21,32.23-29.63,44.81c-12.13,11.36-30.44,12.91-43.07,3.84c-6.37-4.58-10.2-13.45-8.04-20.59
		c0.41,1.6,0.81,3.21,1.24,4.8c2.9,10.78,10.75,18.29,19.66,18.94c9.15,0.67,17.29-2.1,23.22-8.87
		c5.33-6.09,10.16-12.84,13.98-19.96c6.17-11.48,11.34-23.49,16.93-35.28c0.18-0.54,0.37-1.09,0.55-1.63
		C452.04,353.44,451.64,353.72,451.24,354.01z M455.66,329.19c-0.99,0.46-3,1.15-4.73,2.26c-10.68,6.82-17.8,16.6-22.9,27.98
		c-0.91,2.02-1.64,4.25-1.85,6.44c-0.35,3.6,2.03,5.23,5.39,3.86c1.26-0.51,2.38-1.46,3.47-2.32c8.97-7.06,15.73-16.06,22.01-25.43
		c1.54-2.3,2.82-4.9,3.6-7.54C461.64,331.1,459.9,329.06,455.66,329.19z"/>
	<path class="st1" d="M213.12,288.94c0.6-1.65,1.1-3.35,1.81-4.96c3.14-7.16,1.45-12.71-5.96-15.2c-6.84-2.3-14.12-4.19-21.28-4.51
		c-26.72-1.19-52.98,2.36-78.59,10.09c-5.34,1.61-10.54,3.99-15.43,6.68c-6.72,3.7-7.49,6.79-4.49,13.6
		c-3.05-0.98-4.72-3.59-4.61-7.97c0.29-11.31,6.85-18.55,16.39-23.12c16.55-7.92,34.17-11.68,52.51-12.49
		c15.14-0.67,30.2-0.14,44.38,5.52c6.78,2.71,13.27,6.78,18.97,11.37c5.33,4.29,5.94,12.38,2.53,17.73
		c-1.14,1.79-3.14,3.05-4.75,4.55C214.11,289.8,213.62,289.37,213.12,288.94z"/>
	<path class="st0" d="M153.83,350.34c0.35-0.95,0.48-2.08,1.09-2.82c5.12-6.18,10.32-12.29,15.52-18.4
		c0.63-0.75,1.38-1.43,2.17-2.01c3.17-2.34,6.53-3.94,10.51-2.01c3.77,1.83,4.96,5.35,4.08,8.89c-1.37,5.49-3.3,10.91-5.58,16.1
		c-1.79,4.1-4.56,7.76-6.68,11.73c-0.86,1.63-1.14,3.56-1.79,5.68c4.64,0.67,6.64-2.23,8.47-4.61c5.4-7.03,10.53-14.27,15.67-21.5
		c2.04-2.87,3.81-5.92,5.73-8.87c4.23-6.48,7.7-6.82,13.82-1.15c-4.05,6.63-8.5,13.12-12.11,20.05c-3.81,7.3-7,14.95-10.04,22.61
		c-0.83,2.08-0.13,4.76-0.13,7.06c-4.33-1.66-6.38-5.81-5.55-12.57c0.58-4.7,1.55-9.35,2.45-14.7c-3,3.94-5.32,7.7-8.34,10.77
		c-3.3,3.35-6.9,6.71-11,8.88c-5.46,2.89-10.71-0.51-10.18-6.59c0.45-5.16,1.79-10.5,3.97-15.19c2.64-5.7,6.59-10.79,9.94-16.16
		c0.89-1.43,1.82-2.86,2.49-4.39c0.27-0.61,0.15-1.82-0.28-2.2c-0.46-0.4-1.66-0.42-2.25-0.09c-1.34,0.74-2.68,1.63-3.71,2.75
		c-5.16,5.59-10.24,11.25-15.3,16.93c-0.71,0.8-1.12,1.86-1.67,2.81C154.7,350.99,154.26,350.66,153.83,350.34z"/>
	<path class="st0" d="M139.49,385.09c-4.48,6.62-13.74,6.58-18.21,0.07c-2.11-3.07-3.48-7.13-3.81-10.86
		c-1.26-14.36,2.19-28.14,8.57-40.73c10.88-21.43,22.83-42.31,34.47-63.35c0.64-1.16,2.45-1.67,3.72-2.49
		c-0.17,1.48,0.06,3.17-0.58,4.41c-11.83,23.01-23.81,46-30.63,71.1c-2.92,10.74-4.08,21.95-5.92,32.97
		c-0.22,1.31,0.21,2.78,0.53,4.13C129.48,388.09,131.77,389.14,139.49,385.09z"/>
	<path class="st0" d="M362.64,310.36c0,4.65-4.17,10.29-7.81,10.29c-3.3,0-4.2-2.2-4.16-5.13c0.07-5.19,3.7-9.96,7.75-10.06
		C361.51,305.39,362.64,306.7,362.64,310.36z"/>
</g>
<g>
	<path class="st2" d="M265.41,496.47l-0.08-0.28c0,0-0.28-0.07-0.28-0.07c-0.23-0.2-0.47-0.39-0.7-0.59
		c-1.57-0.44-3.14-0.89-4.7-1.33c-0.97-0.79-1.94-1.57-2.91-2.36c0,0,0.02,0.01,0.02,0.01c-0.01-0.21-0.06-0.41-0.16-0.6
		c-0.26-0.13-0.51-0.27-0.77-0.4l-0.13,0.39l0.32,0.26c-0.88-0.24-1.76-0.48-2.64-0.72c-0.61-0.05-1.23-0.11-1.84-0.16
		c-1.09-0.15-2.18-0.3-3.27-0.45c-0.29-0.85-0.58-1.69-0.87-2.54c0.29-0.15,0.57-0.31,0.86-0.46c0.5-0.16,1.01-0.32,1.51-0.48
		c0.9-0.27,1.8-0.54,2.69-0.81c0.79-1.2,1.59-2.39,2.41-3.63c-4.96,0-9.54,0-13.84,0c-0.77,2.06-1.39,3.72-2.02,5.39
		c-0.61,0.52-1.23,1.04-1.84,1.56c-0.57-0.22-1.13-0.44-1.7-0.66c0-0.32,0-0.64,0-0.96c0.12-0.07,0.24-0.13,0.36-0.2
		c-0.12-0.18-0.25-0.35-0.37-0.53c-0.56,0.01-1.11,0.02-1.67,0.04c-0.33-0.46-0.65-0.92-0.98-1.38c-0.25,0.69-0.5,1.38-0.75,2.08
		c-0.54,0.01-1.08,0.02-1.62,0.02c-0.57-0.04-1.14-0.08-1.71-0.12c-3.17-2.96-6.65-2.25-10.18-0.85c-0.53,0-1.06-0.01-1.59-0.01
		c-0.61-0.5-1.22-1.01-1.83-1.51c-0.67-1.35-1.49-2.64-1.97-4.05c-1.08-3.18-3.17-4.7-6.54-4.41c0.04-0.5,0.08-0.99,0.12-1.49
		c0.9-0.3,1.79-0.61,2.69-0.91c2.94,0.53,5.88,1.07,8.83,1.6c8.72,2.55,17.62,2.91,26.61,2.28c6.49-0.78,12.99-1.56,19.48-2.34
		c5.54-1.15,10.96-2.55,14.5-7.54c0.31-0.01,0.63-0.01,0.94-0.02c0.63-0.29,1.25-0.84,1.88-0.84c3.88-0.03,7.36-4.76,11.55-0.99
		c-1.26,1.88-2.51,3.76-3.77,5.64l-0.17,0.04c-1.28,1.49-2.57,2.98-3.85,4.47c-3.09,5.94-6.18,11.87-9.27,17.81
		c-1.88,2.12-3.75,4.23-5.63,6.35C268.84,499.3,267.13,497.88,265.41,496.47z"/>
	<path class="st3" d="M344.27,435.33c1.73-1.43,3.55-2.77,5.16-4.33c2.83-2.74,5.52-5.61,8.27-8.43c3.38-0.72,6.77-1.45,10.15-2.17
		c0.04,1.23,0.09,2.47,0.13,3.71c-0.27,1.71-0.55,3.42-0.82,5.13c-0.02,0.54-0.04,1.09-0.05,1.63c-0.68,1.31-1.08,2.9-2.08,3.89
		c-3.21,3.21-6.76,6.07-9.92,9.33c-1.45,1.5-2.28,3.6-3.4,5.42c-1.48,1.92-2.97,3.84-4.45,5.76c-0.5,0.06-1,0.11-1.51,0.17
		c-1.97,0.28-3.95,0.56-5.92,0.83l-0.02-0.01c-0.3-0.26-0.6-0.53-0.91-0.79c-1.2-1.38-2.41-2.76-3.61-4.13
		c-0.06-1.23-0.13-2.45-0.19-3.68c0.15-0.8,0.29-1.59,0.44-2.39c0.29-0.56,0.58-1.13,0.87-1.69c0.83-1.15,1.66-2.3,2.49-3.45
		c1.88-1.12,3.78-2.21,5.61-3.41C344.67,436.62,344.36,435.81,344.27,435.33z"/>
	<path class="st4" d="M214.39,441.03c-0.28-0.47-0.57-0.95-0.85-1.42c4.51-1.51,0.73-2.47-0.7-4.15c1.46,0,2.47,0.02,3.48-0.01
		c0.88-0.02,1.81,0.07,2.63-0.19c6.54-2.06,5.91-8.05,7.1-13.05c0.83-0.28,1.67-0.55,2.5-0.83c1.18,1.48,2.36,2.97,3.54,4.45
		c1.72,4.76,9.38,7.38,13.24,4.5c1.98-1.48,3.86-2.89,6.4-1.08c1.33,0.95,2.79,1.7,4.19,2.54c0.01,1.78,0.05,3.59-2.58,3.33
		l-0.04-0.04c-0.26-0.45-0.61-1.31-0.75-1.28c-2.31,0.55-4.62,1.85-6.86,1.72c-4.63-0.26-4.27,2.63-4.27,5.55
		c-2.53-0.02-5.06-0.03-7.59-0.05c0-0.56,0.09-1.15-0.02-1.69c-0.21-1.04-0.53-2.07-0.8-3.1c-0.95,0.52-1.87,1.39-2.86,1.49
		c-1.29,0.13-2.65-0.35-4.4-0.64c-1.44,0.52-3.52,1.27-6.3,2.28c0.95,0.65,1.73,1.19,2.51,1.72c-1.19,0.33-2.39,0.66-3.58,0.99
		C217.04,441.73,215.72,441.38,214.39,441.03z M240.26,435.71c-0.28-0.2-0.56-0.41-0.84-0.61c-0.61,0.69-1.23,1.39-1.84,2.08
		c0.41,0.32,0.81,0.65,1.22,0.97C239.28,437.34,239.77,436.53,240.26,435.71z"/>
	<path class="st5" d="M389.84,494.49c4.69,2.75,9.23,5.79,14.1,8.17c7.17,3.52,15.02,3.02,22.74,2.95c-3.24,1.02-6.47,2.04-9.7,3.07
		c-3.95,0.04-7.9,0.09-11.86,0.13c0.46-1.17,0.92-2.34,1.38-3.52c-1.17-0.16-2.36-0.58-3.49-0.44c-5.31,0.68-10.59,1.52-15.89,2.3
		c-3.5-1.35-7-2.71-10.49-4.06c0.02-0.63,0.25-1.35,0.03-1.87c-0.49-1.16-1.21-2.22-1.83-3.32c1.27-0.32,2.53-0.79,3.83-0.93
		c3.41-0.36,6.84-0.58,10.26-0.85C389.22,495.58,389.53,495.04,389.84,494.49z"/>
	<path class="st6" d="M206.65,476.64c3.37-0.29,5.45,1.23,6.54,4.41c0.48,1.41,1.3,2.7,1.97,4.05c-3.42,0.2-7.18-0.82-10.07,2.56
		c1.28,0.64,2.76,0.88,3.1,1.64c1.82,4.02,6.38,1.89,8.97,4.12c0.17,0.14,1.49-1.05,2.27-1.61c1.12,0.07,2.25,0.15,3.37,0.22
		c0.01,0.83,0.02,1.66,0.02,2.49c-1.18,0.13-2.37,0.26-3.56,0.39c-2.5,0.23-5,0.47-7.5,0.7c-2.53,0.08-5.05,0.17-7.58,0.25
		c-0.46-0.74-0.79-1.97-1.41-2.14c-3.74-1.06-7.53-1.93-11.34-2.69c-0.51-0.1-1.22,0.83-1.84,1.29c-2.56-0.93-4.61-2.28-4.43-5.43
		c0.63-0.05,1.26-0.1,1.88-0.15c2.28,1.21,4.55,2.43,7.22,3.85c1.15-2.46,2.03-4.35,2.9-6.22c0.91,2.02-1.41,6.67,3.98,5.46
		c-0.31-4.56-2.47-7.21-6.41-8.38c2.87-0.63,5.71-1.57,8.61-1.79C205.54,479.48,206.73,478.97,206.65,476.64z"/>
	<path class="st4" d="M291.69,434.29c-0.42,0.45-0.84,0.9-1.26,1.34c-0.99,0.91-1.99,1.82-2.98,2.73c0.03-0.29-0.03-0.56-0.19-0.81
		c-0.01-0.26-0.01-0.53-0.02-0.79c0.12-2.06,0.23-4.11,0.36-6.37c-5.53-2.79-10.99-0.53-16.46,0.51c0-0.57,0-1.14,0-1.71
		c0.28-0.84,1.01-1.85,0.77-2.49c-0.92-2.36-2.16-4.61-3.28-6.89c3.53,1.25,6.98,3.28,10.85,0.99c0.17-0.1,0.53,0.12,0.8,0.19
		c3.75,1.03,7.49,2.06,11.24,3.09C291.57,427.49,291.63,430.89,291.69,434.29z"/>
	<path class="st2" d="M351.69,491.21c-1.18,1.04-2.35,2.08-3.53,3.13c-1.96,0.51-3.92,1.02-5.87,1.53
		c-0.29,0.06-0.57,0.12-0.86,0.18c-3.07,0.14-6.15,0.28-9.22,0.42c-1.69-0.19-3.39-0.38-5.08-0.57c1.43-1.91,2.86-3.82,4.3-5.73
		c0.56-0.85,1.13-1.69,1.69-2.54c1.68-0.29,3.35-0.58,5.03-0.86c2.5,0.93,5.01,1.87,7.51,2.8
		C347.65,490.12,349.67,490.67,351.69,491.21z"/>
	<path class="st7" d="M228.55,421.38c-0.83,0.28-1.67,0.55-2.5,0.83c-2.9,0.8-5.79,1.65-8.72,2.37c-2.53,0.62-3.8,1.82-2.32,4.44
		c1.4,2.47,0.18,4.03-2.07,4.14c-2.89,0.14-3.05,1.78-3.1,3.84c-3.68-3.53-4.29-6.88-0.88-10.03c3.01-2.77,6.81-4.69,10.34-6.86
		c1.37-0.84,2.96-1.33,4.46-1.99c0.75,0.33,1.51,0.66,2.26,0.99c0.57,0.32,1.13,0.64,1.7,0.96
		C227.99,420.51,228.27,420.94,228.55,421.38z"/>
	<path class="st8" d="M209.85,437c0.05-2.06,0.22-3.69,3.1-3.84c2.25-0.11,3.46-1.68,2.07-4.14c-1.48-2.62-0.22-3.81,2.32-4.44
		c2.92-0.72,5.81-1.57,8.72-2.37c-1.19,4.99-0.56,10.99-7.1,13.04c-0.82,0.26-1.75,0.17-2.63,0.19c-1.01,0.03-2.02,0.01-3.48,0.01
		c1.43,1.68,5.2,2.64,0.7,4.15c-0.62-0.32-1.24-0.65-1.85-0.97c-0.6-0.53-1.21-1.07-1.81-1.6L209.85,437z"/>
	<path class="st9" d="M220.73,413.32c-2.49-2.29-0.68-4.01,0.86-5.63c4.65-4.88,11.07-5.53,17.11-6.11
		c7.23-0.7,14.58-0.21,21.88-0.14c0.71,0.01,1.42,0.66,2.13,1.01c-2.57,0.41-5.14,0.81-7.7,1.22c-2.26,0.08-4.53,0.16-6.79,0.24
		c-0.81,0.05-1.62,0.09-2.43,0.14c-1.47,0.22-2.93,0.45-4.4,0.67c-2.24-0.02-4.47-0.04-6.71-0.06c-1.15,0.24-2.29,0.48-3.44,0.72
		c-0.52,0.07-1.05,0.15-1.57,0.23c-3.31-1.17-4.59,1.31-6.06,3.39C222.62,410.41,221.69,411.88,220.73,413.32z"/>
	<path class="st10" d="M371.53,436.84c8.07,0.53,16.15,1.06,24.22,1.59c3.94,1.72,7.88,3.45,11.83,5.17
		c-0.26,0.23-0.52,0.46-0.78,0.69c-8.68-1.67-17.33-3.65-26.08-4.85c-3.23-0.44-6.71,0.95-10.07,1.51
		C370.94,439.58,371.23,438.21,371.53,436.84z"/>
	<path class="st9" d="M295.83,438.85c2.44,0.77,4.87,1.54,7.31,2.31c0.64,0.59,1.29,1.18,1.93,1.77c-0.11,1.04-0.23,2.08-0.34,3.12
		c-5.55-1.08-11.11-2.16-16.67-3.24c-1.4-0.32-2.79-0.65-4.19-0.97c0.86-1.39,1.72-2.78,2.58-4.17l-0.05,0.04
		c0.29-0.05,0.57-0.1,0.86-0.16c0.16,0.25,0.22,0.52,0.19,0.81C290.25,438.52,293.04,438.69,295.83,438.85z"/>
	<path class="st10" d="M291.51,424.09c-3.75-1.03-7.49-2.06-11.24-3.09c-0.27-0.07-0.63-0.29-0.8-0.19
		c-3.87,2.3-7.32,0.26-10.85-0.99c0.55-0.85,1.09-1.7,1.64-2.55c0.87-0.85,1.74-1.7,2.62-2.56c0.01-0.22,0-0.45-0.03-0.67
		c0.5-0.33,1.01-0.66,1.51-1c-0.59,2.21,0.66,2.49,2.49,3.21c5.11,2.01,9.99,4.58,14.96,6.94
		C291.71,423.49,291.61,423.79,291.51,424.09z"/>
	<path class="st8" d="M206.65,476.64c0.08,2.32-1.1,2.83-3.31,3.01c-2.9,0.23-5.74,1.16-8.61,1.8c-2.56,1.76-5.12,3.52-7.68,5.28
		c-0.63,0.05-1.26,0.1-1.88,0.15c1.69-2.21,3.11-4.72,5.15-6.54c1.73-1.54,4.17-2.29,6.3-3.39c3.39-0.6,6.78-1.19,10.16-1.79
		C206.72,475.65,206.68,476.15,206.65,476.64z"/>
	<path class="st9" d="M214.39,441.03c1.33,0.35,2.65,0.7,3.98,1.05c0.08,0.23,0.18,0.44,0.3,0.65c-0.51,0.41-1.03,0.82-1.54,1.23
		c-1.81,0.61-3.65,1.18-5.44,1.85c-7.68,2.84-14.05,6.83-14.24,16.23c-0.27,0-0.52-0.05-0.77-0.16c-1.55-4.36,0.44-9.84,5.27-13.2
		C205.93,445.89,210.23,443.56,214.39,441.03z"/>
	<path class="st11" d="M320.46,436.03c3.94-0.68,7.88-1.35,11.82-2.03c1.14,0.65,2.28,1.3,3.42,1.95c-1.28,0.64-2.56,1.3-3.85,1.93
		c-1.02,0.5-2.05,0.96-3.08,1.44c-4.12,1.51-8.17,2.31-11.88-1C318.08,437.55,319.27,436.79,320.46,436.03z"/>
	<path class="st12" d="M432.05,505.22c4.44-1.65,8.89-3.29,13.33-4.94c1.01,1.5,2.02,3.01,3.03,4.51c-0.43,0.79-0.77,2.19-1.31,2.27
		c-2.22,0.32-4.49,0.25-6.74,0.32c-1.03-0.16-2.05-0.32-3.08-0.48C435.53,506.34,433.79,505.78,432.05,505.22z"/>
	<path class="st8" d="M220.73,413.32c0.96-1.44,1.88-2.91,2.88-4.32c1.47-2.08,2.75-4.56,6.06-3.39c-1.14,3.41-2.27,6.82-3.56,10.69
		c0.2,0.16,1.01,0.8,1.74,1.38c-0.8,0.63-1.32,1.04-1.84,1.44c-0.75-0.33-1.51-0.66-2.26-0.99
		C222.75,416.52,221.74,414.92,220.73,413.32z"/>
	<path class="st13" d="M406.79,444.3c0.26-0.23,0.52-0.46,0.78-0.69c1.74,1.93,3.48,3.86,5.21,5.79c0,0-0.27-0.16-0.27-0.16
		s-0.24,0.2-0.24,0.2c-1.75-0.01-3.5-0.01-5.25-0.02c-1.15-0.52-2.32-1.5-3.46-1.46c-4.29,0.14-8.57,0.6-12.86,0.94
		c-0.55-0.04-1.09-0.08-1.64-0.12c-0.3-2.43,1.05-2.66,3.06-2.6c4.14,0.12,8.28,0.08,12.41-0.13
		C405.32,446.01,406.05,444.91,406.79,444.3z"/>
	<path class="st14" d="M440.36,507.38c2.25-0.07,4.53,0.01,6.74-0.32c0.54-0.08,0.88-1.48,1.31-2.27c3.17,1.41,6.33,2.82,9.5,4.24
		c-0.12,0.51-0.24,1.02-0.37,1.52C451.81,509.49,446.08,508.44,440.36,507.38z"/>
	<path class="st8" d="M255.01,403.66c2.57-0.41,5.14-0.81,7.7-1.22c0.54,0.1,1.08,0.2,1.62,0.3c2.29,0.88,4.57,1.76,6.86,2.65
		c0.61,0.55,1.23,1.1,1.84,1.65c-1.48,0.03-2.95,0.06-4.43,0.09c-2-0.28-4-0.57-6.01-0.84c-2.52-0.34-5.05-0.65-7.57-0.98
		C255.03,404.76,255.02,404.21,255.01,403.66z"/>
	<path class="st4" d="M189.58,492.31c0.62-0.45,1.33-1.39,1.84-1.29c3.81,0.76,7.6,1.63,11.34,2.69c0.62,0.18,0.95,1.4,1.41,2.14
		C198.87,496.47,194.01,495.28,189.58,492.31z"/>
	<path class="st12" d="M335.7,435.95c-1.14-0.65-2.28-1.3-3.42-1.95c2.56,0.08,5.11,0.15,7.67,0.23c0,0,0.24,0.05,0.24,0.05
		s0.25-0.01,0.25-0.01c1.28,0.35,2.55,0.7,3.83,1.05c0.1,0.48,0.41,1.29,0.25,1.4c-1.83,1.2-3.73,2.29-5.61,3.41
		c0,0-0.11-0.08-0.11-0.08c0.04-0.51,0.09-1.03,0.13-1.54C339.27,435.87,337.5,435.89,335.7,435.95z"/>
	<path class="st4" d="M268.61,407.13c1.48-0.03,2.95-0.06,4.43-0.09c0.25,0.25,0.49,0.5,0.74,0.75c0.24,0.35,0.48,0.7,0.71,1.05
		c-0.04,1.4-0.08,2.8-0.13,4.2c-0.5,0.33-1.01,0.66-1.51,0.99c-0.8-1.1-1.37-2.76-2.44-3.17c-1.59-0.62-3.51-0.36-5.3-0.48
		C266.28,409.3,267.45,408.22,268.61,407.13z"/>
	<path class="st4" d="M230.46,487.6c0.54-0.01,1.08-0.02,1.62-0.02c0.58-0.23,1.15-0.46,1.72-0.69c0.56-0.01,1.11-0.02,1.67-0.04
		c0.01,0.24,0.01,0.48,0.01,0.73c0,0.32,0,0.64,0,0.96c0.04,0.61,0.07,1.22,0.11,1.82c-1.43,0.78-2.86,1.57-4.29,2.35
		c-1.17-0.31-2.33-0.61-3.5-0.92c0.37-0.52,0.75-1.04,1.12-1.56C229.44,489.36,229.95,488.48,230.46,487.6z"/>
	<path class="st4" d="M222.81,494.52c-0.01-0.83-0.02-1.66-0.02-2.49c1.42-0.07,2.84-0.14,4.26-0.21c0.28,0.56,0.55,1.11,0.83,1.67
		C226.18,493.83,224.5,494.18,222.81,494.52z"/>
	<path class="st4" d="M211.75,495.61c2.5-0.23,5-0.47,7.5-0.7C216.75,495.14,214.25,495.37,211.75,495.61z"/>
	<path class="st5" d="M432.05,505.22c1.74,0.56,3.48,1.12,5.22,1.68c-2.75-0.53-5.5-1.06-8.25-1.59
		C430.03,505.28,431.04,505.25,432.05,505.22z"/>
	<path class="st6" d="M227.87,493.49c-0.28-0.56-0.55-1.11-0.83-1.67c0,0,0.38-0.04,0.38-0.04l0.38,0.02
		c1.17,0.31,2.33,0.61,3.5,0.92c0,0-0.02,0.01-0.02,0.01c-0.27-0.07-0.51-0.01-0.71,0.19C229.67,493.1,228.77,493.3,227.87,493.49z"
		/>
	<path class="st13" d="M251.55,490.62c0.61,0.05,1.23,0.11,1.84,0.16C252.77,490.73,252.16,490.67,251.55,490.62z"/>
	<path class="st7" d="M209.88,437.03c0.6,0.53,1.21,1.07,1.81,1.6C211.09,438.1,210.48,437.57,209.88,437.03z"/>
	<path class="st6" d="M235.59,490.36c-0.04-0.61-0.07-1.22-0.11-1.82c0.56,0.22,1.13,0.44,1.7,0.66
		C236.65,489.58,236.12,489.97,235.59,490.36z"/>
	<path class="st15" d="M341.42,496.05c0.29-0.06,0.57-0.12,0.86-0.18C341.99,495.93,341.71,495.99,341.42,496.05z"/>
	<path class="st8" d="M274.49,408.84c-0.24-0.35-0.48-0.7-0.71-1.05C274.01,408.15,274.25,408.5,274.49,408.84z"/>
	<path class="st4" d="M230.57,492.9c0.2-0.19,0.44-0.26,0.71-0.19C231.04,492.78,230.81,492.84,230.57,492.9z"/>
	<path class="st11" d="M340.44,434.27l-0.25,0.01c0,0-0.24-0.05-0.24-0.05C340.11,434.25,340.27,434.26,340.44,434.27z"/>
	<path class="st16" d="M351.69,491.21c-2.02-0.55-4.03-1.1-6.05-1.65c-1.76-4.4-5.57-4.4-9.4-4.37c-1.23-0.87-2.61-1.6-3.66-2.65
		c-2.47-2.48-4.78-5.12-7.16-7.69c0.07-1.72,0.15-3.43,0.22-5.15c3.6,0.02,7.2,0.04,10.8,0.06c0.28,0.02,0.55,0.07,0.82,0.13
		c0.25,1.85,0.49,3.69,0.81,6.08c4.16-2.25,6.24-0.03,8.13,3.46c0.89,1.65,3,3.71,4.56,3.72c4.28,0.03,8.56-0.93,12.84-1.5
		c7.68,2.45,15.36,4.89,23.04,7.34c1.06,1.83,2.13,3.67,3.19,5.5c-0.31,0.55-0.62,1.09-0.93,1.64c-5.95-0.77-11.9-1.54-17.85-2.32
		C364.6,492.94,358.15,492.08,351.69,491.21z"/>
	<path class="st5" d="M401.6,490.49c-0.79-0.15-1.57-0.31-2.36-0.46c0.68-3.9-2.87-4.56-5-5.61c-2.13-1.05-4.11-1.34-4.93-4.17
		c-0.59-2.03-2.52-2.92-3.89-0.07c-1.37-1.18-2.74-2.35-4.1-3.53c0.57-0.31,1.14-0.62,1.7-0.92c5.11,0.01,10.23,0.01,15.34,0.02
		c2.25-0.26,4.49-0.51,6.74-0.77c0.58,0.26,1.15,0.52,1.73,0.77c4.53,1.41,9.05,2.82,13.58,4.23c-0.05,3.22-2.12,3.28-4.62,3.23
		c-3.82-0.07-7.66,0.15-11.48,0.39c-0.48,0.03-1.32,1.26-1.29,1.29C405.38,487.5,401.58,488.53,401.6,490.49z"/>
	<path class="st11" d="M420.4,479.98c-4.53-1.41-9.05-2.82-13.58-4.23c-0.58-0.26-1.15-0.52-1.73-0.77
		c-2.25,0.26-4.49,0.51-6.74,0.77c-1.61-1.43-3.22-2.86-4.93-4.36c1.22-0.58,2.17-1.02,3.12-1.47c0.6,0.26,1.19,0.52,1.79,0.77
		c0.04,0.52,0.08,1.04,0.12,1.57c0.79-0.49,1.57-0.98,2.36-1.47c5.34,0.85,11.57,0.26,15.8,2.89c6.67,4.13,12.67-0.16,18.86,0.77
		c0.5,0.08,1.21-1.25,1.83-1.92c1.18,0.43,3.43-1.53,3.43,1.54c-3.67,2.54-7.35,5.07-10.97,7.58c2.63,2.79,4.89,5.18,7.16,7.58
		c-3.24,0.6-6.48,1.21-9.73,1.81c-0.01-1.55,0.08-3.11-0.04-4.66C426.79,482.02,424.96,480.33,420.4,479.98z"/>
	<path class="st16" d="M420.4,479.98c4.57,0.35,6.4,2.04,6.73,6.38c0.12,1.54,0.04,3.1,0.04,4.66c-8.59,3.02-17.1,1.95-25.58-0.54
		c-0.01-1.96,3.79-2.99,1.41-5.6c-0.03-0.03,0.82-1.26,1.29-1.29c3.82-0.23,7.65-0.46,11.48-0.39
		C418.27,483.26,420.34,483.2,420.4,479.98z"/>
	<path class="st17" d="M386.65,488.99c-7.68-2.45-15.36-4.89-23.04-7.34c-2.68-1.4-5.37-2.78-8.04-4.21
		c-3.59-1.92-7.17-3.88-10.75-5.82c2.99-0.45,5.98-0.91,8.97-1.36c-0.15,0.56-0.3,1.13-0.46,1.69c1.14,1.47,2.23,4.16,3.42,4.2
		c8.38,0.28,15.14,5.34,22.92,7.24c2.2,1.16,4.41,2.32,6.61,3.47C386.4,487.57,386.53,488.28,386.65,488.99z"/>
	<path class="st18" d="M385.41,480.18c1.37-2.85,3.3-1.96,3.89,0.07c0.83,2.83,2.8,3.12,4.93,4.17c2.14,1.06,5.69,1.71,5,5.61
		c-3.41-1.66-6.81-3.31-10.22-4.97c-0.34-0.5-0.68-1-1.02-1.5c-0.23-0.06-0.46-0.11-0.69-0.15
		C386.67,482.33,386.04,481.25,385.41,480.18z"/>
	<path class="st19" d="M385.41,480.18c0.63,1.07,1.26,2.15,1.89,3.22c-0.34,1.16-0.68,2.31-1.02,3.47
		c-2.21-1.16-4.41-2.32-6.61-3.47c0.02-2.51,0.03-5.02,0.05-7.53c0.53,0.26,1.06,0.52,1.59,0.79
		C382.67,477.83,384.04,479,385.41,480.18z"/>
	<path class="st19" d="M387.99,483.55c0.34,0.5,0.68,1,1.02,1.5C388.67,484.55,388.33,484.05,387.99,483.55z"/>
	<path class="st20" d="M276.18,494.36c3.09-5.94,6.18-11.87,9.27-17.81c2.83-0.16,4.71-1.14,3.85-4.47c0,0,0.17-0.04,0.17-0.03
		c4.55-0.3,5.14-4.39,7-7.27c0.01-0.28-0.02-0.55-0.09-0.82c0.07-0.33,0.14-0.67,0.21-1.01c1.96-0.53,3.91-1.05,5.87-1.58
		c1.31-0.25,2.62-0.49,3.93-0.75c3.2-0.63,6.41-1.27,9.61-1.91c1.44,1.19,2.89,2.38,4.33,3.57c-2.72,0-5.43,0-8.47,0
		c0.09,1.23,0.2,2.55,0.29,3.75c1.71,0.35,3,0.61,4.28,0.88c-4.08,0.4-2.39,3.89-3.26,5.84c-2.15,0.66-4.23,1.3-6.31,1.94
		c-0.29,0.45-0.58,0.9-0.86,1.34c1.41,0.68,2.81,1.35,3.59,1.73c-3.5,1.85-7.77,2.75-9.55,5.36c-2.65,3.88-6.2,4.64-9.78,6.02
		c-3.02-4.38-4.28-4.38-7.58-0.29c-1.99,2.46-4.03,4.88-6.26,7.58C276.3,495.46,276.24,494.91,276.18,494.36z M294.41,485.53
		c-0.01-0.34-0.03-0.69-0.04-1.03c-0.81,0.07-1.62,0.15-2.42,0.22c0.02,0.27,0.04,0.54,0.05,0.81
		C292.8,485.53,293.61,485.53,294.41,485.53z"/>
	<path class="st11" d="M276.18,494.36c0.06,0.55,0.12,1.1,0.22,2.07c2.24-2.71,4.28-5.12,6.26-7.58c3.3-4.09,4.56-4.09,7.58,0.29
		c3.58-1.39,7.14-2.14,9.78-6.02c1.78-2.61,6.05-3.51,9.55-5.36c-0.77-0.37-2.18-1.05-3.59-1.73c0.29-0.45,0.58-0.9,0.86-1.34
		c2.08-0.64,4.15-1.28,6.31-1.94c0.88-1.95-0.82-5.45,3.26-5.84c-1.28-0.26-2.57-0.53-4.28-0.88c-0.09-1.2-0.19-2.52-0.29-3.75
		c3.04,0,5.75,0,8.47,0c0.1,0.14,0.13,0.3,0.1,0.48c0.9,1.21,1.8,2.43,2.7,3.64c0.64,0.51,1.28,1.01,1.91,1.52
		c-1.07,0.47-2.17,0.87-3.19,1.43c-1.2,0.66-2.37,1.4-3.48,2.21c-1.59,1.16-3.46,2.19-4.49,3.75c-0.37,0.55,1.37,2.49,2.15,3.8
		c-0.27,0.29-0.55,0.59-0.82,0.88c-0.6,0.31-1.2,0.61-1.79,0.92c-1.08,0.56-2.16,1.12-3.24,1.68c0,0-0.01,0-0.01,0
		c-0.56,0.28-1.13,0.56-1.69,0.84l-0.02,0.01c-0.56,0.28-1.12,0.56-1.68,0.84c0,0-0.01,0.01-0.01,0.01
		c-3.51,1.99-7.04,3.97-10.5,6.04c-0.15,0.09,0.26,1.1,0.41,1.68c-0.03,0.52-0.07,1.04-0.1,1.56c-1.38,0.17-2.96-0.05-4.1,0.56
		c-5.76,3.08-11.4,6.38-17.08,9.61c-2.45,0.34-5.19,1.14-4.83-3.02C272.43,498.59,274.31,496.48,276.18,494.36z"/>
	<path class="st12" d="M244.89,478.13c-8.99,0.63-17.89,0.26-26.61-2.28c0.15-0.4,0.48-1.13,0.42-1.16
		c-2.87-1.6-5.77-3.14-8.67-4.69c2.85-2.29,5.71-4.58,8.56-6.86c-0.29,1.95-0.58,3.9-0.87,5.85c0.14,0.55,0.22,1.57,0.42,1.6
		c5.25,0.65,10.5,1.19,15.76,1.75c1.67-0.26,3.35-0.52,5.02-0.79c0.6,2.51,1.57,3.49,3.4,0.81c0.57,0,1.13,0,1.7,0.01
		C244.31,474.28,244.6,476.21,244.89,478.13z"/>
	<path class="st18" d="M244.89,478.13c-0.29-1.92-0.58-3.85-0.87-5.77c0.54-0.01,1.08-0.02,1.63-0.03c1.72-0.27,3.44-0.53,5.16-0.8
		c1.69-0.29,3.38-0.58,5.07-0.87c0.85,0,1.69,0,2.54-0.01c1.7-0.01,3.4-0.03,5.1-0.04c0.85,0,1.69,0,2.54,0
		c1.12,0.29,2.24,0.59,3.36,0.88c-1.68,1.43-3.36,2.87-5.04,4.3C257.88,476.57,251.38,477.35,244.89,478.13z M249.83,474.72
		c-0.41-0.22-0.81-0.45-1.22-0.67c-0.53,0.96-1.06,1.93-1.58,2.89c0.4,0.22,0.81,0.44,1.21,0.67
		C248.76,476.64,249.29,475.68,249.83,474.72z"/>
	<path class="st4" d="M219.42,491.81c-0.78,0.57-2.1,1.76-2.27,1.61c-2.59-2.24-7.15-0.1-8.97-4.12c-0.34-0.76-1.82-1-3.1-1.64
		c2.89-3.38,6.65-2.36,10.07-2.56c0.61,0.5,1.22,1.01,1.83,1.51c-1.07,0.95-2.14,1.9-3.68,3.27c2.23,0.51,3.69,0.85,5.15,1.18
		C218.77,491.31,219.09,491.56,219.42,491.81z"/>
	<path class="st13" d="M296.38,463.95c0.08,0.27,0.11,0.54,0.09,0.82c-1.08,0.54-2.16,1.09-3.23,1.63
		c-4.19-3.77-7.67,0.97-11.55,0.99c-0.63,0-1.25,0.55-1.88,0.84c-0.07-0.31-0.15-0.62-0.22-0.94c0.1-1.14,0.19-2.29,0.29-3.43
		C285.38,463.9,290.88,463.93,296.38,463.95z"/>
	<path class="st14" d="M210.03,469.99c2.9,1.55,5.8,3.09,8.67,4.69c0.06,0.03-0.27,0.76-0.42,1.16c-2.94-0.54-5.89-1.07-8.83-1.6
		c-1.02-0.73-2.05-1.46-3.07-2.19c0.43-0.4,0.87-0.79,1.3-1.19C208.46,470.57,209.25,470.28,210.03,469.99z"/>
	<path class="st21" d="M264.37,475.8c1.68-1.43,3.36-2.87,5.04-4.3c1.16-0.82,2.32-1.65,3.47-2.47c1.96-0.3,3.92-0.59,5.88-0.89
		l0.1,0.12C275.33,473.25,269.92,474.65,264.37,475.8z"/>
	<path class="st22" d="M293.24,466.4c1.08-0.54,2.16-1.09,3.23-1.63c-1.86,2.88-2.45,6.98-7,7.28
		C290.73,470.16,291.98,468.28,293.24,466.4z"/>
	<path class="st6" d="M218.57,486.62c3.53-1.4,7.01-2.11,10.18,0.85c-0.04,0.16-0.06,0.31-0.07,0.47c-3.37-0.09-6.73-0.18-10.1-0.27
		C218.57,487.32,218.57,486.97,218.57,486.62z"/>
	<path class="st8" d="M218.57,486.62c0,0.35,0,0.7,0.01,1.05c-0.04,1.13-0.08,2.26-0.12,3.39c-1.46-0.33-2.92-0.67-5.15-1.18
		c1.54-1.36,2.61-2.31,3.68-3.27C217.51,486.62,218.04,486.62,218.57,486.62z"/>
	<path class="st22" d="M289.3,472.08c0.85,3.33-1.03,4.31-3.85,4.47C286.73,475.06,288.02,473.57,289.3,472.08z"/>
	<path class="st8" d="M230.46,487.6c-0.51,0.88-1.02,1.76-1.53,2.64c-0.08-0.76-0.17-1.53-0.25-2.29c0.01-0.16,0.04-0.31,0.07-0.47
		C229.32,487.51,229.89,487.56,230.46,487.6z"/>
	<path class="st6" d="M233.81,486.88c-0.57,0.23-1.15,0.46-1.72,0.69c0.25-0.69,0.5-1.38,0.75-2.08
		C233.15,485.96,233.48,486.42,233.81,486.88z"/>
	<path class="st13" d="M249.77,486.69c0.9-0.27,1.8-0.54,2.69-0.81C251.57,486.15,250.67,486.42,249.77,486.69z"/>
	<path class="st6" d="M235.49,487.57c0-0.24,0-0.48-0.01-0.73c0.12,0.18,0.24,0.35,0.37,0.53
		C235.73,487.44,235.61,487.51,235.49,487.57z"/>
	<path class="st13" d="M247.4,487.63c0.29-0.15,0.57-0.31,0.86-0.46C247.97,487.32,247.69,487.47,247.4,487.63z"/>
	<path class="st21" d="M279.59,467.3c0.07,0.31,0.14,0.62,0.22,0.94c-0.31,0.01-0.63,0.01-0.94,0.02c0,0-0.1-0.12-0.1-0.12
		C279.04,467.86,279.32,467.58,279.59,467.3z"/>
	<path class="st13" d="M256.6,491.25c-0.26-0.13-0.51-0.27-0.77-0.4C256.08,490.98,256.34,491.11,256.6,491.25z"/>
	<path class="st2" d="M325.05,467.91c-0.64-0.51-1.28-1.01-1.92-1.52c-0.4-1.09-0.8-2.18-1.2-3.27c-0.16-1.61-1.09-3.96-0.36-4.71
		c4.45-4.58,9.28-8.8,13.99-13.13c-0.15,0.8-0.29,1.59-0.43,2.39c0.06,1.23,0.13,2.45,0.19,3.68c1.2,1.38,2.41,2.76,3.61,4.13
		c0.3,0.26,0.6,0.53,0.91,0.79c0,0,0.02,0.01,0.02,0.01c-1.45,2.26-2.9,4.51-4.35,6.77c-1.42,1.7-2.83,3.41-4.25,5.11
		c-1.4,0.07-2.81,0.14-4.21,0.22c-0.55-0.1-1.1-0.2-1.65-0.29L325.05,467.91z"/>
	<path class="st17" d="M371.53,436.84c-0.29,1.37-0.59,2.74-0.89,4.11c-0.4,1.18-0.79,2.35-1.18,3.53c-0.55,2.3-1.1,4.6-1.65,6.9
		c-0.59,1.07-1.19,2.13-1.78,3.2c-1.69,1.14-3.37,2.28-5.06,3.42c-4.47-0.02-9.1-0.95-12.4,3.58c-1.15,1.58-3.21,2.49-4.76,3.81
		c-1.69,1.45-2.97,1.25-4.01-0.69c2.72-2.62,6.38-4.64,5.96-9.27c0.5-0.06,1-0.11,1.51-0.16c1.71-0.19,3.67-1.02,5.07-0.46
		c4.96,1.99,5,2.2,6.25-2.91c0.38-1.53-0.03-3.26-0.07-4.89c0.85-0.85,1.71-1.7,2.56-2.55c0.54-0.58,1.07-1.16,1.61-1.75
		c0,0,0.02-0.02,0.02-0.02c3.86-1.92,6.83-4.5,6.8-9.27c0.57-0.85,1.14-1.71,1.71-2.56C371.31,432.85,371.42,434.85,371.53,436.84z"
		/>
	<path class="st21" d="M335.55,445.27c-4.7,4.34-9.53,8.55-13.99,13.13c-0.73,0.75,0.2,3.1,0.36,4.71c-0.5-0.12-1-0.25-1.5-0.37
		c0.03-0.17,0-0.33-0.1-0.48c-1.44-1.19-2.89-2.38-4.33-3.56c0.93-0.51,1.87-1.01,2.8-1.52c4.35-0.81,3.62-4.9,4.96-7.66
		c3.37-2.3,6.75-4.6,10.12-6.89l0.05,0.08c0.83,0.29,1.67,0.58,2.5,0.88C336.13,444.15,335.84,444.71,335.55,445.27z"/>
	<path class="st11" d="M361.07,444.46c-0.85,0.85-1.71,1.7-2.56,2.55c-2.26,0.84-4.53,1.67-6.79,2.51c1.11-1.83,1.94-3.93,3.4-5.42
		c3.15-3.26,6.71-6.12,9.92-9.33c1-1,1.4-2.58,2.08-3.89c0.24,1.11,0.49,2.23,0.74,3.35c-1.72,2.82-3.43,5.65-5.15,8.47
		c0,0-0.02,0.02-0.02,0.02C362.15,443.29,361.61,443.87,361.07,444.46z"/>
	<path class="st5" d="M351.72,449.52c2.26-0.84,4.53-1.67,6.79-2.51c0.05,1.64,0.45,3.36,0.08,4.89c-1.25,5.11-1.28,4.9-6.25,2.91
		c-1.4-0.56-3.36,0.27-5.07,0.46C348.75,453.35,350.24,451.44,351.72,449.52z"/>
	<path class="st5" d="M345.77,455.44c0.42,4.63-3.24,6.65-5.96,9.27c-1.14,0.01-2.28,0.03-3.42,0.04c-0.3-0.57-0.59-1.14-0.89-1.71
		c1.45-2.26,2.9-4.51,4.35-6.77C341.82,456,343.79,455.72,345.77,455.44z"/>
	<path class="st12" d="M367.85,434.22c-0.25-1.12-0.49-2.23-0.74-3.35c0.02-0.54,0.04-1.09,0.05-1.64c0.27-1.71,0.55-3.42,0.82-5.13
		c-0.04-1.24-0.09-2.47-0.13-3.71c4.04,2.56,2.94,6.75,3.35,10.46c-0.57,0.85-1.14,1.71-1.71,2.56
		C368.95,433.69,368.4,433.95,367.85,434.22z"/>
	<path class="st12" d="M336.42,443.58c-0.83-0.29-1.67-0.58-2.5-0.88c1.63-0.88,3.25-1.77,4.88-2.65c0,0,0.11,0.08,0.11,0.08
		C338.08,441.28,337.25,442.43,336.42,443.58z"/>
	<path class="st11" d="M367.99,424.1c-0.28,1.71-0.55,3.42-0.82,5.13C367.44,427.53,367.72,425.81,367.99,424.1z"/>
	<path class="st21" d="M335.31,451.34c-0.06-1.23-0.13-2.45-0.19-3.68C335.18,448.89,335.24,450.11,335.31,451.34z"/>
	<path class="st5" d="M339.82,456.26c-0.3-0.26-0.6-0.53-0.91-0.79C339.22,455.74,339.52,456,339.82,456.26z"/>
	<path class="st8" d="M271.14,430.9c5.48-1.04,10.93-3.3,16.46-0.51c-0.13,2.25-0.24,4.31-0.36,6.37c-0.28,0.31-0.56,0.63-0.84,0.94
		c0,0,0.05-0.04,0.05-0.04c-3.41,1.41-6.82,2.82-10.23,4.23c-1.41,0.28-2.82,0.57-4.23,0.85c-2.22-0.07-4.44-0.14-6.66-0.21
		c-2.62-0.52-5.25-1.05-7.87-1.57c1.06-0.25,2.17-0.85,3.17-0.71c7.53,1.06,14.58-0.6,21.37-3.64c1.06-0.48,1.74-1.8,2.6-2.72
		c-1.1-0.58-2.23-1.7-3.3-1.65c-3.85,0.18-7.74,0.43-11.5,1.24c-5.87,1.27-11.64,3.02-17.45,4.56c0.04,0.42,0.08,0.84,0.12,1.26
		c1.18,0.55,2.37,1.1,3.55,1.64c-0.76,1.1-1.52,2.21-2.29,3.31c-0.29,0-0.58,0.01-0.87,0.01c-2.62-0.79-5.25-1.58-7.87-2.37
		c-1.2-0.27-2.39-0.54-3.59-0.81c0-2.92-0.36-5.81,4.27-5.55c2.24,0.12,4.56-1.17,6.86-1.72c0.14-0.03,0.5,0.83,0.76,1.28
		c-0.11,0.13-0.22,0.25-0.33,0.37c0.12-0.11,0.25-0.22,0.37-0.33c2.63,0.26,2.59-1.55,2.58-3.33c1.4,0,2.79,0,4.19,0
		C263.79,431.49,267.47,431.2,271.14,430.9z"/>
	<path class="st23" d="M260.11,431.79c-1.4,0-2.79,0-4.19,0c-1.4-0.84-2.87-1.59-4.19-2.54c-2.55-1.82-4.43-0.4-6.4,1.08
		c-3.86,2.89-11.52,0.26-13.24-4.5c5.63-0.94,11.26,1.92,17.03-0.63c4.94-2.19,11.24-0.37,16.11-4.47c-1.2-0.8-1.88-1.25-2.56-1.71
		c0.02-0.49,0.04-0.98,0.06-1.47c1.86-0.51,3.71-1.01,5.57-1.52c0.67,0.14,1.33,0.28,2,0.41c0,0.27-0.01,0.54-0.02,0.81
		c-0.55,0.85-1.09,1.7-1.64,2.55c1.12,2.29,2.36,4.53,3.28,6.89c0.25,0.63-0.48,1.65-0.77,2.49
		C267,426.68,261.79,427.91,260.11,431.79z"/>
	<path class="st0" d="M262.66,419.02c0.68,0.45,1.36,0.91,2.56,1.71c-4.87,4.1-11.17,2.28-16.11,4.47
		c-5.76,2.56-11.4-0.3-17.03,0.63c-1.18-1.48-2.36-2.97-3.54-4.45c-0.28-0.44-0.56-0.88-0.83-1.32c1.75-0.35,3.5-0.7,5.25-1.05
		c4.79,0.06,9.59,0.13,14.38,0.19c2.29,0,4.58,0,6.86,0c1.12,0.22,2.23,0.44,3.35,0.66c0.85-0.23,1.71-0.46,2.56-0.69
		C260.97,419.13,261.82,419.07,262.66,419.02z"/>
	<path class="st6" d="M221.95,441.09c-0.78-0.53-1.56-1.07-2.51-1.72c2.79-1.01,4.86-1.76,6.3-2.28c1.75,0.29,3.1,0.77,4.4,0.64
		c0.99-0.1,1.91-0.96,2.86-1.49c0.27,1.03,0.59,2.05,0.8,3.1c0.11,0.54,0.02,1.12,0.02,1.69c-3.11,0.56-6.22,1.12-9.33,1.68
		c-0.85,0-1.69,0-2.54-0.01C221.96,442.17,221.96,441.63,221.95,441.09z"/>
	<path class="st24" d="M224.5,442.71c3.11-0.56,6.22-1.12,9.33-1.68c2.53,0.02,5.06,0.03,7.59,0.05c1.2,0.27,2.39,0.54,3.59,0.81
		c-0.35,0.8-0.71,1.61-1.06,2.41c-1.12,0.29-2.25,0.58-3.37,0.88c-3.37-0.68-6.73-1.45-10.12-2.01
		C228.5,442.85,226.49,442.85,224.5,442.71z"/>
	<path class="st24" d="M221.95,441.09c0,0.54,0,1.08,0.01,1.62c-0.55,1.97-1.11,3.94-1.66,5.92l-0.06,0.06
		c-0.33-1.36-0.64-2.72-0.99-4.07c-0.16-0.64-0.39-1.26-0.58-1.89c-0.12-0.21-0.22-0.42-0.3-0.65
		C219.56,441.74,220.76,441.42,221.95,441.09z"/>
	<path class="st8" d="M240.26,435.71c-0.49,0.81-0.97,1.63-1.46,2.44c-0.41-0.32-0.81-0.65-1.22-0.97c0.61-0.69,1.23-1.39,1.84-2.08
		C239.7,435.31,239.98,435.51,240.26,435.71z"/>
	<path class="st18" d="M405.12,508.81c-6.17,1.3-12.18,0.91-18-1.65c5.29-0.78,10.58-1.62,15.88-2.3c1.13-0.14,2.33,0.28,3.49,0.44
		C406.04,506.47,405.58,507.64,405.12,508.81z"/>
	<path class="st25" d="M371.06,493.81c5.95,0.77,11.9,1.54,17.85,2.32c-3.42,0.27-6.85,0.49-10.27,0.85
		c-1.29,0.14-2.55,0.61-3.83,0.93c0.62,1.1,1.34,2.16,1.83,3.32c0.22,0.53,0,1.24-0.03,1.87
		C372.36,501.44,370.17,498.55,371.06,493.81z"/>
	<path class="st24" d="M187.04,486.72c2.56-1.76,5.12-3.52,7.68-5.28c3.95,1.17,6.1,3.81,6.41,8.38c-5.39,1.2-3.07-3.44-3.98-5.46
		c-0.87,1.86-1.75,3.75-2.9,6.22C191.59,489.15,189.32,487.94,187.04,486.72z"/>
	<path class="st7" d="M228.67,487.94c0.08,0.76,0.17,1.53,0.25,2.29c-0.37,0.52-0.75,1.04-1.12,1.56c0,0-0.38-0.02-0.38-0.02
		s-0.38,0.04-0.38,0.04c-1.42,0.07-2.84,0.14-4.26,0.21c-1.12-0.07-2.25-0.15-3.37-0.22c-0.32-0.25-0.64-0.5-0.96-0.75
		c0.04-1.13,0.08-2.26,0.12-3.39C221.94,487.76,225.31,487.85,228.67,487.94z"/>
	<path class="st18" d="M317.49,498.12c-10.84,1.9-21.68,3.84-32.54,5.68c-1.79,0.3-3.67,0.16-5.5,0.22
		c4.59-2.35,9.17-4.7,13.76-7.05c0.84-0.57,1.68-1.13,2.52-1.7l0.01-0.01c3.45-0.76,6.66-3.6,10.55-1.07
		c0.39,0.25,2.16-0.82,2.63-1.66c1.71-3.04,3.89-6.09,2.1-9.91c0.81-0.35,1.61-0.7,2.42-1.05c0.24,2.17,0.21,6.15,0.76,6.23
		c4.35,0.65,5.28,3.78,6.27,7.8c-1.68,0.43-3.46,0.88-5.24,1.34c0.15-1.01,0.3-2.02,0.45-3.04c-0.32-0.33-0.63-0.66-0.95-0.98
		c-2.11,1.42-4.23,2.83-6.34,4.25c0.21,0.46,0.43,0.91,0.64,1.37c2.06-0.53,4.13-1.06,6.19-1.59
		C315.98,497.33,316.74,497.73,317.49,498.12z"/>
	<path class="st17" d="M317.49,498.12c-0.76-0.39-1.51-0.79-2.27-1.18l0,0c1.78-0.46,3.56-0.91,5.24-1.34
		c-0.99-4.02-1.92-7.15-6.27-7.8c-0.55-0.08-0.52-4.06-0.76-6.23c0.03-0.22,0.02-0.45-0.03-0.67c0.6-0.31,1.2-0.61,1.79-0.92
		c0.7,6.38,8.27,11.14,16.2,10.19c-1.43,1.91-2.86,3.82-4.3,5.73c-1.17,0.03-2.4-0.15-3.5,0.14
		C321.54,496.59,319.53,497.41,317.49,498.12z"/>
	<path class="st16" d="M293.21,496.97c-4.59,2.35-9.17,4.7-13.76,7.05c-1.36-0.1-2.71-0.2-4.07-0.29
		c5.68-3.22,11.32-6.52,17.08-9.61c1.14-0.61,2.72-0.4,4.1-0.56c-0.27,0.57-0.55,1.14-0.82,1.7c0,0-0.01,0.01-0.01,0.01
		C294.9,495.83,294.05,496.4,293.21,496.97z"/>
	<path class="st13" d="M260.11,431.79c1.68-3.88,6.88-5.11,11.02-2.6c0,0.57,0,1.14,0,1.71
		C267.47,431.2,263.79,431.49,260.11,431.79z"/>
	<path class="st23" d="M286.41,437.7c0.28-0.31,0.56-0.63,0.84-0.94c0.01,0.26,0.01,0.52,0.02,0.79
		C286.98,437.6,286.69,437.65,286.41,437.7z"/>
	<path class="st26" d="M325.42,474.85c2.38,2.57,4.69,5.21,7.16,7.69c1.05,1.05,2.43,1.78,3.66,2.65c0.63,0.52,1.26,1.05,1.89,1.57
		c-1.68,0.29-3.35,0.58-5.03,0.86c-7.02,0.33-13.17-0.98-16.14-8.41c0.13-1.25,0.27-2.49,0.41-3.81
		C319.9,474.03,322.52,472.65,325.42,474.85z"/>
	<path class="st19" d="M316.97,479.22c2.96,7.43,9.12,8.74,16.14,8.41c-0.56,0.85-1.13,1.69-1.69,2.54
		c-7.93,0.95-15.51-3.81-16.2-10.19c0.27-0.29,0.55-0.59,0.82-0.88C316.34,479.14,316.66,479.18,316.97,479.22z"/>
	<path class="st12" d="M338.13,486.76c-0.63-0.52-1.26-1.05-1.89-1.57c3.83-0.03,7.63-0.03,9.4,4.37
		C343.13,488.63,340.63,487.7,338.13,486.76z"/>
	<path class="st23" d="M232.97,419.01c-1.75,0.35-3.5,0.7-5.25,1.05c-0.57-0.32-1.13-0.64-1.7-0.96c0.52-0.41,1.03-0.81,1.84-1.44
		c-0.73-0.58-1.54-1.22-1.74-1.38c1.29-3.87,2.43-7.28,3.56-10.69c0.52-0.07,1.05-0.15,1.57-0.22c1.15-0.24,2.29-0.48,3.44-0.72
		c2.24,0.02,4.47,0.04,6.71,0.05c1.44,0.55,2.88,1.1,4.32,1.65c0.81-0.27,1.63-0.55,2.44-0.82c2.29-0.08,4.59-0.15,6.88-0.23
		c2.52,0.32,5.05,0.64,7.57,0.98c2,0.27,4,0.56,6.01,0.84c-1.16,1.09-2.33,2.17-3.49,3.26c-1.99,0.1-3.99,0.2-5.98,0.3
		c-0.46-0.02-0.93-0.04-1.39-0.05c-0.91,0.53-1.81,1.05-2.72,1.58c-1.13,0.2-2.27,0.41-3.4,0.61c-0.43-0.45-0.87-0.9-1.3-1.35
		c-0.45,0.62-0.9,1.23-1.35,1.85c-0.8,0.12-1.59,0.25-2.39,0.37C242.23,409.95,233.52,411.5,232.97,419.01z"/>
	<path class="st10" d="M255.03,405.32c-2.29,0.08-4.59,0.15-6.88,0.23c0.02-0.54,0.05-1.09,0.07-1.63c2.26-0.08,4.53-0.16,6.79-0.25
		C255.02,404.21,255.03,404.76,255.03,405.32z"/>
	<path class="st8" d="M245.71,406.36c-1.44-0.55-2.88-1.1-4.32-1.65c1.47-0.22,2.93-0.45,4.4-0.67
		C245.77,404.82,245.74,405.59,245.71,406.36z"/>
	<path class="st4" d="M245.71,406.36c0.03-0.77,0.05-1.55,0.08-2.32c0.81-0.04,1.62-0.09,2.43-0.14c-0.02,0.54-0.05,1.09-0.07,1.63
		C247.34,405.82,246.53,406.09,245.71,406.36z"/>
	<path class="st10" d="M234.69,404.66c-1.15,0.24-2.29,0.48-3.44,0.72C232.39,405.14,233.54,404.9,234.69,404.66z"/>
	<path class="st6" d="M369.46,444.49c0.39-1.18,0.79-2.35,1.18-3.53c3.37-0.56,6.85-1.96,10.08-1.51c8.75,1.2,17.39,3.18,26.08,4.85
		c-0.75,0.61-1.47,1.71-2.25,1.75c-4.13,0.21-8.28,0.25-12.41,0.13c-2.01-0.06-3.36,0.17-3.06,2.6c-1.99,1.38-3.98,2.75-5.97,4.13
		c-0.86-0.29-1.72-0.58-2.58-0.86c-0.43-1.57-0.86-3.14-1.29-4.71C375.46,447.62,371.44,449.42,369.46,444.49z"/>
	<path class="st20" d="M383.11,452.9c1.99-1.38,3.98-2.75,5.97-4.13c0.55,0.04,1.09,0.08,1.64,0.12c5.44,0.17,10.88,0.35,16.32,0.52
		c1.75,0.01,3.5,0.01,5.25,0.02c3.52,2.93,6.72,6.42,10.64,8.67c5.5,3.16,8.1,8.57,11.92,13.03c0.62,0.39,1.25,0.78,1.87,1.17
		c0.23-0.04,0.42,0.02,0.57,0.21c-0.61,0.67-1.33,2-1.83,1.92c-6.19-0.94-12.19,3.36-18.86-0.77c-4.23-2.63-10.47-2.03-15.8-2.89
		c-0.83-0.03-1.65-0.06-2.48-0.09c-0.6-0.26-1.19-0.52-1.78-0.77c-4.49-0.02-8.97-0.05-13.46-0.07c-0.29-0.04-0.57-0.08-0.86-0.12
		c-0.25-0.5-0.5-1.01-0.75-1.51c-0.06-1.72-0.12-3.43-0.19-5.15C381.89,459.68,382.5,456.29,383.11,452.9z"/>
	<path class="st11" d="M436.72,472.31c-0.62-0.39-1.25-0.78-1.87-1.17C435.47,471.53,436.09,471.92,436.72,472.31z"/>
	<path class="st23" d="M276.23,441.89c3.41-1.41,6.82-2.82,10.23-4.23c-0.86,1.39-1.72,2.78-2.58,4.17
		c2.05,1.96,3.79,4.88,6.22,5.67c4.19,1.37,8.82,1.41,13.27,2.01c-0.13,1.49-0.27,2.99-0.42,4.68c1.13,0.26,2.28,0.53,4.84,1.12
		c-2.62,1.87-4.35,3.11-6.09,4.34c-1.35-1.13-2.61-3.05-4.08-3.23c-4.7-0.58-9.27,1.77-14.29,0.43c-1.84-0.49-2.74-0.79-3.41-2.32
		c-0.08-0.26-0.14-0.52-0.19-0.78c0.08-1.16,0.17-2.32,0.25-3.48c0.15-0.24,0.29-0.47,0.44-0.71c3.38-2.18,2.24-4.61,0.02-6.6
		C279.47,442.12,277.66,442.23,276.23,441.89z"/>
	<path class="st11" d="M305.07,442.93c0.83-0.37,1.65-0.74,2.48-1.11c0.26-0.07,0.52-0.14,0.77-0.21c0,0-0.05,0.09-0.05,0.09
		c4.25,0.5,6.07,3.4,5,6.99c-0.53,1.79-3.63,2.81-5.57,4.17c0,0-0.05-0.09-0.05-0.09c-0.24-0.25-0.47-0.5-0.71-0.74
		c-0.74-1.38-1.48-2.75-2.22-4.13c0-0.62,0.01-1.23,0.01-1.85C304.84,445.01,304.96,443.97,305.07,442.93z"/>
	<path class="st4" d="M303.36,449.52c-4.45-0.6-9.07-0.64-13.27-2.01c-2.43-0.79-4.17-3.71-6.22-5.67c1.4,0.32,2.79,0.65,4.19,0.97
		c1.18,0.98,2.22,2.48,3.57,2.83c3.89,1.03,7.9,1.59,11.86,2.33C303.45,448.49,303.41,449,303.36,449.52z"/>
	<path class="st8" d="M303.5,447.98c-3.96-0.74-7.97-1.31-11.86-2.33c-1.35-0.35-2.39-1.86-3.57-2.83
		c5.56,1.08,11.11,2.16,16.67,3.24c0,0.61-0.01,1.23-0.01,1.85C304.32,447.92,303.91,447.95,303.5,447.98z"/>
	<path class="st8" d="M259.13,410.7c1.99-0.1,3.99-0.2,5.98-0.3c1.78,0.11,3.71-0.14,5.29,0.47c1.06,0.41,1.64,2.07,2.44,3.17
		c0.03,0.22,0.04,0.45,0.03,0.67c-0.86,0.58-1.73,1.16-2.59,1.74c-0.67-0.14-1.33-0.28-2-0.41c0.88-2.95-0.22-3.96-3.27-3.95
		C263.06,412.1,261.09,411.19,259.13,410.7z"/>
	<path class="st4" d="M270.29,416.45c0.86-0.58,1.73-1.16,2.59-1.74c-0.87,0.85-1.74,1.7-2.62,2.55
		C270.28,416.99,270.28,416.72,270.29,416.45z"/>
	<path class="st4" d="M218.67,442.72c0.2,0.63,0.42,1.25,0.58,1.89c0.35,1.35,0.66,2.72,0.99,4.07c2.42,4.83,2.11,5.79-2.74,7.78
		c-3.46,1.42-7.04,2.58-10.39,4.19c-0.96,0.46-2.02,2.24-1.84,3.2c0.44,2.4,1.57,4.68,2.42,7.01c-0.43,0.4-0.87,0.79-1.3,1.19
		c-2.24-1.78-4.48-3.56-6.72-5.34c0.64-1.68,1.04-3.5,1.96-5c2.53-4.15,5.27-8.18,7.05-10.9c3.54-2.87,6-4.87,8.46-6.86
		C217.64,443.54,218.15,443.13,218.67,442.72z"/>
	<path class="st10" d="M217.13,443.95c-2.46,1.99-4.92,3.99-8.46,6.86c-1.78,2.72-4.52,6.74-7.05,10.9c-0.92,1.51-1.32,3.33-1.96,5
		c-0.74-1.56-1.47-3.12-2.21-4.68c0.19-9.4,6.56-13.4,14.24-16.23C213.48,445.13,215.31,444.56,217.13,443.95z"/>
	<path class="st18" d="M307.7,452.86c1.94-1.37,5.04-2.39,5.57-4.18c1.07-3.58-0.75-6.49-5-6.99c1.4-0.85,2.73-1.88,4.23-2.48
		c1.37-0.55,2.92-0.62,4.39-0.91c3.71,3.31,7.77,2.51,11.88,1c0,0,0.08,0.08,0.08,0.08c-0.3,0.83-0.6,1.66-0.9,2.49
		c-2.51,1.11-4.94,2.51-7.56,3.25c-4.88,1.38-3.91,7.28-7.69,9.4c-0.31,0-0.61,0.01-0.92,0.01c-1.1-0.25-2.19-0.51-3.29-0.76
		C308.23,453.47,307.96,453.17,307.7,452.86z"/>
	<path class="st18" d="M335.7,435.95c1.8-0.06,3.57-0.07,3.23,2.56c-3.36,0.29-6.72,0.59-10.08,0.88c0,0-0.08-0.08-0.08-0.08
		c1.03-0.48,2.06-0.94,3.08-1.44C333.14,437.25,334.42,436.59,335.7,435.95z"/>
	<path class="st22" d="M407.03,449.42c-5.44-0.17-10.88-0.35-16.32-0.52c4.29-0.34,8.57-0.81,12.86-0.94
		C404.71,447.92,405.88,448.9,407.03,449.42z"/>
	<path class="st18" d="M308.32,441.62c-0.26,0.07-0.51,0.14-0.77,0.21C307.8,441.75,308.06,441.69,308.32,441.62z"/>
	<path class="st17" d="M328.85,439.39c3.36-0.29,6.72-0.59,10.08-0.88c-0.04,0.51-0.09,1.03-0.13,1.54
		c-1.63,0.88-3.26,1.77-4.88,2.65c0,0-0.05-0.08-0.04-0.08c-1.05-0.32-2.09-0.77-3.16-0.93c-0.89-0.13-1.84,0.1-2.76,0.18
		C328.25,441.05,328.55,440.22,328.85,439.39z"/>
	<path class="st25" d="M336.38,464.75c1.14-0.01,2.28-0.03,3.42-0.04c1.04,1.94,2.32,2.15,4.01,0.69c1.55-1.33,3.6-2.23,4.76-3.81
		c3.29-4.53,7.92-3.6,12.4-3.58c7.94,4.18,12.55,11.84,18.74,17.85c-0.02,2.51-0.03,5.02-0.05,7.53c-7.78-1.9-14.54-6.96-22.92-7.24
		c-1.18-0.04-2.28-2.73-3.42-4.2c0.15-0.56,0.3-1.13,0.46-1.69c-2.99,0.45-5.98,0.91-8.97,1.36c-2.52-0.58-5.03-1.15-7.55-1.73
		c-0.27-0.07-0.55-0.11-0.82-0.13C335.27,468.11,334.18,466.45,336.38,464.75z"/>
	<path class="st5" d="M337.27,469.89c2.52,0.58,5.03,1.15,7.55,1.73c3.58,1.94,7.16,3.9,10.75,5.82c2.67,1.43,5.36,2.81,8.04,4.21
		c-4.28,0.57-8.57,1.53-12.84,1.5c-1.57-0.01-3.67-2.07-4.56-3.72c-1.9-3.49-3.97-5.72-8.13-3.46
		C337.76,473.59,337.51,471.74,337.27,469.89z"/>
	<path class="st17" d="M316.97,479.22c-0.31-0.04-0.62-0.08-0.93-0.12c-0.78-1.31-2.52-3.25-2.15-3.8c1.03-1.56,2.9-2.59,4.49-3.75
		c1.11-0.81,2.28-1.55,3.48-2.21c1.02-0.56,2.12-0.96,3.19-1.43c0,0,0.34,0.16,0.34,0.16c0.09,0.54,0.17,1.09,0.26,1.63
		c-0.07,1.72-0.15,3.43-0.22,5.15c-2.9-2.2-5.52-0.82-8.05,0.56C317.23,476.73,317.1,477.97,316.97,479.22z"/>
	<path class="st14" d="M325.64,469.7c-0.09-0.54-0.17-1.09-0.26-1.63c0.55,0.1,1.1,0.2,1.65,0.29c1.4-0.07,2.81-0.14,4.21-0.21
		c1.42-1.7,2.83-3.41,4.25-5.11c0.3,0.57,0.59,1.14,0.89,1.71c-2.2,1.7-1.11,3.35,0.06,5.01
		C332.84,469.74,329.24,469.72,325.64,469.7z"/>
	<path class="st21" d="M379.71,475.87c-6.19-6.01-10.8-13.67-18.74-17.85c1.69-1.14,3.37-2.28,5.06-3.42
		c-0.22,1.03-0.45,2.06-0.7,3.24c2.6,1.17,5.34,2.4,8.08,3.63c0.03,0.49,0.06,0.98,0.08,1.47c-0.22-0.01-0.43,0.02-0.64,0.08
		c0.01,0.82,0.02,1.65,0.03,2.47c1.99,0.97,3.98,1.93,6.22,3.02c0.88-2.2,1.53-3.82,2.18-5.44c0.06,1.72,0.12,3.43,0.19,5.15
		c0.25,0.5,0.5,1.01,0.75,1.51c0.29,0.04,0.57,0.08,0.86,0.12c-0.02,1.96-0.05,3.93-0.07,5.89c-0.57,0.31-1.14,0.62-1.7,0.92
		C380.77,476.39,380.24,476.13,379.71,475.87z"/>
	<path class="st16" d="M383.01,475.73c0.02-1.96,0.05-3.93,0.07-5.89c4.49,0.02,8.98,0.05,13.46,0.07c-0.95,0.45-1.9,0.89-3.12,1.47
		c1.7,1.51,3.31,2.94,4.93,4.36C393.24,475.74,388.12,475.73,383.01,475.73z"/>
	<path class="st16" d="M405.09,474.97c0.58,0.26,1.15,0.52,1.73,0.77C406.24,475.49,405.67,475.23,405.09,474.97z"/>
	<path class="st16" d="M398.33,470.68c0.83,0.03,1.65,0.06,2.48,0.09c-0.79,0.49-1.57,0.98-2.36,1.47
		C398.41,471.73,398.37,471.2,398.33,470.68z"/>
	<path class="st13" d="M279.91,454.55c0.67,1.52,1.57,1.82,3.41,2.32c5.02,1.35,9.59-1,14.29-0.43c1.47,0.18,2.73,2.1,4.08,3.23
		c-0.43,0.34-0.86,0.68-1.3,1.02c0.69,0.23,1.37,0.45,2.06,0.68c-1.96,0.53-3.91,1.05-5.87,1.58c-1.83-0.53-3.65-1.15-5.5-1.58
		c-3.8-0.88-7.63-1.66-11.44-2.48C279.73,457.45,279.82,456,279.91,454.55z"/>
	<path class="st2" d="M302.46,461.37c-0.69-0.23-1.37-0.45-2.06-0.68c0.43-0.34,0.86-0.68,1.3-1.02c1.73-1.24,3.47-2.47,6.09-4.34
		c-2.56-0.59-3.71-0.86-4.84-1.12c0.15-1.69,0.29-3.19,0.42-4.68c0.05-0.52,0.09-1.03,0.14-1.55c0.41-0.03,0.82-0.05,1.23-0.08
		c0.74,1.38,1.48,2.75,2.22,4.13c0.24,0.25,0.47,0.5,0.71,0.74c0,0,0.05,0.09,0.05,0.09c0.27,0.3,0.53,0.61,0.79,0.91
		c1.1,0.25,2.2,0.51,3.29,0.76c0.31,0,0.61-0.01,0.92-0.01c1.67,0.52,3.34,1.04,5.01,1.57c0.36,0.36,0.72,0.73,1.09,1.09
		c-0.93,0.51-1.87,1.01-2.8,1.52c-3.2,0.64-6.41,1.28-9.61,1.91C305.08,460.87,303.76,461.12,302.46,461.37z"/>
	<path class="st14" d="M279.64,458.89c3.82,0.82,7.64,1.6,11.44,2.48c1.86,0.43,3.67,1.05,5.5,1.58c-0.07,0.34-0.14,0.67-0.21,1.01
		c-5.5-0.03-11-0.06-16.5-0.09c-0.11-0.23-0.2-0.47-0.27-0.72c-0.02-0.91-0.04-1.82-0.06-2.73
		C279.59,459.91,279.61,459.4,279.64,458.89z"/>
	<path class="st11" d="M294.41,485.53c-0.8,0-1.61,0-2.41,0c-0.02-0.27-0.04-0.54-0.05-0.81c0.81-0.07,1.62-0.15,2.42-0.22
		C294.38,484.84,294.4,485.18,294.41,485.53z"/>
	<path class="st5" d="M295.75,495.26c0.27-0.57,0.55-1.14,0.82-1.7c0.03-0.52,0.07-1.04,0.1-1.56c0.51-0.06,1.02-0.11,1.54-0.17
		c1.11-0.04,2.26,0.04,3.32-0.22c0.18-0.04,0.03-1.49,0.03-2.28c1.74-1.68,3.47-3.37,5.2-5.05c0,0,0.01-0.01,0.01-0.01
		c0.56-0.28,1.12-0.56,1.68-0.84c0,0,0.02-0.01,0.02-0.01c0.56-0.28,1.13-0.56,1.69-0.84c0,0,0.01,0,0.01,0
		c0.28,0.01,0.57,0.03,0.85,0.04c1.78,3.82-0.39,6.87-2.1,9.91c-0.47,0.83-2.24,1.91-2.63,1.66
		C302.41,491.66,299.2,494.5,295.75,495.26z"/>
	<path class="st22" d="M298.21,491.82c-0.51,0.06-1.03,0.11-1.54,0.17c-0.15-0.58-0.55-1.59-0.41-1.68
		c3.46-2.07,6.99-4.05,10.5-6.04c-1.74,1.68-3.47,3.37-5.2,5.05C300.45,490.16,299.33,490.99,298.21,491.82z"/>
	<path class="st20" d="M320.43,462.74c0.5,0.12,1,0.25,1.5,0.37c0.4,1.09,0.8,2.18,1.2,3.27
		C322.23,465.17,321.33,463.96,320.43,462.74z"/>
	<path class="st22" d="M311.03,482.62c-0.28-0.01-0.57-0.03-0.85-0.04c1.08-0.56,2.16-1.12,3.24-1.68c0.04,0.22,0.05,0.45,0.03,0.67
		C312.64,481.92,311.83,482.27,311.03,482.62z"/>
	<path class="st22" d="M308.46,483.42c-0.56,0.28-1.12,0.56-1.68,0.84C307.34,483.98,307.9,483.7,308.46,483.42z"/>
	<path class="st22" d="M310.17,482.57c-0.56,0.28-1.13,0.56-1.69,0.84C309.04,483.13,309.6,482.85,310.17,482.57z"/>
	<path class="st18" d="M233.89,472.33c-5.26-0.56-10.52-1.11-15.76-1.75c-0.2-0.02-0.28-1.04-0.42-1.6
		c0.81-0.79,1.62-1.57,2.43-2.36c-0.21-0.34-0.42-0.67-0.63-1.01c0.81,0,1.62,0,2.44,0c0.42,2.46,1.74,2.92,3.96,1.99
		c1.36-0.57,2.84-0.92,4.3-1.15c5.52-0.87,9.55-5.46,9.55-11.01c0.28,0,0.56,0,0.84-0.01c1.81,0.53,3.59,1.26,5.44,1.54
		c4.15,0.64,7.22,4.22,11.92,3.75c2.3-0.23,4.8,1.48,7.21,2.31c-3.36,0.81-6.72,1.62-10.08,2.43c-6.03,1.17-12.05,2.47-18.11,3.44
		C234.75,469.26,233.64,470.02,233.89,472.33z"/>
	<path class="st16" d="M240.61,455.43c-0.28,0-0.56,0.01-0.84,0.01c-0.82,0.37-2.07,0.52-2.4,1.15c-2.91,5.62-7.08,8.82-13.74,7.91
		c-0.5-0.07-1.12,0.72-1.68,1.11c-0.81,0-1.62,0-2.44,0c0.21,0.34,0.42,0.67,0.63,1.01c-0.81,0.79-1.62,1.57-2.43,2.36
		c0.29-1.95,0.58-3.9,0.87-5.85c3.18-3.38,6.35-6.75,9.53-10.13c4.15-2.6,8.31-5.21,12.46-7.81c1.12-0.29,2.25-0.58,3.37-0.88
		c0,0,0.07,0.23,0.07,0.23c0.2,2.4,0.38,4.61-1.93,6.49C241.08,451.85,241.08,453.92,240.61,455.43z"/>
	<path class="st24" d="M228.12,453c-3.18,3.38-6.35,6.75-9.53,10.13c-2.85,2.29-5.71,4.58-8.56,6.86c-0.78,0.29-1.57,0.58-2.35,0.87
		c-0.85-2.33-1.97-4.6-2.42-7.01c-0.18-0.96,0.89-2.74,1.84-3.2c3.36-1.62,6.93-2.78,10.39-4.19c4.85-1.98,5.16-2.95,2.74-7.78
		c0,0,0.06-0.06,0.06-0.06c1.52,0.82,3.06,1.63,4.57,2.47C225.96,451.71,227.03,452.36,228.12,453z"/>
	<path class="st25" d="M233.89,472.33c-0.26-2.31,0.86-3.06,3.09-3.42c6.06-0.98,12.08-2.27,18.11-3.44
		c0.83,0.07,1.67,0.15,2.5,0.22c-0.57,1.66-1.15,3.31-1.72,4.97c-1.69,0.29-3.38,0.58-5.07,0.87c-1.72,0.27-3.44,0.53-5.16,0.8
		c-0.54,0.01-1.08,0.02-1.63,0.03c-0.57,0-1.13,0-1.7-0.01c-1.13-0.27-2.27-0.54-3.4-0.81C237.24,471.8,235.57,472.07,233.89,472.33
		z"/>
	<path class="st18" d="M238.92,471.54c1.13,0.27,2.27,0.54,3.4,0.81C240.48,475.03,239.52,474.05,238.92,471.54z"/>
	<path class="st19" d="M255.87,470.65c0.57-1.66,1.15-3.31,1.72-4.97c2.25-0.3,4.49-0.59,6.74-0.89c-0.41,0.93-0.83,1.86-1.24,2.79
		c0.21,0.25,0.42,0.51,0.63,0.76c1.55-1.13,3.1-2.27,4.65-3.4c0.35-0.06,0.71-0.13,1.06-0.19c0.28-0.22,0.56-0.44,0.84-0.66
		c3.11-0.31,6.22-0.63,9.34-0.94c0.07,0.25,0.16,0.48,0.27,0.72c-0.09,1.14-0.19,2.29-0.29,3.43c-0.27,0.28-0.55,0.56-0.82,0.84
		c-1.96,0.3-3.92,0.59-5.88,0.89c-2.73-1.4-4.7,0.41-6.83,1.59c-0.85,0-1.69,0-2.54,0c-1.73-3.35-3.41-0.35-5.1,0.04
		C257.57,470.65,256.72,470.65,255.87,470.65z"/>
	<path class="st25" d="M266.06,470.61c2.13-1.18,4.1-2.98,6.83-1.59c-1.16,0.82-2.31,1.65-3.47,2.47
		C268.29,471.2,267.17,470.9,266.06,470.61z"/>
	<path class="st12" d="M245.64,472.33c1.72-0.27,3.44-0.53,5.16-0.8C249.08,471.79,247.36,472.06,245.64,472.33z"/>
	<path class="st25" d="M258.42,470.65c1.7-0.39,3.38-3.39,5.1-0.04C261.82,470.62,260.12,470.63,258.42,470.65z"/>
	<path class="st12" d="M249.83,474.72c-0.53,0.96-1.06,1.92-1.6,2.89c-0.4-0.22-0.81-0.44-1.21-0.67c0.53-0.96,1.06-1.93,1.58-2.89
		C249.01,474.27,249.42,474.49,249.83,474.72z"/>
	<path class="st17" d="M331.25,468.15c-1.4,0.07-2.81,0.14-4.21,0.21C328.44,468.29,329.84,468.22,331.25,468.15z"/>
	<path class="st13" d="M369.46,444.49c1.98,4.94,6,3.13,9.77,2.85c0.43,1.56,0.86,3.14,1.29,4.71c-2.3,1.98-4.59,3.96-6.89,5.94
		c-1.15-1.88-2.3-3.76-3.68-6.04c-0.14-0.04-1.14-0.3-2.14-0.56C368.36,449.09,368.91,446.79,369.46,444.49z"/>
	<path class="st8" d="M367.81,451.39c1,0.26,2,0.52,2.14,0.56c1.39,2.27,2.54,4.15,3.68,6.04c-0.07,1.16-0.15,2.32-0.22,3.48
		c-2.74-1.23-5.48-2.46-8.08-3.63c0.26-1.18,0.48-2.21,0.7-3.24C366.62,453.52,367.22,452.46,367.81,451.39z"/>
	<path class="st5" d="M367.85,434.22c0.55-0.26,1.1-0.53,1.65-0.79c0.03,4.77-2.93,7.35-6.8,9.27
		C364.42,439.87,366.13,437.04,367.85,434.22z"/>
	<path class="st5" d="M361.07,444.46c0.54-0.58,1.07-1.16,1.61-1.75C362.15,443.29,361.61,443.87,361.07,444.46z"/>
	<path class="st25" d="M317.71,456.1c-1.67-0.52-3.34-1.04-5.01-1.57c3.78-2.11,2.82-8.02,7.69-9.4c2.62-0.74,5.04-2.15,7.56-3.25
		c0.92-0.07,1.87-0.3,2.76-0.18c1.08,0.15,2.11,0.6,3.16,0.93c-3.38,2.3-6.75,4.59-10.13,6.89c-0.96-0.18-2.1-0.79-2.85-0.47
		C317.81,450.38,317.22,453.05,317.71,456.1z"/>
	<path class="st19" d="M317.71,456.1c-0.48-3.05,0.1-5.72,3.2-7.04c0.75-0.32,1.89,0.29,2.85,0.47c-1.33,2.76-0.61,6.85-4.96,7.66
		C318.43,456.82,318.07,456.46,317.71,456.1z"/>
	<path class="st18" d="M279.64,458.89c-0.03,0.51-0.06,1.02-0.09,1.53c-1.39,0.03-2.78,0.06-4.17,0.09
		c0.41-0.51,0.81-1.02,1.06-1.32c-1.7-1.33-3.27-2.55-4.84-3.76c-0.04-0.03-0.18,0.09-0.27,0.13c-0.17,0.91-0.33,1.82-0.55,2.99
		c-2.04-0.83-3.81-1.56-5.57-2.28c-0.12-0.06-0.25-0.13-0.37-0.19c0.12,0.07,0.24,0.13,0.36,0.2c-1.44,3.87-8.75,4.85-9.77,0.82
		c-1.24-4.9-4.64-8-6.32-12.25c-0.05-0.12,0-0.28,0-0.42c1.26-0.06,2.52-0.12,3.78-0.18c0.29,0,0.58-0.01,0.87-0.01
		c1.27,0.06,2.53,0.11,3.8,0.16c1.7,3.56,3.41,1.06,5.12,0.01c3.69,0.55,7.37,1.09,11.06,1.64l-0.01-0.02
		c0.85,0.56,1.69,1.12,2.54,1.68l0.06-0.01c1.13,2.01,2.27,4.02,3.4,6.04c0.05,0.26,0.11,0.52,0.19,0.78
		C279.82,456,279.73,457.45,279.64,458.89z"/>
	<path class="st7" d="M256.04,440.94c-1.18-0.55-2.37-1.1-3.55-1.64c-0.04-0.42-0.08-0.84-0.12-1.26
		c5.81-1.55,11.58-3.29,17.45-4.56c3.75-0.81,7.65-1.06,11.5-1.24c1.07-0.05,2.2,1.07,3.3,1.65c-0.86,0.93-1.54,2.25-2.6,2.72
		c-6.79,3.04-13.84,4.7-21.37,3.64c-1-0.14-2.11,0.45-3.17,0.71C256.99,440.95,256.52,440.95,256.04,440.94z"/>
	<path class="st2" d="M276.23,441.89c1.43,0.33,3.24,0.23,4.2,1.08c2.23,1.98,3.36,4.41-0.02,6.59c-0.25-0.04-0.51-0.05-0.77-0.02
		c-1.11-0.61-2.22-1.21-3.32-1.82c0,0-0.06,0.01-0.06,0.01c-0.85-0.56-1.69-1.12-2.54-1.68c0,0,0.01,0.02,0.01,0.02
		c-0.6-0.5-1.2-1-1.8-1.5c0.02-0.61,0.05-1.21,0.07-1.82C273.41,442.46,274.82,442.18,276.23,441.89z"/>
	<path class="st12" d="M271.93,444.57c0.6,0.5,1.2,1,1.8,1.5c-3.69-0.55-7.37-1.09-11.06-1.64c-1.7-1.07-3.4-3.52-5.12-0.01
		c-1.26-0.05-2.53-0.11-3.8-0.16c0.76-1.1,1.52-2.21,2.28-3.31c0.48,0.01,0.95,0.01,1.43,0.02c2.62,0.52,5.25,1.05,7.87,1.58
		C267.53,443.21,269.73,443.89,271.93,444.57z"/>
	<path class="st12" d="M252.88,444.26c-1.26,0.06-2.52,0.12-3.78,0.18c-1.69,0.03-3.38,0.06-5.07,0.09c0,0-0.07-0.23-0.07-0.23
		c0.35-0.8,0.7-1.61,1.06-2.41C247.63,442.69,250.26,443.47,252.88,444.26z"/>
	<path class="st23" d="M271.93,444.57c-2.2-0.68-4.39-1.35-6.59-2.03c2.22,0.07,4.44,0.14,6.66,0.21
		C271.97,443.35,271.95,443.96,271.93,444.57z"/>
	<path class="st4" d="M253.35,435.13c-0.12,0.11-0.25,0.22-0.37,0.33c0.11-0.12,0.22-0.25,0.33-0.37
		C253.31,435.09,253.35,435.13,253.35,435.13z"/>
	<path class="st9" d="M259.13,410.7c1.96,0.5,3.92,1.41,5.88,1.4c3.05-0.01,4.15,1,3.27,3.95c-1.86,0.5-3.71,1.01-5.57,1.51
		c-0.86,0.24-1.73,0.48-2.59,0.73c-0.82,0.09-1.65,0.18-2.47,0.28c-1.15,0.22-2.29,0.43-3.44,0.65c-2.29,0-4.58,0-6.86,0
		c-1.68-1.04-3.36-2.09-5.55-3.45c2.24-0.96,3.51-1.51,4.78-2.05c0.8-0.12,1.59-0.25,2.39-0.37c0.88-0.17,1.77-0.33,2.65-0.5
		c1.13-0.2,2.27-0.41,3.4-0.61c0.91-0.53,1.81-1.05,2.72-1.58C258.21,410.66,258.67,410.68,259.13,410.7z"/>
	<path class="st4" d="M260.13,418.28c0.86-0.24,1.73-0.49,2.59-0.73c-0.02,0.49-0.04,0.98-0.06,1.47c-0.84,0.05-1.68,0.11-2.53,0.16
		C260.13,418.88,260.13,418.58,260.13,418.28z"/>
	<path class="st4" d="M246.58,413.7c-1.27,0.54-2.53,1.09-4.78,2.05c2.19,1.36,3.87,2.4,5.55,3.45c-4.79-0.06-9.59-0.13-14.38-0.19
		C233.52,411.5,242.23,409.95,246.58,413.7z"/>
	<path class="st23" d="M260.13,418.28c0,0.3,0,0.6,0,0.9c-0.85,0.23-1.71,0.46-2.56,0.69c0.03-0.44,0.06-0.87,0.09-1.31
		C258.48,418.47,259.31,418.37,260.13,418.28z"/>
	<path class="st4" d="M257.66,418.56c-0.03,0.44-0.06,0.87-0.09,1.31c-1.12-0.22-2.23-0.44-3.35-0.66
		C255.37,418.99,256.51,418.77,257.66,418.56z"/>
	<path class="st0" d="M228.12,453c-1.08-0.64-2.15-1.29-3.25-1.9c-1.51-0.84-3.05-1.65-4.57-2.47c0.55-1.97,1.11-3.94,1.66-5.92
		c0.85,0,1.69,0,2.54,0c1.99,0.14,4,0.14,5.96,0.46c3.39,0.56,6.75,1.33,10.12,2.01C236.43,447.79,232.27,450.39,228.12,453z"/>
	<path class="st5" d="M315.23,496.94c-2.06,0.53-4.13,1.06-6.19,1.59c-0.21-0.46-0.43-0.91-0.64-1.37c2.11-1.42,4.23-2.83,6.34-4.25
		c0.32,0.33,0.63,0.66,0.95,0.98C315.53,494.91,315.38,495.92,315.23,496.94C315.23,496.94,315.23,496.94,315.23,496.94z"/>
	<path class="st5" d="M293.21,496.97c0.84-0.57,1.68-1.13,2.52-1.7C294.9,495.83,294.05,496.4,293.21,496.97z"/>
	<path class="st4" d="M251.62,412.83c-0.88,0.17-1.77,0.34-2.65,0.5c0.45-0.62,0.9-1.24,1.35-1.85
		C250.75,411.93,251.19,412.38,251.62,412.83z"/>
	<path class="st4" d="M257.74,410.64c-0.91,0.53-1.81,1.05-2.72,1.58C255.93,411.69,256.84,411.17,257.74,410.64z"/>
	<path class="st2" d="M373.41,461.46c0.07-1.16,0.15-2.32,0.22-3.48c2.3-1.98,4.59-3.96,6.89-5.94c0.86,0.29,1.72,0.58,2.58,0.86
		c-0.61,3.39-1.21,6.77-1.82,10.16c-0.65,1.62-1.3,3.24-2.18,5.44c-2.24-1.09-4.23-2.05-6.22-3.02c0.02-0.23,0.04-0.45,0.04-0.68
		c0.19-0.62,0.38-1.25,0.57-1.87C373.47,462.44,373.44,461.95,373.41,461.46z"/>
	<path class="st16" d="M382.23,469.72c-0.25-0.5-0.5-1.01-0.75-1.51C381.72,468.71,381.97,469.21,382.23,469.72z"/>
	<path class="st12" d="M276.32,447.73c1.11,0.61,2.22,1.21,3.32,1.82c0.05,0.27,0.15,0.52,0.33,0.74c-0.08,1.16-0.17,2.32-0.25,3.48
		C278.59,451.75,277.46,449.74,276.32,447.73z"/>
	<path class="st13" d="M279.98,450.29c-0.17-0.22-0.28-0.46-0.33-0.74c0.26-0.03,0.51-0.02,0.77,0.02
		C280.27,449.81,280.12,450.05,279.98,450.29z"/>
	<path class="st18" d="M307.65,452.77c-0.24-0.25-0.47-0.5-0.71-0.74C307.18,452.27,307.41,452.52,307.65,452.77z"/>
	<path class="st25" d="M311.79,454.54c-1.1-0.25-2.2-0.51-3.29-0.76C309.59,454.03,310.69,454.29,311.79,454.54z"/>
	<path class="st13" d="M373.5,462.94c-0.19,0.62-0.38,1.25-0.57,1.87c-0.03-0.6-0.05-1.19-0.08-1.79
		C373.06,462.95,373.28,462.92,373.5,462.94z"/>
	<path class="st8" d="M372.85,463.01c0.03,0.6,0.05,1.19,0.08,1.79c-0.01,0.23-0.02,0.46-0.04,0.68
		C372.88,464.66,372.87,463.84,372.85,463.01z"/>
	<path class="st22" d="M275.38,460.51c1.39-0.03,2.78-0.06,4.17-0.09c0.02,0.91,0.04,1.82,0.06,2.73c-3.11,0.31-6.22,0.63-9.34,0.94
		c-0.28,0.22-0.56,0.44-0.84,0.66c-0.35,0.06-0.71,0.13-1.06,0.19c-0.83-0.59-1.66-1.17-2.49-1.75
		C269.05,462.29,272.22,461.4,275.38,460.51z"/>
	<path class="st16" d="M298.21,491.82c1.12-0.83,2.24-1.67,3.35-2.5c0,0.8,0.15,2.24-0.03,2.28
		C300.47,491.86,299.32,491.79,298.21,491.82z"/>
	<path class="st5" d="M275.38,460.51c-3.17,0.89-6.33,1.79-9.5,2.68c-0.17,0-0.34,0.02-0.51,0.05l-0.2-0.21
		c-2.41-0.83-4.91-2.54-7.21-2.31c-4.7,0.47-7.77-3.11-11.92-3.75c-1.85-0.28-3.63-1.01-5.44-1.54c0.47-1.51,0.47-3.58,1.49-4.41
		c2.3-1.88,2.13-4.09,1.93-6.49c1.69-0.03,3.38-0.06,5.07-0.09c0,0.14-0.04,0.3,0,0.42c1.69,4.25,5.08,7.34,6.32,12.25
		c1.02,4.03,8.33,3.05,9.77-0.82l0.01-0.01c1.77,0.72,3.53,1.44,5.57,2.28c0.22-1.18,0.38-2.08,0.55-2.99
		c0.09-0.05,0.24-0.16,0.27-0.13c1.57,1.21,3.13,2.43,4.84,3.76C276.2,459.49,275.79,460,275.38,460.51z"/>
	<path class="st5" d="M221.95,465.61c0.56-0.39,1.18-1.18,1.68-1.11c6.67,0.91,10.84-2.29,13.74-7.91c0.32-0.63,1.58-0.78,2.4-1.15
		c-0.01,5.55-4.03,10.14-9.55,11.01c-1.46,0.23-2.95,0.58-4.3,1.15C223.69,468.53,222.37,468.07,221.95,465.61z"/>
	<path class="st5" d="M264.33,464.79c-2.25,0.3-4.49,0.59-6.74,0.89c-0.83-0.07-1.67-0.14-2.5-0.22c3.36-0.81,6.72-1.62,10.08-2.43
		c0,0,0.2,0.21,0.2,0.21C265.02,463.75,264.68,464.27,264.33,464.79z"/>
	<path class="st25" d="M264.33,464.79c0.35-0.52,0.69-1.04,1.04-1.56c0.17-0.03,0.34-0.05,0.51-0.05c0.83,0.58,1.66,1.17,2.49,1.75
		c-1.55,1.14-3.1,2.27-4.65,3.4c-0.21-0.25-0.42-0.51-0.63-0.76C263.51,466.65,263.92,465.72,264.33,464.79z"/>
	<path class="st25" d="M269.44,464.75c0.28-0.22,0.56-0.44,0.84-0.66C270,464.31,269.72,464.53,269.44,464.75z"/>
	<path class="st5" d="M257.55,444.42c1.71-3.51,3.41-1.06,5.12,0.01C260.96,445.48,259.25,447.98,257.55,444.42z"/>
	<path class="st12" d="M273.72,446.05c0.85,0.56,1.69,1.12,2.54,1.68C275.42,447.17,274.57,446.61,273.72,446.05z"/>
	<path class="st5" d="M265.2,456.29c-0.12-0.07-0.24-0.13-0.36-0.2c0.12,0.06,0.25,0.13,0.37,0.19
		C265.21,456.27,265.2,456.29,265.2,456.29z"/>
</g>
<g>
	<path d="M204.97,535.56h6.48v4.02h-6.48V535.56z"/>
	<path d="M225.76,551.44c-0.2,0.15-0.5,0.29-0.9,0.42c-0.4,0.13-0.88,0.2-1.44,0.22c-0.74,0-1.37-0.17-1.91-0.51
		c-0.54-0.34-0.99-0.83-1.34-1.47c-0.36-0.64-0.62-1.41-0.8-2.31c-0.18-0.9-0.26-1.91-0.26-3.02v-16.02h-2.69v-3.69h2.69v-7.2h2.28
		v7.2h4.17v3.69h-4.17v15.35c0,0.61,0.05,1.17,0.14,1.69c0.09,0.52,0.24,0.97,0.44,1.34c0.2,0.38,0.46,0.67,0.77,0.89
		c0.31,0.21,0.69,0.32,1.13,0.32c0.3,0,0.62-0.05,0.96-0.14s0.65-0.21,0.93-0.36V551.44z"/>
	<path d="M234.26,528.66h0.04c0.25-0.61,0.54-1.18,0.85-1.7s0.66-0.98,1.04-1.36c0.38-0.38,0.79-0.68,1.23-0.9
		c0.44-0.22,0.92-0.33,1.43-0.33c0.53,0,1.06,0.13,1.59,0.4c0.53,0.27,1.02,0.74,1.47,1.43c0.45,0.68,0.82,1.63,1.1,2.85
		c0.28,1.22,0.43,2.79,0.43,4.71v17.62h-2.28v-16.93c0-2.12-0.21-3.72-0.64-4.79c-0.43-1.07-1.12-1.61-2.09-1.61
		c-0.8,0-1.57,0.41-2.29,1.23c-0.72,0.82-1.35,1.95-1.88,3.39v18.7h-2.28v-40.12h2.28V528.66z"/>
	<path d="M257.46,548.33c0.75,0,1.44-0.12,2.07-0.35c0.62-0.23,1.24-0.56,1.86-0.98v3.57c-0.5,0.46-1.12,0.83-1.85,1.09
		c-0.73,0.27-1.52,0.4-2.37,0.4c-1,0-1.94-0.24-2.81-0.72c-0.88-0.48-1.64-1.26-2.28-2.33s-1.14-2.47-1.51-4.2
		c-0.36-1.73-0.54-3.81-0.54-6.25c0-2.4,0.18-4.48,0.53-6.25c0.35-1.76,0.82-3.24,1.41-4.42c0.59-1.18,1.26-2.07,2.02-2.66
		c0.76-0.59,1.56-0.89,2.39-0.89c0.78,0,1.51,0.25,2.19,0.73s1.27,1.26,1.77,2.31c0.5,1.05,0.89,2.41,1.18,4.07
		c0.29,1.66,0.43,3.66,0.43,5.99c0,0.22,0,0.41,0,0.57c0,0.16-0.01,0.51-0.01,1.07h-9.64c0,1.68,0.13,3.11,0.4,4.28
		s0.64,2.12,1.1,2.85c0.47,0.73,1.01,1.26,1.64,1.59C256.06,548.17,256.74,548.33,257.46,548.33z M256.26,528.05
		c-0.53,0-1.01,0.19-1.47,0.58c-0.45,0.39-0.85,0.91-1.18,1.58c-0.34,0.67-0.61,1.45-0.82,2.34c-0.21,0.9-0.34,1.85-0.39,2.87h7.14
		c0-1.03-0.07-2-0.22-2.9c-0.14-0.9-0.35-1.68-0.63-2.34c-0.28-0.67-0.62-1.19-1.03-1.57C257.27,528.24,256.79,528.05,256.26,528.05
		z"/>
	<path d="M280.22,528.66h0.04c0.25-0.61,0.54-1.18,0.85-1.7s0.66-0.98,1.04-1.36c0.38-0.38,0.79-0.68,1.23-0.9
		c0.44-0.22,0.92-0.33,1.43-0.33c0.53,0,1.06,0.13,1.59,0.4c0.53,0.27,1.02,0.74,1.47,1.43c0.45,0.68,0.82,1.63,1.1,2.85
		c0.28,1.22,0.43,2.79,0.43,4.71v17.62h-2.28v-16.93c0-2.12-0.21-3.72-0.64-4.79c-0.43-1.07-1.12-1.61-2.09-1.61
		c-0.8,0-1.57,0.41-2.29,1.23c-0.72,0.82-1.35,1.95-1.88,3.39v18.7h-2.28v-40.12h2.28V528.66z"/>
	<path d="M302.34,552.08c-0.73,0-1.38-0.15-1.96-0.44c-0.58-0.29-1.09-0.71-1.52-1.25c-0.44-0.54-0.81-1.18-1.11-1.93
		c-0.3-0.75-0.54-1.57-0.72-2.45c-0.14-0.67-0.23-1.39-0.29-2.19c-0.06-0.79-0.09-1.66-0.09-2.61v-16.16h2.28v16.13
		c0,1.46,0.1,2.68,0.31,3.66c0.24,1.11,0.61,1.98,1.14,2.62s1.19,0.96,2.01,0.96c0.86,0,1.55-0.35,2.08-1.05s0.9-1.64,1.12-2.83
		c0.17-0.9,0.25-2.02,0.25-3.35v-16.13h2.28v16.18c0,0.89-0.03,1.71-0.08,2.48c-0.05,0.77-0.14,1.47-0.26,2.12
		c-0.18,0.91-0.42,1.74-0.73,2.51s-0.69,1.43-1.14,1.98c-0.45,0.55-0.97,0.98-1.57,1.29S303.08,552.08,302.34,552.08z"/>
	<path d="M326.76,551.38h-2.28v-16.93c0-1.15-0.07-2.12-0.2-2.92c-0.13-0.8-0.32-1.46-0.57-1.98c-0.25-0.52-0.55-0.9-0.9-1.14
		c-0.35-0.24-0.74-0.36-1.17-0.36c-0.81,0-1.55,0.41-2.22,1.23c-0.67,0.82-1.26,1.95-1.79,3.39v18.7h-2.28v-26.33h1.76l0.44,3.66
		h0.04c0.25-0.61,0.53-1.18,0.83-1.7c0.3-0.53,0.63-0.99,1-1.39c0.37-0.4,0.77-0.71,1.21-0.93c0.44-0.22,0.92-0.33,1.44-0.33
		c1.04,0,1.9,0.47,2.59,1.41c0.69,0.94,1.21,2.23,1.59,3.85h0.06c0.62-1.64,1.33-2.93,2.12-3.87s1.72-1.4,2.78-1.4
		c0.49,0,1.01,0.13,1.56,0.39c0.55,0.26,1.06,0.73,1.52,1.43c0.46,0.69,0.84,1.65,1.15,2.87c0.3,1.22,0.46,2.79,0.46,4.71v17.62
		h-2.28v-16.93c0-1.15-0.07-2.12-0.2-2.92s-0.32-1.46-0.57-1.98c-0.25-0.52-0.55-0.9-0.9-1.14s-0.74-0.36-1.17-0.36
		c-0.81,0-1.56,0.41-2.23,1.23s-1.27,1.95-1.8,3.39V551.38z"/>
	<path d="M351.45,548.47h-0.06c-0.19,0.44-0.42,0.88-0.71,1.32c-0.28,0.43-0.61,0.82-0.98,1.16c-0.37,0.34-0.78,0.61-1.22,0.82
		c-0.44,0.2-0.91,0.3-1.41,0.3c-0.68,0-1.3-0.19-1.86-0.57c-0.56-0.38-1.05-0.93-1.46-1.66c-0.41-0.73-0.72-1.62-0.95-2.67
		s-0.34-2.24-0.34-3.57c0-1.31,0.12-2.49,0.38-3.52c0.25-1.03,0.6-1.91,1.05-2.63c0.45-0.72,0.99-1.27,1.62-1.66
		c0.63-0.39,1.33-0.58,2.09-0.58c0.73,0.02,1.4,0.14,2.01,0.36s1.17,0.5,1.65,0.83h0.06v-1.83c0-0.72-0.02-1.36-0.07-1.91
		c-0.05-0.55-0.13-1.04-0.25-1.47c-0.25-0.89-0.66-1.62-1.22-2.2c-0.56-0.58-1.31-0.87-2.26-0.87c-0.71,0-1.37,0.12-1.99,0.37
		c-0.62,0.25-1.24,0.6-1.86,1.04v-3.6c0.24-0.22,0.51-0.43,0.83-0.62c0.32-0.19,0.65-0.36,1.01-0.5s0.73-0.25,1.12-0.32
		c0.39-0.07,0.78-0.11,1.18-0.11c1.41,0,2.56,0.47,3.46,1.41c0.9,0.94,1.54,2.19,1.93,3.74c0.15,0.59,0.25,1.24,0.32,1.95
		c0.06,0.71,0.1,1.49,0.1,2.34v17.57h-1.91L351.45,548.47z M351.33,539.83c-0.42-0.22-0.92-0.43-1.49-0.64s-1.21-0.31-1.9-0.33
		c-0.97,0-1.72,0.39-2.27,1.16c-0.55,0.78-0.82,1.97-0.82,3.58c0,0.81,0.07,1.52,0.21,2.13c0.14,0.61,0.32,1.11,0.56,1.51
		c0.24,0.4,0.52,0.69,0.85,0.89c0.33,0.19,0.68,0.29,1.05,0.29c0.49,0,0.94-0.13,1.36-0.4c0.42-0.27,0.79-0.59,1.12-0.96
		c0.33-0.37,0.61-0.74,0.83-1.11c0.23-0.37,0.4-0.66,0.5-0.86V539.83z"/>
	<path d="M363.2,528.72h0.04c0.25-0.61,0.54-1.18,0.85-1.7s0.65-0.99,1.04-1.39c0.38-0.4,0.8-0.71,1.26-0.93
		c0.46-0.22,0.95-0.33,1.49-0.33c0.64,0,1.23,0.17,1.79,0.5c0.56,0.33,1.04,0.87,1.46,1.61c0.41,0.74,0.74,1.7,0.98,2.9
		s0.36,2.66,0.36,4.39v17.62h-2.28v-16.93c0-2.27-0.23-3.91-0.7-4.91c-0.47-1-1.14-1.5-2.04-1.5c-0.78,0-1.54,0.41-2.28,1.23
		c-0.74,0.82-1.37,1.95-1.9,3.39v18.7H361v-26.33h1.76L363.2,528.72z"/>
	<path d="M395.49,548.33c0.75,0,1.44-0.12,2.07-0.35c0.62-0.23,1.24-0.56,1.86-0.98v3.57c-0.5,0.46-1.12,0.83-1.85,1.09
		c-0.73,0.27-1.52,0.4-2.37,0.4c-1,0-1.94-0.24-2.81-0.72c-0.88-0.48-1.64-1.26-2.28-2.33s-1.14-2.47-1.51-4.2
		c-0.36-1.73-0.54-3.81-0.54-6.25c0-2.4,0.18-4.48,0.53-6.25c0.35-1.76,0.82-3.24,1.41-4.42c0.59-1.18,1.26-2.07,2.02-2.66
		c0.76-0.59,1.56-0.89,2.39-0.89c0.78,0,1.51,0.25,2.19,0.73s1.27,1.26,1.77,2.31c0.5,1.05,0.89,2.41,1.18,4.07
		c0.29,1.66,0.43,3.66,0.43,5.99c0,0.22,0,0.41,0,0.57c0,0.16-0.01,0.51-0.01,1.07h-9.64c0,1.68,0.13,3.11,0.4,4.28
		s0.64,2.12,1.1,2.85c0.47,0.73,1.01,1.26,1.64,1.59C394.08,548.17,394.76,548.33,395.49,548.33z M394.28,528.05
		c-0.53,0-1.01,0.19-1.47,0.58c-0.45,0.39-0.85,0.91-1.18,1.58c-0.34,0.67-0.61,1.45-0.82,2.34c-0.21,0.9-0.34,1.85-0.39,2.87h7.14
		c0-1.03-0.07-2-0.22-2.9c-0.14-0.9-0.35-1.68-0.63-2.34c-0.28-0.67-0.62-1.19-1.03-1.57C395.29,528.24,394.82,528.05,394.28,528.05
		z"/>
	<path d="M411.52,535.2l3.79-10.14h2.51l-5.1,13.02l5.29,13.3h-2.47l-4.09-10.53h-0.06l-4.03,10.53h-2.47l5.29-13.41l-5.1-12.91
		h2.51l3.85,10.14H411.52z"/>
	<path d="M435.87,537.92c0,1.83-0.1,3.45-0.29,4.86c-0.19,1.41-0.45,2.65-0.76,3.7c-0.32,1.05-0.68,1.93-1.11,2.65
		c-0.42,0.71-0.86,1.28-1.31,1.72c-0.45,0.43-0.91,0.75-1.38,0.94c-0.47,0.19-0.91,0.29-1.32,0.29c-0.86,0-1.6-0.26-2.23-0.79
		s-1.2-1.31-1.7-2.34h-0.04v15.32h-2.23v-39.21h1.72l0.49,2.99h0.04c0.13-0.37,0.29-0.73,0.49-1.08c0.2-0.35,0.47-0.72,0.81-1.12
		c0.34-0.4,0.75-0.74,1.22-1.04c0.48-0.29,0.99-0.44,1.55-0.44c0.78,0,1.54,0.25,2.27,0.75c0.73,0.5,1.37,1.29,1.93,2.38
		c0.56,1.09,1.01,2.49,1.34,4.2C435.7,533.4,435.87,535.48,435.87,537.92z M433.49,537.97c0-1.53-0.09-2.91-0.26-4.13
		c-0.17-1.22-0.43-2.26-0.78-3.12c-0.34-0.86-0.77-1.52-1.27-1.98c-0.5-0.46-1.08-0.69-1.74-0.69c-0.47,0-0.91,0.12-1.29,0.36
		c-0.39,0.24-0.74,0.54-1.06,0.91c-0.32,0.37-0.59,0.77-0.81,1.19c-0.23,0.43-0.41,0.8-0.55,1.14v13.77
		c0.48,0.92,1.03,1.65,1.65,2.19c0.62,0.54,1.28,0.8,1.99,0.8c0.43,0,0.89-0.15,1.37-0.46c0.48-0.3,0.93-0.85,1.34-1.64
		c0.41-0.78,0.75-1.85,1.01-3.2C433.35,541.78,433.49,540.06,433.49,537.97z"/>
	<path d="M449.08,548.33c0.75,0,1.44-0.12,2.07-0.35c0.62-0.23,1.24-0.56,1.86-0.98v3.57c-0.5,0.46-1.12,0.83-1.85,1.09
		c-0.73,0.27-1.52,0.4-2.37,0.4c-1,0-1.94-0.24-2.81-0.72c-0.88-0.48-1.64-1.26-2.28-2.33s-1.14-2.47-1.51-4.2
		c-0.36-1.73-0.54-3.81-0.54-6.25c0-2.4,0.18-4.48,0.53-6.25c0.35-1.76,0.82-3.24,1.41-4.42c0.59-1.18,1.26-2.07,2.02-2.66
		c0.76-0.59,1.56-0.89,2.39-0.89c0.78,0,1.51,0.25,2.19,0.73s1.27,1.26,1.77,2.31c0.5,1.05,0.89,2.41,1.18,4.07
		c0.29,1.66,0.43,3.66,0.43,5.99c0,0.22,0,0.41,0,0.57c0,0.16-0.01,0.51-0.01,1.07h-9.64c0,1.68,0.13,3.11,0.4,4.28
		s0.64,2.12,1.1,2.85c0.47,0.73,1.01,1.26,1.64,1.59C447.68,548.17,448.35,548.33,449.08,548.33z M447.88,528.05
		c-0.53,0-1.01,0.19-1.47,0.58c-0.45,0.39-0.85,0.91-1.18,1.58c-0.34,0.67-0.61,1.45-0.82,2.34c-0.21,0.9-0.34,1.85-0.39,2.87h7.14
		c0-1.03-0.07-2-0.22-2.9c-0.14-0.9-0.35-1.68-0.63-2.34c-0.28-0.67-0.62-1.19-1.03-1.57C448.88,528.24,448.41,528.05,447.88,528.05
		z"/>
	<path d="M468.06,528.55h-0.18c-0.54,0-1.07,0.09-1.59,0.28c-0.52,0.19-1.01,0.47-1.46,0.85c-0.46,0.38-0.87,0.84-1.23,1.4
		c-0.37,0.55-0.67,1.21-0.92,1.97v18.34h-2.28v-26.33h1.76l0.44,4.18h0.04c0.23-0.68,0.5-1.32,0.83-1.91
		c0.33-0.59,0.7-1.11,1.11-1.55s0.86-0.79,1.35-1.04c0.49-0.25,1-0.37,1.54-0.37c0.1,0,0.2,0,0.3,0.01c0.1,0.01,0.19,0.02,0.27,0.04
		V528.55z"/>
	<path d="M473.56,518.93v-4.79h2.28v4.79H473.56z M473.61,551.38v-26.33h2.28v26.33H473.61z"/>
	<path d="M490.06,548.33c0.75,0,1.44-0.12,2.07-0.35c0.62-0.23,1.24-0.56,1.86-0.98v3.57c-0.5,0.46-1.12,0.83-1.85,1.09
		c-0.73,0.27-1.52,0.4-2.37,0.4c-1,0-1.94-0.24-2.81-0.72c-0.88-0.48-1.64-1.26-2.28-2.33s-1.14-2.47-1.51-4.2
		c-0.36-1.73-0.54-3.81-0.54-6.25c0-2.4,0.18-4.48,0.53-6.25c0.35-1.76,0.82-3.24,1.41-4.42c0.59-1.18,1.26-2.07,2.02-2.66
		c0.76-0.59,1.56-0.89,2.39-0.89c0.78,0,1.51,0.25,2.19,0.73s1.27,1.26,1.77,2.31c0.5,1.05,0.89,2.41,1.18,4.07
		c0.29,1.66,0.43,3.66,0.43,5.99c0,0.22,0,0.41,0,0.57c0,0.16-0.01,0.51-0.01,1.07h-9.64c0,1.68,0.13,3.11,0.4,4.28
		s0.64,2.12,1.1,2.85c0.47,0.73,1.01,1.26,1.64,1.59C488.66,548.17,489.33,548.33,490.06,548.33z M488.86,528.05
		c-0.53,0-1.01,0.19-1.47,0.58c-0.45,0.39-0.85,0.91-1.18,1.58c-0.34,0.67-0.61,1.45-0.82,2.34c-0.21,0.9-0.34,1.85-0.39,2.87h7.14
		c0-1.03-0.07-2-0.22-2.9c-0.14-0.9-0.35-1.68-0.63-2.34c-0.28-0.67-0.62-1.19-1.03-1.57C489.86,528.24,489.39,528.05,488.86,528.05
		z"/>
	<path d="M503.59,528.72h0.04c0.25-0.61,0.54-1.18,0.85-1.7s0.65-0.99,1.04-1.39c0.38-0.4,0.8-0.71,1.26-0.93
		c0.46-0.22,0.95-0.33,1.49-0.33c0.64,0,1.23,0.17,1.79,0.5c0.56,0.33,1.04,0.87,1.46,1.61c0.41,0.74,0.74,1.7,0.98,2.9
		s0.36,2.66,0.36,4.39v17.62h-2.28v-16.93c0-2.27-0.23-3.91-0.7-4.91c-0.47-1-1.14-1.5-2.04-1.5c-0.78,0-1.54,0.41-2.28,1.23
		c-0.74,0.82-1.37,1.95-1.9,3.39v18.7h-2.28v-26.33h1.76L503.59,528.72z"/>
	<path d="M526.24,524.37c0.68,0,1.32,0.13,1.94,0.4c0.62,0.27,1.15,0.64,1.59,1.12v3.57c-0.62-0.44-1.19-0.78-1.71-1
		s-1.05-0.33-1.59-0.33c-0.57,0-1.13,0.18-1.69,0.53c-0.56,0.35-1.06,0.93-1.5,1.73s-0.8,1.87-1.07,3.19
		c-0.27,1.32-0.4,2.96-0.4,4.92c0,1.42,0.1,2.73,0.3,3.94c0.2,1.2,0.5,2.24,0.9,3.12c0.4,0.88,0.89,1.56,1.49,2.05
		s1.29,0.73,2.07,0.73c0.57,0,1.14-0.12,1.72-0.35c0.58-0.23,1.14-0.56,1.69-0.98v3.57c-0.17,0.18-0.38,0.37-0.65,0.55
		s-0.57,0.35-0.89,0.48s-0.67,0.25-1.03,0.33s-0.72,0.12-1.09,0.12c-0.94,0-1.83-0.27-2.67-0.8c-0.84-0.54-1.57-1.36-2.2-2.47
		s-1.12-2.51-1.48-4.21c-0.36-1.7-0.54-3.71-0.54-6.04c0-1.74,0.1-3.3,0.29-4.68c0.19-1.39,0.45-2.61,0.79-3.66s0.72-1.95,1.17-2.69
		c0.45-0.74,0.92-1.34,1.43-1.82c0.5-0.47,1.03-0.81,1.57-1.03C525.2,524.47,525.73,524.37,526.24,524.37z"/>
	<path d="M543.05,548.33c0.75,0,1.44-0.12,2.07-0.35c0.62-0.23,1.24-0.56,1.86-0.98v3.57c-0.5,0.46-1.12,0.83-1.85,1.09
		c-0.73,0.27-1.52,0.4-2.37,0.4c-1,0-1.94-0.24-2.81-0.72c-0.88-0.48-1.64-1.26-2.28-2.33s-1.14-2.47-1.51-4.2
		c-0.36-1.73-0.54-3.81-0.54-6.25c0-2.4,0.18-4.48,0.53-6.25c0.35-1.76,0.82-3.24,1.41-4.42c0.59-1.18,1.26-2.07,2.02-2.66
		c0.76-0.59,1.56-0.89,2.39-0.89c0.78,0,1.51,0.25,2.19,0.73s1.27,1.26,1.77,2.31c0.5,1.05,0.89,2.41,1.18,4.07
		c0.29,1.66,0.43,3.66,0.43,5.99c0,0.22,0,0.41,0,0.57c0,0.16-0.01,0.51-0.01,1.07h-9.64c0,1.68,0.13,3.11,0.4,4.28
		s0.64,2.12,1.1,2.85c0.47,0.73,1.01,1.26,1.64,1.59C541.64,548.17,542.32,548.33,543.05,548.33z M541.84,528.05
		c-0.53,0-1.01,0.19-1.47,0.58c-0.45,0.39-0.85,0.91-1.18,1.58c-0.34,0.67-0.61,1.45-0.82,2.34c-0.21,0.9-0.34,1.85-0.39,2.87h7.14
		c0-1.03-0.07-2-0.22-2.9c-0.14-0.9-0.35-1.68-0.63-2.34c-0.28-0.67-0.62-1.19-1.03-1.57C542.85,528.24,542.38,528.05,541.84,528.05
		z"/>
	<path d="M570.01,548.33c0.75,0,1.44-0.12,2.07-0.35c0.62-0.23,1.24-0.56,1.86-0.98v3.57c-0.5,0.46-1.12,0.83-1.85,1.09
		c-0.73,0.27-1.52,0.4-2.37,0.4c-1,0-1.94-0.24-2.81-0.72c-0.88-0.48-1.64-1.26-2.28-2.33s-1.14-2.47-1.51-4.2
		c-0.36-1.73-0.54-3.81-0.54-6.25c0-2.4,0.18-4.48,0.53-6.25c0.35-1.76,0.82-3.24,1.41-4.42c0.59-1.18,1.26-2.07,2.02-2.66
		c0.76-0.59,1.56-0.89,2.39-0.89c0.78,0,1.51,0.25,2.19,0.73s1.27,1.26,1.77,2.31c0.5,1.05,0.89,2.41,1.18,4.07
		c0.29,1.66,0.43,3.66,0.43,5.99c0,0.22,0,0.41,0,0.57c0,0.16-0.01,0.51-0.01,1.07h-9.64c0,1.68,0.13,3.11,0.4,4.28
		s0.64,2.12,1.1,2.85c0.47,0.73,1.01,1.26,1.64,1.59C568.61,548.17,569.28,548.33,570.01,548.33z M568.81,528.05
		c-0.53,0-1.01,0.19-1.47,0.58c-0.45,0.39-0.85,0.91-1.18,1.58c-0.34,0.67-0.61,1.45-0.82,2.34c-0.21,0.9-0.34,1.85-0.39,2.87h7.14
		c0-1.03-0.07-2-0.22-2.9c-0.14-0.9-0.35-1.68-0.63-2.34c-0.28-0.67-0.62-1.19-1.03-1.57C569.81,528.24,569.34,528.05,568.81,528.05
		z"/>
	<path d="M586.04,535.2l3.79-10.14h2.51l-5.1,13.02l5.29,13.3h-2.47l-4.09-10.53h-0.06l-4.03,10.53h-2.47l5.29-13.41l-5.1-12.91
		h2.51l3.85,10.14H586.04z"/>
	<path d="M610.39,537.92c0,1.83-0.1,3.45-0.29,4.86c-0.19,1.41-0.45,2.65-0.76,3.7c-0.32,1.05-0.68,1.93-1.11,2.65
		c-0.42,0.71-0.86,1.28-1.31,1.72c-0.45,0.43-0.91,0.75-1.38,0.94c-0.47,0.19-0.91,0.29-1.32,0.29c-0.86,0-1.6-0.26-2.23-0.79
		s-1.2-1.31-1.7-2.34h-0.04v15.32h-2.23v-39.21h1.72l0.49,2.99h0.04c0.13-0.37,0.29-0.73,0.49-1.08c0.2-0.35,0.47-0.72,0.81-1.12
		c0.34-0.4,0.75-0.74,1.22-1.04c0.48-0.29,0.99-0.44,1.55-0.44c0.78,0,1.54,0.25,2.27,0.75c0.73,0.5,1.37,1.29,1.93,2.38
		c0.56,1.09,1.01,2.49,1.34,4.2C610.22,533.4,610.39,535.48,610.39,537.92z M608.01,537.97c0-1.53-0.09-2.91-0.26-4.13
		c-0.17-1.22-0.43-2.26-0.78-3.12c-0.34-0.86-0.77-1.52-1.27-1.98c-0.5-0.46-1.08-0.69-1.74-0.69c-0.47,0-0.91,0.12-1.29,0.36
		c-0.39,0.24-0.74,0.54-1.06,0.91c-0.32,0.37-0.59,0.77-0.81,1.19c-0.23,0.43-0.41,0.8-0.55,1.14v13.77
		c0.48,0.92,1.03,1.65,1.65,2.19c0.62,0.54,1.28,0.8,1.99,0.8c0.43,0,0.89-0.15,1.37-0.46c0.48-0.3,0.93-0.85,1.34-1.64
		c0.41-0.78,0.75-1.85,1.01-3.2C607.88,541.78,608.01,540.06,608.01,537.97z"/>
	<path d="M617.12,551.38v-40.12h2.28v40.12H617.12z"/>
	<path d="M639.38,538.25c0,2.07-0.16,3.95-0.47,5.65c-0.31,1.7-0.76,3.15-1.33,4.36s-1.27,2.15-2.08,2.81s-1.72,1-2.73,1
		c-1.04,0-1.97-0.33-2.79-1c-0.82-0.67-1.51-1.6-2.09-2.81s-1.01-2.67-1.32-4.36c-0.3-1.7-0.46-3.58-0.46-5.65
		c0-2.09,0.16-3.98,0.47-5.68c0.31-1.7,0.76-3.16,1.33-4.38c0.57-1.22,1.27-2.16,2.09-2.83c0.82-0.67,1.73-1,2.74-1
		c1.03,0,1.95,0.33,2.78,1s1.52,1.61,2.09,2.83c0.57,1.22,1,2.68,1.31,4.38C639.23,534.27,639.38,536.16,639.38,538.25z M637,538.25
		c0-1.62-0.11-3.07-0.32-4.34c-0.21-1.26-0.5-2.34-0.88-3.21c-0.38-0.88-0.83-1.54-1.34-2s-1.09-0.68-1.7-0.68
		c-0.62,0-1.19,0.23-1.71,0.68c-0.52,0.45-0.97,1.12-1.34,2c-0.38,0.88-0.67,1.95-0.88,3.21c-0.21,1.27-0.32,2.71-0.32,4.34
		c0,1.61,0.11,3.04,0.32,4.31c0.21,1.27,0.51,2.33,0.89,3.2s0.83,1.53,1.35,1.98c0.52,0.45,1.09,0.68,1.71,0.68
		c0.62,0,1.18-0.23,1.7-0.68c0.51-0.45,0.96-1.11,1.34-1.98c0.38-0.87,0.67-1.94,0.88-3.2C636.9,541.29,637,539.86,637,538.25z"/>
	<path d="M653.62,528.55h-0.18c-0.54,0-1.07,0.09-1.59,0.28c-0.52,0.19-1.01,0.47-1.46,0.85c-0.46,0.38-0.87,0.84-1.23,1.4
		c-0.37,0.55-0.67,1.21-0.92,1.97v18.34h-2.28v-26.33h1.76l0.44,4.18h0.04c0.23-0.68,0.5-1.32,0.83-1.91
		c0.33-0.59,0.7-1.11,1.11-1.55s0.86-0.79,1.35-1.04c0.49-0.25,1-0.37,1.54-0.37c0.1,0,0.2,0,0.3,0.01c0.1,0.01,0.19,0.02,0.27,0.04
		V528.55z"/>
	<path d="M665.65,548.33c0.75,0,1.44-0.12,2.07-0.35c0.62-0.23,1.24-0.56,1.86-0.98v3.57c-0.5,0.46-1.12,0.83-1.85,1.09
		c-0.73,0.27-1.52,0.4-2.37,0.4c-1,0-1.94-0.24-2.81-0.72c-0.88-0.48-1.64-1.26-2.28-2.33s-1.14-2.47-1.51-4.2
		c-0.36-1.73-0.54-3.81-0.54-6.25c0-2.4,0.18-4.48,0.53-6.25c0.35-1.76,0.82-3.24,1.41-4.42c0.59-1.18,1.26-2.07,2.02-2.66
		c0.76-0.59,1.56-0.89,2.39-0.89c0.78,0,1.51,0.25,2.19,0.73s1.27,1.26,1.77,2.31c0.5,1.05,0.89,2.41,1.18,4.07
		c0.29,1.66,0.43,3.66,0.43,5.99c0,0.22,0,0.41,0,0.57c0,0.16-0.01,0.51-0.01,1.07h-9.64c0,1.68,0.13,3.11,0.4,4.28
		s0.64,2.12,1.1,2.85c0.47,0.73,1.01,1.26,1.64,1.59C664.25,548.17,664.93,548.33,665.65,548.33z M664.45,528.05
		c-0.53,0-1.01,0.19-1.47,0.58c-0.45,0.39-0.85,0.91-1.18,1.58c-0.34,0.67-0.61,1.45-0.82,2.34c-0.21,0.9-0.34,1.85-0.39,2.87h7.14
		c0-1.03-0.07-2-0.22-2.9c-0.14-0.9-0.35-1.68-0.63-2.34c-0.28-0.67-0.62-1.19-1.03-1.57C665.46,528.24,664.99,528.05,664.45,528.05
		z"/>
	<path d="M676.17,538.55c0-1.83,0.1-3.45,0.29-4.86c0.19-1.41,0.44-2.65,0.76-3.7s0.68-1.93,1.1-2.65c0.42-0.71,0.86-1.29,1.31-1.73
		c0.45-0.44,0.91-0.76,1.37-0.96c0.46-0.19,0.9-0.29,1.32-0.29c0.85,0,1.59,0.27,2.22,0.8s1.19,1.32,1.69,2.36h0.04v-16.27h2.28
		v40.12h-1.72l-0.47-2.94h-0.06c-0.18,0.43-0.38,0.85-0.62,1.29c-0.23,0.43-0.51,0.83-0.83,1.18c-0.32,0.35-0.69,0.63-1.1,0.84
		c-0.42,0.21-0.9,0.32-1.45,0.32c-0.76,0-1.51-0.25-2.25-0.73c-0.73-0.49-1.39-1.27-1.96-2.35c-0.57-1.08-1.04-2.48-1.39-4.18
		C676.35,543.09,676.17,541.01,676.17,538.55z M678.56,538.5c0,1.52,0.09,2.89,0.27,4.12c0.18,1.23,0.44,2.27,0.79,3.13
		c0.34,0.86,0.76,1.52,1.26,1.98c0.5,0.46,1.07,0.69,1.72,0.69c0.48,0,0.92-0.12,1.31-0.36s0.74-0.54,1.05-0.91
		c0.31-0.37,0.57-0.76,0.79-1.18c0.22-0.42,0.39-0.8,0.52-1.15v-13.77c-0.47-0.9-1.01-1.63-1.63-2.17s-1.28-0.82-2-0.82
		c-0.43,0-0.88,0.15-1.36,0.46c-0.48,0.3-0.92,0.85-1.32,1.65c-0.41,0.79-0.74,1.86-1.01,3.2S678.56,536.41,678.56,538.5z"/>
	<path d="M695.65,535.56h6.48v4.02h-6.48V535.56z"/>
</g>
<g>
</g>
<g>
</g>
<g>
</g>
<g>
</g>
<g>
</g>
<g>
</g>
</svg>
