<?xml version="1.0" encoding="utf-8"?>
<!-- Generator: Adobe Illustrator 24.3.0, SVG Export Plug-In . SVG Version: 6.00 Build 0)  -->
<svg version="1.1" id="venox-logo" xmlns="http://www.w3.org/2000/svg" xmlns:xlink="http://www.w3.org/1999/xlink" x="0px" y="0px"
	 viewBox="0 0 864 864" style="enable-background:new 0 0 864 864;" xml:space="preserve">
<path id="venox-logo-combined" d="M305.46,442.25c2,4.19,5.22,12.56,4.14,23.09c-0.39,3.76-1.15,10.42-5.86,17.23
	c-5.58,8.07-13.21,11.32-16.2,12.41c-12.03,4.37-22.54,0.39-25.16-0.69c-57.55-58.82-115.1-117.63-172.66-176.45
	c-0.75-3.08-1.59-7.75-1.38-13.44c0.19-5.12,0.45-12.48,5.17-19.64c5.22-7.93,12.85-11.03,15.51-12.06
	c13.83-5.39,26.52,0.1,29.29,1.38C194.03,330.14,249.74,386.19,305.46,442.25z M89.24,447.51c-1.24,2.79-6.5,15.57-0.88,29.31
	c1.08,2.64,4.31,10.22,12.33,15.3c7.25,4.58,14.61,4.73,19.74,4.82c5.69,0.11,10.35-0.8,13.41-1.6
	c17.09-17.31,34.19-34.63,51.28-51.93l-47.22-45.95C121.68,414.14,105.45,430.83,89.24,447.51z M307.27,319.66
	c1.03-2.63,4.83-13.21,0.25-25.16c-1.14-2.98-4.51-10.55-12.69-15.98c-6.89-4.58-13.57-5.23-17.33-5.56
	c-10.54-0.91-18.86,2.46-23.01,4.53c-14.56,14.97-29.11,29.95-43.67,44.92l48.58,45.72C275.37,351.98,291.33,335.82,307.27,319.66z
	 M366.63,463.1c-8.85,0-16.02,7.17-16.02,16.03s7.17,16.02,16.02,16.02c8.85,0,16.03-7.17,16.03-16.02S375.48,463.1,366.63,463.1z
	 M454.39,451.5c-2.31,8.8-4.5,17.93-6.21,27.16h-0.21c-1.69-9.59-3.75-18.29-6.13-27.44l-8.21-32.55h-16.8l21.76,76.9h17.91
	l22.81-76.9H463L454.39,451.5z M511.89,463.03h24.96v-14.11h-24.96v-16.02h26.45v-14.24h-41.79v76.9h43.24v-14.24h-27.9V463.03z
	 M602.32,441.08c0,11.62,0.29,21.96,1.24,32.13l-0.26,0.04c-3.06-8.69-7.02-18.31-11.08-26.38l-14.08-28.21h-17.87v76.9h14.08
	v-23.11c0-12.56-0.19-23.44-0.67-33.63l0.34-0.04c3.29,9.01,7.74,18.87,11.79,27.17l14.54,29.61h16.07v-76.9h-14.08V441.08z
	 M701.71,456.34c0,25.23-13.43,40.47-33.27,40.47c-20.12,0-31.95-17.25-31.95-39.18c0-22.99,13.04-40.23,33.02-40.23
	C690.33,417.41,701.71,435.07,701.71,456.34z M685.5,456.93c0-13.86-5.78-25.7-16.33-25.7c-10.39,0-16.46,11.12-16.46,26.07
	c0,15.06,6.26,25.68,16.5,25.68C679.57,482.99,685.5,471.89,685.5,456.93z M751.74,456.18l19.12-37.52h-17.52l-5.7,14.04
	c-1.73,4.44-2.99,7.86-4.63,12.74h-0.26c-1.61-4.31-3.07-8.11-5.06-12.79l-5.94-14h-17.63l18.91,37.96l-19.6,38.94h17.47l5.61-13.95
	c2.2-5.31,3.87-9.34,5.28-13.8H742c1.87,4.44,3.55,8.45,6.01,13.84l6.12,13.91h17.74L751.74,456.18z"/>
<g>
</g>
<g>
</g>
<g>
</g>
<g>
</g>
<g>
</g>
<g>
</g>
</svg>
