<?xml version="1.0" encoding="utf-8"?>
<!-- Generator: Adobe Illustrator 24.3.0, SVG Export Plug-In . SVG Version: 6.00 Build 0)  -->
<svg version="1.1" id="woocommerce-logo" xmlns="http://www.w3.org/2000/svg" xmlns:xlink="http://www.w3.org/1999/xlink" x="0px"
	 y="0px" viewBox="0 0 864 864" style="enable-background:new 0 0 864 864;" xml:space="preserve">
<style type="text/css">
	.st0{fill:#717275;}
	.st1{fill:#CED0D5;}
</style>
<g id="woocommerce-logo-parts">
	<path id="logo-outline" class="st0" d="M647.27,244.21c-0.08,0.41-0.23,0.82-0.23,1.23c-0.01,3.4,0,6.79,0.01,10.19
		c0.01,5.72,0.02,11.43,0.03,17.15c-0.14,8.59-0.3,17.17-0.42,25.76c-0.17,11.5-0.37,23.01-0.47,34.51
		c-0.09,10.91-0.06,21.82-0.07,32.74c0,2.68,0,5.36,0.02,8.03c0.05,6.95,0.1,13.9,0.16,20.86c-0.25,3.93-0.47,7.87-0.75,11.8
		c-0.36,5-0.75,10-1.14,15c-0.07,0.91-0.18,1.82-0.28,2.73c-0.07,6.95-0.13,13.89-0.22,20.84c-0.07,5.75-0.15,11.5-0.27,17.24
		c-0.12,5.38-0.3,10.77-0.45,16.15c0.15,5.87,0.33,11.74,0.45,17.61c0.11,5.19,0.16,10.39,0.25,15.58
		c0.16,10.15,0.32,20.3,0.48,30.45c0.08,4.71,0.16,9.43,0.24,14.14c0.16,10.03,0.32,20.06,0.48,30.09
		c0.05,3.56-0.03,7.12,0.17,10.67c0.16,3.02,0,5.98-0.62,8.93c-0.35,1.68-1.22,3.02-2.92,3.5c-5.62,1.59-11.3,2.84-17.19,2.92
		c-7.99,0.11-15.83-1.21-23.71-2.21c-4.15-0.53-8.36-1.23-12.51-1.03c-8.69,0.42-17.35,1.51-26.03,2.11
		c-10.4,0.73-20.8,1.4-31.21,1.78c-7.1,0.26-14.23,0.01-21.34-0.07c-7.39-0.08-14.79-0.36-22.18-0.33
		c-12.07,0.05-24.14,0.29-36.21,0.46c-1.17,0.02-2.33,0.17-3.49,0.26c-1.68,0-3.36,0-5.04,0c-10.56,0-21.12,0-31.68,0
		c-1.28,0-2.56,0-3.84,0c-0.97-0.09-1.93-0.22-2.91-0.27c-9.69-0.46-19.39-0.91-29.08-1.37c-6.07-0.28-12.13-0.59-18.2-0.84
		c-8.42-0.35-16.84-0.76-25.27-0.95c-10.63-0.25-21.26-0.21-31.89-0.47c-11.18-0.27-22.36-0.66-33.54-1.15
		c-8.78-0.38-17.55-0.98-26.32-1.5c-2.22-0.13-4.19-1.9-4.62-4.36c-1.02-5.94-2.21-11.87-2.82-17.86
		c-0.97-9.49-1.58-19.02-2.25-28.54c-0.48-6.81-1.13-13.64-1.09-20.45c0.04-7.42,0.8-14.83,1.25-22.24c0.03-0.52,0.03-1.04,0.1-1.55
		c0.14-1.01,0.53-1.88,1.68-2.47c0,0.59,0.01,1.01,0,1.43c-0.15,6.95-0.43,13.9-0.4,20.85c0.03,6.75,0.15,13.51,0.62,20.24
		c0.77,10.95,1.81,21.89,2.86,32.83c0.52,5.44,1.28,10.87,1.97,16.29c0.33,2.63,1.44,3.62,4.09,3.77
		c11.65,0.66,23.29,1.43,34.94,1.95c7.14,0.32,14.3,0.41,21.45,0.34c7.55-0.07,15.09-0.64,22.64-0.61
		c5.42,0.02,10.84,0.62,16.26,1.02c5.42,0.41,10.83,0.9,16.24,1.34c7.76,0.63,15.52,1.32,23.3,1.84c4.1,0.27,8.23,0.32,12.34,0.31
		c8.83-0.03,17.67-0.14,26.5-0.27c8.11-0.12,16.22-0.31,24.33-0.47c8.31-0.16,16.62-0.34,24.93-0.47
		c5.32-0.08,10.63-0.13,15.95-0.11c6.48,0.03,12.95,0.07,19.42,0.25c9.62,0.25,19.25,0.61,28.87,0.95
		c7.6,0.27,15.18-0.13,22.73-0.95c9.06-0.99,18.11-1.89,27.24-2.08c5.59-0.11,11.18-0.62,16.76-0.54c3.85,0.05,7.69,0.79,11.54,1.21
		c4.01,0.44,8.03,1.37,12.01,1.2c7.29-0.3,14.61-0.66,21.75-2.49c1.67-0.43,1.92-0.81,1.66-2.51c-0.19-1.26-0.34-2.54-0.34-3.81
		c-0.02-9.24-0.02-18.48,0.03-27.72c0.02-4.67,0.17-9.35,0.22-14.02c0.01-0.95-0.17-1.91-0.25-2.86c-0.24-2.86-0.64-5.72-0.66-8.58
		c-0.07-11.12-0.04-22.24,0.01-33.35c0.05-8.99,0.17-17.99,0.29-26.98c0.04-2.95,0.17-5.9,0.26-8.86
		c-0.05-3.51-0.12-7.02-0.15-10.53c-0.03-3.47,0.01-6.95-0.01-10.42c-0.07-10.37-0.16-20.75-0.23-31.12
		c-0.01-0.72,0.05-1.43,0.08-2.15c0.49-3.79,1.02-7.58,1.46-11.37c0.66-5.66,1.25-11.33,1.88-16.99c0.05-0.47,0.16-0.94,0.24-1.41
		c-0.18-5.91-0.4-11.82-0.54-17.73c-0.26-10.99-0.44-21.98-0.73-32.96c-0.14-5.27-0.75-10.54-0.61-15.8
		c0.3-10.94,0.98-21.87,1.46-32.8c0.36-8.26,0.79-16.52,0.93-24.79c0.18-10.75,0.3-21.51,0.08-32.27
		c-0.18-9.1-0.88-18.19-1.32-27.29c-0.21-4.23-0.38-8.46-0.53-12.69c-0.04-1.01-0.33-1.52-1.46-1.54
		c-9.15-0.17-18.29-0.45-27.44-0.55c-5.59-0.06-11.19,0.16-16.79,0.23c-12.23,0.16-24.46,0.38-36.69,0.42
		c-9.19,0.03-18.39-0.07-27.58-0.34c-12.42-0.36-24.83-0.91-37.25-1.42c-6.03-0.24-12.07-0.33-18.07-0.91
		c-7.84-0.77-15.65-0.14-23.47-0.01c-4.67,0.08-9.35,0.23-14.02,0.34c-10.27,0.24-20.53,0.54-30.8,0.71
		c-9.59,0.16-19.19,0.15-28.79,0.26c-10.11,0.12-20.22,0.3-30.33,0.48c-7.51,0.13-15.02,0.31-22.53,0.48
		c-10.59,0.24-21.17,0.46-31.76,0.73c-7.87,0.2-15.73,0.46-23.6,0.72c-8.11,0.26-16.21,0.6-24.31,0.8c-3.3,0.08-6.5-0.59-9.55-1.95
		c-1.15-0.51-2.43-0.8-3.68-1.01c-2.11-0.35-2.96,0.48-2.97,2.62c-0.01,2.56,0.03,5.12-0.11,7.67c-0.55,10.25-1.18,20.5-1.75,30.75
		c-0.12,2.23-0.13,4.48-0.15,6.71c-0.07,8.68-0.12,17.35-0.19,26.03c-0.01,0.76-0.1,1.51-0.15,2.27c0.06,0.79,0.18,1.59,0.18,2.38
		c0.02,7.68,0.01,15.36,0.01,23.03c0,0.23-0.03,0.47-0.04,0.77c-1.35-0.17-1.53-1.38-2.12-2.19c0-1.76,0-3.52,0-5.28
		c0.08-0.36,0.23-0.72,0.23-1.08c0.08-5.76,0.15-11.53,0.22-17.29c0-0.28,0.05-0.55,0.07-0.83c-0.01-0.32-0.03-0.64-0.02-0.96
		c0.2-6.91,0.47-13.82,0.59-20.73c0.15-8.87,0.1-17.75,0.28-26.63c0.16-7.63,0.5-15.25,0.83-22.88c0.05-1.26,0.34-2.54,0.72-3.75
		c0.98-3.16,3.31-4.25,6.25-2.78c3.46,1.73,7.08,2.39,10.9,2.27c4.19-0.14,8.39-0.26,12.58-0.41c10.7-0.38,21.4-0.83,32.1-1.12
		c7.23-0.2,14.47-0.19,21.71-0.26c9.32-0.09,18.63-0.15,27.95-0.25c4.44-0.05,8.87-0.12,13.31-0.24c11.14-0.3,22.29-0.65,33.43-0.95
		c5.39-0.15,10.79-0.23,16.18-0.34c9.6,0.01,19.2,0.01,28.8,0.02c7.92,0.01,15.83,0.03,23.75,0.03c0.25,0,0.51-0.15,0.76-0.23
		c0.16,0,0.32,0,0.48,0c0.37,0.08,0.75,0.23,1.12,0.23c11.02,0.01,22.03,0.01,33.05,0c0.37,0,0.74-0.15,1.11-0.23
		c1.68,0,3.36,0,5.04,0c0.2,0.08,0.4,0.22,0.61,0.23c2.16,0.06,4.31,0.09,6.47,0.16c7.87,0.23,15.73,0.42,23.6,0.73
		c10.9,0.43,21.78,1.11,32.68,1.38c8.75,0.22,17.5,0.06,26.25-0.08c8.87-0.14,17.73-0.47,26.6-0.7c2.92-0.08,5.83-0.14,8.75-0.14
		c4.87,0,9.75-0.04,14.62,0.12c2.66,0.09,4.61,1.56,5.54,4.08c0.49,1.33,0.94,2.77,1,4.17c0.4,9.78,0.68,19.56,1.01,29.34
		c0.02,0.66,0.15,1.32,0.23,1.99C647.27,236.85,647.27,240.53,647.27,244.21z M230.83,345.03c0.22,6.58,0.21,13.18,0.27,19.76
		c0.09,9.75,0.16,19.49,0.24,29.24c0.05,5.91,0.1,11.82,0.17,17.73c0.03,2.15,0.11,4.31,0.17,6.46c-0.03,0.28-0.09,0.55-0.09,0.83
		c-0.1,9.22-0.21,18.43-0.3,27.65c-0.07,7.46-0.1,14.92-0.15,22.38c0.12,5.42,0.24,10.83,0.36,16.25c0.1,0,0.19,0,0.29,0
		c0.41-4.52,0.85-9.04,1.2-13.57c0.07-0.87-0.27-1.78-0.42-2.67c0.14-2.1,0.4-4.19,0.41-6.29c0.04-9.63,0.07-19.27,0-28.9
		c-0.04-5.23-0.3-10.46-0.47-15.69c0.08-1.11,0.23-2.23,0.24-3.34c0.06-7.03,0.1-14.06,0.12-21.09c0.03-9.27,0.23-18.54,0.03-27.8
		c-0.26-11.76-0.83-23.51-1.3-35.26c-0.14-3.56-0.35-7.12-0.55-10.69c-0.09-1.65-0.24-3.29-0.36-4.94
		c-0.12-0.04-0.24-0.07-0.36-0.11c-0.46,0.85-0.91,1.71-1.39,2.56c-0.09,0.15-0.3,0.23-0.46,0.35c0,0.24,0,0.48,0,0.72
		c0.16,0.29,0.44,0.56,0.47,0.86c0.32,3.82,0.62,7.64,0.91,11.46C230.19,335.63,230.67,340.32,230.83,345.03z M260.76,383.52
		c0.6-3.6,0.74-7.14,0.07-10.72c-1.15-6.16-0.98-12.33-0.11-18.49c0.66-4.63,1.4-9.24,2.1-13.86c0.26-3.74,0.47-7.49,0.78-11.22
		c0.41-4.93,0.92-9.86,1.33-14.79c0.42-5.13,0.94-10.26,1.1-15.41c0.12-3.7-0.33-7.41-0.42-11.12c-0.13-4.9-0.22-9.81-0.21-14.71
		c0-3.71,0.17-7.43,0.27-11.14c0.01-0.52,0.06-1.04,0.09-1.56c-0.12-3.51-0.24-7.01-0.37-10.52c-0.1-2.79-0.12-5.59-0.36-8.37
		c-0.41-4.81,0.58-9.45,1.4-14.13c0.16-0.91,0.54-1.31,1.59-1.27c10.09,0.44,20.17,0.83,30.26,1.23c0.4,0.02,0.79,0.1,1.18,0.14
		c3.14,0.04,6.28,0.08,9.43,0.13c4.1,0.07,8.21,0.15,12.31,0.24c6.49,0.14,12.99,0.28,19.48,0.45c0.67,0.02,1.34,0.16,2.02,0.24v0
		c0.87-0.07,1.75-0.2,2.62-0.2c10.16-0.05,20.31,0.05,30.47-0.16c6.58-0.14,13.15-0.71,19.73-1.11c7.29-0.44,14.58-0.93,21.87-1.38
		c4.66-0.29,9.33-0.55,13.99-0.8c2.91-0.16,5.82-0.37,8.73-0.37c2.75,0,5.5,0.31,8.25,0.35c4.47,0.07,8.94,0.16,13.41,0
		c8.94-0.32,17.87-0.83,26.8-1.21c3.46-0.15,6.93-0.15,10.4-0.2c0.47-0.01,0.94,0.11,1.42,0.17c1.79-0.11,3.57-0.26,5.36-0.34
		c5.1-0.22,10.2-0.4,15.3-0.6c0.8-0.03,1.59-0.06,2.39-0.09c4.73-0.41,9.46-0.96,14.2-1.2c8.62-0.44,17.24-1.02,25.86-0.95
		c9.38,0.07,18.75,0.74,28.12,1.3c5.66,0.34,11.3,0.94,16.95,1.48c2.02,0.19,4.01,0.57,6.12,0.88c-0.61,0.93-1.41,1.67-1.63,2.56
		c-0.43,1.77-0.68,3.6-0.77,5.42c-0.56,10.85-1.02,21.71-1.6,32.56c-0.55,10.37-1.3,20.73-1.77,31.1
		c-0.36,7.82-0.42,15.66-0.62,23.49c-0.2,7.79-0.54,15.58-0.55,23.37c-0.01,8.91,0.28,17.82,0.44,26.73
		c0.07,4.08,0.35,8.16,0.17,12.22c-0.18,4.18-0.79,8.35-1.21,12.52c0.16,3.9,0.42,7.81,0.46,11.71c0.04,4.11-0.11,8.22-0.19,12.33
		c-0.01,0.39-0.15,0.78-0.22,1.16c0.43,3.47,0.91,6.93,1.29,10.4c0.8,7.38,1.96,14.76,2.21,22.17c0.38,11.22,0.04,22.45,0.13,33.68
		c0.04,4.71,0.44,9.42,0.57,14.13c0.04,1.45-0.1,2.94-0.44,4.35c-0.5,2.05-1.24,4.05-1.89,6.06c-0.61,1.86-1.6,2.08-2.9,0.6
		c-3.99-4.53-7.98-9.06-11.92-13.63c-4.24-4.93-8.87-9.4-14.1-13.3c-6.28-4.68-12.46-9.51-18.52-14.47
		c-6.09-4.99-12.87-7.02-20.65-5.8c-8.01,1.25-16.04,2.36-24.04,3.69c-8.7,1.45-15.47,6.18-20.96,12.9
		c-2.95,3.61-4.94,7.72-6.11,12.23c-0.12,0.45-0.3,0.89-0.49,1.44c-3.24-1.43-6.36-2.81-9.49-4.19c-0.51-0.23-1-0.52-1.53-0.68
		c-5.19-1.64-8.45-5.73-11.98-9.46c-6.02-6.36-11.86-12.89-18.07-19.05c-4.59-4.55-9.69-8.58-14.5-12.91
		c-10.18-9.18-20.36-18.36-30.46-27.63c-5.01-4.59-9.98-9.17-15.72-12.91c-2.74-1.78-4.93-4.41-7.34-6.69
		c-7.31-6.91-14-14.37-20.01-22.44c-0.33-0.45-0.74-0.84-1.12-1.25c-9.01-9.73-19.23-18.13-29.38-26.61
		c-1.44-1.2-2.88-2.41-4.3-3.64c-0.58-0.5-1.06-0.53-1.65,0.04c-10.73,10.12-21.77,19.91-31.6,30.95
		c-8.76,9.84-16.3,20.51-22.41,32.19c-0.78,1.5-1.42,3.15-3.31,4.12c-1.73-3-3.54-5.96-5.16-9.02c-1.44-2.72-1.2-5.83-1.68-8.77
		C258.98,391.65,260.08,387.6,260.76,383.52z M264.48,403.09c0.31,2.12,0.6,4.24,0.95,6.67c1.53-2.11,2.9-3.96,4.23-5.85
		c8.08-11.5,16.75-22.53,26.6-32.57c7.84-8,15.8-15.87,23.71-23.8c1.07-1.08,2.1-2.2,3.21-3.24c1.76-1.65,3.04-1.6,4.79,0.02
		c7.32,6.74,14.65,13.48,22,20.19c4.93,4.5,9.96,8.87,14.05,14.23c5.52,7.23,11.73,13.86,18.5,19.93
		c6.26,5.6,12.74,10.94,18.96,16.57c13.29,12.01,26.48,24.12,39.71,36.19c6.32,5.77,12.48,11.69,18.13,18.15
		c4.72,5.4,9.83,10.43,15.79,14.46c3.79,2.56,7.76,4.85,11.41,7.11c2.32-3.77,4.34-7.46,6.75-10.87c4.53-6.4,10.26-11.42,17.86-13.9
		c3.26-1.07,6.61-1.86,9.93-2.74c7.16-1.9,14.34-3.57,21.83-3.28c6.63,0.26,12.74,2.07,18.18,5.96c6.11,4.37,12.25,8.71,18.31,13.15
		c4.99,3.65,9.57,7.81,13.22,12.81c3.4,4.65,7.35,8.74,11.62,12.56c1.17,1.05,2.33,2.13,3.67,3.35c0.27-2.26,0.73-4.27,0.73-6.28
		c-0.06-27.53,0.96-55.11-2.97-82.5h0c-0.04-0.44-0.12-0.87-0.12-1.31c-0.01-7.5-0.01-15,0-22.5c0-0.47,0.12-0.94,0.18-1.41h0
		c-0.01-0.4-0.03-0.8-0.01-1.2c0.17-4.83,0.44-9.66,0.48-14.49c0.06-6.67-0.08-13.35-0.08-20.03c0.01-9.35,0.02-18.71,0.12-28.06
		c0.07-6.75,0.27-13.5,0.47-20.25c0.24-7.83,0.51-15.65,0.82-23.47c0.42-10.58,0.91-21.15,1.32-31.72c0.25-6.35,0.44-12.7,0.6-19.05
		c0.08-3.39,0.01-6.78,0.01-10.27c-0.47-0.06-1.02-0.13-1.57-0.18c-5.09-0.44-10.19-0.9-15.28-1.31c-5.85-0.46-11.7-1.07-17.56-1.25
		c-6.71-0.2-13.43-0.02-20.14,0.07c-4.27,0.06-8.55,0.21-12.82,0.38c-6.21,0.24-12.42,0.54-18.63,0.82v0
		c-3.42,0.16-6.84,0.34-10.26,0.48c-4.26,0.17-8.52,0.29-12.78,0.44c-4.26,0.29-8.52,0.66-12.78,0.87
		c-9.81,0.49-19.62,0.92-29.43,1.34c-4.71,0.2-9.42,0.33-14.13,0.48c-7.3,0.24-14.61,0.49-21.91,0.72c-5.67,0.18-11.34,0.34-17,0.48
		c-7.63,0.18-15.26,0.34-22.88,0.48c-6.79,0.13-13.58,0.24-20.37,0.33c-6.39,0.09-12.78,0.14-19.17,0.21
		c-0.6,0.01-1.2,0.04-1.79,0.03c-8.97-0.23-17.94-0.49-26.92-0.69c-3.55-0.08-7.11-0.02-10.66-0.05c-1.27-0.01-2.54-0.13-3.82-0.2
		c-0.63,0.06-1.27,0.16-1.9,0.16c-9.58,0.01-19.17,0.01-28.75,0.01c-0.43,0-0.86,0-1.42,0c0,0.87,0,1.62,0,2.37
		c-0.04,9.62-0.07,19.25-0.11,28.87c0.08,0.34,0.22,0.68,0.23,1.02c0.15,5.27,0.41,10.54,0.39,15.81
		c-0.04,9.91-0.04,19.83-0.45,29.73c-0.34,8.13-1.14,16.25-1.95,24.36c-0.3,3.03-1.21,6.01-1.85,9.01
		c-0.06,0.86-0.15,1.72-0.19,2.58c-0.41,8.02-0.99,16.04-1.17,24.06C262.09,379.14,262.72,391.15,264.48,403.09z M231.5,493.45
		c-0.18,3.9-0.33,7.81-0.52,11.71c-0.07,1.53-0.02,1.61,1.88,1.51c-0.36-4.79-0.71-9.58-1.07-14.37c-0.05-0.01-0.1-0.01-0.15-0.02
		C231.59,492.68,231.52,493.06,231.5,493.45z M469.38,327.54c0.1-0.01,0.2-0.02,0.3-0.02c-0.19-5.39,0.33-10.71,1.7-15.92
		c1.45-5.53,3.85-10.62,7.81-14.83c7.34-7.82,16.33-12.73,26.88-14.51c7.48-1.26,14.62,0.44,21.44,3.56
		c14.32,6.55,22.66,17.83,26.16,32.98c1.24,5.36,1.59,10.76,0.96,16.19c-0.96,8.25-4.48,15.27-10.72,20.82
		c-4.21,3.74-9.09,6.39-14.32,8.42c-3.71,1.44-7.54,2.45-11.49,2.82c-4.33,0.41-8.7,0.23-12.84-1.25c-2.99-1.07-5.86-2.48-8.72-3.86
		c-4.39-2.13-8.78-4.29-13.08-6.58c-7.04-3.74-11.57-9.51-13.01-17.4C469.82,334.53,469.72,331.01,469.38,327.54z M472.79,333.73
		c0.36,2.37,0.98,4.7,1.45,7.06c0.59,2.95,1.82,5.58,3.9,7.74c3.35,3.47,7.26,6.21,11.5,8.49c5.05,2.72,10.45,4.55,15.93,6.16
		c3.26,0.96,6.67,1.69,10.05,1.43c3.24-0.25,6.5-0.96,9.64-1.88c6.64-1.95,12.43-5.41,17.13-10.56c3.14-3.44,5.43-7.4,7.14-11.7
		c3.24-8.16,4.15-16.43,1.27-24.92c-2.05-6.05-5.2-11.48-9.09-16.5c-2.8-3.62-5.74-7.08-9.74-9.47c-5.74-3.43-12-4.65-18.61-4.68
		c-1.59,0.12-3.17,0.22-4.76,0.35c-5.53,0.46-10.88,1.7-16,3.85c-4.56,1.91-8.58,4.66-11.61,8.58c-3.39,4.38-6.05,9.14-6.35,14.9
		c-0.14,2.71-0.55,5.41-0.84,8.11c-0.32,3.02-0.68,6.04-0.96,9.07C472.72,331.07,472.6,332.44,472.79,333.73z"/>
	<path id="logo-color" class="st1" d="M644.44,297.91c0.39-9.25,0.85-18.5,1.09-27.76c0.18-6.79,0.08-13.59,0.08-20.39
		c0-4.4,0.09-8.8-0.09-13.19c-0.37-8.94-0.89-17.87-1.34-26.8c-0.2-4.07-0.37-8.14-0.54-12.21c-0.02-0.68-0.15-1.11-0.99-1.15
		c-5.22-0.2-10.45-0.63-15.67-0.64c-10.39-0.01-20.78,0.19-31.17,0.35c-8.03,0.12-16.05,0.44-24.08,0.44
		c-12.15-0.01-24.3-0.16-36.44-0.37c-6.83-0.12-13.65-0.46-20.48-0.72c-4.75-0.18-9.49-0.37-14.24-0.57
		c-7.02-0.29-14.04-0.6-21.06-0.9c-4.45-0.47-8.89-0.81-13.38-0.57c-5.9,0.32-11.82,0.35-17.73,0.52
		c-5.19,0.15-10.38,0.33-15.57,0.47c-6.47,0.18-12.94,0.4-19.41,0.48c-11.71,0.13-23.43,0.16-35.14,0.26
		c-4.68,0.04-9.35,0.14-14.03,0.23c-8.27,0.16-16.54,0.32-24.81,0.48c-3.63,0.07-7.27,0.16-10.9,0.24
		c-7.15,0.16-14.3,0.31-21.45,0.48c-6.27,0.15-12.54,0.3-18.81,0.49c-7.31,0.21-14.61,0.47-21.92,0.71
		c-3.99,0.13-7.99,0.15-11.98,0.39c-5.13,0.31-10.19,0.48-15.03-1.79c-1.35-0.63-2.89-0.94-4.38-1.12
		c-1.58-0.19-2.43,0.81-2.41,2.41c0.01,1.63,0.04,3.26-0.02,4.88c-0.12,3.35-0.27,6.7-0.46,10.05c-0.45,7.97-1.04,15.93-1.39,23.91
		c-0.24,5.62-0.2,11.26-0.26,16.9c-0.04,3.72-0.01,7.44-0.04,11.16c-0.02,2.39-0.08,4.79-0.13,7.18c0.05,1.16,0.12,2.31,0.12,3.46
		c0.02,6.83,0.02,13.65,0.03,20.47c0,0.69-0.03,1.39-0.04,2.09c0.02,5.67,0.04,11.35,0.06,17.03c0.06,1.18,0.12,2.37,0.2,3.56
		c0.15,2.06,0.34,4.12,0.47,6.18c0.19,2.74,0.43,5.48,0.48,8.22c0.07,3.83-0.02,7.65-0.05,11.48c0.27,4.81,0.56,9.63,0.78,14.45
		c0.19,3.94,0.42,7.88,0.41,11.83c-0.03,14.73-0.14,29.46-0.23,44.2c-0.01,1.15-0.13,2.3-0.19,3.46c0,0.59-0.01,1.19,0.01,1.78
		c0.1,3.01,0.22,6.01,0.33,9.02c0.02,1.51,0.06,3.02,0.06,4.53c0.03,9.54,0.07,19.08,0.04,28.62c-0.01,2.3-0.24,4.61-0.37,6.92
		c0.83,1.67,0.17,3.39,0.08,5.07c-0.19,3.62-0.58,7.24-0.9,10.85c-0.01,0.19-0.1,0.37-0.15,0.56c0,2.05-0.01,4.1-0.01,6.15
		c0.2,2.09,0.42,4.18,0.59,6.27c0.2,2.51,0.37,5.01,0.52,7.52c0.02,0.41-0.12,0.83-0.19,1.25c-0.08,0.8-0.16,1.61-0.24,2.41
		c-0.02,4.28,0,8.56-0.08,12.83c-0.06,3.52-0.35,7.03-0.34,10.54c0.02,4.99,0.16,9.98,0.36,14.96c0.18,4.47,0.42,8.94,0.78,13.4
		c0.45,5.61,1.02,11.21,1.58,16.81c0.56,5.52,1.14,11.04,1.76,16.55c0.28,2.45,0.67,4.9,1.08,7.33c0.34,1.98,1.56,2.92,3.97,3.08
		c4.22,0.28,8.45,0.51,12.67,0.75c8.46,0.47,16.9,1.08,25.36,1.37c6.98,0.24,13.98,0.19,20.97,0.12c6.03-0.07,12.07-0.18,18.08-0.58
		c4.3-0.28,8.52,0.12,12.76,0.53c2.38,0.23,4.75,0.44,7.12,0.66c0.05-0.06,0.1-0.13,0.15-0.2c-0.05,0.07-0.1,0.14-0.15,0.19
		c6.36,0.51,12.72,1.02,19.09,1.54c3.18,0.26,6.36,0.53,9.54,0.78c3.82,0.3,7.63,0.59,11.45,0.88c0,0,0,0,0,0
		c5.21,0.07,10.41,0.14,15.61,0.21c0,0,0,0,0.01,0c3.07-0.05,6.14-0.11,9.21-0.16c4.59-0.08,9.19-0.16,13.78-0.24
		c4.67-0.08,9.35-0.14,14.02-0.24c6.75-0.15,13.49-0.34,20.24-0.48c5.11-0.11,10.22-0.17,15.34-0.24c0.92-0.01,1.84-0.02,2.76-0.02
		c9.31,0.05,18.62,0.01,27.93,0.2c8.42,0.17,16.83,0.68,25.25,0.91c5.38,0.15,10.78,0.21,16.16,0.06c4.3-0.12,8.6-0.54,12.88-0.93
		c4.49-0.41,8.95-1.08,13.44-1.41c4.97-0.37,9.96-0.53,14.94-0.73c5.69-0.23,11.39-0.39,17.09-0.59v0
		c5.26,0.7,10.52,1.41,15.78,2.11c1.62,0.21,3.24,0.4,4.86,0.59c0.69-0.78,1.25-1.9,2.05-2.42c-0.79,0.52-1.35,1.64-2.05,2.42
		c2.19-0.17,4.38-0.32,6.56-0.5c3.38-0.29,6.77-0.52,10.13-0.94c2.24-0.28,4.45-0.85,6.66-1.33c1.23-0.27,1.56-0.95,1.31-2.23
		c-0.2-1.05-0.43-2.12-0.43-3.18c-0.03-9.04-0.05-18.08,0.01-27.12c0.02-2.51,0.38-5.02,0.42-7.53c0.04-2.99,0.01-5.99-0.19-8.97
		c-0.14-2.18-0.84-4.34-0.86-6.51c-0.1-9.99-0.06-19.98-0.03-29.96c0.01-4.76,0.1-9.51,0.15-14.27c0.1-8.95,0.19-17.91,0.29-26.86
		c0.01-0.71,0.08-1.43,0.12-2.14c-0.05-3.71-0.12-7.42-0.14-11.13c-0.03-5.63,0-11.26-0.04-16.88c-0.05-8.38-0.14-16.76-0.2-25.13
		c0-0.28,0.02-0.56,0.04-0.84c0.34-2.16,0.73-4.32,0.99-6.49c0.5-4.19,0.92-8.4,1.38-12.6c0.4-3.64,0.81-7.28,1.22-10.93
		c-0.15-4.78-0.32-9.57-0.45-14.35c-0.18-6.86-0.33-13.72-0.49-20.59c-0.05-2.27-0.11-4.55-0.16-6.82
		c-0.74,0.15-1.49,0.31-2.23,0.46c0.75-0.15,1.49-0.31,2.23-0.46v-6.22c-0.99-0.25-2.01-0.45-2.98-0.79
		c-0.19-0.06-0.38-0.23-0.53-0.43c0.15,0.19,0.34,0.36,0.53,0.42c0.97,0.34,1.99,0.54,2.98,0.79c-0.29-5.68-0.59-11.37-0.88-17.05
		c0,0,0,0,0,0c0.16-2.63,0.34-5.26,0.46-7.89C643.75,313.47,644.11,305.69,644.44,297.91z M611,262.5c1.31,0.24,2.31,0.89,3.04,1.82
		C613.31,263.39,612.31,262.74,611,262.5z M612.47,328.29c-0.08,0.65-0.14,1.3-0.17,1.94c-0.31,5.26-0.2,10.54-0.32,15.82
		c0.11-5.27,0.01-10.56,0.31-15.82C612.33,329.59,612.39,328.94,612.47,328.29z M611.97,346.65c-0.07,3.21-0.16,6.43-0.26,9.65
		C611.81,353.09,611.89,349.87,611.97,346.65z M611.21,372.01c-0.06,1.69-0.12,3.39-0.19,5.08c-0.03,0.65-0.15,1.25-0.35,1.8
		c0.2-0.55,0.32-1.15,0.35-1.81C611.08,375.4,611.14,373.7,611.21,372.01z M613.45,458.15c0.05,1.68,0.22,3.36,0.33,5.04
		C613.66,461.51,613.5,459.83,613.45,458.15c-0.05-1.32-0.27-2.09-0.86-2.53C613.18,456.06,613.4,456.83,613.45,458.15z
		 M617.09,306.1c-0.08,1.32-0.19,2.63-0.35,3.93C616.9,308.73,617.01,307.42,617.09,306.1z M617.08,299.46
		c0.06,0.74,0.13,1.48,0.15,2.23C617.2,300.95,617.13,300.2,617.08,299.46z M322.24,227.91c6.27,0.14,12.53,0.3,18.8,0.46
		c0.47,0.01,0.95,0.12,1.42,0.18c0.47-0.06,0.93-0.16,1.4-0.16c9.84-0.03,19.68,0.09,29.52-0.11c6.81-0.14,13.62-0.71,20.42-1.09
		c3.03-0.17,6.06-0.33,9.08-0.52c6.01-0.37,12.02-0.78,18.03-1.16c2.74-0.17,5.49-0.35,8.24-0.48c3.82-0.18,7.65-0.48,11.48-0.45
		c4.18,0.04,8.36,0.48,12.54,0.59c2.71,0.07,5.43-0.11,8.14-0.22c2.59-0.11,5.17-0.3,7.76-0.43c3.95-0.19,7.9-0.34,11.84-0.52
		c4.78-0.22,9.56-0.48,14.35-0.64c1.62-0.05,3.26,0.14,4.89,0.22c7.68-0.33,15.36-0.66,23.04-0.98c2.08-0.24,4.16-0.47,6.23-0.71
		c7.06-0.39,14.11-0.9,21.17-1.15c6.59-0.23,13.2-0.45,19.78-0.19c10.33,0.4,20.65,1.12,30.96,1.88c4.29,0.32,8.55,1.09,12.82,1.65
		c0.11,0.02,0.21,0.09,0.29,0.13c0.01,0.07,0.04,0.13,0.03,0.14c-2.65,2.12-2.29,5.18-2.45,8.04c-0.4,7.06-0.71,14.12-1.06,21.18
		c-0.14,2.95-0.26,5.9-0.4,8.85c0,0,0,0,0,0c-0.25,4.06-0.5,8.12-0.74,12.18c-0.39,6.73-0.87,13.46-1.14,20.19
		c-0.3,7.58-0.38,15.17-0.61,22.75c-0.15,4.69-0.53,9.38-0.58,14.08c-0.07,6.67,0.03,13.34,0.11,20.01
		c0.06,4.75,0.22,9.5,0.31,14.25c0.1,5.27,0.18,10.54,0.26,15.81c0,0,0,0,0,0c-0.41,4.16-0.83,8.32-1.24,12.47
		c0.07,0.6,0.19,1.19,0.2,1.78c0.09,3.91,0.21,7.82,0.21,11.73c0.01,3.59-0.12,7.19-0.19,10.78c-0.01,0.23-0.1,0.45-0.16,0.68
		c0.46,3.91,0.93,7.83,1.38,11.74c0.7,6.09,1.43,12.18,2.04,18.28c0.2,1.98,0.06,3.98,0.07,5.98c0,0,0,0,0,0
		c-0.05,0.39-0.14,0.78-0.14,1.16c0.04,2.51,0.11,5.02,0.15,7.52c0.05,3.03,0.07,6.06,0.11,9.09c0.22-0.15,0.45-0.29,0.66-0.45
		c-0.21,0.16-0.45,0.3-0.66,0.45c-0.02,5.78-0.12,11.56-0.02,17.34c0.07,3.62,0.44,7.23,0.66,10.85c0.03,0.43-0.01,0.87-0.03,1.31
		c-0.84,2.66-1.68,5.32-2.53,7.97c-0.42,1.33-1.51,1.59-2.46,0.53c-2.06-2.28-4.07-4.62-6.11-6.92c-4.1-4.64-8.01-9.48-12.39-13.84
		c-3.21-3.19-7.04-5.76-10.61-8.58c-5.52-4.35-11.07-8.67-16.59-13.02c-4.72-3.72-10.02-5.8-16.08-5.44c-3.3,0.2-6.59,0.7-9.86,1.18
		c-6.04,0.9-12.08,1.8-18.09,2.84s-11.25,3.79-15.84,7.76c-5.55,4.81-9.45,10.68-11.16,17.9c-0.07,0.3-0.25,0.57-0.38,0.86
		c-4.67-2.08-9.36-4.09-13.98-6.27c-1.38-0.65-2.76-1.54-3.81-2.64c-7.88-8.26-15.63-16.67-23.55-24.89
		c-2.6-2.69-5.6-4.99-8.43-7.46c-6.82-5.97-13.74-11.84-20.44-17.93c-7.92-7.2-15.61-14.65-23.51-21.87
		c-2.08-1.89-4.6-3.3-6.92-4.93c-0.52-0.37-1.05-0.72-1.58-1.07c-0.2,0.01-0.4,0.02-0.6,0.04c0.2-0.02,0.4-0.03,0.59-0.04
		c-2.72-2.58-5.47-5.14-8.17-7.75c-6.68-6.45-12.84-13.37-18.39-20.81c-0.64-0.86-1.37-1.71-2.22-2.33
		c-2.02-1.49-3.46-3.5-5.14-5.31c-2.41-2.6-5.06-4.98-7.75-7.29c-6.48-5.57-13.05-11.04-19.57-16.56c-1.25-1.06-1.24-1.08-2.4,0.01
		c-6.92,6.52-13.96,12.92-20.73,19.59c-10.1,9.95-19.35,20.64-26.91,32.68c-2.65,4.22-4.91,8.68-7.41,13
		c-0.35,0.61-1.01,1.03-1.66,1.67c-2.93-4.47-6.18-8.47-6.65-13.84c-0.21-2.38-0.48-4.76-0.72-7.14c0,0,0,0,0,0
		c0.51-3.31,0.91-6.63,1.54-9.91c0.62-3.22,0.59-6.37,0-9.61c-1.06-5.72-1.07-11.52-0.34-17.29c0.65-5.1,1.47-10.17,2.22-15.26
		c0.18-2.62,0.33-5.25,0.55-7.87c0.35-4.09,0.76-8.17,1.11-12.26c0.48-5.6,0.95-11.2,1.39-16.8c0.36-4.66,0.39-9.31-0.07-13.98
		c-0.53-5.36-0.8-10.73-0.42-16.13c0.26-3.78,0.21-7.58,0.31-11.37c0.02-0.59,0.11-1.18,0.16-1.77c-0.14-3.39-0.29-6.78-0.42-10.17
		c-0.14-3.67-0.23-7.34-0.41-11.01c-0.18-3.67,0.76-7.2,1.28-10.79c0.1-0.72,0.37-1.42,0.56-2.14c5.26,0.2,10.52,0.39,15.78,0.6
		c5.62,0.23,11.23,0.47,16.84,0.7c5.11,0.13,10.22,0.27,15.32,0.39C317.12,227.88,319.68,227.86,322.24,227.91z M599.39,590.98
		c-0.15-0.27-0.32-0.5-0.51-0.68C599.08,590.48,599.25,590.71,599.39,590.98c0.13,0.23,0.21,0.45,0.27,0.67
		C599.6,591.43,599.52,591.2,599.39,590.98z M458.06,533c2.05-1.53,4.45-2.15,7.26-1.82c0.85,0.1,1.73,0.09,2.6,0.02
		c-0.87,0.08-1.75,0.09-2.6-0.01C462.51,530.85,460.11,531.47,458.06,533z M441.62,582.02c0.01,1.16,0.03,2.32,0.06,3.48
		C441.66,584.34,441.64,583.18,441.62,582.02z M442.11,596.19c-0.02,1.1-0.12,2.19-0.39,3.27
		C441.98,598.38,442.09,597.29,442.11,596.19z M441.88,592.08C441.88,592.08,441.88,592.08,441.88,592.08
		C441.88,592.08,441.88,592.08,441.88,592.08z M338.52,607.09c0.22-0.06,0.45-0.12,0.67-0.18
		C338.96,606.97,338.74,607.03,338.52,607.09C338.51,607.09,338.51,607.09,338.52,607.09z M334.52,576.45
		c0.01,0.01,0.02,0.02,0.03,0.04C334.55,576.47,334.53,576.46,334.52,576.45z M334.63,576.61c0.01,0.03,0.03,0.05,0.04,0.08
		C334.66,576.66,334.64,576.64,334.63,576.61z M464.87,507.77c-0.44,1-0.67,2.01-0.62,3.05
		C464.19,509.78,464.42,508.76,464.87,507.77z M480.4,568.34c0.25,0.15,0.46,0.34,0.46,0.47
		C480.86,568.68,480.65,568.48,480.4,568.34z M480.87,568.81C480.87,568.81,480.87,568.81,480.87,568.81c0,0.07-0.02,0.14-0.03,0.22
		C480.85,568.95,480.86,568.88,480.87,568.81z M470.38,528.11c0.19,0.28,0.36,0.52,0.51,0.74
		C470.74,528.63,470.56,528.39,470.38,528.11c-0.56-0.83-1.19-1.55-1.96-2.04C469.19,526.56,469.82,527.28,470.38,528.11z
		 M469.31,522.01c0.15,0.1,0.32,0.18,0.51,0.24C469.63,522.19,469.46,522.11,469.31,522.01z M471.46,530.4
		c-0.13,0.14-0.4,0.25-0.83,0.36C471.06,530.65,471.32,530.54,471.46,530.4z M471.26,522.5c-0.58-0.02-1.05-0.1-1.43-0.24
		C470.21,522.4,470.67,522.48,471.26,522.5c0.55-0.17,1.15-0.26,1.67-0.5C472.41,522.24,471.8,522.33,471.26,522.5z M481.25,514.63
		c-0.01-0.87-0.48-1.74-1.4-2.59c-0.93-0.85-2-1.6-3.12-2.16c-2.66-1.33-5.35-2.61-8.1-3.73c-0.65-0.26-1.33-0.27-1.93-0.1
		c0.6-0.17,1.27-0.16,1.92,0.1c2.76,1.12,5.45,2.4,8.11,3.73c1.12,0.56,2.19,1.31,3.12,2.16
		C480.77,512.89,481.24,513.76,481.25,514.63z M468.16,520.67c-0.19-0.34-0.38-0.73-0.59-1.17c-0.18-0.37-0.34-0.74-0.51-1.11
		c0.17,0.37,0.33,0.74,0.51,1.11C467.78,519.94,467.97,520.32,468.16,520.67z M466.47,506.12c0.03-0.01,0.05-0.02,0.08-0.03
		C466.52,506.1,466.5,506.11,466.47,506.12z M465.64,525.46c0.77-0.09,1.43,0.01,2.03,0.24
		C467.07,525.47,466.41,525.37,465.64,525.46c-0.9,0.11-1.81,0.22-2.71,0.37c-2.31,0.4-4.61,0.88-6.95,1.05
		c2.34-0.17,4.64-0.65,6.95-1.05C463.83,525.68,464.74,525.57,465.64,525.46z M348.35,484.75c-0.33-0.16-0.69-0.29-1.05-0.39
		C347.66,484.46,348.02,484.59,348.35,484.75z M434.09,501.06c-2.04,1.27-4.34,1.94-6.84,1.88c-2.94-0.11-5.52-0.95-7.77-2.4
		c2.25,1.44,4.83,2.29,7.77,2.39C429.75,503,432.05,502.33,434.09,501.06z M434.11,501.05c0.02-0.01,0.04-0.03,0.06-0.04
		C434.15,501.02,434.13,501.03,434.11,501.05z M405.96,547.02c-1.41-0.06-2.66-0.68-3.78-1.77
		C403.3,546.34,404.55,546.96,405.96,547.02z M400.39,543.14c-1.46-1.78-3.04-3.45-4.9-4.82
		C397.35,539.69,398.93,541.35,400.39,543.14z M389.08,535.66c-1.74-0.15-3.49,0.14-5.2,0.95c-6.16,2.91-12.19,6.11-18.27,9.21
		c-1.27,0.64-2.59,1.12-3.99,1.02c1.4,0.1,2.72-0.38,3.98-1.02c6.08-3.1,12.11-6.29,18.28-9.21
		C385.59,535.8,387.34,535.51,389.08,535.66z M359.14,545.73c0.07,0.08,0.15,0.15,0.24,0.23
		C359.29,545.88,359.2,545.81,359.14,545.73c-1.08-1.35-1.5-2.77-1.45-4.25C357.64,542.96,358.06,544.38,359.14,545.73z
		 M360.51,546.61c0.03,0.01,0.06,0.02,0.09,0.03C360.56,546.64,360.54,546.62,360.51,546.61z M378.72,503.2
		c-1.74,0.17-3.32-0.17-4.72-0.99C375.4,503.03,376.98,503.37,378.72,503.2z M369.85,498.01c-0.22-0.25-0.46-0.48-0.69-0.71
		C369.39,497.54,369.62,497.76,369.85,498.01c0.24,0.27,0.48,0.55,0.71,0.84C370.32,498.56,370.09,498.28,369.85,498.01z
		 M363.63,492.85c-1.54-1-3.15-1.9-4.79-2.76c-3.28-1.71-6.58-3.39-9.89-5.04c3.31,1.65,6.61,3.33,9.89,5.04
		C360.47,490.95,362.08,491.85,363.63,492.85z M355.64,520.79c1.15,1.15,2.16,2.44,3.23,3.68c2.15,2.48,1.79,5.49,1.43,8.34
		c0,0.04-0.02,0.07-0.02,0.11c0.01-0.04,0.01-0.08,0.02-0.12c0.36-2.85,0.73-5.85-1.43-8.33
		C357.8,523.24,356.79,521.95,355.64,520.79c-1.7-1.7-3.36-3.46-5.13-5.09C352.28,517.33,353.94,519.09,355.64,520.79z
		 M360.02,534.21C360.02,534.21,360.02,534.21,360.02,534.21C360.02,534.21,360.02,534.21,360.02,534.21z M365.68,554.05
		c-0.95-0.31-1.97-0.48-2.98-0.6C363.71,553.57,364.73,553.74,365.68,554.05z M377.7,556.6c0.95-0.11,1.89-0.34,2.83-0.62
		C379.59,556.26,378.65,556.49,377.7,556.6c-0.59,0.07-1.17,0.1-1.75,0.11C376.53,556.7,377.11,556.67,377.7,556.6z M383.52,554.94
		c0.43-0.16,0.86-0.34,1.28-0.53C384.38,554.6,383.95,554.78,383.52,554.94c-0.89,0.33-1.79,0.66-2.69,0.95
		C381.73,555.6,382.63,555.27,383.52,554.94z M389.55,552.37c3.07-0.95,5.85,0.17,8.03,2.25c2.24,2.16,4.94,3.1,7.77,3.97
		c2.84,0.87,5.8,1.51,8.29,3.21c-2.5-1.7-5.45-2.33-8.29-3.21c-2.83-0.87-5.53-1.81-7.77-3.97
		C395.4,552.54,392.61,551.42,389.55,552.37c-0.58,0.19-1.15,0.41-1.72,0.66C388.39,552.78,388.96,552.55,389.55,552.37z
		 M416.03,564.43c0.13,0.47,0.09,0.97-0.12,1.52C416.12,565.4,416.16,564.9,416.03,564.43z M415.86,566.09
		c-0.01,0.03-0.03,0.06-0.05,0.09C415.83,566.15,415.85,566.11,415.86,566.09z M415.83,563.93c0.02,0.04,0.03,0.08,0.05,0.13
		C415.86,564.02,415.85,563.97,415.83,563.93z M415.79,544.61c-0.28,0.07-0.55,0.15-0.83,0.22
		C415.23,544.76,415.51,544.68,415.79,544.61c0.6-0.15,1.21-0.28,1.82-0.42C417,544.33,416.39,544.46,415.79,544.61z M425.67,541.65
		c-0.1,0.07-0.2,0.15-0.29,0.23C425.47,541.8,425.56,541.72,425.67,541.65z M424.05,542.84c-0.15,0.04-0.3,0.09-0.46,0.12
		C423.75,542.92,423.9,542.88,424.05,542.84z M445.25,526.42c-0.51-0.03-1.01-0.06-1.52-0.1
		C444.24,526.36,444.74,526.39,445.25,526.42c1.67,0.1,3.34,0.2,5.01,0.31C448.59,526.63,446.92,526.53,445.25,526.42z
		 M437.78,498.32c2.16-1.71,4.29-3.47,6.51-5.1c0.43-0.32,0.76-0.66,1.04-1.04c-0.28,0.37-0.61,0.72-1.04,1.04
		C442.07,494.85,439.94,496.61,437.78,498.32z M446.53,489.86c-0.13,0.31-0.25,0.6-0.38,0.89
		C446.27,490.46,446.39,490.17,446.53,489.86c0.74-1.77-0.3-2.66-1.18-3.75c-0.07-0.09-0.12-0.19-0.18-0.29
		c0.06,0.1,0.11,0.2,0.18,0.28C446.23,487.2,447.27,488.09,446.53,489.86z M440.77,482.09c-3.43-1.21-6.83-2.48-10.26-3.71
		C433.94,479.61,437.35,480.88,440.77,482.09c1.75,0.62,2.97,1.83,4.03,3.24C443.74,483.93,442.53,482.71,440.77,482.09z
		 M415.6,473.31c-2.24-0.79-3.81-0.95-5.29-0.31C411.79,472.36,413.36,472.52,415.6,473.31c0.95,0.33,1.9,0.65,2.84,0.97
		C417.5,473.97,416.55,473.65,415.6,473.31z M410.17,473.06c0.02-0.01,0.04-0.02,0.06-0.03
		C410.2,473.04,410.18,473.06,410.17,473.06z M406.3,484.27c-1.63-2.85-1.18-6.52,1.17-9.05c0,0,0,0,0,0
		C405.12,477.76,404.67,481.42,406.3,484.27z M409.7,523.63c-1.92-0.34-3.52-1.1-4.8-2.28C406.18,522.53,407.78,523.29,409.7,523.63
		z M379.25,503.16c2.55-0.28,5.04-0.29,7.45,0.12C384.3,502.87,381.8,502.88,379.25,503.16z M371.93,400.4
		c-0.74-0.88-1.4-1.84-2.02-2.82C370.53,398.56,371.19,399.52,371.93,400.4c1.44,1.7,3.14,2.94,4.99,3.89
		C375.06,403.34,373.37,402.11,371.93,400.4z M351.69,375.62c-0.31-0.12-0.62-0.23-0.93-0.34
		C351.07,375.39,351.38,375.5,351.69,375.62c1.25,0.46,2.41,1.05,3.51,1.73C354.1,376.67,352.94,376.09,351.69,375.62z
		 M345.68,374.22c-0.46,0-0.87,0.08-1.24,0.22C344.81,374.3,345.21,374.22,345.68,374.22c0.08,0,0.17,0.01,0.25,0.01
		C345.84,374.23,345.76,374.22,345.68,374.22z M342.49,375.83c-1.56,1.54-3.04,3.18-4.57,4.76
		C339.44,379.01,340.92,377.37,342.49,375.83C342.48,375.83,342.49,375.83,342.49,375.83C342.49,375.83,342.49,375.83,342.49,375.83
		z M337.01,381.4c0.12-0.06,0.26-0.16,0.42-0.31C337.26,381.24,337.13,381.34,337.01,381.4z M335.99,380.49
		c-2.01-4.25-3.99-8.52-5.99-12.78c0,0,0,0,0,0C332,371.97,333.98,376.24,335.99,380.49c0.22,0.47,0.39,0.76,0.56,0.9
		C336.38,381.25,336.21,380.96,335.99,380.49z M324.89,363.46c-1.53-0.12-2.86,0.16-3.97,0.8
		C322.03,363.62,323.35,363.33,324.89,363.46c1.56,0.12,2.67,0.8,3.53,1.76C327.56,364.26,326.45,363.59,324.89,363.46z
		 M328.64,365.45c0.08,0.09,0.15,0.2,0.22,0.3C328.78,365.65,328.71,365.55,328.64,365.45z M329.14,366.15
		c0.08,0.13,0.16,0.27,0.24,0.41C329.3,366.42,329.23,366.28,329.14,366.15z M329.59,366.9c0.11,0.21,0.22,0.42,0.32,0.64
		C329.81,367.33,329.7,367.11,329.59,366.9z M316.48,376.04c-0.04-0.38-0.06-0.76-0.07-1.14
		C316.42,375.28,316.45,375.66,316.48,376.04c0.33,3.3,0.22,6.61-2.15,9.28c-0.13,0.15-0.28,0.3-0.43,0.44
		c0.15-0.15,0.3-0.3,0.43-0.45C316.7,382.65,316.81,379.34,316.48,376.04z M308.65,488.59c1.87-2.41,4.43-3.77,7.53-4.16
		c0.84-0.11,1.69-0.15,2.53-0.19c-0.85,0.04-1.7,0.09-2.54,0.19C313.07,484.82,310.53,486.18,308.65,488.59z M310.16,387.9
		c0.47-0.2,0.94-0.39,1.44-0.56c0,0,0,0,0.01,0c0,0-0.01,0-0.01,0C311.1,387.51,310.63,387.7,310.16,387.9z M337.94,510.34
		c0.96-0.01,1.89,0.06,2.8,0.2C339.83,510.39,338.9,510.33,337.94,510.34c-0.88,0.01-1.77,0.01-2.66,0.01
		C336.17,510.35,337.06,510.35,337.94,510.34z M348.67,514.1c0.51,0.42,1,0.85,1.49,1.29C349.67,514.95,349.18,514.52,348.67,514.1
		c-0.43-0.35-0.88-0.68-1.33-0.98C347.79,513.43,348.24,513.75,348.67,514.1z M352.76,568.89c0.43,0.01,0.86,0,1.27-0.06
		C353.61,568.89,353.18,568.9,352.76,568.89c-3.66-0.05-7.03,0.87-9.96,3.1c-0.57,0.44-1.13,0.88-1.7,1.34
		c0.56-0.46,1.13-0.9,1.7-1.34C345.73,569.76,349.1,568.84,352.76,568.89z M369.26,579.39c0.86-0.27,1.73-0.53,2.59-0.77
		C370.98,578.86,370.12,579.11,369.26,579.39c-4.53,1.45-9.14,2.3-13.84,2.31C360.11,581.69,364.73,580.83,369.26,579.39z
		 M398.99,575.46c-1.13,0.03-2.25,0.07-3.38,0.09C396.74,575.53,397.87,575.49,398.99,575.46z M414.52,568.19
		c-2.57,3.55-5.83,6.11-10.18,6.92C408.69,574.3,411.95,571.74,414.52,568.19z M404.27,575.13c-0.07,0.01-0.14,0.02-0.21,0.03
		C404.13,575.14,404.2,575.14,404.27,575.13z M429.6,540.54c-0.85,0.11-1.7,0.24-2.51,0.48C427.9,540.78,428.75,540.65,429.6,540.54
		z M450.33,538.4c1.36-0.38,2.61-0.96,3.76-1.78C452.95,537.44,451.69,538.03,450.33,538.4z M449.42,571.91c0,0-0.01,0-0.01,0
		C449.41,571.91,449.41,571.91,449.42,571.91z M449.27,571.95c-0.5,0.15-1.01,0.27-1.55,0.34
		C448.26,572.22,448.78,572.1,449.27,571.95z M570.98,515.49c1.38,2.31,3.13,4.31,5.03,6.17
		C574.11,519.8,572.35,517.8,570.98,515.49c-0.57-0.95-1.08-1.94-1.54-2.96C569.9,513.55,570.41,514.54,570.98,515.49z
		 M586.93,528.55c-1.28-0.26-2.55-0.7-3.77-1.31C584.38,527.85,585.64,528.29,586.93,528.55z M590.77,518.82
		c0.61,1.45,1.02,2.98,1.05,4.61c0.02,1.1,0.02,2.2,0,3.3c-0.02,0.89-0.03,1.4-0.25,1.69c0.21-0.29,0.23-0.8,0.24-1.7
		c0.02-1.1,0.02-2.2,0-3.3C591.79,521.8,591.38,520.28,590.77,518.82z M265.24,221.21c-0.35,0.31-0.66,0.58-1.06,0.92
		c-0.49-1.28-0.94-2.47-1.39-3.65c0.06-0.03,0.12-0.07,0.17-0.1C263.7,219.29,264.43,220.2,265.24,221.21z M256.11,394.98
		c0.82-1.04,1.59-2.14,2.99-2.46C257.69,392.84,256.92,393.94,256.11,394.98c-3.09,3.97-3.37,10.09-0.54,14.25
		c0.1,0.14,0.2,0.27,0.3,0.41c-0.1-0.14-0.21-0.27-0.3-0.41C252.74,405.07,253.02,398.95,256.11,394.98z M260.19,415.08
		c1.38,1.55,2.83,3.05,4.31,4.52c0.48,0.47,0.99,0.88,1.54,1.23c-0.55-0.35-1.07-0.76-1.55-1.22
		C263.02,418.13,261.57,416.63,260.19,415.08z M278.38,420.12c0.13-0.1,0.27-0.2,0.4-0.31c0,0,0,0,0,0
		C278.65,419.92,278.51,420.02,278.38,420.12z M277.85,420.5c0.05-0.03,0.11-0.06,0.16-0.1C277.95,420.44,277.9,420.47,277.85,420.5
		z M285.57,414.4c-1.28,0.56-2.41,1.53-3.52,2.43c-1.13,0.91-2.13,2-3.25,2.96c1.11-0.95,2.11-2.04,3.25-2.96
		C283.16,415.93,284.28,414.96,285.57,414.4c2.51-1.11,4.71-2.57,6.59-4.37C290.27,411.83,288.08,413.29,285.57,414.4z
		 M299.61,398.99c0.89-1.49,1.78-2.97,2.74-4.42c0.38-0.57,0.79-1.11,1.22-1.63c-0.42,0.52-0.83,1.05-1.21,1.63
		C301.4,396.01,300.5,397.49,299.61,398.99z M306.63,492.58c-0.48,1.85-0.45,3.79-0.04,5.8c0.18,0.91,0.45,1.78,0.81,2.58
		c-0.36-0.8-0.63-1.67-0.81-2.58C306.19,496.37,306.15,494.43,306.63,492.58z M315.43,507.74c3.13,1.59,6.44,2.59,10.03,2.6
		c0.71,0,1.41,0,2.12,0h-2.12C321.87,510.33,318.56,509.33,315.43,507.74z M330.95,579.46c1.07-0.43,2.09-1.02,3.08-1.71
		c0.11-0.08,0.21-0.15,0.29-0.22c-0.08,0.07-0.18,0.15-0.29,0.23C333.03,578.45,332.02,579.04,330.95,579.46z M339.15,574.93
		c-0.72,0.6-1.45,1.2-2.21,1.83c0.24,0.17,0.39,0.29,0.51,0.38c-0.12-0.09-0.27-0.2-0.51-0.38
		C337.7,576.14,338.43,575.53,339.15,574.93z M348.65,605.11c-1.61-0.01-3.17,0.23-4.71,0.57
		C345.48,605.34,347.04,605.11,348.65,605.11c5.31,0.02,10.62-0.16,15.93-0.17C359.27,604.95,353.96,605.13,348.65,605.11z
		 M373.09,605.69c-1.89-0.42-3.85-0.65-5.8-0.72C369.23,605.04,371.19,605.27,373.09,605.69c2.08,0.46,3.77,1.51,4.62,3.37
		C376.85,607.2,375.17,606.15,373.09,605.69z M396.7,609.31c-0.52,0.14-1.01,0.41-1.49,0.7C395.7,609.71,396.18,609.45,396.7,609.31
		z M403.53,608.04c-0.5,0.06-1,0.14-1.51,0.21C402.52,608.18,403.02,608.11,403.53,608.04c3.11-0.4,6.23-0.66,9.35-0.95
		c0.73-0.07,1.47-0.12,2.2-0.18c-0.73,0.06-1.46,0.11-2.2,0.18C409.76,607.38,406.63,607.64,403.53,608.04z M397.68,609.07
		c0.63-0.15,1.27-0.28,1.91-0.4C398.95,608.79,398.32,608.93,397.68,609.07z M430.21,605.64c-0.56,0.05-1.11,0.1-1.67,0.14
		C429.1,605.74,429.65,605.69,430.21,605.64c1.33-0.11,2.66-0.22,3.99-0.34C432.87,605.42,431.54,605.53,430.21,605.64z
		 M442.13,575.47c0.32-0.75,0.82-1.42,1.68-1.91c1.07-0.61,2.32-1.13,3.53-1.23c-1.21,0.1-2.45,0.62-3.52,1.23
		C442.96,574.05,442.45,574.71,442.13,575.47z M454.3,570.36c-0.05,0-0.1,0.01-0.14,0.01C454.2,570.37,454.25,570.36,454.3,570.36
		c0.91,0.07,1.82,0.24,2.69,0.49c0.27,0.08,0.55,0.2,0.81,0.35c-0.26-0.15-0.54-0.27-0.81-0.35
		C456.11,570.6,455.2,570.43,454.3,570.36z M461.23,574.02c1.32,0.46,2.69,0.28,3.97-0.36
		C463.92,574.31,462.54,574.49,461.23,574.02z M477.8,573.44c-0.53-0.79-0.39-1.36,0.37-1.82
		C477.41,572.08,477.27,572.65,477.8,573.44c0.42,0.62,0.75,1.31,1.12,1.97c0.28,0.51,0.6,0.98,0.95,1.4
		c-0.36-0.42-0.68-0.88-0.96-1.4C478.56,574.75,478.23,574.06,477.8,573.44z M492.48,581.39c-0.8-0.19-1.59-0.39-2.38-0.6
		C490.89,581,491.69,581.21,492.48,581.39c1.36,0.31,2.72,0.44,4.07,0.4C495.2,581.83,493.84,581.71,492.48,581.39z M508.57,579.7
		c1.33,0.26,2.63,0.79,3.95,1.58c2.08,1.26,4.35,1.98,6.69,2.44c-2.34-0.46-4.61-1.18-6.69-2.44
		C511.2,580.49,509.9,579.96,508.57,579.7z M532.22,585.23c-2.56-0.46-5.18-0.59-7.78-0.82
		C527.04,584.64,529.66,584.77,532.22,585.23c2.36,0.43,4.59,1.6,6.93,2.19c0.67,0.17,1.33,0.3,2,0.42c-0.67-0.12-1.33-0.25-2-0.42
		C536.8,586.83,534.58,585.66,532.22,585.23z M557.35,586.81c1.44-0.21,2.89-0.31,4.36-0.13c0.46,0.06,0.93,0.13,1.4,0.21
		c-0.47-0.08-0.94-0.15-1.4-0.2C560.24,586.51,558.79,586.6,557.35,586.81z M581.65,590.41c-0.56,0.02-1.11,0.06-1.67,0.1
		C580.54,590.47,581.09,590.43,581.65,590.41c1.06-0.04,2.11-0.08,3.16-0.14c3.61-0.22,7.21-0.45,10.81-0.66
		c-3.6,0.21-7.21,0.44-10.81,0.66C583.75,590.33,582.7,590.37,581.65,590.41z M596.87,606.06v0.13
		C596.87,606.14,596.86,606.1,596.87,606.06c0.02-1.58,0.15-3.04-1.41-4.26c-1.26-0.98-0.98-2.94,0.19-4.2
		c0.39-0.42,0.79-0.83,1.19-1.24c-0.4,0.41-0.8,0.82-1.19,1.24c-1.17,1.25-1.45,3.21-0.19,4.19
		C597.02,603.02,596.89,604.48,596.87,606.06z M639.82,331.24c0.1-0.34,0.23-0.61,0.39-0.84
		C640.05,330.63,639.91,330.9,639.82,331.24c-1.13,4.02-0.83,8.01-0.03,11.98C638.98,339.24,638.69,335.25,639.82,331.24z
		 M640.42,377.09c0.12,1.55,0.23,3.1,0.26,4.65C640.65,380.2,640.54,378.65,640.42,377.09z M640.09,367.73
		c0.02,2.39,0.05,4.78,0.19,7.16C640.14,372.51,640.11,370.12,640.09,367.73z M629.99,544.78c-0.34-0.43-0.7-0.86-1.06-1.29
		C629.28,543.92,629.64,544.34,629.99,544.78c0.81,1.02,1.64,2.03,2.25,3.16C631.63,546.81,630.79,545.8,629.99,544.78z
		 M625.9,537.89c-0.04-0.34-0.06-0.68-0.08-1.03C625.83,537.21,625.86,537.55,625.9,537.89c0.15,1.16,0.58,2.16,1.15,3.09
		C626.48,540.05,626.04,539.05,625.9,537.89z M634.57,438.35c0.08,0.2,0.17,0.41,0.26,0.61
		C634.74,438.76,634.65,438.55,634.57,438.35c-0.15-0.36-0.25-0.72-0.33-1.09C634.31,437.62,634.42,437.98,634.57,438.35z
		 M634.33,433.67C634.33,433.67,634.33,433.66,634.33,433.67C634.33,433.66,634.33,433.67,634.33,433.67z M635.3,493.17
		c-0.03,0.68-0.03,1.37-0.01,2.06C635.27,494.54,635.27,493.86,635.3,493.17z M636.61,485.14c0,0.04,0.01,0.07,0,0.11
		c0,0.04-0.01,0.08-0.02,0.11c0.01-0.04,0.02-0.08,0.02-0.11C636.62,485.21,636.61,485.18,636.61,485.14z M636.25,482.13
		c0,0.05,0,0.09,0.01,0.14C636.26,482.23,636.26,482.18,636.25,482.13z M636.24,477.48c0-4.49,0-8.98,0-13.47
		C636.23,468.5,636.24,472.99,636.24,477.48z M635.89,444.78c0.08,0.8,0.15,1.61,0.2,2.41
		C636.04,446.38,635.97,445.58,635.89,444.78z M636.12,447.55C636.12,447.55,636.12,447.55,636.12,447.55
		C636.12,447.55,636.12,447.55,636.12,447.55z M634.08,568.48c0.01,0.31,0.05,0.62,0.1,0.93
		C634.13,569.1,634.09,568.79,634.08,568.48c-0.05-1.68-0.08-3.37-0.1-5.06C634.01,565.1,634.03,566.79,634.08,568.48z
		 M636.12,513.06c-0.02,0.16-0.14,0.31-0.29,0.45C635.97,513.37,636.1,513.22,636.12,513.06c0.17-1.29,0.4-2.6,0.49-3.89
		C636.52,510.47,636.29,511.77,636.12,513.06z M636.63,507.55c-0.05-0.78-0.11-1.56-0.19-2.33
		C636.51,506,636.58,506.77,636.63,507.55c0.02,0.3,0.01,0.6,0,0.89C636.63,508.14,636.65,507.85,636.63,507.55z M636.32,401.8
		c-0.04,0.64-0.06,1.27-0.05,1.91c0.02,2.32,0,4.64-0.05,6.96c0.04-2.32,0.07-4.64,0.04-6.96
		C636.26,403.07,636.29,402.44,636.32,401.8z M635.77,421.88c-0.09,1.51-0.18,3.03-0.29,4.54c-0.12,1.64-0.32,3.29-0.64,4.91
		c0.31-1.62,0.51-3.27,0.63-4.91C635.59,424.91,635.68,423.39,635.77,421.88z M634.82,431.45c0.01-0.03,0.01-0.06,0.02-0.08
		C634.83,431.39,634.82,431.42,634.82,431.45z M633.72,515.99c-0.08,0.09-0.15,0.19-0.23,0.28c-0.07,0.08-0.15,0.16-0.22,0.24
		c0.07-0.08,0.14-0.16,0.22-0.23C633.57,516.18,633.64,516.08,633.72,515.99z M633.44,552.69c-0.06-0.43-0.12-0.85-0.2-1.28
		C633.32,551.83,633.38,552.26,633.44,552.69z M629.38,520.23c-0.03,0.03-0.07,0.06-0.1,0.1
		C629.31,520.29,629.35,520.26,629.38,520.23z M629.24,520.39c-0.21,0.26-0.37,0.56-0.46,0.95c-0.13,0.6-0.27,1.2-0.41,1.81
		c0.14-0.6,0.28-1.2,0.41-1.81C628.86,520.95,629.03,520.65,629.24,520.39z M622.93,605.47c1.05-0.76,1.97-1.65,2.78-2.67
		C624.9,603.82,623.98,604.71,622.93,605.47z M627.79,599.65c-0.08,0.24-0.22,0.46-0.36,0.67
		C627.57,600.11,627.71,599.89,627.79,599.65c0.33-1.04,0.81-1.78,1.49-2.24C628.6,597.87,628.13,598.62,627.79,599.65z
		 M635.36,595.48c-0.85,0.5-1.8,1.15-2.71,1.34C633.55,596.64,634.51,595.98,635.36,595.48c0.37-0.21,0.59-0.96,0.6-1.47
		c0.04-1.48,0.07-2.96,0.1-4.44c-0.03,1.48-0.06,2.96-0.1,4.45C635.95,594.52,635.73,595.27,635.36,595.48z M632.29,596.87
		c0.04,0,0.09,0,0.13,0C632.38,596.88,632.33,596.87,632.29,596.87z M637.53,394c-0.17,0.14-0.3,0.36-0.39,0.6
		C637.23,394.36,637.36,394.14,637.53,394c0.95-0.76,1.51-1.68,1.88-2.67C639.04,392.33,638.48,393.24,637.53,394z M640.31,353.44
		c-0.02,0.03-0.03,0.07-0.04,0.1C640.28,353.5,640.29,353.46,640.31,353.44z M641.28,329.54c0.49-0.21,1.05-0.31,1.63-0.39
		C642.33,329.22,641.77,329.33,641.28,329.54z M472.57,333.94c-0.07-0.38-0.24-0.77-0.21-1.14c0.76-7.8,1.54-15.61,2.33-23.41
		c0.02-0.23,0.13-0.45,0.2-0.67c1.24-4.23,3.29-8.04,6.08-11.45c4.92-6.01,11.56-9.04,18.89-10.8c4.91-1.18,9.89-1.87,14.95-1.69
		c9.14,0.33,17.34,3.1,23.49,10.17c6.07,6.99,11.06,14.67,13.26,23.86c1.6,6.67,0.72,13.11-1.49,19.52
		c-4.87,14.15-14.95,22.29-29.24,25.5c-5.47,1.23-10.95,0.55-16.32-1.06c-8-2.4-15.75-5.34-22.38-10.61
		c-3.5-2.78-6.81-5.74-7.85-10.4c-0.42-1.87-0.84-3.74-1.25-5.61C472.87,335.42,472.72,334.68,472.57,333.94z"/>
</g>
</svg>
