<?xml version="1.0" encoding="utf-8"?>
<!-- Generator: Adobe Illustrator 24.3.0, SVG Export Plug-In . SVG Version: 6.00 Build 0)  -->
<svg version="1.1" id="woocommerce-logo" xmlns="http://www.w3.org/2000/svg" xmlns:xlink="http://www.w3.org/1999/xlink" x="0px"
	 y="0px" viewBox="0 0 864 864" style="enable-background:new 0 0 864 864;" xml:space="preserve">
<style type="text/css">
	.st0{fill:#717275;}
</style>
<g id="woocommerce-logo-simple">
	<path class="st0" d="M470.45,337.95c1.45,7.89,5.97,13.65,13.01,17.4c4.31,2.29,8.69,4.45,13.08,6.58
		c2.86,1.39,5.74,2.79,8.72,3.86c4.14,1.48,8.51,1.66,12.84,1.25c3.94-0.37,7.78-1.39,11.49-2.82c5.23-2.03,10.11-4.67,14.32-8.42
		c6.24-5.55,9.75-12.57,10.72-20.82c0.63-5.43,0.28-10.84-0.96-16.19c-3.49-15.16-11.83-26.43-26.16-32.98
		c-6.83-3.12-13.97-4.82-21.44-3.56c-10.55,1.78-19.54,6.69-26.88,14.51c-3.96,4.21-6.36,9.3-7.81,14.83
		c-1.37,5.21-1.88,10.53-1.7,15.92c-0.1,0.01-0.2,0.02-0.3,0.02C469.72,331.01,469.82,334.53,470.45,337.95z M474.69,309.39
		c0.02-0.23,0.13-0.45,0.2-0.67c1.24-4.23,3.29-8.04,6.08-11.45c4.92-6.01,11.56-9.04,18.89-10.8c4.91-1.18,9.89-1.87,14.95-1.69
		c8.63,0.32,16.42,2.8,22.44,9.04c1.59,1.62,3.04,3.4,4.45,5.22c3.89,5.03,7.04,10.45,9.09,16.5c2.88,8.49,1.96,16.76-1.27,24.92
		c-1.71,4.31-4.01,8.27-7.14,11.7c-4.7,5.15-10.49,8.62-17.13,10.56c-1.4,0.41-2.84,0.77-4.28,1.08c-0.05,0.01-0.09,0.02-0.14,0.03
		c-0.02,0.01-0.05,0.01-0.07,0.01c-0.56,0.12-1.13,0.21-1.7,0.31c-0.1,0.02-0.21,0.04-0.31,0.05c-1.04,0.17-2.09,0.31-3.14,0.39
		c-3.38,0.26-6.78-0.47-10.05-1.43c-5.47-1.61-10.88-3.44-15.93-6.16c-0.6-0.32-1.19-0.66-1.78-1c-0.43-0.25-0.85-0.5-1.28-0.76
		c-0.1-0.06-0.2-0.13-0.3-0.19c-0.85-0.53-1.68-1.09-2.5-1.68c-0.23-0.16-0.45-0.33-0.67-0.5c-0.33-0.24-0.66-0.47-0.98-0.72
		c-3.5-2.78-6.81-5.74-7.85-10.4c-0.42-1.87-0.84-3.74-1.25-5.61c-0.16-0.74-0.31-1.48-0.46-2.22c-0.07-0.38-0.24-0.77-0.21-1.14
		C473.12,324.99,473.9,317.19,474.69,309.39z"/>
	<path class="st0" d="M230.83,345.03c0.22,6.58,0.21,13.18,0.27,19.76c0.09,9.75,0.16,19.49,0.24,29.24
		c0.05,5.91,0.1,11.82,0.17,17.73c0.03,2.15,0.11,4.31,0.17,6.46c-0.03,0.28-0.09,0.55-0.09,0.83c-0.1,9.22-0.21,18.43-0.3,27.65
		c-0.07,7.46-0.1,14.92-0.15,22.38c0.12,5.38,0.24,10.75,0.36,16.13c0.02-0.08,0.04-0.15,0.05-0.23c0.32-3.61,0.71-7.23,0.9-10.85
		c0.09-1.68,0.75-3.4-0.08-5.07c0.13-2.31,0.36-4.62,0.37-6.92c0.03-9.54-0.01-19.08-0.04-28.62c0-1.51-0.04-3.02-0.06-4.53
		c-0.11-3.01-0.23-6.01-0.33-9.02c-0.02-0.59-0.01-1.19-0.01-1.78c0.06-1.16,0.18-2.31,0.19-3.46c0.09-14.74,0.2-29.47,0.23-44.2
		c0.01-3.95-0.22-7.89-0.41-11.83c-0.22-4.82-0.51-9.64-0.78-14.45c0.03-3.83,0.12-7.65,0.05-11.48c-0.05-2.74-0.29-5.48-0.48-8.22
		c-0.13-2.06-0.32-4.12-0.47-6.18c-0.08-1.12-0.13-2.24-0.19-3.35c-0.04-0.01-0.08-0.02-0.12-0.04c-0.46,0.85-0.91,1.71-1.39,2.56
		c-0.09,0.15-0.3,0.23-0.46,0.35c0,0.24,0,0.48,0,0.72c0.16,0.29,0.44,0.56,0.47,0.86c0.32,3.82,0.62,7.64,0.91,11.46
		C230.19,335.63,230.67,340.32,230.83,345.03z"/>
	<path class="st0" d="M647.27,233.17c-0.08-0.66-0.21-1.32-0.23-1.99c-0.33-9.78-0.62-19.56-1.01-29.34c-0.06-1.4-0.5-2.84-1-4.17
		c-0.93-2.52-2.88-4-5.54-4.08c-4.87-0.16-9.74-0.12-14.62-0.12c-2.92,0-5.84,0.07-8.75,0.14c-8.87,0.23-17.73,0.56-26.6,0.7
		c-8.75,0.14-17.51,0.29-26.25,0.08c-10.9-0.27-21.79-0.95-32.68-1.38c-7.86-0.31-15.73-0.5-23.6-0.73
		c-2.16-0.06-4.31-0.09-6.47-0.16c-0.2-0.01-0.4-0.15-0.61-0.23c-1.68,0-3.36,0-5.04,0c-0.37,0.08-0.74,0.23-1.11,0.23
		c-11.02,0.01-22.03,0.01-33.05,0c-0.37,0-0.75-0.15-1.12-0.23c-0.16,0-0.32,0-0.48,0c-0.25,0.08-0.51,0.23-0.76,0.23
		c-7.92,0-15.83-0.01-23.75-0.03c-9.6-0.01-19.2-0.01-28.8-0.02c-5.39,0.11-10.79,0.2-16.18,0.34c-11.14,0.3-22.29,0.65-33.43,0.95
		c-4.43,0.12-8.87,0.19-13.31,0.24c-9.31,0.1-18.63,0.16-27.95,0.25c-7.24,0.07-14.47,0.06-21.71,0.26
		c-10.7,0.29-21.4,0.74-32.1,1.12c-4.19,0.15-8.39,0.27-12.58,0.41c-3.82,0.12-7.44-0.54-10.9-2.27c-2.95-1.47-5.27-0.38-6.25,2.78
		c-0.38,1.21-0.66,2.49-0.72,3.75c-0.33,7.62-0.67,15.25-0.83,22.88c-0.18,8.87-0.13,17.75-0.28,26.63
		c-0.12,6.91-0.39,13.82-0.59,20.73c-0.01,0.32,0.01,0.64,0.02,0.96c-0.02,0.28-0.07,0.55-0.07,0.83
		c-0.07,5.76-0.14,11.53-0.22,17.29c-0.01,0.36-0.15,0.72-0.23,1.08c0,1.76,0,3.52,0,5.28c0.55,0.76,0.76,1.87,1.9,2.14
		c0.01-0.68,0.04-1.35,0.04-2.02c-0.01-6.82-0.01-13.64-0.03-20.47c0-1.15-0.07-2.3-0.12-3.46c0.05-2.39,0.11-4.79,0.13-7.18
		c0.03-3.72,0-7.44,0.04-11.16c0.06-5.64,0.02-11.28,0.26-16.9c0.35-7.98,0.94-15.94,1.39-23.91c0.19-3.35,0.34-6.7,0.46-10.05
		c0.06-1.62,0.03-3.25,0.02-4.88c-0.02-1.6,0.83-2.6,2.41-2.41c1.49,0.18,3.03,0.49,4.38,1.12c4.84,2.27,9.9,2.1,15.03,1.79
		c3.99-0.24,7.99-0.26,11.98-0.39c7.31-0.24,14.61-0.5,21.92-0.71c6.27-0.19,12.54-0.34,18.81-0.49c7.15-0.17,14.3-0.32,21.45-0.48
		c3.63-0.08,7.27-0.17,10.9-0.24c8.27-0.16,16.54-0.32,24.81-0.48c4.68-0.09,9.35-0.19,14.03-0.23c11.71-0.1,23.43-0.13,35.14-0.26
		c6.47-0.08,12.94-0.3,19.41-0.48c5.19-0.14,10.38-0.32,15.57-0.47c5.91-0.17,11.83-0.2,17.73-0.52c4.49-0.24,8.93,0.1,13.38,0.57
		c7.02,0.3,14.04,0.61,21.06,0.9c4.75,0.2,9.49,0.39,14.24,0.57c6.83,0.26,13.65,0.6,20.48,0.72c12.14,0.21,24.29,0.36,36.44,0.37
		c8.03,0,16.05-0.32,24.08-0.44c10.39-0.16,20.78-0.36,31.17-0.35c5.22,0.01,10.45,0.44,15.67,0.64c0.55,0.03,0.8,0.23,0.91,0.55
		c0.23,0.26,0.31,0.64,0.33,1.15c0.15,4.23,0.32,8.46,0.53,12.69c0.45,9.1,1.14,18.19,1.32,27.29c0.21,10.75,0.1,21.51-0.08,32.27
		c-0.14,8.27-0.57,16.53-0.93,24.79c-0.48,10.93-1.16,21.86-1.46,32.8c-0.14,5.26,0.47,10.53,0.61,15.8
		c0.29,10.99,0.47,21.97,0.73,32.96c0.14,5.91,0.36,11.82,0.54,17.73c-0.08,0.47-0.19,0.94-0.24,1.41
		c-0.63,5.66-1.22,11.33-1.88,16.99c-0.44,3.8-0.97,7.58-1.46,11.37c-0.03,0.72-0.09,1.43-0.08,2.15
		c0.07,10.37,0.16,20.75,0.23,31.12c0.02,3.47-0.02,6.95,0.01,10.42c0.03,3.51,0.1,7.02,0.15,10.53c-0.09,2.95-0.22,5.9-0.26,8.86
		c-0.12,8.99-0.25,17.99-0.29,26.98c-0.06,11.12-0.08,22.24-0.01,33.35c0.02,2.86,0.43,5.72,0.66,8.58
		c0.08,0.95,0.26,1.91,0.25,2.86c-0.01,1.07-0.04,2.14-0.05,3.21c0.03,1.54,0.03,3.07,0.01,4.61c-0.01,0.81-0.06,1.62-0.12,2.43
		c-0.02,1.26-0.05,2.52-0.05,3.78c-0.05,9.24-0.05,18.48-0.03,27.72c0,1.27,0.15,2.55,0.34,3.81c0.26,1.7,0.01,2.08-1.66,2.51
		c-7.13,1.84-14.46,2.19-21.74,2.49c-0.47,0.03-0.93,0.07-1.4,0.1c0.02-0.03,0.05-0.06,0.07-0.09c0,0,0,0,0,0
		c-0.02,0.03-0.04,0.06-0.07,0.09c-0.36-0.04-0.72-0.09-1.07-0.13c-3.17-0.17-6.37-0.82-9.55-1.17c-3.85-0.42-7.69-1.16-11.54-1.21
		c-5.58-0.07-11.17,0.43-16.76,0.54c-9.12,0.18-18.18,1.09-27.24,2.08c-7.55,0.82-15.13,1.22-22.73,0.95
		c-0.86-0.03-1.73-0.06-2.59-0.09c-1.23-0.02-2.45-0.05-3.68-0.08c-3.88-0.11-7.76-0.27-11.64-0.44c-3.65-0.12-7.31-0.24-10.96-0.34
		c-6.47-0.17-12.95-0.22-19.42-0.25c-5.32-0.02-10.63,0.03-15.95,0.11c-8.31,0.13-16.62,0.31-24.93,0.47
		c-8.11,0.16-16.22,0.35-24.33,0.47c-6.64,0.1-13.27,0.17-19.91,0.22c-0.46,0.01-0.91,0.02-1.37,0.02c0,0,0,0-0.01,0
		c-0.31,0-0.61-0.01-0.92-0.01c-1.43,0.01-2.87,0.03-4.3,0.03c-4.11,0.01-8.24-0.04-12.34-0.31c-7.77-0.52-15.53-1.21-23.3-1.84
		c-5.41-0.44-10.82-0.94-16.24-1.34c-5.42-0.41-10.84-1.01-16.26-1.02c-1.75-0.01-3.51,0.03-5.26,0.07
		c-3.03,0.16-6.07,0.25-9.11,0.32c-2.76,0.11-5.51,0.2-8.27,0.23c-7.15,0.06-14.31-0.02-21.45-0.34
		c-11.65-0.52-23.29-1.28-34.94-1.95c-0.82-0.05-1.47-0.19-2.02-0.42c-1.26-0.45-1.97-1.32-2.21-2.74c-0.41-2.43-0.8-4.88-1.08-7.33
		c-0.62-5.51-1.2-11.03-1.76-16.55c-0.56-5.6-1.13-11.2-1.58-16.81c-0.36-4.46-0.6-8.93-0.78-13.4c-0.2-4.98-0.34-9.97-0.36-14.96
		c-0.01-3.51,0.28-7.02,0.34-10.54c0.08-4.17,0.06-8.34,0.08-12.51c-0.96,0.59-1.31,1.4-1.44,2.33c-0.07,0.51-0.07,1.03-0.1,1.55
		c-0.45,7.41-1.2,14.83-1.25,22.24c-0.04,6.82,0.62,13.64,1.09,20.45c0.67,9.52,1.28,19.05,2.25,28.54
		c0.61,5.99,1.8,11.92,2.82,17.86c0.42,2.46,2.4,4.22,4.62,4.36c8.77,0.52,17.54,1.11,26.32,1.5c11.17,0.49,22.35,0.88,33.54,1.15
		c10.63,0.26,21.26,0.22,31.89,0.47c8.43,0.19,16.85,0.6,25.27,0.95c6.07,0.25,12.13,0.56,18.2,0.84c9.69,0.45,19.39,0.9,29.08,1.37
		c0.97,0.05,1.94,0.18,2.91,0.27c1.28,0,2.56,0,3.84,0c10.56,0,21.12,0,31.68,0c1.68,0,3.36,0,5.04,0c1.16-0.09,2.33-0.25,3.49-0.26
		c12.07-0.18,24.14-0.41,36.21-0.46c7.39-0.03,14.78,0.25,22.18,0.33c7.11,0.08,14.24,0.33,21.34,0.07
		c10.41-0.38,20.82-1.06,31.21-1.78c8.68-0.61,17.34-1.69,26.03-2.11c4.14-0.2,8.36,0.5,12.51,1.03c7.88,1,15.73,2.32,23.71,2.21
		c5.88-0.08,11.57-1.33,17.19-2.92c1.7-0.48,2.57-1.82,2.92-3.5c0.62-2.95,0.78-5.91,0.62-8.93c-0.19-3.55-0.11-7.11-0.17-10.67
		c-0.15-10.03-0.32-20.06-0.48-30.09c-0.08-4.71-0.16-9.43-0.24-14.14c-0.16-10.15-0.32-20.3-0.48-30.45
		c-0.08-5.19-0.14-10.39-0.25-15.58c-0.13-5.87-0.3-11.74-0.45-17.61c0.15-5.38,0.33-10.77,0.45-16.15
		c0.12-5.75,0.2-11.49,0.27-17.24c0.09-6.95,0.15-13.89,0.22-20.84c0.09-0.91,0.21-1.82,0.28-2.73c0.39-5,0.79-10,1.14-15
		c0.28-3.93,0.5-7.86,0.75-11.8c-0.05-6.95-0.11-13.9-0.16-20.86c-0.02-2.68-0.02-5.36-0.02-8.03c0.02-10.91-0.02-21.83,0.07-32.74
		c0.09-11.5,0.3-23.01,0.47-34.51c0.13-8.59,0.28-17.17,0.42-25.76c-0.01-5.72-0.02-11.43-0.03-17.15
		c-0.01-3.4-0.02-6.79-0.01-10.19c0-0.41,0.15-0.82,0.23-1.23C647.27,240.53,647.27,236.85,647.27,233.17z"/>
	<path class="st0" d="M440.11,224.64c-2.91,0-5.82,0.22-8.73,0.37c-4.67,0.25-9.33,0.51-13.99,0.8c-7.29,0.45-14.58,0.93-21.87,1.38
		c-6.57,0.4-13.15,0.97-19.73,1.11c-10.15,0.21-20.31,0.11-30.47,0.16c-0.87,0-1.75,0.13-2.62,0.2v0c-0.67-0.08-1.34-0.22-2.02-0.24
		c-6.49-0.16-12.99-0.31-19.48-0.45c-4.1-0.09-8.21-0.17-12.31-0.24c-3.14-0.05-6.28-0.09-9.43-0.13c-0.39-0.05-0.79-0.13-1.18-0.14
		c-10.09-0.41-20.17-0.79-30.26-1.23c-1.05-0.05-1.43,0.36-1.59,1.27c-0.83,4.67-1.81,9.32-1.4,14.13c0.24,2.78,0.25,5.58,0.36,8.37
		c0.13,3.51,0.24,7.01,0.37,10.52c-0.03,0.52-0.07,1.04-0.09,1.56c-0.1,3.71-0.27,7.43-0.27,11.14c0,4.9,0.09,9.81,0.21,14.71
		c0.1,3.71,0.54,7.42,0.42,11.12c-0.16,5.14-0.68,10.27-1.1,15.41c-0.41,4.93-0.92,9.86-1.33,14.79c-0.31,3.74-0.52,7.48-0.78,11.22
		c-0.7,4.62-1.44,9.23-2.1,13.86c-0.88,6.16-1.04,12.34,0.11,18.49c0.67,3.58,0.53,7.12-0.07,10.72c-0.68,4.07-1.78,8.12-1.1,12.34
		c0.47,2.95,0.24,6.05,1.68,8.77c1.27,2.41,2.66,4.75,4.04,7.1c0.39,0.57,0.78,1.15,1.16,1.73c0.65-0.64,1.31-1.06,1.66-1.67
		c2.49-4.32,4.76-8.78,7.41-13c7.56-12.04,16.82-22.73,26.91-32.68c6.77-6.67,13.81-13.07,20.73-19.59c1.09-1.03,1.16-1.06,2.2-0.17
		c0.01,0.01,0.01,0.01,0.02,0.01c0.23,0.2,0.47,0.4,0.71,0.6c1.71,1.45,3.43,2.89,5.14,4.33c3.91,3.26,7.81,6.53,11.64,9.86
		c0.75,0.64,1.51,1.28,2.26,1.92c2.33,2,4.62,4.07,6.76,6.27c2.46,2.35,4.86,4.76,7.18,7.27c0.04,0.04,0.08,0.08,0.12,0.13
		c0.01,0.01,0.02,0.02,0.03,0.03c0.33,0.35,0.68,0.7,0.97,1.09c3.63,4.87,7.5,9.51,11.61,13.95c0.19,0.21,0.38,0.42,0.58,0.63
		c0.77,0.83,1.55,1.64,2.34,2.46c1.04,1.07,2.09,2.12,3.16,3.17c0.77,0.75,1.54,1.5,2.32,2.24c0.2,0.18,0.39,0.37,0.58,0.56
		c1.84,1.75,3.68,3.48,5.52,5.23c0.4,0.32,0.82,0.62,1.24,0.9c1.08,0.7,2.12,1.44,3.15,2.2c1.61,1.05,3.22,2.11,4.62,3.39
		c1.79,1.63,3.56,3.28,5.33,4.93c0.87,0.79,1.75,1.59,2.62,2.39c10.1,9.27,20.28,18.45,30.46,27.63c1.12,1.01,2.26,2,3.4,2.99
		c0.15,0.13,0.3,0.26,0.45,0.39c1.19,1.03,2.39,2.05,3.57,3.08c2.24,1.89,4.51,3.75,6.53,5.84c0.68,0.71,1.36,1.42,2.03,2.13
		c5.66,5.71,11.05,11.69,16.57,17.53c0.36,0.38,0.71,0.75,1.06,1.13c0.89,0.95,1.79,1.89,2.69,2.83c1.15,1.16,2.36,2.25,3.68,3.19
		c0.43,0.26,0.88,0.5,1.32,0.71c4.62,2.18,9.31,4.19,13.98,6.27c0.13-0.29,0.31-0.56,0.38-0.86c1.71-7.22,5.61-13.09,11.16-17.9
		c4.59-3.97,9.83-6.72,15.84-7.76s12.05-1.94,18.09-2.84c3.27-0.48,6.56-0.98,9.86-1.18c5.75-0.34,10.81,1.52,15.35,4.88
		c0.62,0.44,1.24,0.9,1.84,1.4c0.68,0.56,1.38,1.1,2.06,1.65c4.08,3.2,8.16,6.4,12.24,9.6c1.41,1.07,2.8,2.16,4.22,3.22
		c0.3,0.22,0.57,0.46,0.87,0.69c2.33,1.76,4.65,3.55,6.7,5.6c1,0.99,1.97,2.02,2.93,3.06c1.23,1.28,2.43,2.6,3.6,3.95
		c3.93,4.58,7.93,9.1,11.92,13.63c0.19,0.22,0.37,0.39,0.55,0.53c0.81,0.51,1.62,0.16,1.97-0.94c0.85-2.65,1.69-5.31,2.53-7.97
		c0.02-0.44,0.06-0.88,0.03-1.31c-0.22-3.62-0.59-7.23-0.66-10.85c-0.1-5.78,0-11.56,0.02-17.34c0.08-0.06,0.16-0.11,0.24-0.16
		c0,0,0,0,0,0c-0.08,0.05-0.16,0.11-0.25,0.17c-0.04-3.03-0.06-6.06-0.11-9.09c-0.04-2.51-0.11-5.02-0.15-7.52
		c-0.01-0.39,0.09-0.78,0.14-1.16c0,0,0,0,0,0c-0.01-2,0.13-4-0.07-5.98c-0.61-6.1-1.34-12.19-2.04-18.28
		c-0.45-3.91-0.92-7.83-1.38-11.74c0.06-0.23,0.15-0.45,0.16-0.68c0.07-3.59,0.2-7.19,0.19-10.78c0-3.91-0.12-7.82-0.21-11.73
		c-0.01-0.59-0.13-1.18-0.2-1.78c0.41-4.15,0.83-8.31,1.24-12.47c0,0,0,0,0,0c-0.09-5.27-0.16-10.54-0.26-15.81
		c-0.09-4.75-0.25-9.5-0.31-14.25c-0.08-6.67-0.19-13.34-0.11-20.01c0.05-4.69,0.44-9.38,0.58-14.08
		c0.24-7.58,0.31-15.17,0.61-22.75c0.27-6.74,0.75-13.46,1.14-20.19c0.24-4.06,0.49-8.12,0.74-12.18c0,0,0,0,0,0
		c0.14-2.95,0.26-5.9,0.4-8.85c0.35-7.06,0.66-14.12,1.06-21.18c0.16-2.86-0.2-5.92,2.45-8.04c0.01-0.01-0.02-0.07-0.03-0.14
		c-0.01-0.01-0.03-0.02-0.05-0.03c-1.99-0.3-3.9-0.65-5.82-0.83c-5.64-0.54-11.29-1.14-16.95-1.48c-9.37-0.56-18.74-1.23-28.12-1.3
		c-8.62-0.07-17.25,0.51-25.86,0.95c-4.74,0.24-9.47,0.79-14.2,1.2c-0.8,0.03-1.59,0.06-2.39,0.09c-5.1,0.2-10.2,0.39-15.3,0.6
		c-1.79,0.08-3.57,0.22-5.36,0.34c-0.47-0.06-0.94-0.18-1.42-0.17c-3.47,0.05-6.94,0.06-10.4,0.2c-8.94,0.38-17.87,0.89-26.8,1.21
		c-0.98,0.04-1.97,0.05-2.95,0.07c-1.89,0.09-3.77,0.16-5.65,0.11c-1.18-0.03-2.36-0.09-3.54-0.16c-0.42-0.01-0.84-0.01-1.26-0.02
		C445.61,224.95,442.86,224.64,440.11,224.64z M458.18,227.33c9.81-0.42,19.62-0.85,29.43-1.34c4.26-0.21,8.52-0.57,12.78-0.87
		c4.26-0.14,8.52-0.27,12.78-0.44c3.42-0.13,6.84-0.32,10.26-0.48v0c6.21-0.27,12.42-0.57,18.63-0.82
		c4.27-0.17,8.54-0.32,12.82-0.38c6.71-0.09,13.43-0.27,20.14-0.07c5.86,0.17,11.71,0.78,17.56,1.25c5.1,0.4,10.19,0.87,15.28,1.31
		c0.55,0.05,1.09,0.13,1.57,0.18c0,3.49,0.07,6.88-0.01,10.27c-0.15,6.35-0.35,12.7-0.6,19.05c-0.41,10.58-0.9,21.15-1.32,31.72
		c-0.31,7.82-0.59,15.65-0.82,23.47c-0.2,6.75-0.4,13.5-0.47,20.25c-0.1,9.35-0.11,18.71-0.12,28.06c0,6.68,0.14,13.35,0.08,20.03
		c-0.04,4.83-0.32,9.66-0.48,14.49c-0.01,0.4,0.01,0.8,0.01,1.2h0c-0.06,0.47-0.18,0.94-0.18,1.41c-0.01,7.5-0.01,15,0,22.5
		c0,0.44,0.08,0.87,0.12,1.31h0c3.93,27.39,2.91,54.97,2.97,82.5c0,2.01-0.45,4.02-0.73,6.28c-1.34-1.22-2.49-2.3-3.67-3.35
		c-4.27-3.82-8.22-7.91-11.62-12.56c-3.66-5-8.23-9.15-13.22-12.81c-6.06-4.44-12.2-8.78-18.31-13.15
		c-5.43-3.88-11.54-5.7-18.18-5.96c-7.49-0.29-14.68,1.38-21.83,3.28c-3.32,0.88-6.67,1.68-9.93,2.74
		c-7.6,2.48-13.33,7.5-17.86,13.9c-2.41,3.41-4.43,7.09-6.75,10.87c-3.65-2.26-7.62-4.55-11.41-7.11
		c-5.96-4.03-11.08-9.07-15.79-14.46c-5.64-6.46-11.81-12.38-18.13-18.15c-13.23-12.07-26.42-24.19-39.71-36.19
		c-6.23-5.63-12.71-10.97-18.96-16.57c-6.78-6.07-12.98-12.69-18.5-19.93c-4.09-5.35-9.12-9.73-14.05-14.23
		c-7.35-6.71-14.67-13.45-22-20.19c-1.75-1.61-3.03-1.66-4.79-0.02c-1.11,1.04-2.14,2.16-3.21,3.24
		c-7.91,7.93-15.87,15.81-23.71,23.8c-9.85,10.05-18.51,21.08-26.6,32.57c-1.33,1.88-2.7,3.73-4.23,5.85
		c-0.35-2.43-0.64-4.55-0.95-6.67c-1.76-11.94-2.39-23.95-2.13-35.99c0.17-8.02,0.76-16.04,1.17-24.06
		c0.04-0.86,0.13-1.72,0.19-2.58c0.63-3,1.54-5.97,1.85-9.01c0.81-8.1,1.62-16.22,1.95-24.36c0.41-9.9,0.41-19.82,0.45-29.73
		c0.02-5.27-0.24-10.54-0.39-15.81c-0.01-0.34-0.15-0.68-0.23-1.02c0.04-9.62,0.07-19.25,0.11-28.87c0-0.75,0-1.5,0-2.37
		c0.56,0,0.99,0,1.42,0c9.58,0,19.17,0,28.75-0.01c0.63,0,1.27-0.11,1.9-0.16c1.27,0.07,2.54,0.19,3.82,0.2
		c3.55,0.04,7.11-0.03,10.66,0.05c8.97,0.2,17.94,0.46,26.92,0.69c0.6,0.02,1.2-0.02,1.79-0.03c6.39-0.07,12.78-0.13,19.17-0.21
		c6.79-0.09,13.58-0.21,20.37-0.33c7.63-0.14,15.26-0.3,22.88-0.48c5.67-0.13,11.34-0.3,17-0.48c7.3-0.23,14.61-0.48,21.91-0.72
		C448.76,227.66,453.47,227.53,458.18,227.33z"/>
	<path class="st0" d="M232.31,506.7c0.07-0.41,0.2-0.82,0.18-1.22c-0.15-2.51-0.32-5.01-0.52-7.52c-0.13-1.6-0.29-3.2-0.45-4.8
		c-0.01,0.1-0.02,0.19-0.03,0.29c-0.18,3.9-0.33,7.81-0.52,11.71C230.92,506.53,230.96,506.74,232.31,506.7z"/>
</g>
</svg>
