<?xml version="1.0" encoding="utf-8"?>
<!-- Generator: Adobe Illustrator 24.3.0, SVG Export Plug-In . SVG Version: 6.00 Build 0)  -->
<svg version="1.1" id="Layer_1" xmlns="http://www.w3.org/2000/svg" xmlns:xlink="http://www.w3.org/1999/xlink" x="0px" y="0px"
	 viewBox="0 0 864 864" style="enable-background:new 0 0 864 864;" xml:space="preserve">
<path id="oblong" d="M138.32,274.08c55.71,56.06,111.43,112.12,167.14,168.18c2,4.19,5.22,12.56,4.14,23.09
	c-0.39,3.76-1.15,10.42-5.86,17.23c-5.58,8.07-13.21,11.32-16.2,12.41c-12.03,4.37-22.54,0.39-25.16-0.69
	c-57.55-58.82-115.1-117.63-172.66-176.45c-0.75-3.08-1.59-7.75-1.38-13.44c0.19-5.12,0.45-12.48,5.17-19.64
	c5.22-7.93,12.85-11.03,15.51-12.06C122.86,267.31,135.54,272.8,138.32,274.08z"/>
<path id="lower.cut" d="M137.89,397.46l47.22,45.95c-17.09,17.31-34.19,34.63-51.28,51.93c-3.06,0.8-7.72,1.71-13.41,1.6
	c-5.13-0.09-12.49-0.24-19.74-4.82c-8.01-5.09-11.24-12.66-12.33-15.3c-5.62-13.74-0.36-26.52,0.88-29.31
	C105.45,430.83,121.68,414.14,137.89,397.46z"/>
<path id="upper.cut" d="M307.27,319.66c-15.94,16.16-31.9,32.32-47.86,48.48l-48.58-45.72c14.56-14.97,29.11-29.95,43.67-44.92
	c4.15-2.07,12.47-5.44,23.01-4.53c3.77,0.32,10.44,0.97,17.33,5.56c8.17,5.44,11.55,13.01,12.69,15.98
	C312.11,306.45,308.3,317.03,307.27,319.66z"/>
<circle id="dot" cx="366.63" cy="479.13" r="16.02"/>
<g>
	<path d="M438.59,495.56l-21.76-76.9h16.8l8.21,32.55c2.37,9.14,4.43,17.85,6.13,27.44h0.21c1.71-9.23,3.91-18.37,6.21-27.16
		l8.61-32.83h16.31l-22.81,76.9H438.59z"/>
	<path d="M536.86,463.03h-24.96v18.29h27.9v14.24h-43.24v-76.9h41.79v14.24h-26.45v16.02h24.96V463.03z"/>
	<path d="M560.26,495.56v-76.9h17.87l14.08,28.21c4.06,8.06,8.03,17.69,11.08,26.38l0.26-0.04c-0.94-10.17-1.24-20.5-1.24-32.13
		v-22.42h14.08v76.9h-16.07l-14.54-29.61c-4.05-8.3-8.5-18.15-11.79-27.17l-0.34,0.04c0.47,10.19,0.67,21.07,0.67,33.63v23.11
		H560.26z"/>
	<path d="M701.71,456.34c0,25.23-13.43,40.47-33.27,40.47c-20.12,0-31.95-17.25-31.95-39.18c0-22.99,13.04-40.23,33.02-40.23
		C690.33,417.41,701.71,435.07,701.71,456.34z M652.7,457.31c0,15.06,6.26,25.68,16.5,25.68c10.37,0,16.3-11.11,16.3-26.06
		c0-13.86-5.78-25.7-16.33-25.7C658.77,431.23,652.7,442.35,652.7,457.31z"/>
	<path d="M754.13,495.56l-6.12-13.91c-2.46-5.39-4.14-9.4-6.01-13.84h-0.21c-1.42,4.46-3.08,8.48-5.28,13.8l-5.61,13.95h-17.47
		l19.6-38.94l-18.91-37.96h17.63l5.94,14c1.99,4.68,3.45,8.48,5.06,12.79h0.26c1.64-4.88,2.89-8.3,4.63-12.74l5.7-14.04h17.52
		l-19.12,37.52l20.13,39.38H754.13z"/>
</g>
<g>
</g>
<g>
</g>
<g>
</g>
<g>
</g>
<g>
</g>
<g>
</g>
</svg>
