<?xml version="1.0" encoding="utf-8"?>
<!-- Generator: Adobe Illustrator 24.3.0, SVG Export Plug-In . SVG Version: 6.00 Build 0)  -->
<svg version="1.1" id="Layer_1" xmlns="http://www.w3.org/2000/svg" xmlns:xlink="http://www.w3.org/1999/xlink" x="0px" y="0px"
	 viewBox="0 0 864 864" style="enable-background:new 0 0 864 864;" xml:space="preserve">
<g>
	<path d="M195.98,389.3h-23.57l8.97-26.3h54.69l-28.82,69.69h27.92l-9.35,27.76h-59.3L195.98,389.3z"/>
	<path d="M280.39,363v56.25c0,5.26,0.53,9.06,1.6,11.4c1.07,2.34,2.8,3.51,5.19,3.51c2.39,0,4.12-1.17,5.19-3.51
		c1.07-2.34,1.6-6.14,1.6-11.4V363h28.69v63.41c0,5.36-0.88,10.28-2.63,14.76c-1.75,4.48-4.21,8.33-7.36,11.54
		c-3.16,3.21-6.9,5.72-11.21,7.52c-4.31,1.8-9.07,2.7-14.28,2.7c-5.21,0-9.99-0.9-14.35-2.7c-4.35-1.8-8.09-4.31-11.21-7.52
		c-3.12-3.21-5.55-7.06-7.3-11.54c-1.75-4.48-2.63-9.4-2.63-14.76V363H280.39z"/>
	<path d="M340.07,431.23c1.62,0.49,3.67,0.85,6.15,1.1c2.48,0.24,4.65,0.37,6.53,0.37c5.38,0,8.07-1.65,8.07-4.97
		c0-1.36-0.38-2.87-1.15-4.53c-0.77-1.66-2.22-4.19-4.35-7.6c-1.45-2.34-2.71-4.33-3.78-5.99c-1.07-1.66-1.94-3.02-2.63-4.09
		c-2.56-4.19-4.4-7.94-5.51-11.25c-1.11-3.31-1.67-6.67-1.67-10.08c0-7.3,2.6-12.98,7.81-17.02c5.21-4.04,12.51-6.06,21.9-6.06
		c3.59,0,6.74,0.2,9.48,0.58c2.73,0.39,5.34,1.02,7.81,1.9v26.3l-0.9-0.15c-0.85,0-1.6-0.02-2.24-0.07
		c-0.64-0.05-1.17-0.07-1.6-0.07c-1.88,0-3.37,0.42-4.48,1.24c-1.11,0.83-1.67,1.92-1.67,3.29c0,0.68,0.21,1.51,0.64,2.48l1.54,2.63
		c0.51,0.78,1.22,1.78,2.11,3c0.9,1.22,1.94,2.7,3.14,4.46c1.19,1.75,2.28,3.43,3.27,5.04c0.98,1.61,1.9,3.09,2.75,4.46
		c1.71,3.02,3.03,6.21,3.97,9.57c0.94,3.36,1.41,6.45,1.41,9.28c0,8.57-3.07,15.27-9.22,20.09c-6.15,4.82-14.65,7.23-25.49,7.23
		c-3.5,0-7.22-0.24-11.14-0.73c-3.93-0.49-7.51-1.22-10.76-2.19V431.23z"/>
	<path d="M414.87,363h22.54l22.29,37.11L481.85,363h22.67v97.45h-27.41v-35.06L459.7,454.6l-17.55-29.22v35.06h-27.28V363z"/>
	<path d="M551.66,363h20.49l32.4,97.45h-26.9l-2.82-8.77h-25.87l-2.82,8.77h-26.9L551.66,363z M567.67,430.21l-5.76-17.09
		l-5.76,17.09H567.67z"/>
	<path d="M619.42,363h22.54l23.57,37.55V363h26.9v97.45h-22.67l-23.44-37.4v37.4h-26.9V363z"/>
</g>
<rect x="142.87" y="316.87" width="581.68" height="7.74"/>
<rect x="142.87" y="494.55" width="581.68" height="7.74"/>
<g>
</g>
<g>
</g>
<g>
</g>
<g>
</g>
<g>
</g>
<g>
</g>
</svg>
