<?xml version="1.0" encoding="utf-8"?>
<!-- Generator: Adobe Illustrator 24.3.0, SVG Export Plug-In . SVG Version: 6.00 Build 0)  -->
<svg version="1.1" id="zusman-logo" xmlns="http://www.w3.org/2000/svg" xmlns:xlink="http://www.w3.org/1999/xlink" x="0px"
	 y="0px" viewBox="0 0 864 864" style="enable-background:new 0 0 864 864;" xml:space="preserve">
<path id="zusman-logo-combined" d="M166.52,460.45l29.46-71.15h-23.57l8.97-26.3h54.69l-28.82,69.69h27.92l-9.35,27.76H166.52z
	 M251.7,363v63.41c0,5.36,0.87,10.28,2.63,14.76c1.75,4.48,4.18,8.33,7.3,11.54c3.12,3.21,6.85,5.72,11.21,7.52
	c4.35,1.8,9.14,2.7,14.34,2.7c5.21,0,9.97-0.9,14.28-2.7c4.31-1.8,8.05-4.31,11.21-7.52c3.16-3.21,5.61-7.06,7.36-11.54
	c1.75-4.48,2.63-9.4,2.63-14.76V363h-28.69v56.25c0,5.26-0.53,9.06-1.6,11.4c-1.07,2.34-2.8,3.51-5.19,3.51
	c-2.39,0-4.12-1.17-5.19-3.51c-1.07-2.34-1.6-6.14-1.6-11.4V363H251.7z M352.75,432.69c-1.88,0-4.06-0.12-6.53-0.37
	c-2.48-0.24-4.53-0.61-6.15-1.1v28.2c3.24,0.97,6.83,1.7,10.76,2.19c3.93,0.49,7.64,0.73,11.14,0.73c10.84,0,19.34-2.41,25.49-7.23
	c6.15-4.82,9.22-11.52,9.22-20.09c0-2.82-0.47-5.92-1.41-9.28c-0.94-3.36-2.26-6.55-3.97-9.57c-0.85-1.36-1.77-2.85-2.75-4.46
	c-0.98-1.61-2.07-3.29-3.27-5.04c-1.2-1.75-2.24-3.24-3.14-4.46c-0.9-1.22-1.6-2.21-2.11-3l-1.54-2.63
	c-0.43-0.97-0.64-1.8-0.64-2.48c0-1.36,0.55-2.46,1.67-3.29c1.11-0.83,2.6-1.24,4.48-1.24c0.43,0,0.96,0.02,1.6,0.07
	c0.64,0.05,1.39,0.07,2.24,0.07l0.9,0.15v-26.3c-2.48-0.88-5.08-1.51-7.81-1.9c-2.73-0.39-5.89-0.58-9.48-0.58
	c-9.39,0-16.69,2.02-21.9,6.06c-5.21,4.04-7.81,9.72-7.81,17.02c0,3.41,0.55,6.77,1.67,10.08c1.11,3.31,2.95,7.06,5.51,11.25
	c0.68,1.07,1.56,2.44,2.63,4.09c1.07,1.66,2.33,3.65,3.78,5.99c2.13,3.41,3.59,5.94,4.35,7.6c0.77,1.66,1.15,3.17,1.15,4.53
	C360.82,431.04,358.13,432.69,352.75,432.69z M504.52,460.45V363h-22.67l-22.16,37.11L437.41,363h-22.54v97.45h27.28v-35.06
	l17.55,29.22l17.42-29.22v35.06H504.52z M548.97,451.68l-2.82,8.77h-26.9l32.4-97.45h20.49l32.4,97.45h-26.9l-2.82-8.77H548.97z
	 M556.14,430.21h11.53l-5.76-17.09L556.14,430.21z M669.75,460.45h22.67V363h-26.9v37.55L641.96,363h-22.54v97.45h26.9v-37.4
	L669.75,460.45z M142.87,316.87v7.74h581.68v-7.74H142.87z M142.87,502.29h581.68v-7.74H142.87V502.29z"/>
<g>
</g>
<g>
</g>
<g>
</g>
<g>
</g>
<g>
</g>
<g>
</g>
</svg>
