<?xml version="1.0" encoding="utf-8"?>
<!-- Generator: Adobe Illustrator 24.3.0, SVG Export Plug-In . SVG Version: 6.00 Build 0)  -->
<svg version="1.1" id="jesse-james-ferrell-signature-1"
	 xmlns="http://www.w3.org/2000/svg" xmlns:xlink="http://www.w3.org/1999/xlink" x="0px" y="0px" viewBox="0 0 864 864"
	 style="enable-background:new 0 0 864 864;" xml:space="preserve">
<style type="text/css">
	.st0{stroke:#000000;stroke-width:0.5;stroke-miterlimit:10;}
</style>
<path id="jesse-james-ferrell-signature-1-combined" class="st0" d="M235.3,347.4c1.8-0.6,3.6-1.5,5.4-2.3c-0.1-0.2-0.2-0.4-0.2-0.6
	c-2.4,0.5-4.7,0.9-7.4,1.5c0.6-1.5,1.1-2.7,1.4-3.9c3.3-10.5,6.8-20.9,9.7-31.5c2.3-8.2,3-16.7,0.9-25.1
	c-1.9-7.5-6.3-12.3-14.2-13.6c-7.2-1.2-14.2-0.5-21,1.7c-33.2,10.8-57.9,32.2-75.7,61.7c-4.1,6.7-6.9,14-7.4,22
	c-0.8,12,7.9,20.1,19.4,20.4c-2.2-0.8-4.4-1.6-6.6-2.5c-8.2-3.6-12.2-10.4-10.4-19.1c1.1-5.5,2.8-11.1,5.5-15.9
	c15.7-27.7,38.6-47.4,68-59.4c8.2-3.4,16.8-5.4,25.9-4.4c6.4,0.7,10.3,3.9,12,10.2c1.6,6.1,1.2,12.3,0,18.4
	c-2.6,13.8-7.2,27-12,40.2c-1.2,3.2-3,5.6-5.7,7.6c-20.2,15.1-34.6,34.5-42.3,58.6c-3.3,10.2-5.9,20.7-5.2,31.6
	c0.1,2.2-0.1,5,2.6,5.8c2.7,0.8,4.4-1.4,5.8-3.3c4.6-6.7,9.4-13.2,13.3-20.3c13.1-23.6,23.7-48.4,33.8-73.3
	C231.6,349.6,232.9,348.2,235.3,347.4z M215,378.7c-7.9,18.6-15.9,37.1-26.4,54.4c-1.7,2.8-3.4,5.6-5.3,8.3c-1.3,1.9-3,3.5-4.5,5.2
	c-0.4-0.1-0.8-0.2-1.2-0.3c-0.2-3.4-0.8-6.8-0.4-10.1c3-25.9,13.4-48.4,31.2-67.4c5-5.3,10.5-10.1,15.7-15.1
	c0.3,0.2,0.5,0.5,0.8,0.7C221.7,362.6,218.4,370.6,215,378.7z M240.2,356.6c-2.5,3.2-5,6.6-6.7,10.3c-1.6,3.5-2.7,7.4-3.1,11.2
	c-0.6,5.7,4,8.5,9.1,5.9c1.9-1,3.8-2.1,5.5-3.5c4.8-4.1,9.4-8.4,14-12.6c1.6-1.5,3-3.2,4.1-4.4l-1.1-2.1c-4.9,4.4-9.8,8.8-14.9,13
	c-2.9,2.3-6.2,4.1-9.4,6c-1.5,0.9-3,0.5-2.9-1.4c0.3-2.8,1.1-5.5,1.8-8.2c0.1-0.4,1-0.7,1.6-0.8c6-0.9,11.4-5.9,12.7-11.9
	c0.7-3.4-1.9-6.2-5.2-5.1C243.7,353.6,241.6,354.9,240.2,356.6z M239.2,365.8c1.4-3.8,3.3-7.1,7.4-8.8
	C245.9,361.4,243.1,364,239.2,365.8z M263.3,363.3c2.2,3.4,4.3,6.7,6.6,10.2c-1.1,0.8-2.6,1.7-4,2.9c-0.6,0.6-0.7,1.7-1.1,2.6
	c0.9,0.3,1.8,0.9,2.6,0.8c2.4-0.4,4.8-1,7.2-1.6c4.4-1.2,4.7-2.1,2.6-6.1c0.6-0.5,1.2-1,1.9-1.5c2.7-1.9,5.4-3.8,8.3-5.9l-1.2-2.2
	c-0.2,0.2-0.3,0.3-0.5,0.5c-3,2.2-6.2,4.2-9.2,6.3c-1.6,1.1-2.7,0.9-4.1-0.3c-5.1-4.6-4.6-12.1,1-16.6c0.2-0.1,0.5-0.2,0.8-0.3
	c0.5,0.2,0.5,1.3-1,3c1.5,1.7,4.5-2.3,5.4-5c0.2-0.7,0.8-1.8,0.5-2.4c-0.3-0.6-1.5-1.1-2.3-1c-1.1,0.1-2.3,0.5-3.3,1.1
	c-4.1,2.2-6.9,5.5-8.7,9.8c-0.5,1.1-1.1,2.3-2,3.1c-0.2,0.2-0.4,0.4-0.7,0.6L263.3,363.3L263.3,363.3z M274.1,374.1
	c0,0,0.5-0.2,0.9,0c0.4,0.2,0.5,0.7,0.3,1c-0.1,0.4-0.5,0.5-0.9,0.7c-2.7,1-3,1.2-4.2,1.4c-1.1,0.2-1.2,0.2-1.2,0.1
	c-0.1-0.2,0.5-0.5,1.8-1.3C271.5,375.6,272.7,374.9,274.1,374.1z M287.6,364.6l-1.2-2.3c0.6-0.7,1.1-1.6,1.7-2.3
	c1.9-2.4,3.7-4.9,5.9-7c0.8-0.7,2.7,0,4.2,0c-0.4,1.1-0.5,2.4-1.2,3.3c-1.3,1.5-3,2.7-4.2,4.2c-0.6,0.8-0.7,2.2-0.5,3.3
	c0.1,0.8,0.8,1.6,1.4,2.3c1,1.2,2.2,3.1,3.2,3.1c1.5,0,2.8-0.8,3.7-1.9c0,0.4-0.1,0.9,0,1.5c0,0.4,0.1,0.7,0.2,1
	c-1.5,1.6-2.9,2.8-3.9,4.2c-1.3,1.8-5.8,3.1-7.6,1.9c-1.4-1-1-2.1,0.1-2.9c0.8-0.7,1.8-1.1,2.9-1.7
	C290.6,369.1,289.1,367,287.6,364.6z M313.8,360.7c1.1-1.2,2.4-3.6,1.9-4.5c-1.2-2.1-3.4-0.8-5.1,0c-4.3,1.8-7.5,4.9-9.1,9.3
	c-0.2,0.6-0.5,1.2-0.9,1.7c-0.1,0.5-0.1,1.1,0,1.8c0,0.3,0.1,0.6,0.2,0.9c2.6,4,5.9,4.6,9.5,4.4c8.7-0.7,17-3,25-6.4
	c5-2.1,9.5-5,12.9-9.3c0.5-0.6,0.8-1.5,1.2-2.2c-1.3,0.5-1.9,1.3-2.7,2c-11.2,9.1-24.5,11.9-38.5,12.1c-1.1,0-2.2-0.8-4-1.3
	c1.3-1.2,2.1-2,2.9-2.6C309.4,364.5,311.8,362.8,313.8,360.7z M305.2,363.9c-0.1-0.1,0-0.3,0-0.4c0.7-2,3.2-3.8,3.2-3.8
	c1-0.7,2.9-2,3.3-1.6c0.2,0.2-0.1,0.8-0.3,1.2c-0.2,0.4-0.9,1.7-4.2,3.8C306,363.9,305.4,364.1,305.2,363.9z M388.2,369.2
	c-0.6,1.8-0.9,3.6,0.9,5c1.8,1.4,3.4,0.5,5-0.6c0.9-0.6,1.8-1.3,2.6-2c2.6-2.2,4.5-3.3,7.3-5.7c0.6-0.2-0.1,1.6-0.2,1.9
	c-0.3,2.5-0.6,3.6,2.1,5.3c2.7,1.8,5-0.5,7.1-2c1.9-1.3,3.8-2.7,6-4.4c0.5-0.4,1.2-1.3,1.7-2.1c-0.7,1.8-1.2,3.3-1.4,3.5
	c-0.4,0.9-1,1.8-1,2.4c-0.1,0.9-0.2,1.8,0.7,2.7c0.9,0.7,2-0.4,2.5-1c1.2-1.3,2.2-2.9,3.3-4.4c3.3-4.3,6.7-8.7,10-13
	c2-0.9-3,7.7-4.6,11.4c-0.8,2-2.4,4.6,0.2,6.1c2.5,1.5,3.9-1.1,5.3-2.6c1.8-2,6.1-7.9,6-6.3c-1,4.4,1.9,6.5,6.7,4.5
	c1.2-0.5,2.2-1.2,3.3-1.8c0.9-0.6,1.8-1.1,2.8-1.8c1.1-0.6,1.7-1.1,2-1.4c-0.3,1.1-0.4,1.9-0.4,2.2c-0.4,5.2,1.7,8,6.6,6.5
	c2.9-0.9,5.7-2.4,8.2-4.1c2.7-1.7,6.3-5,9-7.1c0,0.1,0.1,0.2,0.1,0.3c1.5,2,2.9,3.8,4.6,6c-3,0.5-5.6,0.9-8.2,1.5
	c-0.6,0.1-1.5,0.7-1.6,1.2c-0.1,0.9,1.1,1.6,1.5,1.7c0.6,0.2,1.4,0.1,2.1,0.1c11.2-1,22.3-2,33.5-3c3.6-0.3,7.8-0.7,11.4-1l-0.8-0.4
	c-0.7-0.3-1.6-0.6-2.5-0.6c-8.6-0.1-17.3-0.4-25.9,0c-4,0.2-6.6-0.8-8.8-4.2c-1.4-2.3-1.9-4.1,0.1-6.1c0.8-0.8,4.1-2.5,6.5-7.9
	c0.2-0.5,0.4-1-0.4-0.8c-1.5,0.4-3.4,0.3-4.3,1.2c-2.3,2.2-4.3,4.9-6.3,7.4c-0.4,0.5-0.7,1.1-1,2c0,0.1-0.1,0.1-0.1,0.2
	c-2.2,1.8-5.5,4.4-7.9,5.8c-3.1,1.8-6.4,3.4-9.8,4.7c-2.1,0.8-2.9-0.2-2.3-2.4c0.5-1.9,1.1-3.5,3.6-3.7c3.1-0.3,5.2-2.5,6.7-5.1
	c1.3-2.4,0.2-4.1-2.4-4.3c-2.6-0.2-4.5,1.1-6.2,2.9c-1,1.1-2.2,2.5-3.1,3.6c-0.4,0.4-0.6,0.9-0.9,1.3c-2.4,1.7-6.6,3.6-9.2,4.6
	c-1,0.4-3.3,1.5-3.7,0.9c-0.7-0.2,0.7-4.3,0.8-6.1c0-0.7-0.3-1.7-0.9-2.1c-0.3-0.3-1.4,0.2-1.9,0.5c-0.8,0.5-1.4,1.1-2,1.8
	c-1.5,1.6-2.9,3.3-4.3,4.9c-1.1,1-1.2,0.3-0.7-0.6c1.1-3.1,2.4-6.2,3.2-9.4c0.3-1.2,0.8-4-0.6-4c-0.7-0.2-2.5,0.9-3.4,1.8
	c-2.8,2.8-5.5,5.8-8.4,9c0.8-3,1.8-5.5,2.2-8.2c0.3-1.4,0.9-4.5-0.4-4.5c-1.3-0.5-2.1,2.2-2.8,3.5c-1.1,1.9-2,4.8-2.7,6.5
	c-0.1,0.2-0.2,0.5-0.3,0.8c-0.2,0-0.6,0-1.2,0.3c-3.6,3.4-7.7,6.5-11.6,9.7c-0.4,0.3-2.4,1.5-2.3,0.5c1-4.2,0.4-7.9-0.6-12.1
	c-0.1-0.4-0.2-0.8-0.3-1.1c-1.3-5.2-4.8-6.4-8.7-2.8C393.2,358.6,390.1,363.5,388.2,369.2z M464.4,356.3c0,0,1.4-0.9,3.1-1
	c0.1,0,0.3,0,0.3,0.1c0.2,0.3-0.5,1-0.8,1.3c-0.8,0.8-1.7,1.8-3.3,2.4c-0.5,0.2-1.4,0.4-2.5,0.4
	C461.9,358.5,462.9,357.2,464.4,356.3z M401.8,356.7c1.9,3.2,1.8,4.8-0.6,6.7c-2.6,2.1-7.1,6.7-8.1,6
	C392,368.2,397.5,360.2,401.8,356.7z M593.4,354.7c0-0.5,0-1,0-1.6c-15.7-1.1-31.5-0.1-47.5-0.1c0.3-1.1,0.5-2,0.8-2.8
	c3.2-8.5,6.7-16.9,9.5-25.6c1.4-4.4,3.3-6.2,8.2-6.4c26.1-1.3,52.2-3.1,78.2-4.7c2.8-0.2,5.7-0.4,8.5-0.6c0.1-0.4,0.1-0.7,0.2-1
	c-1.3-0.4-2.5-1.1-3.8-1.1c-6.3,0.1-12.6,0.1-18.8,0.5c-21.5,1.4-42.9,2.9-64.3,4.3c-1.5,0.1-3,0-4.6,0c2.5-6.9,4.8-13.6,7.3-20.2
	c0.8-2.2,0.2-3.3-2.2-3.7c-1.3,3.5-2.6,7-4,10.4c-1.3,3.5-2.7,7-4,10.5c-0.4-1.1-0.2-2.1-0.2-3.1c0.5-8.2,1.5-16.4,1.3-24.5
	c-0.3-10.1-7.4-16.2-17.5-15.7c-3.6,0.2-7.3,0.9-10.6,2.2c-13.8,5.4-26.4,12.8-37.2,22.9c-1.6,1.5-3,3.2-4,5.1
	c-2.3,4-1.5,8,2.2,10.6c2.5,1.8,5.5,3.3,8.4,4.4c12.6,4.9,25.8,5.9,39.2,5.4c4.3-0.1,8.6-0.4,13-0.6c-1,7.2-6.8,26.7-9.8,32.7
	c-0.3,0.7-1.4,1.2-2.2,1.3c-2.8,0.4-5.6,0.4-8.4,0.7c-3.2,0.3-6.4,0.7-10.2,1.1c3,3.8,6.3,2.1,9.2,2c3.2-0.1,6.4-0.5,10-0.8
	c-0.5,1.6-0.9,2.7-1.3,3.8c-8.2,22.2-16.1,44.5-21.9,67.5c-0.6,2.5-0.1,3.9,2.7,4.2c0.2-0.5,0.4-1,0.6-1.5
	c7.9-23.9,15.9-47.8,23.7-71.8c0.6-1.9,1.6-2.7,3.6-2.8c11.2-0.3,22.4-0.8,33.6-1.2C585.1,354.6,589.2,354.7,593.4,354.7z
	 M550.5,316.8c-6.2,0.5-12.5,0.9-16.4,1.1c-13,0-23.5-0.9-33.6-4.4c-2.2-0.8-4.5-1.6-6.5-2.8c-3.9-2.3-4.8-5.6-2.5-9.5
	c1-1.6,2.1-3.3,3.5-4.5c12.3-10.5,25.7-19.2,41.1-24.3c2.4-0.8,5-1.2,7.5-1.2c5.9,0,10.3,3.4,11,9.6c0.7,6.3,0.4,12.7,0.1,19
	c-0.3,5.1-1.3,10.1-2.2,15.1C552.3,315.6,551.2,316.7,550.5,316.8z M733.2,363.9c-2.7,0.5-5.3,1-8,1.4c-9,1.4-18,2.9-27,4.1
	c-1.4,0.2-3.6-0.4-4.2-1.4c-0.6-1,0.1-3.1,0.9-4.4c2.6-4.6,5.6-8.9,8.4-13.5c1.4-2.4,2.7-5,3.8-7.6c0.3-0.7,0.1-2-0.4-2.4
	c-0.5-0.4-1.8-0.4-2.5-0.1c-1,0.5-2,1.2-2.8,2.1c-5.4,6-8.2,13-11.1,20.6c-0.5,1.4-0.7,2.6-0.6,3.7c-0.6,1.1-2.3,3.4-3.2,4.2
	c-1.3,1.4-2.4,3-3.8,4.3c-3,2.8-6.1,5.5-9.2,8.3c-0.7,0.5-1.5,0.3-1.1-0.8c1.2-3.1,2.3-6.2,3.6-9.2c6.7-14.9,13.5-29.8,20.3-44.8
	c0.7-1.5,2-4.6-0.5-4.8c-1.1-0.2-1.8,1.7-2.3,2.8c-4.4,9.2-8.9,18.4-12.9,27.7c-0.8,1.8-2.5,5.2-3.9,8.1c-3.7,2.5-11.8,5.7-16.3,6.8
	c-3,0.8-4.5-1-3.2-3.9c0.5-1,1.8-2,2.9-2.4c3.8-1.2,6-3.8,7.3-7.2c0.9-2.5-0.6-4.3-3.1-3.8c-1.3,0.2-2.6,0.9-3.6,1.7
	c-1.5,1.4-3,3-4.4,4.6c-0.1,0.1-2.9,2.8-3.5,5.2c0,0,0,0,0,0c-2.9,2.5-7.2,5-10.8,6.2c-0.6,0.2-1.3,0.2-2.2,0.3
	c0.4-4.2,4.2-8.2-0.7-11.5c1-1.6,2-3.1,2.8-4.6c0.3-0.5,0.2-1.8-0.1-2c-0.6-0.3-1.6-0.4-2.2,0c-2.3,1.4-4.1,3.2-4.4,6.2
	c-0.1,0.8-0.4,1.9-1,2.4c-0.9,0.9-1.9,1.8-2.8,2.7c0,0,0,0,0,0c-1.6,1.5-4.1,3.8-5.8,5.1c-1.6,1.3-6.9,4.4-6.4,3.1
	c2.2-5.2,5.6-9.7,0.1-13.7c1.2-1.8,2.4-3.3,3.2-5c0.4-0.8,0.5-2.6,0.2-2.8c-0.4-0.5-2.3-0.2-2.7,0.3c-1.6,1.8-3.1,3.9-4.4,6
	c-0.6,1-0.3,2.5-1,3.3c-1.2,1.6-2.6,3.2-3.9,4.6c0,0,0,0.1,0,0.1c0,0,0,0,0,0c-3.6,3.5-8.9,7.3-14,8.8c-1.4,0.4-3.5,1.1-3.9-1.5
	c-0.4-2.5,1.2-5.3,3-5.5c4.7-0.6,8.6-4.1,9.5-8.8c0.2-1.3,0-3.6-0.7-3.9c-1.2-0.5-3.4-0.5-4.5,0.3c-5.6,3.8-9.6,8.9-11,15.7
	c-1.2,5.4,2.5,8.7,7.9,7.2c4.8-1.4,8.8-4.3,12.4-7.7c0.2-0.2,1.2-1.1,1.5-1.4c0,0,0,0,0,0c2.2-2,4.5-3.9,7-6c1-0.8-0.2,2.3-0.4,3.4
	c-0.4,1.3-0.6,2-0.7,3.2c-0.2,1.6-0.5,3.9,0.3,4.7c1.1,0.9,3.5,1.2,4.9,0.6c2.8-1.2,5.4-3,7.8-4.9c0.6-0.5,2-1.8,2.6-2.4
	c0,0,0,0,0,0c1.6-1.6,3.2-3.3,5.1-5.2c1-0.9,0.5,2.2,0.4,3c-0.3,1.4-0.9,2.8-1.2,4.2c-0.6,3.2,1.1,5.3,4.2,4.5
	c2.7-0.7,5.3-2.2,7.8-3.6c1.2-0.6,2.9-2.2,4.1-3.1c0.1,0.4,0.2,1,0.4,1.6c1.2,4.6,3.4,5.7,8.3,4.3c2.9-0.8,5.5-2.3,8.2-3.6
	c0.8-0.4,4.1-2.2,5.6-3c-0.8,1.5-1.3,2.6-1.4,2.9c-1.6,4.4-3.3,8.7-4.5,13.1c-0.4,1.3,0.4,3.5,1.4,4.5c1.4,1.4,3.5,0.9,4.9-0.5
	c3.1-2.8,6.2-5.6,9.1-8.6c1.8-1.8,4.1-4.8,5.8-6.8c2.5,3,5.7,3.7,9,3c10.6-2.4,21.2-5,31.9-7.5c0.7-0.2,1.4-0.6,2.1-0.8
	C733.4,364.3,733.3,364.1,733.2,363.9z M702.3,345.3c0.7-0.9,1.1-1,0.9,0.5c-2.1,3.6-5.6,11.1-6.2,10.7
	C695.1,354.6,700.3,348.9,702.3,345.3z M659.9,357.9c0.2-0.2,3.5-3.8,4.1-3.3c0.4,0.3-0.5,2-1,2.8c0,0-1.7,2.6-4.2,3
	c-0.2,0-0.4,0-0.5-0.1C658,360,659.3,358.5,659.9,357.9z M601.6,356c0.2,3.4-2,5.9-6,6.7C597.8,360.3,599.6,358.3,601.6,356z
	 M518.8,379.4c-48.1-0.7-96,1.5-144,5.8c3.4-8.4,10.6-26.3,14.3-35.3c0.5-1.2,1.9-2.1,3.1-2.8c1.6-0.9,3.5-1.5,5.2-2.3l-0.2-0.6
	c-2.1,0.5-4.1,1-6.6,1.5c0.4-1.3,0.7-2.2,1-3.1c2.5-8.9,5.3-17.8,7.5-26.8c1.8-7.4,2.3-14.9-0.1-22.4c-2.2-6.8-6.9-10.5-14-11.2
	c-8-0.8-15.6,0.8-23,3.6c-18,6.7-32.8,17.9-46,31.7c-6.9,7.3-13,15.2-17.4,24.3c-0.7,1.3-1.3,2.6,1.2,2.9c0.3-0.5,0.5-0.8,0.6-1.1
	c13.9-24.5,34.1-41.9,59.9-52.8c6.9-2.9,14.1-4.8,21.8-4.6c7.5,0.2,11.9,3.5,13.2,10.8c0.6,3.4,0.8,7.1,0.5,10.6
	c-1.5,14-5.9,27.2-10.6,40.3c-0.4,1-1.3,2-2.2,2.7c-13.1,9.8-24.2,21.4-31.2,36.1c-0.1,0.2-0.2,0.5-0.4,0.8c-1,0.1-2,0.2-2.6,0.3
	c-23.5,3.5-47.1,6.4-70.5,10.7c-19.2,3.5-38.1,8.6-57.2,13.1c-1.7,0.4-3.3,1.6-5.2,2.5c0.7,0.7,0.9,1,1.2,1.3
	c3.2,2.8,6.7,1.3,9.9,0.4c33.3-10.1,67.2-18,101.6-23.1c6.8-1,13.6-1.9,20.7-2.9c0.4,0,0.8-0.1,1.1-0.1c-0.5,1.1-1,2.1-1.1,2.3
	c-4.2,9.4-6.8,19.2-7.7,29.5c-0.3,3.8-0.1,7.8,0.4,11.7c0.4,3.2,2.7,3.9,5.3,1.9c0.7-0.5,1.4-1.2,1.9-1.9c2.1-2.9,4.5-5.6,6.1-8.7
	c6-11.5,11.6-23.1,17.5-34.6c0.1-0.1,0.5-1.1,1.1-2.6c0.4,0,0.7-0.1,0.9-0.1c13.1-1.2,26.1-2.6,39.2-3.2c29.4-1.3,58.8-2.2,88.2-3.1
	c5.5-0.2,11,0,16.4,0C518.8,380.2,518.8,379.8,518.8,379.4z M383.2,353.8c-0.3,1-0.6,2-1,3c-3.5,9.1-7.1,18.1-10.5,27.2
	c-0.1,0.4-0.4,1-0.7,1.7c-1.1,0.1-1.9,0.2-3.1,0.3c-4.4,0.5-8.9,0.9-13.8,1.4C361.3,373.7,371.1,362.8,383.2,353.8z M370,388
	c-5.6,13.2-11.2,26-18.7,37.9c-1.5,2.3-3.1,4.5-4.8,6.6c-0.4,0.5-1.1,0.8-1.9,1.4c-1.8-4.6-1.5-9-1-13.4c1.3-9.9,3.9-19.5,8.2-28.5
	c0.3-0.7,0.6-1.3,1.2-2.6c0.1,0,0.2,0,0.4,0c5.2-0.7,10.5-1.3,16-1.9c0.2,0,0.5,0,0.7-0.1C370,387.7,369.9,388,370,388z
	 M551.7,406.4c0,1.9-1.4,3.5-4.3,3.5c-1.2,0-2.5-0.3-3.1-0.8l0.4-1.3c0.7,0.4,1.7,0.8,2.8,0.8c1.6,0,2.5-0.8,2.5-2.1
	c0-1.1-0.7-1.8-2.3-2.4c-2-0.7-3.2-1.7-3.2-3.5c0-1.9,1.6-3.3,3.9-3.3c1.2,0,2.1,0.3,2.7,0.6l-0.4,1.3c-0.4-0.2-1.2-0.6-2.3-0.6
	c-1.7,0-2.3,1-2.3,1.8c0,1.1,0.7,1.7,2.4,2.3C550.7,403.6,551.7,404.6,551.7,406.4z M561.4,397.4c-3.3,0-5.7,2.5-5.7,6.4
	c0,3.7,2.3,6.2,5.5,6.2c3.1,0,5.7-2.2,5.7-6.4C566.8,399.9,564.7,397.4,561.4,397.4z M561.3,408.7c-2.5,0-3.9-2.3-3.9-4.9
	c0-2.7,1.3-5.1,3.9-5.1c2.6,0,3.9,2.5,3.9,5C565.2,406.4,563.8,408.7,561.3,408.7z M578.8,397.6h1.6v7.1c0,3.7-2,5.3-4.6,5.3
	c-2.5,0-4.4-1.4-4.4-5.2v-7.2h1.6v7.2c0,2.7,1.2,3.9,2.8,3.9c1.8,0,3-1.2,3-3.9V397.6z M587.2,408.4h5.2v1.3h-6.8v-12.2h1.6V408.4z
	 M628.9,397.6l0.8,12.2h-1.5l-0.3-5.3c-0.1-1.7-0.2-3.7-0.2-5.3h-0.1c-0.4,1.4-0.9,2.9-1.5,4.6l-2.2,5.9h-1.2l-2-5.8
	c-0.6-1.7-1.1-3.3-1.4-4.7h0c0,1.5-0.1,3.6-0.2,5.4l-0.3,5.2h-1.5l0.8-12.2h2l2.1,5.9c0.5,1.5,0.9,2.8,1.2,4.1h0.1
	c0.3-1.2,0.7-2.6,1.3-4.1l2.2-5.9H628.9z M636.2,408.4h5.3v1.3h-6.8v-12.2h6.6v1.3h-5v3.8h4.7v1.3h-4.7V408.4z M652.8,406.4
	c0,1.9-1.4,3.5-4.3,3.5c-1.2,0-2.5-0.3-3.1-0.8l0.4-1.3c0.7,0.4,1.7,0.8,2.8,0.8c1.6,0,2.5-0.8,2.5-2.1c0-1.1-0.7-1.8-2.3-2.4
	c-2-0.7-3.2-1.7-3.2-3.5c0-1.9,1.6-3.3,3.9-3.3c1.2,0,2.1,0.3,2.7,0.6l-0.4,1.3c-0.4-0.2-1.2-0.6-2.3-0.6c-1.7,0-2.3,1-2.3,1.8
	c0,1.1,0.7,1.7,2.4,2.3C651.8,403.6,652.8,404.6,652.8,406.4z M664.3,406.4c0,1.9-1.4,3.5-4.3,3.5c-1.2,0-2.5-0.3-3.1-0.8l0.4-1.3
	c0.7,0.4,1.7,0.8,2.8,0.8c1.6,0,2.5-0.8,2.5-2.1c0-1.1-0.7-1.8-2.3-2.4c-2-0.7-3.2-1.7-3.2-3.5c0-1.9,1.6-3.3,3.9-3.3
	c1.2,0,2.1,0.3,2.7,0.6l-0.4,1.3c-0.4-0.2-1.2-0.6-2.3-0.6c-1.7,0-2.3,1-2.3,1.8c0,1.1,0.7,1.7,2.4,2.3
	C663.2,403.6,664.3,404.6,664.3,406.4z M670.5,408.4h5.3v1.3h-6.8v-12.2h6.6v1.3h-5v3.8h4.7v1.3h-4.7V408.4z M688,397.6h1.5v12.2
	h-1.6l-3.9-6.2c-0.8-1.4-1.7-2.7-2.3-4.1l-0.1,0c0.1,1.5,0.1,3,0.1,5v5.2h-1.5v-12.2h1.7l3.9,6.2c0.9,1.4,1.6,2.7,2.2,4l0,0
	c-0.1-1.6-0.2-3.1-0.2-5V397.6z M700,403.4h4v5.9c-0.7,0.3-2.1,0.7-3.7,0.7c-1.8,0-3.4-0.5-4.6-1.6c-1-1-1.7-2.6-1.7-4.5
	c0-3.6,2.5-6.3,6.6-6.3c1.4,0,2.5,0.3,3,0.6l-0.4,1.3c-0.7-0.3-1.5-0.5-2.7-0.5c-3,0-4.9,1.8-4.9,4.9c0,3.1,1.9,4.9,4.7,4.9
	c1,0,1.7-0.1,2.1-0.3v-3.6H700V403.4z M710.5,408.4h5.3v1.3H709v-12.2h6.6v1.3h-5v3.8h4.7v1.3h-4.7V408.4z M725.6,404L725.6,404
	c1.3-0.5,2.3-1.6,2.3-3.2c0-0.9-0.3-1.8-1-2.3c-0.8-0.7-1.8-1-3.5-1c-1.1,0-2.2,0.1-3,0.3v12h1.6v-5.3h1.5c1.4,0.1,2.1,0.7,2.4,2.4
	c0.3,1.5,0.6,2.6,0.8,2.9h1.6c-0.3-0.5-0.5-1.6-0.9-3.3C727.1,405.1,726.5,404.3,725.6,404z M723.6,403.3H722v-4.4
	c0.3-0.1,0.8-0.1,1.6-0.1c1.7,0,2.8,0.7,2.8,2.3C726.3,402.4,725.2,403.3,723.6,403.3z"/>
</svg>
