<?xml version="1.0" encoding="utf-8"?>
<!-- Generator: Adobe Illustrator 24.3.0, SVG Export Plug-In . SVG Version: 6.00 Build 0)  -->
<svg version="1.1" id="Layer_1" xmlns="http://www.w3.org/2000/svg" xmlns:xlink="http://www.w3.org/1999/xlink" x="0px" y="0px"
	 viewBox="0 0 864 864" style="enable-background:new 0 0 864 864;" xml:space="preserve">
<style type="text/css">
	.st0{fill:#CE2128;}
</style>
<g id="Jesse.james.ferrell">
	<path class="st0" d="M350,468.5c-4.7,12-7.4,24.8-8.9,37.9c-0.7,5.9-0.9,11.7,1,17.9c0.8-0.8,1.6-1.2,2-1.9
		c1.8-2.9,3.6-5.8,5.2-8.8c8.2-15.8,14.3-32.9,20.4-50.4c-6.1,0.8-11.8,1.5-17.5,2.5C351.4,465.9,350.4,467.4,350,468.5z"/>
	<path class="st0" d="M384.1,417.6c-13.3,12.3-24,27-32,45.6c5.7-0.7,10.8-1.6,15.9-2c2-0.2,2.9-1.2,3.6-3.4
		c3.8-12.1,7.6-24.1,11.5-36.2C383.4,420.3,383.7,419,384.1,417.6z"/>
	<path class="st0" d="M194,437.8c-19.4,25.3-30.7,55.2-34,89.7c-0.4,4.4,0.3,8.9,0.5,13.4c0.4,0.1,0.9,0.3,1.3,0.4
		c1.7-2.3,3.5-4.5,4.9-7c2.1-3.5,3.9-7.3,5.8-11c11.4-23.1,20.1-47.7,28.7-72.5c3.7-10.7,7.2-21.4,10.8-32.2
		c-0.3-0.3-0.6-0.6-0.9-0.9C205.4,424.4,199.4,430.7,194,437.8z"/>
	<path class="st0" d="M579.8,481.1c-3.3,0-5,3.1-5,6.5c0,3.3,1.8,6.3,4.9,6.3c3.2,0,5-2.9,5-6.4
		C584.8,484.3,583.2,481.1,579.8,481.1z"/>
	<path class="st0" d="M227.5,433.7c4.2-2.3,7.3-5.9,8-11.7C231.1,424.2,229,428.6,227.5,433.7z"/>
	<path class="st0" d="M570.6,345.7c0.4-8.4,0.7-17-0.1-25.3c-0.8-8.3-5.6-12.8-12-12.8c-2.7,0-5.6,0.6-8.2,1.6
		c-16.8,6.9-31.3,18.5-44.7,32.4c-1.5,1.6-2.7,3.8-3.8,6c-2.5,5.2-1.5,9.6,2.7,12.6c2.2,1.6,4.6,2.8,7,3.8c11,4.5,22.4,5.8,36.6,5.8
		c4.2-0.3,11.1-0.8,17.9-1.5c0.8-0.1,2-1.5,2.1-2.5C569.2,359.2,570.3,352.5,570.6,345.7z"/>
	<path class="st0" d="M431.7,48.6c-203,0-367.5,164.6-367.5,367.5s164.6,367.5,367.5,367.5s367.5-164.6,367.5-367.5
		S634.7,48.6,431.7,48.6z M409.3,422.5c0.1,0.5,0.2,0.9,0.3,1.5c1,0,2,0,3.8,0c-1.1,5.5-2.1,10.6-3.2,16.2c1.2-0.3,2-0.2,2.5-0.7
		c4.6-4.6,9.4-8.9,13.6-14c1.8-2.2,2.3-6.1,3.6-9c0.8-1.7,2-3.1,3.1-4.6c0.2,2,0.7,4.1,0.5,5.9c-0.5,3.5-1.5,6.9-2.4,10.9
		c3.2-4.3,6.1-8.3,9.2-12c0.9-1.1,2.4-1.6,3.7-2.4c0.2,1.8,1,3.7,0.6,5.3c-0.9,4.3-2.3,8.4-3.5,12.6c0.3,0.3,0.5,0.6,0.8,0.8
		c1.6-2.2,3.1-4.4,4.7-6.6c0.7-0.9,1.4-1.8,2.2-2.4c0.6-0.5,1.8-1,2.1-0.7c0.6,0.5,1,1.8,0.9,2.8c-0.1,2.5-0.5,5-0.8,8.2
		c1.7-0.5,2.9-0.7,4-1.2c5.7-2.7,10.1-7.5,14.3-12.8c1.8-2.3,3.9-4.1,6.7-3.9c2.9,0.3,4.1,2.6,2.6,5.7c-1.6,3.5-3.9,6.4-7.3,6.8
		c-2.7,0.3-3.4,2.4-3.9,5c-0.6,2.9,0.3,4.3,2.5,3.2c3.7-1.7,7.3-3.8,10.6-6.3c2.8-2,5.3-4.7,7.8-7.2c0.9-0.9,1.3-2.3,2.1-3.4
		c2.2-3.3,4.3-6.9,6.9-9.8c1.1-1.2,3.1-1.1,4.7-1.6c0.1,0.4,0.3,0.7,0.4,1.1c-2.4,3.5-4.7,7.1-7.1,10.6c-2,2.8-1.6,5.1-0.1,8.1
		c2.3,4.5,5.2,5.9,9.5,5.6c9.4-0.5,18.8-0.1,28.2,0c1,0,2.1,0.3,3.1,0.5c0,0.3,0,0.6,0,0.9c-4,0.4-7.9,0.8-11.9,1.3
		c-12.1,1.3-24.3,2.6-36.4,4c-0.8,0.1-1.7,0.3-2.3-0.1c-0.7-0.4-1.1-1.5-1.6-2.3c0.6-0.6,1.1-1.5,1.7-1.7c2.8-0.7,5.6-1.2,8.9-1.9
		c-1.8-2.9-3.4-5.4-5-8c-3.4,3.1-6.5,6.4-9.9,9c-2.8,2.2-5.8,4.2-9,5.4c-5.3,2.1-8.4-1.9-7.2-8.6c0.1-0.7,0.2-1.4,0.3-2.7
		c-1.9,1.5-3.4,2.8-5,4c-1.2,0.9-2.4,1.8-3.6,2.5c-5.2,2.7-7.2,1.2-7.6-6.4c-2.2,3.2-4.1,6-6.1,8.8c-1.5,2.1-3,5.5-5.7,3.5
		c-2.8-2.1-1.1-5.5-0.2-8.2c1.7-5,3.7-9.8,5-15.2c-3.6,5.8-7.3,11.5-10.9,17.3c-1.2,1.9-2.2,4-3.6,5.8c-0.6,0.8-1.8,0.9-2.8,1.3
		c-0.3-1.2-0.9-2.4-0.8-3.6c0.1-1.6,0.8-3.2,1.5-5.6c-2.8,2.5-5,4.6-7.3,6.5c-2.3,1.9-4.8,5-7.7,2.6c-2.9-2.3-1.6-6.1-1.2-9.4
		c0-0.4,0-0.7,0-1.6c-3.1,3.2-5.9,6.1-8.8,9c-0.9,0.9-1.9,1.8-2.8,2.7c-1.7,1.5-3.4,2.6-5.4,0.8c-1.9-1.8-1.6-4.3-1-6.7
		c2.1-7.5,5.5-14,10.3-19.3C404.1,414,407.9,415.5,409.3,422.5z M240.3,423.3c-1.4,8-7.2,14.7-13.8,15.9c-0.6,0.1-1.6,0.5-1.7,1
		c-0.8,3.6-1.7,7.2-2,10.9c-0.2,2.4,1.5,3,3.1,1.8c3.5-2.6,7.1-4.9,10.2-8c5.8-5.8,11.4-12,17-18.2c1-1.1,1.7-2.7,2.2-4.2
		c1.9-5.7,5-10.2,9.4-13.1c1.1-0.7,2.4-1.3,3.6-1.4c0.8-0.1,2.1,0.6,2.5,1.4c0.3,0.8,0,2.5-0.5,3.2c-1.6,2.1-3.5,3.9-5.9,6.6
		c0.5-1.9,0.8-2.9,1.1-3.9c-0.3,0.1-0.6,0.2-0.8,0.4c-6.1,6.1-6.6,16-1.1,22.1c1.5,1.6,2.7,1.9,4.4,0.4c3.3-2.9,6.8-5.5,10.1-8.4
		c1-0.9,1.7-2.6,2.5-3.8c2.1-3.2,4-6.6,6.4-9.3c0.8-0.9,3,0,4.5,0c-0.4,1.5-0.6,3.2-1.3,4.3c-1.4,2-3.3,3.5-4.6,5.6
		c-0.7,1-0.7,2.9-0.6,4.4c0.1,1.1,0.9,2.2,1.5,3.1c1.1,1.5,2.4,4.2,3.5,4.1c2.4-0.1,4.3-2.1,5.2-5.2c1.7-5.9,5.2-10,9.9-12.4
		c1.9-1,4.3-2.7,5.5,0.1c0.5,1.2-0.9,4.4-2.1,6c-2.1,2.8-4.8,5.1-7.2,7.6c-0.9,0.9-1.7,1.9-3.1,3.5c1.8,0.8,3.1,1.8,4.3,1.8
		c15.2-0.4,29.7-4,41.9-16.2c0.9-0.9,1.6-2,2.9-2.6c-0.4,1-0.8,2.1-1.3,2.9c-3.7,5.7-8.6,9.6-14.1,12.4c-8.7,4.5-17.8,7.6-27.2,8.5
		c-3.9,0.4-7.5-0.5-10.3-5.8c-1.7,2.2-3.3,3.8-4.4,5.8c-1.4,2.4-6.3,4.2-8.3,2.5c-1.5-1.3-1-2.8,0.1-3.9c0.9-0.9,2-1.4,3.2-2.2
		c-1.6-3-3.2-5.9-4.9-9c-3.2,2.8-6.2,5.3-9.2,7.9c-0.7,0.6-1.4,1.3-2.1,1.9c2.3,5.4,1.9,6.5-2.9,8.2c-2.6,0.9-5.2,1.7-7.8,2.2
		c-0.9,0.2-1.9-0.7-2.8-1.1c0.4-1.2,0.5-2.7,1.2-3.4c1.4-1.6,3.1-2.9,4.3-3.9c-2.5-4.7-4.8-9.1-7.2-13.6c-1.2,1.6-2.8,3.9-4.6,5.9
		c-5,5.7-10.1,11.3-15.2,16.8c-1.8,1.9-3.9,3.4-6,4.7c-5.6,3.6-10.6-0.1-9.9-7.8c0.5-5.1,1.7-10.3,3.4-14.9
		c1.8-4.9,4.5-9.5,7.3-13.7c1.5-2.2,3.8-4,6-4.9C238.3,415.1,241.1,418.8,240.3,423.3z M166.9,539.9c-1.4,2.6-3.3,5.4-6.3,4.4
		c-3-1-2.7-4.8-2.8-7.7c-0.7-14.5,2.1-28.4,5.7-42.1c8.5-32,24.1-57.9,46.1-78c3-2.7,5-5.9,6.2-10.2c5.3-17.5,10.3-35.1,13.1-53.5
		c1.2-8.2,1.7-16.4,0-24.5c-1.8-8.4-6-12.7-13-13.6c-9.8-1.3-19.2,1.4-28.1,5.9c-32,16-56.9,42.2-74,79.1c-3,6.4-4.8,13.9-6,21.1
		c-2,11.7,2.4,20.7,11.3,25.5c2.3,1.2,4.8,2.2,7.1,3.3c-12.5-0.4-22-11.1-21.1-27.2c0.6-10.7,3.7-20.4,8.1-29.4
		c19.4-39.4,46.3-67.9,82.4-82.2c7.4-2.9,15.1-3.8,22.9-2.2c8.6,1.7,13.4,8.1,15.5,18.1c2.3,11.3,1.5,22.5-1,33.5
		c-3.2,14.1-7,28-10.6,42c-0.4,1.6-0.9,3.1-1.6,5.2c2.9-0.7,5.5-1.3,8-1.9c0.1,0.3,0.2,0.5,0.3,0.8c-2,1-3.9,2.2-5.9,3
		c-2.5,1.1-4,3-5,6.1c-11.1,33.2-22.6,66.2-36.8,97.6C177.1,522.3,171.8,531,166.9,539.9z M514.3,454.1c-32,1.3-64,2.4-96,4.2
		c-14.2,0.8-28.5,2.7-42.7,4.3c-1,0.1-2.2,1.7-2.7,2.9c-6.4,15.3-12.5,30.8-19,46c-1.8,4.2-4.4,7.8-6.7,11.6c-0.6,1-1.3,1.9-2.1,2.6
		c-2.9,2.7-5.4,1.8-5.8-2.5c-0.5-5.1-0.8-10.4-0.4-15.5c1-13.6,3.8-26.7,8.4-39.2c0.2-0.5,0.3-1.1,0.6-2.2
		c-7.7,1.3-15.1,2.6-22.5,3.9c-37.5,6.8-74.3,17.2-110.6,30.7c-3.5,1.3-7.3,3.2-10.7-0.5c-0.3-0.3-0.5-0.7-1.3-1.7
		c2-1.2,3.7-2.7,5.6-3.3c20.7-6,41.3-12.8,62.2-17.4c25.4-5.7,51.1-9.5,76.7-14.2c1-0.2,2.2-1.2,2.7-2.2c8.4-19.2,19.8-35.1,34-48
		c1-0.9,2-2.2,2.4-3.6c5.1-17.5,10-35.1,11.6-53.6c0.4-4.6,0.2-9.5-0.5-14.1c-1.4-9.7-6.2-14.2-14.4-14.4
		c-8.3-0.2-16.2,2.3-23.7,6.2c-28.1,14.6-50.1,37.7-65.2,70.4c-0.2,0.4-0.4,0.8-0.7,1.4c-2.7-0.4-2-2.1-1.3-3.9
		c4.8-12.1,11.4-22.7,18.9-32.4c14.2-18.3,30.4-33.2,50-42.1c8.1-3.7,16.3-5.9,25-4.8c7.7,1,12.8,5.8,15.2,14.9
		c2.6,9.9,2,20,0.1,29.8c-2.4,12-5.4,23.8-8.2,35.7c-0.3,1.2-0.6,2.4-1.1,4.1c2.7-0.8,4.9-1.4,7.2-2c0.1,0.3,0.2,0.5,0.3,0.8
		c-1.9,1-3.9,1.8-5.6,3c-1.3,0.9-2.9,2.1-3.4,3.7c-5.2,15.7-10.2,31.5-15.5,47.7c52.3-5.7,104.7-8.7,157.1-7.8c0,0.6,0,1.1,0,1.7
		C526.2,454.1,520.3,453.9,514.3,454.1z M563.6,495.5c-1.5,0-3.1-0.4-4-1l0.5-1.7c0.9,0.6,2.2,1,3.6,1c2,0,3.2-1.1,3.2-2.6
		c0-1.4-0.8-2.3-2.9-3.1c-2.5-0.9-4.1-2.2-4.1-4.4c0-2.4,2-4.2,5-4.2c1.6,0,2.7,0.4,3.4,0.8l-0.6,1.6c-0.5-0.3-1.5-0.7-2.9-0.7
		c-2.1,0-2.9,1.3-2.9,2.3c0,1.4,0.9,2.2,3.1,3c2.6,1,4,2.3,4,4.6C569.1,493.4,567.3,495.5,563.6,495.5z M579.7,495.5
		c-4.1,0-7-3.2-7-7.9c0-4.9,3.1-8.1,7.2-8.1c4.2,0,7,3.2,7,7.8C586.9,492.7,583.6,495.5,579.7,495.5z M602.7,488.8
		c0,4.8-2.5,6.7-5.9,6.7c-3.2,0-5.6-1.8-5.6-6.6v-9.1h2v9.2c0,3.5,1.5,4.9,3.6,4.9c2.3,0,3.8-1.5,3.8-4.9v-9.2h2V488.8z
		 M599.3,418.9c-12.2,0.5-24.4,1.2-36.5,1.6c-2.2,0.1-3.2,1.1-3.9,3.7c-8.6,31.9-17.2,63.7-25.8,95.5c-0.2,0.7-0.4,1.3-0.7,2
		c-3-0.4-3.6-2.2-2.9-5.6c6.3-30.6,14.9-60.3,23.8-89.8c0.4-1.5,0.8-2.9,1.4-5c-3.8,0.4-7.3,0.9-10.8,1c-3.2,0.1-6.8,2.4-10-2.7
		c4.1-0.6,7.6-1.1,11-1.5c3.1-0.4,6.1-0.5,9.2-0.9c0.9-0.1,2.1-0.9,2.4-1.8c3.3-8,9.5-33.8,10.6-43.5c-4.8,0.3-9.5,0.7-14.2,0.9
		c-14.6,0.6-28.9-0.7-42.7-7.2c-3.2-1.5-6.4-3.4-9.1-5.9c-4.1-3.6-4.8-8.8-2.4-14.2c1.1-2.5,2.7-4.8,4.4-6.8
		c11.8-13.4,25.5-23.4,40.5-30.5c3.6-1.7,7.7-2.7,11.6-3c10.9-0.7,18.7,7.5,19,20.9c0.2,10.8-0.9,21.7-1.4,32.6
		c-0.1,1.3-0.2,2.6,0.2,4.1c1.5-4.7,2.9-9.3,4.4-14c1.4-4.6,2.9-9.2,4.3-13.9c2.6,0.6,3.2,2,2.3,5c-2.7,8.8-5.2,17.7-7.9,26.9
		c1.8,0,3.4,0.1,5,0c23.3-1.9,46.7-3.9,70-5.7c6.8-0.5,13.7-0.6,20.5-0.7c1.4,0,2.7,0.9,4.1,1.4c-0.1,0.5-0.1,0.9-0.2,1.4
		c-3.1,0.2-6.2,0.5-9.2,0.7c-28.4,2.2-56.7,4.6-85.1,6.3c-5.4,0.3-7.4,2.7-9,8.5c-3.1,11.5-6.9,22.7-10.3,34.1
		c-0.3,1.1-0.5,2.3-0.8,3.8c17.4-0.1,34.6-1.3,51.7,0.1c0,0.7,0,1.4,0,2.1C608.3,418.9,603.8,418.8,599.3,418.9z M616.7,495.2H608
		v-15.5h2v13.8h6.6V495.2z M640.9,495.2l-0.4-6.8c-0.1-2.2-0.3-4.8-0.2-6.7h-0.1c-0.5,1.8-1.2,3.7-2,5.9l-2.7,7.5H634l-2.5-7.4
		c-0.7-2.2-1.4-4.2-1.8-6h0c0,1.9-0.2,4.5-0.3,6.9l-0.4,6.6H627l1.1-15.5h2.6l2.6,7.5c0.6,1.9,1.2,3.6,1.6,5.2h0.1
		c0.4-1.6,0.9-3.3,1.6-5.2l2.8-7.5h2.6l1,15.5H640.9z M656.5,495.2h-8.7v-15.5h8.4v1.7h-6.4v4.9h6v1.7h-6v5.6h6.7V495.2z
		 M664.1,495.5c-1.5,0-3.1-0.4-4-1l0.5-1.7c0.9,0.6,2.2,1,3.6,1c2,0,3.2-1.1,3.2-2.6c0-1.4-0.8-2.3-2.9-3.1
		c-2.5-0.9-4.1-2.2-4.1-4.4c0-2.4,2-4.2,5-4.2c1.6,0,2.7,0.4,3.4,0.8l-0.6,1.6c-0.5-0.3-1.5-0.7-2.9-0.7c-2.1,0-2.9,1.3-2.9,2.3
		c0,1.4,0.9,2.2,3.1,3c2.6,1,4,2.3,4,4.6C669.5,493.4,667.8,495.5,664.1,495.5z M677.3,495.5c-1.5,0-3.1-0.4-4-1l0.5-1.7
		c0.9,0.6,2.2,1,3.6,1c2,0,3.2-1.1,3.2-2.6c0-1.4-0.8-2.3-2.9-3.1c-2.5-0.9-4.1-2.2-4.1-4.4c0-2.4,2-4.2,5-4.2
		c1.6,0,2.7,0.4,3.4,0.8l-0.6,1.6c-0.5-0.3-1.5-0.7-2.9-0.7c-2.1,0-2.9,1.3-2.9,2.3c0,1.4,0.9,2.2,3.1,3c2.6,1,4,2.3,4,4.6
		C682.7,493.4,681,495.5,677.3,495.5z M696,495.2h-8.7v-15.5h8.4v1.7h-6.4v4.9h6v1.7h-6v5.6h6.7V495.2z M712.1,495.2h-2l-4.9-7.9
		c-1.1-1.7-2.1-3.5-2.9-5.2l-0.1,0c0.1,2,0.2,3.8,0.2,6.4v6.6h-1.9v-15.5h2.2l5,7.8c1.1,1.8,2,3.4,2.8,5l0,0c-0.2-2.1-0.2-4-0.2-6.4
		v-6.5h1.9V495.2z M729.2,494.5c-0.9,0.3-2.7,0.9-4.8,0.9c-2.3,0-4.3-0.6-5.8-2c-1.3-1.3-2.2-3.4-2.2-5.8c0-4.6,3.2-8,8.4-8
		c1.8,0,3.2,0.4,3.9,0.7l-0.5,1.6c-0.8-0.4-1.9-0.7-3.4-0.7c-3.8,0-6.2,2.3-6.2,6.2c0,3.9,2.4,6.3,6,6.3c1.3,0,2.2-0.2,2.7-0.4v-4.6
		h-3.2v-1.6h5.1V494.5z M742.8,495.2h-8.7v-15.5h8.4v1.7h-6.4v4.9h6v1.7h-6v5.6h6.7V495.2z M755.3,495.2c-0.3-0.4-0.6-1.8-1-3.7
		c-0.5-2.1-1.3-2.9-3.1-3h-1.9v6.7h-2v-15.3c1-0.2,2.5-0.3,3.8-0.3c2.1,0,3.5,0.4,4.5,1.3c0.8,0.7,1.2,1.7,1.2,2.9
		c0,2-1.3,3.4-2.9,4v0.1c1.2,0.4,1.9,1.5,2.3,3.1c0.5,2.2,0.9,3.7,1.2,4.3H755.3z M728.1,443.1c-3.7,1-7.1,0.4-9.8-3.8
		c-2.2,3.1-4.1,6.2-6.3,8.9c-3.2,4-6.5,7.7-9.9,11.5c-1.6,1.8-3.8,2.5-5.4,0.6c-1.1-1.4-2-4.2-1.6-6c1.3-5.9,3.2-11.7,4.9-17.5
		c0.3-1.1,0.7-2.1,0.7-3.7c-1.7,1.3-3.4,2.7-5.2,3.8c-2.9,1.8-5.8,3.7-8.9,4.8c-5.9,2-8.1,0.1-9.4-7.8c-1.6,1.4-3,3-4.5,4
		c-2.8,1.8-5.5,3.8-8.5,4.8c-3.4,1.1-5.3-1.7-4.6-5.9c0.3-1.9,1-3.7,1.3-5.6c0.2-1.1-0.2-2.2-0.4-4c-3.2,3.8-5.6,7.2-8.4,10
		c-2.6,2.6-5.4,4.9-8.5,6.5c-1.5,0.8-4.2,0.4-5.3-0.8c-0.9-1-0.6-4.1-0.4-6.2c0.2-1.6,1.3-3.1,1.5-4.7c0.2-1.5-0.2-3-0.2-4
		c-3.3,3.5-6.3,6.6-9.2,9.9c-4,4.5-8.3,8.3-13.5,10.2c-5.8,2-9.8-2.4-8.6-9.6c1.6-9,5.9-15.8,12-20.9c1.2-1,3.5-1.1,4.9-0.3
		c0.8,0.4,1,3.5,0.8,5.2c-0.9,6.3-5.2,11-10.3,11.8c-2,0.3-3.7,4-3.3,7.3c0.4,3.5,2.6,2.5,4.2,2c8.3-3,14.4-9.9,19.5-18.1
		c0.7-1.1,0.5-3.2,1.1-4.4c1.4-2.8,3-5.5,4.8-8c0.5-0.7,2-0.3,3-0.4c-0.1,1.2,0.2,2.7-0.2,3.7c-0.9,2.2-2.2,4.3-3.5,6.7
		c6,5.4,2.4,11.3-0.1,18.3c2.9-1.7,5.2-2.4,7-4.1c3.3-3.2,6.4-6.9,9.5-10.5c0.6-0.7,1-2.1,1.1-3.2c0.2-4,2.2-6.4,4.7-8.3
		c0.6-0.5,1.8-0.4,2.4,0.1c0.3,0.2,0.4,1.9,0.1,2.6c-0.8,2-1.9,3.9-3,6.1c5.4,4.4,1.2,9.7,0.7,15.3c1-0.2,1.7-0.2,2.4-0.5
		c6.7-2.8,12.1-7.7,16-14.9c1.3-2.3,2.7-4.5,4.4-6.4c1-1.2,2.5-2,3.9-2.3c2.8-0.6,4.4,1.8,3.4,5.1c-1.4,4.6-3.8,8.1-7.9,9.6
		c-1.2,0.5-2.6,1.8-3.1,3.2c-1.4,3.8,0.2,6.2,3.5,5.1c9.5-3,17.7-7.9,22-19.9c4.4-12.4,9.3-24.6,14.1-36.9c0.5-1.4,1.6-2.4,2.5-3.7
		c2.1,2.4,1.3,4.4,0.6,6.4c-7.3,19.9-14.7,39.7-22,59.6c-1.5,4-2.6,8.2-4,12.3c0.4,0.3,0.8,0.7,1.2,1c3.3-3.7,6.7-7.3,10-11.1
		c1.5-1.7,2.7-3.9,4.1-5.7c2.3-3,3.5-6.5,4.1-10.6c1.6-10.7,6.2-19.6,12.1-27.5c0.9-1.1,1.9-2.2,3.1-2.8c0.8-0.4,2.2-0.4,2.7,0.1
		c0.5,0.6,0.7,2.3,0.4,3.2c-1.2,3.4-2.5,6.9-4.1,10.1c-2.9,6-6.2,11.8-9.1,17.9c-0.8,1.7-1.5,4.5-0.9,5.9c0.6,1.3,3.1,2.1,4.6,1.9
		c9.8-1.6,19.6-3.6,29.4-5.5c2.9-0.6,5.8-1.3,8.7-1.9c0.1,0.3,0.1,0.6,0.2,0.9c-0.8,0.4-1.5,0.9-2.3,1.1
		C751.2,436.5,739.7,439.9,728.1,443.1z"/>
	<path class="st0" d="M732.3,407.1c-0.3-0.2-0.7-0.5-1-0.7c-2.2,4.8-4.4,9.5-6.7,14.3c0.3,0.2,0.6,0.4,0.9,0.6
		C727.8,416.6,730,411.8,732.3,407.1z"/>
	<path class="st0" d="M403.7,430.6c2.6-2.6,2.8-4.7,0.7-9c-4.7,4.6-7.6,10.3-9.5,17C398,436.1,400.9,433.4,403.7,430.6z"/>
	<path class="st0" d="M621.7,420.6c-2.2,3.1-4.2,5.8-6.5,9C619.6,428.5,622,425.2,621.7,420.6z"/>
	<path class="st0" d="M751.3,481.2c-1,0-1.7,0.1-2,0.2v5.7h2c2.1,0,3.5-1.2,3.5-2.9C754.8,482,753.4,481.2,751.3,481.2z"/>
</g>
</svg>
