<?xml version="1.0" encoding="utf-8"?>
<!-- Generator: Adobe Illustrator 24.3.0, SVG Export Plug-In . SVG Version: 6.00 Build 0)  -->
<svg version="1.1" id="Layer_1" xmlns="http://www.w3.org/2000/svg" xmlns:xlink="http://www.w3.org/1999/xlink" x="0px" y="0px"
	 viewBox="0 0 864 864" style="enable-background:new 0 0 864 864;" xml:space="preserve">
<style type="text/css">
	.st0{fill:#CE2128;}
</style>
<path id="Jesse.james_ferrell" class="st0" d="M808.4,421.9c0,203-164.6,367.5-367.5,367.5S73.3,624.9,73.3,421.9
	S237.9,54.3,440.9,54.3S808.4,218.9,808.4,421.9z M303.2,410.1c15.1-32.6,37.1-55.8,65.2-70.4c7.5-3.9,15.4-6.4,23.7-6.2
	c8.2,0.2,12.9,4.7,14.4,14.4c0.7,4.6,0.9,9.5,0.5,14.1c-1.6,18.6-6.4,36.2-11.6,53.6c-0.4,1.4-1.4,2.7-2.4,3.6
	c-14.2,13-25.6,28.9-34,48c-0.5,1-1.7,2-2.7,2.2c-25.6,4.7-51.2,8.5-76.7,14.2c-20.9,4.7-41.5,11.5-62.2,17.4
	c-1.9,0.5-3.6,2.1-5.6,3.3c0.7,1,1,1.4,1.3,1.7c3.5,3.7,7.3,1.8,10.7,0.5c36.3-13.5,73.1-23.9,110.6-30.7c7.4-1.3,14.8-2.6,22.5-3.9
	c-0.3,1.1-0.4,1.7-0.6,2.2c-4.6,12.5-7.4,25.6-8.4,39.2c-0.4,5.1-0.1,10.4,0.4,15.5c0.4,4.3,3,5.2,5.8,2.5c0.8-0.7,1.5-1.6,2.1-2.6
	c2.3-3.8,4.9-7.4,6.7-11.6c6.5-15.3,12.6-30.7,19-46c0.5-1.3,1.7-2.8,2.7-2.9c14.2-1.6,28.4-3.5,42.7-4.3c32-1.7,64-2.9,96-4.2
	c6-0.2,11.9,0,17.9,0c0-0.6,0-1.1,0-1.7c-52.5-0.9-104.8,2-157.1,7.8c5.2-16.2,10.3-32,15.5-47.7c0.5-1.6,2.1-2.8,3.4-3.7
	c1.8-1.2,3.7-2.1,5.6-3c-0.1-0.3-0.2-0.5-0.3-0.8c-2.3,0.6-4.5,1.3-7.2,2c0.4-1.7,0.8-2.9,1.1-4.1c2.8-11.9,5.8-23.7,8.2-35.7
	c1.9-9.8,2.5-19.9-0.1-29.8c-2.4-9.1-7.5-14-15.2-14.9c-8.7-1.1-17,1.1-25,4.8c-19.5,8.9-35.7,23.8-50,42.1
	c-7.6,9.7-14.1,20.3-18.9,32.4c-0.7,1.8-1.4,3.4,1.3,3.9C302.8,410.9,303,410.5,303.2,410.1z M358.4,519.4c-1.6,3-3.4,5.9-5.2,8.8
	c-0.4,0.7-1.2,1.1-2,1.9c-1.9-6.1-1.7-12-1-17.9c1.5-13.2,4.2-25.9,8.9-37.9c0.5-1.2,1.4-2.7,2.3-2.8c5.7-1,11.4-1.7,17.5-2.5
	C372.7,486.5,366.7,503.6,358.4,519.4z M393.2,423.3c-0.4,1.3-0.7,2.7-1.1,4c-3.8,12.1-7.7,24.1-11.5,36.2c-0.7,2.2-1.5,3.2-3.6,3.4
	c-5.1,0.4-10.2,1.3-15.9,2C369.1,450.4,379.8,435.6,393.2,423.3z M128.1,451.9c-8.9-4.8-13.3-13.8-11.3-25.5c1.2-7.3,3-14.7,6-21.1
	c17-36.9,42-63.1,74-79.1c8.9-4.5,18.3-7.2,28.1-5.9c7,0.9,11.2,5.2,13,13.6c1.8,8.2,1.3,16.4,0,24.5c-2.8,18.4-7.8,36-13.1,53.5
	c-1.3,4.3-3.3,7.4-6.2,10.2c-22,20.1-37.6,46-46.1,78c-3.6,13.6-6.4,27.5-5.7,42.1c0.1,2.9-0.2,6.7,2.8,7.7c2.9,1,4.8-1.8,6.3-4.4
	c5-8.9,10.3-17.6,14.5-27c14.2-31.4,25.7-64.4,36.8-97.6c1-3.1,2.5-5.1,5-6.1c2-0.8,3.9-2,5.9-3c-0.1-0.3-0.2-0.5-0.3-0.8
	c-2.6,0.6-5.1,1.2-8,1.9c0.6-2,1.1-3.6,1.6-5.2c3.6-14,7.4-27.9,10.6-42c2.5-10.9,3.3-22.2,1-33.5c-2-10-6.9-16.4-15.5-18.1
	c-7.8-1.6-15.5-0.7-22.9,2.2c-36.1,14.3-63,42.9-82.4,82.2c-4.4,9-7.5,18.7-8.1,29.4c-0.9,16,8.6,26.7,21.1,27.2
	C132.9,454.1,130.4,453.1,128.1,451.9z M210.3,456.5c-8.6,24.7-17.3,49.4-28.7,72.5c-1.8,3.7-3.7,7.5-5.8,11c-1.5,2.5-3.3,4.7-4.9,7
	c-0.4-0.1-0.9-0.3-1.3-0.4c-0.2-4.5-0.9-9-0.5-13.4c3.2-34.4,14.6-64.4,34-89.7c5.4-7,11.4-13.4,17.1-20.1c0.3,0.3,0.6,0.6,0.9,0.9
	C217.5,435.1,214,445.8,210.3,456.5z M621.9,422.5c-17.1-1.4-34.3-0.2-51.7-0.1c0.3-1.5,0.5-2.6,0.8-3.8
	c3.5-11.3,7.3-22.6,10.3-34.1c1.6-5.8,3.6-8.2,9-8.5c28.4-1.7,56.8-4.1,85.1-6.3c3.1-0.2,6.2-0.5,9.2-0.7c0.1-0.5,0.1-0.9,0.2-1.4
	c-1.4-0.5-2.8-1.4-4.1-1.4c-6.8,0.1-13.7,0.2-20.5,0.7c-23.3,1.8-46.7,3.8-70,5.7c-1.6,0.1-3.2,0-5,0c2.7-9.1,5.2-18.1,7.9-26.9
	c0.9-2.9,0.3-4.3-2.3-5c-1.4,4.6-2.9,9.3-4.3,13.9c-1.5,4.7-2.9,9.4-4.4,14c-0.5-1.5-0.3-2.8-0.2-4.1c0.5-10.9,1.6-21.8,1.4-32.6
	c-0.3-13.4-8.1-21.6-19-20.9c-3.9,0.2-7.9,1.3-11.6,3c-15,7.1-28.7,17.1-40.5,30.5c-1.7,1.9-3.2,4.3-4.4,6.8
	c-2.5,5.4-1.7,10.6,2.4,14.2c2.8,2.4,5.9,4.4,9.1,5.9c13.7,6.5,28.1,7.8,42.7,7.2c4.7-0.2,9.4-0.6,14.2-0.9
	c-1.1,9.7-7.4,35.5-10.6,43.5c-0.4,0.9-1.6,1.7-2.4,1.8c-3,0.5-6.1,0.6-9.2,0.9c-3.5,0.4-6.9,0.9-11,1.5c3.3,5,6.8,2.8,10,2.7
	c3.5-0.2,7-0.7,10.8-1c-0.6,2.1-1,3.6-1.4,5c-8.9,29.6-17.6,59.2-23.8,89.8c-0.7,3.3-0.1,5.1,2.9,5.6c0.2-0.7,0.5-1.3,0.7-2
	c8.6-31.8,17.3-63.7,25.8-95.5c0.7-2.6,1.7-3.6,3.9-3.7c12.2-0.4,24.4-1.1,36.5-1.6c4.5-0.2,9,0,13.5,0
	C621.9,423.9,621.9,423.2,621.9,422.5z M520.8,369.8c-2.4-1-4.8-2.2-7-3.8c-4.2-3-5.2-7.5-2.7-12.6c1-2.2,2.2-4.4,3.8-6
	c13.4-13.9,27.9-25.5,44.7-32.4c2.6-1.1,5.4-1.6,8.2-1.6c6.4,0,11.3,4.5,12,12.8c0.8,8.3,0.5,16.9,0.1,25.3
	c-0.3,6.7-1.4,13.5-2.4,20.1c-0.1,1-1.3,2.5-2.1,2.5c-6.8,0.7-13.6,1.2-17.9,1.5C543.2,375.6,531.8,374.3,520.8,369.8z M774,436.8
	c-2.9,0.6-5.8,1.3-8.7,1.9c-9.8,1.9-19.5,3.8-29.4,5.5c-1.5,0.2-4-0.6-4.6-1.9c-0.6-1.4,0.1-4.2,0.9-5.9c2.9-6.1,6.1-11.9,9.1-17.9
	c1.6-3.2,2.9-6.6,4.1-10.1c0.3-0.9,0.1-2.7-0.4-3.2c-0.5-0.6-1.9-0.6-2.7-0.1c-1.1,0.6-2.2,1.7-3.1,2.8
	c-5.9,7.9-10.5,16.8-12.1,27.5c-0.6,4.1-1.8,7.6-4.1,10.6c-1.4,1.8-2.6,4-4.1,5.7c-3.3,3.8-6.6,7.4-10,11.1c-0.4-0.3-0.8-0.7-1.2-1
	c1.3-4.1,2.5-8.3,4-12.3c7.3-19.9,14.7-39.7,22-59.6c0.7-2,1.6-4-0.6-6.4c-0.9,1.3-2,2.3-2.5,3.7c-4.8,12.3-9.7,24.4-14.1,36.9
	c-4.3,12-12.5,17-22,19.9c-3.3,1-4.9-1.3-3.5-5.1c0.5-1.4,1.9-2.7,3.1-3.2c4.1-1.6,6.5-5,7.9-9.6c1-3.3-0.6-5.7-3.4-5.1
	c-1.4,0.3-2.9,1.2-3.9,2.3c-1.7,1.9-3.1,4.1-4.4,6.4c-4,7.2-9.4,12.1-16,14.9c-0.7,0.3-1.4,0.3-2.4,0.5c0.4-5.5,4.6-10.9-0.7-15.3
	c1.1-2.2,2.2-4.1,3-6.1c0.3-0.7,0.2-2.4-0.1-2.6c-0.6-0.4-1.8-0.5-2.4-0.1c-2.5,1.9-4.5,4.3-4.7,8.3c-0.1,1.1-0.5,2.5-1.1,3.2
	c-3.1,3.6-6.1,7.3-9.5,10.5c-1.8,1.7-4.1,2.5-7,4.1c2.4-7,6-12.9,0.1-18.3c1.3-2.4,2.6-4.4,3.5-6.7c0.4-1,0.2-2.5,0.2-3.7
	c-1,0.1-2.5-0.3-3,0.4c-1.8,2.5-3.4,5.2-4.8,8c-0.6,1.3-0.4,3.3-1.1,4.4c-5.1,8.2-11.2,15.1-19.5,18.1c-1.6,0.6-3.8,1.5-4.2-2
	c-0.4-3.4,1.3-7,3.3-7.3c5.2-0.8,9.4-5.5,10.3-11.8c0.2-1.7,0-4.7-0.8-5.2c-1.3-0.7-3.7-0.7-4.9,0.3c-6.1,5.1-10.4,11.9-12,20.9
	c-1.2,7.1,2.8,11.6,8.6,9.6c5.3-1.9,9.6-5.7,13.5-10.2c2.9-3.3,6-6.4,9.2-9.9c0.1,1,0.5,2.6,0.2,4c-0.2,1.6-1.3,3.1-1.5,4.7
	c-0.2,2.1-0.6,5.2,0.4,6.2c1.2,1.2,3.8,1.6,5.3,0.8c3-1.6,5.9-4,8.5-6.5c2.8-2.8,5.2-6.2,8.4-10c0.2,1.8,0.5,2.9,0.4,4
	c-0.3,1.9-1,3.7-1.3,5.6c-0.7,4.3,1.2,7,4.6,5.9c3-1,5.8-3,8.5-4.8c1.6-1,2.9-2.6,4.5-4c1.3,7.9,3.5,9.8,9.4,7.8
	c3.1-1.1,6-3.1,8.9-4.8c1.8-1.1,3.5-2.5,5.2-3.8c0.1,1.5-0.4,2.6-0.7,3.7c-1.7,5.8-3.6,11.5-4.9,17.5c-0.4,1.7,0.5,4.6,1.6,6
	c1.5,1.9,3.8,1.2,5.4-0.6c3.4-3.7,6.7-7.5,9.9-11.5c2.2-2.7,4.1-5.8,6.3-8.9c2.7,4.3,6.1,4.9,9.8,3.8c11.6-3.2,23.1-6.6,34.7-10
	c0.8-0.2,1.6-0.8,2.3-1.1C774.2,437.4,774.1,437.1,774,436.8z M630.9,426.3c0.3,4.6-2.1,7.9-6.5,9
	C626.6,432.1,628.6,429.4,630.9,426.3z M734.6,427c-0.3-0.2-0.6-0.4-0.9-0.6c2.2-4.8,4.4-9.5,6.7-14.3c0.3,0.2,0.7,0.5,1,0.7
	C739.1,417.5,736.9,422.3,734.6,427z M545.1,440.4c-1-0.2-2.1-0.5-3.1-0.5c-9.4-0.1-18.8-0.5-28.2,0c-4.4,0.2-7.2-1.1-9.5-5.6
	c-1.5-3-1.9-5.3,0.1-8.1c2.5-3.4,4.7-7,7.1-10.6c-0.1-0.4-0.3-0.7-0.4-1.1c-1.6,0.5-3.6,0.4-4.7,1.6c-2.5,2.9-4.6,6.5-6.9,9.8
	c-0.7,1.1-1.2,2.6-2.1,3.4c-2.5,2.6-5,5.2-7.8,7.2c-3.4,2.4-7,4.5-10.6,6.3c-2.3,1.1-3.1-0.3-2.5-3.2c0.5-2.5,1.2-4.6,3.9-5
	c3.4-0.4,5.6-3.4,7.3-6.8c1.5-3.1,0.3-5.5-2.6-5.7c-2.9-0.3-4.9,1.5-6.7,3.9c-4.2,5.3-8.6,10.1-14.3,12.8c-1.1,0.5-2.3,0.7-4,1.2
	c0.3-3.2,0.7-5.7,0.8-8.2c0-0.9-0.4-2.2-0.9-2.8c-0.4-0.3-1.5,0.2-2.1,0.7c-0.8,0.6-1.5,1.5-2.2,2.4c-1.6,2.2-3.1,4.4-4.7,6.6
	c-0.3-0.3-0.5-0.6-0.8-0.8c1.2-4.2,2.6-8.3,3.5-12.6c0.3-1.6-0.4-3.5-0.6-5.3c-1.2,0.8-2.7,1.2-3.7,2.4c-3.1,3.7-5.9,7.7-9.2,12
	c0.9-3.9,1.9-7.3,2.4-10.9c0.3-1.9-0.3-3.9-0.5-5.9c-1,1.5-2.3,2.9-3.1,4.6c-1.3,2.9-1.8,6.8-3.6,9c-4.2,5.1-9,9.4-13.6,14
	c-0.5,0.5-1.3,0.4-2.5,0.7c1.1-5.6,2.1-10.7,3.2-16.2c-1.8,0-2.8,0-3.8,0c-0.1-0.6-0.2-1-0.3-1.5c-1.4-7-5.2-8.5-9.5-3.7
	c-4.8,5.3-8.2,11.8-10.3,19.3c-0.6,2.3-1,4.8,1,6.7c2,1.9,3.7,0.7,5.4-0.8c1-0.9,1.9-1.7,2.8-2.7c2.9-2.9,5.7-5.8,8.8-9
	c0,0.9,0,1.3,0,1.6c-0.3,3.3-1.6,7.1,1.2,9.4c3,2.4,5.4-0.7,7.7-2.6c2.3-1.9,4.5-4,7.3-6.5c-0.7,2.5-1.4,4-1.5,5.6
	c-0.1,1.1,0.5,2.4,0.8,3.6c0.9-0.4,2.2-0.5,2.8-1.3c1.3-1.7,2.4-3.9,3.6-5.8c3.6-5.8,7.3-11.5,10.9-17.3c-1.3,5.4-3.3,10.2-5,15.2
	c-0.9,2.6-2.6,6.1,0.2,8.2c2.7,2,4.2-1.4,5.7-3.5c2-2.7,3.9-5.5,6.1-8.8c0.4,7.5,2.5,9.1,7.6,6.4c1.3-0.7,2.5-1.6,3.6-2.5
	c1.6-1.2,3.1-2.5,5-4c-0.1,1.3-0.2,2-0.3,2.7c-1.2,6.7,1.9,10.7,7.2,8.6c3.2-1.2,6.2-3.2,9-5.4c3.4-2.7,6.5-5.9,9.9-9
	c1.7,2.6,3.2,5.1,5,8c-3.3,0.7-6.1,1.2-8.9,1.9c-0.6,0.2-1.1,1.1-1.7,1.7c0.5,0.8,0.9,1.8,1.6,2.3c0.6,0.4,1.5,0.2,2.3,0.1
	c12.1-1.3,24.3-2.6,36.4-4c4-0.4,7.9-0.8,11.9-1.3C545.2,441,545.1,440.7,545.1,440.4z M412.8,436.3c-2.8,2.8-5.7,5.5-8.8,8
	c1.9-6.7,4.8-12.4,9.5-17C415.5,431.6,415.4,433.6,412.8,436.3z M265.6,453.5c-0.7,0.8-0.8,2.3-1.2,3.4c0.9,0.4,1.9,1.3,2.8,1.1
	c2.6-0.5,5.2-1.3,7.8-2.2c4.8-1.7,5.1-2.8,2.9-8.2c0.7-0.6,1.3-1.3,2.1-1.9c3-2.6,6-5.2,9.2-7.9c1.7,3.1,3.3,6,4.9,9
	c-1.2,0.8-2.3,1.4-3.2,2.2c-1.1,1.1-1.6,2.6-0.1,3.9c2,1.7,6.9,0,8.3-2.5c1.2-2,2.7-3.7,4.4-5.8c2.8,5.3,6.4,6.2,10.3,5.8
	c9.5-0.9,18.5-3.9,27.2-8.5c5.4-2.8,10.3-6.7,14.1-12.4c0.6-0.9,0.9-1.9,1.3-2.9c-1.4,0.6-2.1,1.8-2.9,2.6
	c-12.2,12.1-26.6,15.8-41.9,16.2c-1.2,0-2.4-1-4.3-1.8c1.4-1.6,2.2-2.6,3.1-3.5c2.4-2.5,5-4.8,7.2-7.6c1.2-1.6,2.6-4.8,2.1-6
	c-1.3-2.8-3.7-1-5.5-0.1c-4.7,2.4-8.1,6.5-9.9,12.4c-0.9,3.1-2.8,5.1-5.2,5.2c-1.2,0-2.4-2.6-3.5-4.1c-0.6-0.9-1.4-2-1.5-3.1
	c-0.1-1.4-0.1-3.3,0.6-4.4c1.3-2.1,3.2-3.6,4.6-5.6c0.8-1.1,0.9-2.9,1.3-4.3c-1.5-0.1-3.7-1-4.5,0c-2.4,2.7-4.3,6.1-6.4,9.3
	c-0.8,1.3-1.5,2.9-2.5,3.8c-3.3,2.9-6.7,5.5-10.1,8.4c-1.7,1.5-3,1.2-4.4-0.4c-5.5-6.1-5-16.1,1.1-22.1c0.2-0.2,0.5-0.2,0.8-0.4
	c-0.3,1.1-0.6,2-1.1,3.9c2.4-2.7,4.3-4.5,5.9-6.6c0.5-0.7,0.9-2.4,0.5-3.2c-0.3-0.8-1.6-1.4-2.5-1.4c-1.2,0.1-2.5,0.7-3.6,1.4
	c-4.5,2.9-7.5,7.3-9.4,13.1c-0.5,1.5-1.2,3.1-2.2,4.2c-5.6,6.2-11.1,12.4-17,18.2c-3.1,3.1-6.8,5.4-10.2,8c-1.6,1.2-3.3,0.6-3.1-1.8
	c0.3-3.7,1.2-7.3,2-10.9c0.1-0.5,1.1-0.9,1.7-1c6.6-1.2,12.4-7.9,13.8-15.9c0.8-4.5-2-8.2-5.7-6.8c-2.2,0.9-4.6,2.7-6,4.9
	c-2.8,4.2-5.4,8.8-7.3,13.7c-1.7,4.6-2.9,9.8-3.4,14.9c-0.7,7.6,4.3,11.4,9.9,7.8c2.1-1.3,4.2-2.8,6-4.7
	c5.2-5.5,10.2-11.1,15.2-16.8c1.8-2,3.4-4.3,4.6-5.9c2.4,4.5,4.7,8.9,7.2,13.6C268.8,450.7,267.1,451.9,265.6,453.5z M236.6,439.4
	c1.5-5.1,3.6-9.5,8-11.7C243.9,433.5,240.9,437,236.6,439.4z"/>
</svg>
