<?xml version="1.0" encoding="utf-8"?>
<!-- Generator: Adobe Illustrator 24.3.0, SVG Export Plug-In . SVG Version: 6.00 Build 0)  -->
<svg version="1.1" id="signature-logo-01" xmlns="http://www.w3.org/2000/svg" xmlns:xlink="http://www.w3.org/1999/xlink" x="0px"
	 y="0px" viewBox="0 0 864 864" style="enable-background:new 0 0 864 864;" xml:space="preserve">
<style type="text/css">
	.st0{fill:#A30713;}
	.st1{fill:#BFBFBF;}
	.st2{stroke:#000000;stroke-width:0.5;stroke-miterlimit:10;}
	.st3{fill:#231F20;}
</style>
<g id="signature-logo-01-parts">
	<path id="arc-border" class="st0" d="M730.1,405.3c0,74.1-26.1,142-69.6,195.2c5.6,2.4,11,5.2,16.4,8.3c4.2,3.3,8.5,6.6,12.7,9.8
		c19.4-24.3,35.3-51,47.5-79.9c17.9-42.3,27-87.2,27-133.4c0-46.3-9.1-91.2-27-133.4c-17.3-40.8-42-77.5-73.5-109
		s-68.1-56.2-109-73.5c-42.3-17.9-87.2-27-133.4-27c-46.3,0-91.2,9.1-133.4,27c-40.8,17.3-77.5,42-109,73.5s-56.2,68.1-73.5,109
		c-17.9,42.3-27,87.2-27,133.4c0,46.3,9.1,91.2,27,133.4c12.2,28.8,28.1,55.4,47.4,79.7c8.1-8.4,17.1-15.4,26.9-20.9
		c-42.1-52.8-67.2-119.6-67.2-192.3c0-170.5,138.2-308.8,308.8-308.8S730.1,234.8,730.1,405.3z"/>
	<path id="half-circle-side-1" class="st0" d="M562.8,308c4.3,22.4,3.1,41.5,1.3,54c-4.8,4.4-23.1,20.1-50.8,20.8
		c-13.3,0.4-24.7-2.8-34-7.2c-4.8-14.2-14.9-25.9-27.8-33c-0.4-20.4-2.1-37.6-3.8-50.8c-2.3-17.2-4.7-34.7-12.4-56.6
		c-9.6-27.6-19.7-39.9-24.1-44.9c-6.7-7.6-13.4-12.9-18.2-16.3c9.6,2.1,23.6,5.4,40.3,10.4c30,9,45,13.5,61.2,23.4
		c30.1,18.5,45.6,43,49.4,49.4C546.2,261,557.4,280,562.8,308z M633.6,326.3c-2-3.7-11.9-21.9-31.7-29.3c-10-3.8-13.5-1.3-23.7-4.1
		c-1.1-0.3-4.4-1.2-5.5,0.2c-0.6,0.8-0.3,2,0,2.9c2,5.7,8.9,40.4,6.8,63c-0.3,3.7-1.1,8.7-0.5,16.1c0.5,6.9,1.9,12.4,2.9,15.6
		c8.9-3.4,20.8-8.9,33.2-18.1c11.7-8.6,20.1-17.7,25.9-24.9C640.2,342.6,638.3,334.7,633.6,326.3z M429.3,600.6
		c-4.2-5.2-13.8-17.8-22.3-45.8c-6.8-22.2-8.6-39.7-10.2-57c-1.3-13.2-2.3-30.3-1.9-50.4c-14-7.5-24.6-20.4-29.1-35.9
		c-8.7-4-19.1-7-31.2-7.2c-27.7-0.3-46.5,14.7-51.5,18.9c-2.3,12.4-4.2,31.4-0.8,54c4.3,28.1,14.8,47.5,16.9,51.4
		c3.6,6.5,18.1,31.6,47.5,51.3c15.7,10.5,30.6,15.6,60.2,25.7c16.5,5.6,30.4,9.4,39.9,11.9C442.2,613.9,435.7,608.3,429.3,600.6z
		 M267.4,425.5c0.5-3.7,1.4-8.7,1.1-16.1c-0.2-6.9-1.4-12.4-2.3-15.7c-9,3.1-21.1,8.1-33.8,16.8c-12,8.2-20.8,16.9-26.8,23.9
		c0.7,5.1,2.2,13,6.4,21.7c1.9,3.8,11.1,22.4,30.6,30.5c9.9,4.2,13.5,1.8,23.6,5c1.1,0.3,4.4,1.4,5.5,0c0.6-0.7,0.4-2,0.1-2.9
		C270,483,264.5,448,267.4,425.5z"/>
	<path id="half-circle-side-2" class="st1" d="M641.3,364.9c-2.2,9.6-5.7,23.6-10.8,40.2c-9.3,29.9-13.9,44.9-24.1,60.9
		c-18.8,29.9-43.5,45.1-50,48.9c-3.8,2.2-22.9,13.3-50.9,18.3c-22.5,4.1-41.5,2.6-54,0.7c-4.4-4.9-19.9-23.3-20.3-51
		c-0.2-11.7,2.4-21.9,6-30.5c17-4.2,31.2-15.7,38.9-31c18.6-0.3,34.5-1.7,46.9-3.3c17.3-2.1,34.7-4.4,56.7-11.8
		c27.7-9.3,40.1-19.2,45.1-23.6C632.5,376.3,637.9,369.7,641.3,364.9z M517.5,543.4c-5.6,2-40.4,8.5-63,6.2
		c-3.7-0.4-8.7-1.2-16.1-0.7c-6.9,0.5-12.3,1.9-15.6,2.8c3.3,9,8.7,20.9,17.7,33.4c8.5,11.8,17.5,20.3,24.6,26.1
		c5.1-0.8,12.9-2.6,21.5-7.2c3.7-1.9,22-11.6,29.6-31.4c3.8-10,1.4-13.5,4.3-23.7c0.3-1.1,1.3-4.4-0.1-5.5
		C519.6,542.8,518.4,543.1,517.5,543.4z M335.9,255.4c-28.1,4.9-47.3,15.7-51.1,17.9c-6.5,3.8-31.3,18.8-50.4,48.5
		c-10.2,16-15,30.9-24.6,60.7c-5.3,16.6-8.9,30.5-11.2,40.1c3.5-4.8,8.9-11.3,16.6-17.9c5.1-4.4,17.6-14.1,45.4-23.2
		c22.1-7.2,39.5-9.2,56.8-11.2c13.7-1.5,31.6-2.9,52.8-2.8c6.8-13.1,18.3-23.3,32.3-28.5c4.2-9,7.3-19.9,7.2-32.6
		c-0.2-27.7-15.5-46.3-19.8-51.2C377.4,253.2,358.4,251.5,335.9,255.4z M377.1,178c-5.2,0.7-13.1,2.4-21.7,6.9
		c-3.7,1.9-22.1,11.4-29.9,31.1c-3.9,10-1.5,13.5-4.5,23.7c-0.3,1.1-1.3,4.4,0.1,5.5c0.8,0.7,2,0.4,2.9,0.1
		c5.7-1.9,40.5-8.1,63.1-5.6c3.7,0.4,8.7,1.2,16.1,0.8c6.9-0.4,12.4-1.7,15.7-2.6c-3.2-9-8.5-20.9-17.4-33.5
		C393.1,192.5,384.2,183.9,377.1,178z"/>
	<path id="jesse-word" d="M235.1,676.5c1.8-0.7,3.6-1.5,5.4-2.3c0-0.2-0.1-0.4-0.2-0.6c-2.4,0.5-4.7,1-7.4,1.5
		c0.5-1.5,1-2.7,1.4-3.9c3.3-10.5,6.8-20.9,9.7-31.5c2.3-8.2,3-16.6,0.9-25.1c-1.9-7.5-6.3-12.3-14.2-13.6c-7.1-1.2-14.2-0.5-21,1.7
		c-33.2,10.7-57.8,32.1-75.7,61.7c-4,6.7-6.8,14-7.4,22c-0.8,12.1,8,20.1,19.4,20.4c-2.1-0.9-4.4-1.6-6.8-2.4
		c-8.2-3.5-12.2-10.4-10.4-19.1c1.1-5.5,2.8-11.1,5.5-15.9c15.7-27.7,38.6-47.4,68-59.4c8.2-3.3,16.9-5.4,25.9-4.4
		c6.5,0.7,10.3,3.9,12,10.2c1.6,6.1,1.1,12.3,0,18.4c-2.5,13.8-7.2,27-12,40.2c-1.1,3.2-3,5.5-5.7,7.6
		c-20.1,15.1-34.5,34.5-42.3,58.6c-3.3,10.2-5.9,20.7-5.2,31.6c0.1,2.2-0.2,5,2.6,5.8c2.7,0.8,4.5-1.4,5.8-3.3
		c4.5-6.7,9.4-13.2,13.3-20.3c13-23.6,23.6-48.4,33.8-73.3C231.4,678.8,232.8,677.3,235.1,676.5z M215.1,707.9
		c-7.9,18.6-15.9,37.1-26.4,54.4c-1.7,2.8-3.4,5.6-5.3,8.3c-1.3,1.8-3,3.5-4.5,5.2c-0.4-0.1-0.8-0.2-1.2-0.3
		c-0.1-3.4-0.8-6.8-0.4-10.1c3-25.9,13.4-48.4,31.2-67.4c4.9-5.3,10.4-10.1,15.7-15.1c0.3,0.2,0.5,0.5,0.8,0.7
		C221.7,691.6,218.4,699.7,215.1,707.9z M346.8,687.3c-11.2,9.1-24.5,11.9-38.5,12.1c-1.1,0-2.2-0.7-4-1.3c1.4-0.5,2.9-1.7,3.7-2.4
		c2.2-1.9,4.4-3.3,6.1-5.6c1.1-1.2,2-3.9,1.5-4.8c-1.2-2.1-3.4-0.8-5.1,0c-4.3,1.8-7.5,4.9-9.1,9.3c-0.8,2.3-2.6,3.8-4.7,3.9
		c-1.1,0-2.2-1.9-3.2-3.1c-0.6-0.7-1.3-1.5-1.4-2.3c-0.1-1.1-0.1-2.5,0.5-3.3c1.2-1.6,3-2.7,4.2-4.2c0.7-0.8,1.4-2.4,0.9-3.1
		c-0.1-0.6-3.1-0.9-3.9-0.2c-2.2,2-4,4.6-5.9,7c-0.8,1-1.3,2.2-2.3,2.9c-3,2.2-6.2,4.1-9.2,6.3c-1.6,1.1-2.7,0.9-4.1-0.3
		c-5.1-4.6-4.6-12.1,1-16.6c0.2-0.1,0.9-0.6,0.8-0.3c-0.3,0.8-1.2,2-1,3c0.4,1.2,1.8-0.2,2.6-1c1-0.9,2-3.1,2.8-4
		c0.5-0.5,0.8-1.8,0.5-2.4c-0.3-0.6-1.5-1.1-2.3-1c-1.1,0.1-2.3,0.5-3.3,1.1c-4.1,2.1-6.9,5.5-8.7,9.8c-0.5,1.1-1.1,2.3-2,3.2
		c-5.1,4.6-10.2,9.3-15.6,13.7c-2.9,2.3-6.2,4.1-9.4,6c-1.5,0.9-3,0.5-2.9-1.4c0.3-2.8,1.1-5.5,1.8-8.2c0.1-0.4,1-0.7,1.6-0.8
		c6-0.9,11.4-5.9,12.7-11.9c0.7-3.4-1.9-6.2-5.2-5.1c-2.1,0.6-4.2,2-5.6,3.6c-2.5,3.2-5,6.6-6.7,10.3c-1.6,3.5-2.7,7.4-3.1,11.2
		c-0.6,5.8,4,8.5,9.1,5.9c1.9-1,3.8-2.1,5.5-3.5c4.8-4.1,9.4-8.3,14-12.6c1.6-1.5,3.1-3.2,4.2-4.5c2.2,3.4,4.3,6.7,6.6,10.2
		c-1.1,0.8-2.6,1.7-4,2.9c-0.6,0.6-1.3,2-0.9,2.7c0.3,0.6,1.6,0.8,2.4,0.7c2.4-0.4,4.8-1,7.2-1.6c4.4-1.3,4.7-2.1,2.6-6.1
		c0.6-0.5,1.2-1,1.9-1.5c2.7-2,5.5-3.9,8.5-6c1.5,2.3,3,4.5,4.5,6.8c-1.1,0.6-2.1,1-2.9,1.7c-1,0.9-1.5,2-0.1,2.9
		c1.8,1.3,6.3,0,7.6-1.9c1.1-1.5,2.5-2.7,4.1-4.4c2.6,4,5.9,4.6,9.5,4.4c8.7-0.6,17-3,25-6.4c5-2.1,9.5-5,12.9-9.3
		c0.5-0.7,0.8-1.5,1.2-2.2C348.2,685.8,347.6,686.6,346.8,687.3z M309.3,688.8c0.7-0.6,2.2-1.6,2.5-1.4c0.3,0.3-1.7,2.6-1.8,2.8
		c-0.4,0.5-1.5,1.7-2.9,1.9c-0.1,0-0.3,0-0.4,0C306.3,691.8,307.8,690,309.3,688.8z M246.6,686.1c-0.7,4.4-3.5,7-7.4,8.8
		C240.6,691.1,242.5,687.8,246.6,686.1z"/>
	<path id="james-word" d="M374.8,715c4.8-12.2,9.4-24,14.2-35.8c0.4-1.2,1.9-2.1,3.1-2.8c1.6-0.9,3.5-1.6,5.2-2.3
		c0-0.2-0.1-0.4-0.2-0.6c-2.1,0.4-4.1,0.9-6.6,1.5c0.4-1.3,0.7-2.2,1-3.1c2.5-8.9,5.3-17.8,7.5-26.8c1.8-7.4,2.3-14.9-0.1-22.4
		c-2.2-6.8-6.9-10.5-14-11.2c-8-0.8-15.6,0.8-23,3.6c-17.9,6.6-32.8,17.8-45.9,31.6c-6.9,7.3-13,15.3-17.4,24.4
		c-0.6,1.3-1.3,2.6,1.2,2.9c0.3-0.5,0.5-0.8,0.5-1.5c13.9-24.5,34.1-41.9,59.9-52.8c6.9-2.9,14.2-4.8,21.8-4.6
		c7.5,0.1,11.9,3.5,13.2,10.8c0.7,3.5,0.9,7.1,0.5,10.6c-1.4,14-5.9,27.2-10.6,40.3c-0.4,1-1.3,2-2.2,2.7
		c-13,9.8-23.5,21.7-31.2,36.1c-0.4,0.8-1.5,1.6-2.4,1.7c-23.5,3.6-47.1,6.4-70.5,10.7c-19.2,3.5-38.2,8.6-57.2,13.1
		c-1.8,0.5-3.3,1.6-5.2,2.5c0.7,0.8,0.9,1.1,1.2,1.3c3.2,2.8,6.7,1.4,9.9,0.4c33.3-10.2,67.1-18,101.6-23.1c6.8-1,13.6-1.9,20.7-2.9
		c-0.2,0.9-0.3,1.3-0.5,1.7c-4.2,9.4-6.8,19.3-7.7,29.5c-0.3,3.9-0.1,7.9,0.4,11.7c0.5,3.3,2.8,3.9,5.4,1.9c0.7-0.5,1.4-1.2,1.9-1.9
		c2.1-2.9,4.5-5.6,6.1-8.7c6-11.5,11.6-23.1,17.5-34.6c0.5-0.9,1.6-2.1,2.5-2.2c13-1.2,26.1-2.6,39.2-3.2
		c29.4-1.3,58.8-2.1,88.2-3.1c5.4-0.2,10.9,0,16.4,0c0-0.4,0-0.8,0-1.2C471,708.5,422.9,710.7,374.8,715z M351.4,755
		c-1.5,2.3-3.2,4.4-4.8,6.6c-0.4,0.5-1.1,0.8-1.9,1.4c-1.8-4.6-1.6-9-1-13.4c1.4-9.9,3.9-19.5,8.2-28.5c0.4-0.9,1.3-2,2.1-2.1
		c5.2-0.8,10.4-1.3,16-1.9C364.3,730.3,358.8,743.1,351.4,755z M371.6,713c-0.6,1.6-1.4,2.4-3.3,2.5c-4.7,0.3-9.3,0.9-14.6,1.5
		c7.3-13.9,17.2-25,29.4-34.2c-0.3,1-0.6,2-1,3C378.6,694.9,375.1,703.9,371.6,713z M520,695.3c-8.6-0.1-17.3-0.4-25.9,0
		c-4,0.2-6.6-0.8-8.8-4.2c-1.4-2.2-1.8-4,0.1-6.1c2.2-2.6,4.4-5.3,6.5-7.9c-0.1-0.3-0.2-0.5-0.4-0.8c-1.5,0.4-3.4,0.3-4.3,1.2
		c-2.3,2.2-4.3,4.9-6.3,7.4c-0.7,0.8-1.1,1.9-1.9,2.6c-2.3,1.9-4.6,3.9-7.2,5.4c-3.1,1.8-6.4,3.4-9.8,4.7c-2.1,0.8-2.9-0.2-2.3-2.4
		c0.5-1.9,1.1-3.5,3.6-3.7c3.1-0.3,5.2-2.5,6.7-5.1c1.3-2.3,0.2-4.1-2.4-4.3c-2.6-0.2-4.5,1.1-6.2,2.9c-3.8,4-7.9,7.6-13.1,9.6
		c-1,0.4-2.1,0.5-3.7,0.9c0.3-2.4,0.7-4.3,0.8-6.1c0-0.7-0.3-1.7-0.9-2.1c-0.3-0.2-1.4,0.2-1.9,0.5c-0.8,0.5-1.4,1.2-2,1.8
		c-1.5,1.6-2.9,3.3-4.3,4.9c-0.2-0.2-0.5-0.4-0.7-0.6c1.1-3.1,2.4-6.2,3.2-9.4c0.3-1.2-0.3-2.6-0.6-4c-1.1,0.6-2.5,0.9-3.4,1.8
		c-2.8,2.8-5.5,5.8-8.4,9c0.8-3,1.8-5.5,2.2-8.2c0.3-1.4-0.3-3-0.4-4.4c-1,1.1-2.1,2.2-2.8,3.5c-1.2,2.2-1.7,5.1-3.3,6.8
		c-3.9,3.8-8.3,7.1-12.5,10.5c-0.4,0.3-1.2,0.3-2.3,0.5c1-4.2,1.9-8,2.9-12.1h-3.5c-0.1-0.4-0.2-0.8-0.3-1.1
		c-1.3-5.2-4.8-6.4-8.7-2.8c-4.4,4-7.5,8.9-9.4,14.5c-0.6,1.8-0.9,3.6,0.9,5s3.4,0.5,5-0.6c0.9-0.7,1.8-1.3,2.6-2
		c2.6-2.2,5.2-4.4,8.1-6.8c0,0.7,0,1,0,1.2c-0.3,2.5-1.5,5.3,1.1,7c2.7,1.8,5-0.5,7.1-2c2.1-1.4,4.1-3,6.7-4.9
		c-0.6,1.8-1.2,3-1.4,4.2c-0.1,0.9,0.5,1.8,0.7,2.7c0.9-0.3,2-0.4,2.5-1c1.2-1.3,2.2-2.9,3.3-4.3c3.3-4.4,6.7-8.7,10-13
		c-1.2,4-3,7.7-4.6,11.4c-0.8,2-2.4,4.6,0.2,6.1c2.5,1.5,3.9-1.1,5.3-2.7c1.8-2,3.6-4.1,5.6-6.6c0.4,5.7,2.3,6.8,7,4.8
		c1.2-0.5,2.2-1.2,3.3-1.8c1.5-0.9,2.9-1.9,4.6-3c-0.1,1-0.2,1.5-0.3,2c-1.1,5.1,1.7,8,6.6,6.5c2.9-0.9,5.7-2.4,8.2-4.1
		c3.1-2,6-4.4,9.1-6.8c1.5,2,2.9,3.8,4.6,6c-3,0.5-5.6,0.9-8.2,1.5c-0.6,0.1-1,0.8-1.6,1.2c0.5,0.6,0.9,1.4,1.5,1.7
		c0.6,0.3,1.4,0.1,2.1,0.1c11.2-1,22.3-2,33.5-3c3.6-0.3,7.3-0.6,10.9-0.9v-0.7C521.9,695.5,520.9,695.3,520,695.3z M463.1,686.5
		c1.4-1.4,2.2-1.9,3.1-2.3c0.3-0.1,1.1-0.4,1.2-0.2c0.1,0.2-0.1,0.5-0.4,0.9c-1.2,1.5-1.8,2.3-3,2.8c-1,0.5-2.2,0.7-2.4,0.4
		C461.6,688,461.6,687.8,463.1,686.5z M401.2,692.5c-2.6,2.1-5.2,4.2-8.1,6c1.7-5,4.4-9.3,8.7-12.8
		C403.7,689,403.5,690.6,401.2,692.5z"/>
	<path id="ferrell-word" d="M593.1,682.5c-15.7-1.1-31.5-0.1-47.5-0.1c0.3-1.1,0.5-2,0.8-2.8c3.2-8.5,6.7-17,9.5-25.6
		c1.4-4.3,3.3-6.2,8.2-6.4c26.1-1.3,52.2-3.1,78.3-4.7c2.8-0.2,5.7-0.4,8.5-0.6c0.1-0.4,0.1-0.7,0.2-1.1c-1.3-0.4-2.5-1.1-3.8-1.1
		c-6.2,0-12.5,0.1-18.8,0.5c-21.4,1.4-42.9,2.9-64.3,4.3c-1.5,0.1-2.9,0-4.6,0c2.5-6.9,4.8-13.6,7.3-20.2c0.8-2.2,0.2-3.2-2.2-3.7
		c-1.4,3.5-2.7,6.9-4,10.4s-2.7,7-4,10.5c-0.4-1.1-0.3-2.1-0.2-3.1c0.5-8.2,1.5-16.4,1.3-24.5c-0.3-10.1-7.4-16.2-17.5-15.7
		c-3.6,0.1-7.3,0.9-10.6,2.2c-13.7,5.4-26.3,12.8-37.2,22.9c-1.5,1.5-3,3.2-4,5.1c-2.3,4-1.5,7.9,2.2,10.6c2.5,1.8,5.5,3.3,8.4,4.4
		c12.6,4.9,25.8,5.8,39.2,5.4c4.3-0.1,8.6-0.4,13-0.6c-1,7.3-6.7,26.7-9.7,32.7c-0.3,0.6-1.4,1.2-2.2,1.3c-2.8,0.4-5.6,0.4-8.4,0.7
		c-3.2,0.3-6.4,0.7-10.2,1.1c3,3.8,6.3,2.1,9.2,2c3.3-0.1,6.5-0.5,10-0.8c-0.5,1.6-0.9,2.7-1.3,3.8c-8.2,22.1-16.1,44.4-21.9,67.4
		c-0.6,2.5-0.1,3.9,2.7,4.2c0.2-0.5,0.4-1,0.6-1.5c7.9-23.9,15.8-47.8,23.7-71.7c0.6-2,1.5-2.7,3.6-2.8c11.2-0.3,22.4-0.8,33.6-1.2
		c4.1-0.1,8.3,0,12.4,0C593.4,683.3,593.4,682.8,593.1,682.5z M550.4,645.9c-6.2,0.5-12.5,0.9-16.4,1.1c-13,0-23.4-1-33.7-4.4
		c-2.2-0.7-4.5-1.6-6.5-2.8c-3.9-2.3-4.8-5.6-2.5-9.5c1-1.6,2.1-3.3,3.5-4.5c12.3-10.4,25.7-19.1,41.1-24.3c2.4-0.8,5-1.2,7.5-1.2
		c6,0,10.4,3.4,11.1,9.6c0.7,6.3,0.5,12.7,0.1,19c-0.3,5.1-1.3,10.1-2.2,15.1C552.2,644.7,551.1,645.8,550.4,645.9z M733.2,692.9
		c-2.7,0.5-5.3,1-8,1.4c-9,1.4-18,2.9-27,4.1c-1.4,0.2-3.6-0.4-4.2-1.4c-0.6-1,0.1-3.1,0.9-4.4c2.6-4.6,5.6-8.9,8.4-13.5
		c1.4-2.4,2.7-5,3.8-7.6c0.3-0.7,0.1-2-0.4-2.4s-1.8-0.4-2.5-0.1c-1,0.5-2,1.2-2.8,2.1c-5.4,6-9.6,12.6-11.1,20.6
		c-0.6,3.1-1.7,5.7-3.8,8c-1.3,1.4-2.4,3-3.8,4.3c-3,2.8-6.1,5.5-9.2,8.3c-0.3-0.3-0.7-0.5-1.1-0.8c1.2-3.1,2.3-6.2,3.6-9.2
		c6.7-14.9,13.5-29.8,20.3-44.8c0.7-1.5,1.4-3-0.5-4.8c-0.8,1-1.8,1.7-2.3,2.8c-4.4,9.2-8.9,18.3-12.9,27.7
		c-3.9,9-11.5,12.7-20.2,15c-3,0.8-4.5-1-3.2-3.9c0.5-1,1.8-2,2.9-2.4c3.8-1.2,6-3.8,7.3-7.2c0.9-2.5-0.6-4.3-3.1-3.8
		c-1.3,0.2-2.6,0.9-3.6,1.7c-1.5,1.4-2.9,3-4,4.8c-3.6,5.4-8.6,9.1-14.7,11.2c-0.6,0.2-1.3,0.2-2.2,0.3c0.4-4.2,4.2-8.2-0.7-11.5
		c1-1.7,2-3.1,2.8-4.6c0.3-0.5,0.2-1.8-0.1-2c-0.6-0.3-1.6-0.4-2.2,0c-2.3,1.4-4.1,3.2-4.4,6.2c-0.1,0.8-0.4,1.9-1,2.4
		c-2.8,2.7-5.6,5.5-8.7,7.9c-1.6,1.3-3.8,1.8-6.4,3.1c2.2-5.2,5.5-9.7,0.1-13.7c1.2-1.8,2.4-3.3,3.2-5c0.4-0.8,0.2-1.8,0.2-2.8
		c-0.9,0.1-2.3-0.2-2.7,0.3c-1.6,1.8-3.1,3.9-4.4,6c-0.6,1-0.4,2.5-1,3.3c-4.7,6.2-10.3,11.3-18,13.6c-1.4,0.4-3.5,1.1-3.9-1.5
		c-0.4-2.5,1.2-5.3,3-5.5c4.7-0.6,8.6-4.1,9.5-8.9c0.2-1.3,0-3.6-0.7-3.9c-1.2-0.6-3.4-0.5-4.5,0.3c-5.6,3.8-9.6,9-11,15.7
		c-1.2,5.4,2.5,8.7,7.9,7.2c4.8-1.4,8.8-4.3,12.4-7.7c2.7-2.5,5.5-4.8,8.5-7.4c0.1,0.7,0.4,1.9,0.2,3c-0.2,1.2-1.2,2.3-1.4,3.5
		c-0.2,1.6-0.5,3.9,0.3,4.7c1.1,0.9,3.5,1.2,4.9,0.6c2.8-1.2,5.4-3,7.8-4.9c2.6-2.1,4.8-4.6,7.7-7.5c0.2,1.3,0.5,2.2,0.4,3
		c-0.3,1.4-0.9,2.8-1.2,4.2c-0.6,3.2,1.1,5.3,4.2,4.5c2.7-0.7,5.3-2.2,7.8-3.6c1.5-0.8,2.7-1.9,4.2-3c1.2,5.9,3.2,7.4,8.7,5.8
		c2.9-0.8,5.5-2.3,8.2-3.6c1.7-0.8,3.2-1.9,4.8-2.8c0,1.2-0.3,1.9-0.6,2.8c-1.6,4.4-3.3,8.7-4.5,13.1c-0.4,1.3,0.4,3.5,1.4,4.5
		c1.4,1.4,3.5,0.9,4.9-0.5c3.1-2.8,6.2-5.7,9.1-8.6c2-2,3.8-4.4,5.8-6.7c2.5,3.2,5.6,3.6,9,2.9c10.6-2.4,21.2-5,31.9-7.5
		c0.7-0.2,1.4-0.6,2.1-0.9C733.4,693.4,733.3,693.2,733.2,692.9z M696.1,684.1c2.1-3.6,4.2-6.1,6.2-9.7c0.4-0.8,1.2-0.4,0.9,0.5
		c-2.1,3.5-5.5,10.2-6.2,10.7C696.1,686.1,695.9,684.6,696.1,684.1z M661.2,685.8c0,0,1.7-1.9,2.6-1.9c0.1,0,0.2,0,0.3,0.1
		c0.1,0.2-0.1,0.5-0.2,0.5c-0.5,0.8-2.5,3.5-4.2,4c-0.2,0.1-0.5,0.1-0.5,0C659,688.3,659.3,687.9,661.2,685.8z M601.6,685.1
		c0.2,3.4-2,5.9-6,6.7C597.8,689.4,599.6,687.4,601.6,685.1z"/>
	<path id="soul-word" class="st2" d="M551.7,735.4c0,1.9-1.4,3.5-4.3,3.5c-1.2,0-2.5-0.3-3.1-0.8l0.5-1.2c0.7,0.4,1.7,0.8,2.8,0.8
		c1.6,0,2.5-0.8,2.5-2.1c0-1.1-0.7-1.8-2.3-2.4c-2-0.7-3.2-1.7-3.2-3.5c0-1.9,1.6-3.3,3.9-3.3c1.2,0,2.1,0.3,2.7,0.6l-0.4,1.3
		c-0.4-0.2-1.2-0.6-2.3-0.6c-1.7,0-2.3,1-2.3,1.8c0,1.1,0.7,1.7,2.4,2.3C550.7,732.6,551.7,733.6,551.7,735.4z M566.8,732.6
		c0,4.2-2.5,6.4-5.7,6.4s-5.5-2.5-5.5-6.2c0-3.9,2.4-6.4,5.7-6.4C564.7,726.5,566.8,729,566.8,732.6z M565.2,732.6
		c0-2.4-1.3-5-3.9-5c-2.6,0.1-3.9,2.5-3.9,5.2c0,2.6,1.4,4.9,3.9,4.9S565.2,735.4,565.2,732.6z M578.8,733.9c0,2.7-1.2,3.9-3,3.9
		c-1.6,0-2.8-1.2-2.8-3.9v-7.2v0h-1.6v7.2c0,3.8,1.9,5.2,4.4,5.2c2.6,0,4.6-1.6,4.6-5.3v-7.1h-1.6V733.9z M587.2,737.6v-10.9h-1.6
		v12.2h6.8v-1.3H587.2z"/>
	<path id="messenger-word" class="st2" d="M614.4,726.6l0.8,12.2h-1.5l-0.4-5.3c-0.1-1.7-0.2-3.7-0.2-5.3H613
		c-0.4,1.4-0.9,2.9-1.5,4.6l-2.2,5.9h-1.2l-2-5.8c-0.6-1.7-1.1-3.3-1.4-4.7c0,1.5-0.1,3.6-0.2,5.4l-0.3,5.2h-1.5l0.8-12.2h2l2.1,5.9
		c0.5,1.5,0.9,2.8,1.2,4.1h0.1c0.3-1.2,0.7-2.6,1.3-4.1l2.2-5.9H614.4z M621.7,733.1h4.7h0.1v-1.4h-4.7v-3.8h5v-1.3h-6.6v12.2h6.8
		v-1.3h-5.3V733.1z M635.1,731.8c-1.7-0.6-2.4-1.2-2.4-2.3c0-0.8,0.6-1.8,2.3-1.8c1.1,0,1.9,0.4,2.3,0.6l0.4-1.3
		c-0.5-0.3-1.5-0.6-2.7-0.6c-2.3,0-3.9,1.4-3.9,3.3c0,1.8,1.2,2.8,3.2,3.5c1.6,0.6,2.3,1.3,2.3,2.4c0,1.3-0.9,2.1-2.5,2.1
		c-1.1,0-2.1-0.4-2.8-0.8l-0.5,1.2c0.6,0.5,1.9,0.8,3.1,0.8c2.9,0,4.3-1.6,4.3-3.5C638.2,733.6,637.2,732.6,635.1,731.8z
		 M646.5,731.8c-1.7-0.6-2.4-1.2-2.4-2.3c0-0.8,0.6-1.8,2.3-1.8c1.1,0,1.9,0.4,2.3,0.6l0.4-1.3c-0.5-0.3-1.5-0.6-2.7-0.6
		c-2.3,0-3.9,1.4-3.9,3.3c0,1.8,1.2,2.8,3.2,3.5c1.6,0.6,2.3,1.3,2.3,2.4c0,1.3-0.9,2.1-2.5,2.1c-1.1,0-2.1-0.4-2.8-0.8l-0.5,1.2
		c0.6,0.5,1.9,0.8,3.1,0.8c2.9,0,4.3-1.6,4.3-3.5C649.6,733.6,648.6,732.6,646.5,731.8z M656,733.1h4.7h0.1v-1.4h-4.7v-3.8h5v-1.3
		h-6.6v12.2h6.8v-1.3H656V733.1z M673.4,731.8c0,1.9,0.1,3.4,0.2,5c-0.6-1.3-1.3-2.6-2.2-4l-3.9-6.2h-1.7v12.2v0h1.3v-5.2
		c0-2,0-3.5-0.1-5h0.1c0.6,1.4,1.5,2.7,2.3,4.1l3.9,6.2h1.6v-12.2h-1.5V731.8z M689.4,732.6h-4v1.3h2.5v3.6
		c-0.4,0.2-1.1,0.3-2.1,0.3c-2.8,0-4.7-1.8-4.7-4.9c0-3.1,1.9-4.9,4.9-4.9c1.2,0,2,0.2,2.7,0.5l0.4-1.3c-0.5-0.3-1.6-0.6-3-0.6
		c-4.1,0-6.6,2.7-6.6,6.3c0,1.9,0.7,3.5,1.7,4.5c1.2,1.1,2.8,1.6,4.6,1.6c1.6,0,3-0.4,3.7-0.7h-0.1V732.6z M696,733.1h4.7h0.1v-1.4
		h-4.7v-3.8h5v-1.3h-6.6v12.2h6.8v-1.3H696V733.1z M713.7,738.8h-1.6c-0.2-0.3-0.5-1.4-0.8-2.9c-0.4-1.7-1-2.3-2.4-2.4h-1.5v5.3
		h-1.6v-12h0c0.8-0.2,1.9-0.3,3-0.3c1.7,0,2.8,0.3,3.5,1c0.6,0.5,1,1.4,1,2.3c0,1.6-1,2.7-2.3,3.1v0.1c0.9,0.3,1.5,1.2,1.8,2.5
		C713.2,737.2,713.5,738.4,713.7,738.8z M711.7,730.1c0-1.6-1.1-2.3-2.8-2.3c-0.8,0-1.3,0.1-1.6,0.1v4.5h0.1h1.6
		C710.7,732.4,711.7,731.5,711.7,730.1z"/>
	<path id="jj-letters" class="st3" d="M442,369.9c-3.1,0-8,0.2-9.9,0.2c-2,0-7-0.2-11.1-0.2c-0.3,0-0.5,0-0.7,0c0-5.8,0-7.5,0.2-9.4
		c0.2-2.8,0.8-4.1,2.9-4.5c1-0.1,1.4-0.2,2.3-0.2c0.9,0,1.4-0.2,1.4-0.7s-0.5-0.7-1.6-0.7c-3.1,0-8,0.2-9.9,0.2c-2,0-7-0.2-11.1-0.2
		c-1.2,0-1.7,0.2-1.7,0.7s0.4,0.7,1.3,0.7c1.1,0,2.5,0,3.1,0.2c2.6,0.6,3.2,1.8,3.4,4.5c0.2,2.5,0.2,4.7,0.2,16.6h-0.2v22.4
		c0,15.4,0,23.2-5.9,29.2c-1.6,1.6-2.8,2.5-3.8,3c-1.3,0.7-1.7,1-1.7,1.4c0,0.4,0.3,0.6,0.6,0.6c0.4,0,1.1-0.2,1.6-0.5
		c1.6-0.7,2.9-1.4,3.9-2c7.5-4.6,11.7-10,13.3-14.8c1.6-4.3,1.9-9.3,1.9-13.8c0-3.9-0.2-7.6-0.2-11v-14.5c0-2.3,0-4.2,0-5.8
		c0.1,0,0.2,0,0.3,0c1.1,0,2.5,0,3.1,0.2c2.6,0.6,3.2,1.8,3.4,4.5c0.2,2.5,0.2,4.7,0.2,16.6h-0.2V415c0,15.4,0,23.2-5.9,29.2
		c-1.6,1.6-2.8,2.5-3.8,3c-1.3,0.7-1.7,1-1.7,1.4c0,0.4,0.3,0.6,0.6,0.6c0.4,0,1.1-0.2,1.6-0.5c1.6-0.7,2.9-1.4,3.9-2
		c7.5-4.6,11.7-10,13.3-14.8c1.6-4.3,1.9-9.3,1.9-13.8c0-3.9-0.2-7.6-0.2-11v-14.5c0-11.9,0-14.1,0.2-16.6c0.2-2.8,0.8-4.1,2.9-4.5
		c1-0.1,1.4-0.2,2.3-0.2c0.9,0,1.4-0.2,1.4-0.7S443.1,369.9,442,369.9z"/>
</g>
</svg>
