<?xml version="1.0" encoding="utf-8"?>
<!-- Generator: Adobe Illustrator 24.3.0, SVG Export Plug-In . SVG Version: 6.00 Build 0)  -->
<svg version="1.1" id="signature-logo-01" xmlns="http://www.w3.org/2000/svg" xmlns:xlink="http://www.w3.org/1999/xlink" x="0px"
	 y="0px" viewBox="0 0 864 864" style="enable-background:new 0 0 864 864;" xml:space="preserve">
<style type="text/css">
	.st0{fill:#A30713;}
	.st1{fill:#BFBFBF;}
	.st2{stroke:#000000;stroke-width:0.5;stroke-miterlimit:10;}
	.st3{fill:#231F20;}
</style>
<g id="signature-logo-01-parts">
	<path id="arc-border" class="st0" d="M730.1,405.3c0,74.1-26.1,142-69.6,195.2c5.6,2.4,11,5.2,16.4,8.3c4.2,3.3,8.5,6.6,12.7,9.8
		c19.4-24.3,35.3-51,47.5-79.9c17.9-42.3,27-87.2,27-133.4c0-46.3-9.1-91.2-27-133.4c-17.3-40.8-42-77.5-73.5-109
		c-31.5-31.5-68.1-56.2-109-73.5c-42.3-17.9-87.2-27-133.4-27c-46.3,0-91.2,9.1-133.4,27c-40.8,17.3-77.5,42-109,73.5
		c-31.5,31.5-56.2,68.1-73.5,109c-17.9,42.3-27,87.2-27,133.4c0,46.3,9.1,91.2,27,133.4c12.2,28.8,28.1,55.4,47.4,79.7
		c8.1-8.4,17.1-15.4,26.9-20.9c-42.1-52.8-67.2-119.6-67.2-192.3c0-170.5,138.2-308.8,308.8-308.8S730.1,234.8,730.1,405.3z"/>
	<g id="half-circle-1">
		<path id="half-circle-1-side-1" class="st0" d="M564.1,362c-4.8,4.4-23.1,20.1-50.8,20.8c-13.3,0.4-24.7-2.8-34-7.2
			c-4.8-14.2-14.9-25.9-27.8-33c-0.4-20.4-2.1-37.6-3.8-50.8c-2.3-17.2-4.7-34.7-12.4-56.6c-9.6-27.6-19.7-39.9-24.1-44.9
			c-6.7-7.6-13.4-12.9-18.2-16.3c9.6,2.1,23.6,5.4,40.3,10.4c30,9,45,13.5,61.2,23.4c30.1,18.5,45.6,43,49.4,49.4
			c2.3,3.8,13.5,22.8,18.9,50.8C567.1,330.4,565.9,349.5,564.1,362z"/>
		<path id="half-circle-1-side-2" class="st0" d="M641,347.7c-5.8,7.2-14.2,16.3-25.9,24.9c-12.4,9.2-24.3,14.7-33.2,18.1
			c-1-3.2-2.4-8.7-2.9-15.6c-0.6-7.4,0.2-12.4,0.5-16.1c2.1-22.6-4.8-57.3-6.8-63c-0.3-0.9-0.6-2.1,0-2.9c1.1-1.4,4.4-0.5,5.5-0.2
			c10.2,2.8,13.7,0.3,23.7,4.1c19.8,7.4,29.7,25.6,31.7,29.3C638.3,334.7,640.2,342.6,641,347.7z"/>
	</g>
	<g id="half-circle-2">
		<path id="half-circle-2-side-1" class="st1" d="M641.3,364.9c-2.2,9.6-5.7,23.6-10.8,40.2c-9.3,29.9-13.9,44.9-24.1,60.9
			c-18.8,29.9-43.5,45.1-50,48.9c-3.8,2.2-22.9,13.3-50.9,18.3c-22.5,4.1-41.5,2.6-54,0.7c-4.4-4.9-19.9-23.3-20.3-51
			c-0.2-11.7,2.4-21.9,6-30.5h0c17-4.2,31.2-15.7,38.9-31c18.6-0.3,34.5-1.7,46.9-3.3c17.3-2.1,34.7-4.4,56.7-11.8
			c27.7-9.3,40.1-19.2,45.1-23.6C632.5,376.3,637.9,369.7,641.3,364.9z"/>
		<path id="half-circle-2-side-2" class="st1" d="M465.1,611.2c-7.1-5.8-16.1-14.3-24.6-26.1c-9-12.5-14.4-24.4-17.7-33.4
			c3.3-0.9,8.7-2.3,15.6-2.8c7.4-0.5,12.4,0.3,16.1,0.7c22.6,2.3,57.4-4.2,63-6.2c0.9-0.3,2.1-0.6,2.9,0c1.4,1.1,0.4,4.4,0.1,5.5
			c-2.9,10.2-0.5,13.7-4.3,23.7c-7.6,19.8-25.9,29.5-29.6,31.4C478,608.6,470.2,610.4,465.1,611.2z"/>
	</g>
	<g id="half-circle-3">
		<path id="half-circle-3-side-1" class="st0" d="M446.8,617.5c-9.5-2.5-23.4-6.3-39.9-11.9c-29.6-10.1-44.5-15.2-60.2-25.7
			c-29.4-19.7-43.9-44.8-47.5-51.3c-2.1-3.9-12.6-23.3-16.9-51.4c-3.4-22.6-1.5-41.6,0.8-54c5-4.2,23.8-19.2,51.5-18.9
			c12.1,0.2,22.5,3.2,31.2,7.2c4.5,15.5,15.1,28.4,29.1,35.9c-0.4,20.1,0.6,37.2,1.9,50.4c1.6,17.3,3.4,34.8,10.2,57
			c8.5,28,18.1,40.6,22.3,45.8C435.7,608.3,442.2,613.9,446.8,617.5z"/>
		<path id="half-circle-3-side-2" class="st0" d="M205.6,434.4c6-7,14.8-15.7,26.8-23.9c12.7-8.7,24.8-13.7,33.8-16.8
			c0.9,3.3,2.1,8.8,2.3,15.7c0.3,7.4-0.6,12.4-1.1,16.1c-2.9,22.5,2.6,57.5,4.4,63.2c0.3,0.9,0.5,2.2-0.1,2.9
			c-1.1,1.4-4.4,0.3-5.5,0c-10.1-3.2-13.7-0.8-23.6-5c-19.5-8.1-28.7-26.7-30.6-30.5C207.8,447.4,206.3,439.5,205.6,434.4z"/>
	</g>
	<g id="half-circle-4">
		<path id="half-circle-4-side-1" class="st1" d="M409.7,306.4c0.1,12.7-3,23.6-7.2,32.6h0c-14,5.2-25.5,15.4-32.3,28.5
			c-21.2-0.1-39.1,1.3-52.8,2.8c-17.3,2-34.7,4-56.8,11.2c-27.8,9.1-40.3,18.8-45.4,23.2c-7.7,6.6-13.1,13.1-16.6,17.9
			c2.3-9.6,5.9-23.5,11.2-40.1c9.6-29.8,14.4-44.7,24.6-60.7c19.1-29.7,43.9-44.7,50.4-48.5c3.8-2.2,23-13,51.1-17.9
			c22.5-3.9,41.5-2.2,54-0.2C394.2,260.1,409.5,278.7,409.7,306.4z"/>
		<path id="half-circle-4-side-2" class="st1" d="M377.1,178c7.1,5.9,16,14.5,24.4,26.4c8.9,12.6,14.2,24.5,17.4,33.5
			c-3.3,0.9-8.8,2.2-15.7,2.6c-7.4,0.4-12.4-0.4-16.1-0.8c-22.6-2.5-57.4,3.7-63.1,5.6c-0.9,0.3-2.1,0.6-2.9-0.1
			c-1.4-1.1-0.4-4.4-0.1-5.5c3-10.2,0.6-13.7,4.5-23.7c7.8-19.7,26.2-29.2,29.9-31.1C364,180.4,371.9,178.7,377.1,178z"/>
	</g>
	<g id="jesse-signature">
		<path id="jesse-letter-j" d="M146,706.8c-11.4-0.3-20.2-8.3-19.4-20.4c0.6-8,3.4-15.3,7.4-22c17.9-29.6,42.5-51,75.7-61.7
			c6.8-2.2,13.9-2.9,21-1.7c7.9,1.3,12.3,6.1,14.2,13.6c2.1,8.5,1.4,16.9-0.9,25.1c-2.9,10.6-6.4,21-9.7,31.5
			c-0.4,1.2-0.9,2.4-1.4,3.9c2.7-0.5,5-1,7.4-1.5c0.1,0.2,0.2,0.4,0.2,0.6c-1.8,0.8-3.6,1.6-5.4,2.3c-2.3,0.8-3.7,2.3-4.6,4.6
			c-10.2,24.9-20.8,49.7-33.8,73.3c-3.9,7.1-8.8,13.6-13.3,20.3c-1.3,1.9-3.1,4.1-5.8,3.3c-2.8-0.8-2.5-3.6-2.6-5.8
			c-0.7-10.9,1.9-21.4,5.2-31.6c7.8-24.1,22.2-43.5,42.3-58.6c2.7-2.1,4.6-4.4,5.7-7.6c4.8-13.2,9.5-26.4,12-40.2
			c1.1-6.1,1.6-12.3,0-18.4c-1.7-6.3-5.5-9.5-12-10.2c-9-1-17.7,1.1-25.9,4.4c-29.4,12-52.3,31.7-68,59.4
			c-2.7,4.8-4.4,10.4-5.5,15.9c-1.8,8.7,2.2,15.6,10.4,19.1C141.6,705.2,143.9,705.9,146,706.8z M225,683.6
			c-0.3-0.2-0.5-0.5-0.8-0.7c-5.3,5-10.8,9.8-15.7,15.1c-17.8,19-28.2,41.5-31.2,67.4c-0.4,3.3,0.3,6.7,0.4,10.1
			c0.4,0.1,0.8,0.2,1.2,0.3c1.5-1.7,3.2-3.4,4.5-5.2c1.9-2.7,3.6-5.5,5.3-8.3c10.5-17.3,18.5-35.8,26.4-54.4
			C218.4,699.7,221.7,691.6,225,683.6z"/>
		<path id="jesse-letters-esse" d="M346.8,687.3c-11.2,9.1-24.5,11.9-38.5,12.1c-1.1,0-2.2-0.7-4-1.3c1.4-0.5,2.9-1.7,3.7-2.4
			c2.2-1.9,4.4-3.3,6.1-5.6c1.1-1.2,2-3.9,1.5-4.8c-1.2-2.1-3.4-0.8-5.1,0c-4.3,1.8-7.5,4.9-9.1,9.3c-0.8,2.3-2.6,3.8-4.7,3.9
			c-1.1,0-2.2-1.9-3.2-3.1c-0.6-0.7-1.3-1.5-1.4-2.3c-0.1-1.1-0.1-2.5,0.5-3.3c1.2-1.6,3-2.7,4.2-4.2c0.7-0.8,1.4-2.4,0.9-3.1
			c-0.1-0.6-3.1-0.9-3.9-0.2c-2.2,2-4,4.6-5.9,7c-0.8,1-1.3,2.2-2.3,2.9c-3,2.2-6.2,4.1-9.2,6.3c-1.6,1.1-2.7,0.9-4.1-0.3
			c-5.1-4.6-4.6-12.1,1-16.6c0.2-0.1,0.9-0.6,0.8-0.3c-0.3,0.8-1.2,2-1,3c0.4,1.2,1.8-0.2,2.6-1c1-0.9,2-3.1,2.8-4
			c0.5-0.5,0.8-1.8,0.5-2.4c-0.3-0.6-1.5-1.1-2.3-1c-1.1,0.1-2.3,0.5-3.3,1.1c-4.1,2.1-6.9,5.5-8.7,9.8c-0.5,1.1-1.1,2.3-2,3.2
			c-5.1,4.6-10.2,9.3-15.6,13.7c-2.9,2.3-6.2,4.1-9.4,6c-1.5,0.9-3,0.5-2.9-1.4c0.3-2.8,1.1-5.5,1.8-8.2c0.1-0.4,1-0.7,1.6-0.8
			c6-0.9,11.4-5.9,12.7-11.9c0.7-3.4-1.9-6.2-5.2-5.1c-2.1,0.6-4.2,2-5.6,3.6c-2.5,3.2-5,6.6-6.7,10.3c-1.6,3.5-2.7,7.4-3.1,11.2
			c-0.6,5.8,4,8.5,9.1,5.9c1.9-1,3.8-2.1,5.5-3.5c4.8-4.1,9.4-8.3,14-12.6c1.6-1.5,3.1-3.2,4.2-4.5c2.2,3.4,4.3,6.7,6.6,10.2
			c-1.1,0.8-2.6,1.7-4,2.9c-0.6,0.6-1.3,2-0.9,2.7c0.3,0.6,1.6,0.8,2.4,0.7c2.4-0.4,4.8-1,7.2-1.6c4.4-1.3,4.7-2.1,2.6-6.1
			c0.6-0.5,1.2-1,1.9-1.5c2.7-2,5.5-3.9,8.5-6c1.5,2.3,3,4.5,4.5,6.8c-1.1,0.6-2.1,1-2.9,1.7c-1,0.9-1.5,2-0.1,2.9
			c1.8,1.3,6.3,0,7.6-1.9c1.1-1.5,2.5-2.7,4.1-4.4c2.6,4,5.9,4.6,9.5,4.4c8.7-0.6,17-3,25-6.4c5-2.1,9.5-5,12.9-9.3
			c0.5-0.7,0.8-1.5,1.2-2.2C348.2,685.8,347.6,686.6,346.8,687.3z M309.3,688.8c0.7-0.6,2.2-1.6,2.5-1.4c0.3,0.3-1.7,2.6-1.8,2.8
			c-0.4,0.5-1.5,1.7-2.9,1.9c-0.1,0-0.3,0-0.4,0C306.3,691.8,307.8,690,309.3,688.8z M246.6,686.1c-0.7,4.4-3.5,7-7.4,8.8
			C240.6,691.1,242.5,687.8,246.6,686.1z"/>
	</g>
	<g id="james-signature">
		<path id="james-letter-j" d="M299.8,674c-2.5-0.3-1.8-1.6-1.2-2.9c4.4-9.1,10.5-17.1,17.4-24.4c13.1-13.8,28-25,45.9-31.6
			c7.4-2.8,15-4.4,23-3.6c7.1,0.7,11.8,4.4,14,11.2c2.4,7.5,1.9,15,0.1,22.4c-2.2,9-5,17.9-7.5,26.8c-0.3,0.9-0.6,1.8-1,3.1
			c2.5-0.6,4.5-1.1,6.6-1.5c0.1,0.2,0.2,0.4,0.2,0.6c-1.7,0.7-3.6,1.4-5.2,2.3c-1.2,0.7-2.7,1.6-3.1,2.8
			c-4.8,11.8-9.4,23.6-14.2,35.8c48.1-4.3,96.2-6.5,144.4-5.8c0,0.4,0,0.8,0,1.2c-5.5,0-11-0.2-16.4,0c-29.4,1-58.8,1.8-88.2,3.1
			c-13.1,0.6-26.2,2-39.2,3.2c-0.9,0.1-2,1.3-2.5,2.2c-5.9,11.5-11.5,23.1-17.5,34.6c-1.6,3.1-4,5.8-6.1,8.7
			c-0.5,0.7-1.2,1.4-1.9,1.9c-2.6,2-4.9,1.4-5.4-1.9c-0.5-3.8-0.7-7.8-0.4-11.7c0.9-10.2,3.5-20.1,7.7-29.5c0.2-0.4,0.3-0.8,0.5-1.7
			c-7.1,1-13.9,1.9-20.7,2.9c-34.5,5.1-68.3,12.9-101.6,23.1c-3.2,1-6.7,2.4-9.9-0.4c-0.3-0.2-0.5-0.5-1.2-1.3
			c1.9-0.9,3.4-2,5.2-2.5c19-4.5,38-9.6,57.2-13.1c23.4-4.3,47-7.1,70.5-10.7c0.9-0.1,2-0.9,2.4-1.7c7.7-14.4,18.2-26.3,31.2-36.1
			c0.9-0.7,1.8-1.7,2.2-2.7c4.7-13.1,9.2-26.3,10.6-40.3c0.4-3.5,0.2-7.1-0.5-10.6c-1.3-7.3-5.7-10.7-13.2-10.8
			c-7.6-0.2-14.9,1.7-21.8,4.6c-25.8,10.9-46,28.3-59.9,52.8C300.3,673.2,300.1,673.5,299.8,674z M370,717.1
			c-5.6,0.6-10.8,1.1-16,1.9c-0.8,0.1-1.7,1.2-2.1,2.1c-4.3,9-6.8,18.6-8.2,28.5c-0.6,4.4-0.8,8.8,1,13.4c0.8-0.6,1.5-0.9,1.9-1.4
			c1.6-2.2,3.3-4.3,4.8-6.6C358.8,743.1,364.3,730.3,370,717.1z M353.7,717c5.3-0.6,9.9-1.2,14.6-1.5c1.9-0.1,2.7-0.9,3.3-2.5
			c3.5-9.1,7-18.1,10.5-27.2c0.4-1,0.7-2,1-3C370.9,692,361,703.1,353.7,717z"/>
		<path id="james-letters-ames" d="M520,695.3c-8.6-0.1-17.3-0.4-25.9,0c-4,0.2-6.6-0.8-8.8-4.2c-1.4-2.2-1.8-4,0.1-6.1
			c2.2-2.6,4.4-5.3,6.5-7.9c-0.1-0.3-0.2-0.5-0.4-0.8c-1.5,0.4-3.4,0.3-4.3,1.2c-2.3,2.2-4.3,4.9-6.3,7.4c-0.7,0.8-1.1,1.9-1.9,2.6
			c-2.3,1.9-4.6,3.9-7.2,5.4c-3.1,1.8-6.4,3.4-9.8,4.7c-2.1,0.8-2.9-0.2-2.3-2.4c0.5-1.9,1.1-3.5,3.6-3.7c3.1-0.3,5.2-2.5,6.7-5.1
			c1.3-2.3,0.2-4.1-2.4-4.3c-2.6-0.2-4.5,1.1-6.2,2.9c-3.8,4-7.9,7.6-13.1,9.6c-1,0.4-2.1,0.5-3.7,0.9c0.3-2.4,0.7-4.3,0.8-6.1
			c0-0.7-0.3-1.7-0.9-2.1c-0.3-0.2-1.4,0.2-1.9,0.5c-0.8,0.5-1.4,1.2-2,1.8c-1.5,1.6-2.9,3.3-4.3,4.9c-0.2-0.2-0.5-0.4-0.7-0.6
			c1.1-3.1,2.4-6.2,3.2-9.4c0.3-1.2-0.3-2.6-0.6-4c-1.1,0.6-2.5,0.9-3.4,1.8c-2.8,2.8-5.5,5.8-8.4,9c0.8-3,1.8-5.5,2.2-8.2
			c0.3-1.4-0.3-3-0.4-4.4c-1,1.1-2.1,2.2-2.8,3.5c-1.2,2.2-1.7,5.1-3.3,6.8c-3.9,3.8-8.3,7.1-12.5,10.5c-0.4,0.3-1.2,0.3-2.3,0.5
			c1-4.2,1.9-8,2.9-12.1h-3.5c-0.1-0.4-0.2-0.8-0.3-1.1c-1.3-5.2-4.8-6.4-8.7-2.8c-4.4,4-7.5,8.9-9.4,14.5c-0.6,1.8-0.9,3.6,0.9,5
			c1.8,1.4,3.4,0.5,5-0.6c0.9-0.7,1.8-1.3,2.6-2c2.6-2.2,5.2-4.4,8.1-6.8c0,0.7,0,1,0,1.2c-0.3,2.5-1.5,5.3,1.1,7
			c2.7,1.8,5-0.5,7.1-2c2.1-1.4,4.1-3,6.7-4.9c-0.6,1.8-1.2,3-1.4,4.2c-0.1,0.9,0.5,1.8,0.7,2.7c0.9-0.3,2-0.4,2.5-1
			c1.2-1.3,2.2-2.9,3.3-4.3c3.3-4.4,6.7-8.7,10-13c-1.2,4-3,7.7-4.6,11.4c-0.8,2-2.4,4.6,0.2,6.1c2.5,1.5,3.9-1.1,5.3-2.7
			c1.8-2,3.6-4.1,5.6-6.6c0.4,5.7,2.3,6.8,7,4.8c1.2-0.5,2.2-1.2,3.3-1.8c1.5-0.9,2.9-1.9,4.6-3c-0.1,1-0.2,1.5-0.3,2
			c-1.1,5.1,1.7,8,6.6,6.5c2.9-0.9,5.7-2.4,8.2-4.1c3.1-2,6-4.4,9.1-6.8c1.5,2,2.9,3.8,4.6,6c-3,0.5-5.6,0.9-8.2,1.5
			c-0.6,0.1-1,0.8-1.6,1.2c0.5,0.6,0.9,1.4,1.5,1.7c0.6,0.3,1.4,0.1,2.1,0.1c11.2-1,22.3-2,33.5-3c3.6-0.3,7.3-0.6,10.9-0.9v-0.7
			C521.9,695.5,520.9,695.3,520,695.3z M463.1,686.5c1.4-1.4,2.2-1.9,3.1-2.3c0.3-0.1,1.1-0.4,1.2-0.2c0.1,0.2-0.1,0.5-0.4,0.9
			c-1.2,1.5-1.8,2.3-3,2.8c-1,0.5-2.2,0.7-2.4,0.4C461.6,688,461.6,687.8,463.1,686.5z M401.2,692.5c-2.6,2.1-5.2,4.2-8.1,6
			c1.7-5,4.4-9.3,8.7-12.8C403.7,689,403.5,690.6,401.2,692.5z"/>
	</g>
	<g id="ferrell-signature">
		<path id="ferrell-letter-f" d="M593.4,683.8c-4.1,0-8.3-0.1-12.4,0c-11.2,0.4-22.4,0.9-33.6,1.2c-2.1,0.1-3,0.8-3.6,2.8
			c-7.9,23.9-15.8,47.8-23.7,71.7c-0.2,0.5-0.4,1-0.6,1.5c-2.8-0.3-3.3-1.7-2.7-4.2c5.8-23,13.7-45.3,21.9-67.4
			c0.4-1.1,0.8-2.2,1.3-3.8c-3.5,0.3-6.7,0.7-10,0.8c-2.9,0.1-6.2,1.8-9.2-2c3.8-0.4,7-0.8,10.2-1.1c2.8-0.3,5.6-0.3,8.4-0.7
			c0.8-0.1,1.9-0.7,2.2-1.3c3-6,8.7-25.4,9.7-32.7c-4.4,0.2-8.7,0.5-13,0.6c-13.4,0.4-26.6-0.5-39.2-5.4c-2.9-1.1-5.9-2.6-8.4-4.4
			c-3.7-2.7-4.5-6.6-2.2-10.6c1-1.9,2.5-3.6,4-5.1c10.9-10.1,23.5-17.5,37.2-22.9c3.3-1.3,7-2.1,10.6-2.2
			c10.1-0.5,17.2,5.6,17.5,15.7c0.2,8.1-0.8,16.3-1.3,24.5c-0.1,1-0.2,2,0.2,3.1c1.3-3.5,2.7-7,4-10.5c1.3-3.5,2.6-6.9,4-10.4
			c2.4,0.5,3,1.5,2.2,3.7c-2.5,6.6-4.8,13.3-7.3,20.2c1.7,0,3.1,0.1,4.6,0c21.4-1.4,42.9-2.9,64.3-4.3c6.3-0.4,12.6-0.5,18.8-0.5
			c1.3,0,2.5,0.7,3.8,1.1c-0.1,0.4-0.1,0.7-0.2,1.1c-2.8,0.2-5.7,0.4-8.5,0.6c-26.1,1.6-52.2,3.4-78.3,4.7c-4.9,0.2-6.8,2.1-8.2,6.4
			c-2.8,8.6-6.3,17.1-9.5,25.6c-0.3,0.8-0.5,1.7-0.8,2.8c16,0,31.8-1,47.5,0.1C593.4,682.8,593.4,683.3,593.4,683.8z M534,647
			c3.9-0.2,10.2-0.6,16.4-1.1c0.7-0.1,1.8-1.2,2-1.9c0.9-5,1.9-10,2.2-15.1c0.4-6.3,0.6-12.7-0.1-19c-0.7-6.2-5.1-9.6-11.1-9.6
			c-2.5,0-5.1,0.4-7.5,1.2c-15.4,5.2-28.8,13.9-41.1,24.3c-1.4,1.2-2.5,2.9-3.5,4.5c-2.3,3.9-1.4,7.2,2.5,9.5c2,1.2,4.3,2.1,6.5,2.8
			C510.6,646,521,647,534,647z"/>
		<path id="ferrell-letters-errell" d="M733.2,692.9c-2.7,0.5-5.3,1-8,1.4c-9,1.4-18,2.9-27,4.1c-1.4,0.2-3.6-0.4-4.2-1.4
			c-0.6-1,0.1-3.1,0.9-4.4c2.6-4.6,5.6-8.9,8.4-13.5c1.4-2.4,2.7-5,3.8-7.6c0.3-0.7,0.1-2-0.4-2.4c-0.5-0.4-1.8-0.4-2.5-0.1
			c-1,0.5-2,1.2-2.8,2.1c-5.4,6-9.6,12.6-11.1,20.6c-0.6,3.1-1.7,5.7-3.8,8c-1.3,1.4-2.4,3-3.8,4.3c-3,2.8-6.1,5.5-9.2,8.3
			c-0.3-0.3-0.7-0.5-1.1-0.8c1.2-3.1,2.3-6.2,3.6-9.2c6.7-14.9,13.5-29.8,20.3-44.8c0.7-1.5,1.4-3-0.5-4.8c-0.8,1-1.8,1.7-2.3,2.8
			c-4.4,9.2-8.9,18.3-12.9,27.7c-3.9,9-11.5,12.7-20.2,15c-3,0.8-4.5-1-3.2-3.9c0.5-1,1.8-2,2.9-2.4c3.8-1.2,6-3.8,7.3-7.2
			c0.9-2.5-0.6-4.3-3.1-3.8c-1.3,0.2-2.6,0.9-3.6,1.7c-1.5,1.4-2.9,3-4,4.8c-3.6,5.4-8.6,9.1-14.7,11.2c-0.6,0.2-1.3,0.2-2.2,0.3
			c0.4-4.2,4.2-8.2-0.7-11.5c1-1.7,2-3.1,2.8-4.6c0.3-0.5,0.2-1.8-0.1-2c-0.6-0.3-1.6-0.4-2.2,0c-2.3,1.4-4.1,3.2-4.4,6.2
			c-0.1,0.8-0.4,1.9-1,2.4c-2.8,2.7-5.6,5.5-8.7,7.9c-1.6,1.3-3.8,1.8-6.4,3.1c2.2-5.2,5.5-9.7,0.1-13.7c1.2-1.8,2.4-3.3,3.2-5
			c0.4-0.8,0.2-1.8,0.2-2.8c-0.9,0.1-2.3-0.2-2.7,0.3c-1.6,1.8-3.1,3.9-4.4,6c-0.6,1-0.4,2.5-1,3.3c-4.7,6.2-10.3,11.3-18,13.6
			c-1.4,0.4-3.5,1.1-3.9-1.5c-0.4-2.5,1.2-5.3,3-5.5c4.7-0.6,8.6-4.1,9.5-8.9c0.2-1.3,0-3.6-0.7-3.9c-1.2-0.6-3.4-0.5-4.5,0.3
			c-5.6,3.8-9.6,9-11,15.7c-1.2,5.4,2.5,8.7,7.9,7.2c4.8-1.4,8.8-4.3,12.4-7.7c2.7-2.5,5.5-4.8,8.5-7.4c0.1,0.7,0.4,1.9,0.2,3
			c-0.2,1.2-1.2,2.3-1.4,3.5c-0.2,1.6-0.5,3.9,0.3,4.7c1.1,0.9,3.5,1.2,4.9,0.6c2.8-1.2,5.4-3,7.8-4.9c2.6-2.1,4.8-4.6,7.7-7.5
			c0.2,1.3,0.5,2.2,0.4,3c-0.3,1.4-0.9,2.8-1.2,4.2c-0.6,3.2,1.1,5.3,4.2,4.5c2.7-0.7,5.3-2.2,7.8-3.6c1.5-0.8,2.7-1.9,4.2-3
			c1.2,5.9,3.2,7.4,8.7,5.8c2.9-0.8,5.5-2.3,8.2-3.6c1.7-0.8,3.2-1.9,4.8-2.8c0,1.2-0.3,1.9-0.6,2.8c-1.6,4.4-3.3,8.7-4.5,13.1
			c-0.4,1.3,0.4,3.5,1.4,4.5c1.4,1.4,3.5,0.9,4.9-0.5c3.1-2.8,6.2-5.7,9.1-8.6c2-2,3.8-4.4,5.8-6.7c2.5,3.2,5.6,3.6,9,2.9
			c10.6-2.4,21.2-5,31.9-7.5c0.7-0.2,1.4-0.6,2.1-0.9C733.4,693.4,733.3,693.2,733.2,692.9z M702.3,674.4c0.4-0.8,1.2-0.4,0.9,0.5
			c-2.1,3.5-5.5,10.2-6.2,10.7c-0.9,0.5-1.1-1-0.9-1.5C698.2,680.5,700.3,678,702.3,674.4z M661.2,685.8c0,0,1.7-1.9,2.6-1.9
			c0.1,0,0.2,0,0.3,0.1c0.1,0.2-0.1,0.5-0.2,0.5c-0.5,0.8-2.5,3.5-4.2,4c-0.2,0.1-0.5,0.1-0.5,0C659,688.3,659.3,687.9,661.2,685.8z
			 M601.6,685.1c0.2,3.4-2,5.9-6,6.7C597.8,689.4,599.6,687.4,601.6,685.1z"/>
	</g>
	<g id="soul">
		<path id="soul-letter-s" class="st2" d="M544.8,736.9c0.7,0.4,1.7,0.8,2.8,0.8c1.6,0,2.5-0.8,2.5-2.1c0-1.1-0.7-1.8-2.3-2.4
			c-2-0.7-3.2-1.7-3.2-3.5c0-1.9,1.6-3.3,3.9-3.3c1.2,0,2.1,0.3,2.7,0.6l-0.4,1.3c-0.4-0.2-1.2-0.6-2.3-0.6c-1.7,0-2.3,1-2.3,1.8
			c0,1.1,0.7,1.7,2.4,2.3c2.1,0.8,3.1,1.8,3.1,3.6c0,1.9-1.4,3.5-4.3,3.5c-1.2,0-2.5-0.3-3.1-0.8L544.8,736.9z"/>
		<path id="soul-letter-o" class="st2" d="M566.8,732.6c0,4.2-2.5,6.4-5.7,6.4c-3.2,0-5.5-2.5-5.5-6.2c0-3.9,2.4-6.4,5.7-6.4
			C564.7,726.5,566.8,729,566.8,732.6z M557.4,732.8c0,2.6,1.4,4.9,3.9,4.9c2.5,0,3.9-2.3,3.9-5.1c0-2.4-1.3-5-3.9-5
			C558.7,727.7,557.4,730.1,557.4,732.8z"/>
		<path id="soul-letter-u" class="st2" d="M573,726.7v7.2c0,2.7,1.2,3.9,2.8,3.9c1.8,0,3-1.2,3-3.9v-7.2h1.6v7.1
			c0,3.7-2,5.3-4.6,5.3c-2.5,0-4.4-1.4-4.4-5.2v-7.2H573z"/>
		<path id="soul-letter-l" class="st2" d="M585.6,726.7h1.6v10.9h5.2v1.3h-6.8V726.7z"/>
	</g>
	<g id="messenger">
		<path id="messenger-letter-m" class="st2" d="M613.3,733.5c-0.1-1.7-0.2-3.7-0.2-5.3h-0.1c-0.4,1.4-0.9,2.9-1.5,4.6l-2.2,5.9h-1.2
			l-2-5.8c-0.6-1.7-1.1-3.3-1.4-4.7h0c0,1.5-0.1,3.6-0.2,5.4l-0.3,5.2h-1.5l0.8-12.2h2l2.1,5.9c0.5,1.5,0.9,2.8,1.2,4.1h0.1
			c0.3-1.2,0.7-2.6,1.3-4.1l2.2-5.9h2l0.8,12.2h-1.5L613.3,733.5z"/>
		<path id="messenger-letter-e-1" class="st2" d="M626.4,733.1h-4.7v4.4h5.3v1.3h-6.8v-12.2h6.6v1.3h-5v3.8h4.7V733.1z"/>
		<path id="messenger-letter-s-1" class="st2" d="M631.3,736.9c0.7,0.4,1.7,0.8,2.8,0.8c1.6,0,2.5-0.8,2.5-2.1
			c0-1.1-0.7-1.8-2.3-2.4c-2-0.7-3.2-1.7-3.2-3.5c0-1.9,1.6-3.3,3.9-3.3c1.2,0,2.2,0.3,2.7,0.6l-0.4,1.3c-0.4-0.2-1.2-0.6-2.3-0.6
			c-1.7,0-2.3,1-2.3,1.8c0,1.1,0.7,1.7,2.4,2.3c2.1,0.8,3.1,1.8,3.1,3.6c0,1.9-1.4,3.5-4.3,3.5c-1.2,0-2.5-0.3-3.1-0.8L631.3,736.9z
			"/>
		<path id="messenger-letter-s-2" class="st2" d="M642.7,736.9c0.7,0.4,1.7,0.8,2.8,0.8c1.6,0,2.5-0.8,2.5-2.1
			c0-1.1-0.7-1.8-2.3-2.4c-2-0.7-3.2-1.7-3.2-3.5c0-1.9,1.6-3.3,3.9-3.3c1.2,0,2.2,0.3,2.7,0.6l-0.4,1.3c-0.4-0.2-1.2-0.6-2.3-0.6
			c-1.7,0-2.3,1-2.3,1.8c0,1.1,0.7,1.7,2.4,2.3c2.1,0.8,3.1,1.8,3.1,3.6c0,1.9-1.4,3.5-4.3,3.5c-1.2,0-2.5-0.3-3.1-0.8L642.7,736.9z
			"/>
		<path id="messenger-letter-e-2" class="st2" d="M660.7,733.1h-4.7v4.4h5.3v1.3h-6.8v-12.2h6.6v1.3h-5v3.8h4.7V733.1z"/>
		<path id="messenger-letter-n" class="st2" d="M665.8,738.8v-12.2h1.7l3.9,6.2c0.9,1.4,1.6,2.7,2.2,4l0,0c-0.1-1.6-0.2-3.1-0.2-5
			v-5.1h1.5v12.2h-1.6l-3.9-6.2c-0.8-1.4-1.7-2.7-2.3-4.1l-0.1,0c0.1,1.5,0.1,3,0.1,5v5.2H665.8z"/>
		<path id="messenger-letter-g" class="st2" d="M689.5,738.3c-0.7,0.3-2.1,0.7-3.7,0.7c-1.8,0-3.4-0.5-4.6-1.6c-1-1-1.7-2.6-1.7-4.5
			c0-3.6,2.5-6.3,6.6-6.3c1.4,0,2.5,0.3,3,0.6l-0.4,1.3c-0.7-0.3-1.5-0.5-2.7-0.5c-3,0-4.9,1.8-4.9,4.9c0,3.1,1.9,4.9,4.7,4.9
			c1,0,1.7-0.1,2.1-0.3v-3.6h-2.5v-1.3h4V738.3z"/>
		<path id="messenger-letter-e-3" class="st2" d="M700.7,733.1H696v4.4h5.3v1.3h-6.8v-12.2h6.6v1.3h-5v3.8h4.7V733.1z"/>
		<path id="messenger-letter-r" class="st2" d="M705.8,726.8c0.8-0.2,1.9-0.3,3-0.3c1.7,0,2.8,0.3,3.5,1c0.6,0.5,1,1.4,1,2.3
			c0,1.6-1,2.7-2.3,3.1v0.1c0.9,0.3,1.5,1.2,1.8,2.5c0.4,1.7,0.7,2.9,0.9,3.3h-1.6c-0.2-0.3-0.5-1.4-0.8-2.9c-0.4-1.7-1-2.3-2.4-2.4
			h-1.5v5.3h-1.6V726.8z M707.4,732.4h1.6c1.7,0,2.7-0.9,2.7-2.3c0-1.6-1.1-2.3-2.8-2.3c-0.8,0-1.3,0.1-1.6,0.1V732.4z"/>
	</g>
	<g id="center-letters">
		<g id="center-letter-j-1">
			<path class="st3" d="M410.8,377.1c0-11.9,0-14.1-0.2-16.6c-0.2-2.7-0.8-3.9-3.4-4.5c-0.6-0.2-2-0.2-3.1-0.2
				c-0.9,0-1.3-0.2-1.3-0.7c0-0.5,0.5-0.7,1.7-0.7c4.1,0,9.1,0.2,11.1,0.2c1.9,0,6.8-0.2,9.9-0.2c1.1,0,1.6,0.2,1.6,0.7
				c0,0.5-0.5,0.7-1.4,0.7c-0.9,0-1.3,0.1-2.3,0.2c-2.1,0.4-2.7,1.7-2.9,4.5c-0.2,2.5-0.2,4.7-0.2,16.6v14.5c0,3.4,0.2,7.1,0.2,11
				c0,4.5-0.3,9.5-1.9,13.8c-1.6,4.8-5.8,10.2-13.3,14.8c-1,0.6-2.3,1.3-3.9,2c-0.5,0.3-1.2,0.5-1.6,0.5c-0.3,0-0.6-0.2-0.6-0.6
				c0-0.4,0.4-0.7,1.7-1.4c1-0.5,2.2-1.4,3.8-3c5.9-6,5.9-13.8,5.9-29.2V377.1z"/>
		</g>
		<g id="center-letter-j-2">
			<path class="st3" d="M427.3,392.6c0-11.9,0-14.1-0.2-16.6c-0.2-2.7-0.8-3.9-3.4-4.5c-0.6-0.2-2-0.2-3.1-0.2
				c-0.9,0-1.3-0.2-1.3-0.7c0-0.5,0.5-0.7,1.7-0.7c4.1,0,9.1,0.2,11.1,0.2c1.9,0,6.8-0.2,9.9-0.2c1.1,0,1.6,0.2,1.6,0.7
				c0,0.5-0.5,0.7-1.4,0.7c-0.9,0-1.3,0.1-2.3,0.2c-2.1,0.4-2.7,1.7-2.9,4.5c-0.2,2.5-0.2,4.7-0.2,16.6v14.5c0,3.4,0.2,7.1,0.2,11
				c0,4.5-0.3,9.5-1.9,13.8c-1.6,4.8-5.8,10.2-13.3,14.8c-1,0.6-2.3,1.3-3.9,2c-0.5,0.3-1.2,0.5-1.6,0.5c-0.3,0-0.6-0.2-0.6-0.6
				c0-0.4,0.4-0.7,1.7-1.4c1-0.5,2.2-1.4,3.8-3c5.9-6,5.9-13.8,5.9-29.2V392.6z"/>
		</g>
	</g>
</g>
</svg>
