<?xml version="1.0" encoding="utf-8"?>
<!-- Generator: Adobe Illustrator 24.3.0, SVG Export Plug-In . SVG Version: 6.00 Build 0)  -->
<svg version="1.1" id="frequency-medicine-logo-1" xmlns="http://www.w3.org/2000/svg" xmlns:xlink="http://www.w3.org/1999/xlink"
	 x="0px" y="0px" viewBox="0 0 864 864" style="enable-background:new 0 0 864 864;" xml:space="preserve">
<style type="text/css">
	.st0{fill:url(#background-circle_1_);}
	.st1{fill:#DA2B2B;}
	.st2{fill:url(#ekg-top-back_1_);}
	.st3{fill:url(#ekg-top-front_1_);}
	.st4{fill:url(#ekg-middle-back-1_1_);}
	.st5{fill:url(#ekg-middle-front-1_1_);}
	.st6{fill:url(#ekg-middle-back-2_1_);}
	.st7{fill:url(#ekg-middle-back-3_1_);}
	.st8{fill:url(#ekg-middle-front-3_1_);}
	.st9{fill:url(#ekg-bottom-back_1_);}
	.st10{fill:url(#ekg-bottom-front_1_);}
	.st11{fill:url(#dna-strand-1-top_1_);}
	.st12{fill:#FFFFFF;}
	.st13{fill:url(#dna-strand-1-bottom_1_);}
	.st14{fill:url(#dna-strand-2-top_1_);}
	.st15{fill:url(#dna-strand-2-middle_1_);}
	.st16{fill:url(#dna-strand-2-bottom_1_);}
	.st17{fill:#0C0C0C;}
	.st18{fill:#DA2528;}
</style>
<g id="frequency-medicine-logo-1-parts">
	<linearGradient id="background-circle_1_" gradientUnits="userSpaceOnUse" x1="204.89" y1="415.96" x2="669.89" y2="415.96">
		<stop  offset="0" style="stop-color:#BF2227"/>
		<stop  offset="0.6199" style="stop-color:#EE3025"/>
	</linearGradient>
	<path id="background-circle" class="st0" d="M601.8,251.6c-43.9-43.9-102.3-68.1-164.4-68.1S316.9,207.7,273,251.6
		c-43.9,43.9-68.1,102.3-68.1,164.4s24.2,120.5,68.1,164.4c43.9,43.9,102.3,68.1,164.4,68.1s120.5-24.2,164.4-68.1
		c43.9-43.9,68.1-102.3,68.1-164.4S645.7,295.5,601.8,251.6z M437.4,641.5c-124.3,0-225.5-101.2-225.5-225.5
		s101.2-225.5,225.5-225.5S662.9,291.6,662.9,416S561.7,641.5,437.4,641.5z M649.5,415.2c0,116.7-94.6,211.4-211.4,211.4
		s-211.3-94.6-211.3-211.4s94.6-211.3,211.3-211.3S649.5,298.5,649.5,415.2z"/>
	<path id="frequency-word" class="st1" d="M329.5,671.2c4.9,0,10.2,0,15.8,0c-0.1,1.2-0.2,2.6-0.3,4.2c-2.2-4-5.7-1.8-8.6-2.6
		c0,2.9,0,5.5,0,8.3c2.6,0,5.2,0,8,0c-0.1,1.2-0.2,2.7-0.3,4.4c-1.8-4-5-2-7.8-2.6c0,3.2-0.2,6.2,0.1,9.1c0.1,1,1.7,1.8,2.4,2.6
		c-2.6,0-5.9,0-8.6,0c0.5-0.9,1.4-1.9,1.4-2.9c0.2-5.9,0.3-11.8,0.1-17.7C331.7,673.1,330.2,672.1,329.5,671.2z M374.5,694.5
		c0,0.1,0,0.3,0.1,0.4c-1,0-2,0-3.1,0.1c-3.3,0.1-5.8-1.1-7.6-3.8c-0.8-1.2-1.8-2.2-2.5-3.4c-1.2-2.2-2.9-2.9-5.5-2.3
		c0,1.7,0,3.5,0,5.2c0,2.1,0.1,4.1,3.1,4h-8.8c0.5-1.2,1.5-2.7,1.6-4.2c0.2-5.2,0-10.5,0.1-15.7c0-2.1-0.8-3.2-2.9-3.1
		c4.4,0,8.8-0.3,13.1,0.1c5,0.5,6.6,5.1,3.6,9.1c-0.8,1.1-1.9,2.1-3,3.3c2.5,2.8,5,5.6,7.5,8.3c0.6,0.6,1.3,1.1,2.1,1.4
		C373.2,694.3,373.9,694.5,374.5,694.5z M362.2,681.9c1.4-2.3,1.4-4.7-0.1-6.9c-1.5-2.3-3.8-2.3-6.2-1.8v10.2
		C358.4,683.7,360.7,684.3,362.2,681.9z M381.6,692.6c-0.5-0.4-0.9-1.1-0.9-1.6c-0.1-2.6,0-5.2,0-8.2c2.8,1,6.1-1.4,7.7,2.6
		c0.2-1.6,0.4-3,0.6-4.3h-8.2v-8.3c2.9,0.9,6.5-1.5,8.2,3c0.1-1.9,0.2-3.4,0.3-4.7h-15.4c0.8,1,2.2,2,2.3,3c0.2,5.8,0.1,11.6,0,17.4
		c0,1.3-0.2,2.1-0.7,2.5c0,0.3,0.1,0.5,0.1,0.8c3.6,0,7.2,0,10.8,0c3.7,0,4.2-0.6,3.6-4.4C388.8,693,383.8,694.3,381.6,692.6z
		 M441,699.1c-3.1,3-12.2,3.8-17.2,1.7c-2.7-1.1-5.3-2.4-7.7-3.9c-2.5-1.6-4.8-2.2-7.8-1.7c-6.7,1.1-12.7-2.9-14.2-9
		c-2.2-8.9,5.2-16.6,14.7-15.4c5.2,0.6,9.5,2.7,11.1,8c1.7,5.4,0.1,9.9-4.1,13.6c-0.2,0.2-0.3,0.4-0.6,0.8
		C423.3,697.1,431.1,702,441,699.1z M415.7,684.8c0-0.3,0-0.6,0-0.9c0.2,0,0.4-0.1,0.5-0.2c-0.8-2.4-1.3-5-2.4-7.3
		c-1.7-3.3-5.7-4.8-9.4-4c-3.2,0.7-5.4,3.4-5.8,7.4c-0.1,1.8-0.2,3.6,0.1,5.3c0.7,5.2,5,8.8,10,8.6
		C413,693.6,415.3,690.6,415.7,684.8z M492.3,673.5c0.2,4.9,0.1,9.8,0.1,15c-6.3-6.1-12.4-12-18.4-17.9c-0.3,0.1-0.6,0.3-0.9,0.4
		c0,6.5,0,12.9,0,19.3c0,2,0,4-2.6,4.3c2.8,0,5.6,0,7.8,0c-0.7-0.8-2.2-1.6-2.2-2.6c-0.2-4.5-0.1-9-0.1-13.9
		c6.1,5.9,12.1,11.7,18,17.5c0.2-0.1,0.5-0.3,0.8-0.4c0-1,0.1-2,0.2-2.9c0.1-5.9,0.2-11.8,0.4-17.7c0.1-1.2,1-2.3,1.5-3.3
		c-2,0-4.6,0-6.9,0C490.7,672,492.3,672.7,492.3,673.5z M443,674.1c0.2,4.5,0.1,9,0,13.5c-0.1,2.6-1.2,4.6-3.8,5.7
		c-4.5,1.8-8.8-0.9-9-6c-0.2-4.1-0.2-8.2,0-12.3c0.1-1.3,0.9-2.5,1.3-3.6c-2.4,0-5.5,0-9.2,0c3.3,0.9,3.3,0.9,3.3,3.5
		c0,3.3,0,6.5,0,9.8c0,7.8,3.8,11.7,12.7,10.4c4.9-0.7,7.3-3.6,7.5-8.6c0.2-3.7-0.1-7.5,0.2-11.2c0.1-1.4,1-2.8,1.5-4
		c-1.9,0-4.6,0-6.6,0C441.6,672.2,443,673.1,443,674.1z M511.1,672.6c5-1.2,8.7,0.3,11.1,4.9c0.1-2.1,0.2-3.8,0.3-6.2
		c-4.7,0-9.1-0.6-13.3,0.1c-8.4,1.6-12,12-6.6,18.8c3.9,5,9.5,5.5,15.2,5c4.4-0.4,4.8-1.1,4.5-5.7c-2.2,3.7-5.1,4.8-9.6,3.6
		c-4.9-1.3-7.8-5.6-7.7-11.6C505.1,676.8,507.4,673.5,511.1,672.6z M458.7,692.6c-0.5-0.4-0.9-1.1-0.9-1.6c-0.1-2.6,0-5.2,0-8.3
		c2.7,1.5,6.1-1.3,7.7,2.9c0.2-1.7,0.4-3.1,0.6-4.4c-2.8,0-5.5,0-8.2,0c0-2.7,0-5.3,0-8.3c2.9,0.9,6.5-1.5,8.2,3
		c0.1-1.9,0.2-3.3,0.3-4.7c-5.3,0-10.5,0-15.4,0c0.8,1,2.2,2,2.3,3c0.2,6,0.1,12-0.1,18c0,1-0.9,1.9-1.3,2.8c3.6,0,7.6,0,11.7,0
		c3.6,0,4.2-0.7,3.4-4.4C465.9,693,460.8,694.3,458.7,692.6z M547.3,671.3c-1.5,0-3.8,0-5.6,0c0.3,4.7-3.3,7.4-5,11.6
		c-2-4.3-5-7.4-5.9-11.6c-1.9,0-4.5,0-7.4,0c1,0.6,2,0.9,2.5,1.6c3.8,5.5,9.1,10.4,7.8,18.1c-0.2,1.3-1,2.6-1.4,3.8
		c2.5,0,5.8,0,9.1,0c-3.1,0.1-3-2-3.3-4.2c-0.7-5.4,1.5-9.6,4.6-13.7C544.1,674.9,545.9,673,547.3,671.3z"/>
	<path id="medicine-word" class="st1" d="M377.7,735.6c-2.7,0-5.3,0-7.8,0c-0.8-5.9-1.5-11.5-2.2-17c-0.2,0-0.4-0.1-0.6-0.1
		c-2.8,5.8-5.6,11.5-8.8,18c-3.1-6.3-6-11.9-9.1-18.3c-0.8,5.5-1.5,10.4-2,15.3c-0.1,0.7,1.6,1.6,2.3,2.3c-2.3,0-4.9,0-7.5,0
		c2.3-0.5,2.5-2.3,2.8-4.2c1-7.1,2.1-14.1,3.2-21.2c0.1-0.6,0.4-1.2,0.8-2.5c3.7,7.4,7,14.3,10.6,21.6c3.5-7.2,6.8-14.1,10.1-20.9
		c0.2,0,0.5,0,0.7,0c0.5,3.2,1,6.3,1.5,9.5c0.7,4.4,1.5,8.8,2,13.2C373.9,733.9,375,735.4,377.7,735.6z M387.5,733.9
		c-0.6-0.4-1.2-1.4-1.2-2.1c-0.2-2.3-0.1-4.6-0.1-7.5c2.7,1,5.9-1.3,7.4,2.6c0.2-1.7,0.4-3,0.5-4.2c-2.7,0-5.3,0-7.8,0
		c0-2.6,0-5.1,0-7.7c6.4-0.2,6.5-0.2,7.8,2.7c0.1-1.7,0.2-3.2,0.3-4.4c-5.2,0-10.2,0-14.8,0c0.7,0.8,2.1,1.7,2.2,2.5
		c0.1,5.9,0.1,11.8-0.1,17.7c0,0.8-0.9,1.6-1.4,2.4c3.5,0,7.3,0,11.1,0c3.7,0,4-0.3,3.7-4.2C393.9,734,389.9,735.2,387.5,733.9z
		 M398.7,713.9c0.3,0,0.7,0,1,0c-0.2-0.2-0.4-0.4-0.6-0.6C399,713.4,398.8,713.7,398.7,713.9z M423.9,724.8
		c-0.1,5.6-3.8,10.4-9.3,11c-5.1,0.5-10.3,0.1-14.8,0.1c0.5-1.1,1.5-2.1,1.5-3.2c0.2-5.5,0.2-11.1,0.1-16.6c0-0.7-0.8-1.5-1.6-2.2
		c5.3,0,10.6-0.4,15.8,0.1C421,714.6,424,719.1,423.9,724.8z M405.5,715.2c0,5,0,10,0,14.9c0,0.6-0.1,1.3,0.1,1.9
		c0.3,0.8,0.7,1.9,1.4,2.3c4.2,2.3,10.8-0.5,12-5.1C421.8,718.4,413.9,713.5,405.5,715.2z M434,731.9c0.1-5.1-0.1-10.2,0.1-15.3
		c0-1.2,0.9-2.3,1.4-3.3c-2.2,0-5,0-7.3,0c0.5,0.8,1.6,1.8,1.7,2.8c0.2,5.4,0.1,10.9,0,16.3c0,1.2-1,2.3-1.4,3.2c2.4,0,5.5,0,8.6,0
		C434.3,735.7,434,734,434,731.9z M449.9,714.6c4.7-1.3,8.4,0.2,10.8,4.5c0.1-1.9,0.2-3.5,0.2-5.3c-4.8-1.1-9.4-1.7-14,0
		c-7.7,2.8-10,13.2-4.1,18.7c3.8,3.6,8.7,4.2,13.8,3.7c4.1-0.4,4.6-1.2,4.1-5.4c-1.9,3.5-4.4,4.5-8.7,3.5c-4.7-1.1-7.7-4.9-7.8-9.9
		C444.1,718.9,446,715.6,449.9,714.6z M471.6,732.1c0.1-5-0.1-10,0.1-15c0-1.3,0.9-2.6,1.3-3.7c-2.2,0-5,0-7.1,0
		c0.5,0.9,1.5,1.8,1.5,2.8c0.1,5.3,0.1,10.7,0,16.1c0,1.2-1,2.4-1.4,3.5c2.5,0,5.6,0,8.7,0C472.1,735.6,471.6,734.2,471.6,732.1z
		 M498.8,715.6c0.2,4.6,0.1,9.2,0.1,14.2c-6-5.9-11.8-11.5-17.6-17.2c-0.3,0.1-0.6,0.2-0.9,0.4c0,6.2,0,12.5,0,18.7
		c0,1.9-0.1,3.7-2.6,4c2.7,0,5.3,0,8,0c-2.5-0.3-2.8-2.1-2.9-4.1c0-2.3,0-4.6,0-7c0-1.5,0-3,0-5c6.1,5.9,11.7,11.4,17.4,16.9
		c0.2-0.1,0.5-0.2,0.7-0.3c0.1-0.8,0.2-1.7,0.2-2.5c0.1-5,0-10,0.2-15c0.1-2-0.5-4.4,2.6-5.4c-2.9,0-5.4,0-7.5,0
		C497.1,714,498.7,714.8,498.8,715.6z M523.1,731.6c-1.3,2.4-5.3,3.6-7.7,2.2c-0.6-0.3-1.2-1.2-1.2-1.8c-0.2-2.5-0.1-4.9-0.1-7.8
		c2.7,1,5.8-1.3,7.4,2.5c0.2-1.6,0.4-3,0.5-4.2c-2.7,0-5.3,0-7.8,0c0-2.6,0-5.1,0-7.7c6.4-0.3,6.5-0.2,7.8,2.8
		c0.1-1.8,0.2-3.2,0.3-4.5c-5.1,0-10.2,0-14.7,0c0.7,0.9,2.1,1.8,2.1,2.8c0.2,5.6,0.1,11.3-0.1,16.9c0,1-0.8,2-1.3,2.9
		c3.3,0,7.1,0,10.9,0C523.2,735.8,523.4,735.6,523.1,731.6z"/>
	<g id="dna-strands">
		<g id="ekg-top">
			
				<linearGradient id="ekg-top-back_1_" gradientUnits="userSpaceOnUse" x1="379.1433" y1="704.4235" x2="440.9901" y2="704.4235" gradientTransform="matrix(0.9744 0.2248 0.2248 -0.9744 -114.6513 895.4448)">
				<stop  offset="0" style="stop-color:#959636"/>
				<stop  offset="2.520000e-02" style="stop-color:#949536"/>
				<stop  offset="0.4969" style="stop-color:#878935"/>
				<stop  offset="1" style="stop-color:#838534"/>
			</linearGradient>
			<path id="ekg-top-back" class="st2" d="M410.9,304.2c2.4-0.2,4.4-0.3,5.7-0.4c0.6,0,3.2-0.2,6.4-0.5c2.9-0.3,3.8-0.5,4.6-1.2
				c1.1-1,1.2-2.5,1.3-3.4c0.6,0.7,1.1,1.4,1.6,2c0.5,0.8,0.7,1.1,1.1,1.5c0.5,0.4,1.2,0.9,2.4,1.1c3.1-0.1,7-0.3,10.1-0.4
				c2.4-0.1,6.2-0.2,8.5-0.4c0.2,0.1,0.6,0.1,0.9,0c0.5-0.2,0.7-0.7,0.8-1c0.3-1,1.4-4.8,2.7-9.9c0.5,1.5,1,3.1,1.6,4.6
				c0.9,2.6,1.8,5.2,2.7,7.8c0,0,0,0.1,0.1,0.2c0.1,0.1,0.2,0.1,0.4,0c0.3-1.1,0.5-2,0.7-2.7c0.2-0.7,0.4-1.2,0.6-1.2
				c0.2,0,0.5,0.5,0.7,1c0.2,0.5,0.3,0.9,0.6,1.1c0.1,0.1,0.3,0.2,0.4,0.2c1.1,0.3,3.2,0,4.5-0.1c0.3,0,0,0,1.5,0
				c2.9-0.1,3.6-0.2,3.9,0.2c0.1,0.2,0.1,0.5-0.4,1.3c-1.8-0.1-3.2,0-4.1,0c-1.5,0.1-2.9,0.3-5.2,0.3c-0.4,0-0.6,0-0.8,0
				c0-0.2,0-1.4-0.7-1.8c-0.1,0-0.1-0.1-0.2-0.1c-0.4,0.6-0.6,1.1-0.7,1.5c-0.2,0.6-0.2,1.1-0.6,1.8c-0.2,0.3-0.3,0.5-0.4,0.6
				c-0.1-0.1-0.3-0.1-0.4-0.2c-0.8-1.8-1.4-3-1.8-3.9c-1.7-3.7-1.8-3.8-1.8-3.9c0-0.1,0-0.3-0.2-0.5c-0.1-0.1-0.3-0.1-0.5-0.1
				c-0.3,0.8-0.6,1.4-0.8,1.9c-0.8,2-1.2,3-1.3,3.5c-0.3,1-0.2,1.5-0.7,1.8c-0.6,0.5-1.4,0.4-1.8,0.3c-0.5-0.1-3.1-0.1-8.4-0.2
				c-2,0-4.3-0.1-6.5,0.3c-0.5,0.1-2.1,0.4-4.2,0c-0.3,0-0.6-0.1-0.8-0.1c-0.4-0.4-0.8-0.9-1.3-1.4c-0.6-0.6-1.1-1.3-1.5-1.9
				c-0.2,0.1-0.4,0.4-0.6,0.6c-0.5,0.4-1,0.9-1.4,1.1c-0.8,0.6-1.6,0.8-2.5,1.1c-0.6,0.2-1.6,0.5-3.1,0.8c-1.7,0.3-1.8,0.1-4.2,0.4
				c-2.3,0.3-3.4,0.4-3.8,0.5c-1.4,0.3-2,0.5-2.5,0.1C410.6,306,410.8,304.8,410.9,304.2z"/>
			
				<linearGradient id="ekg-top-front_1_" gradientUnits="userSpaceOnUse" x1="379.3464" y1="704.6551" x2="441.1933" y2="704.6551" gradientTransform="matrix(0.9744 0.2248 0.2248 -0.9744 -114.6513 895.4448)">
				<stop  offset="0" style="stop-color:#F2EA1A"/>
				<stop  offset="1" style="stop-color:#F1EA19"/>
			</linearGradient>
			<path id="ekg-top-front" class="st3" d="M411.1,304c2.4-0.2,4.4-0.3,5.7-0.4c0.6,0,3.2-0.2,6.4-0.5c2.9-0.3,3.8-0.5,4.6-1.2
				c1.1-1,1.2-2.5,1.3-3.4c0.6,0.7,1.1,1.4,1.6,2c0.5,0.8,0.7,1.1,1.1,1.5c0.5,0.4,1.2,0.9,2.4,1.1c3.1-0.1,7-0.3,10.1-0.4
				c2.4-0.1,6.2-0.2,8.5-0.4c0.2,0.1,0.6,0.1,0.9,0c0.5-0.2,0.7-0.7,0.8-1c0.3-1,1.4-4.8,2.7-9.9c0.5,1.5,1,3.1,1.6,4.6
				c0.9,2.6,1.8,5.2,2.7,7.8c0,0,0,0.1,0.1,0.2c0.1,0.1,0.2,0.1,0.4,0c0.3-1.1,0.5-2,0.7-2.7c0.2-0.7,0.4-1.2,0.6-1.2
				c0.2,0,0.5,0.5,0.7,1c0.2,0.5,0.3,0.9,0.6,1.1c0.1,0.1,0.3,0.2,0.4,0.2c1.1,0.3,3.2,0,4.5-0.1c0.3,0,0,0,1.5,0
				c2.9-0.1,3.6-0.2,3.9,0.2c0.1,0.2,0.1,0.5-0.4,1.3c-1.8-0.1-3.2,0-4.1,0c-1.5,0.1-2.9,0.3-5.2,0.3c-0.4,0-0.6,0-0.8,0
				c0-0.2,0-1.4-0.7-1.8c-0.1,0-0.1-0.1-0.2-0.1c-0.4,0.6-0.6,1.1-0.7,1.5c-0.2,0.6-0.2,1.1-0.6,1.8c-0.2,0.3-0.3,0.5-0.4,0.6
				c-0.1-0.1-0.3-0.1-0.4-0.2c-0.8-1.8-1.4-3-1.8-3.9c-1.7-3.7-1.8-3.8-1.8-3.9c0-0.1,0-0.3-0.2-0.5c-0.1-0.1-0.3-0.1-0.5-0.1
				c-0.3,0.8-0.6,1.4-0.8,1.9c-0.8,2-1.2,3-1.3,3.5c-0.3,1-0.2,1.5-0.7,1.8c-0.6,0.5-1.4,0.4-1.8,0.3c-0.5-0.1-3.1-0.1-8.4-0.2
				c-2,0-4.3-0.1-6.5,0.3c-0.5,0.1-2.1,0.4-4.2,0c-0.3,0-0.6-0.1-0.8-0.1c-0.4-0.4-0.8-0.9-1.3-1.4c-0.6-0.6-1.1-1.3-1.5-1.9
				c-0.2,0.1-0.4,0.4-0.6,0.6c-0.5,0.4-1,0.9-1.4,1.1c-0.8,0.6-1.6,0.8-2.5,1.1c-0.6,0.2-1.6,0.5-3.1,0.8c-1.7,0.3-1.8,0.1-4.2,0.4
				c-2.3,0.3-3.4,0.4-3.8,0.5c-1.4,0.3-2,0.5-2.5,0.1C410.9,305.9,411,304.6,411.1,304z"/>
		</g>
		<g id="ekg-middle">
			
				<linearGradient id="ekg-middle-back-1_1_" gradientUnits="userSpaceOnUse" x1="453.3277" y1="669.527" x2="401.5775" y2="634.5234" gradientTransform="matrix(0.9521 0.3059 0.3059 -0.9521 -159.8553 917.3578)">
				<stop  offset="0" style="stop-color:#828635"/>
				<stop  offset="3.330000e-02" style="stop-color:#828635"/>
				<stop  offset="1" style="stop-color:#828635"/>
			</linearGradient>
			<path id="ekg-middle-back-1" class="st4" d="M416.8,428.3c1.9-0.1,4.2-0.1,6.7,0.2c1.6,0.2,3,0.4,4.4,0.7
				c0.7-2.1,1.4-4.3,2.1-6.4c0.5,1,0.9,2,1.3,3c0.4,0.9,0.7,1.8,1,2.6c1.4-0.1,3.6-0.2,6.4-0.4c3.7-0.3,4.5-0.5,6.9-0.5
				c3.7-0.1,6.3,0.3,6.9,0.4c1.9,0.3,3.5,0.7,4.7,1c0.4-3.3,0.8-6.5,1.2-9.8c0.7,1.5,1.3,2.7,1.6,3.6c1,2.4,2,5,2,5
				c0.1,0,0.5-0.2,0.8-0.6c0.3-0.4,0.3-0.7,0.3-0.9c1.3-0.1,2.5-0.2,3.9-0.2c4.2-0.2,8.1-0.2,11.9,0c-0.1,0.4-0.2,0.7-0.4,1
				c-2.4,0.3-4.3,0.5-5.7,0.6c-1.1,0.1-2.3,0.2-3.4,0.3c-1.6,0.1-2.6,0.2-4,0.4c-0.7,0.1-1.3,0.2-1.8,0.3c-0.4,1.1-0.7,2.2-1.1,3.3
				c-0.1-0.2-0.4-0.6-0.6-1.1c-0.3-0.5-0.6-1.3-1.5-4.3c-0.2-0.6-0.4-1.3-0.8-2.2c-0.2-0.4-0.3-0.7-0.5-0.9
				c-0.2,1.5-0.4,2.7-0.5,3.5c-0.1,1.3-0.2,2.2-0.4,3.6c-0.1,0.8-0.3,1.4-0.4,1.8c-0.1,0-0.2,0.1-0.3,0.1c-0.2,0-0.3-0.2-0.5-0.5
				c-0.4-0.9-0.3-1.2-0.6-1.5c-0.1-0.1-0.3-0.3-0.6-0.5c-0.7,0-1.6-0.1-2.8-0.1c-1.5,0-2.9,0-5.8,0c-5.2,0.1-4.5,0.2-7.1,0.2
				c-1.2,0-2.5,0-4.4,0.1c-1.1,0.1-2,0.1-2.6,0.2c-0.2,1-0.3,1.8-0.3,2.4c0,0.5,0,1.4,0.1,2.1c0,0.2,0,0.4,0,0.6
				c-0.2-0.2-0.4-0.5-0.5-0.7c-0.4-1-0.6-1.7-0.7-2.2c-0.3-1.1-0.3-1.7-0.7-3.2c-0.2-0.8-0.4-1.5-0.5-1.9c-0.5,0.7-0.8,1.3-1,1.7
				c-0.1,0.3-0.3,1-0.7,2.2c0,0.1,0,0.2-0.1,0.2c-0.5-0.1-1.2-0.3-2.1-0.5c-1.7-0.3-3-0.4-4.4-0.6c-2.1-0.2-3.1-0.3-3.7-0.3
				c-0.9,0-1.9-0.2-2.8-0.1c-0.3,0-0.6,0-0.8-0.1c-0.4-0.4-0.1-1.5,0.8-1.7C416.1,428,416.7,428.3,416.8,428.3z"/>
			
				<linearGradient id="ekg-middle-front-1_1_" gradientUnits="userSpaceOnUse" x1="453.2554" y1="669.8503" x2="401.5051" y2="634.8468" gradientTransform="matrix(0.9521 0.3059 0.3059 -0.9521 -159.8553 917.3578)">
				<stop  offset="0" style="stop-color:#F2EA1A"/>
				<stop  offset="1" style="stop-color:#F1EA19"/>
			</linearGradient>
			<path id="ekg-middle-front-1" class="st5" d="M416.8,428c1.9-0.1,4.2-0.1,6.7,0.2c1.6,0.2,3,0.4,4.4,0.7c0.7-2.1,1.4-4.3,2.1-6.4
				c0.5,1,0.9,2,1.3,3c0.4,0.9,0.7,1.8,1,2.6c1.4-0.1,3.6-0.2,6.4-0.4c3.7-0.3,4.5-0.5,6.9-0.5c3.7-0.1,6.3,0.3,6.9,0.4
				c1.9,0.3,3.5,0.7,4.7,1c0.4-3.3,0.8-6.5,1.2-9.8c0.7,1.5,1.3,2.7,1.6,3.6c1,2.4,2,5,2,5c0.1,0,0.5-0.2,0.8-0.6
				c0.3-0.4,0.3-0.7,0.3-0.9c1.3-0.1,2.5-0.2,3.9-0.2c4.2-0.2,8.1-0.2,11.9,0c-0.1,0.4-0.2,0.7-0.4,1c-2.4,0.3-4.3,0.5-5.7,0.6
				c-1.1,0.1-2.3,0.2-3.4,0.3c-1.6,0.1-2.6,0.2-4,0.4c-0.7,0.1-1.3,0.2-1.8,0.3c-0.4,1.1-0.7,2.2-1.1,3.3c-0.1-0.2-0.4-0.6-0.6-1.1
				c-0.3-0.5-0.6-1.3-1.5-4.3c-0.2-0.6-0.4-1.3-0.8-2.2c-0.2-0.4-0.3-0.7-0.5-0.9c-0.2,1.5-0.4,2.7-0.5,3.5
				c-0.1,1.3-0.2,2.2-0.4,3.6c-0.1,0.8-0.3,1.4-0.4,1.8c-0.1,0-0.2,0.1-0.3,0.1c-0.2,0-0.3-0.2-0.5-0.5c-0.4-0.9-0.3-1.2-0.6-1.5
				c-0.1-0.1-0.3-0.3-0.6-0.5c-0.7,0-1.6-0.1-2.8-0.1c-1.5,0-2.9,0-5.8,0c-5.2,0.1-4.5,0.2-7.1,0.2c-1.2,0-2.5,0-4.4,0.1
				c-1.1,0.1-2,0.1-2.6,0.2c-0.2,1-0.3,1.8-0.3,2.4c0,0.5,0,1.4,0.1,2.1c0,0.2,0,0.4,0,0.6c-0.2-0.2-0.4-0.5-0.5-0.7
				c-0.4-1-0.6-1.7-0.7-2.2c-0.3-1.1-0.3-1.7-0.7-3.2c-0.2-0.8-0.4-1.5-0.5-1.9c-0.5,0.7-0.8,1.3-1,1.7c-0.1,0.3-0.3,1-0.7,2.2
				c0,0.1,0,0.2-0.1,0.2c-0.5-0.1-1.2-0.3-2.1-0.5c-1.7-0.3-3-0.4-4.4-0.6c-2.1-0.2-3.1-0.3-3.7-0.3c-0.9,0-1.9-0.2-2.8-0.1
				c-0.3,0-0.6,0-0.8-0.1c-0.4-0.4-0.1-1.5,0.8-1.7C416.2,427.7,416.7,428,416.8,428z"/>
			
				<linearGradient id="ekg-middle-back-2_1_" gradientUnits="userSpaceOnUse" x1="439.3306" y1="693.0289" x2="383.9441" y2="655.5659" gradientTransform="matrix(0.9381 0.3464 0.3464 -0.9381 -174.6856 900.3966)">
				<stop  offset="0" style="stop-color:#828635"/>
				<stop  offset="3.330000e-02" style="stop-color:#828635"/>
				<stop  offset="1" style="stop-color:#828635"/>
			</linearGradient>
			<path id="ekg-middle-back-2" class="st6" d="M411.9,411.2c0.5,0,1.2-0.1,2.1-0.1c1-0.1,2.8-0.2,4.1-0.2c1.6-0.1,3.7-0.1,6.2,0.1
				c1.2,0.1,2.9,0.4,4.9,0.8c0.4-1,0.9-1.9,1.3-2.9c0.5-1.1,0.9-2.1,1.4-3.2c0.2,0.6,0.3,1.1,0.4,1.5c0.3,1.1,0.5,1.6,0.8,2.8
				c0.1,0.5,0.2,0.9,0.3,1.2c0.5,0,1.1-0.1,1.9-0.1c2.7-0.2,3.7-0.4,5.2-0.5c2.2-0.2,3.9-0.1,6.2-0.1c1.7,0,3.3,0,5,0.2
				c0.8,0.1,1.6,0.2,2.5,0.5c0.7,0.2,1.3,0.4,1.7,0.5c0.2-0.5,0.3-1,0.5-1.6c0.4-1.6,0.6-3.2,0.7-4.6c0.1-1.2,0.3-2.3,0.4-3.5
				c0.2,0.6,0.6,1.5,1,2.6c0.3,1,0.3,1,0.7,2.4c0.1,0.4,0.5,1.4,1,2.8c0.1,0.4,0.3,0.7,0.4,0.9c0.1-0.2,0.3-0.7,0.7-1
				c0.5-0.5,1-0.6,1.3-0.7c1,0,2.4,0.1,4.2,0c2.8,0,4-0.2,6.2-0.2c1.5,0,3.6,0,6.2,0.2c-0.2,0.2-0.3,0.3-0.5,0.5
				c-2,0.4-3.6,0.6-4.7,0.7c-1.6,0.2-2.9,0.4-7.9,0.9c-1.4,0.1-3,0.3-4.4,0.4c-0.4,1-0.7,2-1.1,3c-0.6-1.4-0.9-2.6-1.1-3.5
				c-0.2-1-0.3-1.9-0.8-3.2c-0.2-0.6-0.4-1-0.6-1.3c-0.3,1.4-0.5,2.5-0.6,3.3c-0.2,1.3-0.4,1.9-0.6,3s-0.4,2-0.5,2.6
				c-0.1-0.1-0.3-0.2-0.4-0.3c0-0.2,0-1-0.5-1.7c-0.4-0.4-0.8-0.7-1-0.8c-0.6,0-1.4-0.1-2.5-0.1c-2.9-0.1-4,0-8.2,0.1
				c-3.1,0-3.5,0-6.5,0.1c-1.4,0-2.6,0.1-3.4,0.1c-0.2,1.6-0.5,3.2-0.7,4.8c-0.1-0.1-0.2-0.2-0.4-0.3c-0.1-1.4-0.2-2.5-0.4-3.2
				c-0.2-0.9-0.4-1.8-0.7-3.7c0-0.3-0.1-0.5-0.1-0.6c-0.4,0.8-0.8,1.7-1.1,2.6c-0.2,0.6-0.5,1.2-0.7,1.8c-0.6-0.2-1.5-0.5-2.6-0.8
				c-2-0.5-3.5-0.6-6.3-0.9c-2.9-0.3-4.4-0.4-5.8-0.4c-2.2,0.1-4,0.4-4.1,0C411,411.9,411.4,411.5,411.9,411.2z"/>
			
				<linearGradient id="ekg-middle-back-3_1_" gradientUnits="userSpaceOnUse" x1="429.5094" y1="711.8004" x2="381.8102" y2="679.5369" gradientTransform="matrix(0.9381 0.3464 0.3464 -0.9381 -174.6856 900.3966)">
				<stop  offset="0" style="stop-color:#838634"/>
				<stop  offset="3.330000e-02" style="stop-color:#838634"/>
				<stop  offset="1" style="stop-color:#838634"/>
			</linearGradient>
			<path id="ekg-middle-back-3" class="st7" d="M419.7,389c1.8-0.1,3.8,0,6.1,0.3c1.4,0.2,2.8,0.4,3.9,0.7c0.8-2.1,1.6-4.2,2.4-6.3
				c0.3,1,0.7,2,1,3c0.3,0.9,0.5,1.8,0.7,2.6c1.3,0,3.3-0.1,5.8-0.3c3.4-0.3,4.1-0.4,6.3-0.5c3.4,0,5.7,0.3,6.2,0.4
				c1.7,0.3,3.1,0.7,4.2,1c0.6-3.2,1.2-6.4,1.8-9.6c0.5,1.5,1,2.7,1.2,3.5c0.7,2.4,1.4,5,1.4,5c0.1,0,0.5-0.2,0.8-0.6
				c0.3-0.4,0.3-0.7,0.3-0.9c1.1-0.1,2.3-0.1,3.5-0.2c3.8-0.1,7.4-0.1,10.8,0.1c-0.1,0.3-0.3,0.7-0.4,1c-2.2,0.2-4,0.4-5.2,0.5
				c-1,0.1-2.1,0.2-3.1,0.3c-1.5,0.1-2.4,0.2-3.7,0.4c-0.7,0.1-1.2,0.2-1.6,0.2c-0.4,1.1-0.8,2.2-1.2,3.2c-0.1-0.2-0.3-0.6-0.5-1
				c-0.2-0.5-0.5-1.2-1.1-4.3c-0.1-0.6-0.3-1.3-0.6-2.2c-0.1-0.4-0.3-0.7-0.3-0.9c-0.3,1.5-0.5,2.7-0.7,3.5
				c-0.2,1.2-0.3,2.2-0.7,3.5c-0.2,0.8-0.3,1.4-0.5,1.8c-0.1,0-0.2,0.1-0.3,0.1c-0.2,0-0.3-0.2-0.4-0.5c-0.3-0.8-0.2-1.1-0.5-1.5
				c-0.1-0.1-0.2-0.3-0.5-0.5c-0.6,0-1.5-0.1-2.6-0.2c-1.4-0.1-2.6-0.1-5.3,0c-4.7,0-4.1,0.1-6.5,0.1c-1,0-2.2,0-4,0
				c-1,0-1.9,0.1-2.4,0.2c-0.3,1-0.4,1.8-0.4,2.4c0,0.5-0.1,1.4-0.1,2c0,0.2,0,0.4,0,0.5c-0.1-0.2-0.3-0.4-0.4-0.7
				c-0.2-0.9-0.4-1.7-0.5-2.2c-0.2-1.1-0.2-1.7-0.4-3.2c-0.1-0.8-0.2-1.5-0.3-1.9c-0.5,0.7-0.8,1.3-1,1.7c-0.1,0.3-0.4,0.9-0.8,2.2
				c0,0.1-0.1,0.2-0.1,0.2c-0.5-0.1-1.1-0.3-1.9-0.5c-1.5-0.3-2.7-0.5-4-0.6c-1.9-0.2-2.8-0.3-3.4-0.3c-0.9,0-1.7-0.2-2.6-0.1
				c-0.3,0-0.5,0-0.7-0.1c-0.3-0.4,0-1.5,0.8-1.7C419.1,388.7,419.6,388.9,419.7,389z"/>
			
				<linearGradient id="ekg-middle-front-3_1_" gradientUnits="userSpaceOnUse" x1="429.4628" y1="712.0709" x2="381.7635" y2="679.8075" gradientTransform="matrix(0.9381 0.3464 0.3464 -0.9381 -174.6856 900.3966)">
				<stop  offset="0" style="stop-color:#EFE919"/>
				<stop  offset="1" style="stop-color:#EFE919"/>
			</linearGradient>
			<path id="ekg-middle-front-3" class="st8" d="M419.8,388.7c1.8-0.1,3.8,0,6.1,0.3c1.4,0.2,2.8,0.4,3.9,0.7
				c0.8-2.1,1.6-4.2,2.4-6.3c0.3,1,0.7,2,1,3c0.3,0.9,0.5,1.8,0.7,2.6c1.3,0,3.3-0.1,5.8-0.3c3.4-0.3,4.1-0.4,6.3-0.5
				c3.4,0,5.7,0.3,6.2,0.4c1.7,0.3,3.1,0.7,4.2,1c0.6-3.2,1.2-6.4,1.8-9.6c0.5,1.5,1,2.7,1.2,3.5c0.7,2.4,1.4,5,1.4,5
				c0.1,0,0.5-0.2,0.8-0.6c0.3-0.4,0.3-0.7,0.3-0.9c1.1-0.1,2.3-0.1,3.5-0.2c3.8-0.1,7.4-0.1,10.8,0.1c-0.1,0.3-0.3,0.7-0.4,1
				c-2.2,0.2-4,0.4-5.2,0.5c-1,0.1-2.1,0.2-3.1,0.3c-1.5,0.1-2.4,0.2-3.7,0.4c-0.7,0.1-1.2,0.2-1.6,0.2c-0.4,1.1-0.8,2.2-1.2,3.2
				c-0.1-0.2-0.3-0.6-0.5-1c-0.2-0.5-0.5-1.2-1.1-4.3c-0.1-0.6-0.3-1.3-0.6-2.2c-0.1-0.4-0.3-0.7-0.3-0.9c-0.3,1.5-0.5,2.7-0.7,3.5
				c-0.2,1.2-0.3,2.2-0.7,3.5c-0.2,0.8-0.3,1.4-0.5,1.8c-0.1,0-0.2,0.1-0.3,0.1c-0.2,0-0.3-0.2-0.4-0.5c-0.3-0.8-0.2-1.1-0.5-1.5
				c-0.1-0.1-0.2-0.3-0.5-0.5c-0.6,0-1.5-0.1-2.6-0.2c-1.4-0.1-2.6-0.1-5.3,0c-4.7,0-4.1,0.1-6.5,0.1c-1,0-2.2,0-4,0
				c-1,0-1.9,0.1-2.4,0.2c-0.3,1-0.4,1.8-0.4,2.4c0,0.5-0.1,1.4-0.1,2c0,0.2,0,0.4,0,0.5c-0.1-0.2-0.3-0.4-0.4-0.7
				c-0.2-0.9-0.4-1.7-0.5-2.2c-0.2-1.1-0.2-1.7-0.4-3.2c-0.1-0.8-0.2-1.5-0.3-1.9c-0.5,0.7-0.8,1.3-1,1.7c-0.1,0.3-0.4,0.9-0.8,2.2
				c0,0.1-0.1,0.2-0.1,0.2c-0.5-0.1-1.1-0.3-1.9-0.5c-1.5-0.3-2.7-0.5-4-0.6c-1.9-0.2-2.8-0.3-3.4-0.3c-0.9,0-1.7-0.2-2.6-0.1
				c-0.3,0-0.5,0-0.7-0.1c-0.3-0.4,0-1.5,0.8-1.7C419.2,388.4,419.6,388.6,419.8,388.7z"/>
		</g>
		<g id="ekg-bottom">
			
				<linearGradient id="ekg-bottom-back_1_" gradientUnits="userSpaceOnUse" x1="-282.2265" y1="302.7127" x2="-199.3306" y2="302.7127" gradientTransform="matrix(-0.7159 0.276 -0.3597 -0.9331 382.2249 870.0819)">
				<stop  offset="0" style="stop-color:#8B8D35"/>
				<stop  offset="3.330000e-02" style="stop-color:#8B8D35"/>
				<stop  offset="1" style="stop-color:#8B8D35"/>
			</linearGradient>
			<path id="ekg-bottom-back" class="st9" d="M480.3,522.5c-2.6-0.1-4.6-0.1-6-0.1c-0.6,0-3.4,0-6.8-0.1c-3.1-0.1-4.1-0.3-5.1-1.2
				c-1.4-1.3-1.9-3.2-2.2-4.3c-0.5,1-0.8,1.9-1.1,2.8c-0.4,1-0.4,1.5-0.8,2c-0.4,0.6-1,1.3-2.2,1.6c-3.2,0.1-7.4,0.2-10.6,0.3
				c-2.5,0.1-6.5,0.2-9,0.2c-0.2,0.1-0.6,0.2-1,0c-0.5-0.2-0.9-0.9-1.1-1.3c-0.6-1.3-2.6-6.1-5.3-12.7c-0.1,2-0.3,4.1-0.5,6.1
				c-0.3,3.5-0.5,6.9-0.8,10.3c0,0,0,0.2-0.1,0.3c-0.1,0.1-0.2,0.1-0.4,0.1c-0.6-1.4-1.1-2.6-1.5-3.5c-0.4-0.9-0.7-1.6-1-1.6
				c-0.3,0-0.4,0.7-0.5,1.3c-0.1,0.7-0.1,1.1-0.4,1.5c-0.1,0.2-0.2,0.2-0.4,0.3c-1.1,0.5-3.3,0.3-4.8,0.3c-0.3,0,0,0-1.6,0
				c-3,0.1-3.8,0-4,0.6c-0.1,0.2,0,0.7,0.8,1.7c1.8-0.2,3.3-0.3,4.3-0.3c1.5,0,3.1,0.2,5.5,0c0.4,0,0.7-0.1,0.9-0.1
				c-0.1-0.3-0.4-1.8,0.3-2.4c0,0,0.1-0.1,0.2-0.1c0.6,0.8,0.9,1.4,1.1,1.9c0.4,0.8,0.5,1.5,1.1,2.3c0.2,0.3,0.5,0.6,0.6,0.7
				c0.1-0.1,0.2-0.2,0.4-0.3c0.4-2.3,0.7-4,0.9-5.2c0.9-4.9,0.9-5,0.9-5.2c0-0.1-0.1-0.4,0.1-0.6c0.1-0.2,0.3-0.2,0.4-0.2
				c0.5,1,1,1.8,1.3,2.4c1.4,2.5,2,3.8,2.3,4.5c0.5,1.3,0.6,1.9,1.2,2.3c0.7,0.6,1.6,0.3,1.9,0.3c0.5-0.1,3.2-0.4,8.6-1
				c2-0.2,4.5-0.5,6.8-0.2c0.6,0.1,2.3,0.3,4.4-0.3c0.3-0.1,0.6-0.2,0.8-0.3c0.3-0.6,0.6-1.2,1-1.9c0.4-0.9,0.8-1.7,1.1-2.6
				c0.2,0.2,0.5,0.4,0.8,0.7c0.6,0.5,1.3,1,1.8,1.3c1,0.7,1.8,0.9,2.9,1.3c0.7,0.2,1.8,0.5,3.5,0.7c1.8,0.2,1.9,0,4.5,0.2
				c2.5,0.2,3.7,0.2,4.1,0.3c1.5,0.2,2.2,0.5,2.6,0C481,524.9,480.6,523.3,480.3,522.5z"/>
			
				<linearGradient id="ekg-bottom-front_1_" gradientUnits="userSpaceOnUse" x1="-282.7859" y1="303.4368" x2="-199.89" y2="303.4368" gradientTransform="matrix(-0.7159 0.276 -0.3597 -0.9331 382.2249 870.0819)">
				<stop  offset="0" style="stop-color:#F2EA1A"/>
				<stop  offset="1" style="stop-color:#F1EA19"/>
			</linearGradient>
			<path id="ekg-bottom-front" class="st10" d="M480.4,521.6c-2.6-0.1-4.6-0.1-6-0.1c-0.6,0-3.4,0-6.8-0.1c-3.1-0.1-4.1-0.3-5.1-1.2
				c-1.4-1.3-1.9-3.2-2.2-4.3c-0.5,1-0.8,1.9-1.1,2.8c-0.4,1-0.4,1.5-0.8,2c-0.4,0.6-1,1.3-2.2,1.6c-3.2,0.1-7.4,0.2-10.6,0.3
				c-2.5,0.1-6.5,0.2-9,0.2c-0.2,0.1-0.6,0.2-1,0c-0.5-0.2-0.9-0.9-1.1-1.3c-0.6-1.3-2.6-6.1-5.3-12.7c-0.1,2-0.3,4.1-0.5,6.1
				c-0.3,3.5-0.5,6.9-0.8,10.3c0,0,0,0.2-0.1,0.3c-0.1,0.1-0.2,0.1-0.4,0.1c-0.6-1.4-1.1-2.6-1.5-3.5c-0.4-0.9-0.7-1.6-1-1.6
				c-0.3,0-0.4,0.7-0.5,1.3c-0.1,0.7-0.1,1.1-0.4,1.5c-0.1,0.2-0.2,0.2-0.4,0.3c-1.1,0.5-3.3,0.3-4.8,0.3c-0.3,0,0,0-1.6,0
				c-3,0.1-3.8,0-4,0.6c-0.1,0.2,0,0.7,0.8,1.7c1.8-0.2,3.3-0.3,4.3-0.3c1.5,0,3.1,0.2,5.5,0c0.4,0,0.7-0.1,0.9-0.1
				c-0.1-0.3-0.4-1.8,0.3-2.4c0,0,0.1-0.1,0.2-0.1c0.6,0.8,0.9,1.4,1.1,1.9c0.4,0.8,0.5,1.5,1.1,2.3c0.2,0.3,0.5,0.6,0.6,0.7
				c0.1-0.1,0.2-0.2,0.4-0.3c0.4-2.3,0.7-4,0.9-5.2c0.9-4.9,0.9-5,0.9-5.2c0-0.1-0.1-0.4,0.1-0.6c0.1-0.2,0.3-0.2,0.4-0.2
				c0.5,1,1,1.8,1.3,2.4c1.4,2.5,2,3.8,2.3,4.5c0.5,1.3,0.6,1.9,1.2,2.3c0.7,0.6,1.6,0.3,1.9,0.3c0.5-0.1,3.2-0.4,8.6-1
				c2-0.2,4.5-0.5,6.8-0.2c0.6,0.1,2.3,0.3,4.4-0.3c0.3-0.1,0.6-0.2,0.8-0.3c0.3-0.6,0.6-1.2,1-1.9c0.4-0.9,0.8-1.7,1.1-2.6
				c0.2,0.2,0.5,0.4,0.8,0.7c0.6,0.5,1.3,1,1.8,1.3c1,0.7,1.8,0.9,2.9,1.3c0.7,0.2,1.8,0.5,3.5,0.7c1.8,0.2,1.9,0,4.5,0.2
				c2.5,0.2,3.7,0.2,4.1,0.3c1.5,0.2,2.2,0.5,2.6,0C481.1,524,480.7,522.5,480.4,521.6z"/>
		</g>
		<g id="dna-strand-1">
			
				<linearGradient id="dna-strand-1-top_1_" gradientUnits="userSpaceOnUse" x1="420.8241" y1="663.631" x2="394.2502" y2="778.8005" gradientTransform="matrix(0.9744 0.2248 0.2248 -0.9744 -114.6513 895.4448)">
				<stop  offset="0.1929" style="stop-color:#909090"/>
				<stop  offset="0.3629" style="stop-color:#989797"/>
				<stop  offset="0.3988" style="stop-color:#A2A0A0"/>
				<stop  offset="0.5131" style="stop-color:#BFBDBD"/>
				<stop  offset="0.6298" style="stop-color:#D8D6D5"/>
				<stop  offset="0.7484" style="stop-color:#EBEAE9"/>
				<stop  offset="0.8703" style="stop-color:#F9F8F7"/>
				<stop  offset="1" style="stop-color:#FFFFFF"/>
			</linearGradient>
			<path id="dna-strand-1-top" class="st11" d="M402.1,240.2c-1.6-0.4-2.5-1.8-2.5-1.9c-0.5-0.9-0.5-1.8-0.6-2.4
				c0-1.9,0.7-3.4,1.1-4.2c1.7-2.7,5.2-3.5,6.9-3.9c12.2-2.6,22.2-2.5,22.2-2.5c8.8,0.5,13.3,0.1,17,0.5c8,0.9,14.2,1.7,21,5.4
				c6.9,3.8,10.9,8.9,12.8,11.4c10.8,14,10.3,29.9,10.1,34.7c-0.1,1.9-0.5,7.8-2.8,15.1c-2.7,8.3-6.4,13.9-10.3,19.4
				c-6.5,9.3-12.9,15.2-16.9,19c-7.6,7-15.8,12.9-16.1,12.6c-0.1-0.2,1.7-1.8,4.6-4.7c10-10.2,16-19.3,17.5-21.7
				c2-3.2,3.9-6.1,5.9-10.5c2.1-4.6,5-11.2,5.6-20.1c0.2-3.6,0.7-11.5-3-20.8c-0.8-1.9-4.2-10-12.4-17.2c-2.7-2.4-7.2-6.2-14.2-8.3
				c-2.5-0.8-4.8-1-9.2-1.5c-5-0.5-11.8-1.2-20.1-0.4c-8.3,0.9-12.5,1.3-13.2,1.6C405,240,403.6,240.6,402.1,240.2z"/>
			<path id="dna-strand-1-middle" class="st12" d="M431.6,466c-2.7-1.7-6-4.1-9.6-7.1c-2-1.7-5.7-4.9-9.7-9.6
				c-2.8-3.4-6.9-8.3-10.2-15.8c-1.3-3-4-9.3-4.4-17.9c-0.5-9.6,1.9-16.9,3.3-20.9c1.9-5.5,4.1-9.4,5.8-12.4
				c0.7-1.1,3.8-6.5,9.3-13.1c3.8-4.5,6.8-7.4,12.9-13c3.5-3.2,8.5-7.7,14.9-12.9c5.7-4.6,5.5-4,9.6-7.4c8.4-7,14-13.2,16.1-15.5
				c4-4.5,7.6-8.6,11.3-14.9c1.7-2.9,4.2-7.2,6.2-13.5c1.6-5.1,2.2-9.3,2.5-11.8c0.5-3.5,0.9-6.8,0.6-11.2c-0.5-7.8-3-13.6-4.1-16.2
				c-0.6-1.5-1.6-3.6-3-5.9c-2.7-4.5-5.8-7.8-8-10.1c0.7,0.5,1.7,1,2.8,1.8c1,0.8,2.7,2.1,4.3,3.8c1.7,1.8,2.8,3.3,4.8,6.3
				c1,1.4,1.8,2.6,2.7,4.2c0.5,0.9,1.8,3.2,3,6.3c1.9,5,2.6,9.1,2.8,10.5c0.6,4.1,0.5,7.3,0.4,9.2c-0.1,4.1-0.7,7.1-1.2,10
				c-0.5,2.7-1.1,6.1-2.5,10.2c-1.3,3.7-2.5,6.2-5,11.2c-2.3,4.5-3.9,7.8-6.7,11.8c-0.8,1.2-2.3,3.2-5.3,7.2
				c-2.8,3.6-4.1,5.5-5.5,7.1c-2.9,3.6-5.4,6.2-7.5,8.3c-2.1,2.2-3.7,3.8-6.7,6.8c-7.4,7.3-12.5,11.9-13.5,12.8
				c-2.2,2-3.5,3.1-5.2,4.6c-0.7,0.6-1.4,1.2-2.5,2.2c-1.6,1.4-2.5,2.2-3.3,3c-1,1-1.9,2.2-3.7,4.5c-1.2,1.6-2.6,3.5-4.3,6.1
				c-0.8,1.2-1.5,2.4-2.5,4c-1.4,2.5-2.3,4.5-2.5,5.1c-0.3,0.6-1.5,3.5-2.6,7.6c-0.4,1.5-1,3.6-1.4,6.3c-0.8,5.1-0.5,9.2-0.4,11
				c0.2,2.8,0.7,4.8,1,6.6c0.6,2.9,1.2,4.9,2.3,8.4c0.9,3,1.6,5.2,2.8,8.1c0.7,1.8,1.4,3.1,2,4.4c1,2,1.3,2.5,3.4,6.7
				c2.4,4.7,2.7,5.4,3.9,7.3c1,1.8,2,3.2,2.6,4.1C431.3,465,431.4,465.5,431.6,466z"/>
			
				<linearGradient id="dna-strand-1-bottom_1_" gradientUnits="userSpaceOnUse" x1="475.5892" y1="464.9935" x2="443.7578" y2="602.9484" gradientTransform="matrix(0.9744 0.2248 0.2248 -0.9744 -114.6513 895.4448)">
				<stop  offset="0" style="stop-color:#FFFFFF"/>
				<stop  offset="0.1865" style="stop-color:#E5E4E3"/>
				<stop  offset="0.5643" style="stop-color:#B5B4B3"/>
				<stop  offset="1" style="stop-color:#818282"/>
			</linearGradient>
			<path id="dna-strand-1-bottom" class="st13" d="M473.8,541.2c-0.5,2.9,2.3,5.5,2.6,5.8c0.7,0.7,1.9,1.8,3.7,2.1
				c3.6,0.7,6.3-2.1,6.6-2.4c0.8-0.8,1.1-1.6,2-4c1.5-3.8,2.2-5.8,2.7-7.5c0.9-3.2,2.6-9.3,2.6-16.5c0.1-11.5-4-20.3-5.8-24.1
				c-0.2-0.5-5.8-11.9-16.5-21c-4.1-3.5-9.3-7-9.6-7.2c-3.3-2.2-3.3-1.9-9-5.4c-5.9-3.6-6.2-4.1-12.4-7.9c-3.8-2.3-4.2-2.5-6.2-3.8
				c-2.3-1.6-5.1-3.5-8.1-6.6c-3.6-3.6-5.8-7.1-6.8-8.8c-2.5-4.3-3.8-8-4.4-10c-0.9-2.8-2.3-7.8-1.9-13.7c0.1-1.3,0.3-2.6,0.2-2.6
				c-0.1,0-1,3.6-1,7.6c0,3,0.5,5.3,0.8,6.9c2.7,11.7,6.1,20.4,6.1,20.4c2.8,7,5.5,12.1,7.3,15.3c1.7,3.2,3.3,5.9,4.5,7.8
				c1.4,0.8,3.6,2.1,6.4,3.6c8.2,4.5,11,5.4,15.6,8.4c1.6,1,5.3,3.5,9.3,7.3c3.3,3.1,9,8.8,12.8,18c2.9,7.1,3.3,13.1,3.4,14.9
				c0.3,6-0.8,10.6-1.3,13c-1,4.5-1.6,6.7-2.8,8.6C474.4,539.9,474,540.4,473.8,541.2z"/>
		</g>
		<g id="dna-strand-2">
			
				<linearGradient id="dna-strand-2-top_1_" gradientUnits="userSpaceOnUse" x1="433.3512" y1="590.6517" x2="400.675" y2="732.2679" gradientTransform="matrix(0.9744 0.2248 0.2248 -0.9744 -114.6513 895.4448)">
				<stop  offset="0" style="stop-color:#58595B"/>
				<stop  offset="8.850000e-02" style="stop-color:#76777A"/>
				<stop  offset="0.2245" style="stop-color:#9C9EA0"/>
				<stop  offset="0.3589" style="stop-color:#BDBFC1"/>
				<stop  offset="0.4889" style="stop-color:#D9DADB"/>
				<stop  offset="0.6133" style="stop-color:#ECEDED"/>
				<stop  offset="0.7297" style="stop-color:#F8F9F9"/>
				<stop  offset="0.8302" style="stop-color:#FFFFFF"/>
			</linearGradient>
			<path id="dna-strand-2-top" class="st14" d="M419,278.3c-0.1-0.5-0.6-3.7-3.4-5.3c-0.2-0.1-1.4-0.8-3-0.9c-2-0.2-3.6,0.6-4.4,1
				c0,0-1.7,0.9-3.1,2.5c-6,7-6.7,23-6.7,23c-0.2,3.8-0.3,8.2,0.7,14c0.6,3.3,2.1,10.2,6.5,17.8c3.8,6.7,8,10.9,11.2,14
				c5.6,5.5,10.5,8.6,20,14.6c13.4,8.4,14.2,7.5,21.3,13c10.5,8.2,14.2,14.6,15.3,16.8c3.5,6.6,4.4,12,4.5,13.2
				c0.9,6.7-0.2,12.2-1.2,15.4c1.5-2.6,3.3-6.5,4.4-11.6c0.3-1.5,1.2-5.9,0.8-11.7c-0.4-7.2-2.5-12.5-4.4-17
				c-3-7.4-4.8-12.4-9.8-16.8c-1.2-1.1-2.6-2-5.3-3.7c-6.8-4.4-12-6.8-15-8.3c-2.2-1.1-11-5.6-18.3-12.6
				c-3.6-3.5-11.1-10.7-14.2-22.5c-2.9-11-0.5-20.8,0.8-25.9C416.9,283.5,418.1,280.4,419,278.3z"/>
			
				<linearGradient id="dna-strand-2-middle_1_" gradientUnits="userSpaceOnUse" x1="450.8849" y1="420.4798" x2="450.8849" y2="652.2769" gradientTransform="matrix(0.9744 0.2248 0.2248 -0.9744 -114.6513 895.4448)">
				<stop  offset="0" style="stop-color:#FFFFFF"/>
				<stop  offset="1.760000e-02" style="stop-color:#FFFFFF"/>
				<stop  offset="0.5296" style="stop-color:#FFFFFF"/>
				<stop  offset="0.6886" style="stop-color:#FBFAFA"/>
				<stop  offset="0.7766" style="stop-color:#F1F0EF"/>
				<stop  offset="0.8473" style="stop-color:#E4E2E2"/>
				<stop  offset="0.9087" style="stop-color:#D1D0CF"/>
				<stop  offset="0.9636" style="stop-color:#BCBBBA"/>
				<stop  offset="1" style="stop-color:#AAAAA9"/>
			</linearGradient>
			<path id="dna-strand-2-middle" class="st15" d="M468.4,360.6c1,1.8,1.8,3.2,2.4,4.1c1.1,1.8,1.3,2.1,2.1,3.4
				c0.8,1.4,1.4,2.5,2,3.8c0.7,1.3,1.3,2.5,1.6,3.2c2.1,4.5,3.4,9.5,3.4,9.5c0.7,2.6,1.7,6.4,1.9,11.4c0.1,2,0.2,5.7-0.8,10.4
				c-0.2,1-1,4.6-3,8.9c-0.4,0.8-0.7,1.5-1,2c-0.2,0.7-0.4,1.7-0.8,2.9c-0.5,1.6-1.1,3.9-2.3,6.8c-1.1,2.7-2.2,4.7-2.6,5.6
				c-1.1,2-2,3.4-2.9,4.7c-0.4,0.6-1.4,2.2-2.9,4.1c-1.4,1.9-2.8,3.7-4.9,5.9c-2.2,2.4-4.2,4-4.7,4.5c-1.2,1-2.4,1.9-4.2,3.3
				c-1.2,0.9-2.1,1.6-2.4,1.8c-4.1,3-7.7,7.3-13.4,12.6c-1.9,1.8-2.7,2.3-4.4,4c-0.6,0.6-1.1,1.1-4.7,5.2c-2,2.3-3,3.5-4.1,4.7
				c-2.1,2.4-3.2,3.6-4.4,5.2c-1.6,2-2.7,3.5-3.7,4.9c-1.5,2-2.9,3.9-4.6,6.6c-2.6,4.2-4.4,7.6-5.3,9.2c-0.3,0.6-1,2-1.9,4
				c-0.9,2.1-2.4,5.2-3.6,9.2c-0.4,1.3-1.8,5.7-2.7,11.7c-0.7,4.9-1.3,8.5-0.7,12.4c0.1,0.7,0.4,2.4,0.9,6c0.5,3.3,0.4,3.2,0.5,3.9
				c0.5,3,1.4,5.1,2.4,7.6c0.9,2.3,1.8,4.5,3.5,7.3c0.4,0.6,2,3.2,4.7,6.3c1.3,1.5,3,3.3,5.7,5.3c1.2,0.9,3.7,2.6,7.3,4.1
				c2.5,1,5,1.6,9.9,2.6c2.2,0.5,5.1,1,8.5,1.6c-0.7-0.5-1.7-1.2-2.9-2c-4.5-2.9-6.4-3.5-8.8-5.2c-1.2-0.9-3.9-3-6.9-6.3
				c-0.9-1-4-4.5-6.9-10.1c-1.4-2.6-3.4-6.5-4.5-12c-0.9-4.2-0.9-7.4-0.8-12.9c0-3.4,0.1-7,1-11.7c0.8-4.1,1.8-7.1,2.4-8.8
				c0.4-1,2-5.8,5.4-11.9c1.3-2.3,2.4-4.3,4.2-6.8c0.3-0.4,1.1-1.5,4.3-5.1c3.1-3.5,4.6-5.2,5.6-6.2c3.4-3.3,4.6-3.5,8.7-7.1
				c2-1.8,2.6-2.7,5.4-5.3c1.7-1.5,3-2.6,4-3.5c9.2-7.8,11.2-9.2,14.9-12.7c1.1-1.1,3-2.9,5.3-5.3c6.7-7.1,10.8-12.9,12.1-14.8
				c1.5-2.3,3-4.4,4.6-7.5c1.8-3.4,2.9-6.3,3.6-8.5c0.6-1.6,1.3-3.6,2.1-6.2c0.7-2.6,1.5-5.3,1.8-8.9c0.3-3.5,0-6-0.3-9.1
				c-0.3-2.5-0.6-5.4-1.6-9.1c-1.3-4.7-3.1-8.1-4.1-10.1c-2-3.8-3.9-6.3-5.5-8.6c-0.8-1.1-3.1-4.2-6.6-7.9
				C473.9,365.5,471.4,363,468.4,360.6z"/>
			
				<linearGradient id="dna-strand-2-bottom_1_" gradientUnits="userSpaceOnUse" x1="526.671" y1="472.4335" x2="427.6351" y2="472.4335" gradientTransform="matrix(0.9744 0.2248 0.2248 -0.9744 -114.6513 895.4448)">
				<stop  offset="0" style="stop-color:#A19F9F"/>
				<stop  offset="1" style="stop-color:#E5E7E5"/>
			</linearGradient>
			<path id="dna-strand-2-bottom" class="st16" d="M439.7,485.6c-3.8,2.4-6.7,4.7-8.8,6.6c-0.6,0.5-2.6,2.4-5,5
				c-2.5,2.8-4.1,5-5.8,7.3c-2.5,3.4-3.8,5.2-5.2,8c-1.5,2.7-2.2,4.8-3.5,8.3c-1.2,3.2-2,5.4-2.7,8.5c-0.4,2-0.6,3.7-1,7.1
				c-0.4,3.7-0.6,5.6-0.7,8c-0.1,4.6,0.5,8.1,0.7,9.1c0.9,5,2.4,8.6,3.4,11c1,2.4,2.4,5.5,4.9,9.2c0.7,1,3.3,4.5,7.6,8.2
				c3.5,3,6.7,4.7,10,6.6c2.3,1.3,4.3,2.3,5.8,2.9c0.3,0,0.8,0.1,1.3,0.2c7,1.1,12,0.8,19.3,0.4c7.9-0.4,15.7-1.3,23.6-1.7
				c0.7,0,3.3-0.2,6.5-1.3c3.5-1.2,5.1-2.7,5.5-3.1c0.9-0.9,2.4-2.2,2.8-4.5c0.3-1.5,0.1-2.8-0.1-3.6c-0.2-0.7-0.7-2.4-2.1-3.4
				c-1-0.8-2.2-0.9-4.4-0.9c-4,0-7.1,0.5-7.6,0.6c0,0-1,0.2-8.1,1.2c-4.9,0.8-8.6,1-11.7,1.3c-4.2,0.3-7.3,0.6-11.5,0.6
				c-3.1,0-5.6,0-8.8-0.5c-5.9-0.8-10.1-2.5-11.5-3.1c-3.5-1.5-6.8-2.8-10.1-5.9c-2.7-2.5-4.2-5-6-8.1c-1.6-2.7-3.1-5.3-4.1-9.2
				c-0.9-3.6-0.9-6.4-0.9-9.3c0-1.2,0.1-5.7,1.4-11.6c0.3-1.3,1.6-7.1,5.1-14.3c2.6-5.4,5.2-9.2,8.3-13.6c1.6-2.3,2.9-4.1,4.9-6.5
				c3.2-3.9,4.9-5.6,5.6-6.4C437.8,487.2,438.9,486.3,439.7,485.6z"/>
		</g>
	</g>
	<path id="jesse-word" class="st17" d="M308.5,77.5c-0.3,0.1-0.5,0.2-0.8,0.2c-3,0.4-3.5,0.9-3.5,3.9c0,10.7,0,21.4,0,32.1
		c0,9-5.2,14.5-12.7,18.4c-0.4,0.2-0.8,0.2-1.2,0.2c0-0.2-0.1-0.3-0.2-0.5c0.2-0.2,0.3-0.4,0.5-0.6c4.8-2.9,6.5-7.5,6.6-12.7
		c0.2-12.6,0.1-25.2,0.1-37.8c0-1.9-1-2.8-3.1-3c-0.6-0.1-1.2-0.1-2-0.2C293.4,76.5,307.7,76.6,308.5,77.5z M336.9,110.8
		c-0.7,2.8-1.6,3.7-4.6,3.9c-1.7,0.1-3.4,0.1-5.1,0c-2.8-0.2-4-1.5-4-4.3c0-3.4,0-6.9,0-10.3c0-0.9,0-1.8,0-2.5c2.8,0,5.3-0.1,7.8,0
		c2.7,0.2,3.2,0.9,3.4,3.6c0,0.3,0.2,0.5,0.2,0.8c0.2,0,0.4,0,0.5,0c0.3-3.1,0.5-6.1,0.8-9.4c-4.2,3-8.6,1.2-12.7,1.8
		c0-5.1,0-9.9,0-14.9c3.1,0.2,6.1,0.2,9,0.5c1.7,0.2,2.5,1.3,2.7,3c0,0.5,0.2,1,0.2,1.5c0.2,0,0.4,0,0.6,0c0.3-2.8,0.5-5.7,0.8-8.2
		c-8.5,0.8-16.9,0.1-25.3,0.7c0.5,0.4,1,0.7,1.5,0.7c2.5,0.2,3.4,1.1,3.4,3.6c0,10.4,0,20.7-0.1,31.1c0,3.7-0.7,4.4-3.7,4.5
		c-0.1,0-0.3,0.2-0.4,0.3c0,0.1,0,0.3,0,0.4c0.7,0,1.3,0.1,2,0.1c4.2,0,8.4,0,12.6,0c2.8,0,5.6,0.2,8.3,0.1c0.7,0,1.9-0.5,1.9-1
		c0.4-2.3,0.6-4.7,0.9-7.1c0-0.1-0.2-0.3-0.6-0.8C337.2,109.9,337,110.4,336.9,110.8z M356.7,92.5c-1.7-1.3-3.5-2.4-5-3.9
		c-1.9-1.9-2.2-4.9-0.9-7.1c1.4-2.3,4.7-3.5,8-2.8c2.7,0.5,4.7,2.8,5,5.5c0.1,0.5,0.2,0.9,0.3,1.4c0.2,0,0.3,0,0.5,0
		c0.1-0.5,0.2-1,0.3-1.5c0.1-2,0.1-3.9,0.3-5.9c0.1-1.1-0.3-1.7-1.4-1.8c-3.1-0.2-6.4-0.8-9.4-0.3c-10.7,1.7-11.8,12.2-7.6,17.8
		c1.7,2.2,4.2,3.9,6.4,5.8c1.7,1.4,3.7,2.5,5.2,4.1c3.2,3.3,2.4,9-1.4,11.2c-4.8,2.7-11.1-0.3-11.9-5.7c-0.1-0.8-0.3-1.6-0.4-2.5
		c-0.1,0-0.3,0-0.4-0.1c-0.2,0.3-0.5,0.7-0.5,1c-0.1,2.6-0.3,5.1-0.3,7.7c0,0.7,0.7,1.7,1.3,1.9c1.8,0.7,3.8,1.3,5.7,1.6
		c3.7,0.5,7.3-0.1,10.3-2.4c6-4.4,7.1-13,2.3-18.6C361.4,95.8,358.9,94.2,356.7,92.5z M385.5,92.5c-1.7-1.3-3.5-2.4-5-3.9
		c-2-2-2.2-5.2-0.6-7.4c1.6-2.3,4.9-3.3,8.1-2.5c2.5,0.6,4.3,2.9,4.7,5.7c0,0.4,0.2,0.8,0.3,1.2c0.2,0,0.3,0,0.5,0
		c0.1-0.5,0.2-1,0.2-1.5c0.1-2,0.1-3.9,0.3-5.9c0.1-1.1-0.4-1.6-1.4-1.8c-3.2-0.6-6.3-1-9.6-0.4c-7,1.2-11,7.4-9.1,14.3
		c1.1,4,4,6.5,7.2,8.7c2,1.4,4.1,2.7,5.9,4.4c2.4,2.2,2.9,5.7,1.6,8.6c-1.1,2.5-3.7,4-6.6,3.9c-3.8-0.2-6.6-2-7.6-5.1
		c-0.4-1.3-0.5-2.6-0.9-4.4c-0.4,0.6-0.7,0.8-0.8,1c-0.2,2.8-0.3,5.5-0.3,8.3c0,0.5,0.5,1.2,0.9,1.4c4.3,1.9,8.6,2.4,13.3,0.9
		c9-3,10.8-14.5,5.1-20.6C389.9,95.5,387.6,94.1,385.5,92.5z M424.5,109.1c-0.2,0.8-0.3,1.2-0.4,1.7c-0.7,2.8-1.6,3.7-4.6,3.9
		c-1.7,0.1-3.4,0.1-5.1,0c-2.8-0.2-4-1.5-4-4.3c0-3.4,0-6.9,0-10.3c0-0.9,0-1.8,0-2.5c2.8,0,5.3-0.1,7.8,0c2.7,0.2,3.2,0.9,3.4,3.6
		c0,0.3,0.2,0.5,0.2,0.8c0.2,0,0.4,0,0.5,0c0.3-3.1,0.5-6.1,0.8-9.4c-4.2,3-8.6,1.2-12.7,1.8c0-5.1,0-9.9,0-14.9
		c3.1,0.2,6.1,0.2,9,0.5c1.7,0.2,2.5,1.3,2.7,3c0,0.5,0.2,1,0.2,1.5c0.2,0,0.4,0,0.6,0c0.3-2.8,0.5-5.7,0.8-8.2
		c-8.5,0.7-16.9,0.1-25.3,0.6c0.5,0.4,1,0.7,1.5,0.7c2.5,0.2,3.4,1.1,3.4,3.6c0,10.4,0,20.7-0.1,31.1c0,3.7-0.7,4.4-3.7,4.5
		c-0.1,0-0.3,0.2-0.4,0.3c0,0.1,0,0.3,0,0.4c0.7,0,1.3,0.1,2,0.1c4.2,0,8.4,0,12.6,0c2.8,0,5.6,0.2,8.3,0.1c0.7,0,1.9-0.5,1.9-1
		c0.4-2.3,0.6-4.7,0.9-7.1C425.1,109.7,424.9,109.6,424.5,109.1z"/>
	<path id="james-word" class="st17" d="M455,81.6c0,10.2-0.1,20.5,0.1,30.8c0.2,9.3-4.4,15.4-12.2,19.6c-0.5,0.3-1.2,0.4-1.8,0.6
		c-0.1-0.2-0.2-0.3-0.2-0.5c0.2-0.2,0.3-0.5,0.5-0.6c5-3.1,6.6-7.9,6.7-13.4c0.1-12.2,0.1-24.4,0.1-36.6c0-2.5-0.9-3.4-3.4-3.6
		c-0.4,0-0.9-0.1-1.3-0.1c-0.1,0-0.1-0.2-0.4-0.5c0.6-0.2,1.1-0.4,1.6-0.4c4.4,0,8.8,0,13.2,0c0.5,0,1,0.2,1.5,0.4
		c0,0.1,0,0.3,0,0.4c-0.3,0.1-0.6,0.2-0.9,0.2C455.5,78.2,455,78.7,455,81.6z M495.9,116.9c0,0.4,0,0.7,0,1.1
		c-3.4,0-6.9-0.1-10.3-0.1c-0.3,0-0.5-0.1-1.3-0.3c2.2-0.9,1.4-2.2,1-3.4c-1-2.9-2.1-5.7-3-8.6c-0.3-0.9-0.7-1.3-1.7-1.3
		c-3.4,0.1-6.9,0-10.3,0.1c-0.5,0-1.2,0.5-1.4,0.9c-1,2.5-1.9,5-2.8,7.5c-1.1,3.4-0.7,4,3.1,4.4c-0.4,0.4-0.7,0.9-0.9,0.9
		c-3.9,0-7.8,0-11.6,0c-0.3,0-0.6-0.3-1.1-0.6c0.6-0.2,0.8-0.4,1.1-0.4c2.8,0,4.2-1.6,5.1-4c1.9-5.1,3.9-10.1,5.9-15.2
		c2.6-6.6,5.1-13.3,7.6-19.9c0-0.1,0.1-0.2,0.2-0.3c0.5-0.7,1-1.4,1.6-2.1c0.5,0.7,1.1,1.3,1.4,2c1.8,4.6,3.5,9.2,5.3,13.8
		c2.6,6.7,5.2,13.5,7.8,20.2c0.6,1.4,1.5,2.8,2.4,4.1C494.5,116.3,495.2,116.8,495.9,116.9z M480.7,101.3c-1.7-4.9-3.3-9.7-5.1-14.9
		c-1.9,5.3-3.5,10-5.3,14.9H480.7z M541.5,112.9c-1-7.2-2-14.5-3-21.7c-0.6-4.7-1.3-9.4-2-14.1c-0.1-0.6-0.6-1.1-0.9-1.6
		c-0.5,0.4-1,0.7-1.3,1.2c-0.3,0.4-0.5,1-0.7,1.5c-4.3,9.7-8.6,19.5-13,29.5c-0.4-0.9-0.8-1.6-1.1-2.3c-4.2-9.4-8.4-18.8-12.6-28.3
		c-0.3-0.6-1-1.1-1.6-1.6c-0.3,0.5-0.8,1.1-0.9,1.6c-1.1,8-2.2,16.1-3.4,24.1c-0.6,4.4-1.2,8.7-2,13.1c-0.2,0.9-0.9,2-1.6,2.3
		c-0.3,0.1-0.5,0.2-0.8,0.2c0,0.4,0,0.7,0,1.1c3.2,0,6.5,0.1,9.7,0.1c0.4,0,0.7-0.3,1.1-0.5c-0.5-0.5-1-0.6-1.5-0.7
		c-2.6-0.5-2.7-0.6-2.6-3.2c0-0.5,0.1-1,0.1-1.5c0.5-4.5,1-9,1.5-13.5c0.3-2.5,0.6-4.9,0.9-7.9c0.5,1,0.7,1.5,1,2.1
		c3.4,7.5,6.8,15,10.2,22.5c0.4,0.9,1,1.7,1.6,2.5c0.2,0,0.4,0,0.6,0c4.4-9,8.1-18.3,12.5-27.6c0.2,0.5,0.2,0.6,0.3,0.8
		c0.8,6.4,1.6,12.8,2.2,19.2c0.2,2.2,1.4,4.5-0.3,6.7c2.3,1,12.3,1.1,13.3,0c-0.7-0.1-1.3-0.2-2-0.3
		C542.6,116.4,541.9,115.7,541.5,112.9z M573.5,111.8c-0.4,1.5-1.2,2.7-2.8,2.8c-2.6,0.2-5.2,0.2-7.8,0c-1.6-0.1-2.7-1.4-2.7-3
		c-0.1-4.7,0-9.3,0-14.2c3,0.2,5.8,0.2,8.6,0.5c1.6,0.1,2.3,1.2,2.5,2.8c0,0.5,0.1,1.1,0.2,1.6c0.2,0,0.4,0,0.7,0
		c0.3-3.1,0.5-6.1,0.8-9.3c-4.2,2.9-8.5,1.1-12.6,1.8c0-5.1,0-9.9,0-14.9c3,0.1,5.9,0.2,8.8,0.5c1.8,0.2,2.7,1.1,2.9,3
		c0.1,0.5,0.2,1.1,0.3,1.6c0.2,0,0.4,0,0.7,0c0.3-2.8,0.5-5.6,0.8-8.1c-8.5,0.6-16.8,0.1-25.2,0.2c-0.1,0.2-0.2,0.4-0.2,0.6
		c0.4,0.2,0.9,0.4,1.3,0.4c3,0.3,3.7,1,3.7,4c0,7.3,0.1,14.6,0,21.9c0,3.6-0.2,7.2-0.3,10.8c-0.1,1.5-1,2.2-2.4,2.4
		c-0.5,0.1-1,0.2-1.5,0.4c0,0.1,0,0.3,0.1,0.4c0.6,0,1.1,0.1,1.7,0.1c1.4,0,2.7-0.1,4.1-0.1c5.6,0.1,11.2,0.2,16.9,0.3
		c0.7,0,2-0.4,2.1-0.8c0.4-2.5,0.6-5.1,0.8-7.7c0,0-0.2,0-0.5-0.1C573.9,110.2,573.7,111,573.5,111.8z M599.9,97.8
		c-2-2.2-4.6-3.8-7-5.6c-1.5-1.2-3.2-2.3-4.6-3.7c-1.8-1.8-2-4.9-0.7-7c1.5-2.3,4.7-3.4,8-2.7c2.6,0.5,4.6,2.8,5,5.6
		c0.1,0.4,0.2,0.9,0.2,1.3c0.2,0,0.4,0,0.6,0c0.1-0.5,0.2-0.9,0.2-1.3c0.1-2,0.1-4,0.3-6c0.1-1.2-0.5-1.7-1.4-1.7
		c-3.1-0.2-6.2-0.8-9.2-0.3c-10.8,1.7-12,12.2-7.5,18c1.6,2,3.8,3.6,5.8,5.2c1.8,1.5,4,2.7,5.7,4.4c3.2,3.3,2.5,9-1.2,11.2
		c-4.7,2.8-11.1-0.2-12-5.6c-0.1-0.9-0.3-1.7-0.5-3c-0.5,0.7-0.8,0.9-0.8,1.2c-0.2,2.8-0.3,5.5-0.3,8.3c0,0.5,0.6,1.2,1.1,1.4
		c4.3,1.8,8.5,2.3,13.1,0.8C603.6,115.2,605.5,103.9,599.9,97.8z"/>
	<path id="method-word" class="st18" d="M384.7,157.3c-0.1,0.2-0.2,0.3-0.3,0.5c-2.3,0-4.6,0-6.6,0c-0.5-4.8-1-9.4-1.5-14.1
		c-0.1,0-0.2-0.1-0.4-0.1c-2.2,4.8-4.4,9.6-6.6,14.5c-0.2,0-0.4,0.1-0.6,0.1c-2.2-4.7-4.4-9.4-6.7-14.6c-0.5,4.3-1,8.2-1.4,12.1
		c-0.1,0.9,0.3,1.4,1.2,1.6c0.3,0,0.7,0.2,0.9,0.5c-2.2,0-4.4,0-6.5,0c3.3-0.9,2.2-3.8,2.6-5.8c1-5.2,1.6-10.5,2.3-15.8
		c0.1-0.4,0.2-0.8,0.3-1.2c0.2,0,0.4,0,0.6-0.1c2.6,5.7,5.2,11.4,7.8,17.3c2.6-5.9,5.2-11.6,7.8-17.3c0.2,0,0.5,0,0.7,0
		c0.2,0.9,0.4,1.8,0.5,2.7c0.8,5.4,1.5,10.9,2.2,16.3C381.4,156,382,157.6,384.7,157.3z M407.3,154.1c-0.8,2.4-4.9,3.5-6.7,1.7
		c-0.3-0.3-0.6-0.8-0.6-1.3c-0.1-2.5,0-5.1,0-7.8c2.4,0.6,5.6-1.4,6.5,2.6c0.1-1.6,0.2-3.3,0.3-4.5c-2.3,0.2-4.5,0.3-6.8,0.4
		c0-2.8,0-5.3,0-8c2.4,0.7,5.6-1.4,6.8,2.6c0.1-1.5,0.3-3,0.4-4.2c-4.6,0-9.1,0-13.6,0c0,0.1,0,0.3,0,0.4c0.3,0.1,0.6,0.2,0.9,0.2
		c1.2,0,1.8,0.7,1.8,1.9c0,5.6,0,11.1,0,16.7c0,1.4-0.3,2.8-2.4,2.5c0,0.2,0.1,0.4,0.1,0.5c0.4,0.1,0.9,0.3,1.3,0.3
		c2.1,0,4.2-0.1,6.4-0.1c1.6,0,3.2,0.2,4.7,0.2c0.4,0,1.1-0.3,1.1-0.6c0.2-1.3,0.3-2.7,0.5-4C407.5,153.8,407.4,154,407.3,154.1z
		 M417.6,139.6c1-0.8,1.7-1.7,2.5-1.9c1.7-0.4,3.5-0.3,5.3-0.4c0,5.5,0,10.8,0,16.2c0,1.8,0.5,3.8-2.2,4.2c3,0,5.9,0,8.9,0
		c-2.6-0.9-2.8-0.9-2.9-3.2c-0.1-5.7,0-11.3,0-17.3c2.6,0.7,5.8-1.1,7.3,2.6c0-1.5,0-3,0-4.4c-6,0-12,0-18.2,0
		C418.1,136.9,417.9,138.3,417.6,139.6z M467.1,154.8c0-5.5,0-11,0-16.5c0-1.1,0.3-2,1.6-2c0.2,0,0.4-0.2,0.6-0.3
		c0-0.1,0-0.2-0.1-0.2c-2.8,0-5.7,0-8.5,0c1.1,0.6,2.6,0.5,2.6,2.3c0,2.1,0.1,4.2,0,6.4c0,0.3-0.6,0.9-0.9,0.9c-3.2,0.1-6.4,0-9.8,0
		c0-1.8-0.1-3.5,0-5.2c0.1-1.8-0.8-4,2.2-4.4c-2.8,0-5.7,0-8.9,0c3,1.1,3,1.1,3.1,4.2c0,4.6,0,9.2,0,13.8c0,1.7,0.3,3.6-2.2,4
		c2.9,0,5.9,0,8.8,0c-0.3-0.4-0.6-0.5-0.9-0.5c-1.3,0.1-1.9-0.6-1.9-1.8c-0.1-2.8,0-5.5,0-8.3c3.6,0,7,0,10.6,0c0,2.2,0,4.3,0,6.4
		c0,1.7,0.4,3.7-2.2,4.1c2.9,0,5.9,0,8.9,0c0.1-0.2,0.2-0.3,0.3-0.5C468.1,157.7,467.1,156.9,467.1,154.8z M503.1,146.4
		c0,7-4.8,11.9-11.5,11.9c-6.7,0-11.2-4.6-11.2-11.6c0-6.8,4.7-11.4,11.5-11.4C498.9,135.4,503.1,139.6,503.1,146.4z M499.2,147.1
		c-0.2-2.6-0.8-5.1-2.3-7.2c-2.8-3.8-8.4-4-10.9-0.3c-2.7,4-1.8,11.8,1.7,15c3.9,3.6,9.3,2.3,10.8-2.7
		C498.9,150.4,498.9,148.8,499.2,147.1z M535.8,148.4c-1,6.5-5.2,9.9-11.8,9.9c-3.5,0-6.9-0.3-10.4-0.4c0-0.2,0-0.4,0.1-0.4
		c1.9,0,2.1-1.3,2.1-2.7c0-5.5,0-11,0-16.5c0-1.9-1.5-1.8-2.7-2.1c0-0.2,0.1-0.4,0.1-0.6c4.9,0.2,9.8,0,14.6,0.7
		C534.6,137.2,536.6,143.3,535.8,148.4z M532,146.9c-0.1-6.2-4.9-10.4-11.1-9.6c-1,0.1-1.3,0.5-1.3,1.4c0,2.5,0,5,0,7.5c0,0,0,0,0,0
		c0,2.6,0,5.1,0,7.7c0,1.2,0.3,2.2,1.6,2.5c2.8,0.6,5.4,0.5,7.8-1.2C531.8,153.1,532,150,532,146.9z"/>
	<path id="arrows" class="st18" d="M588.2,148.3c-13.6,0-27.9,0-42.3,0c0-0.7,0-1.5,0-2.5C560.2,146.7,574.6,147.5,588.2,148.3z
		 M307.1,148.4c13.3,0,26.7,0,40,0c0-0.9,0-1.6,0-2.5c-13.5,0.8-26.8,1.6-40,2.3C307.1,148.3,307.1,148.3,307.1,148.4z"/>
</g>
</svg>
