<?xml version="1.0" encoding="utf-8"?>
<!-- Generator: Adobe Illustrator 24.3.0, SVG Export Plug-In . SVG Version: 6.00 Build 0)  -->
<svg version="1.1" xmlns="http://www.w3.org/2000/svg" xmlns:xlink="http://www.w3.org/1999/xlink" x="0px" y="0px"
	 viewBox="0 0 864 864" style="enable-background:new 0 0 864 864;" xml:space="preserve">
<style type="text/css">
	.st0{fill:none;stroke:url(#stroke.circle_1_);stroke-width:7;stroke-miterlimit:10;}
	.st1{fill:url(#red.circle_2_);}
	.st2{fill:#DA2B2B;}
	.st3{fill:#DA2528;}
	.st4{fill:#0C0C0C;}
	.st5{fill:url(#EKG.bottom.2_1_);}
	.st6{fill:url(#EKG.bottom.1_1_);}
	.st7{fill:url(#EKG.middle.6_1_);}
	.st8{fill:url(#EKG.middle.5_1_);}
	.st9{fill:url(#EKG.middle.4_1_);}
	.st10{fill:url(#EKG.middle.3_1_);}
	.st11{fill:url(#EKG.middle.2_1_);}
	.st12{fill:url(#EKG.middle.1_1_);}
	.st13{fill:url(#EKG.top.2_1_);}
	.st14{fill:url(#EKG.top.1_1_);}
	.st15{fill:url(#Blue.dna.strand.3_1_);}
	.st16{fill:url(#Blue.dna.strand.2_1_);}
	.st17{fill:url(#Red.dna.strand.1_3_);}
	.st18{fill:url(#Red.dna.strand.1_4_);}
	.st19{fill:#FFFFFF;}
	.st20{fill:url(#Blue.dna.strand.1_1_);}
</style>
<g id="red.circle">
	<linearGradient id="stroke.circle_1_" gradientUnits="userSpaceOnUse" x1="296.3438" y1="216.4547" x2="528.882" y2="619.2227">
		<stop  offset="0" style="stop-color:#CCCDCC"/>
		<stop  offset="0.4776" style="stop-color:#D1836D"/>
		<stop  offset="1" style="stop-color:#D12228"/>
	</linearGradient>
	<circle id="stroke.circle" class="st0" cx="412.61" cy="417.84" r="229"/>
	<linearGradient id="red.circle_2_" gradientUnits="userSpaceOnUse" x1="202.0645" y1="417.0968" x2="624.7742" y2="417.0968">
		<stop  offset="0" style="stop-color:#BF2227"/>
		<stop  offset="0.6199" style="stop-color:#EE3025"/>
	</linearGradient>
	<circle id="red.circle_1_" class="st1" cx="413.42" cy="417.1" r="211.35"/>
</g>
<g id="frequency.healing">
	<path id="RE" class="st2" d="M349.15,673.05c4.86,0,10.08,0,15.42,0c-0.08,1.29-0.18,2.74-0.3,4.65c-1.75-4.55-5.34-2.12-8.21-3.05
		c0,2.96,0,5.62,0,8.27c2.69,0,5.39,0,8.17,0c-0.18,1.31-0.37,2.76-0.59,4.35c-1.65-3.99-4.96-1.56-7.73-2.56
		c0,2.97-0.05,5.56,0.04,8.15c0.02,0.56,0.45,1.25,0.91,1.61c2.18,1.7,7.16,0.41,8.3-2.09c0.65,3.78,0.16,4.38-3.54,4.39
		c-4.96,0-9.92-0.11-14.88,0.04c-3.32,0.1-5.79-1.09-7.64-3.79c-0.79-1.15-1.85-2.16-2.5-3.38c-1.18-2.23-2.88-2.93-5.48-2.31
		c0,1.7,0.03,3.47-0.01,5.23c-0.05,2.15,0.09,4.11,3.06,4.05c-3.17,0-6.34,0-8.82,0c0.48-1.22,1.52-2.68,1.58-4.18
		c0.21-5.24,0.04-10.49,0.1-15.73c0.03-2.08-0.83-3.16-2.9-3.13c4.37,0,8.78-0.35,13.1,0.09c4.96,0.51,6.61,5.06,3.6,9.08
		c-0.83,1.11-1.88,2.06-3,3.28c2.49,2.77,4.97,5.57,7.51,8.3c0.56,0.6,1.32,1.07,2.07,1.41c2.78,1.26,3.87,0.71,3.95-2.28
		c0.16-5.8,0.22-11.61,0.03-17.41C351.38,675.02,349.95,674.05,349.15,673.05z M331.12,685.28c2.53,0.25,4.84,0.88,6.31-1.55
		c1.37-2.27,1.36-4.65-0.07-6.87c-1.5-2.31-3.74-2.33-6.24-1.8c0,2.76,0,5.37,0,7.97C331.12,683.69,331.12,684.33,331.12,685.28z"/>
	<path id="Q" class="st2" d="M390.47,695.03c8.1,3.92,15.85,8.82,25.81,5.93c-3.08,2.95-12.19,3.8-17.23,1.73
		c-2.66-1.09-5.28-2.38-7.71-3.91c-2.47-1.56-4.8-2.19-7.83-1.69c-6.69,1.12-12.72-2.94-14.2-9.04c-2.16-8.9,5.18-16.61,14.69-15.42
		c5.17,0.64,9.45,2.7,11.15,7.99c1.72,5.36,0.08,9.92-4.12,13.6C390.84,694.4,390.73,694.65,390.47,695.03z M390.91,685.86
		c0.18-0.05,0.35-0.11,0.53-0.16c-0.78-2.44-1.27-5.03-2.42-7.28c-1.68-3.3-5.73-4.83-9.37-4.04c-3.22,0.7-5.43,3.43-5.75,7.37
		c-0.14,1.75-0.17,3.56,0.06,5.3c0.71,5.22,4.99,8.81,10.03,8.58c4.19-0.19,6.52-3.19,6.91-8.92
		C390.93,686.42,390.91,686.14,390.91,685.86z"/>
	<path id="H" class="st2" d="M348.02,725.48c-4.57,0-8.74,0-13.11,0c0,3.06-0.25,6.02,0.13,8.9c0.14,1.11,1.7,2.03,2.41,2.81
		c-2.64,0-6,0-8.59,0c0.47-1.15,1.43-2.47,1.48-3.81c0.18-5.62,0.2-11.26-0.02-16.89c-0.04-1.14-1.38-2.22-1.97-3.12
		c2.43,0,5.68,0,8.81,0c-4.55,2.44-1.22,6.64-2.51,10.04c4.66,0,8.89,0,13.37,0c0-2.08-0.08-4.06,0.02-6.04
		c0.11-2.15-0.14-3.91-2.9-3.99c3.22,0,6.44,0,8.93,0c-0.48,1.04-1.49,2.26-1.53,3.5c-0.18,5.34-0.09,10.69-0.07,16.03
		c0.01,2.19,0.1,4.39,3.28,4.24c-3.42,0-6.85,0-9.46,0c0.49-1.17,1.46-2.6,1.65-4.12C348.24,730.62,348.02,728.13,348.02,725.48z"/>
	<path id="N_1_" class="st2" d="M443.39,720.35c0,4.97-0.14,9.6,0.12,14.21c0.05,0.96,1.6,1.83,2.34,2.61c-2.36,0-5.22,0-8.07,0
		c2.74-0.35,2.72-2.41,2.71-4.48c-0.01-6.56,0-13.11,0-19.67c0.32-0.14,0.64-0.27,0.97-0.41c6.18,6.02,12.36,12.03,18.78,18.29
		c0-5.33,0.14-10.23-0.12-15.12c-0.05-0.91-1.71-1.73-2.48-2.45c2.22,0,4.84,0,7.9,0c-3.2,1.08-2.59,3.62-2.65,5.72
		c-0.18,5.34-0.13,10.68-0.19,16.02c-0.01,0.9-0.12,1.8-0.18,2.69c-0.25,0.12-0.5,0.25-0.75,0.37
		C455.71,732.28,449.67,726.43,443.39,720.35z"/>
	<path id="N" class="st2" d="M472.03,673.23c-0.48,1.05-1.42,2.18-1.48,3.35c-0.27,5.88-0.31,11.77-0.43,17.66
		c-0.02,0.97-0.1,1.95-0.15,2.92c-0.25,0.13-0.5,0.26-0.75,0.39c-5.96-5.77-11.93-11.54-18.04-17.46c0,4.86-0.14,9.4,0.11,13.91
		c0.05,0.96,1.56,1.83,2.25,2.58c-2.26,0-5.05,0-7.84,0c2.68-0.33,2.63-2.35,2.63-4.35c0-6.44,0-12.88,0-19.33
		c0.31-0.14,0.62-0.28,0.93-0.43c6.07,5.91,12.14,11.81,18.42,17.92c0-5.26,0.12-10.16-0.12-15.04c-0.04-0.79-1.67-1.5-2.43-2.15
		C467.39,673.23,470,673.23,472.03,673.23z"/>
	<path id="G" class="st2" d="M492.19,713.18c-0.12,2.74-0.2,4.53-0.3,6.54c-2.4-4.67-7.82-6.6-12.94-4.81
		c-4.26,1.49-6.54,5.89-5.63,10.88c1.23,6.83,5.43,10.46,11.85,10.39c2-0.02,3.09-0.59,2.91-2.79c-0.11-1.33-0.04-2.67-0.01-4.01
		c0.04-2.04,0.02-4-2.87-3.97c3.15,0,6.3,0,8.7,0c-0.42,1.05-0.97,2.28-1.37,3.55c-0.17,0.52-0.03,1.14-0.03,1.71
		c0,6.3,0.02,6.56-6.43,6.95c-3.24,0.2-6.69-0.25-9.79-1.22c-5.47-1.72-8.42-6.78-7.83-12.2c0.64-5.83,4.55-10.35,10.26-10.95
		C483.09,712.82,487.55,713.18,492.19,713.18z"/>
	<path id="U" class="st3" d="M416.25,673.21c2.06,0,4.74,0,6.62,0c-0.47,1.18-1.41,2.55-1.5,3.98c-0.25,3.73-0.02,7.48-0.18,11.22
		c-0.21,4.97-2.61,7.84-7.55,8.56c-8.99,1.31-12.74-2.61-12.74-10.4c0-3.28,0.01-6.55,0-9.83c-0.01-2.59-0.03-2.59-3.29-3.45
		c3.71,0,6.78,0,9.21,0c-0.4,1.01-1.28,2.27-1.34,3.56c-0.18,4.11-0.2,8.24,0.01,12.35c0.26,5.09,4.5,7.76,9.02,5.95
		c2.61-1.04,3.69-3.08,3.76-5.68c0.11-4.49,0.19-8.99-0.03-13.47C418.18,674.99,416.85,674.02,416.25,673.21z"/>
	<path id="C" class="st2" d="M497.79,673.17c-0.12,2.46-0.21,4.16-0.31,6.21c-2.41-4.59-6.08-6.12-11.13-4.9
		c-3.77,0.91-6.01,4.19-6.1,8.95c-0.11,5.97,2.72,10.26,7.66,11.61c4.52,1.23,7.47,0.14,9.63-3.57c0.35,4.57-0.08,5.29-4.48,5.67
		c-5.75,0.5-11.33-0.07-15.24-5.04c-5.33-6.77-1.8-17.22,6.63-18.79C488.66,672.53,493.12,673.17,497.79,673.17z"/>
	<path id="E" class="st2" d="M426.23,673.04c4.9,0,10.12,0,15.44,0c-0.09,1.31-0.18,2.75-0.3,4.65c-1.75-4.55-5.33-2.12-8.21-3.05
		c0,2.95,0,5.61,0,8.28c2.68,0,5.38,0,8.16,0c-0.17,1.29-0.37,2.73-0.59,4.41c-1.59-4.2-5-1.4-7.73-2.87c0,3.18-0.05,5.77,0.04,8.35
		c0.02,0.56,0.43,1.26,0.88,1.63c2.14,1.72,7.19,0.43,8.29-2.05c0.77,3.64,0.21,4.37-3.43,4.37c-4.07,0-8.13,0-11.72,0
		c0.48-0.96,1.32-1.87,1.35-2.82c0.17-5.98,0.27-11.97,0.11-17.95C428.49,675,427.04,674.04,426.23,673.04z"/>
	<path id="Y" class="st2" d="M516.52,696.68c-3.27,0-6.53,0-9.06,0c0.45-1.14,1.21-2.4,1.44-3.75c1.33-7.69-3.95-12.62-7.79-18.13
		c-0.46-0.66-1.45-0.95-2.45-1.58c2.89,0,5.47,0,7.39,0c0.94,4.27,3.92,7.31,5.9,11.63c1.68-4.24,5.29-6.93,4.99-11.62
		c1.8,0,4.07,0,5.62,0c-1.43,1.66-3.19,3.53-4.74,5.56c-3.08,4.01-5.28,8.29-4.58,13.66C513.52,694.67,513.41,696.74,516.52,696.68z
		"/>
	<path id="F" class="st2" d="M304.69,673.07c4.86,0,10.2,0,15.75,0c-0.09,1.23-0.19,2.56-0.31,4.21c-2.23-4.04-5.67-1.76-8.6-2.57
		c0,2.94,0,5.54,0,8.3c2.59,0,5.22,0,8,0c-0.08,1.21-0.18,2.65-0.3,4.43c-1.76-3.98-4.96-1.96-7.76-2.58c0,3.21-0.23,6.19,0.12,9.11
		c0.12,1.01,1.68,1.85,2.39,2.58c-2.65,0-5.93,0-8.57,0c0.45-0.86,1.41-1.89,1.44-2.94c0.19-5.89,0.27-11.78,0.09-17.67
		C306.92,674.95,305.46,674,304.69,673.07z"/>
	<path id="I" class="st2" d="M432.69,713.38c-0.49,1.08-1.42,2.2-1.45,3.36c-0.16,5.51-0.02,11.03-0.1,16.55
		c-0.03,2.26,0.51,3.77,3.15,3.82c-3.27,0-6.53,0-9.13,0c0.42-0.99,1.41-2.27,1.46-3.59c0.19-5.7,0.18-11.41,0.03-17.11
		c-0.03-1.06-1.09-2.09-1.61-3.02C427.39,713.38,430.36,713.38,432.69,713.38z"/>
	<path id="EAL" class="st2" d="M359.92,713.21c5.07,0,10.45,0,15.9,0c-0.09,1.34-0.19,2.82-0.31,4.56
		c-1.82-4.43-5.45-2.08-8.39-2.94c0,3.03,0,5.74,0,8.39c2.76,0,5.44,0,8.29,0c-0.15,1.24-0.33,2.79-0.55,4.58
		c-1.68-4.32-5.09-1.7-7.89-2.75c0,2.97-0.07,5.52,0.05,8.06c0.03,0.66,0.47,1.49,0.99,1.89c2.28,1.72,7.22,0.41,8.6-2.44
		c0,1.46,0,2.63,0,3.94c2.33,0.21,2.86-1.52,3.52-3.02c2.69-6.07,5.34-12.16,8.01-18.24c0.38-0.86,0.84-1.69,1.52-3.04
		c0.81,1.6,1.47,2.78,2.02,4.02c2.46,5.56,4.88,11.13,7.33,16.69c0.38,0.86,0.68,2.07,1.37,2.42c1.36,0.7,3,1.27,4.47,1.17
		c0.65-0.04,1.64-1.85,1.68-2.89c0.18-5.72,0.22-11.45,0.04-17.16c-0.03-1.09-1.28-2.15-1.86-3.06c2.56,0,5.84,0,9.11,0
		c-3-0.12-2.74,1.97-2.73,3.94c0.02,4.77,0.13,9.54-0.04,14.31c-0.1,2.8,1.23,3.69,3.73,3.8c4.07,0.18,5.07-0.22,6.29-2.84
		c0.87,4.04,0.29,4.75-3.77,4.71c-3.63-0.03-7.25-0.02-10.88-0.02c-3.56,0-7.11,0-10.46,0c-0.92-2.44-1.71-4.74-2.68-6.95
		c-0.22-0.5-1.06-0.91-1.67-1.03c-0.92-0.17-1.9-0.05-2.86-0.05c-4.61,0-5.17,0.37-6.2,4.93c-0.19,0.86,0.42,1.9,0.68,2.94
		c-7.04,0-14.88,0-22.48,0c0.48-0.67,1.47-1.41,1.49-2.18c0.17-6.38,0.27-12.78,0.1-19.16
		C362.35,714.94,360.76,714.07,359.92,713.21z M388.75,718.9c-1.31,3.28-2.35,5.86-3.41,8.52c2.34,0,4.46,0,6.77,0
		C391.03,724.68,390.03,722.15,388.75,718.9z"/>
</g>
<g id="jesse.james.method">
	<path id="AM" class="st4" d="M503.55,113.23c4.66-10.61,9.2-20.93,13.74-31.26c0.23-0.53,0.38-1.12,0.72-1.56
		c0.39-0.5,0.95-0.86,1.43-1.29c0.34,0.57,0.9,1.1,0.99,1.7c0.75,4.97,1.42,9.94,2.1,14.92c1.05,7.66,2.07,15.33,3.16,22.99
		c0.42,2.94,1.25,3.67,4.2,4.17c0.66,0.11,1.32,0.26,2.07,0.41c-1.07,1.1-11.57,1.03-14.07-0.01c1.78-2.28,0.56-4.76,0.34-7.11
		c-0.66-6.78-1.56-13.54-2.37-20.31c-0.02-0.21-0.13-0.4-0.29-0.89c-4.65,9.87-8.57,19.78-13.27,29.31
		c-0.22-0.01-0.44-0.01-0.66-0.02c-0.57-0.89-1.24-1.74-1.68-2.69c-3.63-7.96-7.21-15.94-10.81-23.91
		c-0.28-0.61-0.57-1.22-1.06-2.26c-0.36,3.08-0.67,5.71-0.98,8.33c-0.55,4.76-1.09,9.53-1.63,14.29c-0.06,0.52-0.1,1.04-0.12,1.56
		c-0.09,2.69,0.04,2.84,2.76,3.34c0.49,0.09,0.97,0.23,1.56,0.75c-0.39,0.17-0.78,0.5-1.16,0.5c-7.35-0.06-14.7-0.15-22.04-0.24
		c-0.28,0-0.55-0.11-1.35-0.27c2.39-0.93,1.52-2.3,1.06-3.6c-1.07-3.04-2.18-6.06-3.22-9.11c-0.31-0.92-0.69-1.4-1.81-1.37
		c-3.65,0.09-7.3,0-10.94,0.08c-0.51,0.01-1.29,0.49-1.47,0.95c-1.06,2.61-2.05,5.25-2.94,7.93c-1.19,3.61-0.76,4.23,3.34,4.68
		c-0.46,0.45-0.73,0.94-1,0.95c-4.11,0.05-8.21,0.04-12.32,0.01c-0.31,0-0.61-0.33-1.17-0.66c0.6-0.24,0.89-0.46,1.18-0.46
		c2.98,0.06,4.44-1.73,5.4-4.26c2.04-5.38,4.14-10.73,6.21-16.1c2.71-7.03,5.4-14.07,8.1-21.11c0.04-0.11,0.09-0.22,0.16-0.31
		c0.55-0.74,1.1-1.48,1.66-2.22c0.52,0.72,1.21,1.37,1.53,2.17c1.92,4.87,3.75,9.77,5.64,14.66c2.75,7.14,5.48,14.29,8.32,21.39
		c0.61,1.53,1.54,2.96,2.51,4.31c0.88,1.24,2.37,1.75,3.69,1.13c0.81-0.38,1.58-1.55,1.74-2.48c0.82-4.6,1.45-9.23,2.11-13.86
		c1.2-8.52,2.34-17.04,3.57-25.55c0.09-0.61,0.62-1.16,0.94-1.73c0.57,0.57,1.36,1.04,1.67,1.73c4.49,9.97,8.91,19.97,13.35,29.96
		C502.74,111.54,503.09,112.26,503.55,113.23z M455.79,90.56c-1.97,5.58-3.76,10.65-5.6,15.84c3.72,0,7.26,0,11.04,0
		C459.43,101.17,457.7,96.11,455.79,90.56z"/>
	<path id="E.1_1_" class="st4" d="M281.46,123.43c0.14-0.1,0.27-0.27,0.41-0.28c3.21-0.16,3.89-0.93,3.93-4.82
		c0.11-10.99,0.07-21.99,0.06-32.98c0-2.66-0.93-3.54-3.64-3.8c-0.57-0.05-1.13-0.28-1.63-0.75c8.93-0.61,17.81,0.1,26.85-0.69
		c-0.26,2.76-0.55,5.75-0.83,8.75c-0.22,0-0.45,0-0.67,0c-0.09-0.53-0.22-1.06-0.27-1.6c-0.15-1.78-1.04-3.04-2.82-3.2
		c-3.15-0.29-6.32-0.38-9.6-0.55c0,5.32,0,10.39,0,15.78c4.36-0.68,8.99,1.25,13.42-1.91c-0.31,3.47-0.6,6.71-0.9,9.96
		c-0.19,0-0.38,0-0.57-0.01c-0.08-0.29-0.23-0.58-0.24-0.88c-0.19-2.9-0.75-3.64-3.57-3.83c-2.65-0.17-5.32-0.04-8.25-0.04
		c0,0.76,0,1.71,0,2.67c0,3.65-0.02,7.29,0.01,10.94c0.02,3.02,1.23,4.35,4.24,4.56c1.78,0.12,3.58,0.14,5.36,0.02
		c3.14-0.21,4.16-1.15,4.88-4.15c0.12-0.51,0.25-1.01,0.46-1.83c0.39,0.49,0.65,0.67,0.64,0.82c-0.25,2.52-0.43,5.05-0.9,7.53
		c-0.09,0.48-1.33,1.02-2.05,1.04c-2.95,0.06-5.9-0.11-8.85-0.14c-4.46-0.04-8.91-0.03-13.37-0.05c-0.71,0-1.42-0.08-2.12-0.13
		C281.45,123.71,281.46,123.57,281.46,123.43z"/>
	<path id="E.2" class="st4" d="M373.91,123.43c0.14-0.1,0.27-0.27,0.41-0.28c3.21-0.16,3.89-0.93,3.93-4.82
		c0.11-10.99,0.07-21.99,0.06-32.98c0-2.66-0.93-3.54-3.64-3.8c-0.57-0.05-1.13-0.28-1.63-0.75c8.93-0.58,17.81,0.07,26.85-0.66
		c-0.26,2.73-0.54,5.73-0.83,8.73c-0.22,0-0.45,0-0.67-0.01c-0.09-0.53-0.22-1.06-0.27-1.6c-0.15-1.78-1.04-3.04-2.82-3.2
		c-3.15-0.29-6.32-0.38-9.6-0.55c0,5.32,0,10.39,0,15.78c4.36-0.68,8.99,1.25,13.42-1.91c-0.31,3.47-0.6,6.71-0.89,9.95
		c-0.19,0-0.38,0-0.57,0c-0.08-0.29-0.23-0.58-0.24-0.88c-0.19-2.9-0.75-3.64-3.57-3.83c-2.65-0.17-5.32-0.04-8.25-0.04
		c0,0.76,0,1.71,0,2.67c0,3.65-0.02,7.29,0.01,10.94c0.02,3.02,1.23,4.35,4.24,4.56c1.78,0.12,3.58,0.14,5.36,0.02
		c3.14-0.21,4.16-1.15,4.88-4.15c0.12-0.51,0.25-1.01,0.46-1.83c0.39,0.49,0.65,0.67,0.64,0.82c-0.25,2.52-0.43,5.05-0.9,7.53
		c-0.09,0.48-1.33,1.02-2.05,1.04c-2.95,0.06-5.9-0.11-8.85-0.14c-4.46-0.04-8.91-0.03-13.37-0.05c-0.71,0-1.42-0.08-2.13-0.13
		C373.89,123.71,373.9,123.57,373.91,123.43z"/>
	<path id="E.3" class="st4" d="M533.07,80.45c8.81-0.18,17.64,0.36,26.69-0.26c-0.24,2.66-0.52,5.66-0.8,8.65
		c-0.23,0.01-0.46,0.01-0.69,0.02c-0.1-0.57-0.21-1.13-0.28-1.7c-0.27-1.94-1.15-2.98-3.09-3.15c-3.05-0.25-6.11-0.33-9.3-0.49
		c0,5.3,0,10.41,0,15.79c4.37-0.69,8.97,1.16,13.38-1.87c-0.29,3.39-0.58,6.64-0.86,9.89c-0.23,0-0.46,0-0.69,0
		c-0.06-0.57-0.13-1.13-0.18-1.7c-0.14-1.63-0.89-2.8-2.61-2.93c-2.98-0.23-5.98-0.33-9.12-0.49c0,5.2-0.07,10.16,0.04,15.11
		c0.04,1.71,1.16,3.06,2.9,3.18c2.74,0.19,5.51,0.14,8.26-0.04c1.67-0.11,2.56-1.41,2.98-2.98c0.21-0.79,0.42-1.59,0.63-2.38
		c0.33,0.09,0.53,0.12,0.52,0.14c-0.24,2.72-0.4,5.44-0.84,8.13c-0.06,0.39-1.44,0.8-2.2,0.8c-5.96-0.04-11.92-0.19-17.88-0.28
		c-1.45-0.02-2.89,0.07-4.34,0.08c-0.61,0-1.23-0.08-1.84-0.12c-0.02-0.15-0.04-0.31-0.06-0.46c0.55-0.14,1.09-0.3,1.64-0.4
		c1.46-0.25,2.5-0.91,2.55-2.55c0.13-3.81,0.34-7.62,0.36-11.43c0.04-7.75-0.01-15.51-0.05-23.26c-0.02-3.16-0.8-3.95-3.93-4.22
		c-0.49-0.04-0.95-0.3-1.43-0.45C532.91,80.88,532.99,80.66,533.07,80.45z"/>
	<path id="S.1_1_" class="st4" d="M316.01,112.33c0.15,0.87,0.3,1.74,0.44,2.62c0.91,5.74,7.61,8.95,12.66,6.07
		c4.01-2.29,4.87-8.34,1.48-11.87c-1.62-1.68-3.76-2.85-5.57-4.36c-2.33-1.95-4.97-3.72-6.77-6.1c-4.53-5.94-3.35-16.99,8.03-18.84
		c3.22-0.52,6.64,0.17,9.96,0.36c1.1,0.07,1.52,0.72,1.43,1.89c-0.17,2.07-0.17,4.16-0.28,6.24c-0.03,0.52-0.18,1.03-0.28,1.55
		c-0.18,0-0.36,0.01-0.54,0.01c-0.11-0.5-0.25-0.99-0.32-1.49c-0.39-2.94-2.53-5.28-5.36-5.86c-3.51-0.71-6.93,0.5-8.44,2.98
		c-1.38,2.28-1.14,5.55,0.91,7.51c1.61,1.54,3.58,2.7,5.33,4.1c2.34,1.86,4.95,3.51,6.86,5.75c5.14,5.99,3.96,15.1-2.39,19.74
		c-3.24,2.37-7.02,3.06-10.94,2.51c-2.05-0.29-4.09-0.91-6.03-1.65c-0.65-0.25-1.39-1.29-1.41-1.99c-0.06-2.71,0.14-5.43,0.3-8.14
		c0.02-0.37,0.33-0.73,0.5-1.1C315.73,112.29,315.87,112.31,316.01,112.33z"/>
	<path id="S.2" class="st4" d="M346.48,111.94c0.37,1.86,0.54,3.29,0.96,4.64c1.01,3.29,3.97,5.23,8.05,5.42
		c3.07,0.14,5.85-1.48,7.05-4.11c1.38-3.02,0.83-6.79-1.69-9.09c-1.9-1.74-4.12-3.15-6.24-4.64c-3.4-2.4-6.51-4.99-7.66-9.26
		c-1.97-7.31,2.22-13.84,9.67-15.15c3.44-0.6,6.79-0.2,10.16,0.44c1.04,0.2,1.57,0.67,1.47,1.88c-0.18,2.07-0.18,4.16-0.28,6.24
		c-0.03,0.53-0.17,1.05-0.26,1.57c-0.17,0.01-0.35,0.02-0.52,0.04c-0.12-0.43-0.29-0.85-0.35-1.29c-0.37-2.97-2.32-5.33-4.99-6.02
		c-3.37-0.87-6.86,0.2-8.6,2.62c-1.63,2.28-1.48,5.7,0.66,7.79c1.59,1.56,3.56,2.72,5.33,4.11c2.22,1.74,4.66,3.28,6.56,5.32
		c6.09,6.51,4.15,18.7-5.41,21.86c-4.93,1.63-9.52,1.03-14.08-0.96c-0.46-0.2-0.97-0.96-0.97-1.45c0.03-2.95,0.19-5.89,0.35-8.84
		C345.71,112.8,346.04,112.55,346.48,111.94z"/>
	<path id="S.3" class="st4" d="M588.82,89.88c-0.09-0.47-0.21-0.93-0.27-1.4c-0.38-2.97-2.48-5.33-5.28-5.92
		c-3.48-0.73-6.94,0.45-8.48,2.91c-1.37,2.18-1.2,5.47,0.71,7.4c1.44,1.46,3.23,2.58,4.85,3.87c2.48,1.96,5.27,3.65,7.37,5.96
		c5.87,6.48,3.89,18.43-5.56,21.6c-4.86,1.63-9.4,1.04-13.93-0.85c-0.52-0.22-1.14-1-1.14-1.52c0.01-2.95,0.17-5.89,0.33-8.84
		c0.01-0.27,0.33-0.53,0.83-1.28c0.22,1.41,0.37,2.32,0.52,3.23c0.93,5.7,7.74,8.87,12.74,5.92c3.97-2.33,4.76-8.41,1.32-11.89
		c-1.76-1.78-4.05-3.04-6.01-4.65c-2.13-1.75-4.49-3.38-6.15-5.52c-4.71-6.08-3.48-17.27,8-19.07c3.17-0.5,6.53,0.16,9.79,0.36
		c1,0.06,1.62,0.58,1.51,1.83c-0.19,2.13-0.19,4.27-0.29,6.41c-0.02,0.48-0.16,0.95-0.25,1.42
		C589.23,89.86,589.02,89.87,588.82,89.88z"/>
	<path id="J.1_1_" class="st4" d="M258.02,138.96c0.19-0.2,0.34-0.47,0.57-0.6c5.1-3.07,6.94-7.96,7.01-13.5
		c0.17-13.35,0.1-26.71,0.09-40.07c0-2.04-1.01-2.94-3.31-3.21c-0.64-0.07-1.28-0.11-2.17-0.18c1.29-1.21,16.51-1.16,17.36-0.12
		c-0.3,0.09-0.54,0.21-0.8,0.24c-3.2,0.41-3.72,0.92-3.73,4.18c-0.03,11.33,0.03,22.66-0.03,34c-0.04,9.53-5.56,15.37-13.48,19.48
		c-0.38,0.2-0.88,0.18-1.32,0.27C258.15,139.3,258.09,139.13,258.02,138.96z"/>
	<path id="J.2" class="st4" d="M418.93,138.99c0.18-0.21,0.32-0.47,0.55-0.61c5.35-3.24,7.01-8.4,7.07-14.18
		c0.12-12.95,0.08-25.9,0.08-38.85c0-2.65-0.94-3.56-3.65-3.77c-0.46-0.04-0.92-0.07-1.37-0.14c-0.08-0.01-0.13-0.17-0.39-0.54
		c0.63-0.16,1.16-0.4,1.69-0.4c4.68-0.03,9.37-0.03,14.05,0c0.52,0,1.03,0.24,1.54,0.37c-0.02,0.15-0.03,0.29-0.05,0.44
		c-0.3,0.08-0.6,0.2-0.91,0.24c-2.97,0.38-3.57,0.95-3.58,3.97c-0.03,10.87-0.13,21.74,0.06,32.61c0.17,9.82-4.65,16.32-12.94,20.75
		c-0.58,0.31-1.26,0.44-1.89,0.66C419.1,139.35,419.02,139.17,418.93,138.99z"/>
	<path id="M" class="st3" d="M334.4,142.2c2.73,6.04,5.46,12.09,8.3,18.37c2.81-6.29,5.52-12.34,8.22-18.39
		c0.24,0.01,0.48,0.03,0.72,0.04c0.2,0.94,0.44,1.88,0.58,2.83c0.81,5.77,1.63,11.54,2.35,17.32c0.27,2.19,0.87,3.86,3.78,3.53
		c-0.1,0.17-0.2,0.33-0.3,0.5c-2.45,0-4.9,0-7.01,0c-0.55-5.1-1.08-10.02-1.61-14.95c-0.12-0.04-0.25-0.08-0.37-0.12
		c-2.32,5.12-4.64,10.23-6.95,15.35c-0.22,0.03-0.44,0.07-0.66,0.1c-2.32-5-4.63-10-7.15-15.43c-0.53,4.58-1.01,8.72-1.5,12.85
		c-0.12,0.99,0.31,1.53,1.3,1.67c0.35,0.05,0.69,0.17,0.99,0.58c-2.31,0-4.63,0-6.94,0c3.53-0.92,2.39-4.02,2.77-6.17
		c1-5.56,1.66-11.18,2.47-16.77c0.06-0.42,0.24-0.82,0.36-1.24C333.98,142.25,334.19,142.22,334.4,142.2z"/>
	<path id="H_1_" class="st3" d="M439.06,143.1c3,0,6,0,9,0c0.02,0.08,0.05,0.17,0.07,0.25c-0.22,0.11-0.44,0.31-0.65,0.31
		c-1.43,0.01-1.72,0.91-1.72,2.08c0,5.84,0.03,11.69-0.01,17.53c-0.01,2.16,1.07,2.99,3.38,2.59c-0.09,0.18-0.19,0.35-0.28,0.53
		c-3.14,0-6.27,0-9.41,0c2.77-0.43,2.32-2.56,2.36-4.37c0.05-2.24,0.01-4.48,0.01-6.8c-3.82,0-7.5,0-11.27,0
		c0,2.96-0.05,5.89,0.02,8.82c0.03,1.18,0.66,1.94,2,1.86c0.34-0.02,0.68,0.13,0.98,0.54c-3.12,0-6.23,0-9.35,0
		c2.66-0.46,2.29-2.53,2.31-4.28c0.06-4.86,0.08-9.72,0.05-14.58c-0.02-3.22-0.08-3.22-3.25-4.43c3.46,0,6.46,0,9.46,0
		c-3.12,0.4-2.22,2.8-2.3,4.66c-0.07,1.78-0.02,3.56-0.02,5.5c3.57,0,6.98,0.03,10.38-0.05c0.35-0.01,0.97-0.63,0.98-0.99
		c0.07-2.25,0.01-4.51-0.02-6.77C441.78,143.67,440.19,143.78,439.06,143.1z"/>
	<path id="D" class="st3" d="M494.68,142.79c5.17,0.2,10.4-0.03,15.49,0.71c7.19,1.05,9.25,7.51,8.38,12.97
		c-1.09,6.85-5.54,10.51-12.47,10.45c-3.66-0.03-7.32-0.28-11-0.43c0.04-0.22,0.06-0.42,0.07-0.42c2.02,0.03,2.24-1.4,2.25-2.88
		c0.03-5.84-0.01-11.68,0.03-17.52c0.01-1.97-1.56-1.9-2.87-2.23C494.61,143.23,494.64,143.01,494.68,142.79z M501.37,154.15
		c0.01,0,0.02,0,0.03,0c0,2.72-0.01,5.43,0,8.15c0.01,1.24,0.36,2.33,1.74,2.65c2.91,0.68,5.74,0.57,8.24-1.31
		c2.95-2.21,3.18-5.44,3.13-8.74c-0.09-6.63-5.18-11.01-11.79-10.23c-1.03,0.12-1.39,0.48-1.37,1.5
		C501.4,148.83,501.37,151.49,501.37,154.15z"/>
	<path id="O" class="st3" d="M459.89,154.72c0.01-7.23,4.94-12.1,12.23-12.09c7.31,0.01,11.85,4.51,11.84,11.72
		c-0.01,7.38-5.09,12.63-12.23,12.62C464.64,166.97,459.88,162.05,459.89,154.72z M479.76,155.11c-0.21-2.79-0.82-5.4-2.48-7.67
		c-2.96-4.05-8.92-4.19-11.52-0.29c-2.83,4.23-1.89,12.47,1.82,15.95c4.09,3.83,9.89,2.4,11.4-2.89
		C479.44,158.57,479.51,156.82,479.76,155.11z"/>
	<path id="E_1_" class="st3" d="M368.01,165.97c2.26,0.3,2.53-1.14,2.54-2.63c0.05-5.9,0.03-11.8,0.02-17.7
		c0-1.21-0.58-1.95-1.89-1.98c-0.31-0.01-0.61-0.15-0.92-0.23c0.01-0.14,0.01-0.29,0.02-0.43c4.76,0,9.52,0,14.43,0
		c-0.13,1.29-0.28,2.86-0.44,4.43c-1.22-4.27-4.65-2.09-7.2-2.79c0,2.87,0,5.51,0,8.51c2.35-0.15,4.68-0.3,7.15-0.45
		c-0.1,1.31-0.23,3.05-0.37,4.78c-0.92-4.29-4.31-2.1-6.84-2.78c0,2.92-0.03,5.62,0.03,8.32c0.01,0.46,0.29,1.03,0.63,1.36
		c1.89,1.86,6.3,0.71,7.11-1.81c0.07-0.22,0.18-0.42,0.67-0.58c-0.16,1.43-0.25,2.88-0.52,4.29c-0.06,0.29-0.77,0.65-1.18,0.65
		c-1.67,0-3.34-0.17-5.02-0.18c-2.25,0-4.5,0.11-6.75,0.13c-0.47,0-0.94-0.2-1.41-0.3C368.07,166.36,368.04,166.17,368.01,165.97z"
		/>
	<path id="T" class="st3" d="M405.55,144.66c0,6.36-0.08,12.37,0.04,18.38c0.05,2.39,0.25,2.39,3.03,3.35c-3.14,0-6.27,0-9.41,0
		c2.84-0.44,2.33-2.62,2.34-4.48c0.02-5.66,0.01-11.32,0.01-17.15c-1.94,0.11-3.82,0.03-5.6,0.4c-0.9,0.18-1.63,1.17-2.67,1.99
		c0.24-1.44,0.48-2.89,0.72-4.33c6.48,0,12.86,0,19.26,0c0,1.48,0,3.05,0,4.62C411.7,143.51,408.3,145.4,405.55,144.66z"/>
	<path id="right.arrow" class="st3" d="M574.13,156.35c-14.4,0-29.59,0-44.89,0c0-0.72,0-1.56,0-2.63
		C544.47,154.61,559.72,155.5,574.13,156.35z"/>
	<path id="left.arrow" class="st3" d="M318.47,153.8c0,0.92,0,1.72,0,2.62c-14.14,0-28.29,0-42.44,0c0-0.05,0-0.09-0.01-0.14
		C290.1,155.46,304.19,154.64,318.47,153.8z"/>
</g>
<g id="DNA.strand">
	
		<linearGradient id="EKG.bottom.2_1_" gradientUnits="userSpaceOnUse" x1="-251.233" y1="554.1523" x2="-168.3447" y2="554.1523" gradientTransform="matrix(-0.7159 0.276 0.3597 0.9331 71.4441 63.8835)">
		<stop  offset="0" style="stop-color:#8B8D35"/>
		<stop  offset="0.0333" style="stop-color:#8B8D35"/>
		<stop  offset="1" style="stop-color:#8B8D35"/>
	</linearGradient>
	<path id="EKG.bottom.2" class="st5" d="M455.52,524.33c-2.56-0.1-4.63-0.1-6.04-0.09c-0.6,0.01-3.41,0.04-6.82-0.12
		c-3.12-0.14-4.09-0.32-5.07-1.21c-1.38-1.26-1.94-3.2-2.18-4.32c-0.46,0.97-0.82,1.9-1.11,2.76c-0.35,1.05-0.42,1.5-0.75,2.04
		c-0.37,0.61-1.01,1.26-2.2,1.6c-3.24,0.08-7.39,0.19-10.63,0.27c-2.48,0.06-6.51,0.16-8.99,0.22c-0.21,0.09-0.56,0.2-0.95,0.03
		c-0.55-0.24-0.89-0.89-1.06-1.26c-0.61-1.26-2.65-6.09-5.34-12.69c-0.15,2.03-0.31,4.06-0.46,6.09c-0.27,3.45-0.54,6.89-0.82,10.31
		c0,0.04,0,0.16-0.06,0.26c-0.08,0.11-0.21,0.14-0.35,0.09c-0.57-1.4-1.07-2.57-1.46-3.47c-0.41-0.93-0.7-1.59-0.96-1.58
		c-0.27,0.01-0.4,0.73-0.51,1.34c-0.13,0.71-0.09,1.13-0.38,1.49c-0.12,0.15-0.25,0.24-0.41,0.31c-1.09,0.52-3.31,0.3-4.76,0.27
		c-0.32-0.01-0.04,0.01-1.59,0.05c-3,0.08-3.84,0.02-3.98,0.56c-0.06,0.24-0.01,0.7,0.76,1.67c1.81-0.24,3.29-0.27,4.31-0.26
		c1.55,0.02,3.08,0.16,5.45-0.04c0.37-0.03,0.68-0.07,0.88-0.09c-0.06-0.27-0.38-1.78,0.26-2.38c0.05-0.05,0.12-0.1,0.19-0.13
		c0.57,0.76,0.93,1.44,1.14,1.9c0.38,0.82,0.55,1.46,1.12,2.29c0.24,0.34,0.45,0.59,0.6,0.74c0.13-0.09,0.25-0.18,0.38-0.27
		c0.4-2.35,0.69-3.99,0.89-5.15c0.85-4.9,0.88-5.03,0.86-5.24c-0.01-0.08-0.06-0.42,0.09-0.63c0.12-0.16,0.31-0.17,0.44-0.17
		c0.55,0.98,0.99,1.8,1.31,2.4c1.36,2.54,2.03,3.81,2.29,4.46c0.53,1.32,0.62,1.9,1.16,2.33c0.74,0.59,1.59,0.35,1.92,0.26
		c0.5-0.13,3.22-0.42,8.65-0.99c2.04-0.22,4.45-0.47,6.84-0.17c0.57,0.07,2.33,0.33,4.37-0.28c0.33-0.1,0.59-0.19,0.76-0.26
		c0.33-0.58,0.65-1.21,0.98-1.88c0.43-0.88,0.8-1.73,1.12-2.56c0.2,0.18,0.48,0.43,0.83,0.71c0.6,0.5,1.29,1.03,1.77,1.35
		c0.99,0.67,1.84,0.94,2.91,1.28c0.72,0.23,1.8,0.52,3.45,0.73c1.84,0.24,1.86,0.04,4.52,0.23c2.45,0.17,3.67,0.25,4.1,0.32
		c1.49,0.24,2.21,0.5,2.63-0.01C456.21,526.76,455.78,525.16,455.52,524.33z"/>
	
		<linearGradient id="EKG.bottom.1_1_" gradientUnits="userSpaceOnUse" x1="-251.7846" y1="553.4232" x2="-168.8963" y2="553.4232" gradientTransform="matrix(-0.7159 0.276 0.3597 0.9331 71.4441 63.8835)">
		<stop  offset="0" style="stop-color:#F2EA1A"/>
		<stop  offset="1" style="stop-color:#F1EA19"/>
	</linearGradient>
	<path id="EKG.bottom.1" class="st6" d="M455.65,523.5c-2.56-0.1-4.63-0.1-6.04-0.09c-0.6,0.01-3.41,0.04-6.82-0.12
		c-3.12-0.14-4.09-0.32-5.07-1.21c-1.38-1.26-1.94-3.2-2.18-4.32c-0.46,0.97-0.82,1.9-1.11,2.76c-0.35,1.05-0.42,1.5-0.75,2.04
		c-0.37,0.61-1.01,1.26-2.2,1.6c-3.24,0.08-7.39,0.19-10.63,0.27c-2.48,0.06-6.51,0.16-8.99,0.22c-0.21,0.09-0.56,0.2-0.95,0.03
		c-0.55-0.24-0.89-0.89-1.06-1.26c-0.61-1.26-2.65-6.09-5.34-12.69c-0.15,2.03-0.31,4.06-0.46,6.09c-0.27,3.45-0.54,6.89-0.82,10.31
		c0,0.04,0,0.16-0.06,0.26c-0.08,0.11-0.21,0.14-0.35,0.09c-0.57-1.4-1.07-2.57-1.46-3.47c-0.41-0.93-0.7-1.59-0.96-1.58
		c-0.27,0.01-0.4,0.73-0.51,1.34c-0.13,0.71-0.09,1.13-0.38,1.49c-0.12,0.15-0.25,0.24-0.41,0.31c-1.09,0.52-3.31,0.3-4.76,0.27
		c-0.32-0.01-0.04,0.01-1.59,0.05c-3,0.08-3.84,0.02-3.98,0.56c-0.06,0.24-0.01,0.7,0.76,1.67c1.81-0.24,3.29-0.27,4.31-0.26
		c1.55,0.02,3.08,0.16,5.45-0.04c0.37-0.03,0.68-0.07,0.88-0.09c-0.06-0.27-0.38-1.78,0.26-2.38c0.05-0.05,0.12-0.1,0.19-0.13
		c0.57,0.76,0.93,1.44,1.14,1.9c0.38,0.82,0.55,1.46,1.12,2.29c0.24,0.34,0.45,0.59,0.6,0.74c0.13-0.09,0.25-0.18,0.38-0.27
		c0.4-2.35,0.69-3.99,0.89-5.15c0.85-4.9,0.88-5.03,0.86-5.24c-0.01-0.08-0.06-0.42,0.09-0.63c0.12-0.16,0.31-0.17,0.44-0.17
		c0.55,0.98,0.99,1.8,1.31,2.4c1.36,2.54,2.03,3.81,2.29,4.46c0.53,1.32,0.62,1.9,1.16,2.33c0.74,0.59,1.59,0.35,1.92,0.26
		c0.5-0.13,3.22-0.42,8.65-0.99c2.04-0.22,4.45-0.47,6.84-0.17c0.57,0.07,2.33,0.33,4.37-0.28c0.33-0.1,0.59-0.19,0.76-0.26
		c0.33-0.58,0.65-1.21,0.98-1.88c0.43-0.88,0.8-1.73,1.12-2.56c0.2,0.18,0.48,0.43,0.83,0.71c0.6,0.5,1.29,1.03,1.77,1.35
		c0.99,0.67,1.84,0.94,2.91,1.28c0.72,0.23,1.8,0.52,3.45,0.73c1.84,0.24,1.86,0.04,4.52,0.23c2.45,0.17,3.67,0.25,4.1,0.32
		c1.49,0.24,2.21,0.5,2.63-0.01C456.34,525.92,455.92,524.33,455.65,523.5z"/>
	
		<linearGradient id="EKG.middle.6_1_" gradientUnits="userSpaceOnUse" x1="430.3149" y1="203.8486" x2="378.575" y2="238.8452" gradientTransform="matrix(0.9521 0.3059 -0.3059 0.9521 104.4423 94.7434)">
		<stop  offset="0" style="stop-color:#828635"/>
		<stop  offset="0.0333" style="stop-color:#828635"/>
		<stop  offset="1" style="stop-color:#828635"/>
	</linearGradient>
	<path id="EKG.middle.6" class="st7" d="M392.02,430.22c1.94-0.09,4.2-0.06,6.7,0.2c1.58,0.17,3.05,0.4,4.38,0.68
		c0.71-2.13,1.41-4.26,2.12-6.39c0.45,0.96,0.89,1.97,1.32,3.04c0.36,0.9,0.69,1.78,0.98,2.63c1.4-0.06,3.62-0.17,6.35-0.4
		c3.68-0.3,4.46-0.49,6.87-0.54c3.74-0.08,6.26,0.28,6.85,0.37c1.92,0.29,3.51,0.68,4.68,1.02c0.42-3.26,0.83-6.52,1.25-9.77
		c0.72,1.47,1.26,2.7,1.63,3.57c1,2.36,1.97,5.02,1.97,5.02c0.15-0.05,0.53-0.21,0.8-0.6c0.26-0.36,0.28-0.73,0.28-0.88
		c1.26-0.09,2.55-0.17,3.86-0.22c4.17-0.18,8.14-0.17,11.91-0.01c-0.12,0.35-0.25,0.69-0.37,1.04c-2.39,0.27-4.32,0.47-5.67,0.6
		c-1.14,0.11-2.29,0.23-3.43,0.34c-1.6,0.15-2.59,0.24-3.99,0.43c-0.74,0.1-1.34,0.19-1.76,0.26c-0.36,1.1-0.72,2.19-1.08,3.29
		c-0.14-0.22-0.36-0.59-0.6-1.06c-0.27-0.54-0.6-1.26-1.53-4.33c-0.2-0.65-0.4-1.33-0.81-2.22c-0.18-0.38-0.34-0.69-0.45-0.9
		c-0.22,1.51-0.37,2.73-0.46,3.55c-0.14,1.26-0.21,2.18-0.44,3.58c-0.13,0.78-0.26,1.41-0.35,1.81c-0.07,0.05-0.17,0.11-0.28,0.09
		c-0.19-0.03-0.32-0.24-0.46-0.54c-0.4-0.85-0.33-1.16-0.65-1.53c-0.11-0.13-0.3-0.31-0.64-0.46c-0.67-0.04-1.65-0.09-2.82-0.13
		c-1.5-0.05-2.88-0.05-5.81,0.01c-5.19,0.1-4.54,0.19-7.11,0.18c-1.16,0-2.46-0.02-4.36,0.08c-1.12,0.06-2.04,0.14-2.65,0.2
		c-0.23,1-0.28,1.81-0.28,2.38c0,0.47,0.04,1.37,0.07,2.08c0.01,0.23,0.02,0.42,0.02,0.56c-0.17-0.22-0.35-0.45-0.52-0.67
		c-0.35-0.95-0.57-1.72-0.7-2.24c-0.29-1.13-0.34-1.72-0.68-3.19c-0.19-0.83-0.36-1.5-0.48-1.91c-0.5,0.68-0.79,1.28-0.95,1.7
		c-0.13,0.32-0.33,0.96-0.74,2.23c-0.03,0.09-0.05,0.16-0.07,0.21c-0.51-0.12-1.23-0.29-2.11-0.45c-1.68-0.31-2.95-0.44-4.4-0.59
		c-2.06-0.21-3.09-0.31-3.74-0.29c-0.94,0.04-1.89-0.16-2.83-0.11c-0.3,0.02-0.6,0.04-0.77-0.13c-0.35-0.36-0.06-1.48,0.76-1.74
		C391.36,429.9,391.89,430.15,392.02,430.22z"/>
	
		<linearGradient id="EKG.middle.5_1_" gradientUnits="userSpaceOnUse" x1="430.2417" y1="203.5262" x2="378.5017" y2="238.5227" gradientTransform="matrix(0.9521 0.3059 -0.3059 0.9521 104.4423 94.7434)">
		<stop  offset="0" style="stop-color:#F2EA1A"/>
		<stop  offset="1" style="stop-color:#F1EA19"/>
	</linearGradient>
	<path id="EKG.middle.5" class="st8" d="M392.05,429.89c1.94-0.09,4.2-0.06,6.7,0.2c1.58,0.17,3.05,0.4,4.38,0.68
		c0.71-2.13,1.41-4.26,2.12-6.39c0.45,0.96,0.89,1.97,1.32,3.04c0.36,0.9,0.69,1.78,0.98,2.63c1.4-0.06,3.62-0.17,6.35-0.4
		c3.68-0.3,4.46-0.49,6.87-0.54c3.74-0.08,6.26,0.28,6.85,0.37c1.92,0.29,3.51,0.68,4.68,1.02c0.42-3.26,0.83-6.52,1.25-9.77
		c0.72,1.47,1.26,2.7,1.63,3.57c1,2.36,1.97,5.02,1.97,5.02c0.15-0.05,0.53-0.21,0.8-0.6c0.26-0.36,0.28-0.73,0.28-0.88
		c1.26-0.09,2.55-0.17,3.86-0.22c4.17-0.18,8.14-0.17,11.91-0.01c-0.12,0.35-0.25,0.69-0.37,1.04c-2.39,0.27-4.32,0.47-5.67,0.6
		c-1.14,0.11-2.29,0.23-3.43,0.34c-1.6,0.15-2.59,0.24-3.99,0.43c-0.74,0.1-1.34,0.19-1.76,0.26c-0.36,1.1-0.72,2.19-1.08,3.29
		c-0.14-0.22-0.36-0.59-0.6-1.06c-0.27-0.54-0.6-1.26-1.53-4.33c-0.2-0.65-0.4-1.33-0.81-2.22c-0.18-0.38-0.34-0.69-0.45-0.9
		c-0.22,1.51-0.37,2.73-0.46,3.55c-0.14,1.26-0.21,2.18-0.44,3.58c-0.13,0.78-0.26,1.41-0.35,1.81c-0.07,0.05-0.17,0.11-0.28,0.09
		c-0.19-0.03-0.32-0.24-0.46-0.54c-0.4-0.85-0.33-1.16-0.65-1.53c-0.11-0.13-0.3-0.31-0.64-0.46c-0.67-0.04-1.65-0.09-2.82-0.13
		c-1.5-0.05-2.88-0.05-5.81,0.01c-5.19,0.1-4.54,0.19-7.11,0.18c-1.16,0-2.46-0.02-4.36,0.08c-1.12,0.06-2.04,0.14-2.65,0.2
		c-0.23,1-0.28,1.81-0.28,2.38c0,0.47,0.04,1.37,0.07,2.08c0.01,0.23,0.02,0.42,0.02,0.56c-0.17-0.22-0.35-0.45-0.52-0.67
		c-0.35-0.95-0.57-1.72-0.7-2.24c-0.29-1.13-0.34-1.72-0.68-3.19c-0.19-0.83-0.36-1.5-0.48-1.91c-0.5,0.68-0.79,1.28-0.95,1.7
		c-0.13,0.32-0.33,0.96-0.74,2.23c-0.03,0.09-0.05,0.16-0.07,0.21c-0.51-0.12-1.23-0.29-2.11-0.45c-1.68-0.31-2.95-0.44-4.4-0.59
		c-2.06-0.21-3.09-0.31-3.74-0.29c-0.94,0.04-1.89-0.16-2.83-0.11c-0.3,0.02-0.6,0.04-0.77-0.13c-0.35-0.36-0.06-1.48,0.76-1.74
		C391.39,429.57,391.92,429.83,392.05,429.89z"/>
	
		<linearGradient id="EKG.middle.4_1_" gradientUnits="userSpaceOnUse" x1="416.7329" y1="181.319" x2="361.3523" y2="218.7781" gradientTransform="matrix(0.9381 0.3464 -0.3464 0.9381 124.604 89.8782)">
		<stop  offset="0" style="stop-color:#828635"/>
		<stop  offset="0.0333" style="stop-color:#828635"/>
		<stop  offset="1" style="stop-color:#828635"/>
	</linearGradient>
	<path id="EKG.middle.4" class="st9" d="M387.11,413.12c0.5-0.04,1.23-0.09,2.1-0.15c1.01-0.07,2.78-0.19,4.11-0.24
		c1.63-0.07,3.69-0.15,6.21,0.1c1.22,0.12,2.9,0.35,4.88,0.84c0.43-0.96,0.86-1.92,1.29-2.9c0.47-1.07,0.94-2.13,1.4-3.19
		c0.16,0.64,0.3,1.15,0.4,1.51c0.32,1.13,0.5,1.65,0.84,2.84c0.14,0.5,0.24,0.9,0.31,1.17c0.45-0.02,1.12-0.06,1.93-0.12
		c2.67-0.19,3.69-0.36,5.22-0.48c2.22-0.19,3.87-0.15,6.25-0.1c1.67,0.03,3.32,0.03,5.04,0.25c0.81,0.11,1.61,0.25,2.45,0.47
		c0.69,0.18,1.26,0.37,1.69,0.53c0.17-0.5,0.32-1.03,0.46-1.59c0.42-1.65,0.63-3.19,0.72-4.56c0.13-1.17,0.26-2.33,0.4-3.5
		c0.25,0.56,0.62,1.46,0.99,2.59c0.33,1.01,0.27,1.05,0.71,2.43c0.12,0.38,0.46,1.44,0.97,2.8c0.14,0.37,0.26,0.67,0.35,0.9
		c0.08-0.23,0.26-0.66,0.67-1.05c0.49-0.48,1.03-0.64,1.28-0.7c0.95,0.03,2.41,0.06,4.19,0.03c2.77-0.04,4-0.18,6.17-0.22
		c1.47-0.03,3.6-0.03,6.22,0.16c-0.16,0.17-0.33,0.33-0.49,0.5c-1.99,0.35-3.62,0.58-4.72,0.73c-1.62,0.22-2.85,0.35-7.92,0.85
		c-1.42,0.14-2.97,0.29-4.36,0.43c-0.37,1.01-0.74,2.01-1.12,3.02c-0.63-1.42-0.93-2.61-1.1-3.47c-0.19-0.96-0.27-1.91-0.78-3.25
		c-0.21-0.57-0.43-1.03-0.59-1.33c-0.27,1.38-0.48,2.5-0.63,3.29c-0.24,1.31-0.35,1.94-0.57,3.04c-0.22,1.1-0.42,1.99-0.55,2.58
		c-0.13-0.09-0.26-0.18-0.4-0.27c0-0.24-0.01-1-0.55-1.69c-0.35-0.44-0.76-0.66-0.98-0.77c-0.56-0.03-1.43-0.08-2.49-0.12
		c-2.93-0.09-3.97,0.03-8.17,0.11c-3.07,0.05-3.52,0-6.46,0.09c-1.42,0.04-2.58,0.09-3.35,0.12c-0.23,1.6-0.46,3.19-0.69,4.79
		c-0.12-0.1-0.23-0.21-0.35-0.31c-0.07-1.36-0.23-2.45-0.37-3.2c-0.17-0.91-0.39-1.83-0.72-3.73c-0.05-0.26-0.08-0.48-0.11-0.63
		c-0.39,0.81-0.77,1.67-1.14,2.58c-0.25,0.62-0.49,1.22-0.7,1.81c-0.59-0.21-1.48-0.49-2.56-0.76c-2.03-0.5-3.53-0.65-6.28-0.9
		c-2.93-0.27-4.4-0.4-5.81-0.35c-2.24,0.08-3.99,0.4-4.13-0.04C386.2,413.8,386.66,413.43,387.11,413.12z"/>
	
		<linearGradient id="EKG.middle.3_1_" gradientUnits="userSpaceOnUse" x1="416.4429" y1="181.087" x2="361.0623" y2="218.5461" gradientTransform="matrix(0.9381 0.3464 -0.3464 0.9381 124.604 89.8782)">
		<stop  offset="0" style="stop-color:#F2EA1A"/>
		<stop  offset="1" style="stop-color:#F1EA19"/>
	</linearGradient>
	<path id="EKG.middle.3" class="st10" d="M386.92,412.8c0.5-0.04,1.23-0.09,2.1-0.15c1.01-0.07,2.78-0.19,4.11-0.24
		c1.63-0.07,3.69-0.15,6.21,0.1c1.22,0.12,2.9,0.35,4.88,0.84c0.43-0.96,0.86-1.92,1.29-2.9c0.47-1.07,0.94-2.13,1.4-3.19
		c0.16,0.64,0.3,1.15,0.4,1.51c0.32,1.13,0.5,1.65,0.84,2.84c0.14,0.5,0.24,0.9,0.31,1.17c0.45-0.02,1.12-0.06,1.93-0.12
		c2.67-0.19,3.69-0.36,5.22-0.48c2.22-0.19,3.87-0.15,6.25-0.1c1.67,0.03,3.32,0.03,5.04,0.25c0.81,0.11,1.61,0.25,2.45,0.47
		c0.69,0.18,1.26,0.37,1.69,0.53c0.17-0.5,0.32-1.03,0.46-1.59c0.42-1.65,0.63-3.19,0.72-4.56c0.13-1.17,0.26-2.33,0.4-3.5
		c0.25,0.56,0.62,1.46,0.99,2.59c0.33,1.01,0.27,1.05,0.71,2.43c0.12,0.38,0.46,1.44,0.97,2.8c0.14,0.37,0.26,0.67,0.35,0.9
		c0.08-0.23,0.26-0.66,0.67-1.05c0.49-0.48,1.03-0.64,1.28-0.7c0.95,0.03,2.41,0.06,4.19,0.03c2.77-0.04,4-0.18,6.17-0.22
		c1.47-0.03,3.6-0.03,6.22,0.16c-0.16,0.17-0.33,0.33-0.49,0.5c-1.99,0.35-3.62,0.58-4.72,0.73c-1.62,0.22-2.85,0.35-7.92,0.85
		c-1.42,0.14-2.97,0.29-4.36,0.43c-0.37,1.01-0.74,2.01-1.12,3.02c-0.63-1.42-0.93-2.61-1.1-3.47c-0.19-0.96-0.27-1.91-0.78-3.25
		c-0.21-0.57-0.43-1.03-0.59-1.33c-0.27,1.38-0.48,2.5-0.63,3.29c-0.24,1.31-0.35,1.94-0.57,3.04c-0.22,1.1-0.42,1.99-0.55,2.58
		c-0.13-0.09-0.26-0.18-0.4-0.27c0-0.24-0.01-1-0.55-1.69c-0.35-0.44-0.76-0.66-0.98-0.77c-0.56-0.03-1.43-0.08-2.49-0.12
		c-2.93-0.09-3.97,0.03-8.17,0.11c-3.07,0.05-3.52,0-6.46,0.09c-1.42,0.04-2.58,0.09-3.35,0.12c-0.23,1.6-0.46,3.19-0.69,4.79
		c-0.12-0.1-0.23-0.21-0.35-0.31c-0.07-1.36-0.23-2.45-0.37-3.2c-0.17-0.91-0.39-1.83-0.72-3.73c-0.05-0.26-0.08-0.48-0.11-0.63
		c-0.39,0.81-0.77,1.67-1.14,2.58c-0.25,0.62-0.49,1.22-0.7,1.81c-0.59-0.21-1.48-0.49-2.56-0.76c-2.03-0.5-3.53-0.65-6.28-0.9
		c-2.93-0.27-4.4-0.4-5.81-0.35c-2.24,0.08-3.99,0.4-4.13-0.04C386,413.49,386.47,413.11,386.92,412.8z"/>
	
		<linearGradient id="EKG.middle.2_1_" gradientUnits="userSpaceOnUse" x1="406.9188" y1="162.5582" x2="359.2438" y2="194.8052" gradientTransform="matrix(0.9381 0.3464 -0.3464 0.9381 124.604 89.8782)">
		<stop  offset="0" style="stop-color:#838634"/>
		<stop  offset="0.0333" style="stop-color:#838634"/>
		<stop  offset="1" style="stop-color:#838634"/>
	</linearGradient>
	<path id="EKG.middle.2" class="st11" d="M394.93,390.87c1.77-0.07,3.83-0.02,6.08,0.27c1.43,0.18,2.75,0.43,3.94,0.71
		c0.8-2.1,1.59-4.19,2.38-6.29c0.34,0.95,0.67,1.96,0.99,3.02c0.27,0.9,0.5,1.77,0.71,2.61c1.28-0.05,3.31-0.14,5.81-0.33
		c3.38-0.26,4.09-0.44,6.29-0.46c3.41-0.04,5.68,0.34,6.21,0.44c1.73,0.3,3.15,0.71,4.19,1.05c0.61-3.22,1.22-6.43,1.83-9.65
		c0.55,1.46,0.95,2.68,1.23,3.54c0.74,2.35,1.44,4.98,1.44,4.98c0.14-0.05,0.49-0.2,0.77-0.58c0.26-0.36,0.31-0.72,0.32-0.87
		c1.15-0.08,2.33-0.14,3.53-0.18c3.81-0.14,7.43-0.08,10.84,0.11c-0.14,0.34-0.27,0.68-0.41,1.02c-2.19,0.24-3.97,0.42-5.21,0.54
		c-1.05,0.1-2.1,0.2-3.15,0.3c-1.47,0.14-2.37,0.21-3.67,0.39c-0.68,0.09-1.24,0.18-1.62,0.24c-0.41,1.08-0.81,2.16-1.22,3.24
		c-0.11-0.22-0.28-0.59-0.47-1.05c-0.21-0.53-0.45-1.25-1.08-4.29c-0.13-0.65-0.27-1.32-0.58-2.21c-0.13-0.38-0.26-0.69-0.34-0.89
		c-0.31,1.49-0.53,2.69-0.67,3.51c-0.21,1.25-0.34,2.16-0.66,3.54c-0.17,0.77-0.34,1.39-0.45,1.78c-0.07,0.05-0.16,0.1-0.26,0.09
		c-0.17-0.03-0.28-0.24-0.38-0.54c-0.31-0.84-0.22-1.15-0.48-1.52c-0.09-0.13-0.25-0.31-0.55-0.46c-0.61-0.05-1.5-0.11-2.56-0.16
		c-1.37-0.06-2.62-0.08-5.29-0.05c-4.73,0.05-4.15,0.14-6.49,0.11c-1.05-0.01-2.24-0.04-3.98,0.04c-1.02,0.05-1.86,0.12-2.43,0.17
		c-0.28,0.99-0.39,1.79-0.43,2.35c-0.03,0.46-0.06,1.36-0.09,2.05c-0.01,0.23-0.01,0.42-0.02,0.55c-0.14-0.22-0.28-0.44-0.43-0.67
		c-0.25-0.94-0.4-1.71-0.48-2.22c-0.18-1.12-0.19-1.7-0.39-3.16c-0.11-0.83-0.22-1.49-0.3-1.9c-0.51,0.67-0.81,1.26-0.99,1.68
		c-0.14,0.32-0.37,0.94-0.83,2.2c-0.03,0.09-0.06,0.16-0.08,0.2c-0.45-0.13-1.1-0.3-1.89-0.47c-1.51-0.33-2.66-0.47-3.96-0.63
		c-1.86-0.23-2.8-0.34-3.38-0.32c-0.86,0.03-1.71-0.18-2.57-0.14c-0.27,0.01-0.55,0.03-0.69-0.14c-0.29-0.36,0.05-1.46,0.82-1.71
		C394.34,390.55,394.81,390.81,394.93,390.87z"/>
	
		<linearGradient id="EKG.middle.1_1_" gradientUnits="userSpaceOnUse" x1="406.8753" y1="162.2827" x2="359.2003" y2="194.5297" gradientTransform="matrix(0.9381 0.3464 -0.3464 0.9381 124.604 89.8782)">
		<stop  offset="0" style="stop-color:#EFE919"/>
		<stop  offset="1" style="stop-color:#EFE919"/>
	</linearGradient>
	<path id="EKG.middle.1" class="st12" d="M394.98,390.6c1.77-0.07,3.83-0.02,6.08,0.27c1.43,0.18,2.75,0.43,3.94,0.71
		c0.79-2.1,1.59-4.19,2.38-6.29c0.34,0.95,0.67,1.96,0.99,3.02c0.27,0.9,0.5,1.77,0.71,2.61c1.28-0.05,3.31-0.14,5.81-0.33
		c3.38-0.26,4.09-0.44,6.29-0.46c3.41-0.04,5.68,0.34,6.21,0.44c1.73,0.3,3.15,0.71,4.19,1.05c0.61-3.22,1.22-6.43,1.83-9.65
		c0.55,1.46,0.95,2.68,1.23,3.54c0.74,2.35,1.44,4.98,1.44,4.98c0.14-0.05,0.49-0.2,0.77-0.58c0.26-0.36,0.31-0.72,0.32-0.87
		c1.15-0.08,2.33-0.14,3.53-0.18c3.81-0.14,7.43-0.08,10.84,0.11c-0.14,0.34-0.27,0.68-0.41,1.02c-2.19,0.24-3.97,0.42-5.21,0.54
		c-1.05,0.1-2.1,0.2-3.15,0.3c-1.47,0.14-2.37,0.21-3.67,0.39c-0.68,0.09-1.24,0.18-1.62,0.24c-0.41,1.08-0.81,2.16-1.22,3.24
		c-0.11-0.22-0.28-0.59-0.47-1.05c-0.21-0.53-0.45-1.25-1.08-4.29c-0.13-0.65-0.27-1.32-0.58-2.21c-0.13-0.38-0.26-0.69-0.34-0.89
		c-0.31,1.49-0.53,2.69-0.67,3.51c-0.21,1.25-0.34,2.16-0.66,3.54c-0.17,0.77-0.34,1.39-0.45,1.78c-0.07,0.05-0.16,0.1-0.26,0.09
		c-0.17-0.03-0.28-0.24-0.38-0.54c-0.31-0.84-0.22-1.15-0.48-1.52c-0.09-0.13-0.25-0.31-0.55-0.46c-0.61-0.05-1.5-0.11-2.56-0.16
		c-1.37-0.06-2.62-0.08-5.29-0.05c-4.73,0.05-4.15,0.14-6.49,0.11c-1.05-0.01-2.24-0.04-3.98,0.04c-1.02,0.05-1.86,0.12-2.43,0.17
		c-0.28,0.99-0.39,1.79-0.43,2.35c-0.03,0.46-0.06,1.36-0.09,2.05c-0.01,0.23-0.01,0.42-0.02,0.55c-0.14-0.22-0.28-0.44-0.43-0.67
		c-0.25-0.94-0.4-1.71-0.48-2.22c-0.18-1.12-0.19-1.7-0.39-3.16c-0.11-0.83-0.22-1.49-0.3-1.9c-0.51,0.67-0.81,1.26-0.99,1.68
		c-0.14,0.32-0.37,0.94-0.83,2.2c-0.03,0.09-0.06,0.16-0.08,0.2c-0.45-0.13-1.1-0.3-1.89-0.47c-1.51-0.33-2.66-0.47-3.96-0.63
		c-1.86-0.23-2.8-0.34-3.38-0.32c-0.86,0.03-1.71-0.18-2.57-0.14c-0.27,0.01-0.55,0.03-0.69-0.14c-0.29-0.36,0.05-1.46,0.82-1.71
		C394.4,390.27,394.87,390.53,394.98,390.6z"/>
	
		<linearGradient id="EKG.top.2_1_" gradientUnits="userSpaceOnUse" x1="355.4256" y1="166.9414" x2="417.2803" y2="166.9414" gradientTransform="matrix(0.9744 0.2248 -0.2248 0.9744 79.5759 53.5632)">
		<stop  offset="0" style="stop-color:#959636"/>
		<stop  offset="0.0252" style="stop-color:#949536"/>
		<stop  offset="0.4969" style="stop-color:#878935"/>
		<stop  offset="1" style="stop-color:#838534"/>
	</linearGradient>
	<path id="EKG.top.2" class="st13" d="M386.08,306.05c2.4-0.22,4.36-0.34,5.69-0.41c0.57-0.03,3.23-0.17,6.42-0.48
		c2.92-0.29,3.81-0.48,4.56-1.21c1.07-1.03,1.24-2.53,1.26-3.4c0.62,0.71,1.13,1.39,1.56,2.03c0.52,0.78,0.67,1.11,1.08,1.5
		c0.46,0.44,1.18,0.89,2.37,1.08c3.08-0.12,7.02-0.28,10.09-0.41c2.35-0.1,6.18-0.25,8.53-0.35c0.21,0.06,0.56,0.12,0.9-0.03
		c0.47-0.21,0.67-0.73,0.77-1.01c0.34-0.99,1.38-4.76,2.7-9.91c0.52,1.53,1.04,3.06,1.56,4.59c0.89,2.6,1.78,5.18,2.67,7.76
		c0.01,0.03,0.03,0.12,0.11,0.19c0.09,0.08,0.23,0.09,0.35,0.05c0.28-1.09,0.54-2.01,0.74-2.71c0.21-0.73,0.37-1.24,0.61-1.25
		c0.25-0.01,0.51,0.53,0.73,0.98c0.25,0.53,0.29,0.85,0.64,1.11c0.14,0.11,0.28,0.17,0.44,0.21c1.12,0.33,3.18,0.04,4.55-0.07
		c0.3-0.02,0.04,0,1.51-0.05c2.85-0.11,3.63-0.21,3.86,0.2c0.1,0.18,0.14,0.53-0.41,1.31c-1.75-0.08-3.16-0.02-4.12,0.05
		c-1.46,0.11-2.88,0.3-5.15,0.28c-0.36,0-0.65-0.01-0.84-0.02c0.01-0.21,0.03-1.37-0.68-1.79c-0.06-0.04-0.13-0.07-0.2-0.09
		c-0.4,0.61-0.61,1.14-0.73,1.51c-0.21,0.64-0.25,1.13-0.64,1.79c-0.16,0.27-0.32,0.47-0.43,0.59c-0.13-0.06-0.27-0.12-0.4-0.18
		c-0.82-1.76-1.39-2.98-1.79-3.85c-1.71-3.66-1.76-3.76-1.78-3.91c-0.01-0.06-0.02-0.32-0.2-0.47c-0.14-0.11-0.32-0.11-0.45-0.1
		c-0.34,0.77-0.6,1.42-0.79,1.89c-0.81,2-1.22,3-1.34,3.51c-0.26,1.03-0.23,1.47-0.67,1.83c-0.59,0.49-1.44,0.35-1.77,0.31
		c-0.49-0.07-3.11-0.13-8.36-0.25c-1.97-0.05-4.29-0.1-6.49,0.27c-0.52,0.09-2.14,0.38-4.18,0.04c-0.33-0.05-0.59-0.11-0.77-0.15
		c-0.42-0.42-0.84-0.88-1.27-1.36c-0.56-0.64-1.07-1.27-1.53-1.87c-0.16,0.15-0.38,0.35-0.65,0.59c-0.47,0.41-1.03,0.85-1.42,1.12
		c-0.81,0.56-1.57,0.82-2.52,1.14c-0.63,0.21-1.61,0.5-3.12,0.75c-1.7,0.29-1.75,0.14-4.23,0.43c-2.28,0.27-3.42,0.4-3.82,0.48
		c-1.36,0.27-1.99,0.51-2.49,0.14C385.88,307.92,385.98,306.69,386.08,306.05z"/>
	
		<linearGradient id="EKG.top.1_1_" gradientUnits="userSpaceOnUse" x1="355.6286" y1="166.7094" x2="417.4833" y2="166.7094" gradientTransform="matrix(0.9744 0.2248 -0.2248 0.9744 79.5759 53.5632)">
		<stop  offset="0" style="stop-color:#F2EA1A"/>
		<stop  offset="1" style="stop-color:#F1EA19"/>
	</linearGradient>
	<path id="EKG.top.1" class="st14" d="M386.33,305.87c2.4-0.22,4.36-0.34,5.69-0.41c0.57-0.03,3.23-0.17,6.42-0.48
		c2.92-0.29,3.81-0.48,4.56-1.21c1.07-1.03,1.24-2.53,1.26-3.4c0.62,0.71,1.13,1.39,1.56,2.03c0.52,0.78,0.67,1.11,1.08,1.5
		c0.46,0.44,1.18,0.89,2.37,1.08c3.08-0.12,7.02-0.28,10.09-0.41c2.35-0.1,6.18-0.25,8.53-0.35c0.21,0.06,0.56,0.12,0.9-0.03
		c0.47-0.21,0.67-0.73,0.77-1.01c0.34-0.99,1.38-4.76,2.7-9.91c0.52,1.53,1.04,3.06,1.56,4.59c0.89,2.6,1.78,5.18,2.67,7.76
		c0.01,0.03,0.03,0.12,0.11,0.19c0.09,0.08,0.23,0.09,0.35,0.05c0.28-1.09,0.54-2.01,0.74-2.71c0.21-0.73,0.37-1.24,0.61-1.25
		c0.25-0.01,0.51,0.53,0.73,0.98c0.25,0.53,0.29,0.85,0.64,1.11c0.14,0.11,0.28,0.17,0.44,0.21c1.12,0.33,3.18,0.04,4.55-0.07
		c0.3-0.02,0.04,0,1.51-0.05c2.85-0.11,3.63-0.21,3.86,0.2c0.1,0.18,0.14,0.53-0.41,1.31c-1.75-0.08-3.16-0.02-4.12,0.05
		c-1.46,0.11-2.88,0.3-5.15,0.28c-0.36,0-0.65-0.01-0.84-0.02c0.01-0.21,0.03-1.37-0.68-1.79c-0.06-0.04-0.13-0.07-0.2-0.09
		c-0.4,0.61-0.61,1.14-0.73,1.51c-0.21,0.64-0.25,1.13-0.64,1.79c-0.16,0.27-0.32,0.47-0.43,0.59c-0.13-0.06-0.27-0.12-0.4-0.18
		c-0.82-1.76-1.39-2.98-1.79-3.85c-1.71-3.66-1.76-3.76-1.78-3.91c-0.01-0.06-0.02-0.32-0.2-0.47c-0.14-0.11-0.32-0.11-0.45-0.1
		c-0.34,0.77-0.6,1.42-0.79,1.89c-0.81,2-1.22,3-1.34,3.51c-0.26,1.03-0.23,1.47-0.67,1.83c-0.59,0.49-1.44,0.35-1.77,0.31
		c-0.49-0.07-3.11-0.13-8.36-0.25c-1.97-0.05-4.29-0.1-6.49,0.27c-0.52,0.09-2.14,0.38-4.18,0.04c-0.33-0.05-0.59-0.11-0.77-0.15
		c-0.42-0.42-0.84-0.88-1.27-1.36c-0.56-0.64-1.07-1.27-1.53-1.87c-0.16,0.15-0.38,0.35-0.65,0.59c-0.47,0.41-1.03,0.85-1.42,1.12
		c-0.81,0.56-1.57,0.82-2.52,1.14c-0.63,0.21-1.61,0.5-3.12,0.75c-1.7,0.29-1.75,0.14-4.23,0.43c-2.28,0.27-3.42,0.4-3.82,0.48
		c-1.36,0.27-1.99,0.51-2.49,0.14C386.13,307.74,386.23,306.51,386.33,305.87z"/>
	
		<linearGradient id="Blue.dna.strand.3_1_" gradientUnits="userSpaceOnUse" x1="409.6227" y1="280.7311" x2="376.9479" y2="139.121" gradientTransform="matrix(0.9744 0.2248 -0.2248 0.9744 79.5759 53.5632)">
		<stop  offset="0" style="stop-color:#58595B"/>
		<stop  offset="0.0885" style="stop-color:#76777A"/>
		<stop  offset="0.2245" style="stop-color:#9C9EA0"/>
		<stop  offset="0.3589" style="stop-color:#BDBFC1"/>
		<stop  offset="0.4889" style="stop-color:#D9DADB"/>
		<stop  offset="0.6133" style="stop-color:#ECEDED"/>
		<stop  offset="0.7297" style="stop-color:#F8F9F9"/>
		<stop  offset="0.8302" style="stop-color:#FFFFFF"/>
	</linearGradient>
	<path id="Blue.dna.strand.3" class="st15" d="M394.17,280.15c-0.08-0.54-0.62-3.7-3.35-5.33c-0.21-0.13-1.35-0.79-2.97-0.92
		c-2.05-0.17-3.59,0.59-4.36,0.99c0,0-1.71,0.88-3.06,2.45c-6,6.98-6.66,23.05-6.66,23.05c-0.16,3.8-0.31,8.2,0.73,13.98
		c0.59,3.29,2.14,10.18,6.51,17.84c3.83,6.73,8.04,10.9,11.23,14.02c5.65,5.52,10.52,8.63,20.02,14.62
		c13.4,8.44,14.24,7.53,21.28,13.04c10.52,8.23,14.18,14.61,15.33,16.75c3.54,6.58,4.39,12.05,4.55,13.19
		c0.94,6.71-0.23,12.22-1.16,15.38c1.47-2.62,3.31-6.55,4.39-11.6c0.31-1.46,1.16-5.87,0.82-11.69c-0.42-7.22-2.51-12.45-4.38-16.99
		c-3.04-7.39-4.83-12.44-9.78-16.81c-1.2-1.06-2.57-1.95-5.3-3.72c-6.84-4.44-12.02-6.78-15.05-8.29c-2.2-1.1-11-5.57-18.34-12.62
		c-3.62-3.48-11.12-10.68-14.19-22.47c-2.88-11.05-0.48-20.75,0.79-25.89C392.15,285.33,393.29,282.27,394.17,280.15z"/>
	
		<linearGradient id="Blue.dna.strand.2_1_" gradientUnits="userSpaceOnUse" x1="427.1645" y1="450.9183" x2="427.1645" y2="219.1128" gradientTransform="matrix(0.9744 0.2248 -0.2248 0.9744 79.5759 53.5632)">
		<stop  offset="0" style="stop-color:#FFFFFF"/>
		<stop  offset="0.0176" style="stop-color:#FFFFFF"/>
		<stop  offset="0.5296" style="stop-color:#FFFFFF"/>
		<stop  offset="0.6886" style="stop-color:#FBFAFA"/>
		<stop  offset="0.7766" style="stop-color:#F1F0EF"/>
		<stop  offset="0.8473" style="stop-color:#E4E2E2"/>
		<stop  offset="0.9087" style="stop-color:#D1D0CF"/>
		<stop  offset="0.9636" style="stop-color:#BCBBBA"/>
		<stop  offset="1" style="stop-color:#AAAAA9"/>
	</linearGradient>
	<path id="Blue.dna.strand.2" class="st16" d="M443.66,362.44c1,1.78,1.84,3.2,2.41,4.15c1.06,1.76,1.31,2.08,2.07,3.42
		c0.8,1.41,1.36,2.52,1.99,3.76c0.66,1.3,1.26,2.55,1.58,3.22c2.09,4.47,3.44,9.46,3.44,9.46c0.72,2.65,1.71,6.39,1.92,11.43
		c0.08,2.02,0.21,5.71-0.78,10.36c-0.21,1-1.02,4.61-3.05,8.94c-0.39,0.83-0.74,1.51-1,2c-0.17,0.72-0.42,1.7-0.75,2.86
		c-0.46,1.64-1.12,3.94-2.28,6.8c-1.1,2.71-2.17,4.72-2.62,5.56c-1.07,1.97-2.01,3.4-2.87,4.7c-0.4,0.61-1.44,2.17-2.92,4.15
		c-1.44,1.93-2.8,3.74-4.85,5.93c-2.25,2.4-4.18,4.03-4.69,4.45c-1.19,0.99-2.43,1.93-4.25,3.31c-1.25,0.94-2.14,1.6-2.37,1.77
		c-4.11,3.05-7.69,7.29-13.36,12.63c-1.85,1.75-2.7,2.28-4.4,3.98c-0.56,0.56-1.08,1.11-4.68,5.17c-2.03,2.3-3.05,3.45-4.11,4.68
		c-2.11,2.43-3.16,3.65-4.42,5.23c-1.58,1.98-2.7,3.53-3.73,4.94c-1.45,2-2.85,3.94-4.56,6.63c-2.65,4.17-4.42,7.58-5.26,9.23
		c-0.28,0.57-1.02,2.05-1.91,4.02c-0.94,2.09-2.36,5.25-3.63,9.16c-0.42,1.3-1.81,5.7-2.7,11.7c-0.72,4.87-1.26,8.45-0.72,12.42
		c0.1,0.72,0.36,2.43,0.85,6c0.45,3.26,0.42,3.22,0.53,3.87c0.53,2.96,1.36,5.09,2.35,7.6c0.91,2.31,1.8,4.54,3.49,7.32
		c0.38,0.63,1.99,3.24,4.72,6.27c1.3,1.45,3.03,3.35,5.73,5.34c1.2,0.88,3.72,2.62,7.27,4.09c2.52,1.04,5.03,1.56,9.94,2.56
		c2.23,0.46,5.12,1.01,8.52,1.56c-0.66-0.47-1.66-1.16-2.9-1.96c-4.45-2.9-6.42-3.47-8.79-5.24c-1.24-0.93-3.94-3.05-6.85-6.31
		c-0.87-0.97-3.98-4.55-6.87-10.07c-1.35-2.58-3.38-6.51-4.55-12.03c-0.9-4.24-0.85-7.36-0.76-12.94c0.05-3.42,0.12-7.02,1.01-11.73
		c0.77-4.1,1.8-7.11,2.39-8.82c0.35-1.02,2.05-5.85,5.42-11.88c1.26-2.26,2.37-4.29,4.25-6.79c0.32-0.43,1.14-1.51,4.3-5.08
		c3.08-3.48,4.62-5.22,5.63-6.2c3.37-3.26,4.62-3.54,8.69-7.1c2-1.75,2.58-2.67,5.41-5.27c1.67-1.54,2.96-2.63,4.03-3.53
		c9.17-7.76,11.19-9.24,14.9-12.72c1.14-1.06,3.05-2.89,5.33-5.29c6.71-7.06,10.77-12.88,12.08-14.8c1.54-2.27,2.99-4.41,4.59-7.51
		c1.76-3.41,2.85-6.31,3.65-8.45c0.61-1.65,1.33-3.58,2.06-6.22c0.73-2.62,1.48-5.33,1.78-8.88c0.29-3.45,0.02-6.01-0.31-9.09
		c-0.27-2.47-0.6-5.4-1.64-9.13c-1.33-4.71-3.06-8.07-4.11-10.06c-1.97-3.75-3.85-6.33-5.52-8.59c-0.8-1.09-3.12-4.18-6.58-7.86
		C449.13,367.36,446.63,364.93,443.66,362.44z"/>
	
		<linearGradient id="Red.dna.strand.1_3_" gradientUnits="userSpaceOnUse" x1="397.1178" y1="207.765" x2="370.5429" y2="92.5912" gradientTransform="matrix(0.9744 0.2248 -0.2248 0.9744 79.5759 53.5632)">
		<stop  offset="0.1929" style="stop-color:#909090"/>
		<stop  offset="0.3629" style="stop-color:#989797"/>
		<stop  offset="0.3988" style="stop-color:#A2A0A0"/>
		<stop  offset="0.5131" style="stop-color:#BFBDBD"/>
		<stop  offset="0.6298" style="stop-color:#D8D6D5"/>
		<stop  offset="0.7484" style="stop-color:#EBEAE9"/>
		<stop  offset="0.8703" style="stop-color:#F9F8F7"/>
		<stop  offset="1" style="stop-color:#FFFFFF"/>
	</linearGradient>
	<path id="Red.dna.strand.1_2_" class="st17" d="M377.33,242.09c-1.62-0.44-2.45-1.83-2.53-1.95c-0.52-0.9-0.55-1.75-0.57-2.45
		c-0.04-1.89,0.67-3.43,1.15-4.2c1.69-2.74,5.2-3.54,6.85-3.9c12.16-2.6,22.19-2.5,22.19-2.5c8.83,0.54,13.27,0.08,16.96,0.52
		c8,0.95,14.24,1.69,21.01,5.44c6.92,3.83,10.88,8.87,12.84,11.42c10.78,13.99,10.3,29.91,10.09,34.71
		c-0.08,1.88-0.45,7.84-2.78,15.13c-2.66,8.34-6.44,13.85-10.31,19.41c-6.46,9.28-12.87,15.23-16.93,18.95
		c-7.65,7.02-15.78,12.94-16.06,12.6c-0.14-0.17,1.72-1.8,4.6-4.71c10.05-10.18,15.97-19.28,17.5-21.68
		c2.04-3.2,3.9-6.13,5.87-10.49c2.08-4.61,4.99-11.19,5.6-20.14c0.24-3.58,0.69-11.54-3.05-20.82c-0.78-1.93-4.21-10.04-12.4-17.21
		c-2.69-2.35-7.21-6.23-14.21-8.34c-2.53-0.76-4.75-1-9.19-1.46c-5.04-0.53-11.84-1.25-20.15-0.36c-8.34,0.89-12.51,1.33-13.24,1.65
		C380.22,241.87,378.83,242.5,377.33,242.09z"/>
	
		<linearGradient id="Red.dna.strand.1_4_" gradientUnits="userSpaceOnUse" x1="451.8694" y1="406.3887" x2="420.0385" y2="268.4362" gradientTransform="matrix(0.9744 0.2248 -0.2248 0.9744 79.5759 53.5632)">
		<stop  offset="0" style="stop-color:#FFFFFF"/>
		<stop  offset="0.1865" style="stop-color:#E5E4E3"/>
		<stop  offset="0.5643" style="stop-color:#B5B4B3"/>
		<stop  offset="1" style="stop-color:#818282"/>
	</linearGradient>
	<path id="Red.dna.strand.1_1_" class="st18" d="M449.04,543.09c-0.55,2.86,2.27,5.5,2.64,5.85c0.74,0.69,1.87,1.76,3.68,2.1
		c3.59,0.68,6.32-2.1,6.56-2.36c0.78-0.82,1.13-1.57,2.05-3.99c1.47-3.83,2.2-5.75,2.69-7.53c0.87-3.17,2.56-9.29,2.63-16.54
		c0.1-11.54-3.97-20.3-5.8-24.14c-0.23-0.48-5.8-11.87-16.46-21c-4.14-3.55-9.31-6.97-9.6-7.16c-3.34-2.2-3.33-1.91-9.05-5.42
		c-5.89-3.62-6.23-4.12-12.36-7.85c-3.84-2.34-4.23-2.46-6.2-3.81c-2.32-1.59-5.08-3.51-8.13-6.58c-3.6-3.63-5.81-7.06-6.84-8.78
		c-2.55-4.26-3.84-8.01-4.43-9.95c-0.87-2.84-2.32-7.76-1.86-13.73c0.1-1.29,0.29-2.62,0.22-2.63c-0.11-0.02-1.03,3.58-1.05,7.65
		c-0.01,2.99,0.47,5.27,0.84,6.92c2.67,11.73,6.14,20.35,6.14,20.35c2.8,6.95,5.54,12.07,7.3,15.32c1.73,3.2,3.3,5.86,4.5,7.83
		c1.43,0.84,3.64,2.11,6.37,3.61c8.23,4.51,11,5.44,15.57,8.36c1.56,1,5.29,3.48,9.32,7.33c3.27,3.12,9.04,8.76,12.81,18.02
		c2.88,7.08,3.27,13.06,3.35,14.88c0.27,5.99-0.78,10.63-1.33,12.97c-1.05,4.48-1.57,6.71-2.83,8.63
		C449.57,541.74,449.2,542.28,449.04,543.09z"/>
	<path id="Red.dna.strand.2" class="st19" d="M406.79,467.86c-2.69-1.73-5.99-4.06-9.56-7.09c-1.98-1.69-5.69-4.87-9.69-9.62
		c-2.84-3.38-6.93-8.31-10.16-15.8c-1.3-3.02-3.95-9.29-4.43-17.93c-0.54-9.6,1.88-16.87,3.28-20.91c1.89-5.49,4.14-9.43,5.83-12.35
		c0.66-1.13,3.77-6.47,9.33-13.09c3.83-4.55,6.84-7.36,12.88-12.98c3.49-3.25,8.5-7.74,14.88-12.88c5.74-4.63,5.48-4.05,9.57-7.43
		c8.42-6.98,14.04-13.17,16.07-15.46c4.02-4.55,7.6-8.62,11.29-14.89c1.71-2.89,4.23-7.23,6.2-13.45c1.62-5.12,2.17-9.3,2.49-11.81
		c0.45-3.54,0.86-6.81,0.56-11.18c-0.54-7.8-2.98-13.56-4.12-16.19c-0.64-1.49-1.63-3.56-3.03-5.94c-2.67-4.51-5.56-7.86-7.78-10.13
		c0.67,0.46,1.55,1.09,2.56,1.89c1,0.78,2.66,2.09,4.34,3.81c1.73,1.79,2.76,3.29,4.8,6.29c0.99,1.45,1.75,2.57,2.67,4.19
		c0.51,0.9,1.75,3.16,2.96,6.28c1.94,5,2.61,9.14,2.81,10.53c0.6,4.11,0.5,7.28,0.44,9.21c-0.14,4.06-0.69,7.06-1.23,9.96
		c-0.5,2.68-1.14,6.08-2.54,10.25c-1.26,3.74-2.51,6.22-5.02,11.16c-2.29,4.52-3.92,7.76-6.72,11.84c-0.84,1.23-2.34,3.2-5.34,7.16
		c-2.76,3.64-4.14,5.45-5.51,7.12c-2.94,3.57-5.4,6.17-7.46,8.34c-2.13,2.24-3.69,3.78-6.74,6.78
		c-7.44,7.31-12.46,11.86-13.49,12.78c-2.2,1.99-3.45,3.11-5.23,4.63c-0.66,0.56-1.39,1.17-2.52,2.16
		c-1.59,1.39-2.49,2.17-3.31,2.99c-1.02,1.01-1.9,2.18-3.66,4.51c-1.19,1.58-2.6,3.46-4.32,6.09c-0.8,1.22-1.55,2.37-2.47,4.01
		c-1.4,2.48-2.28,4.47-2.54,5.07c-0.29,0.65-1.52,3.53-2.65,7.6c-0.43,1.55-0.99,3.6-1.4,6.34c-0.78,5.11-0.54,9.17-0.39,10.98
		c0.23,2.76,0.66,4.79,1.03,6.61c0.61,2.92,1.23,4.93,2.29,8.39c0.92,3,1.61,5.22,2.82,8.15c0.73,1.77,1.36,3.11,1.97,4.38
		c0.97,2.05,1.27,2.55,3.4,6.68c2.41,4.69,2.72,5.41,3.85,7.32c1.04,1.77,1.98,3.18,2.62,4.12
		C406.5,466.84,406.64,467.35,406.79,467.86z"/>
	
		<linearGradient id="Blue.dna.strand.1_1_" gradientUnits="userSpaceOnUse" x1="502.9569" y1="398.9498" x2="403.9401" y2="398.9498" gradientTransform="matrix(0.9744 0.2248 -0.2248 0.9744 79.5759 53.5632)">
		<stop  offset="0" style="stop-color:#A19F9F"/>
		<stop  offset="1" style="stop-color:#E5E7E5"/>
	</linearGradient>
	<path id="Blue.dna.strand.1" class="st20" d="M414.92,487.49c-3.76,2.35-6.67,4.71-8.77,6.59c-0.59,0.53-2.6,2.35-5,5.01
		c-2.49,2.76-4.13,5.01-5.8,7.32c-2.45,3.4-3.76,5.21-5.24,7.99c-1.46,2.74-2.24,4.85-3.52,8.3c-1.2,3.24-2.01,5.4-2.67,8.49
		c-0.42,1.96-0.62,3.67-1.01,7.09c-0.43,3.71-0.64,5.57-0.68,7.97c-0.08,4.61,0.51,8.13,0.67,9.08c0.87,5.01,2.38,8.63,3.37,10.96
		c1.04,2.44,2.37,5.55,4.94,9.18c0.72,1.01,3.28,4.54,7.58,8.18c3.52,2.98,6.67,4.74,10,6.59c2.33,1.3,4.33,2.28,5.75,2.93
		c0.3,0.05,0.75,0.13,1.29,0.21c6.97,1.06,11.96,0.79,19.28,0.43c7.88-0.39,15.73-1.26,23.61-1.7c0.67-0.04,3.29-0.18,6.46-1.28
		c3.51-1.22,5.15-2.73,5.54-3.1c0.91-0.87,2.36-2.25,2.83-4.53c0.32-1.54,0.07-2.85-0.15-3.61c-0.19-0.67-0.69-2.37-2.15-3.44
		c-1.04-0.76-2.16-0.92-4.43-0.93c-4.02-0.01-7.11,0.48-7.63,0.56c0,0-0.98,0.16-8.14,1.25c-4.9,0.75-8.64,1.05-11.73,1.31
		c-4.25,0.35-7.28,0.6-11.47,0.57c-3.15-0.03-5.56-0.05-8.81-0.51c-5.85-0.84-10.11-2.52-11.52-3.1c-3.53-1.46-6.81-2.82-10.15-5.91
		c-2.71-2.52-4.17-4.98-5.99-8.08c-1.58-2.68-3.13-5.31-4.13-9.17c-0.93-3.6-0.91-6.41-0.89-9.31c0.01-1.23,0.09-5.68,1.43-11.63
		c0.29-1.3,1.65-7.13,5.08-14.28c2.58-5.38,5.21-9.16,8.32-13.62c1.58-2.26,2.88-4.14,4.9-6.55c3.25-3.88,4.85-5.65,5.63-6.4
		C412.99,489.1,414.12,488.14,414.92,487.49z"/>
	<g>
	</g>
	<g>
	</g>
	<g>
	</g>
	<g>
	</g>
	<g>
	</g>
	<g>
	</g>
</g>
</svg>
