<?xml version="1.0" encoding="utf-8"?>
<!-- Generator: Adobe Illustrator 24.3.0, SVG Export Plug-In . SVG Version: 6.00 Build 0)  -->
<svg version="1.1" id="frequency-medicine-logo-2" xmlns="http://www.w3.org/2000/svg" xmlns:xlink="http://www.w3.org/1999/xlink"
	 x="0px" y="0px" viewBox="0 0 864 864" style="enable-background:new 0 0 864 864;" xml:space="preserve">
<style type="text/css">
	.st0{fill:url(#ekg-top-back_1_);}
	.st1{fill:url(#ekg-top-front_1_);}
	.st2{fill:url(#ekg-middle-back-3_1_);}
	.st3{fill:url(#ekg-middle-front-3_1_);}
	.st4{fill:url(#ekg-middle-back-2_1_);}
	.st5{fill:url(#ekg-middle-front-2_1_);}
	.st6{fill:url(#ekg-middle-back-1_1_);}
	.st7{fill:url(#ekg-middle-front-1_1_);}
	.st8{fill:url(#ekg-bottom-back_1_);}
	.st9{fill:url(#ekg-bottom-front_1_);}
	.st10{fill:url(#dna-red-top_1_);}
	.st11{fill:url(#dna-red-bottom_1_);}
	.st12{fill:url(#dna-red-middle_1_);}
	.st13{fill:url(#blue-dna-top_1_);}
	.st14{fill:url(#blue-dna-middle_1_);}
	.st15{fill:url(#blue-dna-bottom_1_);}
	.st16{fill:#0C0C0C;}
	.st17{fill:#DA2528;}
	.st18{fill:#DA2B2B;}
	.st19{fill:#010101;}
</style>
<g id="frequency-medicine-logo-2-parts">
	<g id="dna-strands">
		<g id="ekg-top">
			
				<linearGradient id="ekg-top-back_1_" gradientUnits="userSpaceOnUse" x1="162.81" y1="587.8708" x2="231.6162" y2="587.8708" gradientTransform="matrix(1 0 0 -1 0 864)">
				<stop  offset="0" style="stop-color:#959636"/>
				<stop  offset="2.520000e-02" style="stop-color:#949536"/>
				<stop  offset="0.4969" style="stop-color:#878935"/>
				<stop  offset="1" style="stop-color:#838534"/>
			</linearGradient>
			<path id="ekg-top-back" class="st0" d="M162.8,287.5c2.6-0.8,4.6-1.5,6.1-1.9c0.6-0.2,3.4-1,6.8-2.1c3.1-1,4-1.5,4.6-2.5
				c0.9-1.4,0.7-3,0.5-4c0.9,0.6,1.6,1.2,2.2,1.8c0.8,0.7,1,1,1.6,1.4c0.6,0.4,1.5,0.7,2.8,0.6c3.3-0.9,7.5-2.1,10.8-3
				c2.5-0.7,6.6-1.8,9.2-2.5c0.2,0,0.6,0,1-0.3c0.5-0.4,0.6-1,0.6-1.3c0.1-1.2,0.3-5.5,0.4-11.4c0.9,1.5,1.9,3,2.8,4.6
				c1.6,2.6,3.2,5.2,4.8,7.7c0,0,0.1,0.1,0.2,0.2c0.1,0.1,0.3,0,0.4,0c0-1.3,0.1-2.3,0.1-3.1c0.1-0.8,0.1-1.4,0.4-1.5
				c0.3-0.1,0.7,0.4,1,0.9c0.4,0.5,0.5,0.8,1,1c0.2,0.1,0.4,0.1,0.5,0.1c1.3,0.1,3.4-0.8,4.9-1.2c0.3-0.1,0,0,1.6-0.4
				c3.1-0.8,3.9-1.1,4.2-0.8c0.1,0.2,0.3,0.5-0.1,1.5c-1.9,0.4-3.4,0.8-4.4,1.1c-1.6,0.5-3.1,1-5.5,1.6c-0.4,0.1-0.7,0.1-0.9,0.2
				c-0.1-0.2-0.3-1.5-1.2-1.8c-0.1,0-0.1,0-0.2,0c-0.3,0.8-0.4,1.4-0.4,1.8c-0.1,0.7,0,1.3-0.2,2.1c-0.1,0.3-0.2,0.6-0.3,0.8
				c-0.2,0-0.3-0.1-0.5-0.1c-1.3-1.7-2.2-2.9-2.9-3.7c-2.8-3.5-2.9-3.6-2.9-3.8c0-0.1-0.1-0.4-0.3-0.5c-0.2-0.1-0.4,0-0.5,0
				c-0.2,0.9-0.3,1.7-0.4,2.2c-0.4,2.4-0.6,3.6-0.6,4.1c0,1.2,0.1,1.6-0.3,2.1c-0.5,0.7-1.5,0.7-1.8,0.8c-0.6,0-3.4,0.6-9.1,1.8
				c-2.1,0.4-4.7,1-7,1.9c-0.6,0.2-2.2,1-4.5,1.1c-0.4,0-0.7,0-0.9,0c-0.6-0.4-1.1-0.7-1.7-1.2c-0.8-0.5-1.5-1.1-2.1-1.6
				c-0.1,0.2-0.3,0.5-0.6,0.8c-0.4,0.6-0.9,1.2-1.3,1.6c-0.7,0.8-1.5,1.3-2.4,1.9c-0.6,0.4-1.6,0.9-3.2,1.6
				c-1.8,0.7-1.9,0.6-4.5,1.5c-2.4,0.9-3.6,1.3-4,1.5c-1.4,0.6-2,1-2.7,0.8C163.1,289.6,162.9,288.2,162.8,287.5z"/>
			
				<linearGradient id="ekg-top-front_1_" gradientUnits="userSpaceOnUse" x1="163.04" y1="588.1208" x2="231.8462" y2="588.1208" gradientTransform="matrix(1 0 0 -1 0 864)">
				<stop  offset="0" style="stop-color:#F2EA1A"/>
				<stop  offset="1" style="stop-color:#F1EA19"/>
			</linearGradient>
			<path id="ekg-top-front" class="st1" d="M163,287.2c2.6-0.8,4.6-1.5,6.1-1.9c0.6-0.2,3.4-1,6.8-2.1c3.1-1,4-1.5,4.6-2.5
				c0.9-1.4,0.7-3,0.5-4c0.9,0.6,1.6,1.2,2.2,1.8c0.8,0.7,1,1,1.6,1.4c0.6,0.4,1.5,0.7,2.8,0.6c3.3-0.9,7.5-2.1,10.8-3
				c2.5-0.7,6.6-1.8,9.2-2.5c0.2,0,0.6,0,1-0.3c0.5-0.4,0.6-1,0.6-1.3c0.1-1.2,0.3-5.5,0.4-11.4c0.9,1.5,1.9,3,2.8,4.6
				c1.6,2.6,3.2,5.2,4.8,7.7c0,0,0.1,0.1,0.2,0.2c0.1,0.1,0.3,0,0.4,0c0-1.3,0.1-2.3,0.1-3.1c0.1-0.8,0.1-1.4,0.4-1.5
				c0.3-0.1,0.7,0.4,1,0.9c0.4,0.5,0.5,0.8,1,1c0.2,0.1,0.4,0.1,0.5,0.1c1.3,0.1,3.4-0.8,4.9-1.2c0.3-0.1,0,0,1.6-0.4
				c3.1-0.8,3.9-1.1,4.2-0.8c0.1,0.2,0.3,0.5-0.1,1.5c-1.9,0.4-3.4,0.8-4.4,1.1c-1.6,0.5-3.1,1-5.5,1.6c-0.4,0.1-0.7,0.1-0.9,0.2
				c-0.1-0.2-0.3-1.5-1.2-1.8c-0.1,0-0.1,0-0.2,0c-0.3,0.8-0.4,1.4-0.4,1.8c-0.1,0.7,0,1.3-0.2,2.1c-0.1,0.3-0.2,0.6-0.3,0.8
				c-0.2,0-0.3-0.1-0.5-0.1c-1.3-1.7-2.2-2.9-2.9-3.7c-2.8-3.5-2.9-3.6-2.9-3.8c0-0.1-0.1-0.4-0.3-0.5c-0.2-0.1-0.4,0-0.5,0
				c-0.2,0.9-0.3,1.7-0.4,2.2c-0.4,2.4-0.6,3.6-0.6,4.1c0,1.2,0.1,1.6-0.3,2.1c-0.5,0.7-1.5,0.7-1.8,0.8c-0.6,0-3.4,0.6-9.1,1.8
				c-2.1,0.4-4.7,1-7,1.9c-0.6,0.2-2.2,1-4.5,1.1c-0.4,0-0.7,0-0.9,0c-0.6-0.4-1.1-0.7-1.7-1.2c-0.8-0.5-1.5-1.1-2.1-1.6
				c-0.1,0.2-0.3,0.5-0.6,0.8c-0.4,0.6-0.9,1.2-1.3,1.6c-0.7,0.8-1.5,1.3-2.4,1.9c-0.6,0.4-1.6,0.9-3.2,1.6
				c-1.8,0.7-1.9,0.6-4.5,1.5c-2.4,0.9-3.6,1.3-4,1.5c-1.4,0.6-2,1-2.7,0.8C163.3,289.3,163.1,288,163,287.2z"/>
		</g>
		<g id="ekg-middle">
			
				<linearGradient id="ekg-middle-back-3_1_" gradientUnits="userSpaceOnUse" x1="263.5989" y1="473.3922" x2="206.0479" y2="434.465" gradientTransform="matrix(0.9991 -4.280000e-02 -4.280000e-02 -0.9991 19.7508 874.77)">
				<stop  offset="0" style="stop-color:#828635"/>
				<stop  offset="3.330000e-02" style="stop-color:#828635"/>
				<stop  offset="1" style="stop-color:#828635"/>
			</linearGradient>
			<path id="ekg-middle-back-3" class="st2" d="M204.3,423.7c2-0.8,4.4-1.7,7.1-2.4c1.7-0.4,3.3-0.8,4.8-1c-0.1-2.5-0.2-5-0.2-7.5
				c0.8,0.8,1.7,1.7,2.6,2.7c0.7,0.8,1.4,1.6,2,2.4c1.4-0.6,3.7-1.6,6.5-2.9c3.7-1.7,4.5-2.2,7-3.2c3.9-1.5,6.6-2.1,7.3-2.2
				c2.1-0.4,3.9-0.6,5.3-0.7c-0.8-3.6-1.6-7.1-2.5-10.7c1.3,1.3,2.4,2.3,3.1,3.1c1.9,2.1,4,4.5,4,4.5c0.1-0.1,0.5-0.4,0.6-0.9
				c0.1-0.5,0-0.9,0-1c1.3-0.6,2.6-1.1,3.9-1.7c4.3-1.8,8.4-3.3,12.4-4.6c0,0.4,0,0.8,0,1.2c-2.4,1.2-4.3,2.1-5.7,2.8
				c-1.1,0.6-2.3,1.1-3.5,1.7c-1.6,0.8-2.6,1.2-4,2c-0.7,0.4-1.3,0.7-1.7,1c0.1,1.3,0.1,2.6,0.1,3.8c-0.2-0.2-0.6-0.5-1-0.9
				c-0.5-0.5-1.1-1.1-3.3-3.9c-0.5-0.6-0.9-1.2-1.7-2c-0.3-0.3-0.6-0.6-0.8-0.8c0.4,1.7,0.7,3,0.9,3.9c0.3,1.4,0.6,2.4,0.9,3.9
				c0.2,0.9,0.3,1.6,0.3,2c-0.1,0.1-0.1,0.2-0.3,0.2c-0.2,0-0.4-0.1-0.7-0.4c-0.8-0.7-0.8-1.1-1.3-1.4c-0.2-0.1-0.4-0.2-0.8-0.2
				c-0.7,0.2-1.8,0.5-3,1c-1.6,0.5-3,1.1-6.1,2.2c-5.4,2.1-4.7,1.9-7.4,2.9c-1.2,0.5-2.6,0.9-4.5,1.8c-1.1,0.5-2.1,0.9-2.7,1.2
				c0.1,1.1,0.4,2,0.6,2.6c0.2,0.5,0.6,1.4,0.9,2.1c0.1,0.2,0.2,0.4,0.2,0.6c-0.3-0.2-0.5-0.3-0.8-0.5c-0.7-0.9-1.3-1.6-1.6-2.1
				c-0.7-1.1-1-1.7-1.9-3.1c-0.5-0.8-1-1.4-1.2-1.8c-0.3,0.9-0.3,1.6-0.3,2.1c0,0.4,0,1.1,0.1,2.6c0,0.1,0,0.2,0,0.2
				c-0.6,0.1-1.4,0.2-2.4,0.3c-1.9,0.3-3.2,0.7-4.8,1.1c-2.2,0.6-3.4,0.9-4,1.1c-1,0.4-2,0.6-3,1c-0.3,0.1-0.6,0.3-0.9,0.2
				c-0.5-0.2-0.6-1.5,0.1-2.1C203.4,423.6,204.1,423.7,204.3,423.7z"/>
			
				<linearGradient id="ekg-middle-front-3_1_" gradientUnits="userSpaceOnUse" x1="263.524" y1="473.7457" x2="205.9729" y2="434.8186" gradientTransform="matrix(0.9991 -4.280000e-02 -4.280000e-02 -0.9991 19.7508 874.77)">
				<stop  offset="0" style="stop-color:#F2EA1A"/>
				<stop  offset="1" style="stop-color:#F1EA19"/>
			</linearGradient>
			<path id="ekg-middle-front-3" class="st3" d="M204.2,423.4c2-0.8,4.4-1.7,7.1-2.4c1.7-0.4,3.3-0.8,4.8-1c-0.1-2.5-0.2-5-0.2-7.5
				c0.8,0.8,1.7,1.7,2.6,2.7c0.7,0.8,1.4,1.6,2,2.4c1.4-0.6,3.7-1.6,6.5-2.9c3.7-1.7,4.5-2.2,7-3.2c3.9-1.5,6.6-2.1,7.3-2.2
				c2.1-0.4,3.9-0.6,5.3-0.7c-0.8-3.6-1.6-7.1-2.5-10.7c1.3,1.3,2.4,2.3,3.1,3.1c1.9,2.1,4,4.5,4,4.5c0.1-0.1,0.5-0.4,0.6-0.9
				c0.1-0.5,0-0.9,0-1c1.3-0.6,2.6-1.1,3.9-1.7c4.3-1.8,8.4-3.3,12.4-4.6c0,0.4,0,0.8,0,1.2c-2.4,1.2-4.3,2.1-5.7,2.8
				c-1.1,0.6-2.3,1.1-3.5,1.7c-1.6,0.8-2.6,1.2-4,2c-0.7,0.4-1.3,0.7-1.7,1c0.1,1.3,0.1,2.6,0.1,3.8c-0.2-0.2-0.6-0.5-1-0.9
				c-0.5-0.5-1.1-1.1-3.3-3.9c-0.5-0.6-0.9-1.2-1.7-2c-0.3-0.3-0.6-0.6-0.8-0.8c0.4,1.7,0.7,3,0.9,3.9c0.3,1.4,0.6,2.4,0.9,3.9
				c0.2,0.9,0.3,1.6,0.3,2c-0.1,0.1-0.1,0.2-0.3,0.2c-0.2,0-0.4-0.1-0.7-0.4c-0.8-0.7-0.8-1.1-1.3-1.4c-0.2-0.1-0.4-0.2-0.8-0.2
				c-0.7,0.2-1.8,0.5-3,1c-1.6,0.5-3,1.1-6.1,2.2c-5.4,2.1-4.7,1.9-7.4,2.9c-1.2,0.5-2.6,0.9-4.5,1.8c-1.1,0.5-2.1,0.9-2.7,1.2
				c0.1,1.1,0.4,2,0.6,2.6c0.2,0.5,0.6,1.4,0.9,2.1c0.1,0.2,0.2,0.4,0.2,0.6c-0.3-0.2-0.5-0.3-0.8-0.5c-0.7-0.9-1.3-1.6-1.6-2.1
				c-0.7-1.1-1-1.7-1.9-3.1c-0.5-0.8-1-1.4-1.2-1.8c-0.3,0.9-0.3,1.6-0.3,2.1c0,0.4,0,1.1,0.1,2.6c0,0.1,0,0.2,0,0.2
				c-0.6,0.1-1.4,0.2-2.4,0.3c-1.9,0.3-3.2,0.7-4.8,1.1c-2.2,0.6-3.4,0.9-4,1.1c-1,0.4-2,0.6-3,1c-0.3,0.1-0.6,0.3-0.9,0.2
				c-0.5-0.2-0.6-1.5,0.1-2.1C203.4,423.3,204,423.4,204.2,423.4z"/>
			
				<linearGradient id="ekg-middle-back-2_1_" gradientUnits="userSpaceOnUse" x1="257.629" y1="490.7" x2="196.0343" y2="449.0377" gradientTransform="matrix(1 0 0 -1 0 864)">
				<stop  offset="0" style="stop-color:#828635"/>
				<stop  offset="3.330000e-02" style="stop-color:#828635"/>
				<stop  offset="1" style="stop-color:#828635"/>
			</linearGradient>
			<path id="ekg-middle-back-2" class="st4" d="M192.6,407.8c0.5-0.2,1.2-0.6,2.1-1c1-0.5,2.8-1.3,4.2-1.8c1.7-0.7,3.8-1.6,6.5-2.3
				c1.3-0.4,3.2-0.8,5.4-1c0.1-1.2,0.1-2.3,0.2-3.5c0.1-1.3,0.1-2.6,0.2-3.9c0.4,0.6,0.8,1.1,1,1.4c0.8,1,1.2,1.5,2,2.6
				c0.3,0.5,0.6,0.9,0.8,1.1c0.5-0.2,1.1-0.5,2-0.9c2.7-1.2,3.7-1.8,5.3-2.5c2.2-1,4-1.6,6.5-2.5c1.8-0.6,3.5-1.2,5.4-1.7
				c0.9-0.2,1.8-0.4,2.7-0.5c0.8-0.1,1.5-0.1,2-0.1c0-0.6-0.1-1.2-0.1-1.8c-0.2-1.9-0.6-3.6-1-5c-0.3-1.3-0.6-2.5-0.9-3.8
				c0.5,0.5,1.2,1.3,2,2.3c0.7,0.9,0.7,1,1.7,2.3c0.3,0.4,1,1.3,2.1,2.5c0.3,0.3,0.5,0.6,0.7,0.8c0-0.3,0-0.8,0.3-1.4
				c0.3-0.7,0.8-1.1,1.1-1.2c1-0.3,2.5-0.9,4.4-1.6c2.9-1.1,4.1-1.7,6.4-2.6c1.5-0.6,3.8-1.4,6.5-2.2c-0.1,0.2-0.2,0.5-0.3,0.7
				c-2,1.1-3.6,2-4.6,2.6c-1.6,0.9-2.8,1.5-7.9,3.9c-1.4,0.7-3,1.5-4.4,2.1c0,1.2,0,2.4,0,3.6c-1.2-1.2-2-2.4-2.5-3.2
				c-0.6-0.9-1-1.9-2.1-3.1c-0.4-0.5-0.9-0.9-1.1-1.2c0.2,1.5,0.5,2.8,0.6,3.7c0.2,1.5,0.4,2.2,0.6,3.4s0.3,2.2,0.4,2.9
				c-0.2,0-0.3-0.1-0.5-0.1c-0.1-0.2-0.4-1-1.2-1.5c-0.5-0.3-1-0.4-1.3-0.4c-0.6,0.2-1.5,0.5-2.6,0.8c-3.1,1-4.1,1.6-8.5,3.3
				c-3.2,1.2-3.7,1.4-6.7,2.6c-1.5,0.6-2.7,1.1-3.4,1.4c0.4,1.8,0.8,3.5,1.1,5.3c-0.2-0.1-0.3-0.1-0.5-0.2c-0.6-1.4-1.2-2.5-1.6-3.2
				c-0.5-0.9-1.1-1.8-2.2-3.6c-0.1-0.3-0.3-0.5-0.4-0.6c-0.1,1-0.2,2-0.2,3.1c0,0.7,0,1.5,0,2.2c-0.7,0-1.7,0.1-3,0.2
				c-2.3,0.3-3.9,0.7-6.9,1.5c-3.2,0.9-4.7,1.3-6.2,1.9c-2.3,0.9-4,2-4.3,1.5C191.9,408.8,192.2,408.3,192.6,407.8z"/>
			
				<linearGradient id="ekg-middle-front-2_1_" gradientUnits="userSpaceOnUse" x1="257.309" y1="490.95" x2="195.7146" y2="449.2879" gradientTransform="matrix(1 0 0 -1 0 864)">
				<stop  offset="0" style="stop-color:#F2EA1A"/>
				<stop  offset="1" style="stop-color:#F1EA19"/>
			</linearGradient>
			<path id="ekg-middle-front-2" class="st5" d="M192.2,407.5c0.5-0.2,1.2-0.6,2.1-1c1-0.5,2.8-1.3,4.2-1.8c1.7-0.7,3.8-1.6,6.5-2.3
				c1.3-0.4,3.2-0.8,5.4-1c0.1-1.2,0.1-2.3,0.2-3.5c0.1-1.3,0.1-2.6,0.2-3.9c0.4,0.6,0.8,1.1,1,1.4c0.8,1,1.2,1.5,2,2.6
				c0.3,0.5,0.6,0.9,0.8,1.1c0.5-0.2,1.1-0.5,2-0.9c2.7-1.2,3.7-1.8,5.3-2.5c2.2-1,4-1.6,6.5-2.5c1.8-0.6,3.5-1.2,5.4-1.7
				c0.9-0.2,1.8-0.4,2.7-0.5c0.8-0.1,1.5-0.1,2-0.1c0-0.6-0.1-1.2-0.1-1.8c-0.2-1.9-0.6-3.6-1-5c-0.3-1.3-0.6-2.5-0.9-3.8
				c0.5,0.5,1.2,1.3,2,2.3c0.7,0.9,0.7,1,1.7,2.3c0.3,0.4,1,1.3,2.1,2.5c0.3,0.3,0.5,0.6,0.7,0.8c0-0.3,0-0.8,0.3-1.4
				c0.3-0.7,0.8-1.1,1.1-1.2c1-0.3,2.5-0.9,4.4-1.6c2.9-1.1,4.1-1.7,6.4-2.6c1.5-0.6,3.8-1.4,6.5-2.2c-0.1,0.2-0.2,0.5-0.3,0.7
				c-2,1.1-3.6,2-4.6,2.6c-1.6,0.9-2.8,1.5-7.9,3.9c-1.4,0.7-3,1.5-4.4,2.1c0,1.2,0,2.4,0,3.6c-1.2-1.2-2-2.4-2.5-3.2
				c-0.6-0.9-1-1.9-2.1-3.1c-0.4-0.5-0.9-0.9-1.1-1.2c0.2,1.5,0.5,2.8,0.6,3.7c0.2,1.5,0.4,2.2,0.6,3.4s0.3,2.2,0.4,2.9
				c-0.2,0-0.3-0.1-0.5-0.1c-0.1-0.2-0.4-1-1.2-1.5c-0.5-0.3-1-0.4-1.3-0.4c-0.6,0.2-1.5,0.5-2.6,0.8c-3.1,1-4.1,1.6-8.5,3.3
				c-3.2,1.2-3.7,1.4-6.7,2.6c-1.5,0.6-2.7,1.1-3.4,1.4c0.4,1.8,0.8,3.5,1.1,5.3c-0.2-0.1-0.3-0.1-0.5-0.2c-0.6-1.4-1.2-2.5-1.6-3.2
				c-0.5-0.9-1.1-1.8-2.2-3.6c-0.1-0.3-0.3-0.5-0.4-0.6c-0.1,1-0.2,2-0.2,3.1c0,0.7,0,1.5,0,2.2c-0.7,0-1.7,0.1-3,0.2
				c-2.3,0.3-3.9,0.7-6.9,1.5c-3.2,0.9-4.7,1.3-6.2,1.9c-2.3,0.9-4,2-4.3,1.5C191.5,408.6,191.9,408,192.2,407.5z"/>
			
				<linearGradient id="ekg-middle-back-1_1_" gradientUnits="userSpaceOnUse" x1="246.7018" y1="511.5401" x2="193.6972" y2="475.6882" gradientTransform="matrix(1 0 0 -1 0 864)">
				<stop  offset="0" style="stop-color:#838634"/>
				<stop  offset="3.330000e-02" style="stop-color:#838634"/>
				<stop  offset="1" style="stop-color:#838634"/>
			</linearGradient>
			<path id="ekg-middle-back-1" class="st6" d="M192.1,381.5c1.8-0.8,4-1.5,6.4-2.1c1.6-0.4,3-0.6,4.4-0.8c0-2.5,0-5,0.1-7.5
				c0.7,0.9,1.5,1.8,2.2,2.8c0.6,0.8,1.2,1.6,1.7,2.5c1.3-0.5,3.4-1.4,5.9-2.6c3.4-1.6,4.1-2,6.4-2.9c3.6-1.4,6.1-1.8,6.6-1.9
				c1.9-0.4,3.6-0.5,4.8-0.5c-0.6-3.6-1.2-7.2-1.8-10.8c1.1,1.3,2,2.4,2.6,3.2c1.7,2.2,3.4,4.6,3.4,4.6c0.1-0.1,0.4-0.4,0.6-0.9
				c0.1-0.5,0.1-0.9,0-1c1.2-0.5,2.4-1,3.6-1.5c3.9-1.6,7.7-3,11.4-4.1c0,0.4,0,0.8,0,1.2c-2.2,1.1-4,2-5.2,2.6
				c-1.1,0.5-2.1,1-3.2,1.5c-1.5,0.7-2.4,1.1-3.7,1.8c-0.7,0.4-1.2,0.7-1.6,0.9c0,1.3,0,2.6,0,3.9c-0.2-0.2-0.5-0.5-0.9-0.9
				c-0.4-0.5-0.9-1.1-2.8-4.1c-0.4-0.6-0.8-1.3-1.4-2.1c-0.3-0.4-0.5-0.6-0.7-0.8c0.2,1.7,0.5,3,0.6,3.9c0.3,1.4,0.5,2.4,0.7,3.9
				c0.1,0.9,0.2,1.6,0.2,2c-0.1,0.1-0.1,0.2-0.2,0.2c-0.2,0-0.4-0.1-0.6-0.4c-0.6-0.8-0.7-1.1-1.1-1.4c-0.1-0.1-0.4-0.2-0.8-0.3
				c-0.7,0.2-1.6,0.5-2.7,0.8c-1.4,0.5-2.8,0.9-5.5,2c-4.9,1.9-4.3,1.7-6.7,2.6c-1.1,0.4-2.4,0.8-4.1,1.6c-1.1,0.4-1.9,0.8-2.5,1.1
				c0.1,1.1,0.3,2,0.5,2.6c0.1,0.5,0.5,1.4,0.7,2.2c0.1,0.2,0.1,0.4,0.2,0.6c-0.2-0.2-0.5-0.4-0.7-0.5c-0.6-0.9-1.1-1.6-1.4-2.1
				c-0.6-1.1-0.9-1.7-1.6-3.1c-0.4-0.8-0.8-1.5-1-1.9c-0.3,0.9-0.4,1.6-0.4,2.1c0,0.4,0,1.1,0,2.6c0,0.1,0,0.2,0,0.2
				c-0.5,0-1.3,0.1-2.1,0.2c-1.7,0.2-2.9,0.5-4.4,0.9c-2,0.5-3.1,0.7-3.6,1c-0.9,0.4-1.9,0.5-2.7,0.9c-0.3,0.1-0.6,0.2-0.8,0.1
				c-0.4-0.3-0.5-1.5,0.2-2.1C191.4,381.4,192,381.5,192.1,381.5z"/>
			
				<linearGradient id="ekg-middle-front-1_1_" gradientUnits="userSpaceOnUse" x1="246.6518" y1="511.8501" x2="193.6472" y2="475.9982" gradientTransform="matrix(1 0 0 -1 0 864)">
				<stop  offset="0" style="stop-color:#EFE919"/>
				<stop  offset="1" style="stop-color:#EFE919"/>
			</linearGradient>
			<path id="ekg-middle-front-1" class="st7" d="M192.1,381.2c1.8-0.8,4-1.5,6.4-2.1c1.6-0.4,3-0.6,4.4-0.8c0-2.5,0-5,0.1-7.5
				c0.7,0.9,1.5,1.8,2.2,2.8c0.6,0.8,1.2,1.6,1.7,2.5c1.3-0.5,3.4-1.4,5.9-2.6c3.4-1.6,4.1-2,6.4-2.9c3.6-1.4,6.1-1.8,6.6-1.9
				c1.9-0.4,3.6-0.5,4.8-0.5c-0.6-3.6-1.2-7.2-1.8-10.8c1.1,1.3,2,2.4,2.6,3.2c1.7,2.2,3.4,4.6,3.4,4.6c0.1-0.1,0.4-0.4,0.6-0.9
				c0.1-0.5,0.1-0.9,0-1c1.2-0.5,2.4-1,3.6-1.5c3.9-1.6,7.7-3,11.4-4.1c0,0.4,0,0.8,0,1.2c-2.2,1.1-4,2-5.2,2.6
				c-1.1,0.5-2.1,1-3.2,1.5c-1.5,0.7-2.4,1.1-3.7,1.8c-0.7,0.4-1.2,0.7-1.6,0.9c0,1.3,0,2.6,0,3.9c-0.2-0.2-0.5-0.5-0.9-0.9
				c-0.4-0.5-0.9-1.1-2.8-4.1c-0.4-0.6-0.8-1.3-1.4-2.1c-0.3-0.4-0.5-0.6-0.7-0.8c0.2,1.7,0.5,3,0.6,3.9c0.3,1.4,0.5,2.4,0.7,3.9
				c0.1,0.9,0.2,1.6,0.2,2c-0.1,0.1-0.1,0.2-0.2,0.2c-0.2,0-0.4-0.1-0.6-0.4c-0.6-0.8-0.7-1.1-1.1-1.4c-0.1-0.1-0.4-0.2-0.8-0.3
				c-0.7,0.2-1.6,0.5-2.7,0.8c-1.4,0.5-2.8,0.9-5.5,2c-4.9,1.9-4.3,1.7-6.7,2.6c-1.1,0.4-2.4,0.8-4.1,1.6c-1.1,0.4-1.9,0.8-2.5,1.1
				c0.1,1.1,0.3,2,0.5,2.6c0.1,0.5,0.5,1.4,0.7,2.2c0.1,0.2,0.1,0.4,0.2,0.6c-0.2-0.2-0.5-0.4-0.7-0.5c-0.6-0.9-1.1-1.6-1.4-2.1
				c-0.6-1.1-0.9-1.7-1.6-3.1c-0.4-0.8-0.8-1.5-1-1.9c-0.3,0.9-0.4,1.6-0.4,2.1c0,0.4,0,1.1,0,2.6c0,0.1,0,0.2,0,0.2
				c-0.5,0-1.3,0.1-2.1,0.2c-1.7,0.2-2.9,0.5-4.4,0.9c-2,0.5-3.1,0.7-3.6,1c-0.9,0.4-1.9,0.5-2.7,0.9c-0.3,0.1-0.6,0.2-0.8,0.1
				c-0.4-0.3-0.5-1.5,0.2-2.1C191.4,381.1,191.9,381.2,192.1,381.2z"/>
		</g>
		<g id="ekg-bottom">
			
				<linearGradient id="ekg-bottom-back_1_" gradientUnits="userSpaceOnUse" x1="39.3664" y1="302.1868" x2="131.5607" y2="302.1868" gradientTransform="matrix(-0.6355 0.4298 -0.5603 -0.8283 478.4959 727.5356)">
				<stop  offset="0" style="stop-color:#8B8D35"/>
				<stop  offset="3.330000e-02" style="stop-color:#8B8D35"/>
				<stop  offset="1" style="stop-color:#8B8D35"/>
			</linearGradient>
			<path id="ekg-bottom-back" class="st8" d="M292.6,506.7c-2.8,0.5-5,1-6.6,1.4c-0.6,0.2-3.7,0.9-7.4,1.6c-3.4,0.6-4.5,0.7-5.8,0
				c-1.8-1-2.9-3-3.4-4.1c-0.3,1.2-0.4,2.3-0.5,3.3c-0.1,1.2-0.1,1.7-0.3,2.4c-0.2,0.8-0.8,1.6-2,2.3c-3.5,0.9-8,2-11.5,3
				c-2.7,0.7-7,1.8-9.7,2.5c-0.2,0.2-0.6,0.4-1,0.3c-0.6-0.1-1.2-0.8-1.5-1.1c-1-1.2-4.4-5.9-9-12.4c0.3,2.2,0.7,4.5,1,6.7
				c0.6,3.8,1.1,7.6,1.7,11.4c0,0,0,0.2,0,0.3c-0.1,0.1-0.2,0.2-0.4,0.2c-1-1.4-1.8-2.5-2.4-3.4c-0.7-0.9-1.2-1.5-1.4-1.5
				c-0.3,0.1-0.2,0.9-0.2,1.6c0,0.8,0.2,1.2,0,1.7c-0.1,0.2-0.2,0.3-0.4,0.4c-1.1,0.8-3.5,1.2-5.1,1.5c-0.4,0.1,0,0-1.7,0.5
				c-3.2,0.8-4.2,1-4.2,1.6c0,0.3,0.2,0.8,1.2,1.6c1.9-0.7,3.5-1.1,4.6-1.4c1.7-0.4,3.4-0.6,5.9-1.4c0.4-0.1,0.7-0.2,0.9-0.3
				c-0.1-0.3-0.9-1.8-0.3-2.6c0.1-0.1,0.1-0.1,0.2-0.2c0.8,0.7,1.4,1.3,1.7,1.8c0.6,0.8,1,1.4,1.8,2.2c0.3,0.3,0.6,0.5,0.8,0.7
				c0.1-0.1,0.2-0.3,0.3-0.4c-0.1-2.7-0.2-4.5-0.3-5.8c-0.3-5.5-0.3-5.7-0.4-5.9c0-0.1-0.2-0.4-0.1-0.7c0.1-0.2,0.3-0.3,0.4-0.3
				c0.8,0.9,1.5,1.7,2,2.3c2.1,2.4,3.2,3.6,3.6,4.3c0.9,1.3,1.1,1.9,1.8,2.2c0.9,0.5,1.8,0,2.1-0.2c0.5-0.3,3.4-1.3,9.1-3.2
				c2.2-0.7,4.7-1.6,7.4-1.9c0.6-0.1,2.6-0.2,4.7-1.4c0.3-0.2,0.6-0.4,0.8-0.5c0.2-0.7,0.4-1.5,0.6-2.3c0.2-1.1,0.4-2.1,0.6-3
				c0.3,0.1,0.6,0.3,1.1,0.6c0.8,0.4,1.7,0.8,2.2,1c1.2,0.5,2.2,0.6,3.5,0.7c0.8,0.1,2.1,0.1,3.9-0.1c2.1-0.2,2-0.4,5-0.9
				c2.7-0.4,4-0.6,4.5-0.7c1.7-0.1,2.5,0,2.9-0.7C294,509.1,293.1,507.5,292.6,506.7z"/>
			
				<linearGradient id="ekg-bottom-front_1_" gradientUnits="userSpaceOnUse" x1="38.7447" y1="302.9991" x2="130.939" y2="302.9991" gradientTransform="matrix(-0.6355 0.4298 -0.5603 -0.8283 478.4959 727.5356)">
				<stop  offset="0" style="stop-color:#F2EA1A"/>
				<stop  offset="1" style="stop-color:#F1EA19"/>
			</linearGradient>
			<path id="ekg-bottom-front" class="st9" d="M292.6,505.8c-2.8,0.5-5,1-6.6,1.4c-0.6,0.2-3.7,0.9-7.4,1.6c-3.4,0.6-4.5,0.7-5.8,0
				c-1.8-1-2.9-3-3.4-4.1c-0.3,1.2-0.4,2.3-0.5,3.3c-0.1,1.2-0.1,1.7-0.3,2.4c-0.2,0.8-0.8,1.6-2,2.3c-3.5,0.9-8,2-11.5,3
				c-2.7,0.7-7,1.8-9.7,2.5c-0.2,0.2-0.6,0.4-1,0.3c-0.6-0.1-1.2-0.8-1.5-1.1c-1-1.2-4.4-5.9-9-12.4c0.3,2.2,0.7,4.5,1,6.7
				c0.6,3.8,1.1,7.6,1.7,11.4c0,0,0,0.2,0,0.3c-0.1,0.1-0.2,0.2-0.4,0.2c-1-1.4-1.8-2.5-2.4-3.4c-0.7-0.9-1.2-1.5-1.4-1.5
				c-0.3,0.1-0.2,0.9-0.2,1.6c0,0.8,0.2,1.2,0,1.7c-0.1,0.2-0.2,0.3-0.4,0.4c-1.1,0.8-3.5,1.2-5.1,1.5c-0.4,0.1,0,0-1.7,0.5
				c-3.2,0.8-4.2,1-4.2,1.6c0,0.3,0.2,0.8,1.2,1.6c1.9-0.7,3.5-1.1,4.6-1.4c1.7-0.4,3.4-0.6,5.9-1.4c0.4-0.1,0.7-0.2,0.9-0.3
				c-0.1-0.3-0.9-1.8-0.3-2.6c0.1-0.1,0.1-0.1,0.2-0.2c0.8,0.7,1.4,1.3,1.7,1.8c0.6,0.8,1,1.4,1.8,2.2c0.3,0.3,0.6,0.5,0.8,0.7
				c0.1-0.1,0.2-0.3,0.3-0.4c-0.1-2.7-0.2-4.5-0.3-5.8c-0.3-5.5-0.3-5.7-0.4-5.9c0-0.1-0.2-0.4-0.1-0.7c0.1-0.2,0.3-0.3,0.4-0.3
				c0.8,0.9,1.5,1.7,2,2.3c2.1,2.4,3.2,3.6,3.6,4.3c0.9,1.3,1.1,1.9,1.8,2.2c0.9,0.5,1.8,0,2.1-0.2c0.5-0.3,3.4-1.3,9.1-3.2
				c2.2-0.7,4.7-1.6,7.4-1.9c0.6-0.1,2.6-0.2,4.7-1.4c0.3-0.2,0.6-0.4,0.8-0.5c0.2-0.7,0.4-1.5,0.6-2.3c0.2-1.1,0.4-2.1,0.6-3
				c0.3,0.1,0.6,0.3,1.1,0.6c0.8,0.4,1.7,0.8,2.2,1c1.2,0.5,2.2,0.6,3.5,0.7c0.8,0.1,2.1,0.1,3.9-0.1c2.1-0.2,2-0.4,5-0.9
				c2.7-0.4,4-0.6,4.5-0.7c1.7-0.1,2.5,0,2.9-0.7C293.9,508.2,293.1,506.6,292.6,505.8z"/>
		</g>
		<g id="dna-red">
			
				<linearGradient id="dna-red-top_1_" gradientUnits="userSpaceOnUse" x1="132.6208" y1="606.7872" x2="242.9535" y2="606.7872" gradientTransform="matrix(1 0 0 -1 0 864)">
				<stop  offset="0" style="stop-color:#EE3424"/>
				<stop  offset="0.2911" style="stop-color:#EE3025"/>
				<stop  offset="0.6685" style="stop-color:#B72226"/>
				<stop  offset="0.8876" style="stop-color:#8A181B"/>
				<stop  offset="1" style="stop-color:#831619"/>
			</linearGradient>
			<path id="dna-red-top" class="st10" d="M137.3,220.4c-1.9-0.1-3.1-1.4-3.2-1.5c-0.8-0.9-1-1.8-1.2-2.5c-0.5-2-0.1-3.9,0.2-4.8
				c1.1-3.4,4.8-5.1,6.4-5.9c12.5-5.9,23.4-8.3,23.4-8.3c1.9-0.4,3.7-0.8,5.2-1.1c6.3-1.2,10-2.2,13.3-2.6c8.9-1,15.9-1.7,24.1,0.6
				c8.5,2.4,14,6.9,16.8,9.2c6.3,5.2,10.7,11.2,13.6,16.8c1.6,3.1,2.9,6.2,3.8,8.9c1.3,4.2,1.9,7.6,2.2,9.4
				c0.4,2.1,1.5,8.6,0.8,17.1c-0.8,9.7-3.5,16.6-6.3,23.6c-4.7,11.7-10.1,19.7-13.6,24.8c-6.5,9.5-13.9,18-14.3,17.7
				c-0.2-0.1,1.4-2.4,3.8-6.3c8.4-13.5,12.5-24.9,13.6-27.9c1.4-4,2.7-7.6,3.7-12.8c1.1-5.5,2.6-13.4,1-23.2
				c-0.6-3.9-2.1-12.7-8.5-21.8c-1.3-1.9-7.1-9.8-17.7-15.6c-3.5-1.9-9.4-4.9-17.5-5.5c-2.9-0.2-5.4,0.1-10.3,0.7
				c-5.6,0.7-13.1,1.6-21.9,4.6c-8.8,3.1-11.9,4.6-13.7,5.4C140.6,219.6,139.1,220.4,137.3,220.4z"/>
			
				<linearGradient id="dna-red-bottom_1_" gradientUnits="userSpaceOnUse" x1="191.5615" y1="396.6568" x2="308.0689" y2="396.6568" gradientTransform="matrix(1 0 0 -1 0 864)">
				<stop  offset="0" style="stop-color:#66140F"/>
				<stop  offset="5.370000e-02" style="stop-color:#731714"/>
				<stop  offset="0.1296" style="stop-color:#801819"/>
				<stop  offset="0.2078" style="stop-color:#89191B"/>
				<stop  offset="0.2911" style="stop-color:#8B191C"/>
				<stop  offset="0.6685" style="stop-color:#E82927"/>
				<stop  offset="0.8826" style="stop-color:#EE3424"/>
				<stop  offset="1" style="stop-color:#EE3424"/>
			</linearGradient>
			<path id="dna-red-bottom" class="st11" d="M290.3,528.7c0.1,3.2,3.8,5.4,4.3,5.7c1,0.6,2.5,1.4,4.5,1.3c4.1-0.2,6.3-3.9,6.5-4.2
				c0.6-1.1,0.8-2,1.2-4.8c0.6-4.5,0.9-6.8,1-8.8c0.1-3.7,0.5-10.7-1.3-18.6c-2.8-12.5-9.4-21-12.3-24.7
				c-0.4-0.5-9.2-11.4-23.1-18.6c-5.4-2.8-11.8-5.2-12.2-5.4c-4.2-1.5-4.1-1.2-11.2-3.6c-7.3-2.5-7.8-2.9-15.4-5.4
				c-4.8-1.6-5.2-1.6-7.7-2.6c-2.9-1.1-6.4-2.5-10.4-5.1c-4.8-3-8.1-6.2-9.6-7.8c-3.8-4-6.2-7.7-7.3-9.7c-1.6-2.9-4.4-7.8-5.4-14.4
				c-0.2-1.4-0.3-2.9-0.4-2.9c-0.1,0-0.2,4.1,0.8,8.5c0.7,3.2,1.8,5.6,2.6,7.3c5.8,12,11.7,20.5,11.7,20.5c4.8,6.8,9,11.7,11.7,14.8
				c2.7,3,5,5.5,6.8,7.4c1.8,0.5,4.5,1.4,7.8,2.3c10.1,2.8,13.3,3.1,19,5.2c1.9,0.7,6.6,2.5,11.9,5.6c4.3,2.6,12,7.2,18.4,16.3
				c4.9,7,6.8,13.3,7.4,15.3c1.8,6.4,1.8,11.7,1.8,14.4c0,5.1,0,7.7-0.9,10.1C290.6,527.1,290.3,527.7,290.3,528.7z"/>
			
				<linearGradient id="dna-red-middle_1_" gradientUnits="userSpaceOnUse" x1="141.7134" y1="535.895" x2="142.2134" y2="535.895" gradientTransform="matrix(1 0 0 -1 0 864)">
				<stop  offset="0" style="stop-color:#DA2428"/>
				<stop  offset="9.681595e-03" style="stop-color:#DA2428"/>
				<stop  offset="0.2911" style="stop-color:#DA2428"/>
				<stop  offset="0.5355" style="stop-color:#E73F3F"/>
				<stop  offset="0.7802" style="stop-color:#DA2428"/>
				<stop  offset="1" style="stop-color:#DA2428"/>
			</linearGradient>
			<path id="dna-red-middle" class="st12" d="M225.7,457.7c-3.3-1.2-7.5-2.9-12.1-5.3c-2.6-1.3-7.4-3.9-12.9-8
				c-3.9-3-9.6-7.3-15-14.6c-2.2-2.9-6.6-9.1-9.3-18.3c-3-10.3-2.2-18.8-1.7-23.5c0.7-6.4,2.1-11.3,3.2-14.8c0.4-1.4,2.5-8,6.8-16.5
				c3-5.9,5.6-9.7,10.7-17.3c3-4.4,7.3-10.5,12.9-17.7c5.1-6.5,4.9-5.8,8.5-10.5c7.4-9.7,11.9-17.8,13.6-20.8
				c3.2-5.9,6.1-11.2,8.5-19c1.1-3.6,2.8-8.9,3.4-16.1c0.5-5.9,0-10.6-0.3-13.4c-0.4-3.9-0.8-7.6-2.2-12.3
				c-2.5-8.3-6.6-13.9-8.5-16.5c-1.1-1.4-2.6-3.4-4.8-5.7c-4-4.2-8.2-7-11.2-8.9c0.8,0.3,2.1,0.7,3.4,1.3c1.3,0.6,3.4,1.6,5.6,3.1
				c2.3,1.5,3.8,2.9,6.8,5.6c1.4,1.3,2.5,2.3,3.9,3.9c0.8,0.9,2.7,3,4.8,6.1c3.4,4.9,5.1,9.2,5.7,10.7c1.7,4.3,2.4,7.8,2.8,9.9
				c0.9,4.4,1,7.8,1.2,11.1c0.1,3,0.3,6.9-0.2,11.7c-0.4,4.4-1.2,7.4-2.6,13.4c-1.4,5.5-2.3,9.4-4.3,14.5c-0.6,1.5-1.7,4.1-4,9.1
				c-2.1,4.6-3.1,7-4.2,9.1c-2.3,4.6-4.3,8-6,10.9c-1.7,3-3.1,5-5.6,9c-6.2,9.8-10.5,16-11.4,17.2c-1.9,2.7-3,4.2-4.5,6.3
				c-0.6,0.8-1.2,1.6-2.2,3c-1.4,1.9-2.1,3-2.8,4.1c-0.9,1.4-1.5,2.8-2.8,5.8c-0.9,2-2,4.4-3.2,7.7c-0.6,1.5-1.1,3-1.7,5
				c-0.9,3-1.4,5.4-1.5,6.1c-0.1,0.8-0.8,4.2-1,8.9c-0.1,1.8-0.2,4.1,0.1,7.2c0.4,5.7,1.7,10.1,2.3,12c0.9,2.9,1.9,5,2.8,6.9
				c1.4,3,2.6,5,4.6,8.5c1.8,3,3.1,5.2,5.1,8.1c1.2,1.7,2.3,3,3.2,4.3c1.6,2,2,2.4,5.4,6.4c3.8,4.5,4.3,5.2,6,7
				c1.6,1.6,3.1,2.9,3.9,3.8C225.3,456.6,225.4,457.2,225.7,457.7z"/>
		</g>
		<g id="dna-blue">
			
				<linearGradient id="blue-dna-top_1_" gradientUnits="userSpaceOnUse" x1="146.9199" y1="541.1562" x2="264.6945" y2="541.1562" gradientTransform="matrix(1 0 0 -1 0 864)">
				<stop  offset="0" style="stop-color:#516DB4"/>
				<stop  offset="5.670000e-02" style="stop-color:#4C68B1"/>
				<stop  offset="0.1701" style="stop-color:#4562AD"/>
				<stop  offset="0.2911" style="stop-color:#4360AC"/>
				<stop  offset="0.6685" style="stop-color:#2E4D9F"/>
				<stop  offset="0.8876" style="stop-color:#243F92"/>
				<stop  offset="1" style="stop-color:#293986"/>
			</linearGradient>
			<path id="blue-dna-top" class="st13" d="M165.1,257.4c-0.6-2.8-1.6-3.9-5-4.9c-0.3-0.1-1.7-0.5-3.4-0.3c-2.3,0.3-3.7,1.5-4.5,2.2
				c0,0-1.6,1.4-2.7,3.4c-4.8,9.1-1.4,26.6-1.4,26.6c0.8,4.2,1.7,9,4.3,15c1.5,3.4,4.9,10.5,11.5,17.7c5.8,6.3,11.4,9.8,15.7,12.4
				c7.5,4.6,13.6,6.7,25.4,10.8c16.6,5.8,17.3,4.6,26.3,8.8c13.5,6.3,19,12.3,20.8,14.3c5.5,6.2,7.8,12,8.2,13.2
				c2.7,7,2.8,13.3,2.6,17c0.9-3.2,1.9-7.9,1.9-13.7c0-1.7-0.2-6.6-2-12.9c-2.3-7.7-5.8-12.9-9-17.3c-5.1-7.2-8.3-12.3-14.8-15.8
				c-1.6-0.9-3.3-1.5-6.7-2.7c-8.5-3.1-14.7-4.3-18.4-5.2c-2.7-0.6-13.3-3.3-23-9.1c-4.8-2.9-14.7-8.8-21-20.8
				c-5.9-11.3-5.9-22.4-5.6-28.3C164.3,264.4,164.9,262,165.1,257.4z"/>
			
				<linearGradient id="blue-dna-middle_1_" gradientUnits="userSpaceOnUse" x1="242.6398" y1="271.9475" x2="242.6398" y2="529.8" gradientTransform="matrix(1 0 0 -1 0 864)">
				<stop  offset="0" style="stop-color:#658FCA"/>
				<stop  offset="2.150000e-02" style="stop-color:#618BC7"/>
				<stop  offset="0.1093" style="stop-color:#517EBF"/>
				<stop  offset="0.1997" style="stop-color:#4876BB"/>
				<stop  offset="0.2961" style="stop-color:#4474B9"/>
				<stop  offset="0.6685" style="stop-color:#4173B9"/>
				<stop  offset="0.8876" style="stop-color:#507DBF"/>
				<stop  offset="1" style="stop-color:#638EC9"/>
			</linearGradient>
			<path id="blue-dna-middle" class="st14" d="M239.3,334.2c1.5,1.7,2.8,3,3.6,3.9c1.6,1.6,1.9,1.9,3.1,3.2c1.2,1.3,2.1,2.4,3.1,3.6
				c1,1.2,2,2.4,2.5,3.1c3.4,4.3,6.1,9.4,6.1,9.4c1.5,2.7,3.5,6.5,4.9,11.9c0.6,2.2,1.6,6.1,1.7,11.4c0,1.1,0,5.2-1.1,10.5
				c-0.2,1-0.4,1.8-0.6,2.4c0,0.8,0,2-0.1,3.3c-0.1,1.9-0.2,4.5-0.8,7.9c-0.5,3.2-1.2,5.7-1.5,6.7c-0.7,2.4-1.3,4.2-1.9,5.8
				c-0.3,0.8-1,2.7-2.1,5.2c-1.1,2.5-2.1,4.8-3.8,7.6c-1.8,3.2-3.5,5.4-4,6c-1,1.4-2.1,2.7-3.8,4.6c-1.1,1.3-1.9,2.3-2.1,2.5
				c-3.7,4.3-6.5,9.8-11.3,17c-1.6,2.4-2.4,3.1-3.8,5.4c-0.5,0.8-0.9,1.5-3.8,6.8c-1.6,3-2.4,4.5-3.3,6.1c-1.7,3.2-2.5,4.8-3.5,6.8
				c-1.2,2.5-2.1,4.5-2.8,6.3c-1.1,2.5-2.1,5-3.3,8.3c-1.8,5.2-2.9,9.3-3.4,11.3c-0.2,0.7-0.6,2.5-1.1,4.8
				c-0.5,2.5-1.2,6.3-1.6,10.8c-0.1,1.5-0.5,6.6,0,13.3c0.4,5.5,1.1,9.3,2.3,13.7c0.5,1.8,0.8,2.5,2.2,6.3c1.3,3.4,1.5,3.4,1.8,4.1
				c1.3,3.1,2.8,5.2,4.4,7.7c1.6,2.3,3.1,4.5,5.6,7.1c0.6,0.6,3,3,6.7,5.6c1.8,1.2,4.1,2.9,7.6,4.3c1.5,0.7,4.7,1.9,8.9,2.6
				c3,0.5,5.9,0.4,11.4,0.3c2.5-0.1,5.8-0.2,9.6-0.4c-0.8-0.3-2.1-0.8-3.6-1.4c-5.5-2-7.8-2.2-10.8-3.5c-1.6-0.7-5-2.3-9-5.1
				c-1.2-0.8-5.4-3.9-10-9.2c-2.1-2.5-5.3-6.2-7.9-11.9c-2-4.4-2.8-7.8-4.1-13.8c-0.8-3.7-1.6-7.6-1.8-13c-0.2-4.6,0.2-8.2,0.4-10.2
				c0.1-1.2,0.8-6.8,2.9-14.2c0.8-2.8,1.5-5.2,2.9-8.4c0.2-0.5,0.9-1.9,3.4-6.6c2.5-4.5,3.7-6.8,4.6-8.1c2.8-4.4,4.1-5,7.6-9.9
				c1.7-2.4,2.1-3.5,4.6-7.1c1.4-2.1,2.6-3.6,3.5-4.8c8-10.7,9.8-12.8,13-17.5c1-1.4,2.6-3.9,4.5-7.1c5.5-9.3,8.5-16.6,9.4-19.1
				c1.1-2.8,2.1-5.5,3.1-9.3c1-4.1,1.5-7.5,1.8-10.1c0.2-1.9,0.5-4.2,0.7-7.3c0.1-3,0.3-6.1-0.3-10.1c-0.5-3.8-1.5-6.5-2.6-9.8
				c-0.9-2.6-2-5.7-4.1-9.5c-2.6-4.8-5.3-8-7-9.9c-3.1-3.6-5.8-5.9-8.1-7.9c-1.1-1-4.4-3.8-9.1-6.9
				C246.5,338.2,243.1,336.2,239.3,334.2z"/>
			
				<linearGradient id="blue-dna-bottom_1_" gradientUnits="userSpaceOnUse" x1="326.9415" y1="329.755" x2="216.7831" y2="329.755" gradientTransform="matrix(1 0 0 -1 0 864)">
				<stop  offset="2.790000e-02" style="stop-color:#5CC9DF"/>
				<stop  offset="5.700000e-02" style="stop-color:#57C8E2"/>
				<stop  offset="0.1727" style="stop-color:#44C6E9"/>
				<stop  offset="0.2961" style="stop-color:#3CC5EC"/>
				<stop  offset="0.6685" style="stop-color:#3097D3"/>
				<stop  offset="0.8876" style="stop-color:#3567B1"/>
				<stop  offset="1" style="stop-color:#3662AE"/>
			</linearGradient>
			<path id="blue-dna-bottom" class="st15" d="M239.4,476.9c-3.5,3.5-6.1,6.8-7.9,9.3c-0.5,0.7-2.2,3.2-4.2,6.7
				c-2,3.6-3.2,6.5-4.4,9.4c-1.8,4.3-2.8,6.6-3.7,10c-0.9,3.3-1.2,5.8-1.7,9.9c-0.5,3.8-0.8,6.3-0.8,9.9c0,2.2,0.2,4.1,0.7,7.9
				c0.5,4.1,0.7,6.2,1.3,8.8c1.1,5,2.6,8.7,3,9.7c2.2,5.2,4.7,8.8,6.4,11c1.7,2.4,4,5.4,7.6,8.7c1,0.9,4.7,4.1,10.3,7
				c4.6,2.3,8.4,3.5,12.5,4.7c2.9,0.8,5.3,1.4,7,1.7c0.3,0,0.8,0,1.5-0.1c7.8-0.6,13.1-2.3,21-4.3c8.5-2.2,16.9-5,25.2-7.7
				c0.7-0.2,3.4-0.9,6.7-3c3.5-2.2,4.9-4.2,5.2-4.7c0.8-1.2,2-3,1.9-5.6c0-1.8-0.6-3.1-1.1-3.9c-0.4-0.7-1.3-2.4-3.2-3.2
				c-1.3-0.6-2.6-0.5-5,0.1c-4.4,1-7.6,2.3-8.1,2.5c0,0-1,0.4-8.5,3.4c-5.1,2-9.1,3.3-12.4,4.3c-4.5,1.4-7.7,2.5-12.3,3.5
				c-3.4,0.8-6,1.3-9.7,1.7c-6.5,0.5-11.6-0.2-13.3-0.5c-4.2-0.7-8.1-1.3-12.5-3.9c-3.6-2-5.8-4.4-8.5-7.3c-2.4-2.5-4.7-5-6.8-8.9
				c-1.9-3.7-2.6-6.7-3.3-9.9c-0.3-1.3-1.3-6.2-1.4-13c0-1.5,0-8.2,1.9-16.7c1.4-6.5,3.4-11.2,5.6-16.8c1.1-2.9,2.1-5.2,3.7-8.3
				c2.6-5,3.8-7.3,4.5-8.4C237.8,479.1,238.7,477.8,239.4,476.9z"/>
		</g>
	</g>
	<path id="jesse-word" class="st16" d="M343.9,308.6c-0.4,0.1-0.7,0.3-1,0.3c-4,0.5-4.7,1.2-4.7,5.3c0,14.3,0,28.6,0,43
		c-0.1,12-7,19.4-17,24.6c-0.5,0.2-1.1,0.2-1.7,0.3c-0.1-0.2-0.2-0.4-0.2-0.6c0.2-0.3,0.4-0.6,0.7-0.8c6.5-3.9,8.8-10.1,8.9-17.1
		c0.2-16.9,0.1-33.8,0.1-50.7c0-2.6-1.3-3.7-4.2-4c-0.8-0.1-1.6-0.1-2.8-0.2C323.6,307.2,342.8,307.3,343.9,308.6z M381.9,353.2
		c-0.9,3.8-2.2,5-6.2,5.2c-2.2,0.2-4.5,0.1-6.8,0c-3.8-0.2-5.3-1.9-5.4-5.8c0-4.6,0-9.2,0-13.8c0-1.2,0-2.4,0-3.4
		c3.7,0,7.1-0.2,10.4,0c3.6,0.2,4.3,1.2,4.5,4.8c0,0.4,0.2,0.7,0.3,1.1c0.2,0,0.5,0,0.7,0c0.4-4.1,0.7-8.2,1.1-12.6
		c-5.6,4-11.5,1.6-17,2.4c0-6.8,0-13.2,0-20c4.2,0.2,8.2,0.3,12.1,0.7c2.3,0.2,3.4,1.8,3.6,4c0.1,0.7,0.2,1.3,0.3,2
		c0.3,0,0.6,0,0.8,0c0.4-3.8,0.7-7.6,1-11.1c-11.4,1-22.7,0.1-34,0.9c0.6,0.6,1.3,0.9,2,1c3.4,0.3,4.6,1.4,4.6,4.8
		c0,13.9,0.1,27.8-0.1,41.7c0,4.9-0.9,5.9-5,6.1c-0.2,0-0.3,0.2-0.5,0.4c0,0.2,0,0.3,0,0.5c0.9,0,1.8,0.1,2.7,0.2
		c5.6,0,11.3,0,16.9,0.1c3.7,0,7.5,0.2,11.2,0.2c0.9,0,2.5-0.7,2.6-1.3c0.6-3.1,0.8-6.3,1.1-9.5c0-0.2-0.3-0.4-0.8-1
		C382.2,351.9,382.1,352.6,381.9,353.2z M408.5,328.6c-2.2-1.8-4.7-3.2-6.7-5.2c-2.6-2.5-2.9-6.6-1.2-9.5c1.9-3.1,6.2-4.7,10.7-3.8
		c3.6,0.7,6.3,3.7,6.8,7.4c0.1,0.6,0.3,1.3,0.4,1.9c0.2,0,0.4,0,0.7,0c0.1-0.6,0.3-1.3,0.3-2c0.1-2.6,0.1-5.3,0.4-7.9
		c0.1-1.5-0.4-2.3-1.8-2.4c-4.2-0.2-8.5-1.1-12.6-0.5c-14.4,2.4-15.9,16.3-10.1,23.8c2.3,3,5.6,5.2,8.6,7.7c2.3,1.9,5,3.4,7,5.5
		c4.3,4.5,3.2,12.1-1.9,15c-6.4,3.7-14.9-0.4-16-7.7c-0.2-1.1-0.4-2.2-0.5-3.3c-0.2,0-0.4-0.1-0.5-0.1c-0.2,0.5-0.6,0.9-0.6,1.4
		c-0.2,3.4-0.5,6.9-0.4,10.3c0,0.9,1,2.2,1.8,2.5c2.5,0.9,5,1.7,7.6,2.1c4.9,0.7,9.7-0.2,13.8-3.2c8-5.9,9.5-17.4,3-25
		C414.8,333.1,411.5,331,408.5,328.6z M447.1,328.6c-2.2-1.8-4.7-3.2-6.7-5.2c-2.7-2.6-2.9-7-0.8-9.9c2.2-3.1,6.6-4.4,10.9-3.3
		c3.4,0.9,5.8,3.9,6.3,7.6c0.1,0.6,0.3,1.1,0.4,1.6c0.2,0,0.4,0,0.7,0c0.1-0.7,0.3-1.3,0.3-2c0.1-2.6,0.1-5.3,0.4-7.9
		c0.1-1.5-0.5-2.1-1.9-2.4c-4.2-0.8-8.5-1.3-12.8-0.5c-9.4,1.7-14.7,9.9-12.2,19.1c1.5,5.4,5.4,8.7,9.7,11.7
		c2.7,1.9,5.5,3.7,7.9,5.9c3.2,2.9,3.9,7.7,2.1,11.5c-1.5,3.3-5,5.4-8.9,5.2c-5.2-0.2-8.9-2.7-10.2-6.9c-0.5-1.7-0.7-3.5-1.2-5.9
		c-0.5,0.8-1,1.1-1,1.4c-0.2,3.7-0.4,7.4-0.4,11.2c0,0.6,0.6,1.6,1.2,1.8c5.8,2.5,11.6,3.3,17.8,1.2c12.1-4,14.5-19.4,6.8-27.6
		C453,332.7,449.9,330.8,447.1,328.6z M499.4,350.9c-0.3,1-0.4,1.7-0.6,2.3c-0.9,3.8-2.2,5-6.2,5.2c-2.2,0.2-4.5,0.1-6.8,0
		c-3.8-0.2-5.3-1.9-5.4-5.8c0-4.6,0-9.2,0-13.8c0-1.2,0-2.4,0-3.4c3.7,0,7.1-0.2,10.4,0c3.6,0.2,4.3,1.2,4.5,4.8
		c0,0.4,0.2,0.7,0.3,1.1c0.2,0,0.5,0,0.7,0c0.4-4.1,0.7-8.2,1.1-12.6c-5.6,4-11.5,1.6-17,2.4c0-6.8,0-13.2,0-20
		c4.2,0.2,8.2,0.3,12.1,0.7c2.3,0.2,3.4,1.8,3.6,4c0.1,0.7,0.2,1.3,0.3,2c0.3,0,0.6,0,0.8,0c0.4-3.8,0.7-7.6,1-11
		c-11.4,0.9-22.7,0.1-34,0.8c0.6,0.6,1.3,0.9,2,1c3.4,0.3,4.6,1.4,4.6,4.8c0,13.9,0.1,27.8-0.1,41.7c0,4.9-0.9,5.9-5,6.1
		c-0.2,0-0.3,0.2-0.5,0.4c0,0.2,0,0.3,0,0.5c0.9,0,1.8,0.1,2.7,0.2c5.6,0,11.3,0,16.9,0.1c3.7,0,7.5,0.2,11.2,0.2
		c0.9,0,2.5-0.7,2.6-1.3c0.6-3.1,0.8-6.3,1.1-9.5C500.2,351.7,499.9,351.5,499.4,350.9z"/>
	<path id="james-word" class="st16" d="M540.2,314c0,13.7-0.2,27.5,0.1,41.2c0.2,12.4-5.9,20.6-16.4,26.2c-0.7,0.4-1.6,0.6-2.4,0.8
		c-0.1-0.2-0.2-0.5-0.3-0.7c0.2-0.3,0.4-0.6,0.7-0.8c6.8-4.1,8.9-10.6,8.9-17.9c0.2-16.4,0.1-32.8,0.1-49.1c0-3.3-1.2-4.5-4.6-4.8
		c-0.6,0-1.2-0.1-1.7-0.2c-0.1,0-0.2-0.2-0.5-0.7c0.8-0.2,1.5-0.5,2.1-0.5c5.9,0,11.8,0,17.8,0c0.7,0,1.3,0.3,2,0.5
		c0,0.2,0,0.4-0.1,0.6c-0.4,0.1-0.8,0.3-1.2,0.3C541,309.5,540.2,310.2,540.2,314z M595.2,361.4c0,0.5,0,1,0,1.4
		c-4.6,0-9.2-0.1-13.9-0.2c-0.4,0-0.7-0.1-1.7-0.4c3-1.2,1.9-2.9,1.3-4.5c-1.4-3.8-2.8-7.7-4.1-11.5c-0.4-1.2-0.9-1.8-2.3-1.7
		c-4.6,0.1-9.2,0-13.8,0.1c-0.6,0-1.6,0.6-1.9,1.2c-1.3,3.3-2.6,6.6-3.7,10c-1.5,4.6-1,5.4,4.2,5.9c-0.6,0.6-0.9,1.2-1.3,1.2
		c-5.2,0.1-10.4,0.1-15.6,0c-0.4,0-0.8-0.4-1.5-0.8c0.8-0.3,1.1-0.6,1.5-0.6c3.8,0.1,5.6-2.2,6.8-5.4c2.6-6.8,5.2-13.6,7.8-20.4
		c3.4-8.9,6.8-17.8,10.2-26.7c0-0.1,0.1-0.3,0.2-0.4c0.7-0.9,1.4-1.9,2.1-2.8c0.7,0.9,1.5,1.7,1.9,2.7c2.4,6.2,4.7,12.4,7.1,18.5
		c3.5,9,6.9,18.1,10.5,27c0.8,1.9,2,3.7,3.2,5.5C593.2,360.6,594.1,361.2,595.2,361.4z M574.7,340.4c-2.3-6.6-4.5-13-6.9-20
		c-2.5,7-4.8,13.5-7.1,20H574.7z M656.2,356c-1.4-9.7-2.7-19.4-4-29.1c-0.9-6.3-1.7-12.6-2.7-18.9c-0.1-0.8-0.8-1.4-1.2-2.2
		c-0.6,0.5-1.3,1-1.8,1.6c-0.4,0.6-0.6,1.3-0.9,2c-5.7,13-11.5,26.1-17.4,39.5c-0.6-1.2-1-2.1-1.4-3.1
		c-5.6-12.6-11.2-25.3-16.9-37.9c-0.4-0.9-1.4-1.5-2.1-2.2c-0.4,0.7-1.1,1.4-1.2,2.2c-1.5,10.8-3,21.5-4.5,32.3
		c-0.8,5.9-1.6,11.7-2.7,17.5c-0.2,1.2-1.2,2.7-2.2,3.1c-0.3,0.2-0.7,0.2-1,0.3c0,0.5,0,1,0,1.4c4.3,0,8.7,0.1,13,0.1
		c0.5,0,1-0.4,1.5-0.6c-0.7-0.7-1.3-0.8-2-1c-3.4-0.6-3.6-0.8-3.5-4.2c0-0.7,0.1-1.3,0.2-2c0.7-6,1.4-12,2-18.1
		c0.4-3.3,0.8-6.6,1.2-10.5c0.6,1.3,1,2.1,1.3,2.9c4.5,10.1,9.1,20.2,13.7,30.2c0.5,1.2,1.4,2.3,2.1,3.4c0.3,0,0.6,0,0.8,0
		c6-12,10.9-24.6,16.8-37c0.2,0.6,0.3,0.9,0.4,1.1c1,8.5,2.2,17.1,3,25.7c0.3,3,1.8,6.1-0.4,9c3.2,1.3,16.4,1.4,17.8,0
		c-1-0.2-1.8-0.4-2.6-0.5C657.8,360.7,656.7,359.7,656.2,356z M699.2,354.4c-0.5,2-1.7,3.6-3.8,3.8c-3.5,0.2-7,0.3-10.4,0
		c-2.2-0.1-3.6-1.8-3.7-4c-0.1-6.3,0-12.5,0-19.1c4,0.2,7.8,0.3,11.5,0.6c2.2,0.2,3.1,1.7,3.3,3.7c0.1,0.7,0.1,1.4,0.2,2.1
		c0.3,0,0.6,0,0.9,0c0.4-4.1,0.7-8.2,1.1-12.5c-5.6,3.8-11.4,1.5-16.9,2.4c0-6.8,0-13.3,0-20c4,0.2,7.9,0.3,11.8,0.6
		c2.4,0.2,3.6,1.5,3.9,4c0.1,0.7,0.2,1.4,0.4,2.2c0.3,0,0.6,0,0.9,0c0.4-3.8,0.7-7.6,1-10.9c-11.4,0.8-22.6,0.1-33.7,0.3
		c-0.1,0.3-0.2,0.5-0.3,0.8c0.6,0.2,1.2,0.5,1.8,0.6c3.9,0.3,4.9,1.3,5,5.3c0.1,9.8,0.1,19.6,0.1,29.4c0,4.8-0.3,9.6-0.5,14.5
		c-0.1,2.1-1.4,2.9-3.2,3.2c-0.7,0.1-1.4,0.3-2.1,0.5c0,0.2,0,0.4,0.1,0.6c0.8,0,1.6,0.1,2.3,0.1c1.8,0,3.7-0.1,5.5-0.1
		c7.5,0.1,15.1,0.3,22.6,0.4c1,0,2.7-0.5,2.8-1c0.5-3.4,0.8-6.8,1.1-10.3c0,0-0.2-0.1-0.7-0.2C699.7,352.4,699.4,353.4,699.2,354.4z
		 M734.6,335.7c-2.6-2.9-6.2-5-9.3-7.5c-2.1-1.6-4.3-3-6.1-4.9c-2.4-2.4-2.6-6.6-0.9-9.3c1.9-3.1,6.3-4.6,10.7-3.7
		c3.5,0.8,6.2,3.7,6.7,7.5c0.1,0.6,0.2,1.2,0.3,1.8c0.3,0,0.5,0,0.8,0c0.1-0.6,0.3-1.2,0.3-1.8c0.1-2.7,0.1-5.4,0.4-8.1
		c0.1-1.6-0.6-2.2-1.9-2.3c-4.1-0.3-8.4-1.1-12.4-0.5c-14.5,2.3-16.1,16.4-10.1,24.1c2.1,2.7,5.1,4.8,7.8,7c2.5,2,5.4,3.6,7.6,5.9
		c4.4,4.4,3.3,12.1-1.7,15c-6.3,3.7-14.9-0.3-16.1-7.5c-0.2-1.1-0.4-2.3-0.7-4.1c-0.6,0.9-1,1.3-1,1.6c-0.2,3.7-0.4,7.4-0.4,11.2
		c0,0.7,0.8,1.7,1.4,1.9c5.7,2.4,11.5,3.1,17.6,1.1C739.5,359,742,343.9,734.6,335.7z"/>
	<path id="method-word" class="st17" d="M446,415.5c-0.1,0.2-0.2,0.4-0.4,0.6c-3.1,0-6.2,0-8.9,0c-0.7-6.5-1.4-12.7-2-18.9
		c-0.2,0-0.3-0.1-0.5-0.2c-2.9,6.5-5.9,12.9-8.8,19.4c-0.3,0-0.6,0.1-0.8,0.1c-2.9-6.3-5.9-12.7-9-19.5c-0.7,5.8-1.3,11-1.9,16.2
		c-0.1,1.2,0.4,1.9,1.6,2.1c0.5,0.1,0.9,0.2,1.3,0.7c-2.9,0-5.8,0-8.8,0c4.5-1.2,3-5.1,3.5-7.8c1.3-7,2.1-14.1,3.1-21.2
		c0.1-0.5,0.3-1,0.5-1.6c0.3,0,0.5-0.1,0.8-0.1c3.5,7.6,6.9,15.3,10.5,23.2c3.5-8,7-15.6,10.4-23.2c0.3,0,0.6,0,0.9,0
		c0.2,1.2,0.6,2.4,0.7,3.6c1,7.3,2.1,14.6,3,21.9C441.6,413.8,442.4,416,446,415.5z M476.3,411.3c-1,3.2-6.6,4.6-9,2.3
		c-0.4-0.4-0.8-1.1-0.8-1.7c-0.1-3.4,0-6.8,0-10.5c3.2,0.9,7.5-1.9,8.6,3.5c0.2-2.2,0.3-4.4,0.5-6c-3.1,0.2-6.1,0.4-9,0.6
		c0-3.8,0-7.1,0-10.8c3.2,0.9,7.6-1.9,9.1,3.5c0.2-2,0.4-4,0.5-5.6c-6.2,0-12.2,0-18.2,0c0,0.2,0,0.4,0,0.5c0.4,0.1,0.8,0.3,1.2,0.3
		c1.7,0,2.4,1,2.4,2.5c0,7.5,0,14.9,0,22.4c0,1.9-0.4,3.7-3.2,3.3c0,0.2,0.1,0.5,0.1,0.8c0.6,0.1,1.2,0.4,1.8,0.4
		c2.8,0,5.7-0.2,8.5-0.2c2.1,0,4.2,0.2,6.3,0.2c0.5,0,1.4-0.5,1.5-0.8c0.3-1.8,0.5-3.6,0.7-5.4C476.5,410.8,476.4,411.1,476.3,411.3
		z M490.2,391.9c1.3-1,2.2-2.3,3.4-2.5c2.2-0.5,4.6-0.4,7.1-0.5c0,7.4,0,14.5,0,21.7c0,2.3,0.6,5.1-3,5.7c4,0,7.9,0,11.9,0
		c-3.5-1.2-3.8-1.2-3.8-4.2c-0.1-7.6,0-15.2,0-23.2c3.5,0.9,7.8-1.5,9.8,3.5c0-2,0-4,0-5.8c-8.1,0-16.1,0-24.3,0
		C490.8,388.2,490.5,390,490.2,391.9z M556.5,412.2c0-7.4,0-14.8,0-22.2c0-1.5,0.4-2.6,2.2-2.6c0.3,0,0.5-0.3,0.8-0.4
		c0-0.1-0.1-0.2-0.1-0.3c-3.8,0-7.6,0-11.4,0c1.4,0.9,3.4,0.7,3.5,3.1c0,2.9,0.1,5.7,0,8.6c0,0.5-0.8,1.2-1.2,1.2
		c-4.3,0.1-8.6,0.1-13.1,0.1c0-2.5-0.1-4.7,0-7c0.1-2.3-1-5.4,2.9-5.9c-3.8,0-7.6,0-12,0c4,1.5,4.1,1.5,4.1,5.6
		c0,6.1,0,12.3-0.1,18.4c0,2.2,0.5,4.8-2.9,5.4c3.9,0,7.9,0,11.8,0c-0.4-0.5-0.8-0.7-1.2-0.7c-1.7,0.1-2.5-0.9-2.5-2.3
		c-0.1-3.7,0-7.4,0-11.2c4.8,0,9.4,0,14.2,0c0,2.9,0,5.8,0,8.6c0,2.3,0.5,5-3,5.5c4,0,7.9,0,11.9,0c0.1-0.2,0.2-0.5,0.4-0.7
		C557.9,416,556.5,415,556.5,412.2z M604.8,401c0,9.3-6.4,16-15.5,16c-9,0-15-6.2-15-15.5c0-9.1,6.2-15.3,15.5-15.3
		C599.1,386.1,604.8,391.8,604.8,401z M599.5,401.9c-0.3-3.5-1-6.8-3.1-9.7c-3.7-5.1-11.3-5.3-14.6-0.4c-3.6,5.4-2.4,15.8,2.3,20.2
		c5.2,4.8,12.5,3,14.4-3.7C599.1,406.3,599.2,404.1,599.5,401.9z M648.6,403.6c-1.4,8.7-7,13.3-15.8,13.2c-4.6,0-9.3-0.4-13.9-0.5
		c0-0.3,0.1-0.5,0.1-0.5c2.5,0,2.8-1.8,2.8-3.6c0-7.4,0-14.8,0-22.2c0-2.5-2-2.4-3.6-2.8c0-0.3,0.1-0.5,0.1-0.8
		c6.5,0.3,13.2,0,19.6,0.9C647.1,388.6,649.7,396.7,648.6,403.6z M643.4,401.6c-0.1-8.4-6.5-13.9-14.9-12.9
		c-1.3,0.2-1.8,0.6-1.7,1.9c0.1,3.3,0,6.7,0,10.1c0,0,0,0,0,0c0,3.4,0,6.9,0,10.3c0,1.6,0.5,3,2.2,3.3c3.7,0.9,7.3,0.7,10.4-1.7
		C643.2,409.9,643.5,405.8,643.4,401.6z"/>
	<path id="frequency-word" class="st18" d="M363.2,453.7c3.8,0,8,0,12.3,0c-0.1,1-0.1,2-0.2,3.3c-1.7-3.2-4.4-1.4-6.7-2
		c0,2.3,0,4.3,0,6.5c2,0,4.1,0,6.2,0c-0.1,1-0.1,2.1-0.2,3.5c-1.4-3.1-3.9-1.5-6.1-2c0,2.5-0.2,4.8,0.1,7.1c0.1,0.8,1.3,1.5,1.9,2
		c-2.1,0-4.6,0-6.7,0c0.3-0.7,1.1-1.5,1.1-2.3c0.1-4.6,0.2-9.2,0.1-13.8C364.9,455.2,363.8,454.4,363.2,453.7z M397.6,471.9
		c0,0.1,0,0.2,0,0.3c-0.5,0-1.1,0-1.6,0c-2.6,0.1-4.5-0.9-6-3c-0.6-0.9-1.5-1.7-2-2.6c-0.9-1.7-2.3-2.3-4.3-1.8c0,1.3,0,2.7,0,4.1
		c0,1.7,0.1,3.2,2.4,3.2h-6.9c0.4-1,1.2-2.1,1.2-3.3c0.2-4.1,0-8.2,0.1-12.3c0-1.6-0.6-2.5-2.3-2.5c3.4,0,6.8-0.3,10.2,0.1
		c3.9,0.4,5.2,3.9,2.8,7.1c-0.6,0.9-1.5,1.6-2.3,2.6c1.9,2.2,3.9,4.4,5.9,6.5c0.4,0.5,1,0.8,1.6,1.1c0.4,0.2,0.8,0.3,1.1,0.4
		C397.6,471.8,397.6,471.9,397.6,471.9z M388.7,462c1.1-1.8,1.1-3.6-0.1-5.4c-1.2-1.8-2.9-1.8-4.9-1.4v8
		C385.8,463.4,387.6,463.9,388.7,462z M403.9,470.4c-0.4-0.3-0.7-0.8-0.7-1.3c-0.1-2,0-4,0-6.4c2.2,0.8,4.8-1.1,6,2
		c0.2-1.2,0.3-2.4,0.5-3.4h-6.4v-6.5c2.2,0.7,5-1.2,6.4,2.4c0.1-1.5,0.2-2.6,0.2-3.6h-12c0.6,0.8,1.7,1.5,1.8,2.3
		c0.1,4.5,0.1,9.1,0,13.6c0,1.3-0.3,2-1,2.2c0,0,0,0.1,0,0.1c0,0.1,0,0.2,0,0.2c3,0,6,0,9,0c2.9,0,3.3-0.5,2.8-3.4
		C409.5,470.7,405.6,471.8,403.9,470.4z M450.3,475.5c-2.4,2.3-9.5,3-13.5,1.3c-2.1-0.8-4.1-1.9-6-3c-1.9-1.2-3.8-1.7-6.1-1.3
		c-5.2,0.9-9.9-2.3-11.1-7c-1.7-7,4-13,11.5-12c4,0.5,7.4,2.1,8.7,6.2c1.3,4.2,0.1,7.7-3.2,10.6c-0.2,0.1-0.3,0.3-0.5,0.6
		C436.5,473.9,442.5,477.7,450.3,475.5z M430.5,464.4c0-0.2,0-0.4,0-0.7c0.1,0,0.3-0.1,0.4-0.1c-0.6-1.9-1-3.9-1.9-5.7
		c-1.3-2.6-4.5-3.8-7.3-3.2c-2.5,0.5-4.2,2.7-4.5,5.8c-0.1,1.4-0.1,2.8,0,4.1c0.5,4.1,3.9,6.9,7.8,6.7
		C428.4,471.2,430.2,468.8,430.5,464.4z M451.8,456c0.2,3.5,0.1,7,0,10.5c0,2-0.9,3.6-2.9,4.4c-3.5,1.4-6.8-0.7-7-4.6
		c-0.2-3.2-0.2-6.4,0-9.6c0-1,0.7-2,1-2.8c-1.9,0-4.3,0-7.2,0c2.5,0.7,2.5,0.7,2.6,2.7c0,2.6,0,5.1,0,7.7c0,6.1,2.9,9.1,10,8.1
		c3.9-0.6,5.7-2.8,5.9-6.7c0.1-2.9-0.1-5.9,0.1-8.8c0.1-1.1,0.8-2.2,1.2-3.1c-1.5,0-3.6,0-5.2,0C450.8,454.5,451.8,455.2,451.8,456z
		 M464.1,470.4c-0.3-0.3-0.7-0.8-0.7-1.3c-0.1-2,0-4,0-6.5c2.1,1.2,4.8-1,6,2.2c0.2-1.3,0.3-2.4,0.5-3.4c-2.2,0-4.3,0-6.4,0
		c0-2.1,0-4.2,0-6.5c2.2,0.7,5-1.2,6.4,2.4c0.1-1.5,0.2-2.6,0.2-3.6c-4.1,0-8.2,0-12,0c0.6,0.8,1.8,1.5,1.8,2.3
		c0.1,4.7,0,9.3-0.1,14c0,0.7-0.7,1.5-1,2.2c2.8,0,6,0,9.2,0c2.8,0,3.3-0.6,2.7-3.4C469.7,470.7,465.7,471.7,464.1,470.4z
		 M490.3,455.5c0.2,3.8,0.1,7.6,0.1,11.7c-4.9-4.8-9.6-9.4-14.4-14c-0.2,0.1-0.5,0.2-0.7,0.3c0,5,0,10.1,0,15.1c0,1.6,0,3.1-2,3.4
		c2.2,0,4.4,0,6.1,0c-0.5-0.6-1.7-1.3-1.8-2c-0.2-3.5-0.1-7.1-0.1-10.9c4.8,4.6,9.4,9.1,14.1,13.6c0.2-0.1,0.4-0.2,0.6-0.3
		c0-0.8,0.1-1.5,0.1-2.3c0.1-4.6,0.1-9.2,0.3-13.8c0-0.9,0.8-1.8,1.2-2.6c-1.6,0-3.6,0-5.4,0C489,454.3,490.3,454.9,490.3,455.5z
		 M505,454.8c3.9-1,6.8,0.2,8.7,3.8c0.1-1.6,0.1-2.9,0.2-4.9c-3.6,0-7.1-0.5-10.4,0.1c-6.6,1.2-9.3,9.4-5.2,14.7
		c3.1,3.9,7.4,4.3,11.9,3.9c3.4-0.3,3.8-0.9,3.5-4.4c-1.7,2.9-4,3.8-7.5,2.8c-3.9-1-6.1-4.4-6-9.1
		C500.3,458.1,502.1,455.5,505,454.8z M533.3,453.8c-1.2,0-3,0-4.4,0c0.2,3.7-2.6,5.8-3.9,9.1c-1.5-3.4-3.9-5.7-4.6-9.1
		c-1.5,0-3.5,0-5.8,0c0.8,0.5,1.6,0.7,1.9,1.2c3,4.3,7.1,8.1,6.1,14.1c-0.2,1.1-0.8,2-1.1,2.9c2,0,4.5,0,7.1,0
		c-2.4,0-2.3-1.6-2.5-3.3c-0.5-4.2,1.2-7.5,3.6-10.7C530.8,456.6,532.2,455.1,533.3,453.8z"/>
	<path id="medicine-word" class="st18" d="M569.8,472c-2,0-4,0-5.9,0c-0.6-4.4-1.1-8.6-1.7-12.8c-0.2,0-0.3-0.1-0.4-0.1
		c-2.1,4.3-4.2,8.7-6.6,13.6c-2.3-4.7-4.5-9-6.9-13.8c-0.6,4.2-1.2,7.8-1.5,11.5c-0.1,0.5,1.2,1.2,1.7,1.7c-1.7,0-3.7,0-5.7,0
		c1.7-0.4,1.9-1.7,2.1-3.2c0.8-5.3,1.6-10.6,2.4-15.9c0.1-0.5,0.3-0.9,0.6-1.9c2.8,5.6,5.3,10.8,8,16.2c2.6-5.5,5.1-10.6,7.6-15.7
		c0.2,0,0.3,0,0.5,0c0.4,2.4,0.8,4.8,1.1,7.1c0.5,3.3,1.1,6.6,1.5,10C567,470.7,567.7,471.8,569.8,472z M577.1,470.7
		c-0.5-0.3-0.9-1-0.9-1.6c-0.1-1.7,0-3.5,0-5.6c2,0.8,4.4-1,5.6,1.9c0.2-1.2,0.3-2.3,0.4-3.2c-2,0-4,0-5.8,0c0-2,0-3.9,0-5.8
		c4.8-0.2,4.9-0.2,5.9,2c0.1-1.3,0.2-2.4,0.2-3.3c-3.9,0-7.6,0-11.1,0c0.5,0.6,1.6,1.2,1.6,1.9c0.1,4.4,0,8.9-0.1,13.3
		c0,0.6-0.7,1.2-1,1.8c2.6,0,5.5,0,8.4,0c2.8,0,3-0.2,2.8-3.2C582,470.8,578.9,471.7,577.1,470.7z M604.5,463.8
		c-0.1,4.2-2.9,7.8-7,8.3c-3.8,0.4-7.7,0.1-11.1,0.1c0.4-0.8,1.1-1.6,1.1-2.4c0.1-4.2,0.2-8.3,0-12.5c0-0.6-0.6-1.1-1.2-1.7
		c4,0,8-0.3,11.9,0.1C602.4,456.2,604.6,459.5,604.5,463.8z M590.7,456.6c0,3.8,0,7.5,0,11.2c0,0.5-0.1,1,0.1,1.4
		c0.2,0.6,0.5,1.4,1,1.7c3.2,1.7,8.2-0.3,9-3.8C602.9,459,597.1,455.4,590.7,456.6z M585.6,455.6c0.3,0,0.5,0,0.8,0
		c-0.2-0.2-0.3-0.3-0.4-0.5C585.8,455.3,585.7,455.4,585.6,455.6z M612.1,469.2c0.1-3.8,0-7.7,0.1-11.5c0-0.9,0.7-1.7,1-2.5
		c-1.6,0-3.8,0-5.5,0c0.4,0.6,1.2,1.3,1.2,2.1c0.1,4.1,0.1,8.2,0,12.3c0,0.9-0.7,1.7-1,2.5c1.8,0,4.2,0,6.5,0
		C612.4,472,612.1,470.8,612.1,469.2z M624.1,456.2c3.6-1,6.3,0.1,8.2,3.4c0.1-1.4,0.1-2.6,0.2-4c-3.6-0.8-7.1-1.3-10.6,0
		c-5.8,2.1-7.5,9.9-3.1,14.1c2.9,2.8,6.6,3.2,10.3,2.8c3.1-0.3,3.5-0.9,3.1-4.1c-1.4,2.6-3.3,3.4-6.5,2.6c-3.5-0.8-5.8-3.7-5.9-7.5
		C619.8,459.4,621.2,457,624.1,456.2z M640.5,469.3c0.1-3.8-0.1-7.5,0.1-11.3c0-1,0.7-1.9,1-2.8c-1.6,0-3.7,0-5.4,0
		c0.4,0.6,1.1,1.4,1.1,2.1c0.1,4,0.1,8.1,0,12.1c0,0.9-0.7,1.8-1.1,2.6c1.9,0,4.2,0,6.5,0C640.8,472,640.5,470.9,640.5,469.3z
		 M660.9,456.9c0.2,3.5,0.1,6.9,0.1,10.7c-4.5-4.4-8.9-8.7-13.2-12.9c-0.2,0.1-0.5,0.2-0.7,0.3c0,4.7,0,9.4,0,14.1
		c0,1.5-0.1,2.8-1.9,3c2,0,4,0,6,0c-1.9-0.2-2.1-1.6-2.1-3.1c0-1.8,0-3.5,0-5.2c0-1.2,0-2.3,0-3.7c4.6,4.4,8.8,8.5,13.1,12.7
		c0.2-0.1,0.4-0.2,0.5-0.3c0-0.6,0.1-1.3,0.1-1.9c0-3.8,0-7.5,0.1-11.3c0-1.5-0.4-3.3,1.9-4.1c-2.2,0-4.1,0-5.7,0
		C659.7,455.7,660.9,456.3,660.9,456.9z M679.2,469c-1,1.8-4,2.7-5.8,1.7c-0.4-0.2-0.9-0.9-0.9-1.4c-0.1-1.8,0-3.7,0-5.8
		c2,0.8,4.4-1,5.6,1.9c0.2-1.2,0.3-2.3,0.4-3.2c-2,0-3.9,0-5.8,0c0-1.9,0-3.9,0-5.8c4.8-0.2,4.9-0.2,5.9,2.1
		c0.1-1.3,0.2-2.4,0.2-3.4c-3.9,0-7.6,0-11,0c0.5,0.7,1.6,1.4,1.6,2.1c0.1,4.2,0.1,8.5-0.1,12.7c0,0.8-0.6,1.5-1,2.2
		c2.5,0,5.3,0,8.2,0C679.3,472.2,679.4,472,679.2,469z"/>
	<path id="arrows" class="st17" d="M718.8,403.5c-18.2,0-37.4,0-56.8,0c0-0.9,0-2,0-3.3C681.3,401.3,700.6,402.4,718.8,403.5z
		 M341.9,403.6c17.9,0,35.8,0,53.7,0c0-1.1,0-2.1,0-3.3c-18,1-35.9,2.1-53.7,3.1C341.9,403.5,341.9,403.5,341.9,403.6z"/>
	<path id="black-line" class="st19" d="M738.7,433.6c0,1.2,0,2.2,0,3.3c-140.3,0-280.5,0-420.8,0c0-1.1,0-2.2,0-3.3
		C458.3,433.6,598.5,433.6,738.7,433.6z"/>
</g>
</svg>
