<?xml version="1.0" encoding="utf-8"?>
<!-- Generator: Adobe Illustrator 24.3.0, SVG Export Plug-In . SVG Version: 6.00 Build 0)  -->
<svg version="1.1" id="Layer_1" xmlns="http://www.w3.org/2000/svg" xmlns:xlink="http://www.w3.org/1999/xlink" x="0px" y="0px"
	 viewBox="0 0 864 864" style="enable-background:new 0 0 864 864;" xml:space="preserve">
<style type="text/css">
	.st0{fill:#0D0D0D;}
	.st1{fill:#010101;}
	.st2{fill:#4774B9;}
	.st3{fill:#D92927;}
	.st4{fill:#EE3625;}
	.st5{fill:#526CB3;}
	.st6{fill:#DA2A2A;}
	.st7{fill:#45C5E8;}
	.st8{fill:#E53E37;}
	.st9{fill:#638CC8;}
	.st10{fill:#4C65AF;}
	.st11{fill:#5EC9E2;}
	.st12{fill:#274097;}
	.st13{fill:#445DAA;}
	.st14{fill:#334CA0;}
	.st15{fill:#741A15;}
	.st16{fill:#3B55A5;}
	.st17{fill:#5580C1;}
	.st18{fill:#CD2927;}
	.st19{fill:#BA2526;}
	.st20{fill:#A82123;}
	.st21{fill:#36B6E7;}
	.st22{fill:#821818;}
	.st23{fill:#961D1F;}
	.st24{fill:#EBE236;}
	.st25{fill:#34A3DC;}
	.st26{fill:#8E9036;}
	.st27{fill:#2A3A89;}
	.st28{fill:#FFFFFF;}
</style>
<path class="st0" d="M670.89,355.53c7.15-16.29,14.17-32.31,21.2-48.33c0.97-2.2,1.84-4.45,2.96-6.57c0.44-0.84,1.44-1.38,2.18-2.06
	c0.62,0.9,1.64,1.74,1.8,2.72c0.91,5.62,1.62,11.27,2.39,16.92c2.14,15.59,4.23,31.18,6.45,46.76c0.71,4.97,2.11,6.06,7.69,6.98
	c0.89,0.15,1.77,0.33,2.95,0.55c-2.23,1.87-20.31,1.55-22.89,0.24c0.16-2.59,0.63-4.89,0.39-7.12c-1.46-13.15-3.08-26.28-4.66-39.42
	c-0.02-0.16-0.18-0.3-0.57-0.9c-7.35,16.44-14.58,32.63-21.81,48.81c-0.42,0.01-0.84,0.01-1.26,0.02c-0.95-1.45-2.1-2.82-2.81-4.38
	c-6.27-13.74-12.47-27.52-18.69-41.29c-0.27-0.6-0.53-1.2-1.32-1.8c-0.52,4.41-1.04,8.83-1.55,13.24
	c-0.9,7.87-1.79,15.74-2.68,23.61c-0.03,0.29-0.11,0.57-0.13,0.86c-0.29,6.15-0.85,6.81,5.48,7.69c0.52,0.07,1.01,0.34,1.59,0.54
	c-1.49,1.64-35.51,1.91-40.53,0.36c2.97-1.31,2.25-3.27,1.43-5.45c-2-5.31-3.9-10.66-5.69-16.04c-0.49-1.48-1.2-1.91-2.69-1.89
	c-6.19,0.07-12.39-0.03-18.58,0.11c-0.83,0.02-2.07,0.91-2.39,1.69c-1.71,4.18-3.25,8.44-4.72,12.71c-2.15,6.27-1.52,7.27,5.53,8.4
	c-0.88,0.7-1.38,1.45-1.89,1.46c-6.86,0.07-13.73,0.06-20.59,0c-0.45,0-0.9-0.5-1.81-1.04c0.99-0.41,1.55-0.84,2.09-0.83
	c4.89,0.11,7.28-2.86,8.85-6.96c3.07-7.99,6.18-15.97,9.25-23.96c4.9-12.75,9.77-25.51,14.66-38.26c0.1-0.27,0.23-0.54,0.4-0.77
	c0.84-1.2,1.7-2.4,2.55-3.59c0.93,1.24,2.21,2.35,2.75,3.74c7.42,19.1,14.71,38.24,22.11,57.35c1.04,2.68,2.34,5.28,3.69,7.83
	c0.57,1.08,1.44,2.08,2.37,2.89c3.36,2.94,7.47,1.81,8.36-2.5c1.03-5,1.65-10.09,2.37-15.15c2.09-14.72,4.13-29.44,6.19-44.16
	c0.28-2.01,0.39-4.06,0.87-6.01c0.34-1.38,1.17-2.64,1.78-3.96c0.93,1,2.19,1.84,2.73,3.02c3.62,7.87,7.08,15.81,10.59,23.72
	c4.1,9.24,8.19,18.48,12.29,27.71C669.92,353.8,670.36,354.53,670.89,355.53z M591.02,317.69c-3.3,9.35-6.31,17.87-9.38,26.56
	c6.28,0,12.15,0,18.47,0C597.13,335.55,594.23,327.07,591.02,317.69z"/>
<path class="st1" d="M258.86,471.42c0-1.49,0-2.82,0-4.32c185.38,0,370.72,0,556.22,0c0,1.35,0,2.75,0,4.32
	C629.8,471.42,444.47,471.42,258.86,471.42z"/>
<path class="st2" d="M141.68,634.22c-5.48-12.96-7.69-26.56-6.99-40.51c0.55-10.97,2.6-21.73,5.82-32.34
	c4.05-13.34,9.48-26.03,16.18-38.17c4.55-8.23,9.57-16.2,14.37-24.29c2.14,0.51,4.29,1.02,6.43,1.54c0.19,0.03,0.37,0.06,0.56,0.09
	c0.37,0.07,0.74,0.14,1.11,0.2c4.62,1.34,9.24,2.68,13.86,4.02c-2.79,4.22-5.62,8.41-8.34,12.67c-1.33,2.08-2.45,4.29-3.67,6.44
	c-0.5,0.22-1.2,0.31-1.48,0.69c-2.96,4.01-6.04,7.94-8.72,12.13c-5.35,8.36-9.95,17.17-12.7,26.72c-1.96,6.78-3.46,13.77-4.3,20.77
	c-0.71,5.95-0.17,12.05-0.18,18.09c0.02,0.57,0.04,1.14,0.05,1.71l-0.01-0.02c0,0.22,0,0.44-0.01,0.66c0.01,0.18,0,0.35-0.01,0.53
	c-0.01,0.38-0.01,0.76-0.02,1.15c0.01,0.18,0.02,0.37,0.02,0.55c0.2,0.6,0.4,1.21,0.59,1.81c0.01,0.16,0.01,0.32-0.01,0.47
	c-0.52,3.59-0.75,7.26-1.67,10.75c-0.55,2.07-2.26,3.8-3.31,5.76c-1.36,2.51-2.44,5.2-3.96,7.6c-0.62,0.97-2.08,1.41-3.16,2.09
	c-0.15-0.07-0.22-0.19-0.19-0.36C141.87,634.73,141.78,634.47,141.68,634.22z"/>
<path class="st3" d="M164.06,496.62c-4.07-1.52-8.27-2.74-12.17-4.6c-11.1-5.29-21.43-11.81-30.44-20.26
	c-16.71-15.67-26.92-34.34-26.28-57.87c0.33-12.18,3.08-23.87,7.48-35.2c1.81,0.16,3.63,0.54,5.42,0.45
	c4.86-0.25,9.72-0.73,14.58-1.03c0.67-0.04,1.36,0.46,2.05,0.71c-0.27,1.3-0.48,2.61-0.83,3.89c-1.19,4.42-2.43,8.84-3.64,13.25
	c-0.09,0.86-0.19,1.73-0.28,2.59c-0.41,6.57-0.83,13.14-1.24,19.71c-0.23,6.81,1.38,13.31,3.65,19.61
	c4.69,13,12.21,24.41,20.61,35.25c3.28,4.24,7.08,8.08,10.64,12.1C157.09,489.03,160.57,492.82,164.06,496.62z"/>
<path class="st2" d="M231.53,387.95c4.19,12.54,4.84,25.28,2.51,38.29c-2.58,14.46-7.77,27.92-15.06,40.59
	c-3.84,6.68-7.98,13.18-11.99,19.76c-3.59-1.1-7.18-2.2-10.77-3.31l-0.02,0l-0.2-0.07c-3.63-1.37-7.27-2.74-10.9-4.11
	c0.51-0.8,0.97-1.64,1.54-2.4c3.32-4.45,7.07-8.65,9.91-13.38c7.6-12.64,12.36-26.36,14.36-41.01c0.06-0.97,0.12-1.94,0.18-2.91
	c0.17-2.84,0.34-5.69,0.51-8.54c2.76-7.1,2.39-14.41,1.4-21.75c0.74-0.49,1.72-1.56,2.18-1.37
	C220.64,389.95,226.07,389.52,231.53,387.95z"/>
<path class="st4" d="M250.73,515.11c6.88,7.2,11.97,15.45,15.77,24.72c5.09,12.45,6.29,25.25,5,38.41
	c-0.47,4.82-1.11,9.7-2.48,14.32c-1.32,4.45-5.17,6.69-9.7,7.19c-3.86,0.43-6.31-2.23-8.63-4.82c-2.32-2.59-2.62-5.34-1.91-8.86
	c1.58-7.88,1.3-15.9,0.05-23.85c-0.19-0.98-0.38-1.96-0.57-2.94c-1.65-4.89-2.88-9.98-5.07-14.61c-2.28-4.83-5.5-9.22-8.31-13.8
	c0.65-0.47,1.39-0.87,1.95-1.43C241.48,524.67,246.1,519.88,250.73,515.11z"/>
<path class="st3" d="M152.52,155.64c10.66,4.15,19.06,11.34,26.05,20.13c14.56,18.3,18.44,39.47,16.01,62.19
	c-2.39,22.35-10.57,42.8-20.67,62.6c-1.25,2.45-2.67,4.82-4.02,7.23c-1.88-0.04-3.78-0.23-5.64-0.08c-3.71,0.31-7.39,1.02-11.1,1.15
	c-1.37,0.05-2.78-1.08-4.16-1.67c0.13-0.21,0.27-0.41,0.4-0.62c0.09-0.16,0.18-0.32,0.27-0.47c3.64-4.84,7.69-9.43,10.82-14.58
	c5.26-8.64,10.1-17.54,14.8-26.49c4.81-9.15,7.01-19.2,9.15-29.23c0.21-1.13,0.6-2.27,0.6-3.4c0.01-7.76-0.07-15.52-0.12-23.29
	c-1.35-5.74-2.68-11.47-4.08-17.2c-0.09-0.36-0.64-0.61-0.97-0.91c-1.15-6.36-5.17-11.17-8.75-16.22
	c-3.38-5.08-7.15-9.81-12.22-13.34c-1-0.97-1.97-1.98-3-2.91C154.8,157.54,153.65,156.6,152.52,155.64z"/>
<path class="st0" d="M299.55,372.73c0.38-0.2,0.76-0.55,1.15-0.58c5.23-0.31,6.06-1.92,6.19-7.49c0.28-11.12,0.22-22.25,0.25-33.38
	c0.02-7.26-0.03-14.51-0.11-21.77c-0.05-5.06-1.42-6.44-6.46-6.88c-0.85-0.07-1.66-0.52-2.34-1.25c14.96-1.15,29.82,0.41,44.9-1.31
	c-0.46,4.78-0.95,9.79-1.43,14.79c-0.38-0.01-0.77-0.02-1.15-0.03c-0.15-1-0.31-1.99-0.44-2.99c-0.34-2.7-1.75-4.68-4.48-4.94
	c-5.35-0.51-10.73-0.68-16.28-1c0,8.97,0,17.44,0,26.42c7.28-1.13,14.96,2.01,22.4-3.11c-0.47,5.67-0.93,11.11-1.39,16.56
	c-0.36,0.01-0.72,0.03-1.08,0.04c-0.13-0.92-0.3-1.84-0.39-2.76c-0.29-3.22-1.61-4.8-4.84-5.06c-4.81-0.38-9.63-0.51-14.86-0.77
	c0,3.47,0,6.62,0,9.77c0,4.64-0.05,9.29,0.02,13.93c0.06,4.54,2.13,6.89,6.57,7.22c3.17,0.23,6.37,0.26,9.54,0.06
	c5.18-0.33,6.89-1.94,8.1-7.01c0.2-0.84,0.45-1.66,0.68-2.49c0.27,0.02,0.55,0.04,0.82,0.06c0.14,0.68,0.44,1.38,0.38,2.05
	c-0.34,3.55-0.7,7.11-1.19,10.64c-0.28,1.99-1.74,2.58-3.6,2.55c-3.68-0.06-7.35-0.06-11.03-0.1c-8.99-0.09-17.99-0.18-26.98-0.3
	c-0.97-0.01-1.94-0.18-2.91-0.28C299.59,373.14,299.57,372.94,299.55,372.73z"/>
<path class="st0" d="M720.07,300.84c14.8-0.45,29.64,0.75,44.74-0.6c-0.45,4.63-0.93,9.64-1.41,14.65
	c-0.38-0.01-0.76-0.01-1.14-0.02c-0.15-0.99-0.33-1.98-0.44-2.98c-0.33-2.86-1.89-4.79-4.72-5.04c-5.26-0.47-10.56-0.62-16.02-0.91
	c0,8.92,0,17.39,0,25.86c7.22,1.63,18.29,0.41,22.44-3.02c-0.53,6.12-1,11.55-1.47,16.97c-0.34,0-0.67-0.01-1.01-0.01
	c-0.13-0.5-0.34-0.99-0.38-1.49c-0.39-4.9-1.24-6.05-5.99-6.37c-4.42-0.29-8.88-0.06-13.75-0.06c0,1.98,0,4.26,0,6.53
	c0,5.52-0.04,11.03,0.02,16.55c0.05,4.67,2.15,6.95,6.82,7.27c3.07,0.21,6.18,0.24,9.25,0.04c5.22-0.34,6.92-1.92,8.12-6.97
	c0.2-0.84,0.44-1.67,1.31-2.47c0.2,0.48,0.61,0.97,0.57,1.43c-0.36,3.84-0.68,7.69-1.25,11.51c-0.3,2.01-1.99,2.35-3.78,2.3
	c-5.99-0.17-11.99-0.39-17.99-0.45c-6.39-0.07-12.77,0.04-19.16,0.04c-1.17,0-2.34-0.15-3.51-0.23c-0.02-0.28-0.05-0.56-0.07-0.83
	c0.85-0.18,1.7-0.41,2.56-0.54c2.58-0.39,4.35-1.57,4.44-4.42c0.21-6.37,0.55-12.74,0.58-19.11c0.06-12.87-0.01-25.74-0.08-38.61
	c-0.03-5.52-1.22-6.7-6.72-7.21c-0.75-0.07-1.47-0.53-2.21-0.82C719.9,301.5,719.98,301.17,720.07,300.84z"/>
<path class="st0" d="M454.08,372.7c0.39-0.19,0.77-0.52,1.18-0.55c5.18-0.39,5.85-1.8,6.14-7.24c0.32-6.08,0.25-12.19,0.25-18.28
	c0-12.38-0.04-24.77-0.11-37.15c-0.03-5.03-1.42-6.37-6.51-6.84c-0.78-0.07-1.51-0.68-2.27-1.04c0.8-0.29,1.6-0.84,2.4-0.84
	c11.52-0.02,23.03,0.09,34.55,0.04c2.56-0.01,5.11-0.49,7.92-0.78c-0.45,4.84-0.91,9.82-1.37,14.8c-0.36,0.02-0.73,0.04-1.09,0.06
	c-0.18-0.93-0.4-1.85-0.53-2.78c-0.47-3.38-2-5.1-5.4-5.36c-5.01-0.38-10.03-0.52-15.29-0.78c0,8.82,0,17.36,0,26.37
	c7.24-1.12,14.93,2,22.32-3.06c-0.47,5.62-0.94,11.07-1.4,16.52c-0.32,0.01-0.64,0.03-0.95,0.04c-0.16-0.55-0.42-1.1-0.46-1.67
	c-0.34-4.75-1.27-5.97-6.08-6.29c-4.41-0.29-8.86-0.06-13.66-0.06c0,3.03,0,6.28,0,9.53c0,4.64-0.06,9.29,0.03,13.93
	c0.08,3.97,1.95,6.43,5.74,6.76c4.02,0.35,8.11,0.31,12.14-0.01c3.15-0.25,5.22-2.26,5.92-5.49c0.28-1.3,0.74-2.56,1.12-3.84
	c0.3,0.03,0.59,0.07,0.89,0.1c0.1,0.88,0.35,1.78,0.27,2.64c-0.29,3.07-0.76,6.13-1.05,9.2c-0.24,2.57-1.66,3.42-4.08,3.37
	c-10.35-0.22-20.7-0.39-31.05-0.55c-3.16-0.05-6.32-0.01-9.47-0.01C454.14,373.21,454.11,372.95,454.08,372.7z"/>
<path class="st4" d="M100.8,168.29c-17.46,1.55-34.07,6.23-49.96,13.54c-4.48,2.06-6.39,1.92-8.61-0.59
	c-2.16-2.44-2.61-7.87-0.84-10.91c2.61-4.49,6.88-6.92,11.46-8.79c15.1-6.16,30.81-10.32,46.86-12.98
	c6.84-1.14,13.89-1.05,20.85-1.52c-1.32,1-2.75,1.89-3.94,3.03c-5.27,4.99-10.47,10.06-15.71,15.08
	C99.81,166.18,98.97,167.18,100.8,168.29z"/>
<path class="st0" d="M442.79,316.61c-0.16-0.78-0.36-1.55-0.46-2.33c-0.64-4.99-4.12-8.93-8.8-9.93c-5.8-1.24-11.6,0.73-14.19,4.83
	c-2.37,3.74-2.01,9.28,1.33,12.59c2.44,2.42,5.46,4.25,8.16,6.42c4.27,3.43,9.15,6.36,12.6,10.48c9.61,11.46,4.93,30.21-8.43,34.85
	c-7.92,2.75-15.95,2.08-23.88-0.42c-2.05-0.65-2.94-1.92-2.81-4.08c0.25-4.25,0.37-8.5,0.62-12.75c0.04-0.75,0.45-1.47,0.7-2.21
	c0.3,0.01,0.61,0.02,0.91,0.04c0.24,1.53,0.48,3.05,0.73,4.58c1.58,9.66,13.2,14.91,21.52,9.72c6.46-4.03,7.64-13.94,1.99-19.71
	c-2.73-2.79-6.3-4.74-9.34-7.26c-3.77-3.12-8-5.96-10.96-9.75c-7.9-10.12-5.85-28.86,13.33-31.88c5.29-0.83,10.91,0.25,16.36,0.59
	c1.9,0.12,2.74,1.21,2.53,3.33c-0.33,3.36-0.3,6.76-0.46,10.14c-0.04,0.9-0.25,1.79-0.37,2.69
	C443.5,316.56,443.15,316.58,442.79,316.61z"/>
<path class="st0" d="M813.45,316.61c-0.19-0.82-0.44-1.64-0.55-2.48c-0.66-4.92-4.22-8.85-8.93-9.81
	c-5.86-1.2-11.58,0.81-14.12,4.96c-2.32,3.79-1.92,9.28,1.49,12.56c2.68,2.58,5.98,4.52,8.91,6.86c3.91,3.11,8.27,5.87,11.48,9.6
	c8.61,10.01,6.64,25.18-3.94,33.02c-5.29,3.92-11.55,4.15-17.76,3.67c-3.61-0.28-7.21-1.18-10.69-2.21c-1.02-0.3-2.3-1.99-2.32-3.05
	c-0.08-4.63,0.24-9.27,0.5-13.91c0.04-0.63,0.56-1.23,1.56-1.71c0.24,1.46,0.5,2.92,0.73,4.39c1.52,9.59,12.73,14.95,21.17,10.13
	c6.7-3.83,8.13-13.95,2.46-19.84c-2.71-2.81-6.28-4.76-9.31-7.29c-3.9-3.26-8.3-6.22-11.32-10.19c-7.56-9.93-5.61-28.39,13.4-31.5
	c5.37-0.88,11.09,0.27,16.65,0.6c1.82,0.11,2.57,1.17,2.4,3.14c-0.3,3.46-0.29,6.95-0.47,10.43c-0.04,0.87-0.3,1.74-0.46,2.6
	C814.05,316.59,813.75,316.6,813.45,316.61z"/>
<path class="st0" d="M357.33,354.19c0.46,2.23,0.76,4.5,1.4,6.67c1.69,5.8,6.41,9.04,13.45,9.41c5.14,0.27,9.76-2.38,11.81-6.79
	c2.39-5.13,1.42-11.47-2.91-15.43c-2.97-2.72-6.58-4.71-9.7-7.28c-3.55-2.93-7.45-5.71-10.19-9.32
	c-7.67-10.13-5.6-28.65,13.46-31.67c5.29-0.84,10.91,0.25,16.36,0.58c1.88,0.12,2.77,1.17,2.56,3.31c-0.34,3.36-0.3,6.76-0.46,10.14
	c-0.04,0.9-0.24,1.8-0.36,2.7c-0.28,0.04-0.56,0.08-0.83,0.12c-0.24-0.68-0.6-1.35-0.69-2.05c-0.63-4.96-3.2-8.44-7.96-10.04
	c-5.17-1.73-11.22-0.07-14.33,3.68c-3.05,3.69-3.07,9.63,0.41,13.29c2.23,2.35,5.07,4.11,7.62,6.15c4.42,3.54,9.47,6.55,13.13,10.76
	c8.63,9.93,6.5,25.28-4.1,32.99c-5.23,3.81-11.39,4.07-17.5,3.59c-3.7-0.29-7.4-1.21-10.98-2.26c-0.99-0.29-2.19-2.05-2.2-3.15
	c-0.06-4.63,0.26-9.27,0.51-13.91c0.03-0.56,0.54-1.1,0.83-1.65C356.89,354.1,357.11,354.15,357.33,354.19z"/>
<path class="st0" d="M260.56,397.99c1.89-1.6,3.89-3.1,5.65-4.83c5.64-5.57,6.95-12.81,7.02-20.23c0.19-21.27,0.12-42.54,0.11-63.81
	c0-4.51-1.51-6.04-5.97-6.43c-0.92-0.08-1.84-0.12-2.75-0.18c-0.05-0.29-0.1-0.58-0.15-0.87c0.75-0.27,1.5-0.76,2.25-0.77
	c8.12-0.05,16.23-0.05,24.35-0.01c0.72,0,1.43,0.38,2.14,0.58c-0.02,0.26-0.03,0.53-0.05,0.79c-1.33,0.28-2.83,0.27-3.95,0.92
	c-1.26,0.73-2.6,1.89-3.12,3.17c-0.62,1.54-0.51,3.41-0.52,5.14c-0.02,18.27,0.11,36.55-0.02,54.82
	c-0.12,15.86-9.53,25.39-22.64,32.2c-0.62,0.32-1.45,0.22-2.18,0.31C260.66,398.54,260.61,398.27,260.56,397.99z"/>
<path class="st0" d="M529.38,398.07c0.53-0.48,1.01-1.05,1.61-1.44c6.46-4.16,9.8-10.26,10.61-17.72c0.5-4.6,0.7-9.25,0.72-13.88
	c0.06-18.47,0.02-36.93-0.03-55.4c-0.01-5.23-1.39-6.59-6.63-6.97c-0.71-0.05-1.42-0.2-2.12-0.31c-0.05-0.25-0.09-0.5-0.14-0.75
	c0.67-0.25,1.35-0.73,2.03-0.73c8.21-0.05,16.43-0.05,24.64,0c0.7,0,1.39,0.42,2.09,0.64c-0.03,0.26-0.06,0.51-0.09,0.77
	c-1.16,0.22-2.31,0.52-3.47,0.66c-2.41,0.28-3.59,1.72-3.84,3.98c-0.18,1.63-0.25,3.28-0.25,4.92c-0.01,18.27,0.1,36.55-0.02,54.82
	c-0.11,15.7-10.23,25.55-22.69,31.87c-0.61,0.31-1.44,0.17-2.17,0.24C529.53,398.53,529.45,398.3,529.38,398.07z"/>
<path class="st5" d="M64.66,287.54c-1.51-4.8-3.35-9.52-4.45-14.41c-2.44-10.89-2.15-21.87-0.09-32.81
	c0.77-4.09,0.87-8.34,4.62-11.4c5.87-4.8,10.49-3.98,14.88,1.31c1.9,2.28,2.59,4.61,1.99,7.86c-1.82,9.9-1.65,19.86,0.88,29.7
	c0.19,0.73,0.19,1.51,0.28,2.27c-1.34,0.57-3.05,0.8-3.96,1.77C73.99,276.96,69.36,282.28,64.66,287.54z"/>
<path class="st6" d="M626.66,489.08c3.02,0,6.58,0,10.14,0c-3.25,0.5-2.71,3.01-2.71,5.19c-0.02,6-0.08,12,0.04,18
	c0.04,1.86-0.71,4.32,2.09,5.04c3.21,0.82,4.62-0.07,6.18-3.63c2.7-6.17,5.39-12.35,8.1-18.51c0.31-0.7,0.7-1.36,1.32-2.53
	c0.8,1.58,1.48,2.78,2.03,4.02c2.49,5.64,4.94,11.29,7.43,16.93c0.39,0.87,0.69,2.09,1.39,2.46c1.34,0.7,2.95,1.17,4.43,1.15
	c0.53-0.01,1.46-1.71,1.49-2.65c0.15-6,0.23-12,0-17.99c-0.04-1.05-1.66-2.03-2.06-2.49c3.65,0,8.19-0.37,12.64,0.1
	c5.3,0.55,6.99,5.31,3.7,9.55c-0.82,1.06-1.84,1.98-3.02,3.22c2.7,2.96,5.29,6.07,8.18,8.88c2.32,2.25,3.6,1.79,4.15-1.32
	c1.19-6.74,2.24-13.51,3.36-20.26c0.06-0.34,0.2-0.67,0.58-1.9c3.52,6.85,6.7,13.03,10.09,19.63c3.31-6.56,6.43-12.76,9.55-18.95
	c0.27,0.04,0.55,0.08,0.82,0.13c0.56,3.35,1.13,6.7,1.67,10.05c0.56,3.43,1.22,6.84,1.59,10.29c0.26,2.4,1.02,4.05,3.66,4.32
	c-2.5,0-5,0-7.46,0c-0.69-5.15-1.34-10.06-2-14.96c-0.21-0.09-0.43-0.17-0.64-0.26c-2.65,5.16-5.3,10.33-8.29,16.15
	c-2.97-5.67-5.62-10.74-8.62-16.48c-0.66,4.9-1.36,9.1-1.7,13.34c-0.06,0.77,1.33,1.65,2.02,2.45c-3,0-6.31,0.35-9.5-0.13
	c-1.91-0.29-3.81-1.63-5.37-2.92c-1.38-1.14-2.49-2.74-3.35-4.33c-1.26-2.31-3.01-2.97-5.65-2.34c0,1.68,0,3.4,0,5.13
	c0,2.21-0.18,4.54,3.16,4.45c-6,0-12,0-18.22,0c-0.04-0.44-0.03-0.97-0.15-1.45c-1.48-5.85-4.26-7.87-10.14-6.31
	c-1.4,0.37-2.28,3.35-3.01,5.27c-0.25,0.66,0.67,1.76,1,2.53c-5.95,0-12.47,0-18.99,0c2.37-0.39,2.75-2.07,2.74-4.03
	c-0.01-3.37,0-6.73,0-10.24c-5.05,0-9.92,0-14.99,0c0,3.74-0.26,7.42,0.14,11.03c0.14,1.25,1.93,2.31,2.72,3.19
	c-2.94,0-6.7,0-9.63,0c0.57-1.29,1.81-2.86,1.86-4.46c0.23-6.86,0.05-13.74,0.16-20.61c0.04-2.55-1.46-3.23-3.48-3.72
	c3.62,0,7.24,0,10.85,0c-2.54,0.59-2.86,2.39-2.73,4.63c0.14,2.4,0.03,4.82,0.03,7.43c5.01,0,9.88,0,15.06,0c0-3,0.25-6.1-0.13-9.12
	C629.07,490.9,627.45,489.95,626.66,489.08z M673.06,506.23c2.59,0.25,4.98,0.85,6.46-1.71c1.31-2.27,1.31-4.64-0.03-6.87
	c-1.47-2.45-3.83-2.53-6.43-2.06C673.06,499.09,673.06,502.53,673.06,506.23z M654.32,508.06c-1.11-2.78-2.14-5.39-3.44-8.66
	c-1.31,3.27-2.36,5.91-3.46,8.66C649.89,508.06,651.98,508.06,654.32,508.06z"/>
<path class="st7" d="M236.71,647.16c4.48-1.37,9.01-2.61,13.43-4.13c7.34-2.53,14.61-5.26,21.92-7.89c2.14-0.77,4.32-1.45,6.47-2.17
	c-0.67,1.51-1,3.34-2.07,4.48c-4.48,4.76-9.25,9.25-13.78,13.97c-3.29,3.43-6.46,6.99-9.52,10.63c-1.09,1.29-1.7,2.98-2.53,4.49
	c-7.24,1.83-14.46,3.8-21.74,5.44c-3.72,0.83-7.57,1.07-11.37,1.57c-0.78-0.32-1.56-0.64-2.33-0.96c1.5-1.45,3.09-2.83,4.48-4.38
	c3.64-4.07,7.28-8.13,10.73-12.35C232.68,653.08,234.62,650.06,236.71,647.16z"/>
<path class="st8" d="M124.71,378.83c-0.68-0.25-1.38-0.75-2.05-0.71c-4.86,0.29-9.71,0.78-14.58,1.03c-1.8,0.09-3.62-0.29-5.42-0.45
	c2.84-6.26,5.36-12.7,8.6-18.74c3.79-7.07,8.22-13.81,12.37-20.69c2.86,0.81,5.73,1.61,8.59,2.42l0.17,0.04c0,0,0.11-0.13,0.11-0.13
	c1.44,0.54,2.88,1.08,4.31,1.62c2.84,1.05,5.68,2.1,8.53,3.15c-2.11,2.98-4.17,5.99-6.33,8.93c-4.01,5.48-8.42,10.68-10.85,17.19
	C127.33,374.71,125.88,376.72,124.71,378.83z"/>
<path class="st9" d="M215.2,672.57c0.78,0.32,1.56,0.64,2.33,0.96c-4.65,0.58-9.28,1.52-13.94,1.68
	c-15.61,0.53-30.26-2.37-42.45-13.09c0.2-0.31,0.66-0.75,0.57-0.91c-1.98-3.78-1.84-7.5-0.92-11.66c0.4-1.81,0.66-3.51,1.54-5.2
	c0.81-1.54,1.21-3.3,1.79-4.97c0.53,0.54,1.12,1.04,1.59,1.62c1.8,2.19,3.57,4.42,5.35,6.63c2.79,3.2,5.57,6.4,8.62,9.9
	c2.58-3.3,4.69-5.85,6.61-8.53c0.61-0.85,0.72-2.06,1.06-3.11c2.97,1.17,5.92,2.4,8.93,3.46c1.22,0.43,2.56,0.51,3.85,0.75
	c-0.49,1.08-0.81,2.3-1.51,3.22c-2.31,3.03-4.84,5.9-7.07,8.99c-0.42,0.58-0.17,2.48,0.29,2.71c3.06,1.51,6.26,2.73,9.41,4.05
	C205.91,670.24,210.55,671.4,215.2,672.57z"/>
<path class="st10" d="M64.66,287.54c4.7-5.25,9.33-10.57,14.16-15.71c0.91-0.97,2.62-1.2,3.96-1.77c0.18,0.4,0.36,0.81,0.55,1.21
	c0.27,0.96,0.53,1.91,0.8,2.87c1.71,6.79,5.56,12.45,9.58,17.99c1.72,2.38,3.68,4.58,5.53,6.87c-1.89,2-3.78,3.99-5.66,6
	c-2.71,2.89-5.47,5.74-8.08,8.73c-0.48,0.55-0.35,1.64-0.5,2.48c-4.63-5.35-9.59-10.45-13.78-16.12
	C68.47,296.33,66.82,291.75,64.66,287.54z"/>
<path class="st11" d="M250.65,666.52c0.83-1.51,1.44-3.2,2.53-4.49c3.06-3.64,6.22-7.2,9.52-10.63c4.53-4.72,9.3-9.2,13.78-13.97
	c1.07-1.14,1.4-2.97,2.07-4.48c3.95-1.01,7.89-2.07,11.86-2.99c2.22-0.51,3.77,0.5,4.96,2.43c2.58,4.17,4.23,8.54,1.5,13.11
	c-2.45,4.11-5.96,7.52-10.49,9.12C274.53,658.8,262.56,662.59,250.65,666.52z"/>
<path class="st12" d="M172.84,331.61c0.2,0.09,0.4,0.19,0.59,0.28c0.16,0.11,0.31,0.23,0.47,0.34c2.92,1.35,5.84,2.7,8.76,4.05
	c2.54,2.8,5.17,5.51,7.58,8.41c3.2,3.86,6.23,7.86,9.33,11.8c-0.49,0.69-0.9,1.45-1.49,2.04c-2.69,2.71-6.37,4.59-7.35,8.73
	c-0.27-0.04-0.54-0.09-0.81-0.13c-6.01-3.85-11.84-8.04-18.1-11.44c-4.2-2.29-9.01-3.47-13.55-5.14c-0.35-0.13-0.7-0.25-1.05-0.38
	l-0.06-0.03c1.5-2.15,2.81-4.47,4.52-6.43C165.3,339.57,169.11,335.63,172.84,331.61z"/>
<path class="st6" d="M415.98,443.91c-0.47-4.47-0.88-8.51-1.34-12.55c-0.46-4.12-0.97-8.24-1.97-12.6
	c-3.87,8.55-7.75,17.09-11.95,26.38c-5.3-8.53-8.29-17.35-12.71-26.43c-0.71,6.08-1.33,11.35-1.94,16.62
	c-0.07,0.58-0.06,1.16-0.13,1.74c-0.64,4.92-0.64,4.91,4.08,6.95c-4.55,0-8.43,0-12.3,0c3.99-0.86,3.83-4.05,4.24-7.06
	c1.43-10.41,2.98-20.8,4.5-31.2c0.1-0.71,0.37-1.4,0.56-2.09c0.35-0.1,0.7-0.19,1.06-0.29c4.59,10.13,9.17,20.26,13.95,30.81
	c4.68-10.48,9.2-20.59,13.72-30.71c0.3,0.02,0.59,0.03,0.89,0.05c0.3,0.79,0.75,1.56,0.87,2.37c1.49,10.41,3.01,20.81,4.36,31.23
	c0.47,3.61,1.33,6.54,6.26,5.95c-0.16,0.28-0.32,0.56-0.47,0.83C423.52,443.91,419.41,443.91,415.98,443.91z"/>
<path class="st13" d="M85.02,316.21c0.15-0.84,0.02-1.93,0.5-2.48c2.61-2.98,5.37-5.84,8.08-8.73c1.88-2,3.77-4,5.66-6
	c5.63,4.22,11.17,8.58,16.94,12.61c2.79,1.95,6.01,3.28,9.03,4.9c-1.92,1.65-4.07,3.1-5.71,4.99c-3.28,3.79-6.28,7.82-9.4,11.75
	C100.83,328.93,92.32,323.45,85.02,316.21z"/>
<path class="st3" d="M656.6,443.91c4-0.3,3.95-3.19,3.98-5.85c0.08-8.61,0.13-17.22,0.07-25.82c-0.04-5.25-0.14-5.25-4.77-6.86
	c0.2-0.21,0.37-0.54,0.53-0.54c7.82,0.12,15.67-0.07,23.46,0.51c13.01,0.97,17.63,11.83,16.05,21.98
	c-1.93,12.31-9.4,17.72-23.41,17.53c-4.92-0.07-9.84-0.35-14.75-0.56C657.36,444.27,656.98,444.04,656.6,443.91z M689.17,426.13
	c0.38-13.92-9.58-19.4-19.75-18.38c-0.8,0.08-2.13,1.2-2.13,1.86c-0.12,9.37-0.07,18.75,0,28.12c0.02,2.39,1.49,3.89,3.73,4.04
	c2.76,0.19,5.65,0.34,8.3-0.28C686.03,439.9,689.09,434.86,689.17,426.13z"/>
<path class="st3" d="M538.26,443.96c4.05-0.51,3.81-3.62,3.83-6.35c0.07-8.9-0.04-17.8,0.07-26.7c0.04-3.03-0.53-5.2-4.17-5.06
	c-0.24,0.01-0.5-0.22-0.49-0.82c5.01,0,10.02,0,15.03,0c-0.02,0.16-0.01,0.49-0.05,0.5c-3.55,0.41-4.01,2.72-3.83,5.74
	c0.21,3.46,0.05,6.93,0.05,10.81c6.01,0,11.88,0.04,17.74-0.08c0.45-0.01,1.24-1.13,1.25-1.75c0.09-3.67,0.05-7.35-0.05-11.02
	c-0.06-1.99-1.02-3.27-3.22-3.28c-0.48,0-0.95-0.29-1.36-0.91c5.01,0,10.02,0,15.03,0c-0.01,0.15-0.01,0.49-0.05,0.49
	c-3.56,0.4-3.91,2.72-3.85,5.74c0.16,8.12,0.05,16.25,0.06,24.38c0.01,6.21,0.02,6.21,5.14,8.36c-5.21,0-10.42,0-15.62,0
	c5.12-1.07,3.71-5.16,3.86-8.4c0.16-3.36,0.04-6.73,0.04-10.27c-6.31,0-12.45,0-18.66,0c0,5.09-0.12,10.26,0.12,15.41
	c0.04,0.83,1.65,1.69,2.67,2.31c0.55,0.34,1.38,0.22,2.06,0.92C548.67,443.96,543.46,443.96,538.26,443.96z"/>
<path class="st3" d="M597.87,424.52c0-12.13,8.21-20.32,20.35-20.3c12.26,0.01,19.88,7.5,19.87,19.51
	c-0.01,12.38-8.44,21.17-20.35,21.19C605.87,444.94,597.87,436.73,597.87,424.52z M630.85,426.72c-0.13-5.9-1.01-10.5-3.92-14.47
	c-4.96-6.77-14.91-7.01-19.27-0.49c-4.73,7.08-3.16,20.86,3.04,26.67c7.15,6.7,16.88,3.87,19.23-5.67
	C630.51,430.44,630.66,428.01,630.85,426.72z"/>
<path class="st14" d="M172.84,331.61c-3.73,4.02-7.54,7.97-11.15,12.09c-1.71,1.96-3.03,4.28-4.52,6.43
	c-3.94-1.26-7.88-2.52-11.83-3.78c-2.84-1.05-5.68-2.1-8.53-3.15c-1.44-0.54-2.88-1.08-4.31-1.62l-0.11,0.13
	c0,0-0.17-0.04-0.17-0.04c0.3-0.86,0.38-1.92,0.94-2.55c4.22-4.78,8.52-9.5,12.85-14.18c0.45-0.49,1.28-0.62,1.94-0.92
	c0.15-0.01,0.3-0.03,0.45-0.04c0.21,0.02,0.42,0.05,0.62,0.07c3.36,0.76,6.73,1.51,10.09,2.27c3.71,1.39,7.43,2.77,11.14,4.18
	C171.13,330.83,171.98,331.23,172.84,331.61z"/>
<path class="st15" d="M184.44,235.8c-2.14,10.03-4.34,20.08-9.15,29.23c-4.71,8.95-9.55,17.86-14.8,26.49
	c-3.13,5.15-7.19,9.74-10.82,14.58c-0.12,0.14-0.21,0.3-0.27,0.47c-0.13,0.21-0.27,0.41-0.4,0.62c-0.58,0.63-1.14,1.29-1.74,1.89
	c-1.93,1.91-3.87,3.79-5.81,5.68c3.8-6.55,7.77-13,11.36-19.66c7.42-13.75,12.81-28.26,15.73-43.65c0.12-0.95,0.24-1.89,0.36-2.84
	c0.36-1.55,0.71-3.1,1.07-4.65c-0.13,1.75,0.76,1.81,1.89,1.01c1.96-1.39,3.82-2.92,5.76-4.33
	C179.84,239,182.15,237.41,184.44,235.8z"/>
<path class="st13" d="M153.64,602.28c0.01-6.03-0.53-12.13,0.18-18.09c0.83-7,2.34-13.99,4.3-20.77c2.75-9.55,7.35-18.36,12.7-26.72
	c2.68-4.19,5.76-8.13,8.72-12.13c0.28-0.39,0.98-0.47,1.48-0.69c-6.7,11.82-12.97,23.88-16.68,36.99
	c-2.27,8.02-3.43,16.35-5.09,24.54c-0.08,0.76-0.17,1.52-0.25,2.29c-0.84,12.72,0.36,25.09,6.25,36.66
	c0.14,0.39,0.27,0.78,0.41,1.17c0,0,0.15,0.19,0.15,0.19c0.13,0.13,0.27,0.27,0.4,0.4c0.1,0.32,0.2,0.65,0.3,0.97
	c-1.76,1.98-3.52,3.96-5.28,5.94c-1.86-4.52-4.65-8.63-4.85-13.86c-0.13-3.36-1.38-6.67-2.12-10.01c0.01-0.16,0.02-0.32,0.01-0.47
	c-0.2-0.6-0.4-1.21-0.59-1.81c0-0.18-0.01-0.37-0.02-0.55c0.01-0.38,0.01-0.76,0.02-1.15c0.01-0.18,0.01-0.35,0.01-0.53
	c0-0.22,0-0.44,0.01-0.66c0,0,0.01,0.02,0.01,0.02C153.67,603.42,153.66,602.85,153.64,602.28z"/>
<path class="st6" d="M558.03,493.73c2.52,0,5.5,0,7.82,0c-0.46,1.22-1.4,2.61-1.45,4.03c-0.18,5.41-0.16,10.83,0,16.24
	c0.03,1.12,0.74,2.86,1.57,3.17c1.7,0.64,3.71,0.49,4.68-1.65c1.74-3.86,3.46-7.73,5.17-11.6c1.59-3.6,3.16-7.2,5.03-11.46
	c0.9,1.76,1.59,2.93,2.13,4.17c2.55,5.82,4.96,11.7,7.66,17.45c0.72,1.54,2.27,2.7,3.21,3.77c-1.68,0-4.17,0-6.59,0
	c-0.84-2.24-1.63-4.56-2.6-6.79c-0.23-0.52-1.05-0.96-1.66-1.08c-0.93-0.18-1.93-0.05-2.89-0.05c-4.59,0-5.55,0.71-6.37,5.23
	c-0.15,0.81,0.54,1.78,0.91,2.9c-1.79,0-4.2,0-6.61,0c-4.44,0-8.89-0.09-13.33,0.03c-3.18,0.09-5.62-1.01-7.44-3.61
	c-0.88-1.26-2.02-2.38-2.76-3.71c-1.24-2.21-2.95-3.13-5.65-2.52c0,2.32-0.25,4.76,0.12,7.1c0.16,1,1.62,1.79,2.32,2.51
	c-2.61,0-5.84,0-8.31,0c0.45-1.37,1.42-3.05,1.5-4.76c0.22-4.83,0.05-9.67,0.09-14.5c0.02-2.3,0.27-4.67-2.37-4.5
	c3.81,0,8.36-0.37,12.82,0.1c5.28,0.55,6.97,5.32,3.69,9.55c-0.82,1.06-1.84,1.97-3,3.21c2.62,2.9,5.21,5.86,7.93,8.71
	c0.7,0.74,1.71,1.37,2.69,1.61c1.86,0.45,3.44,0.28,3.41-2.4c-0.05-6.09,0.14-12.18,0.02-18.27
	C559.73,495.59,558.6,494.63,558.03,493.73z M538.94,495.56c0,3.67,0,7.1,0,10.66c2.33,0.22,4.6,0.91,6.18-1.37
	c1.57-2.28,1.6-4.74,0.27-7.1C543.98,495.25,541.59,495.11,538.94,495.56z M576.53,508.04c2.38,0,4.53,0,6.92,0
	c-1.1-2.77-2.14-5.37-3.42-8.61C578.72,502.64,577.66,505.24,576.53,508.04z"/>
<path class="st3" d="M100.8,168.29c-1.83-1.11-0.99-2.11,0.1-3.15c5.24-5.03,10.44-10.09,15.71-15.08c1.2-1.13,2.62-2.02,3.94-3.03
	c7.21,0.13,14.38,0.41,21.12,3.43c0.34,0.15,0.64,0.37,0.96,0.56c-0.49,0.58-0.92,1.26-1.5,1.74c-5.2,4.33-10.48,8.56-15.6,12.97
	c-1.14,0.98-1.77,2.54-2.64,3.83c-5.81-0.57-11.63-1.15-17.44-1.72c-0.73,0.06-1.45,0.11-2.18,0.17
	C102.45,168.11,101.62,168.2,100.8,168.29z"/>
<path class="st16" d="M147.95,324.02c-0.66,0.3-1.49,0.43-1.94,0.92c-4.33,4.68-8.63,9.4-12.85,14.18
	c-0.56,0.63-0.64,1.69-0.94,2.55c-2.86-0.81-5.73-1.61-8.59-2.42c-4.51-2-9.01-4.01-13.52-6.01c3.12-3.93,6.12-7.96,9.4-11.75
	c1.64-1.89,3.79-3.34,5.71-4.99c4.03,1.44,8.06,2.88,12.1,4.31C140.86,321.89,144.41,322.96,147.95,324.02z"/>
<path class="st17" d="M154.26,609.14c0.75,3.33,1.99,6.65,2.12,10.01c0.2,5.23,2.99,9.33,4.85,13.86c0.96,2.12,1.93,4.25,2.89,6.37
	c-0.58,1.66-0.98,3.42-1.79,4.97c-0.89,1.69-1.14,3.39-1.54,5.2c-0.92,4.16-1.06,7.88,0.92,11.66c0.08,0.16-0.37,0.6-0.57,0.91
	c-8.53-7.37-14.89-16.28-18.99-26.78c1.08-0.68,2.55-1.12,3.16-2.09c1.52-2.41,2.6-5.09,3.96-7.6c1.06-1.95,2.77-3.69,3.31-5.76
	C153.51,616.4,153.74,612.73,154.26,609.14z"/>
<path class="st18" d="M122.89,169.57c0.87-1.29,1.5-2.86,2.64-3.83c5.13-4.41,10.41-8.64,15.6-12.97c0.58-0.48,1-1.16,1.5-1.74
	c1.94,0.95,3.88,1.89,5.83,2.84c1.35,0.59,2.7,1.18,4.05,1.77c0,0,0.01,0,0.01,0c1.13,0.96,2.29,1.89,3.39,2.89
	c1.03,0.94,2,1.94,3,2.91c-2.46,1.4-5.12,2.55-7.35,4.25c-3.87,2.97-7.51,6.25-11.18,9.47c-0.6,0.52-0.87,1.42-1.29,2.14
	C133.69,174.73,128.29,172.15,122.89,169.57z"/>
<path class="st19" d="M139.08,177.31c0.42-0.72,0.69-1.62,1.29-2.14c3.67-3.22,7.31-6.5,11.18-9.47c2.23-1.71,4.88-2.85,7.35-4.25
	c5.07,3.53,8.84,8.26,12.22,13.34c-0.28,0.06-0.63,0.04-0.84,0.2c-5.39,4.15-10.79,8.29-16.12,12.52c-0.43,0.34-0.38,1.3-0.55,1.97
	c-2.95-2.64-5.86-5.34-8.87-7.91C142.95,180.03,140.98,178.72,139.08,177.31z"/>
<path class="st3" d="M466.62,429.04c-1.52-7.35-7.4-3.16-11.34-4.95c0,5.31-0.05,10.09,0.06,14.87c0.01,0.63,0.68,1.41,1.25,1.85
	c3.59,2.82,10.22,0.88,11.63-3.36c0.11-0.34,0.3-0.65,1.13-0.88c-0.28,2.42-0.45,4.86-0.93,7.25c-0.09,0.47-1.33,1.01-2.04,1
	c-2.99-0.03-5.97-0.38-8.96-0.39c-3.47-0.02-6.94,0.22-10.41,0.28c-0.84,0.01-1.69-0.24-2.69-0.84c4.75-0.34,4.22-3.72,4.24-6.58
	c0.07-8.8-0.04-17.6,0.06-26.4c0.04-3.02-0.53-5.21-4.16-5.06c-0.15,0.01-0.31-0.19-0.45-0.32c-0.06-0.05-0.06-0.17-0.23-0.75
	c8.1,0,16.07,0,24.24,0c-0.21,2.23-0.45,4.79-0.7,7.36c-2.02-6.85-7.68-3.49-11.99-4.59c0,4.74,0,9.22,0,14.24
	c3.82-0.23,7.64-0.46,11.84-0.72C467.03,423.23,466.83,426.14,466.62,429.04z"/>
<path class="st20" d="M153.62,189.46c0.17-0.67,0.12-1.62,0.55-1.97c5.33-4.23,10.73-8.37,16.12-12.52c0.21-0.16,0.55-0.13,0.84-0.2
	c3.58,5.05,7.6,9.86,8.75,16.22c-1.24,1.4-2.31,3.02-3.75,4.16c-4.04,3.19-8.23,6.18-12.36,9.24
	C160.38,199.43,157,194.45,153.62,189.46z"/>
<path class="st6" d="M777.92,511.54c0-5.39,0.14-10.36-0.13-15.31c-0.05-0.93-1.73-1.77-2.49-2.49c5.12,0,10.66,0,15.38,0
	c1.11,4.45,4.11,7.63,5.96,11.49c4.6-5.95,6.08-9.41,4.94-11.41c1.15,0,2.3,0.02,3.44-0.01c1.16-0.03,2.31-0.11,3.21-0.16
	c-6.15,5.52-10.92,11.76-10.06,20.91c0.23,2.41,1.46,3.03,3.42,3.37c-3.38,0-6.77,0-9.33,0c0.46-1.24,1.2-2.55,1.44-3.95
	c1.38-7.84-4.01-12.88-7.96-18.45c-0.59-0.84-2.4-1.18-3.58-1.07c-0.54,0.05-1.29,1.74-1.33,2.72c-0.24,6.08-0.3,12.16-0.44,18.25
	c-0.02,1.01-0.1,2.02-0.15,3.03c-0.26,0.14-0.52,0.28-0.78,0.42c-6.16-5.96-12.31-11.92-18.63-18.04c0,5.01-0.14,9.7,0.12,14.36
	c0.05,0.98,1.59,1.88,2.31,2.67c-2.31,0-5.19,0-8.07,0c2.77-0.33,2.72-2.43,2.72-4.49c0-6.65,0-13.3,0-19.96
	c0.32-0.14,0.65-0.29,0.97-0.43C765.14,499.1,771.41,505.2,777.92,511.54z"/>
<path class="st21" d="M215.2,672.57c-4.65-1.17-9.3-2.33-13.94-3.5c4.89-5.76,9.77-11.53,14.66-17.29
	c-0.15-0.24-0.31-0.48-0.46-0.72c-1.41,0-2.83,0.07-4.23-0.02c-2.34-0.14-4.68-0.39-7.02-0.59c10.42,0.51,20.68-0.55,30.79-3.16
	c0.55-0.14,1.14-0.1,1.72-0.14c-2.09,2.9-4.03,5.92-6.29,8.68c-3.46,4.22-7.1,8.29-10.73,12.35
	C218.29,669.74,216.7,671.11,215.2,672.57z"/>
<path class="st22" d="M184.44,235.8c-2.29,1.62-4.6,3.2-6.86,4.85c-1.94,1.41-3.8,2.94-5.76,4.33c-1.13,0.8-2.02,0.74-1.89-1.01
	c-0.23-6.9-0.47-13.79-0.68-20.69c-0.03-0.86,0.06-1.72,0.1-2.58c4.24-2.87,8.52-5.7,12.7-8.65c1.1-0.78,1.92-1.95,2.87-2.94
	c0.05,7.76,0.12,15.52,0.12,23.29C185.04,233.53,184.65,234.67,184.44,235.8z"/>
<path class="st3" d="M500.37,407.76c-3.25,0.19-6.38,0.06-9.36,0.67c-1.5,0.31-2.72,1.96-4.46,3.32c0.4-2.41,0.81-4.82,1.21-7.24
	c10.84,0,21.5,0,32.18,0c0,2.48,0,5.1,0,7.73c-2.63-6.57-8.31-3.41-12.57-4.55c-0.25,0.56-0.46,0.81-0.46,1.06
	c0,9.58-0.07,19.15,0.08,28.73c0.07,4.76,0.26,4.76,5.18,6.46c-5.24,0-10.48,0-15.73,0c4.53-0.7,3.91-4.14,3.92-7.21
	C500.38,427.16,500.37,417.59,500.37,407.76z"/>
<path class="st6" d="M278.87,487.81c3.97,8.1,7.59,15.49,11.42,23.31c3.81-7.88,7.38-15.28,10.96-22.68
	c0.24,0.02,0.47,0.04,0.71,0.06c0.53,3.36,1.08,6.71,1.59,10.08c0.72,4.76,1.36,9.54,2.15,14.28c0.65,3.9,0.73,3.88,4.29,4.9
	c-2.84,0-5.73,0-8.37,0c-0.83-6.37-1.62-12.41-2.41-18.45c-0.21-0.03-0.41-0.07-0.62-0.1c-3.05,6.24-6.09,12.48-9.52,19.5
	c-3.38-6.79-6.44-12.93-9.85-19.77c-0.82,5.92-1.68,11.1-2.11,16.3c-0.07,0.9,1.68,1.96,2.38,2.73c-2.34,0-5.21,0-7.34,0
	c0.66-1.19,1.94-2.57,2.21-4.12c1.35-7.78,2.43-15.61,3.63-23.42C278.11,489.77,278.42,489.15,278.87,487.81z"/>
<path class="st20" d="M196.23,483.28c3.59,1.1,7.18,2.2,10.77,3.31c1.97,0.8,3.94,1.6,5.91,2.4c-0.53,1.01-0.88,2.19-1.63,2.99
	c-4.13,4.46-8.35,8.83-12.57,13.2c-0.36,0.37-1.02,0.47-1.54,0.69c-1.38-0.37-2.76-0.73-4.14-1.1c-4.62-1.34-9.24-2.68-13.86-4.02
	c1.24-0.6,2.72-0.94,3.66-1.85c2.83-2.74,5.53-5.61,8.11-8.59C192.85,488.09,194.48,485.63,196.23,483.28z"/>
<path class="st8" d="M147.95,324.02c-3.55-1.06-7.09-2.13-10.64-3.19c1.07-1.64,2.14-3.28,3.21-4.92c0.31-0.39,0.62-0.78,0.93-1.17
	c0,0-0.03,0.03-0.03,0.03c1.94-1.89,3.89-3.78,5.81-5.68c0.61-0.6,1.17-1.26,1.74-1.89c1.39,0.59,2.8,1.72,4.16,1.67
	c3.71-0.13,7.39-0.84,11.1-1.15c1.87-0.16,3.76,0.04,5.64,0.08c-1.85,3.32-3.65,6.66-5.56,9.95c-1.68,2.89-3.47,5.72-5.21,8.58
	c-3.36-0.76-6.73-1.51-10.09-2.27c-0.21-0.02-0.41-0.05-0.62-0.07C148.26,324,148.11,324.01,147.95,324.02z"/>
<path class="st23" d="M196.23,483.28c-1.75,2.35-3.38,4.81-5.29,7.02c-2.57,2.98-5.28,5.86-8.11,8.59
	c-0.94,0.91-2.43,1.25-3.66,1.85c-0.37-0.07-0.74-0.14-1.11-0.2c-0.19-0.03-0.37-0.06-0.56-0.1c-2.14-0.51-4.29-1.02-6.43-1.54
	c-1.92-0.6-3.85-1.19-5.77-1.79c0.38-0.67,0.66-1.43,1.17-1.99c4.2-4.65,8.46-9.24,12.65-13.89c0.75-0.83,1.26-1.86,1.89-2.8
	c1.36,0.22,2.73,0.44,4.09,0.65c3.63,1.37,7.27,2.74,10.9,4.11c-0.03,0.12-0.07,0.25-0.1,0.37c0.1-0.1,0.2-0.2,0.3-0.3
	L196.23,483.28z"/>
<path class="st22" d="M181.01,478.44c-0.62,0.94-1.14,1.97-1.89,2.8c-4.19,4.65-8.45,9.25-12.65,13.89
	c-0.5,0.56-0.78,1.32-1.17,1.99c-0.41-0.17-0.83-0.33-1.24-0.5c-3.49-3.8-6.97-7.59-10.46-11.39c0.5-0.89,0.88-1.87,1.51-2.64
	c2.59-3.12,5.24-6.2,7.94-9.23c0.37-0.42,1.17-0.45,1.76-0.66C170.22,474.61,175.61,476.52,181.01,478.44z"/>
<path class="st17" d="M231.53,387.95c-5.47,1.57-10.89,2-16.34-0.2c-0.47-0.19-1.44,0.88-2.18,1.37c-0.32-2.08-0.44-4.21-1-6.22
	c-1.14-4.1-2.5-8.14-3.78-12.2c-0.22-0.24-0.44-0.48-0.66-0.72c-0.14-0.4-0.27-0.79-0.41-1.19c1.2-1.54,2.5-2.07,4.45-1.05
	c0.87,0.45,2.23,0.31,3.26,0.03c1.73-0.47,3.38-1.25,5.07-1.9c5.01,6.23,8.47,13.32,11.47,20.66
	C231.58,386.95,231.5,387.47,231.53,387.95z"/>
<path class="st3" d="M250.73,515.11c-4.63,4.77-9.25,9.56-13.9,14.31c-0.56,0.57-1.29,0.96-1.95,1.43
	c-3.9-3.66-7.79-7.33-11.69-10.99c5.09-5.25,10.18-10.5,15.27-15.75c1.64,1.15,3.44,2.14,4.89,3.5
	C245.93,509.99,248.28,512.59,250.73,515.11z"/>
<path class="st23" d="M184.93,209.11c-0.95,0.99-1.77,2.16-2.87,2.94c-4.19,2.95-8.46,5.78-12.7,8.65
	c-0.78-2.74-1.44-5.52-2.36-8.21c-0.94-2.74-2.14-5.39-3.22-8.08c4.13-3.07,8.32-6.06,12.36-9.24c1.45-1.14,2.51-2.76,3.75-4.16
	c0.34,0.3,0.89,0.55,0.97,0.91C182.24,197.64,183.58,203.38,184.93,209.11z"/>
<path class="st19" d="M197.18,505.86c0.52-0.22,1.18-0.31,1.54-0.69c4.23-4.37,8.44-8.74,12.57-13.2c0.75-0.81,1.1-1.99,1.63-2.99
	c4.66,2.3,9.31,4.59,13.97,6.89c-0.21,0.53-0.3,1.16-0.66,1.56c-2.88,3.22-5.74,6.47-8.74,9.57c-1.83,1.89-3.91,3.53-5.87,5.29
	C206.8,510.15,201.99,508.01,197.18,505.86z"/>
<path class="st24" d="M159.01,587.69c0.08-0.76,0.17-1.52,0.25-2.29c3.27-1.04,6.56-2.01,9.8-3.15c2.82-0.99,6.31-1.15,6.76-5.43
	c1.41,1.63,2.47,2.88,3.66,4.26c0.39-0.79,0.55-1.13,0.72-1.47c0.23-0.49,0.67-0.97,0.67-1.46c0.02-4.71-0.02-9.43-0.05-14.14
	c0.4,0.26,0.91,0.44,1.17,0.8c1.99,2.74,4.07,5.43,5.83,8.31c1.17,1.91,2.43,2.31,4.5,1.71c6.95-2.01,13.89-4.05,20.92-5.74
	c4.88-1.17,8.19-3.55,9.05-8.71c0.02-0.1,0.25-0.17,0.38-0.25c2.97,3.31,4.8,3.95,9.25,2.95c5.46-1.22,10.89-2.54,16.34-3.82
	c0.19,0.98,0.38,1.96,0.57,2.94c-4.88,1.1-9.71,2.58-14.65,3.19c-3.51,0.43-7.17-0.3-10.74-1.17c-0.15,0.1-0.41,0.18-0.44,0.31
	c-1.05,4.37-4.07,6.2-8.24,7.33c-6.58,1.79-13.02,4.14-19.51,6.27c-3.86,1.26-5.34,0.74-7.73-2.54c-1.22-1.67-2.61-3.2-4.54-5.54
	c-0.71,5.39-1.3,9.87-1.94,14.77c-1.59-1.5-2.89-2.73-3.67-3.46c-1.56,1.02-2.72,2.21-4.11,2.62
	C168.55,585.36,163.76,586.47,159.01,587.69z"/>
<path class="st24" d="M168.87,248.63c-0.12,0.95-0.24,1.89-0.36,2.84c-3.05,0.77-6.07,1.67-9.15,2.26
	c-1.38,0.26-2.87-0.09-4.65-0.17c-0.27,0.93-0.79,2.69-1.35,4.6c-2.97-3.81-5.68-7.28-8.39-10.76c-0.26,0.04-0.52,0.08-0.78,0.12
	c-0.54,3.06-1.22,6.11-1.58,9.19c-0.2,1.72-0.91,2.52-2.55,2.89c-7.41,1.68-14.83,3.33-22.19,5.22c-3.63,0.93-6.9,1.11-9.86-1.66
	c-0.36-0.33-1.66-0.09-2.21,0.31c-2.48,1.78-4.61,4.23-7.31,5.47c-4.61,2.12-9.54,3.51-14.34,5.21c-0.27-0.96-0.53-1.91-0.8-2.87
	c4.76-1.57,9.51-3.16,14.27-4.72c3.86-1.26,7.14-3.05,7.09-8.83c4,6.13,8.81,5.18,13.86,3.64c6.82-2.07,13.71-3.91,20.56-5.9
	c0.81-0.23,1.54-0.76,2.3-1.14c0.26-4.6,0.51-9.19,0.77-13.79c0.02-0.35,0.04-0.71,0.1-1.69c3.47,5.51,6.62,10.52,10.22,16.23
	c0.45-2.45,0.77-4.14,1.17-6.32c2.08,2.58,4.27,2.38,6.74,1.66C163.17,249.62,166.04,249.21,168.87,248.63z"/>
<path class="st18" d="M211.62,512.29c1.97-1.75,4.04-3.4,5.87-5.29c3.01-3.1,5.86-6.35,8.74-9.57c0.36-0.4,0.44-1.03,0.66-1.56
	c3.86,2.74,7.72,5.49,11.58,8.23c-5.09,5.25-10.18,10.5-15.27,15.75C219.33,517.34,215.48,514.82,211.62,512.29z"/>
<path class="st9" d="M219.94,365.86c-1.68,0.65-3.33,1.44-5.07,1.9c-1.03,0.28-2.39,0.42-3.26-0.03c-1.95-1.01-3.25-0.48-4.45,1.05
	c-2.53-4.1-5.06-8.21-7.59-12.31c-3.1-3.94-6.13-7.94-9.33-11.8c-2.41-2.9-5.05-5.61-7.58-8.41c3.4,1.7,6.99,3.12,10.17,5.16
	c8.12,5.23,15.71,11.16,22.22,18.36C216.78,361.72,218.31,363.83,219.94,365.86z"/>
<path class="st6" d="M427.81,506.04c-4.63,0-8.85,0-13.28,0c0,3.09-0.25,6.1,0.13,9.02c0.15,1.13,1.72,2.07,2.42,2.86
	c-2.65,0-6.05,0-8.67,0c0.47-1.15,1.45-2.48,1.49-3.84c0.18-5.7,0.2-11.42-0.01-17.12c-0.04-1.15-1.38-2.25-1.99-3.16
	c2.46,0,5.74,0,8.9,0c-4.61,2.45-1.22,6.72-2.54,10.17c4.72,0,9.01,0,13.55,0c0-2.58,0.24-5.1-0.11-7.54
	c-0.15-1.02-1.54-1.87-2.2-2.61c2.67,0,5.93,0,8.44,0c-0.48,1.04-1.51,2.27-1.55,3.54c-0.18,5.41-0.11,10.83-0.06,16.25
	c0.02,2.18-0.02,4.54,3.31,4.3c-3.47,0-6.93,0-9.58,0c0.5-1.17,1.48-2.62,1.67-4.17C428.04,511.26,427.81,508.73,427.81,506.04z"/>
<path class="st6" d="M501.67,518.17c0.63-1.19,1.57-2.16,1.6-3.16c0.19-6.17,0.27-12.35,0.11-18.52c-0.02-0.97-1.43-1.9-2.41-3.1
	c5.98,0.38,12.36,0.23,18.51,1.33c6,1.07,8.66,5.72,8.28,12.09c-0.34,5.64-4.45,10.36-10.23,11.22c-2.71,0.4-5.53,0.13-8.3,0.14
	C506.55,518.18,503.85,518.17,501.67,518.17z M507.99,495.71c0,5.26,0,10.37,0,15.48c0,0.97-0.29,2.12,0.13,2.86
	c0.62,1.09,1.68,2.56,2.7,2.68c9.97,1.22,13.77-4.49,11.83-13.5C521.36,497.26,515.93,494.63,507.99,495.71z"/>
<path class="st6" d="M452.44,493.06c8.13,0,13.62,4.83,13.73,12.08c0.11,7.67-6.06,13.5-14.25,13.49
	c-7.74-0.02-13.66-5.55-13.64-12.75C438.29,498.46,444.25,493.06,452.44,493.06z M461.14,506.6c0.18-0.07,0.36-0.14,0.54-0.22
	c-0.93-2.58-1.5-5.37-2.87-7.69c-1.95-3.31-5.33-4.33-9.06-3.81c-3.07,0.43-5.01,2.38-5.93,5.27c-1.33,4.16-0.95,8.21,1.22,12
	c2.08,3.62,6.35,5.48,10.14,4.59c3.26-0.77,5.37-3.74,5.79-8.13C461.04,507.95,461.09,507.28,461.14,506.6z"/>
<path class="st6" d="M377.3,505.23c0.04,7.7-6.17,13.5-14.34,13.4c-7.77-0.1-13.64-5.65-13.56-12.83
	c0.09-7.33,5.9-12.63,13.96-12.74C371.6,492.96,377.27,497.91,377.3,505.23z M372.23,506.56c0.18-0.06,0.35-0.12,0.53-0.18
	c-0.86-2.51-1.42-5.18-2.66-7.48c-1.73-3.23-5.85-4.72-9.55-3.99c-3.14,0.62-5.44,3.06-5.91,7c-0.29,2.43-0.26,5.04,0.31,7.41
	c1.24,5.11,5.63,8.05,10.54,7.54c4-0.42,6.48-3.88,6.73-9.42C372.24,507.14,372.23,506.85,372.23,506.56z"/>
<path class="st6" d="M739.49,493.06c8.14,0.05,13.61,4.95,13.62,12.2c0.01,7.71-6.21,13.5-14.37,13.37
	c-7.78-0.12-13.64-5.69-13.53-12.86C725.32,498.33,731.31,493.01,739.49,493.06z M748.04,506.54c0.16-0.05,0.33-0.11,0.49-0.16
	c-0.81-2.42-1.33-5-2.5-7.24c-1.81-3.45-5.84-5-9.68-4.23c-3.13,0.63-5.43,3.07-5.9,7.01c-0.29,2.43-0.26,5.04,0.32,7.4
	c1.25,5.11,5.65,8.05,10.55,7.53c4-0.42,6.47-3.89,6.71-9.43C748.05,507.12,748.04,506.83,748.04,506.54z"/>
<path class="st6" d="M474.46,500.8c0,4.99-0.16,9.6,0.12,14.17c0.06,1.07,1.61,2.04,2.36,2.93c-2.35,0-5.25,0-8.15,0
	c2.64-0.29,2.79-2.19,2.78-4.28c-0.03-6.74-0.01-13.48-0.01-20.22c0.33-0.13,0.66-0.27,0.98-0.4c6.26,6.1,12.52,12.2,19.03,18.53
	c0-5.41,0.14-10.39-0.13-15.34c-0.05-0.92-1.74-1.74-2.52-2.47c2.26,0,4.93,0,8.09,0c-3.35,1.1-2.7,3.69-2.77,5.82
	c-0.18,5.41-0.13,10.83-0.19,16.24c-0.01,0.91-0.12,1.82-0.19,2.72c-0.25,0.12-0.5,0.24-0.76,0.36
	C486.97,512.93,480.84,506.99,474.46,500.8z"/>
<path class="st25" d="M204.2,650.45c2.34,0.2,4.67,0.44,7.02,0.59c1.41,0.09,2.82,0.02,4.23,0.02c0.15,0.24,0.31,0.48,0.46,0.72
	c-4.89,5.76-9.77,11.53-14.66,17.29c-3.15-1.31-6.35-2.53-9.41-4.05c-0.46-0.23-0.71-2.13-0.29-2.71c2.23-3.08,4.77-5.95,7.07-8.99
	c0.7-0.92,1.02-2.13,1.51-3.22C201.5,650.22,202.85,650.34,204.2,650.45z"/>
<path class="st6" d="M789.1,427.16c-24.39,0-49.78,0-75.34,0c0-1.24,0-2.64,0-4.41C739.24,424.23,764.73,425.73,789.1,427.16z"/>
<path class="st6" d="M403.35,493.59c0,2.65,0,4.38,0,5.47c-1.63-1.21-3.31-3.18-5.38-3.8c-2.17-0.65-4.83-0.42-7.08,0.18
	c-3.97,1.05-5.65,4.74-5.45,10.64c0.17,4.85,3.38,8.98,7.95,10.2c4.63,1.25,7.55,0.16,9.94-3.7c0.25,4.84-0.12,5.48-4.71,5.87
	c-5.93,0.51-11.69-0.1-15.71-5.25c-5.73-7.34-1.44-18.31,7.77-19.53C394.79,493.14,399.04,493.59,403.35,493.59z"/>
<path class="st6" d="M361.52,422.89c0,1.64,0,2.96,0,4.43c-23.73,0-47.36,0-70.99,0c0-0.09-0.01-0.19-0.01-0.28
	C314.11,425.65,337.69,424.28,361.52,422.89z"/>
<path class="st6" d="M341.73,517.97c-2.91,0-6.27,0-8.96,0c0.51-1.12,1.53-2.36,1.57-3.63c0.17-6.16,0.08-12.33,0.08-18.93
	c-3.26,0.63-6.8-1.21-9.61,3.08c0.41-2.2,0.67-3.59,0.95-5.08c7.31,0,14.55,0,21.89,0c0,1.47,0,2.99,0,4.84
	c-1.98-3.99-5.5-2.18-8.59-2.97c0,6.88-0.1,13.52,0.12,20.15C339.19,516.32,340.86,517.15,341.73,517.97z"/>
<path class="st17" d="M187.36,645.9c-0.34,1.05-0.45,2.25-1.06,3.11c-1.92,2.68-4.03,5.23-6.61,8.53c-3.05-3.5-5.84-6.7-8.62-9.9
	c1.59-3.15,5.28-5.11,5.22-9.19C179.98,640.92,183.67,643.41,187.36,645.9z"/>
<path class="st2" d="M176.29,638.44c0.06,4.09-3.63,6.04-5.22,9.19c-1.78-2.21-3.55-4.43-5.35-6.63c-0.48-0.58-1.06-1.08-1.59-1.62
	c-0.96-2.12-1.93-4.25-2.89-6.37c1.76-1.98,3.52-3.96,5.28-5.94c2.33,2.76,4.66,5.52,7,8.27c0.73,0.85,1.49,1.68,2.23,2.52
	c0.13,0.14,0.26,0.28,0.39,0.42L176.29,638.44z"/>
<path class="st6" d="M313.69,517.82c0.45-0.92,1.38-1.98,1.41-3.07c0.19-5.97,0.24-11.95,0.11-17.93c-0.02-1.07-1.11-2.12-1.64-3.06
	c2.36,0,5.37,0,7.72,0c-0.45,1.17-1.39,2.56-1.44,3.97c-0.18,5.4-0.02,10.8-0.1,16.2c-0.03,2.27,0.44,3.88,3.19,3.88
	C319.65,517.82,316.34,517.82,313.69,517.82z"/>
<path class="st26" d="M142.19,240.54c-0.26,4.6-0.51,9.19-0.77,13.79C141.68,249.74,141.93,245.14,142.19,240.54z"/>
<path class="st3" d="M152.51,155.64c-1.35-0.59-2.7-1.18-4.05-1.77C149.8,154.46,151.16,155.05,152.51,155.64z"/>
<path class="st4" d="M103.27,168.02c0.73-0.06,1.45-0.11,2.18-0.17C104.72,167.91,104,167.96,103.27,168.02z"/>
<path class="st2" d="M165.67,625.51c-0.14-0.39-0.27-0.78-0.41-1.17C165.4,624.73,165.53,625.12,165.67,625.51z"/>
<path class="st2" d="M166.22,626.09c-0.13-0.13-0.27-0.27-0.4-0.4C165.95,625.83,166.08,625.96,166.22,626.09z"/>
<path class="st14" d="M173.91,332.23c-0.16-0.11-0.31-0.23-0.47-0.34C173.59,332,173.75,332.11,173.91,332.23z"/>
<path class="st17" d="M141.68,634.22c0.09,0.25,0.19,0.51,0.28,0.76C141.87,634.73,141.78,634.47,141.68,634.22z"/>
<path class="st17" d="M176.13,638.28c-0.13-0.14-0.26-0.28-0.39-0.42C175.87,638,176,638.14,176.13,638.28z"/>
<path class="st17" d="M153.64,602.28c0.02,0.57,0.04,1.14,0.05,1.71C153.67,603.42,153.66,602.85,153.64,602.28z"/>
<path class="st17" d="M153.67,606.86c0.2,0.6,0.4,1.21,0.59,1.81C154.07,608.07,153.87,607.46,153.67,606.86z"/>
<path class="st17" d="M153.67,605.16c-0.01,0.38-0.01,0.76-0.02,1.15C153.66,605.92,153.66,605.54,153.67,605.16z"/>
<path class="st20" d="M177.5,500.44c0.19,0.03,0.37,0.06,0.56,0.09C177.88,500.5,177.69,500.47,177.5,500.44z"/>
<path class="st17" d="M153.68,603.97c0,0.22,0,0.44-0.01,0.66C153.68,604.41,153.68,604.19,153.68,603.97z"/>
<path class="st15" d="M118.71,418.27c0.62,2.92,1.22,5.85,1.86,8.76c0.16,0.73,0.43,1.44,0.65,2.16c0.16,0.55,0.31,1.09,0.47,1.64
	c0.57,1.89,1.01,3.83,1.73,5.66c2.21,5.58,5.26,10.67,9.51,14.96c0.4,0.51,0.79,1.03,1.19,1.54c5.4,4.36,10.54,9.13,16.3,12.93
	c4.38,2.89,9.57,4.56,14.4,6.77c-0.6,0.21-1.39,0.25-1.76,0.66c-2.7,3.03-5.35,6.11-7.94,9.23c-0.64,0.77-1.02,1.76-1.51,2.64
	c-3.56-4.02-7.35-7.87-10.64-12.1c-8.4-10.84-15.92-22.25-20.61-35.25C120.09,431.58,118.48,425.07,118.71,418.27z"/>
<path class="st24" d="M120.23,395.97c4.23-1.27,8.46-2.53,13.04-3.91c0.16-2.56,0.34-5.49,0.55-8.82c1.66,2.2,3.13,4.16,4.72,6.27
	c10.22-4.16,19.93-9.46,31.48-10.86c-0.78-4.29-1.56-8.62-2.45-13.57c2.87,3.58,5.39,6.72,7.53,9.39c1.71-1.23,2.95-2.43,4.43-3.11
	c3.4-1.55,6.92-2.84,10.4-4.24c0.27,0.04,0.54,0.09,0.81,0.13c0.45,0.56,0.9,1.11,1.36,1.67c-3.42,1.75-6.8,3.58-10.26,5.24
	c-2.65,1.26-5.24,2.41-4.25,6.31c-2.25-3.06-4.51-6.12-6.76-9.18c-0.17,0.07-0.34,0.14-0.5,0.21c0.67,4.02,1.33,8.04,2,12.06
	c-2.43-3.24-5.15-1.99-7.93-0.91c-7.07,2.75-14.14,5.54-21.3,8.04c-2.32,0.81-2.69,1.98-2.19,4.05c0.29,1.2,0.35,2.46,0.51,3.69
	l0.03-0.02c-1.72-3-3.44-6.01-5.17-9.01c-0.22,0.04-0.45,0.09-0.67,0.13c-0.15,1.84-0.29,3.68-0.45,5.64
	c-5.11,1.14-10.15,2.26-15.2,3.38C120.05,397.7,120.14,396.83,120.23,395.97z"/>
<path class="st27" d="M211.67,410.04c-0.82-5.02-1.64-10.04-2.46-15.07c-0.28-0.44-0.57-0.88-0.85-1.33
	c-1.76-7.67-6.12-13.88-11.16-19.68c-1.56-1.8-3.39-3.37-5.1-5.05c-0.45-0.55-0.91-1.11-1.36-1.67c0.99-4.15,4.66-6.02,7.35-8.73
	c0.59-0.59,1-1.36,1.49-2.04c2.53,4.1,5.06,8.21,7.59,12.31c0.14,0.4,0.27,0.79,0.41,1.19c0.22,0.24,0.44,0.48,0.66,0.72
	c1.27,4.06,2.64,8.1,3.78,12.2c0.56,2.01,0.68,4.14,1,6.22c0.99,7.34,1.36,14.65-1.4,21.75c0,0-0.06-0.15-0.06-0.15
	C211.58,410.49,211.63,410.26,211.67,410.04z"/>
<path class="st24" d="M132.93,451.45c6.65-2.22,13.32-4.38,19.92-6.72c0.8-0.29,1.7-1.5,1.79-2.37c0.25-2.25,0.08-4.55,0.08-7.72
	c2.09,2.76,3.62,4.78,5.19,6.84c10.37-4.24,20.15-9.66,31.54-10.84c-0.79-4.29-1.58-8.55-2.51-13.57c2.94,3.67,5.43,6.76,7.47,9.3
	c1.88-1.25,3.32-2.51,4.99-3.25c3.16-1.4,6.46-2.5,9.7-3.72c-0.06,0.97-0.12,1.94-0.18,2.91c-2.59,1.3-5.12,2.71-7.78,3.85
	c-2.68,1.16-5.01,2.37-4.28,6.1c-2.17-2.94-4.35-5.88-6.52-8.82c-0.21,0.08-0.41,0.17-0.62,0.25c0.66,4,1.33,8,1.99,12.01
	c-2.33-3.56-5.26-2.18-8.06-1.12c-7.92,2.98-15.81,6.02-23.85,9.09c0.42,2.31,0.79,4.37,1.17,6.43c-0.13,0.05-0.26,0.11-0.38,0.16
	c-1.61-2.92-3.23-5.84-4.84-8.76c-0.26,0.04-0.52,0.08-0.79,0.12c-0.2,1.8-0.4,3.61-0.56,5.13c-7.5,2.1-14.88,4.17-22.27,6.24
	C133.72,452.48,133.33,451.96,132.93,451.45z"/>
<path class="st20" d="M196.21,483.28c-0.1,0.1-0.2,0.2-0.3,0.3c0.03-0.12,0.07-0.25,0.1-0.37C196,483.2,196.21,483.28,196.21,483.28
	z"/>
<path class="st8" d="M149.38,306.58c0.07-0.17,0.16-0.33,0.27-0.47C149.57,306.26,149.48,306.42,149.38,306.58z"/>
<path class="st16" d="M132.5,341.59c1.44,0.54,2.88,1.08,4.31,1.62C135.38,342.67,133.94,342.13,132.5,341.59z"/>
<path class="st14" d="M158.28,350.54c-0.35-0.13-0.7-0.25-1.05-0.38C157.58,350.29,157.93,350.42,158.28,350.54z"/>
<path class="st16" d="M148.41,323.98c0.21,0.02,0.41,0.05,0.62,0.07C148.82,324.03,148.61,324.01,148.41,323.98z"/>
<path class="st15" d="M140.53,315.91c0.31-0.39,0.62-0.78,0.93-1.17C141.15,315.13,140.84,315.52,140.53,315.91z"/>
<path class="st9" d="M208.23,370.7c-0.22-0.24-0.44-0.48-0.66-0.72C207.79,370.22,208.01,370.46,208.23,370.7z"/>
<path class="st26" d="M180.2,579.62c0.03-2.61,0.07-5.22,0.1-7.83c0,0,0-0.02,0-0.02c0.17-2.59,0.35-5.17,0.52-7.76
	c0.03,4.71,0.07,9.43,0.05,14.14C180.86,578.64,180.43,579.13,180.2,579.62z"/>
<polygon class="st24" points="180.3,571.77 180.3,571.79 180.18,571.77 "/>
<path class="st24" d="M208.35,393.64c0.28,0.44,0.57,0.88,0.85,1.33c-5.68,2.87-11.31,5.83-17.06,8.56
	c-2.72,1.29-5.32,2.37-3.83,7.01c-2.84-3.7-5.01-6.53-7.19-9.37c-0.2-0.21-0.39-0.43-0.59-0.64c0.03,0.35,0.07,0.69,0.1,1.04
	c0.6,3.89,1.2,7.78,1.93,12.52c-2.5-4.19-5.35-3.09-8.36-1.91c-6.99,2.74-14,5.44-21.06,7.97c-2.21,0.79-2.89,1.84-2.08,4.04
	c0.43,1.15,0.52,2.43,0.45,3.81c-1.75-3.11-3.49-6.22-5.29-9.4c-0.41,0.38-0.63,0.49-0.64,0.61c-0.51,5.48-0.55,5.32-5.84,6.62
	c-6.06,1.49-12.04,3.31-18.06,4.99c-0.16-0.55-0.31-1.09-0.47-1.64c6.92-2.32,13.87-4.56,20.72-7.08c0.89-0.33,1.56-2.08,1.75-3.27
	c0.29-1.84,0.08-3.76,0.08-6.29c1.39,1.84,2.53,3.13,3.41,4.57c1.01,1.65,2.03,1.78,3.8,1.02c6.46-2.78,12.95-5.51,19.54-7.95
	c3.03-1.12,6.33-1.53,9.64-2.3c-0.78-4.02-1.6-8.23-2.42-12.44c0.15-0.09,0.29-0.19,0.44-0.28c2.46,3.09,4.93,6.18,7.69,9.65
	c0.39-3.18,2.76-3.71,4.91-4.52C196.63,398.08,202.49,395.86,208.35,393.64z"/>
<polygon class="st24" points="141.41,398.44 141.52,398.47 141.44,398.42 "/>
<path class="st2" d="M211.67,410.04c-0.04,0.23-0.08,0.46-0.12,0.68C211.58,410.49,211.63,410.26,211.67,410.04z"/>
<path class="st28" d="M180.63,401.57c-0.03-0.35-0.07-0.69-0.1-1.04c0.2,0.21,0.39,0.43,0.59,0.64
	C180.96,401.31,180.79,401.44,180.63,401.57z"/>
<g>
</g>
<g>
</g>
<g>
</g>
<g>
</g>
<g>
</g>
<g>
</g>
</svg>
