<?xml version="1.0" encoding="utf-8"?>
<!-- Generator: Adobe Illustrator 24.3.0, SVG Export Plug-In . SVG Version: 6.00 Build 0)  -->
<svg version="1.1" id="Layer_1" xmlns="http://www.w3.org/2000/svg" xmlns:xlink="http://www.w3.org/1999/xlink" x="0px" y="0px"
	 viewBox="0 0 864 864" style="enable-background:new 0 0 864 864;" xml:space="preserve">
<style type="text/css">
	.st0{fill:#0D0D0D;}
	.st1{fill:#010101;}
	.st2{fill:#4774B9;}
	.st3{fill:#D92927;}
	.st4{fill:#EE3625;}
	.st5{fill:#526CB3;}
	.st6{fill:#45C5E8;}
	.st7{fill:#E53E37;}
	.st8{fill:#638CC8;}
	.st9{fill:#4C65AF;}
	.st10{fill:#5EC9E2;}
	.st11{fill:#274097;}
	.st12{fill:#DA2528;}
	.st13{fill:#445DAA;}
	.st14{fill:#334CA0;}
	.st15{fill:#741A15;}
	.st16{fill:#DA2A2A;}
	.st17{fill:#3B55A5;}
	.st18{fill:#5580C1;}
	.st19{fill:#CD2927;}
	.st20{fill:#BA2526;}
	.st21{fill:#A82123;}
	.st22{fill:#36B6E7;}
	.st23{fill:#821818;}
	.st24{fill:#961D1F;}
	.st25{fill:#EBE236;}
	.st26{fill:#34A3DC;}
	.st27{fill:#2A3A89;}
	.st28{fill:#FFFFFF;}
</style>
<path class="st0" d="M728.75,359.72c-2.19,1.87-20.61,1.56-23.3,0.21c0.16-2.64,0.64-4.99,0.39-7.26
	c-1.49-13.43-3.15-26.84-4.76-40.26c-0.02-0.16-0.18-0.31-0.57-0.94c-7.51,16.81-14.9,33.34-22.28,49.86
	c-0.43,0.01-0.86,0.02-1.29,0.03c-0.97-1.48-2.14-2.87-2.87-4.46c-6.41-14.04-12.74-28.11-19.09-42.17
	c-0.28-0.61-0.54-1.22-1.35-1.84c-0.53,4.5-1.07,9-1.58,13.51c-0.92,8.04-1.82,16.08-2.74,24.11c-0.03,0.29-0.12,0.58-0.13,0.88
	c-0.3,6.33-0.85,6.96,5.59,7.86c0.53,0.07,1.04,0.34,1.63,0.54c-1.49,1.68-36.17,1.97-41.4,0.4c2.99-1.35,2.32-3.34,1.47-5.57
	c-2.05-5.42-3.99-10.89-5.82-16.38c-0.5-1.5-1.22-1.96-2.74-1.94c-6.33,0.07-12.66-0.04-18.98,0.11c-0.85,0.02-2.12,0.92-2.45,1.72
	c-1.74,4.27-3.32,8.62-4.82,12.98c-2.2,6.43-1.56,7.46,5.64,8.57c-0.89,0.72-1.4,1.49-1.91,1.5c-7.01,0.07-14.02,0.06-21.03,0
	c-0.47,0-0.93-0.51-1.86-1.06c1.01-0.42,1.57-0.87,2.12-0.86c4.99,0.12,7.44-2.92,9.05-7.1c3.13-8.16,6.31-16.31,9.45-24.48
	c5-13.02,9.98-26.06,14.97-39.08c0.18-0.46,0.3-0.96,0.58-1.35c0.77-1.07,1.61-2.08,2.43-3.12c0.89,1.08,2.13,2.02,2.61,3.26
	c7.65,19.69,15.17,39.43,22.79,59.13c1.06,2.74,2.39,5.39,3.76,8c0.58,1.11,1.47,2.13,2.42,2.96c3.53,3.09,7.66,1.82,8.6-2.83
	c1.02-5.01,1.65-10.11,2.37-15.18c2.13-15.03,4.22-30.07,6.32-45.1c0.27-1.95,0.39-3.95,0.86-5.85c0.38-1.51,1.2-2.9,1.83-4.35
	c1.02,1.2,2.35,2.25,2.99,3.63c3.63,7.85,7.11,15.77,10.62,23.67c4.19,9.43,8.36,18.87,12.56,28.3c0.35,0.79,0.8,1.54,1.35,2.58
	c6.71-15.29,13.29-30.3,19.87-45.3c1.54-3.51,3.03-7.04,4.71-10.49c0.46-0.95,1.53-1.61,2.32-2.4c0.65,1.02,1.71,1.97,1.87,3.06
	c1.49,9.95,2.82,19.91,4.19,29.88c1.6,11.62,3.13,23.26,4.82,34.87c0.72,4.95,2.15,6.15,7.27,7.02
	C726.32,359.18,727.41,359.44,728.75,359.72z M607.88,330.82c-3.07-8.94-6.06-17.64-9.31-27.1c-3.36,9.53-6.43,18.22-9.57,27.1
	C595.43,330.82,601.42,330.82,607.88,330.82z"/>
<path class="st1" d="M259.3,460.71c0-1.52,0-2.88,0-4.41c189.36,0,378.67,0,568.15,0c0,1.38,0,2.81,0,4.41
	C638.2,460.71,448.89,460.71,259.3,460.71z"/>
<path class="st2" d="M139.61,627c-5.6-13.24-7.86-27.13-7.14-41.38c0.56-11.21,2.66-22.2,5.95-33.03
	c4.14-13.62,9.68-26.58,16.53-38.99c4.64-8.41,9.77-16.55,14.68-24.81c2.19,0.52,4.38,1.05,6.57,1.57c0.19,0.03,0.38,0.06,0.57,0.1
	c0.38,0.07,0.76,0.14,1.14,0.21c4.72,1.37,9.44,2.74,14.16,4.11c-2.85,4.31-5.74,8.59-8.52,12.94c-1.36,2.13-2.51,4.38-3.75,6.58
	c-0.52,0.23-1.22,0.31-1.52,0.71c-3.02,4.09-6.17,8.11-8.91,12.39c-5.47,8.54-10.16,17.54-12.98,27.3c-2,6.93-3.54,14.06-4.39,21.21
	c-0.72,6.08-0.17,12.31-0.19,18.47c0.02,0.58,0.04,1.16,0.05,1.75l-0.01-0.02c0,0.22,0,0.45-0.01,0.67c0.01,0.18,0,0.36-0.01,0.54
	c-0.01,0.39-0.01,0.78-0.02,1.17c0.01,0.19,0.02,0.38,0.02,0.57c0.2,0.62,0.41,1.23,0.61,1.85c0.01,0.16,0.01,0.32-0.01,0.48
	c-0.53,3.67-0.77,7.42-1.71,10.98c-0.56,2.11-2.3,3.88-3.39,5.88c-1.39,2.57-2.49,5.31-4.04,7.77c-0.63,0.99-2.13,1.44-3.23,2.13
	c-0.16-0.07-0.22-0.19-0.19-0.36C139.8,627.52,139.71,627.26,139.61,627z"/>
<path class="st3" d="M162.47,486.45c-4.15-1.55-8.45-2.8-12.43-4.7c-11.33-5.4-21.89-12.06-31.09-20.69
	c-17.06-16.01-27.49-35.07-26.84-59.11c0.34-12.44,3.15-24.38,7.64-35.95c1.85,0.17,3.71,0.55,5.54,0.46
	c4.97-0.25,9.93-0.75,14.89-1.05c0.68-0.04,1.39,0.47,2.09,0.73c-0.28,1.32-0.49,2.67-0.84,3.97c-1.22,4.52-2.48,9.02-3.72,13.53
	c-0.1,0.88-0.19,1.76-0.29,2.64c-0.42,6.71-0.85,13.42-1.27,20.13c-0.23,6.95,1.41,13.59,3.73,20.03
	c4.79,13.27,12.47,24.93,21.05,36c3.35,4.33,7.23,8.25,10.86,12.36C155.35,478.7,158.91,482.58,162.47,486.45z"/>
<path class="st2" d="M231.39,375.46c4.28,12.81,4.94,25.82,2.57,39.11c-2.64,14.77-7.94,28.51-15.38,41.46
	c-3.92,6.82-8.15,13.46-12.24,20.18c-3.67-1.13-7.34-2.25-11-3.38l-0.02,0l-0.21-0.08c-3.71-1.4-7.43-2.8-11.14-4.2
	c0.52-0.82,0.99-1.67,1.57-2.45c3.39-4.55,7.22-8.83,10.13-13.67c7.77-12.91,12.63-26.93,14.67-41.89c0.06-0.99,0.12-1.98,0.18-2.97
	c0.17-2.91,0.34-5.81,0.52-8.72c2.82-7.25,2.44-14.71,1.43-22.21c0.76-0.5,1.75-1.59,2.23-1.4
	C220.27,377.5,225.81,377.06,231.39,375.46z"/>
<path class="st4" d="M251,505.34c7.03,7.36,12.23,15.78,16.11,25.25c5.2,12.72,6.43,25.79,5.11,39.23
	c-0.48,4.92-1.14,9.91-2.53,14.62c-1.34,4.54-5.28,6.83-9.9,7.34c-3.95,0.44-6.44-2.28-8.82-4.93c-2.37-2.64-2.68-5.45-1.95-9.05
	c1.62-8.05,1.33-16.24,0.05-24.36c-0.19-1-0.39-2-0.58-3c-1.69-4.99-2.94-10.19-5.18-14.92c-2.33-4.93-5.62-9.42-8.49-14.1
	c0.67-0.48,1.42-0.88,1.99-1.46C241.55,515.1,246.27,510.21,251,505.34z"/>
<path class="st3" d="M150.68,138.17c10.89,4.24,19.47,11.58,26.61,20.56c14.87,18.69,18.84,40.31,16.36,63.52
	c-2.44,22.83-10.79,43.71-21.12,63.94c-1.28,2.51-2.73,4.92-4.1,7.38c-1.92-0.04-3.86-0.24-5.76-0.08
	c-3.79,0.32-7.55,1.04-11.34,1.18c-1.4,0.05-2.83-1.1-4.25-1.7c0.14-0.21,0.27-0.42,0.41-0.63c0.09-0.16,0.19-0.32,0.28-0.48
	c3.72-4.95,7.85-9.64,11.06-14.9c5.37-8.82,10.32-17.92,15.12-27.06c4.91-9.35,7.16-19.61,9.35-29.86c0.22-1.16,0.62-2.32,0.62-3.47
	c0.01-7.93-0.07-15.86-0.12-23.78c-1.38-5.86-2.74-11.72-4.16-17.57c-0.09-0.37-0.65-0.62-0.99-0.93
	c-1.18-6.49-5.28-11.41-8.94-16.57c-3.45-5.19-7.31-10.02-12.49-13.63c-1.02-0.99-2.01-2.02-3.06-2.97
	C153.01,140.11,151.83,139.16,150.68,138.17z"/>
<path class="st0" d="M345.37,285.63c-0.45,4.94-0.91,10.03-1.38,15.11c-0.36,0.02-0.73,0.05-1.09,0.07c-0.2-0.93-0.45-1.86-0.58-2.8
	c-0.48-3.47-2.03-5.13-5.48-5.52c-2.45-0.27-4.93-0.41-7.39-0.49c-2.66-0.08-5.33-0.02-8.25-0.02c0,8.71,0,17.43,0,26.64
	c7.36-1.11,15.19,2.01,22.77-3.05c-0.48,5.68-0.94,11.25-1.41,16.82c-0.37,0.01-0.74,0.02-1.11,0.03c-0.13-0.95-0.3-1.89-0.38-2.84
	c-0.3-3.29-1.65-4.89-4.96-5.15c-4.91-0.39-9.83-0.52-15.16-0.78c0,2.47,0,4.6,0,6.73c0,5.93-0.06,11.86,0.03,17.79
	c0.06,4.17,2.1,6.67,6.12,6.99c3.92,0.31,7.89,0.28,11.81,0c3.34-0.24,5.6-2.19,6.37-5.62c0.3-1.34,0.75-2.64,1.14-3.96
	c0.27,0.02,0.54,0.05,0.82,0.07c0.14,0.7,0.45,1.42,0.38,2.1c-0.35,3.63-0.72,7.26-1.22,10.87c-0.26,1.85-1.57,2.6-3.39,2.58
	c-3.85-0.04-7.71-0.05-11.56-0.09c-9.19-0.09-18.38-0.19-27.56-0.3c-0.96-0.01-1.92-0.13-2.88-0.19c-0.05-0.25-0.1-0.5-0.15-0.76
	c0.7-0.22,1.39-0.58,2.1-0.63c3.26-0.26,5.12-1.92,5.23-5.23c0.2-6.22,0.43-12.44,0.44-18.66c0.04-13.34-0.03-26.68-0.1-40.02
	c-0.03-5.16-1.45-6.55-6.61-7.02c-0.81-0.07-1.57-0.67-2.36-1.03c0.81-0.31,1.61-0.89,2.42-0.89c11.86-0.02,23.72,0.09,35.58,0.04
	C340.06,286.43,342.58,285.93,345.37,285.63z"/>
<path class="st0" d="M457.43,286.43c15.12-0.21,30.26,0.51,45.71-0.3c-0.41,4.45-0.89,9.56-1.37,14.68c-0.39,0-0.78,0-1.17,0.01
	c-0.16-0.99-0.36-1.97-0.47-2.97c-0.32-3.08-2.04-5.02-5.05-5.28c-5.29-0.45-10.61-0.59-16.12-0.87c0,9.05,0,17.7,0,26.92
	c7.4-1.12,15.29,2.1,22.89-3.21c-0.52,5.87-1.02,11.42-1.51,16.96c-0.41-0.01-0.81-0.01-1.22-0.02c-0.08-0.98-0.16-1.96-0.25-2.94
	c-0.3-3.11-1.68-4.73-4.81-4.97c-4.99-0.39-10-0.53-15.24-0.79c0,8.82-0.13,17.2,0.06,25.56c0.08,3.42,2.32,5.64,5.9,5.92
	c4.02,0.31,8.09,0.29,12.11-0.01c3.21-0.24,5.4-2.19,6.18-5.47c0.32-1.36,0.72-2.7,1.25-4.65c0.64,0.99,1.11,1.38,1.08,1.72
	c-0.39,4.12-0.67,8.26-1.44,12.31c-0.17,0.9-2.14,2.02-3.32,2.06c-4.63,0.17-9.28-0.06-13.93-0.1c-8.1-0.08-16.2-0.13-24.3-0.21
	c-1.22-0.01-2.44-0.13-3.66-0.21c-0.03-0.27-0.06-0.54-0.1-0.81c1.04-0.25,2.08-0.54,3.14-0.74c2.29-0.42,3.86-1.54,3.96-4.03
	c0.26-6.6,0.63-13.21,0.66-19.81c0.07-13.34-0.02-26.68-0.09-40.02c-0.03-4.95-1.51-6.41-6.48-6.84c-0.9-0.08-1.77-0.47-2.65-0.72
	C457.28,287.22,457.35,286.83,457.43,286.43z"/>
<path class="st0" d="M730.41,286.49c15.12-0.47,30.28,0.78,45.7-0.63c-0.46,4.74-0.95,9.86-1.45,14.97
	c-0.39-0.01-0.78-0.01-1.17-0.02c-0.15-1.01-0.33-2.02-0.45-3.04c-0.34-2.92-1.94-4.89-4.83-5.15c-5.38-0.48-10.78-0.63-16.36-0.92
	c0,9.11,0,17.77,0,26.42c7.45,1.66,18.66,0.42,22.92-3.09c-0.54,6.24-1.02,11.79-1.5,17.33c-0.34,0-0.69-0.01-1.03-0.01
	c-0.13-0.51-0.35-1.01-0.39-1.53c-0.39-5-1.27-6.18-6.13-6.5c-4.51-0.3-9.06-0.06-14.04-0.06c0,2.03,0,4.35,0,6.68
	c0,5.63-0.05,11.27,0.02,16.9c0.06,4.76,2.19,7.1,6.97,7.42c3.14,0.21,6.31,0.25,9.45,0.04c5.33-0.34,7.07-1.96,8.29-7.13
	c0.2-0.86,0.45-1.71,1.34-2.52c0.2,0.49,0.62,1,0.58,1.47c-0.36,3.92-0.7,7.86-1.28,11.75c-0.31,2.06-2.04,2.4-3.87,2.35
	c-6.91-0.19-13.83-0.43-20.74-0.51c-5.83-0.07-11.66,0.08-17.49,0.1c-1.1,0-2.19-0.16-3.29-0.25c-0.02-0.28-0.04-0.56-0.07-0.85
	c0.97-0.21,1.93-0.45,2.9-0.62c2.38-0.41,4.09-1.5,4.18-4.16c0.24-6.6,0.61-13.21,0.65-19.81c0.08-13.14-0.01-26.29-0.08-39.43
	c-0.03-5.64-1.24-6.84-6.87-7.36c-0.78-0.07-1.51-0.55-2.27-0.84C730.22,287.15,730.31,286.82,730.41,286.49z"/>
<path class="st4" d="M97.85,151.1c-17.83,1.58-34.8,6.36-51.04,13.83c-4.58,2.11-6.53,1.96-8.8-0.6c-2.21-2.5-2.66-8.04-0.86-11.15
	c2.67-4.59,7.03-7.07,11.71-8.98c15.43-6.3,31.47-10.54,47.86-13.26c6.99-1.16,14.19-1.08,21.29-1.56
	c-1.35,1.02-2.81,1.93-4.03,3.09c-5.38,5.1-10.7,10.27-16.05,15.4C96.84,148.94,95.98,149.96,97.85,151.1z"/>
<path class="st0" d="M395.03,302.59c-0.18-0.85-0.43-1.69-0.54-2.55c-0.67-5.02-4.31-9.03-9.14-10.01
	c-5.99-1.22-11.83,0.84-14.41,5.08c-2.37,3.89-1.95,9.47,1.55,12.83c2.74,2.64,6.11,4.61,9.1,7c3.99,3.18,8.44,6,11.72,9.81
	c8.79,10.23,6.76,25.73-4.04,33.73c-5.4,4-11.8,4.23-18.14,3.74c-3.69-0.29-7.36-1.21-10.92-2.27c-1.04-0.31-2.34-2.04-2.35-3.13
	c-0.08-4.73,0.25-9.47,0.51-14.2c0.04-0.64,0.58-1.24,0.89-1.87c0.24,0.05,0.49,0.09,0.73,0.14c0.25,1.6,0.47,3.2,0.74,4.79
	c1.19,6.99,5.91,10.95,13.91,11.67c5.92,0.53,11.18-2.7,12.92-8.18c1.67-5.27,1.03-10.32-3.13-14.18c-3.08-2.86-6.82-5-10.09-7.68
	c-3.57-2.92-7.46-5.67-10.27-9.24c-8.13-10.31-6.12-29.7,13.69-32.71c5.41-0.82,11.14,0.32,16.71,0.66c1.88,0.12,2.6,1.23,2.43,3.22
	c-0.3,3.54-0.3,7.1-0.48,10.65c-0.05,0.89-0.31,1.77-0.48,2.65C395.65,302.58,395.34,302.58,395.03,302.59z"/>
<path class="st0" d="M412.12,341c0.46,2.28,0.77,4.61,1.42,6.83c1.71,5.83,6.27,8.99,13.48,9.55c5.32,0.41,10.22-2.35,12.34-6.95
	c2.42-5.25,1.4-11.7-3.02-15.75c-2.96-2.71-6.54-4.73-9.66-7.28c-3.64-2.99-7.66-5.77-10.49-9.43
	c-8.03-10.39-5.92-29.49,13.65-32.56c5.41-0.85,11.14,0.27,16.71,0.61c1.96,0.12,2.78,1.26,2.57,3.42c-0.34,3.43-0.3,6.9-0.47,10.35
	c-0.04,0.91-0.26,1.81-0.39,2.72c-0.29,0.03-0.58,0.07-0.87,0.1c-0.23-0.71-0.56-1.4-0.66-2.13c-0.66-5.13-3.89-9.12-8.44-10.34
	c-5.51-1.47-11.53,0.24-14.54,4.15c-2.9,3.76-2.85,9.76,0.67,13.34c2.59,2.64,5.87,4.6,8.77,6.94c4.28,3.45,9.16,6.41,12.62,10.55
	c9.79,11.71,5,30.86-8.64,35.59c-8.09,2.8-16.3,2.12-24.39-0.44c-2.11-0.67-2.98-1.98-2.85-4.18c0.26-4.34,0.38-8.68,0.63-13.02
	c0.04-0.76,0.47-1.49,0.73-2.24C411.56,340.88,411.84,340.94,412.12,341z"/>
<path class="st0" d="M790.41,339.98c0.66,3.2,0.98,5.51,1.62,7.72c1.74,6,6.39,9.24,13.66,9.7c5.34,0.33,10.2-2.49,12.25-7.11
	c2.34-5.27,1.28-11.69-3.21-15.72c-3.2-2.88-6.92-5.19-10.46-7.69c-5.72-4.04-10.97-8.41-12.94-15.57
	c-3.45-12.51,3.56-23.67,16.27-26.02c5.96-1.1,11.78-0.39,17.63,0.73c1.88,0.36,2.57,1.31,2.41,3.28c-0.29,3.54-0.29,7.1-0.48,10.65
	c-0.05,0.89-0.32,1.76-0.49,2.64c-0.3,0-0.61,0.01-0.91,0.01c-0.18-0.86-0.42-1.7-0.53-2.57c-0.67-5.01-4.32-9.01-9.16-9.99
	c-5.99-1.21-11.83,0.86-14.4,5.11c-2.36,3.9-1.93,9.47,1.57,12.83c2.74,2.63,6.11,4.61,9.11,7c3.99,3.18,8.44,6,11.72,9.82
	c8.78,10.23,6.73,25.75-4.07,33.73c-5.32,3.93-11.62,4.2-17.85,3.73c-3.78-0.28-7.56-1.23-11.22-2.29c-1.03-0.3-2.32-2.05-2.33-3.15
	c-0.07-4.73,0.25-9.47,0.52-14.2C789.14,341.99,789.69,341.39,790.41,339.98z"/>
<path class="st0" d="M535.69,385.76c0.25-0.29,0.44-0.66,0.75-0.84c8.91-5.35,12.07-13.87,12.18-23.56
	c0.26-22.51,0.14-45.03,0.12-67.54c0-3.52-1.86-5.07-6-5.44c-0.94-0.08-1.89-0.11-2.83-0.17c-0.07-0.28-0.14-0.56-0.21-0.85
	c0.65-0.29,1.3-0.83,1.95-0.83c8.59-0.05,17.17-0.05,25.76,0c0.56,0,1.11,0.46,1.63,1.38c-1.35,0.29-2.86,0.28-4,0.93
	c-1.29,0.74-2.72,1.89-3.22,3.19c-0.64,1.67-0.55,3.68-0.55,5.54c-0.02,18.47,0.07,36.93,0,55.4c-0.06,16.32-9.6,26.19-23.09,33.23
	c-0.64,0.33-1.49,0.27-2.25,0.39C535.86,386.32,535.77,386.04,535.69,385.76z"/>
<path class="st0" d="M260.92,385.8c0.54-0.49,1.03-1.08,1.64-1.47c6.6-4.25,10.01-10.47,10.84-18.1c0.51-4.7,0.72-9.45,0.74-14.17
	c0.06-18.86,0.02-37.72-0.03-56.58c-0.01-5.35-1.42-6.74-6.77-7.13c-0.73-0.05-1.45-0.21-2.18-0.31c-0.05-0.25-0.1-0.51-0.15-0.76
	c0.69-0.26,1.37-0.75,2.06-0.75c8.39-0.05,16.78-0.05,25.17,0c0.72,0,1.44,0.43,2.16,0.65c-0.04,0.26-0.07,0.52-0.11,0.78
	c-1.18,0.23-2.35,0.53-3.54,0.67c-2.45,0.28-3.67,1.75-3.93,4.06c-0.18,1.56-0.25,3.15-0.25,4.72c-0.01,18.76,0.1,37.53-0.02,56.29
	c-0.11,16.02-10.4,26.08-23.17,32.56c-0.62,0.32-1.47,0.18-2.21,0.25C261.08,386.27,261,386.03,260.92,385.8z"/>
<path class="st5" d="M60.94,272.89c-1.54-4.9-3.42-9.72-4.54-14.71c-2.49-11.12-2.2-22.34-0.09-33.51
	c0.79-4.18,0.89-8.51,4.72-11.64c5.99-4.9,10.71-4.06,15.2,1.34c1.94,2.33,2.64,4.71,2.03,8.03c-1.86,10.11-1.69,20.29,0.9,30.33
	c0.19,0.75,0.2,1.54,0.29,2.32c-1.37,0.58-3.11,0.81-4.04,1.81C70.47,262.09,65.74,267.53,60.94,272.89z"/>
<path class="st6" d="M236.67,640.21c4.58-1.4,9.2-2.66,13.72-4.22c7.5-2.59,14.93-5.38,22.39-8.05c2.19-0.78,4.41-1.48,6.61-2.22
	c-0.68,1.54-1.02,3.41-2.11,4.57c-4.58,4.86-9.45,9.45-14.08,14.27c-3.36,3.5-6.59,7.14-9.72,10.85c-1.11,1.32-1.74,3.04-2.58,4.58
	c-7.4,1.87-14.77,3.88-22.21,5.55c-3.8,0.85-7.74,1.09-11.61,1.61c-0.79-0.33-1.59-0.66-2.38-0.99c1.53-1.49,3.16-2.89,4.58-4.47
	c3.71-4.15,7.43-8.31,10.96-12.62C232.56,646.26,234.54,643.18,236.67,640.21z"/>
<path class="st7" d="M122.27,366.14c-0.7-0.26-1.41-0.77-2.09-0.73c-4.97,0.3-9.92,0.79-14.89,1.05c-1.83,0.09-3.69-0.29-5.54-0.46
	c2.9-6.4,5.47-12.97,8.79-19.14c3.88-7.22,8.4-14.1,12.64-21.13c2.93,0.82,5.85,1.65,8.78,2.47l0.17,0.04c0,0,0.12-0.13,0.12-0.13
	c1.47,0.55,2.94,1.1,4.41,1.65c2.9,1.07,5.81,2.14,8.71,3.21c-2.15,3.04-4.26,6.12-6.46,9.12c-4.1,5.6-8.6,10.92-11.09,17.56
	C124.95,361.93,123.47,363.99,122.27,366.14z"/>
<path class="st8" d="M214.71,666.17c0.79,0.33,1.59,0.66,2.38,0.99c-4.75,0.59-9.48,1.56-14.24,1.72
	c-15.95,0.54-30.91-2.42-43.36-13.37c0.21-0.32,0.67-0.77,0.58-0.93c-2.03-3.86-1.88-7.66-0.94-11.91c0.41-1.85,0.67-3.59,1.58-5.31
	c0.83-1.58,1.24-3.37,1.83-5.07c0.55,0.55,1.14,1.06,1.63,1.66c1.84,2.24,3.64,4.51,5.46,6.77c2.85,3.27,5.69,6.54,8.81,10.12
	c2.64-3.37,4.79-5.97,6.75-8.71c0.62-0.87,0.74-2.1,1.09-3.17c3.04,1.19,6.05,2.45,9.12,3.54c1.24,0.44,2.62,0.52,3.93,0.76
	c-0.51,1.11-0.83,2.34-1.55,3.29c-2.36,3.1-4.94,6.03-7.22,9.18c-0.43,0.59-0.18,2.53,0.3,2.77c3.12,1.54,6.39,2.79,9.61,4.13
	C205.21,663.79,209.96,664.98,214.71,666.17z"/>
<path class="st9" d="M60.94,272.89c4.8-5.37,9.53-10.8,14.47-16.04c0.93-0.99,2.68-1.22,4.04-1.81c0.19,0.41,0.37,0.83,0.56,1.24
	c0.27,0.98,0.55,1.95,0.82,2.93c1.75,6.93,5.68,12.71,9.79,18.38c1.76,2.43,3.76,4.68,5.65,7.01c-1.93,2.04-3.86,4.08-5.78,6.12
	c-2.77,2.95-5.59,5.87-8.25,8.91c-0.49,0.56-0.35,1.67-0.51,2.53c-4.73-5.46-9.8-10.67-14.07-16.47
	C64.83,281.87,63.14,277.2,60.94,272.89z"/>
<path class="st10" d="M250.91,659.99c0.85-1.54,1.47-3.26,2.58-4.58c3.13-3.71,6.36-7.35,9.72-10.85c4.63-4.82,9.5-9.4,14.08-14.27
	c1.09-1.16,1.43-3.03,2.11-4.57c4.04-1.03,8.06-2.12,12.11-3.06c2.26-0.52,3.85,0.51,5.06,2.48c2.63,4.26,4.32,8.72,1.53,13.39
	c-2.5,4.2-6.09,7.68-10.72,9.31C275.31,652.11,263.08,655.97,250.91,659.99z"/>
<path class="st11" d="M171.44,317.91c0.2,0.09,0.4,0.19,0.61,0.28c0.16,0.12,0.32,0.23,0.48,0.35c2.98,1.38,5.96,2.75,8.94,4.13
	c2.59,2.86,5.28,5.63,7.74,8.59c3.27,3.94,6.36,8.03,9.53,12.05c-0.5,0.7-0.92,1.48-1.52,2.09c-2.75,2.77-6.5,4.68-7.51,8.92
	c-0.28-0.04-0.55-0.09-0.83-0.13c-6.14-3.93-12.1-8.21-18.49-11.68c-4.29-2.33-9.2-3.54-13.83-5.25c-0.36-0.13-0.72-0.26-1.08-0.39
	l-0.06-0.03c1.53-2.2,2.87-4.56,4.62-6.57C163.73,326.04,167.63,322.01,171.44,317.91z"/>
<path class="st12" d="M380.51,431.81c3.59,0.52,3.97-1.93,4.29-4.21c1.49-10.43,2.89-20.88,4.36-31.31c0.23-1.6,0.62-3.18,0.94-4.77
	c0.39-0.1,0.78-0.2,1.16-0.3c4.68,10.34,9.37,20.68,14.26,31.47c4.78-10.7,9.39-21.03,14.01-31.36c0.3,0.01,0.59,0.02,0.89,0.03
	c0.31,0.8,0.78,1.58,0.9,2.4c1.52,10.63,3.07,21.26,4.45,31.91c0.48,3.69,1.36,6.66,6.32,6.14c-0.14,0.27-0.28,0.53-0.42,0.8
	c-4.19,0-8.39,0-11.85,0c-0.96-8.76-1.88-17.1-2.8-25.44c-0.2-0.08-0.41-0.16-0.61-0.24c-3.96,8.72-7.91,17.45-12.21,26.93
	c-5.41-8.7-8.47-17.7-12.98-27c-0.73,6.2-1.37,11.58-1.99,16.95c-0.08,0.69-0.08,1.38-0.18,2.07c-0.7,4.87-0.7,4.87,4.3,6.8
	c-4.75,0-8.72,0-12.69,0C380.61,432.38,380.56,432.09,380.51,431.81z"/>
<path class="st13" d="M81.73,302.18c0.15-0.86,0.02-1.97,0.51-2.53c2.66-3.05,5.48-5.96,8.25-8.91c1.92-2.05,3.85-4.08,5.78-6.12
	c5.76,4.31,11.41,8.76,17.31,12.88c2.85,1.99,6.14,3.36,9.22,5c-1.96,1.69-4.16,3.17-5.83,5.1c-3.35,3.87-6.42,7.98-9.6,12
	C97.88,315.17,89.19,309.58,81.73,302.18z"/>
<path class="st12" d="M665.37,431.91c3.71,0.54,4.19-1.87,4.22-4.28c0.1-10.17,0.08-20.35,0.05-30.52
	c-0.01-1.91-0.94-3.15-3.03-3.27c-0.59-0.03-1.17-0.29-2.28-0.58c0.79-0.38,1.02-0.58,1.24-0.57c7.89,0.14,15.81-0.05,23.67,0.52
	c13.28,0.96,18.07,11.9,16.52,22.36c-1.75,11.84-9.43,18.08-21.46,18c-5.91-0.04-11.83-0.36-17.74-0.57
	c-0.32-0.01-0.63-0.18-0.95-0.27C665.53,432.46,665.45,432.18,665.37,431.91z M676.39,411.74c0.02,0,0.03,0,0.05,0
	c0,4.64-0.02,9.28,0.01,13.92c0.01,2.13,0.63,3.98,2.97,4.53c4.97,1.15,9.8,0.96,14.07-2.24c5.03-3.78,5.42-9.29,5.35-14.93
	c-0.15-11.32-8.87-18.81-20.13-17.46c-1.77,0.21-2.37,0.82-2.34,2.57C676.44,402.66,676.39,407.2,676.39,411.74z"/>
<path class="st12" d="M574.74,413.58c-6.52,0-12.8,0-19.19,0c0,5.13-0.07,10.23,0.03,15.32c0.04,1.98,1.25,3,3.33,2.91
	c0.58-0.02,1.17,0.22,1.7,0.91c-5.32,0-10.64,0-15.95,0c4.56-0.9,3.93-4.46,3.95-7.54c0.07-8.3,0.12-16.6,0.06-24.9
	c-0.04-5.42-0.14-5.42-4.76-7.29c5.12,0,10.24,0,15.37,0c0.04,0.1,0.08,0.21,0.12,0.31c-0.54,0.19-1.2,0.25-1.6,0.6
	c-0.87,0.76-2.26,1.63-2.3,2.51c-0.23,4.51-0.11,9.03-0.11,13.73c6.47,0,12.73,0,19.26,0c0-4.65,0.32-9.19-0.19-13.63
	c-0.16-1.35-2.62-2.43-3.87-3.52c4.55,0,9.67,0,15.42,0c-0.93,0.44-1.37,0.82-1.82,0.84c-1.88,0.08-2.69,1.17-2.69,2.87
	c-0.02,10.57-0.01,21.14,0.05,31.72c0.01,2.19,1.08,3.52,3.5,3.41c0.58-0.03,1.16,0.23,1.66,0.93c-5.32,0-10.65,0-15.97,0
	c4.59-0.9,3.93-4.46,3.99-7.55C574.79,421.37,574.74,417.54,574.74,413.58z"/>
<path class="st12" d="M605.58,412.85c0-12.41,8.36-20.79,20.74-20.79c12.55,0.01,20.35,7.63,20.35,19.88
	c-0.01,12.67-8.6,21.65-20.74,21.69C613.79,433.68,605.59,425.3,605.58,412.85z M639.41,414.26c0.2-0.08,0.39-0.15,0.59-0.23
	c-1.25-4.08-2.01-8.41-3.86-12.2c-2.61-5.35-7.98-7.62-13.62-6.73c-4.68,0.74-7.83,4.34-9.11,10.39c-0.06,0.29-0.21,0.57-0.24,0.86
	c-0.85,7.49-0.32,14.71,5.32,20.41c7.16,7.23,17.4,4.34,19.84-5.51C638.9,418.98,639.06,416.6,639.41,414.26z"/>
<path class="st14" d="M171.44,317.91c-3.81,4.11-7.71,8.14-11.39,12.35c-1.75,2.01-3.09,4.37-4.62,6.57
	c-4.02-1.29-8.05-2.58-12.07-3.86c-2.9-1.07-5.81-2.14-8.71-3.21c-1.47-0.55-2.94-1.1-4.41-1.65l-0.12,0.13c0,0-0.17-0.04-0.17-0.04
	c0.31-0.88,0.39-1.96,0.96-2.61c4.31-4.89,8.7-9.7,13.13-14.49c0.46-0.5,1.31-0.64,1.98-0.94c0.15-0.01,0.31-0.03,0.46-0.04
	c0.21,0.02,0.42,0.05,0.64,0.07c3.44,0.77,6.87,1.54,10.31,2.32c3.79,1.42,7.59,2.83,11.38,4.27
	C169.69,317.11,170.56,317.53,171.44,317.91z"/>
<path class="st15" d="M183.28,220.05c-2.18,10.25-4.43,20.51-9.35,29.86c-4.81,9.15-9.75,18.24-15.12,27.06
	c-3.2,5.26-7.34,9.95-11.06,14.9c-0.12,0.15-0.21,0.31-0.28,0.49c-0.14,0.21-0.27,0.42-0.41,0.63c-0.59,0.65-1.16,1.32-1.78,1.93
	c-1.97,1.95-3.96,3.87-5.94,5.8c3.88-6.69,7.93-13.28,11.6-20.08c7.58-14.04,13.08-28.87,16.06-44.58c0.12-0.97,0.24-1.93,0.36-2.9
	c0.36-1.58,0.73-3.17,1.09-4.75c-0.13,1.79,0.78,1.85,1.93,1.03c2-1.42,3.9-2.98,5.88-4.42
	C178.59,223.32,180.95,221.7,183.28,220.05z"/>
<path class="st13" d="M151.85,597.32c0.01-0.18,0.01-0.36,0.01-0.54c0-0.22,0-0.45,0.01-0.67c0,0,0.01,0.02,0.01,0.02
	c-0.02-0.58-0.04-1.16-0.05-1.75c0.01-6.16-0.54-12.39,0.19-18.47c0.85-7.15,2.39-14.29,4.39-21.21c2.81-9.75,7.51-18.76,12.98-27.3
	c2.74-4.28,5.89-8.3,8.91-12.39c0.29-0.39,1-0.48,1.52-0.71c-6.84,12.07-13.25,24.39-17.04,37.78c-2.32,8.19-3.5,16.7-5.2,25.06
	c-0.09,0.78-0.17,1.56-0.26,2.34c-0.86,12.99,0.37,25.62,6.39,37.44c0.14,0.4,0.28,0.79,0.42,1.19c0,0,0.15,0.19,0.15,0.19
	c0.14,0.14,0.27,0.27,0.41,0.41c0.1,0.33,0.2,0.66,0.3,0.99c-1.8,2.02-3.6,4.05-5.39,6.07c-1.9-4.62-4.75-8.82-4.95-14.16
	c-0.13-3.43-1.41-6.82-2.17-10.22c0.01-0.16,0.02-0.32,0.01-0.48c-0.2-0.62-0.41-1.23-0.61-1.85c0-0.19-0.01-0.38-0.02-0.57
	C151.84,598.1,151.85,597.71,151.85,597.32z"/>
<path class="st3" d="M97.85,151.1c-1.87-1.13-1.01-2.15,0.1-3.22c5.35-5.13,10.66-10.31,16.05-15.4c1.22-1.16,2.68-2.07,4.03-3.09
	c7.36,0.13,14.69,0.42,21.57,3.51c0.34,0.15,0.65,0.38,0.98,0.57c-0.51,0.6-0.94,1.29-1.53,1.78c-5.31,4.42-10.7,8.74-15.94,13.24
	c-1.16,1-1.81,2.59-2.69,3.91c-5.94-0.58-11.88-1.17-17.82-1.75c-0.74,0.06-1.49,0.12-2.23,0.17C99.53,150.91,98.69,151,97.85,151.1
	z"/>
<path class="st16" d="M536.06,483.5c2.07,0,4.93,0,7.2,0c-0.47,1.11-1.43,2.38-1.47,3.68c-0.17,5.63-0.18,11.27,0.01,16.9
	c0.04,1.2,1.13,2.37,1.74,3.56c1.14-0.91,2.81-1.58,3.34-2.77c2.93-6.55,5.58-13.22,8.33-19.85c0.29-0.71,0.65-1.39,1.23-2.6
	c0.68,1.29,1.22,2.15,1.61,3.08c2.52,6.09,4.89,12.24,7.55,18.26c0.78,1.76,2.37,3.16,3.41,4.5c-1.77,0-4.2,0-6.41,0
	c-0.89-2.53-1.71-4.98-2.65-7.39c-0.15-0.39-0.84-0.71-1.33-0.78c-0.87-0.13-1.77-0.04-2.66-0.04c-5.17,0-5.24-0.02-6.4,5.07
	c-0.22,0.95,0.44,2.09,0.71,3.23c-5.81,0-12.36,0.16-18.9-0.11c-1.65-0.07-3.48-1.26-4.79-2.43c-1.51-1.35-2.74-3.14-3.73-4.94
	c-1.22-2.19-2.84-3.06-5.25-2.59c-0.99,7.06-0.52,8.81,3.26,9.89c-3.69,0-6.74,0-9.15,0c0.43-1.22,1.34-2.67,1.39-4.15
	c0.18-5.63,0.18-11.27-0.01-16.9c-0.04-1.24-1.12-2.44-1.58-3.37c3.18,0,7.34-0.36,11.41,0.09c5.51,0.6,7.33,5.54,3.94,9.96
	c-0.78,1.01-1.73,1.89-2.9,3.15c2.7,3.11,5.26,6.35,8.16,9.23c0.95,0.94,2.83,0.96,4.28,1.4c0.36-1.25,1.02-2.5,1.04-3.76
	c0.11-5.63,0.13-11.27-0.01-16.9C537.4,485.77,536.55,484.67,536.06,483.5z M517.49,496.3c2.37,0.22,4.75,0.8,6.11-1.68
	c1.35-2.46,1.42-5.15-0.19-7.53c-1.44-2.14-3.65-2.22-5.92-1.64C517.49,489.11,517.49,492.61,517.49,496.3z M555.59,489.28
	c-1.23,3.22-2.27,5.93-3.36,8.8c2.33,0,4.39,0,6.67,0C557.8,495.15,556.79,492.46,555.59,489.28z"/>
<path class="st17" d="M146.02,310.16c-0.67,0.31-1.52,0.44-1.98,0.94c-4.43,4.78-8.82,9.6-13.13,14.49
	c-0.57,0.65-0.65,1.73-0.96,2.61c-2.93-0.82-5.85-1.65-8.78-2.47c-4.6-2.05-9.2-4.09-13.81-6.14c3.18-4.01,6.25-8.13,9.6-12
	c1.67-1.93,3.87-3.41,5.83-5.1c4.12,1.47,8.24,2.94,12.36,4.41C138.77,307.98,142.4,309.07,146.02,310.16z"/>
<path class="st18" d="M152.46,601.39c0.76,3.41,2.04,6.79,2.17,10.22c0.2,5.34,3.05,9.53,4.95,14.16c0.98,2.17,1.97,4.34,2.95,6.51
	c-0.59,1.7-1,3.5-1.83,5.07c-0.91,1.73-1.17,3.47-1.58,5.31c-0.94,4.25-1.08,8.05,0.94,11.91c0.09,0.16-0.38,0.62-0.58,0.93
	c-8.71-7.53-15.2-16.63-19.4-27.36c1.1-0.69,2.6-1.14,3.23-2.13c1.55-2.46,2.65-5.2,4.04-7.77c1.08-2,2.83-3.77,3.39-5.88
	C151.69,608.8,151.93,605.05,152.46,601.39z"/>
<path class="st19" d="M120.42,152.4c0.88-1.32,1.53-2.92,2.69-3.91c5.24-4.5,10.63-8.83,15.94-13.24c0.59-0.49,1.02-1.18,1.53-1.78
	c1.98,0.97,3.97,1.93,5.95,2.9c1.38,0.6,2.76,1.21,4.14,1.81c0,0,0.01,0,0.01,0c1.16,0.98,2.34,1.93,3.46,2.95
	c1.05,0.96,2.05,1.98,3.06,2.97c-2.52,1.43-5.23,2.6-7.5,4.35c-3.96,3.03-7.67,6.38-11.42,9.67c-0.61,0.53-0.89,1.45-1.32,2.19
	C131.44,157.67,125.93,155.03,120.42,152.4z"/>
<path class="st20" d="M136.96,160.31c0.43-0.74,0.71-1.65,1.32-2.19c3.75-3.29,7.47-6.64,11.42-9.67c2.28-1.74,4.99-2.92,7.5-4.35
	c5.18,3.61,9.03,8.43,12.49,13.63c-0.29,0.06-0.64,0.04-0.85,0.2c-5.51,4.24-11.02,8.47-16.47,12.79c-0.44,0.35-0.39,1.32-0.57,2.01
	c-3.02-2.7-5.98-5.46-9.07-8.08C140.9,163.09,138.89,161.74,136.96,160.31z"/>
<path class="st12" d="M594.58,495.25c2.58,3.18,5.09,6.35,7.71,9.43c0.81,0.95,1.85,1.8,2.96,2.38c2.33,1.24,3.34,0.68,3.38-1.91
	c0.09-6.22,0.16-12.45-0.04-18.67c-0.04-1.08-1.45-2.12-2.13-3.05c4.51,0,9.61,0,14.89,0c-0.08,1.39-0.16,2.92-0.28,5.16
	c-1.45-5.11-5.12-2.61-7.95-3.61c0,3.13,0,5.93,0,8.83c2.53,0,5.11,0,7.86,0c-0.14,1.25-0.32,2.77-0.54,4.69
	c-1.49-4.29-4.78-1.83-7.53-2.95c0,3.11-0.17,5.76,0.09,8.36c0.09,0.9,1.21,2.32,1.98,2.41c2.13,0.24,4.58,1.1,6.28-1.17
	c0.33-0.44,0.49-1,0.79-1.65c0.44,4.37,0.05,4.83-3.87,4.83c-4.63,0-9.27-0.09-13.9,0.03c-3.04,0.08-5.36-1.05-7.13-3.44
	c-1.35-1.82-2.79-3.6-3.92-5.56c-1.4-2.43-3.23-3.56-6.26-2.72c0,2.89-0.26,5.93,0.14,8.89c0.14,1.05,1.9,1.89,2.72,2.63
	c-2.93,0-6.43,0-9.93,0c2.54-0.34,2.64-2.2,2.64-4.14c0-6.82-0.04-13.64,0.05-20.45c0.03-2.47-0.05-4.64-3.29-4.74
	c4.38,0,8.82-0.41,13.14,0.1c6.25,0.74,8.7,6.29,5.53,11.81C597.13,492.27,595.87,493.58,594.58,495.25z M587.05,480.71
	c-0.12,0.4-0.22,0.58-0.22,0.77c-0.02,3.24-0.11,6.48,0.01,9.72c0.04,1.13,0.63,3.19,0.97,3.19c1.84,0.01,4.04,0.02,5.46-0.94
	c2.18-1.48,2.42-6.71,1.01-9.64C592.97,481.08,590.97,480.2,587.05,480.71z"/>
<path class="st12" d="M473.66,424.82c0.29,0.52,0.46,0.69,0.47,0.86c0.41,7.45-0.07,7.96-7.48,7.92c-5.31-0.03-10.62,0-15.92-0.08
	c-0.63-0.01-1.26-0.52-1.96-1.22c3.78,0.14,4.26-2.31,4.28-4.85c0.08-10.07,0.03-20.15,0.06-30.22c0.01-3.29-2.49-3.47-5.1-3.57
	c0.11-0.32,0.21-0.64,0.32-0.96c8.12,0,16.24,0,24.62,0c-0.21,2.2-0.47,4.88-0.73,7.56c-2.05-7.33-7.93-3.57-12.29-4.77
	c0,4.89,0,9.4,0,14.53c3.98-0.25,7.96-0.5,12.2-0.76c-0.17,2.23-0.39,5.19-0.62,8.14c-1.57-7.33-7.36-3.56-11.64-4.73
	c0,5.08-0.04,9.78,0.05,14.49c0.01,0.7,0.51,1.53,1.03,2.04c3.21,3.17,10.78,1.22,12.16-3.07
	C473.23,425.75,473.41,425.41,473.66,424.82z"/>
<path class="st21" d="M151.8,172.72c0.18-0.68,0.12-1.66,0.57-2.01c5.44-4.32,10.96-8.55,16.47-12.79c0.21-0.16,0.57-0.14,0.85-0.2
	c3.66,5.16,7.76,10.07,8.94,16.57c-1.27,1.43-2.36,3.09-3.83,4.25c-4.12,3.26-8.4,6.31-12.62,9.44
	C158.71,182.9,155.26,177.81,151.8,172.72z"/>
<path class="st22" d="M214.71,666.17c-4.75-1.19-9.5-2.38-14.24-3.57c4.99-5.89,9.98-11.78,14.97-17.66
	c-0.16-0.25-0.32-0.49-0.47-0.74c-1.44,0-2.89,0.07-4.32-0.02c-2.39-0.15-4.78-0.39-7.17-0.6c10.65,0.53,21.13-0.56,31.45-3.23
	c0.56-0.14,1.17-0.1,1.76-0.14c-2.13,2.97-4.12,6.05-6.43,8.87c-3.53,4.31-7.25,8.46-10.96,12.62
	C217.86,663.28,216.24,664.68,214.71,666.17z"/>
<path class="st16" d="M693.86,483.7c4.08,0,8.19-0.36,12.22,0.09c5.8,0.64,7.62,5.83,3.84,10.31c-0.75,0.88-1.89,1.44-2.97,2.24
	c2.51,3.07,4.54,5.6,6.62,8.09c0.62,0.74,1.39,1.35,2.34,2.25c3.37-8.09,6.63-15.93,10.19-24.51c1.03,2.18,1.81,3.69,2.46,5.25
	c2.29,5.54,4.42,11.14,6.87,16.61c0.74,1.67,2.29,2.97,3.3,4.23c-1.78,0-4.2,0-6.43,0c-0.88-2.51-1.7-4.97-2.64-7.37
	c-0.15-0.39-0.83-0.73-1.31-0.8c-0.87-0.13-1.77-0.04-2.66-0.04c-5.16,0-5.23-0.02-6.42,5.04c-0.21,0.91,0.4,2.02,0.65,3.12
	c-6,1.81-10.45-1.19-13.53-6.98c-1.16-2.17-2.65-3.61-5.34-2.96c-1.23,5.97-0.52,8.75,2.83,9.98c-3.39,0-6.5,0-8.81,0
	c0.45-1.28,1.33-2.67,1.38-4.09c0.17-5.53,0.04-11.06,0.09-16.59C696.53,485.57,696.62,483.68,693.86,483.7z M700.87,485.32
	c0,3.76,0,7.34,0,10.98c2.34,0.21,4.98,0.86,5.87-1.61c0.76-2.11,0.86-4.82,0.25-6.97C706.23,485.04,703.52,484.97,700.87,485.32z
	 M725.29,489.22c-1.27,3.35-2.29,6.05-3.38,8.94c2.34,0,4.37,0,6.68,0C727.53,495.3,726.53,492.59,725.29,489.22z"/>
<path class="st23" d="M183.28,220.05c-2.34,1.65-4.69,3.27-7.01,4.96c-1.98,1.44-3.88,3.01-5.88,4.42
	c-1.16,0.82-2.06,0.76-1.93-1.03c-0.23-7.04-0.48-14.09-0.69-21.13c-0.03-0.88,0.06-1.76,0.1-2.64c4.33-2.93,8.7-5.82,12.97-8.84
	c1.12-0.79,1.96-1.99,2.94-3c0.05,7.93,0.13,15.86,0.12,23.78C183.9,217.73,183.5,218.89,183.28,220.05z"/>
<path class="st12" d="M502.01,432.73c4.06-0.57,3.99-3.52,3.99-6.45c-0.01-10.07,0-20.14,0-30.57c-3.36,0.19-6.63,0.06-9.74,0.69
	c-1.49,0.3-2.68,2.07-4.35,3.46c0.4-2.55,0.79-4.98,1.18-7.48c11.03,0,21.93,0,32.83,0c0,2.5,0,5.24,0,8.72
	c-2.1-4.98-5.58-6.15-13.23-5.02c0,8.05-0.03,16.13,0.01,24.22c0.01,2.56,0.27,5.12,0.29,7.67c0.02,2.68,1.14,4.07,3.95,3.86
	c0.39-0.03,0.79,0.25,1.12,0.89C512.7,432.73,507.36,432.73,502.01,432.73z"/>
<path class="st21" d="M195.33,472.82c3.67,1.13,7.34,2.25,11,3.38c2.01,0.82,4.03,1.63,6.04,2.45c-0.54,1.03-0.9,2.23-1.66,3.06
	c-4.22,4.55-8.52,9.02-12.84,13.48c-0.37,0.38-1.04,0.48-1.57,0.7c-1.41-0.38-2.82-0.75-4.23-1.13c-4.72-1.37-9.44-2.74-14.16-4.11
	c1.26-0.61,2.78-0.96,3.74-1.89c2.89-2.8,5.65-5.73,8.28-8.78C191.88,477.74,193.54,475.22,195.33,472.82z"/>
<path class="st7" d="M146.02,310.16c-3.62-1.09-7.24-2.17-10.86-3.26c1.09-1.67,2.19-3.35,3.28-5.02c0.32-0.4,0.63-0.8,0.95-1.2
	c0,0-0.03,0.03-0.03,0.03c1.98-1.93,3.97-3.86,5.94-5.8c0.62-0.62,1.19-1.29,1.78-1.93c1.42,0.6,2.86,1.75,4.25,1.7
	c3.79-0.13,7.55-0.85,11.34-1.18c1.91-0.16,3.84,0.04,5.76,0.08c-1.89,3.39-3.73,6.81-5.68,10.16c-1.71,2.96-3.54,5.84-5.32,8.76
	c-3.44-0.77-6.87-1.54-10.31-2.32c-0.21-0.02-0.42-0.05-0.64-0.07C146.33,310.13,146.17,310.15,146.02,310.16z"/>
<path class="st24" d="M195.33,472.82c-1.79,2.4-3.45,4.91-5.4,7.17c-2.63,3.04-5.39,5.98-8.28,8.78c-0.96,0.93-2.48,1.27-3.74,1.89
	c-0.38-0.07-0.76-0.14-1.14-0.21c-0.19-0.03-0.38-0.06-0.57-0.1c-2.19-0.52-4.38-1.05-6.57-1.57c-1.97-0.61-3.93-1.22-5.9-1.83
	c0.39-0.68,0.68-1.46,1.19-2.03c4.29-4.75,8.64-9.44,12.92-14.19c0.76-0.84,1.29-1.9,1.93-2.86c1.39,0.22,2.79,0.45,4.18,0.67
	c3.71,1.4,7.43,2.8,11.14,4.2c-0.03,0.13-0.07,0.25-0.1,0.38c0.1-0.1,0.21-0.2,0.31-0.3L195.33,472.82z"/>
<path class="st16" d="M296.11,478.19c0.56,3.63,1.17,7.26,1.68,10.91c0.67,4.77,1.31,9.56,1.88,14.34c0.31,2.6,1.28,4.48,4.2,4.6
	c-2.77,0-5.54,0-8.04,0c-0.78-6.34-1.53-12.34-2.27-18.34c-0.26-0.08-0.52-0.16-0.77-0.24c-2.91,6.28-5.82,12.56-9.06,19.54
	c-3.2-6.82-6.13-13.09-9.06-19.35c-0.2-0.02-0.4-0.03-0.6-0.05c-0.59,5.44-1.27,10.88-1.65,16.33c-0.05,0.72,1.43,1.55,2.11,2.24
	c-2.31,0-5.01,0-7.72,0c2.86-0.52,2.72-2.9,3.03-4.94c1.2-7.98,2.34-15.97,3.51-23.95c0.05-0.37,0.18-0.72,0.5-1.94
	c3.83,8.26,7.35,15.85,11.08,23.9c3.66-8.05,7.1-15.59,10.53-23.13C295.67,478.14,295.89,478.16,296.11,478.19z"/>
<path class="st23" d="M179.78,467.88c-0.64,0.96-1.16,2.01-1.93,2.86c-4.28,4.75-8.63,9.44-12.92,14.19
	c-0.52,0.57-0.8,1.35-1.19,2.03c-0.42-0.17-0.84-0.34-1.27-0.51c-3.56-3.88-7.12-7.75-10.68-11.63c0.51-0.91,0.89-1.91,1.55-2.7
	c2.65-3.19,5.35-6.34,8.11-9.43c0.38-0.42,1.19-0.46,1.8-0.68C168.76,463.97,174.27,465.93,179.78,467.88z"/>
<path class="st18" d="M231.39,375.46c-5.58,1.6-11.12,2.05-16.69-0.21c-0.48-0.19-1.48,0.9-2.23,1.4c-0.33-2.12-0.45-4.3-1.02-6.35
	c-1.16-4.19-2.56-8.31-3.86-12.46c-0.22-0.24-0.45-0.49-0.67-0.73c-0.14-0.41-0.28-0.81-0.42-1.22c1.23-1.57,2.56-2.11,4.54-1.08
	c0.89,0.46,2.28,0.31,3.33,0.03c1.77-0.48,3.45-1.28,5.17-1.94c5.11,6.36,8.65,13.6,11.72,21.1
	C231.43,374.43,231.35,374.97,231.39,375.46z"/>
<path class="st3" d="M251,505.34c-4.73,4.88-9.45,9.76-14.2,14.62c-0.57,0.58-1.32,0.98-1.99,1.46c-3.98-3.74-7.96-7.48-11.94-11.23
	c5.2-5.36,10.4-10.73,15.6-16.09c1.68,1.18,3.51,2.19,5,3.57C246.09,500.11,248.5,502.77,251,505.34z"/>
<path class="st24" d="M183.78,192.79c-0.97,1.01-1.81,2.2-2.94,3c-4.28,3.02-8.64,5.9-12.97,8.84c-0.79-2.8-1.47-5.64-2.42-8.38
	c-0.96-2.8-2.18-5.51-3.29-8.25c4.22-3.13,8.5-6.19,12.62-9.44c1.48-1.17,2.57-2.82,3.83-4.25c0.34,0.31,0.9,0.56,0.99,0.93
	C181.04,181.07,182.41,186.93,183.78,192.79z"/>
<path class="st25" d="M157.31,579.47c0.09-0.78,0.17-1.56,0.26-2.34c3.55-1.15,7.09-2.38,10.67-3.43c2.85-0.83,5.75-1.47,6.23-5.25
	c1.39,1.53,2.53,2.77,3.66,4.02c0.32-0.1,0.64-0.2,0.96-0.3c0-5.7,0-11.4,0-17.11c0.29-0.04,0.58-0.08,0.87-0.12
	c2.27,3.2,4.68,6.31,6.76,9.63c1.21,1.92,2.46,2.39,4.59,1.77c7.1-2.05,14.19-4.14,21.38-5.87c4.98-1.2,8.38-3.61,9.25-8.89
	c0.02-0.11,0.25-0.18,0.38-0.27c3.05,3.39,4.91,4.03,9.46,3.02c5.58-1.25,11.13-2.6,16.69-3.9c0.19,1,0.39,2,0.58,3
	c-4.98,1.13-9.92,2.63-14.97,3.25c-3.59,0.44-7.33-0.3-10.97-1.2c-0.16,0.11-0.42,0.18-0.45,0.32c-1.07,4.46-4.16,6.33-8.41,7.49
	c-6.73,1.83-13.29,4.23-19.93,6.4c-3.94,1.29-5.46,0.76-7.9-2.59c-1.24-1.7-2.67-3.27-4.63-5.66c-0.72,5.5-1.33,10.08-1.99,15.1
	c-1.63-1.55-2.95-2.81-3.74-3.56c-1.6,1.04-2.78,2.26-4.21,2.67C167.05,577.1,162.16,578.23,157.31,579.47z"/>
<path class="st20" d="M196.3,495.89c0.53-0.23,1.2-0.32,1.57-0.7c4.32-4.46,8.62-8.93,12.84-13.48c0.76-0.82,1.12-2.03,1.66-3.06
	c4.76,2.35,9.51,4.69,14.27,7.04c-0.22,0.54-0.31,1.19-0.67,1.59c-2.94,3.29-5.86,6.61-8.93,9.78c-1.87,1.93-3.99,3.61-6,5.4
	C206.13,500.27,201.21,498.08,196.3,495.89z"/>
<path class="st25" d="M167.38,233.15c-0.12,0.97-0.24,1.93-0.36,2.9c-3.11,0.79-6.2,1.7-9.34,2.31c-1.41,0.27-2.93-0.09-4.75-0.18
	c-0.28,0.95-0.81,2.75-1.38,4.7c-3.03-3.89-5.8-7.44-8.57-10.99c-0.27,0.04-0.53,0.08-0.8,0.12c-0.56,3.13-1.24,6.24-1.62,9.38
	c-0.21,1.76-0.93,2.57-2.61,2.95c-7.57,1.72-15.15,3.4-22.67,5.33c-3.71,0.95-7.04,1.14-10.08-1.69c-0.36-0.34-1.69-0.09-2.26,0.32
	c-2.53,1.82-4.71,4.32-7.46,5.59c-4.7,2.16-9.75,3.59-14.65,5.32c-0.27-0.98-0.55-1.95-0.82-2.93c4.86-1.61,9.72-3.21,14.58-4.83
	c3.91-1.3,7.36-3.05,7.16-9.09c4.1,6.09,8.82,5.48,13.97,3.86c6.95-2.19,13.99-4.09,21.03-5.98c1.87-0.5,2.53-1.45,2.6-3.29
	c0.16-4.32,0.47-8.63,0.78-13.92c3.67,5.8,6.87,10.88,10.54,16.68c0.46-2.47,0.79-4.18,1.2-6.35c2.12,2.47,4.34,2.35,6.86,1.62
	C161.54,234.17,164.48,233.75,167.38,233.15z"/>
<path class="st19" d="M211.04,502.46c2.01-1.79,4.13-3.47,6-5.4c3.07-3.17,5.99-6.48,8.93-9.78c0.36-0.41,0.45-1.06,0.67-1.59
	c3.94,2.8,7.88,5.61,11.83,8.41c-5.2,5.36-10.4,10.73-15.6,16.09C218.93,507.61,214.99,505.04,211.04,502.46z"/>
<path class="st8" d="M219.54,352.89c-1.72,0.67-3.4,1.47-5.17,1.94c-1.05,0.28-2.44,0.43-3.33-0.03c-1.99-1.04-3.32-0.49-4.55,1.08
	c-2.58-4.19-5.17-8.38-7.75-12.58c-3.17-4.02-6.26-8.11-9.53-12.05c-2.46-2.96-5.15-5.73-7.74-8.59c3.47,1.74,7.14,3.18,10.39,5.27
	c8.3,5.34,16.05,11.4,22.69,18.75C216.32,348.66,217.88,350.82,219.54,352.89z"/>
<path class="st26" d="M203.47,643.58c2.39,0.21,4.77,0.45,7.17,0.6c1.44,0.09,2.88,0.02,4.32,0.02c0.16,0.25,0.32,0.49,0.47,0.74
	c-4.99,5.89-9.98,11.78-14.97,17.66c-3.22-1.34-6.49-2.59-9.61-4.13c-0.47-0.23-0.72-2.18-0.3-2.77c2.28-3.15,4.87-6.08,7.22-9.18
	c0.72-0.94,1.04-2.18,1.55-3.29C200.71,643.35,202.09,643.46,203.47,643.58z"/>
<path class="st12" d="M419.66,483.58c-0.45,1.04-1.31,2.15-1.34,3.28c-0.14,5.53-0.08,11.07-0.06,16.6
	c0.01,2.28-0.47,4.94,3.24,4.78c-3.3,0-6.6,0-9.91,0c2.66-1.59,3.08-3.79,2.22-12.11c-4.07,0-8.17,0-12.59,0
	c0,3.16-0.22,6.4,0.13,9.57c0.11,0.98,1.8,1.78,2.64,2.54c-2.87,0-6.08,0-8.67,0c0.47-1.15,1.43-2.43,1.47-3.73
	c0.17-5.73,0.02-11.46,0.12-17.19c0.03-2.02-0.23-3.54-2.65-3.78c3.06,0,6.12,0,9.11,0c-4.4,2.58-1.26,6.81-2.48,10.36
	c4.54,0,8.72,0,13.34,0c-1.32-3.44,2.17-7.87-2.79-10.32C414.32,483.58,417.37,483.58,419.66,483.58z"/>
<path class="st16" d="M482.58,483.92c4.87,0,10.2-0.29,15.48,0.08c5.59,0.39,9.04,3.82,9.86,8.93c1.02,6.37-1.38,12.12-6.38,14.23
	c-2.39,1.01-5.11,1.62-7.7,1.69c-3.79,0.1-7.59-0.45-10.64-0.67c0.46-1.14,1.38-2.41,1.41-3.71c0.17-5.62,0.05-11.25,0.09-16.87
	C484.72,485.62,484.84,483.69,482.58,483.92z M488.99,485.55c0,6.35-0.07,12.56,0.08,18.76c0.02,0.84,0.9,2.03,1.7,2.42
	c4.48,2.19,11.02-0.61,12.31-5.42C506.09,490.08,498.8,483.67,488.99,485.55z"/>
<path class="st16" d="M366.69,495.65c-0.12,7.69-5.96,13.37-13.63,13.28c-7.6-0.09-13.16-5.6-13.14-13.02
	c0.02-7.6,5.89-13.19,13.74-13.09C361.75,482.93,366.81,487.91,366.69,495.65z M362.04,496.74c0.21-0.11,0.41-0.23,0.62-0.34
	c-1.19-2.92-1.87-6.22-3.67-8.69c-3.52-4.84-11.04-4.16-13.18,1.07c-2.13,5.2-1.81,10.44,1.71,15.09c2.08,2.74,5.05,3.77,8.39,3.14
	c3.17-0.6,4.8-2.91,5.48-5.91C361.71,499.67,361.83,498.19,362.04,496.74z"/>
<path class="st16" d="M691.23,495.53c-0.08,7.72-5.79,13.38-13.51,13.4c-7.66,0.02-13.42-5.72-13.26-13.2
	c0.17-7.53,5.89-12.95,13.62-12.91C686.17,482.87,691.31,487.83,691.23,495.53z M686.59,496.95c0.19-0.11,0.39-0.22,0.58-0.32
	c-1.14-2.95-1.76-6.26-3.52-8.77c-3.51-5.01-11.23-4.36-13.36,1c-2.08,5.22-1.75,10.46,1.82,15.08c2.1,2.73,5.08,3.72,8.42,3.06
	c3.02-0.6,4.65-2.8,5.33-5.7C686.2,499.86,686.36,498.4,686.59,496.95z"/>
<path class="st16" d="M798.02,495.57c-0.09,7.71-5.84,13.38-13.55,13.36c-7.68-0.02-13.41-5.77-13.21-13.24
	c0.2-7.54,5.93-12.93,13.66-12.87C793.01,482.89,798.11,487.86,798.02,495.57z M793.39,496.91c0.2-0.11,0.39-0.22,0.59-0.33
	c-1.14-2.95-1.78-6.25-3.54-8.76c-3.44-4.9-10.97-4.37-13.2,0.8c-2.28,5.29-1.91,10.62,1.71,15.33c2.09,2.73,5.09,3.71,8.43,3.02
	c3.02-0.62,4.63-2.83,5.31-5.73C793,499.83,793.15,498.36,793.39,496.91z"/>
<path class="st16" d="M450.35,495.46c-0.05,7.74-5.68,13.38-13.45,13.47c-7.63,0.08-13.44-5.65-13.32-13.14
	c0.12-7.52,5.83-12.98,13.56-12.98C445.23,482.83,450.4,487.77,450.35,495.46z M445.71,496.91c0.2-0.11,0.39-0.22,0.59-0.33
	c-1.14-2.95-1.78-6.25-3.54-8.76c-3.44-4.9-10.97-4.37-13.2,0.8c-2.28,5.29-1.91,10.62,1.71,15.33c2.09,2.73,5.09,3.71,8.43,3.02
	c3.02-0.62,4.63-2.83,5.31-5.73C445.33,499.83,445.48,498.36,445.71,496.91z"/>
<path class="st16" d="M823.1,508.86c-6.36-5.93-12.53-11.68-18.41-17.17c0,4.23-0.13,9.1,0.11,13.96c0.05,0.93,1.58,1.78,2.31,2.54
	c-2.28,0-5.04,0-7,0c0.54-1.26,1.7-2.75,1.77-4.28c0.27-5.92,0.18-11.86,0.23-17.79c0.01-0.94,0-1.89,0-2.83
	c0.26-0.14,0.53-0.28,0.79-0.42c5.92,6.19,11.84,12.38,18.05,18.88c0-5.59,0.11-10.75-0.11-15.9c-0.03-0.83-1.53-1.59-2.25-2.29
	c2.18,0,4.74,0,6.5,0c-0.47,1.22-1.43,2.63-1.49,4.07c-0.25,6.12-0.22,12.25-0.31,18.37C823.28,506.94,823.17,507.88,823.1,508.86z"
	/>
<path class="st16" d="M475.39,508.62c-6.34-5.75-12.57-11.41-18.37-16.66c0,4.01-0.13,8.89,0.12,13.75
	c0.05,0.91,1.62,1.75,2.39,2.51c-2.38,0-5.17,0-7.05,0c0.54-1.32,1.66-2.83,1.72-4.38c0.26-5.92,0.18-11.86,0.23-17.79
	c0.01-0.94,0.08-1.87,0.81-3.17c5.92,6.19,11.83,12.38,18.03,18.86c0-5.63,0.11-10.8-0.11-15.95c-0.04-0.82-1.56-1.57-2.29-2.25
	c2.16,0,4.67,0,6.59,0c-0.49,1.36-1.46,2.89-1.53,4.46c-0.26,6.12-0.22,12.25-0.32,18.37C475.6,507.19,475.45,508.01,475.39,508.62z
	"/>
<path class="st12" d="M800.53,415.49c-24.43,0-50.42,0-76.58,0c0-1.28,0-2.7,0-4.49C750.02,412.53,776.06,414.05,800.53,415.49z"/>
<path class="st12" d="M291.73,415.37c24.04-1.4,48.09-2.81,72.33-4.22c0,1.47,0,2.89,0,4.49c-24.03,0-48.12,0-72.2,0
	C291.82,415.55,291.78,415.46,291.73,415.37z"/>
<path class="st16" d="M390.85,503.52c0.32,4.08-0.19,4.98-4.75,5.21c-2.89,0.15-5.93-0.13-8.73-0.88c-5.91-1.6-9.42-6.97-8.97-12.98
	c0.48-6.34,4.31-10.77,10.64-11.51c3.84-0.45,7.77-0.08,11.73-0.08c0,2.62,0,4.49,0,6.76c-2.53-4.82-5.64-6.26-10.83-5.31
	c-3.63,0.67-5.96,3.51-6.62,8.07c-1.25,8.7,5.17,15.72,12.86,13.79C387.99,506.14,389.49,504.45,390.85,503.52z"/>
<path class="st18" d="M186.27,638.93c-0.35,1.07-0.46,2.3-1.09,3.17c-1.96,2.74-4.11,5.34-6.75,8.71
	c-3.12-3.58-5.96-6.85-8.81-10.12c1.62-3.22,5.4-5.22,5.33-9.39C178.73,633.85,182.5,636.39,186.27,638.93z"/>
<path class="st16" d="M626.44,502.39c0.91,2.88,2.39,5.27,5.73,4.66c1.44-0.26,3.51-1.25,3.86-2.35c0.46-1.47-0.09-3.62-0.95-5.02
	c-0.81-1.31-2.58-2.03-3.96-2.98c-4.15-2.87-5.48-5.91-4.1-9.4c1.25-3.16,5.09-4.91,9.48-4.31c0.97,0.13,1.94,0.33,3.03,0.52
	c0,1.68,0,3.33,0,4.97c-0.96-2.85-2.81-4.51-5.84-3.86c-1.27,0.27-3.03,1.3-3.32,2.34c-0.33,1.18,0.34,3.12,1.26,4.08
	c1.46,1.53,3.53,2.45,5.25,3.75c2.76,2.1,3.91,4.95,3.15,8.34c-1.12,4.99-9.36,8.08-13.29,4.75c-1.05-0.89-0.69-3.44-0.98-5.23
	C625.99,502.56,626.22,502.47,626.44,502.39z"/>
<path class="st2" d="M174.96,631.31c0.07,4.18-3.71,6.17-5.33,9.39c-1.82-2.26-3.62-4.53-5.46-6.77c-0.49-0.6-1.08-1.11-1.63-1.66
	c-0.98-2.17-1.97-4.34-2.95-6.51c1.8-2.02,3.6-4.05,5.39-6.07c2.38,2.82,4.76,5.64,7.15,8.45c0.74,0.87,1.52,1.72,2.28,2.57
	c0.13,0.14,0.26,0.29,0.4,0.43L174.96,631.31z"/>
<path class="st12" d="M748.27,485.07c0,6.96-0.12,13.46,0.11,19.95c0.04,1.14,1.59,2.23,2.26,3.1c-2.34,0-5.54,0-8.16,0
	c0.42-1.07,1.37-2.42,1.41-3.79c0.16-6.3,0.07-12.61,0.07-19.24c-3.12,0.83-6.6-1.14-9.07,2.31c0.27-1.47,0.54-2.94,0.77-4.22
	c7.22,0,14.17,0,21.27,0c0,1.41,0,3.05,0,4.83C755.06,484.06,751.51,485.86,748.27,485.07z"/>
<path class="st12" d="M325.68,485.19c-3.15,0.65-6.59-1.17-9.17,3.08c0.36-2.27,0.58-3.69,0.8-5.08c7.13,0,14.16,0,21.33,0
	c0,1.41,0,3.04,0,4.82c-1.88-3.94-5.43-2.15-8.75-2.96c0,3.81,0,7.3,0,10.8c0,2.76,0.07,5.53,0.02,8.29
	c-0.04,2.3,0.66,3.86,3.31,3.98c-3.21,0-6.42,0-9.02,0c0.42-1.08,1.36-2.43,1.4-3.8C325.77,498.03,325.68,491.72,325.68,485.19z"/>
<path class="st12" d="M663.8,488.09c-1.98-4.04-5.52-2.21-8.65-3.01c0,7.07-0.11,13.85,0.13,20.61c0.03,0.9,1.79,1.75,2.59,2.47
	c-2.72,0-5.97,0-8.93,0c0.52-0.69,1.71-1.54,1.73-2.42c0.16-6.79,0.09-13.59,0.09-20.62c-3.09,0.78-6.56-1.11-9,2.26
	c0.24-1.43,0.48-2.85,0.71-4.19c7.15,0,14.18,0,21.34,0C663.8,484.58,663.8,486.14,663.8,488.09z"/>
<path class="st12" d="M307.11,483.51c2.01,0,4.86,0,7.12,0c-0.46,1.11-1.42,2.38-1.46,3.68c-0.17,5.63-0.05,11.26-0.08,16.9
	c-0.01,2.21,0.32,4.05,3.17,4.07c-3.2,0-6.41,0-8.9,0c0.46-1.13,1.4-2.42,1.44-3.73c0.17-5.63,0.17-11.27,0.01-16.9
	C308.38,486.13,307.53,484.76,307.11,483.51z"/>
<path class="st12" d="M769.23,508.25c-3.23,0-6.46,0-9.02,0c0.48-1.16,1.44-2.44,1.48-3.75c0.17-5.9,0.16-11.82,0.01-17.72
	c-0.03-1.12-0.97-2.21-1.44-3.22c2.17,0,5.05,0,7.37,0c-0.48,1-1.52,2.19-1.56,3.4c-0.18,5.71-0.06,11.42-0.09,17.13
	C765.96,506.28,766.29,508.12,769.23,508.25z"/>
<path class="st3" d="M150.67,138.17c-1.38-0.6-2.76-1.21-4.14-1.81C147.91,136.96,149.29,137.57,150.67,138.17z"/>
<path class="st4" d="M100.37,150.82c0.74-0.06,1.49-0.12,2.23-0.17C101.86,150.7,101.11,150.76,100.37,150.82z"/>
<path class="st2" d="M164.11,618.1c-0.14-0.4-0.28-0.79-0.42-1.19C163.83,617.31,163.97,617.7,164.11,618.1z"/>
<path class="st2" d="M164.67,618.7c-0.14-0.14-0.27-0.27-0.41-0.41C164.4,618.43,164.54,618.56,164.67,618.7z"/>
<path class="st18" d="M139.61,627c0.1,0.26,0.19,0.52,0.29,0.78C139.8,627.52,139.71,627.26,139.61,627z"/>
<path class="st18" d="M174.8,631.15c-0.13-0.14-0.26-0.29-0.4-0.43C174.53,630.86,174.66,631,174.8,631.15z"/>
<path class="st14" d="M172.53,318.54c-0.16-0.12-0.32-0.23-0.48-0.35C172.2,318.31,172.36,318.42,172.53,318.54z"/>
<path class="st18" d="M151.86,599.05c0.2,0.62,0.4,1.23,0.61,1.85C152.26,600.28,152.06,599.67,151.86,599.05z"/>
<path class="st18" d="M151.82,594.38c0.02,0.58,0.04,1.16,0.05,1.75C151.86,595.54,151.84,594.96,151.82,594.38z"/>
<path class="st18" d="M151.85,597.32c-0.01,0.39-0.01,0.78-0.02,1.17C151.84,598.1,151.85,597.71,151.85,597.32z"/>
<path class="st21" d="M176.2,490.35c0.19,0.03,0.38,0.06,0.57,0.1C176.58,490.42,176.39,490.39,176.2,490.35z"/>
<path class="st18" d="M151.87,596.1c0,0.22,0,0.45-0.01,0.67C151.86,596.55,151.86,596.33,151.87,596.1z"/>
<path class="st15" d="M116.14,406.42c0.63,2.98,1.24,5.97,1.9,8.95c0.16,0.75,0.44,1.47,0.67,2.2c0.16,0.56,0.32,1.11,0.48,1.67
	c0.58,1.93,1.03,3.91,1.77,5.78c2.26,5.7,5.37,10.89,9.72,15.28c0.4,0.52,0.81,1.05,1.21,1.57c5.52,4.45,10.76,9.32,16.65,13.21
	c4.48,2.95,9.78,4.66,14.71,6.92c-0.61,0.22-1.42,0.25-1.8,0.68c-2.76,3.09-5.46,6.24-8.11,9.43c-0.65,0.79-1.04,1.79-1.55,2.7
	c-3.64-4.11-7.51-8.03-10.86-12.36c-8.58-11.07-16.26-22.73-21.05-36C117.56,420.02,115.91,413.38,116.14,406.42z"/>
<path class="st25" d="M117.71,383.65c4.32-1.3,8.64-2.59,13.31-3.99c0.16-2.62,0.35-5.61,0.56-9.01c1.69,2.25,3.2,4.25,4.83,6.41
	c10.44-4.24,20.36-9.67,32.15-11.08c-0.79-4.39-1.59-8.81-2.51-13.87c2.94,3.66,5.51,6.86,7.7,9.59c1.74-1.25,3.01-2.48,4.52-3.17
	c3.48-1.58,7.07-2.9,10.62-4.33c0.28,0.04,0.55,0.09,0.83,0.13c0.46,0.57,0.92,1.13,1.39,1.7c-3.49,1.79-6.92,3.72-10.49,5.33
	c-2.82,1.28-5.03,2.68-4.33,6.46c-2.3-3.13-4.61-6.25-6.91-9.38c-0.17,0.07-0.34,0.15-0.51,0.22c0.68,4.11,1.36,8.21,2.04,12.32
	c-2.48-3.31-5.26-2.03-8.1-0.93c-7.23,2.8-14.44,5.65-21.75,8.22c-2.37,0.83-2.75,2.03-2.23,4.14c0.3,1.23,0.36,2.51,0.52,3.77
	l0.03-0.02c-1.76-3.07-3.52-6.13-5.28-9.2c-0.23,0.04-0.46,0.08-0.69,0.12c-0.15,1.88-0.3,3.77-0.46,5.77
	c-5.22,1.16-10.37,2.31-15.53,3.46C117.51,385.41,117.61,384.53,117.71,383.65z"/>
<path class="st27" d="M211.1,398.02c-0.84-5.13-1.68-10.26-2.52-15.39c-0.29-0.45-0.58-0.9-0.87-1.35
	c-1.79-7.84-6.26-14.18-11.4-20.1c-1.6-1.84-3.46-3.44-5.2-5.15c-0.46-0.57-0.92-1.13-1.39-1.7c1.01-4.24,4.76-6.15,7.51-8.92
	c0.6-0.6,1.02-1.39,1.52-2.09c2.58,4.19,5.17,8.38,7.75,12.57c0.14,0.41,0.28,0.81,0.42,1.22c0.22,0.24,0.45,0.49,0.67,0.73
	c1.3,4.15,2.7,8.28,3.86,12.46c0.57,2.05,0.7,4.23,1.02,6.35c1.01,7.5,1.38,14.96-1.43,22.21c0,0-0.06-0.15-0.06-0.15
	C211.01,398.48,211.05,398.25,211.1,398.02z"/>
<path class="st25" d="M130.67,440.31c6.79-2.26,13.6-4.47,20.35-6.86c0.82-0.29,1.73-1.54,1.83-2.43c0.26-2.3,0.09-4.65,0.09-7.89
	c2.13,2.82,3.7,4.88,5.3,6.99c10.6-4.33,20.58-9.87,32.22-11.07c-0.81-4.38-1.61-8.73-2.56-13.86c3.01,3.75,5.54,6.91,7.63,9.5
	c1.92-1.28,3.39-2.57,5.09-3.32c3.23-1.43,6.6-2.55,9.9-3.8c-0.06,0.99-0.12,1.98-0.18,2.97c-2.64,1.32-5.22,2.81-7.95,3.93
	c-2.83,1.16-4.9,2.59-4.37,6.24c-2.22-3-4.44-6.01-6.66-9.01c-0.21,0.09-0.42,0.17-0.64,0.26c0.68,4.09,1.35,8.18,2.03,12.26
	c-2.38-3.63-5.37-2.22-8.23-1.15c-8.09,3.04-16.15,6.15-24.36,9.29c0.43,2.36,0.81,4.46,1.19,6.56c-0.13,0.06-0.26,0.12-0.39,0.17
	c-1.65-2.98-3.3-5.97-4.94-8.95c-0.27,0.04-0.53,0.08-0.8,0.12c-0.2,1.84-0.4,3.68-0.58,5.24c-7.66,2.15-15.2,4.26-22.75,6.38
	C131.48,441.36,131.08,440.84,130.67,440.31z"/>
<path class="st21" d="M195.3,472.82c-0.1,0.1-0.21,0.2-0.31,0.3c0.03-0.13,0.07-0.25,0.1-0.38
	C195.1,472.75,195.3,472.82,195.3,472.82z"/>
<path class="st7" d="M147.48,292.34c0.07-0.18,0.16-0.34,0.28-0.49C147.66,292.02,147.57,292.18,147.48,292.34z"/>
<path class="st17" d="M130.23,328.1c1.47,0.55,2.94,1.1,4.41,1.65C133.17,329.2,131.7,328.65,130.23,328.1z"/>
<path class="st14" d="M156.57,337.25c-0.36-0.13-0.72-0.26-1.08-0.39C155.85,336.99,156.21,337.12,156.57,337.25z"/>
<path class="st17" d="M146.48,310.12c0.21,0.02,0.42,0.05,0.64,0.07C146.9,310.17,146.69,310.14,146.48,310.12z"/>
<path class="st15" d="M138.43,301.88c0.32-0.4,0.63-0.8,0.95-1.2C139.06,301.08,138.75,301.48,138.43,301.88z"/>
<path class="st8" d="M207.58,357.83c-0.22-0.24-0.45-0.49-0.67-0.73C207.14,357.34,207.36,357.59,207.58,357.83z"/>
<path class="st25" d="M207.71,381.27c0.29,0.45,0.58,0.9,0.87,1.35c-5.8,2.93-11.61,5.86-17.41,8.79c-4.09,2.07-4.09,2.07-4.59,6.26
	c-2.24-2.92-4.46-5.82-6.69-8.71c-0.2-0.22-0.4-0.44-0.6-0.66c0.03,0.35,0.07,0.71,0.1,1.06c0.61,3.97,1.22,7.94,1.97,12.79
	c-2.55-4.28-5.47-3.15-8.54-1.95c-7.14,2.8-14.3,5.55-21.51,8.14c-2.26,0.81-2.96,1.87-2.12,4.13c0.44,1.18,0.53,2.48,0.46,3.89
	c-1.78-3.17-3.57-6.35-5.4-9.6c-0.41,0.39-0.64,0.5-0.65,0.63c-0.52,5.6-0.56,5.43-5.97,6.76c-6.19,1.52-12.3,3.38-18.45,5.09
	c-0.16-0.56-0.32-1.11-0.48-1.67c7.07-2.37,14.17-4.66,21.17-7.24c0.91-0.33,1.6-2.13,1.79-3.34c0.3-1.88,0.08-3.84,0.08-6.43
	c1.42,1.88,2.58,3.2,3.48,4.67c1.03,1.69,2.07,1.82,3.88,1.04c6.6-2.84,13.23-5.62,19.96-8.12c3.1-1.15,6.46-1.57,9.84-2.35
	c-0.8-4.11-1.63-8.41-2.47-12.71c0.15-0.1,0.3-0.19,0.45-0.29c2.52,3.16,5.03,6.31,7.86,9.85c0.39-3.24,2.82-3.79,5.01-4.62
	C195.74,385.8,201.72,383.54,207.71,381.27z"/>
<polygon class="st25" points="139.33,386.17 139.44,386.2 139.37,386.15 "/>
<path class="st2" d="M211.1,398.02c-0.04,0.23-0.08,0.46-0.13,0.7C211.01,398.48,211.05,398.25,211.1,398.02z"/>
<path class="st28" d="M179.39,389.37c-0.03-0.35-0.07-0.71-0.1-1.06c0.2,0.22,0.4,0.44,0.6,0.66
	C179.73,389.1,179.56,389.24,179.39,389.37z"/>
<g>
</g>
<g>
</g>
<g>
</g>
<g>
</g>
<g>
</g>
<g>
</g>
</svg>
