<?xml version="1.0" encoding="utf-8"?>
<!-- Generator: Adobe Illustrator 24.3.0, SVG Export Plug-In . SVG Version: 6.00 Build 0)  -->
<svg version="1.1" id="frequency-medicine-logo-1" xmlns="http://www.w3.org/2000/svg" xmlns:xlink="http://www.w3.org/1999/xlink"
	 x="0px" y="0px" viewBox="0 0 864 864" style="enable-background:new 0 0 864 864;" xml:space="preserve">
<style type="text/css">
	.st0{fill:url(#circle-outer-border_1_);}
	.st1{fill:url(#circle-inner-background_1_);}
	.st2{fill:#DA2B2B;}
	.st3{fill:#DA2528;}
	.st4{fill:url(#ekg-top-back_1_);}
	.st5{fill:url(#ekg-top-front_1_);}
	.st6{fill:url(#ekg-middle-back-1_1_);}
	.st7{fill:url(#ekg-middle-front-1_1_);}
	.st8{fill:url(#ekg-middle-back-2_1_);}
	.st9{fill:url(#ekg-middle-back-3_1_);}
	.st10{fill:url(#ekg-middle-front-3_1_);}
	.st11{fill:url(#ekg-bottom-back_1_);}
	.st12{fill:url(#ekg-bottom-front_1_);}
	.st13{fill:url(#dna-strand-1-top_1_);}
	.st14{fill:#FFFFFF;}
	.st15{fill:url(#dna-strand-1-bottom_1_);}
	.st16{fill:url(#dna-strand-2-top_1_);}
	.st17{fill:url(#dna-strand-2-middle_1_);}
	.st18{fill:url(#dna-strand-2-bottom_1_);}
	.st19{fill:#0C0C0C;}
</style>
<g id="frequency-medicine-logo-1-parts">
	<g id="circle-background_1_">
		
			<linearGradient id="circle-outer-border_1_" gradientUnits="userSpaceOnUse" x1="321.087" y1="214.5219" x2="553.687" y2="617.397">
			<stop  offset="0" style="stop-color:#CCCDCC"/>
			<stop  offset="0.4776" style="stop-color:#D1836D"/>
			<stop  offset="1" style="stop-color:#D12228"/>
		</linearGradient>
		<path id="circle-outer-border" class="st0" d="M437.39,648.46c-62.1,0-120.49-24.18-164.4-68.1
			c-43.91-43.91-68.1-102.3-68.1-164.4c0-62.1,24.18-120.49,68.1-164.4s102.3-68.1,164.4-68.1s120.49,24.18,164.4,68.1
			c43.91,43.91,68.1,102.3,68.1,164.4c0,62.1-24.18,120.49-68.1,164.4C557.88,624.28,499.49,648.46,437.39,648.46z M437.39,190.46
			c-124.34,0-225.5,101.16-225.5,225.5c0,124.34,101.16,225.5,225.5,225.5s225.5-101.16,225.5-225.5
			C662.89,291.62,561.73,190.46,437.39,190.46z"/>
		
			<linearGradient id="circle-inner-background_1_" gradientUnits="userSpaceOnUse" x1="226.8386" y1="415.2175" x2="649.5483" y2="415.2175">
			<stop  offset="0" style="stop-color:#BF2227"/>
			<stop  offset="0.6199" style="stop-color:#EE3025"/>
		</linearGradient>
		<circle id="circle-inner-background" class="st1" cx="438.19" cy="415.22" r="211.35"/>
	</g>
	<g id="frequency-letters">
		<path id="frequency-letter-f" class="st2" d="M329.47,671.19c4.86,0,10.2,0,15.75,0c-0.09,1.23-0.19,2.56-0.31,4.21
			c-2.23-4.04-5.67-1.76-8.6-2.57c0,2.94,0,5.54,0,8.3c2.59,0,5.22,0,8,0c-0.08,1.21-0.18,2.65-0.3,4.43
			c-1.76-3.98-4.96-1.96-7.76-2.58c0,3.21-0.23,6.19,0.12,9.11c0.12,1.01,1.68,1.85,2.39,2.58c-2.65,0-5.93,0-8.57,0
			c0.45-0.86,1.41-1.89,1.44-2.94c0.19-5.89,0.27-11.78,0.09-17.67C331.69,673.07,330.23,672.12,329.47,671.19z"/>
		<path id="frequency-letter-r" class="st2" d="M374.51,694.46c-0.59,0.03-1.34-0.19-2.31-0.62c-0.75-0.34-1.52-0.81-2.07-1.41
			c-2.55-2.73-5.02-5.54-7.51-8.3c1.13-1.22,2.17-2.17,3-3.28c3.02-4.02,1.36-8.57-3.6-9.08c-4.33-0.44-8.73-0.09-13.1-0.09
			c2.07-0.02,2.92,1.06,2.9,3.13c-0.07,5.25,0.11,10.5-0.1,15.74c-0.06,1.5-1.1,2.97-1.58,4.18h8.82c-2.97,0.06-3.1-1.9-3.06-4.05
			c0.04-1.76,0.01-3.53,0.01-5.23c2.59-0.62,4.3,0.09,5.48,2.31c0.65,1.22,1.7,2.23,2.5,3.38c1.85,2.69,4.32,3.89,7.64,3.79
			c1.02-0.03,2.04-0.05,3.06-0.06C374.56,694.73,374.54,694.59,374.51,694.46z M355.89,683.4v-10.22c2.49-0.53,4.74-0.52,6.24,1.8
			c1.44,2.22,1.45,4.6,0.07,6.87C360.73,684.29,358.42,683.66,355.89,683.4z"/>
		<path id="frequency-letter-e-1" class="st2" d="M389.93,690.5c-1.14,2.5-6.12,3.79-8.3,2.09c-0.46-0.36-0.89-1.06-0.91-1.61
			c-0.1-2.59-0.04-5.18-0.04-8.15c2.77,1,6.08-1.43,7.73,2.56c0.21-1.59,0.41-3.05,0.59-4.35h-8.17v-8.27
			c2.88,0.93,6.46-1.5,8.21,3.05c0.12-1.91,0.22-3.36,0.3-4.65h-15.42c0.8,1.01,2.23,1.97,2.26,2.98c0.18,5.8,0.12,11.61-0.03,17.41
			c-0.03,1.26-0.25,2.08-0.7,2.52c0.05,0.26,0.09,0.52,0.12,0.78c3.6-0.03,7.21,0.03,10.81,0.03
			C390.1,694.88,390.59,694.27,389.93,690.5z"/>
		<path id="frequency-letter-q" class="st2" d="M415.24,693.15c8.1,3.92,15.85,8.82,25.81,5.93c-3.08,2.95-12.19,3.8-17.23,1.73
			c-2.66-1.09-5.28-2.38-7.71-3.91c-2.47-1.56-4.8-2.19-7.83-1.69c-6.69,1.12-12.72-2.94-14.2-9.04
			c-2.16-8.9,5.18-16.61,14.69-15.42c5.17,0.64,9.45,2.7,11.15,7.99c1.72,5.36,0.08,9.92-4.12,13.6
			C415.62,692.52,415.5,692.78,415.24,693.15z M415.68,683.98c0.18-0.05,0.35-0.11,0.53-0.16c-0.78-2.44-1.27-5.03-2.42-7.28
			c-1.68-3.3-5.73-4.83-9.37-4.04c-3.22,0.7-5.43,3.43-5.75,7.37c-0.14,1.75-0.17,3.56,0.06,5.3c0.71,5.22,4.99,8.81,10.03,8.58
			c4.19-0.19,6.52-3.19,6.91-8.92C415.7,684.54,415.68,684.26,415.68,683.98z"/>
		<path id="frequency-letter-n" class="st2" d="M496.81,671.35c-0.48,1.05-1.42,2.18-1.48,3.35c-0.27,5.88-0.31,11.77-0.43,17.66
			c-0.02,0.97-0.1,1.95-0.15,2.92c-0.25,0.13-0.5,0.26-0.75,0.39c-5.96-5.77-11.93-11.54-18.04-17.46c0,4.86-0.14,9.4,0.11,13.91
			c0.05,0.96,1.56,1.83,2.25,2.58c-2.26,0-5.05,0-7.84,0c2.68-0.33,2.63-2.35,2.63-4.35c0-6.44,0-12.88,0-19.33
			c0.31-0.14,0.62-0.28,0.93-0.43c6.07,5.91,12.14,11.81,18.42,17.92c0-5.25,0.12-10.16-0.12-15.04c-0.04-0.79-1.66-1.5-2.43-2.15
			C492.17,671.35,494.78,671.35,496.81,671.35z"/>
		<path id="frequency-letter-u" class="st3" d="M441.02,671.33c2.06,0,4.74,0,6.62,0c-0.47,1.18-1.41,2.55-1.5,3.98
			c-0.25,3.73-0.02,7.48-0.18,11.22c-0.21,4.97-2.61,7.84-7.55,8.56c-8.99,1.31-12.74-2.61-12.74-10.4c0-3.28,0.01-6.55,0-9.83
			c-0.01-2.59-0.03-2.59-3.29-3.45c3.71,0,6.78,0,9.21,0c-0.4,1.01-1.28,2.27-1.34,3.56c-0.18,4.11-0.2,8.24,0.01,12.35
			c0.26,5.09,4.5,7.76,9.02,5.95c2.61-1.04,3.69-3.08,3.76-5.68c0.11-4.49,0.19-8.99-0.03-13.47
			C442.95,673.11,441.63,672.15,441.02,671.33z"/>
		<path id="frequency-letter-c" class="st2" d="M522.57,671.29c-0.12,2.46-0.21,4.16-0.31,6.21c-2.41-4.59-6.08-6.12-11.13-4.9
			c-3.77,0.91-6.01,4.19-6.1,8.95c-0.11,5.97,2.72,10.26,7.66,11.61c4.52,1.23,7.47,0.14,9.63-3.57c0.35,4.57-0.08,5.29-4.48,5.67
			c-5.75,0.5-11.33-0.07-15.24-5.04c-5.33-6.77-1.8-17.22,6.63-18.79C513.43,670.65,517.89,671.29,522.57,671.29z"/>
		<path id="frequency-letter-e-2" class="st2" d="M451.01,671.16c4.9,0,10.12,0,15.44,0c-0.09,1.31-0.18,2.75-0.3,4.65
			c-1.75-4.55-5.33-2.12-8.21-3.05c0,2.95,0,5.61,0,8.28c2.68,0,5.38,0,8.16,0c-0.17,1.29-0.37,2.73-0.59,4.41
			c-1.59-4.2-5-1.4-7.73-2.87c0,3.18-0.05,5.77,0.04,8.35c0.02,0.56,0.43,1.26,0.88,1.63c2.14,1.72,7.19,0.43,8.29-2.05
			c0.77,3.64,0.21,4.37-3.43,4.37c-4.07,0-8.13,0-11.72,0c0.48-0.96,1.32-1.87,1.35-2.82c0.17-5.98,0.27-11.97,0.11-17.95
			C453.26,673.12,451.81,672.16,451.01,671.16z"/>
		<path id="frequency-letter-y" class="st2" d="M541.29,694.8c-3.27,0-6.53,0-9.06,0c0.45-1.14,1.21-2.4,1.44-3.75
			c1.33-7.69-3.95-12.62-7.79-18.13c-0.46-0.66-1.45-0.95-2.45-1.58c2.89,0,5.47,0,7.39,0c0.94,4.27,3.92,7.31,5.9,11.63
			c1.68-4.24,5.29-6.93,4.99-11.62c1.8,0,4.07,0,5.62,0c-1.43,1.66-3.19,3.53-4.74,5.56c-3.08,4.01-5.28,8.29-4.58,13.66
			C538.29,692.79,538.19,694.86,541.29,694.8z"/>
	</g>
	<g id="medicine-letters">
		<path id="medicine-letter-m" class="st2" d="M349.55,735.74c-2.28,0-4.9,0-7.53,0c2.27-0.51,2.51-2.27,2.78-4.22
			c0.99-7.06,2.12-14.11,3.21-21.16c0.09-0.6,0.36-1.18,0.78-2.53c3.65,7.43,7.03,14.29,10.62,21.59
			c3.51-7.25,6.81-14.09,10.11-20.92c0.23,0,0.45,0.01,0.68,0.01c0.5,3.16,1,6.33,1.49,9.49c0.68,4.4,1.48,8.8,1.95,13.22
			c0.28,2.64,1.33,4.13,4.03,4.37c-2.65,0-5.29,0-7.78,0c-0.76-5.86-1.49-11.45-2.21-17.03c-0.2-0.05-0.39-0.1-0.59-0.14
			c-2.81,5.76-5.62,11.53-8.8,18.04c-3.12-6.26-5.95-11.93-9.12-18.31c-0.76,5.55-1.54,10.4-1.95,15.28
			C347.15,734.16,348.8,735.04,349.55,735.74z"/>
		<path id="medicine-letter-e-1" class="st2" d="M386.18,724.27c0,2.86-0.1,5.17,0.06,7.47c0.05,0.75,0.61,1.75,1.24,2.12
			c2.4,1.39,6.42,0.14,7.7-2.24c0.29,3.95,0.05,4.23-3.66,4.23c-3.83,0-7.65,0-11.1,0c0.47-0.78,1.35-1.56,1.38-2.36
			c0.17-5.9,0.25-11.8,0.11-17.69c-0.02-0.86-1.42-1.69-2.16-2.52c4.59,0,9.59,0,14.75,0c-0.09,1.2-0.2,2.66-0.33,4.37
			c-1.28-2.88-1.35-2.9-7.79-2.68c0,2.53,0,5.07,0,7.68c2.5,0,5.08,0,7.76,0c-0.15,1.17-0.33,2.55-0.54,4.2
			C392.04,722.95,388.87,725.32,386.18,724.27z"/>
		<path id="medicine-letter-d" class="st2" d="M399.69,735.88c0.54-1.09,1.47-2.14,1.5-3.22c0.18-5.53,0.24-11.07,0.07-16.6
			c-0.03-0.96-1.38-1.89-2.11-2.83c-0.15,0.21-0.31,0.42-0.46,0.63c5.62,0,11.3-0.48,16.86,0.14c5.43,0.6,8.4,5.07,8.31,10.77
			c-0.09,5.56-3.81,10.42-9.34,11C409.44,736.3,404.27,735.88,399.69,735.88z M405.52,715.25c0,5.04,0,9.96,0,14.87
			c0,0.63-0.13,1.31,0.08,1.86c0.32,0.83,0.7,1.92,1.38,2.29c4.22,2.27,10.84-0.45,12.02-5.09
			C421.75,718.4,413.92,713.54,405.52,715.25z"/>
		<path id="medicine-letter-i-1" class="st2" d="M428.11,713.34c2.35,0,5.18,0,7.34,0c-0.43,0.98-1.33,2.12-1.37,3.28
			c-0.16,5.08-0.01,10.18-0.09,15.26c-0.03,2.16,0.3,3.79,2.97,3.8c-3.1,0-6.2,0-8.64,0c0.43-0.94,1.36-2.08,1.39-3.25
			c0.18-5.44,0.2-10.89,0.05-16.33C429.74,715.13,428.63,714.17,428.11,713.34z"/>
		<path id="medicine-letter-c" class="st2" d="M460.93,713.81c-0.08,1.8-0.15,3.45-0.23,5.32c-2.47-4.33-6.12-5.79-10.84-4.52
			c-3.84,1.03-5.72,4.31-5.63,9.78c0.08,4.95,3.1,8.78,7.78,9.89c4.28,1.02,6.81,0,8.67-3.47c0.49,4.18-0.04,4.98-4.14,5.41
			c-5.03,0.53-9.91-0.07-13.75-3.72c-5.84-5.56-3.54-15.93,4.12-18.71C451.5,712.12,456.17,712.71,460.93,713.81z"/>
		<path id="medicine-letter-i-2" class="st2" d="M474.62,735.77c-3.08,0-6.16,0-8.67,0c0.45-1.05,1.38-2.26,1.42-3.49
			c0.18-5.35,0.17-10.71,0.03-16.06c-0.03-1-1.03-1.96-1.51-2.83c2.18,0,4.97,0,7.15,0c-0.42,1.08-1.29,2.36-1.34,3.67
			c-0.17,4.99-0.01,10-0.09,15C471.58,734.17,472.08,735.59,474.62,735.77z"/>
		<path id="medicine-letter-n" class="st2" d="M485.83,735.77c-2.67,0-5.35,0-8.02,0c2.46-0.32,2.59-2.09,2.58-4.02
			c-0.03-6.24-0.01-12.47-0.01-18.71c0.3-0.12,0.61-0.25,0.91-0.37c5.79,5.64,11.59,11.29,17.6,17.15c0-5.01,0.13-9.62-0.12-14.2
			c-0.05-0.85-1.63-1.62-2.34-2.28c2.1,0,4.57,0,7.51,0c-3.12,1.01-2.52,3.41-2.58,5.39c-0.16,5.01-0.12,10.02-0.18,15.03
			c-0.01,0.84-0.11,1.67-0.17,2.51c-0.23,0.11-0.47,0.23-0.7,0.34c-5.67-5.5-11.34-11-17.4-16.86c0,1.9-0.01,3.43,0,4.95
			c0.01,2.33,0.05,4.65,0.05,6.98C482.99,733.69,483.3,735.47,485.83,735.77z"/>
		<path id="medicine-letter-e-2" class="st2" d="M522.08,717.72c-1.27-2.97-1.41-3.02-7.8-2.75c0,2.53,0,5.07,0,7.66
			c2.52,0,5.1,0,7.78,0c-0.16,1.19-0.34,2.58-0.55,4.19c-1.55-3.86-4.71-1.53-7.39-2.53c0,2.82-0.09,5.29,0.06,7.75
			c0.04,0.65,0.66,1.51,1.25,1.84c2.43,1.34,6.36,0.12,7.7-2.25c0.24,4,0.04,4.22-3.72,4.22c-3.81,0-7.62,0-10.92,0
			c0.44-0.98,1.23-1.95,1.26-2.93c0.16-5.63,0.25-11.26,0.08-16.89c-0.03-0.96-1.39-1.87-2.1-2.76c4.51,0,9.53,0,14.67,0
			C522.32,714.5,522.21,715.96,522.08,717.72z"/>
	</g>
	<g id="dna-strands">
		<g id="ekg-top">
			
				<linearGradient id="ekg-top-back_1_" gradientUnits="userSpaceOnUse" x1="379.1429" y1="159.5403" x2="440.9976" y2="159.5403" gradientTransform="matrix(0.9744 0.2248 -0.2248 0.9744 79.5759 53.5632)">
				<stop  offset="0" style="stop-color:#959636"/>
				<stop  offset="0.0252" style="stop-color:#949536"/>
				<stop  offset="0.4969" style="stop-color:#878935"/>
				<stop  offset="1" style="stop-color:#838534"/>
			</linearGradient>
			<path id="ekg-top-back" class="st4" d="M410.86,304.17c2.4-0.22,4.36-0.34,5.69-0.41c0.57-0.03,3.23-0.17,6.42-0.48
				c2.92-0.29,3.81-0.48,4.56-1.21c1.07-1.03,1.24-2.53,1.26-3.4c0.62,0.71,1.13,1.39,1.56,2.03c0.52,0.78,0.67,1.11,1.08,1.5
				c0.46,0.44,1.18,0.89,2.37,1.08c3.08-0.12,7.02-0.28,10.09-0.41c2.35-0.1,6.18-0.25,8.53-0.35c0.21,0.06,0.56,0.12,0.9-0.03
				c0.47-0.21,0.67-0.73,0.77-1.01c0.34-0.99,1.38-4.77,2.7-9.91c0.52,1.53,1.04,3.06,1.56,4.59c0.89,2.6,1.78,5.18,2.67,7.76
				c0.01,0.03,0.03,0.12,0.11,0.19c0.09,0.08,0.23,0.09,0.35,0.05c0.28-1.09,0.54-2.01,0.74-2.71c0.21-0.73,0.37-1.24,0.61-1.25
				c0.25-0.01,0.51,0.53,0.73,0.98c0.25,0.53,0.29,0.85,0.64,1.11c0.14,0.11,0.28,0.17,0.44,0.21c1.12,0.33,3.18,0.04,4.55-0.07
				c0.3-0.02,0.04,0,1.51-0.05c2.85-0.11,3.63-0.21,3.86,0.2c0.1,0.18,0.14,0.53-0.41,1.31c-1.75-0.08-3.16-0.02-4.12,0.05
				c-1.46,0.11-2.88,0.3-5.16,0.28c-0.36,0-0.65-0.01-0.84-0.02c0.01-0.21,0.03-1.37-0.68-1.79c-0.06-0.04-0.13-0.07-0.2-0.09
				c-0.4,0.61-0.61,1.14-0.73,1.51c-0.21,0.64-0.25,1.13-0.64,1.79c-0.16,0.27-0.32,0.47-0.43,0.59c-0.13-0.06-0.27-0.12-0.4-0.18
				c-0.82-1.76-1.39-2.98-1.79-3.85c-1.71-3.66-1.76-3.76-1.78-3.91c-0.01-0.06-0.02-0.32-0.2-0.47c-0.14-0.11-0.32-0.11-0.45-0.1
				c-0.34,0.77-0.6,1.42-0.79,1.89c-0.81,2-1.22,3-1.34,3.51c-0.26,1.03-0.23,1.47-0.67,1.83c-0.59,0.49-1.44,0.35-1.77,0.31
				c-0.49-0.07-3.11-0.13-8.36-0.25c-1.97-0.05-4.29-0.1-6.49,0.27c-0.52,0.09-2.14,0.38-4.18,0.04c-0.33-0.05-0.59-0.11-0.77-0.15
				c-0.42-0.42-0.84-0.88-1.27-1.36c-0.56-0.64-1.07-1.27-1.53-1.87c-0.16,0.15-0.38,0.35-0.65,0.59c-0.47,0.41-1.03,0.85-1.42,1.12
				c-0.81,0.56-1.57,0.82-2.52,1.14c-0.63,0.21-1.61,0.5-3.12,0.75c-1.7,0.29-1.75,0.14-4.23,0.43c-2.28,0.27-3.42,0.4-3.82,0.48
				c-1.36,0.27-1.99,0.51-2.49,0.14C410.65,306.05,410.76,304.81,410.86,304.17z"/>
			
				<linearGradient id="ekg-top-front_1_" gradientUnits="userSpaceOnUse" x1="379.3459" y1="159.3083" x2="441.2006" y2="159.3083" gradientTransform="matrix(0.9744 0.2248 -0.2248 0.9744 79.5759 53.5632)">
				<stop  offset="0" style="stop-color:#F2EA1A"/>
				<stop  offset="1" style="stop-color:#F1EA19"/>
			</linearGradient>
			<path id="ekg-top-front" class="st5" d="M411.11,303.99c2.4-0.22,4.36-0.34,5.69-0.41c0.57-0.03,3.23-0.17,6.42-0.48
				c2.92-0.29,3.81-0.48,4.56-1.21c1.07-1.03,1.24-2.53,1.26-3.4c0.62,0.71,1.13,1.39,1.56,2.03c0.52,0.78,0.67,1.11,1.08,1.5
				c0.46,0.44,1.18,0.89,2.37,1.08c3.08-0.12,7.02-0.28,10.09-0.41c2.35-0.1,6.18-0.25,8.53-0.35c0.21,0.06,0.56,0.12,0.9-0.03
				c0.47-0.21,0.67-0.73,0.77-1.01c0.34-0.99,1.38-4.76,2.7-9.91c0.52,1.53,1.04,3.06,1.56,4.59c0.89,2.6,1.78,5.18,2.67,7.76
				c0.01,0.03,0.03,0.12,0.11,0.19c0.09,0.08,0.23,0.09,0.35,0.05c0.28-1.09,0.54-2.01,0.74-2.71c0.21-0.73,0.37-1.24,0.61-1.25
				c0.25-0.01,0.51,0.53,0.73,0.98c0.25,0.53,0.29,0.85,0.64,1.11c0.14,0.11,0.28,0.17,0.44,0.21c1.12,0.33,3.18,0.04,4.55-0.07
				c0.3-0.02,0.04,0,1.51-0.05c2.85-0.11,3.63-0.21,3.86,0.2c0.1,0.18,0.14,0.53-0.41,1.31c-1.75-0.08-3.16-0.02-4.12,0.05
				c-1.46,0.11-2.88,0.3-5.16,0.28c-0.36,0-0.65-0.01-0.84-0.02c0.01-0.21,0.03-1.37-0.68-1.79c-0.06-0.04-0.13-0.07-0.2-0.09
				c-0.4,0.61-0.61,1.14-0.73,1.51c-0.21,0.64-0.25,1.13-0.64,1.79c-0.16,0.27-0.32,0.47-0.43,0.59c-0.13-0.06-0.27-0.12-0.4-0.18
				c-0.82-1.76-1.39-2.98-1.79-3.85c-1.71-3.66-1.76-3.76-1.78-3.91c-0.01-0.06-0.02-0.32-0.2-0.47c-0.14-0.11-0.32-0.11-0.45-0.1
				c-0.34,0.77-0.6,1.42-0.79,1.89c-0.81,2-1.22,3-1.34,3.51c-0.26,1.03-0.23,1.47-0.67,1.83c-0.59,0.49-1.44,0.35-1.77,0.31
				c-0.49-0.07-3.11-0.13-8.36-0.25c-1.97-0.05-4.29-0.1-6.49,0.27c-0.52,0.09-2.14,0.38-4.18,0.04c-0.33-0.05-0.59-0.11-0.77-0.15
				c-0.42-0.42-0.84-0.88-1.27-1.36c-0.56-0.64-1.07-1.27-1.53-1.87c-0.16,0.15-0.38,0.35-0.65,0.59c-0.47,0.41-1.03,0.85-1.42,1.12
				c-0.81,0.56-1.57,0.82-2.52,1.14c-0.63,0.21-1.61,0.5-3.12,0.75c-1.7,0.29-1.75,0.14-4.23,0.43c-2.28,0.27-3.42,0.4-3.82,0.48
				c-1.36,0.27-1.99,0.51-2.49,0.14C410.9,305.86,411.01,304.63,411.11,303.99z"/>
		</g>
		<g id="ekg-middle">
			
				<linearGradient id="ekg-middle-back-1_1_" gradientUnits="userSpaceOnUse" x1="453.3264" y1="194.4808" x2="401.5865" y2="229.4774" gradientTransform="matrix(0.9521 0.3059 -0.3059 0.9521 104.4423 94.7434)">
				<stop  offset="0" style="stop-color:#828635"/>
				<stop  offset="0.0333" style="stop-color:#828635"/>
				<stop  offset="1" style="stop-color:#828635"/>
			</linearGradient>
			<path id="ekg-middle-back-1" class="st6" d="M416.8,428.34c1.94-0.09,4.2-0.06,6.7,0.2c1.58,0.17,3.05,0.4,4.38,0.68
				c0.71-2.13,1.41-4.26,2.12-6.39c0.45,0.96,0.89,1.97,1.32,3.04c0.36,0.9,0.69,1.78,0.98,2.63c1.4-0.06,3.62-0.17,6.35-0.4
				c3.68-0.3,4.46-0.49,6.87-0.54c3.74-0.08,6.26,0.28,6.85,0.37c1.92,0.29,3.51,0.68,4.68,1.02c0.42-3.26,0.83-6.52,1.25-9.77
				c0.72,1.47,1.26,2.7,1.63,3.57c1,2.36,1.97,5.02,1.97,5.02c0.15-0.05,0.53-0.21,0.8-0.6c0.26-0.36,0.28-0.73,0.28-0.88
				c1.26-0.09,2.55-0.17,3.86-0.22c4.17-0.18,8.14-0.17,11.91-0.01c-0.12,0.35-0.25,0.69-0.37,1.04c-2.39,0.27-4.32,0.47-5.67,0.6
				c-1.14,0.11-2.29,0.23-3.43,0.34c-1.6,0.15-2.59,0.24-3.99,0.43c-0.74,0.1-1.34,0.19-1.76,0.26c-0.36,1.1-0.72,2.19-1.08,3.29
				c-0.14-0.22-0.36-0.59-0.6-1.06c-0.27-0.54-0.6-1.26-1.53-4.33c-0.2-0.65-0.4-1.33-0.81-2.22c-0.18-0.38-0.34-0.69-0.45-0.9
				c-0.22,1.51-0.37,2.73-0.46,3.55c-0.14,1.26-0.21,2.18-0.44,3.58c-0.13,0.78-0.26,1.41-0.35,1.81c-0.07,0.05-0.17,0.11-0.28,0.09
				c-0.19-0.03-0.32-0.24-0.46-0.54c-0.4-0.85-0.33-1.16-0.65-1.53c-0.11-0.13-0.3-0.31-0.64-0.46c-0.67-0.04-1.65-0.09-2.82-0.13
				c-1.5-0.05-2.88-0.05-5.81,0.01c-5.19,0.1-4.54,0.19-7.11,0.18c-1.16,0-2.46-0.02-4.36,0.08c-1.12,0.06-2.04,0.14-2.65,0.2
				c-0.23,1-0.28,1.81-0.28,2.38c0,0.47,0.04,1.37,0.07,2.08c0.01,0.23,0.02,0.42,0.02,0.56c-0.17-0.22-0.35-0.45-0.52-0.67
				c-0.35-0.95-0.57-1.72-0.7-2.24c-0.29-1.13-0.34-1.72-0.68-3.19c-0.19-0.83-0.36-1.5-0.48-1.91c-0.5,0.68-0.79,1.28-0.95,1.7
				c-0.13,0.32-0.33,0.96-0.74,2.23c-0.03,0.09-0.05,0.16-0.07,0.21c-0.51-0.12-1.23-0.29-2.11-0.45c-1.68-0.31-2.95-0.44-4.4-0.59
				c-2.06-0.21-3.09-0.31-3.74-0.29c-0.94,0.04-1.89-0.16-2.83-0.11c-0.3,0.02-0.6,0.04-0.77-0.13c-0.35-0.36-0.06-1.48,0.76-1.74
				C416.13,428.02,416.67,428.28,416.8,428.34z"/>
			
				<linearGradient id="ekg-middle-front-1_1_" gradientUnits="userSpaceOnUse" x1="453.2532" y1="194.1584" x2="401.5132" y2="229.1549" gradientTransform="matrix(0.9521 0.3059 -0.3059 0.9521 104.4423 94.7434)">
				<stop  offset="0" style="stop-color:#F2EA1A"/>
				<stop  offset="1" style="stop-color:#F1EA19"/>
			</linearGradient>
			<path id="ekg-middle-front-1" class="st7" d="M416.83,428.01c1.94-0.09,4.2-0.06,6.7,0.2c1.58,0.17,3.05,0.4,4.38,0.68
				c0.71-2.13,1.41-4.26,2.12-6.39c0.45,0.96,0.89,1.97,1.32,3.04c0.36,0.9,0.69,1.78,0.98,2.63c1.4-0.06,3.62-0.17,6.35-0.4
				c3.68-0.3,4.46-0.49,6.87-0.54c3.74-0.08,6.26,0.28,6.85,0.37c1.92,0.29,3.51,0.68,4.68,1.02c0.42-3.26,0.83-6.52,1.25-9.77
				c0.72,1.47,1.26,2.7,1.63,3.57c1,2.36,1.97,5.02,1.97,5.02c0.15-0.05,0.53-0.21,0.8-0.6c0.26-0.36,0.28-0.73,0.28-0.88
				c1.26-0.09,2.55-0.17,3.86-0.22c4.17-0.18,8.14-0.17,11.91-0.01c-0.12,0.35-0.25,0.69-0.37,1.04c-2.39,0.27-4.32,0.47-5.67,0.6
				c-1.14,0.11-2.29,0.23-3.43,0.34c-1.6,0.15-2.59,0.24-3.99,0.43c-0.74,0.1-1.34,0.19-1.76,0.26c-0.36,1.1-0.72,2.19-1.08,3.29
				c-0.14-0.22-0.36-0.59-0.6-1.06c-0.27-0.54-0.6-1.26-1.53-4.33c-0.2-0.65-0.4-1.33-0.81-2.22c-0.18-0.38-0.34-0.69-0.45-0.9
				c-0.22,1.51-0.37,2.73-0.46,3.55c-0.14,1.26-0.21,2.18-0.44,3.58c-0.13,0.78-0.26,1.41-0.35,1.81c-0.07,0.05-0.17,0.11-0.28,0.09
				c-0.19-0.03-0.32-0.24-0.46-0.54c-0.4-0.85-0.33-1.16-0.65-1.53c-0.11-0.13-0.3-0.31-0.64-0.46c-0.67-0.04-1.65-0.09-2.82-0.13
				c-1.5-0.05-2.88-0.05-5.81,0.01c-5.19,0.1-4.54,0.19-7.11,0.18c-1.16,0-2.46-0.02-4.36,0.08c-1.12,0.06-2.04,0.14-2.65,0.2
				c-0.23,1-0.28,1.81-0.28,2.38c0,0.47,0.04,1.37,0.07,2.08c0.01,0.23,0.02,0.42,0.02,0.56c-0.17-0.22-0.35-0.45-0.52-0.67
				c-0.35-0.95-0.57-1.72-0.7-2.24c-0.29-1.13-0.34-1.72-0.68-3.19c-0.19-0.83-0.36-1.5-0.48-1.91c-0.5,0.68-0.79,1.28-0.95,1.7
				c-0.13,0.32-0.33,0.96-0.74,2.23c-0.03,0.09-0.05,0.16-0.07,0.21c-0.51-0.12-1.23-0.29-2.11-0.45c-1.68-0.31-2.95-0.44-4.4-0.59
				c-2.06-0.21-3.09-0.31-3.74-0.29c-0.94,0.04-1.89-0.16-2.83-0.11c-0.3,0.02-0.6,0.04-0.77-0.13c-0.35-0.36-0.06-1.48,0.76-1.74
				C416.16,427.69,416.7,427.95,416.83,428.01z"/>
			
				<linearGradient id="ekg-middle-back-2_1_" gradientUnits="userSpaceOnUse" x1="439.3224" y1="170.9748" x2="383.9417" y2="208.4338" gradientTransform="matrix(0.9381 0.3464 -0.3464 0.9381 124.604 89.8782)">
				<stop  offset="0" style="stop-color:#828635"/>
				<stop  offset="0.0333" style="stop-color:#828635"/>
				<stop  offset="1" style="stop-color:#828635"/>
			</linearGradient>
			<path id="ekg-middle-back-2" class="st8" d="M411.89,411.24c0.5-0.04,1.23-0.09,2.1-0.15c1.01-0.07,2.78-0.19,4.11-0.24
				c1.63-0.07,3.69-0.15,6.21,0.1c1.22,0.12,2.9,0.35,4.88,0.84c0.43-0.96,0.86-1.92,1.29-2.9c0.47-1.07,0.94-2.13,1.4-3.19
				c0.16,0.64,0.3,1.15,0.4,1.51c0.32,1.13,0.5,1.65,0.84,2.84c0.14,0.5,0.24,0.9,0.31,1.17c0.45-0.02,1.12-0.06,1.93-0.12
				c2.67-0.19,3.69-0.36,5.22-0.48c2.22-0.19,3.87-0.15,6.25-0.1c1.67,0.03,3.32,0.03,5.04,0.25c0.81,0.11,1.61,0.25,2.45,0.47
				c0.69,0.18,1.26,0.37,1.69,0.53c0.17-0.5,0.32-1.03,0.46-1.59c0.42-1.65,0.63-3.19,0.72-4.56c0.13-1.17,0.26-2.33,0.4-3.5
				c0.25,0.56,0.62,1.46,0.99,2.59c0.33,1.01,0.27,1.05,0.71,2.43c0.12,0.38,0.46,1.44,0.97,2.8c0.14,0.37,0.26,0.67,0.35,0.9
				c0.08-0.23,0.26-0.66,0.67-1.05c0.49-0.48,1.03-0.64,1.28-0.7c0.95,0.03,2.41,0.06,4.19,0.03c2.77-0.04,4-0.18,6.17-0.22
				c1.47-0.03,3.6-0.03,6.22,0.16c-0.16,0.17-0.33,0.33-0.49,0.5c-1.99,0.35-3.62,0.58-4.72,0.73c-1.62,0.22-2.85,0.35-7.92,0.85
				c-1.42,0.14-2.97,0.29-4.36,0.43c-0.37,1.01-0.74,2.01-1.12,3.02c-0.63-1.42-0.93-2.61-1.1-3.47c-0.19-0.96-0.27-1.91-0.78-3.25
				c-0.21-0.57-0.43-1.03-0.59-1.33c-0.27,1.38-0.48,2.5-0.63,3.29c-0.24,1.31-0.35,1.94-0.57,3.04c-0.22,1.1-0.42,1.99-0.55,2.58
				c-0.13-0.09-0.26-0.18-0.4-0.27c0-0.24-0.01-1-0.55-1.69c-0.35-0.44-0.76-0.66-0.98-0.77c-0.56-0.03-1.43-0.08-2.49-0.12
				c-2.93-0.09-3.97,0.03-8.17,0.11c-3.07,0.05-3.52,0-6.46,0.09c-1.42,0.04-2.58,0.09-3.35,0.12c-0.23,1.6-0.46,3.19-0.69,4.79
				c-0.12-0.1-0.23-0.21-0.35-0.31c-0.07-1.36-0.23-2.45-0.37-3.2c-0.17-0.91-0.39-1.83-0.72-3.73c-0.05-0.26-0.08-0.48-0.11-0.63
				c-0.39,0.81-0.77,1.67-1.14,2.58c-0.25,0.62-0.49,1.22-0.7,1.81c-0.59-0.21-1.48-0.49-2.56-0.76c-2.03-0.5-3.53-0.65-6.28-0.9
				c-2.93-0.27-4.4-0.4-5.81-0.35c-2.24,0.08-3.99,0.4-4.13-0.04C410.97,411.92,411.43,411.55,411.89,411.24z"/>
			
				<linearGradient id="ekg-middle-back-3_1_" gradientUnits="userSpaceOnUse" x1="429.5082" y1="152.214" x2="381.8332" y2="184.461" gradientTransform="matrix(0.9381 0.3464 -0.3464 0.9381 124.604 89.8782)">
				<stop  offset="0" style="stop-color:#838634"/>
				<stop  offset="0.0333" style="stop-color:#838634"/>
				<stop  offset="1" style="stop-color:#838634"/>
			</linearGradient>
			<path id="ekg-middle-back-3" class="st9" d="M419.7,388.99c1.77-0.07,3.83-0.02,6.08,0.27c1.43,0.18,2.75,0.43,3.94,0.71
				c0.79-2.1,1.59-4.19,2.38-6.29c0.34,0.95,0.67,1.96,0.99,3.02c0.27,0.9,0.5,1.77,0.71,2.61c1.28-0.05,3.31-0.14,5.81-0.33
				c3.38-0.26,4.09-0.44,6.29-0.46c3.41-0.04,5.68,0.34,6.21,0.44c1.73,0.3,3.15,0.71,4.19,1.05c0.61-3.22,1.22-6.43,1.83-9.65
				c0.55,1.46,0.95,2.68,1.23,3.54c0.74,2.35,1.44,4.98,1.44,4.98c0.14-0.05,0.49-0.2,0.77-0.58c0.26-0.36,0.31-0.72,0.32-0.87
				c1.15-0.08,2.33-0.14,3.53-0.18c3.81-0.14,7.43-0.08,10.84,0.11c-0.14,0.34-0.27,0.68-0.41,1.02c-2.19,0.24-3.97,0.42-5.21,0.54
				c-1.05,0.1-2.1,0.2-3.15,0.3c-1.47,0.14-2.37,0.21-3.67,0.39c-0.68,0.09-1.24,0.18-1.62,0.24c-0.41,1.08-0.81,2.16-1.22,3.24
				c-0.11-0.22-0.28-0.59-0.47-1.05c-0.21-0.53-0.45-1.25-1.08-4.29c-0.13-0.65-0.27-1.32-0.58-2.21c-0.13-0.38-0.26-0.69-0.34-0.89
				c-0.31,1.49-0.53,2.69-0.67,3.51c-0.21,1.25-0.34,2.16-0.66,3.54c-0.17,0.77-0.34,1.39-0.45,1.78c-0.07,0.05-0.16,0.1-0.26,0.09
				c-0.17-0.03-0.28-0.24-0.38-0.54c-0.31-0.84-0.22-1.15-0.48-1.52c-0.09-0.13-0.25-0.31-0.55-0.46c-0.61-0.05-1.5-0.11-2.56-0.16
				c-1.37-0.06-2.62-0.08-5.29-0.05c-4.73,0.05-4.15,0.14-6.49,0.11c-1.05-0.01-2.24-0.04-3.98,0.04c-1.02,0.05-1.86,0.12-2.43,0.17
				c-0.28,0.99-0.39,1.79-0.43,2.35c-0.03,0.46-0.06,1.36-0.09,2.05c-0.01,0.23-0.01,0.42-0.02,0.55c-0.14-0.22-0.28-0.44-0.43-0.67
				c-0.25-0.94-0.4-1.71-0.48-2.22c-0.18-1.12-0.19-1.7-0.39-3.16c-0.11-0.83-0.22-1.49-0.3-1.9c-0.51,0.67-0.81,1.26-0.99,1.68
				c-0.14,0.32-0.37,0.94-0.83,2.2c-0.03,0.09-0.06,0.16-0.08,0.2c-0.45-0.13-1.1-0.3-1.89-0.47c-1.51-0.33-2.66-0.47-3.96-0.63
				c-1.86-0.23-2.8-0.34-3.38-0.32c-0.86,0.03-1.71-0.18-2.57-0.14c-0.27,0.01-0.55,0.03-0.69-0.14c-0.29-0.36,0.05-1.46,0.82-1.71
				C419.12,388.67,419.59,388.93,419.7,388.99z"/>
			
				<linearGradient id="ekg-middle-front-3_1_" gradientUnits="userSpaceOnUse" x1="429.4648" y1="151.9384" x2="381.7897" y2="184.1855" gradientTransform="matrix(0.9381 0.3464 -0.3464 0.9381 124.604 89.8782)">
				<stop  offset="0" style="stop-color:#EFE919"/>
				<stop  offset="1" style="stop-color:#EFE919"/>
			</linearGradient>
			<path id="ekg-middle-front-3" class="st10" d="M419.75,388.72c1.77-0.07,3.83-0.02,6.08,0.27c1.43,0.18,2.75,0.43,3.94,0.71
				c0.79-2.1,1.59-4.19,2.38-6.29c0.34,0.95,0.67,1.96,0.99,3.02c0.27,0.9,0.5,1.77,0.71,2.61c1.28-0.05,3.31-0.14,5.81-0.33
				c3.38-0.26,4.09-0.44,6.29-0.46c3.41-0.04,5.68,0.34,6.21,0.44c1.73,0.3,3.15,0.71,4.19,1.05c0.61-3.22,1.22-6.43,1.83-9.65
				c0.55,1.46,0.95,2.68,1.23,3.54c0.74,2.35,1.44,4.98,1.44,4.98c0.14-0.05,0.49-0.2,0.77-0.58c0.26-0.36,0.31-0.72,0.32-0.87
				c1.15-0.08,2.33-0.14,3.53-0.18c3.81-0.14,7.43-0.08,10.84,0.11c-0.14,0.34-0.27,0.68-0.41,1.02c-2.19,0.24-3.97,0.42-5.21,0.54
				c-1.05,0.1-2.1,0.2-3.15,0.3c-1.47,0.14-2.37,0.21-3.67,0.39c-0.68,0.09-1.24,0.18-1.62,0.24c-0.41,1.08-0.81,2.16-1.22,3.24
				c-0.11-0.22-0.28-0.59-0.47-1.05c-0.21-0.53-0.45-1.25-1.08-4.29c-0.13-0.65-0.27-1.32-0.58-2.21c-0.13-0.38-0.26-0.69-0.34-0.89
				c-0.31,1.49-0.53,2.69-0.67,3.51c-0.21,1.25-0.34,2.16-0.66,3.54c-0.17,0.77-0.34,1.39-0.45,1.78c-0.07,0.05-0.16,0.1-0.26,0.09
				c-0.17-0.03-0.28-0.24-0.38-0.54c-0.31-0.84-0.22-1.15-0.48-1.52c-0.09-0.13-0.25-0.31-0.55-0.46c-0.61-0.05-1.5-0.11-2.56-0.16
				c-1.37-0.06-2.62-0.08-5.29-0.05c-4.73,0.05-4.15,0.14-6.49,0.11c-1.05-0.01-2.24-0.04-3.98,0.04c-1.02,0.05-1.86,0.12-2.43,0.17
				c-0.28,0.99-0.39,1.79-0.43,2.35c-0.03,0.46-0.06,1.36-0.09,2.05c-0.01,0.23-0.01,0.42-0.02,0.55c-0.14-0.22-0.28-0.44-0.43-0.67
				c-0.25-0.94-0.4-1.71-0.48-2.22c-0.18-1.12-0.19-1.7-0.39-3.16c-0.11-0.83-0.22-1.49-0.3-1.9c-0.51,0.67-0.81,1.26-0.99,1.68
				c-0.14,0.32-0.37,0.94-0.83,2.2c-0.03,0.09-0.06,0.16-0.08,0.2c-0.45-0.13-1.1-0.3-1.89-0.47c-1.51-0.33-2.66-0.47-3.96-0.63
				c-1.86-0.23-2.8-0.34-3.38-0.32c-0.86,0.03-1.71-0.18-2.57-0.14c-0.27,0.01-0.55,0.03-0.69-0.14c-0.29-0.36,0.05-1.46,0.82-1.71
				C419.17,388.39,419.64,388.65,419.75,388.72z"/>
		</g>
		<g id="ekg-bottom">
			
				<linearGradient id="ekg-bottom-back_1_" gradientUnits="userSpaceOnUse" x1="-282.2439" y1="561.3098" x2="-199.3556" y2="561.3098" gradientTransform="matrix(-0.7159 0.276 0.3597 0.9331 71.4441 63.8835)">
				<stop  offset="0" style="stop-color:#8B8D35"/>
				<stop  offset="0.0333" style="stop-color:#8B8D35"/>
				<stop  offset="1" style="stop-color:#8B8D35"/>
			</linearGradient>
			<path id="ekg-bottom-back" class="st11" d="M480.29,522.45c-2.56-0.1-4.63-0.1-6.04-0.09c-0.6,0.01-3.41,0.04-6.82-0.12
				c-3.12-0.14-4.09-0.32-5.07-1.21c-1.38-1.26-1.94-3.2-2.18-4.32c-0.46,0.97-0.82,1.9-1.11,2.76c-0.35,1.05-0.42,1.5-0.75,2.04
				c-0.37,0.61-1.01,1.26-2.2,1.6c-3.24,0.08-7.39,0.19-10.63,0.27c-2.48,0.06-6.51,0.16-8.99,0.22c-0.21,0.09-0.56,0.2-0.95,0.03
				c-0.55-0.24-0.89-0.89-1.06-1.26c-0.61-1.26-2.65-6.09-5.34-12.69c-0.15,2.03-0.31,4.06-0.46,6.09
				c-0.27,3.45-0.54,6.89-0.82,10.31c0,0.04,0,0.16-0.06,0.26c-0.08,0.11-0.21,0.14-0.35,0.09c-0.57-1.4-1.07-2.57-1.46-3.47
				c-0.41-0.93-0.7-1.59-0.96-1.58c-0.27,0.01-0.4,0.73-0.51,1.34c-0.13,0.71-0.09,1.13-0.38,1.49c-0.12,0.15-0.25,0.24-0.41,0.31
				c-1.09,0.52-3.31,0.3-4.76,0.27c-0.32-0.01-0.04,0.01-1.59,0.05c-3,0.08-3.84,0.02-3.98,0.56c-0.06,0.24-0.01,0.7,0.76,1.67
				c1.81-0.24,3.29-0.27,4.31-0.26c1.55,0.02,3.08,0.16,5.45-0.04c0.37-0.03,0.68-0.07,0.88-0.09c-0.06-0.27-0.38-1.78,0.26-2.38
				c0.05-0.05,0.12-0.1,0.19-0.13c0.57,0.76,0.93,1.44,1.14,1.9c0.38,0.82,0.55,1.46,1.12,2.29c0.23,0.34,0.45,0.59,0.6,0.74
				c0.13-0.09,0.25-0.18,0.38-0.27c0.4-2.35,0.69-3.99,0.89-5.15c0.85-4.9,0.88-5.03,0.86-5.24c-0.01-0.08-0.06-0.42,0.09-0.63
				c0.12-0.16,0.31-0.17,0.44-0.17c0.55,0.98,0.99,1.8,1.31,2.4c1.36,2.54,2.03,3.81,2.29,4.46c0.53,1.32,0.62,1.9,1.16,2.33
				c0.74,0.59,1.59,0.35,1.92,0.26c0.5-0.13,3.22-0.42,8.65-0.99c2.04-0.22,4.45-0.47,6.84-0.17c0.57,0.07,2.33,0.33,4.37-0.28
				c0.33-0.1,0.59-0.19,0.76-0.26c0.33-0.58,0.65-1.21,0.98-1.88c0.43-0.88,0.8-1.73,1.12-2.56c0.2,0.18,0.48,0.43,0.83,0.71
				c0.6,0.5,1.29,1.03,1.77,1.35c0.99,0.67,1.84,0.94,2.91,1.28c0.72,0.23,1.8,0.52,3.45,0.73c1.84,0.24,1.86,0.04,4.52,0.23
				c2.45,0.17,3.67,0.25,4.1,0.32c1.49,0.24,2.21,0.5,2.63-0.01C480.98,524.88,480.56,523.28,480.29,522.45z"/>
			
				<linearGradient id="ekg-bottom-front_1_" gradientUnits="userSpaceOnUse" x1="-282.7955" y1="560.5806" x2="-199.9072" y2="560.5806" gradientTransform="matrix(-0.7159 0.276 0.3597 0.9331 71.4441 63.8835)">
				<stop  offset="0" style="stop-color:#F2EA1A"/>
				<stop  offset="1" style="stop-color:#F1EA19"/>
			</linearGradient>
			<path id="ekg-bottom-front" class="st12" d="M480.43,521.62c-2.56-0.1-4.63-0.1-6.04-0.09c-0.6,0.01-3.41,0.04-6.82-0.12
				c-3.12-0.14-4.09-0.32-5.07-1.21c-1.38-1.26-1.94-3.2-2.18-4.32c-0.46,0.97-0.82,1.9-1.11,2.76c-0.35,1.05-0.42,1.5-0.75,2.04
				c-0.37,0.61-1.01,1.26-2.2,1.6c-3.24,0.08-7.39,0.19-10.63,0.27c-2.48,0.06-6.51,0.16-8.99,0.22c-0.21,0.09-0.56,0.2-0.95,0.03
				c-0.55-0.24-0.89-0.89-1.06-1.26c-0.61-1.26-2.65-6.09-5.34-12.69c-0.15,2.03-0.31,4.06-0.46,6.09
				c-0.27,3.45-0.54,6.89-0.82,10.31c0,0.04,0,0.16-0.06,0.26c-0.08,0.11-0.21,0.14-0.35,0.09c-0.57-1.4-1.07-2.57-1.46-3.47
				c-0.41-0.93-0.7-1.59-0.96-1.58c-0.27,0.01-0.4,0.73-0.51,1.34c-0.13,0.71-0.09,1.13-0.38,1.49c-0.12,0.15-0.25,0.24-0.41,0.31
				c-1.09,0.52-3.31,0.3-4.76,0.27c-0.32-0.01-0.04,0.01-1.59,0.05c-3,0.08-3.84,0.02-3.98,0.56c-0.06,0.24-0.01,0.7,0.76,1.67
				c1.81-0.24,3.29-0.27,4.31-0.26c1.55,0.02,3.08,0.16,5.45-0.04c0.37-0.03,0.68-0.07,0.88-0.09c-0.06-0.27-0.38-1.78,0.26-2.38
				c0.05-0.05,0.12-0.1,0.19-0.13c0.57,0.76,0.93,1.44,1.14,1.9c0.38,0.82,0.55,1.46,1.12,2.29c0.23,0.34,0.45,0.59,0.6,0.74
				c0.13-0.09,0.25-0.18,0.38-0.27c0.4-2.35,0.69-3.99,0.89-5.15c0.85-4.9,0.88-5.03,0.86-5.24c-0.01-0.08-0.06-0.42,0.09-0.63
				c0.12-0.16,0.31-0.17,0.44-0.17c0.55,0.98,0.99,1.8,1.31,2.4c1.36,2.54,2.03,3.81,2.29,4.46c0.53,1.32,0.62,1.9,1.16,2.33
				c0.74,0.59,1.59,0.35,1.92,0.26c0.5-0.13,3.22-0.42,8.65-0.99c2.04-0.22,4.45-0.47,6.84-0.17c0.57,0.07,2.33,0.33,4.37-0.28
				c0.33-0.1,0.59-0.19,0.76-0.26c0.33-0.58,0.65-1.21,0.98-1.88c0.43-0.88,0.8-1.73,1.12-2.56c0.2,0.18,0.48,0.43,0.83,0.71
				c0.6,0.5,1.29,1.03,1.77,1.35c0.99,0.67,1.84,0.94,2.91,1.28c0.72,0.23,1.8,0.52,3.45,0.73c1.84,0.24,1.86,0.04,4.52,0.23
				c2.45,0.17,3.67,0.25,4.1,0.32c1.49,0.24,2.21,0.5,2.63-0.01C481.11,524.04,480.69,522.45,480.43,521.62z"/>
		</g>
		<g id="dna-strand-1">
			
				<linearGradient id="dna-strand-1-top_1_" gradientUnits="userSpaceOnUse" x1="420.8351" y1="200.3639" x2="394.2602" y2="85.1901" gradientTransform="matrix(0.9744 0.2248 -0.2248 0.9744 79.5759 53.5632)">
				<stop  offset="0.1929" style="stop-color:#909090"/>
				<stop  offset="0.3629" style="stop-color:#989797"/>
				<stop  offset="0.3988" style="stop-color:#A2A0A0"/>
				<stop  offset="0.5131" style="stop-color:#BFBDBD"/>
				<stop  offset="0.6298" style="stop-color:#D8D6D5"/>
				<stop  offset="0.7484" style="stop-color:#EBEAE9"/>
				<stop  offset="0.8703" style="stop-color:#F9F8F7"/>
				<stop  offset="1" style="stop-color:#FFFFFF"/>
			</linearGradient>
			<path id="dna-strand-1-top" class="st13" d="M402.1,240.21c-1.62-0.44-2.45-1.83-2.53-1.95c-0.52-0.9-0.55-1.75-0.57-2.45
				c-0.04-1.89,0.67-3.43,1.15-4.2c1.69-2.74,5.2-3.54,6.85-3.9c12.16-2.6,22.19-2.5,22.19-2.5c8.83,0.54,13.27,0.08,16.96,0.52
				c8,0.95,14.24,1.69,21.01,5.44c6.92,3.83,10.88,8.87,12.84,11.42c10.78,13.99,10.3,29.91,10.09,34.71
				c-0.08,1.88-0.45,7.84-2.78,15.13c-2.66,8.34-6.44,13.85-10.31,19.41c-6.46,9.28-12.87,15.23-16.93,18.95
				c-7.65,7.02-15.78,12.94-16.06,12.6c-0.14-0.17,1.72-1.8,4.6-4.71c10.05-10.18,15.97-19.28,17.5-21.68
				c2.04-3.2,3.9-6.13,5.87-10.49c2.08-4.61,4.99-11.19,5.6-20.14c0.24-3.58,0.69-11.54-3.05-20.82
				c-0.78-1.93-4.21-10.04-12.4-17.21c-2.69-2.35-7.21-6.23-14.21-8.34c-2.53-0.76-4.75-1-9.19-1.46
				c-5.04-0.53-11.84-1.25-20.15-0.36c-8.34,0.89-12.51,1.33-13.24,1.65C404.99,239.99,403.61,240.62,402.1,240.21z"/>
			<path id="dna-strand-1-middle" class="st14" d="M431.56,465.98c-2.69-1.73-5.99-4.06-9.56-7.09c-1.98-1.69-5.69-4.87-9.69-9.62
				c-2.84-3.38-6.93-8.31-10.16-15.8c-1.3-3.02-3.95-9.29-4.43-17.93c-0.54-9.6,1.88-16.87,3.28-20.91
				c1.89-5.49,4.14-9.43,5.83-12.35c0.66-1.13,3.77-6.47,9.33-13.09c3.83-4.55,6.84-7.36,12.88-12.98
				c3.49-3.25,8.5-7.74,14.88-12.88c5.74-4.63,5.48-4.05,9.57-7.43c8.42-6.98,14.04-13.17,16.07-15.46
				c4.02-4.55,7.6-8.62,11.29-14.89c1.71-2.89,4.23-7.23,6.2-13.45c1.62-5.12,2.17-9.3,2.49-11.81c0.45-3.54,0.86-6.81,0.56-11.18
				c-0.54-7.8-2.98-13.56-4.12-16.19c-0.64-1.48-1.63-3.56-3.03-5.94c-2.67-4.51-5.75-7.79-7.97-10.06
				c0.67,0.46,1.74,1.03,2.75,1.82c1,0.78,2.66,2.09,4.34,3.81c1.73,1.79,2.76,3.29,4.8,6.29c0.99,1.45,1.75,2.57,2.67,4.19
				c0.51,0.9,1.75,3.16,2.96,6.28c1.94,5,2.61,9.14,2.81,10.53c0.6,4.11,0.5,7.28,0.44,9.21c-0.14,4.06-0.69,7.06-1.23,9.96
				c-0.5,2.68-1.14,6.08-2.54,10.25c-1.26,3.74-2.51,6.22-5.02,11.16c-2.29,4.52-3.92,7.76-6.72,11.84
				c-0.84,1.23-2.34,3.2-5.34,7.16c-2.76,3.64-4.14,5.45-5.51,7.12c-2.94,3.57-5.4,6.17-7.46,8.34c-2.13,2.24-3.69,3.78-6.74,6.78
				c-7.44,7.31-12.46,11.86-13.49,12.78c-2.2,1.99-3.45,3.11-5.23,4.63c-0.66,0.56-1.39,1.17-2.52,2.16
				c-1.59,1.39-2.49,2.17-3.31,2.99c-1.02,1.01-1.9,2.18-3.66,4.51c-1.19,1.58-2.6,3.46-4.32,6.09c-0.8,1.22-1.55,2.37-2.47,4.01
				c-1.4,2.48-2.28,4.47-2.54,5.07c-0.29,0.65-1.52,3.53-2.65,7.6c-0.43,1.55-0.99,3.6-1.4,6.34c-0.78,5.11-0.54,9.17-0.39,10.98
				c0.23,2.76,0.66,4.79,1.03,6.61c0.61,2.92,1.23,4.93,2.29,8.39c0.92,3,1.61,5.22,2.82,8.15c0.73,1.77,1.36,3.11,1.97,4.38
				c0.97,2.05,1.27,2.55,3.4,6.68c2.41,4.69,2.72,5.41,3.85,7.32c1.04,1.77,1.98,3.18,2.62,4.12
				C431.28,464.96,431.42,465.47,431.56,465.98z"/>
			
				<linearGradient id="dna-strand-1-bottom_1_" gradientUnits="userSpaceOnUse" x1="475.5866" y1="398.9876" x2="443.7558" y2="261.035" gradientTransform="matrix(0.9744 0.2248 -0.2248 0.9744 79.5759 53.5632)">
				<stop  offset="0" style="stop-color:#FFFFFF"/>
				<stop  offset="0.1865" style="stop-color:#E5E4E3"/>
				<stop  offset="0.5643" style="stop-color:#B5B4B3"/>
				<stop  offset="1" style="stop-color:#818282"/>
			</linearGradient>
			<path id="dna-strand-1-bottom" class="st15" d="M473.82,541.21c-0.55,2.86,2.27,5.5,2.64,5.85c0.74,0.69,1.87,1.76,3.68,2.1
				c3.59,0.68,6.32-2.1,6.56-2.36c0.78-0.82,1.13-1.57,2.05-3.99c1.47-3.83,2.2-5.75,2.69-7.53c0.87-3.17,2.56-9.29,2.63-16.54
				c0.1-11.54-3.97-20.3-5.8-24.14c-0.23-0.48-5.8-11.87-16.46-21c-4.14-3.55-9.31-6.97-9.6-7.16c-3.34-2.2-3.33-1.91-9.05-5.42
				c-5.89-3.62-6.23-4.12-12.36-7.85c-3.84-2.34-4.23-2.46-6.2-3.81c-2.32-1.59-5.08-3.51-8.13-6.58c-3.6-3.63-5.81-7.06-6.84-8.78
				c-2.55-4.26-3.84-8.01-4.43-9.95c-0.87-2.84-2.32-7.76-1.86-13.73c0.1-1.29,0.29-2.62,0.22-2.63c-0.11-0.02-1.03,3.58-1.05,7.65
				c-0.01,2.99,0.47,5.27,0.84,6.92c2.67,11.73,6.14,20.35,6.14,20.35c2.8,6.95,5.54,12.07,7.3,15.32c1.73,3.2,3.3,5.86,4.5,7.83
				c1.43,0.84,3.64,2.11,6.37,3.61c8.23,4.51,11,5.44,15.57,8.36c1.56,1,5.29,3.48,9.32,7.33c3.27,3.12,9.04,8.76,12.81,18.02
				c2.88,7.08,3.27,13.06,3.35,14.88c0.27,5.99-0.78,10.63-1.33,12.97c-1.05,4.48-1.57,6.71-2.83,8.63
				C474.35,539.87,473.97,540.4,473.82,541.21z"/>
		</g>
		<g id="dna-strand-2">
			
				<linearGradient id="dna-strand-2-top_1_" gradientUnits="userSpaceOnUse" x1="433.3399" y1="273.33" x2="400.6651" y2="131.7199" gradientTransform="matrix(0.9744 0.2248 -0.2248 0.9744 79.5759 53.5632)">
				<stop  offset="0" style="stop-color:#58595B"/>
				<stop  offset="0.0885" style="stop-color:#76777A"/>
				<stop  offset="0.2245" style="stop-color:#9C9EA0"/>
				<stop  offset="0.3589" style="stop-color:#BDBFC1"/>
				<stop  offset="0.4889" style="stop-color:#D9DADB"/>
				<stop  offset="0.6133" style="stop-color:#ECEDED"/>
				<stop  offset="0.7297" style="stop-color:#F8F9F9"/>
				<stop  offset="0.8302" style="stop-color:#FFFFFF"/>
			</linearGradient>
			<path id="dna-strand-2-top" class="st16" d="M418.95,278.27c-0.08-0.54-0.62-3.7-3.35-5.33c-0.21-0.13-1.35-0.79-2.97-0.92
				c-2.05-0.17-3.59,0.59-4.36,0.99c0,0-1.71,0.88-3.06,2.45c-6,6.98-6.66,23.05-6.66,23.05c-0.16,3.8-0.31,8.2,0.73,13.98
				c0.59,3.29,2.14,10.18,6.51,17.84c3.83,6.73,8.04,10.9,11.23,14.02c5.65,5.52,10.52,8.63,20.02,14.62
				c13.4,8.44,14.24,7.53,21.28,13.04c10.52,8.23,14.18,14.61,15.33,16.75c3.54,6.58,4.39,12.05,4.55,13.19
				c0.94,6.71-0.23,12.22-1.16,15.38c1.47-2.62,3.31-6.55,4.39-11.6c0.31-1.46,1.16-5.87,0.82-11.69
				c-0.42-7.22-2.51-12.45-4.38-16.99c-3.04-7.39-4.83-12.44-9.78-16.81c-1.2-1.06-2.57-1.95-5.3-3.72
				c-6.84-4.44-12.02-6.78-15.05-8.29c-2.2-1.1-11-5.57-18.34-12.62c-3.62-3.48-11.12-10.68-14.19-22.47
				c-2.88-11.05-0.48-20.75,0.79-25.89C416.92,283.45,418.06,280.39,418.95,278.27z"/>
			
				<linearGradient id="dna-strand-2-middle_1_" gradientUnits="userSpaceOnUse" x1="450.8818" y1="443.5172" x2="450.8818" y2="211.7117" gradientTransform="matrix(0.9744 0.2248 -0.2248 0.9744 79.5759 53.5632)">
				<stop  offset="0" style="stop-color:#FFFFFF"/>
				<stop  offset="0.0176" style="stop-color:#FFFFFF"/>
				<stop  offset="0.5296" style="stop-color:#FFFFFF"/>
				<stop  offset="0.6886" style="stop-color:#FBFAFA"/>
				<stop  offset="0.7766" style="stop-color:#F1F0EF"/>
				<stop  offset="0.8473" style="stop-color:#E4E2E2"/>
				<stop  offset="0.9087" style="stop-color:#D1D0CF"/>
				<stop  offset="0.9636" style="stop-color:#BCBBBA"/>
				<stop  offset="1" style="stop-color:#AAAAA9"/>
			</linearGradient>
			<path id="dna-strand-2-middle" class="st17" d="M468.44,360.56c1,1.78,1.84,3.2,2.41,4.15c1.06,1.76,1.31,2.08,2.07,3.42
				c0.8,1.41,1.36,2.52,1.99,3.76c0.66,1.3,1.26,2.55,1.58,3.22c2.09,4.47,3.44,9.46,3.44,9.46c0.72,2.65,1.71,6.39,1.92,11.43
				c0.08,2.02,0.21,5.71-0.78,10.36c-0.21,1-1.02,4.61-3.05,8.94c-0.39,0.83-0.74,1.51-1,2c-0.17,0.72-0.42,1.7-0.75,2.86
				c-0.46,1.64-1.12,3.94-2.28,6.8c-1.1,2.71-2.17,4.72-2.62,5.56c-1.07,1.97-2.01,3.4-2.87,4.7c-0.4,0.61-1.44,2.17-2.92,4.15
				c-1.44,1.93-2.8,3.74-4.85,5.93c-2.25,2.4-4.18,4.03-4.69,4.45c-1.19,0.99-2.43,1.93-4.25,3.31c-1.25,0.94-2.14,1.6-2.37,1.77
				c-4.11,3.05-7.69,7.29-13.36,12.63c-1.85,1.75-2.7,2.28-4.4,3.98c-0.56,0.56-1.08,1.11-4.68,5.17c-2.03,2.3-3.05,3.45-4.11,4.68
				c-2.11,2.43-3.16,3.65-4.42,5.23c-1.58,1.98-2.7,3.53-3.73,4.94c-1.45,2-2.85,3.94-4.56,6.63c-2.65,4.17-4.42,7.58-5.26,9.23
				c-0.28,0.57-1.02,2.05-1.91,4.02c-0.94,2.09-2.36,5.25-3.63,9.16c-0.42,1.3-1.81,5.7-2.7,11.7c-0.72,4.87-1.26,8.45-0.72,12.42
				c0.1,0.72,0.36,2.43,0.85,6c0.45,3.26,0.42,3.22,0.53,3.87c0.53,2.96,1.36,5.09,2.35,7.6c0.91,2.31,1.8,4.54,3.49,7.32
				c0.38,0.63,1.99,3.24,4.72,6.27c1.3,1.45,3.03,3.35,5.73,5.34c1.2,0.88,3.72,2.62,7.27,4.09c2.52,1.04,5.03,1.56,9.94,2.56
				c2.23,0.46,5.12,1.01,8.52,1.56c-0.66-0.47-1.66-1.16-2.9-1.96c-4.45-2.9-6.42-3.47-8.79-5.24c-1.24-0.93-3.94-3.05-6.85-6.31
				c-0.87-0.97-3.98-4.55-6.87-10.07c-1.35-2.58-3.38-6.51-4.55-12.03c-0.9-4.24-0.85-7.36-0.76-12.94
				c0.05-3.42,0.12-7.02,1.01-11.73c0.77-4.1,1.8-7.11,2.39-8.82c0.35-1.02,2.05-5.85,5.42-11.88c1.26-2.26,2.37-4.29,4.25-6.79
				c0.32-0.43,1.14-1.51,4.3-5.08c3.08-3.48,4.62-5.22,5.63-6.2c3.37-3.26,4.62-3.54,8.69-7.1c2-1.75,2.58-2.67,5.41-5.27
				c1.67-1.54,2.96-2.63,4.03-3.53c9.17-7.76,11.19-9.24,14.9-12.72c1.14-1.06,3.05-2.89,5.33-5.29
				c6.71-7.06,10.77-12.88,12.08-14.8c1.54-2.27,2.99-4.41,4.59-7.51c1.76-3.41,2.85-6.31,3.65-8.45c0.61-1.65,1.33-3.58,2.06-6.22
				c0.73-2.62,1.48-5.33,1.78-8.88c0.29-3.45,0.02-6.01-0.31-9.09c-0.27-2.47-0.6-5.4-1.64-9.13c-1.33-4.71-3.06-8.07-4.11-10.06
				c-1.97-3.75-3.85-6.33-5.52-8.59c-0.8-1.09-3.12-4.18-6.58-7.86C473.9,365.48,471.4,363.05,468.44,360.56z"/>
			
				<linearGradient id="dna-strand-2-bottom_1_" gradientUnits="userSpaceOnUse" x1="526.6742" y1="391.5487" x2="427.6574" y2="391.5487" gradientTransform="matrix(0.9744 0.2248 -0.2248 0.9744 79.5759 53.5632)">
				<stop  offset="0" style="stop-color:#A19F9F"/>
				<stop  offset="1" style="stop-color:#E5E7E5"/>
			</linearGradient>
			<path id="dna-strand-2-bottom" class="st18" d="M439.69,485.61c-3.76,2.35-6.67,4.71-8.77,6.59c-0.59,0.53-2.6,2.35-5,5.01
				c-2.49,2.76-4.13,5.01-5.8,7.32c-2.45,3.4-3.76,5.21-5.24,7.99c-1.46,2.74-2.24,4.85-3.52,8.3c-1.2,3.24-2.01,5.4-2.67,8.49
				c-0.42,1.96-0.62,3.67-1.01,7.09c-0.43,3.71-0.64,5.57-0.68,7.97c-0.08,4.61,0.51,8.13,0.67,9.08c0.87,5.01,2.38,8.63,3.37,10.96
				c1.04,2.44,2.37,5.55,4.94,9.18c0.72,1.01,3.28,4.54,7.58,8.18c3.52,2.98,6.67,4.74,10,6.59c2.33,1.3,4.33,2.28,5.75,2.93
				c0.3,0.05,0.75,0.13,1.29,0.21c6.97,1.06,11.96,0.79,19.28,0.43c7.88-0.39,15.73-1.26,23.61-1.7c0.67-0.04,3.29-0.18,6.46-1.28
				c3.51-1.22,5.15-2.73,5.54-3.1c0.91-0.87,2.36-2.25,2.83-4.53c0.32-1.54,0.07-2.85-0.15-3.61c-0.19-0.67-0.69-2.37-2.15-3.44
				c-1.04-0.76-2.16-0.92-4.43-0.93c-4.02-0.01-7.11,0.48-7.63,0.56c0,0-0.98,0.16-8.14,1.25c-4.9,0.75-8.64,1.05-11.73,1.31
				c-4.25,0.35-7.28,0.6-11.47,0.57c-3.15-0.03-5.56-0.05-8.81-0.51c-5.85-0.84-10.11-2.52-11.52-3.1
				c-3.53-1.46-6.81-2.82-10.15-5.91c-2.71-2.52-4.17-4.98-5.99-8.08c-1.58-2.68-3.13-5.31-4.13-9.17c-0.93-3.6-0.91-6.41-0.89-9.31
				c0.01-1.23,0.09-5.68,1.43-11.63c0.29-1.3,1.65-7.13,5.08-14.28c2.58-5.38,5.21-9.16,8.32-13.62c1.58-2.26,2.88-4.14,4.9-6.55
				c3.25-3.88,4.85-5.65,5.63-6.4C437.76,487.22,438.89,486.26,439.69,485.61z"/>
		</g>
	</g>
	<g id="jesse-letters">
		<path id="jesse-letter-j" class="st19" d="M290.09,131.92c0.18-0.19,0.32-0.44,0.53-0.57c4.81-2.89,6.55-7.5,6.61-12.73
			c0.16-12.59,0.09-25.19,0.08-37.78c0-1.92-0.95-2.77-3.12-3.02c-0.6-0.07-1.2-0.1-2.05-0.17c1.22-1.14,15.57-1.09,16.37-0.11
			c-0.28,0.09-0.51,0.19-0.75,0.23c-3.01,0.39-3.51,0.87-3.52,3.94c-0.03,10.69,0.02,21.37-0.03,32.06
			c-0.04,8.99-5.24,14.49-12.71,18.37c-0.36,0.19-0.83,0.17-1.25,0.25C290.21,132.23,290.15,132.08,290.09,131.92z"/>
		<path id="jesse-letter-e-1" class="st19" d="M312.19,117.27c0.13-0.09,0.25-0.25,0.39-0.26c3.03-0.15,3.67-0.87,3.71-4.54
			c0.1-10.37,0.07-20.73,0.06-31.1c0-2.51-0.88-3.34-3.43-3.58c-0.54-0.05-1.07-0.26-1.53-0.71c8.42-0.57,16.79,0.1,25.32-0.65
			c-0.25,2.6-0.52,5.43-0.78,8.25c-0.21,0-0.42,0-0.63,0c-0.09-0.5-0.21-1-0.25-1.5c-0.14-1.68-0.98-2.86-2.66-3.02
			c-2.97-0.28-5.96-0.36-9.05-0.52c0,5.02,0,9.79,0,14.88c4.11-0.64,8.47,1.18,12.66-1.81c-0.29,3.27-0.57,6.33-0.84,9.39
			c-0.18,0-0.36,0-0.54-0.01c-0.08-0.28-0.21-0.55-0.23-0.83c-0.18-2.73-0.7-3.44-3.36-3.61c-2.5-0.16-5.01-0.04-7.78-0.04
			c0,0.71,0,1.61,0,2.51c0,3.44-0.02,6.88,0.01,10.31c0.02,2.85,1.16,4.11,3.99,4.3c1.68,0.11,3.38,0.13,5.06,0.02
			c2.96-0.2,3.92-1.08,4.6-3.91c0.11-0.48,0.24-0.95,0.43-1.73c0.37,0.47,0.61,0.63,0.6,0.77c-0.24,2.37-0.41,4.76-0.85,7.1
			c-0.08,0.45-1.25,0.97-1.93,0.98c-2.78,0.05-5.56-0.1-8.35-0.13c-4.2-0.04-8.41-0.03-12.61-0.05c-0.67,0-1.33-0.08-2-0.12
			C312.18,117.54,312.19,117.4,312.19,117.27z"/>
		<path id="jesse-letter-s-1" class="st19" d="M344.77,106.81c0.14,0.82,0.28,1.64,0.41,2.47c0.86,5.41,7.17,8.44,11.94,5.72
			c3.78-2.16,4.59-7.87,1.39-11.19c-1.53-1.59-3.55-2.69-5.25-4.11c-2.2-1.84-4.68-3.51-6.39-5.75c-4.27-5.6-3.16-16.02,7.57-17.76
			c3.03-0.49,6.26,0.16,9.39,0.34c1.04,0.06,1.44,0.68,1.35,1.78c-0.16,1.95-0.16,3.92-0.26,5.88c-0.03,0.49-0.17,0.98-0.26,1.46
			c-0.17,0-0.34,0.01-0.51,0.01c-0.1-0.47-0.23-0.93-0.3-1.41c-0.37-2.77-2.38-4.98-5.05-5.52c-3.31-0.67-6.54,0.47-7.96,2.81
			c-1.31,2.15-1.07,5.23,0.86,7.08c1.52,1.46,3.38,2.55,5.03,3.86c2.2,1.76,4.66,3.31,6.47,5.42c4.85,5.65,3.73,14.24-2.26,18.62
			c-3.06,2.24-6.62,2.89-10.32,2.37c-1.94-0.27-3.86-0.86-5.69-1.55c-0.61-0.23-1.32-1.22-1.33-1.88c-0.05-2.56,0.14-5.12,0.28-7.68
			c0.02-0.35,0.31-0.69,0.48-1.03C344.5,106.77,344.64,106.79,344.77,106.81z"/>
		<path id="jesse-letter-s-2" class="st19" d="M373.5,106.43c0.35,1.75,0.51,3.1,0.9,4.38c0.95,3.11,3.75,4.94,7.59,5.11
			c2.9,0.13,5.51-1.39,6.64-3.88c1.3-2.85,0.78-6.41-1.59-8.57c-1.8-1.64-3.88-2.97-5.88-4.38c-3.2-2.26-6.14-4.71-7.23-8.73
			c-1.86-6.89,2.09-13.05,9.12-14.28c3.24-0.57,6.41-0.19,9.58,0.41c0.98,0.19,1.49,0.63,1.38,1.77c-0.17,1.95-0.17,3.92-0.27,5.88
			c-0.02,0.5-0.16,0.99-0.24,1.48c-0.16,0.01-0.33,0.02-0.49,0.03c-0.11-0.4-0.28-0.8-0.33-1.21c-0.35-2.8-2.19-5.03-4.7-5.68
			c-3.18-0.82-6.47,0.18-8.1,2.47c-1.54,2.15-1.4,5.38,0.62,7.35c1.5,1.47,3.36,2.57,5.02,3.87c2.09,1.64,4.39,3.1,6.19,5.02
			c5.74,6.14,3.91,17.64-5.1,20.61c-4.65,1.54-8.97,0.97-13.28-0.9c-0.44-0.19-0.92-0.9-0.91-1.37c0.03-2.78,0.18-5.56,0.33-8.33
			C372.78,107.24,373.09,107.01,373.5,106.43z"/>
		<path id="jesse-letter-e-2" class="st19" d="M399.37,117.27c0.13-0.09,0.25-0.25,0.39-0.26c3.03-0.15,3.67-0.87,3.71-4.54
			c0.1-10.37,0.07-20.73,0.06-31.1c0-2.51-0.88-3.34-3.43-3.58c-0.54-0.05-1.07-0.26-1.53-0.71c8.42-0.55,16.79,0.07,25.32-0.63
			c-0.24,2.58-0.51,5.4-0.78,8.23c-0.21,0-0.42,0-0.63-0.01c-0.09-0.5-0.21-1-0.25-1.5c-0.14-1.68-0.98-2.86-2.66-3.02
			c-2.97-0.28-5.96-0.36-9.05-0.52c0,5.02,0,9.79,0,14.88c4.11-0.64,8.47,1.18,12.66-1.81c-0.29,3.27-0.57,6.33-0.84,9.39
			c-0.18,0-0.36,0-0.54,0c-0.08-0.28-0.21-0.55-0.23-0.83c-0.18-2.73-0.7-3.44-3.36-3.61c-2.5-0.16-5.01-0.04-7.78-0.04
			c0,0.71,0,1.61,0,2.51c0,3.44-0.02,6.88,0.01,10.31c0.02,2.85,1.16,4.11,3.99,4.3c1.68,0.11,3.38,0.13,5.06,0.02
			c2.96-0.2,3.92-1.08,4.6-3.91c0.11-0.48,0.24-0.95,0.43-1.73c0.37,0.47,0.61,0.63,0.6,0.77c-0.24,2.37-0.41,4.76-0.85,7.1
			c-0.08,0.45-1.25,0.97-1.93,0.98c-2.78,0.05-5.56-0.1-8.35-0.13c-4.2-0.04-8.41-0.03-12.61-0.05c-0.67,0-1.34-0.08-2.01-0.12
			C399.35,117.54,399.36,117.4,399.37,117.27z"/>
	</g>
	<g id="james-letters">
		<path id="james-letter-j" class="st19" d="M440.78,132.01c0.17-0.19,0.3-0.45,0.51-0.57c5.05-3.05,6.61-7.92,6.66-13.37
			c0.12-12.21,0.07-24.42,0.07-36.64c0-2.49-0.89-3.35-3.44-3.56c-0.43-0.03-0.86-0.07-1.29-0.13c-0.07-0.01-0.12-0.16-0.37-0.51
			c0.6-0.15,1.09-0.38,1.59-0.38c4.42-0.03,8.83-0.03,13.25,0c0.49,0,0.97,0.22,1.46,0.35c-0.02,0.14-0.03,0.28-0.04,0.42
			c-0.29,0.08-0.57,0.19-0.86,0.23c-2.8,0.36-3.37,0.89-3.37,3.74c-0.02,10.25-0.12,20.5,0.06,30.75
			c0.16,9.26-4.38,15.39-12.2,19.57c-0.55,0.29-1.19,0.42-1.79,0.62C440.94,132.35,440.86,132.18,440.78,132.01z"/>
		<path id="james-letter-a" class="st19" d="M495.93,116.9c-0.75-0.13-1.45-0.57-1.95-1.27c-0.91-1.27-1.79-2.62-2.36-4.06
			c-2.67-6.7-5.25-13.44-7.84-20.17c-1.77-4.61-3.5-9.23-5.31-13.82c-0.3-0.75-0.95-1.37-1.44-2.05c-0.52,0.7-1.04,1.39-1.56,2.09
			c-0.06,0.09-0.11,0.19-0.15,0.29c-2.55,6.63-5.09,13.27-7.64,19.9c-1.95,5.06-3.94,10.11-5.86,15.19
			c-0.9,2.39-2.28,4.07-5.09,4.02c-0.27-0.01-0.55,0.21-1.12,0.43c0.53,0.31,0.81,0.62,1.1,0.62c3.87,0.03,7.75,0.04,11.62-0.01
			c0.26,0,0.51-0.47,0.94-0.89c-3.87-0.42-4.27-1.01-3.15-4.42c0.83-2.52,1.77-5.02,2.77-7.48c0.17-0.43,0.9-0.88,1.39-0.89
			c3.44-0.08,6.88,0.01,10.32-0.07c1.06-0.03,1.41,0.43,1.71,1.29c0.98,2.87,2.03,5.73,3.04,8.59c0.43,1.22,1.25,2.52-1,3.39
			c0.75,0.16,1.01,0.26,1.28,0.26c3.45,0.04,6.89,0.09,10.34,0.13C495.94,117.62,495.94,117.26,495.93,116.9z M470.25,101.28
			c1.73-4.9,3.42-9.67,5.28-14.93c1.8,5.24,3.44,10.01,5.13,14.93H470.25z"/>
		<path id="james-letter-m" class="st19" d="M545.42,116.85c-2.78-0.47-3.56-1.16-3.96-3.93c-1.03-7.22-1.99-14.45-2.98-21.68
			c-0.64-4.69-1.28-9.39-1.98-14.07c-0.09-0.57-0.61-1.07-0.94-1.61c-0.46,0.4-0.99,0.74-1.35,1.21c-0.32,0.42-0.46,0.98-0.68,1.47
			c-4.28,9.74-8.56,19.47-12.96,29.47c-0.43-0.92-0.77-1.6-1.07-2.28c-4.19-9.42-8.36-18.85-12.59-28.26
			c-0.29-0.65-1.04-1.09-1.58-1.63c-0.31,0.54-0.81,1.06-0.89,1.63c-1.15,8.03-2.23,16.07-3.36,24.1
			c-0.61,4.36-1.21,8.73-1.99,13.07c-0.16,0.87-0.88,1.99-1.64,2.34c-0.26,0.12-0.52,0.18-0.78,0.22c0.01,0.35,0.01,0.71,0.01,1.06
			c3.24,0.04,6.47,0.07,9.71,0.09c0.36,0,0.73-0.31,1.1-0.47c-0.55-0.49-1.01-0.62-1.47-0.71c-2.56-0.47-2.69-0.62-2.6-3.15
			c0.02-0.49,0.06-0.98,0.12-1.47c0.51-4.49,1.02-8.98,1.53-13.48c0.28-2.48,0.58-4.95,0.92-7.86c0.46,0.98,0.74,1.55,1,2.13
			c3.39,7.52,6.77,15.04,10.2,22.55c0.41,0.9,1.05,1.69,1.58,2.53c0.21,0.01,0.42,0.01,0.62,0.02c4.44-8.99,8.13-18.33,12.52-27.64
			c0.16,0.46,0.25,0.65,0.28,0.84c0.77,6.38,1.62,12.75,2.24,19.15c0.21,2.22,1.36,4.55-0.32,6.7c2.35,0.98,12.26,1.05,13.27,0.01
			C546.66,117.09,546.04,116.96,545.42,116.85z"/>
		<path id="james-letter-e" class="st19" d="M548.4,76.81c8.31-0.17,16.63,0.34,25.16-0.24c-0.23,2.51-0.49,5.33-0.75,8.15
			c-0.22,0.01-0.43,0.01-0.65,0.02c-0.09-0.53-0.19-1.07-0.27-1.6c-0.25-1.83-1.09-2.81-2.92-2.97c-2.87-0.24-5.76-0.31-8.77-0.46
			c0,5,0,9.82,0,14.89c4.12-0.65,8.46,1.1,12.62-1.76c-0.28,3.19-0.55,6.26-0.81,9.33c-0.22,0-0.43,0-0.65,0
			c-0.06-0.53-0.12-1.07-0.17-1.6c-0.13-1.54-0.84-2.64-2.46-2.76c-2.81-0.21-5.64-0.31-8.6-0.46c0,4.91-0.07,9.58,0.04,14.25
			c0.04,1.62,1.1,2.89,2.73,3c2.58,0.18,5.2,0.14,7.79-0.04c1.58-0.11,2.42-1.33,2.81-2.81c0.2-0.75,0.39-1.5,0.59-2.25
			c0.31,0.08,0.5,0.12,0.49,0.13c-0.22,2.56-0.38,5.13-0.79,7.66c-0.06,0.36-1.35,0.76-2.07,0.75c-5.62-0.04-11.24-0.18-16.86-0.27
			c-1.36-0.02-2.73,0.07-4.09,0.08c-0.58,0-1.16-0.07-1.73-0.11c-0.02-0.14-0.04-0.29-0.06-0.43c0.52-0.13,1.03-0.29,1.55-0.38
			c1.38-0.24,2.35-0.86,2.41-2.4c0.12-3.59,0.32-7.18,0.34-10.78c0.04-7.31-0.01-14.62-0.05-21.93c-0.02-2.98-0.76-3.72-3.71-3.98
			c-0.46-0.04-0.9-0.28-1.35-0.43C548.25,77.22,548.33,77.02,548.4,76.81z"/>
		<path id="james-letter-s" class="st19" d="M600.97,85.71c-0.09-0.44-0.19-0.88-0.25-1.32c-0.36-2.8-2.34-5.03-4.98-5.58
			c-3.28-0.69-6.54,0.43-8,2.74c-1.29,2.06-1.13,5.16,0.67,6.98c1.36,1.38,3.05,2.44,4.58,3.65c2.34,1.85,4.97,3.44,6.95,5.62
			c5.53,6.11,3.67,17.38-5.24,20.37c-4.59,1.54-8.87,0.98-13.14-0.8c-0.49-0.2-1.07-0.94-1.07-1.43c0.01-2.78,0.16-5.56,0.31-8.33
			c0.01-0.26,0.31-0.5,0.79-1.21c0.21,1.33,0.35,2.19,0.49,3.05c0.88,5.38,7.29,8.36,12.01,5.59c3.74-2.2,4.49-7.93,1.25-11.21
			c-1.66-1.68-3.82-2.87-5.66-4.39c-2.01-1.65-4.23-3.19-5.79-5.21c-4.44-5.73-3.28-16.29,7.54-17.98c2.99-0.47,6.15,0.15,9.23,0.34
			c0.95,0.06,1.53,0.55,1.42,1.72c-0.18,2.01-0.17,4.03-0.27,6.05c-0.02,0.45-0.15,0.89-0.24,1.34
			C601.36,85.69,601.17,85.7,600.97,85.71z"/>
	</g>
	<g id="method-letters">
		<path id="method-letter-m" class="st3" d="M362.12,134.97c2.58,5.7,5.15,11.4,7.83,17.32c2.65-5.93,5.2-11.64,7.75-17.34
			c0.23,0.01,0.45,0.03,0.68,0.04c0.18,0.89,0.42,1.77,0.54,2.67c0.76,5.44,1.54,10.88,2.22,16.33c0.26,2.06,0.82,3.64,3.57,3.33
			c-0.09,0.16-0.19,0.31-0.28,0.47c-2.31,0-4.62,0-6.61,0c-0.52-4.81-1.02-9.45-1.52-14.1c-0.12-0.04-0.23-0.07-0.35-0.11
			c-2.19,4.82-4.37,9.65-6.56,14.47c-0.21,0.03-0.42,0.06-0.63,0.1c-2.18-4.72-4.37-9.43-6.74-14.55c-0.5,4.32-0.96,8.22-1.41,12.12
			c-0.11,0.93,0.3,1.44,1.22,1.58c0.33,0.05,0.65,0.16,0.94,0.54c-2.18,0-4.36,0-6.55,0c3.33-0.87,2.25-3.79,2.62-5.82
			c0.95-5.24,1.57-10.54,2.33-15.81c0.06-0.4,0.22-0.78,0.34-1.17C361.71,135.02,361.91,134.99,362.12,134.97z"/>
		<path id="method-letter-e" class="st3" d="M393.8,157.39c2.13,0.28,2.38-1.08,2.39-2.48c0.04-5.56,0.03-11.12,0.02-16.69
			c0-1.14-0.54-1.84-1.78-1.87c-0.29-0.01-0.58-0.14-0.86-0.22c0.01-0.14,0.01-0.27,0.02-0.41c4.49,0,8.98,0,13.61,0
			c-0.12,1.22-0.27,2.7-0.41,4.18c-1.15-4.03-4.38-1.98-6.79-2.63c0,2.7,0,5.19,0,8.02c2.21-0.14,4.41-0.28,6.75-0.43
			c-0.09,1.24-0.22,2.87-0.34,4.5c-0.87-4.05-4.06-1.98-6.45-2.62c0,2.76-0.03,5.3,0.03,7.84c0.01,0.44,0.28,0.97,0.6,1.28
			c1.78,1.75,5.94,0.67,6.71-1.71c0.07-0.2,0.17-0.4,0.63-0.55c-0.15,1.35-0.24,2.71-0.49,4.04c-0.05,0.28-0.72,0.61-1.11,0.61
			c-1.58,0-3.15-0.16-4.73-0.17c-2.12,0-4.24,0.1-6.36,0.12c-0.44,0-0.89-0.19-1.33-0.29C393.86,157.76,393.83,157.57,393.8,157.39z
			"/>
		<path id="method-letter-t" class="st3" d="M429.2,137.29c0,6-0.08,11.67,0.04,17.33c0.05,2.26,0.24,2.25,2.86,3.16
			c-2.96,0-5.91,0-8.87,0c2.68-0.42,2.2-2.47,2.2-4.22c0.02-5.34,0.01-10.68,0.01-16.17c-1.83,0.11-3.6,0.03-5.28,0.38
			c-0.85,0.17-1.53,1.11-2.52,1.87c0.23-1.36,0.46-2.72,0.68-4.08c6.11,0,12.13,0,18.16,0c0,1.39,0,2.88,0,4.36
			C435,136.2,431.8,137.99,429.2,137.29z"/>
		<path id="method-letter-h" class="st3" d="M460.8,135.82c2.83,0,5.66,0,8.49,0c0.02,0.08,0.04,0.16,0.07,0.24
			c-0.21,0.1-0.41,0.29-0.62,0.29c-1.35,0.01-1.62,0.86-1.62,1.96c0,5.51,0.03,11.02-0.01,16.53c-0.01,2.04,1.01,2.82,3.19,2.44
			c-0.09,0.17-0.18,0.33-0.27,0.5c-2.96,0-5.92,0-8.87,0c2.61-0.4,2.19-2.42,2.23-4.12c0.05-2.11,0.01-4.22,0.01-6.41
			c-3.6,0-7.07,0-10.63,0c0,2.79-0.04,5.55,0.02,8.31c0.03,1.11,0.63,1.83,1.89,1.75c0.32-0.02,0.64,0.13,0.92,0.51
			c-2.94,0-5.88,0-8.81,0c2.51-0.44,2.16-2.38,2.18-4.03c0.05-4.58,0.08-9.17,0.04-13.75c-0.02-3.04-0.07-3.04-3.07-4.18
			c3.26,0,6.09,0,8.92,0c-2.94,0.38-2.09,2.64-2.17,4.39c-0.07,1.68-0.01,3.36-0.01,5.19c3.37,0,6.58,0.03,9.79-0.04
			c0.33-0.01,0.92-0.6,0.93-0.93c0.07-2.13,0.01-4.25-0.02-6.38C463.37,136.36,461.86,136.46,460.8,135.82z"/>
		<path id="method-letter-o" class="st3" d="M480.44,146.78c0.01-6.82,4.66-11.41,11.53-11.4c6.89,0.01,11.17,4.25,11.16,11.05
			c-0.01,6.96-4.8,11.91-11.53,11.9C484.92,158.33,480.43,153.69,480.44,146.78z M499.18,147.15c-0.2-2.63-0.78-5.09-2.34-7.23
			c-2.79-3.82-8.41-3.96-10.87-0.27c-2.67,3.99-1.78,11.76,1.72,15.04c3.85,3.61,9.32,2.26,10.75-2.72
			C498.87,150.41,498.94,148.76,499.18,147.15z"/>
		<path id="method-letter-d" class="st3" d="M513.25,135.53c4.87,0.19,9.81-0.02,14.61,0.67c6.78,0.99,8.72,7.08,7.9,12.23
			c-1.02,6.46-5.22,9.91-11.76,9.86c-3.45-0.03-6.9-0.27-10.37-0.41c0.04-0.21,0.05-0.39,0.07-0.39c1.9,0.03,2.11-1.32,2.12-2.72
			c0.03-5.51-0.01-11.02,0.03-16.53c0.01-1.86-1.47-1.79-2.7-2.1C513.18,135.94,513.21,135.74,513.25,135.53z M519.55,146.24
			c0.01,0,0.02,0,0.03,0c0,2.56-0.01,5.12,0,7.68c0.01,1.17,0.34,2.2,1.64,2.5c2.75,0.64,5.41,0.53,7.77-1.24
			c2.78-2.08,3-5.13,2.96-8.24c-0.09-6.25-4.89-10.38-11.12-9.64c-0.97,0.12-1.31,0.45-1.29,1.42
			C519.59,141.23,519.55,143.73,519.55,146.24z"/>
	</g>
	<g id="arrows">
		<path id="arrow-right" class="st3" d="M588.17,148.31c-13.57,0-27.9,0-42.33,0c0-0.68,0-1.47,0-2.48
			C560.2,146.68,574.58,147.52,588.17,148.31z"/>
		<path id="arrow-left" class="st3" d="M347.09,145.91c0,0.87,0,1.62,0,2.47c-13.34,0-26.68,0-40.02,0c0-0.04,0-0.09,0-0.13
			C320.34,147.48,333.62,146.7,347.09,145.91z"/>
	</g>
</g>
<g>
</g>
<g>
</g>
<g>
</g>
<g>
</g>
<g>
</g>
<g>
</g>
</svg>
