<?xml version="1.0" encoding="utf-8"?>
<!-- Generator: Adobe Illustrator 24.3.0, SVG Export Plug-In . SVG Version: 6.00 Build 0)  -->
<svg version="1.1" id="frequency-healing-logo-2" xmlns="http://www.w3.org/2000/svg" xmlns:xlink="http://www.w3.org/1999/xlink"
	 x="0px" y="0px" viewBox="0 0 864 864" style="enable-background:new 0 0 864 864;" xml:space="preserve">
<style type="text/css">
	.st0{fill:url(#background-circle_1_);}
	.st1{fill:#DA2B2B;}
	.st2{fill:url(#ekg-top-back_1_);}
	.st3{fill:url(#ekg-top-front_1_);}
	.st4{fill:url(#ekg-middle-back-1_1_);}
	.st5{fill:url(#ekg-middle-front-1_1_);}
	.st6{fill:url(#ekg-middle-back-2_1_);}
	.st7{display:none;fill:url(#ekg-middle-front-2_1_);}
	.st8{fill:url(#ekg-middle-back-3_1_);}
	.st9{fill:url(#ekg-middle-front-3_1_);}
	.st10{fill:url(#ekg-bottom-back_1_);}
	.st11{fill:url(#ekg-bottom-front_1_);}
	.st12{fill:url(#dna-strand-1-top_1_);}
	.st13{fill:#FFFFFF;}
	.st14{fill:url(#dna-strand-1-bottom_1_);}
	.st15{fill:url(#dna-strand-2-top_1_);}
	.st16{fill:url(#dna-strand-2-middle_1_);}
	.st17{fill:url(#dna-strand-2-bottom_1_);}
	.st18{fill:#0C0C0C;}
	.st19{fill:#DA2528;}
</style>
<g id="frequency-healing-logo-2-parts">
	<linearGradient id="background-circle_1_" gradientUnits="userSpaceOnUse" x1="180.11" y1="417.84" x2="645.11" y2="417.84">
		<stop  offset="0" style="stop-color:#BF2227"/>
		<stop  offset="0.6199" style="stop-color:#EE3025"/>
	</linearGradient>
	<path id="background-circle" class="st0" d="M577,253.4c-43.9-43.9-102.3-68.1-164.4-68.1s-120.5,24.2-164.4,68.1
		c-43.9,43.9-68.1,102.3-68.1,164.4s24.2,120.5,68.1,164.4c43.9,43.9,102.3,68.1,164.4,68.1c62.1,0,120.5-24.2,164.4-68.1
		c43.9-43.9,68.1-102.3,68.1-164.4S620.9,297.4,577,253.4z M412.6,643.3c-124.3,0-225.5-101.2-225.5-225.5s101.2-225.5,225.5-225.5
		s225.5,101.2,225.5,225.5S536.9,643.3,412.6,643.3z M624.8,417.1c0,116.7-94.6,211.4-211.3,211.4s-211.4-94.6-211.4-211.4
		s94.6-211.3,211.4-211.3S624.8,300.4,624.8,417.1z"/>
	<path id="healing-word" class="st1" d="M355.2,737.2c-3.2,0-6.4,0-8.9,0c0.5-1.2,1.5-2.6,1.6-4.1c0.3-2.4,0.1-4.9,0.1-7.6
		c-4.6,0-8.7,0-13.1,0c0,3.1-0.2,6,0.1,8.9c0.1,1.1,1.7,2,2.4,2.8c-2.6,0-6,0-8.6,0c0.5-1.2,1.4-2.5,1.5-3.8
		c0.2-5.6,0.2-11.3,0-16.9c0-1.1-1.4-2.2-2-3.1c2.4,0,5.7,0,8.8,0c-4.5,2.4-1.2,6.6-2.5,10c4.7,0,8.9,0,13.4,0c0-2.1-0.1-4.1,0-6
		c0.1-2.2-0.1-3.9-2.9-4c3.2,0,6.4,0,8.9,0c-0.5,1-1.5,2.3-1.5,3.5c-0.2,5.3-0.1,10.7-0.1,16C352.5,735,352.6,737,355.2,737.2z
		 M355.8,737.2c-0.2,0-0.4,0-0.6,0C355.4,737.2,355.5,737.2,355.8,737.2z M368,735c-0.5-0.4-1-1.2-1-1.9c-0.1-2.5,0-5.1,0-8.1
		c2.8,1,6.2-1.6,7.9,2.8c0.2-1.8,0.4-3.3,0.5-4.6h-8.3v-8.4c2.9,0.9,6.6-1.5,8.4,2.9c0.1-1.7,0.2-3.2,0.3-4.6h-15.9
		c0.8,0.9,2.4,1.7,2.5,2.6c0.2,6.4,0.1,12.8-0.1,19.2c0,0.8-1,1.5-1.5,2.2h15.7c0,0,0,0,0-0.1c0-0.2,0.1-0.3,0.1-0.5
		c0,0,0-0.1,0-0.1v-3.9C375.2,735.4,370.3,736.7,368,735z M404.3,736.5c0,0.3,0,0.5,0,0.8c-2.8,0-5.6,0-8.3,0
		c-0.9-2.5-1.7-4.7-2.7-7c-0.2-0.5-1-0.9-1.7-1c-0.9-0.2-1.9,0-2.9,0c-4.6,0-5.2,0.4-6.2,4.9c-0.2,0.9,0.4,1.9,0.7,2.9H378
		c0-0.3,0-0.5,0-0.8c1.2-0.5,1.6-1.7,2.1-2.9c2.7-6.1,5.3-12.2,8-18.2c0.4-0.9,0.8-1.7,1.5-3c0.8,1.6,1.5,2.8,2,4
		c2.5,5.6,4.9,11.1,7.3,16.7c0.4,0.9,0.7,2.1,1.4,2.4C401.6,736,403,736.5,404.3,736.5z M392.1,727.4c-1.1-2.7-2.1-5.3-3.4-8.5
		c-1.3,3.3-2.3,5.9-3.4,8.5H392.1z M414.8,735.5c-2.5-0.1-3.8-1-3.7-3.8c0.2-4.8,0.1-9.5,0-14.3c0-2-0.3-4.1,2.7-3.9h-9.1
		c0.6,0.9,1.8,2,1.9,3.1c0.2,5.7,0.1,11.5,0,17.2c0,0.8-0.7,2.2-1.3,2.7c0,0.3,0,0.7,0,1c0.4,0,0.8,0,1.1,0c3.6,0,7.3,0,10.9,0
		c4,0,4.6-0.7,3.8-4.7C419.9,735.2,418.9,735.7,414.8,735.5z M431.1,733.3c0.1-5.5-0.1-11,0.1-16.5c0-1.2,1-2.3,1.5-3.4
		c-2.3,0-5.3,0-7.7,0c0.5,0.9,1.6,2,1.6,3c0.2,5.7,0.2,11.4,0,17.1c0,1.3-1,2.6-1.5,3.6c2.6,0,5.9,0,9.1,0
		C431.7,737.1,431.1,735.5,431.1,733.3z M460.1,715.8c0.3,4.9,0.1,9.8,0.1,15.1c-6.4-6.3-12.6-12.3-18.8-18.3
		c-0.3,0.1-0.7,0.3-1,0.4c0,6.6,0,13.1,0,19.7c0,2.1,0,4.1-2.7,4.5c2.8,0,5.7,0,8.1,0c-0.7-0.8-2.3-1.6-2.3-2.6
		c-0.3-4.6-0.1-9.2-0.1-14.2c6.3,6.1,12.3,11.9,18.4,17.8c0.2-0.1,0.5-0.2,0.8-0.4c0.1-0.9,0.2-1.8,0.2-2.7c0.1-5.3,0-10.7,0.2-16
		c0.1-2.1-0.6-4.6,2.6-5.7c-3.1,0-5.7,0-7.9,0C458.4,714.1,460.1,714.9,460.1,715.8z M493.9,725.4c-2.4,0-5.5,0-8.7,0
		c2.9,0,2.9,1.9,2.9,4c0,1.3-0.1,2.7,0,4c0.2,2.2-0.9,2.8-2.9,2.8c-6.4,0.1-10.6-3.6-11.9-10.4c-0.9-5,1.4-9.4,5.6-10.9
		c5.1-1.8,10.5,0.1,12.9,4.8c0.1-2,0.2-3.8,0.3-6.5c-4.6,0-9.1-0.4-13.5,0.1c-5.7,0.6-9.6,5.1-10.3,11c-0.6,5.4,2.4,10.5,7.8,12.2
		c3.1,1,6.6,1.4,9.8,1.2c6.4-0.4,6.4-0.7,6.4-7c0-0.6-0.1-1.2,0-1.7C492.9,727.7,493.5,726.5,493.9,725.4z"/>
	<path id="frequency-word" class="st1" d="M304.7,673.1c4.9,0,10.2,0,15.8,0c-0.1,1.2-0.2,2.6-0.3,4.2c-2.2-4-5.7-1.8-8.6-2.6
		c0,2.9,0,5.5,0,8.3c2.6,0,5.2,0,8,0c-0.1,1.2-0.2,2.7-0.3,4.4c-1.8-4-5-2-7.8-2.6c0,3.2-0.2,6.2,0.1,9.1c0.1,1,1.7,1.8,2.4,2.6
		c-2.7,0-5.9,0-8.6,0c0.5-0.9,1.4-1.9,1.4-2.9c0.2-5.9,0.3-11.8,0.1-17.7C306.9,675,305.5,674,304.7,673.1z M349.7,696.3
		c0,0.1,0,0.3,0.1,0.4c-1,0-2,0-3.1,0.1c-3.3,0.1-5.8-1.1-7.6-3.8c-0.8-1.2-1.8-2.2-2.5-3.4c-1.2-2.2-2.9-2.9-5.5-2.3
		c0,1.7,0,3.5,0,5.2c0,2.1,0.1,4.1,3.1,4h-8.8c0.5-1.2,1.5-2.7,1.6-4.2c0.2-5.2,0-10.5,0.1-15.7c0-2.1-0.8-3.2-2.9-3.1
		c4.4,0,8.8-0.3,13.1,0.1c5,0.5,6.6,5.1,3.6,9.1c-0.8,1.1-1.9,2.1-3,3.3c2.5,2.8,5,5.6,7.5,8.3c0.6,0.6,1.3,1.1,2.1,1.4
		C348.4,696.1,349.2,696.4,349.7,696.3z M337.4,683.7c1.4-2.3,1.4-4.7-0.1-6.9c-1.5-2.3-3.8-2.3-6.2-1.8v10.2
		C333.7,685.5,336,686.2,337.4,683.7z M356.9,694.5c-0.5-0.4-0.9-1.1-0.9-1.6c-0.1-2.6,0-5.2,0-8.2c2.8,1,6.1-1.4,7.7,2.6
		c0.2-1.6,0.4-3,0.6-4.3h-8.2v-8.3c2.9,0.9,6.5-1.5,8.2,3c0.1-1.9,0.2-3.4,0.3-4.7h-15.4c0.8,1,2.2,2,2.3,3c0.2,5.8,0.1,11.6,0,17.4
		c0,1.3-0.2,2.1-0.7,2.5c0,0.3,0.1,0.5,0.1,0.8c3.6,0,7.2,0,10.8,0c3.7,0,4.2-0.6,3.6-4.4C364,694.9,359,696.2,356.9,694.5z
		 M416.3,701c-3.1,3-12.2,3.8-17.2,1.7c-2.7-1.1-5.3-2.4-7.7-3.9c-2.5-1.6-4.8-2.2-7.8-1.7c-6.7,1.1-12.7-2.9-14.2-9
		c-2.2-8.9,5.2-16.6,14.7-15.4c5.2,0.6,9.5,2.7,11.2,8c1.7,5.4,0.1,9.9-4.1,13.6c-0.2,0.2-0.3,0.4-0.6,0.8
		C398.6,699,406.3,703.9,416.3,701z M390.9,686.7c0-0.3,0-0.6,0-0.9c0.2,0,0.3-0.1,0.5-0.2c-0.8-2.4-1.3-5-2.4-7.3
		c-1.7-3.3-5.7-4.8-9.4-4c-3.2,0.7-5.4,3.4-5.8,7.4c-0.1,1.8-0.2,3.6,0.1,5.3c0.7,5.2,5,8.8,10,8.6
		C388.2,695.4,390.5,692.4,390.9,686.7z M467.6,675.3c0.2,4.9,0.1,9.8,0.1,15c-6.3-6.1-12.3-12-18.4-17.9c-0.3,0.1-0.6,0.3-0.9,0.4
		c0,6.5,0,12.9,0,19.3c0,2,0,4-2.6,4.3c2.8,0,5.6,0,7.8,0c-0.7-0.8-2.2-1.6-2.2-2.6c-0.2-4.5-0.1-9-0.1-13.9
		c6.1,5.9,12.1,11.7,18,17.5c0.2-0.1,0.5-0.3,0.8-0.4c0-1,0.1-2,0.1-2.9c0.1-5.9,0.2-11.8,0.4-17.7c0.1-1.2,1-2.3,1.5-3.3
		c-2,0-4.6,0-6.9,0C465.9,673.8,467.5,674.6,467.6,675.3z M418.2,676c0.2,4.5,0.1,9,0,13.5c-0.1,2.6-1.2,4.6-3.8,5.7
		c-4.5,1.8-8.8-0.9-9-6c-0.2-4.1-0.2-8.2,0-12.3c0.1-1.3,0.9-2.5,1.3-3.6c-2.4,0-5.5,0-9.2,0c3.3,0.9,3.3,0.9,3.3,3.5
		c0,3.3,0,6.5,0,9.8c0,7.8,3.8,11.7,12.7,10.4c4.9-0.7,7.3-3.6,7.5-8.6c0.2-3.7-0.1-7.5,0.2-11.2c0.1-1.4,1-2.8,1.5-4
		c-1.9,0-4.6,0-6.6,0C416.9,674,418.2,675,418.2,676z M486.4,674.5c5-1.2,8.7,0.3,11.1,4.9c0.1-2.1,0.2-3.8,0.3-6.2
		c-4.7,0-9.1-0.6-13.3,0.1c-8.4,1.6-12,12-6.6,18.8c3.9,5,9.5,5.5,15.2,5c4.4-0.4,4.8-1.1,4.5-5.7c-2.2,3.7-5.1,4.8-9.6,3.6
		c-4.9-1.3-7.8-5.6-7.7-11.6C480.3,678.7,482.6,675.4,486.4,674.5z M433.9,694.4c-0.5-0.4-0.9-1.1-0.9-1.6c-0.1-2.6,0-5.2,0-8.3
		c2.7,1.5,6.1-1.3,7.7,2.9c0.2-1.7,0.4-3.1,0.6-4.4c-2.8,0-5.5,0-8.2,0c0-2.7,0-5.3,0-8.3c2.9,0.9,6.5-1.5,8.2,3
		c0.1-1.9,0.2-3.3,0.3-4.7c-5.3,0-10.5,0-15.4,0c0.8,1,2.3,2,2.3,3c0.2,6,0.1,12-0.1,18c0,1-0.9,1.9-1.4,2.8c3.6,0,7.7,0,11.7,0
		c3.6,0,4.2-0.7,3.4-4.4C441.1,694.9,436.1,696.2,433.9,694.4z M522.6,673.2c-1.5,0-3.8,0-5.6,0c0.3,4.7-3.3,7.4-5,11.6
		c-2-4.3-5-7.4-5.9-11.6c-1.9,0-4.5,0-7.4,0c1,0.6,2,0.9,2.5,1.6c3.8,5.5,9.1,10.4,7.8,18.1c-0.2,1.3-1,2.6-1.4,3.8
		c2.5,0,5.8,0,9.1,0c-3.1,0.1-3-2-3.3-4.2c-0.7-5.4,1.5-9.6,4.6-13.7C519.4,676.8,521.1,674.9,522.6,673.2z"/>
	<g id="dna-strands">
		<g id="ekg-top">
			
				<linearGradient id="ekg-top-back_1_" gradientUnits="userSpaceOnUse" x1="355.42" y1="697.0222" x2="417.2669" y2="697.0222" gradientTransform="matrix(0.9744 0.2248 0.2248 -0.9744 -114.6513 895.4448)">
				<stop  offset="0" style="stop-color:#959636"/>
				<stop  offset="2.520000e-02" style="stop-color:#949536"/>
				<stop  offset="0.4969" style="stop-color:#878935"/>
				<stop  offset="1" style="stop-color:#838534"/>
			</linearGradient>
			<path id="ekg-top-back" class="st2" d="M386.1,306c2.4-0.2,4.4-0.3,5.7-0.4c0.6,0,3.2-0.2,6.4-0.5c2.9-0.3,3.8-0.5,4.6-1.2
				c1.1-1,1.2-2.5,1.3-3.4c0.6,0.7,1.1,1.4,1.6,2c0.5,0.8,0.7,1.1,1.1,1.5c0.5,0.4,1.2,0.9,2.4,1.1c3.1-0.1,7-0.3,10.1-0.4
				c2.4-0.1,6.2-0.2,8.5-0.4c0.2,0.1,0.6,0.1,0.9,0c0.5-0.2,0.7-0.7,0.8-1c0.3-1,1.4-4.8,2.7-9.9c0.5,1.5,1,3.1,1.6,4.6
				c0.9,2.6,1.8,5.2,2.7,7.8c0,0,0,0.1,0.1,0.2c0.1,0.1,0.2,0.1,0.4,0c0.3-1.1,0.5-2,0.7-2.7c0.2-0.7,0.4-1.2,0.6-1.2
				c0.2,0,0.5,0.5,0.7,1c0.2,0.5,0.3,0.9,0.6,1.1c0.1,0.1,0.3,0.2,0.4,0.2c1.1,0.3,3.2,0,4.5-0.1c0.3,0,0,0,1.5,0
				c2.9-0.1,3.6-0.2,3.9,0.2c0.1,0.2,0.1,0.5-0.4,1.3c-1.8-0.1-3.2,0-4.1,0c-1.5,0.1-2.9,0.3-5.1,0.3c-0.4,0-0.6,0-0.8,0
				c0-0.2,0-1.4-0.7-1.8c-0.1,0-0.1-0.1-0.2-0.1c-0.4,0.6-0.6,1.1-0.7,1.5c-0.2,0.6-0.2,1.1-0.6,1.8c-0.2,0.3-0.3,0.5-0.4,0.6
				c-0.1-0.1-0.3-0.1-0.4-0.2c-0.8-1.8-1.4-3-1.8-3.9c-1.7-3.7-1.8-3.8-1.8-3.9c0-0.1,0-0.3-0.2-0.5c-0.1-0.1-0.3-0.1-0.5-0.1
				c-0.3,0.8-0.6,1.4-0.8,1.9c-0.8,2-1.2,3-1.3,3.5c-0.3,1-0.2,1.5-0.7,1.8c-0.6,0.5-1.4,0.4-1.8,0.3c-0.5-0.1-3.1-0.1-8.4-0.2
				c-2,0-4.3-0.1-6.5,0.3c-0.5,0.1-2.1,0.4-4.2,0c-0.3,0-0.6-0.1-0.8-0.1c-0.4-0.4-0.8-0.9-1.3-1.4c-0.6-0.6-1.1-1.3-1.5-1.9
				c-0.2,0.1-0.4,0.4-0.6,0.6c-0.5,0.4-1,0.9-1.4,1.1c-0.8,0.6-1.6,0.8-2.5,1.1c-0.6,0.2-1.6,0.5-3.1,0.8c-1.7,0.3-1.8,0.1-4.2,0.4
				c-2.3,0.3-3.4,0.4-3.8,0.5c-1.4,0.3-2,0.5-2.5,0.1C385.9,307.9,386,306.7,386.1,306z"/>
			
				<linearGradient id="ekg-top-front_1_" gradientUnits="userSpaceOnUse" x1="355.6232" y1="697.2537" x2="417.4701" y2="697.2537" gradientTransform="matrix(0.9744 0.2248 0.2248 -0.9744 -114.6513 895.4448)">
				<stop  offset="0" style="stop-color:#F2EA1A"/>
				<stop  offset="1" style="stop-color:#F1EA19"/>
			</linearGradient>
			<path id="ekg-top-front" class="st3" d="M386.3,305.9c2.4-0.2,4.4-0.3,5.7-0.4c0.6,0,3.2-0.2,6.4-0.5c2.9-0.3,3.8-0.5,4.6-1.2
				c1.1-1,1.2-2.5,1.3-3.4c0.6,0.7,1.1,1.4,1.6,2c0.5,0.8,0.7,1.1,1.1,1.5c0.5,0.4,1.2,0.9,2.4,1.1c3.1-0.1,7-0.3,10.1-0.4
				c2.4-0.1,6.2-0.2,8.5-0.4c0.2,0.1,0.6,0.1,0.9,0c0.5-0.2,0.7-0.7,0.8-1c0.3-1,1.4-4.8,2.7-9.9c0.5,1.5,1,3.1,1.6,4.6
				c0.9,2.6,1.8,5.2,2.7,7.8c0,0,0,0.1,0.1,0.2c0.1,0.1,0.2,0.1,0.4,0c0.3-1.1,0.5-2,0.7-2.7c0.2-0.7,0.4-1.2,0.6-1.2
				c0.2,0,0.5,0.5,0.7,1c0.2,0.5,0.3,0.9,0.6,1.1c0.1,0.1,0.3,0.2,0.4,0.2c1.1,0.3,3.2,0,4.5-0.1c0.3,0,0,0,1.5,0
				c2.9-0.1,3.6-0.2,3.9,0.2c0.1,0.2,0.1,0.5-0.4,1.3c-1.8-0.1-3.2,0-4.1,0c-1.5,0.1-2.9,0.3-5.1,0.3c-0.4,0-0.6,0-0.8,0
				c0-0.2,0-1.4-0.7-1.8c-0.1,0-0.1-0.1-0.2-0.1c-0.4,0.6-0.6,1.1-0.7,1.5c-0.2,0.6-0.2,1.1-0.6,1.8c-0.2,0.3-0.3,0.5-0.4,0.6
				c-0.1-0.1-0.3-0.1-0.4-0.2c-0.8-1.8-1.4-3-1.8-3.9c-1.7-3.7-1.8-3.8-1.8-3.9c0-0.1,0-0.3-0.2-0.5c-0.1-0.1-0.3-0.1-0.5-0.1
				c-0.3,0.8-0.6,1.4-0.8,1.9c-0.8,2-1.2,3-1.3,3.5c-0.3,1-0.2,1.5-0.7,1.8c-0.6,0.5-1.4,0.4-1.8,0.3c-0.5-0.1-3.1-0.1-8.4-0.2
				c-2,0-4.3-0.1-6.5,0.3c-0.5,0.1-2.1,0.4-4.2,0c-0.3,0-0.6-0.1-0.8-0.1c-0.4-0.4-0.8-0.9-1.3-1.4c-0.6-0.6-1.1-1.3-1.5-1.9
				c-0.2,0.1-0.4,0.4-0.6,0.6c-0.5,0.4-1,0.9-1.4,1.1c-0.8,0.6-1.6,0.8-2.5,1.1c-0.6,0.2-1.6,0.5-3.1,0.8c-1.7,0.3-1.8,0.1-4.2,0.4
				c-2.3,0.3-3.4,0.4-3.8,0.5c-1.4,0.3-2,0.5-2.5,0.1C386.1,307.7,386.2,306.5,386.3,305.9z"/>
		</g>
		<g id="ekg-middle">
			
				<linearGradient id="ekg-middle-back-1_1_" gradientUnits="userSpaceOnUse" x1="430.3113" y1="660.1575" x2="378.5611" y2="625.1539" gradientTransform="matrix(0.9521 0.3059 0.3059 -0.9521 -159.8553 917.3578)">
				<stop  offset="0" style="stop-color:#828635"/>
				<stop  offset="3.330000e-02" style="stop-color:#828635"/>
				<stop  offset="1" style="stop-color:#828635"/>
			</linearGradient>
			<path id="ekg-middle-back-1" class="st4" d="M392,430.2c1.9-0.1,4.2-0.1,6.7,0.2c1.6,0.2,3,0.4,4.4,0.7c0.7-2.1,1.4-4.3,2.1-6.4
				c0.5,1,0.9,2,1.3,3c0.4,0.9,0.7,1.8,1,2.6c1.4-0.1,3.6-0.2,6.4-0.4c3.7-0.3,4.5-0.5,6.9-0.5c3.7-0.1,6.3,0.3,6.9,0.4
				c1.9,0.3,3.5,0.7,4.7,1c0.4-3.3,0.8-6.5,1.2-9.8c0.7,1.5,1.3,2.7,1.6,3.6c1,2.4,2,5,2,5c0.1,0,0.5-0.2,0.8-0.6
				c0.3-0.4,0.3-0.7,0.3-0.9c1.3-0.1,2.5-0.2,3.9-0.2c4.2-0.2,8.1-0.2,11.9,0c-0.1,0.4-0.2,0.7-0.4,1c-2.4,0.3-4.3,0.5-5.7,0.6
				c-1.1,0.1-2.3,0.2-3.4,0.3c-1.6,0.1-2.6,0.2-4,0.4c-0.7,0.1-1.3,0.2-1.8,0.3c-0.4,1.1-0.7,2.2-1.1,3.3c-0.1-0.2-0.4-0.6-0.6-1.1
				c-0.3-0.5-0.6-1.3-1.5-4.3c-0.2-0.6-0.4-1.3-0.8-2.2c-0.2-0.4-0.3-0.7-0.5-0.9c-0.2,1.5-0.4,2.7-0.5,3.5
				c-0.1,1.3-0.2,2.2-0.4,3.6c-0.1,0.8-0.3,1.4-0.4,1.8c-0.1,0-0.2,0.1-0.3,0.1c-0.2,0-0.3-0.2-0.5-0.5c-0.4-0.9-0.3-1.2-0.6-1.5
				c-0.1-0.1-0.3-0.3-0.6-0.5c-0.7,0-1.6-0.1-2.8-0.1c-1.5,0-2.9,0-5.8,0c-5.2,0.1-4.5,0.2-7.1,0.2c-1.2,0-2.5,0-4.4,0.1
				c-1.1,0.1-2,0.1-2.6,0.2c-0.2,1-0.3,1.8-0.3,2.4c0,0.5,0,1.4,0.1,2.1c0,0.2,0,0.4,0,0.6c-0.2-0.2-0.4-0.5-0.5-0.7
				c-0.4-1-0.6-1.7-0.7-2.2c-0.3-1.1-0.3-1.7-0.7-3.2c-0.2-0.8-0.4-1.5-0.5-1.9c-0.5,0.7-0.8,1.3-1,1.7c-0.1,0.3-0.3,1-0.7,2.2
				c0,0.1,0,0.2-0.1,0.2c-0.5-0.1-1.2-0.3-2.1-0.5c-1.7-0.3-3-0.4-4.4-0.6c-2.1-0.2-3.1-0.3-3.7-0.3c-0.9,0-1.9-0.2-2.8-0.1
				c-0.3,0-0.6,0-0.8-0.1c-0.4-0.4-0.1-1.5,0.8-1.7C391.4,429.9,391.9,430.1,392,430.2z"/>
			
				<linearGradient id="ekg-middle-front-1_1_" gradientUnits="userSpaceOnUse" x1="430.239" y1="660.4808" x2="378.4887" y2="625.4773" gradientTransform="matrix(0.9521 0.3059 0.3059 -0.9521 -159.8553 917.3578)">
				<stop  offset="0" style="stop-color:#F2EA1A"/>
				<stop  offset="1" style="stop-color:#F1EA19"/>
			</linearGradient>
			<path id="ekg-middle-front-1" class="st5" d="M392,429.9c1.9-0.1,4.2-0.1,6.7,0.2c1.6,0.2,3,0.4,4.4,0.7c0.7-2.1,1.4-4.3,2.1-6.4
				c0.5,1,0.9,2,1.3,3c0.4,0.9,0.7,1.8,1,2.6c1.4-0.1,3.6-0.2,6.4-0.4c3.7-0.3,4.5-0.5,6.9-0.5c3.7-0.1,6.3,0.3,6.9,0.4
				c1.9,0.3,3.5,0.7,4.7,1c0.4-3.3,0.8-6.5,1.2-9.8c0.7,1.5,1.3,2.7,1.6,3.6c1,2.4,2,5,2,5c0.1,0,0.5-0.2,0.8-0.6
				c0.3-0.4,0.3-0.7,0.3-0.9c1.3-0.1,2.5-0.2,3.9-0.2c4.2-0.2,8.1-0.2,11.9,0c-0.1,0.4-0.2,0.7-0.4,1c-2.4,0.3-4.3,0.5-5.7,0.6
				c-1.1,0.1-2.3,0.2-3.4,0.3c-1.6,0.1-2.6,0.2-4,0.4c-0.7,0.1-1.3,0.2-1.8,0.3c-0.4,1.1-0.7,2.2-1.1,3.3c-0.1-0.2-0.4-0.6-0.6-1.1
				c-0.3-0.5-0.6-1.3-1.5-4.3c-0.2-0.6-0.4-1.3-0.8-2.2c-0.2-0.4-0.3-0.7-0.5-0.9c-0.2,1.5-0.4,2.7-0.5,3.5
				c-0.1,1.3-0.2,2.2-0.4,3.6c-0.1,0.8-0.3,1.4-0.4,1.8c-0.1,0-0.2,0.1-0.3,0.1c-0.2,0-0.3-0.2-0.5-0.5c-0.4-0.9-0.3-1.2-0.6-1.5
				c-0.1-0.1-0.3-0.3-0.6-0.5c-0.7,0-1.6-0.1-2.8-0.1c-1.5,0-2.9,0-5.8,0c-5.2,0.1-4.5,0.2-7.1,0.2c-1.2,0-2.5,0-4.4,0.1
				c-1.1,0.1-2,0.1-2.6,0.2c-0.2,1-0.3,1.8-0.3,2.4c0,0.5,0,1.4,0.1,2.1c0,0.2,0,0.4,0,0.6c-0.2-0.2-0.4-0.5-0.5-0.7
				c-0.4-1-0.6-1.7-0.7-2.2c-0.3-1.1-0.3-1.7-0.7-3.2c-0.2-0.8-0.4-1.5-0.5-1.9c-0.5,0.7-0.8,1.3-1,1.7c-0.1,0.3-0.3,1-0.7,2.2
				c0,0.1,0,0.2-0.1,0.2c-0.5-0.1-1.2-0.3-2.1-0.5c-1.7-0.3-3-0.4-4.4-0.6c-2.1-0.2-3.1-0.3-3.7-0.3c-0.9,0-1.9-0.2-2.8-0.1
				c-0.3,0-0.6,0-0.8-0.1c-0.4-0.4-0.1-1.5,0.8-1.7C391.4,429.6,391.9,429.8,392,429.9z"/>
			
				<linearGradient id="ekg-middle-back-2_1_" gradientUnits="userSpaceOnUse" x1="416.7362" y1="682.6818" x2="361.35" y2="645.2189" gradientTransform="matrix(0.9381 0.3464 0.3464 -0.9381 -174.6856 900.3966)">
				<stop  offset="0" style="stop-color:#828635"/>
				<stop  offset="3.330000e-02" style="stop-color:#828635"/>
				<stop  offset="1" style="stop-color:#828635"/>
			</linearGradient>
			<path id="ekg-middle-back-2" class="st6" d="M387.1,413.1c0.5,0,1.2-0.1,2.1-0.1c1-0.1,2.8-0.2,4.1-0.2c1.6-0.1,3.7-0.1,6.2,0.1
				c1.2,0.1,2.9,0.4,4.9,0.8c0.4-1,0.9-1.9,1.3-2.9c0.5-1.1,0.9-2.1,1.4-3.2c0.2,0.6,0.3,1.1,0.4,1.5c0.3,1.1,0.5,1.6,0.8,2.8
				c0.1,0.5,0.2,0.9,0.3,1.2c0.5,0,1.1-0.1,1.9-0.1c2.7-0.2,3.7-0.4,5.2-0.5c2.2-0.2,3.9-0.1,6.2-0.1c1.7,0,3.3,0,5,0.2
				c0.8,0.1,1.6,0.2,2.5,0.5c0.7,0.2,1.3,0.4,1.7,0.5c0.2-0.5,0.3-1,0.5-1.6c0.4-1.6,0.6-3.2,0.7-4.6c0.1-1.2,0.3-2.3,0.4-3.5
				c0.2,0.6,0.6,1.5,1,2.6c0.3,1,0.3,1,0.7,2.4c0.1,0.4,0.5,1.4,1,2.8c0.1,0.4,0.3,0.7,0.4,0.9c0.1-0.2,0.3-0.7,0.7-1
				c0.5-0.5,1-0.6,1.3-0.7c1,0,2.4,0.1,4.2,0c2.8,0,4-0.2,6.2-0.2c1.5,0,3.6,0,6.2,0.2c-0.2,0.2-0.3,0.3-0.5,0.5
				c-2,0.4-3.6,0.6-4.7,0.7c-1.6,0.2-2.9,0.4-7.9,0.9c-1.4,0.1-3,0.3-4.4,0.4c-0.4,1-0.7,2-1.1,3c-0.6-1.4-0.9-2.6-1.1-3.5
				c-0.2-1-0.3-1.9-0.8-3.2c-0.2-0.6-0.4-1-0.6-1.3c-0.3,1.4-0.5,2.5-0.6,3.3c-0.2,1.3-0.4,1.9-0.6,3s-0.4,2-0.5,2.6
				c-0.1-0.1-0.3-0.2-0.4-0.3c0-0.2,0-1-0.5-1.7c-0.4-0.4-0.8-0.7-1-0.8c-0.6,0-1.4-0.1-2.5-0.1c-2.9-0.1-4,0-8.2,0.1
				c-3.1,0-3.5,0-6.5,0.1c-1.4,0-2.6,0.1-3.4,0.1c-0.2,1.6-0.5,3.2-0.7,4.8c-0.1-0.1-0.2-0.2-0.4-0.3c-0.1-1.4-0.2-2.5-0.4-3.2
				c-0.2-0.9-0.4-1.8-0.7-3.7c0-0.3-0.1-0.5-0.1-0.6c-0.4,0.8-0.8,1.7-1.1,2.6c-0.2,0.6-0.5,1.2-0.7,1.8c-0.6-0.2-1.5-0.5-2.6-0.8
				c-2-0.5-3.5-0.6-6.3-0.9c-2.9-0.3-4.4-0.4-5.8-0.4c-2.2,0.1-4,0.4-4.1,0C386.2,413.8,386.7,413.4,387.1,413.1z"/>
			
				<linearGradient id="ekg-middle-front-2_1_" gradientUnits="userSpaceOnUse" x1="416.4471" y1="682.9161" x2="361.0606" y2="645.4531" gradientTransform="matrix(0.9381 0.3464 0.3464 -0.9381 -174.6856 900.3966)">
				<stop  offset="0" style="stop-color:#F2EA1A"/>
				<stop  offset="1" style="stop-color:#F1EA19"/>
			</linearGradient>
			<path id="ekg-middle-front-2" class="st7" d="M386.9,412.8c0.5,0,1.2-0.1,2.1-0.1c1-0.1,2.8-0.2,4.1-0.2c1.6-0.1,3.7-0.1,6.2,0.1
				c1.2,0.1,2.9,0.4,4.9,0.8c0.4-1,0.9-1.9,1.3-2.9c0.5-1.1,0.9-2.1,1.4-3.2c0.2,0.6,0.3,1.1,0.4,1.5c0.3,1.1,0.5,1.6,0.8,2.8
				c0.1,0.5,0.2,0.9,0.3,1.2c0.5,0,1.1-0.1,1.9-0.1c2.7-0.2,3.7-0.4,5.2-0.5c2.2-0.2,3.9-0.1,6.2-0.1c1.7,0,3.3,0,5,0.2
				c0.8,0.1,1.6,0.2,2.5,0.5c0.7,0.2,1.3,0.4,1.7,0.5c0.2-0.5,0.3-1,0.5-1.6c0.4-1.6,0.6-3.2,0.7-4.6c0.1-1.2,0.3-2.3,0.4-3.5
				c0.2,0.6,0.6,1.5,1,2.6c0.3,1,0.3,1,0.7,2.4c0.1,0.4,0.5,1.4,1,2.8c0.1,0.4,0.3,0.7,0.4,0.9c0.1-0.2,0.3-0.7,0.7-1
				c0.5-0.5,1-0.6,1.3-0.7c1,0,2.4,0.1,4.2,0c2.8,0,4-0.2,6.2-0.2c1.5,0,3.6,0,6.2,0.2c-0.2,0.2-0.3,0.3-0.5,0.5
				c-2,0.4-3.6,0.6-4.7,0.7c-1.6,0.2-2.9,0.4-7.9,0.9c-1.4,0.1-3,0.3-4.4,0.4c-0.4,1-0.7,2-1.1,3c-0.6-1.4-0.9-2.6-1.1-3.5
				c-0.2-1-0.3-1.9-0.8-3.2c-0.2-0.6-0.4-1-0.6-1.3c-0.3,1.4-0.5,2.5-0.6,3.3c-0.2,1.3-0.4,1.9-0.6,3s-0.4,2-0.5,2.6
				c-0.1-0.1-0.3-0.2-0.4-0.3c0-0.2,0-1-0.5-1.7c-0.4-0.4-0.8-0.7-1-0.8c-0.6,0-1.4-0.1-2.5-0.1c-2.9-0.1-4,0-8.2,0.1
				c-3.1,0-3.5,0-6.5,0.1c-1.4,0-2.6,0.1-3.4,0.1c-0.2,1.6-0.5,3.2-0.7,4.8c-0.1-0.1-0.2-0.2-0.4-0.3c-0.1-1.4-0.2-2.5-0.4-3.2
				c-0.2-0.9-0.4-1.8-0.7-3.7c0-0.3-0.1-0.5-0.1-0.6c-0.4,0.8-0.8,1.7-1.1,2.6c-0.2,0.6-0.5,1.2-0.7,1.8c-0.6-0.2-1.5-0.5-2.6-0.8
				c-2-0.5-3.5-0.6-6.3-0.9c-2.9-0.3-4.4-0.4-5.8-0.4c-2.2,0.1-4,0.4-4.1,0C386,413.5,386.5,413.1,386.9,412.8z"/>
			
				<linearGradient id="ekg-middle-back-3_1_" gradientUnits="userSpaceOnUse" x1="406.9244" y1="701.4566" x2="359.2252" y2="669.1932" gradientTransform="matrix(0.9381 0.3464 0.3464 -0.9381 -174.6856 900.3966)">
				<stop  offset="0" style="stop-color:#838634"/>
				<stop  offset="3.330000e-02" style="stop-color:#838634"/>
				<stop  offset="1" style="stop-color:#838634"/>
			</linearGradient>
			<path id="ekg-middle-back-3" class="st8" d="M394.9,390.9c1.8-0.1,3.8,0,6.1,0.3c1.4,0.2,2.8,0.4,3.9,0.7
				c0.8-2.1,1.6-4.2,2.4-6.3c0.3,1,0.7,2,1,3c0.3,0.9,0.5,1.8,0.7,2.6c1.3,0,3.3-0.1,5.8-0.3c3.4-0.3,4.1-0.4,6.3-0.5
				c3.4,0,5.7,0.3,6.2,0.4c1.7,0.3,3.1,0.7,4.2,1c0.6-3.2,1.2-6.4,1.8-9.6c0.5,1.5,1,2.7,1.2,3.5c0.7,2.4,1.4,5,1.4,5
				c0.1,0,0.5-0.2,0.8-0.6c0.3-0.4,0.3-0.7,0.3-0.9c1.1-0.1,2.3-0.1,3.5-0.2c3.8-0.1,7.4-0.1,10.8,0.1c-0.1,0.3-0.3,0.7-0.4,1
				c-2.2,0.2-4,0.4-5.2,0.5c-1,0.1-2.1,0.2-3.1,0.3c-1.5,0.1-2.4,0.2-3.7,0.4c-0.7,0.1-1.2,0.2-1.6,0.2c-0.4,1.1-0.8,2.2-1.2,3.2
				c-0.1-0.2-0.3-0.6-0.5-1c-0.2-0.5-0.5-1.2-1.1-4.3c-0.1-0.6-0.3-1.3-0.6-2.2c-0.1-0.4-0.3-0.7-0.3-0.9c-0.3,1.5-0.5,2.7-0.7,3.5
				c-0.2,1.2-0.3,2.2-0.7,3.5c-0.2,0.8-0.3,1.4-0.5,1.8c-0.1,0-0.2,0.1-0.3,0.1c-0.2,0-0.3-0.2-0.4-0.5c-0.3-0.8-0.2-1.1-0.5-1.5
				c-0.1-0.1-0.2-0.3-0.5-0.5c-0.6,0-1.5-0.1-2.6-0.2c-1.4-0.1-2.6-0.1-5.3,0c-4.7,0-4.1,0.1-6.5,0.1c-1,0-2.2,0-4,0
				c-1,0-1.9,0.1-2.4,0.2c-0.3,1-0.4,1.8-0.4,2.4c0,0.5-0.1,1.4-0.1,2c0,0.2,0,0.4,0,0.5c-0.1-0.2-0.3-0.4-0.4-0.7
				c-0.2-0.9-0.4-1.7-0.5-2.2c-0.2-1.1-0.2-1.7-0.4-3.2c-0.1-0.8-0.2-1.5-0.3-1.9c-0.5,0.7-0.8,1.3-1,1.7c-0.1,0.3-0.4,0.9-0.8,2.2
				c0,0.1-0.1,0.2-0.1,0.2c-0.5-0.1-1.1-0.3-1.9-0.5c-1.5-0.3-2.7-0.5-4-0.6c-1.9-0.2-2.8-0.3-3.4-0.3c-0.9,0-1.7-0.2-2.6-0.1
				c-0.3,0-0.5,0-0.7-0.1c-0.3-0.4,0-1.5,0.8-1.7C394.3,390.5,394.8,390.8,394.9,390.9z"/>
			
				<linearGradient id="ekg-middle-front-3_1_" gradientUnits="userSpaceOnUse" x1="406.8778" y1="701.7272" x2="359.1786" y2="669.4638" gradientTransform="matrix(0.9381 0.3464 0.3464 -0.9381 -174.6856 900.3966)">
				<stop  offset="0" style="stop-color:#EFE919"/>
				<stop  offset="1" style="stop-color:#EFE919"/>
			</linearGradient>
			<path id="ekg-middle-front-3" class="st9" d="M395,390.6c1.8-0.1,3.8,0,6.1,0.3c1.4,0.2,2.8,0.4,3.9,0.7c0.8-2.1,1.6-4.2,2.4-6.3
				c0.3,1,0.7,2,1,3c0.3,0.9,0.5,1.8,0.7,2.6c1.3,0,3.3-0.1,5.8-0.3c3.4-0.3,4.1-0.4,6.3-0.5c3.4,0,5.7,0.3,6.2,0.4
				c1.7,0.3,3.1,0.7,4.2,1c0.6-3.2,1.2-6.4,1.8-9.6c0.5,1.5,1,2.7,1.2,3.5c0.7,2.4,1.4,5,1.4,5c0.1,0,0.5-0.2,0.8-0.6
				c0.3-0.4,0.3-0.7,0.3-0.9c1.1-0.1,2.3-0.1,3.5-0.2c3.8-0.1,7.4-0.1,10.8,0.1c-0.1,0.3-0.3,0.7-0.4,1c-2.2,0.2-4,0.4-5.2,0.5
				c-1,0.1-2.1,0.2-3.1,0.3c-1.5,0.1-2.4,0.2-3.7,0.4c-0.7,0.1-1.2,0.2-1.6,0.2c-0.4,1.1-0.8,2.2-1.2,3.2c-0.1-0.2-0.3-0.6-0.5-1
				c-0.2-0.5-0.5-1.2-1.1-4.3c-0.1-0.6-0.3-1.3-0.6-2.2c-0.1-0.4-0.3-0.7-0.3-0.9c-0.3,1.5-0.5,2.7-0.7,3.5
				c-0.2,1.2-0.3,2.2-0.7,3.5c-0.2,0.8-0.3,1.4-0.5,1.8c-0.1,0-0.2,0.1-0.3,0.1c-0.2,0-0.3-0.2-0.4-0.5c-0.3-0.8-0.2-1.1-0.5-1.5
				c-0.1-0.1-0.2-0.3-0.5-0.5c-0.6,0-1.5-0.1-2.6-0.2c-1.4-0.1-2.6-0.1-5.3,0c-4.7,0-4.1,0.1-6.5,0.1c-1,0-2.2,0-4,0
				c-1,0-1.9,0.1-2.4,0.2c-0.3,1-0.4,1.8-0.4,2.4c0,0.5-0.1,1.4-0.1,2c0,0.2,0,0.4,0,0.5c-0.1-0.2-0.3-0.4-0.4-0.7
				c-0.2-0.9-0.4-1.7-0.5-2.2c-0.2-1.1-0.2-1.7-0.4-3.2c-0.1-0.8-0.2-1.5-0.3-1.9c-0.5,0.7-0.8,1.3-1,1.7c-0.1,0.3-0.4,0.9-0.8,2.2
				c0,0.1-0.1,0.2-0.1,0.2c-0.5-0.1-1.1-0.3-1.9-0.5c-1.5-0.3-2.7-0.5-4-0.6c-1.9-0.2-2.8-0.3-3.4-0.3c-0.9,0-1.7-0.2-2.6-0.1
				c-0.3,0-0.5,0-0.7-0.1c-0.3-0.4,0-1.5,0.8-1.7C394.4,390.3,394.9,390.5,395,390.6z"/>
		</g>
		<g id="ekg-bottom">
			
				<linearGradient id="ekg-bottom-back_1_" gradientUnits="userSpaceOnUse" x1="-251.2221" y1="309.8687" x2="-168.3263" y2="309.8687" gradientTransform="matrix(-0.7159 0.276 -0.3597 -0.9331 382.2249 870.0819)">
				<stop  offset="0" style="stop-color:#8B8D35"/>
				<stop  offset="3.330000e-02" style="stop-color:#8B8D35"/>
				<stop  offset="1" style="stop-color:#8B8D35"/>
			</linearGradient>
			<path id="ekg-bottom-back" class="st10" d="M455.5,524.3c-2.6-0.1-4.6-0.1-6-0.1c-0.6,0-3.4,0-6.8-0.1c-3.1-0.1-4.1-0.3-5.1-1.2
				c-1.4-1.3-1.9-3.2-2.2-4.3c-0.5,1-0.8,1.9-1.1,2.8c-0.4,1-0.4,1.5-0.8,2c-0.4,0.6-1,1.3-2.2,1.6c-3.2,0.1-7.4,0.2-10.6,0.3
				c-2.5,0.1-6.5,0.2-9,0.2c-0.2,0.1-0.6,0.2-1,0c-0.5-0.2-0.9-0.9-1.1-1.3c-0.6-1.3-2.6-6.1-5.3-12.7c-0.1,2-0.3,4.1-0.5,6.1
				c-0.3,3.5-0.5,6.9-0.8,10.3c0,0,0,0.2-0.1,0.3c-0.1,0.1-0.2,0.1-0.4,0.1c-0.6-1.4-1.1-2.6-1.5-3.5c-0.4-0.9-0.7-1.6-1-1.6
				c-0.3,0-0.4,0.7-0.5,1.3c-0.1,0.7-0.1,1.1-0.4,1.5c-0.1,0.2-0.2,0.2-0.4,0.3c-1.1,0.5-3.3,0.3-4.8,0.3c-0.3,0,0,0-1.6,0
				c-3,0.1-3.8,0-4,0.6c-0.1,0.2,0,0.7,0.8,1.7c1.8-0.2,3.3-0.3,4.3-0.3c1.5,0,3.1,0.2,5.5,0c0.4,0,0.7-0.1,0.9-0.1
				c-0.1-0.3-0.4-1.8,0.3-2.4c0,0,0.1-0.1,0.2-0.1c0.6,0.8,0.9,1.4,1.1,1.9c0.4,0.8,0.5,1.5,1.1,2.3c0.2,0.3,0.5,0.6,0.6,0.7
				c0.1-0.1,0.2-0.2,0.4-0.3c0.4-2.3,0.7-4,0.9-5.2c0.9-4.9,0.9-5,0.9-5.2c0-0.1-0.1-0.4,0.1-0.6c0.1-0.2,0.3-0.2,0.4-0.2
				c0.5,1,1,1.8,1.3,2.4c1.4,2.5,2,3.8,2.3,4.5c0.5,1.3,0.6,1.9,1.2,2.3c0.7,0.6,1.6,0.3,1.9,0.3c0.5-0.1,3.2-0.4,8.6-1
				c2-0.2,4.5-0.5,6.8-0.2c0.6,0.1,2.3,0.3,4.4-0.3c0.3-0.1,0.6-0.2,0.8-0.3c0.3-0.6,0.6-1.2,1-1.9c0.4-0.9,0.8-1.7,1.1-2.6
				c0.2,0.2,0.5,0.4,0.8,0.7c0.6,0.5,1.3,1,1.8,1.3c1,0.7,1.8,0.9,2.9,1.3c0.7,0.2,1.8,0.5,3.5,0.7c1.8,0.2,1.9,0,4.5,0.2
				c2.5,0.2,3.7,0.2,4.1,0.3c1.5,0.2,2.2,0.5,2.6,0C456.2,526.8,455.8,525.2,455.5,524.3z"/>
			
				<linearGradient id="ekg-bottom-front_1_" gradientUnits="userSpaceOnUse" x1="-251.7693" y1="310.5963" x2="-168.8735" y2="310.5963" gradientTransform="matrix(-0.7159 0.276 -0.3597 -0.9331 382.2249 870.0819)">
				<stop  offset="0" style="stop-color:#F2EA1A"/>
				<stop  offset="1" style="stop-color:#F1EA19"/>
			</linearGradient>
			<path id="ekg-bottom-front" class="st11" d="M455.6,523.5c-2.6-0.1-4.6-0.1-6-0.1c-0.6,0-3.4,0-6.8-0.1c-3.1-0.1-4.1-0.3-5.1-1.2
				c-1.4-1.3-1.9-3.2-2.2-4.3c-0.5,1-0.8,1.9-1.1,2.8c-0.4,1-0.4,1.5-0.8,2c-0.4,0.6-1,1.3-2.2,1.6c-3.2,0.1-7.4,0.2-10.6,0.3
				c-2.5,0.1-6.5,0.2-9,0.2c-0.2,0.1-0.6,0.2-1,0c-0.5-0.2-0.9-0.9-1.1-1.3c-0.6-1.3-2.6-6.1-5.3-12.7c-0.1,2-0.3,4.1-0.5,6.1
				c-0.3,3.5-0.5,6.9-0.8,10.3c0,0,0,0.2-0.1,0.3c-0.1,0.1-0.2,0.1-0.4,0.1c-0.6-1.4-1.1-2.6-1.5-3.5c-0.4-0.9-0.7-1.6-1-1.6
				c-0.3,0-0.4,0.7-0.5,1.3c-0.1,0.7-0.1,1.1-0.4,1.5c-0.1,0.2-0.2,0.2-0.4,0.3c-1.1,0.5-3.3,0.3-4.8,0.3c-0.3,0,0,0-1.6,0
				c-3,0.1-3.8,0-4,0.6c-0.1,0.2,0,0.7,0.8,1.7c1.8-0.2,3.3-0.3,4.3-0.3c1.5,0,3.1,0.2,5.5,0c0.4,0,0.7-0.1,0.9-0.1
				c-0.1-0.3-0.4-1.8,0.3-2.4c0,0,0.1-0.1,0.2-0.1c0.6,0.8,0.9,1.4,1.1,1.9c0.4,0.8,0.5,1.5,1.1,2.3c0.2,0.3,0.5,0.6,0.6,0.7
				c0.1-0.1,0.2-0.2,0.4-0.3c0.4-2.3,0.7-4,0.9-5.2c0.9-4.9,0.9-5,0.9-5.2c0-0.1-0.1-0.4,0.1-0.6c0.1-0.2,0.3-0.2,0.4-0.2
				c0.5,1,1,1.8,1.3,2.4c1.4,2.5,2,3.8,2.3,4.5c0.5,1.3,0.6,1.9,1.2,2.3c0.7,0.6,1.6,0.3,1.9,0.3c0.5-0.1,3.2-0.4,8.6-1
				c2-0.2,4.5-0.5,6.8-0.2c0.6,0.1,2.3,0.3,4.4-0.3c0.3-0.1,0.6-0.2,0.8-0.3c0.3-0.6,0.6-1.2,1-1.9c0.4-0.9,0.8-1.7,1.1-2.6
				c0.2,0.2,0.5,0.4,0.8,0.7c0.6,0.5,1.3,1,1.8,1.3c1,0.7,1.8,0.9,2.9,1.3c0.7,0.2,1.8,0.5,3.5,0.7c1.8,0.2,1.9,0,4.5,0.2
				c2.5,0.2,3.7,0.2,4.1,0.3c1.5,0.2,2.2,0.5,2.6,0C456.3,525.9,455.9,524.3,455.6,523.5z"/>
		</g>
		<g id="dna-strand-1">
			
				<linearGradient id="dna-strand-1-top_1_" gradientUnits="userSpaceOnUse" x1="397.1106" y1="656.2308" x2="370.5367" y2="771.4003" gradientTransform="matrix(0.9744 0.2248 0.2248 -0.9744 -114.6513 895.4448)">
				<stop  offset="0.1929" style="stop-color:#909090"/>
				<stop  offset="0.3629" style="stop-color:#989797"/>
				<stop  offset="0.3988" style="stop-color:#A2A0A0"/>
				<stop  offset="0.5131" style="stop-color:#BFBDBD"/>
				<stop  offset="0.6298" style="stop-color:#D8D6D5"/>
				<stop  offset="0.7484" style="stop-color:#EBEAE9"/>
				<stop  offset="0.8703" style="stop-color:#F9F8F7"/>
				<stop  offset="1" style="stop-color:#FFFFFF"/>
			</linearGradient>
			<path id="dna-strand-1-top" class="st12" d="M377.3,242.1c-1.6-0.4-2.5-1.8-2.5-1.9c-0.5-0.9-0.5-1.8-0.6-2.4
				c0-1.9,0.7-3.4,1.1-4.2c1.7-2.7,5.2-3.5,6.9-3.9c12.2-2.6,22.2-2.5,22.2-2.5c8.8,0.5,13.3,0.1,17,0.5c8,0.9,14.2,1.7,21,5.4
				c6.9,3.8,10.9,8.9,12.8,11.4c10.8,14,10.3,29.9,10.1,34.7c-0.1,1.9-0.5,7.8-2.8,15.1c-2.7,8.3-6.4,13.9-10.3,19.4
				c-6.5,9.3-12.9,15.2-16.9,19c-7.6,7-15.8,12.9-16.1,12.6c-0.1-0.2,1.7-1.8,4.6-4.7c10-10.2,16-19.3,17.5-21.7
				c2-3.2,3.9-6.1,5.9-10.5c2.1-4.6,5-11.2,5.6-20.1c0.2-3.6,0.7-11.5-3-20.8c-0.8-1.9-4.2-10-12.4-17.2c-2.7-2.4-7.2-6.2-14.2-8.3
				c-2.5-0.8-4.8-1-9.2-1.5c-5-0.5-11.8-1.2-20.1-0.4c-8.3,0.9-12.5,1.3-13.2,1.6C380.2,241.9,378.8,242.5,377.3,242.1z"/>
			<path id="dna-strand-1-middle" class="st13" d="M406.8,467.9c-2.7-1.7-6-4.1-9.6-7.1c-2-1.7-5.7-4.9-9.7-9.6
				c-2.8-3.4-6.9-8.3-10.2-15.8c-1.3-3-4-9.3-4.4-17.9c-0.5-9.6,1.9-16.9,3.3-20.9c1.9-5.5,4.1-9.4,5.8-12.4
				c0.7-1.1,3.8-6.5,9.3-13.1c3.8-4.5,6.8-7.4,12.9-13c3.5-3.2,8.5-7.7,14.9-12.9c5.7-4.6,5.5-4,9.6-7.4c8.4-7,14-13.2,16.1-15.5
				c4-4.5,7.6-8.6,11.3-14.9c1.7-2.9,4.2-7.2,6.2-13.5c1.6-5.1,2.2-9.3,2.5-11.8c0.5-3.5,0.9-6.8,0.6-11.2c-0.5-7.8-3-13.6-4.1-16.2
				c-0.6-1.5-1.6-3.6-3-5.9c-2.7-4.5-5.8-7.8-8-10.1c0.7,0.5,1.7,1,2.8,1.8c1,0.8,2.7,2.1,4.3,3.8c1.7,1.8,2.8,3.3,4.8,6.3
				c1,1.4,1.8,2.6,2.7,4.2c0.5,0.9,1.8,3.2,3,6.3c1.9,5,2.6,9.1,2.8,10.5c0.6,4.1,0.5,7.3,0.4,9.2c-0.1,4.1-0.7,7.1-1.2,10
				c-0.5,2.7-1.1,6.1-2.5,10.2c-1.3,3.7-2.5,6.2-5,11.2c-2.3,4.5-3.9,7.8-6.7,11.8c-0.8,1.2-2.3,3.2-5.3,7.2
				c-2.8,3.6-4.1,5.5-5.5,7.1c-2.9,3.6-5.4,6.2-7.5,8.3c-2.1,2.2-3.7,3.8-6.7,6.8c-7.4,7.3-12.5,11.9-13.5,12.8
				c-2.2,2-3.5,3.1-5.2,4.6c-0.7,0.6-1.4,1.2-2.5,2.2c-1.6,1.4-2.5,2.2-3.3,3c-1,1-1.9,2.2-3.7,4.5c-1.2,1.6-2.6,3.5-4.3,6.1
				c-0.8,1.2-1.5,2.4-2.5,4c-1.4,2.5-2.3,4.5-2.5,5.1c-0.3,0.6-1.5,3.5-2.6,7.6c-0.4,1.5-1,3.6-1.4,6.3c-0.8,5.1-0.5,9.2-0.4,11
				c0.2,2.8,0.7,4.8,1,6.6c0.6,2.9,1.2,4.9,2.3,8.4c0.9,3,1.6,5.2,2.8,8.1c0.7,1.8,1.4,3.1,2,4.4c1,2,1.3,2.5,3.4,6.7
				c2.4,4.7,2.7,5.4,3.9,7.3c1,1.8,2,3.2,2.6,4.1C406.5,466.8,406.6,467.4,406.8,467.9z"/>
			
				<linearGradient id="dna-strand-1-bottom_1_" gradientUnits="userSpaceOnUse" x1="451.866" y1="457.591" x2="420.0346" y2="595.5459" gradientTransform="matrix(0.9744 0.2248 0.2248 -0.9744 -114.6513 895.4448)">
				<stop  offset="0" style="stop-color:#FFFFFF"/>
				<stop  offset="0.1865" style="stop-color:#E5E4E3"/>
				<stop  offset="0.5643" style="stop-color:#B5B4B3"/>
				<stop  offset="1" style="stop-color:#818282"/>
			</linearGradient>
			<path id="dna-strand-1-bottom" class="st14" d="M449,543.1c-0.5,2.9,2.3,5.5,2.6,5.8c0.7,0.7,1.9,1.8,3.7,2.1
				c3.6,0.7,6.3-2.1,6.6-2.4c0.8-0.8,1.1-1.6,2-4c1.5-3.8,2.2-5.8,2.7-7.5c0.9-3.2,2.6-9.3,2.6-16.5c0.1-11.5-4-20.3-5.8-24.1
				c-0.2-0.5-5.8-11.9-16.5-21c-4.1-3.5-9.3-7-9.6-7.2c-3.3-2.2-3.3-1.9-9-5.4c-5.9-3.6-6.2-4.1-12.4-7.9c-3.8-2.3-4.2-2.5-6.2-3.8
				c-2.3-1.6-5.1-3.5-8.1-6.6c-3.6-3.6-5.8-7.1-6.8-8.8c-2.5-4.3-3.8-8-4.4-10c-0.9-2.8-2.3-7.8-1.9-13.7c0.1-1.3,0.3-2.6,0.2-2.6
				c-0.1,0-1,3.6-1,7.6c0,3,0.5,5.3,0.8,6.9c2.7,11.7,6.1,20.4,6.1,20.4c2.8,7,5.5,12.1,7.3,15.3c1.7,3.2,3.3,5.9,4.5,7.8
				c1.4,0.8,3.6,2.1,6.4,3.6c8.2,4.5,11,5.4,15.6,8.4c1.6,1,5.3,3.5,9.3,7.3c3.3,3.1,9,8.8,12.8,18c2.9,7.1,3.3,13.1,3.4,14.9
				c0.3,6-0.8,10.6-1.3,13c-1,4.5-1.6,6.7-2.8,8.6C449.6,541.7,449.2,542.3,449,543.1z"/>
		</g>
		<g id="dna-strand-2">
			
				<linearGradient id="dna-strand-2-top_1_" gradientUnits="userSpaceOnUse" x1="409.6279" y1="583.2493" x2="376.9518" y2="724.8654" gradientTransform="matrix(0.9744 0.2248 0.2248 -0.9744 -114.6513 895.4448)">
				<stop  offset="0" style="stop-color:#58595B"/>
				<stop  offset="8.850000e-02" style="stop-color:#76777A"/>
				<stop  offset="0.2245" style="stop-color:#9C9EA0"/>
				<stop  offset="0.3589" style="stop-color:#BDBFC1"/>
				<stop  offset="0.4889" style="stop-color:#D9DADB"/>
				<stop  offset="0.6133" style="stop-color:#ECEDED"/>
				<stop  offset="0.7297" style="stop-color:#F8F9F9"/>
				<stop  offset="0.8302" style="stop-color:#FFFFFF"/>
			</linearGradient>
			<path id="dna-strand-2-top" class="st15" d="M394.2,280.1c-0.1-0.5-0.6-3.7-3.4-5.3c-0.2-0.1-1.4-0.8-3-0.9c-2-0.2-3.6,0.6-4.4,1
				c0,0-1.7,0.9-3.1,2.5c-6,7-6.7,23-6.7,23c-0.2,3.8-0.3,8.2,0.7,14c0.6,3.3,2.1,10.2,6.5,17.8c3.8,6.7,8,10.9,11.2,14
				c5.6,5.5,10.5,8.6,20,14.6c13.4,8.4,14.2,7.5,21.3,13c10.5,8.2,14.2,14.6,15.3,16.8c3.5,6.6,4.4,12,4.5,13.2
				c0.9,6.7-0.2,12.2-1.2,15.4c1.5-2.6,3.3-6.5,4.4-11.6c0.3-1.5,1.2-5.9,0.8-11.7c-0.4-7.2-2.5-12.5-4.4-17
				c-3-7.4-4.8-12.4-9.8-16.8c-1.2-1.1-2.6-2-5.3-3.7c-6.8-4.4-12-6.8-15-8.3c-2.2-1.1-11-5.6-18.3-12.6
				c-3.6-3.5-11.1-10.7-14.2-22.5c-2.9-11-0.5-20.8,0.8-25.9C392.1,285.3,393.3,282.3,394.2,280.1z"/>
			
				<linearGradient id="dna-strand-2-middle_1_" gradientUnits="userSpaceOnUse" x1="427.1617" y1="413.0773" x2="427.1617" y2="644.8745" gradientTransform="matrix(0.9744 0.2248 0.2248 -0.9744 -114.6513 895.4448)">
				<stop  offset="0" style="stop-color:#FFFFFF"/>
				<stop  offset="1.760000e-02" style="stop-color:#FFFFFF"/>
				<stop  offset="0.5296" style="stop-color:#FFFFFF"/>
				<stop  offset="0.6886" style="stop-color:#FBFAFA"/>
				<stop  offset="0.7766" style="stop-color:#F1F0EF"/>
				<stop  offset="0.8473" style="stop-color:#E4E2E2"/>
				<stop  offset="0.9087" style="stop-color:#D1D0CF"/>
				<stop  offset="0.9636" style="stop-color:#BCBBBA"/>
				<stop  offset="1" style="stop-color:#AAAAA9"/>
			</linearGradient>
			<path id="dna-strand-2-middle" class="st16" d="M443.7,362.4c1,1.8,1.8,3.2,2.4,4.1c1.1,1.8,1.3,2.1,2.1,3.4
				c0.8,1.4,1.4,2.5,2,3.8c0.7,1.3,1.3,2.5,1.6,3.2c2.1,4.5,3.4,9.5,3.4,9.5c0.7,2.6,1.7,6.4,1.9,11.4c0.1,2,0.2,5.7-0.8,10.4
				c-0.2,1-1,4.6-3,8.9c-0.4,0.8-0.7,1.5-1,2c-0.2,0.7-0.4,1.7-0.8,2.9c-0.5,1.6-1.1,3.9-2.3,6.8c-1.1,2.7-2.2,4.7-2.6,5.6
				c-1.1,2-2,3.4-2.9,4.7c-0.4,0.6-1.4,2.2-2.9,4.1c-1.4,1.9-2.8,3.7-4.9,5.9c-2.2,2.4-4.2,4-4.7,4.5c-1.2,1-2.4,1.9-4.2,3.3
				c-1.2,0.9-2.1,1.6-2.4,1.8c-4.1,3-7.7,7.3-13.4,12.6c-1.9,1.8-2.7,2.3-4.4,4c-0.6,0.6-1.1,1.1-4.7,5.2c-2,2.3-3,3.5-4.1,4.7
				c-2.1,2.4-3.2,3.6-4.4,5.2c-1.6,2-2.7,3.5-3.7,4.9c-1.5,2-2.9,3.9-4.6,6.6c-2.6,4.2-4.4,7.6-5.3,9.2c-0.3,0.6-1,2-1.9,4
				c-0.9,2.1-2.4,5.2-3.6,9.2c-0.4,1.3-1.8,5.7-2.7,11.7c-0.7,4.9-1.3,8.5-0.7,12.4c0.1,0.7,0.4,2.4,0.9,6c0.5,3.3,0.4,3.2,0.5,3.9
				c0.5,3,1.4,5.1,2.4,7.6c0.9,2.3,1.8,4.5,3.5,7.3c0.4,0.6,2,3.2,4.7,6.3c1.3,1.5,3,3.3,5.7,5.3c1.2,0.9,3.7,2.6,7.3,4.1
				c2.5,1,5,1.6,9.9,2.6c2.2,0.5,5.1,1,8.5,1.6c-0.7-0.5-1.7-1.2-2.9-2c-4.5-2.9-6.4-3.5-8.8-5.2c-1.2-0.9-3.9-3-6.9-6.3
				c-0.9-1-4-4.5-6.9-10.1c-1.4-2.6-3.4-6.5-4.5-12c-0.9-4.2-0.9-7.4-0.8-12.9c0-3.4,0.1-7,1-11.7c0.8-4.1,1.8-7.1,2.4-8.8
				c0.4-1,2-5.8,5.4-11.9c1.3-2.3,2.4-4.3,4.2-6.8c0.3-0.4,1.1-1.5,4.3-5.1c3.1-3.5,4.6-5.2,5.6-6.2c3.4-3.3,4.6-3.5,8.7-7.1
				c2-1.8,2.6-2.7,5.4-5.3c1.7-1.5,3-2.6,4-3.5c9.2-7.8,11.2-9.2,14.9-12.7c1.1-1.1,3-2.9,5.3-5.3c6.7-7.1,10.8-12.9,12.1-14.8
				c1.5-2.3,3-4.4,4.6-7.5c1.8-3.4,2.9-6.3,3.6-8.5c0.6-1.6,1.3-3.6,2.1-6.2c0.7-2.6,1.5-5.3,1.8-8.9c0.3-3.5,0-6-0.3-9.1
				c-0.3-2.5-0.6-5.4-1.6-9.1c-1.3-4.7-3.1-8.1-4.1-10.1c-2-3.8-3.9-6.3-5.5-8.6c-0.8-1.1-3.1-4.2-6.6-7.9
				C449.1,367.4,446.6,364.9,443.7,362.4z"/>
			
				<linearGradient id="dna-strand-2-bottom_1_" gradientUnits="userSpaceOnUse" x1="502.9575" y1="465.0332" x2="403.9216" y2="465.0332" gradientTransform="matrix(0.9744 0.2248 0.2248 -0.9744 -114.6513 895.4448)">
				<stop  offset="0" style="stop-color:#A19F9F"/>
				<stop  offset="1" style="stop-color:#E5E7E5"/>
			</linearGradient>
			<path id="dna-strand-2-bottom" class="st17" d="M414.9,487.5c-3.8,2.4-6.7,4.7-8.8,6.6c-0.6,0.5-2.6,2.4-5,5
				c-2.5,2.8-4.1,5-5.8,7.3c-2.5,3.4-3.8,5.2-5.2,8c-1.5,2.7-2.2,4.8-3.5,8.3c-1.2,3.2-2,5.4-2.7,8.5c-0.4,2-0.6,3.7-1,7.1
				c-0.4,3.7-0.6,5.6-0.7,8c-0.1,4.6,0.5,8.1,0.7,9.1c0.9,5,2.4,8.6,3.4,11c1,2.4,2.4,5.5,4.9,9.2c0.7,1,3.3,4.5,7.6,8.2
				c3.5,3,6.7,4.7,10,6.6c2.3,1.3,4.3,2.3,5.8,2.9c0.3,0,0.8,0.1,1.3,0.2c7,1.1,12,0.8,19.3,0.4c7.9-0.4,15.7-1.3,23.6-1.7
				c0.7,0,3.3-0.2,6.5-1.3c3.5-1.2,5.1-2.7,5.5-3.1c0.9-0.9,2.4-2.2,2.8-4.5c0.3-1.5,0.1-2.8-0.1-3.6c-0.2-0.7-0.7-2.4-2.1-3.4
				c-1-0.8-2.2-0.9-4.4-0.9c-4,0-7.1,0.5-7.6,0.6c0,0-1,0.2-8.1,1.2c-4.9,0.8-8.6,1-11.7,1.3c-4.2,0.3-7.3,0.6-11.5,0.6
				c-3.1,0-5.6,0-8.8-0.5c-5.9-0.8-10.1-2.5-11.5-3.1c-3.5-1.5-6.8-2.8-10.1-5.9c-2.7-2.5-4.2-5-6-8.1c-1.6-2.7-3.1-5.3-4.1-9.2
				c-0.9-3.6-0.9-6.4-0.9-9.3c0-1.2,0.1-5.7,1.4-11.6c0.3-1.3,1.6-7.1,5.1-14.3c2.6-5.4,5.2-9.2,8.3-13.6c1.6-2.3,2.9-4.1,4.9-6.5
				c3.2-3.9,4.9-5.6,5.6-6.4C413,489.1,414.1,488.1,414.9,487.5z"/>
		</g>
	</g>
	<g id="jesse-word">
		<path class="st18" d="M267.4,79.5c0.8,0.1,1.5,0.1,2,0.2c2.2,0.2,3.1,1.1,3.1,3c0,12.6,0.1,25.2-0.1,37.8
			c-0.1,5.2-1.8,9.8-6.6,12.7c-0.2,0.1-0.4,0.4-0.5,0.6c0.1,0.2,0.1,0.3,0.2,0.5c0.4-0.1,0.9-0.1,1.2-0.2
			c7.5-3.9,12.7-9.4,12.7-18.4c0-10.7,0-21.4,0-32.1c0-3.1,0.5-3.6,3.5-3.9c0.2,0,0.5-0.1,0.8-0.2C282.9,78.4,268.6,78.4,267.4,79.5
			z"/>
		<path class="st18" d="M312.1,112.7c-0.7,2.8-1.6,3.7-4.6,3.9c-1.7,0.1-3.4,0.1-5.1,0c-2.8-0.2-4-1.5-4-4.3c0-3.4,0-6.9,0-10.3
			c0-0.9,0-1.8,0-2.5c2.8,0,5.3-0.1,7.8,0c2.7,0.2,3.2,0.9,3.4,3.6c0,0.3,0.2,0.5,0.2,0.8c0.2,0,0.4,0,0.5,0
			c0.3-3.1,0.5-6.1,0.8-9.4c-4.2,3-8.5,1.2-12.7,1.8c0-5.1,0-9.9,0-14.9c3.1,0.2,6.1,0.2,9,0.5c1.7,0.2,2.5,1.3,2.7,3
			c0,0.5,0.2,1,0.2,1.5c0.2,0,0.4,0,0.6,0c0.3-2.8,0.5-5.7,0.8-8.2c-8.5,0.8-16.9,0.1-25.3,0.7c0.5,0.4,1,0.7,1.5,0.7
			c2.5,0.2,3.4,1.1,3.4,3.6c0,10.4,0,20.7-0.1,31.1c0,3.7-0.7,4.4-3.7,4.5c-0.1,0-0.3,0.2-0.4,0.3c0,0.1,0,0.3,0,0.4
			c0.7,0,1.3,0.1,2,0.1c4.2,0,8.4,0,12.6,0c2.8,0,5.6,0.2,8.4,0.1c0.7,0,1.8-0.5,1.9-1c0.4-2.3,0.6-4.7,0.8-7.1
			c0-0.1-0.2-0.3-0.6-0.8C312.4,111.8,312.3,112.2,312.1,112.7z"/>
		<path class="st18" d="M332,94.3c-1.6-1.3-3.5-2.4-5-3.9c-1.9-1.8-2.2-4.9-0.9-7.1c1.4-2.3,4.6-3.5,8-2.8c2.7,0.5,4.7,2.8,5,5.5
			c0.1,0.5,0.2,0.9,0.3,1.4c0.2,0,0.3,0,0.5,0c0.1-0.5,0.2-1,0.3-1.5c0.1-2,0.1-3.9,0.3-5.9c0.1-1.1-0.3-1.7-1.3-1.8
			c-3.1-0.2-6.4-0.8-9.4-0.3c-10.7,1.7-11.8,12.2-7.6,17.8c1.7,2.2,4.2,3.9,6.4,5.8c1.7,1.4,3.7,2.5,5.2,4.1c3.2,3.3,2.4,9-1.4,11.2
			c-4.8,2.7-11.1-0.3-11.9-5.7c-0.1-0.8-0.3-1.7-0.4-2.5c-0.1,0-0.3,0-0.4-0.1c-0.2,0.3-0.5,0.7-0.5,1c-0.1,2.6-0.3,5.1-0.3,7.7
			c0,0.7,0.7,1.6,1.3,1.9c1.8,0.7,3.8,1.3,5.7,1.6c3.7,0.5,7.3-0.1,10.3-2.4c6-4.4,7.1-13,2.3-18.6C336.6,97.7,334.2,96.1,332,94.3z
			"/>
		<path class="st18" d="M360.8,94.3c-1.7-1.3-3.5-2.4-5-3.9c-2-2-2.2-5.2-0.6-7.4c1.6-2.3,4.9-3.3,8.1-2.5c2.5,0.6,4.4,2.9,4.7,5.7
			c0,0.4,0.2,0.8,0.3,1.2c0.2,0,0.3,0,0.5,0c0.1-0.5,0.2-1,0.2-1.5c0.1-2,0.1-3.9,0.3-5.9c0.1-1.1-0.4-1.6-1.4-1.8
			c-3.2-0.6-6.3-1-9.6-0.4c-7,1.2-11,7.4-9.1,14.3c1.1,4,4,6.5,7.2,8.7c2,1.4,4.1,2.7,5.9,4.4c2.4,2.2,2.9,5.7,1.6,8.6
			c-1.1,2.5-3.7,4-6.6,3.9c-3.8-0.2-6.6-2-7.6-5.1c-0.4-1.3-0.5-2.6-0.9-4.4c-0.4,0.6-0.7,0.8-0.8,1c-0.1,2.8-0.3,5.5-0.3,8.3
			c0,0.5,0.5,1.2,0.9,1.4c4.3,1.9,8.6,2.4,13.3,0.9c9-3,10.8-14.5,5.1-20.6C365.1,97.4,362.8,96,360.8,94.3z"/>
		<path class="st18" d="M399.7,111c-0.2,0.8-0.3,1.2-0.4,1.7c-0.7,2.8-1.6,3.7-4.6,3.9c-1.7,0.1-3.4,0.1-5.1,0c-2.8-0.2-4-1.5-4-4.3
			c0-3.4,0-6.9,0-10.3c0-0.9,0-1.8,0-2.5c2.8,0,5.3-0.1,7.8,0c2.7,0.2,3.2,0.9,3.4,3.6c0,0.3,0.2,0.5,0.2,0.8c0.2,0,0.4,0,0.5,0
			c0.3-3.1,0.5-6.1,0.8-9.4c-4.2,3-8.5,1.2-12.7,1.8c0-5.1,0-9.9,0-14.9c3.1,0.2,6.1,0.2,9,0.5c1.7,0.2,2.5,1.3,2.7,3
			c0,0.5,0.2,1,0.2,1.5c0.2,0,0.4,0,0.6,0c0.3-2.8,0.5-5.7,0.8-8.2c-8.5,0.7-16.9,0.1-25.3,0.6c0.5,0.4,1,0.7,1.5,0.7
			c2.5,0.2,3.4,1.1,3.4,3.6c0,10.4,0,20.7-0.1,31.1c0,3.7-0.7,4.4-3.7,4.5c-0.1,0-0.3,0.2-0.4,0.3c0,0.1,0,0.3,0,0.4
			c0.7,0,1.3,0.1,2,0.1c4.2,0,8.4,0,12.6,0c2.8,0,5.6,0.2,8.4,0.1c0.7,0,1.8-0.5,1.9-1c0.4-2.3,0.6-4.7,0.8-7.1
			C400.4,111.6,400.1,111.5,399.7,111z"/>
	</g>
	<path id="james-word" class="st18" d="M430.2,83.5c0,10.2-0.1,20.5,0.1,30.8c0.2,9.3-4.4,15.4-12.2,19.6c-0.5,0.3-1.2,0.4-1.8,0.6
		c-0.1-0.2-0.2-0.3-0.2-0.5c0.2-0.2,0.3-0.5,0.5-0.6c5-3.1,6.6-7.9,6.7-13.4c0.1-12.2,0.1-24.4,0.1-36.6c0-2.5-0.9-3.4-3.4-3.6
		c-0.4,0-0.9-0.1-1.3-0.1c-0.1,0-0.1-0.2-0.4-0.5c0.6-0.2,1.1-0.4,1.6-0.4c4.4,0,8.8,0,13.2,0c0.5,0,1,0.2,1.5,0.4
		c0,0.1,0,0.3,0,0.4c-0.3,0.1-0.6,0.2-0.9,0.2C430.8,80.1,430.2,80.6,430.2,83.5z M471.2,118.8c0,0.4,0,0.7,0,1.1
		c-3.5,0-6.9-0.1-10.3-0.1c-0.3,0-0.5-0.1-1.3-0.3c2.2-0.9,1.4-2.2,1-3.4c-1-2.9-2.1-5.7-3-8.6c-0.3-0.9-0.6-1.3-1.7-1.3
		c-3.4,0.1-6.9,0-10.3,0.1c-0.5,0-1.2,0.5-1.4,0.9c-1,2.5-1.9,5-2.8,7.5c-1.1,3.4-0.7,4,3.2,4.4c-0.4,0.4-0.7,0.9-0.9,0.9
		c-3.9,0-7.8,0-11.6,0c-0.3,0-0.6-0.3-1.1-0.6c0.6-0.2,0.9-0.4,1.1-0.4c2.8,0,4.2-1.6,5.1-4c1.9-5.1,3.9-10.1,5.9-15.2
		c2.5-6.6,5.1-13.3,7.6-19.9c0-0.1,0.1-0.2,0.1-0.3c0.5-0.7,1-1.4,1.6-2.1c0.5,0.7,1.1,1.3,1.4,2.1c1.8,4.6,3.5,9.2,5.3,13.8
		c2.6,6.7,5.2,13.5,7.8,20.2c0.6,1.4,1.4,2.8,2.4,4.1C469.7,118.2,470.4,118.7,471.2,118.8z M455.9,103.2c-1.7-4.9-3.3-9.7-5.1-14.9
		c-1.9,5.3-3.5,10-5.3,14.9H455.9z M516.7,114.8c-1-7.2-2-14.5-3-21.7c-0.6-4.7-1.3-9.4-2-14.1c-0.1-0.6-0.6-1.1-0.9-1.6
		c-0.5,0.4-1,0.7-1.4,1.2c-0.3,0.4-0.5,1-0.7,1.5c-4.3,9.7-8.6,19.5-13,29.5c-0.4-0.9-0.8-1.6-1.1-2.3c-4.2-9.4-8.4-18.8-12.6-28.3
		c-0.3-0.6-1-1.1-1.6-1.6c-0.3,0.5-0.8,1.1-0.9,1.6c-1.2,8-2.2,16.1-3.4,24.1c-0.6,4.4-1.2,8.7-2,13.1c-0.2,0.9-0.9,2-1.6,2.3
		c-0.3,0.1-0.5,0.2-0.8,0.2c0,0.4,0,0.7,0,1.1c3.2,0,6.5,0.1,9.7,0.1c0.4,0,0.7-0.3,1.1-0.5c-0.5-0.5-1-0.6-1.5-0.7
		c-2.6-0.5-2.7-0.6-2.6-3.2c0-0.5,0.1-1,0.1-1.5c0.5-4.5,1-9,1.5-13.5c0.3-2.5,0.6-4.9,0.9-7.9c0.5,1,0.7,1.5,1,2.1
		c3.4,7.5,6.8,15,10.2,22.5c0.4,0.9,1,1.7,1.6,2.5c0.2,0,0.4,0,0.6,0c4.4-9,8.1-18.3,12.5-27.6c0.2,0.5,0.2,0.6,0.3,0.8
		c0.8,6.4,1.6,12.8,2.2,19.2c0.2,2.2,1.4,4.5-0.3,6.7c2.3,1,12.3,1.1,13.3,0c-0.7-0.1-1.3-0.2-2-0.3
		C517.9,118.3,517.1,117.6,516.7,114.8z M548.7,113.6c-0.4,1.5-1.2,2.7-2.8,2.8c-2.6,0.2-5.2,0.2-7.8,0c-1.6-0.1-2.7-1.4-2.7-3
		c-0.1-4.7,0-9.3,0-14.2c3,0.2,5.8,0.2,8.6,0.5c1.6,0.1,2.3,1.2,2.5,2.8c0,0.5,0.1,1.1,0.2,1.6c0.2,0,0.4,0,0.7,0
		c0.3-3.1,0.5-6.1,0.8-9.3c-4.2,2.9-8.5,1.1-12.6,1.8c0-5.1,0-9.9,0-14.9c3,0.1,5.9,0.2,8.8,0.5c1.8,0.2,2.7,1.1,2.9,3
		c0.1,0.5,0.2,1.1,0.3,1.6c0.2,0,0.4,0,0.7,0c0.3-2.8,0.5-5.6,0.8-8.1c-8.5,0.6-16.8,0.1-25.2,0.2c-0.1,0.2-0.2,0.4-0.2,0.6
		c0.4,0.2,0.9,0.4,1.3,0.4c3,0.3,3.7,1,3.7,4c0,7.3,0.1,14.6,0,21.9c0,3.6-0.2,7.2-0.3,10.8c-0.1,1.5-1,2.2-2.4,2.4
		c-0.5,0.1-1,0.2-1.5,0.4c0,0.1,0,0.3,0.1,0.4c0.6,0,1.1,0.1,1.7,0.1c1.4,0,2.7-0.1,4.1-0.1c5.6,0.1,11.2,0.2,16.9,0.3
		c0.7,0,2-0.4,2.1-0.8c0.4-2.5,0.6-5.1,0.8-7.7c0,0-0.2,0-0.5-0.1C549.1,112.1,548.9,112.9,548.7,113.6z M575.2,99.7
		c-2-2.2-4.6-3.8-7-5.6c-1.5-1.2-3.2-2.3-4.6-3.7c-1.8-1.8-2-4.9-0.7-7c1.5-2.3,4.7-3.4,8-2.7c2.6,0.5,4.6,2.8,5,5.6
		c0.1,0.4,0.2,0.9,0.2,1.3c0.2,0,0.4,0,0.6,0c0.1-0.5,0.2-0.9,0.2-1.3c0.1-2,0.1-4,0.3-6c0.1-1.2-0.5-1.7-1.4-1.7
		c-3.1-0.2-6.2-0.8-9.2-0.3c-10.8,1.7-12,12.2-7.5,18c1.6,2,3.8,3.6,5.8,5.2c1.8,1.5,4,2.7,5.7,4.4c3.2,3.3,2.5,9-1.2,11.2
		c-4.7,2.8-11.1-0.2-12-5.6c-0.1-0.9-0.3-1.7-0.5-3.1c-0.5,0.7-0.8,1-0.8,1.2c-0.2,2.8-0.3,5.5-0.3,8.3c0,0.5,0.6,1.2,1.1,1.4
		c4.3,1.8,8.5,2.3,13.1,0.8C578.9,117.1,580.7,105.8,575.2,99.7z"/>
	<g id="method-word">
		<path class="st19" d="M356.4,155.9c-0.7-5.5-1.5-10.9-2.2-16.3c-0.1-0.9-0.4-1.8-0.5-2.7c-0.2,0-0.4,0-0.7,0
			c-2.5,5.7-5.1,11.4-7.8,17.3c-2.7-5.9-5.2-11.6-7.8-17.3c-0.2,0-0.4,0-0.6,0.1c-0.1,0.4-0.3,0.8-0.3,1.2
			c-0.8,5.3-1.4,10.6-2.3,15.8c-0.4,2,0.7,5-2.6,5.8c2.2,0,4.4,0,6.5,0c-0.3-0.4-0.6-0.5-0.9-0.5c-0.9-0.1-1.3-0.7-1.2-1.6
			c0.5-3.9,0.9-7.8,1.4-12.1c2.4,5.1,4.6,9.8,6.7,14.6c0.2,0,0.4-0.1,0.6-0.1c2.2-4.8,4.4-9.6,6.6-14.5c0.1,0,0.2,0.1,0.3,0.1
			c0.5,4.7,1,9.3,1.5,14.1c2,0,4.3,0,6.6,0c0.1-0.2,0.2-0.3,0.3-0.5C357.2,159.5,356.6,157.9,356.4,155.9z"/>
		<path class="st19" d="M382.5,156c-0.8,2.4-4.9,3.5-6.7,1.7c-0.3-0.3-0.6-0.8-0.6-1.3c-0.1-2.5,0-5.1,0-7.8
			c2.4,0.6,5.6-1.4,6.5,2.6c0.1-1.6,0.2-3.3,0.3-4.5c-2.3,0.2-4.5,0.3-6.8,0.4c0-2.8,0-5.3,0-8c2.4,0.7,5.6-1.4,6.8,2.6
			c0.1-1.5,0.3-3,0.4-4.2c-4.6,0-9.1,0-13.6,0c0,0.1,0,0.3,0,0.4c0.3,0.1,0.6,0.2,0.9,0.2c1.2,0,1.8,0.7,1.8,1.9
			c0,5.6,0,11.1,0,16.7c0,1.4-0.3,2.8-2.4,2.5c0,0.2,0.1,0.4,0.1,0.5c0.4,0.1,0.9,0.3,1.3,0.3c2.1,0,4.2-0.1,6.4-0.1
			c1.6,0,3.2,0.2,4.7,0.2c0.4,0,1.1-0.3,1.1-0.6c0.2-1.3,0.3-2.7,0.5-4C382.7,155.6,382.6,155.8,382.5,156z"/>
		<path class="st19" d="M392.9,141.5c1-0.8,1.7-1.7,2.5-1.9c1.7-0.4,3.5-0.3,5.3-0.4c0,5.5,0,10.8,0,16.2c0,1.8,0.5,3.8-2.2,4.2
			c3,0,5.9,0,8.9,0c-2.6-0.9-2.8-0.9-2.9-3.2c-0.1-5.7,0-11.3,0-17.3c2.6,0.7,5.8-1.1,7.3,2.6c0-1.5,0-3,0-4.4c-6,0-12,0-18.2,0
			C393.3,138.8,393.1,140.2,392.9,141.5z"/>
		<path class="st19" d="M442.3,156.7c0-5.5,0-11,0-16.5c0-1.1,0.3-2,1.6-2c0.2,0,0.4-0.2,0.6-0.3c0-0.1-0.1-0.2-0.1-0.2
			c-2.8,0-5.7,0-8.5,0c1.1,0.6,2.6,0.5,2.6,2.3c0,2.1,0.1,4.2,0,6.4c0,0.3-0.6,0.9-0.9,0.9c-3.2,0.1-6.4,0-9.8,0
			c0-1.8-0.1-3.5,0-5.2c0.1-1.8-0.8-4,2.2-4.4c-2.8,0-5.7,0-8.9,0c3,1.1,3.1,1.1,3.1,4.2c0,4.6,0,9.2,0,13.8c0,1.7,0.3,3.6-2.2,4
			c2.9,0,5.9,0,8.8,0c-0.3-0.4-0.6-0.5-0.9-0.5c-1.3,0.1-1.9-0.6-1.9-1.8c-0.1-2.8,0-5.5,0-8.3c3.6,0,7,0,10.6,0c0,2.2,0,4.3,0,6.4
			c0,1.7,0.4,3.7-2.2,4.1c3,0,5.9,0,8.9,0c0.1-0.2,0.2-0.3,0.3-0.5C443.4,159.5,442.3,158.8,442.3,156.7z"/>
		<path class="st19" d="M467.2,137.3c-6.9,0-11.5,4.6-11.5,11.4c0,6.9,4.5,11.6,11.2,11.6c6.7,0,11.5-4.9,11.5-11.9
			C478.4,141.5,474.1,137.3,467.2,137.3z M473.7,153.8c-1.4,5-6.9,6.3-10.8,2.7c-3.5-3.3-4.4-11-1.7-15c2.5-3.7,8.1-3.5,10.9,0.3
			c1.6,2.1,2.1,4.6,2.3,7.2C474.2,150.6,474.1,152.3,473.7,153.8z"/>
		<path class="st19" d="M503.1,138.1c-4.8-0.7-9.7-0.5-14.6-0.7c0,0.2-0.1,0.4-0.1,0.6c1.2,0.3,2.7,0.2,2.7,2.1c0,5.5,0,11,0,16.5
			c0,1.4-0.2,2.8-2.1,2.7c0,0,0,0.2-0.1,0.4c3.5,0.1,6.9,0.4,10.4,0.4c6.5,0,10.7-3.4,11.8-9.9C511.8,145.2,509.9,139.1,503.1,138.1
			z M504.2,157.1c-2.4,1.8-5,1.9-7.8,1.2c-1.3-0.3-1.6-1.3-1.6-2.5c0-2.6,0-5.1,0-7.7c0,0,0,0,0,0c0-2.5,0-5,0-7.5
			c0-1,0.3-1.3,1.3-1.4c6.2-0.7,11,3.4,11.1,9.6C507.2,151.9,507,155,504.2,157.1z"/>
	</g>
	<path id="arrows" class="st19" d="M563.4,150.2c-13.6,0-27.9,0-42.3,0c0-0.7,0-1.5,0-2.5C535.4,148.5,549.8,149.4,563.4,150.2z
		 M282.3,150.3c13.3,0,26.7,0,40,0c0-0.9,0-1.6,0-2.5c-13.5,0.8-26.7,1.6-40,2.3C282.3,150.2,282.3,150.2,282.3,150.3z"/>
</g>
</svg>
