<?xml version="1.0" encoding="utf-8"?>
<!-- Generator: Adobe Illustrator 24.3.0, SVG Export Plug-In . SVG Version: 6.00 Build 0)  -->
<svg version="1.1" id="mitochondria-balance-logo-1"
	 xmlns="http://www.w3.org/2000/svg" xmlns:xlink="http://www.w3.org/1999/xlink" x="0px" y="0px" viewBox="0 0 864 864"
	 style="enable-background:new 0 0 864 864;" xml:space="preserve">
<style type="text/css">
	.st0{fill:url(#ekg-top-back_1_);}
	.st1{fill:url(#ekg-top-front_1_);}
	.st2{fill:url(#ekg-middle-back-3_1_);}
	.st3{fill:url(#ekg-middle-front-3_1_);}
	.st4{fill:url(#ekg-middle-back-2_1_);}
	.st5{fill:url(#ekg-middle-front-2_1_);}
	.st6{fill:url(#ekg-middle-back-1_1_);}
	.st7{fill:url(#ekg-middle-front-1_1_);}
	.st8{fill:url(#ekg-bottom-back_1_);}
	.st9{fill:url(#ekg-bottom-front_1_);}
	.st10{fill:url(#dna-red-top_1_);}
	.st11{fill:url(#dna-red-bottom_1_);}
	.st12{fill:url(#dna-red-middle_1_);}
	.st13{fill:url(#blue-dna-top_1_);}
	.st14{fill:url(#blue-dna-middle_1_);}
	.st15{fill:url(#blue-dna-bottom_1_);}
	.st16{fill:#0C0C0C;}
	.st17{fill:#DA2528;}
	.st18{fill:#DA2C29;}
	.st19{fill:#DA2A2A;}
	.st20{fill:#010101;}
</style>
<g id="mitochondria-balance-logo-1-parts">
	<g id="dna-strands">
		<g id="ekg-top">
			
				<linearGradient id="ekg-top-back_1_" gradientUnits="userSpaceOnUse" x1="157.2164" y1="589.8009" x2="226.0226" y2="589.8009" gradientTransform="matrix(1 0 0 -1 0 864)">
				<stop  offset="0" style="stop-color:#959636"/>
				<stop  offset="2.520000e-02" style="stop-color:#949536"/>
				<stop  offset="0.4969" style="stop-color:#878935"/>
				<stop  offset="1" style="stop-color:#838534"/>
			</linearGradient>
			<path id="ekg-top-back" class="st0" d="M157.2,285.5c2.6-0.8,4.6-1.5,6.1-1.9c0.6-0.2,3.4-1,6.8-2.1c3.1-1,4-1.5,4.6-2.5
				c0.9-1.4,0.7-3,0.5-4c0.9,0.6,1.6,1.2,2.2,1.8c0.8,0.7,1,1,1.6,1.4c0.6,0.4,1.5,0.7,2.8,0.6c3.3-0.9,7.5-2.1,10.8-3
				c2.5-0.7,6.6-1.8,9.2-2.5c0.2,0,0.6,0,1-0.3c0.5-0.4,0.6-1,0.6-1.3c0.1-1.2,0.3-5.5,0.4-11.4c0.9,1.5,1.9,3,2.8,4.6
				c1.6,2.6,3.2,5.2,4.8,7.7c0,0,0.1,0.1,0.2,0.2c0.1,0.1,0.3,0,0.4,0c0-1.3,0.1-2.3,0.1-3.1c0.1-0.8,0.1-1.4,0.4-1.5
				c0.3-0.1,0.7,0.4,1,0.9c0.4,0.5,0.5,0.8,1,1c0.2,0.1,0.4,0.1,0.5,0.1c1.3,0.1,3.4-0.8,4.9-1.2c0.3-0.1,0,0,1.6-0.4
				c3.1-0.8,3.9-1.1,4.2-0.8c0.1,0.2,0.3,0.5-0.1,1.5c-1.9,0.4-3.4,0.8-4.4,1.1c-1.6,0.5-3.1,1-5.5,1.6c-0.4,0.1-0.7,0.1-0.9,0.2
				c-0.1-0.2-0.3-1.5-1.2-1.8c-0.1,0-0.1,0-0.2,0c-0.3,0.8-0.4,1.4-0.4,1.8c-0.1,0.7,0,1.3-0.2,2.1c-0.1,0.3-0.2,0.6-0.3,0.8
				c-0.2,0-0.3-0.1-0.5-0.1c-1.3-1.7-2.2-2.9-2.9-3.7c-2.8-3.5-2.9-3.6-2.9-3.8c0-0.1-0.1-0.4-0.3-0.5c-0.2-0.1-0.4,0-0.5,0
				c-0.2,0.9-0.3,1.7-0.4,2.2c-0.4,2.4-0.6,3.6-0.6,4.1c0,1.2,0.1,1.6-0.3,2.1c-0.5,0.7-1.5,0.7-1.8,0.8c-0.6,0-3.4,0.6-9.1,1.8
				c-2.1,0.4-4.7,1-7,1.9c-0.6,0.2-2.2,1-4.5,1.1c-0.4,0-0.7,0-0.9,0c-0.6-0.4-1.1-0.7-1.7-1.2c-0.8-0.5-1.5-1.1-2.1-1.6
				c-0.1,0.2-0.3,0.5-0.6,0.8c-0.4,0.6-0.9,1.2-1.3,1.6c-0.7,0.8-1.5,1.3-2.4,1.9c-0.6,0.4-1.6,0.9-3.2,1.6
				c-1.8,0.7-1.9,0.6-4.5,1.5c-2.4,0.9-3.6,1.3-4,1.5c-1.4,0.6-2,1-2.7,0.8C157.5,287.6,157.3,286.3,157.2,285.5z"/>
			
				<linearGradient id="ekg-top-front_1_" gradientUnits="userSpaceOnUse" x1="157.4464" y1="590.0609" x2="226.2526" y2="590.0609" gradientTransform="matrix(1 0 0 -1 0 864)">
				<stop  offset="0" style="stop-color:#F2EA1A"/>
				<stop  offset="1" style="stop-color:#F1EA19"/>
			</linearGradient>
			<path id="ekg-top-front" class="st1" d="M157.4,285.3c2.6-0.8,4.6-1.5,6.1-1.9c0.6-0.2,3.4-1,6.8-2.1c3.1-1,4-1.5,4.6-2.5
				c0.9-1.4,0.7-3,0.5-4c0.9,0.6,1.6,1.2,2.2,1.8c0.8,0.7,1,1,1.6,1.4c0.6,0.4,1.5,0.7,2.8,0.6c3.3-0.9,7.5-2.1,10.8-3
				c2.5-0.7,6.6-1.8,9.2-2.5c0.2,0,0.6,0,1-0.3c0.5-0.4,0.6-1,0.6-1.3c0.1-1.2,0.3-5.5,0.4-11.4c0.9,1.5,1.9,3,2.8,4.6
				c1.6,2.6,3.2,5.2,4.8,7.7c0,0,0.1,0.1,0.2,0.2c0.1,0.1,0.3,0,0.4,0c0-1.3,0.1-2.3,0.1-3.1c0.1-0.8,0.1-1.4,0.4-1.5
				c0.3-0.1,0.7,0.4,1,0.9c0.4,0.5,0.5,0.8,1,1c0.2,0.1,0.4,0.1,0.5,0.1c1.3,0.1,3.4-0.8,4.9-1.2c0.3-0.1,0,0,1.6-0.4
				c3.1-0.8,3.9-1.1,4.2-0.8c0.1,0.2,0.3,0.5-0.1,1.5c-1.9,0.4-3.4,0.8-4.4,1.1c-1.6,0.5-3.1,1-5.5,1.6c-0.4,0.1-0.7,0.1-0.9,0.2
				c-0.1-0.2-0.3-1.5-1.2-1.8c-0.1,0-0.1,0-0.2,0c-0.3,0.8-0.4,1.4-0.4,1.8c-0.1,0.7,0,1.3-0.2,2.1c-0.1,0.3-0.2,0.6-0.3,0.8
				c-0.2,0-0.3-0.1-0.5-0.1c-1.3-1.7-2.2-2.9-2.9-3.7c-2.8-3.5-2.9-3.6-2.9-3.8c0-0.1-0.1-0.4-0.3-0.5c-0.2-0.1-0.4,0-0.5,0
				c-0.2,0.9-0.3,1.7-0.4,2.2c-0.4,2.4-0.6,3.6-0.6,4.1c0,1.2,0.1,1.6-0.3,2.1c-0.5,0.7-1.5,0.7-1.8,0.8c-0.6,0-3.4,0.6-9.1,1.8
				c-2.1,0.4-4.7,1-7,1.9c-0.6,0.2-2.2,1-4.5,1.1c-0.4,0-0.7,0-0.9,0c-0.6-0.4-1.1-0.7-1.7-1.2c-0.8-0.5-1.5-1.1-2.1-1.6
				c-0.1,0.2-0.3,0.5-0.6,0.8c-0.4,0.6-0.9,1.2-1.3,1.6c-0.7,0.8-1.5,1.3-2.4,1.9c-0.6,0.4-1.6,0.9-3.2,1.6
				c-1.8,0.7-1.9,0.6-4.5,1.5c-2.4,0.9-3.6,1.3-4,1.5c-1.4,0.6-2,1-2.7,0.8C157.7,287.4,157.5,286,157.4,285.3z"/>
		</g>
		<g id="ekg-middle">
			
				<linearGradient id="ekg-middle-back-3_1_" gradientUnits="userSpaceOnUse" x1="258.1031" y1="475.5593" x2="200.552" y2="436.6322" gradientTransform="matrix(0.9991 -4.280000e-02 -4.280000e-02 -0.9991 19.7508 874.77)">
				<stop  offset="0" style="stop-color:#828635"/>
				<stop  offset="3.330000e-02" style="stop-color:#828635"/>
				<stop  offset="1" style="stop-color:#828635"/>
			</linearGradient>
			<path id="ekg-middle-back-3" class="st2" d="M198.7,421.8c2-0.8,4.4-1.7,7.1-2.4c1.7-0.4,3.3-0.8,4.8-1c-0.1-2.5-0.2-5-0.2-7.5
				c0.8,0.8,1.7,1.7,2.6,2.7c0.7,0.8,1.4,1.6,2,2.4c1.4-0.6,3.7-1.6,6.5-2.9c3.7-1.7,4.5-2.2,7-3.2c3.9-1.5,6.6-2.1,7.3-2.2
				c2.1-0.4,3.9-0.6,5.3-0.7c-0.8-3.6-1.6-7.1-2.5-10.7c1.3,1.3,2.4,2.3,3.1,3.1c2,2.1,4,4.5,4,4.5c0.1-0.1,0.5-0.4,0.6-0.9
				c0.1-0.5,0-0.9,0-1c1.3-0.6,2.6-1.1,3.9-1.7c4.3-1.8,8.4-3.3,12.4-4.6c0,0.4,0,0.8,0,1.2c-2.4,1.2-4.3,2.1-5.7,2.8
				c-1.1,0.6-2.3,1.1-3.4,1.7c-1.6,0.8-2.6,1.2-4,2c-0.7,0.4-1.3,0.7-1.7,1c0,1.3,0.1,2.6,0.1,3.8c-0.2-0.2-0.6-0.5-1-0.9
				c-0.5-0.5-1.1-1.1-3.3-3.9c-0.5-0.6-0.9-1.2-1.7-2c-0.3-0.3-0.6-0.6-0.8-0.8c0.4,1.7,0.7,3,0.9,3.9c0.3,1.4,0.6,2.4,0.9,3.9
				c0.2,0.9,0.3,1.6,0.3,2c0,0.1-0.1,0.2-0.3,0.2c-0.2,0-0.4-0.1-0.7-0.4c-0.8-0.7-0.8-1.1-1.3-1.4c-0.2-0.1-0.4-0.2-0.8-0.2
				c-0.7,0.2-1.8,0.5-3,1c-1.6,0.5-3,1.1-6.1,2.2c-5.4,2.1-4.7,1.9-7.4,2.9c-1.2,0.5-2.6,0.9-4.5,1.8c-1.1,0.5-2.1,0.9-2.7,1.2
				c0.1,1.1,0.4,2,0.6,2.6c0.2,0.5,0.6,1.4,0.9,2.1c0.1,0.2,0.2,0.4,0.2,0.6c-0.3-0.2-0.5-0.3-0.8-0.5c-0.7-0.9-1.3-1.6-1.6-2.1
				c-0.7-1.1-1-1.7-1.9-3.1c-0.5-0.8-1-1.4-1.2-1.8c-0.3,0.9-0.3,1.6-0.3,2.1c0,0.4,0,1.1,0.1,2.6c0,0.1,0,0.2,0,0.2
				c-0.6,0.1-1.4,0.2-2.4,0.3c-1.9,0.3-3.2,0.7-4.8,1.1c-2.2,0.6-3.4,0.9-4,1.1c-1,0.4-2,0.6-3,1c-0.3,0.1-0.6,0.3-0.9,0.2
				c-0.5-0.2-0.6-1.5,0.1-2.1C197.9,421.7,198.5,421.8,198.7,421.8z"/>
			
				<linearGradient id="ekg-middle-front-3_1_" gradientUnits="userSpaceOnUse" x1="258.0186" y1="475.9232" x2="200.4675" y2="436.9962" gradientTransform="matrix(0.9991 -4.280000e-02 -4.280000e-02 -0.9991 19.7508 874.77)">
				<stop  offset="0" style="stop-color:#F2EA1A"/>
				<stop  offset="1" style="stop-color:#F1EA19"/>
			</linearGradient>
			<path id="ekg-middle-front-3" class="st3" d="M198.6,421.4c2-0.8,4.4-1.7,7.1-2.4c1.7-0.4,3.3-0.8,4.8-1c-0.1-2.5-0.2-5-0.2-7.5
				c0.8,0.8,1.7,1.7,2.6,2.7c0.7,0.8,1.4,1.6,2,2.4c1.4-0.6,3.7-1.6,6.5-2.9c3.7-1.7,4.5-2.2,7-3.2c3.9-1.5,6.6-2.1,7.3-2.2
				c2.1-0.4,3.9-0.6,5.3-0.7c-0.8-3.6-1.6-7.1-2.5-10.7c1.3,1.3,2.4,2.3,3.1,3.1c2,2.1,4,4.5,4,4.5c0.1-0.1,0.5-0.4,0.6-0.9
				c0.1-0.5,0-0.9,0-1c1.3-0.6,2.6-1.1,3.9-1.7c4.3-1.8,8.4-3.3,12.4-4.6c0,0.4,0,0.8,0,1.2c-2.4,1.2-4.3,2.1-5.7,2.8
				c-1.1,0.6-2.3,1.1-3.4,1.7c-1.6,0.8-2.6,1.2-4,2c-0.7,0.4-1.3,0.7-1.7,1c0,1.3,0.1,2.6,0.1,3.8c-0.2-0.2-0.6-0.5-1-0.9
				c-0.5-0.5-1.1-1.1-3.3-3.9c-0.5-0.6-0.9-1.2-1.7-2c-0.3-0.3-0.6-0.6-0.8-0.8c0.4,1.7,0.7,3,0.9,3.9c0.3,1.4,0.6,2.4,0.9,3.9
				c0.2,0.9,0.3,1.6,0.3,2c0,0.1-0.1,0.2-0.3,0.2c-0.2,0-0.4-0.1-0.7-0.4c-0.8-0.7-0.8-1.1-1.3-1.4c-0.2-0.1-0.4-0.2-0.8-0.2
				c-0.7,0.2-1.8,0.5-3,1c-1.6,0.5-3,1.1-6.1,2.2c-5.4,2.1-4.7,1.9-7.4,2.9c-1.2,0.5-2.6,0.9-4.5,1.8c-1.1,0.5-2.1,0.9-2.7,1.2
				c0.1,1.1,0.4,2,0.6,2.6c0.2,0.5,0.6,1.4,0.9,2.1c0.1,0.2,0.2,0.4,0.2,0.6c-0.3-0.2-0.5-0.3-0.8-0.5c-0.7-0.9-1.3-1.6-1.6-2.1
				c-0.7-1.1-1-1.7-1.9-3.1c-0.5-0.8-1-1.4-1.2-1.8c-0.3,0.9-0.3,1.6-0.3,2.1c0,0.4,0,1.1,0.1,2.6c0,0.1,0,0.2,0,0.2
				c-0.6,0.1-1.4,0.2-2.4,0.3c-1.9,0.3-3.2,0.7-4.8,1.1c-2.2,0.6-3.4,0.9-4,1.1c-1,0.4-2,0.6-3,1c-0.3,0.1-0.6,0.3-0.9,0.2
				c-0.5-0.2-0.6-1.5,0.1-2.1C197.8,421.4,198.4,421.4,198.6,421.4z"/>
			
				<linearGradient id="ekg-middle-back-2_1_" gradientUnits="userSpaceOnUse" x1="252.0354" y1="492.6299" x2="190.441" y2="450.9679" gradientTransform="matrix(1 0 0 -1 0 864)">
				<stop  offset="0" style="stop-color:#828635"/>
				<stop  offset="3.330000e-02" style="stop-color:#828635"/>
				<stop  offset="1" style="stop-color:#828635"/>
			</linearGradient>
			<path id="ekg-middle-back-2" class="st4" d="M187,405.8c0.5-0.2,1.2-0.6,2.1-1c1-0.5,2.8-1.3,4.2-1.8c1.7-0.7,3.8-1.6,6.5-2.3
				c1.3-0.4,3.2-0.8,5.4-1c0.1-1.2,0.1-2.3,0.2-3.5c0.1-1.3,0.1-2.6,0.2-3.9c0.4,0.6,0.8,1.1,1,1.4c0.8,1,1.2,1.5,2,2.6
				c0.3,0.5,0.6,0.9,0.8,1.1c0.5-0.2,1.1-0.5,2-0.9c2.7-1.2,3.7-1.8,5.3-2.5c2.2-1,4-1.6,6.5-2.5c1.8-0.6,3.5-1.2,5.4-1.7
				c0.9-0.2,1.8-0.4,2.7-0.5c0.8-0.1,1.5-0.1,2-0.1c0-0.6-0.1-1.2-0.1-1.8c-0.2-1.9-0.6-3.6-1-5c-0.3-1.3-0.6-2.5-0.9-3.8
				c0.5,0.5,1.2,1.3,2,2.3c0.7,0.9,0.7,1,1.7,2.3c0.3,0.4,1,1.3,2.1,2.5c0.3,0.3,0.5,0.6,0.7,0.8c0-0.3,0-0.8,0.3-1.4
				c0.3-0.7,0.8-1.1,1.1-1.2c1-0.3,2.5-0.9,4.4-1.6c2.9-1.1,4.1-1.7,6.4-2.6c1.5-0.6,3.8-1.4,6.5-2.2c-0.1,0.2-0.2,0.5-0.3,0.7
				c-2,1.1-3.6,2-4.6,2.6c-1.6,0.9-2.8,1.5-7.9,3.9c-1.4,0.7-3,1.5-4.4,2.1c0,1.2,0,2.4,0,3.6c-1.2-1.2-2-2.4-2.5-3.2
				c-0.6-0.9-1-1.9-2.1-3.1c-0.4-0.5-0.9-0.9-1.1-1.2c0.2,1.5,0.5,2.8,0.6,3.7c0.2,1.5,0.4,2.2,0.6,3.4s0.3,2.2,0.4,2.9
				c-0.2,0-0.3-0.1-0.5-0.1c-0.1-0.2-0.4-1-1.2-1.5c-0.5-0.3-1-0.4-1.3-0.4c-0.6,0.2-1.5,0.5-2.6,0.8c-3.1,1-4.1,1.6-8.5,3.3
				c-3.2,1.2-3.7,1.4-6.7,2.6c-1.5,0.6-2.7,1.1-3.4,1.4c0.4,1.8,0.8,3.5,1.1,5.3c-0.2-0.1-0.3-0.1-0.5-0.2c-0.6-1.4-1.2-2.5-1.6-3.2
				c-0.5-0.9-1.1-1.8-2.2-3.6c-0.1-0.3-0.3-0.5-0.4-0.6c-0.1,1-0.2,2-0.2,3.1c0,0.7,0,1.5,0,2.2c-0.7,0-1.7,0.1-3,0.2
				c-2.3,0.3-3.9,0.7-6.9,1.5c-3.2,0.9-4.7,1.3-6.2,1.9c-2.3,0.9-4,2-4.3,1.5C186.3,406.9,186.6,406.3,187,405.8z"/>
			
				<linearGradient id="ekg-middle-front-2_1_" gradientUnits="userSpaceOnUse" x1="251.7154" y1="492.89" x2="190.1207" y2="451.2278" gradientTransform="matrix(1 0 0 -1 0 864)">
				<stop  offset="0" style="stop-color:#F2EA1A"/>
				<stop  offset="1" style="stop-color:#F1EA19"/>
			</linearGradient>
			<path id="ekg-middle-front-2" class="st5" d="M186.6,405.6c0.5-0.2,1.2-0.6,2.1-1c1-0.5,2.8-1.3,4.2-1.8c1.7-0.7,3.8-1.6,6.5-2.3
				c1.3-0.4,3.2-0.8,5.4-1c0.1-1.2,0.1-2.3,0.2-3.5c0.1-1.3,0.1-2.6,0.2-3.9c0.4,0.6,0.8,1.1,1,1.4c0.8,1,1.2,1.5,2,2.6
				c0.3,0.5,0.6,0.9,0.8,1.1c0.5-0.2,1.1-0.5,2-0.9c2.7-1.2,3.7-1.8,5.3-2.5c2.2-1,4-1.6,6.5-2.5c1.8-0.6,3.5-1.2,5.4-1.7
				c0.9-0.2,1.8-0.4,2.7-0.5c0.8-0.1,1.5-0.1,2-0.1c0-0.6-0.1-1.2-0.1-1.8c-0.2-1.9-0.6-3.6-1-5c-0.3-1.3-0.6-2.5-0.9-3.8
				c0.5,0.5,1.2,1.3,2,2.3c0.7,0.9,0.7,1,1.7,2.3c0.3,0.4,1,1.3,2.1,2.5c0.3,0.3,0.5,0.6,0.7,0.8c0-0.3,0-0.8,0.3-1.4
				c0.3-0.7,0.8-1.1,1.1-1.2c1-0.3,2.5-0.9,4.4-1.6c2.9-1.1,4.1-1.7,6.4-2.6c1.5-0.6,3.8-1.4,6.5-2.2c-0.1,0.2-0.2,0.5-0.3,0.7
				c-2,1.1-3.6,2-4.6,2.6c-1.6,0.9-2.8,1.5-7.9,3.9c-1.4,0.7-3,1.5-4.4,2.1c0,1.2,0,2.4,0,3.6c-1.2-1.2-2-2.4-2.5-3.2
				c-0.6-0.9-1-1.9-2.1-3.1c-0.4-0.5-0.9-0.9-1.1-1.2c0.2,1.5,0.5,2.8,0.6,3.7c0.2,1.5,0.4,2.2,0.6,3.4s0.3,2.2,0.4,2.9
				c-0.2,0-0.3-0.1-0.5-0.1c-0.1-0.2-0.4-1-1.2-1.5c-0.5-0.3-1-0.4-1.3-0.4c-0.6,0.2-1.5,0.5-2.6,0.8c-3.1,1-4.1,1.6-8.5,3.3
				c-3.2,1.2-3.7,1.4-6.7,2.6c-1.5,0.6-2.7,1.1-3.4,1.4c0.4,1.8,0.8,3.5,1.1,5.3c-0.2-0.1-0.3-0.1-0.5-0.2c-0.6-1.4-1.2-2.5-1.6-3.2
				c-0.5-0.9-1.1-1.8-2.2-3.6c-0.1-0.3-0.3-0.5-0.4-0.6c-0.1,1-0.2,2-0.2,3.1c0,0.7,0,1.5,0,2.2c-0.7,0-1.7,0.1-3,0.2
				c-2.3,0.3-3.9,0.7-6.9,1.5c-3.2,0.9-4.7,1.3-6.2,1.9c-2.3,0.9-4,2-4.3,1.5C185.9,406.6,186.3,406.1,186.6,405.6z"/>
			
				<linearGradient id="ekg-middle-back-1_1_" gradientUnits="userSpaceOnUse" x1="241.1082" y1="513.4801" x2="188.1036" y2="477.6282" gradientTransform="matrix(1 0 0 -1 0 864)">
				<stop  offset="0" style="stop-color:#838634"/>
				<stop  offset="3.330000e-02" style="stop-color:#838634"/>
				<stop  offset="1" style="stop-color:#838634"/>
			</linearGradient>
			<path id="ekg-middle-back-1" class="st6" d="M186.5,379.6c1.8-0.8,4-1.5,6.4-2.1c1.6-0.4,3-0.6,4.4-0.8c0-2.5,0-5,0.1-7.5
				c0.7,0.9,1.5,1.8,2.2,2.8c0.6,0.8,1.2,1.6,1.7,2.5c1.3-0.5,3.4-1.4,5.9-2.6c3.4-1.6,4.1-2,6.4-2.9c3.6-1.4,6.1-1.8,6.6-1.9
				c1.9-0.4,3.6-0.5,4.8-0.5c-0.6-3.6-1.2-7.2-1.8-10.8c1.1,1.3,2,2.4,2.6,3.2c1.7,2.2,3.4,4.6,3.4,4.6c0.1-0.1,0.4-0.4,0.6-0.9
				c0.1-0.5,0.1-0.9,0-1c1.2-0.5,2.4-1,3.6-1.5c3.9-1.6,7.7-3,11.3-4.1c0,0.4,0,0.8,0,1.2c-2.2,1.1-4,2-5.2,2.6
				c-1.1,0.5-2.1,1-3.2,1.5c-1.5,0.7-2.4,1.1-3.7,1.8c-0.7,0.4-1.2,0.7-1.6,0.9c0,1.3,0,2.6,0,3.9c-0.2-0.2-0.5-0.5-0.9-0.9
				c-0.4-0.5-0.9-1.1-2.8-4.1c-0.4-0.6-0.8-1.3-1.4-2.1c-0.3-0.4-0.5-0.6-0.7-0.8c0.2,1.7,0.5,3,0.6,3.9c0.3,1.4,0.5,2.4,0.7,3.9
				c0.1,0.9,0.2,1.6,0.2,2c-0.1,0.1-0.1,0.2-0.2,0.2c-0.2,0-0.4-0.1-0.6-0.4c-0.6-0.8-0.7-1.1-1.1-1.4c-0.1-0.1-0.4-0.2-0.8-0.3
				c-0.7,0.2-1.6,0.5-2.7,0.8c-1.4,0.5-2.8,0.9-5.5,2c-4.9,1.9-4.3,1.7-6.7,2.6c-1.1,0.4-2.4,0.8-4.1,1.6c-1.1,0.4-1.9,0.8-2.5,1.1
				c0.1,1.1,0.3,2,0.5,2.6c0.1,0.5,0.5,1.4,0.7,2.2c0.1,0.2,0.1,0.4,0.2,0.6c-0.2-0.2-0.5-0.4-0.7-0.5c-0.6-0.9-1.1-1.6-1.4-2.1
				c-0.6-1.1-0.9-1.7-1.6-3.1c-0.4-0.8-0.8-1.5-1-1.9c-0.3,0.9-0.4,1.6-0.4,2.1c0,0.4,0,1.1,0,2.6c0,0.1,0,0.2,0,0.2
				c-0.5,0-1.3,0.1-2.1,0.2c-1.7,0.2-2.9,0.5-4.4,0.9c-2,0.5-3.1,0.7-3.6,1c-0.9,0.4-1.9,0.5-2.7,0.9c-0.3,0.1-0.6,0.2-0.8,0.1
				c-0.4-0.3-0.5-1.5,0.2-2.1C185.8,379.5,186.4,379.6,186.5,379.6z"/>
			
				<linearGradient id="ekg-middle-front-1_1_" gradientUnits="userSpaceOnUse" x1="241.0682" y1="513.7801" x2="188.0636" y2="477.9282" gradientTransform="matrix(1 0 0 -1 0 864)">
				<stop  offset="0" style="stop-color:#EFE919"/>
				<stop  offset="1" style="stop-color:#EFE919"/>
			</linearGradient>
			<path id="ekg-middle-front-1" class="st7" d="M186.5,379.3c1.8-0.8,4-1.5,6.4-2.1c1.6-0.4,3-0.6,4.4-0.8c0-2.5,0-5,0.1-7.5
				c0.7,0.9,1.5,1.8,2.2,2.8c0.6,0.8,1.2,1.6,1.7,2.5c1.3-0.5,3.4-1.4,5.9-2.6c3.4-1.6,4.1-2,6.4-2.9c3.6-1.4,6.1-1.8,6.6-1.9
				c1.9-0.4,3.6-0.5,4.8-0.5c-0.6-3.6-1.2-7.2-1.8-10.8c1.1,1.3,2,2.4,2.6,3.2c1.7,2.2,3.4,4.6,3.4,4.6c0.1-0.1,0.4-0.4,0.6-0.9
				c0.1-0.5,0.1-0.9,0-1c1.2-0.5,2.4-1,3.6-1.5c3.9-1.6,7.7-3,11.3-4.1c0,0.4,0,0.8,0,1.2c-2.2,1.1-4,2-5.2,2.6
				c-1.1,0.5-2.1,1-3.2,1.5c-1.5,0.7-2.4,1.1-3.7,1.8c-0.7,0.4-1.2,0.7-1.6,0.9c0,1.3,0,2.6,0,3.9c-0.2-0.2-0.5-0.5-0.9-0.9
				c-0.4-0.5-0.9-1.1-2.8-4.1c-0.4-0.6-0.8-1.3-1.4-2.1c-0.3-0.4-0.5-0.6-0.7-0.8c0.2,1.7,0.5,3,0.6,3.9c0.3,1.4,0.5,2.4,0.7,3.9
				c0.1,0.9,0.2,1.6,0.2,2c-0.1,0.1-0.1,0.2-0.2,0.2c-0.2,0-0.4-0.1-0.6-0.4c-0.6-0.8-0.7-1.1-1.1-1.4c-0.1-0.1-0.4-0.2-0.8-0.3
				c-0.7,0.2-1.6,0.5-2.7,0.8c-1.4,0.5-2.8,0.9-5.5,2c-4.9,1.9-4.3,1.7-6.7,2.6c-1.1,0.4-2.4,0.8-4.1,1.6c-1.1,0.4-1.9,0.8-2.5,1.1
				c0.1,1.1,0.3,2,0.5,2.6c0.1,0.5,0.5,1.4,0.7,2.2c0.1,0.2,0.1,0.4,0.2,0.6c-0.2-0.2-0.5-0.4-0.7-0.5c-0.6-0.9-1.1-1.6-1.4-2.1
				c-0.6-1.1-0.9-1.7-1.6-3.1c-0.4-0.8-0.8-1.5-1-1.9c-0.3,0.9-0.4,1.6-0.4,2.1c0,0.4,0,1.1,0,2.6c0,0.1,0,0.2,0,0.2
				c-0.5,0-1.3,0.1-2.1,0.2c-1.7,0.2-2.9,0.5-4.4,0.9c-2,0.5-3.1,0.7-3.6,1c-0.9,0.4-1.9,0.5-2.7,0.9c-0.3,0.1-0.6,0.2-0.8,0.1
				c-0.4-0.3-0.5-1.5,0.2-2.1C185.8,379.2,186.3,379.3,186.5,379.3z"/>
		</g>
		<g id="ekg-bottom">
			
				<linearGradient id="ekg-bottom-back_1_" gradientUnits="userSpaceOnUse" x1="43.9779" y1="306.9218" x2="136.1721" y2="306.9218" gradientTransform="matrix(-0.6355 0.4298 -0.5603 -0.8283 478.4959 727.5356)">
				<stop  offset="0" style="stop-color:#8B8D35"/>
				<stop  offset="3.330000e-02" style="stop-color:#8B8D35"/>
				<stop  offset="1" style="stop-color:#8B8D35"/>
			</linearGradient>
			<path id="ekg-bottom-back" class="st8" d="M287.1,504.8c-2.8,0.5-5,1-6.6,1.4c-0.6,0.2-3.7,0.9-7.4,1.6c-3.4,0.6-4.5,0.7-5.8,0
				c-1.8-1-2.9-3-3.4-4.1c-0.3,1.2-0.4,2.3-0.5,3.3c-0.1,1.2-0.1,1.7-0.3,2.4c-0.2,0.8-0.8,1.6-2,2.3c-3.5,0.9-8,2.1-11.5,2.9
				c-2.7,0.7-7,1.8-9.7,2.5c-0.2,0.2-0.5,0.4-1,0.3c-0.6-0.1-1.2-0.8-1.5-1.1c-1-1.2-4.4-5.9-9-12.4c0.3,2.2,0.7,4.5,1,6.7
				c0.6,3.8,1.1,7.6,1.7,11.4c0,0,0,0.2,0,0.3c-0.1,0.1-0.2,0.2-0.4,0.2c-1-1.4-1.8-2.5-2.4-3.4c-0.7-0.9-1.2-1.5-1.4-1.5
				c-0.3,0.1-0.2,0.9-0.2,1.6c0,0.8,0.2,1.2,0,1.7c-0.1,0.2-0.2,0.3-0.4,0.4c-1.1,0.8-3.5,1.2-5.1,1.5c-0.4,0.1,0,0-1.7,0.5
				c-3.2,0.8-4.2,1-4.2,1.6c0,0.3,0.2,0.8,1.2,1.6c1.9-0.7,3.5-1.1,4.6-1.4c1.7-0.4,3.4-0.6,5.9-1.4c0.4-0.1,0.7-0.2,0.9-0.3
				c-0.1-0.3-0.9-1.8-0.3-2.6c0.1-0.1,0.1-0.1,0.2-0.2c0.8,0.7,1.4,1.3,1.7,1.8c0.6,0.8,1,1.4,1.8,2.2c0.3,0.3,0.6,0.5,0.8,0.7
				c0.1-0.1,0.2-0.3,0.3-0.4c-0.1-2.7-0.2-4.5-0.3-5.8c-0.3-5.5-0.3-5.7-0.4-5.9c0-0.1-0.2-0.4-0.1-0.7c0.1-0.2,0.3-0.3,0.4-0.3
				c0.8,0.9,1.5,1.7,2,2.3c2.1,2.4,3.2,3.6,3.6,4.3c0.9,1.3,1.1,1.9,1.8,2.2c1,0.5,1.8,0,2.1-0.2c0.5-0.3,3.4-1.3,9.1-3.2
				c2.2-0.7,4.7-1.6,7.4-1.9c0.6-0.1,2.6-0.2,4.7-1.4c0.3-0.2,0.6-0.4,0.8-0.5c0.2-0.7,0.4-1.5,0.6-2.3c0.2-1.1,0.4-2.1,0.6-3
				c0.3,0.1,0.6,0.3,1.1,0.6c0.8,0.4,1.7,0.8,2.2,1c1.2,0.5,2.2,0.6,3.5,0.7c0.8,0.1,2.1,0.1,3.9-0.1c2.1-0.2,2-0.4,5-0.9
				c2.7-0.4,4-0.6,4.5-0.7c1.7-0.1,2.5,0,2.9-0.7C288.4,507.2,287.6,505.6,287.1,504.8z"/>
			
				<linearGradient id="ekg-bottom-front_1_" gradientUnits="userSpaceOnUse" x1="43.3742" y1="307.7314" x2="135.5684" y2="307.7314" gradientTransform="matrix(-0.6355 0.4298 -0.5603 -0.8283 478.4959 727.5356)">
				<stop  offset="0" style="stop-color:#F2EA1A"/>
				<stop  offset="1" style="stop-color:#F1EA19"/>
			</linearGradient>
			<path id="ekg-bottom-front" class="st9" d="M287,503.8c-2.8,0.5-5,1-6.6,1.4c-0.6,0.2-3.7,0.9-7.4,1.6c-3.4,0.6-4.5,0.7-5.8,0
				c-1.8-1-2.9-3-3.4-4.1c-0.3,1.2-0.4,2.3-0.5,3.3c-0.1,1.2-0.1,1.7-0.3,2.4c-0.2,0.8-0.8,1.6-2,2.3c-3.5,0.9-8,2-11.5,3
				c-2.7,0.7-7,1.8-9.7,2.5c-0.2,0.2-0.5,0.4-1,0.3c-0.6-0.1-1.2-0.8-1.5-1.1c-1-1.2-4.4-5.9-9-12.4c0.3,2.2,0.7,4.5,1,6.7
				c0.6,3.8,1.1,7.6,1.7,11.4c0,0,0,0.2,0,0.3c-0.1,0.1-0.2,0.2-0.4,0.2c-1-1.4-1.8-2.5-2.4-3.4c-0.7-0.9-1.2-1.5-1.4-1.5
				c-0.3,0.1-0.2,0.9-0.2,1.6c0,0.8,0.2,1.2,0,1.7c-0.1,0.2-0.2,0.3-0.4,0.4c-1.1,0.8-3.5,1.2-5.1,1.5c-0.4,0.1,0,0-1.7,0.5
				c-3.2,0.8-4.2,1-4.2,1.6c0,0.3,0.2,0.8,1.2,1.6c1.9-0.7,3.5-1.1,4.6-1.4c1.7-0.4,3.4-0.6,5.9-1.4c0.4-0.1,0.7-0.2,0.9-0.3
				c-0.1-0.3-0.9-1.8-0.3-2.6c0.1-0.1,0.1-0.1,0.2-0.2c0.8,0.7,1.4,1.3,1.7,1.8c0.6,0.8,1,1.4,1.8,2.2c0.3,0.3,0.6,0.5,0.8,0.7
				c0.1-0.1,0.2-0.3,0.3-0.4c-0.1-2.7-0.2-4.5-0.3-5.8c-0.3-5.5-0.3-5.7-0.4-5.9c0-0.1-0.2-0.4-0.1-0.7c0.1-0.2,0.3-0.3,0.4-0.3
				c0.8,0.9,1.5,1.7,2,2.3c2.1,2.4,3.2,3.6,3.6,4.3c0.9,1.3,1.1,1.9,1.8,2.2c1,0.5,1.8,0,2.1-0.2c0.5-0.3,3.4-1.3,9.1-3.2
				c2.2-0.7,4.7-1.6,7.4-1.9c0.6-0.1,2.6-0.2,4.7-1.4c0.3-0.2,0.6-0.4,0.8-0.5c0.2-0.7,0.4-1.5,0.6-2.3c0.2-1.1,0.4-2.1,0.6-3
				c0.3,0.1,0.6,0.3,1.1,0.6c0.8,0.4,1.7,0.8,2.2,1c1.2,0.5,2.2,0.6,3.5,0.7c0.8,0.1,2.1,0.1,3.9-0.1c2.1-0.2,2-0.4,5-0.9
				c2.7-0.4,4-0.6,4.5-0.7c1.7-0.1,2.5,0,2.9-0.7C288.3,506.3,287.5,504.7,287,503.8z"/>
		</g>
		<g id="dna-red">
			
				<linearGradient id="dna-red-top_1_" gradientUnits="userSpaceOnUse" x1="127.0272" y1="608.7272" x2="237.3599" y2="608.7272" gradientTransform="matrix(1 0 0 -1 0 864)">
				<stop  offset="0" style="stop-color:#EE3424"/>
				<stop  offset="0.2911" style="stop-color:#EE3025"/>
				<stop  offset="0.6685" style="stop-color:#B72226"/>
				<stop  offset="0.8876" style="stop-color:#8A181B"/>
				<stop  offset="1" style="stop-color:#831619"/>
			</linearGradient>
			<path id="dna-red-top" class="st10" d="M131.7,218.4c-1.9-0.1-3.1-1.4-3.2-1.5c-0.8-0.9-1-1.8-1.2-2.5c-0.5-2-0.1-3.9,0.2-4.8
				c1.2-3.4,4.8-5.1,6.5-5.9c12.5-5.9,23.4-8.3,23.4-8.3c1.9-0.4,3.7-0.8,5.2-1.1c6.3-1.2,10-2.2,13.3-2.6c8.9-1,15.9-1.7,24.1,0.6
				c8.5,2.4,14,6.9,16.8,9.2c6.3,5.2,10.7,11.2,13.6,16.8c1.6,3.1,2.9,6.2,3.8,8.9c1.3,4.2,1.9,7.6,2.2,9.4
				c0.4,2.1,1.5,8.6,0.8,17.1c-0.8,9.7-3.5,16.6-6.3,23.6c-4.7,11.7-10.1,19.7-13.6,24.8c-6.5,9.5-13.9,18-14.3,17.7
				c-0.2-0.1,1.4-2.4,3.8-6.3c8.4-13.5,12.5-24.9,13.6-27.9c1.4-4,2.7-7.6,3.7-12.8c1.1-5.5,2.6-13.4,1-23.2
				c-0.6-3.9-2.1-12.7-8.5-21.8c-1.3-1.9-7.1-9.8-17.7-15.6c-3.5-1.9-9.4-4.9-17.5-5.5c-2.9-0.2-5.4,0.1-10.3,0.7
				c-5.6,0.7-13.1,1.6-21.9,4.6c-8.8,3.1-11.9,4.6-13.7,5.4C135,217.7,133.5,218.5,131.7,218.4z"/>
			
				<linearGradient id="dna-red-bottom_1_" gradientUnits="userSpaceOnUse" x1="185.9679" y1="398.5968" x2="302.4753" y2="398.5968" gradientTransform="matrix(1 0 0 -1 0 864)">
				<stop  offset="0" style="stop-color:#66140F"/>
				<stop  offset="5.370000e-02" style="stop-color:#731714"/>
				<stop  offset="0.1296" style="stop-color:#801819"/>
				<stop  offset="0.2078" style="stop-color:#89191B"/>
				<stop  offset="0.2911" style="stop-color:#8B191C"/>
				<stop  offset="0.6685" style="stop-color:#E82927"/>
				<stop  offset="0.8826" style="stop-color:#EE3424"/>
				<stop  offset="1" style="stop-color:#EE3424"/>
			</linearGradient>
			<path id="dna-red-bottom" class="st11" d="M284.7,526.7c0.1,3.2,3.8,5.4,4.3,5.7c1,0.6,2.5,1.4,4.5,1.3c4.1-0.2,6.3-3.9,6.5-4.2
				c0.6-1.1,0.8-2,1.2-4.8c0.6-4.5,0.9-6.8,1-8.8c0.1-3.7,0.5-10.7-1.3-18.6c-2.8-12.5-9.4-21-12.3-24.7
				c-0.4-0.5-9.2-11.4-23.1-18.6c-5.4-2.8-11.8-5.2-12.2-5.4c-4.2-1.5-4.1-1.2-11.2-3.6c-7.3-2.5-7.8-2.9-15.4-5.4
				c-4.8-1.6-5.2-1.6-7.7-2.6c-2.9-1.1-6.4-2.5-10.4-5.1c-4.8-3-8.1-6.2-9.6-7.8c-3.8-4-6.2-7.7-7.3-9.7c-1.6-2.9-4.4-7.8-5.4-14.4
				c-0.2-1.4-0.3-2.9-0.4-2.9c-0.1,0-0.2,4.1,0.8,8.5c0.7,3.2,1.8,5.6,2.6,7.3c5.8,12,11.7,20.5,11.7,20.5c4.8,6.8,9,11.7,11.7,14.8
				c2.7,3,5,5.5,6.8,7.4c1.8,0.5,4.5,1.4,7.8,2.3c10.1,2.8,13.3,3.1,19,5.2c1.9,0.7,6.6,2.5,11.9,5.6c4.3,2.6,12,7.2,18.4,16.3
				c4.9,7,6.8,13.3,7.4,15.3c1.8,6.4,1.8,11.7,1.8,14.4c0,5.1,0,7.7-0.9,10.1C285,525.1,284.7,525.8,284.7,526.7z"/>
			
				<linearGradient id="dna-red-middle_1_" gradientUnits="userSpaceOnUse" x1="136.1219" y1="537.835" x2="136.6219" y2="537.835" gradientTransform="matrix(1 0 0 -1 0 864)">
				<stop  offset="0" style="stop-color:#DA2428"/>
				<stop  offset="9.681595e-03" style="stop-color:#DA2428"/>
				<stop  offset="0.2911" style="stop-color:#DA2428"/>
				<stop  offset="0.5355" style="stop-color:#E73F3F"/>
				<stop  offset="0.7802" style="stop-color:#DA2428"/>
				<stop  offset="1" style="stop-color:#DA2428"/>
			</linearGradient>
			<path id="dna-red-middle" class="st12" d="M220.1,455.7c-3.3-1.2-7.5-2.9-12.1-5.3c-2.6-1.3-7.4-3.9-12.9-8
				c-3.9-3-9.6-7.3-15-14.6c-2.2-2.9-6.6-9.1-9.3-18.3c-3-10.3-2.2-18.8-1.7-23.5c0.7-6.4,2.1-11.3,3.2-14.8c0.4-1.4,2.5-8,6.8-16.5
				c3-5.9,5.6-9.7,10.7-17.3c3-4.4,7.3-10.5,12.9-17.7c5.1-6.5,4.9-5.8,8.5-10.5c7.4-9.7,11.9-17.8,13.6-20.8
				c3.2-5.9,6.1-11.2,8.5-19c1.1-3.6,2.8-8.9,3.4-16.1c0.5-5.9,0-10.6-0.3-13.4c-0.4-3.9-0.8-7.6-2.2-12.3
				c-2.5-8.3-6.6-13.9-8.5-16.5c-1.1-1.4-2.6-3.4-4.8-5.7c-4-4.2-8.2-7-11.2-8.9c0.8,0.3,2.1,0.7,3.4,1.3c1.3,0.6,3.4,1.6,5.6,3.1
				c2.3,1.5,3.8,2.9,6.8,5.6c1.4,1.3,2.5,2.3,3.9,3.9c0.8,0.9,2.7,3,4.8,6.1c3.4,4.9,5.1,9.2,5.7,10.7c1.7,4.3,2.4,7.8,2.8,9.9
				c0.9,4.4,1,7.8,1.2,11.1c0.1,3,0.3,6.9-0.2,11.7c-0.4,4.4-1.2,7.4-2.6,13.4c-1.4,5.5-2.3,9.4-4.3,14.5c-0.6,1.5-1.7,4.1-4,9.1
				c-2.1,4.6-3.1,7-4.2,9.1c-2.3,4.6-4.3,8-6,10.9c-1.7,3-3.1,5-5.6,9c-6.2,9.8-10.5,16-11.4,17.2c-1.9,2.7-3,4.2-4.5,6.3
				c-0.6,0.8-1.2,1.6-2.2,3c-1.4,1.9-2.1,3-2.8,4.1c-0.9,1.4-1.5,2.8-2.8,5.8c-0.9,2-2,4.4-3.2,7.7c-0.6,1.5-1.1,3-1.7,5
				c-0.9,3-1.4,5.4-1.5,6.1c-0.1,0.8-0.8,4.2-1,8.9c-0.1,1.8-0.2,4.1,0.1,7.2c0.4,5.7,1.7,10.1,2.3,12c0.9,2.9,1.9,5,2.8,6.9
				c1.4,3,2.6,5,4.6,8.5c1.8,3,3.1,5.2,5.1,8.1c1.2,1.7,2.3,3,3.2,4.3c1.6,2,2,2.4,5.4,6.4c3.8,4.5,4.3,5.2,6,7
				c1.6,1.6,3.1,2.9,3.9,3.8C219.7,454.6,219.8,455.2,220.1,455.7z"/>
		</g>
		<g id="dna-blue">
			
				<linearGradient id="blue-dna-top_1_" gradientUnits="userSpaceOnUse" x1="141.3263" y1="543.0962" x2="259.1009" y2="543.0962" gradientTransform="matrix(1 0 0 -1 0 864)">
				<stop  offset="0" style="stop-color:#516DB4"/>
				<stop  offset="5.670000e-02" style="stop-color:#4C68B1"/>
				<stop  offset="0.1701" style="stop-color:#4562AD"/>
				<stop  offset="0.2911" style="stop-color:#4360AC"/>
				<stop  offset="0.6685" style="stop-color:#2E4D9F"/>
				<stop  offset="0.8876" style="stop-color:#243F92"/>
				<stop  offset="1" style="stop-color:#293986"/>
			</linearGradient>
			<path id="blue-dna-top" class="st13" d="M159.5,255.4c-0.6-2.8-1.6-3.9-5-4.9c-0.3-0.1-1.7-0.5-3.4-0.3c-2.3,0.3-3.7,1.5-4.5,2.2
				c0,0-1.6,1.4-2.7,3.4c-4.8,9.1-1.4,26.7-1.4,26.7c0.8,4.2,1.7,9,4.3,15c1.5,3.4,4.9,10.5,11.5,17.7c5.8,6.3,11.4,9.8,15.7,12.4
				c7.5,4.6,13.6,6.7,25.4,10.8c16.6,5.8,17.3,4.6,26.3,8.8c13.5,6.3,19,12.3,20.8,14.3c5.5,6.2,7.8,12,8.2,13.2
				c2.7,7,2.8,13.3,2.6,17c0.9-3.2,1.9-7.9,1.9-13.7c0-1.7-0.2-6.6-2-12.9c-2.3-7.7-5.8-12.9-9-17.3c-5.1-7.2-8.3-12.3-14.8-15.8
				c-1.6-0.9-3.3-1.5-6.7-2.7c-8.5-3.1-14.7-4.3-18.4-5.2c-2.7-0.6-13.3-3.3-23-9.1c-4.8-2.9-14.7-8.8-21-20.8
				c-5.9-11.3-5.9-22.4-5.6-28.3C158.7,262.5,159.3,260.1,159.5,255.4z"/>
			
				<linearGradient id="blue-dna-middle_1_" gradientUnits="userSpaceOnUse" x1="237.0463" y1="273.8775" x2="237.0463" y2="531.73" gradientTransform="matrix(1 0 0 -1 0 864)">
				<stop  offset="0" style="stop-color:#658FCA"/>
				<stop  offset="2.150000e-02" style="stop-color:#618BC7"/>
				<stop  offset="0.1093" style="stop-color:#517EBF"/>
				<stop  offset="0.1997" style="stop-color:#4876BB"/>
				<stop  offset="0.2961" style="stop-color:#4474B9"/>
				<stop  offset="0.6685" style="stop-color:#4173B9"/>
				<stop  offset="0.8876" style="stop-color:#507DBF"/>
				<stop  offset="1" style="stop-color:#638EC9"/>
			</linearGradient>
			<path id="blue-dna-middle" class="st14" d="M233.7,332.3c1.5,1.7,2.8,3,3.6,3.9c1.6,1.6,1.9,1.9,3.1,3.2c1.2,1.3,2.1,2.4,3.1,3.6
				c1,1.2,2,2.4,2.5,3.1c3.4,4.3,6.1,9.4,6.1,9.4c1.5,2.7,3.5,6.5,4.9,11.9c0.6,2.2,1.6,6.1,1.7,11.4c0,1.1,0,5.2-1.1,10.5
				c-0.2,1-0.4,1.8-0.6,2.4c0,0.8,0,2-0.1,3.3c-0.1,1.9-0.2,4.5-0.8,7.9c-0.5,3.2-1.2,5.7-1.4,6.7c-0.7,2.4-1.3,4.2-1.9,5.8
				c-0.3,0.8-1,2.7-2.1,5.2c-1.1,2.5-2.1,4.8-3.8,7.6c-1.8,3.2-3.5,5.4-4,6c-1,1.4-2.1,2.7-3.8,4.6c-1.1,1.3-1.9,2.3-2.1,2.5
				c-3.7,4.3-6.5,9.8-11.3,17c-1.6,2.4-2.4,3.1-3.8,5.4c-0.5,0.8-0.9,1.5-3.8,6.8c-1.6,3-2.4,4.5-3.3,6.1c-1.7,3.2-2.5,4.8-3.5,6.8
				c-1.2,2.5-2.1,4.5-2.8,6.3c-1.1,2.5-2.1,5-3.3,8.3c-1.8,5.2-2.9,9.3-3.4,11.3c-0.2,0.7-0.6,2.5-1.1,4.8
				c-0.5,2.5-1.2,6.3-1.6,10.8c-0.1,1.5-0.5,6.6,0,13.3c0.4,5.5,1.1,9.3,2.3,13.7c0.5,1.8,0.8,2.5,2.2,6.3c1.3,3.4,1.5,3.4,1.8,4.1
				c1.3,3.1,2.8,5.2,4.4,7.7c1.6,2.3,3.1,4.5,5.6,7.1c0.6,0.6,3,3,6.7,5.6c1.8,1.2,4.1,2.9,7.6,4.3c1.5,0.7,4.7,1.9,8.9,2.6
				c3,0.5,5.9,0.4,11.4,0.3c2.5-0.1,5.8-0.2,9.6-0.4c-0.8-0.3-2.1-0.8-3.6-1.4c-5.5-2-7.8-2.2-10.8-3.5c-1.6-0.7-5-2.3-9-5.1
				c-1.2-0.8-5.4-3.9-10-9.2c-2.1-2.5-5.3-6.2-7.9-11.9c-2-4.4-2.8-7.8-4.1-13.8c-0.8-3.7-1.6-7.6-1.8-13c-0.2-4.6,0.2-8.2,0.4-10.2
				c0.1-1.2,0.8-6.8,2.9-14.2c0.8-2.8,1.5-5.2,2.9-8.4c0.2-0.5,0.9-1.9,3.4-6.6c2.5-4.5,3.7-6.8,4.6-8.1c2.8-4.4,4.1-5,7.6-9.9
				c1.7-2.4,2.1-3.5,4.6-7.1c1.4-2.1,2.6-3.6,3.5-4.8c8-10.7,9.8-12.8,13-17.5c1-1.4,2.6-3.9,4.4-7.1c5.5-9.3,8.5-16.6,9.4-19.1
				c1.1-2.8,2.1-5.5,3.1-9.3c1-4.1,1.5-7.5,1.8-10.1c0.2-1.9,0.5-4.2,0.7-7.3c0.1-3,0.3-6.1-0.3-10.1c-0.5-3.8-1.5-6.5-2.6-9.8
				c-0.9-2.6-2-5.7-4.1-9.5c-2.6-4.8-5.3-8-7-9.9c-3.1-3.6-5.8-5.9-8.1-7.9c-1.1-1-4.4-3.8-9.1-6.9
				C240.9,336.2,237.6,334.2,233.7,332.3z"/>
			
				<linearGradient id="blue-dna-bottom_1_" gradientUnits="userSpaceOnUse" x1="321.3479" y1="331.6949" x2="211.1895" y2="331.6949" gradientTransform="matrix(1 0 0 -1 0 864)">
				<stop  offset="2.790000e-02" style="stop-color:#5CC9DF"/>
				<stop  offset="5.700000e-02" style="stop-color:#57C8E2"/>
				<stop  offset="0.1727" style="stop-color:#44C6E9"/>
				<stop  offset="0.2961" style="stop-color:#3CC5EC"/>
				<stop  offset="0.6685" style="stop-color:#3097D3"/>
				<stop  offset="0.8876" style="stop-color:#3567B1"/>
				<stop  offset="1" style="stop-color:#3662AE"/>
			</linearGradient>
			<path id="blue-dna-bottom" class="st15" d="M233.8,475c-3.5,3.5-6.1,6.8-7.9,9.3c-0.5,0.7-2.2,3.2-4.2,6.7
				c-2,3.6-3.2,6.5-4.4,9.4c-1.8,4.3-2.8,6.6-3.7,10c-0.9,3.3-1.2,5.8-1.7,9.9c-0.5,3.8-0.8,6.3-0.8,9.9c0,2.2,0.2,4.1,0.7,7.9
				c0.5,4.1,0.7,6.2,1.3,8.8c1.1,5,2.6,8.7,3,9.7c2.2,5.2,4.7,8.8,6.4,11c1.7,2.4,4,5.4,7.6,8.7c1,0.9,4.7,4.1,10.3,7
				c4.6,2.3,8.4,3.5,12.5,4.7c2.9,0.8,5.3,1.4,7,1.7c0.3,0,0.8,0,1.5-0.1c7.8-0.6,13.1-2.3,21-4.3c8.5-2.2,16.9-5,25.2-7.7
				c0.7-0.2,3.4-0.9,6.7-3c3.5-2.2,4.9-4.2,5.2-4.7c0.8-1.2,2-3,1.9-5.6c0-1.8-0.6-3.1-1.1-3.9c-0.4-0.7-1.3-2.4-3.2-3.2
				c-1.3-0.6-2.6-0.5-5,0.1c-4.4,1-7.6,2.3-8.1,2.5c0,0-1,0.4-8.5,3.4c-5.1,2-9.1,3.3-12.4,4.3c-4.5,1.4-7.7,2.5-12.3,3.5
				c-3.4,0.8-6,1.3-9.7,1.7c-6.5,0.5-11.6-0.2-13.3-0.5c-4.2-0.7-8.1-1.3-12.5-3.9c-3.6-2-5.8-4.4-8.5-7.3c-2.4-2.5-4.7-5-6.8-8.9
				c-1.9-3.7-2.6-6.7-3.3-9.9c-0.3-1.3-1.3-6.2-1.4-13c0-1.5,0-8.2,1.9-16.7c1.4-6.5,3.4-11.2,5.6-16.8c1.1-2.9,2.1-5.2,3.7-8.3
				c2.6-5,3.8-7.3,4.5-8.4C232.2,477.2,233.1,475.9,233.8,475z"/>
		</g>
	</g>
	<path id="jesse-word" class="st16" d="M338.3,306.7c-0.4,0.1-0.7,0.3-1,0.3c-4,0.5-4.7,1.2-4.7,5.3c0,14.3,0,28.6,0,43
		c-0.1,12-7,19.4-17,24.6c-0.5,0.2-1.1,0.2-1.7,0.3c-0.1-0.2-0.2-0.4-0.2-0.6c0.2-0.3,0.4-0.6,0.7-0.8c6.5-3.9,8.8-10.1,8.9-17.1
		c0.2-16.9,0.1-33.8,0.1-50.7c0-2.6-1.3-3.7-4.2-4c-0.8-0.1-1.6-0.1-2.8-0.2C318,305.3,337.2,305.4,338.3,306.7z M376.3,351.3
		c-0.9,3.8-2.2,5-6.2,5.2c-2.2,0.2-4.5,0.1-6.8,0c-3.8-0.2-5.3-1.9-5.4-5.8c0-4.6,0-9.2,0-13.8c0-1.2,0-2.4,0-3.4
		c3.7,0,7.1-0.2,10.4,0c3.6,0.2,4.3,1.2,4.5,4.8c0,0.4,0.2,0.7,0.3,1.1c0.2,0,0.5,0,0.7,0c0.4-4.1,0.7-8.2,1.1-12.6
		c-5.6,4-11.5,1.6-17,2.4c0-6.8,0-13.2,0-20c4.2,0.2,8.2,0.3,12.1,0.7c2.3,0.2,3.4,1.8,3.6,4c0.1,0.7,0.2,1.3,0.3,2
		c0.3,0,0.6,0,0.9,0c0.4-3.8,0.7-7.6,1-11.1c-11.4,1-22.7,0.1-34,0.9c0.6,0.6,1.3,0.9,2,1c3.4,0.3,4.6,1.4,4.6,4.8
		c0,13.9,0.1,27.8-0.1,41.7c0,4.9-0.9,5.9-5,6.1c-0.2,0-0.3,0.2-0.5,0.3c0,0.2,0,0.3,0,0.5c0.9,0.1,1.8,0.2,2.7,0.2
		c5.6,0,11.3,0,16.9,0.1c3.7,0,7.5,0.2,11.2,0.2c0.9,0,2.5-0.7,2.6-1.3c0.6-3.1,0.8-6.3,1.1-9.5c0-0.2-0.3-0.4-0.8-1
		C376.6,350,376.5,350.6,376.3,351.3z M402.9,326.7c-2.2-1.8-4.7-3.2-6.7-5.2c-2.6-2.5-2.9-6.6-1.2-9.5c1.9-3.1,6.2-4.7,10.7-3.8
		c3.6,0.7,6.3,3.7,6.8,7.4c0.1,0.6,0.3,1.3,0.4,1.9c0.2,0,0.5,0,0.7,0c0.1-0.6,0.3-1.3,0.4-2c0.1-2.6,0.1-5.3,0.3-7.9
		c0.1-1.5-0.4-2.3-1.8-2.4c-4.2-0.2-8.5-1.1-12.6-0.5c-14.4,2.4-15.9,16.3-10.2,23.8c2.3,3,5.6,5.2,8.6,7.7c2.3,1.9,5,3.4,7,5.5
		c4.3,4.5,3.2,12.1-1.9,15c-6.4,3.7-14.9-0.4-16-7.7c-0.2-1.1-0.4-2.2-0.5-3.3c-0.2,0-0.4-0.1-0.5-0.1c-0.2,0.5-0.6,0.9-0.6,1.4
		c-0.2,3.4-0.5,6.9-0.4,10.3c0,0.9,1,2.2,1.8,2.5c2.5,0.9,5,1.7,7.6,2.1c5,0.7,9.7-0.2,13.8-3.2c8-5.9,9.5-17.4,3-25
		C409.2,331.1,405.9,329.1,402.9,326.7z M441.6,326.6c-2.2-1.8-4.7-3.2-6.7-5.2c-2.7-2.6-2.9-7-0.8-9.8c2.2-3.1,6.6-4.4,10.9-3.3
		c3.4,0.9,5.8,3.9,6.3,7.6c0.1,0.6,0.3,1.1,0.4,1.6c0.2,0,0.4,0,0.7,0c0.1-0.7,0.3-1.3,0.3-2c0.1-2.6,0.1-5.3,0.4-7.9
		c0.1-1.5-0.5-2.1-1.9-2.4c-4.2-0.8-8.5-1.3-12.8-0.5c-9.4,1.7-14.7,9.9-12.2,19.2c1.5,5.4,5.4,8.7,9.7,11.7
		c2.7,1.9,5.5,3.7,7.9,5.9c3.2,2.9,3.9,7.7,2.1,11.5c-1.5,3.3-5,5.4-8.9,5.2c-5.2-0.2-8.9-2.7-10.2-6.8c-0.5-1.7-0.7-3.5-1.2-5.9
		c-0.6,0.8-1,1.1-1,1.4c-0.2,3.7-0.4,7.4-0.4,11.2c0,0.6,0.6,1.6,1.2,1.8c5.8,2.5,11.6,3.3,17.8,1.2c12.1-4,14.5-19.4,6.8-27.6
		C447.4,330.8,444.4,328.8,441.6,326.6z M493.8,349c-0.3,1-0.4,1.7-0.6,2.3c-0.9,3.8-2.2,5-6.2,5.2c-2.2,0.2-4.5,0.1-6.8,0
		c-3.8-0.2-5.3-1.9-5.4-5.8c0-4.6,0-9.2,0-13.8c0-1.2,0-2.4,0-3.4c3.7,0,7.1-0.2,10.4,0c3.6,0.2,4.3,1.2,4.5,4.8
		c0,0.4,0.2,0.7,0.3,1.1c0.2,0,0.5,0,0.7,0c0.4-4.1,0.7-8.2,1.1-12.6c-5.6,4-11.5,1.6-17,2.4c0-6.8,0-13.2,0-20
		c4.2,0.2,8.2,0.3,12.1,0.7c2.3,0.2,3.4,1.8,3.6,4c0.1,0.7,0.2,1.3,0.3,2c0.3,0,0.6,0,0.9,0c0.4-3.8,0.7-7.6,1-11
		c-11.4,0.9-22.7,0.1-34,0.8c0.6,0.6,1.3,0.9,2,1c3.4,0.3,4.6,1.4,4.6,4.8c0,13.9,0.1,27.8-0.1,41.7c0,4.9-0.9,5.9-5,6.1
		c-0.2,0-0.3,0.2-0.5,0.3c0,0.2,0,0.3,0,0.5c0.9,0.1,1.8,0.2,2.7,0.2c5.6,0,11.3,0,16.9,0.1c3.7,0,7.5,0.2,11.2,0.2
		c0.9,0,2.5-0.7,2.6-1.3c0.6-3.1,0.8-6.3,1.1-9.5C494.6,349.8,494.3,349.6,493.8,349z"/>
	<path id="james-word" class="st16" d="M534.6,312.1c0,13.7-0.2,27.5,0.1,41.2c0.2,12.4-5.9,20.6-16.4,26.2
		c-0.7,0.4-1.6,0.6-2.4,0.8c-0.1-0.2-0.2-0.5-0.3-0.7c0.2-0.3,0.4-0.6,0.7-0.8c6.8-4.1,8.9-10.6,8.9-17.9
		c0.2-16.4,0.1-32.8,0.1-49.1c0-3.3-1.2-4.5-4.6-4.8c-0.6,0-1.2-0.1-1.7-0.2c-0.1,0-0.2-0.2-0.5-0.7c0.8-0.2,1.5-0.5,2.1-0.5
		c5.9,0,11.8,0,17.8,0c0.7,0,1.3,0.3,2,0.5c0,0.2,0,0.4-0.1,0.6c-0.4,0.1-0.8,0.3-1.2,0.3C535.4,307.5,534.6,308.3,534.6,312.1z
		 M589.6,359.4c0,0.5,0,1,0,1.4c-4.6,0-9.2-0.1-13.9-0.2c-0.4,0-0.7-0.1-1.7-0.4c3-1.2,1.9-2.9,1.3-4.5c-1.4-3.8-2.8-7.7-4.1-11.5
		c-0.4-1.2-0.9-1.8-2.3-1.7c-4.6,0.1-9.2,0-13.8,0.1c-0.6,0-1.6,0.6-1.9,1.2c-1.3,3.3-2.6,6.6-3.7,10c-1.5,4.6-1,5.4,4.2,5.9
		c-0.6,0.6-0.9,1.2-1.3,1.2c-5.2,0.1-10.4,0.1-15.6,0c-0.4,0-0.8-0.4-1.5-0.8c0.8-0.3,1.1-0.6,1.5-0.6c3.8,0.1,5.6-2.2,6.8-5.4
		c2.6-6.8,5.2-13.6,7.8-20.4c3.4-8.9,6.8-17.8,10.2-26.7c0-0.1,0.1-0.3,0.2-0.4c0.7-0.9,1.4-1.9,2.1-2.8c0.7,0.9,1.5,1.7,1.9,2.7
		c2.4,6.2,4.7,12.4,7.1,18.5c3.5,9,6.9,18.1,10.5,27c0.8,1.9,2,3.7,3.2,5.5C587.6,358.7,588.5,359.3,589.6,359.4z M569.1,338.5
		c-2.3-6.6-4.5-13-6.9-20c-2.5,7-4.8,13.5-7.1,20H569.1z M650.6,354.1c-1.4-9.7-2.7-19.4-4-29.1c-0.9-6.3-1.7-12.6-2.7-18.9
		c-0.1-0.8-0.8-1.4-1.2-2.2c-0.6,0.5-1.3,1-1.8,1.6c-0.4,0.6-0.6,1.3-0.9,2c-5.7,13-11.5,26.1-17.4,39.5c-0.6-1.2-1-2.1-1.4-3.1
		c-5.6-12.6-11.2-25.3-16.9-37.9c-0.4-0.9-1.4-1.5-2.1-2.2c-0.4,0.7-1.1,1.4-1.2,2.2c-1.5,10.8-3,21.5-4.5,32.3
		c-0.8,5.9-1.6,11.7-2.7,17.5c-0.2,1.2-1.2,2.7-2.2,3.1c-0.3,0.2-0.7,0.2-1,0.3c0,0.5,0,1,0,1.4c4.3,0,8.7,0.1,13,0.1
		c0.5,0,1-0.4,1.5-0.6c-0.7-0.7-1.3-0.8-2-1c-3.4-0.6-3.6-0.8-3.5-4.2c0-0.7,0.1-1.3,0.2-2c0.7-6,1.4-12,2-18.1
		c0.4-3.3,0.8-6.6,1.2-10.5c0.6,1.3,1,2.1,1.3,2.9c4.5,10.1,9.1,20.2,13.7,30.2c0.5,1.2,1.4,2.3,2.1,3.4c0.3,0,0.6,0,0.8,0
		c6-12,10.9-24.6,16.8-37c0.2,0.6,0.3,0.9,0.4,1.1c1,8.5,2.2,17.1,3,25.7c0.3,3,1.8,6.1-0.4,9c3.2,1.3,16.4,1.4,17.8,0
		c-1-0.2-1.8-0.4-2.6-0.5C652.2,358.7,651.1,357.8,650.6,354.1z M693.6,352.5c-0.5,2-1.7,3.6-3.8,3.8c-3.5,0.2-7,0.3-10.4,0
		c-2.2-0.1-3.6-1.8-3.7-4c-0.1-6.3,0-12.5,0-19.1c4,0.2,7.8,0.3,11.5,0.6c2.2,0.2,3.1,1.7,3.3,3.7c0.1,0.7,0.1,1.4,0.2,2.1
		c0.3,0,0.6,0,0.9,0c0.4-4.1,0.7-8.2,1.1-12.5c-5.6,3.8-11.4,1.5-16.9,2.4c0-6.8,0-13.3,0-20c4,0.2,7.9,0.3,11.8,0.6
		c2.4,0.2,3.6,1.5,3.9,4c0.1,0.7,0.2,1.4,0.4,2.2c0.3,0,0.6,0,0.9,0c0.4-3.8,0.7-7.6,1-10.9c-11.4,0.8-22.6,0.1-33.7,0.3
		c-0.1,0.3-0.2,0.5-0.3,0.8c0.6,0.2,1.2,0.5,1.8,0.6c3.9,0.3,4.9,1.3,5,5.3c0.1,9.8,0.1,19.6,0.1,29.4c0,4.8-0.3,9.6-0.5,14.5
		c-0.1,2.1-1.4,2.9-3.2,3.2c-0.7,0.1-1.4,0.3-2.1,0.5c0,0.2,0,0.4,0.1,0.6c0.8,0,1.6,0.1,2.3,0.1c1.8,0,3.7-0.1,5.5-0.1
		c7.5,0.1,15.1,0.3,22.6,0.4c1,0,2.7-0.5,2.8-1c0.5-3.4,0.8-6.8,1.1-10.3c0,0-0.2-0.1-0.7-0.2C694.1,350.5,693.9,351.5,693.6,352.5z
		 M729,333.8c-2.6-2.9-6.2-5-9.3-7.5c-2.1-1.6-4.3-3-6.1-4.9c-2.4-2.4-2.6-6.6-0.9-9.3c1.9-3.1,6.3-4.6,10.7-3.7
		c3.5,0.8,6.2,3.7,6.7,7.5c0.1,0.6,0.2,1.2,0.3,1.8c0.3,0,0.5,0,0.8,0c0.1-0.6,0.3-1.2,0.3-1.8c0.1-2.7,0.1-5.4,0.4-8.1
		c0.1-1.6-0.6-2.2-1.9-2.3c-4.1-0.3-8.4-1.1-12.4-0.5c-14.5,2.3-16.1,16.4-10.1,24.1c2.1,2.7,5.1,4.8,7.8,7c2.5,2,5.4,3.6,7.6,5.9
		c4.4,4.4,3.3,12.1-1.7,15c-6.3,3.7-14.9-0.3-16.1-7.5c-0.2-1.1-0.4-2.3-0.7-4.1c-0.6,0.9-1,1.3-1,1.6c-0.2,3.7-0.4,7.4-0.4,11.2
		c0,0.7,0.8,1.7,1.4,1.9c5.7,2.4,11.5,3.1,17.6,1.1C733.9,357.1,736.4,342,729,333.8z"/>
	<path id="method-word" class="st17" d="M440.4,413.6c-0.1,0.2-0.2,0.4-0.4,0.6c-3.1,0-6.2,0-8.9,0c-0.7-6.5-1.4-12.7-2-18.9
		c-0.2,0-0.3-0.1-0.5-0.2c-2.9,6.5-5.9,12.9-8.8,19.4c-0.3,0-0.6,0.1-0.8,0.1c-2.9-6.3-5.9-12.7-9-19.5c-0.7,5.8-1.3,11-1.9,16.2
		c-0.2,1.2,0.4,1.9,1.6,2.1c0.5,0.1,0.9,0.2,1.3,0.7c-2.9,0-5.9,0-8.8,0c4.5-1.2,3-5.1,3.5-7.8c1.3-7,2.1-14.1,3.1-21.2
		c0.1-0.5,0.3-1,0.5-1.6c0.3,0,0.5-0.1,0.8-0.1c3.5,7.6,6.9,15.3,10.5,23.2c3.5-8,7-15.6,10.4-23.2c0.3,0,0.6,0,0.9,0
		c0.2,1.2,0.6,2.4,0.7,3.6c1,7.3,2.1,14.6,3,21.9C436,411.9,436.8,414,440.4,413.6z M470.7,409.4c-1,3.2-6.6,4.6-9,2.3
		c-0.4-0.4-0.8-1.1-0.8-1.7c-0.1-3.4,0-6.8,0-10.5c3.2,0.9,7.5-1.9,8.6,3.5c0.2-2.2,0.3-4.4,0.5-6c-3.1,0.2-6.1,0.4-9,0.6
		c0-3.8,0-7.1,0-10.8c3.2,0.9,7.6-1.9,9.1,3.5c0.2-2,0.4-4,0.5-5.6c-6.2,0-12.2,0-18.2,0c0,0.2,0,0.4,0,0.5c0.4,0.1,0.8,0.3,1.2,0.3
		c1.7,0,2.4,1,2.4,2.5c0,7.5,0,14.9,0,22.4c0,1.9-0.4,3.7-3.2,3.3c0,0.2,0.1,0.5,0.1,0.8c0.6,0.1,1.2,0.4,1.8,0.4
		c2.8,0,5.7-0.2,8.5-0.2c2.1,0,4.2,0.2,6.3,0.2c0.5,0,1.4-0.5,1.5-0.8c0.3-1.8,0.5-3.6,0.7-5.4C470.9,408.9,470.8,409.1,470.7,409.4
		z M484.6,389.9c1.3-1,2.2-2.3,3.4-2.5c2.2-0.5,4.6-0.4,7.1-0.5c0,7.4,0,14.5,0,21.7c0,2.3,0.6,5.1-3,5.7c4,0,7.9,0,11.9,0
		c-3.5-1.2-3.8-1.2-3.8-4.2c-0.1-7.6,0-15.2,0-23.2c3.5,0.9,7.8-1.5,9.8,3.5c0-2,0-4,0-5.8c-8.1,0-16.1,0-24.3,0
		C485.2,386.3,484.9,388.1,484.6,389.9z M550.9,410.3c0-7.4,0-14.8,0-22.2c0-1.5,0.4-2.6,2.2-2.6c0.3,0,0.5-0.3,0.8-0.4
		c0-0.1-0.1-0.2-0.1-0.3c-3.8,0-7.6,0-11.4,0c1.4,0.9,3.4,0.7,3.5,3.1c0,2.9,0.1,5.7,0,8.6c0,0.5-0.8,1.2-1.2,1.2
		c-4.3,0.1-8.6,0.1-13.1,0.1c0-2.5-0.1-4.7,0-7c0.1-2.3-1-5.4,2.9-5.9c-3.8,0-7.6,0-12,0c4,1.5,4.1,1.5,4.1,5.6
		c0,6.1,0,12.3-0.1,18.4c0,2.2,0.5,4.8-2.9,5.4c3.9,0,7.9,0,11.8,0c-0.4-0.5-0.8-0.7-1.2-0.7c-1.7,0.1-2.5-0.9-2.5-2.3
		c-0.1-3.7,0-7.4,0-11.2c4.8,0,9.4,0,14.2,0c0,2.9,0,5.8,0,8.6c0,2.3,0.5,5-3,5.5c4,0,7.9,0,11.9,0c0.1-0.2,0.2-0.5,0.4-0.7
		C552.3,414.1,550.9,413,550.9,410.3z M599.2,399c0,9.3-6.4,16-15.5,16c-9,0-15-6.2-15-15.5c0-9.1,6.2-15.3,15.5-15.3
		C593.5,384.2,599.2,389.9,599.2,399z M593.9,400c-0.3-3.5-1-6.8-3.1-9.7c-3.7-5.1-11.3-5.3-14.6-0.4c-3.6,5.4-2.4,15.8,2.3,20.2
		c5.2,4.8,12.5,3,14.4-3.7C593.5,404.3,593.6,402.1,593.9,400z M643,401.7c-1.4,8.7-7,13.3-15.8,13.2c-4.6,0-9.3-0.4-13.9-0.5
		c0-0.3,0.1-0.5,0.1-0.5c2.5,0,2.8-1.8,2.8-3.6c0-7.4,0-14.8,0-22.2c0-2.5-2-2.4-3.6-2.8c0-0.3,0.1-0.5,0.1-0.8
		c6.5,0.3,13.2,0,19.6,0.9C641.5,386.6,644.1,394.8,643,401.7z M637.8,399.7c-0.1-8.4-6.5-13.9-14.9-12.9c-1.3,0.2-1.8,0.6-1.7,1.9
		c0.1,3.4,0,6.7,0,10.1c0,0,0,0,0,0c0,3.4,0,6.9,0,10.3c0,1.6,0.5,3,2.2,3.3c3.7,0.9,7.3,0.7,10.4-1.7
		C637.6,408,637.9,403.9,637.8,399.7z"/>
	<path id="mitochondria-word" class="st18" d="M364.1,470.1c0,0.2-0.3,0.3-0.7,0.3c-0.7,0-4.4-0.1-5.5-0.2c-0.6,0-0.8-0.1-0.8-0.3
		c0-0.1,0.1-0.2,0.3-0.3c0.2,0,0.2-0.4,0.1-1.2l-1.6-11.9h-0.1l-5.9,12.2c-0.6,1.3-0.8,1.5-1,1.5s-0.5-0.5-0.9-1.3
		c-0.6-1.2-2.8-5.4-3.1-6.1c-0.2-0.6-1.9-4-2.8-6H342l-1.4,10.7c0,0.5-0.1,0.8-0.1,1.3c0,0.5,0.3,0.8,0.8,0.9
		c0.5,0.1,0.9,0.1,1.1,0.1c0.2,0,0.4,0,0.4,0.2c0,0.2-0.2,0.3-0.6,0.3c-1.1,0-2.4-0.1-2.8-0.1c-0.5,0-1.8,0.1-2.7,0.1
		c-0.3,0-0.5,0-0.5-0.3c0-0.1,0.2-0.2,0.4-0.2c0.2,0,0.4,0,0.8-0.1c0.8-0.2,1-1.2,1.1-2.1l2.7-17.6c0.1-0.5,0.2-0.7,0.5-0.7
		c0.2,0,0.4,0.1,0.7,0.8l7.4,15.2l7.3-15.4c0.2-0.4,0.4-0.7,0.6-0.7s0.4,0.3,0.5,0.8l2.5,16.7c0.2,1.7,0.5,2.5,1.3,2.7
		c0.8,0.2,1.3,0.3,1.7,0.3C363.9,469.9,364.1,470,364.1,470.1z M373.3,470c-0.4,0-0.9,0-1.2-0.1c-0.7-0.1-0.9-0.5-0.9-1.1
		c-0.1-1-0.1-2.8-0.1-5v-4c0-3.5,0-4.1,0-4.9c0.1-0.8,0.2-1.1,0.9-1.2c0.3,0,0.5-0.1,0.7-0.1c0.2,0,0.4,0,0.4-0.3
		c0-0.1-0.2-0.2-0.5-0.2c-0.9,0-2.5,0-3,0c-0.7,0-2.3,0-3.2,0c-0.4,0-0.6,0.1-0.6,0.2c0,0.2,0.1,0.3,0.4,0.3c0.3,0,0.6,0,0.9,0.1
		c0.5,0.2,0.8,0.4,0.8,1.2c0,0.7,0,1.4,0,4.9h0v4c0,2.2,0,4-0.1,5c-0.1,0.7-0.2,1-0.7,1.1c-0.2,0-0.5,0.1-0.8,0.1
		c-0.3,0-0.4,0.1-0.4,0.2c0,0.2,0.2,0.2,0.5,0.2c0.9,0,2.6-0.1,3.1-0.1c0.6,0,2.3,0.1,3.8,0.1c0.3,0,0.5-0.1,0.5-0.2
		C373.7,470.1,373.6,470,373.3,470z M391.4,452.9c-0.1,0-0.3,0.1-0.7,0.1c-0.3,0.1-0.9,0.1-1.6,0.1h-9.6c-0.8,0-1.7,0-2.4-0.1
		c-0.6-0.1-0.8-0.3-1-0.3c-0.1,0-0.2,0.1-0.3,0.4c0,0.2-0.5,2.4-0.5,2.8c0,0.2,0.1,0.4,0.2,0.4c0.2,0,0.2-0.1,0.3-0.3
		c0-0.2,0.2-0.5,0.4-0.8c0.3-0.5,0.9-0.7,2.3-0.7l3.5-0.1h0v9.3c0,2.1,0,3.9-0.1,4.9c-0.1,0.7-0.2,1.1-0.7,1.2
		c-0.2,0-0.5,0.1-0.8,0.1c-0.3,0-0.4,0.1-0.4,0.2c0,0.2,0.2,0.2,0.5,0.2c0.9,0,2.6-0.1,3.1-0.1c0.7,0,2.3,0.1,3.8,0.1
		c0.3,0,0.5-0.1,0.5-0.2c0-0.1-0.1-0.2-0.4-0.2c-0.3,0-0.9,0-1.2-0.1c-0.7-0.1-0.8-0.5-0.9-1.2c-0.1-1-0.1-2.8-0.1-4.9v-9.3l3,0
		c2.1,0,2.8,0.7,2.8,1.3l0,0.2c0,0.3,0.1,0.5,0.3,0.5c0.1,0,0.2-0.1,0.2-0.4c0-0.6,0-2.3,0-2.8C391.6,453,391.6,452.9,391.4,452.9z
		 M412.7,461.3c0,5.3-3.8,9.4-10,9.4c-6.9,0-9.7-4.9-9.7-9c0-3.9,2.8-9,10-9C409,452.8,412.7,456.1,412.7,461.3z M409.1,462.2
		c0-5.1-3-8.2-6.9-8.2c-2.6,0-5.8,1.4-5.8,7.1c0,4.7,2.7,8.4,7.2,8.4C405.4,469.5,409.1,468.7,409.1,462.2z M431.6,466.1
		c-0.2,0-0.2,0.1-0.3,0.5c-0.1,0.4-0.4,1.1-0.8,1.5c-1,1-2.1,1.2-4.2,1.2c-3.2,0-7.4-2.6-7.4-8c0-2.2,0.4-4.5,2.2-6
		c1.1-0.9,2.4-1.3,4.5-1.3c2.2,0,3.8,0.6,4.6,1.3c0.6,0.6,0.9,1.4,0.9,2.1c0,0.3,0,0.5,0.2,0.5c0.2,0,0.3-0.2,0.3-0.6
		c0-0.5,0-1.7,0.1-2.5c0.1-0.8,0.1-1.1,0.1-1.3c0-0.1-0.1-0.2-0.3-0.3c-0.7-0.1-1.5-0.2-2.4-0.4c-1.1-0.1-2-0.2-3.5-0.2
		c-3.5,0-5.8,0.9-7.5,2.4c-2.3,2-2.8,4.7-2.8,6.3c0,2.2,0.6,4.8,3,6.8c2.2,1.8,4.9,2.5,8.1,2.5c1.5,0,3.3-0.1,4.3-0.5
		c0.4-0.2,0.5-0.3,0.6-0.7c0.2-0.8,0.5-2.8,0.5-3C431.9,466.3,431.7,466.1,431.6,466.1z M454.8,470c-0.4,0-0.9,0-1.2-0.1
		c-0.7-0.1-0.9-0.5-0.9-1.2c-0.1-1-0.1-2.8-0.1-4.9v-4c0-3.5,0-4.1,0-4.9c0-0.8,0.2-1.1,0.9-1.2c0.3,0,0.5-0.1,0.7-0.1
		c0.3,0,0.4-0.1,0.4-0.2c0-0.2-0.2-0.2-0.5-0.2c-0.9,0-2.5,0-3,0c-0.6,0-2.3,0-3.6,0c-0.4,0-0.5,0.1-0.5,0.2c0,0.2,0.1,0.2,0.4,0.2
		c0.3,0,0.7,0,0.9,0.1c0.8,0.2,1,0.5,1,1.2c0,0.7,0,1.6,0,5v0.5c0,0.1-0.1,0.2-0.1,0.2v0h-9c-0.1,0-0.2,0-0.2-0.2v-0.5
		c0-3.5,0-4.3,0-5c0.1-0.8,0.2-1.1,0.9-1.2c0.3,0,0.5-0.1,0.7-0.1c0.3,0,0.4-0.1,0.4-0.2c0-0.2-0.2-0.2-0.5-0.2c-1,0-2.6,0-3.2,0
		c-0.7,0-2.2,0-3.5,0c-0.3,0-0.5,0.1-0.5,0.2c0,0.2,0.2,0.2,0.4,0.2c0.4,0,0.8,0,0.9,0.1c0.8,0.2,1,0.5,1,1.2c0,0.7,0,1.4,0,4.9v4
		c0,2.1,0,3.9-0.1,4.9c-0.1,0.7-0.2,1.1-0.7,1.2c-0.2,0-0.5,0.1-0.8,0.1c-0.3,0-0.4,0.1-0.4,0.2c0,0.2,0.2,0.2,0.5,0.2
		c1,0,2.5-0.1,3-0.1c0.7,0,2.3,0.1,3.9,0.1c0.3,0,0.5-0.1,0.5-0.2c0-0.1-0.1-0.2-0.4-0.2c-0.3,0-0.9,0-1.2-0.1
		c-0.7-0.1-0.8-0.5-0.9-1.2c-0.1-1-0.1-2.8-0.1-4.9v-1.8c0-0.1,0.1-0.1,0.2-0.1h9c0.1,0,0.1,0.1,0.1,0.1v1.8c0,2.1,0,3.9-0.1,4.8
		c-0.1,0.7-0.2,1.1-0.7,1.2c-0.2,0-0.5,0.1-0.9,0.1c-0.3,0-0.4,0.1-0.4,0.2c0,0.2,0.2,0.2,0.5,0.2c0.9,0,2.6-0.1,3.1-0.1
		c0.7,0,2.2,0.1,3.8,0.1c0.3,0,0.5-0.1,0.5-0.2C455.2,470.1,455,470,454.8,470z M477.1,461.3c0,5.3-3.8,9.4-10,9.4
		c-6.9,0-9.7-4.9-9.7-9c0-3.9,2.8-9,10-9C473.4,452.8,477.1,456.1,477.1,461.3z M473.6,462.2c0-5.1-3-8.2-6.9-8.2
		c-2.6,0-5.8,1.4-5.8,7.1c0,4.7,2.7,8.4,7.2,8.4C469.8,469.5,473.6,468.7,473.6,462.2z M498.4,453.1c-1.2,0-2,0-2.3,0
		c-0.5,0-1.8,0-3,0c-0.4,0-0.6,0-0.6,0.2c0,0.1,0.1,0.2,0.4,0.2c0.3,0,0.9,0,1.2,0.1c0.6,0.2,0.8,0.6,0.8,2l0.2,10.2h-0.1
		c-0.4-0.3-3.5-3.6-5.1-5.2c-3.5-3.4-7-7-7.3-7.3c-0.4-0.4-0.7-0.8-1-0.8c-0.2,0-0.4,0.3-0.4,0.8l-0.2,13.6c0,2-0.1,2.6-0.7,2.8
		c-0.3,0.1-0.8,0.1-1.1,0.1c-0.2,0-0.4,0.1-0.4,0.2c0,0.2,0.2,0.2,0.5,0.2c1.2,0,2.3-0.1,2.6-0.1c0.4,0,1.5,0.1,3.1,0.1
		c0.3,0,0.5,0,0.5-0.2c0-0.1-0.1-0.2-0.4-0.2c-0.4,0-0.8,0-1.2-0.2c-0.5-0.2-0.8-0.7-0.8-2.5l-0.3-9.4h0.1c0.5,0.4,3,3.2,5.6,5.7
		c2.5,2.4,5.5,5.2,6.9,6.6c0.2,0.2,0.6,0.5,1,0.5c0.2,0,0.4-0.2,0.4-0.7l0.3-14.5c0-1.3,0.2-1.7,0.9-1.9c0.3-0.1,0.5-0.1,0.7-0.1
		c0.3,0,0.4-0.1,0.4-0.2C499,453.1,498.8,453.1,498.4,453.1z M519.2,455.7c1.2,1.2,2.2,3.1,2.2,5.8c0,2.9-1.2,5.1-2.6,6.4
		c-1.1,1.1-3.6,2.7-8,2.7c-0.9,0-1.9-0.1-2.8-0.1c-0.9-0.1-1.8-0.1-2.4-0.1c-0.3,0-0.8,0-1.3,0c-0.6,0-1.2,0-1.7,0
		c-0.3,0-0.5-0.1-0.5-0.2c0-0.1,0.1-0.2,0.4-0.2c0.3,0,0.6,0,0.8-0.1c0.5-0.1,0.6-0.5,0.7-1.2c0.1-1,0.1-2.8,0.1-4.9v-4.1h0
		c0-3.5,0-4.1,0-4.9c0-0.8-0.3-1-1-1.2c-0.2,0-0.6-0.1-0.9-0.1c-0.2,0-0.4-0.1-0.4-0.2c0-0.2,0.2-0.2,0.5-0.2c1.2,0,2.8,0,3.4,0
		c0.7,0,2.4,0,3.9,0C512.7,453.1,516.7,453.1,519.2,455.7z M518.1,462.2c0-2.9-1.2-4.8-2.2-5.7c-2.2-1.9-4.8-2.2-6.6-2.2
		c-0.5,0-1.3,0-1.5,0.2c-0.2,0.1-0.3,0.2-0.3,0.5c0,0.8,0,2.7,0,4.5v2.9h0c0,2.4,0,4.2,0,4.6c0,0.6,0.1,1.4,0.3,1.6
		c0.3,0.4,1.2,0.9,3.1,0.9c2.2,0,3.8-0.4,5.2-1.6C517.6,466.6,518.1,464.6,518.1,462.2z M570.3,470.2c0,0.2-0.1,0.2-1,0.2
		c-0.8,0-2.6,0-4.6,0c-0.4,0-0.7,0-0.7-0.2c0-0.1,0-0.2,0.3-0.2c0.2,0,0.3-0.2,0.2-0.5l-1.8-4.6c0-0.1-0.1-0.2-0.2-0.2h-5.6v0
		c-0.1,0-0.2,0-0.2,0.2l-1.3,3.1c-0.2,0.6-0.3,1.1-0.3,1.4c0,0.4,0.2,0.6,0.9,0.6h0.3c0.3,0,0.3,0.1,0.3,0.2c0,0.2-0.1,0.2-0.4,0.2
		c-0.8,0-1.9-0.1-2.6-0.1c-0.2,0-1.5,0.1-2.8,0.1c-0.2,0-0.3,0-0.3-0.1c-0.1,0-0.2,0.1-0.3,0.1c-1.6,0-3.2-0.1-3.8-0.1
		c-0.5,0-2.2,0.1-3.1,0.1c-0.2,0-0.3,0-0.4-0.1c-0.1,0.1-0.2,0.1-0.4,0.1h-2.3c-1.3,0-2-0.1-2.6-0.5c-1-0.5-1.9-1.6-3.2-3.4
		c-0.9-1.2-1.9-2.8-2.2-3.1c-0.1-0.1-0.3-0.2-0.4-0.2l-2.1,0c-0.1,0-0.2,0-0.2,0.2v0.3c0,2.1,0,3.9,0.1,4.9c0.1,0.7,0.2,1.1,0.9,1.2
		c0.3,0,0.9,0.1,1.2,0.1c0.2,0,0.3,0.1,0.3,0.2c0,0.2-0.2,0.2-0.5,0.2c-1.4,0-3.3-0.1-3.7-0.1c-0.5,0-2,0.1-2.9,0.1
		c-0.3,0-0.5-0.1-0.5-0.2c0-0.1,0.1-0.2,0.4-0.2c0.3,0,0.6,0,0.8-0.1c0.5-0.1,0.6-0.5,0.7-1.2c0.1-1,0.1-2.8,0.1-4.9v-4h0
		c0-3.5,0-4.1,0-4.9c0-0.8-0.3-1-1-1.2c-0.2,0-0.6-0.1-0.9-0.1c-0.2,0-0.4-0.1-0.4-0.2c0-0.2,0.2-0.2,0.5-0.2c1.2,0,2.8,0,3.2,0
		c0.8,0,3,0,3.7,0c1.5,0,3.2,0.1,4.5,1c0.7,0.5,1.7,1.6,1.7,3.2c0,1.7-1,3.2-3.3,5.1c2.1,2.6,3.8,4.7,5.2,6.1
		c1.3,1.3,2.2,1.4,2.5,1.5c0.2,0,0.4,0,0.6,0c0.1,0,0.2,0.1,0.2,0.1c0-0.1,0.1-0.1,0.3-0.1c0.3,0,0.6,0,0.8-0.1
		c0.5-0.1,0.6-0.4,0.7-1.1c0.1-0.9,0.1-2.8,0.1-5v-4h0c0-3.5,0-4.1,0-4.9c0-0.8-0.3-1-0.8-1.2c-0.3-0.1-0.6-0.1-0.9-0.1
		c-0.2,0-0.4,0-0.4-0.3c0-0.1,0.2-0.2,0.6-0.2c0.9,0,2.5,0,3.2,0c0.6,0,2.1,0,3,0c0.3,0,0.5,0,0.5,0.2c0,0.2-0.1,0.3-0.4,0.3
		s-0.4,0-0.7,0.1c-0.7,0.1-0.8,0.4-0.9,1.2c0,0.7,0,1.4,0,4.9v4c0,2.2,0,4,0.1,5c0.1,0.6,0.2,1,0.9,1.1c0.3,0,0.9,0.1,1.2,0.1
		c0.1,0,0.2,0,0.2,0.1c0,0,0.1-0.1,0.2-0.1c0.2,0,0.5,0,0.7,0c1.1-0.2,1.5-0.9,2-2l6.2-14.4c0.3-0.6,0.5-0.9,0.7-0.9
		c0.3,0,0.5,0.2,0.7,0.7c0.6,1.3,4.5,10.7,6,14.1c0.9,2.1,1.6,2.4,2,2.5c0.3,0,0.6,0.1,0.9,0.1C570.2,470,570.3,470,570.3,470.2z
		 M534.7,458.3c0-3.2-2.2-4.1-3.6-4.1c-0.6,0-1.2,0-1.4,0.1c-0.2,0-0.2,0.1-0.2,0.3v6.8h0c0,0.2,0,0.3,0.2,0.4
		c0.5,0.2,1.2,0.2,1.8,0.2c0.9,0,1.3-0.1,1.7-0.4C533.9,461.2,534.7,460.2,534.7,458.3z M562.1,463.3l-2.2-5.8c0-0.1,0-0.2-0.1-0.2
		c-0.1,0-0.1,0.1-0.1,0.2l-2.3,5.8c0,0.1,0,0.2,0.1,0.2h4.6C562.1,463.4,562.1,463.3,562.1,463.3z"/>
	<path id="balance-word" class="st19" d="M598.5,460c-0.6-0.4-1.2-0.8-2-1.2c0.5-0.5,0.9-1,1.3-1.4c2.5-2.9,1.4-6.6-2.4-7.1
		c-3.1-0.4-6.3-0.1-9.4-0.1c1.4,0.1,2.4,0.5,2.4,2.1c0,5.2,0,10.5-0.1,15.7c0,0.9-0.9,1.7-1.5,2.8c3-0.2,6.5-0.1,9.8-0.6
		c2.5-0.4,4.1-2.2,4.5-4.8C601.5,463,600.4,461.3,598.5,460z M591.7,451.2c1.6-0.3,2.9,0,3.8,1.4c1,1.6,1.4,3.5,0.1,5
		c-0.8,0.9-2.4,1-3.9,1.7C591.7,456.1,591.7,453.7,591.7,451.2z M597.9,467c-0.3,1.8-1.9,2.6-4.2,2.4c-1.9-0.2-2.1-1.4-2.1-2.9
		c0-2.1,0-4.2,0-6.5C595.5,458.9,598.6,463,597.9,467z M618.6,469.4c-0.6-0.3-0.8-1.2-1.1-1.9c-1.8-4-3.5-8.1-5.3-12.1
		c-0.4-0.9-0.9-1.8-1.5-3.1c-2.3,5.2-4.3,10-6.5,14.8c-0.6,1.4-1.8,2.5-2.5,3.5h4.5c-0.2-0.8-0.6-1.5-0.5-2.1
		c0.7-3.3,1.1-3.6,4.5-3.6c0.7,0,1.4-0.1,2.1,0c0.4,0.1,1,0.4,1.2,0.8c0.7,1.6,1.3,3.3,1.9,4.9h5.7c0-0.2,0-0.3,0-0.5
		C620.1,470,619.3,469.8,618.6,469.4z M607.5,463.5c0.8-2,1.5-3.8,2.5-6.2c0.9,2.3,1.7,4.2,2.5,6.2H607.5z M633.2,469.9L633.2,469.9
		l0,0.6h-11.3c0-0.2,0-0.5,0.1-0.8c0.2-0.4,0.5-1.1,0.5-1.6c0.1-4.3,0.1-8.6,0-12.8c0-0.7-1-1.4-1.4-2h6.6c-2.2-0.1-2,1.4-2,2.9
		c0,3.5,0.1,7,0,10.6c0,1.7,0.8,2.3,2.3,2.5c3,0.3,4.1-0.1,5.1-2.4V469.9z M650,469.4c-0.5-0.2-0.8-1.1-1-1.7
		c-0.8-1.9-1.7-3.8-2.5-5.7c-1.3-3.1-2.7-6.1-4.3-9.7c-0.6,1.2-0.9,1.8-1.2,2.4c-1.8,4.2-3.7,8.5-5.5,12.7c-0.3,0.7-0.8,1.4-1.2,2
		c0,0.4,0,0.8-0.1,1.2h3.6c-0.3-0.6-1-1.3-0.8-1.7c0.5-1.4,0.3-3.6,2.2-4c4.5-0.8,5.8,0.1,7.1,4.3c0.1,0.4,0.1,0.9,0.2,1.3h5.8V470
		h0C651.6,470,650.7,469.7,650,469.4z M639.1,463.5c0.8-1.9,1.5-3.8,2.5-6.2c0.9,2.4,1.7,4.2,2.4,6.2H639.1z M666.2,453.3h5.3
		c-0.3,0.6-1.1,1.5-1.1,2.3c-0.2,4.4-0.2,8.8-0.3,13.2c0,0.7-0.1,1.3-0.1,2c-0.2,0.1-0.4,0.2-0.5,0.3c-4.4-4.2-8.8-8.5-13.3-12.9
		c0,3.6-0.1,7,0.1,10.4c0,0.6,1.1,1.2,1.6,1.7h-4.5v-0.7c0.3-0.4,0.7-1.2,0.7-1.8c0.2-4.4,0.2-8.7,0.3-13c0-0.7,0-1.3,0.5-2.2
		c4.4,4.4,8.9,8.7,13.7,13.3c0-1.7,0-3,0-4.3c0-1.9,0-3.7,0-5.6C668.4,454.7,668.2,453.4,666.2,453.3L666.2,453.3z M690.4,466.8
		c0.1,3.5-0.2,3.9-3.5,4.2c-4.2,0.3-8.2-0.1-11.1-3.6c-4.2-5.3-1.2-13.2,5.5-14.1c2.9-0.4,6-0.1,9-0.1c0,1.8,0,3.1,0,3.9
		c-1.1-0.8-2.3-2.2-3.7-2.6c-1.5-0.5-3.3-0.4-4.9-0.1c-2.8,0.6-4.2,3.1-4.2,6.7c0,4,2,7.1,5.3,8.2
		C686.2,470.4,688.5,469.5,690.4,466.8z M703,470.7c-3,0-5.9,0-8.8,0c0.4-0.6,1.1-1.1,1.2-1.7c0.1-4.6,0.2-9.2,0.1-13.9
		c0-0.6-1.2-1.3-1.8-1.9c3.7,0,7.5,0,11.5,0c-0.1,1-0.1,2-0.2,3.3c-1.3-3.2-3.9-1.5-6.1-2.2c0,2.3,0,4.2,0,6.1c2,0,4,0,6.1,0
		c-0.1,1-0.3,2-0.4,3.2c-1.2-3.1-3.7-1-5.7-2.1c0,2.4,0,4.3,0,6.2c0,0.4,0.3,0.9,0.7,1.2c1.6,1.3,5.3,0.3,6.1-1.5
		C706.1,470.2,705.7,470.7,703,470.7z"/>
	<path id="arrows" class="st17" d="M713.2,401.5c-18.2,0-37.4,0-56.8,0c0-0.9,0-2,0-3.3C675.7,399.3,695,400.5,713.2,401.5z
		 M336.3,401.6c17.9,0,35.8,0,53.7,0c0-1.1,0-2.1,0-3.3c-18,1.1-35.9,2.1-53.7,3.1C336.3,401.5,336.3,401.6,336.3,401.6z"/>
	<path id="black-line" class="st20" d="M733.1,431.7c0,1.2,0,2.2,0,3.3c-140.3,0-280.5,0-420.8,0c0-1.1,0-2.2,0-3.3
		C452.7,431.7,592.9,431.7,733.1,431.7z"/>
</g>
</svg>
