<?xml version="1.0" encoding="utf-8"?>
<!-- Generator: Adobe Illustrator 24.3.0, SVG Export Plug-In . SVG Version: 6.00 Build 0)  -->
<svg version="1.1" id="mitochondria-harmony-logo-1"
	 xmlns="http://www.w3.org/2000/svg" xmlns:xlink="http://www.w3.org/1999/xlink" x="0px" y="0px" viewBox="0 0 864 864"
	 style="enable-background:new 0 0 864 864;" xml:space="preserve">
<style type="text/css">
	.st0{fill:#DA2A2A;}
	.st1{fill:url(#background-circle_1_);}
	.st2{fill:url(#ekg-top-back_1_);}
	.st3{fill:url(#ekg-top-front_1_);}
	.st4{fill:url(#ekg-middle-back-1_1_);}
	.st5{fill:url(#ekg-middle-front-1_1_);}
	.st6{fill:url(#ekg-middle-back-2_1_);}
	.st7{fill:url(#ekg-middle-front-2_1_);}
	.st8{fill:url(#ekg-middle-back-3_1_);}
	.st9{fill:url(#ekg-middle-front-3_1_);}
	.st10{fill:url(#ekg-bottom-back_1_);}
	.st11{fill:url(#ekg-bottom-front_1_);}
	.st12{fill:url(#dna-strand-1-top_1_);}
	.st13{fill:#FFFFFF;}
	.st14{fill:url(#dna-strand-1-bottom_1_);}
	.st15{fill:url(#dna-strand-2-top_1_);}
	.st16{fill:url(#dna-strand-2-middle_1_);}
	.st17{fill:url(#dna-strand-2-bottom_1_);}
	.st18{fill:#0C0C0C;}
	.st19{fill:#DA2528;}
</style>
<g id="mitochondria-harmony-logo-1-parts">
	<path id="harmony-word" class="st0" d="M379,726.1c0.7,0.2,1.2,0.2,1.7,0.2v0.3h-9.3c1.9-0.3,2.2-1.6,2.2-3.2c0-2.7,0-5.3,0-8.1
		h-11.8c0,3-0.2,5.8,0.1,8.7c0.1,1,1.5,1.8,2.1,2.5h-7.6c0.5-1,1.4-2.2,1.5-3.5c0.2-5.4,0-10.8,0.1-16.2c0-2-1.2-2.5-2.7-2.9h8.5
		c-2,0.5-2.3,1.9-2.1,3.6c0.1,1.9,0,3.8,0,5.8h11.9c0-2.4,0.2-4.8-0.1-7.2c-0.1-0.9-1.4-1.7-2-2.3h8c-2.6,0.4-2.1,2.4-2.1,4.1
		c0,4.7-0.1,9.5,0,14.2C377.4,723.6,376.8,725.5,379,726.1z M399.8,725.1c0.8,0.4,1.6,0.7,2.5,0.8h0v0.6h-6.3c0-0.3,0-0.8-0.1-1.1
		c-1.2-4.6-3.4-6.2-8-5c-1.1,0.3-1.8,2.6-2.4,4.2c-0.2,0.5,0.5,1.4,0.8,2h-4.7V726c0.9-0.4,1.5-1.3,2.2-2.8
		c2.1-4.9,4.2-9.7,6.4-14.6c0.2-0.5,0.6-1.1,1-2c0.6,1.2,1.2,2.2,1.6,3.2c2,4.4,3.9,8.9,5.8,13.3C399,723.8,399.3,724.8,399.8,725.1
		z M393.2,718.8c-0.9-2.2-1.7-4.2-2.7-6.8c-1,2.6-1.9,4.7-2.7,6.8H393.2z M419.8,724.9c0.5,0.5,0.9,0.8,1.3,1h0v0.9
		c-0.6,0-1.2-0.1-1.9-0.2c-1.5-0.2-3-1.3-4.2-2.3c-1.1-0.9-2-2.2-2.6-3.4c-1-1.8-2.4-2.3-4.4-1.8c0,1.3,0,2.7,0,4
		c0,1.7-0.1,3.6,2.5,3.5h-7.1V726c0.4,0,1.1-1.3,1.2-2.1c0.1-4.7,0.2-9.4,0-14.2c0-0.8-1.3-1.6-1.6-2c2.9,0,6.4-0.3,10,0.1
		c4.2,0.4,5.5,4.2,2.9,7.5c-0.6,0.8-1.4,1.6-2.4,2.5C415.5,720.2,417.5,722.7,419.8,724.9z M413.1,716c1-1.8,1-3.7,0-5.4
		c-1.2-1.9-3-2-5.1-1.6v8.4C410,717.5,411.9,718,413.1,716z M444.8,723.1c-0.3-2.7-0.8-5.4-1.2-8.1c-0.4-2.6-0.9-5.3-1.3-7.9
		c-0.2,0-0.4-0.1-0.7-0.1c-2.5,4.9-4.9,9.8-7.5,14.9c-2.7-5.2-5.2-10.1-7.9-15.5c-0.3,1-0.4,1.2-0.5,1.5c-0.9,5.3-1.7,10.6-2.6,16
		c-0.2,1.1-0.5,1.8-1,2v0.9c1.6,0,3.1-0.1,4.6-0.1c-0.5-0.6-1.6-1.3-1.6-1.9c0.3-3.3,0.8-6.7,1.3-10.5c2.4,4.5,4.5,8.5,6.8,13
		c2.4-4.6,4.4-8.7,6.5-12.7c0.2,0.1,0.3,0.1,0.5,0.2c0.5,3.9,1,7.7,1.6,11.8h5.9C445.6,726.2,445,724.9,444.8,723.1z M471,716.6
		c0,6.1-4.9,10.6-11.3,10.5c-6.1-0.1-10.7-4.5-10.7-10.1c0.1-5.9,4.8-10.1,11.2-10C466.7,707,471,710.9,471,716.6z M467.4,717.5
		c-0.6-1.9-1-3.9-2-5.7c-1.4-2.7-4.6-3.9-7.6-3.3c-2.5,0.5-4.3,2.4-4.6,5.5c-0.2,1.9-0.2,4,0.2,5.8c1,4,4.4,6.3,8.3,5.9
		c3.1-0.3,5.1-3.1,5.3-7.4c0-0.2,0-0.5,0-0.7C467.2,717.6,467.3,717.5,467.4,717.5z M488.5,707.5c0.6,0.6,1.9,1.2,2,2
		c0.2,3.9,0.1,7.8,0.1,12c-5.1-5-10.1-9.8-15-14.6c-0.2,0.1-0.5,0.2-0.8,0.3c0,5.2,0,10.5,0,15.7c0,1.6,0,3.3-2.1,3.5h6.4
		c-0.6-0.6-1.8-1.3-1.8-2.1c-0.2-3.7-0.1-7.4-0.1-11.3c5,4.8,9.8,9.5,14.7,14.2c0.2-0.1,0.4-0.2,0.6-0.3c0-0.8,0.1-1.6,0.1-2.4
		c0.1-4.8,0.2-9.6,0.3-14.4c0-0.8,0.6-2.1,1-2.1c0.2,0,0.5,0,0.8,0v-0.6h0H488.5z M514.4,707.5c-0.7,0-1.6,0.1-2.5,0.1
		c-0.9,0-1.8,0-2.7,0c0.9,1.6-0.3,4.3-3.9,9c-1.5-3-3.8-5.5-4.7-9h-5v0.8c0.5,0.1,0.9,0.3,1.1,0.6c3.1,4.4,7.4,8.3,6.3,14.5
		c-0.2,1.1-0.8,2.1-1.1,3.1h7.3c-1.5-0.3-2.5-0.8-2.7-2.7C505.8,716.7,509.6,711.8,514.4,707.5z"/>
	<linearGradient id="background-circle_1_" gradientUnits="userSpaceOnUse" x1="200.24" y1="415.16" x2="665.24" y2="415.16">
		<stop  offset="0" style="stop-color:#BF2227"/>
		<stop  offset="0.6199" style="stop-color:#EE3025"/>
	</linearGradient>
	<path id="background-circle" class="st1" d="M597.1,250.8c-43.9-43.9-102.3-68.1-164.4-68.1s-120.5,24.2-164.4,68.1
		c-43.9,43.9-68.1,102.3-68.1,164.4s24.2,120.5,68.1,164.4c43.9,43.9,102.3,68.1,164.4,68.1s120.5-24.2,164.4-68.1
		c43.9-43.9,68.1-102.3,68.1-164.4S641,294.7,597.1,250.8z M432.7,640.7c-124.3,0-225.5-101.2-225.5-225.5s101.2-225.5,225.5-225.5
		s225.5,101.2,225.5,225.5C658.2,539.5,557.1,640.7,432.7,640.7z M644.9,414.4c0,116.7-94.6,211.4-211.4,211.4
		s-211.3-94.6-211.3-211.4s94.6-211.3,211.3-211.3S644.9,297.7,644.9,414.4z"/>
	<g id="dna-strands">
		<g id="ekg-top">
			
				<linearGradient id="ekg-top-back_1_" gradientUnits="userSpaceOnUse" x1="374.4324" y1="704.1577" x2="436.2793" y2="704.1577" gradientTransform="matrix(0.9744 0.2248 0.2248 -0.9744 -114.6513 895.4448)">
				<stop  offset="0" style="stop-color:#959636"/>
				<stop  offset="2.520000e-02" style="stop-color:#949536"/>
				<stop  offset="0.4969" style="stop-color:#878935"/>
				<stop  offset="1" style="stop-color:#838534"/>
			</linearGradient>
			<path id="ekg-top-back" class="st2" d="M406.2,303.4c2.4-0.2,4.4-0.3,5.7-0.4c0.6,0,3.2-0.2,6.4-0.5c2.9-0.3,3.8-0.5,4.6-1.2
				c1.1-1,1.2-2.5,1.3-3.4c0.6,0.7,1.1,1.4,1.6,2c0.5,0.8,0.7,1.1,1.1,1.5c0.5,0.4,1.2,0.9,2.4,1.1c3.1-0.1,7-0.3,10.1-0.4
				c2.4-0.1,6.2-0.2,8.5-0.4c0.2,0.1,0.6,0.1,0.9,0c0.5-0.2,0.7-0.7,0.8-1c0.3-1,1.4-4.8,2.7-9.9c0.5,1.5,1,3.1,1.6,4.6
				c0.9,2.6,1.8,5.2,2.7,7.8c0,0,0,0.1,0.1,0.2c0.1,0.1,0.2,0.1,0.4,0c0.3-1.1,0.5-2,0.7-2.7c0.2-0.7,0.4-1.2,0.6-1.2
				c0.2,0,0.5,0.5,0.7,1c0.2,0.5,0.3,0.9,0.6,1.1c0.1,0.1,0.3,0.2,0.4,0.2c1.1,0.3,3.2,0,4.5-0.1c0.3,0,0,0,1.5,0
				c2.9-0.1,3.6-0.2,3.9,0.2c0.1,0.2,0.1,0.5-0.4,1.3c-1.8-0.1-3.2,0-4.1,0c-1.5,0.1-2.9,0.3-5.2,0.3c-0.4,0-0.6,0-0.8,0
				c0-0.2,0-1.4-0.7-1.8c-0.1,0-0.1-0.1-0.2-0.1c-0.4,0.6-0.6,1.1-0.7,1.5c-0.2,0.6-0.2,1.1-0.6,1.8c-0.2,0.3-0.3,0.5-0.4,0.6
				c-0.1-0.1-0.3-0.1-0.4-0.2c-0.8-1.8-1.4-3-1.8-3.9c-1.7-3.7-1.8-3.8-1.8-3.9c0-0.1,0-0.3-0.2-0.5c-0.1-0.1-0.3-0.1-0.5-0.1
				c-0.3,0.8-0.6,1.4-0.8,1.9c-0.8,2-1.2,3-1.3,3.5c-0.3,1-0.2,1.5-0.7,1.8c-0.6,0.5-1.4,0.4-1.8,0.3c-0.5-0.1-3.1-0.1-8.4-0.2
				c-2,0-4.3-0.1-6.5,0.3c-0.5,0.1-2.1,0.4-4.2,0c-0.3,0-0.6-0.1-0.8-0.1c-0.4-0.4-0.8-0.9-1.3-1.4c-0.6-0.6-1.1-1.3-1.5-1.9
				c-0.2,0.1-0.4,0.4-0.6,0.6c-0.5,0.4-1,0.9-1.4,1.1c-0.8,0.6-1.6,0.8-2.5,1.1c-0.6,0.2-1.6,0.5-3.1,0.8c-1.7,0.3-1.8,0.1-4.2,0.4
				c-2.3,0.3-3.4,0.4-3.8,0.5c-1.4,0.3-2,0.5-2.5,0.1C406,305.2,406.1,304,406.2,303.4z"/>
			
				<linearGradient id="ekg-top-front_1_" gradientUnits="userSpaceOnUse" x1="374.6356" y1="704.3904" x2="436.4825" y2="704.3904" gradientTransform="matrix(0.9744 0.2248 0.2248 -0.9744 -114.6513 895.4448)">
				<stop  offset="0" style="stop-color:#F2EA1A"/>
				<stop  offset="1" style="stop-color:#F1EA19"/>
			</linearGradient>
			<path id="ekg-top-front" class="st3" d="M406.5,303.2c2.4-0.2,4.4-0.3,5.7-0.4c0.6,0,3.2-0.2,6.4-0.5c2.9-0.3,3.8-0.5,4.6-1.2
				c1.1-1,1.2-2.5,1.3-3.4c0.6,0.7,1.1,1.4,1.6,2c0.5,0.8,0.7,1.1,1.1,1.5c0.5,0.4,1.2,0.9,2.4,1.1c3.1-0.1,7-0.3,10.1-0.4
				c2.4-0.1,6.2-0.2,8.5-0.4c0.2,0.1,0.6,0.1,0.9,0c0.5-0.2,0.7-0.7,0.8-1c0.3-1,1.4-4.8,2.7-9.9c0.5,1.5,1,3.1,1.6,4.6
				c0.9,2.6,1.8,5.2,2.7,7.8c0,0,0,0.1,0.1,0.2c0.1,0.1,0.2,0.1,0.4,0c0.3-1.1,0.5-2,0.7-2.7c0.2-0.7,0.4-1.2,0.6-1.2
				c0.2,0,0.5,0.5,0.7,1c0.2,0.5,0.3,0.9,0.6,1.1c0.1,0.1,0.3,0.2,0.4,0.2c1.1,0.3,3.2,0,4.5-0.1c0.3,0,0,0,1.5,0
				c2.9-0.1,3.6-0.2,3.9,0.2c0.1,0.2,0.1,0.5-0.4,1.3c-1.8-0.1-3.2,0-4.1,0c-1.5,0.1-2.9,0.3-5.1,0.3c-0.4,0-0.6,0-0.8,0
				c0-0.2,0-1.4-0.7-1.8c-0.1,0-0.1-0.1-0.2-0.1c-0.4,0.6-0.6,1.1-0.7,1.5c-0.2,0.6-0.2,1.1-0.6,1.8c-0.2,0.3-0.3,0.5-0.4,0.6
				c-0.1-0.1-0.3-0.1-0.4-0.2c-0.8-1.8-1.4-3-1.8-3.9c-1.7-3.7-1.8-3.8-1.8-3.9c0-0.1,0-0.3-0.2-0.5c-0.1-0.1-0.3-0.1-0.5-0.1
				c-0.3,0.8-0.6,1.4-0.8,1.9c-0.8,2-1.2,3-1.3,3.5c-0.3,1-0.2,1.5-0.7,1.8c-0.6,0.5-1.4,0.4-1.8,0.3c-0.5-0.1-3.1-0.1-8.4-0.2
				c-2,0-4.3-0.1-6.5,0.3c-0.5,0.1-2.1,0.4-4.2,0c-0.3,0-0.6-0.1-0.8-0.1c-0.4-0.4-0.8-0.9-1.3-1.4c-0.6-0.6-1.1-1.3-1.5-1.9
				c-0.2,0.1-0.4,0.4-0.6,0.6c-0.5,0.4-1,0.9-1.4,1.1c-0.8,0.6-1.6,0.8-2.5,1.1c-0.6,0.2-1.6,0.5-3.1,0.8c-1.7,0.3-1.8,0.1-4.2,0.4
				c-2.3,0.3-3.4,0.4-3.8,0.5c-1.4,0.3-2,0.5-2.5,0.1C406.3,305.1,406.4,303.8,406.5,303.2z"/>
		</g>
		<g id="ekg-middle">
			
				<linearGradient id="ekg-middle-back-1_1_" gradientUnits="userSpaceOnUse" x1="448.6561" y1="668.8663" x2="396.9058" y2="633.8627" gradientTransform="matrix(0.9521 0.3059 0.3059 -0.9521 -159.8553 917.3578)">
				<stop  offset="0" style="stop-color:#828635"/>
				<stop  offset="3.330000e-02" style="stop-color:#828635"/>
				<stop  offset="1" style="stop-color:#828635"/>
			</linearGradient>
			<path id="ekg-middle-back-1" class="st4" d="M412.1,427.5c1.9-0.1,4.2-0.1,6.7,0.2c1.6,0.2,3,0.4,4.4,0.7
				c0.7-2.1,1.4-4.3,2.1-6.4c0.5,1,0.9,2,1.3,3c0.4,0.9,0.7,1.8,1,2.6c1.4-0.1,3.6-0.2,6.4-0.4c3.7-0.3,4.5-0.5,6.9-0.5
				c3.7-0.1,6.3,0.3,6.9,0.4c1.9,0.3,3.5,0.7,4.7,1c0.4-3.3,0.8-6.5,1.2-9.8c0.7,1.5,1.3,2.7,1.6,3.6c1,2.4,2,5,2,5
				c0.1,0,0.5-0.2,0.8-0.6c0.3-0.4,0.3-0.7,0.3-0.9c1.3-0.1,2.5-0.2,3.9-0.2c4.2-0.2,8.1-0.2,11.9,0c-0.1,0.4-0.2,0.7-0.4,1
				c-2.4,0.3-4.3,0.5-5.7,0.6c-1.1,0.1-2.3,0.2-3.4,0.3c-1.6,0.1-2.6,0.2-4,0.4c-0.7,0.1-1.3,0.2-1.8,0.3c-0.4,1.1-0.7,2.2-1.1,3.3
				c-0.1-0.2-0.4-0.6-0.6-1.1c-0.3-0.5-0.6-1.3-1.5-4.3c-0.2-0.6-0.4-1.3-0.8-2.2c-0.2-0.4-0.3-0.7-0.5-0.9
				c-0.2,1.5-0.4,2.7-0.5,3.5c-0.1,1.3-0.2,2.2-0.4,3.6c-0.1,0.8-0.3,1.4-0.4,1.8c-0.1,0-0.2,0.1-0.3,0.1c-0.2,0-0.3-0.2-0.5-0.5
				c-0.4-0.9-0.3-1.2-0.6-1.5c-0.1-0.1-0.3-0.3-0.6-0.5c-0.7,0-1.6-0.1-2.8-0.1c-1.5,0-2.9,0-5.8,0c-5.2,0.1-4.5,0.2-7.1,0.2
				c-1.2,0-2.5,0-4.4,0.1c-1.1,0.1-2,0.1-2.6,0.2c-0.2,1-0.3,1.8-0.3,2.4c0,0.5,0,1.4,0.1,2.1c0,0.2,0,0.4,0,0.6
				c-0.2-0.2-0.4-0.5-0.5-0.7c-0.4-1-0.6-1.7-0.7-2.2c-0.3-1.1-0.3-1.7-0.7-3.2c-0.2-0.8-0.4-1.5-0.5-1.9c-0.5,0.7-0.8,1.3-1,1.7
				c-0.1,0.3-0.3,1-0.7,2.2c0,0.1,0,0.2-0.1,0.2c-0.5-0.1-1.2-0.3-2.1-0.5c-1.7-0.3-3-0.4-4.4-0.6c-2.1-0.2-3.1-0.3-3.7-0.3
				c-0.9,0-1.9-0.2-2.8-0.1c-0.3,0-0.6,0-0.8-0.1c-0.4-0.4-0.1-1.5,0.8-1.7C411.5,427.2,412,427.5,412.1,427.5z"/>
			
				<linearGradient id="ekg-middle-front-1_1_" gradientUnits="userSpaceOnUse" x1="448.5837" y1="669.1896" x2="396.8334" y2="634.1861" gradientTransform="matrix(0.9521 0.3059 0.3059 -0.9521 -159.8553 917.3578)">
				<stop  offset="0" style="stop-color:#F2EA1A"/>
				<stop  offset="1" style="stop-color:#F1EA19"/>
			</linearGradient>
			<path id="ekg-middle-front-1" class="st5" d="M412.2,427.2c1.9-0.1,4.2-0.1,6.7,0.2c1.6,0.2,3,0.4,4.4,0.7
				c0.7-2.1,1.4-4.3,2.1-6.4c0.5,1,0.9,2,1.3,3c0.4,0.9,0.7,1.8,1,2.6c1.4-0.1,3.6-0.2,6.4-0.4c3.7-0.3,4.5-0.5,6.9-0.5
				c3.7-0.1,6.3,0.3,6.9,0.4c1.9,0.3,3.5,0.7,4.7,1c0.4-3.3,0.8-6.5,1.2-9.8c0.7,1.5,1.3,2.7,1.6,3.6c1,2.4,2,5,2,5
				c0.1,0,0.5-0.2,0.8-0.6c0.3-0.4,0.3-0.7,0.3-0.9c1.3-0.1,2.5-0.2,3.9-0.2c4.2-0.2,8.1-0.2,11.9,0c-0.1,0.4-0.2,0.7-0.4,1
				c-2.4,0.3-4.3,0.5-5.7,0.6c-1.1,0.1-2.3,0.2-3.4,0.3c-1.6,0.1-2.6,0.2-4,0.4c-0.7,0.1-1.3,0.2-1.8,0.3c-0.4,1.1-0.7,2.2-1.1,3.3
				c-0.1-0.2-0.4-0.6-0.6-1.1c-0.3-0.5-0.6-1.3-1.5-4.3c-0.2-0.6-0.4-1.3-0.8-2.2c-0.2-0.4-0.3-0.7-0.5-0.9
				c-0.2,1.5-0.4,2.7-0.5,3.5c-0.1,1.3-0.2,2.2-0.4,3.6c-0.1,0.8-0.3,1.4-0.4,1.8c-0.1,0-0.2,0.1-0.3,0.1c-0.2,0-0.3-0.2-0.5-0.5
				c-0.4-0.9-0.3-1.2-0.6-1.5c-0.1-0.1-0.3-0.3-0.6-0.5c-0.7,0-1.6-0.1-2.8-0.1c-1.5,0-2.9,0-5.8,0c-5.2,0.1-4.5,0.2-7.1,0.2
				c-1.2,0-2.5,0-4.4,0.1c-1.1,0.1-2,0.1-2.6,0.2c-0.2,1-0.3,1.8-0.3,2.4c0,0.5,0,1.4,0.1,2.1c0,0.2,0,0.4,0,0.6
				c-0.2-0.2-0.4-0.5-0.5-0.7c-0.4-1-0.6-1.7-0.7-2.2c-0.3-1.1-0.3-1.7-0.7-3.2c-0.2-0.8-0.4-1.5-0.5-1.9c-0.5,0.7-0.8,1.3-1,1.7
				c-0.1,0.3-0.3,1-0.7,2.2c0,0.1,0,0.2-0.1,0.2c-0.5-0.1-1.2-0.3-2.1-0.5c-1.7-0.3-3-0.4-4.4-0.6c-2.1-0.2-3.1-0.3-3.7-0.3
				c-0.9,0-1.9-0.2-2.8-0.1c-0.3,0-0.6,0-0.8-0.1c-0.4-0.4-0.1-1.5,0.8-1.7C411.5,426.9,412,427.1,412.2,427.2z"/>
			
				<linearGradient id="ekg-middle-back-2_1_" gradientUnits="userSpaceOnUse" x1="434.6914" y1="692.1687" x2="379.3051" y2="654.7057" gradientTransform="matrix(0.9381 0.3464 0.3464 -0.9381 -174.6856 900.3966)">
				<stop  offset="0" style="stop-color:#828635"/>
				<stop  offset="3.330000e-02" style="stop-color:#828635"/>
				<stop  offset="1" style="stop-color:#828635"/>
			</linearGradient>
			<path id="ekg-middle-back-2" class="st6" d="M407.2,410.4c0.5,0,1.2-0.1,2.1-0.1c1-0.1,2.8-0.2,4.1-0.2c1.6-0.1,3.7-0.1,6.2,0.1
				c1.2,0.1,2.9,0.4,4.9,0.8c0.4-1,0.9-1.9,1.3-2.9c0.5-1.1,0.9-2.1,1.4-3.2c0.2,0.6,0.3,1.1,0.4,1.5c0.3,1.1,0.5,1.6,0.8,2.8
				c0.1,0.5,0.2,0.9,0.3,1.2c0.5,0,1.1-0.1,1.9-0.1c2.7-0.2,3.7-0.4,5.2-0.5c2.2-0.2,3.9-0.1,6.2-0.1c1.7,0,3.3,0,5,0.2
				c0.8,0.1,1.6,0.2,2.5,0.5c0.7,0.2,1.3,0.4,1.7,0.5c0.2-0.5,0.3-1,0.5-1.6c0.4-1.6,0.6-3.2,0.7-4.6c0.1-1.2,0.3-2.3,0.4-3.5
				c0.2,0.6,0.6,1.5,1,2.6c0.3,1,0.3,1,0.7,2.4c0.1,0.4,0.5,1.4,1,2.8c0.1,0.4,0.3,0.7,0.4,0.9c0.1-0.2,0.3-0.7,0.7-1
				c0.5-0.5,1-0.6,1.3-0.7c1,0,2.4,0.1,4.2,0c2.8,0,4-0.2,6.2-0.2c1.5,0,3.6,0,6.2,0.2c-0.2,0.2-0.3,0.3-0.5,0.5
				c-2,0.4-3.6,0.6-4.7,0.7c-1.6,0.2-2.9,0.4-7.9,0.9c-1.4,0.1-3,0.3-4.4,0.4c-0.4,1-0.7,2-1.1,3c-0.6-1.4-0.9-2.6-1.1-3.5
				c-0.2-1-0.3-1.9-0.8-3.2c-0.2-0.6-0.4-1-0.6-1.3c-0.3,1.4-0.5,2.5-0.6,3.3c-0.2,1.3-0.4,1.9-0.6,3s-0.4,2-0.5,2.6
				c-0.1-0.1-0.3-0.2-0.4-0.3c0-0.2,0-1-0.5-1.7c-0.4-0.4-0.8-0.7-1-0.8c-0.6,0-1.4-0.1-2.5-0.1c-2.9-0.1-4,0-8.2,0.1
				c-3.1,0-3.5,0-6.5,0.1c-1.4,0-2.6,0.1-3.4,0.1c-0.2,1.6-0.5,3.2-0.7,4.8c-0.1-0.1-0.2-0.2-0.4-0.3c-0.1-1.4-0.2-2.5-0.4-3.2
				c-0.2-0.9-0.4-1.8-0.7-3.7c0-0.3-0.1-0.5-0.1-0.6c-0.4,0.8-0.8,1.7-1.1,2.6c-0.2,0.6-0.5,1.2-0.7,1.8c-0.6-0.2-1.5-0.5-2.6-0.8
				c-2-0.5-3.5-0.6-6.3-0.9c-2.9-0.3-4.4-0.4-5.8-0.4c-2.2,0.1-4,0.4-4.1,0C406.3,411.1,406.8,410.7,407.2,410.4z"/>
			
				<linearGradient id="ekg-middle-front-2_1_" gradientUnits="userSpaceOnUse" x1="436.6382" y1="694.6397" x2="378.7748" y2="655.5013" gradientTransform="matrix(0.9381 0.3464 0.3464 -0.9381 -174.6856 900.3966)">
				<stop  offset="0" style="stop-color:#EFE919"/>
				<stop  offset="1" style="stop-color:#EFE919"/>
			</linearGradient>
			<path id="ekg-middle-front-2" class="st7" d="M414.8,408.8c1.8-0.1,3.8,0,6.1,0.3c1.4,0.2,2.8,0.4,3.9,0.7
				c0.8-2.1,1.6-4.2,2.4-6.3c0.3,1,0.7,2,1,3c0.3,0.9,0.5,1.8,0.7,2.6c1.3,0,3.3-0.1,5.8-0.3c3.4-0.3,4.1-0.4,6.3-0.5
				c3.4,0,5.7,0.3,6.2,0.4c1.7,0.3,3.1,0.7,4.2,1c0.6-3.2,1.2-6.4,1.8-9.6c0.5,1.5,1,2.7,1.2,3.5c0.7,2.4,1.4,5,1.4,5
				c0.1,0,0.5-0.2,0.8-0.6c0.3-0.4,0.3-0.7,0.3-0.9c1.1-0.1,2.3-0.1,3.5-0.2c3.8-0.1,13.4,0.1,16.9,0.3c-0.1,0.3-0.4,0.3-0.5,0.7
				c-2.2,0.2-9.9,0.6-11.1,0.7c-1,0.1-2.1,0.2-3.1,0.3c-1.5,0.1-2.4,0.2-3.7,0.4c-0.7,0.1-1.2,0.2-1.6,0.2c-0.4,1.1-0.8,2.2-1.2,3.2
				c-0.1-0.2-0.3-0.6-0.5-1c-0.2-0.5-0.5-1.2-1.1-4.3c-0.1-0.6-0.3-1.3-0.6-2.2c-0.1-0.4-0.3-0.7-0.3-0.9c-0.3,1.5-0.5,2.7-0.7,3.5
				c-0.2,1.2-0.3,2.2-0.7,3.5c-0.2,0.8-0.3,1.4-0.5,1.8c-0.1,0-0.2,0.1-0.3,0.1c-0.2,0-0.3-0.2-0.4-0.5c-0.3-0.8-0.2-1.1-0.5-1.5
				c-0.1-0.1-0.2-0.3-0.5-0.5c-0.6,0-1.5-0.1-2.6-0.2c-1.4-0.1-2.6-0.1-5.3,0c-4.7,0-4.1,0.1-6.5,0.1c-1,0-2.2,0-4,0
				c-1,0-1.9,0.1-2.4,0.2c-0.3,1-0.4,1.8-0.4,2.4c0,0.5-0.1,1.4-0.1,2c0,0.2,0,0.4,0,0.5c-0.1-0.2-0.3-0.4-0.4-0.7
				c-0.2-0.9-0.4-1.7-0.5-2.2c-0.2-1.1-0.2-1.7-0.4-3.2c-0.1-0.8-0.2-1.5-0.3-1.9c-0.5,0.7-0.8,1.3-1,1.7c-0.1,0.3-0.4,0.9-0.8,2.2
				c0,0.1-0.1,0.2-0.1,0.2c-0.5-0.1-1.1-0.3-1.9-0.5c-1.5-0.3-2.7-0.5-4-0.6c-1.9-0.2-2.8-0.3-3.4-0.3c-0.9,0-1.7-0.2-2.6-0.1
				c-0.3,0-6.9,0.1-7.1-0.1c-0.3-0.4-0.9-0.7-0.1-1C406.9,409.3,414.7,408.8,414.8,408.8z"/>
			
				<linearGradient id="ekg-middle-back-3_1_" gradientUnits="userSpaceOnUse" x1="424.8796" y1="710.9435" x2="377.1803" y2="678.6801" gradientTransform="matrix(0.9381 0.3464 0.3464 -0.9381 -174.6856 900.3966)">
				<stop  offset="0" style="stop-color:#838634"/>
				<stop  offset="3.330000e-02" style="stop-color:#838634"/>
				<stop  offset="1" style="stop-color:#838634"/>
			</linearGradient>
			<path id="ekg-middle-back-3" class="st8" d="M415.1,388.2c1.8-0.1,3.8,0,6.1,0.3c1.4,0.2,2.8,0.4,3.9,0.7
				c0.8-2.1,1.6-4.2,2.4-6.3c0.3,1,0.7,2,1,3c0.3,0.9,0.5,1.8,0.7,2.6c1.3,0,3.3-0.1,5.8-0.3c3.4-0.3,4.1-0.4,6.3-0.5
				c3.4,0,5.7,0.3,6.2,0.4c1.7,0.3,3.1,0.7,4.2,1c0.6-3.2,1.2-6.4,1.8-9.6c0.5,1.5,1,2.7,1.2,3.5c0.7,2.4,1.4,5,1.4,5
				c0.1,0,0.5-0.2,0.8-0.6c0.3-0.4,0.3-0.7,0.3-0.9c1.1-0.1,2.3-0.1,3.5-0.2c3.8-0.1,7.4-0.1,10.8,0.1c-0.1,0.3-0.3,0.7-0.4,1
				c-2.2,0.2-4,0.4-5.2,0.5c-1,0.1-2.1,0.2-3.1,0.3c-1.5,0.1-2.4,0.2-3.7,0.4c-0.7,0.1-1.2,0.2-1.6,0.2c-0.4,1.1-0.8,2.2-1.2,3.2
				c-0.1-0.2-0.3-0.6-0.5-1c-0.2-0.5-0.5-1.2-1.1-4.3c-0.1-0.6-0.3-1.3-0.6-2.2c-0.1-0.4-0.3-0.7-0.3-0.9c-0.3,1.5-0.5,2.7-0.7,3.5
				c-0.2,1.2-0.3,2.2-0.7,3.5c-0.2,0.8-0.3,1.4-0.5,1.8c-0.1,0-0.2,0.1-0.3,0.1c-0.2,0-0.3-0.2-0.4-0.5c-0.3-0.8-0.2-1.1-0.5-1.5
				c-0.1-0.1-0.2-0.3-0.5-0.5c-0.6,0-1.5-0.1-2.6-0.2c-1.4-0.1-2.6-0.1-5.3,0c-4.7,0-4.1,0.1-6.5,0.1c-1,0-2.2,0-4,0
				c-1,0-1.9,0.1-2.4,0.2c-0.3,1-0.4,1.8-0.4,2.4c0,0.5-0.1,1.4-0.1,2c0,0.2,0,0.4,0,0.5c-0.1-0.2-0.3-0.4-0.4-0.7
				c-0.2-0.9-0.4-1.7-0.5-2.2c-0.2-1.1-0.2-1.7-0.4-3.2c-0.1-0.8-0.2-1.5-0.3-1.9c-0.5,0.7-0.8,1.3-1,1.7c-0.1,0.3-0.4,0.9-0.8,2.2
				c0,0.1-0.1,0.2-0.1,0.2c-0.5-0.1-1.1-0.3-1.9-0.5c-1.5-0.3-2.7-0.5-4-0.6c-1.9-0.2-2.8-0.3-3.4-0.3c-0.9,0-1.7-0.2-2.6-0.1
				c-0.3,0-0.5,0-0.7-0.1c-0.3-0.4,0-1.5,0.8-1.7C414.5,387.9,414.9,388.1,415.1,388.2z"/>
			
				<linearGradient id="ekg-middle-front-3_1_" gradientUnits="userSpaceOnUse" x1="424.833" y1="711.2141" x2="377.1337" y2="678.9507" gradientTransform="matrix(0.9381 0.3464 0.3464 -0.9381 -174.6856 900.3966)">
				<stop  offset="0" style="stop-color:#EFE919"/>
				<stop  offset="1" style="stop-color:#EFE919"/>
			</linearGradient>
			<path id="ekg-middle-front-3" class="st9" d="M415.1,387.9c1.8-0.1,3.8,0,6.1,0.3c1.4,0.2,2.8,0.4,3.9,0.7
				c0.8-2.1,1.6-4.2,2.4-6.3c0.3,1,0.7,2,1,3c0.3,0.9,0.5,1.8,0.7,2.6c1.3,0,3.3-0.1,5.8-0.3c3.4-0.3,4.1-0.4,6.3-0.5
				c3.4,0,5.7,0.3,6.2,0.4c1.7,0.3,3.1,0.7,4.2,1c0.6-3.2,1.2-6.4,1.8-9.6c0.5,1.5,1,2.7,1.2,3.5c0.7,2.4,1.4,5,1.4,5
				c0.1,0,0.5-0.2,0.8-0.6c0.3-0.4,0.3-0.7,0.3-0.9c1.1-0.1,2.3-0.1,3.5-0.2c3.8-0.1,7.4-0.1,10.8,0.1c-0.1,0.3-0.3,0.7-0.4,1
				c-2.2,0.2-4,0.4-5.2,0.5c-1,0.1-2.1,0.2-3.1,0.3c-1.5,0.1-2.4,0.2-3.7,0.4c-0.7,0.1-1.2,0.2-1.6,0.2c-0.4,1.1-0.8,2.2-1.2,3.2
				c-0.1-0.2-0.3-0.6-0.5-1c-0.2-0.5-0.5-1.2-1.1-4.3c-0.1-0.6-0.3-1.3-0.6-2.2c-0.1-0.4-0.3-0.7-0.3-0.9c-0.3,1.5-0.5,2.7-0.7,3.5
				c-0.2,1.2-0.3,2.2-0.7,3.5c-0.2,0.8-0.3,1.4-0.5,1.8c-0.1,0-0.2,0.1-0.3,0.1c-0.2,0-0.3-0.2-0.4-0.5c-0.3-0.8-0.2-1.1-0.5-1.5
				c-0.1-0.1-0.2-0.3-0.5-0.5c-0.6,0-1.5-0.1-2.6-0.2c-1.4-0.1-2.6-0.1-5.3,0c-4.7,0-4.1,0.1-6.5,0.1c-1,0-2.2,0-4,0
				c-1,0-1.9,0.1-2.4,0.2c-0.3,1-0.4,1.8-0.4,2.4c0,0.5-0.1,1.4-0.1,2c0,0.2,0,0.4,0,0.5c-0.1-0.2-0.3-0.4-0.4-0.7
				c-0.2-0.9-0.4-1.7-0.5-2.2c-0.2-1.1-0.2-1.7-0.4-3.2c-0.1-0.8-0.2-1.5-0.3-1.9c-0.5,0.7-0.8,1.3-1,1.7c-0.1,0.3-0.4,0.9-0.8,2.2
				c0,0.1-0.1,0.2-0.1,0.2c-0.5-0.1-1.1-0.3-1.9-0.5c-1.5-0.3-2.7-0.5-4-0.6c-1.9-0.2-2.8-0.3-3.4-0.3c-0.9,0-1.7-0.2-2.6-0.1
				c-0.3,0-0.5,0-0.7-0.1c-0.3-0.4,0-1.5,0.8-1.7C414.5,387.6,415,387.9,415.1,387.9z"/>
		</g>
		<g id="ekg-bottom">
			
				<linearGradient id="ekg-bottom-back_1_" gradientUnits="userSpaceOnUse" x1="-276.9588" y1="305.1282" x2="-194.0629" y2="305.1282" gradientTransform="matrix(-0.7159 0.276 -0.3597 -0.9331 382.2249 870.0819)">
				<stop  offset="0" style="stop-color:#8B8D35"/>
				<stop  offset="3.330000e-02" style="stop-color:#8B8D35"/>
				<stop  offset="1" style="stop-color:#8B8D35"/>
			</linearGradient>
			<path id="ekg-bottom-back" class="st10" d="M475.6,521.7c-2.6-0.1-4.6-0.1-6-0.1c-0.6,0-3.4,0-6.8-0.1c-3.1-0.1-4.1-0.3-5.1-1.2
				c-1.4-1.3-1.9-3.2-2.2-4.3c-0.5,1-0.8,1.9-1.1,2.8c-0.4,1-0.4,1.5-0.8,2c-0.4,0.6-1,1.3-2.2,1.6c-3.2,0.1-7.4,0.2-10.6,0.3
				c-2.5,0.1-6.5,0.2-9,0.2c-0.2,0.1-0.6,0.2-1,0c-0.5-0.2-0.9-0.9-1.1-1.3c-0.6-1.3-2.6-6.1-5.3-12.7c-0.1,2-0.3,4.1-0.5,6.1
				c-0.3,3.5-0.5,6.9-0.8,10.3c0,0,0,0.2-0.1,0.3c-0.1,0.1-0.2,0.1-0.4,0.1c-0.6-1.4-1.1-2.6-1.5-3.5c-0.4-0.9-0.7-1.6-1-1.6
				c-0.3,0-0.4,0.7-0.5,1.3c-0.1,0.7-0.1,1.1-0.4,1.5c-0.1,0.2-0.2,0.2-0.4,0.3c-1.1,0.5-3.3,0.3-4.8,0.3c-0.3,0,0,0-1.6,0
				c-3,0.1-3.8,0-4,0.6c-0.1,0.2,0,0.7,0.8,1.7c1.8-0.2,3.3-0.3,4.3-0.3c1.5,0,3.1,0.2,5.5,0c0.4,0,0.7-0.1,0.9-0.1
				c-0.1-0.3-0.4-1.8,0.3-2.4c0,0,0.1-0.1,0.2-0.1c0.6,0.8,0.9,1.4,1.1,1.9c0.4,0.8,0.5,1.5,1.1,2.3c0.2,0.3,0.5,0.6,0.6,0.7
				c0.1-0.1,0.2-0.2,0.4-0.3c0.4-2.3,0.7-4,0.9-5.2c0.9-4.9,0.9-5,0.9-5.2c0-0.1-0.1-0.4,0.1-0.6c0.1-0.2,0.3-0.2,0.4-0.2
				c0.5,1,1,1.8,1.3,2.4c1.4,2.5,2,3.8,2.3,4.5c0.5,1.3,0.6,1.9,1.2,2.3c0.7,0.6,1.6,0.3,1.9,0.3c0.5-0.1,3.2-0.4,8.6-1
				c2-0.2,4.5-0.5,6.8-0.2c0.6,0.1,2.3,0.3,4.4-0.3c0.3-0.1,0.6-0.2,0.8-0.3c0.3-0.6,0.6-1.2,1-1.9c0.4-0.9,0.8-1.7,1.1-2.6
				c0.2,0.2,0.5,0.4,0.8,0.7c0.6,0.5,1.3,1,1.8,1.3c1,0.7,1.8,0.9,2.9,1.3c0.7,0.2,1.8,0.5,3.5,0.7c1.8,0.2,1.9,0,4.5,0.2
				c2.5,0.2,3.7,0.2,4.1,0.3c1.5,0.2,2.2,0.5,2.6,0C476.3,524.1,475.9,522.5,475.6,521.7z"/>
			
				<linearGradient id="ekg-bottom-front_1_" gradientUnits="userSpaceOnUse" x1="-277.506" y1="305.8559" x2="-194.6101" y2="305.8559" gradientTransform="matrix(-0.7159 0.276 -0.3597 -0.9331 382.2249 870.0819)">
				<stop  offset="0" style="stop-color:#F2EA1A"/>
				<stop  offset="1" style="stop-color:#F1EA19"/>
			</linearGradient>
			<path id="ekg-bottom-front" class="st11" d="M475.8,520.8c-2.6-0.1-4.6-0.1-6-0.1c-0.6,0-3.4,0-6.8-0.1c-3.1-0.1-4.1-0.3-5.1-1.2
				c-1.4-1.3-1.9-3.2-2.2-4.3c-0.5,1-0.8,1.9-1.1,2.8c-0.4,1-0.4,1.5-0.8,2c-0.4,0.6-1,1.3-2.2,1.6c-3.2,0.1-7.4,0.2-10.6,0.3
				c-2.5,0.1-6.5,0.2-9,0.2c-0.2,0.1-0.6,0.2-1,0c-0.5-0.2-0.9-0.9-1.1-1.3c-0.6-1.3-2.6-6.1-5.3-12.7c-0.1,2-0.3,4.1-0.5,6.1
				c-0.3,3.5-0.5,6.9-0.8,10.3c0,0,0,0.2-0.1,0.3c-0.1,0.1-0.2,0.1-0.4,0.1c-0.6-1.4-1.1-2.6-1.5-3.5c-0.4-0.9-0.7-1.6-1-1.6
				c-0.3,0-0.4,0.7-0.5,1.3c-0.1,0.7-0.1,1.1-0.4,1.5c-0.1,0.2-0.2,0.2-0.4,0.3c-1.1,0.5-3.3,0.3-4.8,0.3c-0.3,0,0,0-1.6,0
				c-3,0.1-3.8,0-4,0.6c-0.1,0.2,0,0.7,0.8,1.7c1.8-0.2,3.3-0.3,4.3-0.3c1.5,0,3.1,0.2,5.5,0c0.4,0,0.7-0.1,0.9-0.1
				c-0.1-0.3-0.4-1.8,0.3-2.4c0,0,0.1-0.1,0.2-0.1c0.6,0.8,0.9,1.4,1.1,1.9c0.4,0.8,0.5,1.5,1.1,2.3c0.2,0.3,0.5,0.6,0.6,0.7
				c0.1-0.1,0.2-0.2,0.4-0.3c0.4-2.3,0.7-4,0.9-5.2c0.9-4.9,0.9-5,0.9-5.2c0-0.1-0.1-0.4,0.1-0.6c0.1-0.2,0.3-0.2,0.4-0.2
				c0.5,1,1,1.8,1.3,2.4c1.4,2.5,2,3.8,2.3,4.5c0.5,1.3,0.6,1.9,1.2,2.3c0.7,0.6,1.6,0.3,1.9,0.3c0.5-0.1,3.2-0.4,8.6-1
				c2-0.2,4.5-0.5,6.8-0.2c0.6,0.1,2.3,0.3,4.4-0.3c0.3-0.1,0.6-0.2,0.8-0.3c0.3-0.6,0.6-1.2,1-1.9c0.4-0.9,0.8-1.7,1.1-2.6
				c0.2,0.2,0.5,0.4,0.8,0.7c0.6,0.5,1.3,1,1.8,1.3c1,0.7,1.8,0.9,2.9,1.3c0.7,0.2,1.8,0.5,3.5,0.7c1.8,0.2,1.9,0,4.5,0.2
				c2.5,0.2,3.7,0.2,4.1,0.3c1.5,0.2,2.2,0.5,2.6,0C476.5,523.2,476,521.7,475.8,520.8z"/>
		</g>
		<g id="dna-strand-1">
			
				<linearGradient id="dna-strand-1-top_1_" gradientUnits="userSpaceOnUse" x1="416.123" y1="663.3675" x2="389.5491" y2="778.5369" gradientTransform="matrix(0.9744 0.2248 0.2248 -0.9744 -114.6513 895.4448)">
				<stop  offset="0.1929" style="stop-color:#909090"/>
				<stop  offset="0.3629" style="stop-color:#989797"/>
				<stop  offset="0.3988" style="stop-color:#A2A0A0"/>
				<stop  offset="0.5131" style="stop-color:#BFBDBD"/>
				<stop  offset="0.6298" style="stop-color:#D8D6D5"/>
				<stop  offset="0.7484" style="stop-color:#EBEAE9"/>
				<stop  offset="0.8703" style="stop-color:#F9F8F7"/>
				<stop  offset="1" style="stop-color:#FFFFFF"/>
			</linearGradient>
			<path id="dna-strand-1-top" class="st12" d="M397.5,239.4c-1.6-0.4-2.5-1.8-2.5-1.9c-0.5-0.9-0.5-1.8-0.6-2.4
				c0-1.9,0.7-3.4,1.1-4.2c1.7-2.7,5.2-3.5,6.9-3.9c12.2-2.6,22.2-2.5,22.2-2.5c8.8,0.5,13.3,0.1,17,0.5c8,0.9,14.2,1.7,21,5.4
				c6.9,3.8,10.9,8.9,12.8,11.4c10.8,14,10.3,29.9,10.1,34.7c-0.1,1.9-0.5,7.8-2.8,15.1c-2.7,8.3-6.4,13.9-10.3,19.4
				c-6.5,9.3-12.9,15.2-16.9,19c-7.6,7-15.8,12.9-16.1,12.6c-0.1-0.2,1.7-1.8,4.6-4.7c10-10.2,16-19.3,17.5-21.7
				c2-3.2,3.9-6.1,5.9-10.5c2.1-4.6,5-11.2,5.6-20.1c0.2-3.6,0.7-11.5-3-20.8c-0.8-1.9-4.2-10-12.4-17.2c-2.7-2.4-7.2-6.2-14.2-8.3
				c-2.5-0.8-4.8-1-9.2-1.5c-5-0.5-11.8-1.2-20.1-0.4c-8.3,0.9-12.5,1.3-13.2,1.6C400.4,239.2,399,239.8,397.5,239.4z"/>
			<path id="dna-strand-1-middle" class="st13" d="M426.9,465.2c-2.7-1.7-6-4.1-9.6-7.1c-2-1.7-5.7-4.9-9.7-9.6
				c-2.8-3.4-6.9-8.3-10.2-15.8c-1.3-3-4-9.3-4.4-17.9c-0.5-9.6,1.9-16.9,3.3-20.9c1.9-5.5,4.1-9.4,5.8-12.4
				c0.7-1.1,3.8-6.5,9.3-13.1c3.8-4.5,6.8-7.4,12.9-13c3.5-3.2,8.5-7.7,14.9-12.9c5.7-4.6,5.5-4,9.6-7.4c8.4-7,14-13.2,16.1-15.5
				c4-4.5,7.6-8.6,11.3-14.9c1.7-2.9,4.2-7.2,6.2-13.5c1.6-5.1,2.2-9.3,2.5-11.8c0.5-3.5,0.9-6.8,0.6-11.2c-0.5-7.8-3-13.6-4.1-16.2
				c-0.6-1.5-1.6-3.6-3-5.9c-2.7-4.5-5.8-7.8-8-10.1c0.7,0.5,1.7,1,2.8,1.8c1,0.8,2.7,2.1,4.3,3.8c1.7,1.8,2.8,3.3,4.8,6.3
				c1,1.4,1.8,2.6,2.7,4.2c0.5,0.9,1.8,3.2,3,6.3c1.9,5,2.6,9.1,2.8,10.5c0.6,4.1,0.5,7.3,0.4,9.2c-0.1,4.1-0.7,7.1-1.2,10
				c-0.5,2.7-1.1,6.1-2.5,10.2c-1.3,3.7-2.5,6.2-5,11.2c-2.3,4.5-3.9,7.8-6.7,11.8c-0.8,1.2-2.3,3.2-5.3,7.2
				c-2.8,3.6-4.1,5.5-5.5,7.1c-2.9,3.6-5.4,6.2-7.5,8.3c-2.1,2.2-3.7,3.8-6.7,6.8c-7.4,7.3-12.5,11.9-13.5,12.8
				c-2.2,2-3.5,3.1-5.2,4.6c-0.7,0.6-1.4,1.2-2.5,2.2c-1.6,1.4-2.5,2.2-3.3,3c-1,1-1.9,2.2-3.7,4.5c-1.2,1.6-2.6,3.5-4.3,6.1
				c-0.8,1.2-1.5,2.4-2.5,4c-1.4,2.5-2.3,4.5-2.5,5.1c-0.3,0.6-1.5,3.5-2.6,7.6c-0.4,1.5-1,3.6-1.4,6.3c-0.8,5.1-0.5,9.2-0.4,11
				c0.2,2.8,0.7,4.8,1,6.6c0.6,2.9,1.2,4.9,2.3,8.4c0.9,3,1.6,5.2,2.8,8.1c0.7,1.8,1.4,3.1,2,4.4c1,2,1.3,2.5,3.4,6.7
				c2.4,4.7,2.7,5.4,3.9,7.3c1,1.8,2,3.2,2.6,4.1C426.6,464.2,426.8,464.7,426.9,465.2z"/>
			
				<linearGradient id="dna-strand-1-bottom_1_" gradientUnits="userSpaceOnUse" x1="470.8783" y1="464.7278" x2="439.047" y2="602.6826" gradientTransform="matrix(0.9744 0.2248 0.2248 -0.9744 -114.6513 895.4448)">
				<stop  offset="0" style="stop-color:#FFFFFF"/>
				<stop  offset="0.1865" style="stop-color:#E5E4E3"/>
				<stop  offset="0.5643" style="stop-color:#B5B4B3"/>
				<stop  offset="1" style="stop-color:#818282"/>
			</linearGradient>
			<path id="dna-strand-1-bottom" class="st14" d="M469.2,540.4c-0.5,2.9,2.3,5.5,2.6,5.8c0.7,0.7,1.9,1.8,3.7,2.1
				c3.6,0.7,6.3-2.1,6.6-2.4c0.8-0.8,1.1-1.6,2-4c1.5-3.8,2.2-5.8,2.7-7.5c0.9-3.2,2.6-9.3,2.6-16.5c0.1-11.5-4-20.3-5.8-24.1
				c-0.2-0.5-5.8-11.9-16.5-21c-4.1-3.5-9.3-7-9.6-7.2c-3.3-2.2-3.3-1.9-9-5.4c-5.9-3.6-6.2-4.1-12.4-7.9c-3.8-2.3-4.2-2.5-6.2-3.8
				c-2.3-1.6-5.1-3.5-8.1-6.6c-3.6-3.6-5.8-7.1-6.8-8.8c-2.5-4.3-3.8-8-4.4-10c-0.9-2.8-2.3-7.8-1.9-13.7c0.1-1.3,0.3-2.6,0.2-2.6
				c-0.1,0-1,3.6-1,7.6c0,3,0.5,5.3,0.8,6.9c2.7,11.7,6.1,20.4,6.1,20.4c2.8,7,5.5,12.1,7.3,15.3c1.7,3.2,3.3,5.9,4.5,7.8
				c1.4,0.8,3.6,2.1,6.4,3.6c8.2,4.5,11,5.4,15.6,8.4c1.6,1,5.3,3.5,9.3,7.3c3.3,3.1,9,8.8,12.8,18c2.9,7.1,3.3,13.1,3.4,14.9
				c0.3,6-0.8,10.6-1.3,13c-1,4.5-1.6,6.7-2.8,8.6C469.7,539.1,469.3,539.6,469.2,540.4z"/>
		</g>
		<g id="dna-strand-2">
			
				<linearGradient id="dna-strand-2-top_1_" gradientUnits="userSpaceOnUse" x1="428.6381" y1="590.3957" x2="395.9619" y2="732.0118" gradientTransform="matrix(0.9744 0.2248 0.2248 -0.9744 -114.6513 895.4448)">
				<stop  offset="0" style="stop-color:#58595B"/>
				<stop  offset="8.850000e-02" style="stop-color:#76777A"/>
				<stop  offset="0.2245" style="stop-color:#9C9EA0"/>
				<stop  offset="0.3589" style="stop-color:#BDBFC1"/>
				<stop  offset="0.4889" style="stop-color:#D9DADB"/>
				<stop  offset="0.6133" style="stop-color:#ECEDED"/>
				<stop  offset="0.7297" style="stop-color:#F8F9F9"/>
				<stop  offset="0.8302" style="stop-color:#FFFFFF"/>
			</linearGradient>
			<path id="dna-strand-2-top" class="st15" d="M414.3,277.5c-0.1-0.5-0.6-3.7-3.4-5.3c-0.2-0.1-1.4-0.8-3-0.9c-2-0.2-3.6,0.6-4.4,1
				c0,0-1.7,0.9-3.1,2.5c-6,7-6.7,23-6.7,23c-0.2,3.8-0.3,8.2,0.7,14c0.6,3.3,2.1,10.2,6.5,17.8c3.8,6.7,8,10.9,11.2,14
				c5.6,5.5,10.5,8.6,20,14.6c13.4,8.4,14.2,7.5,21.3,13c10.5,8.2,14.2,14.6,15.3,16.8c3.5,6.6,4.4,12,4.5,13.2
				c0.9,6.7-0.2,12.2-1.2,15.4c1.5-2.6,3.3-6.5,4.4-11.6c0.3-1.5,1.2-5.9,0.8-11.7c-0.4-7.2-2.5-12.5-4.4-17
				c-3-7.4-4.8-12.4-9.8-16.8c-1.2-1.1-2.6-2-5.3-3.7c-6.8-4.4-12-6.8-15-8.3c-2.2-1.1-11-5.6-18.3-12.6
				c-3.6-3.5-11.1-10.7-14.2-22.5c-2.9-11-0.5-20.8,0.8-25.9C412.3,282.6,413.4,279.6,414.3,277.5z"/>
			
				<linearGradient id="dna-strand-2-middle_1_" gradientUnits="userSpaceOnUse" x1="446.1741" y1="420.214" x2="446.1741" y2="652.0111" gradientTransform="matrix(0.9744 0.2248 0.2248 -0.9744 -114.6513 895.4448)">
				<stop  offset="0" style="stop-color:#FFFFFF"/>
				<stop  offset="1.760000e-02" style="stop-color:#FFFFFF"/>
				<stop  offset="0.5296" style="stop-color:#FFFFFF"/>
				<stop  offset="0.6886" style="stop-color:#FBFAFA"/>
				<stop  offset="0.7766" style="stop-color:#F1F0EF"/>
				<stop  offset="0.8473" style="stop-color:#E4E2E2"/>
				<stop  offset="0.9087" style="stop-color:#D1D0CF"/>
				<stop  offset="0.9636" style="stop-color:#BCBBBA"/>
				<stop  offset="1" style="stop-color:#AAAAA9"/>
			</linearGradient>
			<path id="dna-strand-2-middle" class="st16" d="M463.8,359.8c1,1.8,1.8,3.2,2.4,4.1c1.1,1.8,1.3,2.1,2.1,3.4
				c0.8,1.4,1.4,2.5,2,3.8c0.7,1.3,1.3,2.5,1.6,3.2c2.1,4.5,3.4,9.5,3.4,9.5c0.7,2.6,1.7,6.4,1.9,11.4c0.1,2,0.2,5.7-0.8,10.4
				c-0.2,1-1,4.6-3,8.9c-0.4,0.8-0.7,1.5-1,2c-0.2,0.7-0.4,1.7-0.8,2.9c-0.5,1.6-1.1,3.9-2.3,6.8c-1.1,2.7-2.2,4.7-2.6,5.6
				c-1.1,2-2,3.4-2.9,4.7c-0.4,0.6-1.4,2.2-2.9,4.1c-1.4,1.9-2.8,3.7-4.9,5.9c-2.2,2.4-4.2,4-4.7,4.5c-1.2,1-2.4,1.9-4.2,3.3
				c-1.2,0.9-2.1,1.6-2.4,1.8c-4.1,3-7.7,7.3-13.4,12.6c-1.9,1.8-2.7,2.3-4.4,4c-0.6,0.6-1.1,1.1-4.7,5.2c-2,2.3-3,3.5-4.1,4.7
				c-2.1,2.4-3.2,3.6-4.4,5.2c-1.6,2-2.7,3.5-3.7,4.9c-1.5,2-2.9,3.9-4.6,6.6c-2.6,4.2-4.4,7.6-5.3,9.2c-0.3,0.6-1,2-1.9,4
				c-0.9,2.1-2.4,5.2-3.6,9.2c-0.4,1.3-1.8,5.7-2.7,11.7c-0.7,4.9-1.3,8.5-0.7,12.4c0.1,0.7,0.4,2.4,0.9,6c0.5,3.3,0.4,3.2,0.5,3.9
				c0.5,3,1.4,5.1,2.4,7.6c0.9,2.3,1.8,4.5,3.5,7.3c0.4,0.6,2,3.2,4.7,6.3c1.3,1.5,3,3.3,5.7,5.3c1.2,0.9,3.7,2.6,7.3,4.1
				c2.5,1,5,1.6,9.9,2.6c2.2,0.5,5.1,1,8.5,1.6c-0.7-0.5-1.7-1.2-2.9-2c-4.5-2.9-6.4-3.5-8.8-5.2c-1.2-0.9-3.9-3-6.9-6.3
				c-0.9-1-4-4.5-6.9-10.1c-1.4-2.6-3.4-6.5-4.5-12c-0.9-4.2-0.9-7.4-0.8-12.9c0-3.4,0.1-7,1-11.7c0.8-4.1,1.8-7.1,2.4-8.8
				c0.4-1,2-5.8,5.4-11.9c1.3-2.3,2.4-4.3,4.2-6.8c0.3-0.4,1.1-1.5,4.3-5.1c3.1-3.5,4.6-5.2,5.6-6.2c3.4-3.3,4.6-3.5,8.7-7.1
				c2-1.8,2.6-2.7,5.4-5.3c1.7-1.5,3-2.6,4-3.5c9.2-7.8,11.2-9.2,14.9-12.7c1.1-1.1,3-2.9,5.3-5.3c6.7-7.1,10.8-12.9,12.1-14.8
				c1.5-2.3,3-4.4,4.6-7.5c1.8-3.4,2.9-6.3,3.6-8.5c0.6-1.6,1.3-3.6,2.1-6.2c0.7-2.6,1.5-5.3,1.8-8.9c0.3-3.5,0-6-0.3-9.1
				c-0.3-2.5-0.6-5.4-1.6-9.1c-1.3-4.7-3.1-8.1-4.1-10.1c-2-3.8-3.9-6.3-5.5-8.6c-0.8-1.1-3.1-4.2-6.6-7.9
				C469.2,364.7,466.8,362.2,463.8,359.8z"/>
			
				<linearGradient id="dna-strand-2-bottom_1_" gradientUnits="userSpaceOnUse" x1="521.9699" y1="472.1699" x2="422.934" y2="472.1699" gradientTransform="matrix(0.9744 0.2248 0.2248 -0.9744 -114.6513 895.4448)">
				<stop  offset="0" style="stop-color:#A19F9F"/>
				<stop  offset="1" style="stop-color:#E5E7E5"/>
			</linearGradient>
			<path id="dna-strand-2-bottom" class="st17" d="M435,484.8c-3.8,2.4-6.7,4.7-8.8,6.6c-0.6,0.5-2.6,2.4-5,5
				c-2.5,2.8-4.1,5-5.8,7.3c-2.5,3.4-3.8,5.2-5.2,8c-1.5,2.7-2.2,4.9-3.5,8.3c-1.2,3.2-2,5.4-2.7,8.5c-0.4,2-0.6,3.7-1,7.1
				c-0.4,3.7-0.6,5.6-0.7,8c-0.1,4.6,0.5,8.1,0.7,9.1c0.9,5,2.4,8.6,3.4,11c1,2.4,2.4,5.5,4.9,9.2c0.7,1,3.3,4.5,7.6,8.2
				c3.5,3,6.7,4.7,10,6.6c2.3,1.3,4.3,2.3,5.8,2.9c0.3,0,0.8,0.1,1.3,0.2c7,1.1,12,0.8,19.3,0.4c7.9-0.4,15.7-1.3,23.6-1.7
				c0.7,0,3.3-0.2,6.5-1.3c3.5-1.2,5.1-2.7,5.5-3.1c0.9-0.9,2.4-2.2,2.8-4.5c0.3-1.5,0.1-2.8-0.1-3.6c-0.2-0.7-0.7-2.4-2.1-3.4
				c-1-0.8-2.2-0.9-4.4-0.9c-4,0-7.1,0.5-7.6,0.6c0,0-1,0.2-8.1,1.2c-4.9,0.8-8.6,1.1-11.7,1.3c-4.2,0.3-7.3,0.6-11.5,0.6
				c-3.1,0-5.6,0-8.8-0.5c-5.9-0.8-10.1-2.5-11.5-3.1c-3.5-1.5-6.8-2.8-10.1-5.9c-2.7-2.5-4.2-5-6-8.1c-1.6-2.7-3.1-5.3-4.1-9.2
				c-0.9-3.6-0.9-6.4-0.9-9.3c0-1.2,0.1-5.7,1.4-11.6c0.3-1.3,1.6-7.1,5.1-14.3c2.6-5.4,5.2-9.2,8.3-13.6c1.6-2.3,2.9-4.1,4.9-6.5
				c3.2-3.9,4.9-5.6,5.6-6.4C433.1,486.4,434.2,485.5,435,484.8z"/>
		</g>
	</g>
	<path id="mitochondria-word" class="st0" d="M329.8,691.1c-2.6,0-5.2,0-7.5,0c-0.8-5.7-1.5-11.1-2.2-16.5c-0.2,0-0.4,0-0.5-0.1
		c-2.7,5.6-5.5,11.2-8.5,17.4c-3-6.1-5.8-11.6-8.8-17.7c-0.7,5.3-1.5,9.9-1.9,14.6c-0.1,0.8,1.4,1.7,2,2.3c-2,0-4.5,0-6.3,0
		c0.5-1,1.7-2.2,1.9-3.6c1.2-6.9,2.1-13.8,3.2-20.7c0.1-0.7,0.4-1.3,0.8-2.6c3.5,7.2,6.8,13.8,10.2,20.9c3.4-7,6.6-13.7,9.8-20.3
		c0.2,0,0.4,0,0.6,0.1c0.5,3,1,6,1.4,9c0.6,4.2,1.3,8.3,1.8,12.5C326.1,689.1,326.8,691.1,329.8,691.1z M338.5,687.7
		c0.1-4.8-0.1-9.7,0.1-14.5c0-1.3,0.9-2.5,1.3-3.5c-2.1,0-4.8,0-6.9,0c0.5,0.8,1.4,1.8,1.5,2.7c0.2,5.2,0.2,10.3,0,15.5
		c0,1.2-0.9,2.3-1.4,3.4c2.4,0,5.4,0,8.4,0C338.9,691.2,338.5,689.7,338.5,687.7z M343.1,673.5c2.1-2.4,2.7-2.5,8.4-2.2
		c0,5.9,0.1,11.9-0.1,17.8c0,0.7-1,1.4-1.5,2c2.6,0,5.6,0,8,0c-0.6-0.6-2.1-1.4-2.1-2.2c-0.2-5.9-0.1-11.8-0.1-18
		c2.8,0.8,5.9-0.9,7.7,2.7c0-1.7,0-3,0-4.3c-6.6,0-13,0-19.6,0C343.6,670.7,343.4,672,343.1,673.5z M389.9,679.8
		c0.1,6.8-5.4,12.1-12.7,12.1c-6.9,0-12.2-4.9-12.2-11.4c0-6.6,5.3-11.5,12.6-11.5C384.9,669,389.8,673.3,389.9,679.8z M386,681.3
		c-0.9-2.5-1.4-5.1-2.7-7.3c-1.7-2.9-4.7-3.7-7.9-3.3c-2.7,0.4-4.5,2-5.4,4.6c-1.1,3.3-0.9,6.6,0.5,9.8c1.8,3.8,5.4,5.8,9.2,5.2
		c3.2-0.5,5.2-3.4,5.6-7.7c0-0.4,0-0.7,0.1-1C385.6,681.4,385.8,681.4,386,681.3z M402.5,671c1.9-0.4,4.2-0.5,6.1,0.1
		c1.8,0.6,3.2,2.2,4.6,3.3c0-0.9,0.1-2.4,0.2-4.2c-4.2-1-8.3-1.4-12.4-0.4c-4.6,1.1-7.7,4.8-8.2,9.8c-0.5,4.4,1.8,9.1,6.1,10.6
		c3.3,1.2,7,1.5,10.6,1.5c3.6,0,4.2-1.4,3.6-5.1c-1.7,3.3-4,4.3-7.9,3.4c-4.7-1-7.8-4.6-8-9.2C397,675.3,398.7,671.9,402.5,671z
		 M442,691.2c-0.2,0-0.4,0-0.6,0C441.6,691.2,441.8,691.2,442,691.2z M439.1,687.6c0-5-0.1-10,0.1-15c0-1,1-2,1.5-2.8
		c-2.4,0-5.2,0-8.8,0c3.6,0.9,4,2.5,3,9c-3.8,0-7.7,0-11.9,0c1.3-3.1-1.9-7,2.3-9c-2.8,0-5.7,0-8,0c0.6,0.8,1.8,1.7,1.9,2.6
		c0.2,5.3,0.1,10.5,0,15.8c0,1.1-0.9,2.2-1.3,3.1c2.4,0,5.5,0,8.5,0c-2.8,0.1-3-1.7-3-3.9c0.1-2.1,0-4.3,0-6.7c4.1,0,8,0,11.9,0
		c0,2.3,0,4.5,0,6.6c0,1.8,0,3.5-2.3,3.9c2.9,0,5.7,0,8.6,0C439.3,691.1,439.1,689.4,439.1,687.6z M469.3,680
		c0,6.9-5.6,12.1-12.9,11.9c-7-0.2-12.2-5.2-12-11.5c0.1-6.7,5.5-11.4,12.8-11.3C464.5,669.1,469.4,673.5,469.3,680z M465.3,681
		c-0.8-2.3-1.3-4.8-2.6-6.9c-1.8-3-4.8-3.9-8.1-3.4c-2.7,0.4-4.5,2.1-5.3,4.7c-1.2,3.6-0.8,7.2,1,10.5c1.8,3.4,5.7,5.1,9.2,4.3
		c2.9-0.7,4.8-3.3,5.2-7.3c0.1-0.6,0.1-1.2,0.2-1.8C465,681.1,465.2,681,465.3,681z M491.9,671.6c0.2,4.5,0.1,9,0.1,13.9
		c-5.8-5.6-11.4-11.1-17-16.5c-0.3,0.1-0.6,0.3-0.9,0.4c0,5.9,0,11.7,0,17.6c0,1.9,0.2,3.9-2.4,4.3c2.6,0,5.1,0,7.2,0
		c-0.6-0.7-2-1.5-2-2.4c-0.2-4.2-0.1-8.4-0.1-12.8c5.6,5.5,11.1,10.8,16.5,16.1c0.3-0.1,0.5-0.2,0.8-0.3c0-0.9,0.1-1.8,0.1-2.7
		c0.1-5.4,0.2-10.9,0.4-16.3c0-1.1,0.9-2.1,1.4-3.1c-1.9,0-4.3,0-6.4,0C490.4,670.2,491.9,670.9,491.9,671.6z M524.4,681.1
		c-0.2,5.2-3.9,9.7-9.2,10.2c-4.8,0.5-9.8,0.1-14.2,0.1c0.6-1,1.5-1.7,1.5-2.5c0.2-5.6,0.2-11.2,0.1-16.8c0-0.9-1.3-1.7-2.2-2.7
		c5.3,0.3,10.9,0.1,16.4,1C522.1,671.3,524.6,675.5,524.4,681.1z M506.8,671.5c0,5.4-0.1,10.7,0.1,15.9c0,0.8,0.7,2.1,1.4,2.4
		c4.1,2.2,10.5-0.5,11.6-5C522.4,674.3,514.6,669.8,506.8,671.5z M549.5,690.5c0.5,0.2,0.9,0.3,1.2,0.3h0v0.5
		c-1.3,0-2.6-0.1-3.9-0.1c-1.6-0.1-3.2-1.5-4.5-2.6c-1.2-1-2.2-2.5-3-3.9c-1.1-2-2.7-2.7-5-2.1c0,1.6,0,3.2,0,4.8
		c0,2,0.1,3.8,2.8,3.7h-8.2c0.5-1,1.4-2,1.5-3.1c0.2-5.3,0.2-10.5,0-15.8c0-1-1.4-1.9-1.8-2.4c3.3,0,7.3-0.3,11.3,0.1
		c4.5,0.5,6,4.5,3.4,8.2c-0.8,1.1-1.8,2-2.9,3.2c2.3,2.5,4.6,5.1,6.9,7.7C547.9,689.7,548.7,690.2,549.5,690.5z M540,679.4
		c1.3-2.1,1.3-4.3,0-6.3c-1.4-2.1-3.5-2.2-5.7-1.7v9.5C536.5,680.9,538.7,681.7,540,679.4z M558.6,690.6c-0.8-0.3-1.5-2-1.5-3
		c-0.2-4.9-0.2-9.9,0-14.8c0-1.1,0.9-2.2,1.3-3.2h-7c0.5,0.8,1.5,1.8,1.6,2.7c0.1,5.3,0.1,10.7-0.1,16.1c0,1.3-0.5,2.1-1.2,2.4v0.6
		c2.6,0,5.2,0,7.7,0v-0.6h0C559.1,690.8,558.9,690.7,558.6,690.6z M583.5,691.3h-5.9c-0.8-2.1-1.5-4.2-2.4-6.2
		c-0.2-0.4-0.8-0.8-1.3-0.9c-0.8-0.1-1.7,0-2.6,0c-4.5,0-4.7,0-5.8,4.3c-0.2,0.8,0.4,1.9,0.6,3c-1.9,0-3.8,0-5.8,0v-0.5
		c1-0.1,2-0.7,2.5-2c2.1-5,4.3-9.9,6.5-14.9c0.7-1.6,1.5-3.3,2.5-5.4c0.8,1.6,1.4,2.7,1.9,3.8c2.2,5.1,4.4,10.3,6.8,15.3
		C581.2,689.1,582.6,690.2,583.5,691.3z M574.2,682.4c-1-2.5-1.9-4.8-3.1-7.7c-1.2,2.9-2.1,5.3-3.1,7.7H574.2z"/>
	<path id="jesse-word" class="st18" d="M303.9,76.7c-0.3,0.1-0.5,0.2-0.8,0.2c-3,0.4-3.5,0.9-3.5,3.9c0,10.7,0,21.4,0,32.1
		c0,9-5.2,14.5-12.7,18.4c-0.4,0.2-0.8,0.2-1.2,0.2c0-0.2-0.1-0.3-0.2-0.5c0.2-0.2,0.3-0.4,0.5-0.6c4.8-2.9,6.5-7.5,6.6-12.7
		c0.2-12.6,0.1-25.2,0.1-37.8c0-1.9-1-2.8-3.1-3c-0.6-0.1-1.2-0.1-2-0.2C288.7,75.7,303.1,75.8,303.9,76.7z M332.3,110
		c-0.7,2.8-1.6,3.7-4.6,3.9c-1.7,0.1-3.4,0.1-5.1,0c-2.8-0.2-4-1.5-4-4.3c0-3.4,0-6.9,0-10.3c0-0.9,0-1.8,0-2.5c2.8,0,5.3-0.1,7.8,0
		c2.7,0.2,3.2,0.9,3.4,3.6c0,0.3,0.2,0.5,0.2,0.8c0.2,0,0.4,0,0.5,0c0.3-3.1,0.5-6.1,0.8-9.4c-4.2,3-8.6,1.2-12.7,1.8
		c0-5.1,0-9.9,0-14.9c3.1,0.2,6.1,0.2,9,0.5c1.7,0.2,2.5,1.3,2.7,3c0,0.5,0.2,1,0.2,1.5c0.2,0,0.4,0,0.6,0c0.3-2.8,0.5-5.7,0.8-8.2
		c-8.5,0.8-16.9,0.1-25.3,0.6c0.5,0.5,1,0.7,1.5,0.7c2.5,0.2,3.4,1.1,3.4,3.6c0,10.4,0,20.7-0.1,31.1c0,3.7-0.7,4.4-3.7,4.5
		c-0.1,0-0.3,0.2-0.4,0.3c0,0.1,0,0.3,0,0.4c0.7,0,1.3,0.1,2,0.1c4.2,0,8.4,0,12.6,0c2.8,0,5.6,0.2,8.3,0.1c0.7,0,1.9-0.5,1.9-1
		c0.4-2.3,0.6-4.7,0.9-7.1c0-0.1-0.2-0.3-0.6-0.8C332.5,109.1,332.4,109.6,332.3,110z M352.1,91.7c-1.6-1.3-3.5-2.4-5-3.9
		c-1.9-1.9-2.2-4.9-0.9-7.1c1.4-2.3,4.6-3.5,8-2.8c2.7,0.5,4.7,2.8,5,5.5c0.1,0.5,0.2,0.9,0.3,1.4c0.2,0,0.3,0,0.5,0
		c0.1-0.5,0.2-1,0.3-1.5c0.1-2,0.1-3.9,0.3-5.9c0.1-1.1-0.3-1.7-1.3-1.8c-3.1-0.2-6.4-0.8-9.4-0.3c-10.7,1.7-11.8,12.2-7.6,17.8
		c1.7,2.2,4.2,3.9,6.4,5.8c1.7,1.4,3.7,2.5,5.2,4.1c3.2,3.3,2.4,9-1.4,11.2c-4.8,2.7-11.1-0.3-11.9-5.7c-0.1-0.8-0.3-1.6-0.4-2.5
		c-0.1,0-0.3,0-0.4-0.1c-0.2,0.3-0.5,0.7-0.5,1c-0.1,2.6-0.3,5.1-0.3,7.7c0,0.7,0.7,1.7,1.3,1.9c1.8,0.7,3.8,1.3,5.7,1.6
		c3.7,0.5,7.3-0.1,10.3-2.4c6-4.4,7.1-13,2.3-18.6C356.8,95,354.3,93.4,352.1,91.7z M380.9,91.7c-1.7-1.3-3.5-2.4-5-3.9
		c-2-2-2.2-5.2-0.6-7.3c1.6-2.3,4.9-3.3,8.1-2.5c2.5,0.6,4.3,2.9,4.7,5.7c0,0.4,0.2,0.8,0.3,1.2c0.2,0,0.3,0,0.5,0
		c0.1-0.5,0.2-1,0.2-1.5c0.1-2,0.1-3.9,0.3-5.9c0.1-1.1-0.4-1.6-1.4-1.8c-3.2-0.6-6.3-1-9.6-0.4c-7,1.2-11,7.4-9.1,14.3
		c1.1,4,4,6.5,7.2,8.7c2,1.4,4.1,2.7,5.9,4.4c2.4,2.2,2.9,5.7,1.6,8.6c-1.1,2.5-3.7,4-6.6,3.9c-3.8-0.2-6.6-2-7.6-5.1
		c-0.4-1.3-0.5-2.6-0.9-4.4c-0.4,0.6-0.7,0.8-0.8,1c-0.2,2.8-0.3,5.5-0.3,8.3c0,0.5,0.5,1.2,0.9,1.4c4.3,1.9,8.6,2.4,13.3,0.9
		c9-3,10.8-14.5,5.1-20.6C385.3,94.8,383,93.3,380.9,91.7z M419.9,108.3c-0.2,0.8-0.3,1.2-0.4,1.7c-0.7,2.8-1.6,3.7-4.6,3.9
		c-1.7,0.1-3.4,0.1-5.1,0c-2.8-0.2-4-1.5-4-4.3c0-3.4,0-6.9,0-10.3c0-0.9,0-1.8,0-2.5c2.8,0,5.3-0.1,7.8,0c2.7,0.2,3.2,0.9,3.4,3.6
		c0,0.3,0.2,0.5,0.2,0.8c0.2,0,0.4,0,0.5,0c0.3-3.1,0.5-6.1,0.8-9.4c-4.2,3-8.5,1.2-12.7,1.8c0-5.1,0-9.9,0-14.9
		c3.1,0.2,6.1,0.2,9,0.5c1.7,0.2,2.5,1.3,2.7,3c0,0.5,0.2,1,0.2,1.5c0.2,0,0.4,0,0.6,0c0.3-2.8,0.5-5.7,0.8-8.2
		c-8.5,0.7-16.9,0.1-25.3,0.6c0.5,0.5,1,0.7,1.5,0.7c2.5,0.2,3.4,1.1,3.4,3.6c0,10.4,0,20.7-0.1,31.1c0,3.7-0.7,4.4-3.7,4.5
		c-0.1,0-0.3,0.2-0.4,0.3c0,0.1,0,0.3,0,0.4c0.7,0,1.3,0.1,2,0.1c4.2,0,8.4,0,12.6,0c2.8,0,5.6,0.2,8.4,0.1c0.7,0,1.8-0.5,1.9-1
		c0.4-2.3,0.6-4.7,0.8-7.1C420.5,108.9,420.2,108.8,419.9,108.3z"/>
	<path id="james-word" class="st18" d="M450.3,80.8c0,10.2-0.1,20.5,0.1,30.8c0.2,9.3-4.4,15.4-12.2,19.6c-0.5,0.3-1.2,0.4-1.8,0.6
		c-0.1-0.2-0.2-0.3-0.2-0.5c0.2-0.2,0.3-0.5,0.5-0.6c5-3.1,6.6-7.9,6.7-13.4c0.1-12.2,0.1-24.4,0.1-36.6c0-2.5-0.9-3.4-3.4-3.6
		c-0.4,0-0.9-0.1-1.3-0.1c-0.1,0-0.1-0.2-0.4-0.5c0.6-0.2,1.1-0.4,1.6-0.4c4.4,0,8.8,0,13.2,0c0.5,0,1,0.2,1.5,0.4
		c0,0.1,0,0.3,0,0.4c-0.3,0.1-0.6,0.2-0.9,0.2C450.9,77.4,450.3,77.9,450.3,80.8z M491.3,116.1c0,0.4,0,0.7,0,1.1
		c-3.5,0-6.9-0.1-10.3-0.1c-0.3,0-0.5-0.1-1.3-0.3c2.2-0.9,1.4-2.2,1-3.4c-1-2.9-2.1-5.7-3-8.6c-0.3-0.9-0.6-1.3-1.7-1.3
		c-3.4,0.1-6.9,0-10.3,0.1c-0.5,0-1.2,0.5-1.4,0.9c-1,2.5-1.9,5-2.8,7.5c-1.1,3.4-0.7,4,3.2,4.4c-0.4,0.4-0.7,0.9-0.9,0.9
		c-3.9,0-7.8,0-11.6,0c-0.3,0-0.6-0.3-1.1-0.6c0.6-0.2,0.9-0.4,1.1-0.4c2.8,0.1,4.2-1.6,5.1-4c1.9-5.1,3.9-10.1,5.9-15.2
		c2.5-6.6,5.1-13.3,7.6-19.9c0-0.1,0.1-0.2,0.1-0.3c0.5-0.7,1-1.4,1.6-2.1c0.5,0.7,1.1,1.3,1.4,2.1c1.8,4.6,3.5,9.2,5.3,13.8
		c2.6,6.7,5.2,13.5,7.8,20.2c0.6,1.4,1.4,2.8,2.4,4.1C489.8,115.5,490.5,116,491.3,116.1z M476,100.5c-1.7-4.9-3.3-9.7-5.1-14.9
		c-1.9,5.3-3.5,10-5.3,14.9H476z M536.8,112.1c-1-7.2-2-14.5-3-21.7c-0.6-4.7-1.3-9.4-2-14.1c-0.1-0.6-0.6-1.1-0.9-1.6
		c-0.5,0.4-1,0.7-1.3,1.2c-0.3,0.4-0.5,1-0.7,1.5c-4.3,9.7-8.6,19.5-13,29.5c-0.4-0.9-0.8-1.6-1.1-2.3c-4.2-9.4-8.4-18.8-12.6-28.3
		c-0.3-0.7-1-1.1-1.6-1.6c-0.3,0.5-0.8,1.1-0.9,1.6c-1.1,8-2.2,16.1-3.4,24.1c-0.6,4.4-1.2,8.7-2,13.1c-0.2,0.9-0.9,2-1.6,2.3
		c-0.3,0.1-0.5,0.2-0.8,0.2c0,0.4,0,0.7,0,1.1c3.2,0,6.5,0.1,9.7,0.1c0.4,0,0.7-0.3,1.1-0.5c-0.5-0.5-1-0.6-1.5-0.7
		c-2.6-0.5-2.7-0.6-2.6-3.2c0-0.5,0.1-1,0.1-1.5c0.5-4.5,1-9,1.5-13.5c0.3-2.5,0.6-5,0.9-7.9c0.5,1,0.7,1.5,1,2.1
		c3.4,7.5,6.8,15,10.2,22.5c0.4,0.9,1,1.7,1.6,2.5c0.2,0,0.4,0,0.6,0c4.4-9,8.1-18.3,12.5-27.6c0.2,0.5,0.2,0.7,0.3,0.8
		c0.8,6.4,1.6,12.8,2.2,19.1c0.2,2.2,1.4,4.6-0.3,6.7c2.3,1,12.3,1,13.3,0c-0.7-0.1-1.3-0.2-2-0.3
		C538,115.6,537.2,114.9,536.8,112.1z M568.9,111c-0.4,1.5-1.2,2.7-2.8,2.8c-2.6,0.2-5.2,0.2-7.8,0c-1.6-0.1-2.7-1.4-2.7-3
		c-0.1-4.7,0-9.3,0-14.2c3,0.2,5.8,0.2,8.6,0.5c1.6,0.1,2.3,1.2,2.5,2.8c0,0.5,0.1,1.1,0.2,1.6c0.2,0,0.4,0,0.7,0
		c0.3-3.1,0.5-6.1,0.8-9.3c-4.2,2.9-8.5,1.1-12.6,1.8c0-5.1,0-9.9,0-14.9c3,0.2,5.9,0.2,8.8,0.5c1.8,0.2,2.7,1.1,2.9,3
		c0.1,0.5,0.2,1.1,0.3,1.6c0.2,0,0.4,0,0.7,0c0.3-2.8,0.5-5.6,0.8-8.1c-8.5,0.6-16.8,0.1-25.2,0.2c-0.1,0.2-0.2,0.4-0.2,0.6
		c0.4,0.2,0.9,0.4,1.3,0.4c3,0.3,3.7,1,3.7,4c0,7.3,0.1,14.6,0,21.9c0,3.6-0.2,7.2-0.3,10.8c-0.1,1.5-1,2.2-2.4,2.4
		c-0.5,0.1-1,0.2-1.5,0.4c0,0.1,0,0.3,0.1,0.4c0.6,0,1.1,0.1,1.7,0.1c1.4,0,2.7-0.1,4.1-0.1c5.6,0.1,11.2,0.2,16.9,0.3
		c0.7,0,2-0.4,2.1-0.8c0.4-2.5,0.6-5.1,0.8-7.7c0,0-0.2,0-0.5-0.1C569.2,109.5,569.1,110.2,568.9,111z M595.3,97
		c-2-2.2-4.6-3.8-7-5.6c-1.5-1.2-3.2-2.3-4.6-3.7c-1.8-1.8-2-4.9-0.7-7c1.5-2.3,4.7-3.4,8-2.7c2.6,0.6,4.6,2.8,5,5.6
		c0.1,0.4,0.2,0.9,0.2,1.3c0.2,0,0.4,0,0.6,0c0.1-0.5,0.2-0.9,0.2-1.3c0.1-2,0.1-4,0.3-6c0.1-1.2-0.5-1.7-1.4-1.7
		c-3.1-0.2-6.2-0.8-9.2-0.3c-10.8,1.7-12,12.2-7.5,18c1.6,2,3.8,3.6,5.8,5.2c1.8,1.5,4,2.7,5.7,4.4c3.2,3.3,2.5,9-1.2,11.2
		c-4.7,2.8-11.1-0.2-12-5.6c-0.1-0.9-0.3-1.7-0.5-3c-0.5,0.7-0.8,0.9-0.8,1.2c-0.2,2.8-0.3,5.5-0.3,8.3c0,0.5,0.6,1.2,1.1,1.4
		c4.3,1.8,8.5,2.3,13.1,0.8C599,114.4,600.8,103.1,595.3,97z"/>
	<path id="method-word" class="st19" d="M380.1,156.5c-0.1,0.2-0.2,0.3-0.3,0.5c-2.3,0-4.6,0-6.6,0c-0.5-4.8-1-9.5-1.5-14.1
		c-0.1,0-0.2-0.1-0.3-0.1c-2.2,4.8-4.4,9.7-6.6,14.5c-0.2,0-0.4,0.1-0.6,0.1c-2.2-4.7-4.4-9.4-6.7-14.5c-0.5,4.3-1,8.2-1.4,12.1
		c-0.1,0.9,0.3,1.4,1.2,1.6c0.3,0,0.6,0.2,0.9,0.5c-2.2,0-4.4,0-6.5,0c3.3-0.9,2.2-3.8,2.6-5.8c1-5.2,1.6-10.5,2.3-15.8
		c0.1-0.4,0.2-0.8,0.3-1.2c0.2,0,0.4,0,0.6-0.1c2.6,5.7,5.1,11.4,7.8,17.3c2.7-5.9,5.2-11.6,7.8-17.3c0.2,0,0.5,0,0.7,0
		c0.2,0.9,0.4,1.8,0.5,2.7c0.8,5.4,1.5,10.9,2.2,16.3C376.8,155.2,377.3,156.8,380.1,156.5z M402.7,153.3c-0.8,2.4-4.9,3.5-6.7,1.7
		c-0.3-0.3-0.6-0.8-0.6-1.3c-0.1-2.5,0-5.1,0-7.8c2.4,0.6,5.6-1.4,6.5,2.6c0.1-1.6,0.2-3.3,0.3-4.5c-2.3,0.2-4.5,0.3-6.8,0.4
		c0-2.8,0-5.3,0-8c2.4,0.7,5.6-1.4,6.8,2.6c0.1-1.5,0.3-3,0.4-4.2c-4.6,0-9.1,0-13.6,0c0,0.1,0,0.3,0,0.4c0.3,0.1,0.6,0.2,0.9,0.2
		c1.2,0,1.8,0.7,1.8,1.9c0,5.6,0,11.1,0,16.7c0,1.4-0.3,2.8-2.4,2.5c0,0.2,0.1,0.4,0.1,0.5c0.4,0.1,0.9,0.3,1.3,0.3
		c2.1,0,4.2-0.1,6.4-0.1c1.6,0,3.2,0.2,4.7,0.2c0.4,0,1.1-0.3,1.1-0.6c0.2-1.3,0.3-2.7,0.5-4C402.8,152.9,402.7,153.1,402.7,153.3z
		 M413,138.8c1-0.8,1.7-1.7,2.5-1.9c1.7-0.4,3.5-0.3,5.3-0.4c0,5.5,0,10.8,0,16.2c0,1.8,0.5,3.8-2.2,4.2c3,0,5.9,0,8.9,0
		c-2.6-0.9-2.8-0.9-2.9-3.2c-0.1-5.7,0-11.3,0-17.3c2.6,0.7,5.8-1.1,7.3,2.6c0-1.5,0-3,0-4.4c-6,0-12,0-18.2,0
		C413.5,136.1,413.2,137.5,413,138.8z M462.5,154c0-5.5,0-11,0-16.5c0-1.1,0.3-2,1.6-2c0.2,0,0.4-0.2,0.6-0.3c0-0.1-0.1-0.2-0.1-0.2
		c-2.8,0-5.7,0-8.5,0c1.1,0.6,2.6,0.5,2.6,2.3c0,2.1,0.1,4.2,0,6.4c0,0.3-0.6,0.9-0.9,0.9c-3.2,0.1-6.4,0-9.8,0c0-1.8-0.1-3.5,0-5.2
		c0.1-1.8-0.8-4,2.2-4.4c-2.8,0-5.7,0-8.9,0c3,1.1,3.1,1.1,3.1,4.2c0,4.6,0,9.2,0,13.8c0,1.7,0.3,3.6-2.2,4c2.9,0,5.9,0,8.8,0
		c-0.3-0.4-0.6-0.5-0.9-0.5c-1.3,0.1-1.9-0.6-1.9-1.8c-0.1-2.8,0-5.5,0-8.3c3.6,0,7,0,10.6,0c0,2.2,0,4.3,0,6.4
		c0,1.7,0.4,3.7-2.2,4.1c3,0,5.9,0,8.9,0c0.1-0.2,0.2-0.3,0.3-0.5C463.5,156.8,462.5,156.1,462.5,154z M498.5,145.6
		c0,7-4.8,11.9-11.5,11.9c-6.7,0-11.2-4.6-11.2-11.5c0-6.8,4.7-11.4,11.5-11.4C494.2,134.6,498.5,138.8,498.5,145.6z M494.5,146.3
		c-0.2-2.6-0.8-5.1-2.3-7.2c-2.8-3.8-8.4-4-10.9-0.3c-2.7,4-1.8,11.8,1.7,15c3.8,3.6,9.3,2.3,10.8-2.7
		C494.2,149.6,494.3,148,494.5,146.3z M531.1,147.6c-1,6.5-5.2,9.9-11.8,9.9c-3.5,0-6.9-0.3-10.4-0.4c0-0.2,0-0.4,0.1-0.4
		c1.9,0,2.1-1.3,2.1-2.7c0-5.5,0-11,0-16.5c0-1.9-1.5-1.8-2.7-2.1c0-0.2,0.1-0.4,0.1-0.6c4.9,0.2,9.8,0,14.6,0.7
		C530,136.4,531.9,142.5,531.1,147.6z M527.3,146.1c-0.1-6.2-4.9-10.4-11.1-9.6c-1,0.1-1.3,0.4-1.3,1.4c0,2.5,0,5,0,7.5c0,0,0,0,0,0
		c0,2.6,0,5.1,0,7.7c0,1.2,0.3,2.2,1.6,2.5c2.8,0.6,5.4,0.5,7.8-1.2C527.1,152.3,527.4,149.2,527.3,146.1z"/>
	<path id="arrows" class="st19" d="M583.5,147.5c-13.6,0-27.9,0-42.3,0c0-0.7,0-1.5,0-2.5C555.5,145.9,569.9,146.7,583.5,147.5z
		 M302.4,147.6c13.3,0,26.7,0,40,0c0-0.9,0-1.6,0-2.5c-13.5,0.8-26.8,1.6-40,2.3C302.4,147.5,302.4,147.5,302.4,147.6z"/>
</g>
</svg>
