<?xml version="1.0" encoding="utf-8"?>
<!-- Generator: Adobe Illustrator 24.3.0, SVG Export Plug-In . SVG Version: 6.00 Build 0)  -->
<svg version="1.1" id="mitochondria-balance-logo-2"
	 xmlns="http://www.w3.org/2000/svg" xmlns:xlink="http://www.w3.org/1999/xlink" x="0px" y="0px" viewBox="0 0 864 864"
	 style="enable-background:new 0 0 864 864;" xml:space="preserve">
<style type="text/css">
	.st0{fill:url(#background-circle_1_);}
	.st1{fill:url(#ekg-top-back_1_);}
	.st2{fill:url(#ekg-top-front_1_);}
	.st3{fill:url(#ekg-middle-back-1_1_);}
	.st4{fill:url(#ekg-middle-front-1_1_);}
	.st5{fill:url(#ekg-middle-back-2_1_);}
	.st6{fill:url(#ekg-middle-front-2_1_);}
	.st7{fill:url(#ekg-middle-back-3_1_);}
	.st8{fill:url(#ekg-middle-front-3_1_);}
	.st9{fill:url(#ekg-bottom-back_1_);}
	.st10{fill:url(#ekg-bottom-front_1_);}
	.st11{fill:url(#dna-strand-1-top_1_);}
	.st12{fill:#FFFFFF;}
	.st13{fill:url(#dna-strand-1-bottom_1_);}
	.st14{fill:url(#dna-strand-2-top_1_);}
	.st15{fill:url(#dna-strand-2-middle_1_);}
	.st16{fill:url(#dna-strand-2-bottom_1_);}
	.st17{fill:#DA2A2A;}
	.st18{fill:#0C0C0C;}
	.st19{fill:#DA2528;}
</style>
<g id="mitochondria-balance-logo-2-parts">
	<linearGradient id="background-circle_1_" gradientUnits="userSpaceOnUse" x1="199.47" y1="420.14" x2="664.47" y2="420.14">
		<stop  offset="0" style="stop-color:#BF2227"/>
		<stop  offset="0.6199" style="stop-color:#EE3025"/>
	</linearGradient>
	<path id="background-circle" class="st0" d="M596.4,255.7c-43.9-43.9-102.3-68.1-164.4-68.1s-120.5,24.2-164.4,68.1
		c-43.9,43.9-68.1,102.3-68.1,164.4s24.2,120.5,68.1,164.4c43.9,43.9,102.3,68.1,164.4,68.1s120.5-24.2,164.4-68.1
		c43.9-43.9,68.1-102.3,68.1-164.4S640.3,299.7,596.4,255.7z M432,645.6c-124.3,0-225.5-101.2-225.5-225.5S307.6,194.6,432,194.6
		s225.5,101.1,225.5,225.5C657.5,544.5,556.3,645.6,432,645.6z M644.1,419.4c0,116.7-94.6,211.3-211.3,211.3
		s-211.4-94.6-211.4-211.3S316,208,432.8,208S644.1,302.7,644.1,419.4z"/>
	<g id="dna-strands">
		<g id="ekg-top">
			
				<linearGradient id="ekg-top-back_1_" gradientUnits="userSpaceOnUse" x1="374.8017" y1="699.1332" x2="436.6485" y2="699.1332" gradientTransform="matrix(0.9744 0.2248 0.2248 -0.9744 -114.6513 895.4448)">
				<stop  offset="0" style="stop-color:#959636"/>
				<stop  offset="2.520000e-02" style="stop-color:#949536"/>
				<stop  offset="0.4969" style="stop-color:#878935"/>
				<stop  offset="1" style="stop-color:#838534"/>
			</linearGradient>
			<path id="ekg-top-back" class="st1" d="M405.4,308.4c2.4-0.2,4.4-0.3,5.7-0.4c0.6,0,3.2-0.2,6.4-0.5c2.9-0.3,3.8-0.5,4.6-1.2
				c1.1-1,1.2-2.5,1.3-3.4c0.6,0.7,1.1,1.4,1.6,2c0.5,0.8,0.7,1.1,1.1,1.5c0.5,0.4,1.2,0.9,2.4,1.1c3.1-0.1,7-0.3,10.1-0.4
				c2.4-0.1,6.2-0.2,8.5-0.4c0.2,0.1,0.6,0.1,0.9,0c0.5-0.2,0.7-0.7,0.8-1c0.3-1,1.4-4.8,2.7-9.9c0.5,1.5,1,3.1,1.6,4.6
				c0.9,2.6,1.8,5.2,2.7,7.8c0,0,0,0.1,0.1,0.2c0.1,0.1,0.2,0.1,0.4,0c0.3-1.1,0.5-2,0.7-2.7c0.2-0.7,0.4-1.2,0.6-1.2
				c0.2,0,0.5,0.5,0.7,1c0.2,0.5,0.3,0.9,0.6,1.1c0.1,0.1,0.3,0.2,0.4,0.2c1.1,0.3,3.2,0,4.5-0.1c0.3,0,0,0,1.5,0
				c2.9-0.1,3.6-0.2,3.9,0.2c0.1,0.2,0.1,0.5-0.4,1.3c-1.8-0.1-3.2,0-4.1,0c-1.5,0.1-2.9,0.3-5.1,0.3c-0.4,0-0.6,0-0.8,0
				c0-0.2,0-1.4-0.7-1.8c-0.1,0-0.1-0.1-0.2-0.1c-0.4,0.6-0.6,1.1-0.7,1.5c-0.2,0.6-0.2,1.1-0.6,1.8c-0.2,0.3-0.3,0.5-0.4,0.6
				c-0.1-0.1-0.3-0.1-0.4-0.2c-0.8-1.8-1.4-3-1.8-3.9c-1.7-3.7-1.8-3.8-1.8-3.9c0-0.1,0-0.3-0.2-0.5c-0.1-0.1-0.3-0.1-0.5-0.1
				c-0.3,0.8-0.6,1.4-0.8,1.9c-0.8,2-1.2,3-1.3,3.5c-0.3,1-0.2,1.5-0.7,1.8c-0.6,0.5-1.4,0.4-1.8,0.3c-0.5-0.1-3.1-0.1-8.4-0.2
				c-2,0-4.3-0.1-6.5,0.3c-0.5,0.1-2.1,0.4-4.2,0c-0.3,0-0.6-0.1-0.8-0.1c-0.4-0.4-0.8-0.9-1.3-1.4c-0.6-0.6-1.1-1.3-1.5-1.9
				c-0.2,0.1-0.4,0.4-0.6,0.6c-0.5,0.4-1,0.9-1.4,1.1c-0.8,0.6-1.6,0.8-2.5,1.1c-0.6,0.2-1.6,0.5-3.1,0.8c-1.7,0.3-1.8,0.1-4.2,0.4
				c-2.3,0.3-3.4,0.4-3.8,0.5c-1.4,0.3-2,0.5-2.5,0.1C405.2,310.2,405.3,309,405.4,308.4z"/>
			
				<linearGradient id="ekg-top-front_1_" gradientUnits="userSpaceOnUse" x1="375.0048" y1="699.3647" x2="436.8517" y2="699.3647" gradientTransform="matrix(0.9744 0.2248 0.2248 -0.9744 -114.6513 895.4448)">
				<stop  offset="0" style="stop-color:#F2EA1A"/>
				<stop  offset="1" style="stop-color:#F1EA19"/>
			</linearGradient>
			<path id="ekg-top-front" class="st2" d="M405.7,308.2c2.4-0.2,4.4-0.3,5.7-0.4c0.6,0,3.2-0.2,6.4-0.5c2.9-0.3,3.8-0.5,4.6-1.2
				c1.1-1,1.2-2.5,1.3-3.4c0.6,0.7,1.1,1.4,1.6,2c0.5,0.8,0.7,1.1,1.1,1.5c0.5,0.4,1.2,0.9,2.4,1.1c3.1-0.1,7-0.3,10.1-0.4
				c2.4-0.1,6.2-0.2,8.5-0.4c0.2,0.1,0.6,0.1,0.9,0c0.5-0.2,0.7-0.7,0.8-1c0.3-1,1.4-4.8,2.7-9.9c0.5,1.5,1,3.1,1.6,4.6
				c0.9,2.6,1.8,5.2,2.7,7.8c0,0,0,0.1,0.1,0.2c0.1,0.1,0.2,0.1,0.4,0c0.3-1.1,0.5-2,0.7-2.7c0.2-0.7,0.4-1.2,0.6-1.2
				c0.2,0,0.5,0.5,0.7,1c0.2,0.5,0.3,0.9,0.6,1.1c0.1,0.1,0.3,0.2,0.4,0.2c1.1,0.3,3.2,0,4.5-0.1c0.3,0,0,0,1.5,0
				c2.9-0.1,3.6-0.2,3.9,0.2c0.1,0.2,0.1,0.5-0.4,1.3c-1.8-0.1-3.2,0-4.1,0c-1.5,0.1-2.9,0.3-5.1,0.3c-0.4,0-0.6,0-0.8,0
				c0-0.2,0-1.4-0.7-1.8c-0.1,0-0.1-0.1-0.2-0.1c-0.4,0.6-0.6,1.1-0.7,1.5c-0.2,0.6-0.2,1.1-0.6,1.8c-0.2,0.3-0.3,0.5-0.4,0.6
				c-0.1-0.1-0.3-0.1-0.4-0.2c-0.8-1.8-1.4-3-1.8-3.9c-1.7-3.7-1.8-3.8-1.8-3.9c0-0.1,0-0.3-0.2-0.5c-0.1-0.1-0.3-0.1-0.5-0.1
				c-0.3,0.8-0.6,1.4-0.8,1.9c-0.8,2-1.2,3-1.3,3.5c-0.3,1-0.2,1.5-0.7,1.8c-0.6,0.5-1.4,0.4-1.8,0.3c-0.5-0.1-3.1-0.1-8.4-0.2
				c-2,0-4.3-0.1-6.5,0.3c-0.5,0.1-2.1,0.4-4.2,0c-0.3,0-0.6-0.1-0.8-0.1c-0.4-0.4-0.8-0.9-1.3-1.4c-0.6-0.6-1.1-1.3-1.5-1.9
				c-0.2,0.1-0.4,0.4-0.6,0.6c-0.5,0.4-1,0.9-1.4,1.1c-0.8,0.6-1.6,0.8-2.5,1.1c-0.6,0.2-1.6,0.5-3.1,0.8c-1.7,0.3-1.8,0.1-4.2,0.4
				c-2.3,0.3-3.4,0.4-3.8,0.5c-1.4,0.3-2,0.5-2.5,0.1C405.5,310,405.6,308.8,405.7,308.2z"/>
		</g>
		<g id="ekg-middle">
			
				<linearGradient id="ekg-middle-back-1_1_" gradientUnits="userSpaceOnUse" x1="449.4463" y1="663.8896" x2="397.696" y2="628.886" gradientTransform="matrix(0.9521 0.3059 0.3059 -0.9521 -159.8553 917.3578)">
				<stop  offset="0" style="stop-color:#828635"/>
				<stop  offset="3.330000e-02" style="stop-color:#828635"/>
				<stop  offset="1" style="stop-color:#828635"/>
			</linearGradient>
			<path id="ekg-middle-back-1" class="st3" d="M411.4,432.5c1.9-0.1,4.2-0.1,6.7,0.2c1.6,0.2,3,0.4,4.4,0.7
				c0.7-2.1,1.4-4.3,2.1-6.4c0.5,1,0.9,2,1.3,3c0.4,0.9,0.7,1.8,1,2.6c1.4-0.1,3.6-0.2,6.4-0.4c3.7-0.3,4.5-0.5,6.9-0.5
				c3.7-0.1,6.3,0.3,6.9,0.4c1.9,0.3,3.5,0.7,4.7,1c0.4-3.3,0.8-6.5,1.2-9.8c0.7,1.5,1.3,2.7,1.6,3.6c1,2.4,2,5,2,5
				c0.1,0,0.5-0.2,0.8-0.6c0.3-0.4,0.3-0.7,0.3-0.9c1.3-0.1,2.5-0.2,3.9-0.2c4.2-0.2,8.1-0.2,11.9,0c-0.1,0.4-0.2,0.7-0.4,1
				c-2.4,0.3-4.3,0.5-5.7,0.6c-1.1,0.1-2.3,0.2-3.4,0.3c-1.6,0.1-2.6,0.2-4,0.4c-0.7,0.1-1.3,0.2-1.8,0.3c-0.4,1.1-0.7,2.2-1.1,3.3
				c-0.1-0.2-0.4-0.6-0.6-1.1c-0.3-0.5-0.6-1.3-1.5-4.3c-0.2-0.6-0.4-1.3-0.8-2.2c-0.2-0.4-0.3-0.7-0.5-0.9
				c-0.2,1.5-0.4,2.7-0.5,3.5c-0.1,1.3-0.2,2.2-0.4,3.6c-0.1,0.8-0.3,1.4-0.4,1.8c-0.1,0-0.2,0.1-0.3,0.1c-0.2,0-0.3-0.2-0.5-0.5
				c-0.4-0.9-0.3-1.2-0.6-1.5c-0.1-0.1-0.3-0.3-0.6-0.5c-0.7,0-1.6-0.1-2.8-0.1c-1.5,0-2.9,0-5.8,0c-5.2,0.1-4.5,0.2-7.1,0.2
				c-1.2,0-2.5,0-4.4,0.1c-1.1,0.1-2,0.1-2.6,0.2c-0.2,1-0.3,1.8-0.3,2.4c0,0.5,0,1.4,0.1,2.1c0,0.2,0,0.4,0,0.6
				c-0.2-0.2-0.4-0.5-0.5-0.7c-0.4-1-0.6-1.7-0.7-2.2c-0.3-1.1-0.3-1.7-0.7-3.2c-0.2-0.8-0.4-1.5-0.5-1.9c-0.5,0.7-0.8,1.3-1,1.7
				c-0.1,0.3-0.3,1-0.7,2.2c0,0.1,0,0.2-0.1,0.2c-0.5-0.1-1.2-0.3-2.1-0.5c-1.7-0.3-3-0.4-4.4-0.6c-2.1-0.2-3.1-0.3-3.7-0.3
				c-0.9,0-1.9-0.2-2.8-0.1c-0.3,0-0.6,0-0.8-0.1c-0.4-0.4-0.1-1.5,0.8-1.7C410.7,432.2,411.2,432.5,411.4,432.5z"/>
			
				<linearGradient id="ekg-middle-front-1_1_" gradientUnits="userSpaceOnUse" x1="449.3739" y1="664.213" x2="397.6236" y2="629.2094" gradientTransform="matrix(0.9521 0.3059 0.3059 -0.9521 -159.8553 917.3578)">
				<stop  offset="0" style="stop-color:#F2EA1A"/>
				<stop  offset="1" style="stop-color:#F1EA19"/>
			</linearGradient>
			<path id="ekg-middle-front-1" class="st4" d="M411.4,432.2c1.9-0.1,4.2-0.1,6.7,0.2c1.6,0.2,3,0.4,4.4,0.7
				c0.7-2.1,1.4-4.3,2.1-6.4c0.5,1,0.9,2,1.3,3c0.4,0.9,0.7,1.8,1,2.6c1.4-0.1,3.6-0.2,6.4-0.4c3.7-0.3,4.5-0.5,6.9-0.5
				c3.7-0.1,6.3,0.3,6.9,0.4c1.9,0.3,3.5,0.7,4.7,1c0.4-3.3,0.8-6.5,1.2-9.8c0.7,1.5,1.3,2.7,1.6,3.6c1,2.4,2,5,2,5
				c0.1,0,0.5-0.2,0.8-0.6c0.3-0.4,0.3-0.7,0.3-0.9c1.3-0.1,2.5-0.2,3.9-0.2c4.2-0.2,8.1-0.2,11.9,0c-0.1,0.4-0.2,0.7-0.4,1
				c-2.4,0.3-4.3,0.5-5.7,0.6c-1.1,0.1-2.3,0.2-3.4,0.3c-1.6,0.1-2.6,0.2-4,0.4c-0.7,0.1-1.3,0.2-1.8,0.3c-0.4,1.1-0.7,2.2-1.1,3.3
				c-0.1-0.2-0.4-0.6-0.6-1.1c-0.3-0.5-0.6-1.3-1.5-4.3c-0.2-0.6-0.4-1.3-0.8-2.2c-0.2-0.4-0.3-0.7-0.5-0.9
				c-0.2,1.5-0.4,2.7-0.5,3.5c-0.1,1.3-0.2,2.2-0.4,3.6c-0.1,0.8-0.3,1.4-0.4,1.8c-0.1,0-0.2,0.1-0.3,0.1c-0.2,0-0.3-0.2-0.5-0.5
				c-0.4-0.9-0.3-1.2-0.6-1.5c-0.1-0.1-0.3-0.3-0.6-0.5c-0.7,0-1.6-0.1-2.8-0.1c-1.5,0-2.9,0-5.8,0c-5.2,0.1-4.5,0.2-7.1,0.2
				c-1.2,0-2.5,0-4.4,0.1c-1.1,0.1-2,0.1-2.6,0.2c-0.2,1-0.3,1.8-0.3,2.4c0,0.5,0,1.4,0.1,2.1c0,0.2,0,0.4,0,0.6
				c-0.2-0.2-0.4-0.5-0.5-0.7c-0.4-1-0.6-1.7-0.7-2.2c-0.3-1.1-0.3-1.7-0.7-3.2c-0.2-0.8-0.4-1.5-0.5-1.9c-0.5,0.7-0.8,1.3-1,1.7
				c-0.1,0.3-0.3,1-0.7,2.2c0,0.1,0,0.2-0.1,0.2c-0.5-0.1-1.2-0.3-2.1-0.5c-1.7-0.3-3-0.4-4.4-0.6c-2.1-0.2-3.1-0.3-3.7-0.3
				c-0.9,0-1.9-0.2-2.8-0.1c-0.3,0-0.6,0-0.8-0.1c-0.4-0.4-0.1-1.5,0.8-1.7C410.7,431.9,411.3,432.1,411.4,432.2z"/>
			
				<linearGradient id="ekg-middle-back-2_1_" gradientUnits="userSpaceOnUse" x1="435.6942" y1="687.2303" x2="380.3076" y2="649.7673" gradientTransform="matrix(0.9381 0.3464 0.3464 -0.9381 -174.6856 900.3966)">
				<stop  offset="0" style="stop-color:#828635"/>
				<stop  offset="3.330000e-02" style="stop-color:#828635"/>
				<stop  offset="1" style="stop-color:#828635"/>
			</linearGradient>
			<path id="ekg-middle-back-2" class="st5" d="M406.5,415.4c0.5,0,1.2-0.1,2.1-0.1c1-0.1,2.8-0.2,4.1-0.2c1.6-0.1,3.7-0.1,6.2,0.1
				c1.2,0.1,2.9,0.4,4.9,0.8c0.4-1,0.9-1.9,1.3-2.9c0.5-1.1,0.9-2.1,1.4-3.2c0.2,0.6,0.3,1.1,0.4,1.5c0.3,1.1,0.5,1.6,0.8,2.8
				c0.1,0.5,0.2,0.9,0.3,1.2c0.5,0,1.1-0.1,1.9-0.1c2.7-0.2,3.7-0.4,5.2-0.5c2.2-0.2,3.9-0.1,6.2-0.1c1.7,0,3.3,0,5,0.2
				c0.8,0.1,1.6,0.2,2.5,0.5c0.7,0.2,1.3,0.4,1.7,0.5c0.2-0.5,0.3-1,0.5-1.6c0.4-1.6,0.6-3.2,0.7-4.6c0.1-1.2,0.3-2.3,0.4-3.5
				c0.2,0.6,0.6,1.5,1,2.6c0.3,1,0.3,1,0.7,2.4c0.1,0.4,0.5,1.4,1,2.8c0.1,0.4,0.3,0.7,0.4,0.9c0.1-0.2,0.3-0.7,0.7-1
				c0.5-0.5,1-0.6,1.3-0.7c1,0,2.4,0.1,4.2,0c2.8,0,4-0.2,6.2-0.2c1.5,0,3.6,0,6.2,0.2c-0.2,0.2-0.3,0.3-0.5,0.5
				c-2,0.4-3.6,0.6-4.7,0.7c-1.6,0.2-2.9,0.4-7.9,0.9c-1.4,0.1-3,0.3-4.4,0.4c-0.4,1-0.7,2-1.1,3c-0.6-1.4-0.9-2.6-1.1-3.5
				c-0.2-1-0.3-1.9-0.8-3.2c-0.2-0.6-0.4-1-0.6-1.3c-0.3,1.4-0.5,2.5-0.6,3.3c-0.2,1.3-0.4,1.9-0.6,3s-0.4,2-0.5,2.6
				c-0.1-0.1-0.3-0.2-0.4-0.3c0-0.2,0-1-0.5-1.7c-0.4-0.4-0.8-0.7-1-0.8c-0.6,0-1.4-0.1-2.5-0.1c-2.9-0.1-4,0-8.2,0.1
				c-3.1,0-3.5,0-6.5,0.1c-1.4,0-2.6,0.1-3.4,0.1c-0.2,1.6-0.5,3.2-0.7,4.8c-0.1-0.1-0.2-0.2-0.4-0.3c-0.1-1.4-0.2-2.5-0.4-3.2
				c-0.2-0.9-0.4-1.8-0.7-3.7c0-0.3-0.1-0.5-0.1-0.6c-0.4,0.8-0.8,1.7-1.1,2.6c-0.2,0.6-0.5,1.2-0.7,1.8c-0.6-0.2-1.5-0.5-2.6-0.8
				c-2-0.5-3.5-0.6-6.3-0.9c-2.9-0.3-4.4-0.4-5.8-0.4c-2.2,0.1-4,0.4-4.1,0C405.5,416.1,406,415.7,406.5,415.4z"/>
			
				<linearGradient id="ekg-middle-front-2_1_" gradientUnits="userSpaceOnUse" x1="437.6316" y1="689.6979" x2="379.7682" y2="650.5594" gradientTransform="matrix(0.9381 0.3464 0.3464 -0.9381 -174.6856 900.3966)">
				<stop  offset="0" style="stop-color:#EFE919"/>
				<stop  offset="1" style="stop-color:#EFE919"/>
			</linearGradient>
			<path id="ekg-middle-front-2" class="st6" d="M414,413.8c1.8-0.1,3.8,0,6.1,0.3c1.4,0.2,2.8,0.4,3.9,0.7c0.8-2.1,1.6-4.2,2.4-6.3
				c0.3,1,0.7,2,1,3c0.3,0.9,0.5,1.8,0.7,2.6c1.3,0,3.3-0.1,5.8-0.3c3.4-0.3,4.1-0.4,6.3-0.5c3.4,0,5.7,0.3,6.2,0.4
				c1.7,0.3,3.1,0.7,4.2,1c0.6-3.2,1.2-6.4,1.8-9.6c0.5,1.5,1,2.7,1.2,3.5c0.7,2.4,1.4,5,1.4,5c0.1,0,0.5-0.2,0.8-0.6
				c0.3-0.4,0.3-0.7,0.3-0.9c1.1-0.1,2.3-0.1,3.5-0.2c3.8-0.1,13.4,0.1,16.9,0.3c-0.1,0.3-0.4,0.3-0.5,0.7
				c-2.2,0.2-9.9,0.6-11.1,0.7c-1,0.1-2.1,0.2-3.1,0.3c-1.5,0.1-2.4,0.2-3.7,0.4c-0.7,0.1-1.2,0.2-1.6,0.2c-0.4,1.1-0.8,2.2-1.2,3.2
				c-0.1-0.2-0.3-0.6-0.5-1c-0.2-0.5-0.5-1.2-1.1-4.3c-0.1-0.6-0.3-1.3-0.6-2.2c-0.1-0.4-0.3-0.7-0.3-0.9c-0.3,1.5-0.5,2.7-0.7,3.5
				c-0.2,1.2-0.3,2.2-0.7,3.5c-0.2,0.8-0.3,1.4-0.5,1.8c-0.1,0-0.2,0.1-0.3,0.1c-0.2,0-0.3-0.2-0.4-0.5c-0.3-0.8-0.2-1.1-0.5-1.5
				c-0.1-0.1-0.2-0.3-0.5-0.5c-0.6,0-1.5-0.1-2.6-0.2c-1.4-0.1-2.6-0.1-5.3,0c-4.7,0-4.1,0.1-6.5,0.1c-1,0-2.2,0-4,0
				c-1,0-1.9,0.1-2.4,0.2c-0.3,1-0.4,1.8-0.4,2.4c0,0.5-0.1,1.4-0.1,2c0,0.2,0,0.4,0,0.5c-0.1-0.2-0.3-0.4-0.4-0.7
				c-0.2-0.9-0.4-1.7-0.5-2.2c-0.2-1.1-0.2-1.7-0.4-3.2c-0.1-0.8-0.2-1.5-0.3-1.9c-0.5,0.7-0.8,1.3-1,1.7c-0.1,0.3-0.4,0.9-0.8,2.2
				c0,0.1-0.1,0.2-0.1,0.2c-0.5-0.1-1.1-0.3-1.9-0.5c-1.5-0.3-2.7-0.5-4-0.6c-1.9-0.2-2.8-0.3-3.4-0.3c-0.9,0-1.7-0.2-2.6-0.1
				c-0.3,0-6.9,0.1-7.1-0.1c-0.3-0.4-0.9-0.7-0.1-1C406.1,414.3,413.9,413.7,414,413.8z"/>
			
				<linearGradient id="ekg-middle-back-3_1_" gradientUnits="userSpaceOnUse" x1="425.8729" y1="706.0018" x2="378.1737" y2="673.7383" gradientTransform="matrix(0.9381 0.3464 0.3464 -0.9381 -174.6856 900.3966)">
				<stop  offset="0" style="stop-color:#838634"/>
				<stop  offset="3.330000e-02" style="stop-color:#838634"/>
				<stop  offset="1" style="stop-color:#838634"/>
			</linearGradient>
			<path id="ekg-middle-back-3" class="st7" d="M414.3,393.2c1.8-0.1,3.8,0,6.1,0.3c1.4,0.2,2.8,0.4,3.9,0.7
				c0.8-2.1,1.6-4.2,2.4-6.3c0.3,1,0.7,2,1,3c0.3,0.9,0.5,1.8,0.7,2.6c1.3,0,3.3-0.1,5.8-0.3c3.4-0.3,4.1-0.4,6.3-0.5
				c3.4,0,5.7,0.3,6.2,0.4c1.7,0.3,3.1,0.7,4.2,1c0.6-3.2,1.2-6.4,1.8-9.6c0.5,1.5,1,2.7,1.2,3.5c0.7,2.4,1.4,5,1.4,5
				c0.1,0,0.5-0.2,0.8-0.6c0.3-0.4,0.3-0.7,0.3-0.9c1.1-0.1,2.3-0.1,3.5-0.2c3.8-0.1,7.4-0.1,10.8,0.1c-0.1,0.3-0.3,0.7-0.4,1
				c-2.2,0.2-4,0.4-5.2,0.5c-1,0.1-2.1,0.2-3.1,0.3c-1.5,0.1-2.4,0.2-3.7,0.4c-0.7,0.1-1.2,0.2-1.6,0.2c-0.4,1.1-0.8,2.2-1.2,3.2
				c-0.1-0.2-0.3-0.6-0.5-1c-0.2-0.5-0.5-1.2-1.1-4.3c-0.1-0.6-0.3-1.3-0.6-2.2c-0.1-0.4-0.3-0.7-0.3-0.9c-0.3,1.5-0.5,2.7-0.7,3.5
				c-0.2,1.2-0.3,2.2-0.7,3.5c-0.2,0.8-0.3,1.4-0.5,1.8c-0.1,0-0.2,0.1-0.3,0.1c-0.2,0-0.3-0.2-0.4-0.5c-0.3-0.8-0.2-1.1-0.5-1.5
				c-0.1-0.1-0.2-0.3-0.5-0.5c-0.6,0-1.5-0.1-2.6-0.2c-1.4-0.1-2.6-0.1-5.3,0c-4.7,0-4.1,0.1-6.5,0.1c-1,0-2.2,0-4,0
				c-1,0-1.9,0.1-2.4,0.2c-0.3,1-0.4,1.8-0.4,2.4c0,0.5-0.1,1.4-0.1,2c0,0.2,0,0.4,0,0.5c-0.1-0.2-0.3-0.4-0.4-0.7
				c-0.2-0.9-0.4-1.7-0.5-2.2c-0.2-1.1-0.2-1.7-0.4-3.2c-0.1-0.8-0.2-1.5-0.3-1.9c-0.5,0.7-0.8,1.3-1,1.7c-0.1,0.3-0.4,0.9-0.8,2.2
				c0,0.1-0.1,0.2-0.1,0.2c-0.5-0.1-1.1-0.3-1.9-0.5c-1.5-0.3-2.7-0.5-4-0.6c-1.9-0.2-2.8-0.3-3.4-0.3c-0.9,0-1.7-0.2-2.6-0.1
				c-0.3,0-0.5,0-0.7-0.1c-0.3-0.4,0-1.5,0.8-1.7C413.7,392.8,414.2,393.1,414.3,393.2z"/>
			
				<linearGradient id="ekg-middle-front-3_1_" gradientUnits="userSpaceOnUse" x1="425.8357" y1="706.2758" x2="378.1364" y2="674.0123" gradientTransform="matrix(0.9381 0.3464 0.3464 -0.9381 -174.6856 900.3966)">
				<stop  offset="0" style="stop-color:#EFE919"/>
				<stop  offset="1" style="stop-color:#EFE919"/>
			</linearGradient>
			<path id="ekg-middle-front-3" class="st8" d="M414.3,392.9c1.8-0.1,3.8,0,6.1,0.3c1.4,0.2,2.8,0.4,3.9,0.7
				c0.8-2.1,1.6-4.2,2.4-6.3c0.3,1,0.7,2,1,3c0.3,0.9,0.5,1.8,0.7,2.6c1.3,0,3.3-0.1,5.8-0.3c3.4-0.3,4.1-0.4,6.3-0.5
				c3.4,0,5.7,0.3,6.2,0.4c1.7,0.3,3.1,0.7,4.2,1c0.6-3.2,1.2-6.4,1.8-9.6c0.5,1.5,1,2.7,1.2,3.5c0.7,2.4,1.4,5,1.4,5
				c0.1,0,0.5-0.2,0.8-0.6c0.3-0.4,0.3-0.7,0.3-0.9c1.1-0.1,2.3-0.1,3.5-0.2c3.8-0.1,7.4-0.1,10.8,0.1c-0.1,0.3-0.3,0.7-0.4,1
				c-2.2,0.2-4,0.4-5.2,0.5c-1,0.1-2.1,0.2-3.1,0.3c-1.5,0.1-2.4,0.2-3.7,0.4c-0.7,0.1-1.2,0.2-1.6,0.2c-0.4,1.1-0.8,2.2-1.2,3.2
				c-0.1-0.2-0.3-0.6-0.5-1c-0.2-0.5-0.5-1.2-1.1-4.3c-0.1-0.6-0.3-1.3-0.6-2.2c-0.1-0.4-0.3-0.7-0.3-0.9c-0.3,1.5-0.5,2.7-0.7,3.5
				c-0.2,1.2-0.3,2.2-0.7,3.5c-0.2,0.8-0.3,1.4-0.5,1.8c-0.1,0-0.2,0.1-0.3,0.1c-0.2,0-0.3-0.2-0.4-0.5c-0.3-0.8-0.2-1.1-0.5-1.5
				c-0.1-0.1-0.2-0.3-0.5-0.5c-0.6,0-1.5-0.1-2.6-0.2c-1.4-0.1-2.6-0.1-5.3,0c-4.7,0-4.1,0.1-6.5,0.1c-1,0-2.2,0-4,0
				c-1,0-1.9,0.1-2.4,0.2c-0.3,1-0.4,1.8-0.4,2.4c0,0.5-0.1,1.4-0.1,2c0,0.2,0,0.4,0,0.5c-0.1-0.2-0.3-0.4-0.4-0.7
				c-0.2-0.9-0.4-1.7-0.5-2.2c-0.2-1.1-0.2-1.7-0.4-3.2c-0.1-0.8-0.2-1.5-0.3-1.9c-0.5,0.7-0.8,1.3-1,1.7c-0.1,0.3-0.4,0.9-0.8,2.2
				c0,0.1-0.1,0.2-0.1,0.2c-0.5-0.1-1.1-0.3-1.9-0.5c-1.5-0.3-2.7-0.5-4-0.6c-1.9-0.2-2.8-0.3-3.4-0.3c-0.9,0-1.7-0.2-2.6-0.1
				c-0.3,0-0.5,0-0.7-0.1c-0.3-0.4,0-1.5,0.8-1.7C413.8,392.6,414.2,392.8,414.3,392.9z"/>
		</g>
		<g id="ekg-bottom">
			
				<linearGradient id="ekg-bottom-back_1_" gradientUnits="userSpaceOnUse" x1="-273.6756" y1="300.7623" x2="-190.7798" y2="300.7623" gradientTransform="matrix(-0.7159 0.276 -0.3597 -0.9331 382.2249 870.0819)">
				<stop  offset="0" style="stop-color:#8B8D35"/>
				<stop  offset="3.330000e-02" style="stop-color:#8B8D35"/>
				<stop  offset="1" style="stop-color:#8B8D35"/>
			</linearGradient>
			<path id="ekg-bottom-back" class="st9" d="M474.9,526.6c-2.6-0.1-4.6-0.1-6-0.1c-0.6,0-3.4,0-6.8-0.1c-3.1-0.1-4.1-0.3-5.1-1.2
				c-1.4-1.3-1.9-3.2-2.2-4.3c-0.5,1-0.8,1.9-1.1,2.8c-0.4,1-0.4,1.5-0.8,2c-0.4,0.6-1,1.3-2.2,1.6c-3.2,0.1-7.4,0.2-10.6,0.3
				c-2.5,0.1-6.5,0.2-9,0.2c-0.2,0.1-0.6,0.2-1,0c-0.5-0.2-0.9-0.9-1.1-1.3c-0.6-1.3-2.6-6.1-5.3-12.7c-0.1,2-0.3,4.1-0.5,6.1
				c-0.3,3.5-0.5,6.9-0.8,10.3c0,0,0,0.2-0.1,0.3c-0.1,0.1-0.2,0.1-0.4,0.1c-0.6-1.4-1.1-2.6-1.5-3.5c-0.4-0.9-0.7-1.6-1-1.6
				c-0.3,0-0.4,0.7-0.5,1.3c-0.1,0.7-0.1,1.1-0.4,1.5c-0.1,0.2-0.2,0.2-0.4,0.3c-1.1,0.5-3.3,0.3-4.8,0.3c-0.3,0,0,0-1.6,0
				c-3,0.1-3.8,0-4,0.6c-0.1,0.2,0,0.7,0.8,1.7c1.8-0.2,3.3-0.3,4.3-0.3c1.5,0,3.1,0.2,5.5,0c0.4,0,0.7-0.1,0.9-0.1
				c-0.1-0.3-0.4-1.8,0.3-2.4c0,0,0.1-0.1,0.2-0.1c0.6,0.8,0.9,1.4,1.1,1.9c0.4,0.8,0.5,1.5,1.1,2.3c0.2,0.3,0.5,0.6,0.6,0.7
				c0.1-0.1,0.2-0.2,0.4-0.3c0.4-2.3,0.7-4,0.9-5.2c0.9-4.9,0.9-5,0.9-5.2c0-0.1-0.1-0.4,0.1-0.6c0.1-0.2,0.3-0.2,0.4-0.2
				c0.5,1,1,1.8,1.3,2.4c1.4,2.5,2,3.8,2.3,4.5c0.5,1.3,0.6,1.9,1.2,2.3c0.7,0.6,1.6,0.3,1.9,0.3c0.5-0.1,3.2-0.4,8.6-1
				c2-0.2,4.5-0.5,6.8-0.2c0.6,0.1,2.3,0.3,4.4-0.3c0.3-0.1,0.6-0.2,0.8-0.3c0.3-0.6,0.6-1.2,1-1.9c0.4-0.9,0.8-1.7,1.1-2.6
				c0.2,0.2,0.5,0.4,0.8,0.7c0.6,0.5,1.3,1,1.8,1.3c1,0.7,1.8,0.9,2.9,1.3c0.7,0.2,1.8,0.5,3.5,0.7c1.8,0.2,1.9,0,4.5,0.2
				c2.5,0.2,3.7,0.2,4.1,0.3c1.5,0.2,2.2,0.5,2.6,0C475.6,529,475.1,527.5,474.9,526.6z"/>
			
				<linearGradient id="ekg-bottom-front_1_" gradientUnits="userSpaceOnUse" x1="-274.235" y1="301.4864" x2="-191.3391" y2="301.4864" gradientTransform="matrix(-0.7159 0.276 -0.3597 -0.9331 382.2249 870.0819)">
				<stop  offset="0" style="stop-color:#F2EA1A"/>
				<stop  offset="1" style="stop-color:#F1EA19"/>
			</linearGradient>
			<path id="ekg-bottom-front" class="st10" d="M475,525.8c-2.6-0.1-4.6-0.1-6-0.1c-0.6,0-3.4,0-6.8-0.1c-3.1-0.1-4.1-0.3-5.1-1.2
				c-1.4-1.3-1.9-3.2-2.2-4.3c-0.5,1-0.8,1.9-1.1,2.8c-0.4,1-0.4,1.5-0.8,2c-0.4,0.6-1,1.3-2.2,1.6c-3.2,0.1-7.4,0.2-10.6,0.3
				c-2.5,0.1-6.5,0.2-9,0.2c-0.2,0.1-0.6,0.2-1,0c-0.5-0.2-0.9-0.9-1.1-1.3c-0.6-1.3-2.6-6.1-5.3-12.7c-0.1,2-0.3,4.1-0.5,6.1
				c-0.3,3.5-0.5,6.9-0.8,10.3c0,0,0,0.2-0.1,0.3c-0.1,0.1-0.2,0.1-0.4,0.1c-0.6-1.4-1.1-2.6-1.5-3.5c-0.4-0.9-0.7-1.6-1-1.6
				c-0.3,0-0.4,0.7-0.5,1.3c-0.1,0.7-0.1,1.1-0.4,1.5c-0.1,0.2-0.2,0.2-0.4,0.3c-1.1,0.5-3.3,0.3-4.8,0.3c-0.3,0,0,0-1.6,0
				c-3,0.1-3.8,0-4,0.6c-0.1,0.2,0,0.7,0.8,1.7c1.8-0.2,3.3-0.3,4.3-0.3c1.5,0,3.1,0.2,5.5,0c0.4,0,0.7-0.1,0.9-0.1
				c-0.1-0.3-0.4-1.8,0.3-2.4c0,0,0.1-0.1,0.2-0.1c0.6,0.8,0.9,1.4,1.1,1.9c0.4,0.8,0.5,1.5,1.1,2.3c0.2,0.3,0.5,0.6,0.6,0.7
				c0.1-0.1,0.2-0.2,0.4-0.3c0.4-2.3,0.7-4,0.9-5.2c0.9-4.9,0.9-5,0.9-5.2c0-0.1-0.1-0.4,0.1-0.6c0.1-0.2,0.3-0.2,0.4-0.2
				c0.5,1,1,1.8,1.3,2.4c1.4,2.5,2,3.8,2.3,4.5c0.5,1.3,0.6,1.9,1.2,2.3c0.7,0.6,1.6,0.3,1.9,0.3c0.5-0.1,3.2-0.4,8.6-1
				c2-0.2,4.5-0.5,6.8-0.2c0.6,0.1,2.3,0.3,4.4-0.3c0.3-0.1,0.6-0.2,0.8-0.3c0.3-0.6,0.6-1.2,1-1.9c0.4-0.9,0.8-1.7,1.1-2.6
				c0.2,0.2,0.5,0.4,0.8,0.7c0.6,0.5,1.3,1,1.8,1.3c1,0.7,1.8,0.9,2.9,1.3c0.7,0.2,1.8,0.5,3.5,0.7c1.8,0.2,1.9,0,4.5,0.2
				c2.5,0.2,3.7,0.2,4.1,0.3c1.5,0.2,2.2,0.5,2.6,0C475.7,528.2,475.3,526.6,475,525.8z"/>
		</g>
		<g id="dna-strand-1">
			
				<linearGradient id="dna-strand-1-top_1_" gradientUnits="userSpaceOnUse" x1="416.4825" y1="658.3396" x2="389.9086" y2="773.509" gradientTransform="matrix(0.9744 0.2248 0.2248 -0.9744 -114.6513 895.4448)">
				<stop  offset="0.1929" style="stop-color:#909090"/>
				<stop  offset="0.3629" style="stop-color:#989797"/>
				<stop  offset="0.3988" style="stop-color:#A2A0A0"/>
				<stop  offset="0.5131" style="stop-color:#BFBDBD"/>
				<stop  offset="0.6298" style="stop-color:#D8D6D5"/>
				<stop  offset="0.7484" style="stop-color:#EBEAE9"/>
				<stop  offset="0.8703" style="stop-color:#F9F8F7"/>
				<stop  offset="1" style="stop-color:#FFFFFF"/>
			</linearGradient>
			<path id="dna-strand-1-top" class="st11" d="M396.7,244.4c-1.6-0.4-2.5-1.8-2.5-1.9c-0.5-0.9-0.5-1.8-0.6-2.4
				c0-1.9,0.7-3.4,1.1-4.2c1.7-2.7,5.2-3.5,6.9-3.9c12.2-2.6,22.2-2.5,22.2-2.5c8.8,0.5,13.3,0.1,17,0.5c8,0.9,14.2,1.7,21,5.4
				c6.9,3.8,10.9,8.9,12.8,11.4c10.8,14,10.3,29.9,10.1,34.7c-0.1,1.9-0.5,7.8-2.8,15.1c-2.7,8.3-6.4,13.9-10.3,19.4
				c-6.5,9.3-12.9,15.2-16.9,19c-7.6,7-15.8,12.9-16.1,12.6c-0.1-0.2,1.7-1.8,4.6-4.7c10-10.2,16-19.3,17.5-21.7
				c2-3.2,3.9-6.1,5.9-10.5c2.1-4.6,5-11.2,5.6-20.1c0.2-3.6,0.7-11.5-3-20.8c-0.8-1.9-4.2-10-12.4-17.2c-2.7-2.4-7.2-6.2-14.2-8.3
				c-2.5-0.8-4.8-1-9.2-1.5c-5-0.5-11.8-1.2-20.1-0.4c-8.3,0.9-12.5,1.3-13.2,1.6C399.6,244.2,398.2,244.8,396.7,244.4z"/>
			<path id="dna-strand-1-middle" class="st12" d="M426.1,470.2c-2.7-1.7-6-4.1-9.6-7.1c-2-1.7-5.7-4.9-9.7-9.6
				c-2.8-3.4-6.9-8.3-10.2-15.8c-1.3-3-4-9.3-4.4-17.9c-0.5-9.6,1.9-16.9,3.3-20.9c1.9-5.5,4.1-9.4,5.8-12.4
				c0.7-1.1,3.8-6.5,9.3-13.1c3.8-4.5,6.8-7.4,12.9-13c3.5-3.2,8.5-7.7,14.9-12.9c5.7-4.6,5.5-4,9.6-7.4c8.4-7,14-13.2,16.1-15.5
				c4-4.5,7.6-8.6,11.3-14.9c1.7-2.9,4.2-7.2,6.2-13.5c1.6-5.1,2.2-9.3,2.5-11.8c0.5-3.5,0.9-6.8,0.6-11.2c-0.5-7.8-3-13.6-4.1-16.2
				c-0.6-1.5-1.6-3.6-3-5.9c-2.7-4.5-5.8-7.8-8-10.1c0.7,0.5,1.7,1,2.8,1.8c1,0.8,2.7,2.1,4.3,3.8c1.7,1.8,2.8,3.3,4.8,6.3
				c1,1.4,1.8,2.6,2.7,4.2c0.5,0.9,1.8,3.2,3,6.3c1.9,5,2.6,9.1,2.8,10.5c0.6,4.1,0.5,7.3,0.4,9.2c-0.1,4.1-0.7,7.1-1.2,10
				c-0.5,2.7-1.1,6.1-2.5,10.2c-1.3,3.7-2.5,6.2-5,11.2c-2.3,4.5-3.9,7.8-6.7,11.8c-0.8,1.2-2.3,3.2-5.3,7.2
				c-2.8,3.6-4.1,5.5-5.5,7.1c-2.9,3.6-5.4,6.2-7.5,8.3c-2.1,2.2-3.7,3.8-6.7,6.8c-7.4,7.3-12.5,11.9-13.5,12.8
				c-2.2,2-3.5,3.1-5.2,4.6c-0.7,0.6-1.4,1.2-2.5,2.2c-1.6,1.4-2.5,2.2-3.3,3c-1,1-1.9,2.2-3.7,4.5c-1.2,1.6-2.6,3.5-4.3,6.1
				c-0.8,1.2-1.5,2.4-2.5,4c-1.4,2.5-2.3,4.5-2.5,5.1c-0.3,0.6-1.5,3.5-2.6,7.6c-0.4,1.5-1,3.6-1.4,6.3c-0.8,5.1-0.5,9.2-0.4,11
				c0.2,2.8,0.7,4.8,1,6.6c0.6,2.9,1.2,4.9,2.3,8.4c0.9,3,1.6,5.2,2.8,8.1c0.7,1.8,1.4,3.1,2,4.4c1,2,1.3,2.5,3.4,6.7
				c2.4,4.7,2.7,5.4,3.9,7.3c1,1.8,2,3.2,2.6,4.1C425.9,469.1,426,469.6,426.1,470.2z"/>
			
				<linearGradient id="dna-strand-1-bottom_1_" gradientUnits="userSpaceOnUse" x1="471.2475" y1="459.702" x2="439.4162" y2="597.6569" gradientTransform="matrix(0.9744 0.2248 0.2248 -0.9744 -114.6513 895.4448)">
				<stop  offset="0" style="stop-color:#FFFFFF"/>
				<stop  offset="0.1865" style="stop-color:#E5E4E3"/>
				<stop  offset="0.5643" style="stop-color:#B5B4B3"/>
				<stop  offset="1" style="stop-color:#818282"/>
			</linearGradient>
			<path id="dna-strand-1-bottom" class="st13" d="M468.4,545.4c-0.5,2.9,2.3,5.5,2.6,5.8c0.7,0.7,1.9,1.8,3.7,2.1
				c3.6,0.7,6.3-2.1,6.6-2.4c0.8-0.8,1.1-1.6,2-4c1.5-3.8,2.2-5.8,2.7-7.5c0.9-3.2,2.6-9.3,2.6-16.5c0.1-11.5-4-20.3-5.8-24.1
				c-0.2-0.5-5.8-11.9-16.5-21c-4.1-3.5-9.3-7-9.6-7.2c-3.3-2.2-3.3-1.9-9-5.4c-5.9-3.6-6.2-4.1-12.4-7.9c-3.8-2.3-4.2-2.5-6.2-3.8
				c-2.3-1.6-5.1-3.5-8.1-6.6c-3.6-3.6-5.8-7.1-6.8-8.8c-2.5-4.3-3.8-8-4.4-10c-0.9-2.8-2.3-7.8-1.9-13.7c0.1-1.3,0.3-2.6,0.2-2.6
				c-0.1,0-1,3.6-1,7.6c0,3,0.5,5.3,0.8,6.9c2.7,11.7,6.1,20.4,6.1,20.4c2.8,7,5.5,12.1,7.3,15.3c1.7,3.2,3.3,5.9,4.5,7.8
				c1.4,0.8,3.6,2.1,6.4,3.6c8.2,4.5,11,5.4,15.6,8.4c1.6,1,5.3,3.5,9.3,7.3c3.3,3.1,9,8.8,12.8,18c2.9,7.1,3.3,13.1,3.4,14.9
				c0.3,6-0.8,10.6-1.3,13c-1,4.5-1.6,6.7-2.8,8.6C468.9,544,468.5,544.6,468.4,545.4z"/>
		</g>
		<g id="dna-strand-2">
			
				<linearGradient id="dna-strand-2-top_1_" gradientUnits="userSpaceOnUse" x1="429.0095" y1="585.3602" x2="396.3333" y2="726.9764" gradientTransform="matrix(0.9744 0.2248 0.2248 -0.9744 -114.6513 895.4448)">
				<stop  offset="0" style="stop-color:#58595B"/>
				<stop  offset="8.850000e-02" style="stop-color:#76777A"/>
				<stop  offset="0.2245" style="stop-color:#9C9EA0"/>
				<stop  offset="0.3589" style="stop-color:#BDBFC1"/>
				<stop  offset="0.4889" style="stop-color:#D9DADB"/>
				<stop  offset="0.6133" style="stop-color:#ECEDED"/>
				<stop  offset="0.7297" style="stop-color:#F8F9F9"/>
				<stop  offset="0.8302" style="stop-color:#FFFFFF"/>
			</linearGradient>
			<path id="dna-strand-2-top" class="st14" d="M413.5,282.5c-0.1-0.5-0.6-3.7-3.4-5.3c-0.2-0.1-1.4-0.8-3-0.9c-2-0.2-3.6,0.6-4.4,1
				c0,0-1.7,0.9-3.1,2.5c-6,7-6.7,23-6.7,23c-0.2,3.8-0.3,8.2,0.7,14c0.6,3.3,2.1,10.2,6.5,17.8c3.8,6.7,8,10.9,11.2,14
				c5.6,5.5,10.5,8.6,20,14.6c13.4,8.4,14.2,7.5,21.3,13c10.5,8.2,14.2,14.6,15.3,16.8c3.5,6.6,4.4,12,4.5,13.2
				c0.9,6.7-0.2,12.2-1.2,15.4c1.5-2.6,3.3-6.5,4.4-11.6c0.3-1.5,1.2-5.9,0.8-11.7c-0.4-7.2-2.5-12.5-4.4-17
				c-3-7.4-4.8-12.4-9.8-16.8c-1.2-1.1-2.6-2-5.3-3.7c-6.8-4.4-12-6.8-15-8.3c-2.2-1.1-11-5.6-18.3-12.6
				c-3.6-3.5-11.1-10.7-14.2-22.5c-2.9-11-0.5-20.8,0.8-25.9C411.5,287.6,412.6,284.6,413.5,282.5z"/>
			
				<linearGradient id="dna-strand-2-middle_1_" gradientUnits="userSpaceOnUse" x1="446.5433" y1="415.1884" x2="446.5433" y2="646.9855" gradientTransform="matrix(0.9744 0.2248 0.2248 -0.9744 -114.6513 895.4448)">
				<stop  offset="0" style="stop-color:#FFFFFF"/>
				<stop  offset="1.760000e-02" style="stop-color:#FFFFFF"/>
				<stop  offset="0.5296" style="stop-color:#FFFFFF"/>
				<stop  offset="0.6886" style="stop-color:#FBFAFA"/>
				<stop  offset="0.7766" style="stop-color:#F1F0EF"/>
				<stop  offset="0.8473" style="stop-color:#E4E2E2"/>
				<stop  offset="0.9087" style="stop-color:#D1D0CF"/>
				<stop  offset="0.9636" style="stop-color:#BCBBBA"/>
				<stop  offset="1" style="stop-color:#AAAAA9"/>
			</linearGradient>
			<path id="dna-strand-2-middle" class="st15" d="M463,364.7c1,1.8,1.8,3.2,2.4,4.1c1.1,1.8,1.3,2.1,2.1,3.4c0.8,1.4,1.4,2.5,2,3.8
				c0.7,1.3,1.3,2.5,1.6,3.2c2.1,4.5,3.4,9.5,3.4,9.5c0.7,2.6,1.7,6.4,1.9,11.4c0.1,2,0.2,5.7-0.8,10.4c-0.2,1-1,4.6-3,8.9
				c-0.4,0.8-0.7,1.5-1,2c-0.2,0.7-0.4,1.7-0.8,2.9c-0.5,1.6-1.1,3.9-2.3,6.8c-1.1,2.7-2.2,4.7-2.6,5.6c-1.1,2-2,3.4-2.9,4.7
				c-0.4,0.6-1.4,2.2-2.9,4.1c-1.4,1.9-2.8,3.7-4.9,5.9c-2.2,2.4-4.2,4-4.7,4.5c-1.2,1-2.4,1.9-4.2,3.3c-1.2,0.9-2.1,1.6-2.4,1.8
				c-4.1,3-7.7,7.3-13.4,12.6c-1.9,1.8-2.7,2.3-4.4,4c-0.6,0.6-1.1,1.1-4.7,5.2c-2,2.3-3,3.5-4.1,4.7c-2.1,2.4-3.2,3.6-4.4,5.2
				c-1.6,2-2.7,3.5-3.7,4.9c-1.5,2-2.9,3.9-4.6,6.6c-2.6,4.2-4.4,7.6-5.3,9.2c-0.3,0.6-1,2-1.9,4c-0.9,2.1-2.4,5.2-3.6,9.2
				c-0.4,1.3-1.8,5.7-2.7,11.7c-0.7,4.9-1.3,8.5-0.7,12.4c0.1,0.7,0.4,2.4,0.9,6c0.5,3.3,0.4,3.2,0.5,3.9c0.5,3,1.4,5.1,2.4,7.6
				c0.9,2.3,1.8,4.5,3.5,7.3c0.4,0.6,2,3.2,4.7,6.3c1.3,1.5,3,3.3,5.7,5.3c1.2,0.9,3.7,2.6,7.3,4.1c2.5,1,5,1.6,9.9,2.6
				c2.2,0.5,5.1,1,8.5,1.6c-0.7-0.5-1.7-1.2-2.9-2c-4.5-2.9-6.4-3.5-8.8-5.2c-1.2-0.9-3.9-3-6.9-6.3c-0.9-1-4-4.5-6.9-10.1
				c-1.4-2.6-3.4-6.5-4.5-12c-0.9-4.2-0.9-7.4-0.8-12.9c0-3.4,0.1-7,1-11.7c0.8-4.1,1.8-7.1,2.4-8.8c0.4-1,2-5.8,5.4-11.9
				c1.3-2.3,2.4-4.3,4.2-6.8c0.3-0.4,1.1-1.5,4.3-5.1c3.1-3.5,4.6-5.2,5.6-6.2c3.4-3.3,4.6-3.5,8.7-7.1c2-1.8,2.6-2.7,5.4-5.3
				c1.7-1.5,3-2.6,4-3.5c9.2-7.8,11.2-9.2,14.9-12.7c1.1-1.1,3-2.9,5.3-5.3c6.7-7.1,10.8-12.9,12.1-14.8c1.5-2.3,3-4.4,4.6-7.5
				c1.8-3.4,2.9-6.3,3.6-8.5c0.6-1.6,1.3-3.6,2.1-6.2c0.7-2.6,1.5-5.3,1.8-8.9c0.3-3.5,0-6-0.3-9.1c-0.3-2.5-0.6-5.4-1.6-9.1
				c-1.3-4.7-3.1-8.1-4.1-10.1c-2-3.8-3.9-6.3-5.5-8.6c-0.8-1.1-3.1-4.2-6.6-7.9C468.5,369.7,466,367.2,463,364.7z"/>
			
				<linearGradient id="dna-strand-2-bottom_1_" gradientUnits="userSpaceOnUse" x1="522.3293" y1="467.142" x2="423.2935" y2="467.142" gradientTransform="matrix(0.9744 0.2248 0.2248 -0.9744 -114.6513 895.4448)">
				<stop  offset="0" style="stop-color:#A19F9F"/>
				<stop  offset="1" style="stop-color:#E5E7E5"/>
			</linearGradient>
			<path id="dna-strand-2-bottom" class="st16" d="M434.3,489.8c-3.8,2.4-6.7,4.7-8.8,6.6c-0.6,0.5-2.6,2.4-5,5
				c-2.5,2.8-4.1,5-5.8,7.3c-2.5,3.4-3.8,5.2-5.2,8c-1.5,2.7-2.2,4.8-3.5,8.3c-1.2,3.2-2,5.4-2.7,8.5c-0.4,2-0.6,3.7-1,7.1
				c-0.4,3.7-0.6,5.6-0.7,8c-0.1,4.6,0.5,8.1,0.7,9.1c0.9,5,2.4,8.6,3.4,11c1,2.4,2.4,5.5,4.9,9.2c0.7,1,3.3,4.5,7.6,8.2
				c3.5,3,6.7,4.7,10,6.6c2.3,1.3,4.3,2.3,5.8,2.9c0.3,0,0.8,0.1,1.3,0.2c7,1.1,12,0.8,19.3,0.4c7.9-0.4,15.7-1.3,23.6-1.7
				c0.7,0,3.3-0.2,6.5-1.3c3.5-1.2,5.1-2.7,5.5-3.1c0.9-0.9,2.4-2.2,2.8-4.5c0.3-1.5,0.1-2.8-0.1-3.6c-0.2-0.7-0.7-2.4-2.1-3.4
				c-1-0.8-2.2-0.9-4.4-0.9c-4,0-7.1,0.5-7.6,0.6c0,0-1,0.2-8.1,1.2c-4.9,0.8-8.6,1-11.7,1.3c-4.2,0.3-7.3,0.6-11.5,0.6
				c-3.1,0-5.6,0-8.8-0.5c-5.9-0.8-10.1-2.5-11.5-3.1c-3.5-1.5-6.8-2.8-10.1-5.9c-2.7-2.5-4.2-5-6-8.1c-1.6-2.7-3.1-5.3-4.1-9.2
				c-0.9-3.6-0.9-6.4-0.9-9.3c0-1.2,0.1-5.7,1.4-11.6c0.3-1.3,1.6-7.1,5.1-14.3c2.6-5.4,5.2-9.2,8.3-13.6c1.6-2.3,2.9-4.1,4.9-6.5
				c3.2-3.9,4.9-5.6,5.6-6.4C432.3,491.4,433.5,490.4,434.3,489.8z"/>
		</g>
	</g>
	<path id="mitochondria-word" class="st17" d="M329,696.1c-2.6,0-5.2,0-7.5,0c-0.8-5.7-1.5-11.1-2.2-16.5c-0.2,0-0.4,0-0.5-0.1
		c-2.7,5.6-5.5,11.2-8.5,17.4c-3-6.1-5.8-11.6-8.8-17.7c-0.7,5.3-1.5,9.9-1.9,14.6c-0.1,0.8,1.4,1.7,2,2.3c-2,0-4.5,0-6.3,0
		c0.5-1,1.7-2.2,1.9-3.6c1.2-6.9,2.1-13.8,3.2-20.7c0.1-0.7,0.4-1.3,0.8-2.6c3.5,7.2,6.8,13.8,10.2,20.9c3.4-7,6.6-13.7,9.8-20.3
		c0.2,0,0.4,0,0.6,0.1c0.5,3,1,6,1.4,9c0.6,4.2,1.3,8.3,1.8,12.5C325.4,694,326,696.1,329,696.1z M337.7,692.7
		c0.1-4.8-0.1-9.7,0.1-14.5c0-1.3,0.9-2.5,1.3-3.5c-2.1,0-4.8,0-6.9,0c0.5,0.8,1.4,1.8,1.5,2.7c0.2,5.2,0.2,10.3,0,15.5
		c0,1.2-0.9,2.3-1.4,3.4c2.4,0,5.4,0,8.4,0C338.1,696.2,337.7,694.7,337.7,692.7z M342.3,678.5c2.1-2.4,2.7-2.5,8.4-2.2
		c0,5.9,0.1,11.9-0.1,17.8c0,0.7-1,1.4-1.5,2c2.6,0,5.6,0,8,0c-0.6-0.6-2.1-1.4-2.1-2.2c-0.2-5.9-0.1-11.8-0.1-18
		c2.8,0.8,5.9-0.9,7.7,2.7c0-1.7,0-3,0-4.3c-6.6,0-13.1,0-19.6,0C342.8,675.7,342.6,676.9,342.3,678.5z M389.1,684.8
		c0.1,6.8-5.4,12.1-12.7,12.1c-6.9,0-12.2-4.9-12.2-11.4c0-6.6,5.3-11.5,12.6-11.5C384.1,674,389,678.3,389.1,684.8z M385.2,686.3
		c-0.9-2.5-1.4-5.1-2.7-7.3c-1.7-2.9-4.7-3.7-7.9-3.3c-2.7,0.4-4.5,2-5.4,4.6c-1.1,3.3-0.9,6.6,0.5,9.8c1.8,3.8,5.4,5.8,9.2,5.2
		c3.2-0.5,5.2-3.4,5.6-7.7c0-0.4,0.1-0.7,0.1-1C384.8,686.4,385,686.3,385.2,686.3z M401.7,676c2-0.4,4.2-0.5,6.1,0.1
		c1.8,0.6,3.2,2.2,4.6,3.3c0-0.9,0.1-2.4,0.2-4.2c-4.2-1-8.3-1.4-12.4-0.4c-4.6,1.1-7.7,4.8-8.2,9.8c-0.5,4.4,1.8,9.1,6.1,10.6
		c3.3,1.2,7,1.5,10.6,1.5c3.6,0,4.2-1.4,3.6-5.1c-1.7,3.3-4,4.3-7.9,3.4c-4.7-1-7.8-4.6-8-9.2C396.2,680.3,397.9,676.8,401.7,676z
		 M441.3,696.2c-0.2,0-0.4,0-0.6,0C440.8,696.2,441,696.2,441.3,696.2z M438.3,692.6c0-5-0.1-10,0.1-15c0-1,1-2,1.5-2.8
		c-2.3,0-5.2,0-8.8,0c3.6,0.9,4,2.5,3,9c-3.8,0-7.7,0-11.9,0c1.3-3.1-1.9-7,2.3-9c-2.8,0-5.7,0-8,0c0.6,0.8,1.8,1.7,1.9,2.6
		c0.2,5.3,0.1,10.5,0,15.8c0,1.1-0.9,2.2-1.3,3.1c2.4,0,5.5,0,8.5,0c-2.8,0.1-3-1.7-3-3.9c0.1-2.1,0-4.3,0-6.7c4.1,0,8,0,11.9,0
		c0,2.3,0,4.5,0,6.6c0,1.8,0,3.5-2.3,3.9c2.9,0,5.7,0,8.6,0C438.5,696,438.3,694.3,438.3,692.6z M468.6,685
		c0,6.9-5.6,12.1-12.9,11.9c-7-0.2-12.2-5.2-12-11.5c0.2-6.7,5.5-11.4,12.8-11.3C463.7,674.1,468.6,678.5,468.6,685z M464.6,685.9
		c-0.8-2.3-1.3-4.8-2.6-6.9c-1.8-3-4.8-3.9-8.1-3.4c-2.7,0.4-4.5,2.1-5.3,4.7c-1.2,3.6-0.8,7.2,1,10.5c1.8,3.4,5.7,5.1,9.2,4.3
		c2.9-0.7,4.8-3.3,5.2-7.3c0.1-0.6,0.1-1.2,0.2-1.8C464.2,686.1,464.4,686,464.6,685.9z M491.1,676.6c0.2,4.5,0.1,9,0.1,13.9
		c-5.8-5.6-11.4-11.1-17-16.5c-0.3,0.1-0.6,0.3-0.9,0.4c0,5.9,0,11.7,0,17.6c0,1.9,0.2,3.9-2.4,4.3c2.6,0,5.1,0,7.2,0
		c-0.6-0.7-2-1.5-2-2.4c-0.2-4.2-0.1-8.4-0.1-12.8c5.6,5.5,11.1,10.8,16.5,16.1c0.3-0.1,0.5-0.2,0.8-0.3c0-0.9,0.1-1.8,0.1-2.7
		c0.1-5.4,0.2-10.9,0.4-16.3c0-1.1,0.9-2.1,1.4-3.1c-1.9,0-4.3,0-6.4,0C489.6,675.2,491.1,675.9,491.1,676.6z M523.6,686.1
		c-0.2,5.2-3.9,9.7-9.2,10.2c-4.8,0.5-9.7,0.1-14.2,0.1c0.6-1,1.5-1.7,1.5-2.5c0.2-5.6,0.2-11.2,0.1-16.8c0-0.9-1.3-1.7-2.2-2.7
		c5.3,0.3,10.9,0.1,16.4,1C521.4,676.3,523.9,680.4,523.6,686.1z M506,676.5c0,5.4-0.1,10.7,0.1,15.9c0,0.8,0.6,2.1,1.3,2.4
		c4.1,2.2,10.5-0.5,11.6-5C521.6,679.3,513.8,674.8,506,676.5z M548.7,695.5c0.5,0.2,0.9,0.3,1.2,0.3h0v0.5c-1.3,0-2.6-0.1-3.9-0.1
		c-1.6-0.1-3.2-1.5-4.5-2.6c-1.2-1-2.2-2.5-3-3.9c-1.1-2-2.7-2.7-5-2.1c0,1.6,0,3.2,0,4.8c0,2,0.1,3.8,2.8,3.7h-8.2
		c0.5-1,1.4-2,1.5-3.1c0.2-5.3,0.2-10.5,0-15.8c0-1-1.4-1.9-1.8-2.4c3.3,0,7.3-0.3,11.3,0.1c4.5,0.5,6,4.5,3.4,8.2
		c-0.8,1.1-1.8,2-2.9,3.2c2.3,2.5,4.6,5.1,6.9,7.7C547.2,694.7,548,695.2,548.7,695.5z M539.3,684.4c1.3-2.1,1.3-4.3,0-6.3
		c-1.4-2.1-3.5-2.2-5.7-1.7v9.5C535.8,685.9,537.9,686.6,539.3,684.4z M557.9,695.6c-0.8-0.3-1.5-2-1.5-3c-0.2-4.9-0.2-9.9,0-14.8
		c0-1.1,0.9-2.2,1.3-3.2h-7c0.5,0.8,1.5,1.8,1.6,2.7c0.1,5.3,0.1,10.7-0.1,16.1c0,1.3-0.5,2.1-1.2,2.4v0.6c2.6,0,5.2,0,7.7,0v-0.6h0
		C558.4,695.8,558.1,695.7,557.9,695.6z M582.7,696.2h-5.9c-0.8-2.1-1.5-4.2-2.4-6.2c-0.2-0.4-0.8-0.8-1.3-0.9c-0.8-0.1-1.7,0-2.6,0
		c-4.5,0-4.7,0-5.8,4.3c-0.2,0.8,0.4,1.9,0.6,3c-1.9,0-3.8,0-5.8,0v-0.5c1-0.1,2-0.7,2.5-2c2.1-5,4.3-9.9,6.5-14.9
		c0.7-1.6,1.5-3.3,2.5-5.4c0.8,1.6,1.4,2.7,1.9,3.8c2.2,5.1,4.4,10.3,6.8,15.3C580.4,694.1,581.8,695.2,582.7,696.2z M573.4,687.4
		c-1-2.5-1.9-4.8-3.1-7.7c-1.2,2.9-2.1,5.3-3.1,7.7H573.4z"/>
	<path id="balance-word" class="st17" d="M378.9,717.8c-0.7-0.4-1.4-0.9-2.2-1.3c0.6-0.6,1.1-1.1,1.5-1.6c2.9-3.3,1.6-7.5-2.7-8.1
		c-3.5-0.5-7.1-0.1-10.7-0.1c1.6,0.1,2.7,0.5,2.7,2.4c0,6,0,12-0.1,17.9c0,1-1,2-1.6,3.1c3.4-0.2,7.4-0.2,11.2-0.7
		c2.8-0.4,4.7-2.5,5.1-5.5C382.3,721.2,381.1,719.2,378.9,717.8z M371.2,707.8c1.9-0.4,3.3,0,4.3,1.6c1.1,1.9,1.6,4,0.1,5.7
		c-0.9,1-2.7,1.2-4.4,1.9C371.2,713.4,371.2,710.6,371.2,707.8z M378.2,725.7c-0.4,2-2.2,3-4.8,2.8c-2.1-0.2-2.4-1.6-2.4-3.3
		c0-2.4,0-4.8,0-7.4C375.5,716.6,379,721.2,378.2,725.7z M400.5,726.4c-2-4.6-4-9.2-6-13.8c-0.5-1-1-2-1.8-3.6
		c-2.6,6-4.9,11.4-7.4,16.8c-0.7,1.6-2,2.9-2.9,4h5.1c-0.2-0.9-0.7-1.7-0.6-2.4c0.8-3.8,1.3-4.1,5.1-4.1c0.8,0,1.6-0.1,2.3,0
		c0.5,0.1,1.2,0.4,1.4,0.8c0.8,1.8,1.5,3.7,2.2,5.6h6.3c0-0.2,0-0.4,0-0.6c-0.9-0.1-1.8-0.3-2.5-0.7
		C401.2,728.2,400.9,727.2,400.5,726.4z M389.2,721.8c0.9-2.3,1.8-4.4,2.8-7c1,2.6,1.9,4.7,2.8,7H389.2z M418.4,729.1
		C418.4,729.1,418.4,729.1,418.4,729.1c0,0.3,0,0.5,0,0.7h-13.1c0-0.2,0-0.4,0-0.6c0.3-0.1,0.9-1.4,0.9-2.1c0.1-4.9,0.2-9.8,0-14.6
		c0-0.8-1.1-1.6-1.6-2.3h7.5c-2.5-0.1-2.3,1.6-2.2,3.3c0,4,0.1,8,0,12c-0.1,1.9,0.9,2.7,2.6,2.9c3.4,0.4,4.6-0.1,5.8-2.7V729.1z
		 M436.5,726.5c-1-2.1-1.9-4.3-2.8-6.5c-1.5-3.5-3.1-7-4.9-11c-0.7,1.3-1,2-1.3,2.7c-2.1,4.8-4.2,9.6-6.3,14.4
		c-0.4,0.9-1,1.8-1.6,2.6c0,0.3,0,0.7,0,1h4.2c-0.3-0.7-1.1-1.5-0.9-2c0.6-1.6,0.3-4.1,2.6-4.5c5.1-0.9,6.6,0.2,8,4.9
		c0.2,0.5,0.1,1,0.2,1.5h6.2c0-0.2,0.1-0.4,0.1-0.6c-0.8-0.1-1.6-0.3-2.3-0.7C437.1,728.2,436.8,727.2,436.5,726.5z M425.1,721.8
		c0.9-2.2,1.7-4.3,2.8-7c1.1,2.7,1.9,4.8,2.8,7H425.1z M456.1,710.2h6.1c-0.4,0.8-1.2,1.7-1.3,2.7c-0.2,5-0.3,10.1-0.4,15.1
		c0,0.8-0.1,1.5-0.1,2.3c-0.2,0.1-0.4,0.3-0.6,0.4c-5-4.8-10-9.7-15.1-14.7c0,4.1-0.1,8,0.1,11.8c0,0.7,1.3,1.4,1.9,2h-5.7
		c0-0.2,0-0.4,0.1-0.5c0.1,0,0.1,0,0.2,0c0.4,0,1-1.5,1.1-2.2c0.2-5,0.2-9.9,0.3-14.9c0-0.8,0-1.5,0.5-2.5c5.1,5,10.1,9.9,15.6,15.2
		c0-1.9,0-3.4,0-4.9c0-2.1-0.1-4.2,0-6.4C458.6,711.8,458.3,710.3,456.1,710.2L456.1,710.2z M483.6,725.5c0.1,4-0.2,4.5-3.9,4.8
		c-4.7,0.4-9.4-0.1-12.6-4.1c-4.8-6-1.4-15,6.3-16c3.4-0.4,6.8-0.1,10.2-0.1c0,2,0,3.5,0,4.4c-1.3-1-2.6-2.5-4.2-3
		c-1.7-0.5-3.8-0.5-5.5-0.1c-3.2,0.7-4.8,3.5-4.8,7.7c0,4.6,2.2,8.1,6,9.3C478.8,729.6,481.5,728.7,483.6,725.5z M498,730
		c-3.4,0-6.8,0-10,0c0.5-0.7,1.3-1.3,1.3-1.9c0.1-5.3,0.2-10.5,0.1-15.8c0-0.7-1.3-1.5-2-2.2c4.2,0,8.6,0,13.1,0
		c-0.1,1.1-0.2,2.3-0.3,3.8c-1.5-3.7-4.5-1.7-7-2.5c0,2.6,0,4.8,0,7c2.3,0,4.6,0,6.9,0c-0.2,1.1-0.3,2.3-0.5,3.7
		c-1.3-3.5-4.2-1.1-6.5-2.4c0,2.7,0,4.9,0,7c0,0.5,0.4,1.1,0.8,1.4c1.8,1.4,6,0.3,7-1.7C501.5,729.4,501.1,730,498,730z"/>
	<path id="jesse-word" class="st18" d="M303.1,81.7c-0.3,0.1-0.5,0.2-0.8,0.2c-3,0.4-3.5,0.9-3.5,3.9c0,10.7,0,21.4,0,32.1
		c0,9-5.2,14.5-12.7,18.4c-0.4,0.2-0.8,0.2-1.2,0.2c0-0.2-0.1-0.3-0.2-0.5c0.2-0.2,0.3-0.4,0.5-0.6c4.8-2.9,6.5-7.5,6.6-12.7
		c0.2-12.6,0.1-25.2,0.1-37.8c0-1.9-1-2.8-3.1-3c-0.6-0.1-1.2-0.1-2-0.2C287.9,80.7,302.3,80.7,303.1,81.7z M331.5,115
		c-0.7,2.8-1.6,3.7-4.6,3.9c-1.7,0.1-3.4,0.1-5.1,0c-2.8-0.2-4-1.5-4-4.3c0-3.4,0-6.9,0-10.3c0-0.9,0-1.8,0-2.5c2.8,0,5.3-0.1,7.8,0
		c2.7,0.2,3.2,0.9,3.4,3.6c0,0.3,0.2,0.5,0.2,0.8c0.2,0,0.4,0,0.5,0c0.3-3.1,0.5-6.1,0.8-9.4c-4.2,3-8.5,1.2-12.7,1.8
		c0-5.1,0-9.9,0-14.9c3.1,0.2,6.1,0.2,9,0.5c1.7,0.2,2.5,1.3,2.7,3c0,0.5,0.2,1,0.2,1.5c0.2,0,0.4,0,0.6,0c0.3-2.8,0.5-5.7,0.8-8.2
		c-8.5,0.8-16.9,0.1-25.3,0.7c0.5,0.4,1,0.7,1.5,0.7c2.5,0.2,3.4,1.1,3.4,3.6c0,10.4,0,20.7-0.1,31.1c0,3.7-0.7,4.4-3.7,4.5
		c-0.1,0-0.3,0.2-0.4,0.3c0,0.1,0,0.3,0,0.4c0.7,0,1.3,0.1,2,0.1c4.2,0,8.4,0,12.6,0.1c2.8,0,5.6,0.2,8.4,0.1c0.7,0,1.8-0.5,1.9-1
		c0.4-2.3,0.6-4.7,0.8-7.1c0-0.1-0.2-0.3-0.6-0.8C331.7,114.1,331.6,114.5,331.5,115z M351.3,96.6c-1.7-1.3-3.5-2.4-5-3.9
		c-1.9-1.8-2.2-4.9-0.9-7.1c1.4-2.3,4.7-3.5,8-2.8c2.7,0.5,4.7,2.8,5,5.5c0.1,0.5,0.2,0.9,0.3,1.4c0.2,0,0.3,0,0.5,0
		c0.1-0.5,0.2-1,0.3-1.5c0.1-2,0.1-3.9,0.3-5.9c0.1-1.1-0.3-1.7-1.4-1.8c-3.1-0.2-6.4-0.8-9.4-0.3c-10.7,1.7-11.8,12.2-7.6,17.8
		c1.7,2.2,4.2,3.9,6.4,5.8c1.7,1.4,3.7,2.5,5.2,4.1c3.2,3.3,2.4,9-1.4,11.2c-4.8,2.7-11.1-0.3-11.9-5.7c-0.1-0.8-0.3-1.7-0.4-2.5
		c-0.1,0-0.3,0-0.4-0.1c-0.2,0.3-0.5,0.7-0.5,1c-0.1,2.6-0.3,5.1-0.3,7.7c0,0.7,0.7,1.6,1.3,1.9c1.8,0.7,3.8,1.3,5.7,1.5
		c3.7,0.5,7.3-0.1,10.3-2.4c6-4.4,7.1-13,2.3-18.6C356,100,353.5,98.4,351.3,96.6z M380.1,96.6c-1.7-1.3-3.5-2.4-5-3.9
		c-2-2-2.2-5.2-0.6-7.3c1.6-2.3,4.9-3.3,8.1-2.5c2.5,0.7,4.4,2.9,4.7,5.7c0,0.4,0.2,0.8,0.3,1.2c0.2,0,0.3,0,0.5,0
		c0.1-0.5,0.2-1,0.2-1.5c0.1-2,0.1-3.9,0.3-5.9c0.1-1.1-0.4-1.6-1.4-1.8c-3.2-0.6-6.3-1-9.6-0.4c-7,1.2-11,7.4-9.1,14.3
		c1.1,4,4,6.5,7.2,8.7c2,1.4,4.1,2.7,5.9,4.4c2.4,2.2,2.9,5.7,1.6,8.6c-1.1,2.5-3.7,4-6.6,3.9c-3.8-0.2-6.6-2-7.6-5.1
		c-0.4-1.3-0.5-2.6-0.9-4.4c-0.4,0.6-0.7,0.8-0.8,1c-0.1,2.8-0.3,5.6-0.3,8.3c0,0.5,0.5,1.2,0.9,1.4c4.3,1.9,8.6,2.4,13.3,0.9
		c9-3,10.8-14.5,5.1-20.6C384.5,99.7,382.2,98.3,380.1,96.6z M419.1,113.3c-0.2,0.8-0.3,1.2-0.4,1.7c-0.7,2.8-1.6,3.7-4.6,3.9
		c-1.7,0.1-3.4,0.1-5.1,0c-2.8-0.2-4-1.4-4-4.3c0-3.4,0-6.9,0-10.3c0-0.9,0-1.8,0-2.5c2.8,0,5.3-0.1,7.8,0c2.7,0.2,3.2,0.9,3.4,3.6
		c0,0.3,0.2,0.5,0.2,0.8c0.2,0,0.4,0,0.5,0c0.3-3.1,0.5-6.1,0.8-9.4c-4.2,3-8.6,1.2-12.7,1.8c0-5.1,0-9.9,0-14.9
		c3.1,0.2,6.1,0.2,9,0.5c1.7,0.2,2.5,1.3,2.7,3c0,0.5,0.2,1,0.2,1.5c0.2,0,0.4,0,0.6,0c0.3-2.8,0.5-5.6,0.8-8.2
		c-8.5,0.7-16.9,0.1-25.3,0.6c0.5,0.4,1,0.7,1.5,0.7c2.5,0.2,3.4,1.1,3.4,3.6c0,10.4,0,20.7-0.1,31.1c0,3.7-0.7,4.4-3.7,4.5
		c-0.1,0-0.3,0.2-0.4,0.3c0,0.1,0,0.3,0,0.4c0.7,0,1.3,0.1,2,0.1c4.2,0,8.4,0,12.6,0.1c2.8,0,5.6,0.2,8.3,0.1c0.7,0,1.9-0.5,1.9-1
		c0.4-2.3,0.6-4.7,0.9-7.1C419.7,113.9,419.5,113.8,419.1,113.3z"/>
	<path id="james-word" class="st18" d="M449.5,85.8c0,10.2-0.1,20.5,0.1,30.8c0.2,9.3-4.4,15.4-12.2,19.6c-0.5,0.3-1.2,0.4-1.8,0.6
		c-0.1-0.2-0.2-0.3-0.2-0.5c0.2-0.2,0.3-0.5,0.5-0.6c5-3,6.6-7.9,6.7-13.4c0.1-12.2,0.1-24.4,0.1-36.6c0-2.5-0.9-3.3-3.4-3.6
		c-0.4,0-0.9-0.1-1.3-0.1c-0.1,0-0.1-0.2-0.4-0.5c0.6-0.1,1.1-0.4,1.6-0.4c4.4,0,8.8,0,13.2,0c0.5,0,1,0.2,1.5,0.4
		c0,0.1,0,0.3,0,0.4c-0.3,0.1-0.6,0.2-0.9,0.2C450.1,82.4,449.5,82.9,449.5,85.8z M490.5,121.1c0,0.4,0,0.7,0,1.1
		c-3.4,0-6.9-0.1-10.3-0.1c-0.3,0-0.5-0.1-1.3-0.3c2.2-0.9,1.4-2.2,1-3.4c-1-2.9-2.1-5.7-3-8.6c-0.3-0.9-0.7-1.3-1.7-1.3
		c-3.4,0.1-6.9,0-10.3,0.1c-0.5,0-1.2,0.5-1.4,0.9c-1,2.5-1.9,5-2.8,7.5c-1.1,3.4-0.7,4,3.1,4.4c-0.4,0.4-0.7,0.9-0.9,0.9
		c-3.9,0-7.8,0-11.6,0c-0.3,0-0.6-0.3-1.1-0.6c0.6-0.2,0.8-0.4,1.1-0.4c2.8,0,4.2-1.6,5.1-4c1.9-5.1,3.9-10.1,5.9-15.2
		c2.6-6.6,5.1-13.3,7.6-19.9c0-0.1,0.1-0.2,0.2-0.3c0.5-0.7,1-1.4,1.6-2.1c0.5,0.7,1.1,1.3,1.4,2c1.8,4.6,3.5,9.2,5.3,13.8
		c2.6,6.7,5.2,13.5,7.8,20.2c0.6,1.4,1.5,2.8,2.4,4.1C489.1,120.5,489.8,121,490.5,121.1z M475.2,105.5c-1.7-4.9-3.3-9.7-5.1-14.9
		c-1.9,5.3-3.5,10-5.3,14.9H475.2z M536,117.1c-1-7.2-2-14.4-3-21.7c-0.6-4.7-1.3-9.4-2-14.1c-0.1-0.6-0.6-1.1-0.9-1.6
		c-0.5,0.4-1,0.7-1.3,1.2c-0.3,0.4-0.5,1-0.7,1.5c-4.3,9.7-8.6,19.5-13,29.5c-0.4-0.9-0.8-1.6-1.1-2.3c-4.2-9.4-8.4-18.8-12.6-28.3
		c-0.3-0.6-1-1.1-1.6-1.6c-0.3,0.5-0.8,1.1-0.9,1.6c-1.1,8-2.2,16.1-3.4,24.1c-0.6,4.4-1.2,8.7-2,13.1c-0.2,0.9-0.9,2-1.6,2.3
		c-0.3,0.1-0.5,0.2-0.8,0.2c0,0.3,0,0.7,0,1.1c3.2,0,6.5,0.1,9.7,0.1c0.4,0,0.7-0.3,1.1-0.5c-0.5-0.5-1-0.6-1.5-0.7
		c-2.6-0.5-2.7-0.6-2.6-3.2c0-0.5,0.1-1,0.1-1.5c0.5-4.5,1-9,1.5-13.5c0.3-2.5,0.6-4.9,0.9-7.9c0.5,1,0.7,1.5,1,2.1
		c3.4,7.5,6.8,15,10.2,22.5c0.4,0.9,1,1.7,1.6,2.5c0.2,0,0.4,0,0.6,0c4.4-9,8.1-18.3,12.5-27.6c0.2,0.5,0.2,0.6,0.3,0.8
		c0.8,6.4,1.6,12.8,2.2,19.2c0.2,2.2,1.4,4.5-0.3,6.7c2.3,1,12.3,1.1,13.3,0c-0.7-0.1-1.3-0.2-2-0.3
		C537.2,120.6,536.4,119.9,536,117.1z M568.1,115.9c-0.4,1.5-1.2,2.7-2.8,2.8c-2.6,0.2-5.2,0.2-7.8,0c-1.6-0.1-2.7-1.4-2.7-3
		c-0.1-4.7,0-9.3,0-14.2c3,0.2,5.8,0.2,8.6,0.5c1.6,0.1,2.3,1.2,2.5,2.8c0,0.5,0.1,1.1,0.2,1.6c0.2,0,0.4,0,0.7,0
		c0.3-3.1,0.5-6.1,0.8-9.3c-4.2,2.9-8.5,1.1-12.6,1.8c0-5.1,0-9.9,0-14.9c3,0.1,5.9,0.2,8.8,0.5c1.8,0.2,2.7,1.1,2.9,3
		c0.1,0.5,0.2,1.1,0.3,1.6c0.2,0,0.4,0,0.7,0c0.3-2.8,0.5-5.6,0.8-8.2c-8.5,0.6-16.8,0.1-25.2,0.2c-0.1,0.2-0.1,0.4-0.2,0.6
		c0.4,0.1,0.9,0.4,1.3,0.4c3,0.3,3.7,1,3.7,4c0,7.3,0.1,14.6,0,21.9c0,3.6-0.2,7.2-0.3,10.8c-0.1,1.5-1,2.2-2.4,2.4
		c-0.5,0.1-1,0.2-1.5,0.4c0,0.1,0,0.3,0.1,0.4c0.6,0,1.1,0.1,1.7,0.1c1.4,0,2.7-0.1,4.1-0.1c5.6,0.1,11.2,0.2,16.9,0.3
		c0.7,0,2-0.4,2.1-0.8c0.4-2.5,0.6-5.1,0.8-7.7c0,0-0.2,0-0.5-0.1C568.5,114.4,568.3,115.2,568.1,115.9z M594.5,102
		c-2-2.2-4.6-3.8-7-5.6c-1.5-1.2-3.2-2.3-4.6-3.6c-1.8-1.8-2-4.9-0.7-7c1.5-2.3,4.7-3.4,8-2.7c2.6,0.6,4.6,2.8,5,5.6
		c0.1,0.4,0.2,0.9,0.2,1.3c0.2,0,0.4,0,0.6,0c0.1-0.5,0.2-0.9,0.2-1.3c0.1-2,0.1-4,0.3-6.1c0.1-1.2-0.5-1.7-1.4-1.7
		c-3.1-0.2-6.2-0.8-9.2-0.3c-10.8,1.7-12,12.2-7.5,18c1.6,2,3.8,3.6,5.8,5.2c1.8,1.5,4,2.7,5.7,4.4c3.2,3.3,2.5,9-1.2,11.2
		c-4.7,2.8-11.1-0.2-12-5.6c-0.1-0.9-0.3-1.7-0.5-3c-0.5,0.7-0.8,1-0.8,1.2c-0.2,2.8-0.3,5.6-0.3,8.3c0,0.5,0.6,1.2,1.1,1.4
		c4.3,1.8,8.5,2.3,13.1,0.8C598.2,119.3,600.1,108.1,594.5,102z"/>
	<path id="method-word" class="st19" d="M379.3,161.5c-0.1,0.2-0.2,0.3-0.3,0.5c-2.3,0-4.6,0-6.6,0c-0.5-4.8-1-9.4-1.5-14.1
		c-0.1,0-0.2-0.1-0.4-0.1c-2.2,4.8-4.4,9.6-6.6,14.5c-0.2,0-0.4,0.1-0.6,0.1c-2.2-4.7-4.4-9.4-6.7-14.6c-0.5,4.3-1,8.2-1.4,12.1
		c-0.1,0.9,0.3,1.4,1.2,1.6c0.3,0,0.7,0.2,0.9,0.5c-2.2,0-4.4,0-6.5,0c3.3-0.9,2.2-3.8,2.6-5.8c1-5.2,1.6-10.5,2.3-15.8
		c0.1-0.4,0.2-0.8,0.3-1.2c0.2,0,0.4,0,0.6-0.1c2.6,5.7,5.2,11.4,7.8,17.3c2.6-5.9,5.2-11.6,7.8-17.3c0.2,0,0.5,0,0.7,0
		c0.2,0.9,0.4,1.8,0.5,2.7c0.8,5.4,1.5,10.9,2.2,16.3C376,160.2,376.5,161.8,379.3,161.5z M401.9,158.3c-0.8,2.4-4.9,3.5-6.7,1.7
		c-0.3-0.3-0.6-0.8-0.6-1.3c-0.1-2.5,0-5.1,0-7.8c2.4,0.6,5.6-1.4,6.5,2.6c0.1-1.6,0.2-3.3,0.3-4.5c-2.3,0.2-4.5,0.3-6.8,0.4
		c0-2.8,0-5.3,0-8c2.4,0.6,5.6-1.4,6.8,2.6c0.1-1.5,0.3-3,0.4-4.2c-4.6,0-9.1,0-13.6,0c0,0.1,0,0.3,0,0.4c0.3,0.1,0.6,0.2,0.9,0.2
		c1.2,0,1.8,0.7,1.8,1.9c0,5.6,0,11.1,0,16.7c0,1.4-0.3,2.8-2.4,2.5c0,0.2,0,0.4,0.1,0.5c0.4,0.1,0.9,0.3,1.3,0.3
		c2.1,0,4.2-0.1,6.4-0.1c1.6,0,3.2,0.2,4.7,0.2c0.4,0,1.1-0.3,1.1-0.6c0.2-1.3,0.3-2.7,0.5-4C402.1,157.9,402,158.1,401.9,158.3z
		 M412.2,143.8c1-0.8,1.7-1.7,2.5-1.9c1.7-0.4,3.5-0.3,5.3-0.4c0,5.5,0,10.8,0,16.2c0,1.8,0.5,3.8-2.2,4.2c3,0,5.9,0,8.9,0
		c-2.6-0.9-2.8-0.9-2.9-3.2c-0.1-5.7,0-11.3,0-17.3c2.6,0.7,5.8-1.1,7.3,2.6c0-1.5,0-3,0-4.4c-6,0-12.1,0-18.2,0
		C412.7,141.1,412.5,142.5,412.2,143.8z M461.7,159c0-5.5,0-11,0-16.5c0-1.1,0.3-2,1.6-2c0.2,0,0.4-0.2,0.6-0.3c0-0.1,0-0.2-0.1-0.2
		c-2.8,0-5.7,0-8.5,0c1,0.7,2.6,0.5,2.6,2.3c0,2.1,0.1,4.2,0,6.4c0,0.3-0.6,0.9-0.9,0.9c-3.2,0.1-6.4,0-9.8,0c0-1.8-0.1-3.5,0-5.2
		c0.1-1.8-0.8-4,2.2-4.4c-2.8,0-5.7,0-8.9,0c3,1.1,3,1.1,3.1,4.2c0,4.6,0,9.2,0,13.8c0,1.6,0.3,3.6-2.2,4c2.9,0,5.9,0,8.8,0
		c-0.3-0.4-0.6-0.5-0.9-0.5c-1.3,0.1-1.9-0.6-1.9-1.8c-0.1-2.8,0-5.5,0-8.3c3.6,0,7,0,10.6,0c0,2.2,0,4.3,0,6.4
		c0,1.7,0.4,3.7-2.2,4.1c2.9,0,5.9,0,8.9,0c0.1-0.2,0.2-0.3,0.3-0.5C462.7,161.8,461.7,161,461.7,159z M497.7,150.6
		c0,7-4.8,11.9-11.5,11.9c-6.7,0-11.2-4.6-11.2-11.5c0-6.8,4.7-11.4,11.5-11.4C493.4,139.6,497.7,143.8,497.7,150.6z M493.8,151.3
		c-0.2-2.6-0.8-5.1-2.3-7.2c-2.8-3.8-8.4-4-10.9-0.3c-2.7,4-1.8,11.8,1.7,15c3.9,3.6,9.3,2.3,10.8-2.7
		C493.5,154.6,493.5,152.9,493.8,151.3z M530.3,152.6c-1,6.5-5.2,9.9-11.8,9.9c-3.5,0-6.9-0.3-10.4-0.4c0-0.2,0-0.4,0.1-0.4
		c1.9,0,2.1-1.3,2.1-2.7c0-5.5,0-11,0-16.5c0-1.9-1.5-1.8-2.7-2.1c0-0.2,0.1-0.4,0.1-0.6c4.9,0.2,9.8,0,14.6,0.7
		C529.2,141.4,531.2,147.5,530.3,152.6z M526.5,151.1c-0.1-6.2-4.9-10.4-11.1-9.6c-1,0.1-1.3,0.5-1.3,1.4c0,2.5,0,5,0,7.5
		c0,0,0,0,0,0c0,2.6,0,5.1,0,7.7c0,1.2,0.3,2.2,1.6,2.5c2.8,0.6,5.4,0.5,7.8-1.2C526.4,157.3,526.6,154.2,526.5,151.1z"/>
	<path id="arrows" class="st19" d="M582.8,152.5c-13.6,0-27.9,0-42.3,0c0-0.7,0-1.5,0-2.5C554.8,150.8,569.2,151.7,582.8,152.5z
		 M301.7,152.6c13.3,0,26.7,0,40,0c0-0.9,0-1.6,0-2.5c-13.5,0.8-26.8,1.6-40,2.3C301.7,152.5,301.7,152.5,301.7,152.6z"/>
</g>
</svg>
