<?xml version="1.0" encoding="utf-8"?>
<!-- Generator: Adobe Illustrator 24.3.0, SVG Export Plug-In . SVG Version: 6.00 Build 0)  -->
<svg version="1.1" id="mitochondria-health-1" xmlns="http://www.w3.org/2000/svg" xmlns:xlink="http://www.w3.org/1999/xlink"
	 x="0px" y="0px" viewBox="0 0 864 864" style="enable-background:new 0 0 864 864;" xml:space="preserve">
<style type="text/css">
	.st0{fill:url(#background-circle_1_);}
	.st1{fill:#DA2C2B;}
	.st2{fill:url(#ekg-top-back_1_);}
	.st3{fill:url(#ekg-top-front_1_);}
	.st4{fill:url(#ekg-middle-back-1_1_);}
	.st5{fill:url(#ekg-middle-front-1_1_);}
	.st6{fill:url(#ekg-middle-back-2_1_);}
	.st7{fill:url(#ekg-middle-front-2_1_);}
	.st8{fill:url(#ekg-middle-back-3_1_);}
	.st9{fill:url(#ekg-middle-front-3_1_);}
	.st10{fill:url(#ekg-bottom-back_1_);}
	.st11{fill:url(#ekg-bottom-front_1_);}
	.st12{fill:url(#dna-strand-1-top_1_);}
	.st13{fill:#FFFFFF;}
	.st14{fill:url(#dna-strand-1-bottom_1_);}
	.st15{fill:url(#dna-strand-2-top_1_);}
	.st16{fill:url(#dna-strand-2-middle_1_);}
	.st17{fill:url(#dna-strand-2-bottom_1_);}
	.st18{fill:#DA2A2A;}
	.st19{fill:#0C0C0C;}
	.st20{fill:#DA2528;}
</style>
<g id="mitochondria-health-1-parts">
	<linearGradient id="background-circle_1_" gradientUnits="userSpaceOnUse" x1="200.37" y1="420.77" x2="665.37" y2="420.77">
		<stop  offset="0" style="stop-color:#BF2227"/>
		<stop  offset="0.6199" style="stop-color:#EE3025"/>
	</linearGradient>
	<path id="background-circle" class="st0" d="M597.3,256.4c-43.9-43.9-102.3-68.1-164.4-68.1s-120.5,24.2-164.4,68.1
		c-43.9,43.9-68.1,102.3-68.1,164.4s24.2,120.5,68.1,164.4c43.9,43.9,102.3,68.1,164.4,68.1s120.5-24.2,164.4-68.1
		c43.9-43.9,68.1-102.3,68.1-164.4S641.2,300.3,597.3,256.4z M432.9,646.3c-124.3,0-225.5-101.2-225.5-225.5
		s101.2-225.5,225.5-225.5s225.5,101.2,225.5,225.5S557.2,646.3,432.9,646.3z M645,420c0,116.7-94.6,211.4-211.4,211.4
		S222.3,536.8,222.3,420S317,208.7,433.7,208.7S645,303.3,645,420z"/>
	<path id="health-word" class="st1" d="M396.8,730c-3.4,0-6.8,0-10.2,0c2.1-0.3,2.5-1.8,2.5-3.6c0-3,0-6.1,0-9.2
		c-4.5,0-8.9,0-13.5,0c0,3.5-0.2,7,0.1,10.5c0.1,0.9,1.8,1.7,2.6,2.3c-2.8,0-6.2,0-8.9,0c0.5-1,1.6-2.3,1.7-3.5
		c0.2-6.5,0.2-12.9,0-19.4c0-1.1-1.6-2.2-2.3-3.1c2.6,0,5.9,0,9.2,0c-2.3,0.4-2.6,2-2.5,4c0.1,2.2,0,4.5,0,6.9c4.5,0,8.9,0,13.6,0
		c0-2.8,0.2-5.6-0.1-8.3c-0.1-1-1.6-1.9-2.3-2.6c2.7,0,5.9,0,9.2,0c-2.6,0.5-2.5,2.4-2.5,4.4c0,5.8,0,11.5,0,17.3
		C393.3,728.2,393.8,730.1,396.8,730z M415.8,729.5C415.8,729.5,415.7,729.5,415.8,729.5l0-3.6c-1.2,2.6-5.8,3.8-7.9,2.2
		c-0.5-0.4-0.9-1.1-0.9-1.7c-0.1-2.3,0-4.7,0-7.4c2.6,1,5.7-1.4,7.2,2.5c0.2-1.7,0.4-3.1,0.5-4.2h-7.6v-7.7c2.7,0.8,6-1.4,7.7,2.8
		c0.1-1.7,0.2-3,0.3-4.2h-14.4c0.7,0.8,2.1,1.6,2.1,2.4c0.1,5.8,0.1,11.5-0.1,17.3c0,0.8-0.9,1.5-1.3,2.3c3.2,0,6.8,0,10.3,0
		c1.4,0,2.8,0,4.2,0C415.8,730,415.8,729.8,415.8,729.5C415.8,729.6,415.8,729.5,415.8,729.5z M456.4,725.9c0.8,3.7,0.3,4.4-3.4,4.3
		c-4.3,0-8.7-0.1-13-0.1c0,0,0,0,0,0h-6.8c-0.1-0.5-0.1-1-0.2-1.5c-1.5-5.3-3.7-6.8-9.1-5.5c-1.3,0.3-2.1,3-2.7,4.7
		c-0.2,0.6,0.6,1.6,0.9,2.4h-5.2c0-0.1,0-0.1,0-0.2c0,0,0-0.1,0-0.1c0,0,0,0,0-0.1c0-0.1,0-0.1,0-0.2c0-0.1,0-0.1,0-0.2
		c1.3-0.3,1.7-1.6,2.2-2.7c2.5-5.6,4.9-11.1,7.3-16.7c0.4-0.8,0.8-1.5,1.4-2.8c0.7,1.5,1.3,2.6,1.8,3.7c2.3,5.2,4.5,10.6,7,15.7
		c0.6,1.3,2.3,2.1,3.5,3.1c0,0,0,0,0,0c2.3,0.3,3.3-0.7,3.3-3c0-5.2,0.1-10.5-0.1-15.7c0-1-1.2-1.9-1.8-2.8c2.4,0,5.3,0,8.3,0
		c-3,0.2-2.3,2.4-2.4,4.2c0,4.3,0.1,8.5,0,12.8c-0.1,2.2,1,3,2.9,3.2C453.9,728.9,455.3,728.4,456.4,725.9z M429.9,721.2
		c-1-2.5-2-4.9-3.1-7.8c-1.2,2.9-2.1,5.3-3.1,7.8H429.9z M493.9,730.1c4,0,7.1,0,10.2,0c-2.7,0.1-3-1.6-3-3.6c0-5-0.1-10,0.1-14.9
		c0-1.1,1-2.2,1.4-3.1c-2.3,0-5.2,0-8.8,0c3.6,0.9,4,2.3,3,9.1c-3.9,0-7.8,0-12,0c1.3-3.1-1.9-7,2.5-9.2c-3,0-5.9,0-8.3,0
		c0.6,0.8,1.9,1.7,1.9,2.7c0.2,5.3,0.1,10.6,0,16c0,1.1-0.9,2.2-1.4,3.2c2.5,0,5.5,0,7.9,0c-0.6-0.7-2-1.6-2.1-2.6
		c-0.3-2.6-0.1-5.3-0.1-8c4.1,0,8,0,12,0c0,2.3,0,4.5,0,6.7C497.1,727.9,497,729.7,493.9,730.1z M455.5,712.3
		c2.1-2.5,3.1-2.7,8.6-2.2c0,5.5,0.1,11.1-0.1,16.7c0,1.2-1,2.4-1.4,3.4c2.5,0,5.5,0,7.8,0c-0.6-0.7-2.1-1.7-2.1-2.7
		c-0.2-5.8-0.1-11.7-0.1-17.7c2.8,0.6,5.9-0.9,7.8,2.6c0-1.5,0-2.9,0-4.3c-6.6,0-13.1,0-19.8,0C456.1,709.3,455.9,710.6,455.5,712.3
		z"/>
	<g id="dna-strands">
		<g id="ekg-top">
			
				<linearGradient id="ekg-top-back_1_" gradientUnits="userSpaceOnUse" x1="375.8203" y1="698.7216" x2="437.6671" y2="698.7216" gradientTransform="matrix(0.9744 0.2248 0.2248 -0.9744 -114.6513 895.4448)">
				<stop  offset="0" style="stop-color:#959636"/>
				<stop  offset="2.520000e-02" style="stop-color:#949536"/>
				<stop  offset="0.4969" style="stop-color:#878935"/>
				<stop  offset="1" style="stop-color:#838534"/>
			</linearGradient>
			<path id="ekg-top-back" class="st2" d="M406.3,309c2.4-0.2,4.4-0.3,5.7-0.4c0.6,0,3.2-0.2,6.4-0.5c2.9-0.3,3.8-0.5,4.6-1.2
				c1.1-1,1.2-2.5,1.3-3.4c0.6,0.7,1.1,1.4,1.6,2c0.5,0.8,0.7,1.1,1.1,1.5c0.5,0.4,1.2,0.9,2.4,1.1c3.1-0.1,7-0.3,10.1-0.4
				c2.4-0.1,6.2-0.2,8.5-0.4c0.2,0.1,0.6,0.1,0.9,0c0.5-0.2,0.7-0.7,0.8-1c0.3-1,1.4-4.8,2.7-9.9c0.5,1.5,1,3.1,1.6,4.6
				c0.9,2.6,1.8,5.2,2.7,7.8c0,0,0,0.1,0.1,0.2c0.1,0.1,0.2,0.1,0.4,0c0.3-1.1,0.5-2,0.7-2.7c0.2-0.7,0.4-1.2,0.6-1.2
				c0.2,0,0.5,0.5,0.7,1c0.2,0.5,0.3,0.9,0.6,1.1c0.1,0.1,0.3,0.2,0.4,0.2c1.1,0.3,3.2,0,4.5-0.1c0.3,0,0,0,1.5,0
				c2.9-0.1,3.6-0.2,3.9,0.2c0.1,0.2,0.1,0.5-0.4,1.3c-1.8-0.1-3.2,0-4.1,0c-1.5,0.1-2.9,0.3-5.1,0.3c-0.4,0-0.6,0-0.8,0
				c0-0.2,0-1.4-0.7-1.8c-0.1,0-0.1-0.1-0.2-0.1c-0.4,0.6-0.6,1.1-0.7,1.5c-0.2,0.6-0.2,1.1-0.6,1.8c-0.2,0.3-0.3,0.5-0.4,0.6
				c-0.1-0.1-0.3-0.1-0.4-0.2c-0.8-1.8-1.4-3-1.8-3.9c-1.7-3.7-1.8-3.8-1.8-3.9c0-0.1,0-0.3-0.2-0.5c-0.1-0.1-0.3-0.1-0.5-0.1
				c-0.3,0.8-0.6,1.4-0.8,1.9c-0.8,2-1.2,3-1.3,3.5c-0.3,1-0.2,1.5-0.7,1.8c-0.6,0.5-1.4,0.4-1.8,0.3c-0.5-0.1-3.1-0.1-8.4-0.2
				c-2,0-4.3-0.1-6.5,0.3c-0.5,0.1-2.1,0.4-4.2,0c-0.3,0-0.6-0.1-0.8-0.1c-0.4-0.4-0.8-0.9-1.3-1.4c-0.6-0.6-1.1-1.3-1.5-1.9
				c-0.2,0.1-0.4,0.4-0.6,0.6c-0.5,0.4-1,0.9-1.4,1.1c-0.8,0.6-1.6,0.8-2.5,1.1c-0.6,0.2-1.6,0.5-3.1,0.8c-1.7,0.3-1.8,0.1-4.2,0.4
				c-2.3,0.3-3.4,0.4-3.8,0.5c-1.4,0.3-2,0.5-2.5,0.1C406.1,310.9,406.2,309.6,406.3,309z"/>
			
				<linearGradient id="ekg-top-front_1_" gradientUnits="userSpaceOnUse" x1="376.0234" y1="698.9532" x2="437.8703" y2="698.9532" gradientTransform="matrix(0.9744 0.2248 0.2248 -0.9744 -114.6513 895.4448)">
				<stop  offset="0" style="stop-color:#F2EA1A"/>
				<stop  offset="1" style="stop-color:#F1EA19"/>
			</linearGradient>
			<path id="ekg-top-front" class="st3" d="M406.6,308.8c2.4-0.2,4.4-0.3,5.7-0.4c0.6,0,3.2-0.2,6.4-0.5c2.9-0.3,3.8-0.5,4.6-1.2
				c1.1-1,1.2-2.5,1.3-3.4c0.6,0.7,1.1,1.4,1.6,2c0.5,0.8,0.7,1.1,1.1,1.5c0.5,0.4,1.2,0.9,2.4,1.1c3.1-0.1,7-0.3,10.1-0.4
				c2.4-0.1,6.2-0.2,8.5-0.4c0.2,0.1,0.6,0.1,0.9,0c0.5-0.2,0.7-0.7,0.8-1c0.3-1,1.4-4.8,2.7-9.9c0.5,1.5,1,3.1,1.6,4.6
				c0.9,2.6,1.8,5.2,2.7,7.8c0,0,0,0.1,0.1,0.2c0.1,0.1,0.2,0.1,0.4,0c0.3-1.1,0.5-2,0.7-2.7c0.2-0.7,0.4-1.2,0.6-1.2
				c0.2,0,0.5,0.5,0.7,1c0.2,0.5,0.3,0.9,0.6,1.1c0.1,0.1,0.3,0.2,0.4,0.2c1.1,0.3,3.2,0,4.5-0.1c0.3,0,0,0,1.5,0
				c2.9-0.1,3.6-0.2,3.9,0.2c0.1,0.2,0.1,0.5-0.4,1.3c-1.8-0.1-3.2,0-4.1,0c-1.5,0.1-2.9,0.3-5.1,0.3c-0.4,0-0.6,0-0.8,0
				c0-0.2,0-1.4-0.7-1.8c-0.1,0-0.1-0.1-0.2-0.1c-0.4,0.6-0.6,1.1-0.7,1.5c-0.2,0.6-0.2,1.1-0.6,1.8c-0.2,0.3-0.3,0.5-0.4,0.6
				c-0.1-0.1-0.3-0.1-0.4-0.2c-0.8-1.8-1.4-3-1.8-3.9c-1.7-3.7-1.8-3.8-1.8-3.9c0-0.1,0-0.3-0.2-0.5c-0.1-0.1-0.3-0.1-0.5-0.1
				c-0.3,0.8-0.6,1.4-0.8,1.9c-0.8,2-1.2,3-1.3,3.5c-0.3,1-0.2,1.5-0.7,1.8c-0.6,0.5-1.4,0.4-1.8,0.3c-0.5-0.1-3.1-0.1-8.4-0.2
				c-2,0-4.3-0.1-6.5,0.3c-0.5,0.1-2.1,0.4-4.2,0c-0.3,0-0.6-0.1-0.8-0.1c-0.4-0.4-0.8-0.9-1.3-1.4c-0.6-0.6-1.1-1.3-1.5-1.9
				c-0.2,0.1-0.4,0.4-0.6,0.6c-0.5,0.4-1,0.9-1.4,1.1c-0.8,0.6-1.6,0.8-2.5,1.1c-0.6,0.2-1.6,0.5-3.1,0.8c-1.7,0.3-1.8,0.1-4.2,0.4
				c-2.3,0.3-3.4,0.4-3.8,0.5c-1.4,0.3-2,0.5-2.5,0.1C406.4,310.7,406.5,309.4,406.6,308.8z"/>
		</g>
		<g id="ekg-middle">
			
				<linearGradient id="ekg-middle-back-1_1_" gradientUnits="userSpaceOnUse" x1="450.4958" y1="663.5651" x2="398.7455" y2="628.5616" gradientTransform="matrix(0.9521 0.3059 0.3059 -0.9521 -159.8553 917.3578)">
				<stop  offset="0" style="stop-color:#828635"/>
				<stop  offset="3.330000e-02" style="stop-color:#828635"/>
				<stop  offset="1" style="stop-color:#828635"/>
			</linearGradient>
			<path id="ekg-middle-back-1" class="st4" d="M412.3,433.1c1.9-0.1,4.2-0.1,6.7,0.2c1.6,0.2,3,0.4,4.4,0.7
				c0.7-2.1,1.4-4.3,2.1-6.4c0.5,1,0.9,2,1.3,3c0.4,0.9,0.7,1.8,1,2.6c1.4-0.1,3.6-0.2,6.4-0.4c3.7-0.3,4.5-0.5,6.9-0.5
				c3.7-0.1,6.3,0.3,6.9,0.4c1.9,0.3,3.5,0.7,4.7,1c0.4-3.3,0.8-6.5,1.2-9.8c0.7,1.5,1.3,2.7,1.6,3.6c1,2.4,2,5,2,5
				c0.1,0,0.5-0.2,0.8-0.6c0.3-0.4,0.3-0.7,0.3-0.9c1.3-0.1,2.5-0.2,3.9-0.2c4.2-0.2,8.1-0.2,11.9,0c-0.1,0.4-0.2,0.7-0.4,1
				c-2.4,0.3-4.3,0.5-5.7,0.6c-1.1,0.1-2.3,0.2-3.4,0.3c-1.6,0.1-2.6,0.2-4,0.4c-0.7,0.1-1.3,0.2-1.8,0.3c-0.4,1.1-0.7,2.2-1.1,3.3
				c-0.1-0.2-0.4-0.6-0.6-1.1c-0.3-0.5-0.6-1.3-1.5-4.3c-0.2-0.6-0.4-1.3-0.8-2.2c-0.2-0.4-0.3-0.7-0.5-0.9
				c-0.2,1.5-0.4,2.7-0.5,3.5c-0.1,1.3-0.2,2.2-0.4,3.6c-0.1,0.8-0.3,1.4-0.4,1.8c-0.1,0-0.2,0.1-0.3,0.1c-0.2,0-0.3-0.2-0.5-0.5
				c-0.4-0.9-0.3-1.2-0.6-1.5c-0.1-0.1-0.3-0.3-0.6-0.5c-0.7,0-1.6-0.1-2.8-0.1c-1.5,0-2.9,0-5.8,0c-5.2,0.1-4.5,0.2-7.1,0.2
				c-1.2,0-2.5,0-4.4,0.1c-1.1,0.1-2,0.1-2.6,0.2c-0.2,1-0.3,1.8-0.3,2.4c0,0.5,0,1.4,0.1,2.1c0,0.2,0,0.4,0,0.6
				c-0.2-0.2-0.4-0.5-0.5-0.7c-0.4-1-0.6-1.7-0.7-2.2c-0.3-1.1-0.3-1.7-0.7-3.2c-0.2-0.8-0.4-1.5-0.5-1.9c-0.5,0.7-0.8,1.3-1,1.7
				c-0.1,0.3-0.3,1-0.7,2.2c0,0.1,0,0.2-0.1,0.2c-0.5-0.1-1.2-0.3-2.1-0.5c-1.7-0.3-3-0.4-4.4-0.6c-2.1-0.2-3.1-0.3-3.7-0.3
				c-0.9,0-1.9-0.2-2.8-0.1c-0.3,0-0.6,0-0.8-0.1c-0.4-0.4-0.1-1.5,0.8-1.7C411.6,432.8,412.1,433.1,412.3,433.1z"/>
			
				<linearGradient id="ekg-middle-front-1_1_" gradientUnits="userSpaceOnUse" x1="450.4234" y1="663.8884" x2="398.6732" y2="628.8849" gradientTransform="matrix(0.9521 0.3059 0.3059 -0.9521 -159.8553 917.3578)">
				<stop  offset="0" style="stop-color:#F2EA1A"/>
				<stop  offset="1" style="stop-color:#F1EA19"/>
			</linearGradient>
			<path id="ekg-middle-front-1" class="st5" d="M412.3,432.8c1.9-0.1,4.2-0.1,6.7,0.2c1.6,0.2,3,0.4,4.4,0.7
				c0.7-2.1,1.4-4.3,2.1-6.4c0.5,1,0.9,2,1.3,3c0.4,0.9,0.7,1.8,1,2.6c1.4-0.1,3.6-0.2,6.4-0.4c3.7-0.3,4.5-0.5,6.9-0.5
				c3.7-0.1,6.3,0.3,6.9,0.4c1.9,0.3,3.5,0.7,4.7,1c0.4-3.3,0.8-6.5,1.2-9.8c0.7,1.5,1.3,2.7,1.6,3.6c1,2.4,2,5,2,5
				c0.1,0,0.5-0.2,0.8-0.6c0.3-0.4,0.3-0.7,0.3-0.9c1.3-0.1,2.5-0.2,3.9-0.2c4.2-0.2,8.1-0.2,11.9,0c-0.1,0.4-0.2,0.7-0.4,1
				c-2.4,0.3-4.3,0.5-5.7,0.6c-1.1,0.1-2.3,0.2-3.4,0.3c-1.6,0.1-2.6,0.2-4,0.4c-0.7,0.1-1.3,0.2-1.8,0.3c-0.4,1.1-0.7,2.2-1.1,3.3
				c-0.1-0.2-0.4-0.6-0.6-1.1c-0.3-0.5-0.6-1.3-1.5-4.3c-0.2-0.6-0.4-1.3-0.8-2.2c-0.2-0.4-0.3-0.7-0.5-0.9
				c-0.2,1.5-0.4,2.7-0.5,3.5c-0.1,1.3-0.2,2.2-0.4,3.6c-0.1,0.8-0.3,1.4-0.4,1.8c-0.1,0-0.2,0.1-0.3,0.1c-0.2,0-0.3-0.2-0.5-0.5
				c-0.4-0.9-0.3-1.2-0.6-1.5c-0.1-0.1-0.3-0.3-0.6-0.5c-0.7,0-1.6-0.1-2.8-0.1c-1.5,0-2.9,0-5.8,0c-5.2,0.1-4.5,0.2-7.1,0.2
				c-1.2,0-2.5,0-4.4,0.1c-1.1,0.1-2,0.1-2.6,0.2c-0.2,1-0.3,1.8-0.3,2.4c0,0.5,0,1.4,0.1,2.1c0,0.2,0,0.4,0,0.6
				c-0.2-0.2-0.4-0.5-0.5-0.7c-0.4-1-0.6-1.7-0.7-2.2c-0.3-1.1-0.3-1.7-0.7-3.2c-0.2-0.8-0.4-1.5-0.5-1.9c-0.5,0.7-0.8,1.3-1,1.7
				c-0.1,0.3-0.3,1-0.7,2.2c0,0.1,0,0.2-0.1,0.2c-0.5-0.1-1.2-0.3-2.1-0.5c-1.7-0.3-3-0.4-4.4-0.6c-2.1-0.2-3.1-0.3-3.7-0.3
				c-0.9,0-1.9-0.2-2.8-0.1c-0.3,0-0.6,0-0.8-0.1c-0.4-0.4-0.1-1.5,0.8-1.7C411.6,432.5,412.2,432.8,412.3,432.8z"/>
			
				<linearGradient id="ekg-middle-back-2_1_" gradientUnits="userSpaceOnUse" x1="436.7566" y1="686.9511" x2="381.3701" y2="649.4881" gradientTransform="matrix(0.9381 0.3464 0.3464 -0.9381 -174.6856 900.3966)">
				<stop  offset="0" style="stop-color:#828635"/>
				<stop  offset="3.330000e-02" style="stop-color:#828635"/>
				<stop  offset="1" style="stop-color:#828635"/>
			</linearGradient>
			<path id="ekg-middle-back-2" class="st6" d="M407.4,416c0.5,0,1.2-0.1,2.1-0.1c1-0.1,2.8-0.2,4.1-0.2c1.6-0.1,3.7-0.1,6.2,0.1
				c1.2,0.1,2.9,0.4,4.9,0.8c0.4-1,0.9-1.9,1.3-2.9c0.5-1.1,0.9-2.1,1.4-3.2c0.2,0.6,0.3,1.1,0.4,1.5c0.3,1.1,0.5,1.6,0.8,2.8
				c0.1,0.5,0.2,0.9,0.3,1.2c0.5,0,1.1-0.1,1.9-0.1c2.7-0.2,3.7-0.4,5.2-0.5c2.2-0.2,3.9-0.1,6.2-0.1c1.7,0,3.3,0,5,0.2
				c0.8,0.1,1.6,0.2,2.5,0.5c0.7,0.2,1.3,0.4,1.7,0.5c0.2-0.5,0.3-1,0.5-1.6c0.4-1.6,0.6-3.2,0.7-4.6c0.1-1.2,0.3-2.3,0.4-3.5
				c0.2,0.6,0.6,1.5,1,2.6c0.3,1,0.3,1,0.7,2.4c0.1,0.4,0.5,1.4,1,2.8c0.1,0.4,0.3,0.7,0.4,0.9c0.1-0.2,0.3-0.7,0.7-1
				c0.5-0.5,1-0.6,1.3-0.7c1,0,2.4,0.1,4.2,0c2.8,0,4-0.2,6.2-0.2c1.5,0,3.6,0,6.2,0.2c-0.2,0.2-0.3,0.3-0.5,0.5
				c-2,0.4-3.6,0.6-4.7,0.7c-1.6,0.2-2.9,0.4-7.9,0.9c-1.4,0.1-3,0.3-4.4,0.4c-0.4,1-0.7,2-1.1,3c-0.6-1.4-0.9-2.6-1.1-3.5
				c-0.2-1-0.3-1.9-0.8-3.2c-0.2-0.6-0.4-1-0.6-1.3c-0.3,1.4-0.5,2.5-0.6,3.3c-0.2,1.3-0.4,1.9-0.6,3s-0.4,2-0.5,2.6
				c-0.1-0.1-0.3-0.2-0.4-0.3c0-0.2,0-1-0.5-1.7c-0.4-0.4-0.8-0.7-1-0.8c-0.6,0-1.4-0.1-2.5-0.1c-2.9-0.1-4,0-8.2,0.1
				c-3.1,0-3.5,0-6.5,0.1c-1.4,0-2.6,0.1-3.4,0.1c-0.2,1.6-0.5,3.2-0.7,4.8c-0.1-0.1-0.2-0.2-0.4-0.3c-0.1-1.4-0.2-2.5-0.4-3.2
				c-0.2-0.9-0.4-1.8-0.7-3.7c0-0.3-0.1-0.5-0.1-0.6c-0.4,0.8-0.8,1.7-1.1,2.6c-0.2,0.6-0.5,1.2-0.7,1.8c-0.6-0.2-1.5-0.5-2.6-0.8
				c-2-0.5-3.5-0.6-6.3-0.9c-2.9-0.3-4.4-0.4-5.8-0.4c-2.2,0.1-4,0.4-4.1,0C406.5,416.7,406.9,416.4,407.4,416z"/>
			
				<linearGradient id="ekg-middle-front-2_1_" gradientUnits="userSpaceOnUse" x1="438.7035" y1="689.4222" x2="380.84" y2="650.2838" gradientTransform="matrix(0.9381 0.3464 0.3464 -0.9381 -174.6856 900.3966)">
				<stop  offset="0" style="stop-color:#EFE919"/>
				<stop  offset="1" style="stop-color:#EFE919"/>
			</linearGradient>
			<path id="ekg-middle-front-2" class="st7" d="M414.9,414.4c1.8-0.1,3.8,0,6.1,0.3c1.4,0.2,2.8,0.4,3.9,0.7
				c0.8-2.1,1.6-4.2,2.4-6.3c0.3,1,0.7,2,1,3c0.3,0.9,0.5,1.8,0.7,2.6c1.3,0,3.3-0.1,5.8-0.3c3.4-0.3,4.1-0.4,6.3-0.5
				c3.4,0,5.7,0.3,6.2,0.4c1.7,0.3,3.1,0.7,4.2,1c0.6-3.2,1.2-6.4,1.8-9.6c0.5,1.5,1,2.7,1.2,3.5c0.7,2.4,1.4,5,1.4,5
				c0.1,0,0.5-0.2,0.8-0.6c0.3-0.4,0.3-0.7,0.3-0.9c1.1-0.1,2.3-0.1,3.5-0.2c3.8-0.1,13.4,0.1,16.9,0.3c-0.1,0.3-0.4,0.3-0.5,0.7
				c-2.2,0.2-9.9,0.6-11.1,0.7c-1,0.1-2.1,0.2-3.1,0.3c-1.5,0.1-2.4,0.2-3.7,0.4c-0.7,0.1-1.2,0.2-1.6,0.2c-0.4,1.1-0.8,2.2-1.2,3.2
				c-0.1-0.2-0.3-0.6-0.5-1c-0.2-0.5-0.5-1.2-1.1-4.3c-0.1-0.6-0.3-1.3-0.6-2.2c-0.1-0.4-0.3-0.7-0.3-0.9c-0.3,1.5-0.5,2.7-0.7,3.5
				c-0.2,1.2-0.3,2.2-0.7,3.5c-0.2,0.8-0.3,1.4-0.5,1.8c-0.1,0-0.2,0.1-0.3,0.1c-0.2,0-0.3-0.2-0.4-0.5c-0.3-0.8-0.2-1.1-0.5-1.5
				c-0.1-0.1-0.2-0.3-0.5-0.5c-0.6,0-1.5-0.1-2.6-0.2c-1.4-0.1-2.6-0.1-5.3,0c-4.7,0-4.1,0.1-6.5,0.1c-1,0-2.2,0-4,0
				c-1,0-1.9,0.1-2.4,0.2c-0.3,1-0.4,1.8-0.4,2.4c0,0.5-0.1,1.4-0.1,2c0,0.2,0,0.4,0,0.5c-0.1-0.2-0.3-0.4-0.4-0.7
				c-0.2-0.9-0.4-1.7-0.5-2.2c-0.2-1.1-0.2-1.7-0.4-3.2c-0.1-0.8-0.2-1.5-0.3-1.9c-0.5,0.7-0.8,1.3-1,1.7c-0.1,0.3-0.4,0.9-0.8,2.2
				c0,0.1-0.1,0.2-0.1,0.2c-0.5-0.1-1.1-0.3-1.9-0.5c-1.5-0.3-2.7-0.5-4-0.6c-1.9-0.2-2.8-0.3-3.4-0.3c-0.9,0-1.7-0.2-2.6-0.1
				c-0.3,0-6.9,0.1-7.1-0.1c-0.3-0.4-0.9-0.7-0.1-1C407,414.9,414.8,414.4,414.9,414.4z"/>
			
				<linearGradient id="ekg-middle-back-3_1_" gradientUnits="userSpaceOnUse" x1="426.9354" y1="705.7225" x2="379.2362" y2="673.459" gradientTransform="matrix(0.9381 0.3464 0.3464 -0.9381 -174.6856 900.3966)">
				<stop  offset="0" style="stop-color:#838634"/>
				<stop  offset="3.330000e-02" style="stop-color:#838634"/>
				<stop  offset="1" style="stop-color:#838634"/>
			</linearGradient>
			<path id="ekg-middle-back-3" class="st8" d="M415.2,393.8c1.8-0.1,3.8,0,6.1,0.3c1.4,0.2,2.8,0.4,3.9,0.7
				c0.8-2.1,1.6-4.2,2.4-6.3c0.3,1,0.7,2,1,3c0.3,0.9,0.5,1.8,0.7,2.6c1.3,0,3.3-0.1,5.8-0.3c3.4-0.3,4.1-0.4,6.3-0.5
				c3.4,0,5.7,0.3,6.2,0.4c1.7,0.3,3.1,0.7,4.2,1c0.6-3.2,1.2-6.4,1.8-9.6c0.5,1.5,1,2.7,1.2,3.5c0.7,2.4,1.4,5,1.4,5
				c0.1,0,0.5-0.2,0.8-0.6c0.3-0.4,0.3-0.7,0.3-0.9c1.1-0.1,2.3-0.1,3.5-0.2c3.8-0.1,7.4-0.1,10.8,0.1c-0.1,0.3-0.3,0.7-0.4,1
				c-2.2,0.2-4,0.4-5.2,0.5c-1,0.1-2.1,0.2-3.1,0.3c-1.5,0.1-2.4,0.2-3.7,0.4c-0.7,0.1-1.2,0.2-1.6,0.2c-0.4,1.1-0.8,2.2-1.2,3.2
				c-0.1-0.2-0.3-0.6-0.5-1c-0.2-0.5-0.5-1.2-1.1-4.3c-0.1-0.6-0.3-1.3-0.6-2.2c-0.1-0.4-0.3-0.7-0.3-0.9c-0.3,1.5-0.5,2.7-0.7,3.5
				c-0.2,1.2-0.3,2.2-0.7,3.5c-0.2,0.8-0.3,1.4-0.5,1.8c-0.1,0-0.2,0.1-0.3,0.1c-0.2,0-0.3-0.2-0.4-0.5c-0.3-0.8-0.2-1.1-0.5-1.5
				c-0.1-0.1-0.2-0.3-0.5-0.5c-0.6,0-1.5-0.1-2.6-0.2c-1.4-0.1-2.6-0.1-5.3,0c-4.7,0-4.1,0.1-6.5,0.1c-1,0-2.2,0-4,0
				c-1,0-1.9,0.1-2.4,0.2c-0.3,1-0.4,1.8-0.4,2.4c0,0.5-0.1,1.4-0.1,2c0,0.2,0,0.4,0,0.5c-0.1-0.2-0.3-0.4-0.4-0.7
				c-0.2-0.9-0.4-1.7-0.5-2.2c-0.2-1.1-0.2-1.7-0.4-3.2c-0.1-0.8-0.2-1.5-0.3-1.9c-0.5,0.7-0.8,1.3-1,1.7c-0.1,0.3-0.4,0.9-0.8,2.2
				c0,0.1-0.1,0.2-0.1,0.2c-0.5-0.1-1.1-0.3-1.9-0.5c-1.5-0.3-2.7-0.5-4-0.6c-1.9-0.2-2.8-0.3-3.4-0.3c-0.9,0-1.7-0.2-2.6-0.1
				c-0.3,0-0.5,0-0.7-0.1c-0.3-0.4,0-1.5,0.8-1.7C414.6,393.5,415.1,393.7,415.2,393.8z"/>
			
				<linearGradient id="ekg-middle-front-3_1_" gradientUnits="userSpaceOnUse" x1="426.8982" y1="705.9966" x2="379.1989" y2="673.7331" gradientTransform="matrix(0.9381 0.3464 0.3464 -0.9381 -174.6856 900.3966)">
				<stop  offset="0" style="stop-color:#EFE919"/>
				<stop  offset="1" style="stop-color:#EFE919"/>
			</linearGradient>
			<path id="ekg-middle-front-3" class="st9" d="M415.2,393.5c1.8-0.1,3.8,0,6.1,0.3c1.4,0.2,2.8,0.4,3.9,0.7
				c0.8-2.1,1.6-4.2,2.4-6.3c0.3,1,0.7,2,1,3c0.3,0.9,0.5,1.8,0.7,2.6c1.3,0,3.3-0.1,5.8-0.3c3.4-0.3,4.1-0.4,6.3-0.5
				c3.4,0,5.7,0.3,6.2,0.4c1.7,0.3,3.1,0.7,4.2,1c0.6-3.2,1.2-6.4,1.8-9.6c0.5,1.5,1,2.7,1.2,3.5c0.7,2.4,1.4,5,1.4,5
				c0.1,0,0.5-0.2,0.8-0.6c0.3-0.4,0.3-0.7,0.3-0.9c1.1-0.1,2.3-0.1,3.5-0.2c3.8-0.1,7.4-0.1,10.8,0.1c-0.1,0.3-0.3,0.7-0.4,1
				c-2.2,0.2-4,0.4-5.2,0.5c-1,0.1-2.1,0.2-3.1,0.3c-1.5,0.1-2.4,0.2-3.7,0.4c-0.7,0.1-1.2,0.2-1.6,0.2c-0.4,1.1-0.8,2.2-1.2,3.2
				c-0.1-0.2-0.3-0.6-0.5-1c-0.2-0.5-0.5-1.2-1.1-4.3c-0.1-0.6-0.3-1.3-0.6-2.2c-0.1-0.4-0.3-0.7-0.3-0.9c-0.3,1.5-0.5,2.7-0.7,3.5
				c-0.2,1.2-0.3,2.2-0.7,3.5c-0.2,0.8-0.3,1.4-0.5,1.8c-0.1,0-0.2,0.1-0.3,0.1c-0.2,0-0.3-0.2-0.4-0.5c-0.3-0.8-0.2-1.1-0.5-1.5
				c-0.1-0.1-0.2-0.3-0.5-0.5c-0.6,0-1.5-0.1-2.6-0.2c-1.4-0.1-2.6-0.1-5.3,0c-4.7,0-4.1,0.1-6.5,0.1c-1,0-2.2,0-4,0
				c-1,0-1.9,0.1-2.4,0.2c-0.3,1-0.4,1.8-0.4,2.4c0,0.5-0.1,1.4-0.1,2c0,0.2,0,0.4,0,0.5c-0.1-0.2-0.3-0.4-0.4-0.7
				c-0.2-0.9-0.4-1.7-0.5-2.2c-0.2-1.1-0.2-1.7-0.4-3.2c-0.1-0.8-0.2-1.5-0.3-1.9c-0.5,0.7-0.8,1.3-1,1.7c-0.1,0.3-0.4,0.9-0.8,2.2
				c0,0.1-0.1,0.2-0.1,0.2c-0.5-0.1-1.1-0.3-1.9-0.5c-1.5-0.3-2.7-0.5-4-0.6c-1.9-0.2-2.8-0.3-3.4-0.3c-0.9,0-1.7-0.2-2.6-0.1
				c-0.3,0-0.5,0-0.7-0.1c-0.3-0.4,0-1.5,0.8-1.7C414.7,393.2,415.1,393.5,415.2,393.5z"/>
		</g>
		<g id="ekg-bottom">
			
				<linearGradient id="ekg-bottom-back_1_" gradientUnits="userSpaceOnUse" x1="-274.4869" y1="299.8471" x2="-191.5911" y2="299.8471" gradientTransform="matrix(-0.7159 0.276 -0.3597 -0.9331 382.2249 870.0819)">
				<stop  offset="0" style="stop-color:#8B8D35"/>
				<stop  offset="3.330000e-02" style="stop-color:#8B8D35"/>
				<stop  offset="1" style="stop-color:#8B8D35"/>
			</linearGradient>
			<path id="ekg-bottom-back" class="st10" d="M475.8,527.3c-2.6-0.1-4.6-0.1-6-0.1c-0.6,0-3.4,0-6.8-0.1c-3.1-0.1-4.1-0.3-5.1-1.2
				c-1.4-1.3-1.9-3.2-2.2-4.3c-0.5,1-0.8,1.9-1.1,2.8c-0.4,1-0.4,1.5-0.8,2c-0.4,0.6-1,1.3-2.2,1.6c-3.2,0.1-7.4,0.2-10.6,0.3
				c-2.5,0.1-6.5,0.2-9,0.2c-0.2,0.1-0.6,0.2-1,0c-0.5-0.2-0.9-0.9-1.1-1.3c-0.6-1.3-2.6-6.1-5.3-12.7c-0.1,2-0.3,4.1-0.5,6.1
				c-0.3,3.5-0.5,6.9-0.8,10.3c0,0,0,0.2-0.1,0.3c-0.1,0.1-0.2,0.1-0.4,0.1c-0.6-1.4-1.1-2.6-1.5-3.5c-0.4-0.9-0.7-1.6-1-1.6
				c-0.3,0-0.4,0.7-0.5,1.3c-0.1,0.7-0.1,1.1-0.4,1.5c-0.1,0.2-0.2,0.2-0.4,0.3c-1.1,0.5-3.3,0.3-4.8,0.3c-0.3,0,0,0-1.6,0
				c-3,0.1-3.8,0-4,0.6c-0.1,0.2,0,0.7,0.8,1.7c1.8-0.2,3.3-0.3,4.3-0.3c1.5,0,3.1,0.2,5.5,0c0.4,0,0.7-0.1,0.9-0.1
				c-0.1-0.3-0.4-1.8,0.3-2.4c0,0,0.1-0.1,0.2-0.1c0.6,0.8,0.9,1.4,1.1,1.9c0.4,0.8,0.5,1.5,1.1,2.3c0.2,0.3,0.5,0.6,0.6,0.7
				c0.1-0.1,0.2-0.2,0.4-0.3c0.4-2.3,0.7-4,0.9-5.2c0.9-4.9,0.9-5,0.9-5.2c0-0.1-0.1-0.4,0.1-0.6c0.1-0.2,0.3-0.2,0.4-0.2
				c0.5,1,1,1.8,1.3,2.4c1.4,2.5,2,3.8,2.3,4.5c0.5,1.3,0.6,1.9,1.2,2.3c0.7,0.6,1.6,0.3,1.9,0.3c0.5-0.1,3.2-0.4,8.6-1
				c2-0.2,4.5-0.5,6.8-0.2c0.6,0.1,2.3,0.3,4.4-0.3c0.3-0.1,0.6-0.2,0.8-0.3c0.3-0.6,0.6-1.2,1-1.9c0.4-0.9,0.8-1.7,1.1-2.6
				c0.2,0.2,0.5,0.4,0.8,0.7c0.6,0.5,1.3,1,1.8,1.3c1,0.7,1.8,0.9,2.9,1.3c0.7,0.2,1.8,0.5,3.5,0.7c1.8,0.2,1.9,0,4.5,0.2
				c2.5,0.2,3.7,0.2,4.1,0.3c1.5,0.2,2.2,0.5,2.6,0C476.5,529.7,476,528.1,475.8,527.3z"/>
			
				<linearGradient id="ekg-bottom-front_1_" gradientUnits="userSpaceOnUse" x1="-275.0341" y1="300.5748" x2="-192.1383" y2="300.5748" gradientTransform="matrix(-0.7159 0.276 -0.3597 -0.9331 382.2249 870.0819)">
				<stop  offset="0" style="stop-color:#F2EA1A"/>
				<stop  offset="1" style="stop-color:#F1EA19"/>
			</linearGradient>
			<path id="ekg-bottom-front" class="st11" d="M475.9,526.4c-2.6-0.1-4.6-0.1-6-0.1c-0.6,0-3.4,0-6.8-0.1c-3.1-0.1-4.1-0.3-5.1-1.2
				c-1.4-1.3-1.9-3.2-2.2-4.3c-0.5,1-0.8,1.9-1.1,2.8c-0.4,1-0.4,1.5-0.8,2c-0.4,0.6-1,1.3-2.2,1.6c-3.2,0.1-7.4,0.2-10.6,0.3
				c-2.5,0.1-6.5,0.2-9,0.2c-0.2,0.1-0.6,0.2-1,0c-0.5-0.2-0.9-0.9-1.1-1.3c-0.6-1.3-2.6-6.1-5.3-12.7c-0.1,2-0.3,4.1-0.5,6.1
				c-0.3,3.5-0.5,6.9-0.8,10.3c0,0,0,0.2-0.1,0.3c-0.1,0.1-0.2,0.1-0.4,0.1c-0.6-1.4-1.1-2.6-1.5-3.5c-0.4-0.9-0.7-1.6-1-1.6
				c-0.3,0-0.4,0.7-0.5,1.3c-0.1,0.7-0.1,1.1-0.4,1.5c-0.1,0.2-0.2,0.2-0.4,0.3c-1.1,0.5-3.3,0.3-4.8,0.3c-0.3,0,0,0-1.6,0
				c-3,0.1-3.8,0-4,0.6c-0.1,0.2,0,0.7,0.8,1.7c1.8-0.2,3.3-0.3,4.3-0.3c1.5,0,3.1,0.2,5.5,0c0.4,0,0.7-0.1,0.9-0.1
				c-0.1-0.3-0.4-1.8,0.3-2.4c0,0,0.1-0.1,0.2-0.1c0.6,0.8,0.9,1.4,1.1,1.9c0.4,0.8,0.5,1.5,1.1,2.3c0.2,0.3,0.5,0.6,0.6,0.7
				c0.1-0.1,0.2-0.2,0.4-0.3c0.4-2.3,0.7-4,0.9-5.2c0.9-4.9,0.9-5,0.9-5.2c0-0.1-0.1-0.4,0.1-0.6c0.1-0.2,0.3-0.2,0.4-0.2
				c0.5,1,1,1.8,1.3,2.4c1.4,2.5,2,3.8,2.3,4.5c0.5,1.3,0.6,1.9,1.2,2.3c0.7,0.6,1.6,0.3,1.9,0.3c0.5-0.1,3.2-0.4,8.6-1
				c2-0.2,4.5-0.5,6.8-0.2c0.6,0.1,2.3,0.3,4.4-0.3c0.3-0.1,0.6-0.2,0.8-0.3c0.3-0.6,0.6-1.2,1-1.9c0.4-0.9,0.8-1.7,1.1-2.6
				c0.2,0.2,0.5,0.4,0.8,0.7c0.6,0.5,1.3,1,1.8,1.3c1,0.7,1.8,0.9,2.9,1.3c0.7,0.2,1.8,0.5,3.5,0.7c1.8,0.2,1.9,0,4.5,0.2
				c2.5,0.2,3.7,0.2,4.1,0.3c1.5,0.2,2.2,0.5,2.6,0C476.6,528.8,476.2,527.3,475.9,526.4z"/>
		</g>
		<g id="dna-strand-1">
			
				<linearGradient id="dna-strand-1-top_1_" gradientUnits="userSpaceOnUse" x1="417.5011" y1="657.928" x2="390.9272" y2="773.0975" gradientTransform="matrix(0.9744 0.2248 0.2248 -0.9744 -114.6513 895.4448)">
				<stop  offset="0.1929" style="stop-color:#909090"/>
				<stop  offset="0.3629" style="stop-color:#989797"/>
				<stop  offset="0.3988" style="stop-color:#A2A0A0"/>
				<stop  offset="0.5131" style="stop-color:#BFBDBD"/>
				<stop  offset="0.6298" style="stop-color:#D8D6D5"/>
				<stop  offset="0.7484" style="stop-color:#EBEAE9"/>
				<stop  offset="0.8703" style="stop-color:#F9F8F7"/>
				<stop  offset="1" style="stop-color:#FFFFFF"/>
			</linearGradient>
			<path id="dna-strand-1-top" class="st12" d="M397.6,245c-1.6-0.4-2.5-1.8-2.5-1.9c-0.5-0.9-0.5-1.8-0.6-2.4
				c0-1.9,0.7-3.4,1.1-4.2c1.7-2.7,5.2-3.5,6.9-3.9c12.2-2.6,22.2-2.5,22.2-2.5c8.8,0.5,13.3,0.1,17,0.5c8,0.9,14.2,1.7,21,5.4
				c6.9,3.8,10.9,8.9,12.8,11.4c10.8,14,10.3,29.9,10.1,34.7c-0.1,1.9-0.5,7.8-2.8,15.1c-2.7,8.3-6.4,13.9-10.3,19.4
				c-6.5,9.3-12.9,15.2-16.9,19c-7.6,7-15.8,12.9-16.1,12.6c-0.1-0.2,1.7-1.8,4.6-4.7c10-10.2,16-19.3,17.5-21.7
				c2-3.2,3.9-6.1,5.9-10.5c2.1-4.6,5-11.2,5.6-20.1c0.2-3.6,0.7-11.5-3-20.8c-0.8-1.9-4.2-10-12.4-17.2c-2.7-2.4-7.2-6.2-14.2-8.3
				c-2.5-0.8-4.8-1-9.2-1.5c-5-0.5-11.8-1.2-20.1-0.4c-8.3,0.9-12.5,1.3-13.2,1.6C400.5,244.8,399.1,245.4,397.6,245z"/>
			<path id="dna-strand-1-middle" class="st13" d="M427,470.8c-2.7-1.7-6-4.1-9.6-7.1c-2-1.7-5.7-4.9-9.7-9.6
				c-2.8-3.4-6.9-8.3-10.2-15.8c-1.3-3-4-9.3-4.4-17.9c-0.5-9.6,1.9-16.9,3.3-20.9c1.9-5.5,4.1-9.4,5.8-12.4
				c0.7-1.1,3.8-6.5,9.3-13.1c3.8-4.5,6.8-7.4,12.9-13c3.5-3.2,8.5-7.7,14.9-12.9c5.7-4.6,5.5-4,9.6-7.4c8.4-7,14-13.2,16.1-15.5
				c4-4.5,7.6-8.6,11.3-14.9c1.7-2.9,4.2-7.2,6.2-13.5c1.6-5.1,2.2-9.3,2.5-11.8c0.5-3.5,0.9-6.8,0.6-11.2c-0.5-7.8-3-13.6-4.1-16.2
				c-0.6-1.5-1.6-3.6-3-5.9c-2.7-4.5-5.8-7.8-8-10.1c0.7,0.5,1.7,1,2.8,1.8c1,0.8,2.7,2.1,4.3,3.8c1.7,1.8,2.8,3.3,4.8,6.3
				c1,1.4,1.8,2.6,2.7,4.2c0.5,0.9,1.8,3.2,3,6.3c1.9,5,2.6,9.1,2.8,10.5c0.6,4.1,0.5,7.3,0.4,9.2c-0.1,4.1-0.7,7.1-1.2,10
				c-0.5,2.7-1.1,6.1-2.5,10.2c-1.3,3.7-2.5,6.2-5,11.2c-2.3,4.5-3.9,7.8-6.7,11.8c-0.8,1.2-2.3,3.2-5.3,7.2
				c-2.8,3.6-4.1,5.5-5.5,7.1c-2.9,3.6-5.4,6.2-7.5,8.3c-2.1,2.2-3.7,3.8-6.7,6.8c-7.4,7.3-12.5,11.9-13.5,12.8
				c-2.2,2-3.5,3.1-5.2,4.6c-0.7,0.6-1.4,1.2-2.5,2.2c-1.6,1.4-2.5,2.2-3.3,3c-1,1-1.9,2.2-3.7,4.5c-1.2,1.6-2.6,3.5-4.3,6.1
				c-0.8,1.2-1.5,2.4-2.5,4c-1.4,2.5-2.3,4.5-2.5,5.1c-0.3,0.6-1.5,3.5-2.6,7.6c-0.4,1.5-1,3.6-1.4,6.3c-0.8,5.1-0.5,9.2-0.4,11
				c0.2,2.8,0.7,4.8,1,6.6c0.6,2.9,1.2,4.9,2.3,8.4c0.9,3,1.6,5.2,2.8,8.1c0.7,1.8,1.4,3.1,2,4.4c1,2,1.3,2.5,3.4,6.7
				c2.4,4.7,2.7,5.4,3.9,7.3c1,1.8,2,3.2,2.6,4.1C426.8,469.8,426.9,470.3,427,470.8z"/>
			
				<linearGradient id="dna-strand-1-bottom_1_" gradientUnits="userSpaceOnUse" x1="472.2661" y1="459.2905" x2="440.4348" y2="597.2454" gradientTransform="matrix(0.9744 0.2248 0.2248 -0.9744 -114.6513 895.4448)">
				<stop  offset="0" style="stop-color:#FFFFFF"/>
				<stop  offset="0.1865" style="stop-color:#E5E4E3"/>
				<stop  offset="0.5643" style="stop-color:#B5B4B3"/>
				<stop  offset="1" style="stop-color:#818282"/>
			</linearGradient>
			<path id="dna-strand-1-bottom" class="st14" d="M469.3,546c-0.5,2.9,2.3,5.5,2.6,5.8c0.7,0.7,1.9,1.8,3.7,2.1
				c3.6,0.7,6.3-2.1,6.6-2.4c0.8-0.8,1.1-1.6,2-4c1.5-3.8,2.2-5.8,2.7-7.5c0.9-3.2,2.6-9.3,2.6-16.5c0.1-11.5-4-20.3-5.8-24.1
				c-0.2-0.5-5.8-11.9-16.5-21c-4.1-3.5-9.3-7-9.6-7.2c-3.3-2.2-3.3-1.9-9-5.4c-5.9-3.6-6.2-4.1-12.4-7.9c-3.8-2.3-4.2-2.5-6.2-3.8
				c-2.3-1.6-5.1-3.5-8.1-6.6c-3.6-3.6-5.8-7.1-6.8-8.8c-2.5-4.3-3.8-8-4.4-10c-0.9-2.8-2.3-7.8-1.9-13.7c0.1-1.3,0.3-2.6,0.2-2.6
				c-0.1,0-1,3.6-1,7.6c0,3,0.5,5.3,0.8,6.9c2.7,11.7,6.1,20.4,6.1,20.4c2.8,7,5.5,12.1,7.3,15.3c1.7,3.2,3.3,5.9,4.5,7.8
				c1.4,0.8,3.6,2.1,6.4,3.6c8.2,4.5,11,5.4,15.6,8.4c1.6,1,5.3,3.5,9.3,7.3c3.3,3.1,9,8.8,12.8,18c2.9,7.1,3.3,13.1,3.4,14.9
				c0.3,6-0.8,10.6-1.3,13c-1,4.5-1.6,6.7-2.8,8.6C469.8,544.7,469.5,545.2,469.3,546z"/>
		</g>
		<g id="dna-strand-2">
			
				<linearGradient id="dna-strand-2-top_1_" gradientUnits="userSpaceOnUse" x1="430.028" y1="584.9487" x2="397.352" y2="726.5648" gradientTransform="matrix(0.9744 0.2248 0.2248 -0.9744 -114.6513 895.4448)">
				<stop  offset="0" style="stop-color:#58595B"/>
				<stop  offset="8.850000e-02" style="stop-color:#76777A"/>
				<stop  offset="0.2245" style="stop-color:#9C9EA0"/>
				<stop  offset="0.3589" style="stop-color:#BDBFC1"/>
				<stop  offset="0.4889" style="stop-color:#D9DADB"/>
				<stop  offset="0.6133" style="stop-color:#ECEDED"/>
				<stop  offset="0.7297" style="stop-color:#F8F9F9"/>
				<stop  offset="0.8302" style="stop-color:#FFFFFF"/>
			</linearGradient>
			<path id="dna-strand-2-top" class="st15" d="M414.4,283.1c-0.1-0.5-0.6-3.7-3.4-5.3c-0.2-0.1-1.4-0.8-3-0.9c-2-0.2-3.6,0.6-4.4,1
				c0,0-1.7,0.9-3.1,2.5c-6,7-6.7,23-6.7,23c-0.2,3.8-0.3,8.2,0.7,14c0.6,3.3,2.1,10.2,6.5,17.8c3.8,6.7,8,10.9,11.2,14
				c5.6,5.5,10.5,8.6,20,14.6c13.4,8.4,14.2,7.5,21.3,13c10.5,8.2,14.2,14.6,15.3,16.8c3.5,6.6,4.4,12,4.5,13.2
				c0.9,6.7-0.2,12.2-1.2,15.4c1.5-2.6,3.3-6.5,4.4-11.6c0.3-1.5,1.2-5.9,0.8-11.7c-0.4-7.2-2.5-12.5-4.4-17
				c-3-7.4-4.8-12.4-9.8-16.8c-1.2-1.1-2.6-2-5.3-3.7c-6.8-4.4-12-6.8-15-8.3c-2.2-1.1-11-5.6-18.3-12.6
				c-3.6-3.5-11.1-10.7-14.2-22.5c-2.9-11-0.5-20.8,0.8-25.9C412.4,288.3,413.5,285.2,414.4,283.1z"/>
			
				<linearGradient id="dna-strand-2-middle_1_" gradientUnits="userSpaceOnUse" x1="447.5619" y1="414.7768" x2="447.5619" y2="646.5739" gradientTransform="matrix(0.9744 0.2248 0.2248 -0.9744 -114.6513 895.4448)">
				<stop  offset="0" style="stop-color:#FFFFFF"/>
				<stop  offset="1.760000e-02" style="stop-color:#FFFFFF"/>
				<stop  offset="0.5296" style="stop-color:#FFFFFF"/>
				<stop  offset="0.6886" style="stop-color:#FBFAFA"/>
				<stop  offset="0.7766" style="stop-color:#F1F0EF"/>
				<stop  offset="0.8473" style="stop-color:#E4E2E2"/>
				<stop  offset="0.9087" style="stop-color:#D1D0CF"/>
				<stop  offset="0.9636" style="stop-color:#BCBBBA"/>
				<stop  offset="1" style="stop-color:#AAAAA9"/>
			</linearGradient>
			<path id="dna-strand-2-middle" class="st16" d="M463.9,365.4c1,1.8,1.8,3.2,2.4,4.1c1.1,1.8,1.3,2.1,2.1,3.4
				c0.8,1.4,1.4,2.5,2,3.8c0.7,1.3,1.3,2.5,1.6,3.2c2.1,4.5,3.4,9.5,3.4,9.5c0.7,2.6,1.7,6.4,1.9,11.4c0.1,2,0.2,5.7-0.8,10.4
				c-0.2,1-1,4.6-3,8.9c-0.4,0.8-0.7,1.5-1,2c-0.2,0.7-0.4,1.7-0.8,2.9c-0.5,1.6-1.1,3.9-2.3,6.8c-1.1,2.7-2.2,4.7-2.6,5.6
				c-1.1,2-2,3.4-2.9,4.7c-0.4,0.6-1.4,2.2-2.9,4.1c-1.4,1.9-2.8,3.7-4.9,5.9c-2.2,2.4-4.2,4-4.7,4.5c-1.2,1-2.4,1.9-4.2,3.3
				c-1.2,0.9-2.1,1.6-2.4,1.8c-4.1,3-7.7,7.3-13.4,12.6c-1.9,1.8-2.7,2.3-4.4,4c-0.6,0.6-1.1,1.1-4.7,5.2c-2,2.3-3,3.5-4.1,4.7
				c-2.1,2.4-3.2,3.6-4.4,5.2c-1.6,2-2.7,3.5-3.7,4.9c-1.5,2-2.9,3.9-4.6,6.6c-2.6,4.2-4.4,7.6-5.3,9.2c-0.3,0.6-1,2-1.9,4
				c-0.9,2.1-2.4,5.2-3.6,9.2c-0.4,1.3-1.8,5.7-2.7,11.7c-0.7,4.9-1.3,8.5-0.7,12.4c0.1,0.7,0.4,2.4,0.9,6c0.5,3.3,0.4,3.2,0.5,3.9
				c0.5,3,1.4,5.1,2.4,7.6c0.9,2.3,1.8,4.5,3.5,7.3c0.4,0.6,2,3.2,4.7,6.3c1.3,1.5,3,3.3,5.7,5.3c1.2,0.9,3.7,2.6,7.3,4.1
				c2.5,1,5,1.6,9.9,2.6c2.2,0.5,5.1,1,8.5,1.6c-0.7-0.5-1.7-1.2-2.9-2c-4.5-2.9-6.4-3.5-8.8-5.2c-1.2-0.9-3.9-3-6.9-6.3
				c-0.9-1-4-4.5-6.9-10.1c-1.4-2.6-3.4-6.5-4.5-12c-0.9-4.2-0.9-7.4-0.8-12.9c0-3.4,0.1-7,1-11.7c0.8-4.1,1.8-7.1,2.4-8.8
				c0.4-1,2-5.8,5.4-11.9c1.3-2.3,2.4-4.3,4.2-6.8c0.3-0.4,1.1-1.5,4.3-5.1c3.1-3.5,4.6-5.2,5.6-6.2c3.4-3.3,4.6-3.5,8.7-7.1
				c2-1.8,2.6-2.7,5.4-5.3c1.7-1.5,3-2.6,4-3.5c9.2-7.8,11.2-9.2,14.9-12.7c1.1-1.1,3-2.9,5.3-5.3c6.7-7.1,10.8-12.9,12.1-14.8
				c1.5-2.3,3-4.4,4.6-7.5c1.8-3.4,2.9-6.3,3.6-8.5c0.6-1.6,1.3-3.6,2.1-6.2c0.7-2.6,1.5-5.3,1.8-8.9c0.3-3.5,0-6-0.3-9.1
				c-0.3-2.5-0.6-5.4-1.6-9.1c-1.3-4.7-3.1-8.1-4.1-10.1c-2-3.8-3.9-6.3-5.5-8.6c-0.8-1.1-3.1-4.2-6.6-7.9
				C469.4,370.3,466.9,367.9,463.9,365.4z"/>
			
				<linearGradient id="dna-strand-2-bottom_1_" gradientUnits="userSpaceOnUse" x1="523.3577" y1="466.7327" x2="424.3218" y2="466.7327" gradientTransform="matrix(0.9744 0.2248 0.2248 -0.9744 -114.6513 895.4448)">
				<stop  offset="0" style="stop-color:#A19F9F"/>
				<stop  offset="1" style="stop-color:#E5E7E5"/>
			</linearGradient>
			<path id="dna-strand-2-bottom" class="st17" d="M435.2,490.4c-3.8,2.4-6.7,4.7-8.8,6.6c-0.6,0.5-2.6,2.4-5,5
				c-2.5,2.8-4.1,5-5.8,7.3c-2.5,3.4-3.8,5.2-5.2,8c-1.5,2.7-2.2,4.8-3.5,8.3c-1.2,3.2-2,5.4-2.7,8.5c-0.4,2-0.6,3.7-1,7.1
				c-0.4,3.7-0.6,5.6-0.7,8c-0.1,4.6,0.5,8.1,0.7,9.1c0.9,5,2.4,8.6,3.4,11c1,2.4,2.4,5.5,4.9,9.2c0.7,1,3.3,4.5,7.6,8.2
				c3.5,3,6.7,4.7,10,6.6c2.3,1.3,4.3,2.3,5.8,2.9c0.3,0,0.8,0.1,1.3,0.2c7,1.1,12,0.8,19.3,0.4c7.9-0.4,15.7-1.3,23.6-1.7
				c0.7,0,3.3-0.2,6.5-1.3c3.5-1.2,5.1-2.7,5.5-3.1c0.9-0.9,2.4-2.2,2.8-4.5c0.3-1.5,0.1-2.8-0.1-3.6c-0.2-0.7-0.7-2.4-2.1-3.4
				c-1-0.8-2.2-0.9-4.4-0.9c-4,0-7.1,0.5-7.6,0.6c0,0-1,0.2-8.1,1.2c-4.9,0.8-8.6,1-11.7,1.3c-4.2,0.3-7.3,0.6-11.5,0.6
				c-3.1,0-5.6,0-8.8-0.5c-5.9-0.8-10.1-2.5-11.5-3.1c-3.5-1.5-6.8-2.8-10.1-5.9c-2.7-2.5-4.2-5-6-8.1c-1.6-2.7-3.1-5.3-4.1-9.2
				c-0.9-3.6-0.9-6.4-0.9-9.3c0-1.2,0.1-5.7,1.4-11.6c0.3-1.3,1.6-7.1,5.1-14.3c2.6-5.4,5.2-9.2,8.3-13.6c1.6-2.3,2.9-4.1,4.9-6.5
				c3.2-3.9,4.9-5.6,5.6-6.4C433.2,492,434.4,491.1,435.2,490.4z"/>
		</g>
	</g>
	<path id="mitochondria" class="st18" d="M330,696.7c-2.6,0-5.2,0-7.5,0c-0.8-5.7-1.5-11.1-2.2-16.5c-0.2,0-0.4,0-0.5-0.1
		c-2.7,5.6-5.5,11.2-8.5,17.4c-3-6.1-5.8-11.6-8.8-17.7c-0.7,5.3-1.5,9.9-1.9,14.6c-0.1,0.8,1.4,1.7,2,2.3c-2,0-4.5,0-6.3,0
		c0.5-1,1.7-2.2,1.9-3.6c1.2-6.9,2.1-13.8,3.2-20.7c0.1-0.7,0.4-1.3,0.8-2.6c3.5,7.2,6.8,13.8,10.2,20.9c3.4-7,6.6-13.7,9.8-20.3
		c0.2,0,0.4,0,0.6,0.1c0.5,3,1,6,1.4,9c0.6,4.2,1.3,8.3,1.8,12.5C326.2,694.7,326.9,696.7,330,696.7z M338.6,693.3
		c0.1-4.8-0.1-9.7,0.1-14.5c0-1.3,0.9-2.5,1.3-3.5c-2.1,0-4.8,0-6.9,0c0.5,0.8,1.4,1.8,1.5,2.7c0.2,5.2,0.2,10.3,0,15.5
		c0,1.2-0.9,2.3-1.4,3.4c2.4,0,5.4,0,8.4,0C339,696.8,338.6,695.3,338.6,693.3z M343.2,679.2c2.1-2.4,2.7-2.5,8.4-2.2
		c0,5.9,0.1,11.9-0.1,17.8c0,0.7-1,1.4-1.5,2c2.6,0,5.6,0,8,0c-0.6-0.6-2.1-1.4-2.1-2.2c-0.2-5.9-0.1-11.8-0.1-18
		c2.8,0.8,5.9-0.9,7.7,2.7c0-1.7,0-3,0-4.3c-6.6,0-13,0-19.6,0C343.7,676.3,343.5,677.6,343.2,679.2z M390,685.4
		c0.1,6.8-5.4,12.1-12.7,12.1c-6.9,0-12.2-4.9-12.2-11.4c0-6.6,5.3-11.5,12.6-11.5C385,674.6,389.9,678.9,390,685.4z M386.1,686.9
		c-0.9-2.5-1.4-5.1-2.7-7.3c-1.7-2.9-4.7-3.7-7.9-3.3c-2.7,0.4-4.5,2-5.4,4.6c-1.1,3.3-0.9,6.6,0.5,9.8c1.8,3.8,5.4,5.8,9.2,5.2
		c3.2-0.5,5.2-3.4,5.6-7.7c0-0.4,0-0.7,0.1-1C385.7,687,385.9,687,386.1,686.9z M402.6,676.6c1.9-0.4,4.2-0.5,6.1,0.1
		c1.8,0.6,3.2,2.2,4.6,3.3c0-0.9,0.1-2.4,0.2-4.2c-4.2-1-8.3-1.4-12.4-0.4c-4.6,1.1-7.7,4.8-8.2,9.8c-0.5,4.4,1.8,9.1,6.1,10.6
		c3.3,1.2,7,1.5,10.6,1.5c3.6,0,4.2-1.4,3.6-5.1c-1.7,3.3-4,4.3-7.9,3.4c-4.7-1-7.8-4.6-8-9.2C397.1,680.9,398.8,677.5,402.6,676.6z
		 M442.2,696.8c-0.2,0-0.4,0-0.6,0C441.7,696.8,441.9,696.8,442.2,696.8z M439.2,693.2c0-5-0.1-10,0.1-15c0-1,1-2,1.5-2.8
		c-2.4,0-5.2,0-8.8,0c3.6,0.9,4,2.5,3,9c-3.8,0-7.7,0-11.9,0c1.3-3.1-1.9-7,2.3-9c-2.8,0-5.7,0-8,0c0.6,0.8,1.8,1.7,1.9,2.6
		c0.2,5.3,0.1,10.5,0,15.8c0,1.1-0.9,2.2-1.3,3.1c2.4,0,5.5,0,8.5,0c-2.8,0.1-3-1.7-3-3.9c0.1-2.1,0-4.3,0-6.7c4.1,0,8,0,11.9,0
		c0,2.3,0,4.5,0,6.6c0,1.8,0,3.5-2.3,3.9c2.9,0,5.7,0,8.6,0C439.4,696.7,439.2,695,439.2,693.2z M469.5,685.6
		c0,6.9-5.6,12.1-12.9,11.9c-7-0.2-12.2-5.2-12-11.5c0.2-6.7,5.5-11.4,12.8-11.3C464.6,674.7,469.5,679.1,469.5,685.6z M465.5,686.6
		c-0.8-2.3-1.3-4.8-2.6-6.9c-1.8-3-4.8-3.9-8.1-3.4c-2.7,0.4-4.5,2.1-5.3,4.7c-1.2,3.6-0.8,7.2,1,10.5c1.8,3.4,5.7,5.1,9.2,4.3
		c2.9-0.7,4.8-3.3,5.2-7.3c0.1-0.6,0.1-1.2,0.2-1.8C465.1,686.7,465.3,686.6,465.5,686.6z M492,677.3c0.2,4.5,0.1,9,0.1,13.9
		c-5.8-5.6-11.4-11.1-17-16.5c-0.3,0.1-0.6,0.3-0.9,0.4c0,5.9,0,11.7,0,17.6c0,1.9,0.2,3.9-2.4,4.3c2.6,0,5.1,0,7.2,0
		c-0.6-0.7-2-1.5-2-2.4c-0.2-4.2-0.1-8.4-0.1-12.8c5.6,5.5,11.1,10.8,16.5,16.1c0.3-0.1,0.5-0.2,0.8-0.3c0-0.9,0.1-1.8,0.1-2.7
		c0.1-5.4,0.2-10.9,0.4-16.3c0-1.1,0.9-2.1,1.4-3.1c-1.9,0-4.3,0-6.4,0C490.5,675.9,492,676.5,492,677.3z M524.5,686.7
		c-0.2,5.2-3.9,9.7-9.2,10.2c-4.8,0.5-9.8,0.1-14.2,0.1c0.6-1,1.5-1.7,1.5-2.5c0.2-5.6,0.2-11.2,0.1-16.8c0-0.9-1.3-1.7-2.2-2.7
		c5.3,0.3,10.9,0.1,16.4,1C522.3,676.9,524.8,681.1,524.5,686.7z M506.9,677.1c0,5.4-0.1,10.7,0.1,15.9c0,0.8,0.7,2.1,1.4,2.4
		c4.1,2.2,10.5-0.5,11.6-5C522.5,680,514.7,675.4,506.9,677.1z M549.6,696.1c0.5,0.2,0.9,0.3,1.2,0.3h0v0.5c-1.3,0-2.6-0.1-3.9-0.1
		c-1.6-0.1-3.2-1.5-4.5-2.6c-1.2-1-2.2-2.5-3-3.9c-1.1-2-2.7-2.7-5-2.1c0,1.6,0,3.2,0,4.8c0,2,0.1,3.8,2.8,3.7H529
		c0.5-1,1.4-2,1.5-3.1c0.2-5.3,0.2-10.5,0-15.8c0-1-1.4-1.9-1.8-2.4c3.3,0,7.3-0.3,11.3,0.1c4.5,0.5,6,4.5,3.4,8.2
		c-0.8,1.1-1.8,2-2.9,3.2c2.3,2.5,4.6,5.1,6.9,7.7C548.1,695.3,548.9,695.8,549.6,696.1z M540.2,685c1.3-2.1,1.3-4.3,0-6.3
		c-1.4-2.1-3.5-2.2-5.7-1.7v9.5C536.7,686.5,538.8,687.3,540.2,685z M558.8,696.2c-0.8-0.3-1.5-2-1.5-3c-0.2-4.9-0.2-9.9,0-14.8
		c0-1.1,0.9-2.2,1.3-3.2h-7c0.5,0.8,1.5,1.8,1.6,2.7c0.1,5.3,0.1,10.7-0.1,16.1c0,1.3-0.5,2.1-1.2,2.4v0.6c2.6,0,5.2,0,7.7,0v-0.6h0
		C559.3,696.4,559,696.3,558.8,696.2z M583.6,696.8h-5.9c-0.8-2.1-1.5-4.2-2.4-6.2c-0.2-0.4-0.8-0.8-1.3-0.9c-0.8-0.1-1.7,0-2.6,0
		c-4.5,0-4.7,0-5.8,4.3c-0.2,0.8,0.4,1.9,0.6,3c-1.9,0-3.8,0-5.8,0v-0.5c1-0.1,2-0.7,2.5-2c2.1-5,4.3-9.9,6.5-14.9
		c0.7-1.6,1.5-3.3,2.5-5.4c0.8,1.6,1.4,2.7,1.9,3.8c2.2,5.1,4.4,10.3,6.8,15.3C581.3,694.7,582.8,695.8,583.6,696.8z M574.3,688
		c-1-2.5-1.9-4.8-3.1-7.7c-1.2,2.9-2.1,5.3-3.1,7.7H574.3z"/>
	<path id="jesse-word" class="st19" d="M304,82.3c-0.3,0.1-0.5,0.2-0.8,0.2c-3,0.4-3.5,0.9-3.5,3.9c0,10.7,0,21.4,0,32.1
		c0,9-5.2,14.5-12.7,18.4c-0.4,0.2-0.8,0.2-1.2,0.2c0-0.2-0.1-0.3-0.2-0.5c0.2-0.2,0.3-0.4,0.5-0.6c4.8-2.9,6.5-7.5,6.6-12.7
		c0.2-12.6,0.1-25.2,0.1-37.8c0-1.9-1-2.8-3.1-3c-0.6-0.1-1.2-0.1-2-0.2C288.8,81.3,303.2,81.4,304,82.3z M332.4,115.6
		c-0.7,2.8-1.6,3.7-4.6,3.9c-1.7,0.1-3.4,0.1-5.1,0c-2.8-0.2-4-1.5-4-4.3c0-3.4,0-6.9,0-10.3c0-0.9,0-1.8,0-2.5c2.8,0,5.3-0.1,7.8,0
		c2.7,0.2,3.2,0.9,3.4,3.6c0,0.3,0.2,0.5,0.2,0.8c0.2,0,0.4,0,0.5,0c0.3-3.1,0.5-6.1,0.8-9.4c-4.2,3-8.6,1.2-12.7,1.8
		c0-5.1,0-9.9,0-14.9c3.1,0.2,6.1,0.2,9,0.5c1.7,0.2,2.5,1.3,2.7,3c0,0.5,0.2,1,0.2,1.5c0.2,0,0.4,0,0.6,0c0.3-2.8,0.5-5.7,0.8-8.2
		c-8.5,0.8-16.9,0.1-25.3,0.7c0.5,0.4,1,0.7,1.5,0.7c2.5,0.2,3.4,1.1,3.4,3.6c0,10.4,0,20.7-0.1,31.1c0,3.7-0.7,4.4-3.7,4.5
		c-0.1,0-0.3,0.2-0.4,0.3c0,0.1,0,0.3,0,0.4c0.7,0,1.3,0.1,2,0.1c4.2,0,8.4,0,12.6,0.1c2.8,0,5.6,0.2,8.3,0.1c0.7,0,1.9-0.5,1.9-1
		c0.4-2.3,0.6-4.7,0.9-7.1c0-0.1-0.2-0.3-0.6-0.8C332.6,114.7,332.5,115.2,332.4,115.6z M352.2,97.3c-1.6-1.3-3.5-2.4-5-3.9
		c-1.9-1.8-2.2-4.9-0.9-7.1c1.4-2.3,4.6-3.5,8-2.8c2.7,0.5,4.7,2.8,5,5.5c0.1,0.5,0.2,0.9,0.3,1.4c0.2,0,0.3,0,0.5,0
		c0.1-0.5,0.2-1,0.3-1.5c0.1-2,0.1-3.9,0.3-5.9c0.1-1.1-0.3-1.7-1.3-1.8c-3.1-0.2-6.4-0.8-9.4-0.3c-10.7,1.7-11.8,12.2-7.6,17.8
		c1.7,2.2,4.2,3.9,6.4,5.8c1.7,1.4,3.7,2.5,5.2,4.1c3.2,3.3,2.4,9-1.4,11.2c-4.8,2.7-11.1-0.3-11.9-5.7c-0.1-0.8-0.3-1.7-0.4-2.5
		c-0.1,0-0.3,0-0.4-0.1c-0.2,0.3-0.5,0.7-0.5,1c-0.1,2.6-0.3,5.1-0.3,7.7c0,0.7,0.7,1.6,1.3,1.9c1.8,0.7,3.8,1.3,5.7,1.5
		c3.7,0.5,7.3-0.1,10.3-2.4c6-4.4,7.1-13,2.3-18.6C356.9,100.6,354.4,99,352.2,97.3z M381,97.3c-1.7-1.3-3.5-2.4-5-3.9
		c-2-2-2.2-5.2-0.6-7.4c1.6-2.3,4.9-3.3,8.1-2.5c2.5,0.6,4.4,2.9,4.7,5.7c0,0.4,0.2,0.8,0.3,1.2c0.2,0,0.3,0,0.5,0
		c0.1-0.5,0.2-1,0.2-1.5c0.1-2,0.1-3.9,0.3-5.9c0.1-1.1-0.4-1.6-1.4-1.8c-3.2-0.6-6.3-1-9.6-0.4c-7,1.2-11,7.4-9.1,14.3
		c1.1,4,4,6.5,7.2,8.7c2,1.4,4.1,2.7,5.9,4.4c2.4,2.2,2.9,5.7,1.6,8.6c-1.1,2.5-3.7,4-6.6,3.9c-3.8-0.2-6.6-2-7.6-5.1
		c-0.4-1.3-0.5-2.6-0.9-4.4c-0.4,0.6-0.7,0.8-0.8,1c-0.1,2.8-0.3,5.5-0.3,8.3c0,0.5,0.5,1.2,0.9,1.4c4.3,1.9,8.6,2.4,13.3,0.9
		c9-3,10.8-14.5,5.1-20.6C385.4,100.4,383.1,98.9,381,97.3z M420,113.9c-0.2,0.8-0.3,1.2-0.4,1.7c-0.7,2.8-1.6,3.7-4.6,3.9
		c-1.7,0.1-3.4,0.1-5.1,0c-2.8-0.2-4-1.4-4-4.3c0-3.4,0-6.9,0-10.3c0-0.9,0-1.8,0-2.5c2.8,0,5.3-0.1,7.8,0c2.7,0.2,3.2,0.9,3.4,3.6
		c0,0.3,0.2,0.5,0.2,0.8c0.2,0,0.4,0,0.5,0c0.3-3.1,0.5-6.1,0.8-9.4c-4.2,3-8.5,1.2-12.7,1.8c0-5.1,0-9.9,0-14.9
		c3.1,0.2,6.1,0.2,9,0.5c1.7,0.2,2.5,1.3,2.7,3c0,0.5,0.2,1,0.2,1.5c0.2,0,0.4,0,0.6,0c0.3-2.8,0.5-5.6,0.8-8.2
		c-8.5,0.7-16.9,0.1-25.3,0.6c0.5,0.4,1,0.7,1.5,0.7c2.5,0.2,3.4,1.1,3.4,3.6c0,10.4,0,20.7-0.1,31.1c0,3.7-0.7,4.4-3.7,4.5
		c-0.1,0-0.3,0.2-0.4,0.3c0,0.1,0,0.3,0,0.4c0.7,0,1.3,0.1,2,0.1c4.2,0,8.4,0,12.6,0.1c2.8,0,5.6,0.2,8.4,0.1c0.7,0,1.8-0.5,1.9-1
		c0.4-2.3,0.6-4.7,0.8-7.1C420.6,114.5,420.4,114.4,420,113.9z"/>
	<path id="james-word" class="st19" d="M450.4,86.4c0,10.2-0.1,20.5,0.1,30.8c0.2,9.3-4.4,15.4-12.2,19.6c-0.5,0.3-1.2,0.4-1.8,0.6
		c-0.1-0.2-0.2-0.3-0.2-0.5c0.2-0.2,0.3-0.5,0.5-0.6c5-3,6.6-7.9,6.7-13.4c0.1-12.2,0.1-24.4,0.1-36.6c0-2.5-0.9-3.3-3.4-3.6
		c-0.4,0-0.9-0.1-1.3-0.1c-0.1,0-0.1-0.2-0.4-0.5c0.6-0.1,1.1-0.4,1.6-0.4c4.4,0,8.8,0,13.2,0c0.5,0,1,0.2,1.5,0.4
		c0,0.1,0,0.3,0,0.4c-0.3,0.1-0.6,0.2-0.9,0.2C451,83,450.4,83.5,450.4,86.4z M491.4,121.7c0,0.4,0,0.7,0,1.1
		c-3.5,0-6.9-0.1-10.3-0.1c-0.3,0-0.5-0.1-1.3-0.3c2.2-0.9,1.4-2.2,1-3.4c-1-2.9-2.1-5.7-3-8.6c-0.3-0.9-0.6-1.3-1.7-1.3
		c-3.4,0.1-6.9,0-10.3,0.1c-0.5,0-1.2,0.5-1.4,0.9c-1,2.5-1.9,5-2.8,7.5c-1.1,3.4-0.7,4,3.2,4.4c-0.4,0.4-0.7,0.9-0.9,0.9
		c-3.9,0-7.8,0-11.6,0c-0.3,0-0.6-0.3-1.1-0.6c0.6-0.2,0.9-0.4,1.1-0.4c2.8,0,4.2-1.6,5.1-4c1.9-5.1,3.9-10.1,5.9-15.2
		c2.5-6.6,5.1-13.3,7.6-19.9c0-0.1,0.1-0.2,0.1-0.3c0.5-0.7,1-1.4,1.6-2.1c0.5,0.7,1.1,1.3,1.4,2c1.8,4.6,3.5,9.2,5.3,13.8
		c2.6,6.7,5.2,13.5,7.8,20.2c0.6,1.4,1.4,2.8,2.4,4.1C490,121.1,490.7,121.6,491.4,121.7z M476.2,106.1c-1.7-4.9-3.3-9.7-5.1-14.9
		c-1.9,5.3-3.5,10-5.3,14.9H476.2z M536.9,117.7c-1-7.2-2-14.4-3-21.7c-0.6-4.7-1.3-9.4-2-14.1c-0.1-0.6-0.6-1.1-0.9-1.6
		c-0.5,0.4-1,0.7-1.3,1.2c-0.3,0.4-0.5,1-0.7,1.5c-4.3,9.7-8.6,19.5-13,29.5c-0.4-0.9-0.8-1.6-1.1-2.3c-4.2-9.4-8.4-18.8-12.6-28.3
		c-0.3-0.6-1-1.1-1.6-1.6c-0.3,0.5-0.8,1.1-0.9,1.6c-1.1,8-2.2,16.1-3.4,24.1c-0.6,4.4-1.2,8.7-2,13.1c-0.2,0.9-0.9,2-1.6,2.3
		c-0.3,0.1-0.5,0.2-0.8,0.2c0,0.3,0,0.7,0,1.1c3.2,0,6.5,0.1,9.7,0.1c0.4,0,0.7-0.3,1.1-0.5c-0.5-0.5-1-0.6-1.5-0.7
		c-2.6-0.5-2.7-0.6-2.6-3.2c0-0.5,0.1-1,0.1-1.5c0.5-4.5,1-9,1.5-13.5c0.3-2.5,0.6-4.9,0.9-7.9c0.5,1,0.7,1.5,1,2.1
		c3.4,7.5,6.8,15,10.2,22.5c0.4,0.9,1,1.7,1.6,2.5c0.2,0,0.4,0,0.6,0c4.4-9,8.1-18.3,12.5-27.6c0.2,0.5,0.2,0.6,0.3,0.8
		c0.8,6.4,1.6,12.8,2.2,19.2c0.2,2.2,1.4,4.5-0.3,6.7c2.3,1,12.3,1.1,13.3,0c-0.7-0.1-1.3-0.2-2-0.3
		C538.1,121.2,537.3,120.5,536.9,117.7z M569,116.6c-0.4,1.5-1.2,2.7-2.8,2.8c-2.6,0.2-5.2,0.2-7.8,0c-1.6-0.1-2.7-1.4-2.7-3
		c-0.1-4.7,0-9.3,0-14.2c3,0.2,5.8,0.2,8.6,0.5c1.6,0.1,2.3,1.2,2.5,2.8c0,0.5,0.1,1.1,0.2,1.6c0.2,0,0.4,0,0.7,0
		c0.3-3.1,0.5-6.1,0.8-9.3c-4.2,2.9-8.5,1.1-12.6,1.8c0-5.1,0-9.9,0-14.9c3,0.1,5.9,0.2,8.8,0.5c1.8,0.2,2.7,1.1,2.9,3
		c0.1,0.5,0.2,1.1,0.3,1.6c0.2,0,0.4,0,0.7,0c0.3-2.8,0.5-5.6,0.8-8.2c-8.5,0.6-16.8,0.1-25.2,0.2c-0.1,0.2-0.2,0.4-0.2,0.6
		c0.4,0.1,0.9,0.4,1.3,0.4c3,0.3,3.7,1,3.7,4c0,7.3,0.1,14.6,0,21.9c0,3.6-0.2,7.2-0.3,10.8c-0.1,1.5-1,2.2-2.4,2.4
		c-0.5,0.1-1,0.2-1.5,0.4c0,0.1,0,0.3,0.1,0.4c0.6,0,1.1,0.1,1.7,0.1c1.4,0,2.7-0.1,4.1-0.1c5.6,0.1,11.2,0.2,16.9,0.3
		c0.7,0,2-0.4,2.1-0.8c0.4-2.5,0.6-5.1,0.8-7.7c0,0-0.2,0-0.5-0.1C569.4,115.1,569.2,115.8,569,116.6z M595.4,102.6
		c-2-2.2-4.6-3.8-7-5.6c-1.5-1.2-3.2-2.3-4.6-3.7c-1.8-1.8-2-4.9-0.7-7c1.5-2.3,4.7-3.4,8-2.7c2.6,0.5,4.6,2.8,5,5.6
		c0.1,0.4,0.2,0.9,0.2,1.3c0.2,0,0.4,0,0.6,0c0.1-0.5,0.2-0.9,0.2-1.3c0.1-2,0.1-4,0.3-6c0.1-1.2-0.5-1.7-1.4-1.7
		c-3.1-0.2-6.2-0.8-9.2-0.3c-10.8,1.7-12,12.2-7.5,18c1.6,2,3.8,3.6,5.8,5.2c1.8,1.5,4,2.7,5.7,4.4c3.2,3.3,2.5,9-1.2,11.2
		c-4.7,2.8-11.1-0.2-12-5.6c-0.1-0.9-0.3-1.7-0.5-3c-0.5,0.7-0.8,0.9-0.8,1.2c-0.2,2.8-0.3,5.5-0.3,8.3c0,0.5,0.6,1.2,1.1,1.4
		c4.3,1.8,8.5,2.3,13.1,0.8C599.1,120,601,108.7,595.4,102.6z"/>
	<path id="method-word" class="st20" d="M380.2,162.1c-0.1,0.2-0.2,0.3-0.3,0.5c-2.3,0-4.6,0-6.6,0c-0.5-4.8-1-9.4-1.5-14.1
		c-0.1,0-0.2-0.1-0.3-0.1c-2.2,4.8-4.4,9.6-6.6,14.5c-0.2,0-0.4,0.1-0.6,0.1c-2.2-4.7-4.4-9.4-6.7-14.6c-0.5,4.3-1,8.2-1.4,12.1
		c-0.1,0.9,0.3,1.4,1.2,1.6c0.3,0,0.6,0.2,0.9,0.5c-2.2,0-4.4,0-6.5,0c3.3-0.9,2.2-3.8,2.6-5.8c1-5.2,1.6-10.5,2.3-15.8
		c0.1-0.4,0.2-0.8,0.3-1.2c0.2,0,0.4,0,0.6-0.1c2.6,5.7,5.1,11.4,7.8,17.3c2.7-5.9,5.2-11.6,7.8-17.3c0.2,0,0.5,0,0.7,0
		c0.2,0.9,0.4,1.8,0.5,2.7c0.8,5.4,1.5,10.9,2.2,16.3C376.9,160.9,377.4,162.4,380.2,162.1z M402.8,159c-0.8,2.4-4.9,3.5-6.7,1.7
		c-0.3-0.3-0.6-0.8-0.6-1.3c-0.1-2.5,0-5.1,0-7.8c2.4,0.6,5.6-1.4,6.5,2.6c0.1-1.6,0.2-3.3,0.3-4.5c-2.3,0.2-4.5,0.3-6.8,0.4
		c0-2.8,0-5.3,0-8c2.4,0.7,5.6-1.4,6.8,2.6c0.1-1.5,0.3-3,0.4-4.2c-4.6,0-9.1,0-13.6,0c0,0.1,0,0.3,0,0.4c0.3,0.1,0.6,0.2,0.9,0.2
		c1.2,0,1.8,0.7,1.8,1.9c0,5.6,0,11.1,0,16.7c0,1.4-0.3,2.8-2.4,2.5c0,0.2,0.1,0.4,0.1,0.5c0.4,0.1,0.9,0.3,1.3,0.3
		c2.1,0,4.2-0.1,6.4-0.1c1.6,0,3.2,0.2,4.7,0.2c0.4,0,1.1-0.3,1.1-0.6c0.2-1.3,0.3-2.7,0.5-4C403,158.6,402.9,158.8,402.8,159z
		 M413.1,144.5c1-0.8,1.7-1.7,2.5-1.9c1.7-0.4,3.5-0.3,5.3-0.4c0,5.5,0,10.8,0,16.2c0,1.8,0.5,3.8-2.2,4.2c3,0,5.9,0,8.9,0
		c-2.6-0.9-2.8-0.9-2.9-3.2c-0.1-5.7,0-11.3,0-17.3c2.6,0.7,5.8-1.1,7.3,2.6c0-1.5,0-3,0-4.4c-6,0-12,0-18.2,0
		C413.6,141.7,413.4,143.1,413.1,144.5z M462.6,159.6c0-5.5,0-11,0-16.5c0-1.1,0.3-2,1.6-2c0.2,0,0.4-0.2,0.6-0.3
		c0-0.1-0.1-0.2-0.1-0.2c-2.8,0-5.7,0-8.5,0c1.1,0.7,2.6,0.5,2.6,2.3c0,2.1,0.1,4.2,0,6.4c0,0.3-0.6,0.9-0.9,0.9
		c-3.2,0.1-6.4,0-9.8,0c0-1.8-0.1-3.5,0-5.2c0.1-1.8-0.8-4,2.2-4.4c-2.8,0-5.7,0-8.9,0c3,1.1,3.1,1.1,3.1,4.2c0,4.6,0,9.2,0,13.8
		c0,1.7,0.3,3.6-2.2,4c2.9,0,5.9,0,8.8,0c-0.3-0.4-0.6-0.5-0.9-0.5c-1.3,0.1-1.9-0.6-1.9-1.8c-0.1-2.8,0-5.5,0-8.3c3.6,0,7,0,10.6,0
		c0,2.2,0,4.3,0,6.4c0,1.7,0.4,3.7-2.2,4.1c3,0,5.9,0,8.9,0c0.1-0.2,0.2-0.3,0.3-0.5C463.6,162.5,462.6,161.7,462.6,159.6z
		 M498.6,151.2c0,7-4.8,11.9-11.5,11.9c-6.7,0-11.2-4.6-11.2-11.6c0-6.8,4.7-11.4,11.5-11.4C494.4,140.2,498.6,144.4,498.6,151.2z
		 M494.7,152c-0.2-2.6-0.8-5.1-2.3-7.2c-2.8-3.8-8.4-4-10.9-0.3c-2.7,4-1.8,11.8,1.7,15c3.8,3.6,9.3,2.3,10.8-2.7
		C494.4,155.2,494.4,153.6,494.7,152z M531.2,153.2c-1,6.5-5.2,9.9-11.8,9.9c-3.5,0-6.9-0.3-10.4-0.4c0-0.2,0-0.4,0.1-0.4
		c1.9,0,2.1-1.3,2.1-2.7c0-5.5,0-11,0-16.5c0-1.9-1.5-1.8-2.7-2.1c0-0.2,0.1-0.4,0.1-0.6c4.9,0.2,9.8,0,14.6,0.7
		C530.1,142,532.1,148.1,531.2,153.2z M527.4,151.8c-0.1-6.2-4.9-10.4-11.1-9.6c-1,0.1-1.3,0.5-1.3,1.4c0,2.5,0,5,0,7.5c0,0,0,0,0,0
		c0,2.6,0,5.1,0,7.7c0,1.2,0.3,2.2,1.6,2.5c2.8,0.6,5.4,0.5,7.8-1.2C527.3,157.9,527.5,154.9,527.4,151.8z"/>
	<path id="arrows" class="st20" d="M583.7,153.1c-13.6,0-27.9,0-42.3,0c0-0.7,0-1.5,0-2.5C555.7,151.5,570.1,152.3,583.7,153.1z
		 M302.6,153.2c13.3,0,26.7,0,40,0c0-0.9,0-1.6,0-2.5c-13.5,0.8-26.8,1.6-40,2.3C302.6,153.1,302.6,153.2,302.6,153.2z"/>
</g>
</svg>
