<?xml version="1.0" encoding="utf-8"?>
<!-- Generator: Adobe Illustrator 24.3.0, SVG Export Plug-In . SVG Version: 6.00 Build 0)  -->
<svg version="1.1" id="mitochondria-restoration-1" xmlns="http://www.w3.org/2000/svg" xmlns:xlink="http://www.w3.org/1999/xlink"
	 x="0px" y="0px" viewBox="0 0 864 864" style="enable-background:new 0 0 864 864;" xml:space="preserve">
<style type="text/css">
	.st0{fill:#DA2A2A;}
	.st1{fill:url(#background-circle_1_);}
	.st2{fill:url(#ekg-top-back_1_);}
	.st3{fill:url(#ekg-top-front_1_);}
	.st4{fill:url(#ekg-middle-back-1_1_);}
	.st5{fill:url(#ekg-middle-front-1_1_);}
	.st6{fill:url(#ekg-middle-back-2_1_);}
	.st7{fill:url(#ekg-middle-front-2_1_);}
	.st8{fill:url(#ekg-middle-back-3_1_);}
	.st9{fill:url(#ekg-middle-front-3_1_);}
	.st10{fill:url(#ekg-bottom-back_1_);}
	.st11{fill:url(#ekg-bottom-front_1_);}
	.st12{fill:url(#dna-strand-1-top_1_);}
	.st13{fill:#FFFFFF;}
	.st14{fill:url(#dna-strand-1-bottom_1_);}
	.st15{fill:url(#dna-strand-2-top_1_);}
	.st16{fill:url(#dna-strand-2-middle_1_);}
	.st17{fill:url(#dna-strand-2-bottom_1_);}
	.st18{fill:#0C0C0C;}
	.st19{fill:#DA2528;}
</style>
<g id="mitochondria-restoration-1-parts">
	<path id="restoration-word" class="st0" d="M356.8,728.6c-0.8-0.4-1.8-0.8-2.3-1.5c-2.6-3-5.2-6.1-7.6-9c1.1-1.5,2.2-2.6,3-4
		c2.7-4.8,0.6-9.6-4.8-10.2c-3.7-0.4-7.6-0.1-11.4-0.1c2.8,0.1,2.9,2,2.8,4.1c-0.1,5.9,0,11.8,0,17.7c0,1.7-0.1,3.3-2.3,3.6h8.6
		c-0.7-0.7-2.2-1.4-2.4-2.3c-0.3-2.6-0.1-5.2-0.1-7.7c2.6-0.7,4.2,0.3,5.4,2.4c0.9,1.5,2,3,3.1,4.4c1.7,2.3,3.8,3.5,6.8,3.4
		c0.5,0,1.1,0,1.7,0c0-0.2,0-0.4,0-0.7C357,728.7,356.9,728.7,356.8,728.6z M345.8,716.4c-1.2,0.9-3.1,1-4.7,1c-0.4,0-1-1.8-1-2.9
		c-0.1-3,0-5.9,0-9c3-0.6,5.1,0,6.4,2.5C347.8,710.5,347.7,715,345.8,716.4z M370.6,725.3c0.4,3.7,0,4.2-3.3,4.2
		c-3.1,0-6.1-0.1-9.1,0c0-0.2,0-0.4,0-0.6c0.5-0.2,0.8-0.7,0.8-1.6c0-5.7,0.1-11.5,0-17.2c0-0.8-1.4-1.5-2.1-2.2H370
		c-0.1,1.2-0.1,2.5-0.2,4.5c-1.3-4.4-4.4-2.2-6.9-3.1v7.7h6.8c-0.1,1.1-0.3,2.4-0.5,4.2c-1.3-3.8-4.2-1.7-6.5-2.6
		c0,2.6-0.2,4.9,0.1,7.2c0.1,0.8,1,2,1.7,2.1c1.9,0.2,4,1,5.5-1C370.2,726.3,370.4,725.8,370.6,725.3z M386.3,724.5
		c-0.7,4.6-8.2,7.6-11.6,4.5c-0.9-0.8-0.5-3-0.8-4.6c1.4,2.4,2.7,4.4,5.6,3.8c1.2-0.2,3-1.1,3.3-2.1c0.4-1.2,0-3-0.7-4.1
		c-0.8-1.2-2.4-1.9-3.6-2.8c-3.6-2.5-4.7-5.2-3.5-8.2c1.1-2.7,4.5-4.2,8.3-3.7c0.8,0.1,1.7,0.3,2.6,0.5c0,1.5,0,2.9,0,4.6
		c-1.5-3.3-2.8-4.3-5.4-3.6c-1,0.3-2.4,1.2-2.6,2c-0.3,1,0.2,2.6,1,3.4c1,1.2,2.6,1.9,3.9,2.8C385.4,718.9,386.8,721.2,386.3,724.5z
		 M388.3,707.6c6.3,0,12.3,0,18.5,0c0,1.3,0,2.7,0,4.3c-1.8-3.6-4.9-2-7.6-2.6c0,6-0.1,11.7,0.1,17.4c0,1,1.5,1.9,2.1,2.6
		c-2.2,0-5,0-7.4,0c0.4-0.8,1.4-1.6,1.4-2.5c0.1-5.7,0.1-11.4,0.1-17.5c-2.7,0.6-5.6-1-7.9,2.7C388,710,388.2,708.8,388.3,707.6z
		 M419.2,707.3c-6.7,0-11.7,4.6-11.8,11.2c-0.2,6.5,4.8,11.5,11.5,11.5c6.7,0,11.7-4.9,11.7-11.6
		C430.6,711.7,426.2,707.3,419.2,707.3z M426.6,719.6c-0.2,1.3-0.3,2.5-0.6,3.8c-0.6,2.5-2,4.4-4.6,4.9c-2.9,0.6-5.5-0.3-7.3-2.7
		c-3.1-4-3.4-8.5-1.6-13.1c1.9-4.6,8.5-5.2,11.6-0.8c1.5,2.2,2.1,5,3,7.6C426.9,719.4,426.7,719.5,426.6,719.6z M444.2,719.1
		c1-0.8,1.9-1.3,2.6-2c3.3-3.9,1.7-8.4-3.4-8.9c-3.5-0.4-7-0.1-10.6-0.1c2.4,0,2.3,1.6,2.3,3.4c0,4.8,0.1,9.6-0.1,14.4
		c0,1.2-0.8,2.4-1.2,3.5h7.7c-3-1.1-3.3-1.8-2.6-8.6c2.3-0.5,3.6,0.4,4.6,2.3c1.9,3.5,3.9,5.7,7.3,6.2c0.5-0.1,0.4-1.6,0.2-2
		C448.8,724.5,446.6,722,444.2,719.1z M438.9,718.9v-9.4c2.1-0.4,4.4-0.5,5.1,1.6c0.7,1.9,0.8,4.3,0.2,6.3
		C443.5,719.7,441.1,719.2,438.9,718.9z M462.2,709.6c-0.3-0.8-0.8-1.5-1.5-2.8c-3,7.2-5.8,13.8-8.7,20.9c-0.5,1-0.4,1.5-0.7,1.8
		c1.2,0,3.4-0.1,4.8-0.5c-1.9-0.2-1.7-1.5-1.3-2.7c1.3-4.3,2.5-4.9,8.9-3.8c0.8,2.2,1.5,4.5,2.3,6.8h5.5c-0.9-1.2-2.3-2.4-2.9-3.9
		C466.4,720.2,464.4,714.9,462.2,709.6z M457.2,720.6c0.9-2.5,1.8-4.9,2.9-7.7c1,2.8,1.9,5.2,2.9,7.7H457.2z M469,707.6
		c6.2,0,12.3,0,18.5,0c0,1.2,0,2.6,0,4.2c-1.7-3.5-4.8-1.8-7.5-2.6c0,6.1,0,11.6,0,17.2c0,2,1.1,2.7,2.9,2.9c-2.8,0-5.7,0-8.1,0
		c0.4-0.8,1.4-1.7,1.4-2.7c0.1-5.6,0.1-11.3,0.1-17.2c-2.6,0.4-5.5-1-7.9,2.4C468.6,710,468.8,708.8,469,707.6z M498.1,729.3
		c-2.8,0-5.6,0-7.8,0c0.4-1,1.3-2,1.3-3c0.1-5,0.1-10.1,0-15.1c0-1.1-0.8-2.2-1.2-3.3c1.9,0,4.4,0,6.3,0c-0.4,1.1-1.2,2.2-1.3,3.3
		c-0.2,4.7-0.1,9.4-0.1,14.1C495.3,727.3,495.2,729.3,498.1,729.3z M511.8,707.3c-6.7,0-11.7,4.6-11.8,11.2
		c-0.2,6.5,4.8,11.4,11.5,11.5c6.7,0,11.7-4.9,11.7-11.6S518.8,707.4,511.8,707.3z M519.1,719.4c-0.2,1.3-0.3,2.5-0.6,3.8
		c-0.6,2.6-2,4.6-4.8,5.1c-2.8,0.5-5.3-0.3-7.1-2.6c-3.2-4.1-3.5-8.7-1.6-13.3c1.9-4.5,8.4-5,11.4-0.8c1.5,2.2,2.1,5,3.1,7.6
		C519.4,719.2,519.2,719.3,519.1,719.4z M546.6,708c-0.4,1-1.2,2.2-1.3,3.4c-0.2,5.3-0.2,10.6-0.3,15.9c0,0.8-0.1,1.7-0.1,2.3
		c-5.5-5-10.9-9.8-16.2-14.5c0,1,0,2.7,0,4.3c0,1.9,0.1,3.8,0,5.7c0,2,0.1,4,2.7,4.4c-2.4,0-4.7,0-7.1,0c2.3-0.6,2.2-2.4,2.2-4.2
		c0-5.8,0-11.6,0-17.4c0.3-0.1,0.5-0.3,0.8-0.4c5.1,5.4,10.3,10.7,15.8,16.5c0-1.7,0-2.8,0-4c0-2.8-0.1-5.7,0-8.5
		c0-1.7-0.4-3.1-2.4-3.3C542.8,708,545,708,546.6,708z"/>
	<linearGradient id="background-circle_1_" gradientUnits="userSpaceOnUse" x1="198.69" y1="417.67" x2="663.6899" y2="417.67">
		<stop  offset="0" style="stop-color:#BF2227"/>
		<stop  offset="0.6199" style="stop-color:#EE3025"/>
	</linearGradient>
	<path id="background-circle" class="st1" d="M595.6,253.3c-43.9-43.9-102.3-68.1-164.4-68.1s-120.5,24.2-164.4,68.1
		c-43.9,43.9-68.1,102.3-68.1,164.4s24.2,120.5,68.1,164.4c43.9,43.9,102.3,68.1,164.4,68.1c62.1,0,120.5-24.2,164.4-68.1
		c43.9-43.9,68.1-102.3,68.1-164.4S639.5,297.2,595.6,253.3z M431.2,643.2c-124.3,0-225.5-101.2-225.5-225.5
		s101.2-225.5,225.5-225.5s225.5,101.2,225.5,225.5S555.5,643.2,431.2,643.2z M643.3,416.9c0,116.7-94.6,211.4-211.3,211.4
		s-211.3-94.6-211.3-211.4S315.3,205.6,432,205.6S643.3,300.2,643.3,416.9z"/>
	<g id="dna-strands">
		<g id="ekg-top">
			
				<linearGradient id="ekg-top-back_1_" gradientUnits="userSpaceOnUse" x1="373.4864" y1="701.3646" x2="435.3333" y2="701.3646" gradientTransform="matrix(0.9744 0.2248 0.2248 -0.9744 -114.6513 895.4448)">
				<stop  offset="0" style="stop-color:#959636"/>
				<stop  offset="2.520000e-02" style="stop-color:#949536"/>
				<stop  offset="0.4969" style="stop-color:#878935"/>
				<stop  offset="1" style="stop-color:#838534"/>
			</linearGradient>
			<path id="ekg-top-back" class="st2" d="M404.7,305.9c2.4-0.2,4.4-0.3,5.7-0.4c0.6,0,3.2-0.2,6.4-0.5c2.9-0.3,3.8-0.5,4.6-1.2
				c1.1-1,1.2-2.5,1.3-3.4c0.6,0.7,1.1,1.4,1.6,2c0.5,0.8,0.7,1.1,1.1,1.5c0.5,0.4,1.2,0.9,2.4,1.1c3.1-0.1,7-0.3,10.1-0.4
				c2.4-0.1,6.2-0.2,8.5-0.4c0.2,0.1,0.6,0.1,0.9,0c0.5-0.2,0.7-0.7,0.8-1c0.3-1,1.4-4.8,2.7-9.9c0.5,1.5,1,3.1,1.6,4.6
				c0.9,2.6,1.8,5.2,2.7,7.8c0,0,0,0.1,0.1,0.2c0.1,0.1,0.2,0.1,0.4,0c0.3-1.1,0.5-2,0.7-2.7c0.2-0.7,0.4-1.2,0.6-1.2
				c0.2,0,0.5,0.5,0.7,1c0.2,0.5,0.3,0.9,0.6,1.1c0.1,0.1,0.3,0.2,0.4,0.2c1.1,0.3,3.2,0,4.5-0.1c0.3,0,0,0,1.5,0
				c2.9-0.1,3.6-0.2,3.9,0.2c0.1,0.2,0.1,0.5-0.4,1.3c-1.8-0.1-3.2,0-4.1,0c-1.5,0.1-2.9,0.3-5.1,0.3c-0.4,0-0.6,0-0.8,0
				c0-0.2,0-1.4-0.7-1.8c-0.1,0-0.1-0.1-0.2-0.1c-0.4,0.6-0.6,1.1-0.7,1.5c-0.2,0.6-0.2,1.1-0.6,1.8c-0.2,0.3-0.3,0.5-0.4,0.6
				c-0.1-0.1-0.3-0.1-0.4-0.2c-0.8-1.8-1.4-3-1.8-3.9c-1.7-3.7-1.8-3.8-1.8-3.9c0-0.1,0-0.3-0.2-0.5c-0.1-0.1-0.3-0.1-0.5-0.1
				c-0.3,0.8-0.6,1.4-0.8,1.9c-0.8,2-1.2,3-1.3,3.5c-0.3,1-0.2,1.5-0.7,1.8c-0.6,0.5-1.4,0.4-1.8,0.3c-0.5-0.1-3.1-0.1-8.4-0.2
				c-2,0-4.3-0.1-6.5,0.3c-0.5,0.1-2.1,0.4-4.2,0c-0.3,0-0.6-0.1-0.8-0.1c-0.4-0.4-0.8-0.9-1.3-1.4c-0.6-0.6-1.1-1.3-1.5-1.9
				c-0.2,0.1-0.4,0.4-0.6,0.6c-0.5,0.4-1,0.9-1.4,1.1c-0.8,0.6-1.6,0.8-2.5,1.1c-0.6,0.2-1.6,0.5-3.1,0.8c-1.7,0.3-1.8,0.1-4.2,0.4
				c-2.3,0.3-3.4,0.4-3.8,0.5c-1.4,0.3-2,0.5-2.5,0.1C404.5,307.8,404.6,306.5,404.7,305.9z"/>
			
				<linearGradient id="ekg-top-front_1_" gradientUnits="userSpaceOnUse" x1="373.6895" y1="701.5951" x2="435.5364" y2="701.5951" gradientTransform="matrix(0.9744 0.2248 0.2248 -0.9744 -114.6513 895.4448)">
				<stop  offset="0" style="stop-color:#F2EA1A"/>
				<stop  offset="1" style="stop-color:#F1EA19"/>
			</linearGradient>
			<path id="ekg-top-front" class="st3" d="M404.9,305.7c2.4-0.2,4.4-0.3,5.7-0.4c0.6,0,3.2-0.2,6.4-0.5c2.9-0.3,3.8-0.5,4.6-1.2
				c1.1-1,1.2-2.5,1.3-3.4c0.6,0.7,1.1,1.4,1.6,2c0.5,0.8,0.7,1.1,1.1,1.5c0.5,0.4,1.2,0.9,2.4,1.1c3.1-0.1,7-0.3,10.1-0.4
				c2.4-0.1,6.2-0.2,8.5-0.4c0.2,0.1,0.6,0.1,0.9,0c0.5-0.2,0.7-0.7,0.8-1c0.3-1,1.4-4.8,2.7-9.9c0.5,1.5,1,3.1,1.6,4.6
				c0.9,2.6,1.8,5.2,2.7,7.8c0,0,0,0.1,0.1,0.2c0.1,0.1,0.2,0.1,0.4,0c0.3-1.1,0.5-2,0.7-2.7c0.2-0.7,0.4-1.2,0.6-1.2
				c0.2,0,0.5,0.5,0.7,1c0.2,0.5,0.3,0.9,0.6,1.1c0.1,0.1,0.3,0.2,0.4,0.2c1.1,0.3,3.2,0,4.5-0.1c0.3,0,0,0,1.5,0
				c2.9-0.1,3.6-0.2,3.9,0.2c0.1,0.2,0.1,0.5-0.4,1.3c-1.8-0.1-3.2,0-4.1,0c-1.5,0.1-2.9,0.3-5.2,0.3c-0.4,0-0.6,0-0.8,0
				c0-0.2,0-1.4-0.7-1.8c-0.1,0-0.1-0.1-0.2-0.1c-0.4,0.6-0.6,1.1-0.7,1.5c-0.2,0.6-0.2,1.1-0.6,1.8c-0.2,0.3-0.3,0.5-0.4,0.6
				c-0.1-0.1-0.3-0.1-0.4-0.2c-0.8-1.8-1.4-3-1.8-3.9c-1.7-3.7-1.8-3.8-1.8-3.9c0-0.1,0-0.3-0.2-0.5c-0.1-0.1-0.3-0.1-0.5-0.1
				c-0.3,0.8-0.6,1.4-0.8,1.9c-0.8,2-1.2,3-1.3,3.5c-0.3,1-0.2,1.5-0.7,1.8c-0.6,0.5-1.4,0.4-1.8,0.3c-0.5-0.1-3.1-0.1-8.4-0.2
				c-2,0-4.3-0.1-6.5,0.3c-0.5,0.1-2.1,0.4-4.2,0c-0.3,0-0.6-0.1-0.8-0.1c-0.4-0.4-0.8-0.9-1.3-1.4c-0.6-0.6-1.1-1.3-1.5-1.9
				c-0.2,0.1-0.4,0.4-0.6,0.6c-0.5,0.4-1,0.9-1.4,1.1c-0.8,0.6-1.6,0.8-2.5,1.1c-0.6,0.2-1.6,0.5-3.1,0.8c-1.7,0.3-1.8,0.1-4.2,0.4
				c-2.3,0.3-3.4,0.4-3.8,0.5c-1.4,0.3-2,0.5-2.5,0.1C404.7,307.6,404.8,306.3,404.9,305.7z"/>
		</g>
		<g id="ekg-middle">
			
				<linearGradient id="ekg-middle-back-1_1_" gradientUnits="userSpaceOnUse" x1="447.9482" y1="666.0025" x2="396.1979" y2="630.999" gradientTransform="matrix(0.9521 0.3059 0.3059 -0.9521 -159.8553 917.3578)">
				<stop  offset="0" style="stop-color:#828635"/>
				<stop  offset="3.330000e-02" style="stop-color:#828635"/>
				<stop  offset="1" style="stop-color:#828635"/>
			</linearGradient>
			<path id="ekg-middle-back-1" class="st4" d="M410.6,430c1.9-0.1,4.2-0.1,6.7,0.2c1.6,0.2,3,0.4,4.4,0.7c0.7-2.1,1.4-4.3,2.1-6.4
				c0.5,1,0.9,2,1.3,3c0.4,0.9,0.7,1.8,1,2.6c1.4-0.1,3.6-0.2,6.4-0.4c3.7-0.3,4.5-0.5,6.9-0.5c3.7-0.1,6.3,0.3,6.9,0.4
				c1.9,0.3,3.5,0.7,4.7,1c0.4-3.3,0.8-6.5,1.2-9.8c0.7,1.5,1.3,2.7,1.6,3.6c1,2.4,2,5,2,5c0.1,0,0.5-0.2,0.8-0.6
				c0.3-0.4,0.3-0.7,0.3-0.9c1.3-0.1,2.5-0.2,3.9-0.2c4.2-0.2,8.1-0.2,11.9,0c-0.1,0.4-0.2,0.7-0.4,1c-2.4,0.3-4.3,0.5-5.7,0.6
				c-1.1,0.1-2.3,0.2-3.4,0.3c-1.6,0.1-2.6,0.2-4,0.4c-0.7,0.1-1.3,0.2-1.8,0.3c-0.4,1.1-0.7,2.2-1.1,3.3c-0.1-0.2-0.4-0.6-0.6-1.1
				c-0.3-0.5-0.6-1.3-1.5-4.3c-0.2-0.6-0.4-1.3-0.8-2.2c-0.2-0.4-0.3-0.7-0.5-0.9c-0.2,1.5-0.4,2.7-0.5,3.5
				c-0.1,1.3-0.2,2.2-0.4,3.6c-0.1,0.8-0.3,1.4-0.4,1.8c-0.1,0-0.2,0.1-0.3,0.1c-0.2,0-0.3-0.2-0.5-0.5c-0.4-0.9-0.3-1.2-0.6-1.5
				c-0.1-0.1-0.3-0.3-0.6-0.5c-0.7,0-1.6-0.1-2.8-0.1c-1.5,0-2.9,0-5.8,0c-5.2,0.1-4.5,0.2-7.1,0.2c-1.2,0-2.5,0-4.4,0.1
				c-1.1,0.1-2,0.1-2.6,0.2c-0.2,1-0.3,1.8-0.3,2.4c0,0.5,0,1.4,0.1,2.1c0,0.2,0,0.4,0,0.6c-0.2-0.2-0.4-0.5-0.5-0.7
				c-0.4-1-0.6-1.7-0.7-2.2c-0.3-1.1-0.3-1.7-0.7-3.2c-0.2-0.8-0.4-1.5-0.5-1.9c-0.5,0.7-0.8,1.3-1,1.7c-0.1,0.3-0.3,1-0.7,2.2
				c0,0.1,0,0.2-0.1,0.2c-0.5-0.1-1.2-0.3-2.1-0.5c-1.7-0.3-3-0.4-4.4-0.6c-2.1-0.2-3.1-0.3-3.7-0.3c-0.9,0-1.9-0.2-2.8-0.1
				c-0.3,0-0.6,0-0.8-0.1c-0.4-0.4-0.1-1.5,0.8-1.7C409.9,429.7,410.5,430,410.6,430z"/>
			
				<linearGradient id="ekg-middle-front-1_1_" gradientUnits="userSpaceOnUse" x1="447.8758" y1="666.3259" x2="396.1255" y2="631.3224" gradientTransform="matrix(0.9521 0.3059 0.3059 -0.9521 -159.8553 917.3578)">
				<stop  offset="0" style="stop-color:#F2EA1A"/>
				<stop  offset="1" style="stop-color:#F1EA19"/>
			</linearGradient>
			<path id="ekg-middle-front-1" class="st5" d="M410.6,429.7c1.9-0.1,4.2-0.1,6.7,0.2c1.6,0.2,3,0.4,4.4,0.7
				c0.7-2.1,1.4-4.3,2.1-6.4c0.5,1,0.9,2,1.3,3c0.4,0.9,0.7,1.8,1,2.6c1.4-0.1,3.6-0.2,6.4-0.4c3.7-0.3,4.5-0.5,6.9-0.5
				c3.7-0.1,6.3,0.3,6.9,0.4c1.9,0.3,3.5,0.7,4.7,1c0.4-3.3,0.8-6.5,1.2-9.8c0.7,1.5,1.3,2.7,1.6,3.6c1,2.4,2,5,2,5
				c0.1,0,0.5-0.2,0.8-0.6c0.3-0.4,0.3-0.7,0.3-0.9c1.3-0.1,2.5-0.2,3.9-0.2c4.2-0.2,8.1-0.2,11.9,0c-0.1,0.4-0.2,0.7-0.4,1
				c-2.4,0.3-4.3,0.5-5.7,0.6c-1.1,0.1-2.3,0.2-3.4,0.3c-1.6,0.1-2.6,0.2-4,0.4c-0.7,0.1-1.3,0.2-1.8,0.3c-0.4,1.1-0.7,2.2-1.1,3.3
				c-0.1-0.2-0.4-0.6-0.6-1.1c-0.3-0.5-0.6-1.3-1.5-4.3c-0.2-0.6-0.4-1.3-0.8-2.2c-0.2-0.4-0.3-0.7-0.5-0.9
				c-0.2,1.5-0.4,2.7-0.5,3.5c-0.1,1.3-0.2,2.2-0.4,3.6c-0.1,0.8-0.3,1.4-0.4,1.8c-0.1,0-0.2,0.1-0.3,0.1c-0.2,0-0.3-0.2-0.5-0.5
				c-0.4-0.9-0.3-1.2-0.6-1.5c-0.1-0.1-0.3-0.3-0.6-0.5c-0.7,0-1.6-0.1-2.8-0.1c-1.5,0-2.9,0-5.8,0c-5.2,0.1-4.5,0.2-7.1,0.2
				c-1.2,0-2.5,0-4.4,0.1c-1.1,0.1-2,0.1-2.6,0.2c-0.2,1-0.3,1.8-0.3,2.4c0,0.5,0,1.4,0.1,2.1c0,0.2,0,0.4,0,0.6
				c-0.2-0.2-0.4-0.5-0.5-0.7c-0.4-1-0.6-1.7-0.7-2.2c-0.3-1.1-0.3-1.7-0.7-3.2c-0.2-0.8-0.4-1.5-0.5-1.9c-0.5,0.7-0.8,1.3-1,1.7
				c-0.1,0.3-0.3,1-0.7,2.2c0,0.1,0,0.2-0.1,0.2c-0.5-0.1-1.2-0.3-2.1-0.5c-1.7-0.3-3-0.4-4.4-0.6c-2.1-0.2-3.1-0.3-3.7-0.3
				c-0.9,0-1.9-0.2-2.8-0.1c-0.3,0-0.6,0-0.8-0.1c-0.4-0.4-0.1-1.5,0.8-1.7C410,429.4,410.5,429.7,410.6,429.7z"/>
			
				<linearGradient id="ekg-middle-back-2_1_" gradientUnits="userSpaceOnUse" x1="434.1103" y1="689.2678" x2="378.724" y2="651.8049" gradientTransform="matrix(0.9381 0.3464 0.3464 -0.9381 -174.6856 900.3966)">
				<stop  offset="0" style="stop-color:#828635"/>
				<stop  offset="3.330000e-02" style="stop-color:#828635"/>
				<stop  offset="1" style="stop-color:#828635"/>
			</linearGradient>
			<path id="ekg-middle-back-2" class="st6" d="M405.7,413c0.5,0,1.2-0.1,2.1-0.1c1-0.1,2.8-0.2,4.1-0.2c1.6-0.1,3.7-0.1,6.2,0.1
				c1.2,0.1,2.9,0.4,4.9,0.8c0.4-1,0.9-1.9,1.3-2.9c0.5-1.1,0.9-2.1,1.4-3.2c0.2,0.6,0.3,1.1,0.4,1.5c0.3,1.1,0.5,1.6,0.8,2.8
				c0.1,0.5,0.2,0.9,0.3,1.2c0.5,0,1.1-0.1,1.9-0.1c2.7-0.2,3.7-0.4,5.2-0.5c2.2-0.2,3.9-0.1,6.2-0.1c1.7,0,3.3,0,5,0.2
				c0.8,0.1,1.6,0.2,2.5,0.5c0.7,0.2,1.3,0.4,1.7,0.5c0.2-0.5,0.3-1,0.5-1.6c0.4-1.6,0.6-3.2,0.7-4.6c0.1-1.2,0.3-2.3,0.4-3.5
				c0.2,0.6,0.6,1.5,1,2.6c0.3,1,0.3,1,0.7,2.4c0.1,0.4,0.5,1.4,1,2.8c0.1,0.4,0.3,0.7,0.4,0.9c0.1-0.2,0.3-0.7,0.7-1
				c0.5-0.5,1-0.6,1.3-0.7c1,0,2.4,0.1,4.2,0c2.8,0,4-0.2,6.2-0.2c1.5,0,3.6,0,6.2,0.2c-0.2,0.2-0.3,0.3-0.5,0.5
				c-2,0.4-3.6,0.6-4.7,0.7c-1.6,0.2-2.9,0.4-7.9,0.9c-1.4,0.1-3,0.3-4.4,0.4c-0.4,1-0.7,2-1.1,3c-0.6-1.4-0.9-2.6-1.1-3.5
				c-0.2-1-0.3-1.9-0.8-3.2c-0.2-0.6-0.4-1-0.6-1.3c-0.3,1.4-0.5,2.5-0.6,3.3c-0.2,1.3-0.4,1.9-0.6,3s-0.4,2-0.5,2.6
				c-0.1-0.1-0.3-0.2-0.4-0.3c0-0.2,0-1-0.5-1.7c-0.4-0.4-0.8-0.7-1-0.8c-0.6,0-1.4-0.1-2.5-0.1c-2.9-0.1-4,0-8.2,0.1
				c-3.1,0-3.5,0-6.5,0.1c-1.4,0-2.6,0.1-3.4,0.1c-0.2,1.6-0.5,3.2-0.7,4.8c-0.1-0.1-0.2-0.2-0.4-0.3c-0.1-1.4-0.2-2.5-0.4-3.2
				c-0.2-0.9-0.4-1.8-0.7-3.7c0-0.3-0.1-0.5-0.1-0.6c-0.4,0.8-0.8,1.7-1.1,2.6c-0.2,0.6-0.5,1.2-0.7,1.8c-0.6-0.2-1.5-0.5-2.6-0.8
				c-2-0.5-3.5-0.6-6.3-0.9c-2.9-0.3-4.4-0.4-5.8-0.4c-2.2,0.1-4,0.4-4.1,0C404.8,413.6,405.2,413.3,405.7,413z"/>
			
				<linearGradient id="ekg-middle-front-2_1_" gradientUnits="userSpaceOnUse" x1="436.0571" y1="691.7388" x2="378.1937" y2="652.6005" gradientTransform="matrix(0.9381 0.3464 0.3464 -0.9381 -174.6856 900.3966)">
				<stop  offset="0" style="stop-color:#EFE919"/>
				<stop  offset="1" style="stop-color:#EFE919"/>
			</linearGradient>
			<path id="ekg-middle-front-2" class="st7" d="M413.2,411.3c1.8-0.1,3.8,0,6.1,0.3c1.4,0.2,2.8,0.4,3.9,0.7
				c0.8-2.1,1.6-4.2,2.4-6.3c0.3,1,0.7,2,1,3c0.3,0.9,0.5,1.8,0.7,2.6c1.3,0,3.3-0.1,5.8-0.3c3.4-0.3,4.1-0.4,6.3-0.5
				c3.4,0,5.7,0.3,6.2,0.4c1.7,0.3,3.1,0.7,4.2,1c0.6-3.2,1.2-6.4,1.8-9.6c0.5,1.5,1,2.7,1.2,3.5c0.7,2.4,1.4,5,1.4,5
				c0.1,0,0.5-0.2,0.8-0.6c0.3-0.4,0.3-0.7,0.3-0.9c1.1-0.1,2.3-0.1,3.5-0.2c3.8-0.1,13.4,0.1,16.9,0.3c-0.1,0.3-0.4,0.3-0.5,0.7
				c-2.2,0.2-9.9,0.6-11.1,0.7c-1,0.1-2.1,0.2-3.1,0.3c-1.5,0.1-2.4,0.2-3.7,0.4c-0.7,0.1-1.2,0.2-1.6,0.2c-0.4,1.1-0.8,2.2-1.2,3.2
				c-0.1-0.2-0.3-0.6-0.5-1c-0.2-0.5-0.5-1.2-1.1-4.3c-0.1-0.6-0.3-1.3-0.6-2.2c-0.1-0.4-0.3-0.7-0.3-0.9c-0.3,1.5-0.5,2.7-0.7,3.5
				c-0.2,1.2-0.3,2.2-0.7,3.5c-0.2,0.8-0.3,1.4-0.5,1.8c-0.1,0-0.2,0.1-0.3,0.1c-0.2,0-0.3-0.2-0.4-0.5c-0.3-0.8-0.2-1.1-0.5-1.5
				c-0.1-0.1-0.2-0.3-0.5-0.5c-0.6,0-1.5-0.1-2.6-0.2c-1.4-0.1-2.6-0.1-5.3,0c-4.7,0-4.1,0.1-6.5,0.1c-1,0-2.2,0-4,0
				c-1,0-1.9,0.1-2.4,0.2c-0.3,1-0.4,1.8-0.4,2.4c0,0.5-0.1,1.4-0.1,2c0,0.2,0,0.4,0,0.5c-0.1-0.2-0.3-0.4-0.4-0.7
				c-0.2-0.9-0.4-1.7-0.5-2.2c-0.2-1.1-0.2-1.7-0.4-3.2c-0.1-0.8-0.2-1.5-0.3-1.9c-0.5,0.7-0.8,1.3-1,1.7c-0.1,0.3-0.4,0.9-0.8,2.2
				c0,0.1-0.1,0.2-0.1,0.2c-0.5-0.1-1.1-0.3-1.9-0.5c-1.5-0.3-2.7-0.5-4-0.6c-1.9-0.2-2.8-0.3-3.4-0.3c-0.9,0-1.7-0.2-2.6-0.1
				c-0.3,0-6.9,0.1-7.1-0.1c-0.3-0.4-0.9-0.7-0.1-1C405.4,411.8,413.1,411.3,413.2,411.3z"/>
			
				<linearGradient id="ekg-middle-back-3_1_" gradientUnits="userSpaceOnUse" x1="424.2985" y1="708.0427" x2="376.5992" y2="675.7793" gradientTransform="matrix(0.9381 0.3464 0.3464 -0.9381 -174.6856 900.3966)">
				<stop  offset="0" style="stop-color:#838634"/>
				<stop  offset="3.330000e-02" style="stop-color:#838634"/>
				<stop  offset="1" style="stop-color:#838634"/>
			</linearGradient>
			<path id="ekg-middle-back-3" class="st8" d="M413.5,390.7c1.8-0.1,3.8,0,6.1,0.3c1.4,0.2,2.8,0.4,3.9,0.7
				c0.8-2.1,1.6-4.2,2.4-6.3c0.3,1,0.7,2,1,3c0.3,0.9,0.5,1.8,0.7,2.6c1.3,0,3.3-0.1,5.8-0.3c3.4-0.3,4.1-0.4,6.3-0.5
				c3.4,0,5.7,0.3,6.2,0.4c1.7,0.3,3.1,0.7,4.2,1c0.6-3.2,1.2-6.4,1.8-9.6c0.5,1.5,1,2.7,1.2,3.5c0.7,2.4,1.4,5,1.4,5
				c0.1,0,0.5-0.2,0.8-0.6c0.3-0.4,0.3-0.7,0.3-0.9c1.1-0.1,2.3-0.1,3.5-0.2c3.8-0.1,7.4-0.1,10.8,0.1c-0.1,0.3-0.3,0.7-0.4,1
				c-2.2,0.2-4,0.4-5.2,0.5c-1,0.1-2.1,0.2-3.1,0.3c-1.5,0.1-2.4,0.2-3.7,0.4c-0.7,0.1-1.2,0.2-1.6,0.2c-0.4,1.1-0.8,2.2-1.2,3.2
				c-0.1-0.2-0.3-0.6-0.5-1c-0.2-0.5-0.5-1.2-1.1-4.3c-0.1-0.6-0.3-1.3-0.6-2.2c-0.1-0.4-0.3-0.7-0.3-0.9c-0.3,1.5-0.5,2.7-0.7,3.5
				c-0.2,1.2-0.3,2.2-0.7,3.5c-0.2,0.8-0.3,1.4-0.5,1.8c-0.1,0-0.2,0.1-0.3,0.1c-0.2,0-0.3-0.2-0.4-0.5c-0.3-0.8-0.2-1.1-0.5-1.5
				c-0.1-0.1-0.2-0.3-0.5-0.5c-0.6,0-1.5-0.1-2.6-0.2c-1.4-0.1-2.6-0.1-5.3,0c-4.7,0-4.1,0.1-6.5,0.1c-1,0-2.2,0-4,0
				c-1,0-1.9,0.1-2.4,0.2c-0.3,1-0.4,1.8-0.4,2.4c0,0.5-0.1,1.4-0.1,2c0,0.2,0,0.4,0,0.5c-0.1-0.2-0.3-0.4-0.4-0.7
				c-0.2-0.9-0.4-1.7-0.5-2.2c-0.2-1.1-0.2-1.7-0.4-3.2c-0.1-0.8-0.2-1.5-0.3-1.9c-0.5,0.7-0.8,1.3-1,1.7c-0.1,0.3-0.4,0.9-0.8,2.2
				c0,0.1-0.1,0.2-0.1,0.2c-0.5-0.1-1.1-0.3-1.9-0.5c-1.5-0.3-2.7-0.5-4-0.6c-1.9-0.2-2.8-0.3-3.4-0.3c-0.9,0-1.7-0.2-2.6-0.1
				c-0.3,0-0.5,0-0.7-0.1c-0.3-0.4,0-1.5,0.8-1.7C412.9,390.4,413.4,390.6,413.5,390.7z"/>
			
				<linearGradient id="ekg-middle-front-3_1_" gradientUnits="userSpaceOnUse" x1="424.2484" y1="708.3226" x2="376.5491" y2="676.0593" gradientTransform="matrix(0.9381 0.3464 0.3464 -0.9381 -174.6856 900.3966)">
				<stop  offset="0" style="stop-color:#EFE919"/>
				<stop  offset="1" style="stop-color:#EFE919"/>
			</linearGradient>
			<path id="ekg-middle-front-3" class="st9" d="M413.6,390.4c1.8-0.1,3.8,0,6.1,0.3c1.4,0.2,2.8,0.4,3.9,0.7
				c0.8-2.1,1.6-4.2,2.4-6.3c0.3,1,0.7,2,1,3c0.3,0.9,0.5,1.8,0.7,2.6c1.3,0,3.3-0.1,5.8-0.3c3.4-0.3,4.1-0.4,6.3-0.5
				c3.4,0,5.7,0.3,6.2,0.4c1.7,0.3,3.1,0.7,4.2,1c0.6-3.2,1.2-6.4,1.8-9.6c0.5,1.5,1,2.7,1.2,3.5c0.7,2.4,1.4,5,1.4,5
				c0.1,0,0.5-0.2,0.8-0.6c0.3-0.4,0.3-0.7,0.3-0.9c1.1-0.1,2.3-0.1,3.5-0.2c3.8-0.1,7.4-0.1,10.8,0.1c-0.1,0.3-0.3,0.7-0.4,1
				c-2.2,0.2-4,0.4-5.2,0.5c-1,0.1-2.1,0.2-3.1,0.3c-1.5,0.1-2.4,0.2-3.7,0.4c-0.7,0.1-1.2,0.2-1.6,0.2c-0.4,1.1-0.8,2.2-1.2,3.2
				c-0.1-0.2-0.3-0.6-0.5-1c-0.2-0.5-0.5-1.2-1.1-4.3c-0.1-0.6-0.3-1.3-0.6-2.2c-0.1-0.4-0.3-0.7-0.3-0.9c-0.3,1.5-0.5,2.7-0.7,3.5
				c-0.2,1.2-0.3,2.2-0.7,3.5c-0.2,0.8-0.3,1.4-0.5,1.8c-0.1,0-0.2,0.1-0.3,0.1c-0.2,0-0.3-0.2-0.4-0.5c-0.3-0.8-0.2-1.1-0.5-1.5
				c-0.1-0.1-0.2-0.3-0.5-0.5c-0.6,0-1.5-0.1-2.6-0.2c-1.4-0.1-2.6-0.1-5.3,0c-4.7,0-4.1,0.1-6.5,0.1c-1,0-2.2,0-4,0
				c-1,0-1.9,0.1-2.4,0.2c-0.3,1-0.4,1.8-0.4,2.4c0,0.5-0.1,1.4-0.1,2c0,0.2,0,0.4,0,0.5c-0.1-0.2-0.3-0.4-0.4-0.7
				c-0.2-0.9-0.4-1.7-0.5-2.2c-0.2-1.1-0.2-1.7-0.4-3.2c-0.1-0.8-0.2-1.5-0.3-1.9c-0.5,0.7-0.8,1.3-1,1.7c-0.1,0.3-0.4,0.9-0.8,2.2
				c0,0.1-0.1,0.2-0.1,0.2c-0.5-0.1-1.1-0.3-1.9-0.5c-1.5-0.3-2.7-0.5-4-0.6c-1.9-0.2-2.8-0.3-3.4-0.3c-0.9,0-1.7-0.2-2.6-0.1
				c-0.3,0-0.5,0-0.7-0.1c-0.3-0.4,0-1.5,0.8-1.7C413,390.1,413.5,390.4,413.6,390.4z"/>
		</g>
		<g id="ekg-bottom">
			
				<linearGradient id="ekg-bottom-back_1_" gradientUnits="userSpaceOnUse" x1="-273.8925" y1="303.3345" x2="-190.9966" y2="303.3345" gradientTransform="matrix(-0.7159 0.276 -0.3597 -0.9331 382.2249 870.0819)">
				<stop  offset="0" style="stop-color:#8B8D35"/>
				<stop  offset="3.330000e-02" style="stop-color:#8B8D35"/>
				<stop  offset="1" style="stop-color:#8B8D35"/>
			</linearGradient>
			<path id="ekg-bottom-back" class="st10" d="M474.1,524.2c-2.6-0.1-4.6-0.1-6-0.1c-0.6,0-3.4,0-6.8-0.1c-3.1-0.1-4.1-0.3-5.1-1.2
				c-1.4-1.3-1.9-3.2-2.2-4.3c-0.5,1-0.8,1.9-1.1,2.8c-0.4,1-0.4,1.5-0.8,2c-0.4,0.6-1,1.3-2.2,1.6c-3.2,0.1-7.4,0.2-10.6,0.3
				c-2.5,0.1-6.5,0.2-9,0.2c-0.2,0.1-0.6,0.2-1,0c-0.5-0.2-0.9-0.9-1.1-1.3c-0.6-1.3-2.6-6.1-5.3-12.7c-0.1,2-0.3,4.1-0.5,6.1
				c-0.3,3.5-0.5,6.9-0.8,10.3c0,0,0,0.2-0.1,0.3c-0.1,0.1-0.2,0.1-0.4,0.1c-0.6-1.4-1.1-2.6-1.5-3.5c-0.4-0.9-0.7-1.6-1-1.6
				c-0.3,0-0.4,0.7-0.5,1.3c-0.1,0.7-0.1,1.1-0.4,1.5c-0.1,0.2-0.2,0.2-0.4,0.3c-1.1,0.5-3.3,0.3-4.8,0.3c-0.3,0,0,0-1.6,0
				c-3,0.1-3.8,0-4,0.6c-0.1,0.2,0,0.7,0.8,1.7c1.8-0.2,3.3-0.3,4.3-0.3c1.5,0,3.1,0.2,5.5,0c0.4,0,0.7-0.1,0.9-0.1
				c-0.1-0.3-0.4-1.8,0.3-2.4c0,0,0.1-0.1,0.2-0.1c0.6,0.8,0.9,1.4,1.1,1.9c0.4,0.8,0.5,1.5,1.1,2.3c0.2,0.3,0.5,0.6,0.6,0.7
				c0.1-0.1,0.2-0.2,0.4-0.3c0.4-2.3,0.7-4,0.9-5.2c0.9-4.9,0.9-5,0.9-5.2c0-0.1-0.1-0.4,0.1-0.6c0.1-0.2,0.3-0.2,0.4-0.2
				c0.5,1,1,1.8,1.3,2.4c1.4,2.5,2,3.8,2.3,4.5c0.5,1.3,0.6,1.9,1.2,2.3c0.7,0.6,1.6,0.3,1.9,0.3c0.5-0.1,3.2-0.4,8.6-1
				c2-0.2,4.5-0.5,6.8-0.2c0.6,0.1,2.3,0.3,4.4-0.3c0.3-0.1,0.6-0.2,0.8-0.3c0.3-0.6,0.6-1.2,1-1.9c0.4-0.9,0.8-1.7,1.1-2.6
				c0.2,0.2,0.5,0.4,0.8,0.7c0.6,0.5,1.3,1,1.8,1.3c1,0.7,1.8,0.9,2.9,1.3c0.7,0.2,1.8,0.5,3.5,0.7c1.8,0.2,1.9,0,4.5,0.2
				c2.5,0.2,3.7,0.2,4.1,0.3c1.5,0.2,2.2,0.5,2.6,0C474.8,526.6,474.4,525,474.1,524.2z"/>
			
				<linearGradient id="ekg-bottom-front_1_" gradientUnits="userSpaceOnUse" x1="-274.4444" y1="304.0715" x2="-191.5485" y2="304.0715" gradientTransform="matrix(-0.7159 0.276 -0.3597 -0.9331 382.2249 870.0819)">
				<stop  offset="0" style="stop-color:#F2EA1A"/>
				<stop  offset="1" style="stop-color:#F1EA19"/>
			</linearGradient>
			<path id="ekg-bottom-front" class="st11" d="M474.2,523.3c-2.6-0.1-4.6-0.1-6-0.1c-0.6,0-3.4,0-6.8-0.1c-3.1-0.1-4.1-0.3-5.1-1.2
				c-1.4-1.3-1.9-3.2-2.2-4.3c-0.5,1-0.8,1.9-1.1,2.8c-0.4,1-0.4,1.5-0.8,2c-0.4,0.6-1,1.3-2.2,1.6c-3.2,0.1-7.4,0.2-10.6,0.3
				c-2.5,0.1-6.5,0.2-9,0.2c-0.2,0.1-0.6,0.2-1,0c-0.5-0.2-0.9-0.9-1.1-1.3c-0.6-1.3-2.6-6.1-5.3-12.7c-0.1,2-0.3,4.1-0.5,6.1
				c-0.3,3.5-0.5,6.9-0.8,10.3c0,0,0,0.2-0.1,0.3c-0.1,0.1-0.2,0.1-0.4,0.1c-0.6-1.4-1.1-2.6-1.5-3.5c-0.4-0.9-0.7-1.6-1-1.6
				c-0.3,0-0.4,0.7-0.5,1.3c-0.1,0.7-0.1,1.1-0.4,1.5c-0.1,0.2-0.2,0.2-0.4,0.3c-1.1,0.5-3.3,0.3-4.8,0.3c-0.3,0,0,0-1.6,0
				c-3,0.1-3.8,0-4,0.6c-0.1,0.2,0,0.7,0.8,1.7c1.8-0.2,3.3-0.3,4.3-0.3c1.5,0,3.1,0.2,5.5,0c0.4,0,0.7-0.1,0.9-0.1
				c-0.1-0.3-0.4-1.8,0.3-2.4c0,0,0.1-0.1,0.2-0.1c0.6,0.8,0.9,1.4,1.1,1.9c0.4,0.8,0.5,1.5,1.1,2.3c0.2,0.3,0.5,0.6,0.6,0.7
				c0.1-0.1,0.2-0.2,0.4-0.3c0.4-2.3,0.7-4,0.9-5.2c0.9-4.9,0.9-5,0.9-5.2c0-0.1-0.1-0.4,0.1-0.6c0.1-0.2,0.3-0.2,0.4-0.2
				c0.5,1,1,1.8,1.3,2.4c1.4,2.5,2,3.8,2.3,4.5c0.5,1.3,0.6,1.9,1.2,2.3c0.7,0.6,1.6,0.3,1.9,0.3c0.5-0.1,3.2-0.4,8.6-1
				c2-0.2,4.5-0.5,6.8-0.2c0.6,0.1,2.3,0.3,4.4-0.3c0.3-0.1,0.6-0.2,0.8-0.3c0.3-0.6,0.6-1.2,1-1.9c0.4-0.9,0.8-1.7,1.1-2.6
				c0.2,0.2,0.5,0.4,0.8,0.7c0.6,0.5,1.3,1,1.8,1.3c1,0.7,1.8,0.9,2.9,1.3c0.7,0.2,1.8,0.5,3.5,0.7c1.8,0.2,1.9,0,4.5,0.2
				c2.5,0.2,3.7,0.2,4.1,0.3c1.5,0.2,2.2,0.5,2.6,0C474.9,525.8,474.5,524.2,474.2,523.3z"/>
		</g>
		<g id="dna-strand-1">
			
				<linearGradient id="dna-strand-1-top_1_" gradientUnits="userSpaceOnUse" x1="415.1792" y1="660.5635" x2="388.6053" y2="775.733" gradientTransform="matrix(0.9744 0.2248 0.2248 -0.9744 -114.6513 895.4448)">
				<stop  offset="0.1929" style="stop-color:#909090"/>
				<stop  offset="0.3629" style="stop-color:#989797"/>
				<stop  offset="0.3988" style="stop-color:#A2A0A0"/>
				<stop  offset="0.5131" style="stop-color:#BFBDBD"/>
				<stop  offset="0.6298" style="stop-color:#D8D6D5"/>
				<stop  offset="0.7484" style="stop-color:#EBEAE9"/>
				<stop  offset="0.8703" style="stop-color:#F9F8F7"/>
				<stop  offset="1" style="stop-color:#FFFFFF"/>
			</linearGradient>
			<path id="dna-strand-1-top" class="st12" d="M395.9,241.9c-1.6-0.4-2.5-1.8-2.5-1.9c-0.5-0.9-0.5-1.8-0.6-2.4
				c0-1.9,0.7-3.4,1.1-4.2c1.7-2.7,5.2-3.5,6.9-3.9c12.2-2.6,22.2-2.5,22.2-2.5c8.8,0.5,13.3,0.1,17,0.5c8,0.9,14.2,1.7,21,5.4
				c6.9,3.8,10.9,8.9,12.8,11.4c10.8,14,10.3,29.9,10.1,34.7c-0.1,1.9-0.5,7.8-2.8,15.1c-2.7,8.3-6.4,13.9-10.3,19.4
				c-6.5,9.3-12.9,15.2-16.9,19c-7.6,7-15.8,12.9-16.1,12.6c-0.1-0.2,1.7-1.8,4.6-4.7c10-10.2,16-19.3,17.5-21.7
				c2-3.2,3.9-6.1,5.9-10.5c2.1-4.6,5-11.2,5.6-20.1c0.2-3.6,0.7-11.5-3-20.8c-0.8-1.9-4.2-10-12.4-17.2c-2.7-2.4-7.2-6.2-14.2-8.3
				c-2.5-0.8-4.8-1-9.2-1.5c-5-0.5-11.8-1.2-20.1-0.4c-8.3,0.9-12.5,1.3-13.2,1.6C398.8,241.7,397.4,242.3,395.9,241.9z"/>
			<path id="dna-strand-1-middle" class="st13" d="M425.4,467.7c-2.7-1.7-6-4.1-9.6-7.1c-2-1.7-5.7-4.9-9.7-9.6
				c-2.8-3.4-6.9-8.3-10.2-15.8c-1.3-3-4-9.3-4.4-17.9c-0.5-9.6,1.9-16.9,3.3-20.9c1.9-5.5,4.1-9.4,5.8-12.4
				c0.7-1.1,3.8-6.5,9.3-13.1c3.8-4.5,6.8-7.4,12.9-13c3.5-3.2,8.5-7.7,14.9-12.9c5.7-4.6,5.5-4,9.6-7.4c8.4-7,14-13.2,16.1-15.5
				c4-4.5,7.6-8.6,11.3-14.9c1.7-2.9,4.2-7.2,6.2-13.5c1.6-5.1,2.2-9.3,2.5-11.8c0.5-3.5,0.9-6.8,0.6-11.2c-0.5-7.8-3-13.6-4.1-16.2
				c-0.6-1.5-1.6-3.6-3-5.9c-2.7-4.5-5.8-7.8-8-10.1c0.7,0.5,1.7,1,2.8,1.8c1,0.8,2.7,2.1,4.3,3.8c1.7,1.8,2.8,3.3,4.8,6.3
				c1,1.4,1.8,2.6,2.7,4.2c0.5,0.9,1.8,3.2,3,6.3c1.9,5,2.6,9.1,2.8,10.5c0.6,4.1,0.5,7.3,0.4,9.2c-0.1,4.1-0.7,7.1-1.2,10
				c-0.5,2.7-1.1,6.1-2.5,10.2c-1.3,3.7-2.5,6.2-5,11.2c-2.3,4.5-3.9,7.8-6.7,11.8c-0.8,1.2-2.3,3.2-5.3,7.2
				c-2.8,3.6-4.1,5.5-5.5,7.1c-2.9,3.6-5.4,6.2-7.5,8.3c-2.1,2.2-3.7,3.8-6.7,6.8c-7.4,7.3-12.5,11.9-13.5,12.8
				c-2.2,2-3.5,3.1-5.2,4.6c-0.7,0.6-1.4,1.2-2.5,2.2c-1.6,1.4-2.5,2.2-3.3,3c-1,1-1.9,2.2-3.7,4.5c-1.2,1.6-2.6,3.5-4.3,6.1
				c-0.8,1.2-1.5,2.4-2.5,4c-1.4,2.5-2.3,4.5-2.5,5.1c-0.3,0.6-1.5,3.5-2.6,7.6c-0.4,1.5-1,3.6-1.4,6.3c-0.8,5.1-0.5,9.2-0.4,11
				c0.2,2.8,0.7,4.8,1,6.6c0.6,2.9,1.2,4.9,2.3,8.4c0.9,3,1.6,5.2,2.8,8.1c0.7,1.8,1.4,3.1,2,4.4c1,2,1.3,2.5,3.4,6.7
				c2.4,4.7,2.7,5.4,3.9,7.3c1,1.8,2,3.2,2.6,4.1C425.1,466.7,425.2,467.2,425.4,467.7z"/>
			
				<linearGradient id="dna-strand-1-bottom_1_" gradientUnits="userSpaceOnUse" x1="469.9322" y1="461.9335" x2="438.1009" y2="599.8884" gradientTransform="matrix(0.9744 0.2248 0.2248 -0.9744 -114.6513 895.4448)">
				<stop  offset="0" style="stop-color:#FFFFFF"/>
				<stop  offset="0.1865" style="stop-color:#E5E4E3"/>
				<stop  offset="0.5643" style="stop-color:#B5B4B3"/>
				<stop  offset="1" style="stop-color:#818282"/>
			</linearGradient>
			<path id="dna-strand-1-bottom" class="st14" d="M467.6,542.9c-0.5,2.9,2.3,5.5,2.6,5.8c0.7,0.7,1.9,1.8,3.7,2.1
				c3.6,0.7,6.3-2.1,6.6-2.4c0.8-0.8,1.1-1.6,2-4c1.5-3.8,2.2-5.8,2.7-7.5c0.9-3.2,2.6-9.3,2.6-16.5c0.1-11.5-4-20.3-5.8-24.1
				c-0.2-0.5-5.8-11.9-16.5-21c-4.1-3.5-9.3-7-9.6-7.2c-3.3-2.2-3.3-1.9-9-5.4c-5.9-3.6-6.2-4.1-12.4-7.9c-3.8-2.3-4.2-2.5-6.2-3.8
				c-2.3-1.6-5.1-3.5-8.1-6.6c-3.6-3.6-5.8-7.1-6.8-8.8c-2.5-4.3-3.8-8-4.4-10c-0.9-2.8-2.3-7.8-1.9-13.7c0.1-1.3,0.3-2.6,0.2-2.6
				c-0.1,0-1,3.6-1,7.6c0,3,0.5,5.3,0.8,6.9c2.7,11.7,6.1,20.4,6.1,20.4c2.8,7,5.5,12.1,7.3,15.3c1.7,3.2,3.3,5.9,4.5,7.8
				c1.4,0.8,3.6,2.1,6.4,3.6c8.2,4.5,11,5.4,15.6,8.4c1.6,1,5.3,3.5,9.3,7.3c3.3,3.1,9,8.8,12.8,18c2.9,7.1,3.3,13.1,3.4,14.9
				c0.3,6-0.8,10.6-1.3,13c-1,4.5-1.6,6.7-2.8,8.6C468.1,541.6,467.8,542.1,467.6,542.9z"/>
		</g>
		<g id="dna-strand-2">
			
				<linearGradient id="dna-strand-2-top_1_" gradientUnits="userSpaceOnUse" x1="427.6942" y1="587.5917" x2="395.0181" y2="729.2078" gradientTransform="matrix(0.9744 0.2248 0.2248 -0.9744 -114.6513 895.4448)">
				<stop  offset="0" style="stop-color:#58595B"/>
				<stop  offset="8.850000e-02" style="stop-color:#76777A"/>
				<stop  offset="0.2245" style="stop-color:#9C9EA0"/>
				<stop  offset="0.3589" style="stop-color:#BDBFC1"/>
				<stop  offset="0.4889" style="stop-color:#D9DADB"/>
				<stop  offset="0.6133" style="stop-color:#ECEDED"/>
				<stop  offset="0.7297" style="stop-color:#F8F9F9"/>
				<stop  offset="0.8302" style="stop-color:#FFFFFF"/>
			</linearGradient>
			<path id="dna-strand-2-top" class="st15" d="M412.8,280c-0.1-0.5-0.6-3.7-3.4-5.3c-0.2-0.1-1.4-0.8-3-0.9c-2-0.2-3.6,0.6-4.4,1
				c0,0-1.7,0.9-3.1,2.5c-6,7-6.7,23-6.7,23c-0.2,3.8-0.3,8.2,0.7,14c0.6,3.3,2.1,10.2,6.5,17.8c3.8,6.7,8,10.9,11.2,14
				c5.6,5.5,10.5,8.6,20,14.6c13.4,8.4,14.2,7.5,21.3,13c10.5,8.2,14.2,14.6,15.3,16.8c3.5,6.6,4.4,12,4.5,13.2
				c0.9,6.7-0.2,12.2-1.2,15.4c1.5-2.6,3.3-6.5,4.4-11.6c0.3-1.5,1.2-5.9,0.8-11.7c-0.4-7.2-2.5-12.5-4.4-17
				c-3-7.4-4.8-12.4-9.8-16.8c-1.2-1.1-2.6-2-5.3-3.7c-6.8-4.4-12-6.8-15-8.3c-2.2-1.1-11-5.6-18.3-12.6
				c-3.6-3.5-11.1-10.7-14.2-22.5c-2.9-11-0.5-20.8,0.8-25.9C410.7,285.2,411.9,282.1,412.8,280z"/>
			
				<linearGradient id="dna-strand-2-middle_1_" gradientUnits="userSpaceOnUse" x1="445.228" y1="417.4198" x2="445.228" y2="649.2169" gradientTransform="matrix(0.9744 0.2248 0.2248 -0.9744 -114.6513 895.4448)">
				<stop  offset="0" style="stop-color:#FFFFFF"/>
				<stop  offset="1.760000e-02" style="stop-color:#FFFFFF"/>
				<stop  offset="0.5296" style="stop-color:#FFFFFF"/>
				<stop  offset="0.6886" style="stop-color:#FBFAFA"/>
				<stop  offset="0.7766" style="stop-color:#F1F0EF"/>
				<stop  offset="0.8473" style="stop-color:#E4E2E2"/>
				<stop  offset="0.9087" style="stop-color:#D1D0CF"/>
				<stop  offset="0.9636" style="stop-color:#BCBBBA"/>
				<stop  offset="1" style="stop-color:#AAAAA9"/>
			</linearGradient>
			<path id="dna-strand-2-middle" class="st16" d="M462.2,362.3c1,1.8,1.8,3.2,2.4,4.1c1.1,1.8,1.3,2.1,2.1,3.4
				c0.8,1.4,1.4,2.5,2,3.8c0.7,1.3,1.3,2.5,1.6,3.2c2.1,4.5,3.4,9.5,3.4,9.5c0.7,2.6,1.7,6.4,1.9,11.4c0.1,2,0.2,5.7-0.8,10.4
				c-0.2,1-1,4.6-3,8.9c-0.4,0.8-0.7,1.5-1,2c-0.2,0.7-0.4,1.7-0.8,2.9c-0.5,1.6-1.1,3.9-2.3,6.8c-1.1,2.7-2.2,4.7-2.6,5.6
				c-1.1,2-2,3.4-2.9,4.7c-0.4,0.6-1.4,2.2-2.9,4.1c-1.4,1.9-2.8,3.7-4.9,5.9c-2.2,2.4-4.2,4-4.7,4.5c-1.2,1-2.4,1.9-4.2,3.3
				c-1.2,0.9-2.1,1.6-2.4,1.8c-4.1,3-7.7,7.3-13.4,12.6c-1.9,1.8-2.7,2.3-4.4,4c-0.6,0.6-1.1,1.1-4.7,5.2c-2,2.3-3,3.5-4.1,4.7
				c-2.1,2.4-3.2,3.6-4.4,5.2c-1.6,2-2.7,3.5-3.7,4.9c-1.5,2-2.9,3.9-4.6,6.6c-2.6,4.2-4.4,7.6-5.3,9.2c-0.3,0.6-1,2.1-1.9,4
				c-0.9,2.1-2.4,5.2-3.6,9.2c-0.4,1.3-1.8,5.7-2.7,11.7c-0.7,4.9-1.3,8.5-0.7,12.4c0.1,0.7,0.4,2.4,0.9,6c0.5,3.3,0.4,3.2,0.5,3.9
				c0.5,3,1.4,5.1,2.4,7.6c0.9,2.3,1.8,4.5,3.5,7.3c0.4,0.6,2,3.2,4.7,6.3c1.3,1.5,3,3.3,5.7,5.3c1.2,0.9,3.7,2.6,7.3,4.1
				c2.5,1,5,1.6,9.9,2.6c2.2,0.5,5.1,1,8.5,1.6c-0.7-0.5-1.7-1.2-2.9-2c-4.5-2.9-6.4-3.5-8.8-5.2c-1.2-0.9-3.9-3-6.9-6.3
				c-0.9-1-4-4.5-6.9-10.1c-1.4-2.6-3.4-6.5-4.5-12c-0.9-4.2-0.9-7.4-0.8-12.9c0-3.4,0.1-7,1-11.7c0.8-4.1,1.8-7.1,2.4-8.8
				c0.4-1,2-5.8,5.4-11.9c1.3-2.3,2.4-4.3,4.2-6.8c0.3-0.4,1.1-1.5,4.3-5.1c3.1-3.5,4.6-5.2,5.6-6.2c3.4-3.3,4.6-3.5,8.7-7.1
				c2-1.8,2.6-2.7,5.4-5.3c1.7-1.5,3-2.6,4-3.5c9.2-7.8,11.2-9.2,14.9-12.7c1.1-1.1,3-2.9,5.3-5.3c6.7-7.1,10.8-12.9,12.1-14.8
				c1.5-2.3,3-4.4,4.6-7.5c1.8-3.4,2.9-6.3,3.6-8.5c0.6-1.6,1.3-3.6,2.1-6.2c0.7-2.6,1.5-5.3,1.8-8.9c0.3-3.5,0-6-0.3-9.1
				c-0.3-2.5-0.6-5.4-1.6-9.1c-1.3-4.7-3.1-8.1-4.1-10.1c-2-3.8-3.9-6.3-5.5-8.6c-0.8-1.1-3.1-4.2-6.6-7.9
				C467.7,367.2,465.2,364.8,462.2,362.3z"/>
			
				<linearGradient id="dna-strand-2-bottom_1_" gradientUnits="userSpaceOnUse" x1="521.0239" y1="469.3757" x2="421.9879" y2="469.3757" gradientTransform="matrix(0.9744 0.2248 0.2248 -0.9744 -114.6513 895.4448)">
				<stop  offset="0" style="stop-color:#A19F9F"/>
				<stop  offset="1" style="stop-color:#E5E7E5"/>
			</linearGradient>
			<path id="dna-strand-2-bottom" class="st17" d="M433.5,487.3c-3.8,2.4-6.7,4.7-8.8,6.6c-0.6,0.5-2.6,2.4-5,5
				c-2.5,2.8-4.1,5-5.8,7.3c-2.5,3.4-3.8,5.2-5.2,8c-1.5,2.7-2.2,4.8-3.5,8.3c-1.2,3.2-2,5.4-2.7,8.5c-0.4,2-0.6,3.7-1,7.1
				c-0.4,3.7-0.6,5.6-0.7,8c-0.1,4.6,0.5,8.1,0.7,9.1c0.9,5,2.4,8.6,3.4,11c1,2.4,2.4,5.5,4.9,9.2c0.7,1,3.3,4.5,7.6,8.2
				c3.5,3,6.7,4.7,10,6.6c2.3,1.3,4.3,2.3,5.8,2.9c0.3,0,0.8,0.1,1.3,0.2c7,1.1,12,0.8,19.3,0.4c7.9-0.4,15.7-1.3,23.6-1.7
				c0.7,0,3.3-0.2,6.5-1.3c3.5-1.2,5.1-2.7,5.5-3.1c0.9-0.9,2.4-2.2,2.8-4.5c0.3-1.5,0.1-2.8-0.1-3.6c-0.2-0.7-0.7-2.4-2.1-3.4
				c-1-0.8-2.2-0.9-4.4-0.9c-4,0-7.1,0.5-7.6,0.6c0,0-1,0.2-8.1,1.2c-4.9,0.8-8.6,1-11.7,1.3c-4.2,0.3-7.3,0.6-11.5,0.6
				c-3.1,0-5.6,0-8.8-0.5c-5.9-0.8-10.1-2.5-11.5-3.1c-3.5-1.5-6.8-2.8-10.1-5.9c-2.7-2.5-4.2-5-6-8.1c-1.6-2.7-3.1-5.3-4.1-9.2
				c-0.9-3.6-0.9-6.4-0.9-9.3c0-1.2,0.1-5.7,1.4-11.6c0.3-1.3,1.6-7.1,5.1-14.3c2.6-5.4,5.2-9.2,8.3-13.6c1.6-2.3,2.9-4.1,4.9-6.5
				c3.2-3.9,4.9-5.6,5.6-6.4C431.6,488.9,432.7,488,433.5,487.3z"/>
		</g>
	</g>
	<path id="mitochondria-word" class="st0" d="M328.3,693.6c-2.6,0-5.2,0-7.5,0c-0.8-5.7-1.5-11.1-2.2-16.5c-0.2,0-0.4,0-0.5-0.1
		c-2.7,5.6-5.5,11.2-8.5,17.4c-3-6.1-5.8-11.6-8.8-17.7c-0.7,5.3-1.5,9.9-1.9,14.6c-0.1,0.8,1.4,1.7,2,2.3c-2,0-4.5,0-6.3,0
		c0.5-1,1.7-2.2,1.9-3.6c1.2-6.9,2.2-13.8,3.2-20.7c0.1-0.7,0.4-1.3,0.8-2.6c3.5,7.2,6.8,13.8,10.2,20.9c3.4-7,6.6-13.7,9.8-20.3
		c0.2,0,0.4,0,0.6,0.1c0.5,3,1,6,1.4,9c0.6,4.2,1.3,8.3,1.8,12.5C324.6,691.6,325.2,693.6,328.3,693.6z M337,690.2
		c0.1-4.8-0.1-9.7,0.1-14.5c0-1.3,0.9-2.5,1.3-3.5c-2.1,0-4.8,0-6.9,0c0.5,0.8,1.4,1.8,1.5,2.7c0.2,5.2,0.2,10.3,0,15.5
		c0,1.2-0.9,2.3-1.4,3.4c2.4,0,5.4,0,8.4,0C337.4,693.7,336.9,692.3,337,690.2z M341.5,676.1c2.1-2.4,2.7-2.5,8.4-2.2
		c0,5.9,0.1,11.9-0.1,17.8c0,0.7-1,1.4-1.5,2c2.6,0,5.6,0,8,0c-0.6-0.6-2.1-1.4-2.1-2.2c-0.2-5.9-0.1-11.8-0.1-18
		c2.8,0.8,5.9-0.9,7.7,2.7c0-1.7,0-3,0-4.3c-6.6,0-13,0-19.6,0C342,673.2,341.8,674.5,341.5,676.1z M388.4,682.3
		c0.1,6.8-5.4,12.1-12.7,12.1c-6.9,0-12.2-4.9-12.2-11.4c0-6.6,5.3-11.5,12.6-11.5C383.3,671.5,388.3,675.8,388.4,682.3z
		 M384.4,683.8c-0.9-2.5-1.4-5.1-2.7-7.3c-1.7-2.9-4.7-3.7-7.9-3.3c-2.7,0.4-4.5,2-5.4,4.6c-1.1,3.3-0.9,6.6,0.5,9.8
		c1.8,3.8,5.4,5.8,9.2,5.2c3.2-0.5,5.2-3.4,5.6-7.7c0-0.4,0-0.7,0.1-1C384,684,384.2,683.9,384.4,683.8z M400.9,673.5
		c2-0.4,4.2-0.5,6.1,0.1c1.8,0.6,3.2,2.2,4.6,3.3c0-0.9,0.1-2.4,0.2-4.2c-4.2-1-8.3-1.4-12.4-0.4c-4.6,1.1-7.7,4.8-8.2,9.8
		c-0.5,4.4,1.8,9.1,6.1,10.6c3.3,1.2,7,1.5,10.6,1.5c3.6,0,4.2-1.4,3.6-5.1c-1.7,3.3-4,4.3-7.9,3.4c-4.7-1-7.8-4.6-8-9.2
		C395.4,677.8,397.1,674.4,400.9,673.5z M440.5,693.7c-0.2,0-0.4,0-0.6,0C440,693.7,440.3,693.7,440.5,693.7z M437.5,690.1
		c0-5-0.1-10,0.1-15c0-1,1-2,1.5-2.8c-2.4,0-5.2,0-8.8,0c3.6,0.9,4,2.5,3,9c-3.8,0-7.7,0-11.9,0c1.3-3.1-1.9-7,2.3-9
		c-2.8,0-5.7,0-8,0c0.6,0.8,1.8,1.7,1.9,2.6c0.2,5.3,0.1,10.5,0,15.8c0,1.1-0.9,2.2-1.3,3.1c2.4,0,5.5,0,8.5,0c-2.8,0.1-3-1.7-3-3.9
		c0.1-2.1,0-4.3,0-6.7c4.1,0,7.9,0,11.9,0c0,2.3,0,4.5,0,6.6c0,1.8,0,3.5-2.3,3.9c2.9,0,5.7,0,8.6,0
		C437.7,693.6,437.5,691.9,437.5,690.1z M467.8,682.5c0,6.9-5.6,12.1-12.9,11.9c-7-0.2-12.2-5.2-12-11.5c0.1-6.7,5.5-11.4,12.8-11.3
		C463,671.6,467.8,676,467.8,682.5z M463.8,683.5c-0.8-2.3-1.4-4.8-2.6-6.9c-1.8-3-4.8-3.9-8.1-3.4c-2.7,0.4-4.5,2.1-5.3,4.7
		c-1.2,3.6-0.9,7.2,1,10.5c1.8,3.4,5.7,5.1,9.2,4.3c2.9-0.7,4.8-3.3,5.2-7.3c0.1-0.6,0.1-1.2,0.2-1.8
		C463.5,683.6,463.6,683.5,463.8,683.5z M490.3,674.2c0.2,4.5,0.1,9,0.1,13.9c-5.8-5.6-11.4-11.1-17-16.5c-0.3,0.1-0.6,0.3-0.9,0.4
		c0,5.9,0,11.7,0,17.6c0,1.9,0.2,3.9-2.4,4.3c2.6,0,5.1,0,7.2,0c-0.6-0.7-2-1.5-2-2.4c-0.2-4.2-0.1-8.4-0.1-12.8
		c5.6,5.5,11.1,10.8,16.5,16.1c0.3-0.1,0.5-0.2,0.8-0.3c0-0.9,0.1-1.8,0.1-2.7c0.1-5.4,0.1-10.9,0.4-16.3c0.1-1.1,0.9-2.1,1.4-3.1
		c-1.9,0-4.3,0-6.4,0C488.8,672.8,490.3,673.4,490.3,674.2z M522.9,683.6c-0.2,5.2-3.9,9.7-9.2,10.2c-4.8,0.5-9.8,0.1-14.2,0.1
		c0.6-1,1.5-1.7,1.5-2.5c0.2-5.6,0.2-11.2,0.1-16.8c0-0.9-1.3-1.7-2.2-2.7c5.3,0.3,10.9,0.1,16.4,1
		C520.6,673.8,523.1,678,522.9,683.6z M505.2,674c0,5.4-0.1,10.7,0.1,15.9c0,0.8,0.7,2.1,1.4,2.4c4.1,2.2,10.5-0.5,11.6-5
		C520.9,676.9,513.1,672.3,505.2,674z M548,693.1c0.5,0.2,0.9,0.3,1.2,0.3h0v0.5c-1.3,0-2.6-0.1-3.9-0.1c-1.6-0.1-3.2-1.5-4.5-2.6
		c-1.2-1-2.2-2.5-3-3.9c-1.1-2-2.7-2.7-5-2.1c0,1.6,0,3.2,0,4.8c0,2,0.1,3.8,2.8,3.7h-8.2c0.5-1,1.4-2,1.5-3.1
		c0.2-5.3,0.2-10.5,0-15.8c0-1-1.4-1.9-1.8-2.4c3.3,0,7.3-0.3,11.3,0.1c4.5,0.5,6,4.5,3.4,8.2c-0.8,1.1-1.8,2-2.9,3.2
		c2.3,2.5,4.6,5.1,6.9,7.7C546.4,692.2,547.2,692.8,548,693.1z M538.5,681.9c1.3-2.1,1.3-4.3,0-6.3c-1.4-2.1-3.5-2.2-5.7-1.7v9.5
		C535,683.5,537.1,684.2,538.5,681.9z M557.1,693.1c-0.8-0.3-1.5-2-1.5-3c-0.2-4.9-0.2-9.9,0-14.8c0-1.1,0.9-2.2,1.3-3.2h-7
		c0.5,0.8,1.5,1.8,1.6,2.7c0.1,5.3,0.1,10.7-0.1,16.1c0,1.3-0.5,2.1-1.2,2.4v0.6c2.6,0,5.2,0,7.7,0v-0.6h0
		C557.6,693.3,557.3,693.2,557.1,693.1z M581.9,693.8H576c-0.8-2.1-1.5-4.2-2.4-6.2c-0.2-0.4-0.8-0.8-1.3-0.9c-0.8-0.1-1.7,0-2.6,0
		c-4.5,0-4.7,0-5.8,4.3c-0.2,0.8,0.4,1.9,0.6,3c-1.9,0-3.8,0-5.8,0v-0.5c1-0.1,2-0.7,2.5-2c2.1-5,4.3-9.9,6.5-14.9
		c0.7-1.6,1.5-3.3,2.5-5.4c0.8,1.6,1.4,2.7,1.9,3.8c2.2,5.1,4.4,10.3,6.8,15.3C579.7,691.6,581.1,692.8,581.9,693.8z M572.6,684.9
		c-1-2.5-1.9-4.8-3.1-7.7c-1.2,2.9-2.1,5.3-3.1,7.7H572.6z"/>
	<path id="jesse-word" class="st18" d="M302.3,79.2c-0.3,0.1-0.5,0.2-0.8,0.2c-3,0.4-3.5,0.9-3.5,3.9c0,10.7,0,21.4,0,32.1
		c0,9-5.2,14.5-12.7,18.4c-0.4,0.2-0.8,0.2-1.2,0.2c0-0.1-0.1-0.3-0.2-0.5c0.2-0.2,0.3-0.4,0.5-0.6c4.8-2.9,6.5-7.5,6.6-12.7
		c0.2-12.6,0.1-25.2,0.1-37.8c0-1.9-1-2.8-3.1-3c-0.6-0.1-1.2-0.1-2-0.2C287.2,78.2,301.5,78.3,302.3,79.2z M330.7,112.6
		c-0.7,2.8-1.6,3.7-4.6,3.9c-1.7,0.1-3.4,0.1-5.1,0c-2.8-0.2-4-1.5-4-4.3c0-3.4,0-6.9,0-10.3c0-0.9,0-1.8,0-2.5c2.8,0,5.3-0.1,7.8,0
		c2.7,0.2,3.2,0.9,3.4,3.6c0,0.3,0.2,0.5,0.2,0.8c0.2,0,0.4,0,0.5,0c0.3-3.1,0.5-6.1,0.8-9.4c-4.2,3-8.6,1.2-12.7,1.8
		c0-5.1,0-9.9,0-14.9c3.1,0.2,6.1,0.2,9,0.5c1.7,0.2,2.5,1.3,2.7,3c0,0.5,0.2,1,0.2,1.5c0.2,0,0.4,0,0.6,0c0.3-2.8,0.5-5.6,0.8-8.2
		c-8.5,0.8-16.9,0.1-25.3,0.7c0.5,0.5,1,0.7,1.5,0.7c2.5,0.2,3.4,1.1,3.4,3.6c0,10.4,0,20.7-0.1,31.1c0,3.7-0.7,4.4-3.7,4.5
		c-0.1,0-0.3,0.2-0.4,0.3c0,0.1,0,0.3,0,0.4c0.7,0,1.3,0.1,2,0.1c4.2,0,8.4,0,12.6,0c2.8,0,5.6,0.2,8.3,0.1c0.7,0,1.9-0.5,1.9-1
		c0.4-2.3,0.6-4.7,0.9-7.1c0-0.1-0.2-0.3-0.6-0.8C331,111.6,330.8,112.1,330.7,112.6z M350.5,94.2c-1.7-1.3-3.5-2.4-5-3.9
		c-1.9-1.8-2.2-4.9-0.9-7.1c1.4-2.3,4.7-3.5,8-2.8c2.7,0.5,4.7,2.8,5,5.5c0.1,0.5,0.2,0.9,0.3,1.4c0.2,0,0.3,0,0.5,0
		c0.1-0.5,0.2-1,0.3-1.5c0.1-2,0.1-3.9,0.3-5.9c0.1-1.1-0.3-1.7-1.4-1.8c-3.1-0.2-6.4-0.8-9.4-0.3c-10.7,1.7-11.8,12.2-7.6,17.8
		c1.7,2.2,4.2,3.9,6.4,5.8c1.7,1.4,3.7,2.5,5.2,4.1c3.2,3.3,2.4,9-1.4,11.2c-4.8,2.7-11.1-0.3-11.9-5.7c-0.1-0.8-0.3-1.7-0.4-2.5
		c-0.1,0-0.3,0-0.4-0.1c-0.2,0.3-0.5,0.7-0.5,1c-0.1,2.6-0.3,5.1-0.3,7.7c0,0.7,0.7,1.7,1.3,1.9c1.8,0.7,3.8,1.3,5.7,1.5
		c3.7,0.5,7.3-0.1,10.3-2.4c6-4.4,7.1-13,2.3-18.6C355.2,97.5,352.7,96,350.5,94.2z M379.3,94.2c-1.7-1.3-3.5-2.4-5-3.9
		c-2-2-2.2-5.2-0.6-7.3c1.6-2.3,4.9-3.3,8.1-2.5c2.5,0.7,4.3,2.9,4.7,5.7c0,0.4,0.2,0.8,0.3,1.2c0.2,0,0.3,0,0.5,0
		c0.1-0.5,0.2-1,0.2-1.5c0.1-2,0.1-3.9,0.3-5.9c0.1-1.1-0.4-1.6-1.4-1.8c-3.2-0.6-6.3-1-9.6-0.4c-7,1.2-11,7.4-9.1,14.3
		c1.1,4,4,6.5,7.2,8.7c2,1.4,4.1,2.7,5.9,4.4c2.4,2.2,2.9,5.7,1.6,8.6c-1.1,2.5-3.7,4-6.6,3.9c-3.8-0.2-6.6-2-7.6-5.1
		c-0.4-1.3-0.5-2.6-0.9-4.4c-0.4,0.6-0.7,0.8-0.8,1c-0.2,2.8-0.3,5.5-0.3,8.3c0,0.5,0.5,1.2,0.9,1.4c4.3,1.9,8.6,2.4,13.3,0.9
		c9-3,10.8-14.5,5.1-20.6C383.7,97.3,381.4,95.8,379.3,94.2z M418.3,110.8c-0.2,0.8-0.3,1.2-0.4,1.7c-0.7,2.8-1.6,3.7-4.6,3.9
		c-1.7,0.1-3.4,0.1-5.1,0c-2.8-0.2-4-1.5-4-4.3c0-3.4,0-6.9,0-10.3c0-0.9,0-1.8,0-2.5c2.8,0,5.3-0.1,7.8,0c2.7,0.2,3.2,0.9,3.4,3.6
		c0,0.3,0.2,0.5,0.2,0.8c0.2,0,0.4,0,0.5,0c0.3-3.1,0.5-6.1,0.8-9.4c-4.2,3-8.5,1.2-12.7,1.8c0-5.1,0-9.9,0-14.9
		c3.1,0.2,6.1,0.2,9,0.5c1.7,0.2,2.5,1.3,2.7,3c0,0.5,0.2,1,0.2,1.5c0.2,0,0.4,0,0.6,0c0.3-2.8,0.5-5.6,0.8-8.2
		c-8.5,0.7-16.9,0.1-25.3,0.6c0.5,0.5,1,0.7,1.5,0.7c2.5,0.2,3.4,1.1,3.4,3.6c0,10.4,0,20.7-0.1,31.1c0,3.7-0.7,4.4-3.7,4.5
		c-0.1,0-0.3,0.2-0.4,0.3c0,0.1,0,0.3,0,0.4c0.7,0,1.3,0.1,2,0.1c4.2,0,8.4,0,12.6,0c2.8,0,5.6,0.2,8.4,0.1c0.7,0,1.8-0.5,1.9-1
		c0.4-2.3,0.6-4.7,0.8-7.1C418.9,111.5,418.7,111.3,418.3,110.8z"/>
	<path id="james-word" class="st18" d="M448.8,83.3c0,10.2-0.1,20.5,0.1,30.8c0.2,9.3-4.4,15.4-12.2,19.6c-0.5,0.3-1.2,0.4-1.8,0.6
		c-0.1-0.2-0.2-0.3-0.2-0.5c0.2-0.2,0.3-0.4,0.5-0.6c5-3,6.6-7.9,6.7-13.4c0.1-12.2,0.1-24.4,0.1-36.6c0-2.5-0.9-3.4-3.4-3.6
		c-0.4,0-0.9-0.1-1.3-0.1c-0.1,0-0.1-0.2-0.4-0.5c0.6-0.2,1.1-0.4,1.6-0.4c4.4,0,8.8,0,13.2,0c0.5,0,1,0.2,1.5,0.3
		c0,0.1,0,0.3,0,0.4c-0.3,0.1-0.6,0.2-0.9,0.2C449.3,79.9,448.8,80.5,448.8,83.3z M489.7,118.6c0,0.3,0,0.7,0,1.1
		c-3.4,0-6.9-0.1-10.3-0.1c-0.3,0-0.5-0.1-1.3-0.3c2.2-0.9,1.4-2.2,1-3.4c-1-2.9-2.1-5.7-3-8.6c-0.3-0.9-0.7-1.3-1.7-1.3
		c-3.4,0.1-6.9,0-10.3,0.1c-0.5,0-1.2,0.5-1.4,0.9c-1,2.5-1.9,5-2.8,7.5c-1.1,3.4-0.7,4,3.1,4.4c-0.4,0.4-0.7,0.9-0.9,0.9
		c-3.9,0-7.8,0-11.6,0c-0.3,0-0.6-0.3-1.1-0.6c0.6-0.2,0.8-0.4,1.1-0.4c2.8,0,4.2-1.6,5.1-4c1.9-5.1,3.9-10.1,5.9-15.2
		c2.6-6.6,5.1-13.3,7.6-19.9c0-0.1,0.1-0.2,0.2-0.3c0.5-0.7,1-1.4,1.6-2.1c0.5,0.7,1.1,1.3,1.4,2c1.8,4.6,3.5,9.2,5.3,13.8
		c2.6,6.7,5.2,13.5,7.8,20.2c0.6,1.4,1.5,2.8,2.4,4.1C488.3,118,489,118.5,489.7,118.6z M474.5,103c-1.7-4.9-3.3-9.7-5.1-14.9
		c-1.9,5.3-3.5,10-5.3,14.9H474.5z M535.3,114.6c-1-7.2-2-14.5-3-21.7c-0.6-4.7-1.3-9.4-2-14.1c-0.1-0.6-0.6-1.1-0.9-1.6
		c-0.5,0.4-1,0.7-1.3,1.2c-0.3,0.4-0.5,1-0.7,1.5c-4.3,9.7-8.6,19.5-13,29.5c-0.4-0.9-0.8-1.6-1.1-2.3c-4.2-9.4-8.4-18.9-12.6-28.3
		c-0.3-0.7-1-1.1-1.6-1.6c-0.3,0.5-0.8,1.1-0.9,1.6c-1.1,8-2.2,16.1-3.4,24.1c-0.6,4.4-1.2,8.7-2,13.1c-0.2,0.9-0.9,2-1.6,2.3
		c-0.3,0.1-0.5,0.2-0.8,0.2c0,0.3,0,0.7,0,1.1c3.2,0,6.5,0.1,9.7,0.1c0.4,0,0.7-0.3,1.1-0.5c-0.5-0.5-1-0.6-1.5-0.7
		c-2.6-0.5-2.7-0.6-2.6-3.1c0-0.5,0.1-1,0.1-1.5c0.5-4.5,1-9,1.5-13.5c0.3-2.5,0.6-5,0.9-7.9c0.5,1,0.7,1.5,1,2.1
		c3.4,7.5,6.8,15,10.2,22.5c0.4,0.9,1,1.7,1.6,2.5c0.2,0,0.4,0,0.6,0c4.4-9,8.1-18.3,12.5-27.6c0.2,0.5,0.2,0.7,0.3,0.8
		c0.8,6.4,1.6,12.8,2.2,19.1c0.2,2.2,1.4,4.5-0.3,6.7c2.3,1,12.3,1,13.3,0c-0.7-0.1-1.3-0.2-2-0.3
		C536.4,118.1,535.7,117.4,535.3,114.6z M567.3,113.5c-0.4,1.5-1.2,2.7-2.8,2.8c-2.6,0.2-5.2,0.2-7.8,0c-1.6-0.1-2.7-1.4-2.7-3
		c-0.1-4.7,0-9.3,0-14.2c3,0.1,5.8,0.2,8.6,0.5c1.6,0.1,2.3,1.2,2.5,2.8c0,0.5,0.1,1.1,0.2,1.6c0.2,0,0.4,0,0.7,0
		c0.3-3.1,0.5-6.1,0.8-9.3c-4.2,2.9-8.5,1.1-12.6,1.8c0-5.1,0-9.9,0-14.9c3,0.2,5.9,0.2,8.8,0.5c1.8,0.2,2.7,1.1,2.9,3
		c0.1,0.5,0.2,1.1,0.3,1.6c0.2,0,0.4,0,0.7,0c0.3-2.8,0.5-5.6,0.8-8.2c-8.5,0.6-16.8,0.1-25.2,0.2c-0.1,0.2-0.2,0.4-0.2,0.6
		c0.4,0.1,0.9,0.4,1.3,0.4c3,0.3,3.7,1,3.7,4c0,7.3,0.1,14.6,0,21.9c0,3.6-0.2,7.2-0.3,10.8c-0.1,1.5-1,2.2-2.4,2.4
		c-0.5,0.1-1,0.2-1.5,0.4c0,0.1,0,0.3,0.1,0.4c0.6,0,1.1,0.1,1.7,0.1c1.4,0,2.7-0.1,4.1-0.1c5.6,0.1,11.2,0.2,16.9,0.3
		c0.7,0,2-0.4,2.1-0.8c0.4-2.5,0.6-5.1,0.8-7.7c0,0-0.2,0-0.5-0.1C567.7,112,567.5,112.7,567.3,113.5z M593.8,99.5
		c-2-2.2-4.6-3.8-7-5.6c-1.5-1.2-3.2-2.3-4.6-3.7c-1.8-1.8-2-4.9-0.7-7c1.5-2.3,4.7-3.4,8-2.7c2.6,0.5,4.6,2.8,5,5.6
		c0.1,0.4,0.2,0.9,0.2,1.3c0.2,0,0.4,0,0.6,0c0.1-0.4,0.2-0.9,0.2-1.3c0.1-2,0.1-4,0.3-6c0.1-1.2-0.5-1.7-1.4-1.7
		c-3.1-0.2-6.2-0.8-9.2-0.3c-10.8,1.7-12,12.2-7.5,18c1.6,2,3.8,3.6,5.8,5.2c1.8,1.5,4,2.7,5.7,4.4c3.2,3.3,2.5,9-1.2,11.2
		c-4.7,2.8-11.1-0.2-12-5.6c-0.1-0.9-0.3-1.7-0.5-3c-0.5,0.7-0.8,1-0.8,1.2c-0.2,2.8-0.3,5.5-0.3,8.3c0,0.5,0.6,1.2,1.1,1.4
		c4.3,1.8,8.5,2.3,13.1,0.8C597.4,116.9,599.3,105.6,593.8,99.5z"/>
	<path id="method-word" class="st19" d="M378.5,159c-0.1,0.2-0.2,0.3-0.3,0.5c-2.3,0-4.6,0-6.6,0c-0.5-4.8-1-9.5-1.5-14.1
		c-0.1,0-0.2-0.1-0.3-0.1c-2.2,4.8-4.4,9.7-6.6,14.5c-0.2,0-0.4,0.1-0.6,0.1c-2.2-4.7-4.4-9.4-6.7-14.5c-0.5,4.3-1,8.2-1.4,12.1
		c-0.1,0.9,0.3,1.4,1.2,1.6c0.3,0,0.6,0.2,0.9,0.5c-2.2,0-4.4,0-6.5,0c3.3-0.9,2.2-3.8,2.6-5.8c1-5.2,1.6-10.5,2.3-15.8
		c0.1-0.4,0.2-0.8,0.3-1.2c0.2,0,0.4,0,0.6-0.1c2.6,5.7,5.1,11.4,7.8,17.3c2.7-5.9,5.2-11.6,7.8-17.3c0.2,0,0.5,0,0.7,0
		c0.2,0.9,0.4,1.8,0.5,2.7c0.8,5.4,1.5,10.9,2.2,16.3C375.2,157.8,375.8,159.3,378.5,159z M401.1,155.9c-0.8,2.4-4.9,3.5-6.7,1.7
		c-0.3-0.3-0.6-0.8-0.6-1.3c-0.1-2.5,0-5.1,0-7.8c2.4,0.6,5.6-1.4,6.5,2.6c0.1-1.6,0.2-3.3,0.3-4.5c-2.3,0.1-4.5,0.3-6.8,0.4
		c0-2.8,0-5.3,0-8c2.4,0.7,5.6-1.4,6.8,2.6c0.1-1.5,0.3-3,0.4-4.2c-4.6,0-9.1,0-13.6,0c0,0.1,0,0.3,0,0.4c0.3,0.1,0.6,0.2,0.9,0.2
		c1.2,0,1.8,0.7,1.8,1.9c0,5.6,0,11.1,0,16.7c0,1.4-0.3,2.8-2.4,2.5c0,0.2,0.1,0.4,0.1,0.5c0.4,0.1,0.9,0.3,1.3,0.3
		c2.1,0,4.2-0.1,6.4-0.1c1.6,0,3.2,0.2,4.7,0.2c0.4,0,1.1-0.3,1.1-0.6c0.2-1.3,0.3-2.7,0.5-4C401.3,155.5,401.2,155.7,401.1,155.9z
		 M411.5,141.3c1-0.8,1.7-1.7,2.5-1.9c1.7-0.3,3.5-0.3,5.3-0.4c0,5.5,0,10.8,0,16.2c0,1.8,0.5,3.8-2.2,4.2c3,0,5.9,0,8.9,0
		c-2.6-0.9-2.8-0.9-2.9-3.2c-0.1-5.7,0-11.3,0-17.3c2.6,0.7,5.8-1.1,7.3,2.6c0-1.5,0-3,0-4.4c-6,0-12,0-18.2,0
		C411.9,138.6,411.7,140,411.5,141.3z M460.9,156.5c0-5.5,0-11,0-16.5c0-1.1,0.3-2,1.6-2c0.2,0,0.4-0.2,0.6-0.3c0-0.1,0-0.2-0.1-0.2
		c-2.8,0-5.7,0-8.5,0c1.1,0.7,2.6,0.5,2.6,2.3c0,2.1,0.1,4.2,0,6.4c0,0.3-0.6,0.9-0.9,0.9c-3.2,0.1-6.4,0-9.8,0c0-1.8-0.1-3.5,0-5.2
		c0.1-1.8-0.8-4,2.2-4.4c-2.8,0-5.7,0-8.9,0c3,1.1,3,1.1,3.1,4.2c0,4.6,0,9.2,0,13.8c0,1.6,0.3,3.6-2.2,4c2.9,0,5.9,0,8.8,0
		c-0.3-0.4-0.6-0.5-0.9-0.5c-1.3,0.1-1.9-0.6-1.9-1.8c-0.1-2.8,0-5.5,0-8.3c3.6,0,7,0,10.6,0c0,2.2,0,4.3,0,6.4
		c0,1.7,0.4,3.7-2.2,4.1c2.9,0,5.9,0,8.9,0c0.1-0.2,0.2-0.3,0.3-0.5C461.9,159.4,460.9,158.6,460.9,156.5z M496.9,148.1
		c0,7-4.8,11.9-11.5,11.9c-6.7,0-11.2-4.6-11.2-11.5c0-6.8,4.7-11.4,11.5-11.4C492.7,137.1,497,141.3,496.9,148.1z M493,148.9
		c-0.2-2.6-0.8-5.1-2.3-7.2c-2.8-3.8-8.4-4-10.9-0.3c-2.7,4-1.8,11.8,1.7,15c3.8,3.6,9.3,2.3,10.8-2.7
		C492.7,152.1,492.8,150.5,493,148.9z M529.6,150.1c-1,6.5-5.2,9.9-11.8,9.9c-3.5,0-6.9-0.3-10.4-0.4c0-0.2,0-0.4,0.1-0.4
		c1.9,0,2.1-1.3,2.1-2.7c0-5.5,0-11,0-16.5c0-1.9-1.5-1.8-2.7-2.1c0-0.2,0.1-0.4,0.1-0.6c4.9,0.2,9.8,0,14.6,0.7
		C528.4,138.9,530.4,145,529.6,150.1z M525.8,148.6c-0.1-6.2-4.9-10.4-11.1-9.6c-1,0.1-1.3,0.5-1.3,1.4c0,2.5,0,5,0,7.5c0,0,0,0,0,0
		c0,2.6,0,5.1,0,7.7c0,1.2,0.3,2.2,1.6,2.5c2.8,0.6,5.4,0.5,7.8-1.2C525.6,154.8,525.8,151.8,525.8,148.6z"/>
	<path id="arrows" class="st19" d="M582,150c-13.6,0-27.9,0-42.3,0c0-0.7,0-1.5,0-2.5C554,148.4,568.4,149.2,582,150z M300.9,150.1
		c13.3,0,26.7,0,40,0c0-0.8,0-1.6,0-2.5c-13.5,0.8-26.7,1.6-40,2.3C300.9,150,300.9,150.1,300.9,150.1z"/>
</g>
</svg>
