<?xml version="1.0" encoding="utf-8"?>
<!-- Generator: Adobe Illustrator 24.3.0, SVG Export Plug-In . SVG Version: 6.00 Build 0)  -->
<svg version="1.1" id="Electron.plus.machine.svg" xmlns="http://www.w3.org/2000/svg" xmlns:xlink="http://www.w3.org/1999/xlink"
	 x="0px" y="0px" viewBox="0 0 864 864" style="enable-background:new 0 0 864 864;" xml:space="preserve">
<style type="text/css">
	.st0{opacity:0.95;fill:#231F20;}
	.st1{fill:#595959;}
	.st2{fill:#231F20;}
	.st3{opacity:0.9;fill:#231F20;}
	.st4{fill:#E6E7E8;}
	.st5{fill:#C9B22E;}
	.st6{fill:#2B2D2D;}
	.st7{opacity:0.57;fill:#545454;}
	.st8{opacity:0.56;fill:#545454;}
	.st9{opacity:0.5;fill:#545454;}
	.st10{opacity:0.53;fill:#545454;}
	.st11{opacity:0.54;fill:#545454;}
	.st12{opacity:0.4;fill:#545454;}
	.st13{fill:#2443CB;}
	.st14{fill:none;stroke:#000000;stroke-width:4;stroke-miterlimit:10;}
	.st15{fill:#FFFFFF;}
	.st16{fill:#0F0D07;}
	.st17{fill:#F9DC13;}
	.st18{fill:#E0CF3A;}
	.st19{fill:#0A0802;}
	.st20{fill:#0C0901;}
	.st21{fill:#E3D03C;}
	.st22{fill:#E5D140;}
	.st23{display:none;}
	.st24{display:inline;}
	.st25{fill:#FEFEFE;}
	.st26{fill:#050505;}
	.st27{fill:#060606;}
	.st28{fill:#DA0D09;}
	.st29{fill:#DA0A07;}
	.st30{fill:#DB110F;}
	.st31{fill:none;stroke:#8C8E90;stroke-width:5;stroke-miterlimit:10;}
	.st32{fill:#DE251E;}
	.st33{fill:#DE241D;}
	.st34{fill:#DE231D;}
	.st35{fill:#E0302A;}
</style>
<image style="display:none;overflow:visible;" width="960" height="852" xlink:href="electrons_plus_machine-2.png"  transform="matrix(1 0 0 1 -41.2903 74.2581)">
</image>
<path id="side.panel" class="st0" d="M120.1,173.5c24.6,41.5,49.3,83.1,73.9,124.6c-1.8,4.7-3.7,10.9-4.6,18.2
	c-1.4,10.5-0.4,19.4,0.8,25.5c16.3,133.8,32.5,267.6,48.8,401.4c-0.6-1-1.4-2.2-2.2-3.7c0,0-1.6-3.1-2.6-6.5
	c-1.3-4.1-31.3-108.7-72.2-251.8c-0.4-1.3-0.7-2.4-0.9-3.4c0,0-0.8-3.4-1.4-6.8c-11.4-65.8-17.4-113.6-17.4-113.6
	c-10-79.5-9.9-73.8-14.5-114.2C124.5,215.8,122,192.1,120.1,173.5z"/>
<path id="under.top.panel" class="st1" d="M182.1,282.3c3.6,6.1,7.2,12.1,10.8,18.2C384.6,275.4,576.3,250.2,768,225
	c-8.6-3.4-17.1-6.8-25.7-10.2C555.6,237.3,368.8,259.8,182.1,282.3z"/>
<path id="ring.1" d="M201,284.1c0,1.2,0.1,3.4,1.5,5.4c1.3,1.9,3.3,2.9,5.7,3.6c3.1,0.9,8.8,2.2,20.6,0c8.9-1.6,10.2-3.2,10.8-4.1
	c2.2-3.6,0.4-8.4-0.3-9.8C226.7,280.9,213.8,282.5,201,284.1z"/>
<path id="ring.2" d="M715.6,218.3c0,1.9,0,3.8,0,5.7c3.5,1.2,8.5,2.4,14.7,2.6c6.1,0.2,11.2-0.8,14.7-1.8c0.5-0.5,1.1-1.3,1.7-2.3
	c0.5-0.9,0.8-1.7,1-2.3c0-2.4,0-4.8,0-7.3C737,214.7,726.3,216.5,715.6,218.3z"/>
<path id="top.height.panel.red" class="st2" d="M111.5,144c-0.5,2.3-0.8,5.2-0.8,8.5c0.1,4.4,0.9,8.1,1.7,10.8
	c21.8,39.5,43.5,79.1,65.3,118.6c0.9,1.3,2.2,2.5,3.9,3.5c4.6,2.6,9.7,1.3,10.6,1.2c7.2-1.4,248.5-32.1,582.3-74.5
	c1-0.1,3.2-0.4,5.4-1.9c1.4-1,2.3-2.2,2.8-3c0.8-4.1,1.5-8.5,2.1-13.3c0.5-4.5,0.8-8.7,0.9-12.6c-1.3,1.1-2.7,2.2-4,3.3
	C582.8,208,383.9,231.4,185,254.7c-1,0.1-3.3,0.2-5.9-1c-2.7-1.3-4.1-3.4-4.6-4.3C153.5,214.3,132.5,179.1,111.5,144z"/>
<path id="front_panel" class="st3" d="M765,223.9c4,0.4,9.1,1.7,12.4,5.6c0,0,3.4,4.1,3.5,11c0.1,16.4-47.7,330.2-53.4,367.7
	c-0.1,0.9-0.6,3-2.2,5c-1.8,2.2-4.1,3-4.9,3.3c-157.3,44.2-314.5,88.5-471.8,132.7c-0.9,0.2-2.9,0.4-5.2-0.6
	c-3.8-1.7-4.8-5.7-4.9-6.2C221.2,602.2,204,462,186.7,321.8c-0.9-7.6,2.1-14.5,2.1-14.5c1-3.2,2.3-5.9,3.3-7.7
	C383.1,274.3,574.1,249.1,765,223.9z"/>
<path id="front.pane" class="st4" d="M340.1,395.1c4.7,97.8,8.5,169.3,9.3,176.8c0.2,1.7,0.7,4.4,2.7,6.6c2.8,2.9,7,3.3,9.9,3.2
	c94.8-22.1,189.7-44.3,284.5-66.4c1.9-0.5,5.7-1.7,9.3-5c3-2.8,4.4-5.8,5.1-7.5c5.7-55.3,11.4-110.6,17.1-166c-0.2-1-0.7-3.1-2.3-5
	c-2.7-3.2-6.6-3.5-7.4-3.6c-106,17.7-212,35.5-318,53.2c-1.5,0.7-3.8,1.9-6,4.4C341.2,389.3,340.4,393.4,340.1,395.1z"/>
<path id="Top1" class="st0" d="M111.5,144c34,57,58.9,98.4,63,105c0.6,1,2.1,3.3,5,4.8c6,3.2,12.2,0.2,13-0.2
	c290.8-33,582.6-66.5,589.4-69c3.7-1.4,3.9-3.2,3.9-3.2c0.1-1.1-0.6-2.8-4.8-5.2c-88.3-21.8-176.5-43.7-264.8-65.5
	c-1.2-0.5-3-1.1-5.2-1.3c-2.2-0.2-4.1,0-5.4,0.3c-130.8,10.3-261.7,20.6-392.5,31C112.5,141.8,112,142.9,111.5,144z"/>
<polygon id="caution.sticker" class="st5" points="548.4,542 548.3,560.2 644.9,539 646.5,519.5 "/>
<polygon id="Intensity.button.1" class="st6" points="416.6,499.1 417,536.3 457.3,527 457.3,491.4 "/>
<polygon id="Intensity.button.2" class="st6" points="467.2,489.2 467,524.9 504.8,517 505.4,480.9 "/>
<polygon id="Pulserate.button.1" class="st6" points="532,475.4 531.2,511 566.8,502.8 568.5,467.7 "/>
<polygon id="Pulserate.button.2" class="st6" points="614.6,457.9 578.3,465.3 576.8,499.4 612,493.2 "/>
<polygon id="intensity1.shadow" points="453.1,492.1 453.9,524.7 417.6,532.6 417.7,536.1 457.3,527 457.3,491.4 "/>
<polygon id="Intensity2.shadow" points="502.8,481.5 502.6,515.6 467,523.1 467,524.9 504.8,517 505.4,480.9 "/>
<polygon id="pulserate1.shadow" points="566.7,468.2 565.6,502 531.2,509.6 531.2,511 566.8,502.8 568.5,467.7 "/>
<polygon id="pulserate2.shadow" points="613.6,458.2 611.1,491.8 576.8,498.5 576.8,499.4 612,493.2 614.6,457.9 "/>
<polygon id="Intensity.1b" class="st6" points="423.2,516.2 423.5,531.8 453.9,524.7 453.8,509.4 "/>
<polygon id="Intensity.2b" class="st6" points="503,497.8 473,505.4 473.2,521.5 502.7,515.1 "/>
<polygon id="Pulse.1b" class="st6" points="566.5,485.5 537.5,491.8 537.6,507.3 565.7,501.3 "/>
<polygon id="Pulse.2b" class="st6" points="612.8,476.6 585,481.9 584.6,496.2 611.5,491.8 "/>
<path id="Intensity.1c" class="st7" d="M417.6,511.4l5.6,4.8c10.2-2.3,20.4-4.6,30.6-6.9c-0.1-2.2-0.2-4.3-0.4-6.5L417.6,511.4z"/>
<path id="Intensity.1d" class="st8" d="M418.7,532.7c1.6-0.3,3.2-0.6,4.8-0.8c-0.1-5.2-0.2-10.4-0.3-15.6c-1.9-1.6-3.7-3.2-5.6-4.8
	c0,7,0,14.1,0,21.1L418.7,532.7z"/>
<polygon id="Intensity.2c" class="st9" points="502.8,492.1 502.9,497.9 473,505.4 468.5,501.4 "/>
<polygon id="Intensity.2d" class="st7" points="473.2,521.5 467.8,523.2 467.7,501.5 468.6,501.4 473,505.4 "/>
<polygon id="Pulse.1d" class="st10" points="531.8,509.2 537.6,507.3 537.6,491.8 531.8,486.4 "/>
<polygon id="Pulse.1c" class="st11" points="566.7,480.3 566.5,485.5 537.5,491.8 531.7,486.5 "/>
<polygon id="pulse.2c" class="st9" points="612.9,471 612.8,476.6 585.1,482 578.4,476.8 "/>
<polygon id="pulse.2d" class="st12" points="584.7,496.2 576.9,499.2 577.8,476.9 578.5,476.8 585.1,481.9 "/>
<polygon id="minus.sign" points="433.5,489.4 433.7,490.5 438.6,489.5 438.5,488.2 "/>
<polygon id="minus.sign2" points="547.4,464.4 547.5,465.5 552.4,464.5 552.3,463.2 "/>
<polygon id="plus.sign" points="486.7,476.2 486.8,473.3 488.7,473.1 488.6,475.4 490.8,475 490.8,476.6 488.6,477.2 488.6,479.9 
	486.7,480.3 486.7,477.7 484.2,478.3 484.2,476.6 "/>
<polygon id="plus.sign2" points="597.4,452.1 597.5,449.2 599.4,449 599.3,451.3 601.6,451 601.5,452.5 599.4,453.1 599.4,455.8 
	597.4,456.2 597.4,453.6 594.9,454.2 594.9,452.5 "/>
<path id="lcd.panel" d="M394.9,406.3c0.6,26.6,1.2,53.1,1.8,79.7c76.1-15.2,152.2-30.5,228.4-45.7c2-25.8,4-51.5,6-77.3
	C552.4,377.5,473.7,391.9,394.9,406.3z"/>
<polygon id="lcd.panel2.blue" class="st13" points="403.9,417 403.9,470.7 620.4,427.9 623.7,377 "/>
<polygon id="lcd.stroke" class="st14" points="396.9,407.9 398.7,483.9 623.3,438.7 629.1,365.3 "/>
<g id="ELECTRONS_PLUS_1_">
	<path class="st15" d="M429.4,434.2l-8.3,1.4l1-18.4l8.3-1.6l-0.1,2.7l-6.6,1.2l-0.3,5.2l5-0.9l-0.1,2.7l-4.9,0.9l-0.3,5.2l6.6-1.1
		L429.4,434.2z"/>
	<path class="st15" d="M441.2,432.2l-8.4,1.4l1-18.6l1.7-0.3l-0.9,15.9l6.7-1.2L441.2,432.2z"/>
	<path class="st15" d="M453.3,430.1l-8.6,1.5l1.1-18.8l8.6-1.6l-0.2,2.8l-6.9,1.3l-0.3,5.3l5.1-0.9l-0.2,2.8l-5.1,0.9l-0.3,5.3
		l6.9-1.2L453.3,430.1z"/>
	<path class="st15" d="M465.7,425.3l-1.8,0.3l-0.2,2.7l-5.3,0.9l0.2-2.7l-1.7,0.3l0.8-13.6l1.7-0.3l0.2-2.7l5.3-1l-0.2,2.7l1.8-0.3
		l-0.2,2.8l-1.8,0.3l0.2-2.7l-5.2,1l-0.8,13.4l5.2-0.9l0.2-2.7l1.8-0.3L465.7,425.3z"/>
	<path class="st15" d="M474.6,426.4l-1.8,0.3l1-16.4l-3.6,0.7l0.2-2.8l9-1.7l-0.2,2.8l-3.6,0.7L474.6,426.4z"/>
	<path class="st15" d="M490.9,423.6l-1.9,0.3l0.5-8.3l-5.4,1l-0.5,8.3l-1.9,0.3l1.2-19.3l7.3-1.4l-0.2,2.8l1.8-0.3l-0.4,5.6
		l-1.8,0.3l-0.2,2.7l1.8-0.3L490.9,423.6z M489.8,412.8l0.3-5.5l-5.4,1l-0.3,5.5L489.8,412.8z"/>
	<path class="st15" d="M504.2,418.6l-1.9,0.3l-0.2,2.8l-5.6,1l0.2-2.8l-1.8,0.3l0.9-14l1.9-0.3l0.2-2.8l5.6-1.1l-0.2,2.8l1.9-0.3
		L504.2,418.6z M502.3,418.8l0.9-13.9l-5.5,1l-0.9,13.9L502.3,418.8z"/>
	<path class="st15" d="M517.4,419.1l-2,0.3l0.4-5.6l-1.9,0.3l0.2-2.8l-1.9,0.3l0.2-2.8l-1.8,0.3l-0.8,11.3l-1.9,0.3l1.3-19.8
		l1.9-0.4l-0.4,5.6l1.9-0.3l-0.2,2.8l1.9-0.3l-0.2,2.8l1.9-0.3l0.8-11.3l2-0.4L517.4,419.1z"/>
	<path class="st15" d="M531.2,413.9l-1.9,0.3l-0.2,2.9l-5.8,1l0.2-2.8l-1.9,0.3l0.2-2.9l2-0.3l-0.2,2.8l5.8-1l0.4-5.6l-5.8,1
		l0.2-2.8l-1.9,0.3l0.4-5.8l1.9-0.4l0.2-2.9l5.9-1.1l-0.2,2.9l2-0.4l-0.2,2.9l-2,0.4l0.2-2.9l-5.8,1.1l-0.4,5.6l5.8-1l-0.2,2.9
		l1.9-0.3L531.2,413.9z"/>
	<path class="st15" d="M560,400.2l-2,0.4l-0.2,2.9l-6.1,1.1l-0.6,8.7l-2.1,0.4l1.5-20.4l8.1-1.5l-0.2,2.9l2-0.4L560,400.2z
		 M557.9,400.5l0.4-5.8l-6,1.1l-0.4,5.8L557.9,400.5z"/>
	<path class="st15" d="M573.6,409.4l-10.3,1.8l1.6-20.6l2.1-0.4l-1.3,17.7l8.3-1.4L573.6,409.4z"/>
	<path class="st15" d="M588.7,403.9l-2.1,0.4l-0.2,3l-6.4,1.1l0.2-3l-2.1,0.4l1.4-17.9l2.2-0.4l-1.4,17.9l6.3-1.1l1.4-18l2.2-0.4
		L588.7,403.9z"/>
	<path class="st15" d="M603.9,401.2l-2.2,0.4l-0.2,3l-6.5,1.1l0.2-3l-2.1,0.4l0.2-3.1l2.2-0.4l-0.2,3l6.4-1.1l0.5-6l-6.5,1.2l0.2-3
		l-2.1,0.4l0.5-6.1l2.1-0.4l0.2-3l6.5-1.2l-0.2,3l2.2-0.4l-0.3,3.1l-2.2,0.4l0.2-3l-6.4,1.2l-0.5,6l6.5-1.2l-0.2,3l2.2-0.4
		L603.9,401.2z"/>
</g>
<g id="GUIDED_PEMF">
	<path class="st15" d="M448.5,450.3l-2.1,0.4l-0.2,2.5l-6.3,1.2l0.2-2.5l-2.1,0.4l0.8-12.5l2.1-0.4l0.2-2.5l6.3-1.1l-0.2,2.5
		l2.1-0.4l-0.2,2.5l-2.1,0.4l0.2-2.5l-6.2,1.1l-0.8,12.4l6.2-1.2l0.3-4.9l-4.1,0.8l0.2-2.5l6.3-1.2L448.5,450.3z"/>
	<path class="st15" d="M462.9,447.5l-2,0.4l-0.1,2.5l-6.1,1.2l0.1-2.5l-2,0.4l0.9-14.9l2.1-0.4l-0.9,14.8l6-1.2l0.9-14.7l2.1-0.4
		L462.9,447.5z"/>
	<path class="st15" d="M476.9,447.2l-10,1.9l0.2-2.5l4-0.8l0.7-12.1l-4,0.7l0.2-2.5l10-1.8l-0.2,2.5l-4,0.7l-0.7,12.1l4-0.8
		L476.9,447.2z"/>
	<path class="st15" d="M490.9,442.1l-1.9,0.4l-0.1,2.4l-7.8,1.5l1-17l7.8-1.4l-0.1,2.4l1.9-0.4L490.9,442.1z M488.9,442.4l0.7-11.9
		l-5.8,1.1l-0.7,12L488.9,442.4z"/>
	<path class="st15" d="M504.2,441.8l-9.6,1.9l1-16.8l9.6-1.7l-0.1,2.4l-7.6,1.4l-0.3,4.7l5.7-1.1l-0.1,2.4l-5.7,1.1l-0.3,4.7
		l7.6-1.5L504.2,441.8z"/>
	<path class="st15" d="M517.6,436.9l-1.9,0.4l-0.1,2.4l-7.5,1.5l1-16.6l7.5-1.4l-0.1,2.4l1.9-0.3L517.6,436.9z M515.7,437.2
		l0.7-11.7l-5.6,1l-0.7,11.7L515.7,437.2z"/>
	<path class="st15" d="M543.7,425l-1.8,0.3l-0.1,2.3l-5.4,1l-0.4,6.9l-1.8,0.4l1-16.3l7.2-1.3l-0.1,2.3l1.8-0.3L543.7,425z
		 M541.9,425.3l0.3-4.6l-5.3,1l-0.3,4.6L541.9,425.3z"/>
	<path class="st15" d="M555.6,431.8l-8.8,1.7l1-16.1l8.8-1.6l-0.1,2.3l-7,1.3l-0.3,4.5l5.3-1l-0.1,2.3l-5.3,1l-0.3,4.5l7-1.4
		L555.6,431.8z"/>
	<path class="st15" d="M567.8,429.4l-1.8,0.3l0.7-11.3l-1.7,0.3l-0.1,2.3l-1.8,0.3l0.1-2.3l-1.7,0.3l-0.7,11.3l-1.8,0.3l1-15.9
		l1.8-0.3l-0.1,2.3l1.7-0.3l-0.1,2.3l1.7-0.3l0.1-2.3l1.7-0.3l0.1-2.3l1.8-0.3L567.8,429.4z"/>
	<path class="st15" d="M578.5,420.7l-5.1,1l-0.4,6.7l-1.7,0.3l1-15.8l8.5-1.5l-0.1,2.3l-6.7,1.2l-0.3,4.4l5.1-1L578.5,420.7z"/>
</g>
<g id="INTENSITY">
	<path d="M420.3,546.1l0,8.1l-1.4,0.3v-8.1L420.3,546.1z"/>
	<path d="M422.6,553.7l0-8.1l1.5-0.4l3.4,3.3c0.8,0.8,1.4,1.5,1.9,2.2l0,0c-0.1-1.1-0.2-2.1-0.2-3.3l0-3.4l1.3-0.3l0,8.2l-1.4,0.3
		l-3.4-3.4c-0.7-0.7-1.4-1.5-2-2.3l0,0c0.1,1,0.1,2,0.1,3.3l0,3.5L422.6,553.7z"/>
	<path d="M435.1,543.5l-3.3,0.8l0-0.9l8-1.9l0,0.9l-3.3,0.8l0.1,7.3l-1.4,0.3L435.1,543.5z"/>
	<path d="M446.7,544.3l-4.3,1l0,3l4.8-1.1l0,0.9l-6.2,1.4l-0.1-8.3l5.9-1.4l0,0.9l-4.5,1.1l0,2.6l4.3-1L446.7,544.3z"/>
	<path d="M449.1,547.7l-0.1-8.3l1.6-0.4l3.7,3.4c0.8,0.8,1.5,1.5,2.1,2.3l0,0c-0.2-1.1-0.2-2.1-0.2-3.4l-0.1-3.5l1.4-0.3l0.1,8.4
		l-1.5,0.3l-3.6-3.4c-0.8-0.8-1.5-1.5-2.1-2.3l0,0c0.1,1,0.1,2,0.2,3.4l0.1,3.6L449.1,547.7z"/>
	<path d="M459.9,543.9c0.7,0.2,1.6,0.2,2.6-0.1c1.5-0.3,2.4-1.1,2.4-2c0-0.8-0.6-1.1-2.2-1.2c-1.9-0.1-3-0.5-3.1-1.7
		c0-1.3,1.4-2.6,3.7-3.1c1.2-0.3,2-0.3,2.5-0.2l-0.4,1c-0.4-0.1-1.1-0.1-2.2,0.1c-1.6,0.4-2.1,1.2-2.1,1.8c0,0.8,0.7,1,2.3,1.1
		c2,0.1,3,0.6,3,1.8c0,1.3-1.3,2.7-4,3.4c-1.1,0.3-2.3,0.3-2.9,0.1L459.9,543.9z"/>
	<path d="M469.9,534.4l0.2,8.5l-1.5,0.3l-0.2-8.5L469.9,534.4z"/>
	<path d="M474.8,534.2l-3.6,0.8l0-0.9l8.7-2l0,0.9l-3.6,0.8l0.2,7.6l-1.5,0.3L474.8,534.2z"/>
	<path d="M484.6,539.6l-0.1-3.7l-3.9-4.1l1.8-0.4l1.7,2c0.5,0.5,0.9,1,1.2,1.5l0,0c0.3-0.6,0.7-1.3,1.1-2.1l1.7-2.8l1.8-0.4
		l-3.9,5.9l0.1,3.7L484.6,539.6z"/>
</g>
<g id="PULSE_RATE">
	<path d="M529.9,520.8c0.6-0.2,1.5-0.5,2.6-0.7c1.3-0.3,2.3-0.3,2.9,0.1c0.6,0.3,0.9,0.8,0.9,1.6c0,0.8-0.3,1.5-0.9,2
		c-0.7,0.8-1.9,1.3-3.2,1.6c-0.4,0.1-0.8,0.2-1.1,0.2l-0.1,3.4l-1.3,0.3L529.9,520.8z M531.1,524.6c0.3,0,0.7-0.1,1.1-0.1
		c1.6-0.4,2.6-1.2,2.7-2.4c0-1.1-0.9-1.5-2.4-1.1c-0.6,0.1-1,0.3-1.3,0.4L531.1,524.6z"/>
	<path d="M539.5,518.5l-0.2,5.1c-0.1,1.9,0.9,2.5,2.3,2.2c1.5-0.3,2.6-1.4,2.7-3.3l0.2-5.1l1.4-0.3l-0.2,5c-0.1,2.6-1.8,4.1-4.1,4.6
		c-2.1,0.5-3.7-0.2-3.6-2.8l0.2-5.1L539.5,518.5z"/>
	<path d="M548.2,516.6l1.4-0.3l-0.3,7.7l4.5-1l0,0.9l-5.9,1.3L548.2,516.6z"/>
	<path d="M555.2,522.3c0.6,0.2,1.5,0.2,2.4,0c1.4-0.3,2.3-1.1,2.3-2c0-0.8-0.5-1.2-2-1.3c-1.7-0.1-2.8-0.6-2.7-1.8
		c0.1-1.4,1.5-2.7,3.6-3.1c1.1-0.2,1.9-0.2,2.4-0.1l-0.4,1c-0.3-0.1-1-0.2-2,0c-1.5,0.3-2.1,1.2-2.1,1.8c0,0.8,0.6,1.1,2.1,1.2
		c1.8,0.2,2.7,0.7,2.6,2c-0.1,1.3-1.3,2.8-3.9,3.3c-1,0.2-2.2,0.2-2.7,0L555.2,522.3z"/>
	<path d="M569.1,516.6l-4.2,0.9l-0.1,3.2l4.7-1l0,0.9l-6.1,1.3l0.4-8.8l5.9-1.3l0,1l-4.5,1l-0.1,2.8l4.2-0.9L569.1,516.6z"/>
	<path d="M575.1,510.7c0.7-0.3,1.8-0.6,2.8-0.8c1.5-0.3,2.5-0.3,3.2,0c0.5,0.3,0.8,0.8,0.8,1.5c-0.1,1.2-1,2.2-2.2,2.7l0,0
		c0.8,0.1,1.3,0.6,1.5,1.4c0.3,1.2,0.5,2,0.7,2.3l-1.5,0.3c-0.2-0.2-0.4-0.9-0.6-2c-0.3-1.1-0.8-1.5-2.1-1.2l-1.4,0.3l-0.2,3.8
		l-1.4,0.3L575.1,510.7z M576.3,514.4l1.5-0.3c1.5-0.3,2.6-1.2,2.6-2.2c0.1-1.2-1-1.4-2.5-1.1c-0.7,0.2-1.2,0.3-1.4,0.4L576.3,514.4
		z"/>
	<path d="M585.6,514.3l-1.3,3.1l-1.5,0.3l4.3-9.8l1.8-0.4l3.3,8.1l-1.6,0.3l-1-2.6L585.6,514.3z M589.3,512.6l-1-2.3
		c-0.2-0.5-0.3-1-0.5-1.5l0,0c-0.2,0.6-0.4,1.2-0.7,1.7l-1.3,2.8L589.3,512.6z"/>
	<path d="M595.2,507.1l-3.5,0.8l0.1-1l8.5-1.9l-0.1,1l-3.5,0.8l-0.5,8l-1.5,0.3L595.2,507.1z"/>
	<path d="M607.3,508.2l-4.5,1l-0.2,3.3l5-1.1l-0.1,1l-6.5,1.4l0.6-9.1l6.3-1.4l-0.1,1l-4.8,1.1l-0.2,2.9l4.5-1L607.3,508.2z"/>
</g>
<g id="caution.sign">
	<path class="st16" d="M571.5,551.8c-1.9,0.4-4,0.9-6.2,1.4c-1.1,0.2-1.8-0.2-1.8-1.1c0-0.5,0.2-1,0.4-1.4c2.1-3.9,3.9-7.3,5.7-10.5
		c0.1-0.2,0.3-0.5,0.4-0.7c0.6-1,1.6-1.1,2.2-0.1c0.5,0.8,0.9,1.6,1.4,2.4c1.3,2.2,2.5,4.3,3.8,6.4c0.1,0.1,0.1,0.2,0.2,0.3
		c0.4,0.9,0,1.8-0.8,2.1c-0.6,0.2-1.3,0.3-2,0.5C573.8,551.3,572.7,551.6,571.5,551.8z M577.3,549.7L577.3,549.7
		c0-0.1,0.1-0.1,0.1-0.2l0,0c0-0.2,0-0.4-0.1-0.7l0,0c0-0.1-0.1-0.1-0.1-0.2l0,0c0-0.1-0.1-0.1-0.1-0.2l0,0c0,0,0-0.1-0.1-0.1l0,0
		c-0.1-0.1-0.1-0.2-0.2-0.3l0,0c0-0.1-0.1-0.1-0.1-0.2l0,0c0,0,0-0.1-0.1-0.1l0,0l0,0c-0.1-0.1-0.1-0.2-0.2-0.3
		c-0.2-0.3-0.3-0.5-0.5-0.8c-0.5-0.8-1-1.7-1.5-2.5c-0.5-0.9-1-1.7-1.5-2.6c-0.4-0.7-0.8-1.4-1.2-2.1c-0.4-0.7-1-0.7-1.5,0
		c-0.1,0.1-0.1,0.2-0.1,0.3c-0.8,1.5-1.6,3-2.5,4.7c-0.5,1-1.1,2-1.6,3.1c-0.6,1.2-1.3,2.3-1.9,3.6c-0.2,0.4-0.4,0.9,0,1.3
		c0,0,0.1,0.1,0.1,0.1l0,0c0.3,0,0.6,0.2,0.9,0.1c4.3-0.9,8-1.7,11.3-2.5C576.8,550.1,577,549.9,577.3,549.7l-0.1,0.1
		C577.3,549.8,577.3,549.8,577.3,549.7z"/>
	<path class="st17" d="M564.3,552.5c-0.4-0.3-0.2-0.8,0-1.3c0.6-1.2,1.3-2.4,1.9-3.6c0.6-1.1,1.1-2.1,1.6-3.1
		c0.9-1.6,1.7-3.2,2.5-4.7c0-0.1,0.1-0.2,0.1-0.3c0.5-0.7,1-0.7,1.5,0c0.4,0.7,0.8,1.4,1.2,2.1c0.5,0.9,1,1.7,1.5,2.6
		c0.5,0.8,1,1.7,1.5,2.5c0.2,0.3,0.3,0.5,0.5,0.8c0.1,0.1,0.1,0.2,0.2,0.3l0,0c0,0,0,0,0,0c0,0,0,0.1,0.1,0.1c0,0,0,0,0,0
		c0,0.1,0.1,0.1,0.1,0.2c0,0,0,0,0,0c0.1,0.1,0.1,0.2,0.2,0.3c0,0,0,0,0,0c0,0,0,0.1,0.1,0.1c0,0,0,0,0,0c0,0.1,0.1,0.1,0.1,0.2
		c0,0,0,0,0,0c0,0.1,0.1,0.1,0.1,0.2c0,0,0,0,0,0c0,0.2,0,0.4,0.1,0.7c0,0,0,0,0,0c0,0.1-0.1,0.1-0.1,0.2c0,0,0,0,0,0
		c0,0-0.1,0.1-0.1,0.1c0,0,0,0,0,0c-0.2,0.1-0.5,0.2-0.7,0.2c-3.3,0.7-6.9,1.5-11.1,2.4c-0.3,0.1-0.7,0.1-1,0.1c0,0,0,0,0,0
		C564.4,552.6,564.3,552.5,564.3,552.5z M571.8,542L571.8,542c0,0-0.1-0.1-0.1-0.2c-0.2-0.2-0.5-0.4-0.7-0.1
		c-0.2,0.2-0.5,0.5-0.5,0.8c0,1.1,0.1,2.2,0.3,3.3c0.1,0.7,0.2,1.4,0.4,2c0,0.1,0.1,0.2,0.2,0.2c0.1-0.1,0.2-0.2,0.2-0.3
		c0.1-0.4,0.2-0.9,0.2-1.3c0-0.1,0.1-0.2,0.1-0.3c0-0.8,0.1-1.6,0.1-2.4c0-0.2,0.1-0.4,0-0.6c0-0.3,0.2-0.7-0.2-0.9l0,0
		C571.9,542.1,571.9,542.1,571.8,542z M571.4,548.6c-0.4,0.1-0.7,0.5-0.7,0.8c0,0.4,0.4,0.7,0.7,0.6c0.4-0.1,0.6-0.4,0.6-0.8
		C572.1,548.8,571.8,548.5,571.4,548.6z"/>
	<path class="st18" d="M564.4,552.6c0.3,0,0.7-0.1,1-0.1c4.2-0.9,7.8-1.7,11.1-2.4c0.2-0.1,0.5-0.2,0.7-0.2
		c-0.2,0.1-0.4,0.3-0.6,0.4c-3.3,0.7-7.1,1.6-11.3,2.5C565,552.8,564.7,552.6,564.4,552.6z"/>
	<path class="st18" d="M577.4,549.5c0-0.2,0-0.4-0.1-0.7C577.3,549.1,577.4,549.3,577.4,549.5z"/>
	<path class="st18" d="M576.8,547.9c-0.1-0.1-0.1-0.2-0.2-0.3C576.7,547.7,576.7,547.8,576.8,547.9z"/>
	<path class="st18" d="M577.1,548.4c-0.1-0.1-0.1-0.2-0.2-0.3C577,548.2,577,548.3,577.1,548.4z"/>
	<path class="st18" d="M576.9,548.2c0-0.1-0.1-0.1-0.1-0.2C576.9,548.1,576.9,548.1,576.9,548.2z"/>
	<path class="st18" d="M577.2,548.7c0-0.1-0.1-0.1-0.1-0.2C577.2,548.6,577.2,548.6,577.2,548.7z"/>
	<path class="st18" d="M577.3,548.9c0-0.1-0.1-0.1-0.1-0.2C577.3,548.7,577.3,548.8,577.3,548.9z"/>
	<path class="st18" d="M577.3,549.7c0-0.1,0.1-0.1,0.1-0.2C577.4,549.6,577.3,549.7,577.3,549.7z"/>
	<path class="st18" d="M576.8,548c0,0,0-0.1-0.1-0.1C576.8,547.9,576.8,548,576.8,548z"/>
	<path class="st18" d="M577.2,548.5C577.1,548.5,577.1,548.5,577.2,548.5C577.1,548.5,577.1,548.5,577.2,548.5z"/>
	<path class="st18" d="M564.3,552.5c0,0,0.1,0.1,0.1,0.1C564.4,552.6,564.3,552.5,564.3,552.5z"/>
	<path class="st18" d="M577.2,549.8c0,0,0.1-0.1,0.1-0.1C577.3,549.8,577.3,549.8,577.2,549.8z"/>
	<path class="st19" d="M571.8,546.5c-0.1,0.4-0.1,0.9-0.2,1.3c0,0.1-0.2,0.2-0.2,0.3c-0.1-0.1-0.2-0.2-0.2-0.2
		c-0.1-0.7-0.3-1.3-0.4-2c-0.1-1.1-0.2-2.2-0.3-3.3c0-0.2,0.3-0.6,0.5-0.8c0.2-0.2,0.5,0,0.7,0.1c0,0.1,0.1,0.1,0.1,0.2c0,0,0,0,0,0
		c0,0.1,0,0.1,0.1,0.2c0,0,0,0,0,0c0,0.5,0,1,0.1,1.5C571.9,544.6,571.9,545.5,571.8,546.5z"/>
	<path class="st20" d="M571.4,548.6c0.4-0.1,0.7,0.2,0.7,0.6c0,0.4-0.3,0.8-0.6,0.8c-0.4,0.1-0.7-0.3-0.7-0.6
		C570.7,549.1,571.1,548.7,571.4,548.6z"/>
	<path class="st21" d="M571.8,546.5c0-0.9,0.1-1.8,0.1-2.7c0,0,0.1,0,0.1,0c0,0.8-0.1,1.6-0.1,2.4
		C572,546.2,571.9,546.4,571.8,546.5z"/>
	<path class="st22" d="M572.1,543.7C572,543.7,572,543.7,572.1,543.7c-0.1-0.5-0.1-1-0.1-1.5c0.3,0.2,0.1,0.6,0.2,0.9
		C572.1,543.3,572.1,543.5,572.1,543.7z"/>
	<path class="st22" d="M571.8,542c0-0.1-0.1-0.1-0.1-0.2C571.8,541.9,571.8,542,571.8,542z"/>
	<path class="st22" d="M571.9,542.2c0-0.1,0-0.1-0.1-0.2C571.9,542.1,571.9,542.1,571.9,542.2z"/>
</g>
<g id="CAUTION">
	<path d="M587.7,543.1l2.1-0.3c-0.1,0.9-0.4,1.7-1.1,2.5c-0.6,0.7-1.5,1.2-2.5,1.4c-1.3,0.3-2.2,0.1-2.9-0.5c-0.7-0.6-1-1.6-1-3
		c0-1.4,0.3-2.5,1-3.4c0.7-0.9,1.6-1.5,2.9-1.8c2.1-0.5,3.3,0.4,3.5,2.5l-2,0.6c-0.1-1.2-0.5-1.8-1.4-1.6c-0.5,0.1-0.8,0.4-1.1,0.8
		c-0.3,0.5-0.4,1.3-0.4,2.4c0,1,0.1,1.7,0.4,2.1c0.3,0.3,0.6,0.4,1.1,0.3C587.1,544.9,587.6,544.2,587.7,543.1z"/>
	<path d="M593,536.6l2.3-0.5l2.9,7.8l-2.3,0.5l-0.5-1.6l-2.9,0.6l-0.5,1.8l-2.1,0.4L593,536.6z M595,541.4l-1-3.2l-1,3.7L595,541.4z
		"/>
	<path d="M598.9,535.4l2.2-0.5l0,4.8c0,0.7,0,1.1,0.1,1.4c0.1,0.3,0.2,0.4,0.5,0.5c0.2,0.1,0.5,0.1,0.9,0c0.4-0.1,0.7-0.2,0.9-0.4
		c0.2-0.2,0.4-0.4,0.4-0.7c0.1-0.3,0.1-0.7,0.1-1.4l0-4.8l1.9-0.4l0,4.7c0,0.9-0.1,1.7-0.2,2.1s-0.5,1-1,1.4c-0.5,0.4-1.3,0.8-2.2,1
		c-0.9,0.2-1.6,0.2-2.1,0.1c-0.5-0.1-0.9-0.4-1.1-0.8c-0.2-0.4-0.3-1.2-0.3-2.3L598.9,535.4z"/>
	<path d="M606.5,533.7l6.3-1.3l0,1.6l-2.1,0.4l0,6.8l-2.2,0.5l0-6.8l-2,0.4L606.5,533.7z"/>
	<path d="M613.6,532.2l2.2-0.5l0,8.4l-2.2,0.5L613.6,532.2z"/>
	<path d="M624.6,534.1c0,2.9-1.2,4.6-3.7,5.1c-1.2,0.3-2.1,0.1-2.7-0.5c-0.6-0.6-0.9-1.6-0.9-3c0-2.9,1.2-4.6,3.7-5.1
		c1.2-0.3,2.1-0.1,2.7,0.5C624.3,531.6,624.6,532.7,624.6,534.1z M622.2,534.6c0-1.1-0.1-1.9-0.3-2.2c-0.2-0.3-0.5-0.4-1-0.3
		c-0.5,0.1-0.8,0.4-1,0.8c-0.2,0.4-0.3,1.2-0.3,2.3c0,1.1,0.1,1.8,0.3,2.2c0.2,0.3,0.5,0.5,1,0.4c0.5-0.1,0.8-0.4,1-0.8
		C622.1,536.5,622.2,535.7,622.2,534.6z"/>
	<path d="M626,529.6l2.4-0.5l2.5,4.6l0-5.2l1.7-0.4l-0.1,8.3l-2,0.4l-3-5.4l0,6l-1.7,0.4L626,529.6z"/>
</g>
<g id="MAKING_ADJUSTMENTS">
	<path class="st15" d="M555.9,570.2l0.8-0.2l1,2.4c0.1,0.3,0.2,0.6,0.4,0.9l0,0c0.1-0.4,0.2-0.7,0.4-1.1l1-2.8l0.8-0.2l0,4.9
		l-0.6,0.1l0-2.7c0-0.4,0.1-1,0.1-1.5l0,0l-0.4,1.2l-1,2.7l-0.4,0.1l-1-2.3l-0.4-1l0,0c0,0.4,0.1,1,0.1,1.4l0,2.7l-0.6,0.1V570.2z"
		/>
	<path class="st15" d="M562.9,568.6l0.8-0.2l1.8,4.4l-0.7,0.2l-0.9-2.5c-0.2-0.5-0.4-1-0.5-1.5l0,0c-0.2,0.6-0.3,1.2-0.5,1.8
		l-0.9,2.9l-0.7,0.2L562.9,568.6z M562,571.7l2.5-0.6l0,0.5l-2.5,0.6L562,571.7z"/>
	<path class="st15" d="M566.2,567.8l0.7-0.2l0,2.4l0,0l2.2-3l0.8-0.2l-1.7,2.3l1.9,2.6l-0.8,0.2l-1.6-2.2l-0.9,1.2l0,1.5l-0.7,0.2
		L566.2,567.8z"/>
	<path class="st15" d="M570.9,566.7l0.7-0.2l0,4.9l-0.7,0.2L570.9,566.7z"/>
	<path class="st15" d="M573.1,566.2l0.7-0.2l1.9,2.6l0.6,0.9l0,0c0-0.5-0.1-1-0.1-1.5l0-2.5l0.6-0.2l0,4.9l-0.7,0.2l-1.9-2.6
		l-0.6-0.9l0,0c0,0.5,0.1,1,0.1,1.5l0,2.6L573,571L573.1,566.2z"/>
	<path class="st15" d="M578,567.4c0-1.6,1.1-2.8,2.5-3.1c0.7-0.2,1.2,0,1.6,0.2l-0.4,0.5c-0.3-0.2-0.6-0.3-1.2-0.2
		c-1.1,0.3-1.8,1.2-1.8,2.4c0,1.2,0.6,1.8,1.8,1.6c0.4-0.1,0.8-0.3,1-0.5l0-1.3l-1.1,0.3l0-0.5l1.8-0.4l0,2.1
		c-0.3,0.4-0.9,0.8-1.7,1C579,569.7,578,569,578,567.4z"/>
	<path class="st15" d="M586.2,563.1l0.8-0.2l1.8,4.5l-0.7,0.2l-0.9-2.5c-0.2-0.5-0.4-1-0.5-1.5l0,0c-0.2,0.6-0.3,1.2-0.5,1.8l-1,3
		l-0.7,0.2L586.2,563.1z M585.3,566.2l2.5-0.6l0,0.5l-2.5,0.6L585.3,566.2z"/>
	<path class="st15" d="M589.5,562.3l1.4-0.3c1.7-0.4,2.6,0.3,2.5,1.8c0,1.6-0.9,2.7-2.5,3.1l-1.4,0.3L589.5,562.3z M590.8,566.4
		c1.3-0.3,1.9-1.2,1.9-2.4c0-1.2-0.6-1.8-1.9-1.5l-0.6,0.1l0,3.9L590.8,566.4z"/>
	<path class="st15" d="M593.7,565.5l0.5-0.4c0.2,0.3,0.5,0.4,0.9,0.3c0.6-0.1,0.9-0.5,0.9-1.2l0-3.4l0.7-0.2l0,3.5
		c0,0.8-0.4,1.6-1.5,1.9C594.5,566.1,594,565.9,593.7,565.5z"/>
	<path class="st15" d="M598.2,563.1l0-2.9l0.7-0.2l0,2.9c0,1.2,0.5,1.4,1.2,1.3c0.7-0.2,1.3-0.7,1.3-1.9l0-2.9l0.7-0.2l0,2.9
		c0,1.6-0.9,2.3-2,2.6C599,565,598.1,564.7,598.2,563.1z"/>
	<path class="st15" d="M603,563.4l0.4-0.5c0.4,0.3,0.9,0.4,1.5,0.3c0.7-0.2,1.1-0.6,1.1-1.1c0-0.5-0.4-0.6-0.9-0.7l-0.8-0.1
		c-0.5-0.1-1.1-0.3-1.1-1c0-0.8,0.7-1.5,1.7-1.7c0.6-0.2,1.2,0,1.6,0.2l-0.4,0.5c-0.3-0.2-0.7-0.3-1.2-0.2c-0.6,0.1-1,0.5-1,1
		c0,0.5,0.5,0.5,0.9,0.6l0.8,0.1c0.6,0.1,1.1,0.3,1.1,1c0,0.8-0.7,1.6-1.9,1.8C604.2,563.8,603.5,563.7,603,563.4z"/>
	<path class="st15" d="M608.8,558.3l-1.6,0.4l0-0.5l4-0.9l0,0.5l-1.6,0.4l0,4.4l-0.7,0.2L608.8,558.3z"/>
	<path class="st15" d="M612.2,556.9l0.8-0.2l1,2.4c0.1,0.3,0.2,0.6,0.4,0.9l0,0c0.1-0.4,0.3-0.7,0.4-1.1l1.1-2.9l0.8-0.2l-0.1,4.9
		l-0.6,0.2l0-2.7c0-0.4,0.1-1,0.1-1.5l0,0l-0.4,1.2l-1.1,2.8l-0.5,0.1l-1-2.3l-0.4-1l0,0c0,0.4,0.1,1,0.1,1.4l0,2.7l-0.6,0.1
		L612.2,556.9z"/>
	<path class="st15" d="M618.2,555.5l3.2-0.7l0,0.5l-2.5,0.6l0,1.5l2.1-0.5l0,0.5l-2.1,0.5l0,1.8l2.5-0.6l0,0.5l-3.2,0.8L618.2,555.5
		z"/>
	<path class="st15" d="M622.6,554.5l0.7-0.2l1.9,2.6l0.6,0.9l0,0c0-0.5-0.1-1-0.1-1.5l0-2.6l0.7-0.2l-0.1,4.9l-0.7,0.2l-1.9-2.6
		l-0.6-0.9l0,0c0,0.5,0.1,1,0.1,1.5l0,2.6l-0.7,0.2L622.6,554.5z"/>
	<path class="st15" d="M629.1,553.5l-1.7,0.4l0-0.5l4-0.9l0,0.5l-1.7,0.4l-0.1,4.4l-0.7,0.2L629.1,553.5z"/>
	<path class="st15" d="M631.7,556.6l0.4-0.5c0.4,0.3,0.9,0.4,1.5,0.3c0.7-0.2,1.2-0.6,1.2-1.1c0-0.5-0.4-0.6-0.9-0.7l-0.8-0.1
		c-0.5-0.1-1.1-0.3-1.1-1c0-0.8,0.7-1.5,1.7-1.7c0.7-0.2,1.2,0,1.6,0.2l-0.4,0.5c-0.3-0.2-0.7-0.3-1.2-0.2c-0.6,0.1-1,0.5-1,1
		c0,0.5,0.5,0.5,0.9,0.6l0.8,0.1c0.6,0.1,1.1,0.3,1.1,1.1c0,0.8-0.7,1.6-1.9,1.8C632.8,557.1,632.2,557,631.7,556.6z"/>
</g>
<g id="TURN_OFF_PLATE">
	<path class="st15" d="M553.6,563.6l-1.6,0.4v-0.5l3.8-0.9l0,0.5l-1.6,0.4l0,4.2l-0.7,0.2L553.6,563.6z"/>
	<path class="st15" d="M556.8,565.1l0-2.8l0.7-0.2l0,2.8c0,1.1,0.5,1.4,1.2,1.2c0.7-0.2,1.2-0.6,1.2-1.8l0-2.8l0.6-0.1l0,2.8
		c0,1.5-0.8,2.2-1.9,2.5C557.6,567,556.8,566.6,556.8,565.1z"/>
	<path class="st15" d="M562,561.1l1.6-0.4c1.1-0.3,1.8-0.1,1.8,0.9c0,1-0.8,1.6-1.8,1.8l-1,0.2l0,2l-0.7,0.2L562,561.1z M563.5,563
		c0.8-0.2,1.3-0.6,1.3-1.2c0-0.6-0.4-0.7-1.3-0.6l-0.9,0.2l0,1.8L563.5,563z M563.5,563.3l0.5-0.4l1.6,2.1l-0.8,0.2L563.5,563.3z"/>
	<path class="st15" d="M566.5,560.1l0.7-0.2l1.9,2.6l0.6,0.9l0,0c0-0.5-0.1-1-0.1-1.5l0-2.5l0.6-0.1l0,4.8l-0.7,0.2l-1.9-2.6
		l-0.6-0.9l0,0c0,0.5,0.1,1,0.1,1.5l0,2.5l-0.6,0.1L566.5,560.1z"/>
	<path class="st15" d="M573.1,560.9c0-1.5,1-2.7,2.3-3c1.3-0.3,2.3,0.4,2.3,1.9c0,1.5-1,2.7-2.3,3C574,563.2,573,562.4,573.1,560.9z
		 M576.9,560c0-1.2-0.6-1.8-1.6-1.6c-0.9,0.2-1.6,1.1-1.6,2.3c0,1.2,0.6,1.8,1.6,1.6C576.3,562.1,576.9,561.2,576.9,560z"/>
	<path class="st15" d="M578.8,557.2l3.1-0.7l0,0.5l-2.4,0.6l0,1.6l2-0.5l0,0.5l-2,0.5l0,2.1l-0.7,0.2L578.8,557.2z"/>
	<path class="st15" d="M582.8,556.3l3.1-0.7l0,0.5l-2.4,0.6l0,1.6l2-0.5l0,0.5l-2,0.5l0,2.1l-0.7,0.2L582.8,556.3z"/>
	<path class="st15" d="M588.4,554.9l1.5-0.4c1.2-0.3,2-0.1,2,0.9c0,1-0.8,1.7-2,2l-0.9,0.2l0,1.9l-0.7,0.2L588.4,554.9z M589.9,557
		c0.9-0.2,1.4-0.6,1.4-1.3c0-0.7-0.5-0.8-1.4-0.6l-0.8,0.2l0,1.9L589.9,557z"/>
	<path class="st15" d="M593.1,553.8l0.7-0.2l-0.1,4.3l2.4-0.5l0,0.5l-3,0.7L593.1,553.8z"/>
	<path class="st15" d="M598.2,552.6l0.8-0.2l1.8,4.4L600,557l-0.9-2.5c-0.2-0.5-0.4-1-0.5-1.5l0,0c-0.2,0.6-0.4,1.2-0.6,1.8l-1,2.9
		l-0.7,0.2L598.2,552.6z M597.3,555.7l2.5-0.6l0,0.5l-2.5,0.6L597.3,555.7z"/>
	<path class="st15" d="M602.2,552.2l-1.6,0.4l0-0.5l4-0.9l0,0.5l-1.6,0.4l-0.1,4.3l-0.7,0.2L602.2,552.2z"/>
	<path class="st15" d="M605.5,550.9l3.1-0.7l0,0.5l-2.4,0.6l0,1.5l2.1-0.5l0,0.5l-2.1,0.5l0,1.8l2.5-0.6l0,0.5l-3.2,0.7L605.5,550.9
		z"/>
	<path class="st15" d="M611.6,549.5l1.6-0.4c1.1-0.3,1.9-0.1,1.9,0.8c0,0.5-0.3,1-0.8,1.2l0,0c0.7,0,1.1,0.2,1.1,0.9
		c0,1-0.9,1.6-2.1,1.9l-1.7,0.4L611.6,549.5z M613,551.2c0.9-0.2,1.3-0.6,1.3-1.1c0-0.6-0.4-0.7-1.3-0.5l-0.8,0.2l0,1.6L613,551.2z
		 M613.1,553.5c0.9-0.2,1.5-0.6,1.5-1.3c0-0.6-0.5-0.7-1.5-0.5l-1,0.2l0,1.8L613.1,553.5z"/>
	<path class="st15" d="M616.5,548.4l3.2-0.7l0,0.5l-2.5,0.6l0,1.5l2.1-0.5l0,0.5l-2.1,0.5l0,1.8l2.5-0.6l0,0.5l-3.2,0.8L616.5,548.4
		z"/>
	<path class="st15" d="M620.9,547.3l3.2-0.7l0,0.5l-2.5,0.6l0,1.6l2.1-0.5l0,0.5l-2.1,0.5l0,2.2l-0.7,0.2L620.9,547.3z"/>
	<path class="st15" d="M624.6,548.9c0-1.6,1-2.7,2.4-3.1c1.4-0.3,2.3,0.4,2.3,2c0,1.6-1,2.8-2.4,3.1
		C625.5,551.2,624.5,550.5,624.6,548.9z M628.6,548c0-1.2-0.6-1.8-1.6-1.6c-1,0.2-1.7,1.1-1.7,2.4c0,1.2,0.6,1.9,1.6,1.6
		C627.9,550.1,628.5,549.2,628.6,548z"/>
	<path class="st15" d="M630.5,545.1l1.7-0.4c1.1-0.3,1.9-0.1,1.9,0.9c0,1-0.8,1.6-2,1.9l-1,0.2l0,2.1l-0.7,0.2L630.5,545.1z
		 M632.1,547c0.9-0.2,1.3-0.6,1.4-1.3c0-0.6-0.5-0.8-1.3-0.6l-0.9,0.2l0,1.8L632.1,547z M632.1,547.4l0.6-0.5l1.6,2.2l-0.8,0.2
		L632.1,547.4z"/>
	<path class="st15" d="M635.3,544l3.2-0.8l0,0.5l-2.5,0.6l0,1.5l2.1-0.5l0,0.5l-2.1,0.5l0,1.8l2.6-0.6l0,0.5l-3.3,0.8L635.3,544z"/>
</g>
<g id="electrons" class="st23">
	<path class="st24" d="M281.4,698l-8.7,2.2v4.2l8-2.1c0.6-0.2,1-0.1,1.3,0c0.3,0.2,0.4,0.4,0.4,0.8c0,0.4-0.1,0.7-0.4,1.1
		c-0.3,0.3-0.7,0.6-1.3,0.7l-8,2.1v4.9l9-2.3c0.6-0.2,1.1-0.1,1.4,0c0.3,0.2,0.5,0.5,0.5,0.9c0,0.4-0.2,0.8-0.5,1.1
		c-0.3,0.3-0.8,0.6-1.4,0.7l-10.4,2.7c-0.8,0.2-1.4,0.2-1.8,0c-0.4-0.2-0.6-0.7-0.6-1.5v-12.8c0-0.5,0.1-0.9,0.2-1.3
		c0.2-0.4,0.4-0.7,0.8-0.9c0.4-0.2,0.8-0.4,1.3-0.6l10.2-2.6c0.6-0.2,1.1-0.2,1.4,0c0.3,0.2,0.4,0.4,0.4,0.8c0,0.4-0.1,0.8-0.4,1.1
		C282.4,697.6,282,697.9,281.4,698z"/>
	<path class="st24" d="M286.3,709.5v-13.7c0-0.6,0.2-1.2,0.5-1.6c0.3-0.4,0.7-0.7,1.3-0.8c0.5-0.1,1-0.1,1.3,0.2
		c0.3,0.2,0.5,0.7,0.5,1.3v13.7c0,0.6-0.2,1.2-0.5,1.6c-0.3,0.4-0.8,0.7-1.3,0.8c-0.5,0.1-0.9,0.1-1.3-0.2
		C286.4,710.5,286.3,710.1,286.3,709.5z"/>
	<path class="st24" d="M303.1,701.4l-6.8,1.8c0,0.7,0.2,1.3,0.5,1.8c0.3,0.5,0.7,0.8,1.2,0.9c0.5,0.1,1.1,0.1,1.7,0
		c0.4-0.1,0.8-0.3,1.1-0.4c0.3-0.2,0.7-0.4,1-0.7c0.3-0.3,0.6-0.5,0.9-0.8c0.3-0.3,0.6-0.7,1.1-1.1c0.2-0.2,0.4-0.3,0.8-0.4
		c0.4-0.1,0.6-0.1,0.9,0c0.2,0.1,0.3,0.3,0.3,0.7c0,0.3-0.1,0.6-0.4,1.1c-0.2,0.4-0.6,0.9-1.1,1.4c-0.5,0.5-1.1,0.9-1.9,1.4
		c-0.7,0.4-1.6,0.8-2.6,1c-2.2,0.6-4,0.5-5.2-0.4c-1.2-0.8-1.9-2.2-1.9-4.2c0-0.9,0.2-1.8,0.5-2.7c0.3-0.9,0.8-1.7,1.3-2.4
		c0.6-0.7,1.3-1.3,2.2-1.9c0.9-0.5,1.8-0.9,2.9-1.2c1.4-0.3,2.5-0.4,3.5-0.1c1,0.3,1.7,0.8,2.2,1.4c0.5,0.7,0.7,1.5,0.7,2.3
		c0,0.8-0.2,1.4-0.7,1.7C304.7,700.9,304,701.2,303.1,701.4z M296.3,701.4l6.3-1.6c-0.1-1.1-0.4-1.8-1-2.2c-0.6-0.4-1.3-0.5-2.2-0.2
		c-0.9,0.2-1.6,0.7-2.1,1.4C296.7,699.4,296.4,700.3,296.3,701.4z"/>
	<path class="st24" d="M321.1,698.4c0,0.4-0.1,0.8-0.4,1.3c-0.3,0.5-0.6,1-1.2,1.6c-0.5,0.5-1.2,1-2,1.5c-0.8,0.5-1.7,0.8-2.7,1.1
		c-2.1,0.6-3.8,0.4-5-0.4c-1.2-0.8-1.8-2.2-1.8-4.1c0-1.3,0.3-2.5,0.8-3.6c0.5-1.1,1.3-2.1,2.4-2.9c1-0.8,2.3-1.4,3.7-1.8
		c0.9-0.2,1.7-0.3,2.4-0.3c0.7,0,1.4,0.2,1.9,0.4c0.5,0.2,0.9,0.5,1.2,0.9c0.3,0.4,0.4,0.7,0.4,1.1c0,0.4-0.2,0.7-0.5,1.1
		c-0.3,0.3-0.7,0.6-1.1,0.7c-0.3,0.1-0.5,0.1-0.7,0c-0.2-0.1-0.4-0.2-0.6-0.5c-0.4-0.5-0.9-0.8-1.3-1c-0.5-0.2-1-0.2-1.7,0
		c-1,0.3-1.8,0.8-2.5,1.7c-0.6,0.9-0.9,2-0.9,3.2c0,0.6,0.1,1.1,0.2,1.6c0.2,0.5,0.4,0.8,0.7,1.1c0.3,0.3,0.7,0.4,1.1,0.5
		c0.4,0.1,0.9,0,1.4-0.1c0.7-0.2,1.3-0.5,1.8-0.9c0.5-0.4,0.9-1,1.3-1.7c0.2-0.4,0.4-0.7,0.7-1c0.2-0.3,0.5-0.4,0.9-0.5
		c0.4-0.1,0.8-0.1,1,0.2C321,697.8,321.1,698.1,321.1,698.4z"/>
	<path class="st24" d="M324.3,689.1l0.4-0.1v-1.9c0-0.5,0-0.9,0-1.2c0-0.3,0.1-0.6,0.2-0.8c0.1-0.2,0.3-0.5,0.6-0.7
		c0.2-0.2,0.5-0.3,0.8-0.4c0.4-0.1,0.8-0.1,1.2,0.1c0.2,0.1,0.4,0.3,0.4,0.6c0.1,0.3,0.1,0.7,0.1,1.2v2.1l1.2-0.3
		c0.5-0.1,0.8-0.1,1.1,0c0.3,0.1,0.4,0.4,0.4,0.7c0,0.4-0.2,0.8-0.5,1c-0.4,0.3-0.9,0.5-1.5,0.6l-0.6,0.2v5.7c0,0.5,0,0.9,0.1,1.1
		c0,0.3,0.1,0.4,0.3,0.6c0.2,0.1,0.4,0.1,0.8,0c0.2-0.1,0.5-0.2,0.8-0.3c0.3-0.2,0.6-0.3,0.8-0.3c0.3-0.1,0.5,0,0.7,0.1
		c0.2,0.1,0.3,0.4,0.3,0.7c0,0.5-0.3,1-0.9,1.4c-0.6,0.4-1.5,0.8-2.6,1.1c-1.1,0.3-1.9,0.3-2.4,0.1c-0.5-0.2-0.9-0.5-1.1-1.1
		c-0.2-0.5-0.3-1.3-0.3-2.2v-6l-0.4,0.1c-0.5,0.1-0.9,0.1-1.1,0c-0.3-0.1-0.4-0.4-0.4-0.7c0-0.3,0.1-0.6,0.4-0.9
		C323.4,689.4,323.8,689.2,324.3,689.1z"/>
	<path class="st24" d="M336.5,693.8v2.6c0,0.6-0.2,1.1-0.5,1.5c-0.3,0.4-0.7,0.7-1.2,0.8c-0.5,0.1-0.9,0.1-1.2-0.2
		c-0.3-0.2-0.5-0.7-0.5-1.3v-8.6c0-1.4,0.5-2.2,1.6-2.5c0.6-0.1,1-0.1,1.2,0.2c0.2,0.3,0.4,0.7,0.4,1.3c0.4-0.7,0.8-1.3,1.2-1.8
		c0.4-0.4,1-0.7,1.7-0.9c0.7-0.2,1.4-0.2,2.1,0c0.7,0.2,1,0.5,1,1c0,0.4-0.1,0.7-0.4,1c-0.3,0.3-0.6,0.5-0.9,0.6c-0.1,0-0.4,0-0.9,0
		c-0.5,0-0.9,0-1.3,0.1c-0.5,0.1-0.9,0.3-1.2,0.7c-0.3,0.3-0.6,0.7-0.7,1.2c-0.2,0.5-0.3,1.1-0.4,1.8
		C336.5,692.1,336.5,692.9,336.5,693.8z"/>
	<path class="st24" d="M355.7,687c0,0.9-0.2,1.8-0.5,2.7c-0.3,0.9-0.8,1.6-1.3,2.3c-0.6,0.7-1.3,1.3-2.1,1.8
		c-0.8,0.5-1.7,0.9-2.8,1.2c-1,0.3-1.9,0.4-2.7,0.3c-0.8-0.1-1.5-0.3-2.1-0.7c-0.6-0.4-1-1-1.4-1.6c-0.3-0.7-0.5-1.5-0.5-2.4
		c0-0.9,0.2-1.8,0.5-2.7c0.3-0.9,0.8-1.6,1.3-2.3c0.6-0.7,1.3-1.3,2.1-1.8c0.8-0.5,1.7-0.9,2.7-1.1c1-0.3,1.9-0.3,2.8-0.3
		c0.8,0.1,1.5,0.3,2.1,0.7c0.6,0.4,1,1,1.3,1.6C355.6,685.2,355.7,686.1,355.7,687z M352.4,687.8c0-1.3-0.3-2.2-0.9-2.7
		c-0.6-0.5-1.4-0.7-2.4-0.4c-0.7,0.2-1.2,0.5-1.7,0.9c-0.5,0.4-0.9,1-1.2,1.7c-0.3,0.7-0.4,1.4-0.4,2.2c0,0.8,0.1,1.5,0.4,2
		c0.3,0.5,0.6,0.9,1.1,1.1c0.5,0.2,1.1,0.2,1.7,0c1-0.3,1.8-0.8,2.4-1.7C352.1,690.1,352.4,689.1,352.4,687.8z"/>
	<path class="st24" d="M361.4,681v0.4c0.6-0.9,1.2-1.5,1.9-2.1c0.7-0.5,1.5-0.9,2.4-1.1c0.9-0.2,1.6-0.2,2.3-0.1
		c0.7,0.2,1.2,0.5,1.5,1.1c0.2,0.3,0.4,0.7,0.4,1.1c0.1,0.4,0.1,1,0.1,1.6v5.7c0,0.6-0.2,1.1-0.5,1.5c-0.3,0.4-0.7,0.7-1.2,0.8
		c-0.5,0.1-0.9,0.1-1.2-0.2c-0.3-0.2-0.5-0.7-0.5-1.3v-5.1c0-1-0.2-1.7-0.5-2.2c-0.3-0.5-0.9-0.6-1.8-0.3c-0.6,0.2-1.1,0.5-1.6,0.9
		c-0.5,0.5-0.8,1-1.1,1.6c-0.2,0.5-0.2,1.4-0.2,2.6v3.8c0,0.6-0.2,1.1-0.5,1.5c-0.3,0.4-0.7,0.7-1.2,0.8c-0.5,0.1-0.9,0.1-1.2-0.2
		c-0.3-0.2-0.5-0.7-0.5-1.3v-8.9c0-0.6,0.1-1.1,0.4-1.4c0.3-0.4,0.7-0.6,1.1-0.7c0.3-0.1,0.6-0.1,0.8,0c0.2,0.1,0.4,0.2,0.6,0.4
		C361.3,680.3,361.4,680.6,361.4,681z"/>
	<path class="st24" d="M383.8,681.9c0,0.8-0.2,1.6-0.7,2.3c-0.4,0.7-1.1,1.3-1.9,1.9c-0.9,0.5-1.9,1-3.1,1.3c-1.2,0.3-2.2,0.4-3,0.3
		c-0.8-0.1-1.5-0.4-1.9-0.8c-0.4-0.4-0.6-0.9-0.6-1.4c0-0.3,0.1-0.7,0.4-1c0.3-0.3,0.6-0.5,1-0.6c0.3-0.1,0.6-0.1,0.8,0
		c0.2,0.1,0.4,0.3,0.5,0.5c0.3,0.5,0.7,0.8,1.2,0.9c0.5,0.1,1.1,0.1,1.9-0.1c0.7-0.2,1.2-0.4,1.6-0.8c0.4-0.4,0.6-0.7,0.6-1.1
		c0-0.5-0.2-0.9-0.7-1c-0.4-0.1-1.1-0.2-2.1-0.1c-1.1,0-2,0-2.7-0.1c-0.7-0.1-1.3-0.3-1.7-0.7c-0.4-0.4-0.6-0.9-0.6-1.6
		c0-0.6,0.2-1.2,0.6-1.9c0.4-0.6,1-1.2,1.7-1.7c0.8-0.5,1.7-0.9,2.8-1.2c0.8-0.2,1.6-0.3,2.3-0.3c0.7,0,1.2,0.1,1.7,0.2
		c0.4,0.2,0.8,0.4,1,0.7c0.2,0.3,0.4,0.6,0.4,0.9c0,0.4-0.1,0.7-0.4,1c-0.3,0.3-0.6,0.5-1.1,0.6c-0.3,0.1-0.6,0.1-0.9,0
		c-0.2-0.1-0.5-0.3-0.8-0.6c-0.2-0.2-0.5-0.4-0.9-0.5c-0.3-0.1-0.8-0.1-1.4,0.1c-0.6,0.2-1.1,0.4-1.5,0.7c-0.4,0.3-0.6,0.7-0.6,1
		c0,0.3,0.1,0.5,0.4,0.7c0.3,0.1,0.7,0.2,1.2,0.2c0.5,0,1.2,0,2,0c1,0,1.8,0,2.5,0.2c0.6,0.2,1.1,0.4,1.5,0.8
		C383.6,680.9,383.8,681.4,383.8,681.9z"/>
</g>
<path id="plus.sign.big" class="st23" d="M390,665c0-1.3,0-2.7-0.1-4c0.1-0.9,0.8-1.6,1.7-1.5c0.7,0,1.4,0.5,1.6,1.3
	c0,1.2,0,2.5-0.1,3.7c1.1-0.3,2.2-0.6,3.2-1c0.6-0.2,1.2,0,1.5,0.5c0.4,0.5,0.3,1.2-0.2,1.7c-1.5,0.5-3.1,0.9-4.6,1.4
	c0,1.4,0,2.8,0,4.1c0,0.1-0.5,0.9-1.5,1.1c-1.1,0.2-1.8-0.7-1.8-0.7c0-1.2,0.1-2.5,0.1-3.7c-1.2,0.4-2.4,0.7-3.6,1.1
	c-0.5,0.1-1.1-0.2-1.4-0.6c-0.3-0.5-0.2-1.2,0.2-1.6C386.8,666,388.4,665.5,390,665z"/>
<path id="circle.button_1_" class="st25" d="M529.5,604.7c-0.9,9.9-8.9,20.4-19.3,24.3c-12.7,4.7-25.3-1.2-25.5-15.1
	c-0.2-14.9,13.6-27.9,27.5-28.2C523.5,585.6,530.4,594.3,529.5,604.7z"/>
<g id="Jesse.james.button">
	<path class="st25" d="M526.7,599.7c0.1,0.5,0.2,0.9,0.3,1.4c0.1,0.5,0.1,1,0.2,1.5c0,0.5,0.1,1,0.1,1.5c0,0.5,0,1,0,1.5
		c-0.1,0.6-0.1,1.3-0.2,1.9c-0.1,1.1-0.4,2.2-0.7,3.3c-0.2,0.7-0.4,1.4-0.7,2.1c-0.3,0.6-0.5,1.3-0.8,1.9c-0.4,0.7-0.7,1.4-1.1,2.1
		c-0.5,0.7-0.9,1.5-1.4,2.2c-0.3,0.5-0.7,0.9-1,1.3c-0.4,0.5-0.8,1-1.2,1.4c-0.5,0.5-1.1,1.1-1.6,1.6c-0.7,0.6-1.5,1.2-2.2,1.9
		c-1,0.6-1.9,1.3-2.9,1.9c-0.3,0.2-0.6,0.3-0.9,0.5c-0.8,0.3-1.6,0.7-2.4,1c-6,2.2-11.7,2-16.7-1c0,0-0.1,0-0.1-0.1
		c-0.4-0.2-0.8-0.5-1.1-0.8c-0.6-0.5-1.1-1-1.7-1.5c-0.1-0.1-0.2-0.2-0.3-0.3c-0.5-0.6-0.9-1.1-1.4-1.7c-0.1-0.1-0.2-0.2-0.2-0.3
		c-0.4-0.7-0.8-1.4-1.3-2.2c-0.3-0.8-0.6-1.6-1-2.4c-0.2-0.6-0.3-1.3-0.5-1.9c-0.1-0.3-0.1-0.6-0.2-0.8c-0.1-1-0.2-2-0.2-3.1
		c0-0.9,0.1-1.8,0.1-2.7c0.2-0.9,0.3-1.9,0.5-2.8c0.3-1,0.6-2,0.9-3c0.1-0.3,0.2-0.6,0.3-0.9c0.3-0.7,0.6-1.3,0.9-2
		c0.1-0.1,0.1-0.2,0.2-0.3c0.4-0.6,0.7-1.2,1.1-1.8c0.1-0.1,0.2-0.3,0.2-0.4c0.5-0.7,1-1.3,1.4-2c0.4-0.5,0.9-1.1,1.3-1.6
		c0.1-0.1,0.2-0.2,0.3-0.3c0.5-0.5,1-1,1.5-1.5c0,0,0-0.1,0-0.1c0.1,0,0.1-0.1,0.2-0.1c0.9-0.7,1.7-1.4,2.5-2
		c0.1-0.1,0.2-0.1,0.2-0.1c0.6-0.4,1.2-0.7,1.8-1.1c0.8-0.4,1.6-0.8,2.4-1.2c0.1,0,0.2-0.1,0.3-0.1c0.8-0.3,1.6-0.6,2.3-0.8
		c0.7-0.2,1.4-0.3,2.1-0.5c0.2,0,0.3-0.1,0.5-0.1c0.6-0.1,1.3-0.2,1.9-0.2c2-0.2,3.9,0,5.8,0.4c1.2,0.3,2.3,0.7,3.4,1.2
		c0,0,0.1,0,0.1,0c0.4,0.2,0.8,0.4,1.1,0.6c0.5,0.3,0.9,0.6,1.4,0.9c0.5,0.4,0.9,0.8,1.4,1.2c0.1,0.1,0.2,0.2,0.2,0.2
		c0.6,0.6,1.2,1.3,1.7,2c0.1,0.2,0.2,0.3,0.4,0.5c0.3,0.5,0.6,1,0.9,1.4c0.3,0.5,0.5,1.1,0.8,1.6
		C526.2,597.9,526.4,598.7,526.7,599.7C526.7,599.6,526.7,599.7,526.7,599.7z M519.1,603.9C519.1,603.9,519.1,603.9,519.1,603.9
		C519,603.8,519,603.8,519.1,603.9c-0.5,0-0.5-0.1-0.6-0.4c-0.2-0.9-0.4-1.7-0.6-2.6c-0.1-0.3-0.1-0.6-0.2-0.8
		c0-0.1-0.1-0.1-0.1-0.1c0,0-0.1,0.1-0.1,0.1c0,0,0,0.1,0,0.1c-0.2,0.6-0.3,1.1-0.5,1.7c-0.2,0.5-0.3,1.1-0.5,1.7
		c-0.2-0.3-0.3-0.6-0.5-0.8c-0.4-0.7-0.8-1.4-1.2-2c0-0.1-0.1-0.1-0.2-0.1c0,0.1-0.1,0.1-0.1,0.2c0,0.6-0.1,1.1-0.1,1.7
		c0,0.7-0.1,1.5-0.1,2.2c0,0.1,0,0.3-0.2,0.4c-0.2,0.1-0.3,0.1-0.4-0.1c-0.1-0.1-0.2-0.3-0.3-0.4c-0.2-0.4-0.4-0.9-0.7-1.3
		c-0.3-0.6-0.6-1.3-0.9-1.9c0-0.1-0.1-0.1-0.2-0.2c0,0.1-0.1,0.2-0.1,0.3c-0.1,0.2-0.1,0.4-0.2,0.6c-0.3,1.1-0.6,2.3-1,3.4
		c-0.1,0.3-0.2,0.5-0.5,0.6c0,0-0.1,0.1-0.1,0.1c0,0,0.1,0,0.1,0c0.4-0.1,0.8-0.2,1.2-0.3c0,0,0.1-0.1,0.1-0.1c0,0-0.1,0-0.1,0
		c-0.3,0-0.3,0-0.3-0.3c0.1-0.3,0.2-0.6,0.2-1c0-0.1,0.1-0.1,0.1-0.1c0.4-0.1,0.7-0.2,1.1-0.3c0.1,0,0.1,0,0.2,0.1
		c0.1,0.3,0.3,0.6,0.4,0.9c0.1,0.1,0.1,0.2,0,0.4c0.8-0.1,1.6-0.4,2.4-0.6c-0.1,0-0.1,0-0.2,0c-0.2,0-0.3,0-0.2-0.2
		c0-0.1,0-0.1,0-0.2c0-0.7,0-1.3,0-1.9c0-0.1,0-0.2,0-0.3c0.1,0,0.1,0.1,0.1,0.1c0.4,0.7,0.9,1.5,1.3,2.2c0,0.1,0.1,0.1,0.2,0.1
		c0-0.1,0.1-0.1,0.1-0.2c0,0,0-0.1,0-0.1c0.3-0.9,0.5-1.8,0.8-2.7c0,0,0-0.1,0.1-0.2c0.2,0.8,0.3,1.6,0.5,2.3c0,0.1,0,0.2,0,0.4
		C518.2,604.1,518.6,604,519.1,603.9z M521.2,599.1c-0.2,0.1-0.4,0.1-0.5,0.2c-0.6,0.1-1.1,0.3-1.7,0.4c-0.1,0-0.1,0-0.2,0.1
		c0,0,0.1,0.1,0.1,0.1c0.4,0,0.4,0,0.4,0.4c0.1,0.9,0.2,1.8,0.3,2.7c0,0.2,0,0.4,0,0.6c0,0.2-0.1,0.3-0.2,0.3c0,0-0.1,0-0.1,0.1
		c0,0,0,0,0,0.1c0.2,0,0.3-0.1,0.5-0.1c0.6-0.1,1.2-0.3,1.7-0.4c0.1,0,0.2-0.1,0.2-0.2c0-0.2,0-0.4,0-0.6c0,0,0-0.1,0-0.1
		c0,0,0,0,0,0c0,0.1,0,0.1,0,0.2c0,0.3-0.1,0.4-0.3,0.5c-0.2,0.1-0.3,0.1-0.5,0.1c-0.3,0.1-0.5,0-0.5-0.4c0-0.4-0.1-0.8-0.1-1.2
		c0,0,0-0.1,0-0.1c0.3-0.1,0.5-0.1,0.8-0.2c0.2,0,0.3,0,0.3,0.2c0,0.1,0,0.1,0,0.2c0,0,0,0,0.1,0c0-0.3,0-0.6,0-1
		c-0.4,0.4-0.8,0.3-1.2,0.5c-0.1-0.5-0.1-1-0.1-1.4c0.3-0.1,0.5-0.1,0.8-0.2c0.2,0,0.3,0,0.3,0.3c0,0,0,0.1,0,0.1c0,0,0,0,0.1,0
		C521.2,599.7,521.2,599.4,521.2,599.1z M503,603.4C503,603.4,503,603.4,503,603.4c0,0.1,0.1,0.1,0.1,0.1c0.4,0,0.4,0,0.5,0.4
		c0.1,1.1,0.1,2.1,0.2,3.2c0,0.1,0,0.3,0,0.4c0,0.2-0.1,0.3-0.3,0.4c-0.1,0-0.1,0.1-0.1,0.1c0,0,0,0,0,0.1c0.1,0,0.1,0,0.2,0
		c0.7-0.2,1.4-0.3,2.1-0.5c0.6-0.1,0.6,0,0.6-0.7c0-0.1,0-0.3,0-0.4c0,0,0,0-0.1,0c0,0.1,0,0.1,0,0.2c0,0.3-0.1,0.4-0.4,0.5
		c-0.2,0.1-0.4,0.1-0.6,0.2c-0.3,0.1-0.5,0-0.5-0.4c0-0.3,0-0.7-0.1-1c0-0.1,0-0.3,0-0.5c0.4-0.1,0.7-0.1,1-0.2
		c0.1,0,0.2,0.1,0.3,0.2c0,0.1,0,0.1,0,0.2c0,0,0,0,0.1,0c0-0.3,0-0.7,0-1c-0.4,0.4-0.9,0.3-1.4,0.5c0-0.5-0.1-1-0.1-1.5
		c0,0,0.1-0.1,0.1-0.1c0.3-0.1,0.5-0.1,0.8-0.2c0.3,0,0.4,0,0.4,0.3c0,0,0,0.1,0,0.1c0,0,0,0,0.1,0c0-0.3,0-0.6,0-0.9
		c-0.2,0.1-0.3,0.1-0.5,0.2c-0.7,0.2-1.4,0.3-2.2,0.5C503.1,603.3,503,603.3,503,603.4z M492.5,605.8
		C492.5,605.8,492.5,605.8,492.5,605.8c0,0.1,0.1,0.1,0.1,0.1c0.4-0.1,0.5,0,0.5,0.4c0,1.1,0.1,2.3,0.1,3.4c0,0.1,0,0.3,0,0.5
		c0,0.2-0.1,0.3-0.3,0.3c-0.1,0-0.1,0.1-0.2,0.1c0,0,0,0,0,0.1c0.1,0,0.1,0,0.2,0c0.2,0,0.3-0.1,0.5-0.1c0.7-0.2,1.5-0.4,2.2-0.5
		c0.2,0,0.3-0.2,0.3-0.3c0-0.2,0-0.4,0-0.6c0-0.1,0-0.1,0-0.2c0,0,0,0-0.1,0c0,0.1,0,0.1,0,0.2c-0.1,0.3-0.2,0.4-0.5,0.5
		c-0.2,0.1-0.5,0.1-0.7,0.2c-0.3,0.1-0.5,0-0.5-0.4c0-0.3,0-0.7,0-1c0-0.2,0-0.4,0-0.5c0.4-0.1,0.7-0.2,1.1-0.3c0.2,0,0.3,0,0.3,0.2
		c0,0.1,0,0.1,0,0.2c0,0,0.1,0,0.1,0c0-0.4,0-0.7,0.1-1.1c-0.5,0.5-1.1,0.4-1.6,0.6c0-0.6,0-1.1-0.1-1.7c0.4-0.1,0.7-0.2,1.1-0.2
		c0.3,0,0.4,0,0.4,0.3c0,0,0,0.1,0,0.1c0,0,0.1,0,0.1,0c0-0.3,0-0.7,0.1-1c-0.2,0.1-0.3,0.1-0.5,0.2c-0.8,0.2-1.6,0.4-2.4,0.5
		C492.7,605.7,492.6,605.8,492.5,605.8z M496.8,608.3C496.8,608.3,496.8,608.3,496.8,608.3c-0.1,0.1-0.1,0.1-0.1,0.2
		c0,0.3,0,0.5,0,0.8c0,0.2,0.1,0.2,0.2,0.2c0.5,0,1.1-0.1,1.6-0.4c0.1-0.1,0.2-0.2,0.4-0.3c0.6-0.7,0.7-1.6,0.2-2.1
		c-0.2-0.2-0.5-0.3-0.7-0.4c-0.2-0.1-0.4-0.1-0.6-0.3c-0.1-0.1-0.3-0.2-0.3-0.4c-0.1-0.4,0.2-0.8,0.6-0.9c0.5-0.2,0.9,0,1,0.4
		c0,0.1,0,0.1,0,0.2c0,0,0,0,0.1,0c0-0.1,0-0.2,0-0.2c0-0.2,0-0.4,0-0.6c0-0.1,0-0.2-0.2-0.2c-0.4,0.1-0.7,0.1-1.1,0.2
		c-0.8,0.3-1.3,1.1-1.1,1.8c0.1,0.3,0.3,0.5,0.5,0.7c0.3,0.1,0.5,0.2,0.8,0.4c0.2,0.1,0.3,0.2,0.4,0.3c0.4,0.3,0.2,1-0.3,1.3
		c-0.6,0.4-1.3,0.2-1.4-0.5C496.8,608.4,496.8,608.3,496.8,608.3z M500.2,607.4C500.2,607.4,500.2,607.4,500.2,607.4
		c-0.1,0.1-0.1,0.1-0.1,0.2c0,0.3,0,0.5,0,0.8c0,0.2,0.1,0.2,0.2,0.3c0.5,0,1-0.1,1.5-0.3c0.1-0.1,0.3-0.2,0.4-0.3
		c0.7-0.7,0.7-1.7,0-2.2c-0.2-0.2-0.5-0.3-0.8-0.4c-0.2-0.1-0.4-0.2-0.5-0.3c-0.3-0.2-0.3-0.6-0.1-0.8c0.2-0.3,0.5-0.4,0.9-0.4
		c0.3,0,0.5,0.2,0.6,0.5c0,0.1,0,0.1,0,0.2c0,0,0,0,0.1,0c0-0.1,0-0.1,0-0.2c0-0.2,0-0.4,0-0.6c0-0.1,0-0.2-0.2-0.2
		c-0.4,0.1-0.7,0.1-1.1,0.2c-0.8,0.3-1.2,1-1.1,1.7c0.1,0.3,0.2,0.6,0.5,0.7c0.3,0.1,0.5,0.2,0.8,0.4c0.2,0.1,0.3,0.2,0.5,0.3
		c0.3,0.3,0.2,1-0.3,1.3c-0.6,0.4-1.3,0.2-1.4-0.4C500.3,607.5,500.2,607.5,500.2,607.4z M523.8,599.4
		C523.8,599.4,523.8,599.4,523.8,599.4c0-0.1,0.1-0.1,0.1-0.2c0-0.2,0-0.4,0-0.6c0-0.1,0-0.1-0.1-0.1c-0.3,0-0.6,0.1-0.8,0.1
		c-0.7,0.2-1,0.9-0.7,1.6c0.1,0.2,0.2,0.4,0.5,0.6c0.2,0.1,0.4,0.2,0.6,0.3c0.1,0.1,0.3,0.1,0.4,0.2c0.3,0.3,0.2,0.9-0.1,1.1
		c-0.5,0.3-1,0.1-1.1-0.4c0-0.1,0-0.1,0-0.2c0,0,0,0,0,0c0,0.1,0,0.1,0,0.2c0,0.2,0,0.4,0,0.7c0,0.2,0.1,0.2,0.2,0.2
		c0.4,0,0.8-0.1,1.2-0.3c0.1-0.1,0.2-0.2,0.3-0.3c0.5-0.6,0.5-1.5-0.1-1.9c-0.2-0.2-0.4-0.2-0.7-0.4c-0.2-0.1-0.3-0.1-0.5-0.3
		c-0.2-0.2-0.2-0.5-0.1-0.7c0.2-0.3,0.4-0.4,0.7-0.4c0.3,0,0.4,0.2,0.5,0.4C523.8,599.4,523.8,599.4,523.8,599.4z M508.2,608.2
		C508.2,608.2,508.2,608.2,508.2,608.2c0.1,0,0.1,0,0.1,0c0.7-0.6,1.2-1.2,1.3-2.1c0-0.4,0-0.8-0.1-1.2c-0.1-0.9-0.1-1.7-0.2-2.6
		c0-0.2,0-0.3,0.3-0.4c0.1,0,0.1-0.1,0.2-0.1c0,0,0,0,0-0.1c-0.6,0.2-1.1,0.3-1.7,0.4c0,0,0.1,0,0.1,0c0.4,0,0.4,0,0.5,0.4
		c0.1,0.7,0.1,1.3,0.1,2c0,0.7,0.1,1.4,0.1,2.1C508.9,607.2,508.7,607.7,508.2,608.2C508.2,608.2,508.2,608.2,508.2,608.2z
		 M490.1,606.3C490.1,606.4,490.1,606.4,490.1,606.3c0,0.1,0.1,0.1,0.1,0.1c0.4-0.1,0.5,0,0.5,0.4c0,0.7,0,1.4,0.1,2.1
		c0,0.7,0,1.4,0,2.1c0,0.7-0.2,1.3-0.8,1.9c0,0,0,0.1-0.1,0.1c0.1,0,0.1,0,0.2-0.1c0.9-0.7,1.5-1.4,1.6-2.4c0-0.2,0-0.5,0-0.7
		c0-1-0.1-2-0.1-3c0-0.2,0-0.3,0-0.5c0-0.2,0.1-0.3,0.3-0.4c0.1,0,0.1-0.1,0.2-0.1c0,0,0,0,0-0.1C491.5,606,490.8,606.2,490.1,606.3
		z M515.2,608.6c-0.3-0.6-0.7-1.1-1-1.6c0,0,0,0-0.1,0c0,0.1,0,0.1,0,0.2c0,0.6-0.1,1.3-0.1,1.9c0,0.2,0,0.4-0.2,0.5
		c0.2-0.1,0.4-0.1,0.6-0.2c-0.1-0.1-0.2-0.1-0.2-0.2c0-0.4,0-0.9,0-1.3c0,0,0,0,0,0c0.3,0.4,0.5,0.9,0.8,1.3c0,0,0,0,0.1,0
		c0.2-0.6,0.4-1.2,0.5-1.7c0,0,0,0,0,0c0.1,0.5,0.2,1,0.3,1.5c0.2-0.1,0.4-0.1,0.7-0.2c-0.3,0-0.3,0-0.4-0.4
		c-0.1-0.6-0.3-1.2-0.4-1.7c0-0.1,0-0.1-0.1-0.2c0,0,0,0-0.1,0C515.7,607.2,515.5,607.9,515.2,608.6z M507.7,611.2
		C507.7,611.3,507.7,611.3,507.7,611.2c0.1,0,0.2,0,0.3,0c0.3-0.1,0.7-0.1,1-0.2c0.6-0.2,0.9-0.6,1-1.2c0.2-0.9-0.3-1.4-1.1-1.3
		c-0.5,0.1-1,0.2-1.4,0.4c0,0,0,0,0,0c0.3,0,0.3,0,0.3,0.3c0,0.6,0.1,1.1,0.1,1.7C508,611,508,611.2,507.7,611.2z M498.6,610.6
		c0,0.1-0.1,0.2-0.1,0.3c-0.3,0.9-0.5,1.8-0.8,2.6c-0.1,0.3-0.1,0.6-0.5,0.7c0.3-0.1,0.6-0.2,1-0.3c-0.1,0-0.3,0-0.3-0.2
		c0.1-0.3,0.2-0.6,0.2-0.9c0.2-0.1,0.4-0.1,0.6-0.2c0.1,0,0.1,0,0.2,0c0.1,0,0.1,0,0.2,0.1c0.1,0.2,0.2,0.4,0.3,0.6
		c0,0.1,0,0.1,0,0.2c0.3-0.1,0.6-0.2,0.9-0.3c-0.3,0.1-0.4-0.1-0.5-0.3c0,0,0-0.1-0.1-0.1c-0.3-0.7-0.6-1.4-1-2.1
		C498.7,610.8,498.6,610.7,498.6,610.6z M505,612c-0.2,0-0.2-0.1-0.2-0.3c0-0.1,0.1-0.2,0.1-0.3c0-0.2,0.1-0.3,0.3-0.3
		c0.2,0,0.4-0.2,0.5-0.1c0.1,0,0.2,0.3,0.2,0.4c0,0.1,0.1,0.2,0.1,0.3c0.2-0.1,0.5-0.1,0.7-0.2c-0.3,0-0.3-0.1-0.4-0.3
		c-0.3-0.6-0.6-1.2-0.9-1.8c0-0.1-0.1-0.1-0.1-0.2c0,0.1-0.1,0.2-0.1,0.3c-0.2,0.7-0.4,1.4-0.6,2.1c-0.1,0.2-0.1,0.5-0.4,0.6
		C504.5,612.2,504.8,612.1,505,612z M511.9,608.9c0.3,0,0.6-0.3,0.7,0.1c0-0.2,0-0.3,0-0.5c-0.2,0.1-0.5,0.2-0.7,0.2
		c0-0.3,0-0.6-0.1-0.9c0.5-0.2,0.6-0.2,0.7,0.1c0-0.2,0-0.4,0-0.5c-0.5,0.1-1,0.3-1.4,0.4c0.3,0,0.3,0,0.3,0.4c0,0.5,0.1,1,0.1,1.5
		c0,0.2,0.1,0.4-0.2,0.5c0,0,0.1,0,0.1,0c0.4-0.1,0.9-0.2,1.3-0.3c0,0,0.1-0.1,0.1-0.1c0-0.2,0-0.3,0-0.5c-0.1,0.3-0.2,0.4-0.5,0.4
		c-0.1,0-0.1,0-0.2,0c-0.1,0-0.2,0-0.2-0.2C512,609.4,511.9,609.2,511.9,608.9z M503.2,610.7c0-0.2,0-0.4,0-0.7
		c-0.4,0.1-0.7,0.1-1.1,0.2c-0.6,0.2-1.1,0.8-1.1,1.5c0,0.7,0.4,1.2,1,1.2c0.3,0,0.6-0.1,0.9-0.2c0.3-0.1,0.4-0.5,0.3-0.7
		c-0.1,0.2-0.1,0.5-0.4,0.6c-0.5,0.2-1,0.1-1.2-0.4c-0.1-0.3-0.1-0.6-0.1-0.9c0.1-0.5,0.3-0.7,0.8-0.9
		C502.8,610.2,503,610.3,503.2,610.7z M518.6,605.9c0.1,0,0.1,0.1,0.1,0.2c-0.1,0.3-0.2,0.6-0.3,1c-0.2-0.3-0.3-0.5-0.5-0.7
		c-0.1-0.1-0.1-0.2,0-0.3c-0.3,0.1-0.5,0.1-0.7,0.2c0.3,0.1,0.3,0.1,0.5,0.3c0.1,0.1,0.1,0.2,0.2,0.3c0.3,0.3,0.4,0.6,0.4,1
		c0,0.2,0.1,0.4-0.2,0.5c0.3-0.1,0.6-0.2,0.9-0.2c-0.1,0-0.1,0-0.2,0c-0.1,0-0.1,0-0.1-0.1c0-0.3-0.1-0.6-0.1-0.9
		c0.1-0.5,0.2-1.1,0.7-1.5C519,605.8,518.8,605.9,518.6,605.9z M519.9,606.9c1.4-0.4,2.8-0.8,4.2-1.1c0,0,0,0,0,0
		c-1.4,0.3-2.8,0.6-4.2,0.9C519.9,606.7,519.9,606.8,519.9,606.9z M490.4,614.8C490.4,614.8,490.4,614.8,490.4,614.8
		c2-0.5,4-1.1,5.9-1.6c0-0.1,0-0.2,0-0.3C494.4,613.5,492.4,614.2,490.4,614.8z"/>
	<path class="st26" d="M519.1,603.9c-0.4,0.1-0.9,0.2-1.3,0.3c0-0.2,0-0.3,0-0.4c-0.2-0.8-0.3-1.5-0.5-2.3c0,0.1-0.1,0.1-0.1,0.2
		c-0.3,0.9-0.5,1.8-0.8,2.7c0,0,0,0.1,0,0.1c0,0.1-0.1,0.1-0.1,0.2c-0.1,0-0.1-0.1-0.2-0.1c-0.4-0.7-0.9-1.5-1.3-2.2
		c0,0,0-0.1-0.1-0.1c0,0.1,0,0.2,0,0.3c0,0.6,0,1.3,0,1.9c0,0.1,0,0.1,0,0.2c0,0.2,0.1,0.3,0.2,0.2c0.1,0,0.1,0,0.2,0
		c-0.8,0.2-1.6,0.5-2.4,0.6c0.2-0.1,0.1-0.2,0-0.4c-0.1-0.3-0.3-0.6-0.4-0.9c0-0.1-0.1-0.1-0.2-0.1c-0.4,0.1-0.7,0.2-1.1,0.3
		c-0.1,0-0.1,0.1-0.1,0.1c-0.1,0.3-0.2,0.6-0.2,1c-0.1,0.3,0,0.3,0.3,0.3c0,0,0.1,0,0.1,0c0,0-0.1,0.1-0.1,0.1
		c-0.4,0.1-0.8,0.2-1.2,0.3c0,0-0.1,0-0.1,0c0,0,0.1-0.1,0.1-0.1c0.3-0.1,0.4-0.3,0.5-0.6c0.3-1.2,0.6-2.3,1-3.4
		c0.1-0.2,0.1-0.4,0.2-0.6c0-0.1,0.1-0.2,0.1-0.3c0.1,0.1,0.1,0.1,0.2,0.2c0.3,0.6,0.6,1.2,0.9,1.9c0.2,0.4,0.4,0.9,0.7,1.3
		c0.1,0.2,0.2,0.3,0.3,0.4c0.1,0.1,0.2,0.1,0.4,0.1c0.2-0.1,0.2-0.2,0.2-0.4c0-0.8,0.1-1.5,0.1-2.2c0-0.6,0.1-1.1,0.1-1.7
		c0-0.1,0-0.1,0.1-0.2c0.1,0,0.1,0.1,0.2,0.1c0.4,0.7,0.8,1.3,1.2,2c0.2,0.3,0.3,0.5,0.5,0.8c0.2-0.6,0.3-1.1,0.5-1.7
		c0.2-0.6,0.3-1.1,0.5-1.7c0,0,0-0.1,0-0.1c0-0.1,0.1-0.1,0.1-0.1c0,0,0.1,0.1,0.1,0.1c0.1,0.3,0.1,0.6,0.2,0.8
		c0.2,0.9,0.4,1.7,0.6,2.6C518.5,603.8,518.6,603.9,519.1,603.9C519,603.8,519,603.8,519.1,603.9
		C519.1,603.9,519.1,603.9,519.1,603.9z M511.1,604.1c0.4-0.1,0.7-0.2,1.1-0.3c-0.2-0.5-0.4-0.9-0.7-1.4c-0.1,0.5-0.2,1-0.4,1.5
		C511.1,603.9,511.1,604,511.1,604.1z"/>
	<path class="st26" d="M521.2,599.1c0,0.3,0,0.6,0,0.8c0,0,0,0-0.1,0c0,0,0-0.1,0-0.1c0-0.2-0.1-0.3-0.3-0.3c-0.3,0-0.5,0.1-0.8,0.2
		c0,0.5,0.1,0.9,0.1,1.4c0.4-0.2,0.8-0.1,1.2-0.5c0,0.3,0,0.6,0,1c0,0,0,0-0.1,0c0-0.1,0-0.1,0-0.2c0-0.2-0.1-0.3-0.3-0.2
		c-0.3,0.1-0.5,0.1-0.8,0.2c0,0,0,0.1,0,0.1c0,0.4,0.1,0.8,0.1,1.2c0,0.4,0.1,0.4,0.5,0.4c0.2,0,0.3-0.1,0.5-0.1
		c0.2-0.1,0.3-0.2,0.3-0.5c0-0.1,0-0.1,0-0.2c0,0,0,0,0,0c0,0,0,0.1,0,0.1c0,0.2,0,0.4,0,0.6c0,0.1-0.1,0.2-0.2,0.2
		c-0.6,0.1-1.2,0.3-1.7,0.4c-0.2,0-0.3,0.1-0.5,0.1c0,0,0,0,0-0.1c0,0,0.1-0.1,0.1-0.1c0.2,0,0.2-0.2,0.2-0.3c0-0.2,0-0.4,0-0.6
		c-0.1-0.9-0.2-1.8-0.3-2.7c0-0.4-0.1-0.4-0.4-0.4c0,0-0.1,0-0.1-0.1c0.1,0,0.1,0,0.2-0.1c0.6-0.1,1.2-0.3,1.7-0.4
		C520.8,599.2,521,599.2,521.2,599.1z"/>
	<path class="st27" d="M503,603.4c0.1,0,0.2,0,0.2-0.1c0.7-0.2,1.4-0.3,2.2-0.5c0.1,0,0.3-0.1,0.5-0.2c0,0.3,0,0.6,0,0.9
		c0,0,0,0-0.1,0c0,0,0-0.1,0-0.1c0-0.3-0.1-0.4-0.4-0.3c-0.3,0-0.5,0.1-0.8,0.2c0,0-0.1,0.1-0.1,0.1c0,0.5,0.1,1,0.1,1.5
		c0.5-0.2,1-0.1,1.4-0.5c0,0.4,0,0.7,0,1c0,0,0,0-0.1,0c0-0.1,0-0.1,0-0.2c0-0.1-0.1-0.2-0.3-0.2c-0.3,0-0.7,0.1-1,0.2
		c0,0.2,0,0.3,0,0.5c0,0.3,0,0.7,0.1,1c0,0.3,0.2,0.4,0.5,0.4c0.2,0,0.4-0.1,0.6-0.2c0.3-0.1,0.4-0.2,0.4-0.5c0-0.1,0-0.1,0-0.2
		c0,0,0,0,0.1,0c0,0.1,0,0.3,0,0.4c0,0.7,0,0.6-0.6,0.7c-0.7,0.2-1.4,0.3-2.1,0.5c-0.1,0-0.1,0-0.2,0c0,0,0,0,0-0.1
		c0,0,0.1-0.1,0.1-0.1c0.2-0.1,0.3-0.2,0.3-0.4c0-0.1,0-0.3,0-0.4c-0.1-1.1-0.1-2.1-0.2-3.2c0-0.4-0.1-0.4-0.5-0.4
		C503.1,603.4,503,603.4,503,603.4C503,603.4,503,603.4,503,603.4z"/>
	<path class="st27" d="M492.5,605.8c0.1,0,0.2-0.1,0.3-0.1c0.8-0.2,1.6-0.4,2.4-0.5c0.2,0,0.3-0.1,0.5-0.2c0,0.3,0,0.7-0.1,1
		c0,0-0.1,0-0.1,0c0,0,0-0.1,0-0.1c0-0.2-0.1-0.3-0.4-0.3c-0.3,0.1-0.7,0.2-1.1,0.2c0,0.5,0,1.1,0.1,1.7c0.5-0.2,1-0.1,1.6-0.6
		c0,0.4,0,0.8-0.1,1.1c0,0-0.1,0-0.1,0c0-0.1,0-0.1,0-0.2c0-0.2-0.1-0.3-0.3-0.2c-0.3,0.1-0.7,0.2-1.1,0.3c0,0.2,0,0.4,0,0.5
		c0,0.3,0,0.7,0,1c0,0.3,0.2,0.4,0.5,0.4c0.2,0,0.5-0.1,0.7-0.2c0.3-0.1,0.4-0.2,0.5-0.5c0-0.1,0-0.1,0-0.2c0,0,0,0,0.1,0
		c0,0.1,0,0.1,0,0.2c0,0.2,0,0.4,0,0.6c0,0.2-0.1,0.3-0.3,0.3c-0.7,0.2-1.5,0.4-2.2,0.5c-0.2,0-0.3,0.1-0.5,0.1c-0.1,0-0.1,0-0.2,0
		c0,0,0,0,0-0.1c0.1,0,0.1-0.1,0.2-0.1c0.2-0.1,0.3-0.2,0.3-0.3c0-0.2,0-0.3,0-0.5c0-1.1-0.1-2.3-0.1-3.4c0-0.4-0.1-0.4-0.5-0.4
		C492.6,605.9,492.6,605.8,492.5,605.8C492.5,605.8,492.5,605.8,492.5,605.8z"/>
	<path class="st27" d="M496.8,608.3c0,0.1,0,0.1,0,0.2c0.1,0.7,0.8,0.9,1.4,0.5c0.5-0.3,0.6-1,0.3-1.3c-0.1-0.1-0.3-0.2-0.4-0.3
		c-0.3-0.1-0.6-0.2-0.8-0.4c-0.3-0.1-0.4-0.4-0.5-0.7c-0.2-0.8,0.3-1.5,1.1-1.8c0.4-0.1,0.7-0.1,1.1-0.2c0.1,0,0.2,0,0.2,0.2
		c0,0.2,0,0.4,0,0.6c0,0.1,0,0.2,0,0.2c0,0,0,0-0.1,0c0-0.1,0-0.1,0-0.2c-0.1-0.4-0.5-0.6-1-0.4c-0.4,0.2-0.7,0.5-0.6,0.9
		c0,0.2,0.2,0.3,0.3,0.4c0.2,0.1,0.4,0.2,0.6,0.3c0.3,0.1,0.5,0.2,0.7,0.4c0.6,0.5,0.5,1.5-0.2,2.1c-0.1,0.1-0.2,0.2-0.4,0.3
		c-0.5,0.3-1,0.4-1.6,0.4c-0.2,0-0.2-0.1-0.2-0.2c0-0.3,0-0.5,0-0.8C496.7,608.4,496.7,608.4,496.8,608.3
		C496.8,608.3,496.8,608.3,496.8,608.3z"/>
	<path class="st27" d="M500.2,607.4c0,0.1,0,0.1,0,0.2c0.1,0.6,0.8,0.8,1.4,0.4c0.5-0.3,0.6-0.9,0.3-1.3c-0.1-0.1-0.3-0.2-0.5-0.3
		c-0.3-0.1-0.5-0.2-0.8-0.4c-0.3-0.2-0.5-0.4-0.5-0.7c-0.1-0.7,0.3-1.4,1.1-1.7c0.3-0.1,0.7-0.1,1.1-0.2c0.1,0,0.2,0,0.2,0.2
		c0,0.2,0,0.4,0,0.6c0,0.1,0,0.1,0,0.2c0,0,0,0-0.1,0c0-0.1,0-0.1,0-0.2c-0.1-0.3-0.3-0.5-0.6-0.5c-0.3,0-0.7,0.1-0.9,0.4
		c-0.2,0.3-0.2,0.7,0.1,0.8c0.2,0.1,0.4,0.2,0.5,0.3c0.3,0.1,0.6,0.2,0.8,0.4c0.6,0.5,0.6,1.5,0,2.2c-0.1,0.1-0.2,0.2-0.4,0.3
		c-0.5,0.3-1,0.4-1.5,0.3c-0.2,0-0.3-0.1-0.2-0.3c0-0.3,0-0.5,0-0.8C500.1,607.5,500.2,607.5,500.2,607.4
		C500.2,607.4,500.2,607.4,500.2,607.4z"/>
	<path class="st27" d="M523.8,599.4c0,0,0-0.1,0-0.1c-0.1-0.3-0.2-0.4-0.5-0.4c-0.3,0-0.5,0.1-0.7,0.4c-0.2,0.2-0.1,0.6,0.1,0.7
		c0.1,0.1,0.3,0.2,0.5,0.3c0.2,0.1,0.5,0.2,0.7,0.4c0.6,0.4,0.6,1.3,0.1,1.9c-0.1,0.1-0.2,0.2-0.3,0.3c-0.4,0.2-0.8,0.3-1.2,0.3
		c-0.1,0-0.2-0.1-0.2-0.2c0-0.2,0-0.5,0-0.7c0,0,0-0.1,0-0.2c0,0,0,0,0,0c0,0.1,0,0.1,0,0.2c0.1,0.6,0.7,0.8,1.1,0.4
		c0.4-0.3,0.4-0.8,0.1-1.1c-0.1-0.1-0.2-0.2-0.4-0.2c-0.2-0.1-0.4-0.2-0.6-0.3c-0.2-0.1-0.4-0.3-0.5-0.6c-0.2-0.7,0.1-1.3,0.7-1.6
		c0.3-0.1,0.6-0.1,0.8-0.1c0.1,0,0.1,0,0.1,0.1c0,0.2,0,0.4,0,0.6C523.9,599.3,523.9,599.4,523.8,599.4
		C523.8,599.4,523.8,599.4,523.8,599.4z"/>
	<path class="st26" d="M508.2,608.2C508.2,608.2,508.2,608.2,508.2,608.2c0.5-0.5,0.7-1,0.7-1.6c0-0.7-0.1-1.4-0.1-2.1
		c0-0.7-0.1-1.3-0.1-2c0-0.4-0.1-0.4-0.5-0.4c0,0-0.1,0-0.1,0c0.6-0.2,1.2-0.3,1.7-0.4c0,0,0,0,0,0.1c-0.1,0-0.1,0.1-0.2,0.1
		c-0.2,0.1-0.3,0.2-0.3,0.4c0.1,0.9,0.1,1.7,0.2,2.6c0,0.4,0.1,0.8,0.1,1.2c0,0.9-0.6,1.5-1.3,2.1
		C508.3,608.2,508.3,608.2,508.2,608.2C508.2,608.2,508.2,608.2,508.2,608.2z"/>
	<path class="st26" d="M490.1,606.3c0.7-0.2,1.4-0.3,2-0.5c0,0,0,0,0,0.1c-0.1,0-0.1,0.1-0.2,0.1c-0.3,0.1-0.3,0.2-0.3,0.4
		c0,0.2,0,0.3,0,0.5c0,1,0.1,2,0.1,3c0,0.2,0,0.5,0,0.7c-0.1,1-0.7,1.7-1.6,2.4c0,0-0.1,0-0.2,0.1c0-0.1,0-0.1,0.1-0.1
		c0.7-0.6,0.8-1.2,0.8-1.9c0-0.7,0-1.4,0-2.1c0-0.7,0-1.4-0.1-2.1c0-0.4-0.1-0.4-0.5-0.4C490.2,606.4,490.1,606.4,490.1,606.3
		C490.1,606.4,490.1,606.4,490.1,606.3z"/>
	<path class="st28" d="M515.2,608.6c0.2-0.7,0.4-1.4,0.6-2.1c0,0,0,0,0.1,0c0,0.1,0,0.1,0.1,0.2c0.1,0.6,0.3,1.2,0.4,1.7
		c0.1,0.3,0.1,0.3,0.4,0.4c-0.2,0.1-0.5,0.1-0.7,0.2c-0.1-0.5-0.2-1-0.3-1.5c0,0,0,0,0,0c-0.2,0.6-0.4,1.1-0.5,1.7c0,0,0,0-0.1,0
		c-0.3-0.4-0.5-0.9-0.8-1.3c0,0,0,0,0,0c0,0.4,0,0.9,0,1.3c0,0.1,0.1,0.1,0.2,0.2c-0.2,0.1-0.4,0.1-0.6,0.2c0.2-0.1,0.2-0.3,0.2-0.5
		c0-0.6,0.1-1.3,0.1-1.9c0-0.1,0-0.1,0-0.2c0,0,0,0,0.1,0C514.6,607.5,514.9,608,515.2,608.6z"/>
	<path class="st29" d="M507.7,611.2c0.2,0,0.3-0.2,0.2-0.4c0-0.6-0.1-1.1-0.1-1.7c0-0.3,0-0.3-0.3-0.3c0,0,0,0,0,0
		c0.5-0.1,1-0.3,1.4-0.4c0.8-0.1,1.2,0.5,1.1,1.3c-0.1,0.6-0.5,1-1,1.2c-0.3,0.1-0.6,0.2-1,0.2C508,611.2,507.9,611.3,507.7,611.2
		C507.7,611.3,507.7,611.3,507.7,611.2z M509.7,609.6c-0.1-0.7-0.5-1.1-1.2-0.9c-0.2,0.1-0.2,0.1-0.2,0.3c0,0.1,0,0.3,0,0.4
		c0,0.4,0.1,0.8,0.1,1.3c0,0.1,0,0.2,0.2,0.2c0.5,0.1,1.1-0.4,1.1-1C509.7,609.8,509.7,609.7,509.7,609.6z"/>
	<path class="st28" d="M498.6,610.6c0.1,0.1,0.1,0.2,0.1,0.2c0.3,0.7,0.6,1.4,1,2.1c0,0,0,0.1,0.1,0.1c0.1,0.2,0.2,0.4,0.5,0.3
		c-0.3,0.1-0.6,0.2-0.9,0.3c0-0.1,0-0.2,0-0.2c-0.1-0.2-0.2-0.4-0.3-0.6c0,0-0.1-0.1-0.2-0.1c0,0-0.1,0-0.2,0
		c-0.2,0.1-0.4,0.1-0.6,0.2c-0.1,0.3-0.2,0.6-0.2,0.9c0,0.2,0.1,0.1,0.3,0.2c-0.3,0.1-0.6,0.2-1,0.3c0.4-0.1,0.4-0.4,0.5-0.7
		c0.3-0.9,0.5-1.8,0.8-2.6C498.5,610.8,498.5,610.7,498.6,610.6z M498.9,612.5c-0.1-0.3-0.3-0.6-0.4-1c-0.1,0.4-0.2,0.8-0.3,1.2
		C498.4,612.6,498.7,612.5,498.9,612.5z"/>
	<path class="st28" d="M505,612c-0.3,0.1-0.5,0.1-0.8,0.2c0.3-0.1,0.3-0.4,0.4-0.6c0.2-0.7,0.4-1.4,0.6-2.1c0-0.1,0.1-0.2,0.1-0.3
		c0.1,0.1,0.1,0.1,0.1,0.2c0.3,0.6,0.6,1.2,0.9,1.8c0.1,0.2,0.2,0.3,0.4,0.3c-0.3,0.1-0.5,0.1-0.7,0.2c0-0.1-0.1-0.2-0.1-0.3
		c-0.1-0.1-0.1-0.4-0.2-0.4c-0.1,0-0.3,0.1-0.5,0.1c-0.2,0-0.3,0.1-0.3,0.3c0,0.1-0.1,0.2-0.1,0.3C504.8,612,504.8,612,505,612z
		 M505.7,610.8c-0.1-0.3-0.2-0.5-0.4-0.8c-0.1,0.4-0.2,0.7-0.3,1C505.3,610.9,505.5,610.9,505.7,610.8z"/>
	<path class="st29" d="M511.9,608.9c0,0.3,0,0.5,0.1,0.8c0,0.2,0.1,0.2,0.2,0.2c0.1,0,0.1,0,0.2,0c0.3-0.1,0.3-0.1,0.5-0.4
		c0,0.1,0,0.3,0,0.5c0,0-0.1,0.1-0.1,0.1c-0.4,0.1-0.9,0.2-1.3,0.3c0,0,0,0-0.1,0c0.3-0.1,0.2-0.3,0.2-0.5c0-0.5-0.1-1-0.1-1.5
		c0-0.3,0-0.3-0.3-0.4c0.5-0.1,0.9-0.3,1.4-0.4c0,0.1,0,0.3,0,0.5c-0.1-0.3-0.2-0.3-0.7-0.1c0,0.3,0,0.5,0.1,0.9
		c0.2-0.1,0.5-0.1,0.7-0.2c0,0.1,0,0.3,0,0.5C512.5,608.6,512.2,608.9,511.9,608.9z"/>
	<path class="st28" d="M503.2,610.7c-0.2-0.4-0.4-0.5-0.9-0.3c-0.4,0.1-0.7,0.4-0.8,0.9c-0.1,0.3,0,0.6,0.1,0.9
		c0.2,0.5,0.7,0.6,1.2,0.4c0.3-0.1,0.3-0.3,0.4-0.6c0.2,0.3,0,0.6-0.3,0.7c-0.3,0.1-0.6,0.2-0.9,0.2c-0.6,0-1-0.5-1-1.2
		c0-0.7,0.4-1.2,1.1-1.5c0.3-0.1,0.7-0.2,1.1-0.2C503.2,610.2,503.2,610.5,503.2,610.7z"/>
	<path class="st28" d="M518.6,605.9c0.2-0.1,0.4-0.1,0.6-0.2c-0.4,0.4-0.5,1-0.7,1.5c-0.1,0.3,0,0.6,0.1,0.9c0,0,0.1,0.1,0.1,0.1
		c0,0,0.1,0,0.2,0c-0.3,0.1-0.6,0.2-0.9,0.2c0.3-0.1,0.2-0.3,0.2-0.5c0-0.4-0.1-0.8-0.4-1c-0.1-0.1-0.2-0.2-0.2-0.3
		c-0.2-0.2-0.2-0.2-0.5-0.3c0.3-0.1,0.5-0.1,0.7-0.2c-0.1,0.1-0.1,0.2,0,0.3c0.2,0.2,0.3,0.5,0.5,0.7c0.1-0.3,0.2-0.6,0.3-1
		C518.7,606.1,518.7,605.9,518.6,605.9z"/>
	<path class="st29" d="M519.9,606.9c0-0.1,0-0.2,0-0.3c1.4-0.3,2.9-0.6,4.2-0.9c0,0,0,0,0,0C522.7,606.1,521.3,606.5,519.9,606.9z"
		/>
	<path class="st30" d="M490.4,614.8c2-0.7,4-1.3,5.9-1.9c0,0.1,0,0.2,0,0.3C494.4,613.8,492.4,614.3,490.4,614.8
		C490.4,614.8,490.4,614.8,490.4,614.8z"/>
</g>
<path id="circle.button" class="st31" d="M529.1,604.3c-0.9,9.9-8.9,20.4-19.3,24.3c-12.7,4.7-25.3-1.2-25.5-15.1
	c-0.2-14.9,13.6-27.9,27.5-28.2C523.1,585.2,530,593.9,529.1,604.3z"/>
<g id="jesse_james_logo.top">
	<path class="st15" d="M467.3,152.2c0-0.1-0.1-0.1-0.1-0.1c-1.3-1.1-2.6-2.3-3.9-3.4c-1-0.9-2-1.7-2.9-2.6c-0.8-0.7-1.6-1.4-2.3-2.1
		c-0.4-0.4-0.9-0.8-1.2-1.2c-0.1-0.1-0.1-0.3,0.2-0.3c0.4,0,1.1,0.1,1.6,0.3c2.1,0.7,4.3,1.5,6.4,2.2c2.8,1,5.6,2,8.5,3
		c4,1.4,8,2.8,12.2,4.2c2.5,0.8,3.6,1,5.8,1c0.4,0,0.8,0,1.3-0.1c0.2,0,0.5,0.1,0.7,0.1c0,0.1,0.1,0.2,0,0.2
		c-0.2,0.1-0.4,0.1-0.7,0.1c-2.6,0.2-5.2,0.4-7.8,0.6c-0.2,0-0.4,0-0.7,0c-0.5,0-0.7-0.1-0.8-0.3c-0.1-0.1-0.3-0.3-0.6-0.4
		c-1.9-0.7-3.9-1.4-5.9-2.1c-2.7-1-5.3-1.9-7.9-2.8c-1.7-0.6-3.4-1.2-5.2-1.8c0,0.1,0,0.1,0.1,0.1c1.3,1.1,2.6,2.3,3.9,3.4
		c1,0.9,2,1.8,3,2.7c0.8,0.7,1.6,1.4,2.3,2.1c0.6,0.5,0,0.6-1.6,0.2c-2.8-0.7-5.7-1.4-8.4-2.1c-3.1-0.8-6.1-1.6-9.1-2.4
		c-2.5-0.7-5-1.3-7.4-2c-0.2,0-0.4-0.1-0.9-0.2c0.5,0.3,0.9,0.5,1.3,0.7c3.8,1.9,7.6,3.9,11.6,6c0.2,0.1,0.4,0.2,0.6,0.3
		c1,0.5,1.5,0.6,2.6,0.6c0.6,0,1,0,1.6,0c0.2,0,0.6,0.1,0.8,0.1c0,0.1,0,0.2-0.1,0.2c0,0-0.2,0-0.4,0c-3.9,0.4-7.8,0.7-11.7,1.1
		c-1.3,0.1-2.6,0.2-3.9,0.3c-0.2,0-0.5,0-0.8,0c0-0.1,0.1-0.1,0-0.2c-0.1-0.1-0.2-0.3-0.5-0.4c-2.7-0.8-5.4-1.6-8-2.4
		c-0.1,0-0.2-0.1-0.3-0.1c-1.5-0.6-2.5-0.6-3.7-0.5c-2.2,0.3-4.5,0.5-6.9,0.7c-0.7,0.1-0.8,0.2-0.4,0.5c0.8,0.7,1.5,1.3,2.2,2
		c0.4,0.3,0.7,0.7,1.2,1c0.6,0.4,1.2,0.5,2.1,0.5c0.5,0,0.9-0.1,1.3-0.1c0.2,0,0.6,0.1,0.9,0.1c-0.1,0.1-0.1,0.2-0.2,0.2
		c0,0-0.2,0-0.3,0c-2.6,0.3-5.3,0.5-8,0.8c-0.3,0-0.7,0-1,0c-0.1,0-0.4-0.1-0.6-0.1c0-0.1,0-0.2,0.1-0.2c0.2-0.1,0.4-0.1,0.7-0.1
		c1.5-0.2,1.9-0.6,1.2-1.4c-1.2-1.2-2.4-2.4-3.5-3.6c-1-1-1.9-1.9-2.8-2.9c-0.8-0.8-1.6-1.7-2.4-2.5c-0.9-0.9-1.7-1.8-2.6-2.6
		c-0.1-0.1-0.1-0.3-0.1-0.4c0.1-0.2,0.5-0.1,1.1,0c0.3,0.1,0.7,0.2,1,0.3c3,0.9,6,1.8,9,2.6c2.8,0.8,5.6,1.6,8.4,2.5
		c2.2,0.6,4.4,1.3,6.7,1.9c2.3,0.7,4.7,1.4,7.1,2c1,0.3,2.2,0.5,3.3,0.8c1.5,0.3,2.7,0.4,3.6,0.3c0.9-0.1,1-0.3,0-0.9
		c-1.4-0.8-2.7-1.6-4.2-2.4c-3.3-1.8-6.5-3.5-9.6-5.2c-2-1.1-3.9-2.2-5.8-3.3c-0.3-0.2-0.2-0.3-0.4-0.5c0.5,0.1,1.1,0.1,1.6,0.2
		c0.4,0.1,0.8,0.2,1.3,0.3c3.5,0.9,7.1,1.9,10.7,2.8c2.3,0.6,4.7,1.2,7,1.8c2.6,0.7,5.2,1.4,7.8,2
		C465.4,151.8,466.3,152,467.3,152.2z M421.3,149.2c1.7,1.6,3.3,3.1,5,4.6c2.6-0.2,5.1-0.5,7.7-0.7
		C429.7,151.8,425.6,150.5,421.3,149.2z"/>
	<path class="st15" d="M290.1,157.7c0.4-0.1,0.7-0.1,1.1-0.1c3.4-0.3,6.8-0.6,10.2-0.9c2.1-0.2,4.3-0.4,6.3-0.6
		c0.8-0.1,1.5-0.2,2.3-0.4c0.1,0.1,0.3,0.1,0.3,0.2c0.7,0.7,1.4,1.3,2.2,2c0.1,0.1,0.2,0.2,0.2,0.2c0,0.1-0.1,0.1-0.2,0.2
		c-0.1-0.1-0.3-0.1-0.4-0.2c-1.5-0.7-2-1.1-4.2-1c-2.2,0.1-4.4,0.3-6.6,0.5c-0.2,0-0.3,0.2-0.2,0.2c1.7,1.4,3.5,2.8,5.3,4.3
		c0,0,0.1,0.1,0.3,0.1c2.7-0.3,5.4-0.6,8.1-0.9c0.4,0,0.6-0.3,0.9-0.4c0.1-0.1,0.3-0.1,0.5-0.1c0.2,0.1,0.4,0.2,0.5,0.3
		c0.5,0.5,1,0.9,1.5,1.4c0.3,0.3,0.7,0.6,1.1,0.9c0.1,0.1,0.3,0.2,0.3,0.3c0,0.1-0.1,0.2-0.3,0.2c-0.1,0-0.4-0.1-0.5-0.2
		c-1.9-1.1-2.3-1.2-4.8-1c-2,0.2-4,0.4-6,0.5c0.1,0.1,0.1,0.1,0.2,0.2c1.6,1.3,3.3,2.6,5,4c0.3,0.3,0.7,0.5,1.2,0.8
		c0.7,0.4,1.5,0.6,2.4,0.6c2.8,0.1,5.2-0.2,7.4-0.6c1.3-0.3,1.5-0.8,0.9-1.5c-0.1-0.1-0.3-0.2-0.3-0.4c0-0.1,0.1-0.2,0.1-0.2
		c0.2,0.1,0.5,0.1,0.6,0.2c0.3,0.2,0.6,0.5,0.9,0.7c0.5,0.5,1.1,1,1.5,1.5c0.5,0.6,0.4,0.7-0.8,0.8c-1.4,0.1-2.8,0.3-4.3,0.4
		c-4.8,0.4-9.6,0.9-14.4,1.3c-0.4,0-1,0.2-1.4-0.1c-0.4-0.3,0.4-0.3,0.8-0.3c1.7-0.3,2-0.5,0.9-1.4c-3.3-2.8-6.6-5.5-9.7-8.2
		c-0.9-0.8-1.9-1.5-2.8-2.3c-1.2-1-1.8-1.1-4.4-1c-0.5,0-0.9,0-1.4,0.1C290.2,157.9,290.2,157.8,290.1,157.7z"/>
	<path class="st15" d="M357.7,151.8c0.4-0.1,0.7-0.1,1.1-0.2c4.9-0.4,9.8-0.8,14.6-1.3c1-0.1,1.9-0.3,2.9-0.4c0.1,0,0.2,0.1,0.4,0.2
		c1,0.6,2,1.3,2.9,1.9c0.1,0.1,0.2,0.1,0.2,0.2c0,0.1-0.1,0.1-0.1,0.1c-0.2,0-0.4-0.1-0.5-0.1c-0.6-0.2-1-0.4-1.6-0.6
		c-1.2-0.4-2.3-0.3-3.2-0.3c-2,0.1-3.9,0.3-5.8,0.4c-0.2,0-0.3,0.1-0.2,0.2c2.3,1.3,4.6,2.7,6.9,4.1c0.2,0,0.2,0,0.3,0
		c2.4-0.2,4.9-0.5,7.3-0.7c0.5-0.1,0.7-0.3,1-0.4c0.1,0,0.2-0.1,0.3-0.1c0.2,0.1,0.5,0.2,0.6,0.2c0.7,0.5,1.4,0.9,2.1,1.4
		c0.5,0.3,1.1,0.6,1.5,0.9c0.2,0.1,0.1,0.2,0.1,0.3c-0.3-0.1-0.7-0.2-0.9-0.3c-1.6-0.8-2.7-1-4.5-0.9c-2,0.2-4,0.4-6,0.6
		c0.1,0,0.2,0.1,0.3,0.2c2.1,1.2,4.2,2.5,6.4,3.7c0.2,0.1,0.4,0.2,0.6,0.3c1.3,0.7,2.3,1,3.9,1c2.9,0,5.4-0.2,7.1-0.8
		c0.4-0.1,0.2-0.5,0.1-0.8c-0.1-0.2-0.6-0.5-0.8-0.7c-0.1-0.1,0-0.1,0-0.2c0.2,0.1,0.5,0.1,0.7,0.2c0.2,0.1,0.3,0.1,0.4,0.2
		c1,0.6,2,1.3,2.9,1.9c0.6,0.5,0.5,0.6-0.4,0.7c-1.7,0.2-3.4,0.3-5.2,0.5c-2.6,0.2-5.2,0.4-7.7,0.6c-1.7,0.1-3.2,0.4-4.8,0.5
		c-0.2,0-0.4,0.1-0.6,0c-0.2,0-0.5-0.1-0.8-0.1c0-0.1,0-0.2,0.2-0.2c0.3-0.1,0.8-0.1,1.2-0.2c0.8-0.1,0.8-0.4,0.3-0.7
		c-0.6-0.4-1.2-0.9-1.9-1.3c-5.3-3.2-10.4-6.2-15.4-9.2c-1.2-0.7-2-0.8-4.2-0.8c-0.5,0-1,0-1.5,0.1
		C357.8,151.9,357.7,151.8,357.7,151.8z"/>
	<path class="st15" d="M466.4,142.1c0.2,0,0.5-0.1,0.8-0.1c2.9-0.2,5.8-0.5,8.6-0.7c1.8-0.2,3.5-0.3,5.2-0.5
		c0.8-0.1,1.4-0.2,2.1-0.3c0.2,0.1,0.4,0.1,0.6,0.2c1.3,0.5,2.6,1.1,3.8,1.6c0.2,0.1,0.3,0.1,0.3,0.2c0,0.1,0,0.1,0,0.2
		c-0.2-0.1-0.5-0.1-0.7-0.2c-1.8-0.6-2.9-0.8-4.4-0.8c-2,0.1-3.9,0.3-5.8,0.4c-0.2,0-0.2,0.1,0,0.2c2.9,1.2,6,2.3,9,3.5
		c0.1,0,0.2,0,0.3,0.1c0.1,0,0.3,0,0.5,0c2-0.2,4.1-0.4,6.1-0.6c0.5-0.1,0.8-0.2,0.7-0.4c0-0.1,0.1-0.1,0.2-0.1
		c0.2,0.1,0.5,0.1,0.7,0.2c1.7,0.7,3.5,1.4,5.2,2.2c0.2,0.1,0.1,0.2,0.2,0.2c-0.3-0.1-0.6-0.1-0.8-0.2c-0.4-0.1-0.8-0.3-1.2-0.4
		c-1-0.3-1.9-0.5-2.7-0.4c-1.5,0.1-3,0.2-4.5,0.3c-0.7,0-1.4,0.1-2.1,0.2c0.2,0.1,0.4,0.2,0.6,0.2c2.8,1.1,5.6,2.2,8.4,3.3
		c0.5,0.2,1,0.4,1.6,0.6c1.2,0.4,2.4,0.6,3.4,0.6c2.5,0,4.5-0.2,6-0.5c0.9-0.2,0.6-0.7-0.7-1.3c-0.3-0.1-0.4-0.3-0.6-0.4
		c0.5,0.1,1.1,0.3,1.5,0.4c1.2,0.5,2.4,1,3.6,1.5c1,0.5,1.1,0.6,0.1,0.7c-1.8,0.2-3.6,0.3-5.4,0.5c-3.4,0.3-6.8,0.6-10.3,1
		c-0.3,0-0.5,0.1-0.8,0.1c-0.2,0-0.5-0.1-0.8-0.1c0-0.1-0.1-0.1,0-0.2c0.2-0.1,0.4-0.1,0.7-0.1c1.2-0.1,0.8-0.6-0.5-1.1
		c-1.5-0.6-3-1.2-4.5-1.9c-5.9-2.4-11.7-4.6-17.2-6.8c-2.1-0.9-3.5-1-5.3-0.9c-0.4,0-0.8,0-1.2,0
		C466.6,142.2,466.5,142.2,466.4,142.1z"/>
	<path class="st15" d="M331.1,166.9c-0.6-0.5-1.3-1-1.8-1.5c-0.2-0.1-0.1-0.3-0.1-0.5c0.3,0.1,0.6,0.2,0.9,0.3
		c1.2,0.5,2.2,1,3.5,1.5c1.8,0.6,3.7,0.7,5.4,0.7c2.3,0,4.3-0.3,5.1-1.1c0.2-0.2,0.3-0.3,0.3-0.5c0-1-2.4-2.5-5.5-3
		c-2.5-0.4-5-0.7-7.5-1.1c-3-0.4-5.9-0.9-8.4-2c-1.4-0.6-2.5-1.2-3-1.9c-0.6-0.8-0.5-1.5,0.4-2.1c1.8-1.2,5.1-1.5,8.8-1.6
		c0.9,0,1.7,0,2.6,0c0.6,0,1,0.1,1.4,0.4c0.7,0.6,1.5,1.2,2.3,1.8c0,0,0.1,0,0.1,0.1c0.1,0.2,0.1,0.3,0.1,0.5
		c-0.3-0.1-0.7-0.2-1-0.4c-1.4-0.8-3.8-1.3-6.1-1.3c-2.4,0-4.2,0.3-5.2,1c-0.9,0.6,1.2,2.1,3.6,2.5c2.6,0.5,5.2,0.7,7.8,1
		c2.8,0.4,5.5,0.8,8.2,1.7c3,1,4.8,2.2,5.3,3.4c0.6,1.6-0.8,2.7-4.1,3.2c-2.8,0.4-5.9,0.7-9.5,0.6c-1.5-0.1-1.8-0.1-2.6-0.8
		C331.8,167.4,331.4,167.2,331.1,166.9C331.1,166.9,331.1,166.9,331.1,166.9z"/>
	<path class="st15" d="M513.3,149.6c-1.1-0.4-2.1-0.8-3.1-1.3c-0.3-0.1-0.3-0.2-0.5-0.4c0.4,0.1,0.8,0.2,1.1,0.3
		c2.4,0.8,5,1.4,7.6,1.6c2.9,0.2,5.1,0.2,6-0.3c1.3-0.7-0.5-1.7-4.3-2.7c-2.1-0.6-4.3-0.8-6.3-1c-2.4-0.3-4.7-0.5-7-0.7
		c-2.2-0.2-4.4-0.6-6.6-1.1c-2.6-0.5-6.5-1.9-7.2-2.7c-1.1-1.3,0.7-1.8,3.5-2.1c1.5-0.1,3.4-0.2,5.1-0.2c0.6,0,1.1,0.1,1.7,0.3
		c1.2,0.5,2.5,0.9,3.8,1.4c0.1,0,0.3,0.1,0.4,0.1c0.2,0.1,0.4,0.3,0.6,0.4c-0.4-0.1-0.9-0.2-1.2-0.3c-2-0.6-5.2-1.1-6.9-1.1
		c-1.9,0-3.1,0.2-3.8,0.6c-0.7,0.4,1.3,1.5,4.1,2.1c1,0.2,2,0.4,3,0.5c2.7,0.3,5.3,0.5,8,0.8c3.4,0.4,6.7,0.9,10.5,1.9
		c3.8,1,7,2.8,7.1,3.6c0.1,1-1.5,1.4-4,1.6c-1.7,0.1-3.7,0.2-5.7,0.2c-0.3,0-0.8,0-1.3-0.1c-0.8,0-1.5-0.2-2.1-0.5
		C514.8,150.2,514,149.9,513.3,149.6C513.2,149.6,513.3,149.6,513.3,149.6z"/>
	<path class="st15" d="M356.2,153.3c0.6,0.4,1.2,0.7,1.7,1.1c0.2,0.1,0,0.2,0,0.3c-0.3-0.1-0.7-0.2-0.8-0.3
		c-1.2-0.7-4.4-1.3-5.9-1.4c-2.1,0-3.7,0.2-4.9,0.6c-1.5,0.5-0.4,1.9,2.2,2.6c0.9,0.2,1.9,0.4,2.8,0.5c2.5,0.3,5,0.6,7.5,0.9
		c3.2,0.5,6.4,1.1,9,2.3c2.6,1.2,4.1,2.5,3.8,3.6c-0.3,1-1.6,1.7-3.9,2c-2.4,0.4-5,0.6-8,0.6c-2.6,0-2.9-0.1-4.5-1.2
		c-0.9-0.7-1.9-1.3-2.7-2c-0.2-0.1-0.1-0.3-0.1-0.4c0.3,0.1,0.6,0.2,0.8,0.3c0.4,0.2,0.7,0.4,1,0.5c2.2,1.1,5.4,1.7,8.2,1.6
		c1.3,0,2.6-0.2,3.6-0.4c2-0.4,2-1.8-0.6-3c-1.1-0.5-2.4-0.8-3.7-1.1c-2-0.3-3.9-0.6-5.9-0.8c-2.7-0.3-5.3-0.7-7.9-1.3
		c-3.5-0.9-6.3-2.5-6.2-3.7c0-0.9,1.2-1.5,2.9-2c2.4-0.6,5.4-0.7,8.7-0.7c0.7,0,1.1,0.1,1.5,0.4C355.4,152.7,355.8,153,356.2,153.3
		C356.2,153.3,356.2,153.3,356.2,153.3z"/>
	<path class="st15" d="M274.6,159.1c0.3-0.1,0.5-0.1,0.9-0.2c3.7-0.3,7.5-0.7,11.2-1c0.3,0,0.6,0,0.9,0c0.1,0,0.1,0.1,0.2,0.1
		c-0.1,0.1-0.3,0.1-0.4,0.2c-0.3,0.1-0.6,0.1-0.9,0.1c-1.4,0.3-1.6,0.4-0.7,1.2c1.3,1.1,2.6,2.3,3.9,3.5c2.7,2.4,5.6,4.8,8.5,7.4
		c0.7,0.7,1.2,1.4,1.6,2.1c0.7,1.3,0.1,2.3-1.1,3.3c-0.9,0.8-2.1,1.4-3.2,2.2c-0.3,0.2-0.8,0.3-1.3,0.5c-0.2,0-0.5,0-0.8,0
		c0-0.1-0.1-0.3,0-0.3c1.5-0.6,2-1.5,2.2-2.4c0.1-0.5-0.2-1.1-0.6-1.7c-0.6-0.8-1.3-1.7-2.2-2.5c-4.3-3.9-8.5-7.7-12.4-11.3
		c-0.1-0.1-0.2-0.2-0.3-0.2c-0.7-0.6-1.5-0.8-2.9-0.8c-0.5,0-1.1,0.1-1.6,0.1c-0.3,0-0.6,0-0.9,0
		C274.7,159.2,274.7,159.2,274.6,159.1z"/>
	<path class="st15" d="M392.6,148.7c0.2-0.1,0.4-0.1,0.7-0.2c3.4-0.3,6.8-0.6,10.2-0.9c0.2,0,0.6,0,0.9,0c0.1,0,0.2,0.1,0.2,0.1
		c-0.1,0.1-0.2,0.1-0.5,0.2c-2,0.3-2,0.4-0.1,1.4c5.3,2.7,10.7,5.4,16.4,8.2c1.8,0.9,3.6,1.9,4.9,2.9c1.5,1.2,1.7,2.1,1.2,3
		c-0.4,0.7-1,1.3-1.6,1.9c-0.1,0.2-0.4,0.3-0.8,0.4c-0.2,0.1-0.6,0-0.9,0.1c0-0.1-0.2-0.3-0.1-0.4c0.2-0.3,0.5-0.5,0.6-0.8
		c0.5-1.1-0.9-2.4-3.4-3.7c-1.6-0.9-3.3-1.8-5-2.7c-5.6-2.9-11.1-5.7-16.4-8.4c-1.8-0.9-2.8-1.1-4.9-1
		C393.7,148.8,393.4,148.9,392.6,148.7z"/>
	<path class="st32" d="M391,179.5c-1.9,0.2-3.8,0.4-5.6,0.6c-0.5-0.3-0.7-0.6-1.1-0.8c-1.9-1.1-3.8-2.1-5.8-3.1
		c-0.8-0.4-1.6-0.8-2.6-1.3c0.3,0.6,0.6,1.2,0.9,1.8c0.6,1.2,1.2,2.5,1.8,3.8c0.2,0.5-0.1,0.6-1.3,0.2c-0.6-0.2-1.1-0.4-1.7-0.6
		c-3.2-1.2-6.4-2.3-9.5-3.4c-0.4-0.1-0.8-0.3-1.4-0.4c1.5,1.2,2.8,2.4,4.2,3.5c0.4,0.4,0.9,0.7,1.3,1.1c0.5,0.4,1.1,0.6,1.8,0.5
		c0.3,0,0.7,0,1.1,0c0,0,0.1,0.1,0.1,0.1c-1.8,0.2-3.7,0.4-5.5,0.6c0,0-0.1-0.1-0.1-0.1c0.1,0,0.1-0.1,0.3-0.1
		c1.1-0.1,0.9-0.4,0.4-0.9c-2.3-2.1-4.5-4.1-6.7-6.1c-0.4-0.4-0.9-0.8-1.3-1.2c-0.4-0.4-0.2-0.4,0.7-0.2c0.3,0.1,0.7,0.2,1,0.3
		c1.7,0.6,3.4,1.3,5.1,1.9c2.5,0.9,5,1.8,7.6,2.7c0.4,0.2,0.9,0.3,1.5,0.4c0-0.1,0-0.1,0-0.2c-0.8-1.7-1.7-3.4-2.5-5
		c-0.2-0.4-0.3-0.8-0.5-1.2c0-0.1,0.1-0.2,0.2-0.3c0.3,0.1,0.7,0.2,0.9,0.3c1.9,1,3.7,1.9,5.6,2.9c2.3,1.2,4.7,2.4,7.2,3.7
		c1.1,0.5,1.7,0.7,2.9,0.6c0.3,0,0.7,0,1,0C390.9,179.4,390.9,179.5,391,179.5z"/>
	<path class="st33" d="M440.1,169.4c2.7-0.3,5.4-0.5,8-0.8c-1.7-0.9-3.4-1.7-5.1-2.5c-0.6-0.3-1.2-0.3-1.7-0.3c-0.4,0-0.8,0-1.1,0
		c-0.1,0-0.1-0.1-0.2-0.1c2.2-0.2,4.3-0.4,6.5-0.6c0.1,0,0.1,0,0.2,0.1c-0.2,0.1-0.4,0.1-0.7,0.2c-0.5,0.1-0.5,0.2,0,0.5
		c0.2,0.1,0.5,0.3,0.8,0.4c3.3,1.6,6.6,3.3,10.1,5c0.2,0.1,0.5,0.2,0.7,0.3c1.6,0.7,1.8,0.8,3.3,0.7c0.2,0,0.5,0,0.8,0
		c0.1,0,0.1,0.1,0.2,0.1c-2.3,0.2-4.6,0.5-6.9,0.7c-0.1,0-0.1-0.1-0.2-0.1c0.2,0,0.4-0.1,0.6-0.1c0.7-0.1,0.7-0.3,0-0.6
		c-1.9-1-3.9-1.9-5.9-2.9c-2.6,0.3-5.3,0.5-8.1,0.8c1.3,0.7,2.6,1.3,4,2c0.2,0.1,0.4,0.2,0.6,0.3c2.1,1,2.1,1,4.2,1
		c0.1,0,0.4,0,0.7,0.1c-2.3,0.2-4.6,0.5-6.9,0.7c-0.1,0-0.1-0.1-0.2-0.1c0.2-0.1,0.4-0.1,0.6-0.2c0.5-0.1,0.6-0.2,0.1-0.5
		c-0.5-0.3-0.9-0.5-1.4-0.8c-3.3-1.7-6.6-3.4-9.9-5.1c-1.2-0.6-1.6-0.7-2.9-0.6c-0.2,0-0.5,0-0.7,0c-0.1,0-0.1-0.1-0.2-0.1
		c2.2-0.2,4.4-0.4,6.6-0.6c0.1,0,0.1,0.1,0.2,0.1c-0.2,0-0.4,0.1-0.6,0.1c-0.7,0.1-0.7,0.3,0,0.6
		C436.9,167.7,438.4,168.5,440.1,169.4z"/>
	<path class="st33" d="M496.1,168.7c-0.1-0.1-0.1-0.1-0.1-0.2c0.3-0.1,0.9-0.2,0.7-0.3c-0.3-0.3-0.9-0.6-1.6-1
		c-3.8-1.7-7.5-3.3-11.2-4.9c-1.2-0.5-2-0.7-3.1-0.6c-0.2,0-0.5,0-0.7,0c-0.1,0-0.2-0.1-0.2-0.1c0.1,0,0.2-0.1,0.4-0.1
		c3-0.3,5.9-0.6,9-0.8c2.2-0.2,4.9,0,8.3,0.7c2.9,0.6,5.3,1.4,7.3,2.4c4.2,1.9,4.1,3.4,0.9,4c-1.1,0.2-2.4,0.3-3.7,0.4
		c-1.6,0.1-3.3,0.3-5,0.4C496.7,168.7,496.4,168.7,496.1,168.7z M491.8,164.4C491.8,164.4,491.8,164.4,491.8,164.4
		c2.2,0.9,4.3,1.8,6.4,2.7c0.9,0.4,1.9,0.6,2.7,0.6c1.1,0,2.2-0.1,3.1-0.2c2-0.3,2.3-1.2,0.4-2.2c-1.5-0.8-3.2-1.6-5.3-2.2
		c-1-0.3-2.2-0.7-3.3-0.9c-4.2-0.8-7.1-0.8-9.5-0.5c-0.5,0.1-0.4,0.2,0.2,0.5C488.2,162.9,489.9,163.6,491.8,164.4z"/>
	<path class="st33" d="M480,166.2c1.6,0.8,3.3,2,3.2,2.9c-0.2,1.1-2.1,1.6-4.9,1.7c-1.7,0.1-3.7,0-6-0.4c-4.9-0.8-9.4-2.3-11.6-4
		c-1.9-1.5-1.3-2.5,1.2-3c2.1-0.4,4.8-0.5,8.4-0.1c0.7,0.1,1.4,0.2,2.1,0.4C474.9,164.2,477.3,164.9,480,166.2z M477.4,166.7
		c-3.2-1.4-6.2-2.5-10-2.9c-4.4-0.5-7.8,0.2-3.8,2.5c1.5,0.9,3.3,1.7,5.8,2.4c2.3,0.7,4.5,1.2,6.8,1.4c3.7,0.3,6.4-0.3,3.5-2.1
		C478.9,167.4,477.9,167,477.4,166.7z"/>
	<path class="st33" d="M399.3,171.3c-0.2-0.1-0.4-0.2-0.5-0.2c-0.7-0.4-1.4-0.5-2.1-0.5c-1.3,0.1-2.5,0.2-3.8,0.3
		c1.5,0.9,3,1.8,4.6,2.8c1.6-0.2,3.8-0.2,4.8-0.8c0.9,0.6,1.8,1.2,2.8,1.9c-0.4-0.1-0.6-0.2-0.7-0.2c-1.4-0.6-1.6-0.7-2.9-0.6
		c-1,0.1-2,0.2-3.1,0.3c0.9,0.5,1.7,1,2.6,1.5c0.6,0.3,1.1,0.7,1.8,1c0.8,0.5,1.7,0.7,2.6,0.6c1.1-0.1,2.1-0.2,3-0.3
		c0.7-0.1,0.9-0.4,0.3-0.9c-0.1-0.1-0.2-0.2-0.2-0.3c1.1,0.5,1.9,1,2.4,1.6c0.1,0.1-0.3,0.2-0.6,0.2c-1.4,0.1-2.8,0.2-4.2,0.4
		c-1.7,0.2-3.3,0.4-5,0.5c-0.3,0-0.7,0-1,0c-0.1,0-0.2-0.1-0.2-0.1c0.2-0.1,0.3-0.1,0.6-0.2c0.6,0,0.6-0.2,0.2-0.5
		c-0.4-0.3-0.7-0.5-1.2-0.8c-3-1.8-6-3.6-8.9-5.4c-1-0.6-1.4-0.7-2.7-0.7c-0.2,0-0.5,0-0.7,0c-0.1,0-0.1-0.1-0.2-0.1
		c0.2,0,0.5-0.1,0.7-0.1c2.7-0.3,5.4-0.5,8.1-0.8c0.6-0.1,1.1-0.2,1.7-0.3c0.7,0.6,1.5,1.1,2.2,1.6
		C399.5,171.3,399.4,171.3,399.3,171.3z"/>
	<path class="st34" d="M420.5,167.4c1,0.5,1.9,1,2.8,1.5c-0.2,0-0.3,0-0.3,0c-1.5-0.7-2.7-0.7-3.8-0.6c-1,0.1-1.9,0.2-2.9,0.3
		c0.1,0.1,0.2,0.2,0.4,0.2c3.1,1.7,6.3,3.4,9.5,5.2c0.2,0.1,0.4,0.2,0.6,0.3c1.6,0.8,2.1,1.1,3.8,0.9c0.1,0,0.4,0,0.8,0.1
		c-2.4,0.2-4.7,0.5-7.1,0.7c-0.1,0-0.1-0.1-0.2-0.1c0.2,0,0.3-0.1,0.6-0.1c0.7-0.1,0.7-0.3,0.1-0.6c-1-0.6-2-1.2-3.1-1.8
		c-2.5-1.4-5-2.8-7.5-4.1c-0.2-0.1-0.4-0.2-0.8-0.4c-1.4,0.2-2.9,0.3-4.1,0.5c-0.3,0.1-0.3,0.3-0.4,0.5c0,0.1,0.2,0.2,0.2,0.3
		c-0.1,0-0.2,0-0.3,0c-0.7-0.5-1.4-1-2-1.4C411.4,168.3,416,167.9,420.5,167.4z"/>
	<path class="st35" d="M320.5,182.1c3.4-0.4,6.8-0.8,10.3-1.2c8.6-0.9,17.2-1.9,25.7-2.8c0.5-0.1,1-0.1,1.6-0.1
		c0.2,0,0.6,0.1,0.9,0.2c-0.1,0.1-0.2,0.2-0.4,0.2c-2.1,0.2-4.2,0.4-6.4,0.6c-10.2,1-20.4,2-30.8,3
		C321.2,182.1,320.9,182.1,320.5,182.1C320.6,182.1,320.5,182.1,320.5,182.1z"/>
	<path class="st35" d="M541,159.9c-1.3,0.1-2.6,0.3-3.9,0.4c-9,0.9-18.1,1.9-27.3,2.8c-0.2,0-0.3,0.1-0.6,0c-0.2,0-0.5-0.1-0.6-0.1
		c-0.1-0.1-0.2-0.2-0.1-0.2c0.4-0.1,0.7-0.1,1.2-0.2c7.7-0.7,15.3-1.4,22.8-2.1c2.7-0.3,5.3-0.5,8-0.8
		C540.7,159.8,540.8,159.9,541,159.9z"/>
</g>
<g id="PEMF_machine">
	<path class="st15" d="M270.6,710.1l-3.1,0.8l0,4.9c0,0.7-0.2,1.3-0.5,1.7c-0.3,0.5-0.7,0.7-1.2,0.9c-0.5,0.1-0.9,0.1-1.2-0.2
		c-0.3-0.3-0.5-0.8-0.5-1.5v-13.5c0-0.8,0.2-1.4,0.5-1.8c0.3-0.4,0.9-0.7,1.6-0.9l4.4-1.1c1.3-0.3,2.3-0.5,3-0.5
		c0.7,0,1.3,0.2,1.8,0.5c0.5,0.3,0.9,0.8,1.1,1.4c0.3,0.6,0.4,1.3,0.4,2.1c0,1.8-0.5,3.3-1.6,4.4
		C274.2,708.7,272.7,709.6,270.6,710.1z M269.8,702.3l-2.3,0.6l0,5.4l2.3-0.6c0.8-0.2,1.5-0.5,2-0.8c0.5-0.3,0.9-0.7,1.2-1.2
		c0.3-0.5,0.4-1,0.4-1.7c0-0.8-0.2-1.3-0.6-1.7C272.3,701.9,271.3,701.9,269.8,702.3z"/>
	<path class="st15" d="M290.5,697L283,699l0,4.3l6.9-1.8c0.5-0.1,0.9-0.1,1.1,0.1c0.2,0.2,0.4,0.5,0.4,0.8c0,0.4-0.1,0.7-0.4,1.1
		c-0.2,0.3-0.6,0.5-1.1,0.7l-6.9,1.8l0,4.9l7.7-2.1c0.5-0.1,0.9-0.1,1.2,0.1c0.3,0.2,0.4,0.5,0.4,0.9c0,0.4-0.1,0.8-0.4,1.1
		c-0.3,0.3-0.7,0.6-1.2,0.7l-9,2.4c-0.7,0.2-1.2,0.2-1.6-0.1c-0.3-0.3-0.5-0.8-0.5-1.5l0-13.1c0-0.5,0.1-0.9,0.2-1.3
		c0.1-0.4,0.4-0.7,0.7-0.9c0.3-0.2,0.7-0.4,1.2-0.5l8.8-2.3c0.5-0.1,0.9-0.1,1.2,0.1c0.3,0.2,0.4,0.5,0.4,0.9c0,0.4-0.1,0.8-0.4,1.1
		C291.4,696.6,291,696.9,290.5,697z"/>
	<path class="st15" d="M300.2,706.3l-2.5-10.3l-0.1,11.9c0,0.7-0.1,1.2-0.4,1.6c-0.3,0.4-0.6,0.7-1.1,0.8c-0.4,0.1-0.8,0.1-1.1-0.2
		c-0.3-0.2-0.4-0.7-0.4-1.4l0.1-13.6c0-0.8,0.2-1.3,0.6-1.7c0.4-0.4,0.9-0.6,1.5-0.8l1-0.3c0.6-0.2,1-0.2,1.3-0.2
		c0.3,0,0.5,0.2,0.6,0.5c0.1,0.3,0.3,0.7,0.4,1.4l2.3,8.8l2.4-10c0.2-0.7,0.3-1.3,0.5-1.6c0.1-0.3,0.3-0.6,0.6-0.8
		c0.3-0.2,0.7-0.4,1.3-0.5l1-0.3c0.6-0.2,1.1-0.2,1.5,0c0.4,0.2,0.5,0.6,0.5,1.4l-0.1,13.5c0,0.6-0.1,1.2-0.4,1.6
		c-0.3,0.4-0.6,0.7-1.1,0.8c-0.4,0.1-0.8,0-1-0.2c-0.3-0.3-0.4-0.7-0.4-1.4l0.1-11.8l-2.6,11.6c-0.2,0.8-0.3,1.3-0.4,1.7
		c-0.1,0.4-0.3,0.7-0.6,1.1c-0.3,0.3-0.7,0.6-1.2,0.7c-0.4,0.1-0.7,0.1-1,0c-0.3-0.1-0.5-0.3-0.6-0.5c-0.1-0.2-0.3-0.5-0.3-0.8
		C300.4,707,300.3,706.7,300.2,706.3z"/>
	<path class="st15" d="M322.9,688.6l-6.2,1.6l0,4.4l5.2-1.4c0.5-0.1,0.8-0.1,1.1,0.1c0.2,0.2,0.3,0.5,0.3,0.8c0,0.4-0.1,0.7-0.4,1
		c-0.2,0.3-0.6,0.5-1.1,0.6l-5.2,1.4l-0.1,5.6c0,0.7-0.2,1.3-0.5,1.7c-0.3,0.4-0.7,0.7-1.1,0.8c-0.5,0.1-0.9,0.1-1.1-0.2
		c-0.3-0.3-0.4-0.8-0.4-1.5l0.1-13.1c0-0.5,0.1-0.9,0.2-1.3c0.1-0.3,0.4-0.6,0.6-0.9c0.3-0.2,0.7-0.4,1.1-0.5l7.5-1.9
		c0.5-0.1,0.9-0.1,1.1,0.1c0.2,0.2,0.4,0.5,0.4,0.9c0,0.4-0.1,0.8-0.4,1.1C323.7,688.2,323.4,688.4,322.9,688.6z"/>
	<path class="st15" d="M337.1,696.4l-2.3-10l-0.2,11.6c0,0.6-0.1,1.2-0.4,1.5c-0.3,0.4-0.6,0.6-1,0.8c-0.4,0.1-0.8,0-1-0.2
		c-0.3-0.2-0.4-0.7-0.4-1.3l0.2-13.3c0-0.7,0.2-1.3,0.5-1.6c0.4-0.3,0.8-0.6,1.4-0.8l1-0.2c0.6-0.1,1-0.2,1.3-0.2
		c0.3,0,0.4,0.2,0.6,0.5c0.1,0.3,0.3,0.7,0.4,1.3l2.1,8.6l2.4-9.8c0.2-0.7,0.3-1.2,0.4-1.6s0.3-0.6,0.6-0.8c0.3-0.2,0.7-0.3,1.2-0.5
		l1-0.2c0.6-0.2,1-0.1,1.4,0c0.3,0.2,0.5,0.6,0.5,1.3l-0.2,13.2c0,0.6-0.1,1.1-0.4,1.5c-0.3,0.4-0.6,0.6-1,0.8c-0.4,0.1-0.7,0-1-0.2
		c-0.3-0.2-0.4-0.7-0.4-1.3l0.2-11.5l-2.6,11.3c-0.2,0.7-0.3,1.3-0.4,1.6s-0.3,0.7-0.6,1c-0.3,0.3-0.6,0.6-1.1,0.7
		c-0.4,0.1-0.7,0.1-0.9,0c-0.2-0.1-0.4-0.3-0.6-0.5c-0.1-0.2-0.2-0.5-0.3-0.8C337.2,697.1,337.2,696.8,337.1,696.4z"/>
	<path class="st15" d="M356.4,692.3c-0.7,0.8-1.3,1.4-2,1.8c-0.6,0.5-1.3,0.8-2.1,1c-0.7,0.2-1.3,0.2-1.9,0
		c-0.5-0.2-0.9-0.5-1.2-0.9c-0.3-0.5-0.4-1-0.4-1.6c0-0.8,0.3-1.6,0.8-2.4c0.5-0.7,1.2-1.3,2-1.7c0.2-0.1,0.6-0.3,1.3-0.7
		c0.7-0.3,1.3-0.6,1.8-0.9c0.5-0.3,1-0.6,1.6-0.9c0-0.8-0.2-1.4-0.4-1.7c-0.3-0.3-0.8-0.4-1.6-0.1c-0.7,0.2-1.2,0.4-1.6,0.7
		c-0.4,0.3-0.7,0.7-0.9,1.2c-0.3,0.5-0.4,0.8-0.6,1c-0.1,0.2-0.3,0.3-0.7,0.4c-0.3,0.1-0.6,0-0.8-0.1c-0.2-0.2-0.3-0.4-0.3-0.8
		c0-0.5,0.2-1.1,0.6-1.7c0.4-0.6,0.9-1.2,1.6-1.7c0.7-0.5,1.7-0.9,2.8-1.2c1.2-0.3,2.2-0.4,2.9-0.3c0.7,0.1,1.2,0.5,1.4,1.1
		c0.3,0.6,0.4,1.5,0.4,2.6c0,0.7,0,1.3,0,1.8c0,0.5,0,1.1,0,1.7c0,0.6,0.1,1.2,0.2,1.7c0.2,0.6,0.2,1,0.2,1.1c0,0.3-0.1,0.6-0.4,1
		c-0.3,0.3-0.6,0.5-0.9,0.6c-0.3,0.1-0.6,0-0.8-0.2C357,693.1,356.7,692.7,356.4,692.3z M356.3,687.9c-0.4,0.3-1,0.6-1.8,1
		c-0.8,0.4-1.3,0.7-1.6,0.8c-0.3,0.2-0.6,0.4-0.9,0.7c-0.3,0.3-0.4,0.7-0.4,1.2c0,0.5,0.1,0.8,0.5,1.1c0.3,0.2,0.7,0.3,1.2,0.2
		c0.5-0.1,1.1-0.4,1.5-0.8c0.5-0.4,0.8-0.8,1-1.3c0.3-0.5,0.4-1.3,0.4-2.4L356.3,687.9z"/>
	<path class="st15" d="M371.5,686.1c0,0.4-0.1,0.8-0.3,1.3c-0.2,0.5-0.5,1-1,1.5c-0.4,0.5-1,1-1.6,1.4c-0.6,0.4-1.3,0.7-2.1,0.9
		c-1.7,0.5-3,0.3-3.9-0.6c-0.9-0.8-1.4-2.2-1.3-4.1c0-1.3,0.3-2.4,0.7-3.5c0.5-1.1,1.1-2,1.9-2.7c0.8-0.7,1.8-1.3,3-1.6
		c0.7-0.2,1.4-0.2,1.9-0.2c0.6,0.1,1.1,0.2,1.5,0.5c0.4,0.3,0.7,0.6,0.9,0.9c0.2,0.4,0.3,0.7,0.3,1.1c0,0.4-0.1,0.7-0.4,1
		c-0.2,0.3-0.5,0.5-0.9,0.6c-0.2,0.1-0.4,0-0.6,0c-0.1-0.1-0.3-0.3-0.5-0.5c-0.3-0.5-0.7-0.8-1-1c-0.4-0.2-0.8-0.2-1.4-0.1
		c-0.8,0.2-1.5,0.7-2,1.6c-0.5,0.8-0.8,1.9-0.8,3.1c0,0.6,0,1.1,0.2,1.5c0.1,0.4,0.3,0.8,0.5,1.1c0.2,0.3,0.5,0.5,0.9,0.5
		c0.3,0.1,0.7,0.1,1.1,0c0.5-0.1,1-0.4,1.4-0.8c0.4-0.4,0.7-0.9,1.1-1.6c0.2-0.4,0.4-0.7,0.6-0.9c0.2-0.2,0.4-0.4,0.7-0.5
		c0.3-0.1,0.6,0,0.8,0.2C371.4,685.6,371.5,685.8,371.5,686.1z"/>
	<path class="st15" d="M376.3,673.6l-0.1,4.5c0.4-0.5,0.7-1,1-1.3c0.3-0.3,0.7-0.6,1.1-0.9c0.4-0.2,0.8-0.4,1.3-0.5
		c0.7-0.2,1.3-0.2,1.8,0c0.5,0.2,0.9,0.6,1.2,1.1c0.2,0.3,0.3,0.7,0.4,1.1c0.1,0.4,0.1,0.9,0.1,1.5l-0.1,5.8c0,0.6-0.1,1.1-0.4,1.5
		c-0.3,0.4-0.6,0.6-1,0.7c-0.9,0.2-1.3-0.3-1.3-1.5l0.1-5.1c0-1-0.1-1.7-0.3-2.1c-0.2-0.5-0.7-0.6-1.4-0.4c-0.5,0.1-0.9,0.4-1.3,0.8
		c-0.4,0.4-0.7,0.9-0.9,1.5c-0.2,0.5-0.2,1.3-0.3,2.5l-0.1,4c0,0.6-0.1,1.1-0.4,1.5c-0.2,0.4-0.6,0.6-1,0.7
		c-0.9,0.2-1.3-0.3-1.3-1.5l0.3-13.2c0-0.6,0.1-1.1,0.4-1.5c0.2-0.4,0.6-0.6,1-0.7c0.4-0.1,0.8,0,1,0.2
		C376.2,672.6,376.3,673,376.3,673.6z"/>
	<path class="st15" d="M387.1,672.1c-0.4,0.1-0.7,0-0.9-0.1c-0.3-0.2-0.4-0.5-0.4-1c0-0.4,0.2-0.8,0.4-1.2c0.3-0.3,0.6-0.6,1-0.7
		c0.3-0.1,0.6,0,0.9,0.1c0.3,0.2,0.4,0.5,0.4,1c0,0.5-0.2,0.9-0.4,1.2C387.8,671.8,387.4,672,387.1,672.1z M388.3,674.9l-0.2,8.7
		c0,0.6-0.2,1.1-0.4,1.5c-0.3,0.4-0.6,0.6-1,0.7c-0.4,0.1-0.7,0-0.9-0.2c-0.2-0.3-0.3-0.7-0.3-1.3l0.2-8.7c0-0.6,0.1-1.1,0.4-1.5
		c0.3-0.4,0.6-0.6,1-0.7c0.4-0.1,0.7,0,0.9,0.2C388.2,673.9,388.3,674.3,388.3,674.9z"/>
	<path class="st15" d="M393.4,673.5l0,0.4c0.5-0.8,1-1.5,1.6-1.9c0.6-0.5,1.2-0.8,1.9-1c0.7-0.2,1.3-0.2,1.8,0
		c0.5,0.2,0.9,0.6,1.2,1.1c0.2,0.3,0.3,0.7,0.3,1.1c0,0.4,0,0.9,0,1.6l-0.2,5.6c0,0.6-0.1,1.1-0.4,1.5c-0.2,0.4-0.6,0.6-0.9,0.7
		c-0.4,0.1-0.7,0-0.9-0.2c-0.2-0.2-0.3-0.7-0.3-1.3l0.1-5c0-1-0.1-1.7-0.3-2.2c-0.2-0.5-0.7-0.6-1.4-0.4c-0.5,0.1-0.9,0.4-1.3,0.8
		c-0.4,0.4-0.7,0.9-0.9,1.5c-0.1,0.5-0.2,1.3-0.3,2.6l-0.1,3.8c0,0.6-0.2,1.1-0.4,1.5c-0.3,0.4-0.6,0.6-1,0.7
		c-0.4,0.1-0.7,0-0.9-0.2c-0.2-0.2-0.3-0.7-0.3-1.3l0.2-8.7c0-0.6,0.1-1,0.4-1.4c0.2-0.3,0.5-0.6,0.9-0.7c0.2-0.1,0.4-0.1,0.6,0
		c0.2,0.1,0.3,0.2,0.4,0.4C393.4,672.8,393.4,673.1,393.4,673.5z"/>
	<path class="st15" d="M409.9,674.2l-5,1.3c0,0.7,0.1,1.2,0.3,1.7c0.2,0.5,0.5,0.8,0.9,0.9c0.4,0.2,0.8,0.2,1.2,0.1
		c0.3-0.1,0.6-0.2,0.8-0.4c0.3-0.2,0.5-0.3,0.7-0.6c0.2-0.2,0.5-0.5,0.7-0.7c0.2-0.3,0.5-0.6,0.8-1c0.1-0.2,0.3-0.3,0.6-0.3
		c0.3-0.1,0.5,0,0.6,0.1c0.2,0.1,0.2,0.3,0.2,0.6c0,0.3-0.1,0.6-0.3,1c-0.2,0.4-0.5,0.8-0.9,1.3c-0.4,0.4-0.8,0.8-1.4,1.2
		c-0.6,0.4-1.2,0.6-1.9,0.8c-1.7,0.4-2.9,0.3-3.8-0.6c-0.9-0.8-1.3-2.2-1.3-4.1c0-0.9,0.2-1.7,0.4-2.6c0.2-0.8,0.6-1.6,1.1-2.2
		c0.5-0.7,1-1.2,1.6-1.7c0.6-0.5,1.4-0.8,2.1-1c1-0.3,1.9-0.2,2.6,0.1c0.7,0.3,1.2,0.8,1.6,1.5c0.3,0.7,0.5,1.4,0.5,2.2
		c0,0.7-0.2,1.3-0.6,1.6C411.1,673.8,410.6,674,409.9,674.2z M404.9,673.9l4.7-1.2c0-1-0.2-1.7-0.6-2.1c-0.4-0.4-0.9-0.5-1.6-0.3
		c-0.6,0.2-1.2,0.6-1.6,1.2C405.3,672,405.1,672.8,404.9,673.9z"/>
</g>
</svg>
