<?xml version="1.0" encoding="utf-8"?>
<!-- Generator: Adobe Illustrator 24.3.0, SVG Export Plug-In . SVG Version: 6.00 Build 0)  -->
<svg version="1.1" id="i-survived-logo" xmlns="http://www.w3.org/2000/svg" xmlns:xlink="http://www.w3.org/1999/xlink" x="0px"
	 y="0px" viewBox="0 0 864 864" style="enable-background:new 0 0 864 864;" xml:space="preserve">
<style type="text/css">
	.st0{fill:#BB3E2D;}
	.st1{fill:#818283;}
	.st2{fill:#B51E22;}
</style>
<g id="i-survived-logo-parts">
	<g id="half-circles">
		<g id="half-circles-bottom">
			<path id="half-circle-outer-bottom" class="st0" d="M735.8,572.7c-0.7,0-1.4,0-2.1-0.1c-2.2,5.3-4.6,10.6-7.2,15.9
				c-16,33-37,62.4-63,88.2c-44.6,44.1-97.5,73.2-158.8,86.8c-20.9,4.6-42.1,7.1-63.5,7.3c-84.4,0.7-158.4-26.8-221.3-83.1
				c-36.6-32.8-63.9-71.4-82.2-115.4c-0.6,0.1-1.3,0.1-1.9,0.1c-0.9,0-1.7-0.1-2.5-0.2c16.9,41.3,41.8,78,74.8,110.1
				c41.9,40.8,91.2,68.3,147.8,82.8c20.2,5.2,40.7,8.2,61.5,9.4c2.8,0,5.7,0.1,8.5,0.1c1.9,0,3.7-0.1,5.6,0c0.4,0,0.8,0.3,1.2,0.4
				h7.2c1.9-1,3.9-0.3,5.9-0.4c2.8,0,5.7-0.1,8.5-0.1c1.8-0.1,3.5-0.2,5.3-0.4c15.6-1.1,31.1-3.3,46.4-6.7
				c64.5-14.4,119.7-45.5,165.5-93.1c28.9-29.9,51-63.9,66.6-101.7C737.4,572.6,736.6,572.7,735.8,572.7z"/>
			<path id="half-circle-inner-bottom" class="st1" d="M715.1,572.8c-0.4,0-0.8,0-1.2-0.1c-3.6,8-7.6,15.9-12,23.7
				c-13.5,24.1-30.1,46-49.7,65.5c-6.5,6.4-13.3,12.4-20.1,18.4c-7.2,6.4-15,12-22.8,17.5c-2,1.4-4.1,2.7-6.2,4.1
				c-0.3,0.2-0.5,0.3-0.8,0.5c-6.2,3.7-12.4,7.6-18.7,11.2c-19.2,10.7-39.4,19.2-60.6,25.5c-32.1,9.5-64.9,13.6-98.3,12.4
				c-14-0.5-27.9-2-41.7-4.4c-29.6-5.3-57.9-14.6-84.8-28.2c-25.7-13-49.1-29.3-70.2-49c-4.1-3.8-8.1-7.7-12-11.6
				c-2.3-2.3-4.3-4.9-6.5-7.3c-7.8-8.4-14.8-17.3-21.4-26.6c-4.8-6.8-9.2-13.8-13.6-20.9c-2.9-4.6-5.7-9.2-8.2-14
				c-3-5.9-5.8-11.8-8.5-17.9c-0.4,0-0.8,0-1.2,0c-0.7,0-1.4,0-2.1-0.1c3.3,7.3,6.9,14.6,10.4,21.9c1.5,3,3.4,5.8,5.1,8.7
				c1,1.7,2.1,3.4,3.1,5.2c0.2,0.4,0.7,1-0.3,1.2l1.1,1.5c0.3-0.9,0.7-0.3,0.9,0c0.6,0.9,1.1,1.9,1.7,2.8c1.2,1.7,2.4,3.4,3.6,5
				c1.3,1.7,2.6,3.5,3.8,5.2c0.3,0.4,0.3,0.9,0.4,1.3l4.5,6.2c0.4,0.3,0.9,0.4,1.1,0.8c1.3,1.7,2.5,3.5,3.8,5.2
				c1.2,1.7,2.4,3.3,3.7,5c0.7,0.8,1.5,1.6,2.2,2.5c0.3,0.3,0.6,0.9-0.3,0.9l1.1,1.5c0.2-0.1,0.6-0.5,0.6-0.4c0.4,0.3,0.7,0.6,1,1
				c5.9,6.8,12,13.4,18.4,19.7c10.1,9.8,20.7,19,32,27.4c29.6,21.9,62.1,38,97.4,48.3c25.1,7.3,50.7,11.4,76.8,12.2
				c36.5,1.1,72.2-4,106.9-15.6c20.5-6.8,40-15.6,58.6-26.7c1.2-0.7,2.3-1.4,3.5-2c0.2-0.1,0.4-0.2,0.6-0.2c0.5-0.4,1-0.7,1.5-1
				c-0.1-0.4,0.6-0.5,0.9-0.7c2.1-1.4,4.2-2.8,6.2-4.2c2.2-1.6,4.5-3.3,6.8-4.9c0.3-0.2,0.9-0.3,1.3-0.4l7.8-5.6
				c0.8-1.8,2.7-2.4,4.1-3.5c1.5-1.1,3.1-2.2,4.7-3.3c1.8-1.4,3.5-2.9,5.3-4.3c0.2-0.2,0.6-0.5,0.8-0.4c0.5-0.5,1.1-0.9,1.7-1.3
				c0-0.3,0.3-0.5,0.5-0.8c2-1.8,4-3.5,5.9-5.3c1.5-1.4,2.8-3,4.3-4.4c2.5-2.3,5.1-4.5,7.5-6.9c7.2-7.1,13.8-14.6,20.1-22.4
				c17-21,31-43.7,41.9-68.2C716.6,572.7,715.8,572.8,715.1,572.8z"/>
		</g>
		<g id="half-circle-top">
			<path id="half-circle-outer-top" class="st0" d="M334.7,137.2c20.3-6.7,41.1-11.3,62.4-13.9c19.8-2.4,39.7-3.1,59.6-1.7
				c77.3,5.5,144.4,34.7,200.8,87.8c47.8,45,78.8,99.9,93.7,163.9c0.6,2.6,1.2,5.2,1.7,7.8c0.8-0.1,1.7-0.2,2.5-0.2
				c0.5,0,1.1,0,1.6,0.1c-6-30.3-16.2-59.2-30.4-86.7c-39.7-76.8-108.1-134.9-190.2-161.6c-18.2-5.9-36.8-10.3-55.8-12.7
				c-10-1.2-20-1.9-30.1-2.9c-2.2,0-4.4,0-6.7-0.1c-5.3,0-10.6,0-15.9,0c-2.4,0-4.8,0.1-7.1,0.1c-9.9,0.9-19.8,1.6-29.6,2.8
				c-20.1,2.5-39.8,7.2-59,13.7c-50.5,17.1-94.6,44.6-131.4,83.2c-45.2,47.3-73.8,102-85.9,163.7c0.6-0.1,1.2-0.1,1.8-0.1
				c0.8,0,1.5,0.1,2.2,0.1c5.4-27,14.3-53,26.6-78.3C183.9,224.1,252.3,164.4,334.7,137.2z"/>
			<path id="half-circle-inner-top" class="st1" d="M732.2,360.7c-6.2-21.2-14.4-41.5-25-60.8c-1.1-2-2.5-3.9-3.7-5.9
				c-1.3-2.3-2.6-4.8-3.9-7.1c-0.7-1.3-1.6-2.6-2.3-3.9c-0.1-0.2-0.2-0.5-0.2-0.6c-0.3-0.5-0.7-1-0.9-1.4c-0.2,0-0.4-0.3-0.5-0.5
				c-0.7-1-1.3-2.1-2-3.2c-1.3-1.8-2.6-3.6-3.9-5.5c-4-5.4-7.9-10.9-11.9-16.3c-0.9-1.2-1.9-2.3-2.8-3.5c-0.2-0.3-0.5-0.6-0.4-0.8
				c-0.6-0.7-1.2-1.4-1.7-2.2c-0.3,0.1-0.6-0.4-0.9-0.6c-3.8-4.1-7.6-8.3-11.4-12.5c-2.6-2.8-5.1-5.7-7.8-8.4
				c-21-21-44.7-38.4-70.8-52.4c-31.8-17-65.6-28.2-101.3-33.4c-18.2-2.6-36.4-3.7-54.8-3.1c-39.7,1.3-77.8,9.9-114.1,25.9
				c-12.6,5.6-24.8,11.9-36.5,19.2c-1,0.6-1.9,1.1-2.9,1.6c-0.2,0.1-0.5,0.2-0.6,0.1c-1.1,0.9-2.3,1.7-3.6,2.3
				c0.1,0.2,0.1,0.3,0.1,0.4c-0.6,0.4-1.2,0.8-1.9,1.1c-0.8,0.5-1.5,1.1-2.3,1.6c-0.4,0.9-0.8,1.6-1.9,0.7l-14.4,10.4l-1.7,1.8
				c-1.2,1-2.4,2-3.6,2.9c-0.1,0.1-0.2,0-0.3,0c-0.9,0.8-1.8,1.6-2.8,2.2c0,0.2-0.1,0.4-0.3,0.5c-0.9,0.8-1.7,1.7-2.7,2.4
				c-9.5,7.8-18.2,16.3-26.6,25.3c-23.7,25.5-42.5,54.2-56.4,86c-8.1,18.6-14.3,37.7-18.6,57.2c0.2,0,0.3,0,0.5,0
				c0.9,0,1.8,0.1,2.7,0.2c4-18.1,9.6-35.9,17-53.1c14.7-34.6,35.1-65.4,61.2-92.5c2.2-2.3,4.2-4.7,6.4-6.9c1.2-1.2,2.6-2.2,3.9-3.4
				c1.4-1.3,2.6-2.7,4.1-4c1-0.9,2.2-1.6,3.2-2.5c9.1-8.1,18.6-15.6,28.6-22.5c8.9-6.1,18.1-11.7,27.6-16.9c2.4-1.3,4.7-2.9,7.2-4.1
				c4.6-2.2,9.3-4.3,13.9-6.4c23.6-10.6,48.2-18.1,73.7-22.4c20.8-3.5,41.8-4.9,62.9-4.1c16.2,0.6,32.2,2.6,48.1,5.7
				c25.7,5.1,50.3,13.4,73.9,24.9c27.6,13.4,52.6,30.6,75,51.6c5.5,5.2,10.8,10.7,16,16.2c10.8,11.5,20.4,24,29.2,37.1
				c4.3,6.4,8.3,13.1,12.1,19.8c7,12.3,13.1,25.1,18.2,38.2c6,15.3,10.6,30.8,14,46.4c0.2,0,0.3,0,0.5,0c0.9-0.1,1.7-0.2,2.6-0.3
				C735.9,374.5,734.1,367.5,732.2,360.7z"/>
		</g>
	</g>
	<path id="the-word" class="st2" d="M394.7,413.9c0,0.5-0.3,1-0.9,1.3c-0.4,0.2-1.1,0.4-2.1,0.4h-1.1h-14.7h-1.1
		c-1,0-1.7-0.1-2.2-0.4c-0.5-0.3-0.7-0.7-0.7-1.3c0-0.9,0.5-1.5,1.6-1.7c0.9-0.2,1.4-0.3,1.5-0.4c0.2,0,0.3-0.2,0.5-0.4
		c0.3-0.4,0.5-1,0.5-1.8v-37.2h14.7v37.2c0,0.8,0.2,1.4,0.5,1.8c0.2,0.2,0.3,0.3,0.5,0.4c0.1,0,0.7,0.2,1.5,0.4
		C394.1,412.4,394.7,412.9,394.7,413.9z M373.3,376.2v-3.8h-8.7v13c0,0.6,0.2,1.1,0.5,1.5s0.8,0.6,1.4,0.6c0.5,0,1-0.2,1.4-0.5
		c0.4-0.3,0.6-0.8,0.7-1.4l0.3-1.9c0.3-2,1-3.7,1.9-5.1C371.5,377.5,372.3,376.8,373.3,376.2z M393.3,376.2c1,0.6,1.8,1.3,2.4,2.2
		c0.9,1.4,1.6,3.1,1.9,5.1l0.3,1.9c0.1,0.6,0.3,1.1,0.7,1.4c0.4,0.3,0.8,0.5,1.4,0.5c0.6,0,1-0.2,1.4-0.6s0.5-0.9,0.5-1.5v-12.9
		h-8.7V376.2z M426.7,412.2l-1-0.3c-0.6-0.2-1-0.9-1-2.1v-31.7c0-1.2,0.3-1.9,1-2.1l1-0.3c0.8-0.2,1.2-0.8,1.2-1.7
		c0-1.1-0.8-1.7-2.3-1.7h-0.9H410h-0.9c-0.8,0-1.4,0.1-1.8,0.4c-0.4,0.3-0.6,0.7-0.6,1.2c0,0.9,0.4,1.4,1.3,1.7
		c0.7,0.2,1.1,0.4,1.3,0.4s0.2,0.2,0.4,0.4c0.3,0.3,0.4,0.9,0.4,1.6v31.7c0,0.7-0.1,1.3-0.4,1.6c-0.1,0.2-0.3,0.3-0.4,0.4
		c-0.1,0.1-0.5,0.2-1.3,0.4c-0.9,0.3-1.3,0.8-1.3,1.7c0,0.5,0.2,0.9,0.6,1.2c0.4,0.3,1,0.4,1.8,0.4h0.9h14.7v0h0.9
		c1.6,0,2.3-0.5,2.3-1.6C427.9,413,427.5,412.5,426.7,412.2z M447.9,376.5c0.1-0.2,0.3-0.3,0.4-0.4s0.5-0.2,1.3-0.4
		c0.9-0.3,1.3-0.8,1.3-1.7c0-1.1-0.8-1.7-2.5-1.7h-0.9h-14.7H432c-1.6,0-2.4,0.5-2.4,1.7c0,0.9,0.4,1.5,1.2,1.7l1,0.3
		c0.6,0.2,1,0.9,1,2.1v13.8h-5.4h0v3.1h5.4v14.6c0,1.2-0.3,1.9-1,2.1l-1,0.4c-0.8,0.3-1.2,0.8-1.2,1.7c0,1.1,0.8,1.7,2.3,1.7h0.9
		h14.7h0.9c1.7,0,2.5-0.6,2.5-1.7c0-0.9-0.4-1.5-1.3-1.7l-1-0.4c-0.7-0.2-1-1-1-2.1v-31.6C447.5,377.4,447.6,376.8,447.9,376.5z
		 M484.1,378.4c1.6,1.3,2.8,3.2,3.7,5.6c0.2,0.6,0.4,1,0.6,1.2c0.2,0.2,0.6,0.3,1,0.3c0.6,0,1-0.1,1.2-0.4c0.3-0.3,0.4-0.8,0.4-1.4
		v-11.2h-13.3v3.7C480.4,376.3,482.5,377.1,484.1,378.4z M491.3,402.6c-0.2-0.3-0.7-0.5-1.3-0.5c-0.5,0-0.8,0.1-1.1,0.4
		c-0.3,0.2-0.5,0.7-0.8,1.4c-0.5,1.4-1,2.5-1.6,3.3c-0.6,0.8-1.3,1.6-2.3,2.4c-1,0.8-1.9,1.4-2.8,1.7s-2.1,0.7-3.5,0.9v3.4h13.7
		v-11.2C491.6,403.5,491.5,402.9,491.3,402.6z M459.4,372.3c-0.8,0-1.4,0.1-1.8,0.4c-0.4,0.3-0.6,0.7-0.6,1.2c0,0.9,0.4,1.4,1.3,1.7
		c0.7,0.2,1.2,0.4,1.3,0.4s0.2,0.2,0.4,0.4c0.3,0.3,0.4,0.9,0.4,1.6v31.7c0,0.7-0.1,1.3-0.4,1.6c-0.1,0.2-0.3,0.3-0.4,0.4
		c-0.1,0.1-0.5,0.2-1.3,0.4c-0.9,0.3-1.3,0.8-1.3,1.7c0,0.5,0.2,0.9,0.6,1.2c0.4,0.3,1,0.4,1.8,0.4h0.9h14.7v-43.2v0h-14.7H459.4z
		 M482,400.3c0.2,0.7,0.4,1.2,0.7,1.5c0.3,0.3,0.7,0.4,1.2,0.4c0.6,0,1-0.2,1.3-0.6c0.2-0.4,0.3-1.1,0.3-2.1v-12.1
		c0-1-0.1-1.6-0.2-1.9c-0.3-0.5-0.8-0.8-1.5-0.8c-0.5,0-0.9,0.2-1.2,0.5c-0.3,0.3-0.5,0.9-0.7,1.7c-0.3,1.2-0.7,2.1-1.3,2.8
		c-0.6,0.7-1.6,1.3-2.8,1.9v3.7c1.1,0.2,2,0.8,2.7,1.6C481.1,397.8,481.6,398.9,482,400.3z"/>
	<path id="method-word" class="st2" d="M278.6,554.7l0.2-2.7l-0.1-13.1l-1.2,0.7l0.1,1.2h-0.5l-2.8,9.2l-0.5,1l-0.5,0.3l-1.2-1.5
		l-1-0.1l-0.1-0.8l-0.3,1l-0.9,0.1l-0.9-1.3l0.7-0.5l-0.4-0.8l0.5-0.1l-0.3-0.7l-0.5-3.2l-0.8-0.1l0.1-0.7l0.3,0.3l0.9-0.3l0.5,0.8
		l-0.6-2.4v1.3h-0.3l-0.6-0.3l0.4-1.2l-0.6-0.2l0.3-0.7h0.4l-0.2-0.5l-1.2,0.5l-0.4-0.4l0.2-0.7l0.2,0.2l0.5-0.8h-0.7l0.3-0.3
		l-0.4-0.1v-0.5H267l0.1,0.9l-0.8-1v-0.7H266l0.2-0.7l-0.5-0.5h0.4l0.1-0.4l-1.2-0.3l-0.1-1.4l0.9,0.4v-0.7l0.8-0.1l-0.9-3l-1.5-3.8
		l-1-0.9l-1.6-0.7l-1.1-0.1l-0.1,0.4l-0.5,0.2l0.1-0.5l-1.6-0.2l-1.1,0.2l0.6,0.5l-0.2,1l-0.5,0.1l-3-1.2l-0.1-0.5l-0.5-0.1
		l-0.6,0.8l-1.2,0.1v0.4l-2-0.3l-0.4,0.7l-0.7-0.2l-0.2-0.3l-0.9,0.7l-0.7,0.2l-1.1-0.1l-2.9-1.3l-0.4,0.3l0.1,0.5h-0.9l-0.4,0.4
		l-0.8-0.1l-1.4,0.7l-1.1,0.2V525l0.6,0.4l0.2-0.7l0.6-0.2l0.1-0.4l-1.2,0.2l-2.6,0.8l-0.5,0.7l-0.3,1.5l0.2,1.2l0.6,1l0.8,0.7
		l3.9,2l2.4,2.6h1.2l-0.4-0.5l-0.5-0.2l0.1-0.3l1.7,0.3l0.5,1.6l-0.4,0.8l0.3,1.4l-0.6,0.2l1,0.4l0.2,0.9l-0.3,0.2l1.2,3.2l-0.4,0.2
		l0.5,0.8L247,544l0.4,0.8l-0.1,0.4l0.4,0.5l-0.1,0.5h0.1l0.5,1l-0.2,0.4l0.4,0.1l0.1,0.9l0.8,1.2v0.9l-0.7-0.1l0.7,1.5l-0.1,0.7
		l1.3,0.8v2.4l6,17.8h0.6l1.2,0.5l0.1,2l-0.9,0.3l1.7,1l-0.1-1.1l0.2-0.3l-0.4-0.4l0.1-0.4l0.4-0.2h0.8l0.1,0.2l0.5,0.5l-0.4,1
		l0.5,0.3l-0.2,1.7l0.4,2.4l-0.3,0.3l0.5,0.9l0.2,2.4l1.1,1.2v0.8l-0.6,0.3l0.3,0.8l1.6-0.7v0.7l-0.9,0.4l0.7,0.9l-1.2,0.8l0.6,0.7
		l-0.5,0.9l1.1,3l0.9-1.3l0.5,0.1l0.9,0.7l0.8-0.8l0.8-1.1l0.2-0.9l0.9,0.1l0.6-2.3l-0.8,0.1v0.3l-0.7,0.4l-0.3,1.5h-0.5l-0.4,1.1
		h-0.4l0.2-0.8l-0.9,0.2l-0.4-0.5l-0.6-0.1V590l0.8-1.5l-1-0.4l-0.4,0.4v-0.5h0.6l0.4-0.8l0.6,0.1l0.3,0.3v-0.5l0.3-0.2l0.1-1.1
		l1.7-1.5l0.3-0.5l1.1-0.8v-0.9l1.8-2.4l0.6,0.1l-0.1-0.9l0.2-1.4l0.7-0.2L272,577l0.3-1.1l1.2-2.4l0.4-1.3l0.6-1.6l0.2-1.1V568
		l0.4-0.1l0.2-1.2l0.8-1.6l1.9-6.5L278.6,554.7z M250.1,541.9l1.5,0.3l0.3,1l-0.6,0.2l0.6,1h-0.8l-0.2,0.8v-1.7l-0.5-0.1v-0.9
		L250.1,541.9z M250.5,547.6l0.6-1.8l-0.1-0.7h0.6l-0.1,1l-0.3,0.3h0.5l0.9,0.8l-0.2,0.1l0.2,0.3l-0.2,1.5l-1.7-1.2L250.5,547.6z
		 M252.3,550.4v0.4l-0.5,0.1l-0.5-0.3l0.7-1.1v0.7L252.3,550.4z M251.2,553l-0.2-0.9l0.4-0.7l0.7,0.1l0.2,0.5h0.3l-0.1,0.8l-0.4,0.7
		l-0.5-0.1L251.2,553z M252.6,555.4l-0.8-0.3l-0.1-0.4l0.1-0.3l0.2-0.2h0.4l0.2,0.1h0V555.4z M258.8,571.8l1.2,0.2l-0.4,0.3
		L258.8,571.8z M259.4,574l-0.3-0.2v-0.3v-0.3l0.2-0.2h0.5l0.2,0.1l0.5,1.3L259.4,574z M268.1,540.8l-0.5,0.1l-0.1-0.5h0.6V540.8z
		 M271.2,552.9l0.1-1.6l-0.4-0.1v-0.3l0.8-0.2l0.4,0.3L271.2,552.9z M255.6,590.6l-1.6-0.8l-1.8,0.1l-0.2-0.5l-1.2,0.9l-1-0.1
		l-0.3,0.5l-1.6-1l0.6-0.1l-0.4-2.1l1.6-1l-0.2-1.2l-0.7-18.9l-0.3-1.7l0.5-0.4l-0.5-4l-0.2-0.3l-1.2-0.7l0.3-0.3h0.5l-0.8-2
		l-0.5,0.1l-0.4-0.4l0.2-0.8l-0.2-0.2v-0.4h-0.4l-0.3-0.9l0.5-0.7l-1.7-5.2l-0.5-1.3l-0.2-0.1l-0.7,0.2l-0.1,1.3l0.3,0.3l-0.2,1.4
		l0.3,1l-0.5,0.2l-0.1,2.6l1.2,1.4l-0.4,0.4l-0.9,0.1v4.8l1,0.8l-0.1,2.2v1.4l-0.3,0.1l0.4,3.1l-0.4,0.1l-0.1,0.2l0.4,2.7l-0.3,2.1
		l-0.6,0.2l0.8,0.4l0.3,2.1l-1.1,0.5v3.8l-0.9,6.5l-0.5,0.9l-0.5,0.4l-5.6,2.7l-0.5,2l0.2,0.8l0.9,1.2l3.2,1.4l6.5-0.2l5.9,0.3
		l2.3-0.3l2.2-0.8l0.9-0.9l0.2-1.2l-0.2-1.6L255.6,590.6z M247.1,561.5l0.7,0.1l0.5,0.5v0H247L247.1,561.5z M246.5,590.6l-0.1-0.3
		l0.1-0.3l0.3-0.1l1,0.3L246.5,590.6z M271.5,547.8l-0.8,0.2v-0.6l0.9,0.1v0.7L271.5,547.8z M267.1,536.4l-0.5-0.4l0.3-0.8l0.8,0.7
		l-0.5,0.2L267.1,536.4z M309.8,590.9l-1.1-0.8l-2.1-0.8l-0.7,0.7l-0.2-0.4H305l-0.7,1.4l-0.6,0.1l-0.1-1.2l0.1-1.7l-0.9-1.4
		l0.7-0.9l1.5,1.2l-0.1-16.6h-0.5l0.3-1.2l-0.4-0.2l0.2-1l-0.4,0.1l-0.4-0.4l0.8-2.5l0.3-1.4l-0.5-2.6l0.4-1.6l-1-1.4l0.9-1.3
		l-0.6-0.5l0.6-0.9l0.2,0.4v-2.4l-0.2-0.4l-0.4,0.3l-0.6-0.2l-0.3-1.3l-1-0.2l0.3,1.1l0.3,0.2l-0.1,0.5l-0.6,0.7v-0.4l-0.7,0.1
		l-0.4-0.9l0.9-1.3l-0.1-0.9l0.8-0.8l0.3-0.7l0.1-1.8l0.6-1.5l0.1-1.2l-0.5-0.8l0.5-2l0.1-1.1l-0.3-0.3l-0.2-1h1.4l-0.1-4.4l0.3-3
		l0.3-0.5l0.4-0.3l3.8-2.3l0.4-0.5l0.1-0.7l-0.5-2.2l-0.5-0.5l-1.6-0.7l-3.3-0.7l-2.5,0.1v0.4l-1.1,0.3l-0.8,1.2l-0.8-1.3l-0.2,1.4
		l-0.7-0.7l0.2-0.8l-0.8,0.1l-0.8,0.4l-0.7-0.2h-1.8l-0.6-0.4l-0.6,0.4l-0.9-0.4l-0.4,0.3l-0.8-0.4l-0.7,0.3l-1,0.2l-0.8-0.1
		l-1.1-0.8l-2.8,1.4l-0.1-0.3l-1.2,1.3l-0.7,0.1l-0.3-1.8l0.7-0.1l0.1-0.3l-1.1,0.5l-0.3,1.6l0.3,0.1l-0.4,1.1l-0.2,1.4l0.3,2.9
		l-0.2,1.4v4l0.6,0.2v2l-0.5,0.2l0.1,19.5l0.5,0.4l0.2,1l0.4,0.9l0.3,0.2l0.4-0.3l-0.1-1.6l0.4-0.2l0.2,2.7h-1l-0.5,0.9l0.4,1.5
		l0.4-0.3l0.2,0.8l-0.4,0.8l0.6,0.2l1,2l-0.5,0.2v-0.3l-1.1,0.4l-0.1,2.3l-0.9,0.3l0.5,0.4l0.3,0.9l0.4-0.1l0.1-0.4l1,1l-0.3,0.7
		l-0.4-0.3v3.8l-1.2,0.3v0.7l-0.8,1l0.3,2l0.3-0.5l0.3,0.5l0.2,1.2l-0.8,0.2l-0.2,0.5v2.8l-0.4,2.5l-0.4,0.8l-0.5,0.3l-3.2,1.6
		l-0.5,0.9l-0.3,1.3l0.4,1.3l1.1,1.2l4,1.1h2.5l-0.1-0.7l0.6-0.1l-0.1-0.9l2.6-0.7l0.3,1l0.5-1.1l1.1,0.1v0.3l0.7,0.7l0.3,0.8l5,0.1
		l2.3,0.1l0.9-0.1l0.9-0.3h0.5v-0.3l1.6-0.3v-0.9l0.5,0.2l0.2,1.3L302,596l1,0.3l0.5,0.1l2.8-0.3l2.9-1.1l1.1-1l0.2-1.1l-0.1-1.3
		L309.8,590.9z M303.9,584.3l0.3-0.2l0.3,0.7l-0.3,0.7l-0.3-0.5V584.3z M303.5,544.8v0.9l-0.6-0.2l0.1-0.4L303.5,544.8z M302.5,530
		l1.2,0.3l-1.4,0.7l0.5-0.7L302.5,530z M282.5,536.1l0.7-1l-0.3-0.8l0.9,0.5l-0.1,1L282.5,536.1z M284.6,559.6l-1.2-0.3v-0.4h1.2
		L284.6,559.6z M298.8,526.4l0.9,0.7l-0.7,0.4l-0.3-0.5L298.8,526.4z M295.5,531.8l-1.6-0.2l-0.5,0.1l-0.6,0.4H292l-0.2,0.2
		l-0.6-0.2l-0.5,0.4l-0.5-0.2l-0.2,0.9l-0.4-0.3l-0.3-0.5l-0.9-0.3l0.6-1l0.9-0.3l1.1-0.2v-1l3.8,0.1l-0.6-0.8l0.3-0.4l0.6,0.4
		l0.1,1.5l0.3,0.7L295.5,531.8z M295.9,529.8l-0.5-1l0.1-0.8l0.4,0.2V529.8z M296.4,526.8l0.8-0.4l1-0.2l0.2,0.7l0.7,0.8h-0.6
		l-0.3,0.9l-0.5-0.1l-0.1,0.5h-0.8v0.5l-0.8-1.8L296.4,526.8z M300.2,532.9l-1.1-0.3l-1.1,0.1l-1.8-1.4v-0.4l1-0.2l1.9-0.7h1.8
		l0.3,0.4l0.1,0.7l0.5,0.3l-0.4,0.4h-0.6l0.3,0.2l0.2,0.7L300.2,532.9z M303.6,594.8l-0.4-0.1v0.8l-1-1.3l0.9-0.9l1,0.1L303.6,594.8
		z M343.1,529.8l-0.5-4l-0.5-0.7l-1.1-0.3l-1.2-0.1v0.7h-0.7l-0.9,0.7l-0.6-1.3l-1.4,0.1l-0.6,1.1l-0.2,0.2l-1.4,0.1l-0.9-0.2
		l-0.5-0.9l-1.9-0.1l-0.3,0.2l-0.1,0.7l-0.5,0.2l-0.5-1.3l-9.7-0.3l-1.9,0.4l-1.8,0.7l-1.1,1.2l-0.3,1.1l0.2,1l0.5,1.2l0.9,0.4
		l2.9,1.6l0.3,0.5l0.5,7.9v2.6l1.2,0.3l-1,1.3v-0.9l-0.3,2.4l1.2,0.9l-0.2,1.6l0.1,1.8h-0.3l-0.3,0.5l0.1,1.4l-0.7,2l-0.1,0.7
		l0.3,8.7l-0.2,2.5v4.1l1.9,0.4l-0.4,0.5h0.9l0.4,1.6l-0.4,0.7l-0.4,0.1l-0.3,0.4l-1.2-0.1l-0.1,2.7l0.3,1.5l-0.7,0.1l1.1,1.1
		l0.1,3.4l1,0.9v0.8l0.7,0.8l0.3,1h-0.4l-0.1,1.6l-0.8,0.7h-0.5l-0.5,0.5l-0.7,0.2v0.4l-0.3,0.3l-1-0.9l-3.8,2.1l-0.2,0.3l-0.2,1.1
		l0.3,1.4l0.9,1l2.3,0.9l3.7,0.3l0.5-0.5l1.3-0.7l1-0.8l0.4,0.2l-0.1,0.9l0.2,0.7l10.4-0.1l0.4-2.1l-0.2-1.2l0.5-1l0.5-0.1l-0.2-0.3
		l0.7,0.1l0.1,1.4l-0.6,1.6l0.4,0.8l0.3,1.2l2.5,0.1l2.2-0.4l0.6-0.5l0.3-1.5l0.1-4h-1.3l-0.5-0.4l0.4-1.2l-0.1-0.4l0.3-0.1h0.9
		l0.2-19.4l-0.2-8.5l-0.7,0.8l-0.4,1.5l0.2,0.3l-1.7,1.3l-1-0.3l0.8-2.8l0.7,0.1l0.8-0.9l-0.5-0.5l0.3-0.5l-0.1-0.9l0.5-0.5
		l-0.1-1.3l0.7-0.2l0.7,0.4l0.1-0.5l-0.5-1h-0.8l0.3-0.9l0.9,0.4l0.2-4.2l-0.1-0.4l-0.9-1.7l-0.1-1.2l0.9,0.2l-0.4-1.3l0.4,0.2
		l0.1-0.7l-2.3-0.3l-1-1.3h0.3v-0.3l1.4,0.9l-0.1-0.9l1.4,0.3L343.1,529.8z M320.4,545.9H320v-0.7h0.5L320.4,545.9z M321.2,566.3
		l-0.3-0.2l0.2-0.9l0.4,0.1L321.2,566.3z M335.3,594.7l-1.5-0.9l1.5,0.4V594.7z M335.3,593.2h-0.8l-0.5-0.4l-0.1-0.5l0.3-0.4
		l1.1,0.5V593.2z M339.7,556l-0.2,0.4l-0.5-1.3L339.7,556z M340.8,535.6l-0.1,0.2l-0.7,0.3l0.1,0.4l0.6,0.4v0.4l-1.2,0.4l-0.6-0.8
		l-0.7-1l0.5-1.2l0.4,0.2l0.6-0.7l1.2,0.7V535.6z M321.3,585.3l-0.1-0.9l-0.2-0.7v-0.4l0.5,0.1l0.1,0.7l0.5,0.5l-0.5,0.5
		L321.3,585.3z M365.4,596.2l1.2-0.5l-0.3,0.5H365.4z M368.6,573.8l0.3,0.4l-0.8,12.8l-0.1,7.7l-0.3,0.9l-0.6,0.5v-0.7l0.2-0.3
		l-0.2-0.4l-0.9,0.2l-0.4-0.7h-0.8l-0.4,1.2l-1.2-1.2l-1.4,0.8l-3.3,0.5l-1.2-1.1l-0.4-0.1l-2.5,0.4l0.1,0.4l-0.9,0.1l-0.1,0.3
		l-2,0.1l-2.9,0.8l-1.1,0.1l-1.2-0.9l-0.5-0.8l-0.4-2.7l0.5-2.8l0.4-0.4l4.9-2.3l0.9-0.5l0.3,0.8l0.9-0.1l0.7,0.3l0.6-1.2l1.2-0.3
		l0.1-0.7l0.9-0.3l1.5-0.1l0.3-0.3l0.2-0.3v-1.2h-0.8v-0.4l0.5-0.5h0.6v-0.9l0.9-0.1l-0.3-0.4l-0.5,0.2l0.4-1.1l0.6,1.3l0.2-1
		l-0.6-0.5l1.5-2.7l2.1-3.1l0.8-0.5l1.2-0.2l1.9,0.4L368.6,573.8z M346.5,563.4l-0.6-1.3l-0.2-1.7l0.7-2.9l0.6-0.9l2.4-2.1v0.5h0
		l0.9,0.2v-1.2l1.5-0.5l0.1-2.1l-0.3-0.7l1.8-4l0.3-0.2l1.4-0.3l1.9,0.4l0.6,0.7l0.4,3l-0.2,5.8l-0.3,4l0.1,1.8l-0.3,0.4l-0.3,1.5
		h0.6l0.2,1.2l0.3,5.7l-0.3,2l-0.9,0.9l-1.7,0.5l-1.2-0.3l-0.5-0.4l-3.3-6.4L346.5,563.4z M346.2,530.3l-0.4-1.7l0.1-1.5l0.3-1.5
		l0.3-0.4l0.7-0.3l1.2-0.1v0.3h0l1,0.3l0.3-0.4l0.5,0.4l1-0.5l1.1,0.8l0.1-0.4l0.7-0.1l0.5,0.9l0.4-0.1l0.2,0.2l1-0.9l4.6-0.1l5-0.3
		l0.5,0.1l0.7,0.8l0.4,1.5v2.1l-0.7,0.2l-0.2,0.8l0.4-0.2l-0.6,1l-0.4,1.6l0.3,1.4l0.3,0.3l0.9,0.3l0.1,1.8l-0.4-0.9l-0.8,0.8
		l-0.3-1.5l-0.3,1.3l0.7,0.3l0.1,1l1-0.2l0.8,6.9l-0.4,1.4l-0.7,0.8l-1.5,0.3l-2.1-0.5l-0.4-0.3l-2.9-4.7l-4-5l0.7-0.5l-0.6-0.5
		l-0.2,0.3l-0.7,0.1l-1.2-1l1.2,0.1l-1.1-0.3l-0.9,0.1l-5.4-2.6l-0.3-0.3L346.2,530.3z M386.8,531.9l-1.2,0.9l-0.3,0.5l-1.4,3.5
		l-0.6,0.7l-0.1,1.2l-1.2,2.4l0.6,0.7l-2,7.1l-0.5,0.4l-1.2,0.5l0.3-0.5h-0.6l0.3-0.8l-1-0.3l-0.6,1.1l-0.5,0.2l-0.2,0.5l-1.8-0.8
		l-0.4-0.5l-0.3-1.8l1.1-11.2l-0.4-4.7l0.3-1l-0.3-0.8l0.4-0.4l-0.4,0.2V528l0.7,0.4l0.6-0.5l-0.3-0.2l0.3-0.3l0.4,0.2l0.4-1.3
		l-0.6-0.3l-0.2-0.7l-0.5-0.3l7.9,0.4l1-0.5l0.8,1.3l0.4-1l0.7-0.2l0.1-0.5l0.8,1.2l-0.8,0.1l-0.9,0.8l0.8,0.9l-0.1-0.5l0.4-0.4
		l0.5,1.1l-1,0.8l0.3,0.7l0.5,0.2l0.3-0.1l1.8-1v2l-0.2,0.7l-1,1.4l-0.3-0.5L386.8,531.9z M433.1,548.3l-0.6,0.1l0.6-2.3l-0.3-0.3
		l-0.7,0.2l0.5-1.2l-1.2-0.1v-0.3l-0.7-0.2l0.6-1.2l1.1-1.6l0.2-0.5l0.2-0.8v-8.7l-0.2-5.6l-0.3-0.3l-1.2-0.7l-5.7,0.4l-5.3-0.5
		l-0.4,0.1l-1.1,1.2l-0.3,1.6l0.1,1.4l1.4,3.8l2.5,1.1l1.2,0.7l-0.5,0.8H423l0.3,1.6v0.8l2.2,5.2l2.2,6.4l0.3,0.5l0.5,0.4l1.4,0.2
		l2.2-0.4l1-0.5l0.3-0.5l0.1-1.2l-0.4,0.1V548.3z M430.3,547.4l-0.5-0.3l0.8-0.3L430.3,547.4z M430.3,546l-0.1-1h1.1l0.3,1.1
		L430.3,546z M421.3,591.1l-4.1-1.6l-1.1-0.9l-0.3,1.4h-0.6l0.2,0.9l-0.7,0.3l-0.7,0.1l-0.4-0.8h1.4l-0.7-0.8l-1.2-0.5l-1-1.6
		l0.5-0.3l0.8,0.2l0.2-0.5l-0.3-0.8l1.6,0.1l-0.4-1.6l0.5-0.3V584l-0.8-0.5l0.7-0.5l0.1-0.5h0.4l-0.2-0.7l-0.1-1.4h-0.4l-0.3-1.2
		l-0.1-0.8l0.3-2.3l0.3,0.1l0.5-0.2l-0.1-2.6l0.3-5.2v-0.3l-0.7-1.2l-0.1,0.5l-0.3-1l0.8-0.2l0.1-0.3l-0.7-0.1l-0.1-1l0.6,0.8v-0.8
		l-0.8-0.8l1-0.2v-0.4l-0.3,0.3l0.1-0.4h-0.7l-0.1-0.4l0.5-0.3l-0.3-0.3l0.1-0.7h0.7V561l-1.1-0.4l0.2-1l-0.4-0.2l0.4-0.9h0.3
		l-0.3-1.1v-1.1l-0.4-1l0.7-1.6l-0.3-1.2l0.1-1.3l-0.2-1.4l0.3-0.2l-0.9-0.7l0.3-0.4l1.2,0.4l0.1-5.2l-0.4-0.7l0.1-1l-0.5-1.2
		l0.7-0.5v-1.6l-1.1-1.6l0.5-0.7l-0.1-0.4l-0.4-0.1l0.3-0.8h0.8v-0.4l-0.7-0.8l0.3-0.3l-0.6-1.6l0.1-1l-0.1-1.2l0.8-1l0.2-1
		l-0.4-2.3l-0.5-0.5l-2.4-0.5l-10.8,0.7l-6-0.7l0.2,1l-2.9,1.6l-0.1,23.2l0.6,0.1v0.4l-0.4,0.5l0.3,0.2l-0.5,0.4l0.7,1.2l0.4,1
		l-0.6,2.1l1.1,0.4l-0.2,1.4l-0.3,0.3l0.4,1.5l-0.4,0.1l0.3,2.4l-0.3,0.4l0.3,1l0.6,4.2l-0.3,1h-0.4l-0.2-0.5H393l0.2,0.9l-0.4-0.4
		l-0.2,5.3l1-0.3v1l-0.7,0.1l-0.1,1l0.5,0.1l0.5,1l-0.4,1.5l-0.2,2.1l-0.5-0.3l-0.2,3.9l-0.4,4.1l-0.2,0.3l-5.5,2.6l-0.2,2.3
		l0.1,0.7l0.5,0.7l0.6,0.3l3.9,0.9l4.9-1l2-0.3l2.2,0.2v0.8l0.7,0.1h5.1l9.8,0.7l4.6-1.3l1.1-1.1l0.2-1l-0.3-1.3L421.3,591.1z
		 M393.6,573.5l-0.5-0.1l0.6-0.8L393.6,573.5z M393.4,584.5l-0.7-0.3l0.3-0.8h0.4V584.5z M393,582.8l0.3-1.2l0.2,1.2H393z
		 M396.9,578l-0.6,0.6l0.1-0.8l0.4-0.8L396.9,578z M394.1,544l-0.7,1.2l-0.1-1V544l1.2-0.2L394.1,544z M394.8,544.3l1.7-0.4
		l-0.6,0.9l-1.2,0.2V544.3z M397.1,580.3l-1.1,0.4v0.9l-0.5,0.4l-0.4-0.5l2-2.6L397.1,580.3z M411.9,530.3l0.8,0.7l-0.3,1.2
		l-0.7-0.2L411.9,530.3z M410.7,536.1v-1.5l1-1.3l0.5,0.4l0.4-0.4l0.2,1.7l0.6-0.1l-0.1,0.4h-0.5l0.1,0.7h0.4l0.5,1.3l-0.9,0.7
		l-1.4-0.3l0.2-0.9L410.7,536.1z M412.4,540.5v0.8l-0.5,0.1L412.4,540.5z M501.5,589.9l-0.6,0.8l0.2,0.5l-0.8-0.7l0.1-1.6l-0.5,0.2
		v0.4l-0.7-0.9l0.4-1l0.4-3.3l-0.3-19.4l-0.5-0.7l0.6-0.5l0.1-1.5l-0.3-1l0.1-0.8v-1.7l-0.3-0.1l0.2-0.8l-0.6-0.1l-0.2-1.2l0.4-1.4
		l0.6,0.1l-0.3-1.3l-0.5,0.3l-0.5-1.4l0.4-1.6l0.3,0.3l0.2-0.5h-0.4l0.1-0.3l-0.8-0.5l-0.2-0.7l0.5-0.7l-0.5-0.8l-0.1-1.7l-0.6-0.1
		l-0.2-1l0.8-4l-0.3-0.3l0.4-1.2l0.5-3.7l0.9,0.2l0.1-1.5l0.5-2.3l0.4-0.7l4-2.4l0.3-1.8l-0.3-1.2l-0.7-0.8l-6.7-1.2l-4.4,0.2
		l-0.4,0.1l-0.4,0.4h-0.4l-0.8,1.1l-2.5,1.7l-0.8-0.7l-1.2,0.4l-0.4-1.4l1.9,0.1v-0.7l-0.2-0.5l-0.3-0.3l-0.4-0.1l-1.7,0.5l-0.9-0.5
		l-0.7,0.2l0.3-0.4l-1.4-0.2l0.5,0.3l-0.5,0.4l-0.9-0.8l-1.5-0.3l-3.3,0.1l-3.3,1l-0.6,0.7l-0.3,1.4l0.3,2.1l0.3,0.3l3.3,2.8
		l0.4,6.2h0.7l0.2,0.3h0.6l0.8,0.9l-0.1,2.6l-0.4,0.7l0.4,0.2v1.5l0.2,1.2h-0.4l0.8,2l-1.1-0.3l-1.7,0.5v1.1l2,0.9l-0.8,1.2
		l-0.3-0.1l-0.2,1.2l0.5,1.1l0.3-0.7l-0.1-0.5h1.4l0.2,0.2v0.3l-0.4,1.6l-0.2-0.7h-0.5l-0.1,1l-1.4-0.5l-3.3,1l-4.1,0.7l-0.5,0.1
		l-0.5,0.7l-0.2,1.4l0.4,2.4l0.5,0.5l3.8,0.5l1.7,0.4l2.8,2.5l-0.3,0.4l-0.2-0.8h-0.5v1l1,0.9l-0.1,0.8l0.4,0.8l-0.6,1.8v0.5
		l0.4,1.4l-0.4,0.4l-0.3,1.5l0.3,1.4l-0.8-0.1l0.9,0.9l-0.5,2.6l0.2,0.8l-0.2,0.1l-0.1,0.8l0.9,1.7l-0.5,0.5l0.3,0.7l-0.1,1.1
		l0.8-1.7l0.8,1.2l-0.3,0.4l-0.4-0.1l0.5,0.7v0.9l0.3,0.4v1.3l0.2,0.8l-0.4,0.5l-0.3-0.1l0.1,0.5l-1.2,0.5l-2,0.5l-1.7,1l-1.1,1.4
		l-0.2,1.1l0.4,1.4l0.8,1l0.6,0.2l2.2-0.5l-0.1,1.5l0.6-0.9l0.6,0.2l-0.3,0.1l-0.1,0.4h0.7l-0.2-0.7h1.2l1.3,0.8l5.2-0.4l1-0.5
		l0.3,0.5l0.6-0.2l0.5,0.1l1.2-0.4v0.5l1.2-0.4h3.9l1.4-0.1l-0.6,1l4,0.2l5-1.3l0.6-0.5l0.3-1.1v-1.8l-0.3-0.4L501.5,589.9z
		 M478.5,536.1l-0.6-0.2l0.4-0.4l0.4,0.3L478.5,536.1z M478,563.7l-1.2-1.4l0.2-0.8l0.5,0.3l0.5-0.3l-0.3-0.9l0.4-0.2l0.2,0.3
		l-0.2,0.3l0.2,0.7l-0.2,0.5l0.3,1.1L478,563.7z M479.2,580.9l0.1,0.7l-0.4-0.1v0.3l0.4,0.1l-0.2,0.4l-0.5-0.3l0.2-1l0.4-0.3v-0.7
		l0.3,0.8L479.2,580.9z M481.3,595.1l-0.3,0.3l-0.4-0.3l0.8-0.3l0.7,0.5L481.3,595.1z M484.5,527.2l-0.7-0.5l1.4,0.1L484.5,527.2z
		 M493,578.2l-1.7,0.3L490,580l-1.1-0.8l0.4-0.5l-1-0.8l1.4-0.2l0.8-0.5l0.1-0.2l0.9-0.9l-0.1-0.4l0.5-0.2l-0.5,1.2l0.2,0.9
		l-0.5,0.4l1-0.1l1-1l-0.1,0.9l0.7,0.1L493,578.2z M494.6,575.4v0.7l-0.8-0.1l-0.9-0.8l0.2-0.4l0.4-0.1l0.3-0.7l0.6,0.2l0.5-0.8
		l1,0.8L494.6,575.4z M443.4,557.3l-0.8,0.9l0.3-1.4L443.4,557.3z M460.9,595l0.8,0.8v0.4l-0.9-0.4L460.9,595z M469.2,591.5l-3-2.7
		l-0.3-0.4l-0.5-10.9v-44l0.3-1.1l0.5-0.5l3.3-2.7l0.1-0.8l-0.5-2.2l-0.7-0.9l-2-0.8l-1.1-0.1l-0.2,1l-1.1-0.2l-0.2-0.4l-0.6,0.5
		l-0.4-0.8l-0.7,0.5l-0.7-0.7l-0.2,1.1l-2.5,0.8l-0.3-0.7l-1.2,0.1v-1.1h-2.4v0.5l-1-0.3l-1.6-0.2l-1.3,0.8l-0.6-0.9h-1.8l-1.1-0.2
		l-1.2,0.2l-0.1-0.3l-3.2-0.2l-2.4,0.3l-2.2,0.8l-0.8,1l-0.4,1.4l0.3,1.6l4.3,2.9l0.3,1.6l0.1,4.3l0.9,0.5l0.4,0.7l0.2,1.8v1.9
		l0.6,3.1l-0.3,1.5l-1.1,0.2l0.4,4l-0.1,0.7l-0.7,1.5l0.6,0.8l0.3,0.7l0.1,1.5l0.6,3.1l-0.1,1.1l-0.4,0.1l0.2,2.4h-0.8l0.1-0.9
		l-0.7-0.3l-0.1,3.6l0.9,0.6v0.8l-1,0.1v0.9h0.4l0.5,0.4l-0.2,0.4h-0.7v3.1l0.5,0.4v0.7l-0.4,0.1v0.8l0.4,0.7l-0.6,0.2l0.2,5.5
		l0.9-0.9v-0.3l0.3,0.3l0.5-0.2l0.5,0.9l0.3-0.4v-0.4l0.6,0.5l-0.4,1.2h-0.5l0.5,1l-1-1.1l-0.9-0.1l-0.2,0.2l0.5,0.3l-0.3,0.3l1.2,1
		l0.3-0.1l0.5,0.4l-0.9,1.6h-0.4l-0.8,1l-0.8-0.3l-0.2,1.2l-0.3,1.5l-4.3,2.7l-0.4,1.6l0.3,1.5l0.9,1l2.7,0.8l8-0.5l3.3,0.4h1.8
		l0.3-0.3l-0.5-0.4l0.7-2l0.2-0.1h0.6l0.5,0.5l1.2-0.1l1.6,0.8l1.7,0.3l1.2,1.1l0.3-0.3l1.7,0.2l-0.4,0.9l-1.2-0.1v0.1l1.9,0.3
		l3.7-1.1l1.4-1.5l0.3-1.1l-0.1-0.8L469.2,591.5z M445.8,579.9l-0.3-0.3l0.1-0.3l0.5-0.1L445.8,579.9z M446.6,533.3l-0.3,0.3
		l-0.4-0.2l0.1,1l-0.6,0.7l-0.9,1.4l-1.2-1l-0.1-0.5l0.1-0.3l1.1-1l0.4,0.3l-0.2-1l0.6-1.1l1.4,0.5l0.6,1L446.6,533.3z M459.2,550.8
		l-0.4-0.9l0.3-0.1l0.5-0.7l0.4,0.4L459.2,550.8z M461,555.8l0.4-1l0.5,0.1L461,555.8z M462,549.8l-0.4-0.5l-0.5,1l-0.7-0.4l0.8-1.1
		l-0.4-0.9l1.2,1.4L462,549.8z M462.9,554.2l-0.8,0.2l0.3-0.7l0.7,0.2l0.8,1.4L462.9,554.2z M464,554l0.3,0.5l-0.8-0.2l-0.3-1.3
		l-0.6,0.3l0.1-0.9l0.7,0.1l0.1-0.4l0.5,0.2v0.3l0.5,0.2l0.1,0.7L464,554z M520.8,586h0.3l-0.2,0.9h-0.5v-0.3l0.4-0.1V586z
		 M561.3,587.8l0.1,0.2l-0.9,0.3l-0.3-0.3L561.3,587.8z M536,587.4l-0.5-1.4l-0.3-1.2l-0.7,1.1l-0.7-1.1l1-2.9l0.2-0.9l-0.6-7.5
		l-0.7-0.3l0.4-1l-0.5-0.4v-1.3l-0.2-0.5l0.1-0.7l-0.5-0.3l0.1-0.8l-0.9-0.2l0.1-1l0.7-1.2l-0.4-0.4l0.2-0.7l0.6-0.4v-0.4l0.3-0.7
		L533,563l0.5-1.4l-0.4-0.9l0.1-1.3l-0.1-1.4l0.3-1.1l-0.3-0.8l0.2-0.4l-0.4-1.3l0.1-0.7l1.4,0.2l1.2-19.9l0.4-0.8l3.1-4.1l0.1-0.8
		l-0.4-4.1l-0.4-0.5l-1.3-0.4l-1.2-0.1l-6.5,1.4l-5,2.5l-2.4,1.7l-0.9,0.8l0.5,0.4l-0.4,0.8l-0.4-0.2v0.4l-0.3,0.1l-0.6,1.6H519
		l0.1,0.5l-0.2,0.1l0.1,1.3l-1-0.1l-0.3,1.3l0.2,0.8l0.9,1.2l-1.6-0.1l-0.6,0.2l-0.6,0.9l-0.7,0.1l-0.1,2h-0.7l0.1,0.9l-0.2,1.2h0.8
		l0.6-0.9l0.8-0.2l0.1,1.1l0.5,0.2L517,544h-0.5l-0.3,0.3v0.7l-1.3-0.4l0.1-0.5l-0.5-0.5l-0.9,0.5l-0.2,0.7h-0.7l0.2,0.4l0.5,0.1
		l-0.5,0.2l0.2,1.2L513,548l-0.9-0.4l-0.3-0.6l-1,1.3l-1,4l-0.4,8.4v2.9l1.2,8.4l0.2,1.3l1.1-0.1l1.2-0.2l0.5,0.2l0.1,0.8h-0.2
		l0.6,1.2l-0.1,0.4l1.3,0.2l1,1.3l-0.2,0.2l0.5,0.5l-0.1,0.8l-0.4,0.1l0.1,1.8l-0.4,0.8h0.6l-0.6,0.4l-0.4,0.1l0.3,0.4l-0.1,0.9
		l0.5,0.1l0.2-0.8l0.5,0.1l0.6,0.7l-0.3,0.1v0.9l1.4,0.8l-0.4,1.8l1.8,0.7l-0.3,0.9l0.1,0.5l0.7-0.3l0.2,0.8H520l1.2,1.2l3.6,2.7
		l3.6,1.8l1.4,0.5v-0.8l0.7,0.2l-0.2,0l0.2,0.9l0.6,0.1l0.9-0.5l0.8,1l0.6-0.3l0.6,0.4l1.6,0.2v-0.3l1.3,0.4l1.2-0.3l0.8-1l0.4-1.5
		l-0.6-3.5L536,587.4z M511.3,550.4l0.6,0.4l0.1,0.3l-0.2,0.4l-0.2,0.1h-1L511.3,550.4z M510.6,552.7l0.8,0.9l0.2,3.4l-0.7,0.1
		l-0.3,0.5l-0.1-1.7h0.4l0.4-1.1l-0.2-0.4v0H510L510.6,552.7z M511.7,558.6l-1.2-0.5l0.8-0.3l1.1,0.9H511.7z M515,547.3v-0.5
		l-0.4,0.1l-0.1-0.7l-0.4-0.2l1.2-0.2L515,547.3z M519.7,582.2l1.1-0.2l0.5,0.2v0.5l-0.8,0.8l0.5,0.1l0.1,0.8l-0.6,0.8l0.2-1.1
		l-0.4-0.1l-0.2-0.8l-0.6-0.3L519.7,582.2z M522.4,587.2l-0.5,0.7v-0.5l-1.2,0.3l-0.8-0.2l0.2-0.8l0.6-0.5l-0.5-0.2h0.6l0.2-0.5
		l0.8-0.2l0.7,1.2l-0.2,0.2L522.4,587.2z M532.9,595.5l-1.2-1.6l-0.7,1.2l-0.4,0.1l0.3-1l-0.4-0.3l0.4-0.5h0.6l-0.3-1.2l0.5-0.5
		l1-0.1l0.1,1.5l-0.5-0.1l-0.1,0.1l-0.2,0.5l0.1,0.4l1,0.8L532.9,595.5z M533.7,593.8l-0.2,0.7l-0.4-0.3l0.3-0.3v-1l0.9,0.9
		L533.7,593.8z M571.5,562l0.5,2l-0.4,3.6l-0.8,4.4l-1.6,5.6l-0.9,2.1l-0.7,1.2l-0.3-0.3l0.2-1l-1.1-1.2l-0.6,0.5v0.8l-1,0.8
		l-0.2,1.3l-1.2,1.6v0.7l-0.9,0.3l0.1,1.8h0.5l-0.4,1h-1.2l-0.1-0.7l-1.7-0.7l-1,0.9l-0.4,1h-0.3v0.4l-1,1.3l0.7,0.9l0.2,0.8l-0.2,1
		l-0.5,0.8l-2.3,1.6l-4,1.7l-3.5,0.9l-2.2,0.2l-1.8-0.5l-1-1l-0.3-1.8l0.3-2.9l2.6-3l1.2-4.4l0.9-0.5l-0.5-0.3l0.5-0.4l0.1-1.4h0.6
		v-2.2l0.3-1.8l-0.3-0.2l0.3-1.4l-0.1-1.8l0.4-0.7l0.2-1l0.7-0.9l-0.4-0.3l0.2-0.3l0.3-1l0.6-1.3l-0.7-1.3l0.6-0.9l-0.7-1.4l1.2-1.7
		l-0.5-0.5l-0.5,0.1l-0.4-0.7l0.2-0.3l-1.4-0.2l-0.4-0.5l-0.2,1.3l-0.2-1.8l0.5-0.1v-1l0.3,0.1l0.1-3.6l-0.4-1.3l-0.7-1.1l0.2-0.1
		l0.6,0.1l0.2-0.7l-0.3-0.7l-0.5,0.8l-0.2-6.2h0.4l-0.1,0.9l0.3,0.3v1.6l-0.3,0.3v0.5l0.9,0.4l0.2-1l-0.2-1.4l0.9-0.7l1,0.4l0.5-0.1
		l-0.1-0.5l0.3-0.3l-0.3-0.5l0.3-0.3v-1.4l-0.4-0.4l0.4-1l-0.1-1.6l0.3-1l-0.3-0.7l-1.1-0.7l-1.1-0.2l-0.2,0.8l0.6,1l-0.5,0.3
		l-0.2,1.5l-1.2-0.8l-0.1-0.2l-0.3-4.8l-0.6-2.7l-0.7-1.4l-2.5-2.9l-0.3-0.5l-0.2-1.6l0.1-1l0.4-2.5l0.5-0.5l0.7-0.1l0.5,0.1l1,1.1
		l0.3-0.3h0.4l0.6,1l0.5,0.3h0.1l0.7-1.3h0.6l0.6-0.8l0.4,0.7l1.1,0.2l-0.4,0.2l0.8,1.1l0.6,0.2l0.6-0.2l0.8-0.7l5.1,2.5l-0.6,0.3
		l0.8,0.4h0.6l0.3,0.2l-0.6,0.8l0.4,0.2l-0.2,0.9l0.7,0.2l0.2,0.5l-0.2,0.3l0.2,0.8l1.6,0.2l0.6,0.5l0.3-0.3l0.4,0.8l1.1,0.7v1
		l1,0.2l1,1.2l0.3,1l-0.1,1.6l0.7,0.7l0.5,0.7l0.1,0.3l-0.1,0.4l0.9,0.3l0.5,2.4l0.7,0.5v0.5l-0.3,0.1l0.3,0.4l0.5-0.3l0.7,1.1
		l0.1,2.4l0.3,1.1l0.4,0.1v3.1h0.8v2l0.3,1.7l-0.3,2.6l0.4,0.2L571.5,562z M558.7,587.5l0.7,0.4h-0.7V587.5z M548.4,546.3l0.1-0.7
		l-0.3-0.7l0.2-1.7h0.6l0.6,1.5l-0.3,1L549,547h-0.4L548.4,546.3z M604.6,561.1l0.3-0.3l-0.7-0.4l0.5-1l0.4-5.3l-0.9-4.3h0.9v-5.1
		l-1.2-1.3l0.3-1.6l0.8,0.2v-15.3l-0.2-0.8l-0.8-0.9l-1.4-0.3l-4,0.3l-0.6,0.8l-1-0.2l-1.9-0.2l-1.1-0.3l-0.8,0.1l-0.3,1.1l-0.2,0.2
		l-0.6,0.1l-1-0.2l-0.9-0.4l0.8-0.3v-0.5h-4l-0.6-0.3l0.1,0.7l-0.8,0.5v-0.4l-0.6-0.8h-0.5l-0.6-0.3h-2.1l-1.5,0.3l-2.8,1l-0.8,0.9
		l-0.3,1.3l0.2,1.1l0.4,1.2l4.1,2.4l0.4,0.5l0.1,2.2l-0.1,6.4l0.9,0.4h1.2l-0.5,0.9l0.4,2.2l-0.2,1.2l-0.6,1.4l-0.1,1l0.5,4
		l-0.4,0.5l-0.9,0.1l-0.3,1.1l-0.1,1.1l0.1,3l0.2,1.5l0.5,1l-0.6,1l0.4,1l-0.5,0.2l0.5,1l0.2,2l0.5,1.6l-0.8,4.1l0.4,1.1l-0.8,0.1
		l-0.1,9.7l1,0.9l0.1,1.1l0.6,0.3l-0.4,1.2l-1,1.1l-1.1,1.5l-4,2.1l-0.3,0.9l-0.1,0.9l0.3,1.4l0.9,0.9l2.5,0.8l2.7,0.4l6.3-0.3
		l0.9-1.1l0.4,0.5l1.2,0.5l3.6,0.3l3.6-0.1l3.5,0.1l1.9-0.3l0.5-0.7l0.4-2.1l-0.1-4.8l-0.5-0.9l0.6-1.3l-0.2-3.6v-3.2l-0.3-1.2
		l-0.8,0.5l-0.2,1.5l-0.7,1.2l0.1,1L602,583l-0.5-1.6l0.1-0.8l0.4,0.1l0.4-1.8l0.6-1.6l0.5-1l-0.7-0.9l0.2-1l0.7,0.8h0.5l-0.1-0.5
		l-1.1-1.1v-0.4h0.8v-0.4l0.6,0.1l0.2,0.5l0.5,0.1v-1l-1.1-0.4L603,571l0.1-0.9l0.8,0.8l0.5-1.4h0.6v-5.4h-0.5l0.4-0.4l-0.4-1.2
		l0.8-0.3L604.6,561.1z M585.6,568.8l-1.2,1l-0.5-0.1l1.3-1.5v-0.8l0.8-0.4L585.6,568.8z M592.3,594l-1.2,0.2l0.3-0.4l0.5,0.1l0.5-1
		h0.5l0.4,0.3L592.3,594z M603.5,534.2l1.2,0.8l-0.3,0.5l-0.5,0.1l-0.3-0.5h-0.4l-0.3-0.5L603.5,534.2z M596.6,543.6v-0.5l0.6,0.7
		l0.2,1L596.6,543.6z M599,543.3h-1l-0.5-1l-0.7-0.6l1,0.1l0.3-0.4h0.5l0.2,0.7l0.3,0.5L599,543.3z M601.6,583.1l0.7,1.4l-0.7,0.3
		l0.2,0.9l-1.3-1.1l0.6-0.2v-0.3l0.6-0.1l-0.4-0.3L601.6,583.1z M602.1,537.7l-0.8,0.9l-0.1,1.4l0.5,0.1l0.2,0.7l0.6,0.8l-1.2,0.1
		l-0.6,0.4l0.1,0.7l0.7,0.7l-0.6,1.1l0.8,0.2l-0.4,0.3l0.3,0.9l-0.4,0.7l-0.1,0.9l0.2,2.2l-0.5,0.5l-1.2-0.2l0.3-2.6v-0.5l-0.6-1.1
		l0.5-2.8l-0.3-0.2l-0.4-2.3l0.5-1l0.5-2.6l0.5-1l1.6,0.4l0.3,0.7l0.5-0.4l-0.1,0.9l0.8,0.3l0.1,0.5L602.1,537.7z M604.4,566.9
		l-0.1,0.2l-0.7,0.4l-0.5-0.8v-0.3l0.3-0.3l0.4-0.1l0.3,0.1l0.3,0.2V566.9z M637.3,557l0.1-0.7h0.8l-0.4-3.4h-0.2l-0.5-1.7h0.4
		l-0.1-1.2l-1.7-6.4l-1.1-2.6l-1-1.5l-1.9-0.4l0.2-0.7l-0.2-0.4l0.6,0.1l-1.1-2.6l-1,0.8l0.6,0.9l-1.1-0.5l-0.2-1.1l-0.9,1.3
		l-0.3-1.2l-1.2-0.7l-0.2-1.6l-2.3-0.7l-0.1-1.1l-2.7-1.7l-0.1-1.8l0.2-0.5l-1.2-0.7l-5.6-2.1l-3.8-0.7l-2,0.5l-1.1,1.3l-0.6,2.1
		l0.2,1l0.4,0.8l0.8,0.8l0.4-0.3l0.6,1l1.7,1.3l0.9,1.1l0.9,2.7l0.6,5.4l1.4,0.7l0.1,0.7l1.1,0.8l-0.3,0.3l-0.5,2.5l0.2,1.1
		l-0.3,1.5l0.9,0.4l-0.1,0.8l0.8,0.7l0.1,0.4l1.5-0.5h1.7l0.5-0.4l0.2,0.3l-2,0.8l-0.1,0.4h-1.2l-2.7,2.5l0.5,0.2l-0.4,0.9l-0.2,0.1
		l0.2,1.2l-0.1,1l-0.2,0.4l-0.8,0.9v0.3l0.2-0.2h0.6l-0.1,1.2h-0.5l0.1,0.4h-0.4l-0.5,16.2l0.5,1.8l-0.6,1.7l0.7,0.9l-0.7,1.2
		l-0.6,2.8l-1.2,2.6l-0.9,1.1l0.1-0.5l-1.1,0.5l-1.8,1.1l-0.3,0.4l-0.4,1.8l0.6,2.5l0.9,1l1.8,0.4l2.6-0.2l1.2-1.3l1.2-0.7l-0.4,0.8
		l-0.5,0.2l0.6,0.5l1.1-0.2l4.3-1.8l4.2-2.6l3.7-3.4l-0.3-0.8l0.5-0.1l0.2-0.8l0.9,0.1l0.3-0.2l0.5-1l0.4-1.1l1.1-0.4v-1.4l0.3-0.8
		l-0.5-0.3h-0.6l-0.8-0.9l-0.1-0.5l0.1-0.4l0.8-1.1v-2.9l0.7,0.3l1.1,1.3l0.7-0.2v-1l1.4,0.7l0.6-1.4l0.7-2.4l0.7-3.2l0.2-1.3
		l-0.9-0.5l-0.4-0.5v-0.3l0.8-1.2l-0.1-1l0.4-1.8l-0.3-1.2l0.8-0.9l-0.1-0.4h-0.4l0.5-2.3L637.3,557z M615.6,541.6v-0.4l0.9,0.2
		l0.1,0.4L615.6,541.6z M616.9,556.7l0.7-0.7l0.5-0.1l-0.2,0.8H616.9z M618.2,562l-1.1-0.1l0.4-0.4l0.8,0.1L618.2,562z M624.1,550.4
		l-1.7,0.7l-0.4-0.4l0.8-0.7l0.7-0.2h1.4L624.1,550.4z M616.2,549.8v0.7l-0.6,0.1v-0.9L616.2,549.8z"/>
	<g id="i-survived-letters">
		<path id="i-survived-letter-i-1" d="M233.1,350.6h-18.9h-1.1c-1,0-1.8-0.2-2.4-0.5c-0.6-0.4-0.8-0.9-0.8-1.6
			c0-1.1,0.6-1.8,1.7-2.2c0.9-0.3,1.5-0.5,1.6-0.5c0.2-0.1,0.3-0.2,0.5-0.5c0.3-0.4,0.5-1.1,0.5-2.1v-40.5c0-0.9-0.2-1.6-0.5-2.1
			c-0.2-0.2-0.3-0.4-0.5-0.5s-0.7-0.2-1.6-0.5c-1.1-0.4-1.7-1.1-1.7-2.2c0-0.7,0.3-1.2,0.8-1.6c0.6-0.4,1.3-0.5,2.4-0.5h1.1h18.9
			h1.1c1,0,1.8,0.2,2.4,0.5s0.8,0.9,0.8,1.6c0,1.1-0.6,1.8-1.7,2.2c-0.9,0.3-1.5,0.5-1.6,0.5c-0.2,0.1-0.3,0.2-0.5,0.5
			c-0.3,0.4-0.5,1.1-0.5,2.1v40.5c0,0.9,0.2,1.6,0.5,2.1c0.2,0.2,0.3,0.4,0.5,0.5c0.2,0.1,0.7,0.2,1.6,0.5c1.1,0.4,1.7,1.1,1.7,2.2
			c0,0.7-0.3,1.2-0.8,1.6s-1.3,0.5-2.4,0.5H233.1z"/>
		<path id="i-survived-letter-s" d="M285.6,294.3v4.6c-1.8,0.5-3.1,1.2-4,2.1c-0.9,1-1.4,2.1-1.4,3.5c0,1.4,0.4,2.5,1.1,3.5
			s2,2,3.7,2.9c1.2,0.6,3.9,1.8,8,3.6c2.5,1,4.5,2,5.9,2.9s2.7,1.9,4,3.2c3.3,3.3,5,7.3,5,11.9c0,3.5-0.9,6.7-2.7,9.5
			s-4.3,5.1-7.5,6.8c-1.7,0.9-3.5,1.5-5.6,2c-2,0.5-3.9,0.8-5.7,0.8v-4.6c2.5-0.6,4.2-1.4,5.3-2.4c1.1-1,1.6-2.4,1.6-4.1
			c0-1.8-0.9-3.4-2.5-4.8c-1.1-0.9-3.3-2-6.4-3.3c-3.5-1.5-5.9-2.5-7.1-3.1c-1.3-0.6-2.5-1.4-3.7-2.2c-5.3-3.6-8-8.4-8-14.4
			c0-3.1,0.7-5.9,2-8.5s3.2-4.7,5.5-6.3C276.6,295.8,280.7,294.6,285.6,294.3z M283.4,347.1v4.6c-2.3,0-4.9-0.6-7.7-1.9
			c-1-0.5-1.8-0.8-2.2-0.9c-0.4-0.1-0.8-0.2-1.1-0.2c-0.6,0-1,0.1-1.3,0.3c-0.3,0.2-0.7,0.6-1.4,1.3c-0.5,0.6-1.1,0.9-1.6,0.9
			c-1.6,0-2.4-1.2-2.4-3.5V333c0-0.8,0.2-1.4,0.7-1.9c0.5-0.5,1-0.8,1.7-0.8c0.6,0,1.1,0.1,1.5,0.5c0.4,0.4,0.7,1,0.9,1.9
			c0.6,2.3,1.6,4.5,2.8,6.5c1.2,2,2.7,3.7,4.3,5.1C279.3,345.7,281.2,346.7,283.4,347.1z M289,299v-4.5c1.7,0.1,3.2,0.3,4.4,0.6
			c1.2,0.3,3,0.9,5.3,1.8c0.6,0.2,1,0.3,1.4,0.3c0.5,0,0.9-0.2,1.2-0.5l0.9-1.2c0.5-0.6,1-0.9,1.6-0.9c0.8,0,1.3,0.3,1.7,0.8
			s0.5,1.4,0.5,2.5v13.3c0,0.8-0.2,1.4-0.7,1.9s-1.1,0.8-1.8,0.8c-0.6,0-1.1-0.2-1.6-0.5c-0.2-0.2-0.5-0.5-0.6-0.8
			c-0.2-0.3-0.3-0.8-0.4-1.6c-0.3-1.3-0.9-2.7-1.6-4.1c-0.8-1.4-1.6-2.6-2.7-3.8C294.6,301.1,292,299.7,289,299z"/>
		<path id="i-survived-letter-u" d="M318.3,334.5v-31.7c0-0.9-0.2-1.6-0.5-2.1c-0.2-0.2-0.3-0.4-0.5-0.5s-0.7-0.2-1.6-0.5
			c-1.1-0.4-1.7-1.1-1.7-2.1c0-0.7,0.3-1.2,0.8-1.6c0.5-0.4,1.3-0.5,2.4-0.5h1.1h18.9h1.1l1.5,0.2c0.5,0.1,0.9,0.4,1.2,0.7
			s0.5,0.8,0.5,1.2c0,1.1-0.6,1.8-1.7,2.1c-0.9,0.3-1.5,0.5-1.6,0.5c-0.2,0.1-0.3,0.2-0.5,0.5c-0.3,0.4-0.5,1.1-0.5,2.1v33.9
			c0,2.3,0.1,3.9,0.2,4.8s0.4,1.7,0.8,2.5c0.4,0.7,0.8,1.2,1.2,1.5s1.3,0.6,2.6,1v5.3H341c-3.7,0-6.7-0.3-9.2-0.9
			c-2.9-0.7-5.4-1.8-7.5-3.2c-2.1-1.4-3.7-3-4.6-4.8C318.8,340.8,318.3,338.1,318.3,334.5z M345.8,351.7v-5.3
			c2.8-0.4,5.2-1.5,7.1-3.3c2.1-2.1,3.2-5.2,3.2-9.2v-26.4c0-3.7-1.5-6.3-4.5-7.7c-0.9-0.4-1.5-0.8-1.7-1.1s-0.4-0.8-0.4-1.4
			c0-0.7,0.3-1.2,0.8-1.5s1.4-0.4,2.6-0.4h10.4c0.9,0,1.5,0,1.8,0.1c0.3,0,0.6,0.1,0.9,0.3c0.7,0.4,1.1,1,1.1,1.7
			c0,0.6-0.2,1.1-0.7,1.5c-0.1,0.1-0.8,0.5-1.8,1.1c-1.2,0.6-2.2,1.6-2.9,3s-1.1,2.9-1.1,4.5v26.4c0,4.5-1,8.2-3.1,11.2
			c-1.5,2.2-3.7,3.9-6.6,5.2C349.5,350.9,347.8,351.4,345.8,351.7z"/>
		<path id="i-survived-letter-r" d="M396.6,295.4v47.5c0,1,0.2,1.8,0.6,2.3c0.2,0.3,0.4,0.4,0.6,0.5s0.9,0.2,2,0.5
			c1.4,0.3,2,1,2,2.2c0,0.7-0.4,1.3-1.1,1.7c-0.5,0.3-1.4,0.5-2.7,0.5h-1.4h-18.9h-1.1c-1,0-1.8-0.2-2.4-0.5
			c-0.5-0.4-0.8-0.9-0.8-1.6c0-1.1,0.6-1.8,1.7-2.2c0.9-0.3,1.5-0.5,1.6-0.5c0.1-0.1,0.3-0.2,0.5-0.5c0.3-0.4,0.5-1.1,0.5-2.1v-40.5
			c0-0.9-0.2-1.6-0.5-2.1c-0.2-0.2-0.3-0.4-0.5-0.5s-0.7-0.2-1.6-0.5c-1.1-0.4-1.7-1.1-1.7-2.2c0-0.7,0.3-1.2,0.8-1.6
			c0.5-0.4,1.3-0.5,2.4-0.5h1.1L396.6,295.4L396.6,295.4z M409.6,323.5c2.6,0.4,4.6,0.8,6,1.2c1.4,0.5,2.7,1.1,3.8,1.9
			c1.2,0.8,2.1,1.8,2.7,3c0.6,1.2,1,2.4,1,3.7v8.4c0,0.9,0.3,1.3,0.9,1.3c0.2,0,0.4-0.1,0.6-0.2c0.2-0.1,0.4-0.4,0.7-0.7
			c0.7-0.9,1.4-1.4,2.2-1.4c0.5,0,1,0.2,1.4,0.7c0.5,0.5,0.7,1,0.7,1.5c0,0.8-0.4,1.9-1.2,3c-0.8,1.2-1.9,2.3-3.1,3.2
			c-1.2,0.9-2.4,1.5-3.8,1.9c-1.4,0.4-3,0.6-4.8,0.6c-3.7,0-6.6-1-8.7-3s-3.1-4.9-3.1-8.5v-6.8c0-1.5,0-2.4,0-2.6
			c-0.1-1.1-0.5-2-1.2-2.8c-0.8-0.9-2-1.5-3.5-1.7v-4.3c1.5-0.2,2.6-0.6,3.3-1.1c0.6-0.5,1-1,1.2-1.7c0.2-0.6,0.3-1.5,0.3-2.8v-10.7
			c0-1.7-0.4-3-1-3.8c-0.7-0.8-1.9-1.5-3.8-2v-4.5h1.1c3.1,0,5.8,0.1,8,0.3c3.3,0.3,6.2,1.3,8.8,3.1c3.7,2.5,5.5,6.1,5.5,10.7
			c0,3.8-1.2,6.9-3.7,9.3c-1,1-2.3,1.9-3.7,2.5C414.6,322,412.5,322.7,409.6,323.5z"/>
		<path id="i-survived-letter-i-2" d="M500.7,350.6h-18.9h-1.1c-1,0-1.8-0.2-2.4-0.5c-0.5-0.4-0.8-0.9-0.8-1.6
			c0-1.1,0.6-1.8,1.7-2.2c0.9-0.3,1.5-0.5,1.6-0.5c0.1-0.1,0.3-0.2,0.5-0.5c0.3-0.4,0.5-1.1,0.5-2.1v-40.5c0-0.9-0.2-1.6-0.5-2.1
			c-0.2-0.2-0.3-0.4-0.5-0.5s-0.7-0.2-1.6-0.5c-1.1-0.4-1.7-1.1-1.7-2.2c0-0.7,0.3-1.2,0.8-1.6c0.5-0.4,1.3-0.5,2.4-0.5h1.1h18.9
			h1.1c1,0,1.8,0.2,2.4,0.5c0.5,0.4,0.8,0.9,0.8,1.6c0,1.1-0.6,1.8-1.7,2.2c-0.9,0.3-1.5,0.5-1.6,0.5c-0.2,0.1-0.3,0.2-0.5,0.5
			c-0.3,0.4-0.5,1.1-0.5,2.1v40.5c0,0.9,0.2,1.6,0.5,2.1c0.2,0.2,0.3,0.4,0.5,0.5c0.1,0.1,0.7,0.2,1.6,0.5c1.1,0.4,1.7,1.1,1.7,2.2
			c0,0.7-0.3,1.2-0.8,1.6c-0.5,0.4-1.3,0.5-2.4,0.5H500.7z"/>
		<path id="i-survived-letter-v_1_" d="M543.7,336.4l-4,14.1h-11.2l-15.1-48.3c-0.2-0.7-0.4-1.2-0.6-1.5s-0.5-0.5-0.9-0.7
			c-0.9-0.4-1.5-0.7-1.8-1s-0.4-0.7-0.4-1.3c0-0.8,0.4-1.4,1.1-1.9c0.6-0.4,1.6-0.5,2.9-0.5h18.9c1.2,0,2,0,2.4,0.1s0.8,0.2,1.1,0.3
			c0.3,0.2,0.5,0.5,0.7,0.8c0.2,0.4,0.3,0.7,0.3,1c0,1-0.5,1.7-1.5,2.1c-0.7,0.4-1.2,0.7-1.5,1.1c-0.3,0.4-0.4,0.9-0.4,1.6
			c0,0.4,0,0.8,0.1,1.1L543.7,336.4z M545.3,330.7l-2.2-7.6l4.9-17c0.3-1.1,0.5-1.7,0.5-2c0.1-0.6-0.1-1.2-0.4-2
			c-0.5-0.9-1.2-1.6-2.1-1.9l-1.4-0.5c-1.1-0.4-1.7-1-1.7-2.1c0-0.7,0.3-1.3,0.9-1.7c0.6-0.4,1.5-0.6,2.6-0.6h10.4
			c1.3,0,2.2,0.1,2.5,0.4c0.7,0.4,1,1,1,1.7c0,0.5-0.1,0.9-0.3,1.2c-0.2,0.3-0.6,0.6-1.2,0.8l-2.2,1c-0.9,0.4-1.8,1.2-2.6,2.4
			c-0.8,1.2-1.5,2.6-1.9,4.1L545.3,330.7z"/>
		<path id="i-survived-letter-e" d="M587.5,295.4v55.2h-18.9h-1.1c-1,0-1.8-0.2-2.3-0.5c-0.5-0.4-0.8-0.9-0.8-1.6
			c0-1.1,0.6-1.8,1.7-2.2c0.9-0.3,1.5-0.5,1.6-0.5c0.2-0.1,0.3-0.2,0.5-0.5c0.3-0.4,0.5-1.1,0.5-2.1v-40.5c0-0.9-0.2-1.6-0.5-2.1
			c-0.2-0.2-0.3-0.4-0.5-0.5s-0.7-0.2-1.6-0.5c-1.1-0.4-1.7-1.1-1.7-2.2c0-0.7,0.3-1.2,0.8-1.6c0.5-0.4,1.3-0.5,2.3-0.5h1.1
			L587.5,295.4L587.5,295.4z M591.1,324.8v-4.7c1.6-0.8,2.8-1.6,3.6-2.5s1.4-2.1,1.7-3.6c0.2-1,0.5-1.7,0.9-2.1
			c0.4-0.4,0.9-0.6,1.6-0.6c0.9,0,1.5,0.3,1.9,1c0.2,0.4,0.3,1.1,0.3,2.4v15.4c0,1.3-0.2,2.1-0.4,2.6c-0.3,0.5-0.8,0.7-1.6,0.7
			c-0.7,0-1.2-0.2-1.5-0.6c-0.4-0.4-0.7-1-0.9-1.9c-0.5-1.9-1.2-3.3-2.1-4.3C593.6,325.8,592.5,325.2,591.1,324.8z M591.3,295.4
			h17.1v14.3c0,0.8-0.2,1.4-0.5,1.8s-0.9,0.6-1.6,0.6c-0.6,0-1.1-0.1-1.4-0.4c-0.3-0.2-0.5-0.7-0.8-1.5c-1.1-3.1-2.7-5.5-4.7-7.2
			c-2.1-1.6-4.8-2.6-8.1-3L591.3,295.4L591.3,295.4z M591.3,350.6v-4.4c1.8-0.3,3.4-0.6,4.6-1.1c1.2-0.5,2.4-1.2,3.6-2.2
			c1.2-1,2.2-2,2.9-3.1c0.7-1.1,1.4-2.5,2.1-4.2c0.3-0.9,0.6-1.5,1-1.8c0.3-0.3,0.8-0.5,1.4-0.5c0.8,0,1.3,0.2,1.7,0.7
			c0.3,0.4,0.5,1.2,0.5,2.3v14.3L591.3,350.6L591.3,350.6z"/>
		<path id="i-survived-letter-d" d="M638.5,295.4v55.2h-18.9h-1.1c-1,0-1.8-0.2-2.3-0.5c-0.5-0.4-0.8-0.9-0.8-1.6
			c0-1.1,0.6-1.8,1.7-2.2c0.9-0.3,1.5-0.5,1.6-0.5c0.2-0.1,0.3-0.2,0.5-0.5c0.3-0.4,0.5-1.1,0.5-2.1v-40.5c0-0.9-0.2-1.6-0.5-2.1
			c-0.2-0.2-0.3-0.4-0.5-0.5s-0.7-0.2-1.6-0.5c-1.1-0.4-1.7-1.1-1.7-2.2c0-0.7,0.3-1.2,0.8-1.6c0.5-0.4,1.3-0.5,2.3-0.5h1.1
			L638.5,295.4L638.5,295.4z M647,339v-31.9c0-2-0.3-3.5-0.9-4.7c-0.4-0.8-0.8-1.3-1.4-1.7s-1.4-0.6-2.5-0.9v-4.5
			c1.5,0,2.8,0,3.8,0.2c3.6,0.4,7.1,1.8,10.4,4.4c3.3,2.5,5.8,5.6,7.4,9.6c1.7,4,2.5,8.4,2.5,13.3c0,5.5-1.1,10.4-3.2,14.6
			s-5.2,7.6-9.1,10.1c-1.9,1.2-3.7,2-5.4,2.4c-1.7,0.4-3.8,0.6-6.5,0.6v-4.4c1.2-0.3,2-0.6,2.5-0.8s0.9-0.6,1.2-1.1
			c0.4-0.6,0.7-1.3,0.9-2C646.9,341.5,647,340.5,647,339z"/>
		<polygon id="i-survived-letter-v" class="st2" points="424,290.5 448.8,355.1 483.7,275.1 448.4,323.7 		"/>
		<circle id="i-survived-red-circle" class="st2" cx="448.8" cy="305.5" r="7"/>
	</g>
	<path id="jesse-word" class="st2" d="M103.2,500.9l1.2-0.2l1.3-0.6l0.6-1.1l1.4-5.4l-0.3-4.2l-0.2-1.3h-0.7l-1.4-1.5h0.7l1,0.6
		l-0.5-1.8l-1-1.3l-3.4-1.9l-1.1-0.4l-0.2,0.6l-3.1,0.2l-0.7-1l-1.2,0.1l-2.7,0.8l-1.5,1l-0.6,0.7l-0.2,2.3l0.3,1l-2.5,2.2l-0.2,1.3
		l-0.2,3.7l1.2,7.4l0.6,1.2v-0.8l1.8,0.4l1.1,1.8l0.1,0.6l-0.2,2l1.9,1.5V508l0.3,1.2l1.9,1.3H98l0.5,0.8l0.5,0.2l1.4,0.4l3.4,0.6
		l1.7-0.5l1-1.1l0.4-2.4l-0.3-2.5l-0.4-0.8l-1.7-1.2l-2-1.2l-0.1-1l0.8-1.1L102,501l1.1-0.6L103.2,500.9z M91.2,485l0.5-1.3L92,484
		l0.1,0.8L91.2,485z M94.2,507l-0.8,0.7l-0.2-0.6v-0.2l0.3-0.2l0.7-0.1l1.4,0.4L94.2,507z M101.1,501.7l-0.6,0.1l-0.1-0.6l0.1-0.4
		l0.5-0.4l0.2,0.6h0.4L101.1,501.7z M144.7,437.3l-0.2-0.6l-0.4,0.4l-0.3-0.6l0.1-1.1h-2.4l1.1-1.1l-1.4-0.5l-1.4,0.4l-3.1-0.5
		l-8.8,0.6l-13-0.7l-3.4,0.6l-2.8,0.8l-0.7,0.8l-0.2,1.3v0.8l0.7,1.8l4.5,1.9l0.7,0.5l0.6,0.8l0.2,0.8l0.4,4.2l1.9,2.4l-0.7,0.5
		l-0.4-0.1l-0.4,1.7l-0.5,1l0.5,2.7l-0.1,1l-0.5,1.2l0.3,0.4l-0.1,0.4l0.4,0.1v1.1l1,0.4l-0.1,2l0.7,0.2l0.1,1.5l0.2,0.6l0.3,0.1
		l3.7-4l0.3,1.8l-1,0.7l-0.3-0.2l-0.2,1.2l-0.7,1.7l-1.4,1.5l-0.3-0.4l-0.5,0.2l-0.5-0.8v1.4l0.3,1.5h-0.3l-0.6,5.4l-0.3,0.2
		l0.2,0.8l0.3,0.2l-0.2,0.7l-0.1,2l-1.1-0.6l-0.3,20.4l-0.5,2.9l-1.4,2.4l-1.2,1.2l0.6,0.7l1-0.2l-1.5,1.4v0.6L111,508v0.7h-0.9
		l0.1,1.3l0.4,1.2l0.8,0.8l4,1l5-0.4l0.4-1.2l3.2-1.9l1.9-0.4l1.8-0.7l2.5,0.1l1.4-0.8l0.4,0.5l0.9-0.8l2-1.1l1.5-1.8l2.5-4.8l1-6.7
		l0.1-28.6h-0.6V464l0.5,0.2l0.1-7l0.1-1.5l-0.1-0.5l-1-1.9l-0.1-1.4l-0.3-1.2l0.5-0.4l0.6,0.6l-0.1-1.2l-0.3,0.6l-1.5-1.8l0.1-1.5
		h1.3l-0.6-2l0.2-0.2l-0.9-0.5l-0.6,0.4l-0.9-0.5l1.3-0.8h-0.4l-0.3-0.5h-1l-0.2-0.6l1-0.2l1.2,0.1l-0.2,0.2l0.2,0.4l1.2-0.7h1.2
		l-0.1,0.4l0.9,0.2l1.1-1.2l3.3-1.8l0.3-0.7v-1.4l-0.4-0.1H144.7z M117.2,457.5l-0.2,0.4l-0.3,0.1l-0.5-0.2l0.3-0.4l-0.1-1h0.5
		l0.3,0.4l0.1,0.4L117.2,457.5z M118.1,463.2l-0.4-0.1v-0.4l0.4-0.2V463.2z M118.6,462.4l-0.4-0.1l0.4-1.3l0.5-0.2l0.3,1.2
		L118.6,462.4z M110.8,510.4l0.1-1.3l0.7,1.3H110.8z M118.8,491.7l-0.3,1.7l-1.7-0.9h0.6l0.4-0.5l0.3-1.7l-0.6-0.4l0.4-0.5l0.4,0.2
		v0.6h1l0.1,0.8L118.8,491.7z M137.5,495.1h-1.3l-0.2-1.3l0.6,0.1l1.3-0.4L137.5,495.1z M139.1,486.3l0.3,0.5l0.2,0.8l-1,0.5
		l-0.2,0.6l0.6,1.1l-1,1l-0.8-0.7l-0.7-0.1l-0.5,1.1l-0.7-0.5l-0.4-0.8l0.1-0.5l2.4,0.2l0.5-1.7l-0.7,0.1l0.3-0.8l-1.1-0.6l0.5-1.5
		l0.6,1.1L139.1,486.3z M136.9,484.3v-0.5l0.6-0.6l0.4,1.3L136.9,484.3z M138.1,473.8l-0.3,2.4l-0.5-2.7L138.1,473.8z M136.2,477.2
		l0.5,1h-0.6L136.2,477.2z M136.9,481l1.4,1.4l-0.9,0.5l-0.7-0.4l-0.3,0.2l-1-1l0.3-0.6L136.9,481z M185.5,440.1l-0.4-1.9l0.1-1.7
		l0.3-1.7l0.3-0.5l0.7-0.4l1.3-0.1v0.4h0l1.1,0.4l0.3-0.5l0.5,0.5l1.1-0.6l1.2,0.8l0.1-0.5l0.7-0.1l0.5,1l0.4-0.1l0.2,0.2l1.1-1
		l5.1-0.1l5.5-0.4l0.5,0.1l0.7,0.8l0.4,1.7v2.3l-0.7,0.2l-0.2,0.8l0.4-0.2l-0.6,1.1l-0.4,1.8l0.3,1.5l0.3,0.4l1,0.4l0.1,2l-0.4-1
		l-0.9,0.8l-0.3-1.7l-0.3,1.4l0.7,0.4l0.1,1.1l1.1-0.2l0.8,7.6l-0.4,1.5l-0.7,0.8l-1.7,0.4l-2.3-0.6l-0.4-0.4l-3.2-5.1l-4.4-5.5
		l0.7-0.6l-0.6-0.6l-0.2,0.4l-0.7,0.1l-1.3-1.1l1.4,0.1l-1.2-0.4l-1,0.1l-5.9-2.9l-0.3-0.4L185.5,440.1z M156.7,456.6L156.7,456.6
		L156.7,456.6L156.7,456.6z M158.1,500.6l-0.1-1l-0.2-0.7v-0.5l0.5,0.1l0.1,0.7l0.5,0.6l-0.5,0.6L158.1,500.6z M210.2,488l0.3,0.5
		l-0.9,14l-0.1,8.5l-0.3,1l-0.6,0.6v-0.7l0.2-0.4l-0.2-0.5l-1,0.2l-0.4-0.7h-0.8l-0.4,1.3l-1.3-1.3l-1.5,0.8l-3.6,0.6l-1.4-1.2
		l-0.4-0.1l-2.8,0.5l0.1,0.5l-1,0.1l-0.1,0.4l-2.2,0.1l-3.2,0.8l-1.3,0.1l-1.3-1l-0.5-0.8l-0.4-3l0.5-3.1l0.4-0.5l5.4-2.5l1-0.6
		l0.3,0.8l1-0.1l0.7,0.4l0.6-1.3l1.4-0.4l0.1-0.7l0.9-0.4l1.7-0.1l0.3-0.4l0.2-0.4v-1.3h-0.8v-0.5l0.5-0.6h0.6v-1l1-0.1l-0.3-0.5
		l-0.5,0.2l0.4-1.2l0.6,1.4l0.2-1.1l-0.6-0.6l1.7-3l2.3-3.5l0.8-0.6l1.3-0.2l2.1,0.5L210.2,488z M182.1,439.5l-0.5-4.4l-0.5-0.7
		l-1.2-0.4l-1.4-0.1v0.7h-0.7l-1,0.7l-0.6-1.4l-1.5,0.1l-0.6,1.2l-0.2,0.2l-1.6,0.1l-1-0.2l-0.5-1l-2.1-0.1l-0.3,0.2l-0.1,0.7
		l-0.5,0.2l-0.5-1.4l-10.7-0.4l-2.1,0.5l-2,0.7l-1.2,1.3l-0.3,1.2l0.2,1.1l0.5,1.3l0.9,0.5l3.2,1.8l0.3,0.6l0.5,8.7v2.9l1.4,0.4
		l-1.1,1.4v-1l-0.2,1.6h0.5l-0.1,0.7h-0.4v-0.6l-0.1,1l1.4,1l-0.2,1.8l0.1,2h-0.3l-0.3,0.6l0.1,1.5l-0.7,2.1l-0.1,0.7l0.3,9.5
		l-0.2,2.7v4.5l2.1,0.5l-0.4,0.6h1l0.4,1.8l-0.4,0.7l-0.4,0.1l-0.3,0.5l-1.4-0.1l-0.1,3l0.3,1.7l-0.7,0.1l1.2,1.2l0.1,3.7l1.1,1v0.8
		l0.7,0.8l0.3,1.1h-0.4l-0.1,1.8l-0.9,0.7h-0.5l-0.5,0.6l-0.7,0.2v0.5l-0.3,0.4l-1-0.9l-4.1,2.3l-0.2,0.4l-0.2,1.2l0.3,1.5l1,1.1
		l2.5,1l4,0.4l0.5-0.6l1.5-0.7l1.1-0.8l0.4,0.2l-0.1,1l0.2,0.7l11.4-0.1l0.4-2.3l-0.2-1.3l0.5-1.1l0.5-0.1l-0.2-0.4l0.7,0.1l0.1,1.5
		l-0.6,1.8l0.4,0.8l0.3,1.3l2.8,0.1l2.4-0.5l0.6-0.6l0.3-1.7l0.1-4.4h-1.4l-0.5-0.5l0.4-1.3l-0.1-0.5l0.3-0.1h1l0.2-21.3l-0.2-9.4
		l-0.7,0.8l-0.4,1.7l0.2,0.4l-1.9,1.4l-1.1-0.4l0.9-3.1l0.7,0.1l0.9-1l-0.5-0.6l0.3-0.6l-0.1-1l0.5-0.6l-0.1-1.4l0.7-0.2l0.7,0.5
		l0.1-0.6l-0.5-1.1h-0.8l0.3-1l1,0.5l0.2-4.6l-0.1-0.5l-1-1.9l-0.1-1.3l1,0.2l-0.4-1.4l0.4,0.2l0.1-0.7l-2.5-0.4l-1.1-1.4h0.3v-0.4
		l1.6,1l-0.1-1l1.6,0.4L182.1,439.5z M158,479.8l-0.3-0.2l0.2-1l0.4,0.1L158,479.8z M173.5,511l-1.7-1l1.7,0.5V511z M173.5,509.3
		h-0.8l-0.5-0.5l-0.1-0.6l0.3-0.5l1.2,0.6h0V509.3z M178.4,468.5l-0.2,0.5l-0.5-1.4L178.4,468.5z M179.6,445.9l-0.1,0.2l-0.7,0.4
		l0.1,0.5l0.6,0.5v0.5l-1.4,0.5l-0.6-0.8l-0.7-1.1l0.5-1.3l0.4,0.2l0.6-0.7l1.3,0.7V445.9z M185.8,476.5l-0.6-1.4l-0.2-1.9l0.7-3.2
		l0.6-1l2.7-2.3v0.6h0l1,0.2v-1.3l1.7-0.6l0.1-2.3l-0.3-0.7l2-4.4l0.3-0.2l1.5-0.4l2.1,0.5l0.6,0.7l0.4,3.3l-0.2,6.4l-0.3,4.4l0.1,2
		l-0.3,0.5l-0.3,1.7h0.6l0.2,1.3l0.3,6.3l-0.3,2.1l-1,1l-1.9,0.6l-1.4-0.4l-0.5-0.5l-3.6-7L185.8,476.5z M206.7,512.6l1.4-0.6
		l-0.3,0.6H206.7z M231.4,436.8h-0.8l1.2-0.8L231.4,436.8z M270.4,501.3l0.4,0.6l-0.7-0.2v0.7l-0.3,0.1l-0.3-0.5l0.3-0.7H270.4z
		 M249.1,440l6.8,3.3l2.4,1.9l1.5,1.7l2.5,3.6l3.3,6.7l0.1-0.6l0.5-0.8l0.8,0.5v0.5l0.3,0.4h-0.8l-0.4,0.5l1.7,1.3h0.3l1.6-0.2
		l1.4-0.5l0.5-0.6l0.1-0.7l-0.7-7.3h-0.5l-0.2-1h-0.7l0.7-1.3v-2.4l-0.7-0.5l1.3-1.4l0.4-4l-0.2-1.3l-0.4-1.1h-0.7l-0.7-0.7l0.1-0.7
		l-0.3-0.4l-0.4-1.2l-0.5-0.5l-1-0.2l-1,0.1l-0.6,0.5l-2.4,2.1l0.3,0.5l-0.4,0.1l0.3,3.1l-1.1-0.6l-1.2-2.6l-0.4-0.7l-1.4-0.5
		l-0.1,0.3l-1-0.7l-1.8-0.8l-5.5-1.2l-1.4,0.5l-0.6,0.7l-0.4,2.4l0.5,3.6L249.1,440z M255.6,436.3l0.9-0.1l0.1,0.8l-1.2-0.2
		L255.6,436.3z M270.3,435.7l-0.7-1.3l0.6-0.4l0.4,1.2L270.3,435.7z M275,478.8l-0.8-1.3l0.3-0.4l-0.9-1.1l0.2-0.5l-0.2-0.5h-0.4
		l-1.3,1l-1.1-1l0.4,1.3l1.5,0.4l-0.1,1.3l-1-0.7l-0.7-0.8l-1.1-0.6l0.3-1.2l-0.2-1.3l-0.3-0.7l-0.5-0.5l-1.5-0.5l0.1-1.5l0.5-0.2
		l-0.3-0.8l-0.6-0.5v-1.3h-0.8l-0.6-1.1l-2.5-1.5l-4.1-1.8l-14.7-5.4l-3.7-2.6l-2.2-3.5l-0.7-3.9l0.4-3l0.9-1.4l5.5-3.8l0.3-1.3
		l0.3-2.3l-0.4-1.9l-0.8-1l-1.9-0.6l-2.6,0.4v1h-1.1v1.2l-1.8-0.1l-0.1,0.6l-1.4,0.5h-2.1v0.5h0.6l-0.2,0.6l-0.9,0.1l-0.6,0.7
		l-1.4,0.6l-0.4,1.4l-0.7,0.6l0.3-1.4l0.5-0.1l-1.4-0.7v1.2h-1.6v0.5l0.6,0.8l-0.5,0.8l-0.5,1.2l-2.3,2.7l-0.5-0.1l-1.5,2.4l0.5,0.4
		l-0.9,1.2l-1,0.8l-0.5,1.1l0.4,0.2l-0.1,0.6l-0.6,0.6l0.1,0.5l-0.2,0.1l0.5,0.2v0.7l-0.9,0.1l-0.4,5.6l0.6,4.4l0.2,1.1l1.6,4.4
		l1.1,1.2l1.1,2l2.1,2.5l1.7,0.1l-0.1-1.1l1.7-0.8l0.2,0.1l3.5-1l1.6,3l-0.3,0.4l-0.6-0.8l-2.3,0.7v-1l-1.1-1.3v1.8h-1.2l-0.1,0.7
		l-1.4,0.1l-0.1,0.6l1.6,0.7l0.5,1.1l0.7-0.7l3,0.4v0.8h-0.5l-0.5,0.4l1.7,0.5l0.1,0.5l1.1-0.1l-0.3-2l0.3,0.1l0.2-1.1l-0.2-1.3
		l1.9-0.7l0.5-0.6l0.9-0.1l0.9,1.5l-2,1.2l0.6,0.6v1l-0.6,0.2v0.6l-1,0.1v1.2l4.1,0.4l1-0.2l0.5,0.2l1.1-0.2l0.5,1v1.1l1.7-1v-1.4
		h0.4l0.3,0.7l-0.2,0.4l-0.3,1.1H245l0.2,0.6l-0.4,0.5l-0.4-0.2l-0.7,0.5H243v0.6l0.9,0.5l2,0.2l-0.3,0.4l5.3,2.5l3.2,2.4l1.9,3.1
		l0.5,2.9l-0.4,2.9l-1.5,2.7L254,503l-4.6,2.9l-0.3,0.4l-0.2,0.5l-0.3,2.3l0.1,1.2l2,0.5v2l-0.4,0.2l1.1,0.4l-0.1-1l2.3-0.1
		l-0.4,1.1l1.2-0.1l5.9-1.4l1.4-0.7l-2.2,0.5l-0.2-1.4l2.4-0.6v-0.4l0.5-0.2l0.4,0.2l0.6-0.7l0.6-0.1v-0.5l1.4,0.2l-0.7-2.4h0.2
		l0.1-0.5l1,0.1l-1-1l-0.1-0.8l1.4-0.6l2.2-2.4h0.7l0.9,0.7v-0.8l0.3-0.2v-0.6l0.6-0.1l0.3-0.4l1.3-0.5l0.2,1.5l-0.9,0.1v1.1
		l-0.5,0.2l0.5,1.2l0.7-1l1.6-3.2l0.4-1.2l-1,0.4l-0.5,1.1l-0.4-0.2l-0.1-0.6l1.4-1l0.2-1.8l-0.6,0.2v-0.6l0.5-0.2l0.4,1l0.4-1h0.5
		l0.3-1.1l0.5-5.5l-1-7.9L275,478.8z M223.9,470.8l-0.7-0.1l0.4-0.6h0.5L223.9,470.8z M226.5,475.2l0.3-1l0.4,0.2L226.5,475.2z
		 M228.9,473.4l-1.1-0.5l-0.2,0.4l-0.5-1.2l-0.8,0.1l0.1-0.6l1.4,0.1l0.4-0.6l0.8,0.6l0.7,1.8L228.9,473.4z M234.5,479.4l-0.9-0.3
		l0.3-0.5l0.6-0.1L234.5,479.4z M234.5,436.2l0.6,0.1l-0.3,0.7l-0.6-0.2L234.5,436.2z M233.9,473.8l-0.3-0.5l-0.1-0.6l0.8-0.4l0.6,1
		L233.9,473.8z M236.5,473.3l-1,0.1l-0.4-0.3l1.4-0.6V473.3z M236.3,440.2l1.1-1.4l0.1,1.5L236.3,440.2z M237.2,436.1v-0.7l1,0.5
		L237.2,436.1z M246.9,483.7l-1.1-0.1l0.8-0.7l0.7,0.1L246.9,483.7z M270.1,477.9l0.4,1.2l-0.4,0.2V477.9z M265.3,479.3l-0.7-1
		l0.4-0.7l0.7,1L265.3,479.3z M267,481.6l-0.3-1.3l0.5,0.6L267,481.6z M267.3,478.2l-0.7,0.7l-0.2-0.8l-0.6-0.7l0.2-0.7l0.5-0.4
		l0.1-0.7l0.4-0.1l0.7,1.3l1.2-0.5l0.7,0.7l-0.4,0.5l-0.7-0.4l-0.5,1h-0.5l-0.2-0.5L267.3,478.2z M269.6,479.7v0.8l-0.6,0.4v-0.9
		L269.6,479.7z M270.8,485.8l-1.1,0.1l0.7,1.5l0.2,0.8l-0.1,0.5l-1.3,1.1l-0.4,1.4l-0.5-0.7l0.3-1.4l0.2,0.5l0.2-0.2l-0.1-1.8l0.3-2
		l-1.5-1.3l-0.1-0.6l1.3-0.1l0.6-0.8l1.5,1.5L270.8,485.8z M266.7,503.7l-0.3,0.6l-0.6-0.2l0.1-0.5L266.7,503.7z M266.3,504.7
		l0.9,0.8l-0.5-0.1l-0.1,0.5L266.3,504.7z M237.8,503.1l-2.5-1.7l-3-2.9l-2.6-3.9l-1-1.1l-0.4,2.3h-1.1l-0.3-1.3H226v-1.3v0h0.6
		l0.5-1.2l0.2-1.2l-0.8-2.9l-1.4-3l-0.6-0.4l-2.1-0.2l-2.1,0.4l-0.5,0.6l-0.2,1l0.7,4.6l0.7,6.2l-0.1,3v1.4l1.1,0.4l0.4,1.1
		l-0.8,0.6l0.3,1.5l-0.4,1l0.2,0.7l-0.4,0.6l0.2,0.7l-0.3,0.2l0.1,1.9l-0.4,0.2l0.6,1.2l0.9,0.7l1.6,0.5l2,0.4l2.9-2.1l4-1.9
		l0.4,1.3l1.9,0.1l0.1,0.2h0.9l1.8,0.5l0.2,1.2l1.1-1.1l0.7,0.1l-0.5,1.2l1.2,0.4l1.1,0.2l2-0.1v-0.7l0.4-0.2l0.1-1.4l1.1-0.8
		l0.1-0.4v-1l-1.3-2.6L237.8,503.1z M242.5,512.2l-0.7-0.4l-0.5,0.8l-0.6-0.2l-0.1-0.6l0.2-0.4l1.3-0.2l1,0.2L242.5,512.2z
		 M296.8,436.8H296l1.2-0.8L296.8,436.8z M314.5,440l6.8,3.3l2.4,1.9l1.5,1.7l2.5,3.6l3.3,6.7l0.1-0.6l0.5-0.8l0.8,0.5v0.5l0.3,0.4
		h-0.8l-0.4,0.5l1.7,1.3h0.3l1.6-0.2l1.4-0.5l0.5-0.6l0.1-0.7l-0.7-7.3h-0.5l-0.2-1h-0.7l0.7-1.3v-2.4l-0.7-0.5l1.3-1.4l0.4-4
		l-0.2-1.3l-0.4-1.1h-0.7l-0.7-0.7l0.1-0.7l-0.3-0.4l-0.4-1.2l-0.5-0.5l-1-0.2l-1,0.1l-0.6,0.5l-2.4,2.1l0.3,0.5l-0.4,0.1l0.3,3.1
		l-1.1-0.6l-1.2-2.6l-0.4-0.7l-1.4-0.5l-0.1,0.3l-1-0.7l-1.8-0.8l-5.5-1.2l-1.4,0.5l-0.6,0.7l-0.4,2.4l0.5,3.6L314.5,440z
		 M321,436.3l0.8-0.1l0.1,0.8l-1.2-0.2L321,436.3z M332.1,503.7l-0.3,0.6l-0.6-0.2l0.1-0.5L332.1,503.7z M335.7,435.7l-0.7-1.3
		l0.6-0.4l0.4,1.2L335.7,435.7z M340.4,478.8l-0.9-1.3l0.3-0.4l-0.8-1.1l0.2-0.5l-0.2-0.5h-0.4l-1.3,1l-1.1-1l0.4,1.3l1.5,0.4
		l-0.1,1.3l-1-0.7l-0.7-0.8l-1.1-0.6l0.3-1.2l-0.2-1.3l-0.3-0.7l-0.5-0.5l-1.5-0.5l0.1-1.5l0.5-0.2l-0.3-0.8l-0.6-0.5v-1.3h-0.9
		l-0.6-1.1l-2.5-1.5l-4.1-1.8l-14.7-5.4l-3.7-2.6l-2.2-3.5l-0.7-3.9l0.4-3l0.9-1.4l5.5-3.8l0.3-1.3l0.3-2.3l-0.4-1.9l-0.8-1
		l-1.9-0.6l-2.6,0.4v1h-1.1v1.2l-1.8-0.1l-0.1,0.6l-1.4,0.5h-2.1v0.5h0.6l-0.2,0.6l-0.8,0.1l-0.6,0.7l-1.4,0.6l-0.4,1.4l-0.7,0.6
		l0.3-1.4l0.5-0.1l-1.4-0.7v1.2h-1.6v0.5l0.6,0.8l-0.5,0.8l-0.5,1.2l-2.3,2.7l-0.5-0.1l-1.5,2.4l0.5,0.4l-0.8,1.2l-1,0.8l-0.5,1.1
		l0.4,0.2l-0.1,0.6l-0.6,0.6l0.1,0.5l-0.2,0.1l0.5,0.2v0.7l-0.8,0.2l-0.4,5.6l0.6,4.4l0.2,1.1l1.6,4.4l1.1,1.2l1.1,2l2.1,2.5
		l1.7,0.1l-0.1-1.1l1.7-0.8l0.2,0.1l3.5-1l1.6,3l-0.3,0.4l-0.6-0.8l-2.3,0.7v-1l-1.1-1.3v1.8h-1.2l-0.1,0.7l-1.4,0.1l-0.1,0.6
		l1.6,0.7l0.5,1.1l0.7-0.7l3,0.4v0.8h-0.5l-0.5,0.4l1.7,0.5l0.1,0.5l1.1-0.1l-0.3-2l0.3,0.1l0.2-1.1l-0.2-1.3l1.9-0.7l0.5-0.6l1-0.1
		l0.8,1.5l-2,1.2l0.6,0.6v1l-0.6,0.2v0.6l-1,0.1v1.2l4.1,0.4l1-0.2l0.5,0.2l1.1-0.2l0.5,1v1.1l1.7-1V481h0.4l0.3,0.7l-0.2,0.4
		l-0.3,1.1h-0.6l0.2,0.6l-0.4,0.5l-0.4-0.2l-0.7,0.5h-0.6v0.6l0.8,0.5l2,0.2l-0.3,0.4l5.3,2.5l3.2,2.4l1.9,3.1l0.5,2.9l-0.4,2.9
		l-1.5,2.7l-0.5,0.5l-4.5,2.9l-0.3,0.4l-0.2,0.5L314,509l0.1,1.2l2,0.5v2l-0.4,0.2l1.1,0.4l-0.1-1l2.3-0.1l-0.4,1.1l1.2-0.1l5.9-1.4
		l1.4-0.7l-2.2,0.5l-0.2-1.4l2.4-0.6v-0.4l0.5-0.2l0.4,0.2l0.6-0.7l0.6-0.1v-0.5l1.4,0.2l-0.7-2.4h0.2l0.1-0.5l1,0.1l-1-1l-0.1-0.8
		l1.4-0.6l2.2-2.4h0.7l0.8,0.7v-0.8l0.3-0.2v-0.6l0.6-0.1l0.3-0.4l1.3-0.5l0.2,1.5l-0.8,0.1v1.1l-0.5,0.2l0.5,1.2l0.7-1l1.6-3.2
		l0.4-1.2l-1,0.4l-0.5,1.1l-0.4-0.2L338,498l1.4-1.1l0.2-1.8l-0.6,0.2v-0.6l0.5-0.2l0.4,1l0.4-1h0.5l0.3-1.1l0.5-5.5l-1-7.9
		L340.4,478.8z M289.3,470.8l-0.7-0.1l0.4-0.6h0.5L289.3,470.8z M291.9,475.2l0.3-1l0.4,0.2L291.9,475.2z M294.3,473.4l-1.1-0.5
		l-0.2,0.4l-0.5-1.2l-0.8,0.1l0.1-0.6l1.4,0.1l0.4-0.6l0.8,0.6l0.7,1.8L294.3,473.4z M299.9,479.4l-0.9-0.3l0.3-0.5l0.6-0.1
		L299.9,479.4z M299.3,473.8l-0.3-0.5l-0.1-0.6l0.9-0.4l0.6,1L299.3,473.8z M300.2,437l-0.6-0.2l0.3-0.6l0.6,0.1L300.2,437z
		 M301.9,473.3l-1,0.1l-0.4-0.3l1.4-0.6V473.3z M301.7,440.2l1.1-1.4l0.1,1.5L301.7,440.2z M302.6,436.1v-0.7l1,0.5L302.6,436.1z
		 M312.3,483.7l-1.1-0.1l0.9-0.7l0.7,0.1L312.3,483.7z M335.5,477.9l0.4,1.2l-0.4,0.2V477.9z M330.7,479.3l-0.7-1l0.4-0.7l0.7,1
		L330.7,479.3z M332.4,481.6l-0.3-1.3l0.5,0.6L332.4,481.6z M332.7,478.2l-0.7,0.7l-0.2-0.8l-0.6-0.7l0.2-0.7l0.5-0.4l0.1-0.7
		l0.4-0.1l0.7,1.3l1.2-0.5l0.7,0.7l-0.4,0.5l-0.7-0.4l-0.5,1h-0.5l-0.2-0.5L332.7,478.2z M335.1,479.7v0.8l-0.6,0.4v-0.9
		L335.1,479.7z M336.2,485.8l-1.1,0.1l0.7,1.5l0.2,0.8l-0.1,0.5l-1.3,1.1l-0.4,1.4l-0.5-0.7l0.3-1.4l0.2,0.5l0.2-0.2l-0.1-1.8l0.3-2
		l-1.5-1.3l-0.1-0.6l1.3-0.1l0.6-0.8l1.5,1.5L336.2,485.8z M335.8,501.3l0.4,0.6l-0.7-0.2v0.7l-0.3,0.1l-0.3-0.5l0.3-0.7H335.8z
		 M331.7,504.7l0.8,0.8l-0.5-0.1l-0.1,0.5L331.7,504.7z M303.2,503.1l-2.5-1.7l-3-2.9l-2.7-3.9l-1-1.1l-0.4,2.3h-1.1l-0.3-1.3h-0.9
		v-1.3v0h0.7l0.5-1.2l0.2-1.2L292,488l-1.4-3l-0.6-0.4l-2.1-0.2l-2.1,0.4l-0.5,0.6l-0.2,1l0.7,4.6l0.7,6.2l-0.1,3v1.4l1.1,0.4
		l0.4,1.1l-0.9,0.6l0.3,1.5l-0.4,1l0.2,0.7l-0.4,0.6l0.2,0.7l-0.3,0.2l0.1,1.9l-0.4,0.2l0.6,1.2l0.9,0.7l1.6,0.5l2,0.4l2.9-2.1
		l4-1.9l0.4,1.3l1.9,0.1l0.1,0.2h0.8l1.8,0.5l0.2,1.2l1.1-1.1l0.7,0.1l-0.5,1.2l1.2,0.4l1.1,0.2l2-0.1v-0.7l0.4-0.2l0.1-1.4l1.1-0.8
		l0.1-0.4v-1l-1.3-2.6L303.2,503.1z M308,512.2l-0.7-0.4l-0.5,0.8l-0.6-0.2l-0.1-0.6l0.2-0.4l1.3-0.2l1,0.2L308,512.2z M383,476.5
		l-0.6-1.4l-0.2-1.9l0.7-3.2l0.6-1l2.7-2.3v0.6h0l1,0.2v-1.3l1.7-0.6l0.1-2.3l-0.3-0.7l2-4.4l0.3-0.2l1.5-0.4l2.1,0.5l0.6,0.7
		l0.4,3.3l-0.2,6.4l-0.3,4.4l0.1,2l-0.3,0.5l-0.3,1.7h0.6l0.2,1.3l0.3,6.3l-0.3,2.1l-1,1l-1.9,0.6l-1.4-0.4l-0.5-0.5l-3.6-7
		L383,476.5z M382.7,440.1l-0.4-1.9l0.1-1.7l0.3-1.7l0.3-0.5l0.7-0.4l1.3-0.1v0.4h0l1.1,0.4l0.3-0.5l0.5,0.5l1.1-0.6l1.2,0.8
		l0.1-0.5l0.7-0.1l0.5,1l0.4-0.1l0.2,0.2l1.1-1l5.1-0.1l5.5-0.4l0.5,0.1l0.7,0.8l0.4,1.7v2.3l-0.7,0.2l-0.2,0.8l0.4-0.2l-0.6,1.1
		l-0.4,1.8l0.3,1.5l0.3,0.4l1,0.4l0.1,2l-0.4-1l-0.8,0.8L403,445l-0.3,1.4l0.7,0.4l0.1,1.1l1.1-0.2l0.8,7.6l-0.4,1.5l-0.7,0.8
		l-1.7,0.4l-2.3-0.6l-0.4-0.4l-3.2-5.1l-4.4-5.5l0.7-0.6l-0.6-0.6l-0.2,0.4l-0.7,0.1l-1.3-1.1l1.4,0.1l-1.2-0.4l-1,0.1l-5.9-2.9
		l-0.3-0.4L382.7,440.1z M355.3,500.6l-0.1-1l-0.2-0.7v-0.5l0.5,0.1l0.1,0.7l0.5,0.6l-0.5,0.6L355.3,500.6z M407.7,488.5l-0.9,14
		l-0.1,8.5l-0.3,1l-0.6,0.6v-0.7l0.2-0.4l-0.2-0.5l-1,0.2l-0.4-0.7h-0.9l-0.4,1.3l-1.3-1.3l-1.5,0.8l-3.6,0.6l-1.4-1.2l-0.4-0.1
		l-2.8,0.5l0.1,0.5l-1,0.1l-0.1,0.4l-2.2,0.1l-3.2,0.8l-1.3,0.1l-1.3-1l-0.5-0.8l-0.4-3l0.5-3.1l0.4-0.5l5.4-2.5l1-0.6l0.3,0.8
		l1-0.1l0.7,0.4l0.6-1.3l1.4-0.4l0.1-0.7l1-0.4l1.7-0.1l0.3-0.4l0.2-0.4v-1.3h-0.9v-0.5l0.5-0.6h0.6v-1l1-0.1l-0.3-0.5l-0.5,0.2
		l0.4-1.2l0.6,1.4l0.2-1.1l-0.6-0.6l1.7-3l2.3-3.5l0.8-0.6l1.3-0.2l2.1,0.5l1.1,0.7L407.7,488.5z M403.9,512.6l1.4-0.6l-0.3,0.6
		H403.9z M379.3,439.5l-0.5-4.4l-0.5-0.7l-1.2-0.4l-1.4-0.1v0.7H375l-1,0.7l-0.6-1.4l-1.5,0.1l-0.6,1.2l-0.2,0.2l-1.6,0.1l-1-0.2
		l-0.5-1l-2.1-0.1l-0.3,0.2l-0.1,0.7l-0.5,0.2l-0.5-1.4l-10.7-0.4l-2.1,0.5l-2,0.7l-1.2,1.3l-0.3,1.2l0.2,1.1l0.5,1.3l1,0.5l3.2,1.8
		l0.3,0.6l0.5,8.7v2.9l1.4,0.4l-1.1,1.4v-1l-0.2,1.6h0.5l-0.1,0.7h-0.4v-0.6l-0.1,1l1.4,1l-0.2,1.8l0.1,2h-0.3l-0.3,0.6l0.1,1.5
		l-0.7,2.1l-0.1,0.7l0.3,9.5l-0.2,2.7v4.5l2.1,0.5l-0.4,0.6h1l0.4,1.8l-0.4,0.7l-0.4,0.1l-0.3,0.5l-1.4-0.1l-0.1,3l0.3,1.7l-0.7,0.1
		l1.2,1.2l0.1,3.7l1.1,1v0.8l0.7,0.8l0.3,1.1h-0.4l-0.1,1.8l-0.9,0.7h-0.5l-0.5,0.6l-0.7,0.2v0.5l-0.3,0.4l-1-0.9l-4.1,2.3l-0.2,0.4
		l-0.2,1.2l0.3,1.5l1,1.1l2.5,1l4,0.4l0.5-0.6l1.5-0.7l1.1-0.8l0.4,0.2l-0.1,1l0.2,0.7l11.4-0.1l0.4-2.3l-0.2-1.3l0.5-1.1l0.5-0.1
		l-0.2-0.4l0.7,0.1l0.1,1.5l-0.6,1.8l0.4,0.8l0.3,1.3l2.8,0.1l2.4-0.5l0.6-0.6l0.3-1.7l0.1-4.4h-1.4l-0.5-0.5l0.4-1.3l-0.1-0.5
		l0.3-0.1h1l0.2-21.3l-0.2-9.4l-0.7,0.8l-0.4,1.7l0.2,0.4l-1.9,1.4l-1.1-0.4l0.8-3.1l0.7,0.1l0.9-1l-0.5-0.6l0.3-0.6l-0.1-1l0.5-0.6
		l-0.1-1.4l0.7-0.2l0.7,0.5l0.1-0.6l-0.5-1.1h-0.8l0.3-1l1,0.5l0.2-4.6l-0.1-0.5l-1-1.9l-0.1-1.3l1,0.2l-0.4-1.4l0.4,0.2l0.1-0.7
		l-2.5-0.4l-1.1-1.4h0.3v-0.4l1.6,1l-0.1-1l1.6,0.4L379.3,439.5z M355.2,479.8l-0.3-0.2l0.2-1l0.4,0.1L355.2,479.8z M370.7,511
		l-1.7-1l1.7,0.5V511z M370.7,508.4v1h-0.8l-0.5-0.5l-0.1-0.6l0.3-0.5L370.7,508.4L370.7,508.4z M375.6,468.5l-0.2,0.5l-0.5-1.4
		L375.6,468.5z M376.8,445.9l-0.1,0.2l-0.7,0.4l0.1,0.5l0.6,0.5v0.5l-1.4,0.5l-0.6-0.8l-0.7-1.1l0.5-1.3l0.4,0.2l0.6-0.7l1.3,0.7
		V445.9z M353.9,456.6L353.9,456.6L353.9,456.6L353.9,456.6z"/>
	<path id="james-word" class="st2" d="M456.2,500.9l1.1-0.2l1.3-0.6l0.6-1.1l1.4-5.4l-0.3-4.2l-0.2-1.3h-0.7l-1.4-1.5h0.7l0.9,0.6
		l-0.5-1.8l-0.9-1.3l-3.3-1.9l-1-0.4l-0.2,0.6l-3,0.2l-0.7-1l-1.1,0.1l-2.6,0.8l-1.5,1l-0.6,0.7l-0.2,2.3l0.3,1l-2.5,2.3l-0.2,1.3
		l-0.2,3.7l1.1,7.4l0.6,1.2v-0.8l1.8,0.4l1,1.8l0.1,0.6l-0.2,2l1.9,1.5V508l0.3,1.2l1.9,1.3h1.3l0.5,0.8l0.5,0.2l1.4,0.4l3.4,0.6
		l1.7-0.5l0.9-1.1l0.4-2.4l-0.3-2.5l-0.4-0.8l-1.7-1.2l-2-1.2l-0.1-1l0.8-1.1l-1.2,0.1l1-0.6L456.2,500.9z M444.2,485l0.5-1.3
		l0.3,0.2l0.1,0.8L444.2,485z M447.2,507l-0.7,0.7l-0.2-0.6v-0.2l0.3-0.2l0.7-0.1l1.4,0.4L447.2,507z M454.1,501.7l-0.6,0.1
		l-0.1-0.6l0.1-0.4l0.5-0.4l0.2,0.6h0.4L454.1,501.7z M497.2,437.3l-0.2-0.6l-0.4,0.4l-0.3-0.6l0.1-1.1h-2.4l1-1.1l-1.4-0.5
		l-1.4,0.4l-3-0.5l-8.7,0.6l-12.9-0.7l-3.4,0.6l-2.7,0.8l-0.7,0.8l-0.2,1.3v0.8l0.7,1.8l4.5,1.9l0.7,0.5l0.6,0.8l0.2,0.8l0.4,4.2
		l1.9,2.4l-0.7,0.5l-0.4-0.1l-0.4,1.7l-0.5,1l0.5,2.7l-0.1,1l-0.5,1.2l0.3,0.4l-0.1,0.4l0.4,0.1v1.1l0.9,0.4l-0.1,2l0.7,0.2l0.1,1.5
		l0.2,0.6l0.3,0.1l3.7-4l0.3,1.8l-0.9,0.7l-0.3-0.2l-0.2,1.2l-0.7,1.7l-1.4,1.5l-0.3-0.4l-0.5,0.2l-0.5-0.8v1.4l0.3,1.5h-0.3
		l-0.6,5.4l-0.3,0.2l0.2,0.8l0.3,0.2l-0.2,0.7l-0.1,2l-1-0.6l-0.3,20.4l-0.5,2.9l-1.4,2.4l-1.2,1.2l0.6,0.7l0.9-0.2l-1.5,1.4v0.6
		l-0.6,0.2v0.7H463l0.1,1.3l0.4,1.2l0.8,0.8l4,1l4.9-0.3l0.4-1.2l3.1-1.9l1.9-0.4l1.8-0.7l2.5,0.1l1.4-0.8l0.4,0.5l0.8-0.8l2-1.1
		l1.5-1.8l2.5-4.8l0.9-6.7l0.1-28.6H492V464l0.5,0.2l0.1-7l0.1-1.5l-0.1-0.5l-0.9-1.9l-0.1-1.4l-0.3-1.2l0.5-0.4l0.6,0.6l-0.1-1.2
		l-0.3,0.6l-1.5-1.8l0.1-1.5h1.2l-0.6-2l0.2-0.2l-0.9-0.5l-0.6,0.4L489,444l1.3-0.8h-0.4l-0.3-0.5h-0.9l-0.2-0.6l0.9-0.2l1.1,0.1
		l-0.2,0.2l0.2,0.4l1.2-0.7h1.1l-0.1,0.4l0.8,0.2l1-1.2l3.2-1.8l0.3-0.7v-1.4l-0.4-0.1H497.2z M470,457.5l-0.2,0.4l-0.3,0.1
		l-0.5-0.2l0.3-0.4l-0.1-1h0.5l0.3,0.4l0.1,0.4L470,457.5z M470.8,463.2l-0.4-0.1v-0.4l0.4-0.2V463.2z M471.3,462.4l-0.4-0.1
		l0.4-1.3l0.5-0.2l0.3,1.2L471.3,462.4z M463.6,510.4l0.1-1.3l0.7,1.3H463.6z M471.5,491.7l-0.3,1.7l-1.7-0.9h0.6l0.4-0.5l0.3-1.7
		l-0.6-0.4l0.4-0.5l0.4,0.2v0.6h0.9l0.1,0.8L471.5,491.7z M490,495.1h-1.3l-0.2-1.3l0.6,0.1l1.3-0.4L490,495.1z M491.6,486.3
		l0.3,0.5l0.2,0.8l-0.9,0.5l-0.2,0.6l0.6,1.1l-0.9,1l-0.8-0.7l-0.7-0.1l-0.5,1.1l-0.7-0.5l-0.4-0.8l0.1-0.5l2.4,0.2l0.5-1.7
		l-0.7,0.1l0.3-0.8l-1-0.6l0.5-1.5l0.6,1.1L491.6,486.3z M489.4,484.3v-0.5l0.6-0.6l0.4,1.3L489.4,484.3z M490.6,473.8l-0.3,2.4
		l-0.5-2.7L490.6,473.8z M488.7,477.2l0.5,1h-0.6L488.7,477.2z M489.4,481l1.4,1.4l-0.8,0.5l-0.7-0.4l-0.3,0.2l-0.9-1l0.3-0.6
		L489.4,481z M567.3,507.5l-3.2-2.3l-0.6-0.6l-2-4.6l-1.5-6.7l-0.8-0.2l-0.5-1l1,0.1l-1.4-6.2l-0.9-0.4l0.7-0.4l-0.2-1.3l-0.7-0.1
		l-0.2-0.5h-0.6l-0.1-2l-0.4-0.1l0.2-0.6l0.9-0.2l-0.2-0.6l-0.9-0.2l-0.3-0.6l-0.3-0.1l-0.1-3.3l-0.7-0.6l-0.1-0.1l-0.1-2.5
		l-0.6-0.2l-0.2-0.4l-0.4,0.1l-0.5-1.5l1-1.5l-0.6-0.8l-0.1-1.1l0.6-0.2l-2.1-0.8l0.1-2.7l-0.3-0.1l-0.2-2.9l-1.5,0.2l-0.4-1.3
		l0.4-2l-1-1.8l0.4-2.6l-0.6-0.2l-0.4-0.7l1-0.4l1.6-0.1l-3.6-15.1l-0.7-1.7l-1.7-1.5l-0.9-0.2l-1,0.2l-8.8,3.8l-1.2,0.1v1.1
		l-0.8-0.1l-0.1-0.7l-0.5,1.5l1-0.5l1,0.1l0.1,0.4l-0.5,1.2h-0.7l-0.4-0.6l-0.5,0.5l-1.9-0.5l-2,0.4L527,440l-1.5-0.5l0.4-1.8
		l-1,0.2l-0.9,0.6l-0.7,1.2l-0.3,1.4l0.2,0.7l1,1.4l-0.6,0.2l0.2,0.7h0.1l0.7,2.5l-0.3,1l0.6,1.4l0.5,0.1v1.7l1.7,0.4v1.9l-0.2-0.4
		l-0.5,0.4l0.6,1.2h0.4l-0.1,0.6l-0.6-0.1l0.4,0.8h1.2l0.2,0.8l-1.2,0.4l-0.2,0.5l0.7,1.1h0.5l-0.4,1.3l0.1,1.2l-0.2,0.2l0.3,4.5
		l0.8,0.5l0.1,1.4l0.7,0.5l-0.1,0.5l-0.2,0.1l0.1,2.7l0.5,1.3l-0.3,0.7l1.8,7.5l-0.1,1.7l-0.5,0.5l-2.7,0.5v0h-5.6l-0.6,1.2
		l-1.3,2.6l-0.2,1.8l0.1,1l0.4,0.5l0.8,0.4l0.6-0.6l-0.3-1.5l0.2-0.4l0.6-0.6l0.7-0.2l0.8,0.2l0.5,0.7l0.1,0.2l-0.3,0.6l0.1,0.8
		l0.5-0.2l0.7,0.4v0.5l4.9,0.4l2.6-1.3l0.1,1.2l1.6-1l0.6,1.1l1,0.6l0.3,0.8l-0.2,0.6l-0.3,0.4l-0.3,0.1l-1.2-0.7l-0.1,1h0.3
		l-0.5,0.4v0.5l-0.4,0.1l0.4,1.9l-0.3,0.1l0.5,2.1l1.2,0.7l0.2,1l-0.5,0.1l-0.1,1.1h0.4l-0.7,0.8L535,505l-4.3,2.5l-0.4,1.4l-0.1,1
		l0.4,1.5l0.7,0.8l0.6,0.2l2,0.6l2.1,0.4l2.4-0.8l0.8-0.5h0.7l0.5,0.5l0.6-0.8l2.9-0.5l2.2,1.2l1.5,0.2l2.1-0.5l1.4-0.1l0.1,0.5
		l0.1-0.5l0.6,0.5l0.9-0.2l0.3,0.6l1-0.7l1.5-0.4l0.7,1.2l2,0.2l1.2-0.4l0.2-0.7l0.9,0.1l0.4,1l1.2-0.1l4.3-1.1l0.9-1l0.3-1.7
		l-0.3-1.8L567.3,507.5z M548.4,450h1.5l-0.1,1l-1.8-0.2L548.4,450z M535.2,437.4l0.1,1l-0.3,0.4l-1.1-0.8L535.2,437.4z
		 M535.7,440.4l-0.1,1.1l-0.5-0.2l0.1-1.7L535.7,440.4z M537.4,479.2l-0.4,1.5l-0.9,0.5l0.6,0.5l-1.4-0.4l-0.6,0.6l-0.2-0.5
		l-0.4,0.5l-0.4-1l0.1-0.8l0.7,0.1l0.1-1.7l0.8-0.5l0.2-0.8l1.7-0.4l0.3,0.6l-0.1,0.7l0.4,0.8L537.4,479.2z M537.5,474.4l-0.5-0.5
		l0.7-0.4l0.3,0.6L537.5,474.4z M549.2,463.6l-0.3,0.1l-0.6-0.4L548,463v-0.7h2L549.2,463.6z M551.8,467.5l0.4-0.8l0.1,0.8H551.8z
		 M555.7,494l1.4,0.1l-0.7,0.8L555.7,494z M559,503l0.2,1.5h-1.5l-0.3-0.7l0.6-0.7l-0.8-1.8l0.4-0.5l-0.3-2.4l1.3,0.2l-0.6-0.6
		l-1.8-0.9l0.3-0.7l2.2,0.5l0.9,0.5l-0.4,1.1l0.4-0.1l-0.5,1.9l0.6,0.2L559,503z M560.1,496l-0.7,0.5l-0.6-0.4V495h0.4l0.2-0.6
		l0.7,0.4V496z M521.2,507.5l0.5,1.4v0.4l-0.4,1.7l-1.3,1.4l-3.5,1l-8.7-0.5l-0.1-1.2l-3.5,0.6l-1.5,0.6l-1.6-0.2l-1.5-0.6l-0.6-0.7
		l-0.3-1.1l-0.2-1.1l0.1-1l0.3-0.7l4-2.5l1.9-2.7l0.8-0.8l0.7-1.3l0.2-1.3l1-0.2l1.4-2l0.4-1l0.2-1.3l-0.5-0.6l-0.1-1l-0.5-0.4
		l0.1-1l0.8-0.1l0.1-1.4h0.8l1-3.5l0.1-4.5l0.9-2.6v-1.4l0.9-1.8l-0.1-1.7h1.5l0.9-0.5l0.1-0.4l0.6-6.5l0.5-1.2L517,465l0.3-1.1
		l0.5-0.1l0.1-1.5l-0.7-0.6l2-7.5l0.8-2.4l0.4-0.5l0.4-0.1l0.4,0.1l0.4,0.5l0.7,2.3l1.6,8.2l-0.3,3l-0.6,2l-1.2-0.1l-0.2,0.1l-0.6,1
		l-0.1,0.5l0.7,1.4l-0.6,0.2l0.4,0.5l-0.3,2l0.5-0.2l-7.3,28.5l-0.9,0.1l-0.3,1.1l1.8,0.5l0.2-0.4l0.7,1.7l0.6,1l3.9,1.8
		L521.2,507.5z M617.9,466.9l0.2-3l-0.1-14.4l-1.4,0.7l0.1,1.3h-0.5l-3,10.1l-0.5,1.1l-0.5,0.4l-1.3-1.7l-1-0.1l-0.1-0.8l-0.3,1.1
		l-0.9,0.1l-0.9-1.4l0.7-0.6l-0.4-0.8l0.5-0.1L608,458l-0.5-3.6l-0.8-0.1l0.1-0.7l0.3,0.4l0.9-0.4l0.5,0.8l-0.6-2.6v1.4h-0.3
		l-0.6-0.4l0.4-1.3l-0.6-0.2l0.3-0.7h0.4l-0.2-0.6l-1.4,0.6l-0.4-0.5l0.2-0.7l0.2,0.2l0.5-0.8h-0.7l0.3-0.4l-0.4-0.1v-0.6h-0.4
		l0.1,1l-0.8-1.1v-0.7h-0.3l0.2-0.7l-0.5-0.6h0.4l0.1-0.5l-1.4-0.4l-0.1-1.5l0.9,0.5V443l0.8-0.1l-0.9-3.3l-1.7-4.2l-1-1l-1.8-0.7
		l-1.3-0.1l-0.1,0.5l-0.5,0.2l0.1-0.6l-1.8-0.2l-1.2,0.2l0.6,0.6l-0.2,1.1l-0.5,0.1l-3.2-1.3l-0.1-0.6l-0.5-0.1l-0.6,0.8l-1.4,0.1
		v0.5l-2.2-0.4l-0.4,0.7l-0.7-0.2l-0.2-0.4l-0.9,0.7l-0.7,0.2l-1.2-0.1l-3.1-1.4l-0.4,0.4l0.1,0.6h-0.9l-0.4,0.5l-0.8-0.1l-1.6,0.7
		l-1.2,0.2v-2l0.6,0.5l0.2-0.7l0.6-0.2l0.1-0.4l-1.3,0.2l-2.8,0.8l-0.5,0.7l-0.3,1.7l0.2,1.3l0.6,1.1l0.8,0.7l4.3,2.1l2.6,2.9h1.4
		l-0.4-0.6l-0.5-0.2l0.1-0.4l1.9,0.4l0.5,1.8l-0.4,0.8l0.3,1.5l-0.6,0.2l1,0.5l0.2,1l-0.3,0.2l1.4,3.6l-0.4,0.2l0.5,0.8l-0.1,0.4
		l0.4,0.8l-0.1,0.5l0.4,0.6l-0.1,0.6h0.1l0.5,1.1l-0.2,0.5l0.4,0.1l0.1,1l0.8,1.3v1l-0.7-0.1l0.7,1.7l-0.1,0.7l1.5,0.8v2.6l6.5,19.5
		h0.6l1.4,0.6l0.1,2.1l-0.9,0.4l1.9,1.1l-0.1-1.2l0.2-0.4l-0.4-0.5l0.1-0.5l0.5-0.2h0.8l0.1,0.2l0.5,0.6l-0.4,1.1l0.5,0.4l-0.2,1.9
		l0.4,2.6l-0.3,0.4l0.5,1l0.2,2.6l1.3,1.3v0.8l-0.6,0.4l0.3,0.8l1.8-0.7v0.7l-0.9,0.5l0.7,1l-1.4,0.8l0.6,0.7l-0.5,1l1.2,3.3
		l0.9-1.4l0.5,0.1l0.9,0.7l0.8-0.8l0.8-1.2l0.2-1l0.9,0.1l0.6-2.5l-0.8,0.1v0.4l-0.7,0.5l-0.3,1.7h-0.5l-0.4,1.2h-0.4l0.2-0.8
		l-0.9,0.2l-0.4-0.6l-0.6-0.1v-1.4l0.8-1.7l-1-0.5l-0.4,0.5v-0.6h0.6l0.4-0.8l0.6,0.1l0.3,0.4v-0.6l0.3-0.2l0.1-1.2l1.9-1.7l0.3-0.6
		l1.2-0.8v-1l2-2.6l0.6,0.1l-0.1-1l0.2-1.5l0.7-0.2l-0.4-0.4l0.3-1.2l1.3-2.6l0.4-1.4l0.6-1.8l0.2-1.2v-1.7l0.4-0.1l0.2-1.3l0.8-1.8
		l2.1-7.1L617.9,466.9z M586.8,452.9l1.7,0.4l0.3,1.1l-0.6,0.2l0.6,1.1h-0.8l-0.2,0.8v-1.9l-0.5-0.1v-1L586.8,452.9z M589.5,467.8
		l-0.8-0.4l-0.1-0.5l0.1-0.4l0.2-0.2h0.4l0.2,0.1V467.8z M589.4,465l-0.4,0.7l-0.5-0.1l-0.4-0.5l-0.2-1l0.4-0.7l0.7,0.1l0.2,0.6h0.3
		L589.4,465z M589.2,462.3v0.5l-0.5,0.1l-0.5-0.4l0.7-1.2v0.7L589.2,462.3z M589.5,459.2l-0.2,1.7l-1.9-1.3l-0.1-0.4l0.6-2l-0.1-0.7
		h0.6l-0.1,1.1l-0.3,0.4h0.5l0.9,0.8l-0.2,0.1L589.5,459.2z M596.3,485.9l1.4,0.2l-0.4,0.4L596.3,485.9z M596.9,488.2l-0.3-0.2v-0.4
		v-0.4l0.2-0.2h0.5l0.2,0.1l0.5,1.4L596.9,488.2z M606.4,451.7l-0.5,0.1l-0.1-0.6h0.6V451.7z M609.8,465l0.1-1.8l-0.4-0.1v-0.4
		l0.8-0.2l0.4,0.4L609.8,465z M605.3,446.8l-0.5-0.5l0.3-0.8l0.8,0.7l-0.5,0.2L605.3,446.8z M610.1,459.4l-0.8,0.2v-0.7l0.9,0.1v0.7
		L610.1,459.4z M651.8,506.8l-1.3-0.8l-2.3-0.8l-0.7,0.7l-0.2-0.5h-0.7l-0.7,1.5l-0.6,0.1l-0.1-1.3l0.1-1.9l-0.9-1.5l0.7-1l1.7,1.3
		l-0.1-18.2H646l0.3-1.3l-0.4-0.2l0.2-1.1l-0.4,0.1l-0.4-0.5l0.8-2.7l0.3-1.5l-0.5-2.9l0.4-1.8l-1-1.5l0.9-1.4l-0.6-0.6l0.6-1
		l0.2,0.5v-2.6l-0.2-0.5l-0.4,0.4l-0.6-0.2l-0.3-1.4l-1-0.2l0.3,1.2l0.3,0.2l-0.1,0.6l-0.6,0.7V466l-0.7,0.1l-0.4-1l0.9-1.4l-0.1-1
		l0.8-0.8l0.3-0.7l0.1-2l0.6-1.7l0.1-1.3l-0.5-0.8l0.5-2.1l0.1-1.2l-0.3-0.4l-0.2-1.1h1.5l-0.1-4.9l0.3-3.3l0.3-0.6l0.4-0.4l4.1-2.5
		l0.4-0.6l0.1-0.7l-0.5-2.4l-0.5-0.6l-1.8-0.7l-3.6-0.7l-2.7,0.1v0.5l-1.2,0.4l-0.8,1.3l-0.8-1.4l-0.2,1.5l-0.7-0.7l0.2-0.8
		l-0.8,0.1l-0.8,0.5l-0.7-0.2h-2l-0.6-0.5l-0.6,0.5l-0.9-0.5l-0.4,0.4l-0.8-0.5l-0.7,0.4l-1,0.2l-0.8-0.1l-1.2-0.8l-3,1.5l-0.1-0.4
		l-1.2,1.4l-0.7,0.1l-0.3-2l0.7-0.1l0.1-0.4l-1.3,0.6l-0.3,1.8l0.3,0.1l-0.4,1.2l-0.2,1.5l0.3,3.2l-0.2,1.5v4.4l0.6,0.2v2.1
		l-0.5,0.2l0.1,21.4l0.5,0.5l0.2,1.1l0.4,1l0.3,0.2l0.4-0.4l-0.1-1.8l0.4-0.2l0.2,3h-1l-0.5,1l0.4,1.7l0.4-0.4l0.2,0.8l-0.4,0.8
		l0.6,0.2l1,2.1l-0.5,0.2v-0.4l-1.2,0.5l-0.1,2.5l-0.9,0.4l0.5,0.5l0.3,1l0.4-0.1l0.1-0.5l1,1.1l-0.3,0.7l-0.4-0.4v4.2l-1.3,0.4v0.7
		l-0.8,1.1l0.3,2.1l0.3-0.6l0.3,0.6l0.2,1.3l-0.8,0.2l-0.2,0.4v3.1l-0.4,2.7l-0.4,0.8l-0.5,0.4l-3.5,1.8l-0.5,1L616,509l0.4,1.4
		l1.2,1.3l4.4,1.2h2.7l-0.1-0.7l0.6-0.1l-0.1-1l2.8-0.7l0.3,1.1l0.5-1.2l1.2,0.1v0.4l0.7,0.7l0.3,0.8l5.4,0.1l2.5,0.1l0.9-0.1
		l0.9-0.4h0.5v-0.4l1.8-0.4v-1l0.5,0.2l0.2,1.4l-0.5,0.2l1,0.4l0.5,0.1l3-0.4l3.1-1.2l1.2-1.1l0.2-1.2l-0.1-1.4L651.8,506.8z
		 M645.4,499.6l0.3-0.2l0.3,0.7l-0.3,0.7l-0.3-0.6V499.6z M645,456.1v1l-0.6-0.2l0.1-0.5L645,456.1z M643.8,439.8l1.3,0.4l-1.6,0.7
		l0.5-0.7L643.8,439.8z M622,446.6l0.7-1.1l-0.3-0.8l0.9,0.6l-0.1,1.1L622,446.6z M624.3,472.4l-1.3-0.3v-0.5h1.4L624.3,472.4z
		 M639.8,435.8l0.9,0.7L640,437l-0.3-0.6L639.8,435.8z M636.2,441.8l-1.8-0.2l-0.5,0.1l-0.6,0.5h-0.8l-0.2,0.2l-0.6-0.2l-0.5,0.5
		l-0.5-0.2l-0.2,1l-0.4-0.4l-0.3-0.6l-0.9-0.4l0.6-1.1l0.9-0.4l1.2-0.2v-1.1l4.2,0.1l-0.6-0.8l0.3-0.5l0.6,0.5l0.1,1.7l0.3,0.7
		L636.2,441.8z M636.6,439.6l-0.5-1.1l0.1-0.8l0.4,0.2V439.6z M637.1,436.3l0.8-0.5l1-0.2l0.2,0.7l0.7,0.8h-0.6l-0.3,1l-0.5-0.1
		l-0.1,0.6h-0.8h0v0.6l-0.8-2L637.1,436.3z M642.2,442l0.2,0.7l-1.2,0.2l-1.2-0.4l-1.3,0.1l-2-1.5v-0.5l1-0.2l2.1-0.7h2l0.3,0.5
		l0.1,0.7l0.5,0.4l-0.4,0.5h-0.6L642.2,442z M645.1,511.1l-0.4-0.1v0.8l-1-1.4l0.9-1l1,0.1L645.1,511.1z M592.8,506.6l-1.8-0.8
		l-2,0.1l-0.2-0.6l-1.4,1l-1-0.1l-0.3,0.6l-1.8-1.1l0.6-0.1l-0.4-2.3l1.8-1.1l-0.2-1.3l-0.7-20.8l-0.3-1.9l0.5-0.5l-0.5-4.4
		l-0.2-0.4l-1.4-0.7l0.3-0.4h0.5l-0.8-2.1l-0.5,0.1l-0.4-0.5l0.2-0.8l-0.2-0.2v-0.5h-0.4l-0.3-1l0.5-0.7l-1.9-5.7l-0.5-1.4l-0.2-0.1
		L579,459l-0.1,1.4l0.3,0.4l-0.2,1.5l0.3,1.1l-0.5,0.2l-0.1,2.9l1.4,1.5l-0.4,0.5l-0.9,0.1v5.2l1,0.8l-0.1,2.4v1.5l-0.3,0.1l0.4,3.5
		l-0.4,0.1l-0.1,0.2l0.4,3l-0.3,2.3l-0.6,0.2l0.8,0.5l0.3,2.3l-1.2,0.6v4.2l-0.9,7.1l-0.5,1l-0.5,0.5l-6.1,3l-0.5,2.1l0.2,0.8
		l0.9,1.3l3.5,1.5l7-0.2l6.4,0.4l2.5-0.4l2.4-0.8l0.9-1l0.2-1.3l-0.2-1.8L592.8,506.6z M583.5,474.4l0.7,0.1l0.5,0.6h-1.3
		L583.5,474.4z M582.9,506.5l-0.1-0.4l0.1-0.4l0.3-0.1l1,0.4L582.9,506.5z M687.9,439.5l-0.5-4.4l-0.5-0.7l-1.2-0.4l-1.4-0.1v0.7
		h-0.7l-0.9,0.7l-0.6-1.4l-1.5,0.1l-0.6,1.2l-0.2,0.2l-1.6,0.1l-0.9-0.2l-0.5-1l-2.1-0.1l-0.3,0.2l-0.1,0.7l-0.5,0.2l-0.5-1.4
		l-10.6-0.4l-2.1,0.5l-2,0.7l-1.2,1.3l-0.3,1.2l0.2,1.1l0.5,1.3l0.9,0.5l3.1,1.8l0.3,0.6l0.5,8.7v2.9l1.4,0.4l-1,1.4v-1l-0.2,1.6
		h0.5l-0.1,0.7h-0.4v-0.5l-0.1,0.8l1.4,1l-0.2,1.8l0.1,2h-0.3l-0.3,0.6l0.1,1.5l-0.7,2.1l-0.1,0.7l0.3,9.5l-0.2,2.7v4.5l2.1,0.5
		l-0.4,0.6h0.9l0.4,1.8l-0.4,0.7l-0.4,0.1l-0.3,0.5l-1.4-0.1l-0.1,3l0.3,1.7l-0.7,0.1l1.2,1.2l0.1,3.7l1,1v0.8l0.7,0.8l0.3,1.1h-0.4
		l-0.1,1.8l-0.8,0.7h-0.5l-0.5,0.6l-0.7,0.2v0.5l-0.3,0.4l-1-0.9l-4.1,2.3l-0.2,0.4l-0.2,1.2l0.3,1.5l0.9,1.1l2.5,1l4,0.4l0.5-0.6
		l1.5-0.7l1-0.8l0.4,0.2l-0.1,1l0.2,0.7l11.3-0.1l0.4-2.3l-0.2-1.3l0.5-1.1l0.5-0.1l-0.2-0.4l0.7,0.1l0.1,1.5l-0.6,1.8l0.4,0.8
		l0.3,1.3l2.7,0.1l2.4-0.5l0.6-0.6l0.3-1.7l0.1-4.4h-1.4l-0.5-0.5l0.4-1.3l-0.1-0.5l0.3-0.1h0.9l0.2-21.3l-0.2-9.4l-0.7,0.8
		l-0.4,1.7l0.2,0.4l-1.9,1.4l-1-0.4l0.8-3.1l0.7,0.1l0.8-1l-0.5-0.6l0.3-0.6l-0.1-1l0.5-0.6l-0.1-1.4l0.7-0.2l0.7,0.5l0.1-0.6
		l-0.5-1.1h-0.8l0.3-1l0.9,0.5l0.2-4.6l-0.1-0.5l-0.9-1.9l-0.1-1.3l0.9,0.2l-0.4-1.4l0.4,0.2l0.1-0.7l-2.5-0.4l-1-1.4h0.3v-0.4
		l1.6,1l-0.1-1l1.6,0.4L687.9,439.5z M664.1,479.8l-0.3-0.2l0.2-1l0.4,0.1L664.1,479.8z M679.5,511l-1.7-1l1.7,0.5V511z
		 M679.5,509.3h-0.8l-0.5-0.5l-0.1-0.6l0.3-0.5l1.2,0.6V509.3z M684.3,468.5l-0.2,0.5l-0.5-1.4L684.3,468.5z M685.4,445.9l-0.1,0.2
		l-0.7,0.4l0.1,0.5l0.6,0.5v0.5l-1.4,0.5l-0.6-0.8l-0.7-1.1l0.5-1.3l0.4,0.2l0.6-0.7l1.3,0.7V445.9z M712.2,512.6l1.4-0.6l-0.3,0.6
		H712.2z M715.7,488l0.3,0.5l-0.8,14L715,511l-0.3,1l-0.6,0.6v-0.7l0.2-0.4l-0.2-0.5l-0.9,0.2l-0.4-0.7h-0.8l-0.4,1.3l-1.3-1.3
		l-1.5,0.8l-3.6,0.6l-1.4-1.2l-0.4-0.1l-2.7,0.5l0.1,0.5l-0.9,0.1l-0.1,0.4l-2.2,0.1l-3.1,0.8l-1.3,0.1l-1.3-1l-0.5-0.8l-0.4-3
		l0.5-3.1l0.4-0.5l5.3-2.5l0.9-0.6l0.4,0.8l0.9-0.1l0.7,0.4l0.6-1.3l1.4-0.4l0.1-0.7l0.9-0.4l1.7-0.1l0.3-0.4l0.2-0.4v-1.3h-0.8
		v-0.5l0.5-0.6h0.6v-1l0.9-0.1l-0.3-0.5l-0.5,0.2l0.4-1.2l0.6,1.4l0.2-1.1l-0.6-0.6l1.7-3l2.3-3.5l0.8-0.6l1.3-0.2l2.1,0.5
		L715.7,488z M691.3,440.1l-0.4-1.9l0.1-1.7l0.3-1.7l0.3-0.5l0.7-0.4l1.2-0.1v0.4h0l1,0.4l0.3-0.5l0.5,0.5l1-0.6l1.2,0.8l0.1-0.5
		l0.7-0.1l0.5,1l0.4-0.1l0.2,0.2l1-1l5-0.1l5.4-0.4l0.5,0.1l0.7,0.8l0.4,1.7v2.3l-0.7,0.2l-0.2,0.8l0.4-0.2l-0.6,1.1l-0.4,1.8
		l0.3,1.5l0.3,0.4l0.9,0.4l0.1,2l-0.4-1l-0.8,0.8l-0.3-1.7l-0.3,1.4l0.7,0.4l0.1,1.1l1-0.2l0.8,7.6l-0.4,1.5l-0.7,0.8L711,458
		l-2.3-0.6l-0.4-0.4l-3.1-5.1l-4.4-5.5l0.7-0.6l-0.6-0.6l-0.2,0.4l-0.7,0.1l-1.3-1.1l1.4,0.1l-1.2-0.4l-0.9,0.1l-5.9-2.9l-0.3-0.4
		L691.3,440.1z M664.2,500.6l-0.1-1l-0.2-0.7v-0.5l0.5,0.1l0.1,0.7l0.5,0.6l-0.5,0.6L664.2,500.6z M691,475.1l-0.2-1.9l0.7-3.2
		l0.6-1l2.6-2.3v0.6h0l0.9,0.2v-1.3l1.7-0.6l0.1-2.3l-0.3-0.7l2-4.4l0.3-0.2l1.5-0.4l2.1,0.5l0.6,0.7l0.4,3.3l-0.2,6.4l-0.3,4.4
		l0.1,2l-0.3,0.5l-0.3,1.7h0.6l0.2,1.3l0.3,6.3l-0.3,2.1l-0.9,1l-1.9,0.6l-1.4-0.4l-0.5-0.5l-3.6-7l-4-4.2L691,475.1z M662.9,456.6
		l0,0.2L662.9,456.6L662.9,456.6z M780.1,480.2l-0.3-1.3l-0.8-1.3l0.3-0.4l-0.8-1.1l0.2-0.5l-0.2-0.5H778l-1.2,1l-1-1l0.4,1.3
		l1.5,0.4l-0.1,1.3l-0.9-0.7l-0.7-0.8l-1-0.6l0.3-1.2l-0.2-1.3l-0.3-0.7l-0.5-0.5l-1.5-0.5l0.1-1.5l0.5-0.2l-0.3-0.8l-0.6-0.5v-1.3
		h-0.8l-0.6-1.1l-2.5-1.5l-4.1-1.8l-14.5-5.4L746,455l-2.2-3.5l-0.7-3.9l0.4-3l0.8-1.4l5.4-3.8l0.3-1.3l0.3-2.3l-0.4-1.9l-0.8-1
		l-1.9-0.6l-2.6,0.4v1h-1v1.2l-1.8-0.1l-0.1,0.6l-1.4,0.5h-2.1v0.5h0.6l-0.2,0.6l-0.8,0.1l-0.6,0.7l-1.4,0.6l-0.4,1.4l-0.7,0.6
		l0.3-1.4l0.5-0.1l-1.4-0.7v1.2h-1.6v0.5l0.6,0.8l-0.5,0.8l-0.5,1.2l-2.3,2.7l-0.5-0.1l-1.5,2.4l0.5,0.4l-0.8,1.2l-0.9,0.8l-0.5,1.1
		l0.4,0.2l-0.1,0.6l-0.6,0.6l0.1,0.5l-0.2,0.1l0.5,0.2v0.7l-0.8,0.2l-0.4,5.6l0.6,4.4l0.2,1.1l1.6,4.4l1,1.2l1,2l2.1,2.5l1.7,0.1
		l-0.1-1.1l1.7-0.8l0.2,0.1l3.5-1l1.6,3l-0.3,0.4l-0.6-0.8l-2.3,0.7v-1l-1-1.3v1.8h-1.2l-0.1,0.7l-1.4,0.1L733,477l1.6,0.7l0.5,1.1
		l0.7-0.7l2.9,0.4v0.8h-0.5l-0.5,0.4l1.7,0.5l0.1,0.5l1-0.1l-0.3-2l0.3,0.1l0.2-1.1l-0.2-1.3l1.9-0.7l0.5-0.6l0.9-0.1l0.8,1.5
		l-2,1.2l0.6,0.6v1l-0.6,0.2v0.6l-0.9,0.1v1.2l4.1,0.4l0.9-0.2l0.5,0.2l1-0.2l0.5,1v1.1l1.7-1v-1.4h0.4l0.3,0.7l-0.2,0.4l-0.3,1.1
		h-0.6l0.2,0.6l-0.4,0.5l-0.4-0.2l-0.7,0.5h-0.6v0.6l0.8,0.5l2,0.2l-0.3,0.4l5.2,2.5l3.1,2.4l1.9,3.1l0.5,2.9l-0.4,2.9l-1.5,2.7
		L759,503l-4.5,2.9l-0.3,0.4l-0.2,0.5l-0.3,2.3l0.1,1.2l2,0.5v2l-0.4,0.2l1,0.4l-0.1-1l2.3-0.1l-0.4,1.1l1.2-0.1l5.9-1.4l1.4-0.7
		l-2.2,0.5l-0.2-1.4l2.4-0.6v-0.4l0.5-0.2l0.4,0.2l0.6-0.7l0.6-0.1v-0.5l1.4,0.2l-0.7-2.4h0.2l0.1-0.5l0.9,0.1l-0.9-1l-0.1-0.8
		l1.4-0.6l2.2-2.4h0.7l0.8,0.7v-0.8l0.3-0.2v-0.6l0.6-0.1l0.3-0.4l1.3-0.5l0.2,1.5l-0.8,0.1v1.1l-0.5,0.2l0.5,1.2l0.7-1l1.6-3.2
		l0.4-1.2l-0.9,0.4l-0.5,1.1l-0.4-0.2l-0.1-0.6l1.4-1.1l0.2-1.8l-0.6,0.2v-0.6l0.5-0.2l0.4,1l0.4-1h0.5l0.3-1.1l0.5-5.5L780.1,480.2
		z M729.3,470.8l-0.7-0.1l0.4-0.6h0.5L729.3,470.8z M731.8,475.2l0.3-1l0.4,0.2L731.8,475.2z M734.2,473.4l-1-0.5l-0.2,0.4l-0.5-1.2
		l-0.7,0.1l0.1-0.6l1.4,0.1l0.4-0.6l0.8,0.6l0.7,1.8L734.2,473.4z M739.8,479.4l-0.8-0.3l0.3-0.5l0.6-0.1L739.8,479.4z M739.1,473.8
		l-0.3-0.5l-0.1-0.6l0.8-0.4l0.6,1L739.1,473.8z M740.1,437l-0.6-0.2l0.3-0.6l0.6,0.1L740.1,437z M741.8,473.3l-0.9,0.1l-0.4-0.3
		l1.4-0.6V473.3z M741.6,440.2l1-1.4l0.1,1.5L741.6,440.2z M742.4,436.1v-0.7l0.9,0.5L742.4,436.1z M752,483.7l-1-0.1l0.8-0.7
		l0.7,0.1L752,483.7z M774.9,477.9l0.4,1.2l-0.4,0.2V477.9z M770.2,479.3l-0.7-1l0.4-0.7l0.7,1L770.2,479.3z M771.9,481.6l-0.3-1.3
		l0.5,0.6L771.9,481.6z M772.2,478.2l-0.7,0.7l-0.2-0.8l-0.6-0.7l0.2-0.7l0.5-0.4l0.1-0.7l0.4-0.1l0.7,1.3l1.2-0.5l0.7,0.7l-0.4,0.5
		l-0.7-0.4l-0.5,1h-0.5l-0.2-0.5L772.2,478.2z M774.5,479.7v0.8l-0.6,0.4v-0.9L774.5,479.7z M775.7,485.8l-1,0.1l0.7,1.5l0.2,0.8
		l-0.1,0.5l-1.3,1.1l-0.4,1.4l-0.5-0.7l0.3-1.4l0.2,0.5l0.2-0.2l-0.1-1.8l0.3-2l-1.5-1.3l-0.1-0.6l1.3-0.1l0.6-0.8l1.5,1.5
		L775.7,485.8z M743,503.1l-2.5-1.7l-2.9-2.9l-2.6-3.9l-0.9-1.1l-0.4,2.3h-1l-0.3-1.3h-0.8v-1.3v0h0.6l0.5-1.2l0.2-1.2l-0.8-2.9
		l-1.4-3l-0.6-0.4l-2.1-0.2l-2.1,0.4l-0.5,0.6l-0.2,1l0.7,4.6l0.7,6.2l-0.1,3v1.4l1,0.4l0.4,1.1l-0.8,0.6l0.3,1.5l-0.4,1l0.2,0.7
		l-0.4,0.6l0.2,0.7l-0.3,0.2l0.1,1.9l-0.4,0.2l0.6,1.2l0.8,0.7l1.6,0.5l2,0.4l2.8-2.1l4-1.9l0.4,1.3l1.9,0.1l0.1,0.2h0.8l1.8,0.5
		l0.2,1.2l1-1.1l0.7,0.1l-0.5,1.2l1.2,0.4l1,0.2l2-0.1v-0.7l0.4-0.2l0.1-1.4l1-0.8l0.1-0.4v-1l-1.3-2.6L743,503.1z M747.7,512.2
		l-0.7-0.4l-0.5,0.8l-0.6-0.2l-0.1-0.6l0.2-0.4l1.2-0.2l0.9,0.2L747.7,512.2z M775.1,435.7l-0.7-1.3l0.6-0.4l0.4,1.2L775.1,435.7z
		 M736.7,436.8h-0.8l1.2-0.8L736.7,436.8z M754.2,440l6.7,3.3l2.4,1.9l1.5,1.7l2.5,3.6l3.2,6.7l0.1-0.6l0.5-0.8l0.8,0.5v0.5l0.3,0.4
		h-0.8l-0.4,0.5l1.7,1.3h0.3l1.6-0.2l1.4-0.5l0.5-0.6l0.1-0.7l-0.7-7.3h-0.5l-0.2-1h-0.7l0.7-1.3v-2.4l-0.7-0.5l1.3-1.4l0.4-4
		l-0.2-1.3l-0.4-1.1h-0.7l-0.7-0.7l0.1-0.7l-0.3-0.4l-0.4-1.2l-0.5-0.5l-0.9-0.2L771,433l-0.6,0.5l-2.4,2.1l0.3,0.5l-0.4,0.1
		l0.3,3.1l-1-0.6l-1.2-2.6l-0.4-0.7l-1.4-0.5l-0.1,0.3l-0.9-0.7l-1.8-0.8l-5.4-1.2l-1.4,0.5l-0.6,0.7l-0.4,2.4l0.5,3.6L754.2,440z
		 M760.6,436.3l0.8-0.1l0.1,0.8l-1.2-0.2L760.6,436.3z M775.2,501.3l0.4,0.6l-0.7-0.2v0.7l-0.3,0.1l-0.3-0.5l0.3-0.7H775.2z
		 M771.2,504.7l0.8,0.8l-0.5-0.1l-0.1,0.5L771.2,504.7z M771.3,504.3l-0.6-0.2l0.1-0.5l0.8,0.1L771.3,504.3z"/>
	<path id="black-lines" d="M93.9,556.7h126.4v10.5H93.9V556.7z M93.9,395h252.9v-9.8H93.9V395z M525.6,385.2v9.8h252.9v-9.8H525.6z
		 M652,567.2h126.4v-10.5H652V567.2z"/>
</g>
</svg>
