<?xml version="1.0" encoding="utf-8"?>
<!-- Generator: Adobe Illustrator 24.3.0, SVG Export Plug-In . SVG Version: 6.00 Build 0)  -->
<svg version="1.1" id="jesse-james-method-logo" xmlns="http://www.w3.org/2000/svg" xmlns:xlink="http://www.w3.org/1999/xlink"
	 x="0px" y="0px" viewBox="0 0 864 864" style="enable-background:new 0 0 864 864;" xml:space="preserve">
<style type="text/css">
	.st0{fill:#090909;}
	.st1{fill:#080909;}
	.st2{fill:#DA2628;}
	.st3{fill:#DA2528;}
</style>
<g id="jesse-james-method-logo-parts">
	<path id="jesse-word" class="st0" d="M66.3,267.4c1.2,0,2.3,0.4,3.5,0.7c0,0.5,0,1,0,1.4c-1.2,0.3-2.3,0.7-3.5,0.8
		c-5.8,0.6-7.5,2.2-7.7,8.1c-0.2,6.7-0.2,13.4-0.2,20.1c0,21.3,0,42.5,0.2,63.8c0.2,21.5-10.6,36.2-28.1,47.1
		c-1.9,1.1-3.8,2.2-5.8,3c-0.9,0.3-2.1-0.1-3.1-0.2c0.6-0.8,1-1.9,1.8-2.4c6-3.8,10.4-8.9,13.2-15.4c3.1-7.2,3.8-14.9,3.8-22.5
		c0.2-31,0.1-61.9,0.1-92.9c0-5.8-2.6-8.2-8.5-8.6c-1.2-0.1-2.4-0.1-3.6-0.4c-0.5-0.1-1.1-0.7-1.1-1.1c0-0.4,0.6-1,1-1.2
		c0.7-0.2,1.6-0.3,2.3-0.3C42.5,267.3,54.4,267.3,66.3,267.4z M145.7,353c-0.3,1.2-0.8,2.3-1,3.5c-1.4,7.1-3.7,9.8-10.5,10.6
		c-5.3,0.6-10.8,0.6-16.1,0c-6.9-0.8-9.2-3.6-9.3-10.5c-0.2-11-0.1-22-0.1-32.9c0-0.5,0.3-1.1,0.3-1.1c6.8,0,13.3-0.1,19.8,0
		c6.8,0.2,8.7,2.2,9.3,9c0.1,1,0.4,2,0.6,3.2c1.8-1.8,3.9-22.4,2.8-24.8c-1.8,1.1-3.5,3.2-5.4,3.3c-9,0.7-18.1,0.8-27.1,1.2
		c0-13.3,0-25.9,0-37.9c7.5,0,14.7-0.4,21.9,0.1c6.7,0.4,8.8,3.1,9.2,9.8c0,0.8,0.3,1.6,0.5,2.4c0.4,0,0.8,0,1.2,0
		c2.1-7.4,1.2-15.1,2.6-22.3c-4.2,0.5-7.7,1.3-11.2,1.3c-17.5,0.1-35-0.1-52.5-0.1c-1,0-2.1,0.7-3.1,1.1c1,0.5,2,0.9,2.9,1.4
		c0.2,0.1,0.4,0,0.6,0c7.6,0.4,9.7,2.6,9.7,10.1c0,19.7,0.1,39.3,0,59c0,8.6-0.3,17.2-0.6,25.7c-0.2,5.7-2.1,7.4-7.7,7.7
		c-1,0.1-2,0.6-3,0.9c0,0.4,0.1,0.7,0.1,1.1c1.1,0.2,2.2,0.5,3.2,0.5c6.4,0,12.8-0.1,19.2-0.1c12.8,0.1,25.6,0.3,38.4,0.6
		c3.1,0.1,5.1-1.1,5.4-4.2c0.6-5.2,1.1-10.5,1.5-15.8c0.1-0.9-0.5-1.9-0.7-2.9C146.4,353,146,353,145.7,353z M195.2,308.1
		c-3.9-3-8.2-5.5-11.5-9c-7.9-8.2-4.9-20.8,5.7-25c1.6-0.6,3.2-1,4.9-1.3c11.5-1.8,20,4.7,21.3,16.3c0.1,0.8,0.4,1.5,0.7,2.2
		c0.4,0.1,0.8,0.1,1.2,0.2c0.4-1.5,1-3,1-4.5c0.2-5,0-10,0.4-15c0.3-3-0.8-4.2-3.5-4.7c-7.6-1.4-15.1-2.5-22.9-1.3
		c-11.4,1.8-20.9,6.8-25.2,18c-4.4,11.2-2.6,22.3,5.5,31.3c5,5.5,11.6,9.7,17.4,14.4c3.9,3.2,8.3,5.9,11.8,9.6
		c5.3,5.6,5.8,12.5,3.4,19.5c-2.3,6.8-7.5,10.2-14.4,11.4c-11.2,1.9-21.8-4.7-24.3-15.3c-0.5-2.1-0.5-4.3-0.9-6.5
		c-0.1-0.7-0.7-1.3-1.1-1.9c-0.5,0.5-1.1,1-1.5,1.6c-0.3,0.5-0.3,1.1-0.3,1.7c-0.2,6.3-0.3,12.6-0.7,18.8c-0.2,3.2,1.1,5,4.1,6
		c8.4,2.8,16.9,3.4,25.7,2.7c6.3-0.5,12.1-2.1,17.2-6c16.8-13,15.8-37.5,3.5-49.6C207.4,316.5,201,312.6,195.2,308.1z M270.4,308.1
		c-4.1-2.7-8.2-5.7-11.8-9.1c-4.4-4.1-5.1-9.6-3.5-15.2c2.2-7.7,10.7-12.2,20.3-11c8.2,1,14.5,7.4,15.2,15.3
		c0.1,1.1,0.4,2.2,0.6,3.3c0.5,0,0.9,0.1,1.4,0.1c0.3-1.5,0.9-3,1-4.6c0.2-5.3,0.2-10.6,0.5-15.9c0.1-2-0.6-2.9-2.5-3.3
		c-7.8-1.8-15.7-2.9-23.7-1.7c-11.6,1.7-21.1,6.8-25.5,18.1c-4.4,11.4-2.1,22.1,5.7,31.6c5.4,6.5,12.6,10.6,19.4,15.4
		c3.4,2.4,6.8,5,9.6,8c5.3,5.7,5.9,12.7,3.5,19.8c-2.3,6.8-7.6,10.1-14.5,11.3c-11.1,1.8-21.5-4.7-24.2-15.2c-0.5-2-0.5-4.1-0.9-6.2
		c-0.2-0.8-0.8-1.6-1.2-2.4c-0.5,0.7-1.1,1.5-1.6,2.2c-0.2,0.2-0.1,0.6-0.1,0.9c-0.2,6.3-0.3,12.6-0.7,18.8
		c-0.2,3.6,1.3,5.3,4.5,6.3c8.2,2.7,16.6,3.2,25.1,2.6c6.2-0.5,11.9-1.9,17-5.8c16.6-12.6,15.6-35,6.4-47.1
		C284.8,317.5,277.6,312.8,270.4,308.1z M375.2,353c-0.3,0-0.6,0-0.9,0c-0.3,1.1-0.8,2.3-1,3.5c-1.4,7.1-3.7,9.9-10.5,10.6
		c-5.3,0.6-10.8,0.6-16.1,0c-6.9-0.8-9.2-3.6-9.3-10.5c-0.2-11-0.1-22-0.1-32.9c0-0.5,0.3-1.1,0.3-1.1c7.4,0,14.5-0.2,21.6,0.1
		c4.5,0.1,6.6,2.4,7.3,6.8c0.2,1.7,0.5,3.3,0.8,5.4c2.2-2.1,4-23,2.7-24.8c-1.7,1.1-3.4,3.1-5.2,3.2c-9,0.7-18.1,0.8-27.1,1.2
		c0-13.3,0-25.9,0-37.9c7.5,0,14.7-0.4,21.8,0.1c6.7,0.4,8.8,3.2,9.2,9.8c0,0.8,0.3,1.6,0.5,2.4c0.4,0,0.8,0,1.2,0
		c2.1-7.4,1.2-15.1,2.6-22.3c-4.2,0.5-7.7,1.3-11.2,1.3c-17.5,0.1-35-0.1-52.5-0.1c-1,0-2,0.7-3.1,1.1c1,0.5,1.9,0.9,2.9,1.4
		c0.2,0.1,0.4,0,0.6,0c7.6,0.4,9.7,2.6,9.7,10.1c0,19.5,0.1,38.9,0,58.4c0,8.8-0.3,17.6-0.6,26.3c-0.2,5.7-2.1,7.4-7.7,7.7
		c-1,0.1-2,0.6-3,0.9c0.1,0.4,0.2,0.9,0.2,1.3c1.2,0.1,2.5,0.3,3.7,0.3c6.3,0,12.6-0.1,18.9-0.1c12.7,0.1,25.4,0.3,38.1,0.6
		c3.1,0.1,5.1-1.1,5.4-4.2c0.6-5.2,1.1-10.5,1.5-15.8C376,354.9,375.4,353.9,375.2,353z"/>
	<path id="james-word" class="st1" d="M457.2,288.8c0,24.2-0.1,48.3,0.2,72.5c0.3,21.9-10.3,37.2-28.4,48.1
		c-1.8,1.1-3.6,2.2-5.5,2.9c-0.9,0.3-2.1-0.1-3.1-0.2c0.6-0.8,1-1.9,1.8-2.4c7.8-5,13-11.8,14.8-20.8c1.2-5.6,2.1-11.4,2.2-17.1
		c0.2-31,0.2-61.9,0.1-92.9c0-5.8-2.6-8.2-8.5-8.6c-1.2-0.1-2.4-0.1-3.6-0.4c-0.5-0.1-1.1-0.7-1.1-1.1c0-0.4,0.6-1,1-1.2
		c0.7-0.2,1.6-0.3,2.4-0.3c11.9,0,23.8,0,35.7,0c1.2,0,2.3,0.4,3.5,0.7c0,0.5,0,0.9,0,1.4c-1.2,0.3-2.3,0.7-3.5,0.8
		c-5.8,0.6-7.5,2.2-7.7,8.1C457.3,281.8,457.2,285.3,457.2,288.8z M565,373.8c0,0.6-0.1,1.2-0.2,1.7c-9.1-0.1-18.3-0.2-27.4-0.3
		c-0.9,0-1.8-0.4-2.7-0.5c0.1-0.6,0.1-0.9,0.2-1c3.5-1.5,3-3.8,1.9-6.7c-3.1-8.2-5.9-16.4-8.8-24.7c-0.6-1.9-1.5-2.6-3.6-2.6
		c-9.3,0.1-18.6,0.1-27.9,0c-1.9,0-2.8,0.5-3.4,2.4c-2.7,8.3-5.7,16.5-8.2,24.8c-1.2,3.9,0.6,5.6,4.8,5.8c1.4,0.1,3.9-0.9,3.9,1.4
		c0,2.5-2.6,1.5-4.1,1.5c-8.8,0.1-17.6,0-26.4,0c-0.8,0-1.7,0.2-2.4-0.1c-0.6-0.2-1-1-1.6-1.5c0.5-0.5,1-1.2,1.7-1.3
		c1.4-0.2,2.8,0,4.2-0.3c4.3-0.9,7-3.8,8.5-7.7c3.7-9.1,7.2-18.3,10.8-27.4c8.8-22.8,17.5-45.6,26.4-68.3c0.7-1.8,2.1-4.4,3.5-4.6
		c2.6-0.4,3,2.6,3.8,4.6c11.2,29,22.3,58,33.5,87c1.5,3.9,3.6,7.5,5.6,11.2c0.8,1.3,2,2.6,3.2,3.5c1.6,1.2,2.8,2.1,4.3,2.2
		C565.1,373.2,565,373.5,565,373.8z M524,331.8c-4.5-12.9-8.8-25.6-13.5-39.1c-4.8,13.5-9.3,26.2-13.8,39.1H524z M695.4,372.8
		c-7.8-1.2-10.2-2.2-11.4-9.7c-1.6-9.6-2.8-19.3-4.1-29c-3-21.5-5.9-43-9-64.5c-0.3-1.8-1.8-3.5-2.8-5.2c-1.3,1.4-3,2.5-3.8,4.2
		c-4,8.6-7.7,17.2-11.5,25.9c-7.9,17.9-15.8,35.8-23.9,54.3c-0.7-1.5-1.1-2.3-1.5-3.2c-5.7-12.9-11.5-25.8-17.2-38.7
		c-5.8-13.1-11.6-26.1-17.6-39.1c-0.6-1.4-2.3-2.2-3.4-3.3c-0.8,1.4-2.1,2.6-2.4,4.1c-1.6,10.3-3.1,20.7-4.5,31
		c-2.1,14.9-4.1,29.8-6.3,44.7c-1.1,7.6-2,15.2-3.6,22.7c-0.8,3.8-3.2,6.3-6.3,6.4c-0.3,0.1-0.2,0.2-0.2,0.5c0,0.6-0.1,1.2-0.2,1.8
		c8.6,0.1,17.2,0.1,25.8,0.2c1.1,0,2.2-0.7,3.2-1c0-0.4-0.1-0.8-0.1-1.2c-1.2-0.2-2.3-0.6-3.5-0.7c-6.4-0.6-7.6-1.9-7.3-8.2
		c0-1,0.2-2,0.3-3c1.5-13.5,3-26.9,4.5-40.4c0.6-5.2,1.2-10.5,1.9-15.7c1,0.9,1.3,1.8,1.7,2.6c9.3,20.6,18.7,41.3,28.1,61.8
		c0.9,2,2.8,3.6,4.2,5.5c1.4-1.9,3.3-3.6,4.2-5.7c7.3-16,14.4-32.1,21.5-48.1c2.7-6,5.3-11.9,8-17.9c1.1,4.3,1.7,8.5,2.2,12.7
		c1.8,14.6,3.7,29.3,5.1,44c0.4,4.2,3.1,9-2,13c1.3,0.5,2.2,1.1,3,1.1c9.6,0.5,19.2,0.9,28.8,1.2c1.2,0,2.4-0.7,3.6-1
		c0-0.4-0.1-0.8-0.1-1.3C697.9,373.2,696.6,373,695.4,372.8z M769.4,353.1c-0.4,1.5-0.9,2.9-1.2,4.4c-1,5.6-4,9.2-9.8,9.6
		c-5.5,0.4-11,0.7-16.4,0c-7-0.8-9.3-3.6-9.5-10.7c-0.2-11-0.1-22-0.1-32.9c0-0.5,0.2-0.9,0.2-1c6.7,0,13.2-0.2,19.7,0
		c7,0.2,8.8,2.1,9.5,9.1c0.1,1,0.4,1.9,0.7,2.8c0.5,0,0.9,0,1.4,0c0.7-8.1,1.4-16.3,2.1-24.7c-2.8,1.6-4.8,3.6-6.9,3.6
		c-8.7,0.4-17.5,0.2-26.4,0.2c0-12.2,0-24.9,0-37.9c7.7,0.4,15.2,0.4,22.6,1.1c6.3,0.7,8,3.2,8.5,9.8c0,0.8,0.4,1.5,0.6,2.3
		c0.4,0,0.8,0,1.2,0c2-7.4,1.1-15,2.5-22.2c-4,0.5-7.6,1.3-11.1,1.3c-16.6,0.1-33.2-0.1-49.8-0.1c-1.4,0-2.8-0.1-4.2,0.1
		c-0.6,0.1-1.1,0.8-1.7,1.1c0.5,0.4,1,0.8,1.6,1c0.5,0.2,1.2,0.2,1.8,0.2c7.8,0.5,9.8,2.5,9.8,10.3c0,23.2,0.1,46.3,0,69.5
		c0,5-0.3,10-0.6,15c-0.3,5.9-2,7.4-7.9,7.8c-0.9,0.1-1.9,0.6-2.8,0.9c0,0.4,0.1,0.8,0.1,1.3c1.2,0.1,2.4,0.4,3.6,0.4
		c6.3,0,12.6-0.1,18.9-0.1c12.7,0.1,25.4,0.3,38.1,0.6c3,0.1,5.2-0.8,5.5-4.1c0.6-5.3,1.1-10.7,1.6-16c0.1-0.9-0.5-1.8-0.8-2.7
		C770.1,353,769.8,353,769.4,353.1z M838.3,324.5c-5.3-7-12.5-11.6-19.7-16.3c-4.1-2.7-8.2-5.7-11.8-9.1c-4.3-4.1-5.1-9.6-3.5-15.2
		c2.2-7.7,10.7-12.2,20.3-11c8.2,1,14.5,7.4,15.2,15.3c0.1,1.1,0.4,2.2,0.6,3.3c0.5,0,0.9,0.1,1.4,0.1c0.3-1.5,0.9-3,1-4.6
		c0.2-5.3,0.2-10.6,0.5-15.9c0.1-2-0.7-2.8-2.6-3.3c-7.8-1.8-15.7-2.9-23.7-1.7c-11.6,1.7-21.1,6.8-25.5,18.1
		c-4.4,11.4-2.1,22.1,5.7,31.6c5.4,6.5,12.6,10.6,19.4,15.4c3.4,2.4,6.8,5,9.6,8c5.4,5.7,5.9,12.7,3.5,19.8
		c-2.3,6.8-7.6,10.1-14.5,11.3c-11.2,1.8-21.8-4.8-24.2-15.5c-0.5-2.1-0.5-4.4-0.8-6.5c-0.1-0.6-0.8-1.2-1.2-1.8
		c-0.5,0.5-1,0.9-1.3,1.4c-0.3,0.5-0.4,1.1-0.4,1.7c-0.2,6.3-0.3,12.6-0.7,18.8c-0.2,3.6,1.3,5.2,4.5,6.3c8.2,2.7,16.6,3.2,25.1,2.6
		c6.1-0.5,11.9-1.9,17-5.8C848.5,358.9,847.5,336.5,838.3,324.5z"/>
	<path id="method-word" class="st2" d="M276.2,478.1c0,0.7-1.1,1-2.3,1c-2.3,0-14.8-0.3-18.4-0.5c-2.1-0.2-2.6-0.5-2.6-1
		c0-0.5,0.4-0.7,1-1c0.5-0.2,0.8-1.4,0.4-3.9l-5.4-39.8h-0.4L228.8,474c-2.1,4.2-2.5,5.1-3.4,5.1s-1.7-1.8-3.2-4.5
		c-2.2-4.2-9.3-18-10.4-20.5c-0.8-1.9-6.2-13.3-9.4-20.1h-0.4l-4.7,36c-0.2,1.6-0.3,2.8-0.3,4.2c0,1.7,1.2,2.5,2.7,2.9
		c1.6,0.4,2.9,0.5,3.8,0.5c0.7,0,1.4,0.2,1.4,0.6c0,0.8-0.8,1-2.2,1c-3.8,0-7.9-0.3-9.5-0.3c-1.7,0-6.1,0.3-9,0.3
		c-0.9,0-1.6-0.2-1.6-1c0-0.5,0.5-0.6,1.4-0.6c0.7,0,1.4,0,2.7-0.3c2.5-0.5,3.3-4.1,3.7-7.1l9-59c0.3-1.5,0.8-2.4,1.5-2.4
		c0.7,0,1.3,0.5,2.4,2.8l24.7,51l24.6-51.7c0.7-1.5,1.2-2.2,2-2.2c0.8,0,1.4,0.9,1.6,2.8l8.2,55.9c0.8,5.7,1.7,8.3,4.4,9.1
		c2.6,0.8,4.4,0.9,5.6,0.9C275.6,477.5,276.2,477.6,276.2,478.1z M334.8,467c-0.5,0-0.7,0.4-0.9,1.2c-0.5,3.2-1.5,4.8-3.4,5.7
		c-2.1,0.9-5.4,1-7.5,1c-8.2,0-10.6-1.2-10.8-6.4c-0.1-2.3,0-8.8,0-11.4v-6.1c0-0.5,0.1-0.8,0.5-0.8c2,0,11,0.2,12.5,0.4
		c3,0.3,4,1.4,4.4,3c0.2,1,0.2,2,0.3,2.8c0,0.4,0.2,0.6,0.7,0.6c0.7,0,0.8-1.1,0.8-1.7c0-0.5,0.2-3.6,0.4-5.2
		c0.5-3.9,0.6-5.2,0.6-5.6s-0.3-0.8-0.6-0.8c-0.4,0-0.6,0.5-1.3,1c-0.7,0.8-1.9,1-3.8,1.2c-1.8,0.2-12.1,0.2-13.9,0.2
		c-0.5,0-0.5-0.4-0.5-0.8v-19c0-0.5,0.2-0.7,0.5-0.7c1.6,0,11.1,0.2,12.5,0.4c4,0.4,4.6,1.4,5.2,2.8c0.5,0.9,0.5,2.3,0.5,2.8
		c0,0.6,0.1,1,0.6,1c0.6,0,0.8-0.9,0.9-1.3c0.2-0.9,0.4-4.3,0.5-5.1c0.2-3.5,0.6-4.4,0.6-5c0-0.4-0.1-0.7-0.5-0.7
		c-0.4,0-0.8,0.3-1.3,0.4c-0.6,0.1-1.9,0.4-3.4,0.5c-1.5,0.1-19.2,0-21.7,0c-2.3,0-7.3-0.2-11.5-0.2c-1.2,0-1.8,0.2-1.8,0.7
		c0,0.5,0.5,0.8,1.4,0.8c1.2,0,2.5,0.1,3.2,0.3c2.5,0.7,3.3,1.5,3.4,4.2c0.1,2.5,0.1,4.6,0.1,16.3h0v13.6c0,7.1,0,13.1-0.4,16.4
		c-0.3,2.3-0.7,3.7-2.4,4.1c-0.7,0.2-1.6,0.3-2.8,0.3c-1,0-1.3,0.5-1.3,0.8c0,0.5,0.5,0.8,1.5,0.8c1.6,0,3.6-0.1,5.5-0.2
		c1.9,0,3.6-0.1,4.5-0.1c2.4,0,5.3,0.1,9.2,0.2c3.9,0.2,8.7,0.3,14.7,0.3c3,0,3.7,0,4.2-2c0.5-1.5,1.1-6.8,1.1-8.5
		C335.5,468,335.4,467,334.8,467z M408.2,420.4c-0.3,0-0.9,0.2-2.2,0.4c-1.2,0.2-2.9,0.4-5.4,0.4h-32.3c-2.6,0-5.6-0.1-8-0.4
		c-2-0.3-2.8-0.9-3.4-0.9c-0.4,0-0.7,0.5-0.9,1.5c-0.2,0.6-1.7,8.1-1.7,9.3c0,0.8,0.2,1.3,0.7,1.3c0.5,0,0.7-0.4,0.9-1
		c0.2-0.5,0.5-1.5,1.4-2.6c1.2-1.7,3.1-2.3,7.7-2.4l11.9-0.3h0v31.1c0,7.1,0,13.1-0.4,16.4c-0.3,2.3-0.7,3.7-2.4,4.1
		c-0.6,0.2-1.6,0.3-2.8,0.3c-1,0-1.3,0.5-1.3,0.8c0,0.5,0.5,0.8,1.5,0.8c3.2,0,8.6-0.3,10.4-0.3c2.3,0,7.6,0.3,12.8,0.3
		c0.9,0,1.5-0.3,1.5-0.8c0-0.4-0.4-0.8-1.3-0.8c-1.2,0-3-0.1-4.1-0.3c-2.4-0.4-2.8-1.8-3.1-4c-0.4-3.3-0.5-9.4-0.5-16.5v-31.1
		l10,0.2c7.2,0.1,9.2,2.4,9.4,4.4l0.1,0.8c0.1,1.2,0.3,1.5,0.9,1.5c0.5,0,0.6-0.5,0.7-1.3c0-2,0.2-7.7,0.2-9.3
		C408.9,420.8,408.8,420.4,408.2,420.4z M496.2,477.5c-1.3,0-3-0.1-4.1-0.3c-2.5-0.4-2.9-1.8-3.2-4c-0.4-3.4-0.4-9.4-0.4-16.5v-13.6
		c0-11.7,0-13.8,0.2-16.3c0.2-2.7,0.8-3.8,2.9-4.2c1-0.2,1.7-0.3,2.4-0.3c0.9,0,1.5-0.3,1.5-0.8c0-0.5-0.5-0.7-1.7-0.7
		c-3.1,0-8.3,0.2-10.2,0.2c-2.1,0-7.7-0.2-11.9-0.2c-1.2,0-1.7,0.2-1.7,0.7c0,0.5,0.5,0.8,1.4,0.8c1.1,0,2.5,0.1,3.1,0.3
		c2.5,0.7,3.3,1.5,3.4,4.2c0.1,2.4,0.2,5.2,0.2,16.9v1.6c0,0.5-0.3,0.5-0.5,0.5h-30.1c-0.3,0-0.5-0.1-0.5-0.5v-1.6
		c0-11.7,0-14.5,0.2-16.9c0.2-2.7,0.8-3.8,3-4.2c0.9-0.2,1.6-0.3,2.3-0.3c1,0,1.5-0.3,1.5-0.8c0-0.5-0.5-0.7-1.6-0.7
		c-3.2,0-8.7,0.2-10.6,0.2c-2.2,0-7.4-0.2-11.7-0.2c-1.1,0-1.7,0.2-1.7,0.7c0,0.5,0.5,0.8,1.4,0.8c1.2,0,2.5,0.1,3.2,0.3
		c2.5,0.7,3.3,1.5,3.4,4.2c0.1,2.5,0.1,4.6,0.1,16.3v13.6c0,7.1,0,13.1-0.4,16.4c-0.3,2.3-0.7,3.7-2.3,4.1c-0.7,0.2-1.6,0.3-2.8,0.3
		c-1,0-1.3,0.5-1.3,0.8c0,0.5,0.5,0.8,1.5,0.8c3.2,0,8.4-0.3,10.2-0.3c2.3,0,7.8,0.3,12.9,0.3c1,0,1.6-0.3,1.6-0.8
		c0-0.4-0.4-0.8-1.3-0.8c-1.2,0-3-0.1-4.1-0.3c-2.4-0.4-2.8-1.8-3.1-4c-0.4-3.4-0.5-9.2-0.5-16.3v-5.9c0-0.4,0.3-0.5,0.5-0.5h30
		c0.2,0,0.5,0.2,0.5,0.5v5.9c0,7.1,0,12.9-0.4,16.2c-0.3,2.3-0.7,3.7-2.3,4.1c-0.7,0.2-1.6,0.3-2.9,0.3c-0.9,0-1.3,0.5-1.3,0.8
		c0,0.5,0.6,0.8,1.7,0.8c3.1,0,8.7-0.3,10.5-0.3c2.2,0,7.4,0.3,12.6,0.3c1,0,1.6-0.3,1.6-0.8C497.4,477.9,497,477.5,496.2,477.5z
		 M583.7,448.6c0,17.6-12.8,31.5-33.4,31.5c-23.2,0-32.6-16.5-32.6-30.1c0-13.1,9.2-30.1,33.4-30.1
		C571.2,419.8,583.7,431,583.7,448.6z M571.8,451.4c0-17-10.2-27.5-23.1-27.5c-8.9,0-19.3,4.7-19.3,23.7c0,15.8,9,28.3,24.1,28.3
		C559.2,475.9,571.8,473.3,571.8,451.4z M668.9,449.3c0,9.7-4.2,17-8.7,21.5c-3.6,3.6-12,9-26.7,9c-2.9,0-6.3-0.3-9.5-0.5
		c-3.2-0.3-6.1-0.5-8-0.5c-0.9,0-2.6,0.1-4.5,0.1c-1.9,0.1-3.9,0.2-5.5,0.2c-1,0-1.5-0.3-1.5-0.8c0-0.4,0.3-0.8,1.3-0.8
		c1.2,0,2.1-0.1,2.8-0.3c1.6-0.4,2.1-1.8,2.3-4.1c0.4-3.3,0.4-9.3,0.4-16.4v-13.6c0-11.7,0-13.8-0.1-16.3c-0.2-2.6-0.9-3.4-3.4-4.2
		c-0.6-0.2-2-0.3-3.2-0.3c-0.8,0-1.4-0.3-1.4-0.8c0-0.5,0.6-0.7,1.8-0.7c4.2,0,9.2,0.2,11.5,0.2c2.4,0,8.1-0.2,12.9-0.2
		c10,0,23.3,0,32,8.8C665.4,433.7,668.9,440.1,668.9,449.3z M657.5,451.4c0-9.8-3.9-16.1-7.4-19.2c-7.3-6.5-16-7.3-22.3-7.3
		c-1.6,0-4.2,0.2-4.9,0.5c-0.7,0.3-1,0.6-1,1.5c-0.1,2.6-0.1,9-0.1,15v9.7h0c0,8.1,0.1,14,0.2,15.6c0.1,1.9,0.3,4.6,0.9,5.4
		c1,1.5,4.2,3.1,10.4,3.1c7.2,0,12.6-1.3,17.4-5.2C655.9,466.3,657.5,459.4,657.5,451.4z"/>
	<g id="arrows">
		<path id="arrow-right" class="st3" d="M836.6,454.2c-41.1,0-82.3,0-123.6,0c0-2.5,0-4.9,0-7.7c41.2,2.4,82.3,4.9,123.5,7.3
			C836.6,454,836.6,454.1,836.6,454.2z"/>
		<path id="arrow-left" class="st3" d="M151.3,445.3c0,2.8,0,5.2,0,7.7c-41.6,0-83.2,0-124.7,0c0-0.1,0-0.2,0-0.3
			C68.1,450.2,109.6,447.8,151.3,445.3z"/>
	</g>
</g>
</svg>
