<?xml version="1.0" encoding="utf-8"?>
<!-- Generator: Adobe Illustrator 24.3.0, SVG Export Plug-In . SVG Version: 6.00 Build 0)  -->
<svg version="1.1" id="Layer_1" xmlns="http://www.w3.org/2000/svg" xmlns:xlink="http://www.w3.org/1999/xlink" x="0px" y="0px"
	 viewBox="0 0 864 864" style="enable-background:new 0 0 864 864;" xml:space="preserve">
<style type="text/css">
	.st0{fill:#0A0A0A;}
	.st1{fill:#080808;}
	.st2{fill:#0B0B0B;}
	.st3{fill:#070707;}
	.st4{fill:#DE2B28;}
	.st5{fill:#DE2A28;}
	.st6{fill:#E0352E;}
</style>
<path id="am" class="st0" d="M597.35,360.44c-0.59,1.07-0.95,1.66-1.26,2.28c-7.02,14.08-14.04,28.16-21.06,42.23
	c-0.44,0.88-0.89,1.75-1.44,2.56c-1.08,1.6-2.17,1.64-3.34,0.08c-0.73-0.97-1.37-2.04-1.92-3.13c-6.9-13.59-13.78-27.19-20.67-40.78
	c-0.27-0.54-0.54-1.07-1.17-1.61c-0.2,1.32-0.44,2.64-0.6,3.97c-1.47,11.57-2.92,23.14-4.37,34.71c-0.1,0.79-0.05,1.6-0.12,2.39
	c-0.15,1.81,0.82,2.76,2.44,3.13c1.31,0.3,2.67,0.39,3.99,0.69c0.58,0.13,1.09,0.55,1.63,0.84c-0.57,0.36-1.12,0.76-1.73,1.05
	c-0.25,0.12-0.61,0.03-0.91,0.03c-10.58-0.02-21.16-0.02-31.74-0.08c-2.83-0.01-5.66-0.15-8.49-0.3c-0.48-0.02-0.95-0.38-1.42-0.58
	c0.34-0.33,0.62-0.78,1.03-0.98c1.09-0.53,1.39-1.24,0.92-2.38c-2.49-6.18-4.92-12.39-7.45-18.56c-0.21-0.5-1.03-1.06-1.58-1.06
	c-7.45-0.07-14.9-0.07-22.34-0.01c-0.51,0-1.29,0.49-1.48,0.95c-1.98,4.67-3.87,9.38-5.75,14.1c-0.31,0.79-0.49,1.64-0.63,2.48
	c-0.58,3.29,0.17,4.25,3.49,4.46c0.55,0.03,1.15-0.11,1.65,0.06c0.54,0.18,1,0.62,1.49,0.95c-0.52,0.32-1.01,0.75-1.57,0.93
	c-0.5,0.16-1.1,0.02-1.65,0.02c-5.96,0-11.93-0.01-17.89-0.01c-0.92,0-1.87,0.14-2.76-0.02c-0.68-0.12-1.29-0.61-1.94-0.94
	c0.62-0.34,1.25-0.98,1.85-0.96c5.36,0.15,8.04-3.04,9.96-7.51c7.83-18.27,15.73-36.51,23.61-54.76c1.12-2.58,2.16-5.2,3.42-7.71
	c0.45-0.89,1.51-2.15,2.19-2.08c0.88,0.08,1.99,1.16,2.4,2.08c3.56,7.99,7,16.03,10.46,24.06c5.06,11.74,10.06,23.5,15.18,35.22
	c1.05,2.4,2.39,4.7,3.84,6.88c1.44,2.18,3.46,3.58,6.26,3.64c2.72,0.06,4.19-0.7,4.97-3.35c0.68-2.34,1.09-4.77,1.48-7.19
	c1.97-12.35,3.9-24.71,5.84-37.07c1.13-7.21,2.22-14.42,3.45-21.62c0.17-1,1.1-1.87,1.68-2.8c0.87,0.66,2.1,1.14,2.56,2.02
	c2.75,5.19,5.33,10.47,7.96,15.72c6.32,12.66,12.64,25.33,19.11,38.32c0.39-0.73,0.7-1.26,0.97-1.81
	c8.42-17.07,16.84-34.15,25.26-51.22c0.24-0.49,0.41-1.09,0.79-1.43c0.69-0.61,1.61-1.57,2.25-1.45c0.72,0.13,1.61,1.24,1.77,2.06
	c0.76,3.85,1.31,7.73,1.91,11.61c1.56,10.12,3.11,20.24,4.66,30.37c1.02,6.67,2.05,13.33,3.09,20c0.07,0.48,0.2,0.96,0.32,1.43
	c1.04,4.42,2.44,5.69,6.95,6.29c1.1,0.15,2.21,0.19,3.3,0.37c0.34,0.06,0.62,0.45,0.93,0.69c-0.25,0.3-0.45,0.75-0.76,0.86
	c-0.62,0.21-1.32,0.33-1.98,0.31c-6.95-0.22-13.9-0.47-20.85-0.73c-0.42-0.02-0.84-0.15-1.25-0.26c-1.02-0.28-1.28-0.98-0.35-1.48
	c1.21-0.65,1.23-1.63,1.11-2.66c-0.51-4.39-1.06-8.77-1.64-13.15c-1.16-8.82-2.35-17.64-3.53-26.45
	C597.74,363.11,597.59,362.08,597.35,360.44z M497.09,379.6c-3.38-8.75-6.64-17.19-10.04-26.01c-3.53,8.9-6.88,17.36-10.31,26.01
	C483.66,379.6,490.2,379.6,497.09,379.6z"/>
<path id="e_2_" class="st1" d="M185.26,373.09c0,3.64-0.01,7.39,0,11.13c0.02,4.24-0.01,8.48,0.13,12.72
	c0.11,3.34,1.63,5.29,4.89,6.02c5.46,1.23,10.98,1.17,16.45-0.04c3.18-0.7,4.46-3.19,5.16-6.08c0.12-0.47,0.1-1.01,0.32-1.42
	c0.28-0.52,0.73-0.95,1.11-1.42c0.28,0.56,0.85,1.15,0.8,1.68c-0.41,3.84-0.85,7.67-1.47,11.48c-0.29,1.81-1.86,2.12-3.42,2.09
	c-5.04-0.09-10.09-0.26-15.13-0.28c-9.1-0.05-18.2-0.02-27.3-0.02c-0.62,0-1.27,0.13-1.83-0.05c-0.48-0.16-0.85-0.67-1.27-1.03
	c0.4-0.3,0.76-0.69,1.21-0.87c0.38-0.15,0.85-0.06,1.28-0.1c4.1-0.36,5.25-1.48,5.48-5.62c0.21-3.8,0.38-7.62,0.39-11.42
	c0.04-14.76,0-29.52,0.01-44.28c0-4.8-0.88-6.66-7.1-7.14c-0.96-0.07-1.91-0.23-2.87-0.35c-0.02-0.28-0.04-0.56-0.05-0.84
	c0.87-0.16,1.73-0.46,2.6-0.45c8.31,0.02,16.62,0.11,24.92,0.15c5.29,0.02,10.59,0.08,15.88-0.06c1.99-0.05,3.96-0.6,6.3-0.98
	c-0.16,1.32-0.36,2.6-0.48,3.89c-0.27,3-0.47,6-0.79,9c-0.09,0.89-0.11,2.07-1.69,1.82c-0.16-1.04-0.3-2.06-0.46-3.06
	c-0.44-2.72-2.11-4.41-4.76-4.6c-5.7-0.41-11.42-0.57-17.13-0.75c-0.37-0.01-1.09,0.67-1.1,1.03c-0.02,7.99,0.03,15.98,0.08,23.97
	c0,0.05,0.07,0.1,0.26,0.37c2.03,0,4.23,0.04,6.42-0.01c4.06-0.09,8.11-0.24,12.17-0.34c1.68-0.04,3.09-0.59,4.25-1.86
	c0.28-0.3,0.81-0.37,1.23-0.55c0.14,0.44,0.42,0.89,0.39,1.32c-0.36,4.59-0.74,9.18-1.21,13.76c-0.05,0.47-0.66,0.89-1.02,1.33
	c-0.26-0.48-0.7-0.94-0.75-1.43c-0.46-5.13-1.89-6.58-7.03-6.66C195.27,373.03,190.43,373.09,185.26,373.09z"/>
<path id="e_1_" class="st1" d="M331.96,337.11c1.03-0.11,2.06-0.31,3.09-0.31c12.68,0.03,25.36,0.13,38.03,0.1
	c2.72-0.01,5.45-0.49,8.51-0.79c-0.13,1.09-0.32,2.37-0.44,3.65c-0.27,3-0.48,6-0.78,9c-0.09,0.9-0.09,2.07-1.69,1.86
	c-0.16-1.04-0.3-2.04-0.46-3.05c-0.43-2.72-2.1-4.43-4.74-4.62c-5.7-0.42-11.42-0.57-17.13-0.76c-0.38-0.01-1.12,0.65-1.12,1
	c-0.06,8.04-0.05,16.09-0.05,24.22c0.6,0.06,1.01,0.15,1.42,0.14c5.84-0.11,11.68-0.23,17.52-0.34c1.68-0.03,3.1-0.57,4.26-1.84
	c0.28-0.31,0.81-0.4,1.23-0.59c0.14,0.44,0.45,0.89,0.41,1.31c-0.25,2.87-0.6,5.74-0.86,8.61c-0.15,1.71-0.14,3.44-0.35,5.15
	c-0.06,0.49-0.65,0.91-0.99,1.36c-0.27-0.47-0.73-0.92-0.77-1.41c-0.48-5.22-1.87-6.6-7.19-6.68c-4.79-0.08-9.57-0.02-14.52-0.02
	c-0.02,0.08-0.15,0.43-0.15,0.77c0.01,7.56-0.04,15.13,0.09,22.69c0.06,3.87,1.63,5.81,5.41,6.57c5.04,1.01,10.14,0.92,15.21,0.01
	c3.6-0.65,5.17-3.14,5.95-6.43c0.23-0.98-0.13-2.45,1.37-2.56c0.21-0.01,0.86,1.97,0.79,2.99c-0.21,2.93-0.6,5.86-1.08,8.77
	c-0.46,2.75-1.28,3.39-4.12,3.35c-5.6-0.08-11.2-0.29-16.79-0.33c-7.75-0.06-15.49,0-23.24,0.01c-1.23,0-2.47,0.12-3.69-0.02
	c-0.52-0.06-0.99-0.65-1.48-1.01c0.45-0.31,0.9-0.63,1.36-0.93c0.09-0.06,0.24-0.01,0.36-0.02c5.11-0.39,6.2-1.32,6.25-6.37
	c0.19-18.75,0.28-37.51,0.34-56.26c0.01-3.96-2.05-5.62-6.65-5.87c-1.09-0.06-2.17-0.2-3.25-0.3
	C331.98,337.8,331.97,337.45,331.96,337.11z"/>
<path id="e" class="st2" d="M652.09,373.09c0,3.56-0.01,7.24,0,10.92c0.02,4.3-0.01,8.61,0.12,12.91c0.1,3.36,1.63,5.3,4.87,6.05
	c5.21,1.21,10.48,1.06,15.74,0.16c3.6-0.62,5.18-3.14,5.95-6.42c0.23-0.98-0.13-2.45,1.37-2.56c0.21-0.01,0.86,1.97,0.78,2.99
	c-0.21,2.93-0.6,5.86-1.08,8.77c-0.46,2.76-1.27,3.39-4.13,3.35c-5.78-0.08-11.56-0.3-17.35-0.34c-7.5-0.06-15,0-22.5,0.01
	c-1.29,0-2.6,0.12-3.87-0.02c-0.52-0.06-0.98-0.66-1.47-1.01c0.45-0.31,0.9-0.63,1.37-0.92c0.09-0.06,0.24-0.01,0.36-0.02
	c5.1-0.38,6.19-1.31,6.24-6.38c0.19-18.75,0.28-37.51,0.34-56.26c0.01-3.95-2.05-5.63-6.66-5.86c-1.09-0.06-2.18-0.2-3.27-0.3
	c-0.02-0.3-0.03-0.6-0.05-0.9c0.92-0.16,1.84-0.45,2.76-0.45c5.72,0.01,11.45,0.1,17.17,0.12c7.38,0.03,14.77,0.08,22.15-0.03
	c2.42-0.03,4.83-0.53,7.59-0.85c-0.14,1.16-0.33,2.44-0.45,3.72c-0.27,3-0.48,6-0.78,9c-0.09,0.89-0.09,2.07-1.69,1.85
	c-0.16-1.04-0.3-2.05-0.46-3.06c-0.43-2.72-2.1-4.42-4.74-4.62c-5.7-0.42-11.42-0.57-17.13-0.76c-0.38-0.01-1.11,0.65-1.12,1.01
	c-0.06,8.04-0.05,16.08-0.05,24.22c0.61,0.06,1.02,0.15,1.43,0.14c5.9-0.11,11.81-0.13,17.7-0.44c1.38-0.07,2.71-1.15,4.06-1.76
	c0.42-0.19,0.83-0.38,1.25-0.57c0.14,0.44,0.44,0.89,0.41,1.31c-0.36,4.59-0.74,9.18-1.21,13.76c-0.05,0.48-0.65,0.9-1,1.35
	c-0.26-0.47-0.72-0.92-0.77-1.41c-0.47-5.22-1.86-6.58-7.2-6.68C661.99,373.02,657.21,373.09,652.09,373.09z"/>
<path id="s_2_" class="st2" d="M691.87,398.64c0.15-2.27,0.27-4.98,0.55-7.66c0.06-0.59,0.67-1.13,1.02-1.69
	c0.32,0.55,0.87,1.07,0.94,1.66c1.45,11.66,13.5,17.92,24.07,12.48c6.65-3.43,8.61-12.41,3.72-18.06c-1.77-2.05-4.08-3.71-6.34-5.25
	c-4.25-2.9-8.79-5.39-12.94-8.41c-4.64-3.38-7.77-7.84-8.7-13.76c-1.45-9.24,3.59-16.08,10.85-19.53c4.29-2.04,8.86-3.06,13.55-2.89
	c4.52,0.17,9.02,0.9,13.53,1.37c1.58,0.17,2.14,0.94,2.02,2.59c-0.23,3.18-0.23,6.38-0.33,9.58c-0.02,0.55,0.1,1.16-0.08,1.65
	c-0.26,0.68-0.74,1.28-1.13,1.91c-0.34-0.63-0.88-1.23-0.97-1.89c-0.57-4.08-2.63-7.21-6.32-8.9c-5.47-2.51-11.03-2.29-16.23,0.81
	c-5.32,3.17-6.33,10.19-1.95,14.55c2.35,2.34,5.26,4.2,8.13,5.93c4.72,2.86,9.66,5.34,13.71,9.2c7.47,7.11,9.36,18.31,4.21,26.52
	c-4.11,6.54-10.14,10.1-17.88,10.83c-5.8,0.55-11.54,0.33-17.25-0.77c-6.16-1.19-6.5-1.65-6.31-7.8
	C691.77,400.41,691.81,399.74,691.87,398.64z"/>
<path id="s_1_" class="st1" d="M225.01,399.17c0.18-2.7,0.29-5.4,0.58-8.09c0.07-0.63,0.72-1.2,1.1-1.8c0.3,0.57,0.8,1.12,0.88,1.73
	c1.45,11.64,13.87,17.95,24.3,12.31c6.4-3.47,8.27-12.34,3.54-17.88c-1.76-2.06-4.05-3.74-6.31-5.29c-4.3-2.94-8.9-5.45-13.1-8.51
	c-4.69-3.43-7.88-7.96-8.66-13.98c-1.01-7.71,1.86-13.55,8.22-17.77c4.58-3.03,9.78-4.41,15.18-4.35c4.88,0.06,9.76,0.86,14.64,1.35
	c1.48,0.15,2.07,0.88,1.95,2.46c-0.22,3-0.24,6.02-0.33,9.02c-0.02,0.55,0.14,1.16-0.04,1.65c-0.32,0.9-0.82,1.73-1.25,2.59
	c-0.32-0.78-0.78-1.54-0.94-2.35c-0.73-3.8-2.69-6.81-6.19-8.41c-5.6-2.57-11.25-2.38-16.53,0.92c-5.09,3.18-6.08,10.09-1.81,14.3
	c2.53,2.5,5.66,4.47,8.74,6.33c4.57,2.76,9.32,5.21,13.23,8.94c7.72,7.38,9.36,19.07,3.63,27.31c-4.24,6.09-10.15,9.39-17.61,10.01
	c-6.05,0.5-12.04,0.37-17.95-1.05c-5.45-1.31-5.5-1.47-5.37-7.07c0.02-0.8,0-1.6,0-2.39C224.94,399.17,224.97,399.17,225.01,399.17z
	"/>
<path id="s" class="st1" d="M281.15,399.08c0.18-2.7,0.3-5.4,0.58-8.09c0.06-0.6,0.66-1.14,1.01-1.71c0.33,0.54,0.88,1.06,0.96,1.64
	c1.46,11.68,13.48,17.94,24.06,12.51c6.65-3.42,8.63-12.4,3.74-18.06c-1.77-2.05-4.08-3.71-6.34-5.26
	c-4.25-2.9-8.79-5.39-12.95-8.41c-5.54-4.02-8.85-9.47-8.96-16.51c-0.1-6.72,2.95-11.77,8.53-15.34c5.76-3.68,12.2-4.72,18.88-4.32
	c3.6,0.22,7.18,0.9,10.77,1.34c1.57,0.19,2.15,0.92,2.04,2.58c-0.23,3.25-0.23,6.51-0.34,9.76c-0.02,0.67,0.03,1.4-0.2,2
	c-0.21,0.53-0.76,0.92-1.17,1.38c-0.28-0.5-0.75-0.97-0.82-1.49c-0.63-5.25-3.67-8.91-8.87-10.26c-4.69-1.22-9.29-0.86-13.51,1.67
	c-5.48,3.28-6.55,10.32-2,14.79c2.33,2.28,5.19,4.1,8,5.8c4.72,2.85,9.66,5.34,13.72,9.2c7.76,7.38,9.44,18.99,3.73,27.29
	c-4.21,6.12-10.11,9.43-17.56,10.09c-5.99,0.53-11.92,0.37-17.78-0.96c-5.67-1.29-5.77-1.54-5.62-7.25
	C281.07,400.67,281.12,399.88,281.15,399.08z"/>
<path id="j_1_" class="st3" d="M124.17,337.05c0.98-0.2,1.71-0.48,2.44-0.48c9.17-0.03,18.33-0.03,27.5,0
	c0.67,0,1.34,0.29,2.01,0.44c0.04,0.22,0.08,0.45,0.12,0.67c-0.57,0.25-1.13,0.66-1.71,0.71c-5.86,0.5-6.81,1.38-6.8,7.21
	c0.01,16.48,0.22,32.96,0.11,49.44c-0.03,4.88-0.51,9.83-1.47,14.61c-1.38,6.89-5.93,11.95-11.38,16.03
	c-3.66,2.74-7.77,4.87-11.68,7.27c-0.21,0.13-0.44,0.3-0.66,0.29c-0.77-0.01-1.54-0.09-2.31-0.14c0.48-0.6,0.84-1.4,1.46-1.76
	c6.99-4.05,10.89-10.15,11.78-18.08c0.51-4.57,0.75-9.19,0.77-13.79c0.08-17.47,0.03-34.93,0.02-52.4c0-0.55-0.01-1.11-0.01-1.66
	c0.02-4.72-1.02-6.43-6.88-6.99C126.43,338.32,125.1,338.93,124.17,337.05z"/>
<path id="j" class="st0" d="M423.69,337.05c0.98-0.2,1.71-0.48,2.45-0.48c9.17-0.03,18.33-0.03,27.5,0c0.67,0,1.34,0.29,2.02,0.44
	c0.04,0.22,0.08,0.45,0.12,0.67c-0.57,0.25-1.13,0.66-1.71,0.71c-5.86,0.5-6.8,1.38-6.8,7.22c0.01,16.54,0.23,33.08,0.11,49.62
	c-0.03,4.82-0.52,9.7-1.48,14.42c-1.39,6.89-5.93,11.95-11.38,16.03c-3.66,2.74-7.77,4.87-11.68,7.27c-0.21,0.13-0.44,0.3-0.66,0.29
	c-0.77-0.01-1.54-0.09-2.31-0.14c0.48-0.6,0.85-1.39,1.47-1.76c7.04-4.1,10.95-10.25,11.8-18.26c0.48-4.51,0.74-9.07,0.76-13.61
	c0.08-17.47,0.03-34.93,0.02-52.4c0-0.55-0.01-1.11-0.01-1.66c0.02-4.73-1.03-6.44-6.87-6.99
	C425.95,338.33,424.63,338.92,423.69,337.05z"/>
<path id="m" class="st4" d="M307.51,476.02c-4.31,0-8.62,0-12.47,0c0-1.73,0.14-3.04-0.02-4.31c-0.81-6.39-1.7-12.77-2.57-19.15
	c-0.01-0.09-0.09-0.17-0.26-0.48c-4.14,8.21-8.21,16.3-12.55,24.92c-0.97-1.34-1.66-2.08-2.11-2.95
	c-3.31-6.42-6.58-12.87-9.86-19.31c-0.32-0.63-0.66-1.26-1.24-2.37c-0.59,4.5-1.12,8.46-1.62,12.43c-0.32,2.5-0.6,5-0.91,7.49
	c-0.28,2.23,0.09,2.72,2.3,3.02c0.55,0.07,1.09,0.24,1.64,0.36c-0.02,0.17-0.04,0.33-0.06,0.5c-4.06,0-8.11,0-12.17,0
	c-0.02-0.13-0.03-0.26-0.05-0.38c0.37-0.13,0.76-0.4,1.12-0.38c2.22,0.16,2.9-1.31,3.18-3.05c1.41-8.78,2.77-17.56,4.15-26.34
	c0.29-1.88,0.52-3.77,0.91-5.63c0.12-0.57,0.65-1.06,1-1.59c0.44,0.39,1.02,0.7,1.29,1.19c1.09,1.99,2.08,4.02,3.1,6.05
	c3.21,6.4,6.41,12.8,9.61,19.2c0.29,0.58,0.61,1.14,1.05,1.98c4.83-9.71,9.55-19.18,14.27-28.66c0.28,0.04,0.55,0.07,0.83,0.11
	c0.29,0.73,0.73,1.43,0.85,2.19c1.58,9.99,3.07,20,4.69,29.98c0.62,3.84,0.95,4,4.79,4.55c0.4,0.06,0.78,0.23,1.17,0.36
	C307.54,475.84,307.53,475.93,307.51,476.02z"/>
<path id="h" class="st5" d="M471.9,476.16c-5.49,0-10.98,0-16.47,0c-0.02-0.12-0.03-0.25-0.05-0.37c0.26-0.12,0.52-0.3,0.79-0.35
	c3.01-0.59,3.04-0.58,3.36-3.64c0.15-1.46,0.18-2.94,0.19-4.42c0.03-2.82,0.01-5.63,0.01-8.56c-6.63,0-13.12,0-19.69,0
	c0,4.07-0.01,8.16,0.01,12.25c0,0.61,0.11,1.22,0.16,1.84c0.12,1.52,0.89,2.35,2.46,2.41c0.93,0.04,1.85,0.18,2.77,0.27
	c-0.01,0.2-0.03,0.39-0.04,0.59c-5.45,0-10.89,0-16.34,0c-0.02-0.13-0.04-0.27-0.05-0.4c0.37-0.13,0.75-0.39,1.12-0.36
	c2,0.12,2.76-0.98,2.88-2.77c0.06-0.86,0.14-1.72,0.14-2.57c0.01-8.48,0.02-16.97,0.01-25.45c0-2.81-0.56-3.4-3.38-3.72
	c-0.52-0.06-1.03-0.18-1.55-0.28c0.01-0.15,0.02-0.3,0.03-0.45c5.3,0,10.6,0,15.9,0c0.02,0.13,0.05,0.26,0.07,0.39
	c-0.48,0.12-0.97,0.35-1.45,0.35c-1.95,0-2.8,1.08-2.82,2.88c-0.04,3.92-0.01,7.84-0.01,11.87c6.54,0,13.03,0,19.53,0
	c0-4.2,0.05-8.41-0.03-12.62c-0.03-1.42-1.2-1.86-2.44-2.04c-0.8-0.12-1.6-0.22-2.41-0.34c0.02-0.18,0.04-0.36,0.06-0.54
	c5.3,0,10.6,0,15.89,0c0.03,0.13,0.06,0.27,0.09,0.4c-0.46,0.13-0.91,0.31-1.38,0.39c-2.35,0.4-2.76,0.83-2.82,3.24
	c-0.06,2.58-0.04,5.16-0.04,7.75c0,6.03,0.01,12.05,0.03,18.08c0,0.92,0.08,1.84,0.15,2.76c0.14,1.76,1.05,2.65,2.88,2.62
	c0.82-0.01,1.63,0.19,2.45,0.3C471.92,475.81,471.91,475.98,471.9,476.16z"/>
<path id="d" class="st5" d="M555.69,475.67c0.61-0.1,1.22-0.29,1.83-0.27c1.23,0.03,1.83-0.58,1.97-1.72
	c0.14-1.16,0.33-2.32,0.33-3.48c0.03-8.49,0.03-16.98,0.03-25.46c0-2.95-0.52-3.51-3.44-3.86c-0.51-0.06-1.02-0.19-1.53-0.74
	c0.43-0.09,0.86-0.25,1.28-0.24c7.75,0.1,15.51,0.03,23.24,0.4c8.7,0.42,14.98,5.7,16.6,13.4c2.29,10.94-4.22,20.83-15.29,22.67
	c-3.89,0.65-7.94,0.41-11.92,0.41c-3.81,0-7.61-0.22-11.42-0.37c-0.56-0.02-1.12-0.12-1.68-0.19
	C555.7,476.04,555.69,475.85,555.69,475.67z M566.56,456.84c0.09,0,0.18,0,0.28,0c0,4.66,0.03,9.33-0.01,13.99
	c-0.02,1.99,1.15,3.05,2.83,3.28c2.47,0.34,5.01,0.54,7.5,0.39c5.61-0.35,9.98-3.86,11.35-8.95c0.41-1.53,0.65-3.13,0.72-4.72
	c0.26-6.13-1.1-11.61-6.58-15.27c-4.47-2.99-9.49-3.44-14.66-3.04c-1.18,0.09-1.43,0.91-1.42,1.96
	C566.58,448.6,566.56,452.72,566.56,456.84z"/>
<path id="d_1_" class="st5" d="M555.69,475.77c0.61-0.1,1.22-0.29,1.83-0.27c1.23,0.03,1.83-0.58,1.97-1.72
	c0.14-1.16,0.33-2.32,0.33-3.48c0.03-8.49,0.03-16.98,0.03-25.46c0-2.95-0.52-3.51-3.44-3.86c-0.51-0.06-1.02-0.19-1.53-0.74
	c0.43-0.09,0.86-0.25,1.28-0.24c7.75,0.1,15.51,0.03,23.24,0.4c8.7,0.42,14.98,5.7,16.6,13.4c2.29,10.94-4.22,20.83-15.29,22.67
	c-3.89,0.65-7.94,0.41-11.92,0.41c-3.81,0-7.61-0.22-11.42-0.37c-0.56-0.02-1.12-0.12-1.68-0.19
	C555.69,476.13,555.69,475.95,555.69,475.77z M566.56,456.93c0.09,0,0.18,0,0.28,0c0,4.66,0.03,9.33-0.01,13.99
	c-0.02,1.99,1.15,3.05,2.83,3.28c2.47,0.34,5.01,0.54,7.5,0.39c5.61-0.35,9.98-3.86,11.35-8.95c0.41-1.53,0.65-3.13,0.72-4.72
	c0.26-6.13-1.1-11.61-6.58-15.27c-4.47-2.99-9.49-3.44-14.66-3.04c-1.18,0.09-1.43,0.91-1.42,1.96
	C566.58,448.7,566.56,452.82,566.56,456.93z"/>
<path id="o" class="st5" d="M534.41,457.37c-0.01,10.35-7.07,18.23-17.36,19.51c-6.21,0.77-12.11,0.01-17.08-4
	c-6.06-4.89-8.15-11.47-6.47-18.96c1.69-7.5,6.65-12.13,14.09-14c4.43-1.12,8.91-1.02,13.33,0.08
	C529.5,442.12,534.42,448.5,534.41,457.37z M527.19,459.31c-0.12-4.64-1.13-8.95-4.11-12.57c-3.41-4.16-7.91-5.69-13.16-4.79
	c-5.09,0.87-7.94,4.25-8.93,9.09c-0.52,2.55-0.72,5.27-0.5,7.86c0.53,6.17,2.87,11.45,8.82,14.31c7.62,3.67,14.92,0.25,16.97-7.92
	C526.78,463.34,526.9,461.3,527.19,459.31z"/>
<path id="e_3_" class="st5" d="M352.18,439.5c-0.26,2.42-0.54,4.91-0.82,7.51c-0.39-0.17-0.49-0.19-0.49-0.22
	c-0.22-3.67-2.76-4.15-5.67-4.14c-2.08,0.01-4.16,0-6.39,0c0,4.27,0,8.53,0,13.1c4.11-0.4,8.35,0.91,12.57-1.44
	c-0.25,2.76-0.49,5.46-0.77,8.53c-0.43-0.5-0.61-0.62-0.65-0.77c-0.92-3.38-1.17-3.61-4.74-3.68c-2.09-0.04-4.18-0.01-6.56-0.01
	c0,2.39,0,4.76,0,7.13c0,1.54-0.05,3.08,0.02,4.61c0.1,2.26,1.14,3.48,3.34,3.66c2.01,0.16,4.05,0.19,6.06,0.06
	c2.82-0.19,3.46-0.85,4.25-3.68c0.11-0.39,0.33-0.74,0.7-1.07c0.57,2.43,0.2,4.78-0.68,7.03c-0.16,0.41-1.29,0.63-1.96,0.62
	c-4.49-0.06-8.98-0.24-13.47-0.3c-2.46-0.03-4.92,0.1-7.38,0.12c-0.59,0-1.18-0.16-1.78-0.25c0-0.2-0.01-0.4-0.01-0.6
	c0.54-0.11,1.08-0.33,1.61-0.3c1.48,0.08,2.17-0.61,2.28-2.02c0.09-1.1,0.28-2.2,0.28-3.3c0.03-8.49,0.03-16.97,0.02-25.46
	c0-2.84-0.55-3.42-3.34-3.76c-0.55-0.07-1.09-0.22-1.64-0.33c0.01-0.19,0.02-0.39,0.03-0.58c0.61-0.04,1.22-0.12,1.83-0.12
	c5.78,0.01,11.57,0.06,17.35,0.03C348.13,439.88,350.06,439.65,352.18,439.5z"/>
<path id="t" class="st5" d="M387.62,442.9c-2.97,0-5.8-0.04-8.63,0.01c-2.13,0.04-3.84,0.8-4.53,3.03
	c-0.05,0.17-0.17,0.33-0.29,0.45c-0.07,0.08-0.22,0.09-0.87,0.34c0.49-2.71,0.93-5.12,1.31-7.19c11.22,0.64,22.06,0.23,32.86,0.29
	c0,2.24,0,4.69,0,7.54c-0.47-0.53-0.7-0.67-0.76-0.87c-0.85-2.73-1.82-3.52-4.86-3.63c-2.39-0.08-4.79-0.02-7.32-0.02
	c-0.04,0.32-0.13,0.73-0.13,1.13c0,8.36,0.01,16.72,0.02,25.08c0,0.49-0.01,0.99,0.03,1.47c0.28,3.66,0.28,5.18,4.38,4.86
	c0.33-0.03,0.67,0.19,0.97,0.7c-5.42,0-10.85,0-16.27,0c-0.03-0.12-0.06-0.24-0.09-0.36c0.57-0.14,1.14-0.38,1.71-0.4
	c1.46-0.05,2.09-0.86,2.2-2.2c0.13-1.53,0.31-3.06,0.32-4.59c0.04-8.11,0.03-16.23,0.03-24.34
	C387.72,443.77,387.65,443.3,387.62,442.9z"/>
<path id="line.right" class="st6" d="M692.21,458.77c-3.25,0-6.49-0.01-9.74,0c-23.74,0.1-47.47,0.22-71.21,0.27
	c-0.98,0-2.87,0.87-2.88-0.76c-0.01-1.61,1.96-0.98,3.01-0.99c10.82-0.02,21.65-0.03,32.47,0.13c15.62,0.23,31.23,0.6,46.84,0.91
	c0.48,0.01,0.97,0,1.46,0C692.17,458.48,692.19,458.63,692.21,458.77z"/>
<path id="line.left" class="st6" d="M164.9,458.06c4.6,0,9.21,0.05,13.81-0.01c21.91-0.26,43.82-0.55,65.72-0.82
	c1.17-0.01,2.35-0.02,3.5,0.16c0.5,0.08,0.91,0.65,1.37,1c-0.47,0.23-0.95,0.66-1.42,0.67c-3.63,0.05-7.26,0.02-10.89,0.01
	c-23.39-0.11-46.78-0.22-70.16-0.33c-0.61,0-1.21,0-1.82,0C164.96,458.51,164.93,458.28,164.9,458.06z"/>
<g>
</g>
<g>
</g>
<g>
</g>
<g>
</g>
<g>
</g>
<g>
</g>
</svg>
