<?xml version="1.0" encoding="utf-8"?>
<!-- Generator: Adobe Illustrator 24.3.0, SVG Export Plug-In . SVG Version: 6.00 Build 0)  -->
<svg version="1.1" id="Layer_2" xmlns="http://www.w3.org/2000/svg" xmlns:xlink="http://www.w3.org/1999/xlink" x="0px" y="0px"
	 viewBox="0 0 864 864" style="enable-background:new 0 0 864 864;" xml:space="preserve">
<style type="text/css">
	.st0{fill:#DA2528;}
</style>
<path id="combined-path" class="st0" d="M382.4,398.6c-17.2-0.1-34.3-0.3-51.5-0.4c-0.8,0-1.6-0.3-2.4-0.5c0-0.3-0.1-0.6-0.1-0.9
	c0.9-0.3,1.8-0.7,2.6-0.8c5-0.3,6.6-1.8,6.9-6.8c0.3-4.6,0.5-9.2,0.5-13.8c0.1-20.3,0-40.7,0-61c0-7.1-1.7-8.8-8.8-9.3
	c-0.6,0-1.3-0.1-1.8-0.3c-0.4-0.2-0.7-0.6-1-1c0.4-0.3,0.7-0.8,1.1-0.9c1.4-0.1,2.8-0.1,4.2-0.1c15,0.1,30.1,0.2,45.1,0.1
	c2.8,0,5.5-0.8,8.7-1.3c-1.5,6.6-0.5,13.4-2.5,19.9c-0.4,0-0.7,0-1.1,0c-0.1-0.7-0.4-1.4-0.4-2.1c-0.4-6-2.4-8.4-8.4-8.7
	c-6.2-0.4-12.5-0.1-19.1-0.1c0,10.7,0,21.8,0,33.6c8-0.3,16-0.4,24-1c1.7-0.1,3.2-1.9,4.8-2.9c1,2.1-0.8,20.3-2.4,22
	c-0.2-1.1-0.5-2-0.6-2.9c-0.6-6.1-2.2-7.8-8.3-8c-5.7-0.2-11.5,0-17.5,0c0,0-0.3,0.5-0.3,1c0,9.7-0.1,19.4,0.1,29.2
	c0.1,6.2,2.1,8.6,8.2,9.3c4.7,0.6,9.6,0.6,14.3,0.1c6.1-0.7,8-3.1,9.3-9.4c0.2-1,0.6-2.1,0.9-3.1c0.3,0,0.6,0,0.9,0
	c0.2,1,0.6,2.1,0.5,3c-0.4,4.4-0.7,8.8-1.3,13.2C386.8,397.9,385.8,398.6,382.4,398.6z M292.2,399.9c5.5-0.5,10.5-1.8,15-5.3
	c14.9-11.5,13.8-32.9,3.4-44c-4.8-5.1-10.6-8.7-16.3-12.5c-3.4-2.2-6.7-4.7-9.5-7.5c-3.8-3.7-4.5-8.5-3-13.5c2-6.8,9.6-10.7,18-9.7
	c7.2,0.9,12.8,6.6,13.4,13.6c0.1,1,0.4,1.9,0.6,2.9c0.4,0,0.8,0,1.2,0.1c0.3-1.4,0.8-2.7,0.8-4.1c0.2-4.7,0.2-9.4,0.4-14
	c0.1-1.6-0.4-2.6-2.1-2.8c-6.2-0.7-12.4-1.8-18.6-1.8c-3.8,0-7.9,1.1-11.5,2.7c-19.1,8.2-18.4,29.5-9.3,40.7
	c4.9,6,11.5,9.9,17.6,14.3c3.1,2.2,6.2,4.5,8.7,7.2c4.7,5.1,5.2,11.2,3,17.5c-2.1,6-6.8,8.9-12.9,9.9c-9.8,1.6-19-4.2-21.3-13.5
	c-0.5-1.9-0.4-3.8-0.8-5.7c-0.1-0.6-0.8-1.2-1.2-1.8c-0.4,0.5-0.9,1-1.2,1.5c-0.2,0.4-0.2,0.9-0.2,1.3c-0.2,5.6-0.3,11.3-0.6,16.9
	c-0.2,2.8,1.1,4.3,3.5,5.1C276.7,400.1,284.4,400.6,292.2,399.9z M225.9,399.9c5.5-0.5,10.5-1.9,15-5.3c14.9-11.5,14-33.1,3.2-43.9
	c-4.6-4.5-10.2-8-15.4-12c-3.5-2.7-7.3-5-10.4-8.1c-4.6-4.6-4.9-12.4-1.1-17.3c3.8-5,11.8-7.3,18.8-5.3c6,1.7,10.1,6.9,10.7,13.6
	c0.1,0.8,0.4,1.5,0.7,2.3c0.3,0,0.7,0,1,0.1c0.3-1.3,0.9-2.6,0.9-4c0.2-4.4,0-8.9,0.4-13.2c0.2-2.7-0.7-3.7-3.1-4.1
	c-7-1.3-13.9-2.1-21.1-1.2c-12.3,1.7-21.6,10.1-23.2,22.2c-1.3,10.1,2.3,18.7,10,25.2c4.8,4,10.2,7.3,15.1,11.1
	c2.8,2.1,5.7,4.3,7.9,7c6.9,8.5,3.3,22-6.6,25.6c-12.7,4.7-25.5-3.8-26.2-17.3c0-1-0.4-1.9-0.6-2.8c-0.4,0-0.8-0.1-1.1-0.1
	c-0.3,1-0.9,2-0.9,3.1c-0.3,5.5-0.5,10.9-0.6,16.4c-0.1,4,0.1,4.3,4,5.7C210.8,400.2,218.3,400.5,225.9,399.9z M127.7,305.2
	c6.7,0.4,8.6,2.3,8.6,9c0,17.4,0.1,34.8,0,52.2c0,7.6-0.2,15.2-0.6,22.8c-0.2,5-1.9,6.5-6.8,6.8c-0.9,0.1-1.8,0.6-2.6,0.9
	c0.1,0.3,0.1,0.7,0.2,1c1.1,0.1,2.2,0.3,3.3,0.3c5.6,0,11.1-0.1,16.7-0.1c11.2,0.1,22.5,0.3,33.7,0.5c2.7,0.1,4.5-1,4.8-3.7
	c0.5-4.6,1-9.3,1.4-13.9c0.1-0.8-0.4-1.7-0.6-2.5c-0.3,0-0.6,0-0.8,0c-0.3,1-0.7,2-0.9,3.1c-1.3,6.3-3.2,8.7-9.3,9.4
	c-4.7,0.5-9.6,0.5-14.3,0c-6.1-0.7-8-3.2-8.2-9.3c-0.2-5.9-0.1-11.8-0.1-17.8c0-4.2,0-8.4,0-12.4c6.3,0,12-0.1,17.8,0
	c6,0.2,7.7,1.9,8.3,8c0.1,0.9,0.3,1.7,0.5,2.9c1.6-1.6,3.4-19.8,2.5-21.9c-1.6,1-3.1,2.8-4.8,2.9c-8,0.6-16,0.7-24,1
	c0-11.8,0-22.9,0-33.6c6.6,0,13-0.3,19.3,0.1c5.9,0.4,7.8,2.8,8.1,8.7c0,0.7,0.3,1.4,0.4,2.1c0.4,0,0.7,0,1.1,0
	c1.9-6.5,1.1-13.3,2.3-19.7c-3.7,0.4-6.8,1.1-9.9,1.2c-15.5,0.1-31-0.1-46.4-0.1c-0.9,0-1.8,0.6-2.7,0.9c0.9,0.4,1.7,0.8,2.6,1.2
	C127.3,305.2,127.5,305.2,127.7,305.2z M107.7,386c-0.3-18.6-0.2-37.1-0.2-55.7c0-5.8,0.1-11.7,0.2-17.5c0.1-5.7,1.5-7.1,7.1-7.7
	c1-0.1,1.9-0.5,2.8-0.8c0-0.4,0-0.8,0-1.2c-1.1-0.2-2.2-0.5-3.3-0.5c-10.3,0-20.5,0-30.8,0c-0.7,0-1.5-0.1-2.1,0.1
	c-0.6,0.2-1,0.8-1.4,1.2c0.4,0.4,0.8,0.9,1.3,1c1,0.2,2.1,0.2,3.2,0.3c4.8,0.3,7,2.5,7.2,7.3c0,0.9,0,1.8,0,2.7
	c-0.2,28.6-0.2,57.2-0.6,85.9c-0.1,8.8-2.8,17.1-9.5,23.4c-1.7,1.6-3.6,2.8-5.4,4.3c-0.6,0.5-0.9,1.3-1.3,2c0.8,0.1,1.8,0.5,2.5,0.2
	c1.9-0.8,3.7-1.7,5.4-2.8C98.5,418.5,108,405.2,107.7,386z M754.7,397.6c7.2,2.4,14.5,2.9,21.9,2.4c5.8-0.4,11.2-1.8,16-5.5
	c14.7-11.6,13.8-33.2,2.8-43.9c-4.5-4.5-10.1-7.9-15.2-11.8c-3.4-2.6-7.1-5-10.2-7.9c-4-3.7-4.6-8.6-3.2-13.7
	c1.9-6.7,9.2-10.5,17.8-9.7c7.2,0.7,13,6.4,13.6,13.4c0.1,1,0.4,2.1,0.6,3.1c0.4,0,0.9,0,1.3,0c0.3-1.4,0.7-2.8,0.8-4.1
	c0.2-4.2-0.1-8.5,0.3-12.7c0.3-2.8-0.6-4-3.3-4.5c-6.8-1.2-13.6-2.1-20.5-1.1c-10.6,1.6-22,8.4-23.5,22.2
	c-1.1,10.1,2.3,18.7,10,25.2c4.8,4,10.2,7.3,15.1,11.1c2.8,2.1,5.7,4.3,7.9,7c7.2,8.9,3.1,22.7-7.5,25.9
	c-12.7,3.9-24.6-4.4-25.2-17.5c0-1-0.4-2-0.6-2.9c-0.3,0-0.7,0-1,0c-0.3,1-0.9,2-0.9,3c-0.3,5.6-0.3,11.1-0.7,16.7
	C750.7,395.2,752,396.7,754.7,397.6z M732.6,398.6c2.5,0,4.1-1,4.4-3.5c0.5-4.8,1-9.6,1.4-14.5c0.1-0.7-0.4-1.5-0.7-2.2
	c-0.3,0-0.6,0-0.8,0c-0.4,1.5-0.9,3.1-1.3,4.7c-0.9,4.4-3.4,7.3-7.9,7.6c-5,0.3-10.1,0.7-15,0.2c-6.2-0.6-8.2-3.2-8.4-9.4
	c-0.2-5.5-0.1-11-0.1-16.4c0-4.7,0-9.3,0-13.6c6.3,0,12.1-0.1,17.9,0c5.9,0.2,7.6,1.9,8.2,7.8c0.1,0.9,0.4,1.9,0.6,3.1
	c1.7-1.8,3.3-20.1,2.1-22.5c-1.8,3.4-5,4-8.2,4.1c-5,0.2-10.1,0.1-15.1,0.2c-1.7,0-3.5,0-5.2,0c0-11.5,0-22.6,0-34
	c6.7,0.3,13.3,0.3,19.7,0.9c5.8,0.6,7.4,2.8,7.8,8.7c0,0.7,0.3,1.4,0.5,2.1c0.3,0,0.7,0,1,0c1.9-6.5,1-13.3,2.4-19.7
	c-3.6,0.5-6.7,1.2-9.8,1.2c-14.8,0.1-29.5-0.1-44.3-0.1c-1.2,0-2.5,0-3.7,0.1c-0.5,0.1-0.9,0.6-1.3,0.9c0.4,0.3,0.8,0.8,1.3,1
	c0.5,0.2,1,0.2,1.6,0.2c7.1,0.5,8.8,2.2,8.8,9.3c0,20.2,0.1,40.3,0,60.5c0,4.8-0.3,9.5-0.5,14.3c-0.3,5-1.9,6.4-6.9,6.7
	c-0.9,0.1-1.7,0.5-2.6,0.8c0,0.4,0.1,0.7,0.1,1.1c1.2,0.1,2.3,0.3,3.5,0.3c11,0.1,21.9,0.2,32.9,0.3
	C720.7,398.5,726.7,398.5,732.6,398.6z M671.3,395.9c-7.2-1-8.4-2.2-9.9-7.3c-0.3-1-0.5-2.1-0.6-3.1c-1.3-9.4-2.6-18.9-3.9-28.3
	c-1.9-13.8-3.8-27.6-5.7-41.4c-0.6-4.4-1.2-8.9-2.1-13.3c-0.2-0.9-1.3-2.3-2.1-2.4c-0.8-0.1-1.8,1.1-2.5,1.9
	c-0.6,0.7-0.9,1.7-1.3,2.6c-8,18.2-16,36.4-24,54.6c-2.2,5-4.4,10-6.9,15.5c-5.8-13-11.4-25.5-17-38.1c-5-11.2-10-22.5-15.1-33.7
	c-0.5-1.2-2-2-3-2.9c-0.7,1.2-1.9,2.3-2.1,3.6c-1.4,9.1-2.7,18.3-4,27.5c-1.9,13.2-3.7,26.4-5.5,39.5c-1,6.7-1.8,13.5-3.2,20.1
	c-0.6,2.8-2.1,4.6-4.1,5.2c0.1,0.8,0.1,1.7,0.1,2.5c7,0.1,14,0.1,21,0.2c1,0,1.9-0.6,2.9-0.9c0-0.4-0.1-0.7-0.1-1.1
	c-1.9-0.4-3.8-0.7-5.7-1.1c-3.2-0.7-4.1-1.6-3.9-4.8c0.4-5.3,1-10.5,1.6-15.8c1.4-12.8,2.8-25.6,4.3-38.3c0.2,0,0.4,0,0.6,0
	c0.3,0.8,0.7,1.6,1,2.4c8.3,18.3,16.5,36.5,24.9,54.7c0.8,1.8,2.5,3.2,3.8,4.8c1.2-1.6,2.8-3,3.6-4.8c6.5-14.2,12.8-28.6,19.2-42.8
	c2.3-5.3,4.7-10.5,7.1-15.8c1,3.8,1.5,7.6,1.9,11.3c1.6,13,3.2,25.9,4.6,38.9c0.4,3.7,2.8,8-1.8,11.5c1.2,0.4,1.9,1,2.7,1
	c8.5,0.4,17,0.8,25.4,1c1.1,0,2.1-0.6,3.2-0.9c0-0.4,0-0.7-0.1-1.1C673.5,396.3,672.5,396.1,671.3,395.9z M556,398.4
	c-8.2-0.1-16.5-0.2-24.7-0.3c-0.7,0-1.4-0.3-2.1-0.5c0.1-0.5,0-0.8,0.1-0.8c3.1-1.3,2.6-3.3,1.7-5.9c-2.7-7.2-5.2-14.5-7.7-21.9
	c-0.6-1.6-1.3-2.3-3.2-2.3c-8.2,0.1-16.5,0.1-24.7,0c-1.7,0-2.5,0.4-3,2.1c-2.4,7.3-5.1,14.6-7.3,22c-1,3.5,0.6,5,4.3,5.2
	c1.3,0.1,3.5-0.8,3.5,1.2c0,2.2-2.3,1.3-3.6,1.3c-7.8,0.1-15.6,0-23.3,0c-0.7,0-1.5,0.1-2.1-0.1c-0.5-0.2-0.9-0.9-1.4-1.3
	c0.5-0.4,0.9-1.1,1.5-1.2c1.1-0.2,2.3,0,3.4-0.2c3.7-0.6,6.2-3,7.6-6.4c3.4-8.2,6.6-16.5,9.8-24.8c7.8-20.2,15.5-40.3,23.4-60.5
	c0.6-1.6,1.9-3.9,3.1-4c2.3-0.4,2.7,2.3,3.4,4.1c9.9,25.7,19.7,51.3,29.7,77c1.4,3.6,3.3,7,5.3,10.3c0.9,1.4,2.3,2.7,3.8,3.5
	c1,0.5,1.8,0.9,2.5,1.3C555.9,396.6,556,397.6,556,398.4z M519.7,359.7c-4-11.5-7.8-22.7-11.9-34.6c-4.2,11.9-8.2,23.1-12.2,34.6
	H519.7z M430.1,431.2c1.9-0.8,3.8-1.8,5.6-2.9c15.9-9.7,25.3-23.1,25-42.4c-0.3-18.6-0.2-37.1-0.2-55.7c0-6,0-12,0.2-18
	c0.2-5,1.7-6.5,6.7-7c1.1-0.1,2.2-0.5,3.3-0.8c0-0.4,0-0.8,0-1.2c-1.2-0.2-2.3-0.6-3.5-0.6c-10.2-0.1-20.3-0.1-30.5,0
	c-1.2,0-2.5,0.7-3.7,1.1c1.2,0.5,2.3,1.3,3.5,1.4c6.1,0.4,8.1,2.4,8.2,8.6c0,8.7,0.1,17.5,0,26.2c-0.1,20.4-0.2,40.8-0.6,61.2
	c-0.2,8.9-2.9,17.2-9.7,23.6c-1.7,1.5-3.7,2.7-5.4,4.2c-0.5,0.4-0.6,1.3-0.9,1.9C428.7,431,429.6,431.4,430.1,431.2z M609.7,488.9
	c-4.5-0.7-5.1-1.1-5.7-5.8c-2-13.7-3.8-27.4-5.8-41.1c-0.2-1.6-0.8-3.2-1.1-4.8c-0.4,0-0.9-0.1-1.3-0.1c-6,13.3-11.9,26.7-18,40.4
	c-6.2-13.7-12.3-27-18.3-40.4c-0.4,0.1-0.7,0.1-1.1,0.2c-0.3,0.9-0.8,1.8-1,2.8c-2.1,14.7-4.3,29.5-6.3,44.2c-0.4,2.7-1,4.9-4.4,4.7
	c-0.3,0-0.7,0.4-1,0.6c0,0.2,0.1,0.3,0.1,0.5c5.1,0,10.2,0,15.3,0c-0.4-0.8-0.9-1.1-1.4-1.2c-3.7-0.7-3.8-0.8-3.4-4.4
	c0.8-7.2,1.5-14.4,2.3-21.6c0.2-1.8,0.5-3.6,0.9-6.2c5.5,11.8,9.8,23.3,16,33.8c0.3,0,0.7,0,1-0.1c5.1-11.3,10.3-22.6,15.4-33.9
	c1.3,7.1,2.4,14,3,21c0.3,4,2.1,8,0,12.5c5.7,0,11.1,0,16.5,0C610.8,489.2,610.3,489,609.7,488.9z M465.3,466.6
	c-0.9,10.8-5.8,19.1-16.6,22.9c-5.2,1.8-10.4,2.2-15.9,1.7c-5.2-0.5-10.4-0.6-15.6-0.8c-1.1-0.1-2.1-0.1-3.2-0.2
	c0-0.2,0-0.4-0.1-0.6c0.5-0.2,1-0.6,1.5-0.6c2.7,0.4,3.4-1.4,3.6-3.5c0.2-1.8,0.2-3.5,0.2-5.3c0-11.3,0-22.6,0-33.9
	c0-5-0.2-5.3-5.2-6.1c-0.4-0.1-0.8-0.2-1.1-0.4c0-0.2,0-0.3,0-0.5c0.6-0.1,1.2-0.4,1.9-0.3c9.4,0.1,18.7-0.1,28.1,0.5
	C460.3,440.6,466.4,453.7,465.3,466.6z M449.5,448.2c-5.3-4.9-11.8-6-18.7-5.7c-2.2,0.1-3.1,0.8-3,3.2c0.1,5.8,0,11.7,0,17.5
	c0,0,0,0,0,0c0,5.7,0,11.5,0,17.2c0,0.3,0,0.5,0,0.8c0.2,4,1,5.4,4.6,6.1c6.2,1.2,12.3,0.9,17.6-3.4c4.4-3.5,5.7-8.4,6.1-13.6
	C456.8,462.2,456,454.3,449.5,448.2z M263.4,489.2c0.1,0,0.1,0.1,0.1,0.2c-1.5,1.3-15.3,1.5-19.1,0.1c2.2-0.9,1.9-2.3,1.3-4.1
	c-1.7-4.7-3.3-9.4-4.8-14.2c-0.5-1.4-1.2-2-2.6-1.9c-4.4,0.1-8.8-0.1-13.3,0.1c-0.8,0-2.1,0.9-2.4,1.7c-1.5,4-2.9,8.1-4.1,12.2
	c-1.3,4.4-0.9,4.9,3.5,5.7c0.3,0.1,0.6,0.3,0.8,0.5c0,0.2-0.1,0.4-0.1,0.5c-6.2,0-12.3,0-18.5,0c0-0.2,0-0.4-0.1-0.5
	c0.4-0.2,0.7-0.5,1.1-0.5c4.8,0.2,6.6-2.9,7.9-6.7c5.8-16,11.6-32,17.5-48c0.7-2,1.6-4,2.4-6c0.3,0,0.5,0,0.8,0c0.5,1,1.2,2,1.6,3.1
	c5.8,15.8,11.6,31.7,17.4,47.5c0.5,1.4,1.1,2.8,1.7,4.2c1.5,3.5,3.5,6.4,8,6C262.9,488.9,263.2,489.1,263.4,489.2z M238.9,465.3
	c-2.3-6.9-4.5-13.7-6.8-20.4c-0.2,0-0.4,0-0.6,0c-2.3,6.8-4.6,13.5-6.9,20.4C229.6,465.3,234.1,465.3,238.9,465.3z M394.7,489.7
	c-5.5,1-10.9,0.7-15.9,0.4c0-1.6,0.3-3-0.1-4.2c-1.2-3.7-2.5-7.3-4-10.9c-0.3-0.7-1.3-1.5-2-1.5c-4.8-0.1-9.5-0.1-14.5-0.1
	c-1.3,3.7-2.8,7.3-4,10.9c-1.1,3.4-0.7,3.9,2.8,4.6c0.4,0.1,0.7,0.4,1,0.6c0,0.2-0.1,0.3-0.1,0.5c-5.4,0-10.9,0-16.3,0
	c0-0.2-0.1-0.4-0.1-0.6c0.6-0.2,1.1-0.6,1.7-0.6c3,0,4.5-1.8,5.4-4.2c3.7-9.3,7.3-18.6,11-27.9c2.2-5.6,4.3-11.1,6.5-16.7
	c0.4-1,1.1-1.9,2-3.5c1,2,1.7,3.2,2.2,4.5c5.1,13.3,10.3,26.5,15.4,39.8c0.6,1.5,1.3,2.9,2,4.3c1.1,2.3,2.6,3.9,5.5,3.8
	C393.8,488.8,394.2,489.2,394.7,489.7z M372.8,469.6c-2.2-6.2-4.2-12.1-6.5-18.7c-2.4,6.7-4.5,12.6-6.7,18.7
	C364.1,469.6,368.2,469.6,372.8,469.6z M323.8,477.7c-0.2,0.7-0.4,1.5-0.7,2.2c-1.1,3.2-3,5.8-6.5,6.7c-8.4,2.3-17-0.7-21.9-8
	c-5.7-8.7-5.8-18.1-2.4-27.6c1.9-5.3,5.9-8.7,11.6-9.2c3.6-0.3,7.4,0.1,11,0.8c4.8,1,7.5,4.3,7.8,9.4c0,0.4,0.4,0.8,0.7,1.6
	c0.4-0.8,0.7-1.3,0.7-1.8c0.2-3.6,0.4-7.2,0.4-10.8c0-0.5-0.9-1.2-1.5-1.4c-6.5-1.1-13-2.3-19.7-1.5c-10.8,1.4-18.2,7-21.2,17.5
	c-3.1,10.9-1.6,21.2,7.5,28.9c9.3,8,20.5,8,31.8,5.3c0.9-0.2,1.9-1.7,2.2-2.8c0.6-2.3,0.9-4.7,1.1-7c0.1-0.7-0.2-1.5-0.3-2.3
	C324.2,477.7,324,477.7,323.8,477.7z M521.7,482.7c-0.5,2.1-1.8,3.7-3.9,3.8c-3.1,0.2-6.3,0.2-9.5,0c-2-0.2-3.4-1.7-3.5-3.8
	c-0.1-5.9,0-11.8,0-17.7c3,0,5.7-0.1,8.4,0c4.2,0.2,4.7,0.7,5.5,4.7c0.1,0.4,0.3,0.7,0.5,1c0.2,0,0.3,0,0.5-0.1
	c0.3-3.8,0.6-7.6,1-11.6c-5.2,3.6-10.6,1.4-15.8,2.2c0-6.4,0-12.5,0-18.5c2.1,0,3.9,0,5.8,0c1,0,1.9,0.1,2.9,0.2
	c4.9,0.5,4.9,0.5,6.1,5.4c0.1,0.2,0.3,0.4,0.4,0.7c0.2,0,0.4-0.1,0.6-0.1c0.3-3.6,0.7-7.2,1-10.5c-3,0.2-5.8,0.5-8.7,0.5
	c-6.8,0.1-13.6,0-20.4,0c-0.9,0-1.8,0.1-2.7,0.1c0.4,0.8,0.9,1.1,1.4,1.2c4.6,0.8,4.9,1.2,4.9,5.8c0,11.3,0,22.6,0,33.9
	c0,1.9-0.1,3.7-0.2,5.6c-0.2,2.1-0.9,3.8-3.6,3.4c-0.5-0.1-1,0.4-1.5,0.6c0,0.3,0,0.6,0.1,0.9c1,0.1,2,0.2,3,0.2
	c2.9,0,5.8-0.3,8.7-0.2c5.6,0.1,11.1,0.4,16.7,0.4c0.9,0,2.6-0.4,2.7-1c0.7-3.2,1.1-6.4,1.5-9.6c-0.4-0.1-0.8-0.1-1.2-0.2
	C522.1,481,521.9,481.8,521.7,482.7z M659.7,445.3c-2,4.3-4.3,8.5-6.5,12.7c-0.9,1.8-2,3.6-3.1,5.7c-3.5-6.6-6.7-12.9-10.1-19.1
	c-1.1-2.1-2-3.9,1-5.4c-5.7,0-11.3,0-16.4,0c2,1.9,4.7,3.5,6.3,5.9c4.2,6.5,8,13.3,11.8,20c0.8,1.4,1.5,3.1,1.5,4.7
	c0.2,5.1,0.1,10.2,0,15.4c-0.1,2.1-0.9,3.8-3.5,3.7c-0.5,0-1.1,0.4-1.6,0.6c0.1,0.2,0.1,0.4,0.2,0.6c6.8,0,13.6,0,20.5,0
	c0-0.3,0-0.5,0-0.8c-0.7-0.1-1.5-0.3-2.2-0.4c-3.9-0.4-4.5-1-4.6-4.9c-0.1-4.1-0.3-8.3,0-12.4c0.2-2.6,0.7-5.5,1.9-7.8
	c2.9-5.7,6.3-11.2,9.4-16.8c2-3.5,4.4-6.4,8.7-7c0.1,0,0.1-0.3,0.1-0.6c-5,0-9.9,0-15.3,0C661.1,441.5,661.3,441.9,659.7,445.3z
	 M687,468c36.6,0,73,0,109.4,0c0-0.1,0-0.2,0-0.4c-36.5-2.2-72.9-4.3-109.4-6.5C687,463.7,687,465.8,687,468z M79.4,466.9
	c36.8,0,73.6,0,110.4,0c0-2.3,0-4.4,0-6.7c-37,2.2-73.7,4.4-110.4,6.5C79.4,466.7,79.4,466.8,79.4,466.9z"/>
</svg>
