<svg version="1" xmlns="http://www.w3.org/2000/svg" width="2896" height="2896" viewBox="0 0 2172.000000 2172.000000"><path d="M1087.5 33.6c-3.3 2.5-7.3 5.5-8.9 6.7-4.4 3.3-24.6 19.3-28.6 22.7-29.7 24.8-59.3 54.1-86 85-2.5 2.9-5.4 6.3-6.5 7.6-1.1 1.2-2.9 3.5-4 5s-2.6 3.3-3.3 4.1c-.7.7-4.2 5-7.7 9.5-3.6 4.6-6.8 8.7-7.3 9.3-.4.5-3.7 5-7.2 10-3.6 4.9-6.7 9.2-7 9.5-.3.3-1.9 2.5-3.5 5s-3.2 4.7-3.5 5c-.3.3-2.1 3-4 6s-3.7 5.7-4.1 6c-.3.3-1.9 2.7-3.5 5.3-1.6 2.7-3.8 6.3-4.9 8.1-10.4 16.9-19.5 32.5-25.7 44.1-6.8 12.9-22.2 44.1-23.3 47.5-.4 1.1-2.4 5.8-4.3 10-7.9 17.2-27.3 70.5-29.7 81.5-.2 1.1-1.6 5.8-3 10.5-1.5 4.7-2.8 9.6-3.1 11-.3 1.4-1.2 5-2 8-1.7 5.8-1.9 6.6-3.8 15.5-.1.5-.5 1.9-.9 3-.3 1.1-.8 3.6-1.1 5.5-.3 1.9-.8 4.6-1.2 6-.3 1.4-.7 3.4-.9 4.5-.2 1.1-.7 3.1-1 4.5-.3 1.4-.8 3.8-1.1 5.5-.3 1.6-1.1 6.4-1.9 10.5-1.8 9.8-5.1 31.2-5.9 39.5-.3 2.2-.7 5.6-1 7.5-.7 5.3-1.6 13.8-2.2 21-.2 3.6-.6 9-.9 12-2.2 27.4-2.2 78.4 0 107.5.8 10.4 1.6 20.1 2 23.5.2 1.9.6 6 .9 9 .3 3 .8 6.6 1 8 .2 1.4.8 5.2 1.1 8.5 1.1 8.4 1.2 9.5 1.9 14 2.9 18 6.8 38.1 10.7 55 1.1 4.9 2.7 11.9 3.5 15.5.8 3.6 1.9 7.8 2.4 9.5.5 1.6 3.1 10.2 5.6 19 2.6 8.8 6.7 21.6 9.1 28.5 2.4 6.9 4.5 13.2 4.7 14 1.1 3.8 10.1 26.9 13.7 34.7 1 2.4 1.9 4.5 1.9 4.9 0 .3 1.4 3.5 3 7.1 1.7 3.5 3 6.6 3 6.8 0 .2 3.8 8.3 8.4 18 4.7 9.6 8.4 17.7 8.3 17.9-.1.2.5 1.2 1.4 2.2.8 1.1 3 4.8 4.9 8.4 1.8 3.6 4.2 8 5.2 9.7 10.2 18.3 14.4 25.2 28.1 46.6l3.1 4.9.8-2.9c.4-1.5 1-4.8 1.4-7.3.3-2.5 1-6.3 1.7-8.5 1.3-4.8 1.1-4.2 2.1-8.5 1.4-5.9 7.5-22.1 11.9-31 15.5-31.9 39.2-58.8 68.2-77.5 3.3-2.1 6.2-4 6.4-4.1.3-.3-9.6-14.2-12.7-17.9-1.5-1.8-15.7-23.7-20.6-31.9-5.6-9.3-6.7-11.2-13.1-23.1-2.6-5-5.2-9.6-5.8-10.3-.5-.6-.6-1.2-.1-1.2s.5-.4-.1-.8c-1.1-.8-8.5-15.8-14.6-29.7-4.5-10.4-16.9-41.9-16.9-43.1 0-.6-.7-2.5-1.5-4-.8-1.6-1.5-3.6-1.5-4.5 0-.9-.3-1.9-.7-2.3-.5-.4-.8-1.1-.8-1.4-.1-.7-2.3-7.7-3.2-10.2-.3-.8-.7-2-.9-2.5-.1-.6-1.2-4.2-2.4-8-1.2-3.9-2.8-9.3-3.5-12-.7-2.8-2.5-9.5-4-15-1.4-5.5-2.8-10.7-3-11.5-.1-.8-1.3-5.6-2.5-10.5-1.2-5-2.3-10.1-2.5-11.5-.2-1.4-1.1-5.7-2-9.5-.9-3.9-1.7-8.1-1.9-9.5-.3-2.3-.8-4.9-2.1-12.3-.3-1.5-.7-3.9-1-5.5-1.5-8-1.8-9.9-2-12.2-.2-1.4-.6-4.3-.9-6.5-.5-3.7-1.2-8.6-2.1-16-.2-1.7-.7-5.7-1.1-9-.3-3.3-.8-7.4-1-9-.6-5.3-2-23.1-2.9-36.5-.3-4.1-.7-16.9-1-28.4-.3-11.6-.7-21.2-1-21.4-.2-.2 0-1.5.5-2.8.6-1.4.6-2.6-.1-2.9-.5-.4-.7-1-.5-1.4.3-.4.8-8.1 1.1-17.2.3-9 .8-18 1-19.9.2-1.9.6-7.2 1-11.7.3-4.6.8-9.3 1.1-10.5.3-1.3.7-4.6.9-7.5.2-2.9 1.1-9.2 2-14 .9-4.8 1.8-10.2 2-11.8.5-4.8 4.4-23.5 7.1-35 .3-1.1.7-3.1 1-4.5.3-1.4 1-4.1 1.6-6 .7-1.9 1.3-4.1 1.4-4.9.2-1.2 1.1-4.3 1.9-7.1.1-.3.7-2.5 1.4-5 3.9-13.9 14.9-44.9 21.3-60 .6-1.4 1.2-3 1.4-3.5.9-3.6 21.5-46.1 25.1-51.7 1.3-2.1 2-3.8 1.6-3.8-.5 0-.3-.4.3-.8.9-.6 8.2-12.9 9.3-15.7.2-.6.7-1.2 1-1.5.3-.3 1.5-2.1 2.5-4 6.3-11.4 41.8-62.1 48-68.6.6-.6 2.9-3.3 5.1-6 2.2-2.6 4.8-5.6 5.8-6.6.9-1 1.7-2 1.7-2.3 0-.3 1-1.6 2.3-2.9 1.2-1.3 4.9-5.4 8.2-9.2 7.7-8.8 39.6-40.8 50-50.1 4.4-3.9 9.8-8.7 12-10.7 5.5-4.9 4.2-4.5-3 1zM1098 245.4c0 .2.8 1 1.8 1.7 1.5 1.3 1.6 1.2.3-.4s-2.1-2.1-2.1-1.3zM1102.9 249.3c.7 1 1.8 1.7 2.3 1.7.5 0 1.5.6 2.3 1.2.7.7 2.5 2.2 4 3.3 30.4 22 74.6 62.9 94.5 87.5 1.9 2.4 4.2 5.1 5.1 5.9 3.7 3.8 23.3 29.8 30.7 40.7 26.4 39.5 43.7 76.2 58.2 123.9 2.1 6.9 5 19.6 8.4 36.5.3 1.3 1 5.4 2.2 14 .2 1.4.6 4.5.9 7 .3 2.5.7 6.3 1 8.5 2.7 22.8 2.4 60.4-.9 86-.2 1.6-.7 5.5-1 8.5-.4 3-1.9 11.1-3.2 18-1.4 6.9-2.8 13.6-3 15-.3 1.4-.7 3.2-1.1 4-.3.8-.8 2.6-1 4-.2 1.4-2 7.7-3.9 14-4.9 15.8-5.9 18.7-10 29.5-.4 1.1-.8 2.2-.9 2.5-.1.3-.9 2.2-1.8 4.4-.9 2.1-1.7 4.5-1.7 5.2 0 .8-.4 1.4-1 1.4-.5 0-1 .7-1 1.6 0 4.7-30.7 61.8-37.2 69.4-1 1.1-1.8 2.3-1.8 2.6 0 .5-4.6 7.4-7.3 10.9-.4.5-2.6 3.5-4.8 6.5-7 9.7-10.1 13.6-18.2 23.4-6.2 7.5-15.7 18.3-21.4 24.5l-4.1 4.4 3.6 2c3.5 1.8 5.5 3 14.4 8.8 2.1 1.3 3.8 2.7 3.8 3.1 0 .5.5.8 1 .8 1.3 0 11.5 8.3 19.5 15.9 26.7 25.4 46.3 60 54.1 95.6 1.6 6.9 3.4 18.5 3.4 21.2 0 1.8.3 3.3.8 3.3 1 0 4.2-3.8 4.2-5 0-.5.6-1.3 1.3-1.7.6-.4 3.2-3.7 5.7-7.3 9.6-14 12.5-18.2 13.5-19.8.6-.9 4.2-6.9 8.1-13.2 10.9-17.8 15.7-26.5 25.6-46.2 3.7-7.6 6.8-14 6.8-14.2 0-.3 1.8-4.4 4-9.1 2.2-4.7 4-8.9 4-9.3.1-.4.9-2.5 2-4.7s1.9-4.6 2-5.3c0-.7.4-2 1-3 .9-1.5 5.6-13.9 6.4-16.7.1-.6 2.2-7 4.5-14.4 2.4-7.3 4.4-13.9 4.5-14.5.2-.6.8-3.1 1.5-5.6.7-2.5 1.5-5.3 1.7-6.2.2-1 .6-2.6.8-3.6.3-.9 1.2-4.9 2.1-8.7.8-3.9 1.8-7.7 2.1-8.5.4-.8.8-2.9.9-4.5.2-1.7.6-4.4.9-6 .4-1.7 1.1-5.4 1.7-8.4 1.2-5.7 1.2-6 2.4-15.5.8-6.3 1.2-9.1 1.5-9.1.1 0 .3-1.8.5-4s.6-7.2 1-11c.4-3.9.9-9.5 1.2-12.5 1.4-16.3.6-76-1.2-89-.3-1.9-.7-6-1-9-.3-3-.7-6.4-.9-7.5-.2-1.1-.7-4.5-1.1-7.5-.4-3-.9-6.4-1.1-7.5-.2-1.1-.7-4-1-6.5-.3-2.5-.8-5.4-1.1-6.5-.3-1.1-.9-4.1-1.3-6.6-.5-2.5-1.5-7.5-2.4-11-.8-3.5-1.6-7.5-1.8-8.9-.2-1.4-.6-2.7-.9-3-.4-.3-1-2.2-1.3-4.3-.3-2.1-1.1-4.7-1.6-5.8-.6-1-.8-1.9-.6-1.9.3 0-.1-1.8-.9-4s-1.4-4.2-1.5-4.5c0-.3 0-.6-.1-.8 0-.1-.2-.9-.4-1.7-.8-4.1-10.9-33.7-11.9-34.9-.6-.8-.9-1.6-.8-1.8.4-.4-4.2-12.5-7.9-20.8-17.6-40.5-35.5-72.1-60.3-107-9.3-13.1-28.5-37.6-35.5-45.5-1.8-1.9-6.2-6.9-9.9-11-8.5-9.6-35.6-36.5-45.1-45-4.1-3.6-7.9-7-8.5-7.5-3.2-2.9-21.6-18.1-30.1-24.8-6.7-5.2-29.8-22-33.3-24.2-1-.6-3.7-2.4-6.1-4-2.4-1.7-5.1-3.5-6-4-.9-.6-4.8-3.1-8.8-5.7-4-2.6-8.7-5.5-10.5-6.4-3-1.6-3.2-1.6-1.9-.1zM1092.7 472.7c-.3.5-.8 3.7-1.1 7.3-.9 8.7-1.5 14-2.2 19.7-.3 2.7-.8 6.6-1 8.8-.2 2.2-.6 5.6-.8 7.5-.3 1.9-.8 6-1.1 9-.6 6.4-1.4 13-2.1 18-.3 1.9-.7 5.1-.9 7-1.6 14.4-2.1 18.6-3 25.7-.2 2.1-.7 6.6-1 9.9-.3 3.4-.8 7.2-1 8.5-.3 1.3-.7 4.6-1 7.4-1.1 9.9-1.6 15-2 17.5-.2 1.4-.7 5.3-1 8.8-.4 3.5-.8 7.3-1.1 8.5-.2 1.2-.7 5.1-.9 8.7-.2 3.6-.6 7.4-.8 8.5-.3 1.1-.8 4.7-1.1 8-.4 3.3-.9 7.3-1.2 9-.2 1.6-.6 5.7-.9 9-.2 3.3-.5 6-.6 6-.1 0-.3 1.3-.5 3-.2 1.6-.5 4.6-.8 6.5-.2 1.9-.7 6.2-1 9.5-.4 3.3-.9 8-1.2 10.5-.3 2.5-.8 5.8-1 7.5-.2 1.6-.6 5.2-.9 8-.4 4.9-1.1 10.6-2 17.5-.3 1.9-.7 6-1 9-.3 3-.8 6.6-1.1 8-.2 1.4-.7 5.4-.9 9-.3 3.6-.7 7.2-1 8-.2.8-.7 4.8-1 8.9-.4 4.1-.8 8.2-1 9-.2.9-.6 4.7-1 8.6-.4 3.8-.9 8.1-1.1 9.5-.2 1.4-.7 5-1 8-.4 3-.8 6.6-.9 8-1.5 12-1.9 15.9-1.9 18.7-.1 1.8-.3 3.3-.6 3.3s-.6 1.2-.6 2.7c-.2 3.8-1.3 14.2-1.8 17.3-.3 1.4-.8 5-1 8-.3 3-.9 8.2-1.2 11.4-.6 5.5-.5 5.9 1.2 5.2 2.2-.8 12.2-3.2 17.3-4.1 1.9-.3 3.7-.7 4-.9 1.6-1 18.3-2.1 32.1-2.1 16.7 0 25.4.7 36.4 3 9.1 1.9 8.7 2 8.2-1.8-.3-1.7-.7-5.9-1.1-9.2-.3-3.3-.8-7.4-1-9-.2-1.7-.6-5-.9-7.5-.3-2.5-1-8.6-1.6-13.5-.6-5-1.3-11-1.5-13.5-.2-2.5-.6-5.4-.9-6.6-.2-1.1-.7-5.4-1-9.5-.4-4.1-.8-8.6-1.1-9.9-.2-1.4-.6-4.5-.9-7-.3-2.5-.8-6.5-1-9-1.1-9-1.7-14.6-2.1-18.5-.2-2.2-.7-6-1-8.5-1-6.6-1.3-9.9-1.9-16-.3-3-.8-6.6-1-8-.2-1.4-.7-5.2-1-8.5-.4-3.3-.8-7.1-1-8.5-.3-1.4-.7-5.2-1-8.5-.9-8.8-1.5-14.4-2.2-19.5-.4-2.5-.8-6.1-.9-8-.2-1.9-.6-5.4-.9-7.8-.3-2.3-.8-6.1-1.1-8.5-.5-4-.7-6.2-2-18.2-.3-2.8-.7-6.1-.9-7.5-.2-1.4-.7-5-1-8-1.4-12.8-1.7-15.6-2.1-18-.2-1.4-.7-5-1-8-.3-3-.8-7.1-1.1-9-.3-1.9-.7-6.2-.9-9.5-.2-3.3-.5-6-.5-6-.3 0-1-4.5-1.5-10-.3-3.3-.8-7.8-1-10-.3-2.2-.8-5.8-1-8-1.1-9.9-1.6-14.2-2.1-17-.2-1.7-.7-5.4-.9-8.3-.2-2.9-.7-7-.9-9-.7-4.7-1.7-12.8-2.1-16.7-.1-1.7-.6-5.5-1-8.5s-.8-7.1-1-9c-.4-4.4-1.4-12.4-2.1-17-.3-1.9-.6-5-.7-6.8-.2-3.4-.3-3.7-1-2.5zM1087 917.3c-7.6 7.4-11.6 11.9-15 16.7-1.4 1.9-2.7 3.7-3 4-3.9 3.9-14.2 25.5-16.4 34.5-.2.5-.6 1.7-.9 2.5-.9 2.4-2.9 13.2-3.2 17.1-.1 2-.4 4-.7 4.5-.7 1.4-.2 22.2.7 27.9 1.7 11.3 2.4 14.1 5.7 24 3 9 9.2 21.8 12.7 26.4l1.9 2.4v-2.4c0-4.1 4.4-12 9.5-17l4.9-4.8-2.6-3.2c-7.1-8.4-13.8-26.6-17.3-46.9-.2-1.4-.6-8.6-.8-16.1-.3-12 .1-16.3 1.8-23.4.3-1.1 1.1-4.3 1.8-7 .6-2.8 1.7-6.1 2.4-7.5.7-1.4 2.3-4.8 3.6-7.5 1.3-2.8 2.7-5.2 3.2-5.3.4-.2.7-.8.7-1.4 0-.6 1.7-3.3 3.7-6.2 3.9-5.3 4.9-6.5 10.8-12.9 3.1-3.4 4-4.7 3.3-4.7-.2 0-3.2 2.9-6.8 6.3zM1105 947.9c0 .6.4 1.1.9 1.1 1.6 0 12.1 11.4 16.5 18 5 7.4 9.1 16.2 10.2 21.5 1.8 9.2 2.1 12.1 1.8 18.4-.3 8.9-1.9 15.8-5.4 23.7-2.9 6.4-9.2 16.2-13.1 20.3-2.1 2.2-2.1 2.4-.4 3.4 3 1.6 9.3 8.5 11.2 12 .9 1.8 2.1 5.2 2.8 7.6l1.1 4.5 4-6.5c4.1-6.5 9.4-17.2 9.4-18.9 0-.5.5-2.1 1.1-3.7.7-1.5 1.3-3.9 1.5-5.2.2-1.3.7-4.4 1.3-7 .5-2.5.9-8.2.9-12.7 0-7.1-.3-10.1-2.4-20.2-1.5-7.7-6.2-18.1-12-27.2-3.9-6.1-5.3-8-10.8-14-2.2-2.4-12.1-11.4-14.1-12.8-.6-.4-1.8-1.3-2.8-2.1-1.1-.9-1.7-1-1.7-.2zM1097.9 983.6c-.1 1-.3 2.8-.5 3.9-.1 1.1-.5 4.2-.8 7-.8 6.7-1.6 14.2-2.1 18.5-.3 1.9-.7 6-1 9-.3 3-.7 6.6-1 8-.2 1.4-.7 5-1 8-.3 3-.8 6.8-1.1 8.3-.6 3.9.1 4.6 3.8 3.8 1.8-.4 5.4-.4 7.9-.1 4.4.6 4.7.5 4.3-1.4-.2-1.2-.6-4.4-.9-7.1-.3-2.8-.8-6.8-1-9-.3-2.2-.7-6-1-8.5-.3-2.5-.7-5.9-1-7.5-.2-1.7-.7-6.2-1-10-.4-3.9-.9-7.7-1.1-8.5-.3-.8-.8-4.6-1-8.5-.5-6.7-1.3-9.8-1.5-5.9zM1094.3 1056.2c-1.9 3-4 11.5-3.6 14.6.7 4.7 2.6 8.2 3.8 6.8 1.2-1.3 1.2-2.3-.1-5.1-1.4-3.1-1.1-14 .5-15.9.7-.9 1.1-1.6.8-1.6-.3 0-.9.6-1.4 1.2zM1102.3 1063.1c1.7 2.8 1.6 8.1-.2 10.3-1 1.2-1 1.9.2 3.6 1.5 2.1 1.5 2.1 2.5-1.2.5-1.8 1-4.4 1-5.7.1-2.6-2.1-7.6-3.9-8.7-.6-.3-.4.4.4 1.7zM1097.3 1071c-.2 2.2.2 4 .7 4 .6 0 1-1.8 1-4 0-5.2-1.4-5.2-1.7 0zM1092.3 1082.2c-2.6 5.3-2.1 10.1 1.2 14.3 1.6 1.9 1.6 1.9.6-.2-1.4-2.9-1.4-7.9.1-10.2.8-1.3.9-2.6.2-4.1l-1-2.2-1.1 2.4zM1101.5 1083c-.4 1.4-.2 2.5.5 3 1.4.8 1.9 10.2.7 14-.4 1.4.2.7 1.3-1.5 2.4-4.7 2.3-13.6-.2-16.2-1.4-1.4-1.7-1.3-2.3.7zM1065.2 1085.5c-1.2 1.4-2.2 2.9-2.2 3.4s-.4 1.1-.9 1.3c-1.1.4-9.9 18.6-10.3 21.3-.2 1.1-.6 2.4-1 3-2.3 3.8-3.8 24.4-2.4 34 1.7 12.6 9.5 32.8 14.8 38.5 1 1 1.8 2.3 1.8 2.9 0 1.1 16 17.4 21.5 21.8 2.2 1.8 4.7 3.3 5.5 3.2 1 0 .8-.3-.5-.9-4.1-1.6-20.5-21-20.5-24.1 0-.5-.4-.9-.8-.9-1 0-3.8-7.3-6.3-16-2.7-9.6-2-26 1.5-35.7 3.6-9.9 8.4-18.2 15-25.7 2.7-3 3.3-4.6 1.7-4.6-3.2 0-13-13.8-13.2-18.6 0-1.1-.4-2.7-.7-3.7-.7-1.6-1-1.6-3 .8zM1097.4 1088.2c.8 5.8 1.6 6 1.6.5 0-2.7-.5-4.7-1.1-4.7-.7 0-.9 1.5-.5 4.2zM1127.5 1093.6c-2.8 5.7-7 10.6-11.4 13.4l-2.3 1.6 3.4 5.4c5.9 9.3 11.6 22.8 13.2 31.2.2 1.3.9 4.1 1.4 6.3 1.4 5.1 2.5 17 2.6 26 0 6.2-.4 10.4-1.7 19.5-.6 3.7-3.4 13.1-5.4 17.6-.9 2.1-1.6 4.2-1.5 4.6.1.5-.3.8-.8.8-.6 0-1 .6-1 1.3 0 1.5-9.2 15.6-13 20.1-1.4 1.6-4.5 4.9-7 7.4-5.5 5.5-.5 2 6-4.2 5.9-5.7 13.3-13.6 12.6-13.6-.4 0 .2-.8 1.2-1.8.9-1 2.4-2.9 3.2-4.2.8-1.2 2-2.8 2.5-3.4 2.6-2.8 12.9-25.1 13.9-29.9.2-.6.6-1.9.9-2.7 1.2-3.1 2.9-12 4.2-21.5.6-4.4.6-23.4 0-28-2-14.7-5.4-25.9-11.8-39.5-6.1-13.2-6-13-9.2-6.4zM901.8 1096.7c-2.4 3.2-4.5 6-4.8 6.3-.3.3-1.7 2.1-3 4s-2.7 3.7-3 4c-3.8 3.5-37.4 56.4-39.6 62.5-.4 1.1-1.1 2.2-1.5 2.5-.4.3-5 9.5-10.4 20.5-11.7 24.2-12.3 25.5-17 37.5-5.1 13-5.3 13.4-5.3 14 0 .3-1 3-2.2 6-1.2 3-2.4 6.2-2.6 7-.2.8-2.2 7.3-4.4 14.5-3.4 10.8-8.2 28-9.5 34.5-.2.8-.9 3.7-1.5 6.5-.6 2.7-1.4 5.9-1.6 7-.2 1.1-.6 3.1-.9 4.5-.3 1.4-1 5.2-1.5 8.5s-1.2 7.1-1.5 8.5c-.2 1.3-.7 4.2-1 6.5-.4 2.2-.8 5.3-1.1 7-.6 4.8-1.2 9.5-1.9 17-.4 3.8-.8 8.1-1.1 9.5-1.5 9.2-2.1 50.8-1 71.5 1 18 1.5 23.9 4.1 43.5.3 1.9.7 5.3 1 7.5.3 2.2.8 5.1 1 6.5.3 1.4 1.2 6.1 2 10.5s2.2 11.1 3 15c.9 3.8 1.8 8.1 2.1 9.5.3 1.4 1.6 6.8 3.1 12 1.4 5.2 2.6 9.9 2.7 10.5.2.5 1.3 4.4 2.6 8.5s2.5 7.9 2.6 8.5c.1.5 2.3 6.8 4.9 14 2.5 7.1 4.7 13.4 4.8 14 .2.5.5 1.5.9 2 .4.6 1.8 4.1 3.2 7.8 1.4 3.7 3.2 8.2 4 10 .8 1.7 3.3 7.1 5.5 12 2.2 4.8 4 8.9 4.1 9.2 0 .3 2.1 4.4 4.6 9.2 2.6 4.9 6.3 11.9 8.3 15.8 2 3.8 3.8 7.2 4.1 7.5.3.3 1.7 2.6 3 5.3 1.4 2.6 2.8 4.7 3.2 4.7.5 0 .8.5.8 1.2 0 1.6 12.9 21.8 24.4 38.2 4.5 6.4 14.6 20.2 15.8 21.6.7.8 4.2 5.1 7.8 9.6 15.8 19.8 33.9 39.5 53.2 57.9 12.5 12 21.5 20.1 27.4 25 2.6 2.2 5.8 4.9 7 6 2.9 2.6 5.1 4.3 9.9 8 2.2 1.6 4.6 3.6 5.5 4.5.9.8 2.7 2.3 4 3.3 1.4 1 7.2 5.3 13 9.5 14.4 10.7 23.8 17.2 24.9 17.2.5 0 1.1.4 1.3.8.2.5 3.7 3 7.8 5.6 4.1 2.7 8.7 5.7 10.2 6.7s3.2 1.9 3.8 1.9c.5 0 1 .4 1 .8 0 .8 1.4 1.6 6.3 4 .4.2.7-.2.7-.9s-.3-1-.6-.6c-.6.6-23.2-16.2-32.4-24-2.3-2-6.2-5.2-8.5-7.1-12.5-10-46.9-43.6-59.6-58.2-27-31.1-40.9-50.9-64.2-91.5-3.6-6.4-12.5-25.4-19.2-41-5-11.8-12-32.7-16.1-48.3-3.4-12.7-3.8-14.5-4.9-20.2-.3-1.4-.7-3.6-1-5-.3-1.4-.8-4.1-1.1-6-.3-1.9-.7-4.2-1-5.1-.3-.9-.7-3.9-1-6.5-.4-2.7-.7-5.6-.9-6.4-.3-1.9-1.4-11-2.1-18-.8-6.7-1.3-55.2-.7-56.3.3-.5.6-3.6.8-7 .4-6.7 1.3-16.1 1.9-19.4.3-1.1.7-4.4 1.1-7.4.8-5.9 4.9-27.1 6.5-33.4.6-2.2 1.2-4.7 1.4-5.5.2-.8.9-3.5 1.6-6 .7-2.5 1.2-4.5 1.1-4.5-.1 0 .9-3.2 2.2-7l2.5-7.5c.3-2.1 6.4-18.7 10.6-28.8 5.6-13.6 15.6-34.6 16.7-35 .5-.2.9-1 .9-1.7s2.3-5.2 5-10c2.8-4.8 5-9.1 5-9.6s.4-.9.8-.9c.5 0 1.7-1.8 2.7-4 1-2.2 2.2-4 2.7-4 .4 0 .8-.5.8-1 0-2 30.3-44.8 34-48 .3-.3 2.8-3.2 5.5-6.5 9.4-11.3 12.5-14.7 21.7-24.3 5.7-5.9 5.9-6.4 4.2-7.7-1.1-.8-2.5-1.5-3.2-1.5-.7 0-1.5-.7-1.8-1.5-.4-.8-1.1-1.5-1.8-1.5-1.6 0-19.4-13.5-25.8-19.6-6.7-6.4-15.4-15.8-19.3-20.7-1.7-2.1-4-5-5.3-6.5-1.2-1.5-2.5-3.5-2.8-4.5-.3-.9-.9-1.7-1.4-1.7-.5 0-1.2-.9-1.5-2-.3-1.1-1.2-2.6-1.8-3.3-.7-.7-2-2.8-3.1-4.7-1-1.9-3.1-5.8-4.7-8.7-3-5.4-11.6-25.8-12.2-29-.2-1-.7-2.5-1-3.3-.9-2.2-3.6-12.7-4.2-16.5-.4-2.6-1.3-7.4-2-10.5-.6-2.6-1.5-12.2-1.7-17.8-.1-1.7-.5-3.2-.9-3.2-.5 0-2.8 2.6-5.1 5.7zM1090.5 1115.2c.3 2.4.7 6.3 1 8.8.2 2.5.6 6.1.9 8 .2 1.9.7 6.2 1.1 9.5.4 3.3.9 7.6 1.1 9.5.3 1.9.7 5.1.9 7 .7 7.2 1.7 15.6 2 17.9.6 3.5 1.5 3.8 1.6.5.1-1.6.3-3.8.4-4.9.2-1.1.6-4.6.9-7.7.3-3.1.8-6.9 1-8.5.4-2.4 1-7.8 2.1-18.3.2-1.4.5-4.3.9-6.5.3-2.2.8-6.9 1.1-10.4.3-3.5.7-6.9.8-7.5.1-.6-.3-1-1-.9-2.9.6-7.1.5-11.1-.1l-4.3-.7.6 4.3zM1284 1124.4v2.1c0 .3-.7 2.1-1.4 4-.8 1.9-1.3 3.5-1.1 3.5.2 0-.8 3.3-2.1 7.2-1.4 4-2.7 7.7-2.8 8.3-.8 2.8-8.9 20.9-10.6 23.5-.5.8-2.2 3.9-3.7 6.7-1.5 2.9-3.1 5.3-3.5 5.3-.4 0-.8.4-.8 1 0 .9-6.5 10.6-8 12-.3.3-1.8 2.3-3.5 4.5-5.8 7.9-29.5 30.5-35.4 33.9-.9.5-2 1.5-2.4 2.3-.4.7-1.2 1.3-1.7 1.3-.6 0-3.6 1.8-6.7 4-3.2 2.2-6.4 4-7 4-.7 0-1.3.4-1.3.8s-1.4 1.3-3.1 1.9l-3 1.2 2.3 3.3c1.3 1.8 3 4 3.9 5 2.5 2.9 22 32.1 25.5 38.3.6 1.1 3.5 6 6.4 11 12.3 21.2 27.2 52.6 37.9 79.7.5 1.3 1.6 4.1 2.5 6.3 2 4.9 8.6 23.5 9.1 25.5.2.8 1.4 4.9 2.8 9 4.9 14.6 14.7 50.6 16.3 60 .3 1.4.7 3.2 1.1 4 .3.8.7 2.4.8 3.5.2 1.1 1.7 8.7 3.3 17 1.7 8.2 3.3 17 3.7 19.5 1.3 8.3 1.5 9.5 1.9 11.5.3 1.1.5 2 .6 2 0 0 .3 2 .5 4.5.3 2.5.6 5.4.9 6.5.2 1.2.7 4.8 1.1 8 .3 3.3.9 7.6 1.1 9.5.3 1.9.7 5.5.9 8 .2 2.5.7 6.9 1 9.7.3 2.9.7 7.7 1 10.5 3.4 32.4 3.9 96.9 1 125.3-.3 2.7-.7 7.5-1 10.5-.3 3-.7 6.6-1 8-.2 1.4-.7 4.7-1 7.5-.6 4.7-2 14.6-2.9 19-.2 1.1-.6 3.6-1 5.5-.9 4.9-1.4 7.7-2.6 13.5-.6 2.7-1.2 5.9-1.4 7-1.5 7.4-8.9 36.1-10.3 39.5-.3.8-.7 2.2-.8 3-.1.8-1.5 5.3-3.1 10-1.5 4.7-2.8 8.7-2.9 9-.2.7-.6 1.6-7 19-3.2 8.5-6.8 17.7-8 20.5-3.2 6.9-5.8 12.9-6 13.5-.7 2.6-13.3 27.9-14.7 29.7-.6.7-.7 1.3-.4 1.3.4 0-.5 1.7-1.9 3.7-1.4 2.1-2.5 4.1-2.5 4.4 0 2.2-34.3 57.8-36.9 59.9-.4.3-1.5 1.8-2.5 3.5-1.1 1.6-2.3 3.4-2.8 4-.4.5-5.6 7.3-11.4 15-9 11.8-21.5 27.2-27.4 33.6-.8.9-4.9 5.4-9 10-13.3 14.8-44.7 45.3-55.7 54.1-6 4.8-6.1 6.3-.1 2 5.2-3.8 33.9-26.2 34.8-27.2.3-.3 3.2-2.7 6.5-5.5 3.3-2.7 7.1-5.9 8.5-7.2 9.4-8.2 17-15.3 27.9-25.8 6.8-6.6 12.9-12.5 13.5-13.1.9-.9 12-12.8 23.9-25.6 1.5-1.7 4.6-5.3 7-8 2.3-2.8 5-6 6.1-7.2 1-1.1 3.5-4.1 5.5-6.6s4.4-5.2 5.3-6.1c1-.9 1.8-2.1 1.8-2.7 0-.6.4-1.2.8-1.4.4-.2 3-3.2 5.7-6.8 2.7-3.6 5.2-6.7 5.5-7 2.2-2.1 19.3-26.3 29.2-41.5 8.4-12.8 21.8-34.4 21.8-35.1 0-.2 1.4-2.7 3.2-5.6 4-6.8 10.9-19.5 15.1-27.8 1.7-3.6 3.6-6.8 4-7.1.5-.3.8-.9.8-1.3 0-.3 2.2-5.4 5-11.3 6.7-14.1 14.7-32.4 19.4-44.3 3.5-9.1 4.4-11.2 6.4-16.3.5-1.2 2.1-5.6 3.6-9.7s3.3-9.2 4.1-11.3c.8-2 1.1-3.7.8-3.7-.4 0-.2-.6.3-1.3.6-.6 1.3-2.1 1.6-3.2.3-1.1 1.7-5.8 3.2-10.5 5.9-18.9 14.2-50.5 17.4-66 .6-3 1.4-6.6 1.7-8 .3-1.4.7-3.9 1-5.5.2-1.7.7-4.1 1.1-5.5.8-3.4 1-4.2 1.8-9.2.9-5.8 1.1-7.2 2.5-15.3.7-3.9 1.3-8.8 1.5-11 .2-2.2.6-5 .9-6.2.2-1.2.7-4.8 1.1-8 .3-3.2.8-7.6 1-9.8 3-25.4 4-46.5 4-83.5-.1-32.7-.9-53.9-3-72-.3-3-.8-7.8-1-10.5-.7-7.3-1.4-13.6-2-17-.2-1.7-.7-4.6-1-6.5-3.1-20.7-7.1-44-8.1-47.2-.3-1-.7-3-1-4.5-.4-2.7-1.4-7.3-2.1-10.3-.2-.8-.6-2.4-.8-3.5-.2-1.1-.8-3.5-1.4-5.4-.6-1.9-.8-3.8-.5-4.2.3-.5 0-.9-.5-.9-.6 0-1-.3-.9-.8.3-1-.9-5.8-4.9-20.2-1.9-6.9-3.8-13.9-4.2-15.5-1.2-4.6-12-36.7-13.2-39-.6-1.2-1.1-2.7-1.3-3.5-.2-.8-.6-2.2-.9-3-.4-.8-1.6-4.2-2.8-7.5-1.2-3.3-2.5-6.4-3-7-.5-.5-.9-1.5-.9-2.2 0-1.4-10-24.9-16.2-38.3-12.2-26-26.8-53.2-41.4-77-5.1-8.3-7.4-10.7-7.4-7.6zM1042.5 1267c-.3.6-.4 1.8-.1 2.8.3.9.8 4.4 1.1 7.7.6 6.1 1.2 12.1 2 18.5s1.7 13.5 2 16.5c.2 1.6.6 5 .9 7.5.3 2.5.8 7.2 1.2 10.5.3 3.3.7 6.7.9 7.5.3 1.7 1.4 11.2 2.1 18 .3 2.5.7 5.8.9 7.5 1.1 9.3 1.9 17.3 2 19.7 0 1.6.2 2.8.5 2.8s.5 1.2.6 2.7c.1 2.5.8 9.6 1.9 17.8.2 1.6.7 5.7 1 9 .3 3.3.8 6.9 1 8 .2 1.1.7 4.7 1 8 .3 3.3.7 7.1 1 8.5.2 1.4.6 5.4.9 9 .4 3.6.8 7.5 1 8.7.3 1.2.7 5 1.1 8.5.3 3.5.8 7.9 1 9.8.7 5.1 1.6 13 2 17 .2 1.9.6 5.1.8 7 .3 1.9.8 6 1.2 9 .3 3 .8 7.3 1.1 9.5.5 4.4 1 9 1.8 17.5.3 3 .6 5.5.6 5.5.1 0 .3 1.6.5 3.5.3 1.9.7 5.5 1 8 .3 2.5.7 5.4.9 6.5.2 1.1.7 5.2 1 9 .4 3.9.8 8 1 9.2.3 1.2.8 5.4 1.1 9.4.4 4 .8 8.1 1 9 .2 1 .6 4.4 1 7.6.6 6.6 2.4 21.3 3 25.8.3 1.6.7 5.2 1 8 .3 2.7.7 6.8 1 9 .5 4.1 1.2 10.3 2.1 19 1.1 10.7 1.3 12 1.4 12 .2 0 .3 1 1.4 12 .7 7 1.5 9.5 1.8 5.9.2-2.9.6-6.4 1.4-12.4.4-3 .8-6.6.9-8 .2-1.4.4-2.5.5-2.5.1 0 .3-2.3.5-5 .4-5.3 1.1-11.3 2-17.8.4-2.1.8-6.2 1-9.1.2-2.8.5-5.1.6-5.1.1 0 .2-1.4.4-3 .2-2.9.8-7.8 2.1-17.5.3-2.5.7-6.3.9-8.5.2-2.2.6-5.9.9-8.3.3-2.3.8-6.1 1.1-8.5.3-2.3.7-5.8 1-7.7.2-1.9.7-6.2 1.1-9.5.3-3.3.7-7.1.9-8.5.1-1.4.5-5 .9-8s.9-7.8 1.3-10.5c.7-6.1 1-8.3 1.8-16 .3-3.3.8-7.1 1-8.5.3-1.4.8-5.2 1.1-8.5.8-8.3 1.2-11 1.3-11 .1 0 .4-2.5.6-5.5.7-7.7 1.3-13.9 2-18 .6-3.5.8-5.3 2.1-18 .3-3.6.8-7.4 1-8.5.2-1.1.7-4.9 1-8.5.2-3.6.7-7.6 1-9 .2-1.4.7-5 .9-8 .3-3 .7-6.4.9-7.5.3-1.1.8-5.4 1.2-9.5.4-4.1 1-8.5 1.5-9.8.5-1.4.5-2.2-.2-2.2-.6 0-.8-.4-.5-.8.6-1.1 1.3-5.1 2.1-12.2.5-5.1.7-7.2 2-17 .5-3.4 1-8.5 2.1-18 .5-4.6.8-7.2 1.8-15 .3-2.5.8-7 1.1-10 .3-3 .7-7.1 1-9 .5-3.5 1.5-12 2.1-17.5.1-1.7.5-5.3.9-8 .3-2.8.7-6.9 1-9.2.3-2.3.8-5.8 1.1-7.8l.5-3.6-3.7.5c-2 .4-4.6.8-5.8 1.1-9.8 2.2-19 3-35.6 3-17.1 0-28.5-1.1-39.1-3.6-2.6-.6-5.3-1.2-6-1.3-.8-.2-2.1-.6-2.9-.9-3.5-1.3-6.9-1.6-7.5-.7z"/></svg>