<?xml version="1.0" encoding="utf-8"?>
<!-- Generator: Adobe Illustrator 24.3.0, SVG Export Plug-In . SVG Version: 6.00 Build 0)  -->
<svg version="1.1" id="turning-stone-2-logo" xmlns="http://www.w3.org/2000/svg" xmlns:xlink="http://www.w3.org/1999/xlink"
	 x="0px" y="0px" viewBox="0 0 864 864" style="enable-background:new 0 0 864 864;" xml:space="preserve">
<style type="text/css">
	.st0{fill:#131313;}
	.st1{fill:#181919;}
</style>
<g id="turning-stone-2-logo-parts">
	<g id="turning-letters">
		<path id="turning-letter-t" class="st0" d="M213.12,288.94c0.6-1.65,1.1-3.35,1.81-4.96c3.14-7.16,1.45-12.71-5.96-15.2
			c-6.84-2.3-14.12-4.19-21.28-4.51c-26.72-1.19-52.98,2.36-78.59,10.09c-5.34,1.61-10.54,3.99-15.43,6.68
			c-6.72,3.7-7.49,6.79-4.49,13.6c-3.05-0.98-4.72-3.59-4.61-7.97c0.29-11.31,6.85-18.55,16.39-23.12
			c16.55-7.92,34.17-11.68,52.51-12.49c15.14-0.67,30.2-0.14,44.38,5.52c6.78,2.71,13.27,6.78,18.97,11.37
			c5.33,4.29,5.94,12.38,2.53,17.73c-1.14,1.79-3.14,3.05-4.75,4.55C214.11,289.8,213.62,289.37,213.12,288.94z M127.64,380.33
			c-0.32-1.35-0.75-2.81-0.53-4.13c1.84-11.02,3-22.23,5.92-32.97c6.82-25.09,18.79-48.09,30.63-71.1c0.64-1.24,0.41-2.93,0.58-4.41
			c-1.27,0.81-3.08,1.33-3.72,2.49c-11.63,21.04-23.59,41.92-34.47,63.35c-6.39,12.58-9.83,26.36-8.57,40.73
			c0.33,3.73,1.7,7.79,3.81,10.86c4.47,6.51,13.74,6.55,18.21-0.07C131.77,389.14,129.48,388.09,127.64,380.33z"/>
		<path id="turning-letter-u" class="st1" d="M153.83,350.34c0.35-0.95,0.48-2.08,1.09-2.82c5.12-6.18,10.32-12.29,15.52-18.4
			c0.63-0.75,1.38-1.43,2.17-2.01c3.17-2.34,6.53-3.94,10.51-2.01c3.77,1.83,4.96,5.35,4.08,8.89c-1.37,5.49-3.3,10.91-5.58,16.1
			c-1.79,4.1-4.56,7.76-6.68,11.73c-0.86,1.63-1.14,3.56-1.79,5.68c4.64,0.67,6.64-2.23,8.47-4.61c5.4-7.03,10.53-14.27,15.67-21.5
			c2.04-2.87,3.81-5.92,5.73-8.87c4.23-6.48,7.7-6.82,13.82-1.15c-4.05,6.63-8.5,13.12-12.11,20.05c-3.81,7.3-7,14.95-10.04,22.61
			c-0.83,2.08-0.13,4.76-0.13,7.06c-4.33-1.66-6.38-5.81-5.55-12.57c0.58-4.7,1.55-9.35,2.45-14.7c-3,3.94-5.32,7.7-8.34,10.77
			c-3.3,3.35-6.9,6.71-11,8.88c-5.46,2.89-10.71-0.51-10.18-6.59c0.45-5.16,1.79-10.5,3.97-15.19c2.64-5.7,6.59-10.79,9.94-16.16
			c0.89-1.43,1.82-2.86,2.49-4.39c0.27-0.61,0.15-1.82-0.28-2.2c-0.46-0.4-1.66-0.42-2.25-0.09c-1.34,0.74-2.68,1.63-3.71,2.75
			c-5.16,5.59-10.24,11.25-15.3,16.93c-0.71,0.8-1.12,1.86-1.67,2.81C154.7,350.99,154.26,350.66,153.83,350.34z"/>
		<path id="turning-letter-r" class="st1" d="M269.13,349.04c-2.54,2.76-5.27,5.37-8.12,7.86c-4.42,3.86-9.39,7.12-14.26,10.43
			c-0.91,0.62-3.14,0.7-3.7,0.08c-0.83-0.93-1.09-2.75-0.92-4.11c0.2-1.62,0.93-3.26,1.74-4.71c3.72-6.62,7.5-13.2,11.36-19.73
			c1.51-2.56,3.53-4.95,1.57-8.1c-1.92-3.08-4.84-4.19-8.33-3.86c-3.92,0.37-7.83,0.86-12.05,1.33c3.79-5.25,7.15-10.25,6.75-16.74
			c-0.21-3.36-2.67-4.68-5.45-2.92c-4.15,2.62-8.33,14.69-6.96,19.52c0.35,1.22,0.34,3.02-0.33,3.97
			c-4.51,6.45-9.27,12.73-13.89,19.1c-0.93,1.28-1.65,2.71-2.47,4.07c0.31,0.19,0.62,0.37,0.92,0.56c0.51-0.44,1.13-0.81,1.53-1.34
			c5.51-7.29,11.04-14.56,16.46-21.93c1.77-2.41,5.01-3.09,7.93-1.29c2.88,1.77,0.86,3.81,0.03,5.43c-3,5.89-6.55,11.52-9.28,17.52
			c-1.58,3.47-2.49,7.44-2.81,11.26c-0.39,4.65,2.44,7.38,6.82,8.78c5.58,1.78,10.17-0.46,14.02-3.7
			c6.88-5.79,11.71-11.58,18.28-17.73C270.11,350.19,269.14,349.45,269.13,349.04z"/>
		<path id="turning-letter-n-1" class="st1" d="M305.91,368.7c0.01-0.24,0.23-1.17,0.19-1.42c-0.88,0.54-1.77,1.07-2.61,1.65
			c-1.67,0.51-1.47-0.12-1.34-1.05c0.33-1.68,0.38-3.48,1.05-5.01c1.18-2.69,2.82-5.17,4.12-7.81c2.79-5.65,5.81-11.22,8.13-17.06
			c1.88-4.74,0.2-9.89-3.07-12.26c-3.29-2.38-7.52-1.99-12.05,1.37c-1.79,1.33-3.47,2.92-4.81,4.69c-3.29,4.34-6.36,8.85-9.58,13.38
			c0.55-4.1,1.29-8.03,1.55-12c0.26-3.98-0.12-7.97-3.81-10.58c-0.64-0.45-1.69-0.34-2.55-0.49c-0.09,0.74-0.51,1.65-0.23,2.2
			c1.78,3.44,0.64,6.46-0.97,9.55c-2.71,5.19-3.42,8.28-5.71,13.24c-1.97,4.16-3.41,5.63-3.52,6.22c-3.69,6.1-7.38,12.19-11.02,18.2
			c5.98,5.64,9.19,5.38,13.62-0.77c0.66-0.91,1.26-1.86,1.85-2.82c6.24-10.18,12.21-20.53,18.84-30.45c2.41-3.61,6.3-6.26,9.69-9.15
			c0.57-0.49,2.28-0.37,2.9,0.14c0.51,0.42,0.49,1.96,0.18,2.81c-0.47,1.29-1.4,2.42-2.12,3.62c-3.91,6.5-8.18,12.81-11.56,19.57
			c-1.89,3.78-2.84,8.25-3.21,12.5c-0.49,5.64,3.96,8.95,9.28,7.15c2.65-0.9,4.2-1.83,6.39-3.56
			C305.88,369.81,305.86,369.6,305.91,368.7z"/>
		<path id="turning-letter-i" class="st1" d="M342.62,370.67c-2.93,2.36-7.42,4.03-11.13,3.91c-7.21-0.24-10.4-6.59-8.28-14.77
			c0.59-2.27,1.59-4.43,2.4-6.64c0.14-0.56,0.27-1.13,0.41-1.69c-0.38,0.29-0.76,0.59-1.14,0.88c-5.74,5.75-11.32,11.68-17.31,17.16
			c-0.19-0.8,0.49-1.9,0.76-2.67c0.22-0.6,1.3-1.87,2.33-3c8.99-9.91,17.66-20.11,26.6-30.06c2.13-2.37,4.67-4.48,7.37-6.16
			c1.34-0.83,3.46-0.41,6.24-0.63c-2.58,4.42-4.98,7.46-6.27,10.92c-2.91,7.87-5.44,15.89-7.73,23.96
			c-0.48,1.69,0.26,4.35,1.45,5.63c0.65,0.69,3.92-0.01,5.15-1.07c6.98-6.07,20.3-18.6,20.34-18.64c0.05,0.34,0.25,1.31,0.3,1.65
			c0.11,0.83,0.15,1-0.13,1.62C363.99,351.07,350.2,364.56,342.62,370.67z M358.42,305.46c-4.04,0.1-7.68,4.87-7.75,10.06
			c-0.04,2.93,0.87,5.13,4.16,5.13c3.64,0.01,7.81-5.63,7.81-10.29C362.64,306.7,361.51,305.39,358.42,305.46z"/>
		<path id="turning-letter-n-2" class="st1" d="M397.04,328.5c0.71-0.58,2.26-0.12,3.43-0.14c0.01,1.17,0.3,2.42-0.03,3.48
			c-0.36,1.16-1.31,2.14-1.98,3.22c-3.42,5.5-7.44,10.73-10.08,16.58c-2.31,5.11-3.63,10.83-4.36,16.42
			c-0.6,4.58,4.06,7.89,8.4,6.09c4.31-1.8,8.46-4.32,12.14-7.21c3.7-2.91,5.75-6.03,9.15-9.37c2.18-2.95,1.16-4.06,1.08-4.99
			c-4.14,4.75-7.73,10.39-13.05,13.76c-2.6,1.64-4.57,2.09-5.21,1.42c-1.16-0.81-0.05-3.62,0.68-5.04
			c2.87-5.65,6.07-11.12,9.1-16.69c2.6-4.8,4.34-9.8,3.13-15.38c-1.06-4.92-5.47-7.58-10.24-5.88c-2.31,0.82-4.81,1.99-6.42,3.74
			c-3.51,3.81-6.5,8.08-9.7,12.17c-0.84,1.08-1.68,2.16-2.52,3.24c2.36-14.71,0.91-20.99-5.7-21.95c-0.05,0.69-0.36,1.48-0.12,2.03
			c1.83,4.06,0.76,7.79-1.52,11.16c-2.66,3.92-3.41,6.52-4.69,9.49c-1.11,3.19-2.8,6.32-3.02,6.86
			c-3.45,5.79-6.78,11.65-10.42,17.32c-1.67,2.61-0.9,4.01,1.42,5.36c4.12,2.4,7.05,1.81,10.31-2.91c3.12-4.51,5.72-9.36,8.63-14.02
			c4.47-7.15,8.79-14.41,13.62-21.31C391.13,333.04,394.21,330.79,397.04,328.5z"/>
		<path id="turning-letter-g" class="st1" d="M469.63,335.23c-2.12-1.54-4.01-3.46-5.75-5.43c-3.98-4.5-8.57-7.26-14.85-6.16
			c-13.12,2.3-21.95,10.28-28.33,21.38c-2.55,4.44-3.93,11.68-4.1,12.35c-1.9,7.64-0.33,13.42,4.45,16.24
			c4.54,2.68,10.14,1.25,15.89-4.05c0.1-0.1,0.21-0.19,0.3-0.3c4.67-5.08,9.33-10.16,14-15.25c0.4-0.29,0.79-0.57,1.19-0.85
			l-0.55,1.63c-5.59,11.79-10.76,23.8-16.93,35.28c-3.83,7.12-8.65,13.87-13.98,19.96c-5.93,6.77-14.07,9.54-23.22,8.87
			c-8.91-0.65-16.76-8.17-19.66-18.94c-0.43-1.6-0.83-3.2-1.24-4.8c-2.16,7.14,1.67,16.02,8.04,20.59
			c12.63,9.07,30.94,7.53,43.07-3.84c13.42-12.57,21.64-28.6,29.63-44.81c4.03-8.17,8.29-16.28,13.13-23.98
			C473.32,338.99,473.72,338.22,469.63,335.23z M460.65,334.44c-0.79,2.64-2.06,5.25-3.6,7.54c-6.29,9.37-13.05,18.37-22.01,25.43
			c-1.09,0.86-2.21,1.8-3.47,2.32c-3.36,1.36-5.74-0.27-5.39-3.86c0.21-2.19,0.95-4.41,1.85-6.44c5.1-11.37,12.22-21.16,22.9-27.98
			c1.74-1.11,3.74-1.79,4.73-2.26C459.9,329.06,461.64,331.1,460.65,334.44z"/>
	</g>
	<g id="stones-letters">
		<path id="stone-letter-s-1" class="st0" d="M568.5,317.66c-5.02-5.56-5.05-11.87-3.4-18.1c3.37-12.72,10.72-23.15,19.98-32.32
			c1.59-1.58,3.25-3.09,5.63-5.35c-1.88-0.66-3.41-1.79-4.63-1.52c-4.2,0.93-8.64,1.69-12.36,3.7
			c-16.69,9.01-30.87,21.1-42.45,36.15c-1.11,1.44-2.09,3.02-2.89,4.65c-2.13,4.31-1.51,8.04,2.53,10.77
			c5.34,3.61,11.13,6.55,16.62,9.97c12.68,7.9,15.82,21.76,6.87,33.69c-3.51,4.68-8.45,8.96-13.67,11.57
			c-16.65,8.33-33.92,10.81-51.39,1.96c-7.47-3.79-12.81-9.38-14.49-18.15c6.42,5.24,13.96,7.55,21.82,8.78
			c19.38,3.04,37.12,0.31,50.87-15.35c6.4-7.29,4.6-15.69-3.96-20.37c-6.14-3.36-12.37-6.75-17.93-10.96
			c-7.44-5.63-8.2-13.65-5.71-22.1c2.29-7.79,7.22-14,12.82-19.58c11.85-11.83,25.56-20.7,41.91-25.07
			c5.79-1.55,11.68-2.28,17.45-0.2c7.29,2.63,10.5,10.18,6.45,16.79c-4.32,7.04-9.52,13.58-14.68,20.07
			C576.61,295.86,570.11,305.35,568.5,317.66z"/>
		<path id="stones-letter-t" class="st1" d="M602.13,348.37c-5.51,5.97-11.2,11.48-16.85,17.31c-2.42,2.5-6.04,5.35-9.65,2.91
			c-3.57-2.41-2.53-6.89-1.21-10.17c3.45-8.57,7.21-17.03,11.37-25.28c3.13-6.21,6.03-7.31,12.94-5.61
			c2.57,0.63,4.88,2.36,8.13,4.01c-1.06-7.71-7.23-9.24-13.3-11.47c6.97-9.25,13.6-18.05,20.33-26.99
			c-7.88-2.54-15.23,0.13-18.82,6.58c-2.74,4.91-5.52,9.81-7.98,14.86c-1.69,3.46-3.76,5.85-7.79,6.76c-2.1,0.47-4.23,2.25-5.64,4
			c-2.8,3.49-1.72,6.35,2.54,7.81c-3.98,6.65-10.32,11.59-14.42,18.12c0.34,0.28,0.68,0.55,1.02,0.83c0.8-0.48,1.6-0.97,2.79-1.68
			c-0.62,3.72-1.41,6.88-1.62,10.08c-0.31,4.68-0.3,9.64,3.81,12.8c4.18,3.21,8.88,1.91,13.1-0.33c2.7-1.44,5.32-3.26,7.51-5.39
			c4.53-4.43,8.85-9.09,13.31-13.81C602.06,352.94,602.65,350.19,602.13,348.37z"/>
		<path id="stones-letter-o" class="st1" d="M633.65,364.12c-0.31-0.34-0.63-0.47-0.3-0.89c1.7-1.45,3.63-2.71,5.07-4.38
			c6.31-7.31,10.92-15.34,10.36-25.5c-0.37-6.62-4.67-11.93-11.26-11.94c-4.14-0.01-8.9,0.99-12.28,3.21
			c-4.73,3.1-8.59,7.61-12.54,11.78c-3.27,3.45-7.4,10.16-8.85,15.42c-1.2,4.38-1.58,8.26-1.55,12.13
			c0.06,6.67,3.53,10.22,10.02,9.42c4.47-0.55,8.75-2.66,13.11-4.1c1.44-0.48,2.84-1.07,4.26-1.62c1.47-0.57,1.99-1.16,3.51-1.66
			C634.17,365.01,633.85,364.67,633.65,364.12z M625.7,365.89c-2.38,0.96-4.23,1.94-6.2,2.46c-4.53,1.2-8.47-1.56-8.18-6.14
			c0.85-13.65,7.18-24.33,18.76-31.58c4.51-2.82,9.57-2.06,12.48,0.74c3.07,2.94,2.81,6.58,2.08,10.18
			c-0.46,2.25-1.58,4.37-2.43,6.64c-4.41-3.96-7.71-3.78-12.13,0.43C624,354.4,621.96,361.32,625.7,365.89z"/>
		<path id="stones-letter-n" class="st1" d="M709.32,351.42c-0.01-0.42-0.02-0.84-0.05-1.26c0-0.03-0.01-0.06-0.01-0.09
			c-3.65,4.46-7.79,8.45-11.97,12.46c-1.67,1.6-4.09,2.43-6.17,3.62c-0.41-0.33-0.82-0.66-1.22-0.99c0.5-1.9,0.69-3.95,1.57-5.66
			c3.38-6.64,7.35-13.01,10.35-19.81c1.46-3.3,1.9-7.38,1.66-11.03c-0.35-5.31-5.55-8.44-10.43-6.27c-3.48,1.54-6.86,3.91-9.45,6.68
			c-3.23,3.47-5.59,7.73-8.33,11.66c-0.28,0.56-0.56,1.11-0.84,1.67c-0.2-0.07-0.39-0.14-0.59-0.22c0.23-0.73,0.46-1.45,0.69-2.18
			c0.27-3.22,0.63-6.44,0.8-9.67c0.33-6.17-1.44-9.41-6.53-11.35c0.08,1.25,0.23,2.23,0.2,3.2c-0.08,2.57,0.6,5.6-0.51,7.64
			c-6.76,12.34-15.47,23.14-27.15,31.25c-1.91,1.33-3.85,2.64-5.78,4.01c-0.34,0.26-0.41,0.45-0.4,0.67
			c3.24-1.07,6.44-2.19,9.1-4.08c5.54-3.94,10.03-9.34,14.97-14.11c0.29-0.16,0.57-0.32,0.86-0.48c-0.03,0.39-0.05,0.78-0.08,1.17
			c-4.16,6.99-8.33,13.98-12.48,20.94c7.09,5.6,9.51,5.36,14.31-2.02c3.68-5.66,6.97-11.58,10.37-17.41
			c4.83-8.28,9.52-16.69,17.2-22.77c1.26-1,3.46-0.82,5.23-1.19c-0.34,1.64-0.27,3.51-1.08,4.87c-3.59,6.05-7.8,11.77-11.06,17.98
			c-2.24,4.27-3.65,9.09-4.79,13.81c-1.33,5.5,3.08,12.34,10.28,8.76c5.67-2.82,10.54-7.34,15.5-11.42c2.19-1.8,4.01-4.06,5.9-6.22
			C709.37,352.86,709.35,352.14,709.32,351.42z"/>
		<path id="stones-letter-e" class="st1" d="M751.05,361.17c0.17-0.48,0.33-1.01,0.57-1.49c-0.05-0.1-0.11-0.19-0.16-0.29
			c0.08-0.08-0.42-0.85-0.76-1.58c-4.98,3.82-9.29,7.09-15.02,9.69c-7.4,3.36-12.51,0.47-12.16-7.29
			c0.63-13.8,7.54-24.24,19.12-31.4c1.83-1.13,5.72-0.82,7.6,0.43c2.64,1.75,2.14,5.52,0.07,7.53c-3.65,3.54-7.75,6.76-12.1,9.39
			c-2.58,1.56-6,1.73-9.04,2.53c1.25,0.88,2.53,1.2,3.76,1.05c8.02-1,14.74-4.56,19.75-10.9c2.85-3.6,4.13-7.82,1.95-12.24
			c-1.67-3.39-7.49-5.25-12.35-4.62c-12.35,1.61-21.16,8.61-26.84,19.06c-1.57,2.9-4.07,7.91-4.77,15.64
			c-0.75,8.22,2.81,15.76,11.66,16.64c3.91,0.39,8.39-0.1,11.9-1.73c5.84-2.72,11.15-6.6,16.71-10.05
			C750.96,361.41,751.01,361.29,751.05,361.17z"/>
		<path id="stones-letter-s-2" class="st1" d="M784.83,363.34c2.08-6.43,4.05-12.97,6.3-19.42c3.11-8.86,3.25-18.84,10.1-26.41
			c-3.11-2.45-6.43-2.77-9.62-1.19c-3.12,1.54-6.47,3.18-8.79,5.65c-8.5,9.02-16.5,18.51-24.93,27.6c-2.09,2.25-4.31,5.4-5.31,6.77
			c-0.29,0.34-0.46,1.3-0.14,2.02c11.03-11.53,21.8-23.15,33.04-34.3c5.65-5.6,7.95-6.04,12.1-5.47
			c-8.32,6.59-12.69,15.62-16.74,24.93c-2.3,5.27-4.86,10.45-7.71,15.44c-1.43,2.5-3.48,4.87-5.78,6.6
			c-5.61,4.23-10.73,2.65-15.12-4.78c-0.09,0.27-0.18,0.53-0.27,0.78c-0.1,0.27-0.19,0.53-0.29,0.8c0.06,0.16,0.12,0.32,0.17,0.48
			c1.84,5.41,5.07,9.54,10.97,10.56c5.67,0.98,11.23,0.29,16.47-2.34c12.44-6.27,21.23-16.56,29.8-27.08
			c0.42-0.52,0.33-1.46,0.47-2.2C801.85,349.99,793.88,357.58,784.83,363.34z"/>
	</g>
	<g id="show-letters">
		<path id="show-letter-s" class="st0" d="M400.38,481.32c3.85-2.97,8.11-5.54,11.45-9c5.04-5.21,3.57-11.96-2.82-15.51
			c-3.76-2.09-7.7-3.88-11.27-6.24c-9.51-6.27-11.74-14.76-6.24-24.75c6.95-12.63,17.98-20.9,30.66-27.14
			c6.25-3.08,12.79-5.36,19.91-5.19c6.16,0.14,9.9,2.54,11.07,7.62c0.44,1.93,0.43,4.55-0.56,6.1c-3.44,5.43-7.14,10.73-11.21,15.7
			c-6.13,7.48-11.57,15.2-13.01,25.4c-3.84-4.11-3.99-8.74-2.88-13.45c2.52-10.71,8.68-19.29,16.42-26.84
			c1.27-1.24,2.8-2.22,4.25-3.35c-3.13-3.29-6.14-2.45-8.49-1.13c-7.14,4.03-14.58,7.82-20.88,12.94
			c-6.81,5.54-12.86,12.16-18.52,18.9c-4.72,5.62-3.67,9.23,2.53,13.18c2.71,1.72,5.55,3.28,8.43,4.7
			c15.52,7.64,15.16,24.5,2.41,34.25c-2.26,1.73-4.86,3.02-7.3,4.52c-3.77,1.4-7.54,2.8-11.32,4.19c-0.86,0.03-1.71,0.05-2.57,0.08
			c-0.67,0.08-1.33,0.17-1.99,0.25c-6.55,0.06-13.21,0.48-19.3-2.5c-4.13-2.02-7.99-4.61-11.97-6.94c-0.9-1.56-1.8-3.11-2.71-4.67
			c-0.11-0.6-0.21-1.2-0.32-1.8c0.29-0.98,0.58-1.96,0.86-2.95c0.2,0.04,0.39,0.08,0.59,0.13c0.29,0.43,0.58,0.85,0.87,1.28
			c2.89,1.41,5.79,2.81,8.68,4.22c0.67,0.13,1.34,0.26,2,0.39c7.2,2.11,14.42,3.02,21.71,0.46c2.75-0.51,5.51-1.02,8.26-1.54
			C398.21,482.2,399.29,481.76,400.38,481.32z"/>
		<path id="show-letter-h" class="st1" d="M471.58,473.41c-0.03-0.49-0.04-0.98-0.07-1.46c-3.01,3.39-6.05,6.76-9.13,10.08
			c-2.07,2.24-4.87,3.81-7.33,5.69l-1.15-0.91c0.4-1.67,0.59-3.43,1.24-5c1.66-3.96,3.69-7.77,5.28-11.76
			c1.41-3.53,2.79-7.14,3.49-10.85c0.63-3.35,0.04-6.9-3.3-8.86c-3.17-1.87-6.57-1.3-9.42,0.78c-2.28,1.66-4.23,3.81-6.18,5.88
			c-0.74,0.78-1.08,1.94-1.6,2.93c-0.41-0.4-0.81-0.8-1.22-1.19c6.78-13.8,14.19-27.26,23.67-39.41c3.94-5.06,8.66-9.54,13.35-13.96
			c1.24-1.17,3.65-1.11,5.53-1.61c0.3,2.03,1.39,4.36,0.75,6.02c-1.64,4.29-3.52,8.68-6.27,12.3c-6.19,8.14-13.79,14.92-22.5,20.37
			c-0.83,0.52-1.53,1.24-2.29,1.87c0.18,0.3,0.35,0.61,0.53,0.91c1.16-0.47,2.43-0.76,3.47-1.42c9.06-5.77,17.11-12.68,23.8-21.12
			c4.02-5.07,6.4-10.82,7.29-17.24c1.16-8.39-4.03-12.78-12.09-10.15c-5.67,1.85-9.97,5.53-13.67,10.05
			c-9.32,11.37-16.38,24.14-22.31,37.47c-4.77,10.72-9.22,21.52-17.95,29.83c-0.51,0.48-0.61,1.39-0.9,2.1
			c0.32,0.2,0.65,0.41,0.97,0.61c2.75-3.04,5.5-6.07,8.92-9.86c-2.88,9.22-5.45,17.44-8.14,26.07c3.65-0.23,5.26-1.99,6.12-4.7
			c3.27-10.27,8.85-19.29,15.4-27.73c1.73-2.22,3.93-4.23,6.29-5.75c1.24-0.8,3.3-0.34,4.99-0.45c-0.12,1.45,0.21,3.13-0.42,4.3
			c-2.68,4.92-5.89,9.56-8.41,14.56c-1.8,3.57-3.15,7.45-4.07,11.34c-0.65,2.75-0.35,5.73,2.61,7.62c2.93,1.87,5.76,1.39,8.38-0.31
			c2.6-1.69,5.11-3.57,7.36-5.69c2.97-2.79,5.75-5.78,9.03-9.2C471.64,474.84,471.63,474.12,471.58,473.41z"/>
		<path id="show-letter-o" class="st1" d="M501.98,481.53c5.83-6.77,10.39-13.99,9.41-23.54c-0.62-6.06-6.34-10.52-12.35-9.51
			c-7.1,1.19-11.36,6.21-16.39,10.81c-2.22,2.03-6.66,5.64-9.44,14.64c-0.5,3.92-1.06,6.61-1.14,9.31
			c-0.16,5.25,1.69,10.78,9.11,9.61c3.24-0.51,6.35-1.84,9.49-2.9c1.66-0.56,3.22-1.43,4.87-2.02c0.74-0.27,1.5-0.49,2.27-0.71
			C499.08,485.3,501.13,482.52,501.98,481.53z M491.53,486.49c-1.14,0.62-2.24,1.29-3.41,1.85c-4.32,2.05-9.24-1.18-8.55-5.9
			c1.55-10.54,6.14-19.29,15.13-25.29c4.03-2.69,8.61-2.64,11.05-0.49c3.03,2.67,3.61,6.66,1.63,11.56
			c-0.43,1.07-0.98,2.1-1.49,3.19c-3.6-3.15-6.08-3.14-9.85-0.05C491.08,475.41,488.96,482.3,491.53,486.49z"/>
		<path id="show-letter-w" class="st1" d="M582.03,468.39c-2.11,2.22-4.1,4.57-6.38,6.61c-1,0.89-2.57,1.15-3.88,1.69
			c-0.18-1.47-0.65-2.97-0.49-4.39c0.77-6.85,4.52-12.46,7.84-18.25c0.78-1.35,1.11-2.96,1.65-4.45c-1.82-0.13-3.79-0.74-5.42-0.24
			c-1.66,0.51-3.69,1.83-4.3,3.32c-1.7,4.13-3.74,8.5-3.86,12.83c-0.23,8.2-4.94,13.36-10.24,18.39c-0.94,0.89-2.5,1.1-3.78,1.63
			c-0.35-1.28-0.97-2.56-0.99-3.84c-0.03-1.77,0.08-3.65,0.66-5.3c2.22-6.33,4.66-12.59,7.29-19.61c-0.69-1.4-2.74-1.38-4.66-0.35
			c-1.64,0.88-3.3,2.08-4.39,3.56c-2.97,4.05-5.49,8.42-8.46,12.46c-3.02,4.11-6.28,8.06-9.64,11.9c-0.69,0.79-2.29,0.8-3.47,1.17
			c-0.31-1.23-1.08-2.56-0.85-3.68c0.89-4.3,1.7-8.7,3.29-12.77c2.29-5.83,5.24-11.41,7.96-17.2c-1.84-1.67-3.96-0.69-5.61,0.6
			c-2.24,1.74-4.24,3.85-6.14,5.98c-5.97,6.68-11.67,13.61-17.82,20.11c-2.72,2.88-6.02,5.6-10.16,6.81
			c-0.6,0.55-1.23,1.44-1.29,1.55c2.47-0.68,4.95-1.33,6.94-2.71c4.66-3.24,8.64-7.46,12.91-11.27l1.41-1.75
			c0.17,0.11,0.35,0.22,0.52,0.33c-0.42,0.71-0.84,1.41-1.25,2.12c-0.82,3.56-2.04,7.09-2.35,10.7c-0.31,3.74,2,5.98,5.66,7.21
			c4.25,1.42,7.08-1.05,9.95-3.36c2.63-2.12,5.1-4.46,7.46-6.54c-0.04-0.23,0.09,0.09,0.07,0.4c-0.28,3.82,0.44,7.22,4.21,9.1
			c3.86,1.92,7.43,0.61,10.19-2.04c4.29-4.11,8.15-8.66,12.04-12.86c2.39,5.01,5.02,5.56,9.73,1.26c2.11-1.93,3.9-4.22,5.72-6.43
			c0.47-0.57,0.52-1.47,0.77-2.22C582.59,468.69,582.31,468.54,582.03,468.39z M540.38,480.56c-0.08-0.08-0.23-0.17-0.21-0.23
			c0.03-0.17,0.14-0.32,0.21-0.48c0.08,0.07,0.16,0.15,0.26,0.23C540.55,480.25,540.46,480.41,540.38,480.56z"/>
	</g>
	<g id="the-letters">
		<path id="dash-line" d="M204.97,535.56h6.48v4.02h-6.48V535.56z"/>
		<path id="the-letter-t" d="M225.76,551.44c-0.2,0.15-0.5,0.29-0.9,0.42c-0.4,0.13-0.88,0.2-1.44,0.22c-0.74,0-1.37-0.17-1.91-0.51
			c-0.54-0.34-0.99-0.83-1.34-1.47c-0.36-0.64-0.62-1.41-0.8-2.31c-0.18-0.9-0.26-1.91-0.26-3.02v-16.02h-2.69v-3.69h2.69v-7.2h2.28
			v7.2h4.17v3.69h-4.17v15.35c0,0.61,0.05,1.17,0.14,1.69c0.09,0.52,0.24,0.97,0.44,1.34c0.2,0.38,0.46,0.67,0.77,0.89
			c0.31,0.21,0.69,0.32,1.13,0.32c0.3,0,0.62-0.05,0.96-0.14s0.65-0.21,0.93-0.36V551.44z"/>
		<path id="the-letter-h" d="M234.26,528.66h0.04c0.25-0.61,0.54-1.18,0.85-1.7s0.66-0.98,1.04-1.36c0.38-0.38,0.79-0.68,1.24-0.9
			c0.44-0.22,0.92-0.33,1.43-0.33c0.53,0,1.06,0.13,1.59,0.4c0.53,0.27,1.02,0.74,1.47,1.43c0.45,0.68,0.82,1.63,1.1,2.85
			c0.28,1.22,0.43,2.79,0.43,4.71v17.62h-2.28v-16.93c0-2.12-0.21-3.72-0.64-4.79c-0.43-1.07-1.12-1.61-2.09-1.61
			c-0.8,0-1.57,0.41-2.29,1.23c-0.72,0.82-1.35,1.95-1.88,3.39v18.7h-2.28v-40.12h2.28V528.66z"/>
		<path id="the-letter-e" d="M257.46,548.33c0.75,0,1.44-0.12,2.07-0.35c0.62-0.23,1.24-0.56,1.86-0.98v3.57
			c-0.5,0.46-1.12,0.83-1.85,1.09c-0.73,0.27-1.52,0.4-2.37,0.4c-1,0-1.94-0.24-2.81-0.72c-0.88-0.48-1.64-1.26-2.28-2.33
			s-1.14-2.47-1.51-4.2c-0.36-1.73-0.54-3.81-0.54-6.25c0-2.4,0.18-4.48,0.53-6.25c0.35-1.76,0.82-3.24,1.41-4.42
			c0.59-1.18,1.26-2.07,2.02-2.66c0.76-0.59,1.56-0.89,2.39-0.89c0.78,0,1.51,0.25,2.19,0.73s1.27,1.26,1.77,2.31
			c0.5,1.05,0.89,2.41,1.18,4.07c0.29,1.66,0.43,3.66,0.43,5.99c0,0.22,0,0.41,0,0.57c0,0.16-0.01,0.51-0.01,1.07h-9.64
			c0,1.68,0.13,3.11,0.4,4.28s0.64,2.12,1.1,2.85c0.47,0.73,1.01,1.26,1.64,1.59C256.06,548.17,256.74,548.33,257.46,548.33z
			 M256.26,528.05c-0.53,0-1.01,0.19-1.47,0.58c-0.45,0.39-0.85,0.91-1.18,1.58c-0.34,0.67-0.61,1.45-0.82,2.34
			c-0.21,0.9-0.34,1.85-0.39,2.87h7.14c0-1.03-0.07-2-0.22-2.9c-0.14-0.9-0.35-1.68-0.63-2.34c-0.28-0.67-0.62-1.19-1.03-1.57
			C257.27,528.24,256.79,528.05,256.26,528.05z"/>
	</g>
	<g id="human-letters">
		<path id="human-letter-h" d="M280.22,528.66h0.04c0.25-0.61,0.54-1.18,0.85-1.7s0.66-0.98,1.04-1.36c0.38-0.38,0.79-0.68,1.24-0.9
			c0.44-0.22,0.92-0.33,1.43-0.33c0.53,0,1.06,0.13,1.59,0.4c0.53,0.27,1.02,0.74,1.47,1.43c0.45,0.68,0.82,1.63,1.1,2.85
			c0.28,1.22,0.43,2.79,0.43,4.71v17.62h-2.28v-16.93c0-2.12-0.21-3.72-0.64-4.79c-0.43-1.07-1.12-1.61-2.09-1.61
			c-0.8,0-1.57,0.41-2.29,1.23c-0.72,0.82-1.35,1.95-1.88,3.39v18.7h-2.28v-40.12h2.28V528.66z"/>
		<path id="human-letter-u" d="M302.34,552.08c-0.73,0-1.38-0.15-1.96-0.44c-0.58-0.29-1.09-0.71-1.52-1.25
			c-0.44-0.54-0.81-1.18-1.11-1.93c-0.3-0.75-0.54-1.57-0.72-2.45c-0.14-0.67-0.23-1.39-0.29-2.19c-0.06-0.79-0.09-1.66-0.09-2.61
			v-16.16h2.28v16.13c0,1.46,0.1,2.68,0.31,3.66c0.24,1.11,0.61,1.98,1.14,2.62s1.19,0.96,2.01,0.96c0.86,0,1.55-0.35,2.08-1.05
			s0.9-1.64,1.12-2.83c0.17-0.9,0.25-2.02,0.25-3.35v-16.13h2.28v16.18c0,0.89-0.03,1.71-0.08,2.48c-0.05,0.77-0.14,1.47-0.26,2.12
			c-0.18,0.91-0.42,1.74-0.73,2.51s-0.69,1.43-1.14,1.98c-0.45,0.55-0.97,0.98-1.57,1.29S303.08,552.08,302.34,552.08z"/>
		<path id="human-letter-m" d="M326.76,551.38h-2.28v-16.93c0-1.15-0.07-2.12-0.2-2.92c-0.13-0.8-0.32-1.46-0.57-1.98
			c-0.25-0.52-0.55-0.9-0.9-1.14c-0.35-0.24-0.74-0.36-1.17-0.36c-0.81,0-1.55,0.41-2.22,1.23c-0.67,0.82-1.26,1.95-1.79,3.39v18.7
			h-2.28v-26.33h1.76l0.44,3.66h0.04c0.25-0.61,0.53-1.18,0.83-1.7c0.3-0.53,0.63-0.99,1-1.39c0.37-0.4,0.77-0.71,1.21-0.93
			c0.44-0.22,0.92-0.33,1.44-0.33c1.04,0,1.9,0.47,2.59,1.41c0.69,0.94,1.21,2.23,1.59,3.85h0.06c0.62-1.64,1.33-2.93,2.12-3.87
			c0.79-0.93,1.72-1.4,2.78-1.4c0.49,0,1.01,0.13,1.56,0.39c0.55,0.26,1.06,0.73,1.52,1.43c0.46,0.69,0.84,1.65,1.15,2.87
			c0.3,1.22,0.46,2.79,0.46,4.71v17.62h-2.28v-16.93c0-1.15-0.07-2.12-0.2-2.92c-0.13-0.8-0.32-1.46-0.57-1.98
			c-0.25-0.52-0.55-0.9-0.9-1.14s-0.74-0.36-1.17-0.36c-0.81,0-1.56,0.41-2.23,1.23s-1.27,1.95-1.8,3.39V551.38z"/>
		<path id="human-letter-a" d="M351.45,548.47h-0.06c-0.19,0.44-0.42,0.88-0.71,1.32c-0.28,0.43-0.61,0.82-0.98,1.16
			c-0.37,0.34-0.78,0.61-1.22,0.82c-0.44,0.2-0.91,0.3-1.41,0.3c-0.68,0-1.3-0.19-1.86-0.57c-0.56-0.38-1.05-0.93-1.46-1.66
			c-0.41-0.73-0.72-1.62-0.95-2.67s-0.34-2.24-0.34-3.57c0-1.31,0.12-2.49,0.38-3.52c0.25-1.03,0.6-1.91,1.05-2.63
			c0.45-0.72,0.99-1.27,1.62-1.66c0.63-0.39,1.33-0.58,2.09-0.58c0.73,0.02,1.4,0.14,2.01,0.36s1.17,0.5,1.65,0.83h0.06v-1.83
			c0-0.72-0.02-1.36-0.07-1.91c-0.05-0.55-0.13-1.04-0.25-1.47c-0.25-0.89-0.66-1.62-1.22-2.2c-0.56-0.58-1.31-0.87-2.26-0.87
			c-0.71,0-1.37,0.12-1.99,0.37c-0.62,0.25-1.24,0.6-1.86,1.04v-3.6c0.24-0.22,0.51-0.43,0.83-0.62c0.32-0.19,0.65-0.36,1.01-0.5
			s0.73-0.25,1.12-0.32c0.39-0.07,0.78-0.11,1.18-0.11c1.41,0,2.56,0.47,3.46,1.41s1.54,2.19,1.93,3.74
			c0.15,0.59,0.25,1.24,0.32,1.95c0.06,0.71,0.1,1.49,0.1,2.34v17.57h-1.91L351.45,548.47z M351.33,539.83
			c-0.42-0.22-0.92-0.43-1.49-0.64c-0.58-0.2-1.21-0.31-1.9-0.33c-0.97,0-1.72,0.39-2.27,1.16c-0.55,0.78-0.82,1.97-0.82,3.58
			c0,0.81,0.07,1.52,0.21,2.13c0.14,0.61,0.32,1.11,0.56,1.51c0.24,0.4,0.52,0.69,0.85,0.89c0.33,0.19,0.68,0.29,1.05,0.29
			c0.49,0,0.94-0.13,1.36-0.4c0.42-0.27,0.79-0.59,1.12-0.96c0.33-0.37,0.61-0.74,0.83-1.11c0.23-0.37,0.4-0.66,0.5-0.86V539.83z"/>
		<path id="human-letter-n" d="M363.2,528.72h0.04c0.25-0.61,0.54-1.18,0.85-1.7s0.65-0.99,1.04-1.39c0.38-0.4,0.8-0.71,1.26-0.93
			c0.46-0.22,0.95-0.33,1.49-0.33c0.64,0,1.23,0.17,1.79,0.5c0.56,0.33,1.04,0.87,1.46,1.61c0.41,0.74,0.74,1.7,0.98,2.9
			s0.36,2.66,0.36,4.39v17.62h-2.28v-16.93c0-2.27-0.23-3.91-0.7-4.91c-0.47-1-1.14-1.5-2.04-1.5c-0.78,0-1.54,0.41-2.28,1.23
			c-0.74,0.82-1.37,1.95-1.9,3.39v18.7H361v-26.33h1.76L363.2,528.72z"/>
	</g>
	<g id="experience-letters">
		<path id="experience-letter-e-1" d="M395.48,548.33c0.75,0,1.44-0.12,2.07-0.35c0.62-0.23,1.24-0.56,1.86-0.98v3.57
			c-0.5,0.46-1.12,0.83-1.85,1.09c-0.73,0.27-1.52,0.4-2.37,0.4c-1,0-1.94-0.24-2.81-0.72c-0.88-0.48-1.64-1.26-2.28-2.33
			s-1.14-2.47-1.51-4.2c-0.36-1.73-0.54-3.81-0.54-6.25c0-2.4,0.18-4.48,0.53-6.25c0.35-1.76,0.82-3.24,1.41-4.42
			c0.59-1.18,1.26-2.07,2.02-2.66c0.76-0.59,1.56-0.89,2.39-0.89c0.78,0,1.51,0.25,2.19,0.73s1.27,1.26,1.77,2.31
			c0.5,1.05,0.89,2.41,1.18,4.07c0.29,1.66,0.43,3.66,0.43,5.99c0,0.22,0,0.41,0,0.57c0,0.16-0.01,0.51-0.01,1.07h-9.64
			c0,1.68,0.13,3.11,0.4,4.28s0.64,2.12,1.1,2.85c0.47,0.73,1.01,1.26,1.64,1.59C394.08,548.17,394.76,548.33,395.48,548.33z
			 M394.28,528.05c-0.53,0-1.01,0.19-1.47,0.58c-0.45,0.39-0.85,0.91-1.18,1.58c-0.34,0.67-0.61,1.45-0.82,2.34
			c-0.21,0.9-0.34,1.85-0.39,2.87h7.14c0-1.03-0.07-2-0.22-2.9c-0.14-0.9-0.35-1.68-0.63-2.34c-0.28-0.67-0.62-1.19-1.03-1.57
			C395.29,528.24,394.82,528.05,394.28,528.05z"/>
		<path id="experience-letter-x" d="M411.52,535.2l3.79-10.14h2.51l-5.1,13.02l5.29,13.3h-2.47l-4.09-10.53h-0.06l-4.03,10.53h-2.47
			l5.29-13.41l-5.1-12.91h2.51l3.85,10.14H411.52z"/>
		<path id="experience-letter-p" d="M435.87,537.92c0,1.83-0.1,3.45-0.29,4.86c-0.19,1.41-0.45,2.65-0.76,3.7
			c-0.32,1.05-0.68,1.93-1.11,2.65c-0.42,0.71-0.86,1.28-1.31,1.72c-0.45,0.43-0.91,0.75-1.38,0.94c-0.47,0.19-0.91,0.29-1.32,0.29
			c-0.86,0-1.6-0.26-2.23-0.79c-0.63-0.53-1.2-1.31-1.7-2.34h-0.04v15.32h-2.23v-39.21h1.72l0.49,2.99h0.04
			c0.13-0.37,0.29-0.73,0.49-1.08c0.2-0.35,0.47-0.72,0.81-1.12c0.34-0.4,0.75-0.74,1.22-1.04c0.48-0.29,0.99-0.44,1.55-0.44
			c0.78,0,1.54,0.25,2.27,0.75c0.73,0.5,1.38,1.29,1.93,2.38c0.56,1.09,1.01,2.49,1.34,4.2C435.7,533.4,435.87,535.48,435.87,537.92
			z M433.48,537.97c0-1.53-0.09-2.91-0.26-4.13c-0.17-1.22-0.43-2.26-0.78-3.12c-0.34-0.86-0.77-1.52-1.27-1.98
			c-0.5-0.46-1.08-0.69-1.74-0.69c-0.47,0-0.9,0.12-1.29,0.36c-0.39,0.24-0.74,0.54-1.06,0.91c-0.32,0.37-0.59,0.77-0.81,1.19
			c-0.23,0.43-0.41,0.8-0.55,1.14v13.77c0.48,0.92,1.03,1.65,1.65,2.19c0.62,0.54,1.28,0.8,1.99,0.8c0.43,0,0.89-0.15,1.37-0.46
			c0.48-0.3,0.93-0.85,1.34-1.64c0.41-0.78,0.75-1.85,1.01-3.2C433.35,541.78,433.48,540.06,433.48,537.97z"/>
		<path id="experience-letter-e-2" d="M449.08,548.33c0.75,0,1.44-0.12,2.07-0.35c0.62-0.23,1.24-0.56,1.86-0.98v3.57
			c-0.5,0.46-1.12,0.83-1.85,1.09c-0.73,0.27-1.52,0.4-2.37,0.4c-1,0-1.94-0.24-2.81-0.72c-0.88-0.48-1.64-1.26-2.28-2.33
			s-1.14-2.47-1.51-4.2c-0.36-1.73-0.54-3.81-0.54-6.25c0-2.4,0.18-4.48,0.53-6.25c0.35-1.76,0.82-3.24,1.41-4.42
			c0.59-1.18,1.26-2.07,2.02-2.66c0.76-0.59,1.56-0.89,2.39-0.89c0.78,0,1.51,0.25,2.19,0.73s1.27,1.26,1.77,2.31
			c0.5,1.05,0.89,2.41,1.18,4.07c0.29,1.66,0.43,3.66,0.43,5.99c0,0.22,0,0.41,0,0.57c0,0.16-0.01,0.51-0.01,1.07h-9.64
			c0,1.68,0.13,3.11,0.4,4.28s0.64,2.12,1.1,2.85c0.47,0.73,1.01,1.26,1.64,1.59C447.67,548.17,448.35,548.33,449.08,548.33z
			 M447.87,528.05c-0.53,0-1.01,0.19-1.47,0.58c-0.45,0.39-0.85,0.91-1.18,1.58c-0.34,0.67-0.61,1.45-0.82,2.34
			c-0.21,0.9-0.34,1.85-0.39,2.87h7.14c0-1.03-0.07-2-0.22-2.9c-0.14-0.9-0.35-1.68-0.63-2.34c-0.28-0.67-0.62-1.19-1.03-1.57
			C448.88,528.24,448.41,528.05,447.87,528.05z"/>
		<path id="experience-letter-r" d="M468.06,528.55h-0.18c-0.54,0-1.07,0.09-1.59,0.28c-0.52,0.19-1.01,0.47-1.46,0.85
			c-0.46,0.38-0.87,0.84-1.23,1.4c-0.37,0.55-0.67,1.21-0.92,1.97v18.34h-2.28v-26.33h1.76l0.44,4.18h0.04
			c0.23-0.68,0.5-1.32,0.83-1.91c0.33-0.59,0.7-1.11,1.11-1.55c0.41-0.44,0.86-0.79,1.35-1.04c0.49-0.25,1-0.37,1.54-0.37
			c0.1,0,0.2,0,0.3,0.01c0.1,0.01,0.19,0.02,0.27,0.04V528.55z"/>
		<path id="experience-letter-i" d="M473.55,518.93v-4.79h2.28v4.79H473.55z M473.61,551.38v-26.33h2.28v26.33H473.61z"/>
		<path id="experience-letter-e-3" d="M490.06,548.33c0.75,0,1.44-0.12,2.07-0.35c0.62-0.23,1.24-0.56,1.86-0.98v3.57
			c-0.5,0.46-1.12,0.83-1.85,1.09c-0.73,0.27-1.52,0.4-2.37,0.4c-1,0-1.94-0.24-2.81-0.72c-0.88-0.48-1.64-1.26-2.28-2.33
			s-1.14-2.47-1.51-4.2c-0.36-1.73-0.54-3.81-0.54-6.25c0-2.4,0.18-4.48,0.53-6.25c0.35-1.76,0.82-3.24,1.41-4.42
			c0.59-1.18,1.26-2.07,2.02-2.66c0.76-0.59,1.56-0.89,2.39-0.89c0.78,0,1.51,0.25,2.19,0.73s1.27,1.26,1.77,2.31
			c0.5,1.05,0.89,2.41,1.18,4.07c0.29,1.66,0.43,3.66,0.43,5.99c0,0.22,0,0.41,0,0.57c0,0.16-0.01,0.51-0.01,1.07h-9.64
			c0,1.68,0.13,3.11,0.4,4.28s0.64,2.12,1.1,2.85c0.47,0.73,1.01,1.26,1.64,1.59C488.65,548.17,489.33,548.33,490.06,548.33z
			 M488.85,528.05c-0.53,0-1.01,0.19-1.47,0.58c-0.45,0.39-0.85,0.91-1.18,1.58c-0.34,0.67-0.61,1.45-0.82,2.34
			c-0.21,0.9-0.34,1.85-0.39,2.87h7.14c0-1.03-0.07-2-0.22-2.9c-0.14-0.9-0.35-1.68-0.63-2.34c-0.28-0.67-0.62-1.19-1.03-1.57
			C489.86,528.24,489.39,528.05,488.85,528.05z"/>
		<path id="experience-letter-n" d="M503.59,528.72h0.04c0.25-0.61,0.54-1.18,0.85-1.7s0.65-0.99,1.04-1.39
			c0.38-0.4,0.8-0.71,1.26-0.93c0.46-0.22,0.95-0.33,1.49-0.33c0.64,0,1.23,0.17,1.79,0.5c0.56,0.33,1.04,0.87,1.46,1.61
			c0.41,0.74,0.74,1.7,0.98,2.9s0.36,2.66,0.36,4.39v17.62h-2.28v-16.93c0-2.27-0.23-3.91-0.7-4.91c-0.47-1-1.14-1.5-2.04-1.5
			c-0.78,0-1.54,0.41-2.28,1.23c-0.74,0.82-1.37,1.95-1.9,3.39v18.7h-2.28v-26.33h1.76L503.59,528.72z"/>
		<path id="experience-letter-c" d="M526.23,524.37c0.68,0,1.32,0.13,1.94,0.4c0.62,0.27,1.15,0.64,1.59,1.12v3.57
			c-0.62-0.44-1.19-0.78-1.71-1s-1.05-0.33-1.59-0.33c-0.57,0-1.13,0.18-1.69,0.53c-0.56,0.35-1.06,0.93-1.5,1.73
			c-0.44,0.8-0.8,1.87-1.07,3.19c-0.27,1.32-0.4,2.96-0.4,4.92c0,1.42,0.1,2.73,0.3,3.94c0.2,1.2,0.5,2.24,0.9,3.12
			c0.4,0.88,0.89,1.56,1.49,2.05s1.29,0.73,2.07,0.73c0.57,0,1.14-0.12,1.72-0.35c0.58-0.23,1.14-0.56,1.69-0.98v3.57
			c-0.17,0.18-0.38,0.37-0.65,0.55s-0.57,0.35-0.89,0.48s-0.67,0.25-1.03,0.33s-0.73,0.12-1.09,0.12c-0.94,0-1.83-0.27-2.67-0.8
			c-0.84-0.54-1.57-1.36-2.2-2.47c-0.63-1.11-1.12-2.51-1.48-4.21c-0.36-1.7-0.54-3.71-0.54-6.04c0-1.74,0.1-3.3,0.29-4.68
			c0.19-1.39,0.45-2.61,0.79-3.66s0.72-1.95,1.17-2.69c0.45-0.74,0.92-1.34,1.43-1.82c0.5-0.47,1.03-0.81,1.57-1.03
			C525.2,524.47,525.72,524.37,526.23,524.37z"/>
		<path id="experience-letter-e-4" d="M543.04,548.33c0.75,0,1.44-0.12,2.07-0.35c0.62-0.23,1.24-0.56,1.86-0.98v3.57
			c-0.5,0.46-1.12,0.83-1.85,1.09c-0.73,0.27-1.52,0.4-2.37,0.4c-1,0-1.94-0.24-2.81-0.72c-0.88-0.48-1.64-1.26-2.28-2.33
			s-1.14-2.47-1.51-4.2c-0.36-1.73-0.54-3.81-0.54-6.25c0-2.4,0.18-4.48,0.53-6.25c0.35-1.76,0.82-3.24,1.41-4.42
			c0.59-1.18,1.26-2.07,2.02-2.66c0.76-0.59,1.56-0.89,2.39-0.89c0.78,0,1.51,0.25,2.19,0.73s1.27,1.26,1.77,2.31
			c0.5,1.05,0.89,2.41,1.18,4.07c0.29,1.66,0.43,3.66,0.43,5.99c0,0.22,0,0.41,0,0.57c0,0.16-0.01,0.51-0.01,1.07h-9.64
			c0,1.68,0.13,3.11,0.4,4.28s0.64,2.12,1.1,2.85c0.47,0.73,1.01,1.26,1.64,1.59C541.64,548.17,542.32,548.33,543.04,548.33z
			 M541.84,528.05c-0.53,0-1.01,0.19-1.47,0.58c-0.45,0.39-0.85,0.91-1.18,1.58c-0.34,0.67-0.61,1.45-0.82,2.34
			c-0.21,0.9-0.34,1.85-0.39,2.87h7.14c0-1.03-0.07-2-0.22-2.9c-0.14-0.9-0.35-1.68-0.63-2.34c-0.28-0.67-0.62-1.19-1.03-1.57
			C542.85,528.24,542.38,528.05,541.84,528.05z"/>
	</g>
	<g id="explored-letters">
		<path id="explored-letter-e-1" d="M570.01,548.33c0.75,0,1.44-0.12,2.07-0.35c0.62-0.23,1.24-0.56,1.86-0.98v3.57
			c-0.5,0.46-1.12,0.83-1.85,1.09c-0.73,0.27-1.52,0.4-2.37,0.4c-1,0-1.94-0.24-2.81-0.72c-0.88-0.48-1.64-1.26-2.28-2.33
			s-1.14-2.47-1.51-4.2c-0.36-1.73-0.54-3.81-0.54-6.25c0-2.4,0.18-4.48,0.53-6.25c0.35-1.76,0.82-3.24,1.41-4.42
			c0.59-1.18,1.26-2.07,2.02-2.66c0.76-0.59,1.56-0.89,2.39-0.89c0.78,0,1.51,0.25,2.19,0.73s1.27,1.26,1.77,2.31
			c0.5,1.05,0.89,2.41,1.18,4.07c0.29,1.66,0.43,3.66,0.43,5.99c0,0.22,0,0.41,0,0.57c0,0.16-0.01,0.51-0.01,1.07h-9.64
			c0,1.68,0.13,3.11,0.4,4.28s0.64,2.12,1.1,2.85c0.47,0.73,1.01,1.26,1.64,1.59C568.61,548.17,569.28,548.33,570.01,548.33z
			 M568.81,528.05c-0.53,0-1.01,0.19-1.47,0.58c-0.45,0.39-0.85,0.91-1.18,1.58c-0.34,0.67-0.61,1.45-0.82,2.34
			c-0.21,0.9-0.34,1.85-0.39,2.87h7.14c0-1.03-0.07-2-0.22-2.9c-0.14-0.9-0.35-1.68-0.63-2.34c-0.28-0.67-0.62-1.19-1.03-1.57
			C569.81,528.24,569.34,528.05,568.81,528.05z"/>
		<path id="explored-letter-x" d="M586.04,535.2l3.79-10.14h2.51l-5.1,13.02l5.29,13.3h-2.47l-4.09-10.53h-0.06l-4.03,10.53h-2.47
			l5.29-13.41l-5.1-12.91h2.51l3.85,10.14H586.04z"/>
		<path id="explored-letter-p" d="M610.39,537.92c0,1.83-0.1,3.45-0.29,4.86c-0.19,1.41-0.45,2.65-0.76,3.7
			c-0.32,1.05-0.68,1.93-1.11,2.65c-0.42,0.71-0.86,1.28-1.31,1.72c-0.45,0.43-0.91,0.75-1.38,0.94c-0.47,0.19-0.91,0.29-1.32,0.29
			c-0.86,0-1.6-0.26-2.23-0.79c-0.63-0.53-1.2-1.31-1.7-2.34h-0.04v15.32h-2.23v-39.21h1.72l0.49,2.99h0.04
			c0.13-0.37,0.29-0.73,0.49-1.08c0.2-0.35,0.47-0.72,0.81-1.12c0.34-0.4,0.75-0.74,1.22-1.04c0.48-0.29,0.99-0.44,1.55-0.44
			c0.78,0,1.54,0.25,2.27,0.75c0.73,0.5,1.38,1.29,1.93,2.38c0.56,1.09,1.01,2.49,1.34,4.2
			C610.22,533.4,610.39,535.48,610.39,537.92z M608.01,537.97c0-1.53-0.09-2.91-0.26-4.13c-0.17-1.22-0.43-2.26-0.78-3.12
			c-0.34-0.86-0.77-1.52-1.27-1.98c-0.5-0.46-1.08-0.69-1.74-0.69c-0.47,0-0.9,0.12-1.29,0.36c-0.39,0.24-0.74,0.54-1.06,0.91
			c-0.32,0.37-0.59,0.77-0.81,1.19c-0.23,0.43-0.41,0.8-0.55,1.14v13.77c0.48,0.92,1.03,1.65,1.65,2.19c0.62,0.54,1.28,0.8,1.99,0.8
			c0.43,0,0.89-0.15,1.37-0.46c0.48-0.3,0.93-0.85,1.34-1.64c0.41-0.78,0.75-1.85,1.01-3.2
			C607.87,541.78,608.01,540.06,608.01,537.97z"/>
		<path id="explored-letter-l" d="M617.12,551.38v-40.12h2.28v40.12H617.12z"/>
		<path id="explored-letter-o" d="M639.38,538.25c0,2.07-0.16,3.95-0.47,5.65c-0.31,1.7-0.76,3.15-1.33,4.36
			c-0.57,1.21-1.27,2.15-2.08,2.81s-1.72,1-2.73,1c-1.04,0-1.97-0.33-2.79-1c-0.82-0.67-1.51-1.6-2.09-2.81s-1.01-2.67-1.32-4.36
			c-0.3-1.7-0.46-3.58-0.46-5.65c0-2.09,0.16-3.98,0.47-5.68c0.31-1.7,0.76-3.16,1.33-4.38c0.57-1.22,1.27-2.16,2.09-2.83
			c0.82-0.67,1.73-1,2.74-1c1.03,0,1.96,0.33,2.78,1s1.52,1.61,2.09,2.83c0.57,1.22,1,2.68,1.31,4.38
			C639.23,534.27,639.38,536.16,639.38,538.25z M637,538.25c0-1.62-0.11-3.07-0.32-4.34c-0.21-1.26-0.5-2.34-0.88-3.21
			c-0.38-0.88-0.83-1.54-1.34-2s-1.09-0.68-1.71-0.68c-0.62,0-1.19,0.23-1.7,0.68c-0.52,0.45-0.97,1.12-1.34,2
			c-0.38,0.88-0.67,1.95-0.88,3.21c-0.21,1.27-0.32,2.71-0.32,4.34c0,1.61,0.11,3.04,0.32,4.31c0.21,1.27,0.51,2.33,0.89,3.2
			s0.83,1.53,1.35,1.98c0.52,0.45,1.09,0.68,1.71,0.68c0.62,0,1.18-0.23,1.7-0.68c0.51-0.45,0.96-1.11,1.34-1.98
			c0.38-0.87,0.67-1.94,0.88-3.2C636.89,541.29,637,539.86,637,538.25z"/>
		<path id="explored-letter-r" d="M653.62,528.55h-0.18c-0.54,0-1.07,0.09-1.59,0.28c-0.52,0.19-1.01,0.47-1.46,0.85
			c-0.46,0.38-0.87,0.84-1.23,1.4c-0.37,0.55-0.67,1.21-0.92,1.97v18.34h-2.28v-26.33h1.76l0.44,4.18h0.04
			c0.23-0.68,0.5-1.32,0.83-1.91c0.33-0.59,0.7-1.11,1.11-1.55c0.41-0.44,0.86-0.79,1.35-1.04c0.49-0.25,1-0.37,1.54-0.37
			c0.1,0,0.2,0,0.3,0.01c0.1,0.01,0.19,0.02,0.27,0.04V528.55z"/>
		<path id="explored-letter-e-2" d="M665.65,548.33c0.75,0,1.44-0.12,2.07-0.35c0.62-0.23,1.24-0.56,1.86-0.98v3.57
			c-0.5,0.46-1.12,0.83-1.85,1.09c-0.73,0.27-1.52,0.4-2.37,0.4c-1,0-1.94-0.24-2.81-0.72c-0.88-0.48-1.64-1.26-2.28-2.33
			s-1.14-2.47-1.51-4.2c-0.36-1.73-0.54-3.81-0.54-6.25c0-2.4,0.18-4.48,0.53-6.25c0.35-1.76,0.82-3.24,1.41-4.42
			c0.59-1.18,1.26-2.07,2.02-2.66c0.76-0.59,1.56-0.89,2.39-0.89c0.78,0,1.51,0.25,2.19,0.73s1.27,1.26,1.77,2.31
			c0.5,1.05,0.89,2.41,1.18,4.07c0.29,1.66,0.43,3.66,0.43,5.99c0,0.22,0,0.41,0,0.57c0,0.16-0.01,0.51-0.01,1.07h-9.64
			c0,1.68,0.13,3.11,0.4,4.28s0.64,2.12,1.1,2.85c0.47,0.73,1.01,1.26,1.64,1.59C664.25,548.17,664.93,548.33,665.65,548.33z
			 M664.45,528.05c-0.53,0-1.01,0.19-1.47,0.58c-0.45,0.39-0.85,0.91-1.18,1.58c-0.34,0.67-0.61,1.45-0.82,2.34
			c-0.21,0.9-0.34,1.85-0.39,2.87h7.14c0-1.03-0.07-2-0.22-2.9c-0.14-0.9-0.35-1.68-0.63-2.34c-0.28-0.67-0.62-1.19-1.03-1.57
			C665.46,528.24,664.99,528.05,664.45,528.05z"/>
		<path id="explored-letter-d" d="M676.17,538.55c0-1.83,0.1-3.45,0.29-4.86c0.19-1.41,0.44-2.65,0.76-3.7s0.68-1.93,1.1-2.65
			c0.42-0.71,0.86-1.29,1.31-1.73c0.45-0.44,0.91-0.76,1.37-0.96c0.46-0.19,0.9-0.29,1.32-0.29c0.85,0,1.59,0.27,2.22,0.8
			s1.19,1.32,1.69,2.36h0.04v-16.27h2.28v40.12h-1.72l-0.47-2.94h-0.06c-0.18,0.43-0.38,0.85-0.62,1.29
			c-0.23,0.43-0.51,0.83-0.83,1.18c-0.32,0.35-0.69,0.63-1.1,0.84c-0.42,0.21-0.9,0.32-1.45,0.32c-0.76,0-1.51-0.25-2.25-0.73
			c-0.73-0.49-1.39-1.27-1.96-2.35c-0.57-1.08-1.04-2.48-1.39-4.18C676.35,543.09,676.17,541.01,676.17,538.55z M678.55,538.5
			c0,1.52,0.09,2.89,0.27,4.12c0.18,1.23,0.44,2.27,0.79,3.13c0.34,0.86,0.76,1.52,1.26,1.98c0.5,0.46,1.07,0.69,1.72,0.69
			c0.48,0,0.92-0.12,1.31-0.36s0.74-0.54,1.05-0.91c0.31-0.37,0.57-0.76,0.79-1.18c0.22-0.42,0.39-0.8,0.52-1.15v-13.77
			c-0.47-0.9-1.01-1.63-1.63-2.17s-1.28-0.82-2-0.82c-0.43,0-0.88,0.15-1.36,0.46c-0.48,0.3-0.92,0.85-1.32,1.65
			c-0.41,0.79-0.74,1.86-1.01,3.2S678.55,536.41,678.55,538.5z"/>
		<path id="dash-line_1_" d="M695.64,535.56h6.48v4.02h-6.48V535.56z"/>
	</g>
</g>
<g>
</g>
<g>
</g>
<g>
</g>
<g>
</g>
<g>
</g>
<g>
</g>
</svg>
