<?xml version="1.0" standalone="no"?>
<!DOCTYPE svg PUBLIC "-//W3C//DTD SVG 20010904//EN"
 "http://www.w3.org/TR/2001/REC-SVG-20010904/DTD/svg10.dtd">
<svg version="1.0" xmlns="http://www.w3.org/2000/svg"
 width="900.000000pt" height="487.000000pt" viewBox="0 0 300.000000 187.000000"
 preserveAspectRatio="xMidYMid meet">
<metadata>
Created by potrace 1.10, written by Peter Selinger 2001-2011
</metadata>
<g transform="translate(0.000000,187.000000) scale(0.050000,-0.050000)"
fill="#000000" stroke="none">
<path d="M0 1870 l0 -1870 3000 0 3000 0 0 1870 0 1870 -3000 0 -3000 0 0
-1870z m1716 1800 c-3 -3 -91 -34 -196 -69 -626 -207 -1174 -755 -1381 -1381
-35 -104 -66 -193 -69 -196 -3 -4 -2 365 2 820 4 454 8 826 8 826 0 0 370 1
821 3 452 2 819 0 815 -3z m544 -1090 l0 -1100 -1099 0 -1099 0 11 105 c115
1145 941 1980 2057 2081 44 4 91 9 105 11 20 2 25 -229 25 -1097z m500 1058
c1691 -190 3089 -1698 3164 -3414 l6 -146 -1795 0 -1796 0 0 1791 c0 985 1
1794 1 1798 0 9 199 -5 420 -29z m3166 -1433 c4 -800 5 -1446 1 -1435 -3 11
-33 124 -65 250 -319 1242 -1367 2282 -2612 2590 -121 30 -222 57 -225 59 -3
2 647 1 1444 -3 l1450 -7 7 -1454z m-4520 -1467 c-3 -365 -7 -666 -11 -669
-16 -16 -352 58 -456 100 -453 184 -790 615 -857 1096 -10 69 -15 130 -12 135
4 6 306 8 673 6 l667 -4 -4 -664z m853 557 l0 -125 -44 59 c-44 59 -88 102
-165 160 -37 28 -31 30 85 30 l125 1 -1 -125z m-559 5 l0 -100 -110 0 c-119 0
-121 1 -88 66 76 152 198 173 198 34z m228 72 c147 -61 287 -231 321 -387 l14
-65 -251 0 -252 0 0 240 0 240 51 0 c27 0 81 -13 117 -28z m-228 -354 c0 -116
-25 -125 -120 -45 -59 49 -103 123 -90 147 4 6 52 7 108 3 l102 -7 0 -98z
m-1591 -113 c65 -265 436 -650 746 -776 58 -24 111 -49 118 -55 7 -7 -193 -10
-444 -6 l-455 6 -6 454 c-6 416 6 521 41 377z m2151 -90 c-3 -286 -309 -648
-605 -715 -58 -13 -121 -28 -140 -33 -32 -9 -35 19 -35 382 l0 391 390 0 c299
0 390 -6 390 -25z m-7 -748 c-4 -5 -110 -6 -235 -3 l-228 6 110 62 c125 71
264 212 315 321 l35 73 6 -226 c3 -124 2 -229 -3 -233z"/>
</g>
</svg>
