<?xml version="1.0" standalone="no"?>
<!DOCTYPE svg PUBLIC "-//W3C//DTD SVG 20010904//EN"
 "http://www.w3.org/TR/2001/REC-SVG-20010904/DTD/svg10.dtd">
<svg version="1.0" xmlns="http://www.w3.org/2000/svg"
 width="1000.000000pt" height="1001.000000pt" viewBox="0 0 300.000000 301.000000"
 preserveAspectRatio="xMidYMid meet">
<metadata>
Created by potrace 1.10, written by Peter Selinger 2001-2011
</metadata>
<g transform="translate(0.000000,301.000000) scale(0.100000,-0.100000)"
fill="#000000" stroke="none">
<path d="M1340 2999 c-314 -29 -624 -173 -864 -401 -343 -324 -507 -758 -466
-1232 57 -658 534 -1195 1188 -1338 79 -17 133 -21 292 -22 213 -1 283 8 444
56 570 169 997 682 1057 1271 14 141 5 362 -20 482 -76 355 -282 677 -576 898
-98 74 -307 182 -425 221 -180 59 -427 85 -630 65z m376 -24 c384 -57 744
-273 977 -586 299 -403 373 -936 196 -1409 -155 -413 -501 -748 -912 -885
-713 -237 -1471 79 -1802 750 -64 129 -99 231 -132 388 -27 126 -25 427 5 563
116 535 481 949 985 1119 75 25 235 60 307 68 91 10 283 5 376 -8z"/>
<path d="M1400 2944 c-458 -39 -852 -272 -1099 -648 -288 -440 -316 -992 -74
-1457 200 -386 557 -659 983 -750 140 -30 429 -33 560 -6 302 64 567 210 772
426 187 196 311 433 370 704 32 148 32 437 0 584 -142 653 -693 1120 -1352
1146 -63 3 -135 3 -160 1z m-40 -26 c-14 -6 -48 -21 -75 -33 -53 -23 -162
-116 -184 -158 -10 -20 -23 -25 -64 -30 -70 -7 -156 -38 -213 -78 -54 -37
-131 -114 -139 -139 -4 -13 -21 -19 -69 -23 -78 -7 -134 -28 -210 -80 l-60
-40 34 44 c19 24 78 87 131 140 203 201 459 334 749 388 123 22 134 23 100 9z
m130 3 c0 -17 -91 -109 -138 -140 -76 -49 -242 -97 -242 -71 0 5 26 36 59 69
67 67 155 115 251 135 36 8 66 15 68 15 1 1 2 -3 2 -8z m153 -22 c34 -11 78
-30 97 -42 44 -27 115 -92 142 -130 l21 -30 -39 7 c-129 23 -231 78 -304 166
l-42 50 31 0 c18 0 60 -9 94 -21z m144 0 c288 -62 509 -184 724 -398 140 -140
185 -200 100 -133 -61 49 -145 82 -223 89 -32 3 -58 9 -58 14 0 5 -28 38 -61
74 -74 78 -170 130 -276 148 -68 12 -72 14 -112 65 -50 63 -118 115 -186 141
-67 27 -31 27 92 0z m-250 -52 c27 -78 24 -242 -7 -321 l-23 -59 -13 26 c-20
38 -44 145 -44 199 0 84 39 226 60 213 4 -3 17 -29 27 -58z m157 -109 c23 -12
61 -26 86 -33 l45 -11 -55 -18 c-72 -24 -135 -61 -183 -109 -32 -32 -38 -35
-31 -15 27 86 31 167 11 245 l-14 52 51 -45 c27 -25 68 -55 90 -66z m-251 50
c-15 -57 -12 -174 7 -223 10 -25 7 -24 -37 15 -55 49 -106 76 -182 100 l-54
17 40 6 c54 9 151 59 193 100 19 19 38 35 41 36 3 0 0 -23 -8 -51z m-373 -108
c0 -18 -90 -108 -139 -140 -74 -47 -231 -94 -231 -68 0 5 28 38 63 72 69 69
144 110 241 131 33 7 62 14 64 14 1 1 2 -4 2 -9z m180 -25 c25 -8 62 -26 84
-39 41 -24 156 -134 156 -148 0 -22 -148 19 -226 63 -49 28 -154 128 -154 147
0 11 74 -1 140 -23z m620 -12 c-44 -52 -105 -100 -162 -129 -46 -23 -176 -59
-184 -51 -8 8 88 108 134 139 53 37 164 77 211 78 l33 0 -32 -37z m213 7 c31
-12 78 -36 104 -54 46 -32 130 -122 122 -131 -9 -8 -137 24 -180 46 -66 33
-130 82 -168 130 l-35 42 50 -6 c27 -3 75 -15 107 -27z m-968 -30 c26 -77 35
-164 24 -233 -10 -69 -36 -147 -49 -147 -26 0 -65 183 -55 259 8 59 44 171 55
171 5 0 16 -22 25 -50z m830 -15 c34 -103 30 -222 -12 -333 -16 -43 -17 -44
-29 -20 -21 40 -44 143 -44 196 0 89 41 236 60 216 4 -5 16 -31 25 -59z m-915
-40 c-13 -40 -9 -215 5 -250 5 -12 -11 -2 -41 26 -50 46 -133 91 -193 104 -33
7 -33 7 33 29 67 23 170 86 189 118 17 27 20 13 7 -27z m253 -65 c33 -16 75
-33 95 -36 l35 -7 -56 -17 c-69 -21 -134 -59 -182 -105 -37 -34 -37 -34 -28
-7 10 35 11 219 0 254 -8 25 -7 25 34 -13 23 -21 69 -53 102 -69z m577 80
c-19 -36 -23 -168 -7 -227 l14 -52 -46 41 c-53 46 -104 74 -181 99 -39 13 -47
18 -29 18 40 1 179 75 218 115 37 39 50 41 31 6z m263 -86 c39 -19 83 -34 97
-35 18 -1 12 -4 -20 -13 -67 -19 -139 -59 -194 -107 -32 -28 -47 -37 -41 -24
28 68 29 210 0 280 -6 13 9 4 39 -23 26 -24 79 -59 119 -78z m-1481 -82 c-38
-52 -113 -113 -176 -143 -60 -28 -173 -56 -183 -45 -3 3 11 26 31 51 43 52
130 114 196 139 42 16 140 36 149 30 2 -2 -6 -16 -17 -32z m198 2 c64 -24 144
-79 190 -131 22 -25 40 -49 40 -53 0 -9 -88 7 -142 26 -63 22 -133 70 -183
126 -25 28 -45 54 -45 58 0 10 84 -6 140 -26z m650 27 c0 -23 -131 -135 -195
-167 -66 -32 -185 -60 -185 -44 0 17 93 110 138 139 67 42 126 63 235 80 4 0
7 -3 7 -8z m135 -13 c53 -13 121 -49 171 -90 45 -36 109 -106 103 -112 -11
-11 -122 19 -184 49 -64 31 -161 113 -187 159 -10 17 9 16 97 -6z m666 -17
c-66 -83 -149 -139 -241 -164 -80 -22 -120 -28 -120 -18 0 5 27 37 61 70 86
86 179 130 322 150 5 0 -5 -17 -22 -38z m201 3 c63 -22 133 -70 183 -126 25
-28 45 -54 45 -58 0 -15 -107 12 -178 45 -50 24 -92 54 -133 94 -32 33 -59 64
-59 69 0 11 81 -2 142 -24z m-941 -111 c6 -32 9 -87 6 -123 -6 -71 -38 -176
-53 -173 -15 3 -45 104 -51 173 -6 69 6 145 34 219 l17 45 18 -42 c10 -23 23
-68 29 -99z m-847 87 c26 -64 36 -166 26 -242 -10 -71 -37 -148 -51 -148 -19
0 -50 135 -51 217 0 81 32 213 52 213 4 0 15 -18 24 -40z m1651 -9 c28 -84 36
-165 25 -236 -11 -68 -37 -145 -49 -145 -18 0 -44 103 -48 192 -5 83 -2 108
17 168 12 38 26 70 30 70 5 0 16 -22 25 -49z m-1735 -58 c-12 -41 -9 -196 5
-243 l7 -25 -16 22 c-25 34 -132 101 -191 119 l-54 17 56 19 c64 22 155 79
181 113 23 31 26 25 12 -22z m252 -62 c33 -17 76 -33 95 -37 l34 -6 -63 -22
c-73 -24 -159 -76 -190 -115 l-21 -26 9 30 c11 37 12 220 1 258 -7 27 -6 26
34 -12 22 -22 68 -54 101 -70z m578 83 c-24 -63 -22 -199 5 -269 6 -14 -3 -9
-31 16 -60 55 -100 79 -171 104 -65 23 -65 23 -31 30 52 12 139 59 188 103 25
23 46 41 47 42 1 0 -2 -12 -7 -26z m224 -69 c26 -15 72 -35 103 -45 l56 -17
-34 -7 c-56 -10 -151 -60 -203 -107 -32 -29 -47 -37 -42 -24 29 70 33 163 13
243 l-14 52 37 -34 c21 -19 59 -46 84 -61z m597 48 c-15 -52 -13 -180 3 -225
8 -21 13 -38 11 -38 -1 0 -21 18 -45 40 -48 45 -144 96 -196 106 -35 6 -34 7
33 30 73 25 168 85 184 116 16 30 22 14 10 -29z m256 -61 c32 -16 74 -33 93
-37 l34 -8 -56 -17 c-71 -22 -132 -57 -181 -105 l-38 -37 8 29 c10 37 10 220
0 257 l-8 30 44 -42 c25 -22 72 -54 104 -70z m-2108 -84 c75 -25 142 -70 201
-135 28 -31 50 -57 48 -58 -2 -2 -30 1 -63 6 -91 14 -196 70 -266 142 -32 33
-59 63 -59 68 0 11 78 -2 139 -23z m651 23 c0 -17 -91 -109 -138 -140 -75 -48
-232 -94 -232 -68 0 21 128 135 180 162 29 15 80 33 114 40 77 17 76 17 76 6z
m150 -13 c74 -23 153 -71 210 -128 33 -33 60 -64 60 -68 0 -16 -115 9 -179 39
-75 34 -135 81 -182 140 l-33 41 45 -7 c24 -3 60 -11 79 -17z m671 4 c-16 -29
-113 -117 -161 -144 -64 -37 -210 -77 -210 -58 0 4 27 34 59 67 69 69 156 119
244 138 81 18 79 18 68 -3z m159 -9 c92 -25 196 -97 252 -176 l20 -28 -38 6
c-138 23 -265 98 -335 197 l-20 28 33 -6 c18 -3 58 -13 88 -21z m670 21 c0
-16 -67 -88 -120 -128 -74 -55 -250 -115 -250 -85 0 6 28 39 63 73 81 82 172
126 300 145 4 0 7 -2 7 -5z m-2409 -144 c6 -34 9 -89 6 -124 -6 -68 -38 -171
-52 -171 -18 0 -47 101 -52 181 -6 82 6 155 35 224 l15 35 18 -42 c10 -23 23
-70 30 -103z m1645 21 c11 -50 15 -95 11 -140 -6 -72 -38 -177 -53 -174 -5 1
-18 26 -28 55 -30 80 -28 243 3 322 23 58 24 59 37 35 7 -13 21 -57 30 -98z
m814 41 c29 -93 29 -201 0 -292 -12 -39 -26 -70 -31 -70 -19 0 -49 133 -49
221 0 90 32 225 51 213 5 -3 18 -35 29 -72z m-1649 -3 c18 -59 21 -87 16 -168
-4 -90 -30 -191 -49 -191 -9 0 -43 111 -52 171 -11 76 28 259 55 259 5 0 18
-32 30 -71z m946 -74 c24 -15 70 -37 104 -50 l62 -22 -34 -7 c-59 -11 -137
-53 -191 -103 -32 -30 -49 -40 -44 -28 22 57 29 137 19 203 -6 37 -15 76 -19
87 -5 13 5 7 27 -16 19 -20 53 -48 76 -64z m-1625 -16 c23 -12 67 -30 97 -39
l54 -17 -36 -6 c-56 -9 -142 -54 -198 -105 -34 -30 -50 -40 -45 -27 30 76 30
210 1 280 -6 13 8 5 37 -22 25 -23 66 -52 90 -64z m587 56 c-11 -40 -7 -203 6
-242 6 -19 1 -17 -30 12 -48 46 -113 84 -182 105 l-56 17 49 12 c61 16 140 60
185 104 19 19 35 34 36 33 1 -1 -2 -19 -8 -41z m263 -67 c29 -14 69 -29 88
-33 l35 -8 -45 -11 c-66 -17 -132 -53 -188 -102 l-49 -43 14 42 c15 43 14 194
-3 247 -7 22 -1 19 44 -21 28 -25 75 -57 104 -71z m562 60 c-21 -80 -17 -172
12 -243 5 -13 -8 -6 -37 21 -60 54 -123 90 -187 107 l-53 13 58 17 c59 16 162
77 198 116 10 12 19 21 20 21 1 0 -4 -23 -11 -52z m825 7 c-12 -43 -7 -207 6
-240 6 -13 -8 -5 -41 22 -52 44 -165 103 -199 104 -11 0 7 10 40 22 65 25 135
69 174 111 14 14 26 25 27 23 2 -2 -1 -21 -7 -42z m165 -112 c53 -165 67 -244
73 -418 4 -124 2 -184 -11 -268 -16 -97 -78 -322 -94 -339 -4 -4 -7 39 -7 95
-1 89 -4 109 -28 160 l-27 59 19 36 c50 99 54 269 9 380 l-26 63 26 57 c24 51
27 69 27 169 0 62 1 113 2 113 1 0 18 -48 37 -107z m-2651 37 c-7 -67 9 -159
38 -227 20 -47 20 -47 0 -94 -51 -117 -51 -266 1 -381 23 -52 23 -54 5 -89
-27 -56 -49 -177 -42 -231 4 -27 4 -48 1 -48 -9 0 -74 213 -92 305 -26 132
-24 406 4 535 21 96 79 290 87 290 3 0 2 -27 -2 -60z m467 -49 c0 -4 -18 -29
-40 -54 -46 -52 -125 -107 -190 -131 -54 -20 -150 -36 -150 -25 0 4 28 36 63
71 71 70 147 113 241 133 77 17 76 17 76 6z m168 -22 c73 -25 141 -70 199
-132 45 -49 47 -52 25 -55 -39 -6 -154 35 -218 76 -52 34 -134 116 -134 135 0
9 70 -4 128 -24z m643 3 c-26 -37 -97 -102 -141 -129 -70 -43 -220 -80 -220
-55 0 4 26 34 58 66 79 80 204 139 305 145 17 1 17 -1 -2 -27z m187 -3 c72
-24 163 -88 211 -148 18 -23 32 -43 30 -45 -9 -8 -135 25 -185 48 -53 24 -165
121 -186 160 -9 17 -7 18 28 12 22 -4 67 -16 102 -27z m632 -9 c-46 -58 -107
-105 -181 -139 -64 -30 -179 -55 -179 -40 0 22 130 138 183 164 59 28 142 53
185 54 23 1 23 0 -8 -39z m139 25 c92 -22 172 -68 238 -139 53 -56 56 -61 35
-64 -39 -6 -156 36 -220 78 -51 35 -132 116 -132 134 0 8 7 8 79 -9z m-1699
-154 c6 -43 6 -89 0 -126 -11 -68 -38 -155 -49 -155 -12 0 -42 94 -50 157 -11
74 3 181 30 241 l21 47 19 -48 c11 -27 24 -79 29 -116z m815 53 c26 -99 14
-231 -27 -309 l-16 -29 -15 35 c-49 117 -49 234 0 368 l16 44 13 -26 c8 -14
21 -52 29 -83z m835 -49 c7 -44 7 -85 1 -127 -12 -70 -39 -158 -50 -158 -17 0
-43 102 -48 187 -6 93 3 151 33 222 l16 36 19 -47 c10 -26 23 -77 29 -113z
m-930 61 c-24 -65 -22 -202 5 -271 5 -12 -9 -3 -36 23 -46 45 -170 112 -208
112 -12 0 -19 4 -16 10 3 6 15 10 27 10 36 0 142 58 188 102 25 24 46 42 48
42 1 -1 -2 -13 -8 -28z m-831 -21 c-11 -40 -7 -201 6 -242 5 -17 -2 -13 -36
19 -46 44 -168 108 -209 109 -16 0 -2 8 40 23 75 26 133 61 174 105 16 17 31
29 32 28 2 -2 -1 -21 -7 -42z m248 -58 c26 -14 69 -30 93 -37 l45 -12 -54 -14
c-61 -16 -139 -60 -190 -108 -32 -30 -33 -30 -25 -6 11 32 12 215 1 254 l-8
30 44 -41 c25 -23 67 -53 94 -66z m798 14 c28 -18 75 -39 105 -48 l55 -17 -38
-8 c-58 -12 -135 -55 -190 -106 -42 -40 -49 -43 -42 -22 29 90 32 159 11 239
l-13 52 31 -29 c17 -17 54 -44 81 -61z m606 48 c-15 -44 -13 -186 3 -232 l14
-38 -42 38 c-56 52 -107 82 -173 103 l-55 17 49 16 c68 22 132 60 172 101 40
41 48 40 32 -5z m249 -64 c25 -13 66 -29 90 -36 l45 -12 -39 -9 c-56 -12 -134
-53 -190 -100 -42 -36 -47 -38 -40 -17 11 30 12 214 1 253 -8 28 -8 28 40 -14
26 -23 68 -52 93 -65z m-2120 -77 c70 -21 151 -72 207 -131 39 -40 53 -62 44
-65 -24 -8 -124 19 -185 50 -58 29 -158 114 -178 151 -9 18 -7 19 34 12 23 -3
59 -11 78 -17z m670 14 c0 -18 -115 -124 -165 -152 -72 -41 -205 -75 -205 -52
0 20 115 122 169 151 81 43 201 74 201 53z m183 -22 c71 -27 141 -76 193 -134
l47 -51 -27 -3 c-45 -6 -159 35 -225 79 -55 37 -131 114 -131 134 0 11 88 -4
143 -25z m628 2 c-33 -46 -106 -109 -158 -135 -61 -31 -156 -59 -185 -55 -20
3 -16 10 42 68 36 36 88 78 116 93 53 27 141 55 182 56 l23 1 -20 -28z m194
-2 c33 -11 86 -40 119 -64 63 -48 122 -113 112 -124 -11 -11 -116 16 -182 47
-64 30 -138 91 -176 144 l-22 30 45 -7 c24 -3 71 -15 104 -26z m619 -16 c-72
-87 -187 -153 -298 -169 -45 -7 -47 -6 -38 11 19 36 118 122 170 148 55 28
141 54 180 55 22 1 21 -1 -14 -45z m-2380 -122 c12 -83 0 -171 -31 -243 l-20
-44 -23 60 c-20 50 -24 78 -24 165 0 87 4 115 24 165 l23 60 20 -45 c11 -25
25 -78 31 -118z m806 88 c31 -95 31 -205 0 -300 -12 -38 -26 -70 -30 -70 -18
0 -54 146 -54 220 0 74 36 220 54 220 4 0 18 -32 30 -70z m836 -42 c21 -80 14
-191 -16 -272 l-23 -59 -13 26 c-49 93 -55 251 -14 361 l23 59 13 -26 c8 -14
21 -54 30 -89z m833 -44 c6 -37 6 -90 1 -125 -9 -64 -39 -159 -51 -159 -3 0
-15 26 -25 58 -14 42 -19 86 -19 172 0 100 3 122 23 165 l24 50 19 -48 c11
-27 23 -78 28 -113z m-935 36 c-21 -80 -18 -151 10 -238 7 -20 1 -17 -34 17
-46 45 -169 111 -206 111 -13 0 -24 5 -24 10 0 6 11 10 24 10 37 0 161 67 203
109 21 22 39 38 40 38 1 -1 -5 -27 -13 -57z m196 -20 c32 -21 83 -47 114 -58
66 -22 79 -32 44 -32 -39 0 -161 -65 -209 -112 -24 -24 -39 -33 -35 -22 29 72
29 202 1 289 -5 17 -4 17 11 -3 10 -13 43 -41 74 -62z m-1610 -28 c19 -11 62
-28 95 -38 l60 -18 -38 -8 c-63 -13 -143 -56 -198 -106 -44 -39 -51 -43 -44
-22 28 88 32 159 12 237 l-14 51 46 -37 c25 -21 62 -47 81 -59z m589 60 c-12
-36 -8 -215 6 -247 6 -13 -9 -5 -39 22 -53 47 -139 92 -192 100 -35 6 -37 23
-2 23 33 0 142 57 189 99 24 21 45 38 47 37 1 -2 -3 -17 -9 -34z m264 -73 c34
-16 72 -29 85 -29 12 0 22 -4 22 -10 0 -5 -10 -10 -22 -10 -37 0 -139 -54
-191 -100 -47 -42 -48 -42 -40 -14 10 38 10 211 0 248 -8 30 -8 30 38 -13 25
-23 74 -56 108 -72z m1386 66 c-12 -43 -7 -207 7 -240 5 -13 -9 -5 -41 23 -52
46 -159 102 -194 102 -12 0 -21 5 -21 10 0 6 11 10 24 10 35 0 159 67 197 106
18 18 34 32 36 31 1 -2 -2 -21 -8 -42z m-2019 -125 c0 -21 -122 -130 -174
-155 -58 -28 -147 -55 -184 -55 -22 0 -22 2 14 45 63 77 192 151 294 168 44 8
50 7 50 -3z m165 -17 c28 -9 79 -35 115 -59 64 -41 138 -119 126 -131 -11 -11
-120 19 -184 50 -59 28 -182 136 -182 159 0 11 56 2 125 -19z m645 -2 c-54
-76 -164 -149 -265 -176 -114 -29 -120 -19 -37 63 83 82 201 139 295 141 l28
1 -21 -29z m151 13 c90 -27 150 -63 219 -132 73 -73 70 -82 -19 -62 -104 23
-224 100 -281 181 l-21 29 24 0 c13 0 48 -7 78 -16z m706 8 c24 -15 55 -136
56 -217 1 -83 -36 -231 -54 -219 -5 2 -18 34 -29 70 -24 80 -26 196 -4 274 8
30 18 64 21 75 3 12 -14 -1 -43 -32 -27 -29 -73 -68 -103 -88 -60 -39 -175
-78 -218 -73 -28 3 -28 3 37 69 36 36 86 77 110 89 91 47 197 71 227 52z m177
-28 c32 -13 83 -42 112 -65 55 -42 110 -106 100 -116 -9 -9 -133 24 -184 49
-47 23 -182 142 -182 160 0 15 86 0 154 -28z m-1793 -46 c31 -97 31 -200 0
-296 -27 -84 -38 -90 -123 -73 -93 20 -174 65 -246 138 -75 75 -72 83 23 63
85 -18 169 -65 240 -137 36 -35 65 -61 65 -58 0 3 -9 34 -21 68 -29 87 -29
203 1 296 12 39 26 71 30 71 4 0 18 -32 31 -72z m835 -40 c21 -80 14 -191 -16
-272 l-23 -59 -13 26 c-49 93 -55 251 -14 361 l23 59 13 -26 c8 -14 21 -54 30
-89z m-102 -8 c-20 -77 -15 -174 12 -244 4 -12 -9 -3 -32 20 -48 48 -114 87
-174 105 -55 15 -73 29 -38 29 38 0 158 64 203 109 22 21 41 38 42 38 1 -1 -5
-27 -13 -57z m-825 5 c-12 -43 -7 -207 7 -240 5 -13 -9 -5 -41 23 -51 45 -159
102 -193 102 -12 0 -24 5 -27 10 -4 6 5 10 20 10 39 0 145 53 196 99 24 21 45
38 46 37 1 -1 -2 -20 -8 -41z m232 -48 c25 -15 69 -33 99 -40 l55 -15 -45 -12
c-67 -18 -136 -56 -187 -103 l-44 -41 8 30 c10 38 10 210 0 248 l-8 29 39 -35
c22 -20 59 -47 83 -61z m745 57 c44 -41 166 -104 202 -104 13 0 20 -4 17 -10
-3 -5 -15 -10 -26 -10 -35 0 -151 -64 -196 -108 -35 -34 -43 -38 -37 -20 27
86 31 158 10 236 -7 29 -12 52 -11 52 1 0 20 -16 41 -36z m673 -9 c-11 -40 -7
-192 6 -235 7 -22 2 -20 -39 18 -50 46 -156 102 -193 102 -13 0 -23 5 -23 10
0 6 10 10 23 10 35 0 138 53 187 98 25 22 46 39 47 38 1 -1 -2 -20 -8 -41z
m242 -53 c20 -12 60 -28 90 -36 l54 -14 -45 -12 c-66 -18 -129 -52 -183 -100
-48 -42 -48 -42 -40 -14 11 39 10 223 -1 253 -7 21 -3 19 40 -16 27 -22 65
-49 85 -61z m-1441 -71 c0 -22 -125 -131 -183 -159 -64 -31 -172 -60 -183 -49
-12 11 63 92 120 132 83 57 246 107 246 76z m129 -2 c99 -22 214 -99 273 -181
l21 -31 -48 8 c-66 9 -151 42 -202 77 -45 30 -133 117 -133 130 0 11 35 10 89
-3z m670 -30 c-40 -51 -120 -111 -180 -137 -49 -21 -158 -47 -165 -39 -3 3 20
32 50 65 79 84 204 148 299 151 l29 1 -33 -41z m172 25 c90 -27 147 -62 215
-131 36 -36 63 -68 60 -71 -9 -8 -124 18 -174 39 -61 27 -141 87 -181 138
l-33 41 29 0 c16 0 54 -7 84 -16z m670 -2 c-20 -38 -124 -124 -183 -152 -61
-29 -165 -57 -175 -46 -10 10 68 94 123 132 58 40 170 83 217 84 23 0 26 -3
18 -18z m-2400 -129 c6 -32 9 -85 6 -118 -5 -67 -35 -185 -47 -185 -11 0 -36
66 -50 135 -15 73 -8 157 22 245 l21 65 19 -42 c10 -24 23 -69 29 -100z m808
75 c28 -86 35 -161 22 -233 -13 -67 -40 -145 -51 -145 -4 0 -18 33 -31 72 -30
94 -30 205 0 301 12 37 26 67 31 67 4 0 18 -28 29 -62z m838 -48 c7 -30 13
-77 13 -105 0 -56 -23 -163 -44 -202 l-13 -26 -22 59 c-40 107 -38 247 6 351
l15 37 16 -29 c8 -17 21 -55 29 -85z m832 -43 c5 -34 5 -90 1 -124 -9 -72 -39
-155 -54 -150 -21 7 -45 111 -45 198 -1 80 16 165 41 213 10 18 13 15 30 -28
10 -26 22 -75 27 -109z m-2325 -23 c38 -18 80 -34 93 -34 14 0 21 -4 18 -10
-3 -5 -14 -10 -23 -10 -35 0 -142 -60 -192 -108 -28 -27 -49 -43 -45 -34 3 8
11 46 17 84 12 66 4 156 -18 213 -4 12 10 3 37 -23 24 -24 75 -59 113 -78z
m1397 87 c-19 -35 -24 -170 -9 -227 l14 -51 -55 45 c-55 44 -127 82 -186 96
-27 7 -25 9 37 30 71 23 127 58 173 106 31 33 43 33 26 1z m230 -77 c19 -9 59
-25 88 -34 l55 -17 -55 -16 c-61 -18 -137 -63 -187 -110 l-33 -32 10 27 c26
69 24 195 -5 273 -5 13 11 3 43 -26 27 -26 65 -55 84 -65z m592 55 c-16 -54
-14 -203 2 -244 6 -13 -8 -5 -37 22 -49 45 -103 75 -183 104 -37 13 -43 18
-25 18 40 1 160 64 210 109 25 23 46 41 46 42 1 0 -5 -23 -13 -51z m-1654 2
c-12 -35 -8 -212 6 -246 5 -13 -9 -4 -39 23 -47 43 -156 102 -188 102 -37 0
-24 17 22 29 52 13 151 73 184 110 25 27 29 22 15 -18z m257 -65 c28 -14 69
-30 90 -34 l39 -9 -35 -8 c-56 -12 -148 -63 -198 -108 -30 -28 -43 -35 -38
-22 27 70 27 201 0 270 -5 13 8 6 42 -22 27 -23 72 -53 100 -67z m165 -105
c-49 -58 -125 -110 -201 -138 -71 -26 -140 -37 -140 -22 0 27 122 131 192 164
61 29 174 58 187 49 2 -2 -15 -26 -38 -53z m199 28 c76 -24 212 -126 241 -181
9 -17 6 -18 -33 -12 -63 10 -139 38 -189 70 -43 27 -149 130 -149 144 0 8 76
-4 130 -21z m878 -24 c70 -33 192 -137 192 -164 0 -26 -155 21 -231 70 -46 29
-139 122 -139 139 0 15 107 -12 178 -45z m-1868 37 c0 -22 -122 -126 -182
-157 -65 -32 -174 -63 -185 -51 -9 9 110 127 157 154 80 47 210 81 210 54z
m135 -6 c61 -16 105 -38 167 -83 46 -33 115 -110 106 -118 -9 -9 -139 25 -188
50 -53 27 -153 113 -171 147 -8 15 -6 18 13 18 13 0 46 -6 73 -14z m1506 -4
c-18 -34 -118 -120 -171 -147 -51 -26 -187 -61 -197 -51 -9 9 111 127 155 153
53 31 146 62 190 62 28 1 31 -1 23 -17z m-1590 -59 c35 -111 24 -286 -21 -353
-9 -13 -11 -13 -20 0 -23 35 -42 130 -42 205 1 81 33 215 52 215 5 0 19 -30
31 -67z m824 2 c36 -106 27 -265 -19 -353 -12 -24 -13 -23 -29 20 -48 127 -48
252 0 366 17 41 25 35 48 -33z m820 16 c28 -84 36 -165 25 -236 -11 -72 -37
-145 -51 -145 -19 0 -49 133 -49 216 0 81 31 214 51 214 4 0 15 -22 24 -49z
m-1490 -118 c33 -17 78 -35 99 -39 l40 -7 -66 -22 c-68 -23 -141 -68 -184
-113 l-25 -27 8 30 c11 40 10 223 0 257 -9 26 -7 25 30 -10 21 -20 66 -51 98
-69z m584 75 c-17 -29 -17 -212 -1 -251 12 -28 10 -27 -35 13 -55 49 -106 76
-182 100 l-54 17 36 6 c55 9 142 54 194 102 52 47 62 50 42 13z m232 -71 c24
-14 69 -33 99 -40 l54 -14 -52 -12 c-58 -14 -151 -67 -198 -112 l-31 -30 13
52 c21 81 17 172 -12 244 -5 13 8 6 37 -21 25 -23 65 -53 90 -67z m592 61
c-15 -44 -14 -193 2 -248 7 -22 3 -20 -36 17 -46 44 -140 95 -199 108 l-35 8
46 12 c61 16 142 61 193 107 22 20 42 37 42 38 1 0 -5 -19 -13 -42z m223 -54
c25 -15 70 -34 102 -44 l56 -17 -34 -8 c-55 -12 -148 -63 -197 -107 l-44 -42
8 30 c11 38 10 222 0 256 -9 27 -9 27 28 -7 20 -19 57 -47 81 -61z m-1877 47
c-12 -35 -8 -212 6 -246 6 -13 -8 -5 -37 22 -52 47 -121 85 -188 103 l-45 12
45 12 c63 17 130 52 181 96 24 21 45 37 47 36 1 -2 -3 -17 -9 -35z m-150 -166
c53 -26 91 -53 138 -101 36 -36 62 -68 60 -71 -3 -2 -34 1 -68 7 -98 18 -183
63 -256 137 -34 35 -63 68 -63 72 0 17 118 -11 189 -44z m579 7 c-31 -46 -117
-114 -179 -140 -51 -22 -158 -47 -166 -38 -18 18 104 133 181 171 48 23 176
57 185 49 2 -2 -7 -21 -21 -42z m187 17 c33 -10 77 -30 98 -42 40 -24 157
-135 157 -148 0 -21 -152 19 -219 58 -50 29 -123 93 -152 134 l-20 28 38 -5
c21 -3 65 -14 98 -25z m635 -16 c-44 -52 -105 -100 -164 -130 -46 -23 -175
-57 -184 -48 -12 12 128 139 182 165 54 27 185 63 195 54 2 -2 -11 -20 -29
-41z m249 -8 c53 -26 91 -53 138 -101 36 -36 63 -68 60 -70 -10 -11 -149 27
-206 56 -55 27 -181 139 -181 159 0 17 119 -11 189 -44z m601 46 c0 -5 -20
-31 -45 -59 -50 -56 -120 -104 -183 -126 -61 -22 -142 -35 -142 -24 0 5 26 36
58 68 66 66 157 116 246 135 34 7 62 14 64 14 1 1 2 -3 2 -8z m-761 -130 c20
-93 10 -195 -29 -285 l-17 -41 -23 60 c-34 86 -34 253 0 340 l23 60 17 -41
c10 -22 23 -64 29 -93z m-840 54 c15 -46 21 -91 21 -150 0 -81 -31 -215 -50
-215 -12 0 -40 83 -51 151 -7 42 -7 84 0 128 11 68 39 151 51 151 4 0 17 -29
29 -65z m37 -13 c20 -31 122 -95 190 -118 65 -22 65 -22 31 -28 -53 -10 -149
-61 -197 -106 -24 -22 -44 -40 -45 -40 -2 0 3 17 11 38 7 20 13 73 13 117 0
44 -6 97 -13 118 -14 39 -9 49 10 19z m698 -34 c-18 -67 -18 -139 0 -206 l13
-52 -43 40 c-46 42 -139 93 -194 105 l-35 8 42 13 c64 19 157 71 194 110 18
19 34 34 34 34 1 0 -4 -23 -11 -52z m247 -54 c29 -14 71 -32 94 -39 l40 -12
-35 -8 c-56 -12 -148 -63 -196 -107 -41 -38 -44 -39 -34 -14 25 66 22 202 -6
271 -5 13 9 5 38 -22 26 -23 70 -54 99 -69z m-1072 57 c-12 -35 -8 -212 6
-246 6 -13 -7 -6 -36 20 -57 53 -102 79 -168 101 l-53 17 56 17 c61 19 139 65
176 105 29 31 33 28 19 -14z m-615 -35 c50 -38 149 -74 214 -78 38 -2 46 -7
82 -52 76 -99 200 -170 318 -182 54 -6 59 -9 87 -51 36 -52 113 -114 179 -144
26 -11 46 -22 44 -25 -6 -5 -213 43 -288 67 -190 62 -386 184 -540 337 -103
101 -157 162 -146 162 3 0 26 -15 50 -34z m2206 4 c-43 -61 -209 -217 -296
-278 -103 -74 -274 -160 -389 -196 -80 -26 -265 -67 -265 -59 0 2 19 12 43 22
58 25 138 91 178 145 26 37 38 46 63 46 121 1 295 98 356 198 22 36 30 41 61
42 57 0 162 37 216 75 26 18 49 34 51 34 2 1 -6 -13 -18 -29z m-1780 -116 c70
-27 142 -77 188 -129 23 -26 42 -51 42 -55 0 -11 -96 9 -153 31 -27 11 -69 33
-92 49 -41 28 -125 115 -125 130 0 11 89 -6 140 -26z m650 28 c0 -4 -27 -35
-60 -68 -83 -84 -168 -127 -298 -148 l-33 -6 20 29 c37 52 121 120 186 151 52
25 89 35 178 49 4 0 7 -3 7 -7z m135 -14 c69 -17 157 -71 217 -131 32 -32 58
-63 58 -68 0 -19 -161 26 -222 64 -42 25 -134 111 -149 139 -8 16 -6 17 23 12
18 -3 51 -11 73 -16z m685 13 c0 -4 -19 -30 -42 -56 -47 -53 -120 -103 -188
-129 -53 -20 -150 -36 -150 -25 0 4 27 34 60 68 67 68 153 116 244 136 77 17
76 17 76 6z m-765 -111 c12 -46 16 -87 12 -140 -5 -78 -36 -186 -53 -183 -15
3 -45 104 -51 173 -6 69 6 145 34 218 16 43 17 44 29 20 7 -13 20 -53 29 -88z
m-95 14 c-25 -64 -22 -202 6 -269 5 -12 -12 -2 -45 27 -56 51 -142 96 -198
105 l-36 6 54 17 c76 24 127 52 179 99 25 22 46 40 47 41 1 0 -2 -12 -7 -26z
m223 -68 c32 -19 81 -40 108 -47 l49 -13 -52 -13 c-64 -17 -127 -53 -187 -107
-29 -27 -42 -34 -37 -21 29 72 33 163 12 244 l-13 52 31 -30 c17 -16 57 -45
89 -65z m-423 -99 c87 -32 159 -82 212 -149 l32 -41 -58 6 c-86 9 -194 64
-267 136 -32 33 -59 64 -59 70 0 15 69 4 140 -22z m631 5 c-29 -42 -101 -105
-152 -135 -53 -31 -149 -60 -184 -55 l-25 3 40 46 c67 78 168 137 275 159 66
13 68 13 46 -18z"/>
</g>
</svg>
