<?xml version="1.0" standalone="no"?>
<!DOCTYPE svg PUBLIC "-//W3C//DTD SVG 20010904//EN"
 "http://www.w3.org/TR/2001/REC-SVG-20010904/DTD/svg10.dtd">
<svg version="1.0" xmlns="http://www.w3.org/2000/svg"
 width="1000.000000pt" height="2580.000000pt" viewBox="0 0 300.000000 458.000000"
 preserveAspectRatio="xMidYMid meet">
<metadata>
Created by potrace 1.10, written by Peter Selinger 2001-2011
</metadata>
<g transform="translate(0.000000,458.000000) scale(0.050000,-0.050000)"
fill="#000000" stroke="none">
<path d="M2904 9138 c-174 -33 -309 -163 -374 -358 l-32 -98 -89 68 c-270 206
-605 56 -733 -326 -42 -129 -45 -168 -52 -981 l-7 -847 -43 13 c-298 92 -761
-18 -1010 -239 -4 -3 74 -85 172 -183 323 -320 462 -739 464 -1394 1 -505 165
-1040 414 -1346 l83 -103 -93 -23 c-847 -213 -1602 -1215 -1604 -2126 0 -115
-4 -114 143 -16 211 141 428 202 857 241 746 68 1014 120 1239 241 139 76 127
80 210 -76 193 -361 339 -749 459 -1225 41 -160 79 -303 86 -320 6 -17 44 100
85 260 143 560 360 1126 535 1394 l29 44 74 -48 c40 -27 132 -70 204 -98 222
-83 365 -105 1089 -173 420 -39 630 -99 849 -240 67 -43 128 -79 135 -79 64 0
-47 658 -150 885 -47 104 -54 134 -33 143 41 15 -126 330 -176 332 -30 0 -13
-39 65 -158 44 -66 80 -131 80 -145 0 -13 -32 29 -71 94 -294 490 -801 912
-1274 1060 -128 40 -133 47 -74 100 247 223 406 738 449 1455 43 726 144 1016
465 1330 93 92 166 169 162 171 -4 3 -43 33 -87 66 -238 182 -649 260 -925
176 l-45 -14 0 798 c-1 861 -11 971 -107 1161 -147 291 -456 372 -697 183
l-75 -58 -13 55 c-69 287 -313 455 -584 404z m238 -41 c160 -54 277 -197 320
-389 l24 -107 75 77 c188 194 494 158 654 -78 110 -161 114 -200 120 -1157 l7
-887 44 11 c353 88 699 31 946 -157 l63 -48 -165 -168 c-306 -310 -419 -635
-451 -1296 -36 -749 -170 -1177 -466 -1493 -33 -35 -56 -67 -52 -71 5 -3 72
-25 149 -49 826 -259 1550 -1173 1550 -1958 0 -187 1 -185 -87 -118 -180 138
-476 211 -1053 260 -592 51 -800 97 -1053 231 l-143 76 -101 -183 c-187 -339
-409 -949 -484 -1329 -31 -158 -41 -146 -107 131 -102 429 -285 904 -475 1238
l-82 143 -124 -68 c-252 -138 -462 -185 -1061 -238 -586 -51 -839 -111 -1028
-240 -134 -93 -129 -99 -117 135 45 811 724 1653 1546 1917 76 25 142 47 145
50 4 2 -39 61 -94 130 -269 333 -383 730 -421 1458 -34 685 -187 1078 -528
1360 l-96 79 126 81 c256 166 585 213 891 128 l44 -12 7 887 c7 989 12 1027
157 1204 164 198 491 206 641 14 l50 -63 32 116 c88 312 336 472 597 383z"/>
<path d="M2870 8977 c-206 -114 -329 -559 -202 -727 219 -286 712 -164 712
177 0 407 -260 688 -510 550z m178 -9 c28 -11 32 -68 32 -430 l0 -418 -70 0
-70 0 0 417 c0 465 2 472 108 431z m-157 -824 c-6 -6 -33 0 -61 12 l-50 23 0
349 0 349 55 43 55 44 5 -405 c3 -223 1 -409 -4 -415z m294 760 c56 -48 53
-713 -4 -743 -79 -43 -81 -34 -81 390 0 432 -1 427 85 353z m-426 -399 l0
-315 -52 59 c-61 69 -61 353 -1 496 50 117 54 96 53 -240z m562 171 c51 -191
17 -456 -59 -456 -7 0 -13 136 -14 303 -2 315 18 356 73 153z"/>
<path d="M2050 8670 c-119 -42 -226 -205 -258 -393 -46 -264 476 -358 648
-117 109 153 -21 465 -217 519 -88 25 -75 26 -173 -9z m130 -320 l0 -310 -60
0 -60 0 0 297 c0 316 2 323 73 323 l47 0 0 -310z m110 -2 c0 -273 -1 -278 -45
-284 -45 -7 -45 -6 -45 294 l0 301 45 -17 c44 -16 45 -25 45 -294z m-250 1 c0
-291 0 -292 -45 -285 -103 14 -67 576 37 576 4 0 8 -131 8 -291z m392 39 c34
-117 28 -158 -34 -236 -68 -87 -78 -63 -77 193 l0 245 40 -47 c22 -26 53 -96
71 -155z m-532 -91 c0 -182 0 -183 -40 -147 -48 43 -50 89 -9 226 42 143 49
132 49 -79z"/>
<path d="M3784 8680 c-186 -43 -325 -357 -227 -512 87 -138 356 -193 524 -107
294 149 31 694 -297 619z m16 -320 c0 -287 -2 -300 -40 -300 -58 0 -63 571 -5
586 19 5 37 10 40 12 3 1 5 -133 5 -298z m140 -10 l0 -310 -50 0 -50 0 0 310
0 310 50 0 50 0 0 -310z m103 237 c32 -29 37 -66 37 -268 0 -238 -7 -259 -82
-259 -10 0 -18 123 -18 280 0 291 3 302 63 247z m-363 -246 c0 -263 -16 -287
-100 -151 -47 76 -30 209 41 326 57 94 59 86 59 -175z m494 -59 c8 -74 2 -102
-31 -142 l-42 -50 1 210 c1 225 44 214 72 -18z"/>
<path d="M2620 8073 c0 -161 38 -235 167 -331 60 -44 124 -101 142 -126 l31
-45 0 45 c0 25 -15 51 -32 58 -136 52 -76 286 73 290 143 4 206 -164 99 -264
-33 -31 -60 -73 -60 -93 0 -29 11 -23 51 27 28 35 85 84 127 108 110 61 162
164 162 319 l0 126 -45 -42 c-77 -72 -217 -124 -335 -124 -118 0 -258 52 -335
124 l-45 42 0 -114z m276 -73 c37 0 35 -6 -18 -58 -39 -40 -58 -79 -58 -121 0
-57 -4 -60 -41 -40 -65 34 -119 140 -119 233 l0 84 98 -49 c54 -27 116 -49
138 -49z m464 65 c-2 -87 -41 -194 -92 -247 -72 -75 -88 -73 -88 10 0 52 -15
81 -62 120 -60 51 -60 52 -13 52 27 0 88 22 137 49 108 59 118 60 118 16z"/>
<path d="M2423 8039 c-37 -31 -118 -68 -180 -83 -190 -47 -215 -180 -82 -446
43 -88 80 -173 81 -190 4 -68 34 78 36 177 2 92 -5 113 -48 147 -102 80 -46
236 83 236 120 0 169 -139 82 -227 -37 -38 -46 -73 -51 -195 -4 -89 -21 -180
-44 -228 -20 -44 -42 -109 -50 -144 -7 -35 -53 -125 -103 -200 -111 -167 -110
-235 3 -481 87 -189 100 -198 116 -78 18 125 -4 224 -58 275 -90 84 -39 218
82 218 120 0 186 -159 92 -225 -31 -21 -40 -57 -46 -186 -4 -87 -20 -200 -35
-250 -27 -91 -21 -162 20 -219 15 -20 25 -23 31 -7 6 12 41 74 79 137 l69 115
-5 956 -5 955 -67 -57z m57 -120 l0 -121 -45 51 c-148 168 -389 -34 -245 -205
35 -42 50 -82 49 -137 l-2 -77 -68 140 c-110 222 -85 318 91 364 58 14 129 44
158 66 28 21 54 39 57 39 3 1 5 -54 5 -120z m-65 -1819 c-36 -54 -71 -99 -78
-100 -32 -1 -35 105 -4 165 22 43 34 118 35 224 2 136 8 165 47 204 62 62 57
138 -13 209 -155 154 -362 -65 -211 -223 44 -46 50 -68 45 -161 l-6 -108 -65
138 c-104 219 -104 258 4 421 51 76 97 162 103 190 6 28 29 89 51 136 24 51
45 149 52 240 8 113 23 171 53 212 l42 56 5 -751 5 -752 -65 -100z"/>
<path d="M3500 7145 l0 -963 84 -131 c83 -131 85 -132 110 -84 35 68 35 149
-1 243 -17 44 -32 141 -32 215 -1 108 -9 143 -41 175 -85 85 -28 220 93 220
123 0 170 -142 77 -228 -45 -42 -50 -62 -50 -196 0 -204 12 -203 113 10 112
238 116 324 18 462 -38 53 -84 139 -102 190 -18 50 -47 119 -65 152 -19 35
-35 127 -41 230 -7 147 -15 176 -56 214 -91 85 -33 226 93 226 134 0 183 -140
80 -227 -64 -53 -74 -115 -47 -277 l12 -73 86 178 c145 297 131 424 -51 470
-107 27 -174 59 -235 115 l-45 41 0 -962z m292 775 c121 0 139 -168 39 -370
l-68 -140 -2 87 c-1 65 12 102 49 147 69 82 65 160 -12 224 -89 76 -192 55
-250 -50 -24 -44 -27 -36 -27 84 l-1 132 113 -57 c62 -31 133 -57 159 -57z
m-194 -300 c9 0 22 -77 28 -172 8 -114 25 -193 50 -235 20 -35 43 -95 51 -133
7 -39 55 -131 106 -206 110 -161 110 -214 4 -429 l-66 -135 -7 109 c-5 90 1
114 34 140 93 72 92 204 -1 269 -133 93 -292 -46 -228 -199 16 -38 38 -69 50
-69 13 0 21 -62 21 -162 0 -108 11 -185 33 -231 24 -51 28 -85 14 -131 l-17
-62 -73 118 -73 118 0 759 c1 665 4 752 29 705 16 -30 36 -54 45 -54z"/>
<path d="M1780 7293 l0 -789 95 -56 c52 -30 138 -96 192 -147 l98 -91 -61 121
c-90 179 -164 421 -178 579 -9 100 -22 147 -47 165 -109 77 -44 244 95 245
140 0 198 -220 66 -254 -34 -9 -40 -28 -40 -128 0 -143 -3 -142 85 -13 136
199 136 289 2 565 -79 164 -99 299 -61 405 13 35 9 48 -20 57 -101 33 -146 55
-184 90 l-42 40 0 -789z m135 658 c76 -33 83 -42 71 -89 -29 -109 -10 -201 84
-402 112 -240 116 -331 18 -479 -57 -87 -58 -88 -64 -34 -5 40 10 70 55 112
80 75 84 173 8 248 -70 71 -157 70 -231 -1 l-56 -53 0 375 c0 206 7 372 15
367 8 -4 53 -24 100 -44z m-15 -1031 c0 -117 49 -315 116 -465 l40 -91 -128
82 -128 81 0 299 0 298 50 -47 c41 -39 49 -66 50 -157z"/>
<path d="M4173 8032 c-32 -26 -93 -58 -137 -71 -63 -19 -76 -30 -64 -57 49
-109 33 -221 -60 -420 -131 -280 -126 -374 30 -590 l58 -80 0 115 c0 99 -7
121 -50 155 -107 84 -45 236 95 236 127 0 180 -137 88 -229 -38 -37 -49 -76
-59 -194 -13 -163 -74 -360 -173 -556 l-65 -129 104 94 c58 52 149 119 202
149 l98 55 0 785 c0 432 -2 785 -5 784 -3 0 -31 -21 -62 -47z m27 -401 l0
-369 -49 49 c-95 95 -256 35 -283 -105 -11 -54 -3 -74 51 -128 49 -49 62 -78
57 -126 l-6 -62 -60 100 c-90 150 -83 270 29 488 88 170 112 295 76 393 -13
36 84 109 170 126 8 2 15 -163 15 -366z m0 -808 l0 -297 -105 -68 c-58 -37
-117 -75 -131 -85 -19 -12 -17 2 6 47 58 111 126 346 138 476 9 101 55 219 87
223 3 1 5 -133 5 -296z"/>
<path d="M2941 7871 c-53 -64 25 -162 94 -119 69 44 45 148 -35 148 -19 0 -46
-13 -59 -29z m100 -22 c21 -26 20 -37 -6 -62 -36 -37 -75 -21 -75 31 0 65 40
81 81 31z"/>
<path d="M2231 7809 c-39 -40 -40 -77 -2 -108 46 -38 120 -18 128 35 12 89
-65 133 -126 73z m100 -31 c18 -28 -41 -87 -69 -69 -38 23 -26 91 17 91 21 0
45 -10 52 -22z"/>
<path d="M3661 7811 c-53 -64 25 -162 94 -119 69 44 45 148 -35 148 -19 0 -46
-13 -59 -29z m110 -33 c18 -28 -41 -87 -69 -69 -12 7 -22 31 -22 52 0 43 68
55 91 17z"/>
<path d="M2620 7046 l0 -714 87 85 88 86 13 304 c15 334 -11 492 -89 533 -90
49 -22 186 71 144 40 -19 49 -36 47 -98 -1 -42 10 -120 26 -173 l28 -96 34 72
c85 177 10 356 -220 526 -34 25 -67 45 -73 45 -7 0 -12 -321 -12 -714z m235
494 c62 -92 92 -210 69 -276 l-19 -54 -23 56 c-12 31 -22 87 -22 124 0 108
-109 173 -176 106 -19 -19 -24 1 -24 90 l0 115 75 -48 c41 -26 95 -77 120
-113z m-94 -323 c53 -199 18 -692 -54 -760 l-47 -44 0 464 c0 456 1 464 39
443 22 -11 50 -58 62 -103z"/>
<path d="M3257 7680 c-184 -128 -256 -312 -185 -476 l32 -74 38 108 c20 59 33
127 27 151 -15 56 53 120 109 102 70 -22 73 -89 8 -149 -95 -87 -118 -241 -85
-578 l27 -274 76 -80 75 -80 0 715 c1 393 -1 715 -4 714 -3 -1 -56 -36 -118
-79z m103 -90 c0 -102 -20 -138 -50 -90 -41 66 -177 -17 -169 -103 6 -64 -22
-177 -43 -177 -40 0 -18 210 30 289 43 70 177 188 217 190 8 1 15 -48 15 -109z
m0 -710 c0 -271 -8 -460 -19 -460 -132 0 -170 797 -43 894 18 14 39 25 47 25
8 1 15 -206 15 -459z"/>
<path d="M2707 7430 c-7 -18 -3 -42 9 -54 30 -30 88 -3 80 39 -9 46 -73 57
-89 15z"/>
<path d="M3208 7431 c-16 -40 7 -71 53 -71 28 0 39 14 39 50 0 56 -73 73 -92
21z"/>
<path d="M1888 7211 c-20 -50 1 -101 44 -107 54 -8 95 43 78 95 -15 48 -105
57 -122 12z m90 -18 c17 -21 16 -33 -3 -49 -35 -29 -84 3 -69 44 16 39 42 41
72 5z"/>
<path d="M3999 7208 c-19 -23 -21 -41 -6 -65 30 -47 90 -53 120 -12 55 76 -54
150 -114 77z m94 -19 c17 -44 -25 -85 -56 -54 -25 25 -9 85 23 85 12 0 27 -14
33 -31z"/>
<path d="M2941 7048 c-39 -103 -81 -324 -80 -418 1 -33 14 -25 71 40 l70 79
68 -79 68 -80 1 71 c2 161 -93 499 -140 499 -9 0 -35 -50 -58 -112z m108 -43
c18 -52 38 -149 44 -215 l12 -120 -50 66 -51 66 -54 -66 -54 -66 12 112 c13
125 70 318 93 318 8 0 30 -43 48 -95z"/>
<path d="M2261 6751 c-54 -65 35 -143 95 -83 26 25 28 41 12 67 -30 47 -76 54
-107 16z m85 -24 c8 -7 4 -26 -9 -40 -25 -31 -86 2 -66 35 13 21 57 24 75 5z"/>
<path d="M3639 6748 c-36 -42 0 -98 63 -98 54 0 75 56 37 101 -31 38 -68 37
-100 -3z m92 -30 c15 -25 -29 -61 -55 -45 -9 5 -16 22 -16 38 0 34 52 39 71 7z"/>
<path d="M2849 6395 c-408 -432 -514 -670 -381 -852 260 -358 371 -977 372
-2088 l0 -315 157 0 157 0 14 525 c28 1024 111 1492 323 1807 63 95 81 140 77
191 -6 67 -6 67 8 7 9 -35 21 -51 29 -37 60 94 -144 438 -458 774 l-143 153
-155 -165z m248 18 l86 -88 -91 -74 -91 -75 -91 75 -92 75 85 87 c104 106 90
106 194 0z m-193 -198 l73 -65 -88 -65 -89 -64 0 129 c0 149 4 152 104 65z
m296 -55 c0 -137 -5 -140 -99 -59 l-69 59 69 59 c94 81 99 78 99 -59z m-430
-54 c-12 -80 -18 -89 -57 -78 -23 6 -59 12 -78 12 -51 0 -44 19 50 129 94 110
110 99 85 -63z m550 63 c93 -119 93 -122 7 -136 -90 -14 -79 -27 -94 112 -16
138 -4 141 87 24z m-180 -153 c0 -34 -109 -175 -135 -176 -23 0 -145 150 -145
180 0 7 33 37 73 66 l73 51 67 -51 c37 -28 67 -59 67 -70z m-385 -25 c2 -2
-32 -39 -75 -81 l-80 -78 0 62 c0 35 -6 77 -12 95 -11 27 131 29 167 2z m658
-33 c-7 -35 -13 -77 -13 -94 0 -22 -22 -11 -70 36 -84 82 -86 95 -15 106 113
17 111 18 98 -48z m-524 -41 l55 -82 -52 -52 -52 -52 -74 74 -74 74 58 61 c73
76 74 76 139 -23z m360 24 l57 -59 -58 -70 c-70 -83 -88 -86 -146 -24 l-45 48
57 81 c68 98 65 98 135 24z m-671 -86 c2 -33 -87 -73 -110 -49 -6 5 9 49 34
97 47 90 69 76 76 -48z m923 43 c48 -93 42 -108 -32 -90 -37 10 -49 23 -41 44
7 17 12 53 12 80 0 67 13 60 61 -34z m-702 -187 c0 -12 -23 -47 -51 -79 l-51
-57 -58 67 c-70 82 -70 86 -17 161 l43 60 67 -65 c38 -36 68 -75 67 -87z m601
-31 c-41 -58 -98 -111 -105 -98 -3 4 -26 32 -53 62 l-47 54 66 84 67 84 55
-66 55 -66 -38 -54z m-269 35 l113 -105 -30 -70 c-17 -39 -31 -55 -32 -36 -8
149 -358 142 -363 -8 0 -14 -14 6 -31 44 l-31 70 113 105 c137 128 123 128
261 0z m-571 55 c0 -41 -76 -128 -87 -99 -28 71 -15 109 37 109 28 0 50 -4 50
-10z m980 -49 c0 -85 -28 -90 -66 -10 l-33 69 49 0 c42 0 50 -10 50 -59z
m-915 -110 l54 -68 -37 -83 -37 -83 -52 90 c-61 103 -59 95 -33 162 25 67 39
65 105 -18z m854 30 c31 -57 26 -94 -24 -171 -56 -87 -59 -86 -100 3 -47 105
72 266 124 168z m-400 -70 c174 -90 54 -361 -129 -291 -140 53 -152 225 -20
297 54 29 82 28 149 -6z m-293 -118 c45 -141 43 -153 -21 -153 -128 1 -145 16
-115 101 67 189 90 198 136 52z m548 -5 c58 -129 48 -147 -81 -148 -85 0 -88
31 -21 193 37 88 41 86 102 -45z m-514 -192 c0 -50 -49 -256 -60 -256 -7 0
-29 52 -49 115 -20 63 -40 126 -46 140 -6 17 15 25 73 25 50 0 82 -9 82 -24z
m198 -16 c33 0 65 9 72 20 27 44 47 16 27 -40 -12 -33 -42 -161 -67 -285 -30
-149 -49 -208 -56 -175 -6 28 -34 150 -62 272 -62 265 -62 255 -13 229 21 -12
65 -21 99 -21z m284 -109 c-28 -82 -54 -145 -58 -142 -9 9 -62 234 -63 266 -1
16 29 25 86 25 l86 0 -51 -149z m-394 -105 c43 -194 44 -193 -50 -145 -67 34
-80 50 -70 85 6 24 22 92 35 150 28 124 39 111 85 -90z m304 -38 c11 -61 6
-68 -70 -107 -45 -23 -82 -36 -82 -29 0 7 20 95 43 196 l44 182 26 -89 c15
-48 32 -117 39 -153z m-341 -142 c78 -38 82 -67 25 -204 l-26 -62 -42 150
c-22 82 -39 150 -35 150 3 0 38 -16 78 -34z m340 -1 c-8 -19 -28 -88 -46 -152
l-33 -118 -23 68 c-54 155 -54 150 15 194 81 52 104 54 87 8z m-103 -308 c-34
-60 -88 -27 -88 53 0 149 23 171 61 59 19 -54 31 -105 27 -112z m-128 136 c0
-27 5 -75 12 -108 11 -56 9 -60 -40 -50 -59 11 -61 20 -29 128 26 86 57 102
57 30z m-60 -503 c26 -206 4 -1015 -28 -1004 -15 5 -26 196 -35 586 -8 318
-23 646 -35 728 -11 83 -20 168 -19 190 2 67 95 -329 117 -500z m260 276 c-14
-119 -30 -454 -37 -744 -10 -396 -19 -531 -38 -537 -53 -18 -33 997 25 1267
28 127 50 236 50 243 0 6 5 6 12 0 6 -7 1 -110 -12 -229z m-103 -125 c-20 -94
-42 -232 -49 -307 -7 -74 -16 -132 -20 -128 -5 4 -108 582 -108 603 0 0 48 1
106 2 l107 1 -36 -171z m-82 -601 l14 -90 12 120 c8 76 14 -11 16 -235 3 -343
2 -355 -37 -355 -39 0 -40 12 -37 375 1 206 6 353 10 325 4 -27 14 -90 22
-140z"/>
<path d="M1088 6470 c-67 -14 -160 -46 -206 -69 l-84 -43 111 -124 c279 -312
399 -679 432 -1324 66 -1270 526 -1849 1526 -1921 1115 -81 1727 562 1793
1881 34 685 135 1008 423 1350 l119 142 -110 50 c-494 226 -1138 -51 -1320
-568 -27 -76 -15 -117 19 -62 35 56 591 283 620 253 5 -5 -10 -53 -34 -107
-42 -95 -43 -110 -25 -528 54 -1295 -15 -1695 -352 -2035 -453 -458 -1492
-469 -1971 -21 -355 332 -430 724 -382 2016 17 447 16 475 -23 575 -32 83 -34
105 -13 105 53 0 354 -119 501 -198 81 -44 148 -76 148 -70 0 6 -31 78 -69
161 -186 401 -662 633 -1103 537z m181 -113 c38 -105 12 -174 -57 -151 -19 6
-87 179 -90 229 -6 83 111 21 147 -78z m186 -87 c36 -99 89 -229 118 -290 47
-99 101 -517 62 -480 -6 6 -85 204 -175 440 -90 237 -172 451 -182 476 -17 43
-14 46 46 40 62 -6 68 -14 131 -186z m131 148 c179 -60 185 -82 8 -31 -83 24
-158 50 -166 58 -25 26 29 16 158 -27z m2983 24 c-21 -20 -309 -104 -309 -90
0 12 89 47 200 79 113 32 134 34 109 11z m162 -17 c-8 -19 -86 -224 -174 -455
-201 -524 -202 -526 -190 -295 8 144 22 211 64 300 42 93 117 283 179 460 5
14 37 25 72 25 51 0 60 -6 49 -35z m149 25 c0 -43 -70 -250 -85 -250 -92 0
-103 49 -44 195 23 56 129 101 129 55z m-3750 -141 c34 -128 20 -212 -27 -158
-44 51 -104 256 -79 272 53 33 71 14 106 -114z m3848 113 c26 -17 -30 -211
-76 -266 -40 -47 -68 24 -44 106 56 185 64 195 120 160z m-3955 -157 c58 -150
55 -195 -8 -111 -23 31 -69 86 -103 122 -60 65 -61 68 -23 95 64 47 79 35 134
-106z m664 68 c134 -39 152 -49 125 -71 -63 -53 -372 49 -372 122 0 19 20 14
247 -51z m2862 22 c-17 -55 5 -43 -156 -83 -129 -32 -213 -29 -213 7 0 13 311
114 366 119 9 1 10 -18 3 -43z m558 23 l49 -23 -103 -126 c-111 -135 -148
-149 -102 -39 101 244 82 221 156 188z m-617 -185 c-36 -86 -37 -87 -140 -24
l-80 48 60 13 c33 8 87 21 120 29 77 19 76 20 40 -66z m-2842 45 l79 -22 -89
-56 -88 -55 -24 52 c-49 108 -27 122 122 81z m295 -16 c56 -46 63 -39 -115
-116 -122 -53 -149 -58 -198 -38 l-56 23 138 83 c162 96 169 98 231 48z m2338
-44 c141 -84 159 -118 63 -118 -42 0 -282 84 -322 113 -10 8 84 85 105 86 9 1
78 -36 154 -81z m-2937 -35 c9 -73 -197 -188 -237 -133 -43 60 -33 76 88 143
122 66 140 64 149 -10z m3580 -61 c8 -7 -2 -33 -22 -59 l-35 -47 -114 64 c-62
35 -113 67 -113 71 0 4 10 30 23 58 l23 50 112 -62 c62 -35 118 -68 126 -75z
m-2831 -37 c143 -216 124 -247 -69 -113 -4 2 -19 50 -33 106 -37 138 13 141
102 7z m1940 66 c-6 -15 -17 -60 -24 -99 -12 -63 -137 -172 -198 -172 -17 0
66 159 122 235 49 65 121 91 100 36z m-2074 -66 c28 -103 27 -110 -19 -85 -42
23 -72 104 -51 139 25 40 49 21 70 -54z m2157 10 c4 -35 -8 -61 -39 -83 -58
-40 -59 -37 -33 64 23 92 62 103 72 19z m-2256 -15 c0 -42 -24 -48 -90 -21
-38 16 -38 18 10 38 72 29 80 28 80 -17z m2369 13 c35 -25 34 -28 -18 -41 -64
-16 -81 -6 -64 37 14 38 34 39 82 4z m-2819 -65 c42 -101 42 -101 -69 -158
-124 -62 -115 -64 -151 22 -41 98 -42 94 65 154 121 67 119 68 155 -18z m3336
20 c57 -29 107 -55 110 -58 4 -4 -12 -43 -34 -87 l-42 -81 -95 41 c-130 57
-132 60 -94 154 39 98 25 96 155 31z m-3247 -252 c1 -13 -221 -121 -230 -111
-52 51 -25 109 75 158 l106 52 24 -42 c14 -24 25 -49 25 -57z m3261 -35 c-1
-71 -29 -76 -143 -27 -111 48 -113 51 -94 107 l20 57 109 -53 c61 -31 108 -67
108 -84z m-3204 -130 c-23 -17 -239 -95 -245 -89 -57 58 -29 113 83 161 l116
51 26 -60 c14 -32 23 -61 20 -63z m3070 67 c46 -24 87 -45 90 -48 12 -10 -21
-110 -36 -110 -89 0 -238 103 -217 150 28 61 54 62 163 8z m-3030 -153 c11
-30 26 -70 33 -88 11 -26 -15 -44 -128 -88 -163 -64 -155 -66 -164 49 l-7 89
110 45 c139 58 132 58 156 -7z m2974 4 l115 -51 -13 -83 c-18 -109 -13 -107
-146 -54 -155 61 -157 64 -126 158 31 96 24 95 170 30z m-2950 -226 c0 -51
-13 -61 -131 -108 l-131 -52 6 60 c5 53 20 67 116 107 142 60 140 60 140 -7z
m2931 -6 c93 -36 101 -45 93 -96 l-8 -56 -128 51 c-117 46 -128 56 -128 110 0
48 6 56 35 44 19 -8 81 -32 136 -53z m-2946 -240 c-10 -10 -41 8 -74 42 l-56
59 67 27 68 28 6 -69 c4 -38 -1 -77 -11 -87z m2867 122 l54 -20 -57 -60 c-62
-65 -84 -51 -88 56 -1 50 12 54 91 24z m-2948 -113 c65 -64 101 -146 64 -146
-38 0 -227 188 -204 203 43 27 61 20 140 -57z m3093 57 c24 -16 -164 -203
-204 -203 -37 0 -4 77 61 144 77 79 97 87 143 59z m15 -255 c-6 -15 -22 -23
-36 -18 -14 5 -53 19 -85 30 l-59 22 89 77 89 77 6 -80 c4 -45 2 -93 -4 -108z
m-3113 63 c21 -25 20 -32 -2 -40 -15 -5 -52 -19 -82 -30 l-55 -20 0 101 0 101
57 -41 c31 -22 68 -54 82 -71z m81 -101 c0 -27 -2 -50 -5 -50 -3 0 -52 -18
-110 -40 l-105 -40 0 57 c0 49 12 60 95 88 127 42 125 42 125 -15z m2911 17
c119 -39 126 -45 111 -100 l-12 -43 -105 39 c-88 33 -163 137 -99 137 4 0 51
-15 105 -33z m-2913 -292 c-2 -202 -22 -179 -47 51 -12 115 -10 134 17 134 27
0 32 -29 30 -185z m2852 30 c-21 -231 -49 -248 -49 -30 -1 157 4 185 31 185
29 0 31 -20 18 -155z m79 -40 c-14 -148 -32 -198 -64 -178 -17 10 -3 173 27
311 23 106 51 6 37 -133z m-3000 30 c7 -69 18 -145 24 -170 8 -32 2 -45 -19
-45 -30 0 -35 18 -66 245 -10 76 -7 95 17 95 22 0 34 -34 44 -125z m-75 -60
c20 -170 -8 -268 -38 -129 -36 171 -40 294 -11 294 22 0 34 -43 49 -165z
m3158 30 c-18 -176 -32 -228 -56 -212 -19 11 -4 297 17 332 34 56 51 2 39
-120z m-2993 -269 c2 -25 -121 -80 -151 -68 -56 22 -30 87 47 118 76 30 97 20
104 -50z m2937 -23 c7 -59 -3 -63 -93 -31 -51 18 -63 33 -63 79 l0 57 75 -26
c58 -20 76 -38 81 -79z m-2915 -177 c22 -131 21 -145 -12 -170 -56 -40 -61
-35 -115 109 l-50 135 63 34 c89 49 87 51 114 -108z m2826 114 l72 -30 -47
-131 c-58 -159 -57 -158 -112 -129 -37 20 -42 35 -31 87 7 35 18 101 25 148 6
47 14 85 16 85 3 0 38 -14 77 -30z m-2767 -344 c0 -17 -16 -44 -35 -60 -33
-26 -32 -27 7 -17 35 10 52 -9 110 -122 37 -74 113 -185 168 -246 l100 -111
-90 72 c-206 165 -398 459 -332 509 43 31 72 22 72 -25z m2694 9 c29 -22 12
-75 -24 -75 -38 0 -72 51 -58 87 12 31 29 29 82 -12z m-55 -94 c38 -24 -71
-187 -222 -331 -108 -103 -108 -101 5 51 38 49 90 137 116 195 52 110 56 114
101 85z"/>
<path d="M1780 5656 c0 -113 -10 -404 -23 -647 -60 -1138 152 -1630 782 -1817
193 -57 181 -77 181 293 -1 1460 -178 2012 -740 2294 -212 107 -200 114 -200
-123z m168 106 c69 -31 132 -66 140 -78 10 -17 -246 -174 -259 -159 -7 8 -21
295 -14 295 3 0 63 -26 133 -58z m172 -284 l0 -162 -73 64 c-41 36 -101 76
-133 90 l-59 25 127 72 c71 40 130 73 133 73 3 0 5 -73 5 -162z m262 -72 c77
-111 79 -109 -87 -102 -80 3 -143 13 -140 21 3 8 5 84 5 169 l0 154 82 -79
c45 -43 108 -117 140 -163z m-474 28 c34 -25 20 -210 -21 -279 -29 -49 -87 32
-87 121 1 174 29 216 108 158z m179 -291 c-65 -117 -61 -115 -125 -62 -46 39
-47 43 -22 164 35 170 35 170 124 80 l79 -79 -56 -103z m348 112 c-6 -14 -26
-76 -46 -139 l-36 -115 -68 105 c-38 57 -83 120 -100 139 -29 33 -23 35 114
35 108 0 143 -6 136 -25z m103 -193 c60 -183 58 -186 -58 -136 -120 51 -120
45 -28 294 14 40 31 10 86 -158z m-271 18 c31 -52 29 -56 -38 -121 l-70 -67
-54 54 -54 53 57 115 56 114 36 -48 c19 -26 50 -71 67 -100z m-361 2 c121 -84
201 -172 139 -153 -68 21 -156 -5 -214 -63 l-51 -51 0 149 c0 199 4 203 126
118z m466 -194 c27 -62 47 -115 44 -117 -125 -88 -119 -89 -185 11 l-55 82 66
68 c82 85 71 88 130 -44z m196 -77 c-39 -125 -63 -162 -78 -121 -8 22 -35 86
-60 142 l-45 103 97 -42 c83 -34 96 -48 86 -82z m-438 41 c195 -195 -69 -478
-274 -294 -54 48 -65 72 -65 142 0 170 221 269 339 152z m498 -208 c13 -102
12 -105 -26 -85 -62 33 -68 57 -41 154 29 106 47 87 67 -69z m-158 24 c42
-102 12 -168 -78 -168 -3 0 -23 37 -43 82 l-37 82 49 38 c67 51 74 49 109 -34z
m-141 -108 c25 -49 61 -124 78 -166 l32 -76 -56 40 c-49 34 -137 74 -247 109
-30 10 -26 19 25 71 32 32 59 76 59 97 0 97 30 76 109 -75z m-472 -52 c20 -18
15 -25 -26 -33 -46 -8 -51 -3 -50 53 0 52 4 57 26 32 13 -16 36 -40 50 -52z
m770 -3 c5 -9 -2 -37 -16 -63 l-25 -47 -13 50 c-7 28 -19 67 -26 85 -13 35 57
13 80 -25z m-87 -36 c28 -73 26 -80 -31 -106 -45 -20 -52 -18 -70 28 -26 71
-24 84 16 107 52 31 64 27 85 -29z m-455 -22 c41 -7 75 -20 75 -29 0 -19 -179
-278 -192 -278 -9 0 -188 275 -188 289 0 25 195 36 305 18z m581 -173 c11
-155 3 -160 -34 -20 -18 67 -20 113 -7 147 24 61 29 45 41 -127z m-350 86
c165 -87 172 -105 77 -197 l-67 -65 -53 142 c-70 188 -72 182 43 120z m-75
-115 c25 -74 49 -146 54 -160 7 -20 -3 -21 -44 -5 -29 11 -102 20 -162 20
l-108 0 102 140 c123 168 105 168 158 5z m-325 -148 c-81 -51 -105 -20 -126
163 l-13 110 83 -128 c64 -99 77 -132 56 -145z m675 199 c13 -62 -32 -130 -72
-106 -37 23 -41 119 -7 144 52 38 63 33 79 -38z m-63 -235 c44 -148 44 -147
-56 -80 -48 32 -98 59 -110 59 -36 0 -25 25 42 94 74 77 82 72 124 -73z m115
41 c5 -34 -5 -52 -37 -63 -61 -23 -91 93 -34 135 41 30 59 12 71 -72z m-365
-424 c175 -429 178 -443 81 -385 -54 31 -87 92 -221 404 -185 430 -174 383
-91 383 l68 0 163 -402z m-182 39 c164 -384 166 -401 29 -263 -161 160 -343
549 -278 591 78 50 100 21 249 -328z m215 318 c19 -18 346 -825 338 -833 -5
-4 -43 2 -85 14 -76 23 -77 24 -214 369 -75 190 -150 376 -165 413 l-28 68 74
-12 c41 -7 77 -15 80 -19z m358 -40 c4 -14 12 -124 17 -245 6 -138 3 -198 -8
-160 -50 178 -96 397 -86 412 16 27 68 22 77 -7z m-193 -54 c45 -33 90 -76
101 -95 38 -72 146 -654 116 -625 -23 22 -328 779 -314 779 8 0 52 -27 97 -59z"/>
<path d="M4020 5777 c-558 -272 -738 -856 -740 -2395 l0 -227 82 13 c665 106
928 611 886 1702 -9 242 -17 564 -17 715 -1 170 -9 275 -21 275 -11 0 -96 -38
-190 -83z m173 -19 c-7 -35 -13 -103 -13 -152 l0 -89 -140 76 c-156 84 -155
86 13 168 148 72 155 72 140 -3z m-333 -288 l0 -170 -151 0 -150 0 30 58 c35
68 227 282 253 282 10 0 18 -76 18 -170z m268 33 c6 -10 -17 -30 -52 -45 -35
-14 -94 -52 -130 -84 l-66 -58 0 162 0 163 119 -60 c65 -33 123 -68 129 -78z
m72 -182 c0 -159 -64 -247 -92 -126 -6 30 -21 91 -32 134 -21 85 9 131 88 131
31 0 36 -18 36 -139z m-157 -235 c-62 -53 -71 -48 -133 74 l-49 96 83 76 83
75 34 -139 33 -138 -51 -44z m-288 65 c-105 -158 -98 -158 -149 -1 l-42 130
138 0 138 0 -85 -129z m-168 -40 c46 -137 45 -141 -67 -187 -55 -23 -100 -36
-100 -29 0 50 106 347 119 333 9 -10 30 -62 48 -117z m320 -12 l53 -92 -58
-55 -57 -55 -72 63 -71 63 64 97 c35 54 70 91 76 84 7 -8 36 -55 65 -105z
m313 -123 c0 -152 -2 -162 -30 -122 -38 54 -156 94 -226 76 l-54 -13 50 52
c52 57 216 171 243 171 10 0 17 -74 17 -164z m-401 -106 c1 -27 -96 -170 -115
-170 -12 0 -62 30 -120 71 -3 2 19 54 49 115 l54 112 65 -54 c36 -30 66 -63
67 -74z m-229 0 c-16 -38 -45 -104 -63 -145 l-33 -75 -34 100 -34 100 92 43
c51 24 94 44 97 45 3 1 -8 -29 -25 -68z m527 1 c97 -49 128 -165 73 -271 -59
-115 -225 -140 -316 -49 -174 174 23 434 243 320z m-682 -286 c-50 -54 -81
-58 -68 -10 5 19 16 80 23 135 l14 100 36 -90 c35 -88 35 -91 -5 -135z m204
117 l49 -38 -37 -82 c-42 -93 -49 -96 -110 -46 -43 34 -44 37 -10 120 38 96
41 97 108 46z m150 -69 c7 -31 36 -78 64 -104 48 -45 49 -49 15 -59 -21 -7
-91 -38 -157 -70 -151 -75 -151 -78 -39 143 52 103 96 178 99 167 3 -11 11
-46 18 -77z m444 -142 c-6 -15 -30 -22 -58 -17 l-47 9 51 57 c52 57 84 28 54
-49z m-801 -23 l-27 -78 -16 58 c-11 45 -7 64 22 85 50 37 54 26 21 -65z m121
26 c41 -22 42 -28 16 -90 -40 -95 -140 -41 -106 57 23 66 29 68 90 33z m657
-58 c13 -12 -151 -294 -172 -295 -13 -1 -198 263 -198 283 0 31 341 42 370 12z
m-838 -180 l-28 -106 -2 122 c-2 126 14 171 42 119 10 -17 5 -74 -12 -135z
m403 119 c-5 -14 -25 -74 -45 -135 -47 -148 -52 -150 -128 -72 -77 79 -72 94
54 174 99 63 134 72 119 33z m150 -136 l96 -139 -96 0 c-52 0 -125 -9 -161
-19 -50 -14 -64 -13 -57 5 6 13 31 85 56 159 55 164 46 164 162 -6z m-425 101
c32 -17 35 -29 17 -80 -35 -100 -126 -69 -105 36 14 68 29 76 88 44z m709
-138 c-12 -107 -19 -122 -57 -122 -88 1 -92 26 -18 146 84 139 93 136 75 -24z
m-768 -28 c51 -39 12 -163 -42 -134 -41 23 -46 42 -26 115 13 51 24 54 68 19z
m218 -119 c-42 -30 -219 -132 -219 -126 0 4 19 68 42 142 l41 135 73 -72 c39
-40 68 -76 63 -79z m361 10 c0 -93 -318 -748 -377 -776 -94 -46 -97 -59 82
386 l163 405 66 0 c36 0 66 -7 66 -15z m-189 -40 c-178 -538 -365 -865 -469
-821 -31 13 313 805 362 831 69 37 121 32 107 -10z m337 17 c42 -67 -153 -464
-291 -593 -134 -125 -134 -118 1 192 65 148 131 303 149 344 30 73 111 106
141 57z m-756 -99 c-7 -29 -30 -125 -51 -213 l-38 -160 -1 173 c-3 241 11 302
63 275 30 -17 36 -34 27 -75z m197 -18 c-18 -41 -87 -213 -155 -382 -142 -351
-169 -342 -93 31 56 280 63 294 161 365 109 79 125 77 87 -14z"/>
<path d="M1630 3172 c-718 -235 -1325 -929 -1458 -1670 -11 -64 1 -55 223 160
475 460 1035 863 1691 1217 l197 105 -100 46 c-55 26 -147 79 -206 118 -124
84 -158 86 -347 24z m313 -38 c51 -36 130 -83 175 -103 151 -68 53 -129 -116
-72 -162 55 -309 209 -217 227 25 5 50 10 55 11 6 2 52 -27 103 -63z m-210
-25 c40 -62 181 -162 255 -180 82 -21 50 -60 -47 -55 -98 5 -234 78 -309 167
-75 89 -73 93 53 116 8 2 29 -20 48 -48z m-106 -100 c54 -59 123 -106 197
-136 l115 -46 -68 -33 c-144 -68 -537 207 -410 287 52 33 81 20 166 -72z
m-155 -65 c44 -67 94 -111 175 -153 l114 -58 -59 -38 c-121 -76 -484 235 -371
318 56 41 74 32 141 -69z m-117 -110 c28 -41 95 -103 148 -138 86 -56 93 -65
62 -87 -79 -58 -405 178 -405 292 0 41 109 78 127 42 10 -18 41 -67 68 -109z
m-186 -12 c37 -72 203 -219 264 -235 61 -15 59 -35 -4 -64 -132 -60 -463 246
-356 328 52 39 62 36 96 -29z m65 -281 c102 -67 117 -121 33 -121 -90 0 -347
216 -347 292 0 90 85 85 147 -8 35 -52 110 -125 167 -163z m-250 28 c56 -61
133 -127 172 -147 l69 -36 -58 -41 c-126 -90 -437 184 -336 296 46 51 37 55
153 -72z m-149 -98 c34 -48 99 -109 143 -135 96 -54 98 -61 31 -105 -66 -43
-192 24 -287 153 l-62 84 44 46 c57 61 58 60 131 -43z m11 -242 l90 -57 -46
-36 c-67 -52 -81 -47 -201 67 -116 109 -128 142 -76 200 31 34 35 32 87 -40
31 -42 96 -102 146 -134z m-113 -111 c82 -51 39 -148 -46 -102 -120 66 -212
198 -176 252 l34 53 59 -80 c32 -43 90 -99 129 -123z m-101 -96 c51 -40 53
-46 23 -76 -68 -68 -276 131 -214 205 24 29 32 26 81 -27 31 -33 80 -78 110
-102z m-146 -49 c91 -85 92 -88 55 -122 -71 -64 -220 65 -179 156 30 64 13 69
124 -34z m-40 -218 c-64 -70 -182 19 -147 111 l21 56 79 -66 c73 -61 76 -68
47 -101z m-99 -98 c-24 -27 -41 -31 -70 -16 -40 22 -42 28 -25 93 l12 44 58
-43 c54 -39 55 -45 25 -78z m-67 -56 c0 -8 -16 -30 -37 -48 -34 -31 -36 -30
-27 26 7 51 64 71 64 22z"/>
<path d="M4059 3168 c-38 -29 -130 -82 -204 -118 l-134 -65 254 -139 c654
-356 1142 -710 1622 -1176 l248 -240 -14 90 c-110 690 -733 1407 -1424 1639
-223 74 -260 75 -348 9z m173 12 c120 0 -152 -225 -292 -242 -136 -16 -174 41
-60 92 43 20 122 65 175 102 52 36 107 62 122 57 14 -5 39 -9 55 -9z m186 -51
c62 -62 -295 -289 -409 -261 -72 18 -60 42 33 70 53 16 116 60 175 122 87 90
156 114 201 69z m142 -78 c0 -138 -305 -321 -428 -257 l-62 32 90 32 c56 20
131 73 200 143 108 108 200 131 200 50z m109 -37 c117 -86 -240 -397 -369
-321 l-59 35 114 61 c82 44 132 88 175 155 65 101 83 110 139 70z m171 -113
c0 -68 -201 -259 -311 -296 -127 -42 -142 18 -24 97 58 38 133 113 172 171 65
98 163 114 163 28z m91 -50 c118 -86 -244 -400 -368 -318 l-51 33 49 18 c94
35 202 124 252 210 56 95 63 98 118 57z m149 -145 c0 -43 -174 -218 -254 -256
-87 -42 -212 -8 -139 37 119 73 202 145 258 224 63 89 135 87 135 -5z m102
-63 l46 -38 -71 -97 c-38 -54 -111 -124 -162 -155 l-92 -57 -61 46 -61 45 101
58 c56 32 128 96 163 146 71 101 74 102 137 52z m115 -130 l44 -46 -60 -82
c-92 -127 -224 -197 -290 -154 -66 43 -64 59 10 89 58 25 219 188 219 223 0
30 32 18 77 -30z m108 -125 c78 -93 -200 -341 -286 -256 l-41 41 79 53 c44 29
109 89 145 133 35 45 66 79 67 76 1 -3 17 -24 36 -47z m96 -130 c19 -36 14
-52 -34 -104 -126 -138 -168 -161 -225 -121 l-43 30 78 57 c43 31 98 84 122
118 52 73 72 77 102 20z m71 -129 c22 -89 -157 -243 -221 -190 -27 22 -17 40
74 132 122 123 130 126 147 58z m88 -161 c0 -24 -129 -148 -154 -148 -85 0
-80 69 10 151 94 87 144 86 144 -3z m44 -126 c9 -75 -90 -141 -142 -94 -38 34
-37 36 35 102 77 71 98 69 107 -8z m56 -145 c0 -61 -56 -87 -101 -46 -40 36
-40 37 15 81 58 46 85 35 86 -35z m39 -155 c1 -21 -9 -19 -39 8 -32 29 -35 42
-16 65 25 30 51 -4 55 -73z"/>
<path d="M3430 2910 l-120 -22 7 -148 c36 -769 401 -1055 1474 -1150 367 -32
700 -80 786 -113 87 -33 67 -5 -111 163 -466 437 -1061 852 -1671 1166 l-245
126 -120 -22z m136 -22 c32 -32 -85 -146 -181 -176 -42 -14 -45 -9 -45 65 0
78 2 81 85 100 110 24 126 26 141 11z m103 -51 c67 -31 66 -38 -34 -144 -86
-92 -227 -180 -258 -161 -51 32 -16 140 53 165 39 14 95 57 125 94 30 38 57
69 59 69 2 0 27 -10 55 -23z m139 -69 c99 -38 -233 -367 -372 -368 -28 0 -74
76 -53 87 4 1 50 25 104 52 53 26 134 91 180 144 88 101 92 104 141 85z m129
-66 c89 -56 -305 -422 -455 -422 -22 0 -45 18 -52 42 -16 49 -21 45 82 74 94
27 245 152 308 255 44 70 69 82 117 51z m102 -61 c118 -75 -315 -501 -509
-501 -73 0 -68 99 6 119 120 33 276 152 367 281 91 128 92 129 136 101z m116
-64 c119 -119 -457 -624 -587 -516 -38 32 -35 59 7 59 128 1 357 187 473 385
59 101 71 108 107 72z m104 -65 c32 -39 -71 -243 -184 -365 -147 -160 -374
-246 -444 -168 -37 40 -36 41 11 41 176 2 459 254 544 485 15 42 41 45 73 7z
m109 -62 c122 -92 -312 -609 -511 -610 -134 0 -150 69 -24 108 154 49 357 247
427 417 52 126 53 127 108 85z m110 -78 c106 -127 -345 -668 -508 -609 -89 32
-88 48 5 79 110 36 283 221 376 403 84 164 91 171 127 127z m125 -132 c-35
-237 -329 -567 -469 -527 l-63 18 74 46 c143 88 375 422 375 540 0 23 7 23 45
-2 29 -20 43 -46 38 -75z m133 -65 c27 -133 -318 -524 -441 -501 l-55 11 86
65 c133 102 264 300 302 457 15 62 94 38 108 -32z m124 -93 c0 -121 -246 -443
-338 -442 -113 1 -125 22 -47 84 103 81 201 206 259 331 50 108 126 124 126
27z m120 -90 c-1 -93 -198 -372 -262 -372 -99 0 -101 23 -13 117 77 82 144
197 183 311 14 41 92 -6 92 -56z m85 -40 c74 -56 -103 -351 -202 -337 l-60 9
67 87 c36 47 81 128 101 178 38 99 42 102 94 63z m82 -235 c-49 -93 -66 -108
-124 -113 l-68 -7 43 61 c24 33 62 102 85 154 l41 93 40 -40 41 -41 -58 -107z
m132 -60 c-35 -68 -185 -128 -156 -62 4 8 29 62 57 119 l49 104 45 -41 44 -42
-39 -78z m120 14 c41 -49 6 -111 -62 -111 -51 0 -59 6 -47 35 8 19 19 51 25
70 12 43 52 45 84 6z m113 -114 l38 -43 -60 15 c-72 17 -78 22 -61 50 20 31
40 26 83 -22z"/>
<path d="M2150 2774 c-601 -316 -1092 -660 -1583 -1109 -243 -222 -240 -212
-41 -165 85 21 261 48 390 60 646 63 799 83 950 121 512 131 771 460 826 1052
15 162 17 160 -143 176 -118 12 -121 11 -399 -135z m450 96 c69 -12 71 -15 63
-91 -8 -88 -8 -88 -69 -57 -127 65 -208 195 -107 171 24 -6 75 -16 113 -23z
m-161 -68 c23 -32 81 -78 130 -102 84 -40 110 -116 59 -177 -16 -19 -221 116
-280 185 -80 94 -81 99 -23 128 65 31 68 30 114 -34z m-84 -139 c68 -69 146
-127 190 -141 78 -26 105 -92 46 -114 -104 -40 -497 298 -409 353 45 29 53 25
173 -98z m-141 -52 c83 -108 259 -230 331 -231 36 0 44 -32 24 -87 -15 -37
-95 -17 -217 55 -150 87 -347 334 -287 359 51 20 67 10 149 -96z m-148 -26
c106 -157 241 -269 381 -317 101 -35 106 -42 65 -98 -61 -85 -317 55 -462 253
-103 139 -125 195 -87 219 42 27 48 23 103 -57z m-113 -70 c92 -188 344 -395
481 -395 42 0 44 -4 21 -41 -30 -49 -113 -41 -245 22 -170 81 -427 422 -357
474 50 36 55 34 100 -60z m-101 -78 c105 -207 358 -416 506 -417 47 0 47 -1
12 -40 -109 -120 -447 99 -587 380 -60 120 -62 131 -30 155 46 33 39 39 99
-78z m78 -328 c92 -92 147 -129 235 -159 130 -43 136 -52 62 -92 -145 -77
-391 105 -546 403 l-82 156 45 32 c44 31 46 29 105 -94 37 -76 108 -173 181
-246z m-301 177 c103 -223 275 -403 441 -461 l60 -21 -78 -33 -78 -34 -102 71
c-227 156 -456 592 -311 592 9 0 40 -51 68 -114z m29 -316 c44 -59 122 -136
172 -172 93 -67 92 -97 -4 -98 -166 -1 -515 548 -392 617 29 16 43 -1 89 -111
30 -71 91 -177 135 -236z m-278 232 c0 -106 198 -388 338 -479 l48 -31 -56
-15 c-166 -45 -538 459 -405 548 52 35 75 28 75 -23z m-131 -97 c22 -87 123
-232 240 -342 l107 -102 -67 -13 c-158 -29 -473 394 -358 481 54 41 63 39 78
-24z m-89 -160 c27 -63 90 -157 141 -210 l91 -95 -67 -12 c-113 -21 -355 318
-285 402 43 51 68 33 120 -85z m-130 -50 c18 -47 64 -127 100 -178 l67 -93
-51 -10 c-104 -20 -275 269 -202 342 38 38 49 30 86 -61z m-100 -100 c27 -58
64 -126 83 -152 34 -46 34 -46 -34 -40 -94 10 -201 199 -146 260 44 49 41 52
97 -68z m-101 -87 c62 -138 63 -128 -8 -128 -96 0 -153 132 -88 203 43 48 37
53 96 -75z m-132 -59 c34 -75 29 -89 -35 -89 -71 0 -96 51 -49 103 44 49 56
47 84 -14z m-126 -70 c17 -28 11 -33 -61 -50 l-60 -15 38 43 c43 48 63 53 83
22z"/>
<path d="M2803 2675 c-37 -321 -116 -538 -268 -735 l-69 -89 55 -91 c88 -143
252 -491 338 -720 l80 -210 0 1025 1 1025 -56 0 -57 0 -24 -205z m117 75 c0
-92 -14 -108 -56 -66 -42 42 -30 156 16 156 34 0 40 -13 40 -90z m0 -195 c0
-58 -35 -72 -76 -31 -25 25 -33 101 -12 121 26 27 88 -37 88 -90z m-51 -78
c51 -23 75 -117 30 -117 -51 0 -99 45 -99 91 0 56 1 57 69 26z m-12 -139 c89
-31 97 -151 8 -129 -71 18 -105 47 -105 90 0 62 14 68 97 39z m63 -245 c0 -52
-5 -56 -55 -44 -83 21 -168 109 -145 151 32 59 200 -31 200 -107z m-170 -13
c20 -22 64 -48 98 -56 80 -21 105 -124 30 -124 -128 0 -258 106 -219 178 28
52 45 53 91 2z m20 -186 c22 -6 65 -16 95 -23 45 -10 55 -22 55 -73 0 -59 -3
-61 -65 -47 -167 36 -310 145 -271 207 23 37 25 37 85 -7 33 -26 79 -51 101
-57z m-210 -14 c0 -33 157 -125 256 -150 88 -23 164 -170 88 -170 -147 0 -425
223 -390 313 12 31 46 37 46 7z m130 -272 c27 -18 87 -43 134 -57 110 -32 141
-131 42 -131 -105 1 -139 22 -193 122 -58 107 -56 114 17 66z m203 -228 c18 0
27 -24 27 -70 0 -79 -2 -80 -77 -41 -92 47 -122 140 -41 124 35 -7 75 -13 91
-13z m9 -160 c10 0 17 -52 17 -115 l-2 -115 -36 80 c-63 144 -70 178 -32 163
19 -7 43 -13 53 -13z"/>
<path d="M3069 2855 c-5 -14 -7 -475 -4 -1025 l5 -1000 38 110 c75 218 235
577 333 748 l100 175 -59 68 c-165 188 -301 604 -302 924 0 14 -23 25 -51 25
-27 0 -55 -11 -60 -25z m91 -83 c0 -37 -14 -78 -30 -92 -43 -36 -49 -22 -36
75 14 105 66 119 66 17z m20 -168 c0 -60 -31 -104 -74 -104 -37 0 -32 80 7
123 47 52 67 46 67 -19z m27 -149 c14 -50 -30 -95 -91 -95 -51 0 -46 71 8 109
59 41 69 39 83 -14z m37 -143 c7 -36 -4 -55 -45 -80 -78 -45 -99 -40 -99 25 0
91 128 140 144 55z m55 -156 c2 -19 -100 -88 -154 -105 -40 -12 -45 -7 -45 47
0 110 188 166 199 58z m57 -136 c-17 -92 -256 -148 -256 -60 0 44 9 60 36 60
19 0 66 22 105 49 73 51 129 28 115 -49z m53 -141 c-38 -42 -169 -108 -254
-127 -108 -25 -77 102 32 129 47 12 112 43 144 68 76 61 143 2 78 -70z m62
-84 c-57 -101 -185 -191 -316 -223 -53 -12 -55 -10 -55 68 0 70 6 80 46 80 59
0 237 88 285 141 57 63 86 14 40 -66z m-140 -252 c-49 -97 -87 -122 -186 -123
-37 0 -45 11 -45 60 0 49 9 60 45 61 25 0 86 22 135 49 50 27 92 49 95 49 3 1
-17 -43 -44 -96z m-89 -188 c-9 -25 -45 -62 -79 -82 l-63 -37 0 71 c0 57 8 72
45 79 104 20 115 17 97 -31z m-101 -245 l-39 -100 -1 104 c-1 83 6 104 34 110
49 10 50 -1 6 -114z"/>
<path d="M5521 2575 c1 -33 77 -124 92 -109 11 11 -66 134 -84 134 -5 0 -9
-11 -8 -25z"/>
<path d="M5830 2085 c8 -19 19 -51 25 -70 5 -19 18 -35 27 -35 10 0 18 16 17
35 0 38 -44 105 -68 105 -9 0 -9 -16 -1 -35z"/>
<path d="M5905 1890 c13 -41 29 -64 40 -53 24 24 -4 123 -35 123 -21 0 -22
-15 -5 -70z"/>
</g>
</svg>
