<?xml version="1.0" standalone="no"?>
<!DOCTYPE svg PUBLIC "-//W3C//DTD SVG 20010904//EN"
 "http://www.w3.org/TR/2001/REC-SVG-20010904/DTD/svg10.dtd">
<svg version="1.0" xmlns="http://www.w3.org/2000/svg"
 width="1768.000000pt" height="1768.000000pt" viewBox="0 0 768.000000 768.000000"
 preserveAspectRatio="xMidYMid meet">
<metadata>
Created by potrace 1.10, written by Peter Selinger 2001-2011
</metadata>
<g transform="translate(0.000000,768.000000) scale(0.100000,-0.100000)"
fill="#000000" stroke="none">
<path d="M3789 7283 c-13 -27 -42 -80 -66 -119 -24 -39 -43 -74 -43 -77 0 -3
-13 -26 -30 -50 -16 -25 -30 -48 -30 -51 0 -4 -12 -25 -27 -49 -29 -44 -32
-49 -77 -132 -15 -27 -36 -63 -47 -80 -10 -16 -22 -37 -26 -45 -4 -8 -33 -59
-65 -113 -32 -54 -58 -101 -58 -104 0 -3 -13 -25 -30 -50 -16 -24 -30 -46 -30
-48 0 -3 -20 -39 -45 -81 -25 -41 -45 -78 -45 -81 0 -3 -13 -25 -30 -50 -16
-24 -30 -46 -30 -48 0 -5 -82 -148 -100 -175 -6 -8 -13 -22 -17 -30 -4 -8 -18
-33 -32 -55 -14 -22 -32 -53 -41 -70 -9 -16 -34 -61 -56 -98 -21 -38 -44 -78
-51 -89 -6 -11 -17 -25 -25 -29 -7 -5 -449 -9 -982 -9 -661 0 -973 -3 -980
-10 -7 -7 -6 -17 3 -32 7 -12 25 -42 39 -67 14 -25 44 -77 67 -116 22 -38 44
-77 48 -85 4 -8 16 -28 27 -45 11 -16 23 -37 27 -45 8 -18 89 -158 103 -180 6
-8 13 -22 17 -30 4 -8 26 -47 50 -86 24 -39 43 -75 43 -79 0 -5 6 -16 14 -24
7 -9 31 -47 52 -86 21 -38 53 -94 71 -122 18 -29 38 -63 43 -75 6 -13 14 -30
20 -38 16 -25 158 -266 180 -307 11 -21 25 -45 30 -53 28 -44 100 -173 100
-180 0 -4 7 -13 15 -20 17 -14 20 -66 4 -75 -5 -4 -15 -17 -20 -28 -5 -12 -19
-38 -30 -57 -12 -19 -32 -55 -46 -80 -13 -25 -33 -58 -44 -75 -10 -16 -23 -39
-29 -50 -5 -11 -14 -27 -20 -35 -5 -8 -36 -62 -70 -120 -33 -58 -65 -112 -70
-120 -6 -8 -14 -24 -19 -35 -5 -11 -34 -61 -65 -112 -31 -51 -56 -94 -56 -97
0 -2 -40 -72 -90 -155 -49 -84 -90 -154 -90 -156 0 -5 -82 -148 -100 -175 -6
-8 -15 -24 -20 -35 -6 -11 -19 -33 -30 -50 -11 -16 -23 -37 -27 -45 -4 -8 -19
-35 -33 -61 -15 -25 -39 -65 -52 -90 -14 -25 -32 -55 -39 -67 -9 -15 -10 -25
-3 -32 7 -7 319 -10 980 -10 533 0 975 -4 982 -9 8 -4 19 -18 25 -29 7 -11 30
-51 51 -89 22 -37 47 -81 56 -98 16 -29 53 -91 78 -130 6 -11 15 -27 19 -35 4
-8 26 -48 50 -88 24 -40 43 -74 43 -77 0 -2 14 -24 30 -48 17 -25 30 -47 30
-50 0 -3 20 -40 45 -81 25 -42 45 -78 45 -81 0 -2 14 -24 30 -48 17 -25 30
-47 30 -51 0 -3 20 -39 45 -79 25 -41 45 -77 45 -80 0 -4 12 -23 26 -44 14
-21 30 -47 35 -58 5 -11 18 -34 28 -51 10 -17 30 -51 43 -75 22 -41 56 -98 86
-144 6 -11 15 -27 19 -35 4 -8 32 -58 62 -110 31 -52 67 -116 81 -142 14 -27
32 -48 40 -48 8 0 26 21 40 47 24 47 131 234 150 263 6 8 13 22 17 30 4 8 18
33 32 55 27 42 30 48 75 130 15 28 36 64 47 80 10 17 22 37 26 45 4 8 33 59
65 113 32 54 58 101 58 103 0 2 12 23 27 47 15 23 35 56 44 72 9 17 25 46 35
65 19 34 55 94 82 135 6 11 15 27 19 35 4 8 33 59 65 113 32 55 58 101 58 103
0 2 12 23 27 47 15 23 34 56 43 72 9 17 34 61 56 98 21 38 44 78 51 89 6 11
17 25 25 29 7 5 449 9 981 9 533 0 972 2 978 5 5 4 9 10 9 15 0 8 -103 190
-141 250 -5 8 -14 24 -19 35 -6 11 -19 34 -30 50 -11 17 -23 37 -27 45 -4 8
-26 48 -50 88 -24 40 -43 74 -43 76 0 3 -27 50 -60 106 -33 56 -60 104 -60
108 0 3 -6 13 -14 21 -7 9 -31 48 -52 86 -21 39 -53 94 -71 122 -18 29 -38 63
-43 75 -6 13 -19 37 -30 53 -11 17 -23 37 -27 45 -6 14 -84 148 -104 180 -5 8
-14 24 -19 35 -6 11 -19 34 -29 50 -11 17 -31 50 -44 75 -14 25 -34 61 -46 80
-11 19 -25 45 -30 57 -5 11 -15 24 -20 28 -6 3 -11 19 -11 35 0 16 5 32 11 35
5 4 15 17 20 28 5 12 19 38 30 57 12 19 32 55 46 80 13 25 33 59 44 75 10 17
23 39 29 50 5 11 14 27 20 35 5 8 36 62 70 120 33 58 65 112 70 120 6 8 14 25
20 38 5 12 25 46 43 75 18 28 50 84 71 122 21 39 45 77 52 86 8 8 14 19 14 23
0 5 27 53 60 108 33 54 60 101 60 103 0 5 82 148 100 175 6 8 15 24 20 35 6
11 19 34 30 50 11 17 23 37 27 45 4 8 19 35 33 61 15 25 39 65 52 90 14 25 32
55 39 67 9 15 10 25 3 32 -7 7 -319 10 -980 10 -533 0 -975 4 -982 9 -8 4 -19
18 -25 29 -7 11 -30 51 -51 89 -22 37 -47 82 -56 98 -9 17 -28 49 -43 72 -15
24 -27 45 -27 47 0 2 -27 50 -60 105 -33 56 -60 103 -60 106 0 2 -12 21 -26
42 -14 21 -30 47 -35 58 -5 11 -18 34 -28 51 -10 17 -30 51 -43 75 -13 24 -36
63 -51 86 -15 24 -27 45 -27 47 0 4 -111 198 -130 226 -6 8 -13 22 -17 30 -4
8 -40 71 -80 139 -40 67 -73 125 -73 126 0 2 -33 59 -73 127 -40 68 -83 144
-96 171 -15 30 -29 47 -41 47 -12 0 -26 -17 -41 -47z m70 -100 c6 -16 20 -41
30 -58 20 -30 43 -71 77 -135 11 -19 22 -37 25 -40 3 -3 22 -34 41 -70 32 -58
114 -201 138 -240 5 -8 37 -64 72 -125 35 -60 68 -119 75 -130 7 -11 16 -27
20 -35 4 -8 40 -70 80 -138 40 -68 73 -125 73 -127 0 -2 27 -49 60 -105 33
-56 60 -104 60 -108 0 -3 6 -13 14 -21 7 -9 31 -47 52 -86 21 -38 53 -93 71
-122 18 -29 33 -61 33 -73 l0 -20 -952 2 c-896 3 -953 4 -950 20 1 10 33 68
71 130 37 62 70 120 74 128 4 8 11 22 17 30 16 25 130 221 130 225 0 2 33 59
73 127 40 68 76 130 80 138 4 8 13 24 20 35 7 11 40 70 75 130 35 61 67 117
73 125 27 44 129 222 129 226 0 4 142 246 160 274 6 8 15 27 21 43 6 15 19 27
29 27 10 0 23 -12 29 -27z m-2866 -1715 c23 -13 45 -28 49 -34 4 -7 19 -15 33
-18 14 -4 25 -11 25 -16 0 -6 9 -10 19 -10 11 0 23 -5 26 -11 4 -5 17 -15 28
-20 34 -15 68 -36 80 -48 6 -6 19 -11 29 -11 10 0 18 -5 18 -10 0 -6 10 -15
23 -20 12 -6 30 -14 40 -20 9 -5 25 -15 35 -20 9 -6 27 -14 39 -19 11 -6 24
-15 28 -20 3 -6 15 -11 26 -11 11 0 22 -7 25 -15 4 -8 12 -15 19 -15 7 0 18
-7 25 -15 7 -8 21 -15 31 -15 11 0 19 -4 19 -9 0 -5 12 -14 28 -20 15 -6 41
-20 57 -30 17 -11 50 -30 75 -43 25 -13 49 -29 53 -35 4 -7 16 -13 26 -13 10
0 24 -7 31 -15 7 -8 18 -15 25 -15 7 0 18 -7 25 -15 7 -8 21 -15 31 -15 11 0
19 -4 19 -10 0 -5 11 -12 25 -16 14 -3 25 -10 25 -14 0 -4 14 -13 30 -19 17
-5 30 -15 30 -20 0 -6 8 -11 19 -11 10 0 24 -7 31 -15 7 -8 18 -15 25 -15 7 0
18 -7 25 -15 7 -8 20 -15 30 -15 10 0 20 -7 24 -15 3 -8 14 -15 25 -15 41 0
32 -38 -30 -135 -10 -16 -23 -39 -29 -50 -5 -11 -14 -27 -20 -35 -15 -22 -95
-163 -103 -180 -4 -8 -19 -36 -35 -62 -15 -25 -67 -116 -117 -202 -49 -86 -95
-156 -101 -156 -7 0 -15 6 -18 13 -3 6 -15 26 -26 42 -11 17 -23 37 -27 45 -6
14 -83 149 -102 180 -17 26 -136 234 -144 250 -4 8 -16 29 -27 45 -10 17 -25
41 -33 55 -19 36 -243 422 -267 462 -11 18 -23 40 -27 48 -4 8 -32 58 -63 110
-31 52 -59 102 -63 110 -4 8 -16 29 -27 45 -11 17 -24 39 -29 50 -5 11 -21 37
-35 58 -47 68 -29 85 47 45z m1750 8 c3 -8 0 -19 -7 -25 -6 -6 -22 -29 -34
-53 -13 -24 -27 -50 -32 -58 -20 -31 -130 -222 -130 -225 0 -2 -27 -49 -60
-105 -33 -56 -60 -103 -60 -105 0 -2 -13 -24 -30 -48 -17 -25 -30 -49 -30 -53
-1 -5 -11 -22 -24 -37 l-23 -29 -33 19 c-62 35 -72 41 -83 52 -6 6 -19 11 -28
11 -9 0 -19 7 -23 15 -3 8 -14 15 -25 15 -11 0 -23 5 -26 11 -4 5 -17 15 -28
20 -12 5 -35 18 -52 29 -16 11 -39 24 -50 30 -11 5 -27 14 -35 19 -8 5 -22 12
-30 15 -8 4 -28 15 -45 26 -16 10 -50 29 -75 42 -25 13 -51 29 -58 36 -7 6
-20 12 -28 12 -8 0 -17 7 -20 15 -4 8 -16 15 -29 15 -13 0 -25 7 -29 15 -3 8
-12 15 -19 15 -8 0 -20 7 -27 15 -7 8 -20 15 -30 15 -10 0 -20 7 -24 15 -3 8
-14 15 -25 15 -11 0 -23 5 -26 11 -4 5 -17 15 -28 20 -12 5 -35 18 -52 29 -16
11 -34 22 -40 24 -5 2 -17 7 -25 10 -8 3 -28 15 -45 26 -16 11 -39 24 -50 30
-11 6 -33 19 -50 30 -16 11 -40 24 -52 29 -11 5 -24 15 -28 20 -3 6 -17 11
-31 11 -17 0 -24 5 -24 20 0 20 7 20 849 20 726 0 850 -2 854 -14z m2100 -10
c12 -13 35 -48 50 -77 16 -30 37 -67 47 -84 11 -16 23 -37 27 -45 4 -8 26 -46
48 -85 23 -38 57 -97 75 -130 18 -33 46 -79 61 -103 16 -24 29 -47 29 -52 0
-5 14 -29 30 -53 17 -25 30 -48 30 -53 0 -4 7 -16 16 -26 14 -14 14 -19 3 -23
-27 -10 -2859 -10 -2862 0 -4 10 60 122 74 131 5 3 9 11 9 19 0 8 13 33 29 57
15 24 43 70 61 103 18 33 52 92 75 130 22 39 44 77 48 85 4 8 16 29 27 45 11
17 23 37 27 45 17 37 68 116 81 128 13 9 228 12 1004 12 l989 0 22 -24z m1837
8 c0 -9 9 -18 20 -21 22 -6 20 -33 -5 -63 -6 -8 -15 -22 -19 -30 -3 -8 -15
-28 -26 -45 -11 -16 -23 -37 -27 -45 -4 -8 -32 -58 -63 -110 -31 -52 -59 -102
-63 -110 -4 -8 -16 -30 -27 -48 -24 -40 -248 -426 -267 -462 -8 -14 -23 -38
-33 -55 -11 -16 -23 -37 -27 -45 -4 -8 -32 -58 -63 -110 -31 -52 -59 -102 -63
-110 -4 -8 -11 -22 -17 -30 -14 -21 -95 -162 -103 -180 -4 -8 -16 -28 -27 -45
-11 -16 -23 -36 -26 -42 -14 -29 -34 -5 -119 143 -50 86 -102 177 -117 203
-16 25 -31 53 -35 61 -8 17 -88 158 -103 180 -6 8 -15 24 -20 35 -6 11 -19 34
-30 50 -10 17 -27 44 -36 62 -14 29 -14 34 -1 48 9 8 26 20 39 25 13 6 37 19
53 30 17 11 39 24 50 30 11 5 27 14 35 19 8 5 22 12 30 15 8 4 29 15 45 26 17
11 39 24 50 30 11 5 27 14 35 19 8 5 22 12 30 15 8 4 29 15 45 26 17 10 53 31
80 45 28 14 64 35 80 45 17 11 42 25 58 31 15 6 27 15 27 20 0 5 9 9 19 9 11
0 23 5 26 11 4 5 17 15 28 20 12 5 36 18 52 29 28 19 35 22 68 35 12 5 22 10
62 33 11 7 29 17 40 22 11 6 34 19 50 30 17 11 42 25 58 31 15 6 27 15 27 20
0 5 9 9 19 9 11 0 23 5 26 11 4 5 17 15 28 20 12 5 36 18 52 29 30 20 43 26
70 35 8 2 15 9 15 15 0 13 -47 13 -55 -1 -4 -5 -17 -15 -28 -20 -12 -5 -49
-25 -82 -44 -33 -19 -67 -37 -75 -40 -8 -4 -22 -11 -30 -16 -8 -5 -25 -13 -37
-19 -13 -5 -23 -14 -23 -20 0 -5 -9 -10 -19 -10 -11 0 -23 -5 -26 -11 -4 -5
-17 -14 -28 -20 -12 -5 -29 -13 -37 -18 -8 -5 -22 -12 -30 -15 -8 -4 -28 -15
-45 -26 -16 -11 -42 -25 -57 -31 -16 -6 -28 -14 -28 -19 0 -4 -8 -10 -17 -14
-10 -3 -25 -10 -33 -15 -8 -5 -22 -12 -30 -15 -8 -3 -23 -10 -32 -16 -46 -26
-54 -31 -73 -40 -11 -6 -33 -19 -50 -30 -16 -10 -52 -31 -80 -45 -27 -14 -63
-35 -80 -45 -16 -11 -42 -25 -57 -31 -16 -6 -28 -15 -28 -20 0 -5 -8 -9 -19
-9 -10 0 -24 -7 -31 -15 -7 -8 -18 -15 -25 -15 -7 0 -18 -7 -25 -15 -7 -8 -21
-15 -32 -15 -10 0 -21 -7 -24 -15 -4 -8 -14 -15 -24 -15 -10 0 -23 -7 -30 -15
-29 -35 -62 -3 -120 110 -5 11 -14 27 -20 35 -16 25 -130 221 -130 225 0 2
-19 36 -43 77 -24 40 -46 80 -50 88 -4 8 -16 29 -27 45 -11 17 -24 39 -29 50
-5 11 -21 37 -35 58 -15 21 -24 43 -21 48 4 5 353 9 886 9 798 0 879 -1 879
-16z m-1405 -785 c4 -6 -2 -13 -13 -16 -11 -3 -23 -11 -26 -19 -3 -8 -16 -14
-30 -14 -13 0 -26 -7 -30 -15 -3 -8 -15 -15 -26 -15 -11 0 -23 -7 -26 -15 -4
-8 -14 -15 -24 -15 -10 0 -23 -7 -30 -15 -7 -8 -18 -15 -25 -15 -7 0 -18 -7
-25 -15 -7 -8 -20 -15 -30 -15 -10 0 -20 -7 -24 -15 -3 -8 -14 -15 -25 -15
-11 0 -23 -5 -26 -11 -4 -5 -17 -15 -28 -20 -12 -5 -49 -25 -82 -44 -33 -19
-67 -37 -75 -40 -8 -4 -22 -11 -30 -16 -8 -5 -24 -14 -35 -19 -11 -6 -33 -19
-50 -30 -16 -11 -40 -24 -52 -29 -11 -5 -24 -15 -28 -20 -3 -6 -15 -11 -26
-11 -11 0 -22 -7 -25 -15 -4 -8 -14 -15 -24 -15 -10 0 -23 -6 -29 -14 -7 -8
-23 -17 -36 -20 -14 -4 -25 -11 -25 -16 0 -6 -8 -10 -18 -10 -10 0 -23 -5 -29
-11 -12 -12 -30 -22 -108 -63 -27 -15 -63 -36 -80 -46 -16 -11 -36 -22 -42
-25 -7 -3 -19 -7 -25 -10 -7 -3 -26 -14 -43 -25 -16 -11 -40 -24 -52 -29 -11
-5 -24 -15 -28 -20 -3 -6 -15 -11 -25 -11 -10 0 -23 -8 -29 -17 -7 -14 -22
-18 -61 -18 -39 0 -54 4 -61 18 -6 9 -19 17 -29 17 -10 0 -22 5 -25 11 -4 5
-17 15 -28 20 -12 5 -35 18 -52 29 -16 11 -39 24 -50 30 -11 6 -33 19 -50 30
-16 11 -36 22 -42 25 -7 3 -19 7 -25 10 -7 3 -26 14 -43 25 -16 11 -39 24 -50
30 -11 6 -33 19 -50 30 -16 11 -34 22 -40 24 -5 2 -17 7 -25 10 -8 3 -28 15
-45 26 -16 11 -39 24 -50 30 -11 6 -33 19 -50 30 -16 11 -36 22 -42 25 -7 3
-19 7 -25 10 -7 3 -26 14 -43 25 -16 11 -40 24 -52 29 -11 5 -24 15 -28 20 -3
6 -15 11 -26 11 -11 0 -22 7 -25 15 -4 8 -14 15 -23 15 -9 0 -22 5 -28 11 -12
12 -46 33 -80 48 -11 5 -24 15 -28 20 -3 6 -15 11 -26 11 -10 0 -19 5 -19 10
0 6 -10 15 -22 20 -23 10 -33 15 -73 38 -11 7 -30 16 -42 21 -11 6 -24 15 -28
20 -3 6 -13 11 -21 11 -20 0 -74 41 -68 52 8 13 2851 10 2859 -3z m-2885 -80
c0 -9 6 -22 14 -28 8 -7 17 -23 20 -36 4 -14 11 -25 16 -25 6 0 10 -6 10 -14
0 -7 7 -19 15 -26 8 -7 15 -20 15 -30 0 -10 7 -20 15 -24 8 -3 15 -14 15 -24
0 -11 7 -25 15 -32 8 -7 15 -18 15 -26 0 -7 6 -19 13 -26 7 -7 16 -20 20 -28
4 -8 11 -23 17 -32 26 -46 31 -54 40 -73 6 -11 19 -33 30 -50 11 -16 24 -39
29 -50 5 -11 21 -37 35 -58 14 -21 26 -44 26 -52 0 -8 6 -18 13 -22 6 -4 23
-30 37 -56 26 -51 38 -72 70 -122 10 -16 30 -54 45 -82 14 -29 30 -53 35 -53
6 0 10 -9 10 -19 0 -11 5 -23 11 -26 5 -4 15 -17 20 -28 5 -12 18 -35 29 -52
11 -16 22 -37 26 -45 3 -8 10 -22 15 -30 5 -8 14 -24 19 -35 6 -11 19 -33 30
-50 11 -16 24 -39 30 -50 6 -11 19 -33 30 -50 11 -16 25 -41 30 -55 6 -13 14
-27 18 -30 4 -3 17 -25 30 -50 13 -25 32 -58 43 -75 10 -16 24 -42 30 -57 6
-16 15 -28 19 -28 4 0 11 -11 14 -25 4 -14 11 -25 16 -25 6 0 10 -9 10 -20 0
-11 7 -23 15 -26 8 -4 15 -14 15 -24 0 -11 5 -22 11 -25 5 -4 15 -17 20 -28
15 -34 36 -68 48 -80 6 -6 11 -17 11 -24 0 -6 12 -29 26 -50 14 -21 30 -47 35
-58 5 -11 18 -33 29 -50 11 -16 24 -40 29 -52 5 -11 15 -24 20 -28 6 -3 11
-15 11 -25 0 -10 6 -23 13 -27 6 -4 23 -30 37 -56 38 -75 47 -89 59 -96 6 -4
14 -21 17 -39 l7 -32 -470 0 c-360 0 -473 3 -485 13 -13 11 -64 90 -81 127 -4
8 -16 29 -27 45 -11 17 -23 37 -27 45 -4 8 -26 47 -48 85 -23 39 -57 97 -75
130 -18 33 -46 79 -61 103 -16 24 -29 47 -29 52 0 5 -13 28 -29 52 -15 24 -43
70 -61 103 -18 33 -44 77 -57 98 -13 21 -28 48 -34 60 -5 12 -18 36 -29 52
-11 17 -24 39 -30 50 -5 11 -14 27 -20 35 -19 31 -97 166 -103 180 -4 8 -11
22 -17 30 -17 26 -160 272 -160 276 0 2 -13 26 -30 54 -16 28 -30 59 -30 70 0
11 14 42 30 70 17 28 30 52 30 54 0 4 143 250 160 276 6 8 13 22 17 30 6 14
84 149 103 180 6 8 15 24 20 35 6 11 19 34 30 50 11 17 31 54 45 82 l26 53 24
-18 c14 -9 25 -24 25 -33z m2962 -16 c18 -32 36 -64 41 -73 4 -8 16 -28 26
-45 11 -16 32 -52 47 -80 14 -27 35 -62 45 -76 10 -15 23 -37 29 -50 5 -13 14
-31 20 -39 18 -27 160 -272 160 -276 0 -2 14 -26 30 -54 17 -28 30 -59 30 -70
0 -11 -13 -42 -30 -70 -16 -28 -30 -52 -30 -54 0 -2 -33 -60 -73 -127 -40 -68
-76 -131 -80 -139 -4 -8 -11 -22 -16 -30 -6 -8 -31 -51 -56 -95 -25 -44 -50
-87 -55 -95 -6 -8 -15 -24 -20 -35 -6 -11 -19 -33 -30 -50 -11 -16 -24 -40
-29 -52 -6 -12 -21 -39 -34 -60 -13 -21 -39 -65 -57 -98 -18 -33 -46 -79 -61
-103 -16 -24 -29 -47 -29 -52 0 -5 -13 -28 -29 -52 -15 -24 -43 -70 -61 -103
-18 -33 -52 -91 -75 -130 -22 -38 -44 -77 -48 -85 -4 -8 -16 -28 -27 -45 -10
-16 -31 -54 -47 -84 -15 -29 -38 -64 -50 -77 l-22 -24 -472 0 -471 0 6 32 c3
18 11 35 17 39 12 7 21 21 59 96 14 26 31 52 37 56 7 4 13 17 13 27 0 10 5 22
11 25 5 4 15 17 20 28 5 12 18 36 29 52 11 17 24 39 29 50 5 11 21 37 35 58
14 21 26 44 26 52 0 8 5 17 11 20 5 4 15 17 20 28 15 34 36 68 48 80 6 6 11
19 11 28 0 9 7 19 15 23 8 3 15 12 15 19 0 8 7 20 15 27 8 7 15 21 15 31 0 11
4 19 9 19 5 0 14 12 20 28 6 15 20 41 30 57 11 17 30 50 43 75 13 25 29 49 35
53 7 4 13 17 13 27 0 10 5 22 11 25 5 4 15 17 20 28 5 12 18 36 29 52 11 17
24 39 30 50 6 11 19 34 30 50 11 17 23 37 26 45 3 8 8 20 10 25 2 6 13 24 24
40 11 17 24 39 30 50 6 11 19 34 30 50 11 17 24 39 30 50 5 11 14 28 20 38 5
9 15 25 20 35 6 9 15 26 20 37 6 11 19 34 30 50 10 17 29 50 42 75 13 25 29
49 35 53 7 4 13 14 13 22 0 8 12 31 26 52 14 21 30 47 35 58 5 11 18 34 29 50
11 17 24 39 30 50 5 11 14 27 19 35 5 8 12 22 15 30 4 8 15 29 26 45 11 17 24
39 30 50 6 11 19 34 30 50 11 17 24 40 29 52 5 11 15 24 20 28 6 3 11 15 11
26 0 10 4 19 9 19 5 0 14 12 20 28 22 52 57 102 71 102 5 0 23 -26 42 -57z
m-2898 32 c3 -8 15 -15 26 -15 11 0 23 -7 26 -15 4 -8 14 -15 24 -15 11 0 22
-5 25 -11 4 -5 17 -14 28 -20 12 -5 30 -13 40 -19 9 -5 25 -15 35 -20 9 -6 26
-15 37 -20 11 -6 34 -19 50 -30 17 -11 40 -24 52 -29 11 -5 24 -15 28 -20 3
-6 14 -11 25 -11 10 0 20 -7 24 -15 3 -8 14 -15 25 -15 11 0 23 -5 26 -11 4
-5 17 -15 28 -20 34 -15 68 -36 80 -48 6 -6 19 -11 28 -11 9 0 19 -7 23 -15 3
-8 14 -15 25 -15 10 0 21 -7 25 -15 3 -8 15 -15 26 -15 11 0 20 -4 20 -9 0 -5
12 -14 28 -20 35 -15 71 -36 85 -50 6 -6 19 -11 29 -11 10 0 21 -7 24 -15 4
-8 15 -15 25 -15 10 0 19 -4 19 -9 0 -5 12 -14 28 -20 15 -6 41 -20 57 -31 17
-11 37 -22 45 -26 8 -3 22 -10 30 -15 8 -5 24 -14 35 -19 11 -6 34 -19 50 -30
17 -11 39 -24 50 -30 11 -6 34 -19 50 -30 17 -11 38 -23 48 -26 10 -4 23 -18
28 -31 5 -14 9 -313 9 -704 0 -446 3 -679 10 -679 6 0 10 8 10 18 0 9 0 315 0
678 0 413 3 672 10 688 5 14 17 26 25 26 9 0 18 7 21 15 4 8 14 15 24 15 10 0
23 6 29 14 7 8 23 17 36 20 14 4 25 11 25 16 0 6 8 10 19 10 10 0 24 7 31 15
7 8 19 15 27 15 7 0 16 7 19 15 4 8 17 15 29 15 13 0 27 5 30 11 4 5 17 15 28
20 12 5 36 18 52 29 17 11 39 24 50 30 11 5 27 14 35 19 8 5 22 12 30 15 8 4
29 15 45 26 17 11 39 24 50 30 11 5 27 14 35 19 8 5 22 12 30 15 8 4 29 15 45
26 17 11 36 22 43 25 6 3 18 7 25 10 6 3 26 14 42 25 17 11 39 24 50 30 11 5
27 14 35 19 8 5 22 12 30 15 8 4 29 15 45 26 17 11 40 24 52 29 11 5 24 15 28
20 3 6 15 11 26 11 11 0 22 7 25 15 4 8 14 15 24 15 11 0 21 4 25 9 3 6 30 21
60 36 30 14 55 30 55 35 0 6 8 10 19 10 10 0 24 7 31 15 7 8 23 15 36 15 15 0
24 -6 24 -15 0 -8 -5 -15 -10 -15 -6 0 -15 -10 -20 -22 -6 -13 -15 -32 -22
-43 -6 -11 -15 -27 -20 -35 -5 -8 -11 -23 -14 -32 -4 -10 -10 -18 -14 -18 -5
0 -13 -12 -19 -27 -6 -16 -20 -41 -31 -58 -11 -16 -24 -39 -30 -50 -6 -11 -19
-33 -30 -50 -11 -16 -24 -39 -30 -50 -5 -11 -14 -27 -19 -35 -5 -8 -12 -22
-15 -30 -4 -8 -15 -28 -26 -45 -11 -16 -24 -39 -30 -50 -10 -20 -20 -38 -40
-72 -6 -10 -13 -26 -16 -35 -4 -10 -10 -18 -14 -18 -5 0 -13 -12 -19 -27 -6
-16 -20 -41 -31 -58 -11 -16 -24 -39 -30 -50 -6 -11 -19 -33 -30 -50 -11 -16
-31 -52 -45 -80 -14 -27 -35 -63 -45 -80 -11 -16 -24 -39 -30 -50 -6 -11 -19
-33 -30 -50 -11 -16 -24 -39 -30 -50 -5 -11 -15 -29 -22 -40 -6 -11 -15 -27
-20 -35 -5 -8 -11 -23 -14 -32 -3 -9 -12 -19 -20 -22 -8 -3 -14 -14 -14 -25 0
-11 -5 -23 -11 -26 -5 -4 -15 -17 -20 -28 -5 -12 -18 -35 -29 -52 -11 -16 -22
-36 -25 -42 -3 -7 -7 -19 -10 -25 -3 -7 -14 -26 -25 -43 -11 -16 -24 -39 -30
-50 -6 -11 -19 -33 -30 -50 -11 -16 -24 -39 -30 -50 -6 -11 -19 -33 -30 -50
-11 -16 -23 -37 -26 -45 -3 -8 -8 -19 -10 -25 -2 -5 -13 -23 -24 -40 -11 -16
-24 -40 -29 -52 -5 -11 -15 -24 -20 -28 -6 -3 -11 -14 -11 -25 0 -10 -7 -20
-15 -24 -8 -3 -15 -14 -15 -24 0 -11 -7 -25 -15 -32 -8 -7 -15 -19 -15 -26 0
-8 -4 -14 -9 -14 -5 0 -14 -12 -20 -27 -6 -16 -20 -41 -31 -58 -11 -16 -24
-40 -29 -52 -5 -11 -15 -24 -20 -28 -6 -3 -11 -14 -11 -25 0 -10 -7 -20 -15
-24 -8 -3 -15 -16 -15 -29 0 -19 -7 -26 -30 -30 -17 -4 -44 -4 -60 0 -23 4
-30 11 -30 30 0 13 -7 26 -15 29 -8 4 -15 14 -15 24 0 11 -5 22 -11 25 -5 4
-15 17 -20 28 -5 12 -18 36 -29 52 -11 17 -25 41 -30 55 -6 13 -14 27 -18 30
-4 3 -17 26 -30 53 -13 26 -28 47 -33 47 -5 0 -9 9 -9 19 0 11 -5 23 -11 26
-5 4 -15 17 -20 28 -5 12 -18 36 -29 52 -11 17 -23 37 -26 45 -3 8 -8 20 -10
25 -2 6 -13 24 -24 40 -11 17 -24 39 -30 50 -6 11 -19 34 -30 50 -11 17 -24
39 -30 50 -6 11 -19 34 -30 50 -11 17 -22 36 -25 43 -3 6 -7 18 -10 25 -3 6
-14 26 -25 42 -11 17 -24 40 -29 52 -5 11 -15 24 -20 28 -6 3 -11 15 -11 25 0
10 -6 23 -13 27 -8 4 -17 15 -20 23 -4 8 -11 23 -17 33 -26 45 -31 53 -40 72
-6 11 -19 34 -30 50 -11 17 -25 41 -30 55 -6 13 -14 27 -18 30 -9 7 -25 34
-57 95 -14 28 -34 64 -45 80 -11 17 -24 39 -30 50 -6 11 -19 34 -30 50 -11 17
-25 42 -31 58 -6 15 -14 27 -19 27 -4 0 -10 8 -14 18 -3 9 -10 24 -15 32 -5 8
-12 22 -15 30 -4 8 -15 29 -26 45 -11 17 -24 39 -30 50 -5 11 -14 27 -19 35
-5 8 -12 22 -15 30 -4 8 -15 29 -26 45 -11 17 -24 39 -30 50 -6 11 -19 34 -30
50 -11 17 -24 40 -29 52 -5 11 -15 24 -20 28 -6 3 -11 15 -11 26 0 11 -7 22
-15 25 -8 4 -15 14 -15 24 0 11 -5 22 -11 25 -5 4 -14 17 -20 28 -10 25 -26
51 -51 86 -10 13 -18 30 -18 37 0 19 36 18 44 -1z m-519 -1031 c50 -86 102
-177 117 -203 16 -25 31 -53 35 -61 4 -8 25 -46 48 -85 22 -38 44 -77 48 -85
4 -8 16 -28 27 -45 11 -16 24 -39 30 -50 5 -11 14 -27 20 -35 29 -45 100 -169
100 -175 0 -4 14 -27 30 -52 17 -24 30 -46 30 -48 0 -2 27 -49 60 -105 33 -56
60 -103 60 -105 0 -3 110 -194 130 -225 5 -8 19 -34 32 -58 12 -24 28 -47 34
-53 7 -6 10 -17 7 -25 -4 -12 -135 -14 -909 -14 -805 0 -905 2 -911 15 -3 9 1
23 9 33 16 18 108 170 108 177 0 3 26 49 58 102 32 54 61 105 65 113 4 8 16
30 27 48 24 40 248 426 267 462 8 14 23 39 33 55 11 17 23 37 27 45 4 8 32 58
63 110 31 52 59 102 63 110 4 8 11 22 17 30 14 21 95 162 103 180 4 8 16 29
27 45 11 17 23 36 26 43 14 28 34 4 119 -144z m3909 144 c3 -7 15 -26 26 -43
11 -16 23 -37 27 -45 4 -8 25 -46 48 -85 22 -38 44 -77 48 -85 4 -8 11 -22 17
-30 18 -27 100 -170 100 -175 0 -2 12 -21 26 -42 14 -21 30 -47 35 -58 5 -11
19 -36 30 -55 50 -83 209 -360 209 -364 0 -3 12 -22 26 -43 14 -21 30 -47 35
-58 5 -11 13 -27 19 -35 23 -35 89 -150 124 -215 21 -38 45 -77 52 -86 8 -8
14 -19 14 -23 0 -5 14 -28 31 -53 16 -25 28 -52 25 -59 -5 -12 -154 -14 -910
-14 -548 0 -907 4 -911 9 -3 5 6 27 21 48 14 21 30 47 35 58 5 11 18 34 29 50
11 17 23 37 27 45 4 8 26 48 50 88 24 41 43 75 43 77 0 2 27 49 60 105 33 56
60 103 60 105 0 2 14 24 30 48 17 25 30 48 30 52 0 4 19 40 43 79 24 39 46 78
50 86 4 8 16 29 27 45 11 17 23 37 27 45 4 8 32 58 63 110 31 52 59 102 63
110 4 8 19 36 35 61 15 26 67 117 117 203 85 148 105 172 119 144z m-2030
-1650 l16 -23 16 23 16 22 459 0 c456 0 459 0 459 -20 0 -12 -15 -44 -33 -73
-18 -29 -50 -83 -71 -122 -21 -38 -45 -77 -52 -86 -8 -8 -14 -19 -14 -22 0 -4
-18 -37 -41 -73 -22 -37 -45 -77 -50 -88 -5 -12 -18 -34 -29 -51 -11 -16 -24
-39 -30 -50 -5 -11 -14 -27 -19 -35 -20 -32 -98 -166 -104 -180 -5 -8 -13 -24
-20 -35 -7 -11 -40 -70 -75 -130 -35 -61 -67 -117 -72 -125 -35 -56 -130 -223
-130 -226 0 -2 -34 -60 -75 -129 -41 -70 -75 -132 -75 -140 0 -7 -13 -20 -30
-29 -27 -13 -33 -13 -60 0 -16 9 -30 22 -30 29 0 8 -34 70 -75 140 -41 69 -75
127 -75 129 0 2 -26 48 -58 103 -32 54 -61 105 -65 113 -4 8 -13 24 -19 35
-26 40 -62 101 -84 140 -11 22 -31 56 -43 75 -11 19 -24 42 -28 50 -4 8 -40
70 -80 138 -40 68 -73 125 -73 127 0 2 -26 48 -58 102 -32 54 -61 105 -65 113
-4 8 -11 22 -17 30 -55 85 -150 256 -150 271 0 18 14 19 459 19 l459 0 16 -22z"/>
<path d="M3819 2393 c-1 -21 -3 -55 -5 -75 -3 -32 0 -38 16 -38 16 0 19 6 16
38 -2 20 -4 54 -5 75 0 20 -5 37 -11 37 -5 0 -11 -17 -11 -37z"/>
<path d="M3818 2013 c0 -27 -1 -55 0 -63 1 -8 2 -312 2 -674 1 -410 4 -656 10
-650 8 8 13 755 10 1387 0 26 -4 47 -10 47 -5 0 -11 -21 -12 -47z"/>
<path d="M3820 581 c0 -17 5 -31 10 -31 6 0 10 11 10 24 0 14 -4 28 -10 31 -6
4 -10 -7 -10 -24z"/>
</g>
</svg>
