<?xml version="1.0" standalone="no"?>
<!DOCTYPE svg PUBLIC "-//W3C//DTD SVG 20010904//EN"
 "http://www.w3.org/TR/2001/REC-SVG-20010904/DTD/svg10.dtd">
<svg version="1.0" xmlns="http://www.w3.org/2000/svg"
 width="900.000000pt" height="932.000000pt" viewBox="0 0 300.000000 332.000000"
 preserveAspectRatio="xMidYMid meet">
<metadata>
Created by potrace 1.10, written by Peter Selinger 2001-2011
</metadata>
<g transform="translate(0.000000,332.000000) scale(0.050000,-0.050000)"
fill="#000000" stroke="none">
<path d="M2727 6518 c-335 -129 -500 -518 -368 -866 29 -74 75 -41 -536 -390
-619 -354 -522 -323 -633 -205 -265 284 -705 279 -969 -10 -343 -375 -138
-985 364 -1087 l115 -23 0 -626 0 -626 -95 -14 c-518 -77 -733 -712 -376
-1108 246 -272 732 -265 973 15 l82 95 548 -312 c477 -271 547 -316 536 -351
-99 -340 -62 -548 135 -751 469 -483 1316 17 1100 651 -49 147 -111 93 528
459 l538 308 45 -68 c199 -292 682 -331 964 -77 406 365 198 1069 -336 1140
l-92 12 0 627 0 627 80 13 c535 86 753 744 372 1123 -270 269 -713 254 -964
-31 l-78 -88 -551 316 c-436 249 -548 322 -538 347 236 562 -283 1116 -844
900z m444 -20 c332 -102 527 -521 388 -832 l-29 -63 -278 157 -278 157 -112
-62 c-62 -34 -187 -106 -279 -159 -92 -54 -170 -95 -173 -92 -27 29 -70 218
-69 302 3 429 412 721 830 592z m-391 -899 l-144 -243 -98 96 c-54 53 -96 105
-92 115 6 19 460 291 471 282 3 -3 -58 -115 -137 -250z m594 59 l145 -81 -44
-60 c-24 -32 -73 -81 -107 -107 l-63 -48 -138 233 c-75 128 -140 241 -144 251
-4 9 41 -11 100 -45 59 -35 172 -99 251 -143z m-228 -358 c-9 -8 -50 -20 -91
-26 l-75 -11 1 283 2 284 89 -258 c49 -142 83 -265 74 -272z m-186 234 l0
-267 -85 12 c-47 6 -85 21 -85 33 0 23 157 488 165 488 3 0 5 -120 5 -266z
m-133 -10 c-40 -112 -83 -204 -95 -204 -70 1 -62 38 45 223 138 236 140 236
50 -19z m345 11 c100 -174 104 -186 67 -203 -49 -23 -38 -40 -126 207 -86 243
-82 243 59 -4z m-752 6 c0 -10 45 -63 100 -117 l100 -98 -205 -353 -205 -353
-415 0 -414 0 -11 55 c-6 30 -25 100 -43 154 -17 55 -24 103 -14 106 9 4 256
146 547 314 546 317 560 324 560 292z m1730 -330 c264 -151 483 -277 486 -281
4 -3 -7 -48 -25 -99 -17 -51 -31 -119 -31 -152 l0 -59 -425 1 -425 1 -202 352
-202 352 112 114 112 114 60 -35 c33 -19 276 -158 540 -308z m-1441 82 c48
-35 36 -52 -90 -130 l-103 -64 46 76 c25 41 55 91 67 110 25 42 33 43 80 8z
m654 -89 l61 -106 -77 50 c-142 91 -159 113 -116 145 52 38 63 30 132 -89z
m-2399 -19 c98 -43 276 -194 276 -233 0 -12 -121 -93 -270 -179 l-270 -156 0
-321 0 -321 -90 12 c-278 38 -505 286 -525 575 -34 473 447 814 879 623z
m1996 -255 l0 -310 -212 0 c-194 0 -211 3 -198 35 7 19 53 147 101 283 48 136
91 250 94 254 19 18 112 46 160 47 l55 1 0 -310z m231 265 c13 -14 62 -137
109 -275 47 -137 90 -261 95 -275 7 -19 -42 -25 -203 -25 l-212 0 0 313 0 312
95 -13 c52 -7 104 -24 116 -37z m2301 -13 c558 -241 443 -1112 -158 -1195
l-84 -11 0 322 c0 200 -8 322 -20 323 -11 1 -157 1 -325 -1 -347 -3 -331 -14
-274 176 38 128 18 130 297 -29 128 -73 238 -128 244 -122 5 6 -96 71 -226
145 -130 75 -239 138 -243 141 -17 15 46 94 128 161 185 151 438 186 661 90z
m-2887 -288 l-95 -274 -85 0 c-169 0 -48 336 180 502 108 78 108 84 0 -228z
m819 153 c88 -92 176 -272 176 -363 0 -65 -1 -66 -83 -60 l-83 6 -97 270 c-53
149 -96 272 -97 276 -1 21 123 -67 184 -129z m-2126 -200 c13 -28 29 -91 35
-140 l12 -87 -286 0 c-157 0 -280 6 -273 12 17 18 461 267 476 268 6 0 22 -24
36 -53z m1022 -167 c0 -47 -9 -60 -41 -60 -40 0 -40 1 -6 60 20 33 38 60 41
60 3 0 6 -27 6 -60z m1350 0 c28 -54 28 -60 1 -60 -17 0 -31 7 -31 15 0 8 -6
35 -13 60 -17 64 6 56 43 -15z m-2330 -129 c0 -44 -7 -49 -57 -39 -32 7 -138
28 -235 48 l-178 35 235 3 235 2 0 -49z m192 -10 c-138 -72 -194 -63 -160 27
9 25 42 32 142 32 l130 0 -112 -59z m543 8 c76 -32 77 -35 26 -118 l-39 -63
-281 51 c-300 54 -315 62 -219 112 136 70 368 78 513 18z m112 21 c-14 -36 -8
-36 -90 -1 l-67 29 84 1 c67 1 82 -5 73 -29z m133 -25 c0 -30 6 -77 14 -104
12 -47 9 -46 -68 19 -69 58 -78 74 -59 104 37 59 113 47 113 -19z m168 10 c-7
-25 -30 -90 -49 -145 l-34 -100 -24 59 c-12 32 -28 97 -35 145 l-11 86 84 0
c78 0 83 -3 69 -45z m332 -19 c-60 -34 -168 -96 -240 -137 -157 -91 -153 -94
-96 69 l46 132 200 0 200 -1 -110 -63z m642 -71 c24 -74 48 -126 52 -114 3 11
-11 72 -33 135 l-39 114 79 0 c90 0 100 -34 56 -182 -33 -112 -58 -110 -289
25 -115 67 -214 118 -219 112 -10 -10 188 -132 351 -216 l90 -47 -60 -14
c-137 -31 -155 -23 -276 118 -63 73 -114 142 -113 152 1 10 -10 25 -24 34 -16
10 58 18 176 18 l204 0 45 -135z m276 100 c15 -29 3 -49 -62 -104 -62 -51 -78
-58 -70 -29 6 21 17 67 24 103 15 73 75 90 108 30z m112 7 c-61 -27 -90 -24
-90 9 0 11 34 19 75 18 l75 -1 -60 -26z m516 -37 c124 -53 112 -61 -186 -115
-137 -25 -261 -49 -274 -54 -13 -5 -42 27 -65 72 l-41 81 41 21 c125 67 362
65 525 -5z m214 16 c0 -76 -31 -78 -164 -12 l-122 61 143 0 c138 0 143 -2 143
-49z m330 10 c-99 -19 -209 -41 -245 -49 -60 -14 -65 -12 -65 36 l0 52 245 -2
245 -2 -180 -35z m-3797 -44 l223 -42 -30 -88 -30 -88 -93 54 c-194 114 -370
207 -377 199 -5 -4 91 -65 212 -135 241 -138 242 -140 174 -225 l-48 -57 -77
87 c-147 166 -246 268 -247 253 0 -9 67 -91 149 -183 142 -159 162 -213 82
-212 -25 1 -244 377 -235 405 3 11 -4 30 -15 44 -28 33 -1 56 48 42 23 -6 141
-30 264 -54z m4027 55 c0 -11 -439 -252 -459 -252 -18 0 -71 137 -58 149 6 6
449 102 502 109 8 1 15 -2 15 -6z m-4186 -548 c-35 -14 -102 -31 -149 -38
l-85 -11 0 297 0 298 148 -260 149 -259 -63 -27z m2006 356 c0 -205 7 -199
-188 -153 l-98 23 94 100 94 100 -53 -96 c-30 -53 -49 -101 -43 -106 6 -6 50
61 97 150 48 89 89 162 92 162 3 0 5 -81 5 -180z m96 90 c20 0 204 -197 204
-218 0 -50 -71 8 -122 99 -35 61 -67 106 -73 101 -5 -5 19 -58 53 -118 l62
-109 -75 -12 c-130 -22 -125 -29 -124 172 0 168 3 181 28 135 15 -27 36 -50
47 -50z m2097 53 c-18 -20 -26 -44 -18 -53 8 -9 5 -10 -8 -3 -14 8 -83 -55
-170 -156 l-146 -170 -56 53 c-80 78 -76 83 181 230 259 149 264 151 217 99z
m-2270 -10 c-13 -15 -16 -34 -8 -43 8 -9 5 -10 -8 -3 -14 8 -65 -34 -122 -99
l-98 -112 -103 17 -103 17 215 124 c217 126 267 147 227 99z m2337 -256 l0
-282 -87 12 c-108 14 -197 53 -189 82 7 26 262 471 270 471 3 0 6 -127 6 -283z
m-2929 140 c54 -56 84 -98 67 -91 -18 6 -73 17 -122 24 -133 20 -144 32 -102
107 46 80 40 81 157 -40z m1520 41 c39 -75 40 -74 -104 -108 -151 -35 -156
-25 -43 81 112 106 107 105 147 27z m-1780 -103 c13 -12 -191 -345 -209 -341
-60 15 -511 293 -506 312 4 13 33 52 66 86 l59 61 292 -56 c161 -30 295 -58
298 -62z m2558 35 c28 -37 51 -71 51 -77 0 -5 -92 -61 -205 -124 -113 -63
-230 -133 -261 -154 -31 -22 -61 -35 -66 -29 -44 44 -198 346 -180 353 54 21
564 113 586 106 13 -5 47 -39 75 -75z m482 -15 c-29 -47 -76 -128 -105 -181
-50 -90 -102 -117 -120 -61 -7 20 244 327 267 327 5 0 -14 -38 -42 -85z
m-2709 -89 c11 -11 6 -55 -13 -109 l-31 -92 -199 -39 c-225 -45 -233 -44 -114
16 161 81 358 202 348 212 -10 9 -117 -48 -403 -216 l-80 -47 32 49 c17 28 57
95 88 150 87 153 75 147 222 119 72 -14 140 -33 150 -43z m1680 -231 c15 -27
12 -32 -15 -21 -19 7 -28 5 -22 -6 6 -10 -76 -2 -183 19 l-194 38 -33 92 c-41
113 -37 117 136 149 l139 25 77 -131 c42 -71 85 -146 95 -165z m-2493 76 c141
-82 260 -153 264 -157 10 -10 -192 -345 -206 -341 -33 10 -387 440 -387 471 0
38 52 176 66 176 4 0 123 -67 263 -149z m1018 132 l58 -13 -41 -50 c-22 -27
-44 -45 -47 -40 -4 6 -29 35 -55 65 -54 61 -42 66 85 38z m914 -22 c-62 -114
-261 -128 -261 -18 0 33 68 17 114 -26 25 -24 46 -35 46 -23 0 12 -15 33 -33
49 -30 24 -28 28 25 40 114 24 131 21 109 -22z m1221 -56 c75 -223 9 -492
-163 -660 -105 -103 -99 -102 -150 -10 l-40 75 180 206 c100 114 184 217 188
230 7 28 -119 -102 -277 -282 l-111 -127 -86 153 c-48 84 -92 148 -98 142 -6
-6 27 -75 72 -154 95 -165 98 -178 41 -230 -23 -21 -61 -65 -83 -98 -30 -44
-14 -34 58 35 l98 95 37 -62 c45 -76 30 -94 -110 -130 -140 -37 -139 -37 -136
315 l3 294 263 149 c289 166 279 164 314 59z m-2243 -60 c1 -14 -21 -25 -49
-25 -57 0 -59 8 -26 102 l23 68 26 -60 c14 -33 26 -71 26 -85z m1117 40 c21
-64 21 -65 -37 -65 -66 0 -68 7 -37 99 25 71 42 63 74 -34z m-856 56 c0 -36
-64 -81 -115 -81 l-52 0 47 50 c46 49 120 68 120 31z m140 -21 c23 -15 18 -19
-23 -20 -30 0 -68 -6 -86 -12 -23 -9 -28 -4 -19 20 14 36 82 42 128 12z m351
-1 c19 -31 7 -35 -68 -24 -47 7 -59 15 -40 27 37 24 92 22 108 -3z m-251 -109
c0 -105 -37 -116 -206 -58 -122 41 -102 88 50 121 161 34 156 36 156 -63z
m195 58 c47 -7 90 -20 95 -29 6 -8 29 -10 53 -4 29 7 39 4 30 -11 -9 -14 6
-20 42 -18 43 3 56 -6 61 -41 10 -69 -82 -62 -114 9 -16 35 -30 46 -39 31 -20
-32 -174 -85 -246 -85 -55 0 -57 4 -57 92 0 86 3 92 45 81 25 -6 83 -17 130
-25z m-1972 -189 c8 -144 14 -143 -64 -8 -61 107 -62 113 -26 139 56 41 83 3
90 -131z m1454 148 c-21 -6 -29 -23 -23 -47 6 -21 22 -33 37 -27 15 6 43 1 63
-10 27 -16 6 -21 -90 -20 -117 0 -126 3 -120 43 6 40 65 70 136 70 23 -1 22
-3 -3 -9z m2243 -48 c0 -10 -27 -62 -60 -114 l-59 -95 -1 111 c0 125 26 168
83 137 20 -11 37 -28 37 -39z m-2420 13 c0 -5 5 -23 12 -40 7 -18 2 -32 -11
-32 -13 0 -17 11 -9 25 11 20 8 20 -13 0 -32 -29 -119 -34 -119 -6 0 10 16 28
35 39 35 21 105 30 105 14z m1128 -4 c66 -25 35 -68 -48 -65 -44 2 -80 12 -80
21 0 10 11 12 23 4 16 -10 20 -4 11 19 -13 35 32 45 94 21z m-1288 -38 c0 -24
-26 -30 -125 -28 l-125 2 120 26 c66 14 122 26 125 27 3 2 5 -10 5 -27z m1510
-9 c77 -17 75 -18 -38 -15 -77 3 -122 13 -127 30 -6 18 5 22 38 15 26 -6 83
-19 127 -30z m-2572 -327 c111 -191 202 -353 202 -361 0 -15 -376 -671 -401
-700 -8 -9 -40 -3 -72 13 -32 17 -100 37 -152 44 l-95 15 0 626 0 626 95 20
c52 11 118 29 145 40 28 11 56 21 63 22 8 0 105 -155 215 -345z m122 166 c81
-93 167 -193 193 -221 l46 -50 -48 -80 -48 -79 -109 112 c-73 74 -119 144
-141 210 -32 97 -68 307 -49 288 5 -5 76 -86 156 -180z m3745 125 l115 -31 0
-622 0 -622 -125 -32 c-69 -17 -138 -37 -155 -44 -23 -10 -72 59 -200 280 -93
161 -187 322 -207 356 l-37 63 207 355 c180 307 212 352 247 341 22 -7 92 -27
155 -44z m-2864 -31 c28 -4 28 -12 0 -87 l-31 -82 -138 78 c-76 43 -142 74
-147 69 -5 -5 51 -43 123 -85 149 -85 155 -98 75 -174 l-57 -54 -91 155 c-50
86 -82 159 -73 163 10 3 14 13 10 20 -7 12 237 10 329 -3z m1807 -7 c7 -17 3
-44 -9 -59 -13 -14 -18 -34 -11 -44 6 -10 -8 -66 -30 -126 -22 -59 -44 -121
-49 -136 -8 -21 -16 -23 -32 -7 -16 16 -4 53 43 135 35 62 60 117 55 122 -6 5
-39 -42 -75 -106 l-65 -115 -58 69 c-73 88 -79 77 82 170 175 100 168 119 -9
22 -72 -39 -138 -72 -147 -72 -13 0 -63 114 -63 146 0 7 74 15 165 19 91 4
171 9 178 11 7 2 18 -11 25 -29z m-1729 -48 c-50 -71 -69 -67 -40 8 11 29 34
53 52 53 26 0 25 -10 -12 -61z m151 -14 c-7 -41 -26 -105 -41 -141 l-28 -66
-81 42 -82 42 83 99 c105 126 170 136 149 24z m90 65 c0 -5 -19 -39 -42 -75
-23 -36 -37 -49 -30 -28 7 20 12 54 12 75 0 21 14 38 30 38 17 0 30 -4 30 -10z
m141 -12 c-28 -11 -80 -43 -118 -72 l-67 -51 25 47 c43 85 62 98 136 97 69 -1
70 -3 24 -21z m259 -280 l0 -301 -105 62 c-58 34 -175 100 -260 146 -184 101
-185 104 -45 231 113 104 232 160 345 162 l65 2 0 -302z m216 274 c111 -40
233 -124 293 -203 l51 -67 -135 -75 c-74 -41 -191 -109 -260 -151 -69 -42
-130 -76 -135 -76 -6 0 -10 135 -10 300 l0 300 57 0 c32 0 94 -13 139 -28z
m202 -25 c13 -29 28 -47 34 -41 6 6 1 29 -11 52 -18 34 -17 42 8 42 17 0 31
-13 31 -28 0 -16 6 -44 13 -64 10 -23 6 -30 -10 -20 -12 8 -23 4 -23 -8 0 -12
-30 0 -66 28 -36 28 -87 59 -115 70 -44 18 -42 20 33 21 69 1 85 -7 106 -52z
m212 -7 c31 -33 62 -55 67 -50 5 6 -11 33 -37 60 -39 42 -42 50 -13 50 32 0
85 -95 64 -115 -5 -6 -1 -26 9 -46 16 -29 6 -43 -52 -77 -87 -52 -96 -47 -127
72 -14 53 -29 112 -34 131 -16 57 59 42 123 -25z m-1757 -9 c-6 -16 -13 -147
-14 -290 -2 -144 -10 -261 -17 -261 -32 0 -233 65 -249 80 -13 13 12 70 61
138 3 5 43 -34 88 -86 46 -51 87 -89 93 -84 5 6 -28 53 -73 105 -93 105 -93
96 19 288 74 127 120 181 92 110z m2259 -251 c-1 -143 -6 -259 -12 -259 -5 1
-36 33 -67 70 l-56 68 63 191 c35 104 66 190 68 190 3 0 5 -117 4 -260z
m-2113 -106 c1 -9 -23 -50 -53 -90 l-54 -74 63 58 64 58 18 -48 c22 -57 13
-69 -70 -84 -83 -16 -87 -2 -86 283 l1 233 59 -160 c32 -88 58 -167 58 -176z
m55 45 c-6 -25 -1 -33 18 -25 39 15 56 -45 35 -120 -19 -65 -41 -18 -157 336
-8 22 15 -4 50 -58 35 -53 59 -113 54 -133z m275 119 c89 -53 90 -48 -23 -162
-104 -105 -116 -111 -134 -64 -11 27 61 268 80 268 3 0 38 -19 77 -42z m1461
-98 c50 -164 23 -190 -89 -89 -130 118 -135 141 -46 186 93 48 90 50 135 -97z
m-1613 18 c-29 -87 -35 -93 -57 -59 -11 19 -2 46 27 82 54 67 59 63 30 -23z
m1697 -44 c-11 -39 -46 -7 -69 62 l-26 74 50 -60 c27 -33 47 -67 45 -76z
m-1117 -123 c177 -100 201 -120 170 -138 -20 -11 -135 -77 -255 -147 -259
-151 -241 -148 -280 -32 -41 120 -41 275 1 404 l33 102 62 -36 c34 -20 155
-89 269 -153z m859 -77 c8 -132 -23 -303 -59 -326 -9 -6 -134 56 -277 138
l-260 148 265 150 265 151 28 -62 c16 -35 33 -124 38 -199z m314 166 c17 -27
-8 -140 -30 -140 -26 0 -44 75 -30 120 14 43 40 52 60 20z m-2425 -158 c-10
-25 -6 -27 16 -10 21 16 53 12 119 -14 50 -20 74 -36 54 -37 -20 -1 -62 -14
-93 -30 l-57 -30 -71 119 -71 120 57 -43 c38 -28 54 -53 46 -75z m782 58 c-21
-35 -47 -56 -63 -51 -19 8 -23 -1 -14 -30 19 -59 -24 -104 -73 -77 -58 30 -39
66 73 144 55 39 103 71 106 72 4 1 -10 -25 -29 -58z m1480 -51 c-16 -41 -22
-37 -58 33 -18 34 -37 57 -43 50 -6 -6 4 -34 23 -63 36 -55 31 -113 -13 -174
-22 -31 -37 173 -18 256 1 7 29 -7 61 -30 36 -26 55 -54 48 -72z m783 51 c-31
-59 -70 -81 -70 -38 0 18 76 95 96 97 3 1 -9 -26 -26 -59z m-509 -32 l69 -71
-80 14 c-108 19 -112 23 -86 80 27 60 15 62 97 -23z m-1701 -83 l-1 -135 -42
67 c-41 63 -41 69 -10 135 46 96 53 86 53 -67z m1508 63 c43 -16 41 -81 -3
-106 -22 -13 -25 -21 -9 -21 15 -1 20 -11 13 -23 -9 -14 -29 2 -54 40 -50 79
-21 138 53 110z m623 -30 c21 -69 -17 -87 -119 -56 l-91 27 84 33 c112 44 110
45 126 -4z m-2651 -48 c0 -19 -164 -190 -182 -190 -50 0 -79 118 -34 142 81
44 216 73 216 48z m236 -19 c3 -3 -4 -30 -15 -59 -24 -62 -41 -57 -103 31
l-45 63 79 -15 c43 -8 81 -17 84 -20z m2024 13 c0 -9 -26 -41 -58 -72 l-57
-55 -21 60 c-19 55 -17 61 22 69 78 15 114 14 114 -2z m236 -15 c113 -33 122
-51 68 -134 l-37 -55 -49 55 c-169 190 -169 190 18 134z m-2853 -81 c-29 -26
-43 -47 -30 -47 12 -1 33 13 47 29 37 44 51 38 98 -41 l42 -71 -193 -219
c-106 -120 -197 -219 -202 -219 -48 0 64 354 137 432 21 23 43 60 47 83 13 68
75 151 92 123 9 -14 -7 -42 -38 -70z m828 11 c16 -33 25 -59 18 -59 -6 0 14
-32 44 -72 59 -77 59 -76 -56 -138 l-52 -29 -60 170 c-32 93 -51 169 -42 169
9 0 17 -14 17 -31 0 -17 9 -26 19 -19 11 6 45 -3 75 -21 l56 -34 -51 49 c-29
26 -48 59 -44 72 12 34 40 12 76 -57z m689 -222 l0 -302 -85 13 c-168 26 -456
221 -431 293 6 18 473 295 501 298 8 0 15 -135 15 -302z m301 154 l262 -148
-85 -93 c-100 -108 -240 -186 -368 -203 l-90 -12 0 302 c0 167 4 303 10 303 5
0 127 -67 271 -149z m443 55 c-30 -25 -46 -45 -36 -45 11 -1 36 14 56 33 86
77 92 -24 14 -229 l-18 -48 -75 45 c-41 25 -79 48 -83 52 -5 3 11 27 35 53 24
26 48 65 52 88 14 72 75 151 93 121 11 -17 -2 -41 -38 -70z m388 -178 l1 -272
-67 193 -67 194 62 78 c34 44 64 79 66 79 2 0 4 -123 5 -272z m424 222 c25
-54 12 -63 -38 -24 -17 13 -28 35 -23 49 13 39 37 30 61 -25z m-2688 -505 c-3
-9 -188 312 -188 326 0 6 38 56 85 110 l85 99 10 -265 c6 -146 9 -267 8 -270z
m152 395 c0 -7 -26 -88 -58 -181 l-59 -169 -1 250 0 250 59 -69 c32 -38 59
-75 59 -81z m111 8 c-12 -48 -17 -51 -43 -25 -23 24 -24 41 -5 97 30 85 72 22
48 -72z m1819 51 c8 -34 36 -116 63 -182 27 -67 45 -125 41 -130 -19 -19 -117
177 -105 209 7 18 7 26 -1 19 -8 -8 -28 -4 -44 10 -25 21 -28 18 -17 -17 10
-29 0 -53 -30 -80 -43 -38 -44 -38 -29 2 8 22 30 87 47 144 35 113 55 119 75
25z m314 -278 c-48 -83 -92 -155 -96 -159 -5 -5 -8 112 -8 260 l0 268 97 -109
96 -109 -89 -151z m322 214 c106 -106 170 -239 186 -389 15 -136 30 -146 -219
138 -167 190 -169 193 -119 278 45 75 51 74 152 -27z m-2555 -165 c-74 -137
-82 -130 -28 28 31 92 48 119 64 103 17 -17 7 -51 -36 -131z m165 78 l22 -73
-48 45 c-26 24 -42 57 -36 72 17 47 38 32 62 -44z m-435 -181 c81 -134 98
-176 76 -189 -15 -8 -135 -78 -267 -154 -264 -153 -257 -153 -292 -22 l-24 91
196 224 c108 122 198 223 201 223 3 0 52 -78 110 -173z m424 104 l55 -66 -150
-86 c-82 -47 -145 -90 -140 -95 5 -6 74 28 153 73 79 46 145 81 147 78 2 -3
19 -44 37 -91 l33 -85 -195 5 c-162 5 -194 11 -187 36 4 17 9 45 9 64 1 18 8
29 16 24 7 -4 42 41 77 102 73 128 73 128 145 41z m1832 -90 c46 -78 79 -151
73 -162 -15 -23 -370 -26 -370 -2 0 16 41 147 50 159 3 3 70 -32 149 -77 80
-45 149 -78 154 -72 6 5 -49 42 -121 83 -164 91 -169 100 -101 171 67 70 62
73 166 -100z m443 70 c39 -47 125 -148 193 -224 l123 -138 -33 -99 c-18 -55
-40 -98 -49 -96 -8 2 -131 70 -273 151 l-257 147 100 174 c117 202 106 197
196 85z m-1973 -87 c57 -202 15 -224 -122 -66 l-84 99 64 40 c96 59 107 54
142 -73z m1189 75 l67 -40 -83 -100 c-139 -165 -197 -104 -108 116 31 76 37
78 124 24z m-188 -175 c-7 -35 -25 -64 -40 -64 -36 0 -35 11 5 71 18 28 27 56
21 62 -7 7 -28 -21 -47 -61 -32 -67 -41 -72 -125 -72 l-90 0 102 51 c57 28
114 64 128 81 35 43 61 6 46 -68z m-2264 -49 c-8 -118 -15 -132 -121 -253
-192 -219 -250 -278 -218 -222 189 330 198 342 227 318 16 -13 33 -19 39 -14
5 6 -4 22 -21 36 -24 20 69 260 101 260 1 0 -2 -56 -7 -125z m1520 15 l66 -30
-86 5 c-74 4 -92 15 -130 75 l-44 70 64 -46 c35 -24 93 -58 130 -74z m-344
-13 c0 -45 -59 -9 -78 47 l-23 63 51 -47 c27 -26 50 -54 50 -63z m1301 36
c-11 -29 -34 -53 -52 -53 -26 0 -25 10 12 61 50 71 69 67 40 -8z m-1101 -37
c0 -9 -13 -16 -30 -16 -20 0 -30 19 -29 55 0 53 2 53 30 16 16 -21 29 -46 29
-55z m2279 -24 c49 -90 49 -92 10 -120 -60 -44 -89 -4 -89 122 0 125 11 124
79 -2z m-4139 -338 l0 -326 280 -161 279 -161 -70 -82 c-250 -292 -741 -279
-974 26 -311 408 -54 969 470 1028 8 1 15 -145 15 -324z m200 284 c124 -32
124 -33 -20 -284 -74 -129 -140 -241 -147 -248 -7 -7 -13 120 -13 281 l0 294
55 -13 c30 -6 87 -20 125 -30z m1391 21 c25 -41 -10 -44 -155 -14 l-146 31
144 2 c83 1 149 -7 157 -19z m149 -29 c37 -40 40 -50 15 -50 -60 0 -135 39
-135 70 0 47 68 36 120 -20z m183 -20 c18 -38 24 -70 15 -70 -10 0 -18 8 -18
19 0 10 -25 17 -55 15 -46 -3 -56 5 -61 51 -10 88 78 77 119 -15z m100 39
c-66 -28 -103 -24 -103 12 0 11 38 19 85 18 l85 -1 -67 -29z m237 -66 l0 -97
-133 25 c-238 45 -183 123 118 167 8 1 15 -42 15 -95z m272 31 c71 -37 25 -84
-104 -103 -51 -8 -105 -19 -121 -25 -27 -10 -42 152 -16 178 15 16 181 -19
241 -50z m88 47 c0 -36 -37 -40 -103 -12 l-67 29 85 1 c47 1 85 -7 85 -18z
m120 -32 c0 -58 -47 -84 -90 -49 -38 32 -4 100 51 100 28 0 39 -14 39 -51z
m186 13 c-9 -35 -119 -76 -142 -52 -20 20 63 90 107 90 35 0 43 -9 35 -38z
m214 7 c-175 -36 -201 -36 -187 1 9 23 45 30 164 28 l153 -2 -130 -27z m1379
-264 c-1 -274 -3 -291 -31 -239 -16 30 -38 50 -47 45 -26 -16 -307 324 -290
351 20 31 173 97 274 117 47 9 87 18 90 19 3 1 5 -131 4 -293z m300 216 c428
-219 460 -839 58 -1093 -251 -158 -590 -119 -795 92 -108 111 -120 93 193 273
l275 157 0 310 c0 171 2 316 5 322 8 22 180 -19 264 -61z m-3575 -121 c53 -91
94 -169 91 -171 -3 -3 -138 -30 -301 -61 l-296 -56 -58 59 c-92 94 -87 102
180 258 298 175 266 177 384 -29z m166 141 c66 -13 139 -27 162 -31 36 -8 122
-163 101 -184 -4 -3 -100 48 -214 114 -115 66 -218 120 -229 119 -24 0 88 -72
289 -184 165 -92 163 -95 -53 -123 l-96 -13 -93 159 c-91 155 -94 189 -17 172
17 -4 84 -17 150 -29z m1923 24 c31 -21 -148 -325 -191 -324 -17 0 -86 12
-152 26 l-120 26 90 46 c155 79 362 206 352 215 -5 6 -104 -45 -220 -112 -253
-146 -238 -143 -197 -33 32 86 37 91 144 112 61 13 143 30 181 39 39 9 75 17
80 18 6 1 20 -5 33 -13z m331 -126 c310 -178 300 -165 212 -252 l-72 -72 -301
57 -301 58 101 175 c55 96 104 175 108 175 4 0 118 -63 253 -141z m-1932 41
c34 0 34 -31 1 -110 l-26 -60 -33 97 c-29 86 -29 96 -2 85 17 -7 44 -12 60
-12z m928 -61 c-29 -53 -77 -84 -111 -72 -45 18 -1 92 57 95 34 2 36 5 9 12
-20 5 -30 17 -24 27 21 34 88 -26 69 -62z m240 72 c0 -5 -8 -30 -18 -55 -10
-25 -25 -64 -33 -86 -12 -35 -17 -31 -40 30 -39 104 -44 95 76 117 8 2 15 -1
15 -6z m-1080 -47 c0 -9 -11 -29 -25 -44 -21 -24 -20 -24 10 -1 38 28 135 -29
100 -60 -41 -38 -168 -42 -148 -5 20 39 23 49 23 96 0 17 9 30 20 30 11 0 20
-7 20 -16z m174 -39 c14 -17 20 -39 14 -48 -20 -33 -61 -16 -105 44 l-45 60
56 -13 c31 -7 67 -27 80 -43z m774 23 c7 -17 7 -39 2 -48 -6 -10 -2 -23 10
-30 43 -27 17 -48 -45 -37 -90 17 -110 40 -70 80 27 28 38 29 64 8 36 -30 42
0 7 35 -16 16 -17 24 -2 24 12 0 27 -14 34 -32z m-2255 -80 l46 -60 -221 -126
c-121 -70 -216 -131 -211 -136 6 -5 103 43 216 107 114 64 213 120 220 123 13
6 57 -105 57 -145 0 -14 -100 -42 -245 -70 -135 -26 -258 -51 -275 -56 -27 -8
-27 -6 0 13 24 17 24 21 3 22 -21 0 -22 7 -6 27 13 15 16 34 8 43 -8 9 -5 10
8 3 14 -8 83 56 170 157 160 185 162 186 230 98z m1637 52 c41 -10 47 -16 20
-18 -22 -1 -59 -8 -82 -14 -28 -7 -47 0 -55 20 -13 35 15 38 117 12z m370 1
c0 -32 -34 -41 -103 -27 -65 13 -65 14 -17 28 74 21 120 20 120 -1z m1779
-191 c98 -110 172 -206 164 -213 -11 -11 -518 79 -541 97 -12 8 42 166 57 166
7 0 30 -12 52 -27 80 -56 414 -235 422 -227 5 5 -80 59 -188 121 -293 167
-280 154 -224 230 60 81 49 87 258 -147z m-2043 -102 l-6 -92 -87 153 c-48 84
-92 149 -97 143 -6 -5 18 -58 52 -116 l63 -106 -99 109 c-110 121 -110 119
-31 133 30 5 87 17 127 25 l72 15 6 -86 c3 -47 3 -127 0 -178z m186 234 c27
-10 17 -40 -65 -181 l-97 -169 0 193 0 194 65 -13 c36 -6 80 -17 97 -24z m80
-79 c-97 -135 -150 -161 -81 -40 41 71 75 110 92 103 21 -8 19 -22 -11 -63z
m-330 -238 c-4 -3 -90 44 -193 104 -102 61 -205 117 -228 125 -33 11 -21 19
59 38 l100 24 134 -143 c73 -78 131 -145 128 -148z m610 240 c8 -8 -8 -76 -36
-150 l-51 -135 -166 0 c-91 0 -182 -5 -202 -11 -59 -17 -3 18 240 154 119 66
211 125 205 131 -6 6 -103 -42 -216 -106 -240 -138 -254 -144 -221 -104 13 16
18 37 10 46 -8 9 -4 10 8 3 14 -8 66 35 126 104 l102 118 94 -18 c51 -9 100
-24 107 -32z m-1220 -109 l-107 -104 -39 76 c-46 89 -52 80 74 106 185 38 189
34 72 -78z m1473 72 c94 -15 102 -32 48 -113 l-36 -56 -94 82 c-101 90 -119
130 -48 112 25 -6 83 -17 130 -25z m-1293 -143 l36 -105 -82 0 -81 0 12 79
c18 112 55 199 68 161 6 -16 27 -77 47 -135z m234 18 c124 -70 223 -129 220
-130 -3 -2 -92 0 -198 3 l-191 7 -37 103 c-20 57 -41 116 -46 132 -13 35 -19
37 252 -115z m883 42 c38 -138 30 -165 -49 -165 -81 0 -80 -5 -36 133 39 127
57 133 85 32z m-1472 -22 c33 -56 34 -70 11 -85 -116 -75 -412 -74 -558 2
l-90 47 270 54 c324 65 318 66 367 -18z m2083 19 l280 -56 -110 -53 c-152 -73
-420 -71 -536 4 -26 17 41 165 73 162 7 -1 139 -26 293 -57z m-1865 -77 c-10
-90 -90 -127 -118 -54 -9 24 113 163 125 142 1 -2 -2 -41 -7 -88z m1421 -57
c-11 -29 -106 -40 -106 -13 -1 8 -9 48 -18 89 l-17 74 76 -61 c45 -36 72 -73
65 -89z m-2223 22 l87 -51 -120 6 c-107 4 -121 10 -126 50 -9 61 47 59 159 -5z
m3057 0 c0 -48 -5 -50 -125 -50 l-125 1 80 47 c110 66 170 67 170 2z m-3240
-10 c0 -38 -13 -40 -205 -38 l-205 2 170 35 c229 48 240 48 240 1z m3490 1
l180 -36 -205 -3 c-192 -2 -205 0 -205 38 0 48 1 48 230 1z m-3490 -127 c0
-47 -57 -234 -71 -234 -4 0 -118 63 -253 140 l-246 140 285 0 c285 0 285 0
285 -46z m1019 -205 c80 -139 150 -247 156 -241 24 24 224 -112 225 -154 1
-74 -94 -42 -147 50 -32 54 -62 94 -68 88 -5 -6 14 -51 43 -101 l54 -91 -113
-110 c-137 -134 -38 -163 -654 191 -618 354 -560 308 -525 419 16 50 34 115
40 145 l11 55 417 0 416 0 145 -251z m-39 188 c0 -35 -3 -60 -6 -55 -67 92
-75 118 -34 118 32 0 40 -13 40 -63z m284 -202 c51 -145 90 -268 85 -273 -47
-46 -275 218 -322 374 -45 149 -40 164 58 164 l86 0 93 -265z m356 -45 c0
-205 -7 -310 -21 -310 -30 0 -199 43 -199 51 0 4 -45 133 -99 288 l-99 281
209 0 209 0 0 -310z m440 305 c0 -42 -202 -564 -222 -575 -15 -9 -66 -22 -113
-30 l-85 -14 0 312 0 312 210 0 c116 0 210 -2 210 -5z m193 -85 c-15 -111 -73
-228 -162 -326 -66 -73 -203 -168 -189 -130 5 10 48 138 98 282 l90 264 88 0
87 0 -12 -90z m74 31 c-41 -70 -54 -67 -36 7 7 28 26 52 42 52 24 0 23 -10 -6
-59z m913 3 c0 -31 15 -99 32 -152 18 -52 29 -97 25 -99 -4 -3 -241 -139 -527
-302 -286 -162 -527 -302 -536 -310 -9 -9 -69 37 -133 102 l-117 117 203 349
203 350 425 1 425 0 0 -56z m578 49 c-26 -23 -481 -276 -486 -270 -16 21 -52
136 -63 202 l-13 75 285 0 c157 0 282 -3 277 -7z m-1763 -518 c-16 -25 -44
-74 -62 -109 -30 -59 -38 -63 -83 -43 -61 29 -47 56 70 135 108 74 113 75 75
17z m-436 -390 l-2 -275 -87 250 c-105 299 -103 275 -35 286 135 20 125 41
124 -261z m198 244 c4 -4 -34 -126 -83 -273 l-91 -266 -1 287 -2 287 85 -15
c47 -7 88 -16 92 -20z m-339 -204 c38 -107 70 -219 72 -249 2 -30 16 -70 32
-89 22 -27 10 -25 -52 11 -44 26 -159 92 -255 147 -96 55 -175 104 -175 109 0
48 247 266 300 266 5 0 41 -88 78 -195z m412 69 c-28 -46 -75 -127 -104 -179
-72 -131 -77 -108 -14 67 93 260 83 242 128 218 41 -22 41 -23 -10 -106z m218
-57 l71 -83 -245 -143 c-134 -79 -247 -142 -251 -139 -3 2 58 113 137 246 161
272 158 271 288 119z m-748 -274 l270 -155 230 129 c126 70 250 142 276 159
122 80 170 -328 65 -544 -337 -693 -1390 -275 -1170 464 38 128 7 132 329 -53z"/>
<path d="M3580 4251 c0 -16 401 -236 412 -225 6 5 -78 61 -187 122 -188 106
-225 124 -225 103z"/>
<path d="M4929 2525 c26 -68 196 -347 206 -337 10 11 -192 372 -209 372 -5 0
-4 -16 3 -35z"/>
<path d="M2660 1247 c0 -25 205 -369 214 -359 10 10 -190 372 -206 372 -4 0
-8 -6 -8 -13z"/>
</g>
</svg>
