<?xml version="1.0" standalone="no"?>
<!DOCTYPE svg PUBLIC "-//W3C//DTD SVG 20010904//EN"
 "http://www.w3.org/TR/2001/REC-SVG-20010904/DTD/svg10.dtd">
<svg version="1.0" xmlns="http://www.w3.org/2000/svg"
 width="900.000000pt" height="900.000000pt" viewBox="0 0 300.000000 300.000000"
 preserveAspectRatio="xMidYMid meet">
<metadata>
Created by potrace 1.10, written by Peter Selinger 2001-2011
</metadata>
<g transform="translate(0.000000,300.000000) scale(0.100000,-0.100000)"
fill="#000000" stroke="none">
<path d="M1360 2989 c-396 -28 -789 -243 -1043 -572 -112 -144 -179 -270 -237
-446 -56 -166 -70 -262 -70 -471 0 -209 13 -299 70 -472 75 -228 184 -402 365
-584 187 -187 377 -303 625 -377 168 -51 248 -60 482 -55 218 6 305 21 473 85
487 183 839 599 946 1116 30 146 30 428 0 574 -94 457 -376 833 -781 1042
-258 133 -516 183 -830 160z m70 -19 c-25 -4 -76 -10 -115 -13 -69 -5 -69 -5
-30 8 22 7 74 13 115 13 67 0 70 -1 30 -8z m285 -5 c39 -13 39 -13 -30 -8 -38
3 -90 9 -115 13 -40 7 -37 8 30 8 41 0 93 -6 115 -13z m-167 -6 c77 -19 67
-24 -48 -24 -59 0 -106 2 -103 5 4 5 78 27 96 29 5 1 29 -4 55 -10z m-224 -30
c-3 -5 -22 -9 -42 -10 -20 0 -67 -8 -104 -18 -38 -9 -68 -16 -68 -14 0 1 17
12 38 23 l37 21 -35 -7 c-19 -3 -69 -17 -110 -30 -41 -13 -76 -22 -77 -20 -2
2 25 16 59 31 43 18 85 28 132 30 37 2 70 5 71 7 8 8 104 -5 99 -13z m654 -24
c34 -15 61 -29 59 -31 -1 -2 -44 10 -95 26 -106 35 -145 38 -89 9 20 -11 37
-21 37 -22 0 -2 -30 5 -67 14 -38 10 -85 18 -105 18 -20 1 -40 6 -44 12 -4 8
29 9 117 6 107 -4 132 -8 187 -32z m-498 -16 c0 -3 -44 -9 -97 -12 -54 -3
-109 -9 -122 -14 -21 -8 -17 -11 33 -23 63 -15 82 -30 39 -30 -27 0 -145 -23
-186 -36 -54 -17 71 81 160 126 54 27 54 28 114 12 32 -9 59 -19 59 -23z m292
-36 c36 -24 75 -54 85 -65 18 -20 18 -21 -3 -14 -43 13 -160 36 -187 36 -43 0
-24 15 39 30 50 12 54 15 33 23 -13 5 -68 11 -121 14 -54 3 -98 9 -98 12 0 4
26 14 58 22 68 18 89 12 194 -58z m-202 -3 l55 -29 -125 0 -125 0 55 29 c30
16 62 29 70 29 8 0 40 -13 70 -29z m-576 -4 c-33 -13 -79 -34 -103 -46 -53
-27 -65 -20 -16 10 20 12 34 24 32 27 -6 5 -154 -69 -182 -91 -18 -14 -16 -15
24 -1 24 8 45 14 46 13 1 -2 -40 -31 -91 -65 -106 -69 -108 -57 -7 38 70 66
143 108 198 115 17 2 46 8 65 13 19 5 49 9 65 9 24 1 18 -4 -31 -22z m204 16
c8 -6 -8 -13 -45 -21 -32 -8 -80 -22 -107 -32 -28 -10 -52 -17 -54 -15 -2 2
18 20 44 40 40 31 55 36 98 36 28 0 57 -4 64 -8z m766 -28 c26 -20 46 -38 44
-40 -2 -2 -26 5 -54 15 -27 10 -75 24 -107 32 -68 15 -58 29 19 29 43 0 58 -5
98 -36z m138 -7 c64 -43 61 -54 -4 -21 -29 15 -75 35 -103 46 l-50 18 55 -5
c39 -4 69 -15 102 -38z m82 -8 c23 -11 58 -33 77 -50 l34 -31 -35 21 c-20 11
-67 36 -105 56 -72 37 -48 40 29 4z m-749 -36 c30 -15 55 -30 55 -34 0 -3 -46
-9 -101 -12 -56 -3 -105 -9 -110 -14 -4 -4 20 -23 54 -40 34 -18 85 -52 112
-76 l49 -44 -79 -7 c-44 -5 -88 -11 -99 -15 -16 -6 -14 -10 16 -33 59 -45 167
-164 157 -172 -2 -2 -37 -6 -77 -10 l-72 -6 27 52 c15 29 29 56 31 61 6 12
-49 8 -108 -8 -30 -8 -56 -13 -58 -11 -7 8 49 107 98 170 l51 66 -31 0 c-39 0
-168 -29 -174 -39 -3 -4 20 -19 50 -34 55 -27 70 -47 35 -47 -11 0 -51 -11
-91 -24 -62 -21 -71 -22 -65 -8 14 39 78 140 112 180 l37 43 -30 -7 c-70 -16
-184 -56 -184 -63 0 -4 25 -13 55 -20 30 -7 55 -16 55 -20 0 -3 -19 -12 -42
-19 -24 -7 -65 -24 -93 -37 -27 -13 -51 -23 -52 -21 -7 6 70 131 110 179 21
26 37 47 34 47 -13 0 -120 -41 -164 -64 -29 -14 -55 -26 -59 -26 -3 0 13 23
37 51 38 46 40 51 19 44 -26 -7 -131 -62 -178 -93 l-27 -17 22 30 c12 17 35
43 53 60 l31 30 127 -1 c103 -1 142 -6 208 -26 l81 -24 52 43 c29 24 57 43 62
43 5 0 33 -12 64 -27z m256 -16 l53 -43 69 20 70 21 39 -45 c31 -36 118 -172
118 -185 0 -2 -35 12 -77 31 -43 19 -86 34 -95 34 -38 0 -15 19 37 31 30 7 55
16 55 20 0 7 -125 51 -184 64 l-30 6 37 -43 c34 -40 98 -141 112 -179 5 -13
-5 -12 -66 8 -39 12 -80 23 -90 23 -35 0 -19 20 35 47 30 15 53 30 50 34 -6
10 -135 39 -174 39 l-31 0 51 -66 c47 -62 105 -162 98 -169 -2 -2 -28 3 -58
11 -59 15 -114 19 -108 7 2 -5 16 -32 31 -61 l27 -52 -72 6 c-40 4 -75 8 -77
10 -10 8 98 127 157 172 30 23 32 27 16 33 -11 4 -55 10 -99 15 l-79 7 49 44
c27 24 78 58 112 76 34 17 58 36 54 40 -5 5 -54 11 -110 14 -55 3 -101 9 -101
12 0 8 100 60 117 60 6 1 35 -18 64 -42z m383 -39 c25 -29 44 -53 42 -55 -2
-2 -19 5 -37 15 -19 11 -68 32 -109 48 l-75 29 40 6 c87 13 91 12 139 -43z
m119 13 c16 -14 39 -39 50 -56 l22 -30 -35 23 c-19 13 -68 39 -107 59 -40 19
-73 37 -73 40 0 2 26 1 58 -2 42 -5 65 -14 85 -34z m63 3 c28 -10 67 -34 92
-57 52 -51 55 -69 5 -29 -21 16 -65 46 -98 66 -68 41 -68 42 1 20z m-701 -41
l48 -38 -51 -3 c-29 -2 -76 -2 -104 0 l-53 3 49 38 c27 20 52 37 56 37 4 0 28
-17 55 -37z m-900 -1 c-6 -4 -42 -34 -82 -65 -94 -76 -111 -98 -48 -63 l50 28
-48 -43 c-27 -24 -67 -64 -89 -89 l-40 -45 28 50 c24 45 25 48 5 31 -11 -11
-47 -52 -78 -92 -32 -40 -59 -71 -61 -69 -9 9 70 116 108 146 44 35 56 47 112
113 31 37 122 104 143 105 6 1 6 -2 0 -7z m740 -2 c-3 -5 -11 -10 -16 -10 -6
0 -7 5 -4 10 3 6 11 10 16 10 6 0 7 -4 4 -10z m230 0 c3 -5 2 -10 -4 -10 -5 0
-13 5 -16 10 -3 6 -2 10 4 10 5 0 13 -4 16 -10z m776 -21 c50 -32 122 -105
116 -117 -4 -9 36 -46 54 -50 32 -8 151 -154 136 -168 -2 -2 -15 13 -29 33
-34 51 -109 135 -115 129 -3 -3 5 -19 17 -36 12 -17 21 -32 19 -34 -2 -1 -41
35 -86 81 -79 80 -95 104 -43 63 14 -11 29 -20 34 -20 15 0 -33 47 -94 92 -71
54 -76 58 -65 58 4 0 30 -14 56 -31z m-1399 -28 c4 -3 -38 -30 -93 -59 l-101
-52 31 57 c17 31 29 58 27 60 -2 2 -47 -25 -100 -60 -53 -36 -96 -62 -96 -58
0 3 12 26 25 50 14 24 24 46 22 48 -6 5 -95 -64 -144 -111 -51 -48 -53 -42
-13 30 27 46 37 55 83 70 28 9 63 19 77 21 109 15 144 18 205 15 39 -2 73 -7
77 -11z m857 -2 c-14 -8 -29 -3 -29 11 0 4 9 6 21 3 15 -4 17 -8 8 -14z m376
5 c22 -4 47 -8 55 -9 8 -1 38 -9 67 -19 46 -15 56 -24 83 -70 16 -30 30 -57
30 -62 0 -4 -21 12 -47 38 -51 48 -134 111 -140 105 -2 -2 8 -24 22 -48 13
-24 25 -47 25 -51 0 -5 -28 13 -62 38 -65 48 -143 92 -137 77 2 -4 17 -32 32
-61 l28 -53 -43 25 c-24 13 -70 38 -103 55 -67 33 -63 39 30 44 66 3 99 2 160
-9z m-1070 -4 c-3 -5 -12 -7 -20 -3 -21 7 -19 13 6 13 11 0 18 -4 14 -10z
m352 -37 c-16 -16 -18 -16 -34 0 -16 16 -15 17 17 17 32 0 33 -1 17 -17z
m-220 -20 c-13 -13 -20 -14 -29 -5 -9 9 -6 14 13 21 31 11 37 5 16 -16z m436
2 c-3 -17 -30 -17 -37 0 -4 13 -1 16 17 13 12 -2 21 -7 20 -13z m-789 -30 c-4
-8 -11 -12 -16 -9 -6 4 -5 10 3 15 19 12 19 11 13 -6z m1130 -6 c-6 -11 -24
-2 -24 11 0 5 7 7 15 4 8 -4 12 -10 9 -15z m-980 -24 c-4 -8 -15 -15 -25 -15
-21 0 -26 16 -6 23 24 10 36 7 31 -8z m455 -32 l41 -48 -45 -3 c-25 -2 -65 -2
-90 0 l-45 3 41 48 c22 26 44 47 49 47 5 0 27 -21 49 -47z m385 41 c22 -8 20
-24 -3 -24 -10 0 -21 7 -25 15 -6 16 3 19 28 9z m-1169 -37 c-21 -18 -61 -52
-87 -76 -27 -24 -50 -42 -53 -39 -3 2 4 32 16 66 23 67 22 67 154 80 6 1 -8
-13 -30 -31z m1542 17 c28 -4 33 -10 52 -66 12 -34 20 -63 18 -64 -1 -2 -28
18 -58 44 -30 26 -71 59 -90 74 l-34 27 40 -5 c22 -3 54 -7 72 -10z m-1367 -1
c0 -5 -19 -19 -43 -32 -23 -13 -58 -37 -78 -52 -20 -16 -40 -29 -43 -29 -8 0
2 44 20 88 13 32 14 32 78 32 37 0 66 -3 66 -7z m1273 -52 c10 -29 16 -56 13
-58 -2 -2 -26 12 -53 33 -26 20 -63 44 -80 52 -50 24 -40 33 35 30 l67 -3 18
-54z m-1643 -36 c-46 -46 -85 -83 -87 -81 -2 1 6 30 18 64 20 60 21 61 77 81
31 11 61 20 67 20 5 1 -28 -37 -75 -84z m435 74 c141 -38 293 -140 388 -260
l37 -46 -62 -11 c-34 -6 -64 -10 -66 -7 -2 2 4 29 13 60 9 32 14 59 11 62 -10
11 -101 -19 -185 -60 -47 -23 -90 -44 -95 -46 -5 -2 -7 24 -3 63 3 36 3 66 -2
66 -4 0 -32 -17 -62 -38 -89 -63 -83 -64 -76 13 4 37 8 70 10 72 2 2 33 -6 68
-16 35 -11 65 -18 68 -15 9 9 40 118 35 124 -3 2 -39 -13 -81 -35 -41 -22 -79
-41 -83 -43 -5 -2 1 26 13 62 11 36 24 66 27 66 3 0 23 -5 45 -11z m413 -5
c-9 -9 -21 -13 -27 -10 -20 13 -11 26 16 26 25 0 26 -1 11 -16z m202 7 c0 -19
-22 -23 -38 -7 -15 15 -14 16 11 16 15 0 27 -4 27 -9z m447 -57 c12 -36 18
-64 13 -62 -4 2 -42 21 -83 43 -42 22 -78 37 -81 35 -5 -6 26 -115 35 -124 3
-3 33 4 68 15 35 10 66 18 68 16 2 -2 6 -34 10 -71 l6 -68 -68 46 c-38 25 -72
46 -76 46 -5 0 -5 -30 -2 -66 4 -39 2 -65 -3 -63 -49 22 -124 65 -124 70 0 4
27 21 59 37 l60 30 -68 31 c-37 17 -73 31 -79 31 -63 0 157 112 233 119 6 1
21 -29 32 -65z m360 42 c50 -17 52 -19 72 -78 12 -34 20 -63 18 -64 -1 -1 -40
36 -87 83 -47 48 -78 84 -70 81 8 -3 38 -13 67 -22z m-1197 -15 c0 -20 -25
-29 -43 -16 -20 14 -21 13 36 24 4 0 7 -3 7 -8z m583 -1 c6 0 3 -8 -6 -17 -16
-16 -19 -16 -27 -3 -14 22 -12 33 6 26 9 -3 21 -6 27 -6z m-1335 -47 c-47 -50
-120 -145 -115 -150 2 -2 24 8 48 22 24 13 47 25 51 25 4 0 -22 -43 -58 -96
-36 -53 -63 -98 -61 -100 2 -2 29 10 60 27 52 28 73 29 46 2 -6 -6 -30 -48
-53 -93 -24 -45 -46 -78 -50 -72 -8 14 -10 203 -2 228 3 11 7 33 9 49 2 17 12
54 21 83 16 46 24 56 69 82 69 40 78 38 35 -7z m2079 7 c45 -26 53 -36 69 -82
9 -29 18 -62 20 -73 1 -11 7 -48 12 -82 8 -60 1 -86 -13 -43 -3 11 -30 53 -60
95 -30 41 -51 75 -47 75 4 0 27 -12 51 -25 24 -14 46 -24 48 -22 6 6 -57 89
-105 140 -53 54 -48 59 25 17z m-416 -18 c-19 -6 -41 6 -41 23 0 14 3 13 26
-2 15 -9 21 -19 15 -21z m-1245 12 c-3 -9 -6 -17 -6 -19 0 -2 -9 -1 -20 2 -19
5 -20 6 -3 19 24 18 36 17 29 -2z m1384 -6 c0 -13 -23 -5 -28 10 -2 7 2 10 12
6 9 -3 16 -11 16 -16z m-1540 2 c0 -5 -5 -10 -11 -10 -5 0 -7 5 -4 10 3 6 8
10 11 10 2 0 4 -4 4 -10z m292 -42 c-6 -6 -16 -7 -23 -3 -9 6 -7 12 7 22 21
15 34 -1 16 -19z m486 12 c-7 -11 -15 -20 -18 -20 -3 0 -11 9 -18 20 -11 18
-10 20 18 20 28 0 29 -2 18 -20z m480 -12 c-22 -14 -38 -9 -38 12 0 17 3 18
25 8 19 -8 22 -14 13 -20z m-1110 -7 c10 -5 2 -16 -25 -36 -21 -15 -55 -44
-76 -64 l-38 -36 7 74 7 74 -42 -33 c-23 -19 -58 -54 -78 -79 l-37 -44 75 7
74 7 -36 -38 c-20 -21 -49 -55 -64 -76 -38 -51 -45 -36 -46 90 -1 131 5 151
45 158 76 12 208 10 234 -4z m452 10 c0 -14 -18 -23 -30 -16 -6 4 -8 11 -5 16
8 12 35 12 35 0z m358 -3 c-7 -19 -35 -21 -41 -3 -5 11 0 15 19 15 16 0 24 -5
22 -12z m101 -50 c10 -35 18 -64 17 -65 -1 -1 -26 7 -56 17 -56 20 -90 25 -90
14 0 -3 7 -31 16 -61 9 -30 14 -56 12 -58 -2 -3 -32 1 -66 7 l-62 11 37 46
c54 68 144 151 164 151 4 0 17 -28 28 -62z m578 39 c5 -5 22 -127 17 -127 -1
0 -34 32 -73 71 -39 39 -71 72 -71 73 0 5 122 -12 127 -17z m-2070 -81 c-34
-51 -63 -92 -65 -91 -1 1 5 22 13 46 20 60 0 33 -55 -73 -46 -87 -48 -109 -7
-51 32 45 35 37 6 -19 -12 -23 -32 -69 -46 -102 l-24 -61 5 50 5 50 -15 -35
c-16 -38 -54 -168 -54 -185 1 -5 12 10 26 35 13 25 22 36 20 25 -24 -93 -36
-155 -36 -182 0 -18 -4 -33 -10 -33 -5 0 -10 19 -10 42 0 23 -2 39 -4 37 -7
-6 -27 -211 -22 -216 2 -3 10 17 18 43 13 46 13 44 13 -76 0 -120 0 -122 -13
-76 -8 26 -16 46 -18 43 -5 -5 15 -210 22 -216 2 -2 4 12 4 32 0 20 4 39 10
42 6 4 10 -7 10 -27 0 -28 12 -90 36 -183 2 -11 -7 0 -21 25 -25 44 -25 44
-19 12 3 -19 18 -71 34 -115 l27 -82 -4 105 c-2 58 0 116 6 130 7 17 10 20 10
8 1 -10 15 -62 33 -115 26 -82 33 -94 39 -73 4 14 7 38 8 54 2 46 42 186 52
180 5 -3 9 -13 9 -22 0 -25 51 -182 60 -182 4 0 12 25 19 55 7 30 16 55 20 55
4 0 14 -19 21 -42 7 -24 23 -65 37 -91 13 -27 22 -51 20 -53 -7 -8 -128 66
-181 110 -57 47 -57 43 1 -89 19 -44 37 -87 41 -95 9 -23 -84 58 -139 119 -27
30 -49 50 -49 45 0 -18 36 -118 59 -162 29 -56 26 -64 -6 -19 -36 51 -40 40
-7 -25 61 -121 106 -182 69 -93 -20 47 -12 58 11 13 24 -48 105 -160 111 -154
3 2 -1 22 -8 43 -7 21 -14 51 -16 68 -2 16 -6 38 -9 49 -8 25 -6 214 2 228 4
5 26 -28 51 -74 24 -45 49 -87 54 -93 25 -25 3 -23 -48 4 -31 17 -58 29 -60
27 -2 -1 26 -46 61 -99 36 -54 62 -97 58 -97 -4 0 -27 12 -51 25 -24 14 -46
24 -48 22 -5 -5 68 -100 115 -149 20 -21 32 -38 27 -38 -18 0 -115 60 -115 71
0 6 -4 8 -8 5 -5 -3 -26 9 -47 27 -22 18 -35 25 -30 17 13 -22 136 -170 141
-170 3 0 -7 21 -21 48 l-27 47 41 -45 c22 -25 62 -65 88 -88 l48 -44 -50 28
c-63 35 -47 14 54 -67 44 -35 78 -65 76 -67 -9 -9 -116 70 -146 108 -34 43
-45 54 -121 119 -39 34 -88 106 -92 137 -1 9 -21 35 -43 59 -48 50 -94 135
-99 183 -1 19 -10 42 -18 51 -31 34 -67 134 -71 196 -2 35 -13 89 -24 122 -29
85 -29 381 0 466 11 33 22 87 24 122 4 62 40 162 71 196 8 9 17 32 18 51 6 58
49 131 125 210 40 43 77 78 82 78 4 0 -20 -42 -54 -94z m1937 32 c3 -34 4 -63
1 -66 -2 -3 -24 13 -48 35 -24 22 -56 48 -71 58 -36 24 -19 35 55 35 l56 0 7
-62z m443 20 c23 -25 47 -64 57 -92 22 -69 21 -69 -20 -1 -20 33 -50 77 -66
98 -40 50 -22 47 29 -5z m-2077 26 c0 -3 -22 -31 -50 -61 -27 -30 -57 -67 -67
-84 -32 -53 -35 -39 -17 78 4 28 11 34 62 51 64 23 72 25 72 16z m1857 -18
c46 -15 53 -21 57 -49 10 -67 15 -107 12 -107 -2 0 -23 26 -49 58 -25 31 -58
72 -73 91 -16 19 -22 32 -14 29 8 -3 38 -13 67 -22z m-604 -21 c1 -5 -6 -11
-15 -13 -11 -2 -18 3 -18 13 0 17 30 18 33 0z m-330 -64 c15 -27 27 -53 27
-58 0 -5 -27 -10 -60 -10 -33 0 -60 5 -60 10 0 14 52 107 60 107 4 0 19 -22
33 -49z m772 29 c18 -19 17 -20 -3 -20 -15 0 -22 6 -22 20 0 11 2 20 3 20 2 0
12 -9 22 -20z m-1585 -5 c0 -9 -9 -15 -21 -15 -18 0 -19 2 -9 15 7 8 16 15 21
15 5 0 9 -7 9 -15z m150 -5 c0 -14 -7 -20 -22 -20 -20 0 -21 1 -3 20 10 11 20
20 22 20 1 0 3 -9 3 -20z m1300 -12 c0 -5 -9 -8 -20 -8 -13 0 -20 7 -20 20 0
18 2 19 20 8 11 -7 20 -16 20 -20z m-730 7 c0 -6 -3 -15 -7 -18 -8 -8 -34 13
-28 22 7 12 35 9 35 -4z m149 -11 c-13 -16 -29 -10 -29 11 0 8 7 11 20 8 16
-4 18 -8 9 -19z m861 -15 c0 -5 -7 -6 -15 -3 -8 4 -15 13 -15 21 0 13 3 13 15
3 8 -7 15 -16 15 -21z m371 -78 c12 -25 23 -59 25 -76 2 -16 8 -48 13 -70 18
-69 12 -97 -8 -40 -10 28 -30 74 -45 103 -28 56 -22 72 8 21 10 -17 20 -29 22
-26 5 5 -37 98 -71 157 l-26 45 30 -34 c17 -19 40 -55 52 -80z m-2260 76 c-10
-9 -11 -8 -5 6 3 10 9 15 12 12 3 -3 0 -11 -7 -18z m449 -6 c0 -14 -5 -18 -20
-14 -16 4 -18 8 -9 19 16 20 29 17 29 -5z m276 3 c-3 -9 -6 -18 -6 -21 0 -3
-7 0 -15 7 -13 11 -13 15 -3 21 21 13 31 10 24 -7z m452 7 c10 -6 10 -10 -3
-21 -8 -7 -15 -10 -15 -7 0 3 -3 12 -6 21 -7 17 3 20 24 7z m281 -5 c9 -11 7
-15 -9 -19 -15 -4 -20 0 -20 14 0 22 13 25 29 5z m-1695 -23 c-10 -16 -37 -66
-61 -113 l-44 -85 6 65 c6 62 9 67 56 113 57 54 69 59 43 20z m968 -62 c48
-50 88 -94 88 -99 0 -5 -12 -12 -27 -16 -16 -3 -38 -8 -50 -12 -22 -6 -22 -5
-16 60 3 36 3 66 0 66 -4 0 -29 -9 -57 -20 -28 -11 -53 -20 -55 -20 -7 0 -6
62 1 99 4 17 11 31 17 31 6 0 50 -40 99 -89z m532 58 c7 -36 8 -99 2 -99 -2 0
-25 9 -51 20 -26 11 -51 20 -57 20 -7 0 -9 -22 -5 -66 6 -65 6 -66 -16 -60
-12 4 -34 9 -49 12 -16 4 -28 11 -28 16 0 13 174 188 187 188 6 0 13 -14 17
-31z m917 -36 c20 -20 29 -43 34 -85 3 -32 4 -58 2 -58 -3 0 -21 33 -40 73
-20 39 -46 88 -59 107 l-23 35 30 -22 c17 -11 42 -34 56 -50z m-1853 42 c4 -3
-115 -125 -122 -125 -6 0 -16 122 -10 131 5 8 122 2 132 -6z m1357 -52 c-4
-38 -8 -69 -10 -71 -2 -2 -125 119 -125 124 0 3 54 9 113 12 l29 2 -7 -67z
m118 57 c26 0 27 -1 27 -57 0 -82 -11 -93 -44 -45 -14 21 -40 51 -56 67 -40
38 -38 49 8 41 20 -3 49 -6 65 -6z m-1799 -57 c-19 -25 -45 -63 -57 -84 -12
-22 -26 -39 -30 -39 -4 0 -7 30 -5 68 l3 67 50 17 c74 25 78 22 39 -29z m408
31 c32 -9 58 -21 58 -25 0 -5 -4 -9 -9 -9 -15 0 -145 -126 -175 -169 -16 -23
-32 -41 -36 -41 -7 0 -40 104 -40 125 0 4 32 5 70 1 l70 -6 -6 70 c-4 38 -3
70 1 70 5 0 35 -7 67 -16z m1124 -54 l-6 -70 70 6 c38 4 70 3 70 -1 0 -19 -33
-125 -39 -125 -3 0 -17 16 -30 36 -27 39 -168 174 -182 174 -44 0 59 46 110
49 11 1 13 -13 7 -69z m402 44 c32 -13 32 -14 32 -78 0 -37 -4 -66 -10 -66 -5
0 -10 4 -10 9 0 5 -21 40 -46 78 -25 37 -48 72 -51 76 -6 9 40 -1 85 -19z
m-1356 -9 c-4 -21 -7 -23 -19 -13 -13 10 -13 14 3 25 23 17 22 17 16 -12z
m742 6 c3 -5 -1 -14 -9 -21 -13 -10 -15 -9 -15 9 0 21 14 28 24 12z m-724 -80
c0 -3 -18 -16 -40 -29 -59 -34 -160 -132 -200 -195 -19 -31 -38 -56 -41 -57
-3 0 -21 28 -39 62 l-33 61 73 -7 c72 -6 72 -6 66 16 -22 71 -28 99 -22 105 3
4 30 -1 60 -10 29 -9 56 -17 59 -17 4 0 4 32 1 71 l-7 72 61 -33 c34 -18 62
-36 62 -39z m305 19 c14 -27 25 -53 25 -57 0 -4 -22 -9 -50 -11 l-49 -3 16 53
c16 55 21 68 28 68 3 0 16 -22 30 -50z m129 -19 l16 -54 -47 7 c-25 3 -48 8
-50 10 -3 2 8 28 22 56 15 29 30 49 35 44 4 -5 15 -33 24 -63z m362 -1 c-3
-38 -3 -70 1 -70 3 0 30 8 59 17 30 9 57 13 61 10 3 -4 -1 -31 -10 -61 -9 -29
-17 -56 -17 -59 0 -4 32 -4 71 -1 l72 7 -33 -61 c-18 -34 -36 -62 -40 -62 -3
0 -14 16 -23 35 -24 49 -146 175 -206 210 -28 17 -51 33 -51 36 0 5 108 68
119 69 2 0 1 -31 -3 -70z m704 -56 c0 -34 -4 -65 -9 -68 -5 -3 -18 16 -29 42
-11 26 -35 71 -52 100 l-32 54 61 -32 61 -33 0 -63z m-360 85 c9 -16 7 -19
-10 -19 -15 0 -20 7 -20 26 0 27 14 25 30 -7z m-1570 1 c0 -13 -7 -20 -20 -20
-18 0 -19 2 -8 20 7 11 16 20 20 20 5 0 8 -9 8 -20z m780 11 c0 -6 -4 -13 -10
-16 -5 -3 -10 1 -10 9 0 9 5 16 10 16 6 0 10 -4 10 -9z m644 -10 c16 -18 16
-19 -7 -23 -20 -4 -23 -1 -19 19 5 28 5 28 26 4z m-1284 -6 c0 -9 -9 -15 -22
-15 -22 1 -23 1 -4 15 25 19 26 19 26 0z m510 -1 c0 -14 -3 -14 -15 -4 -8 7
-15 14 -15 16 0 2 7 4 15 4 8 0 15 -7 15 -16z m270 12 c0 -2 -7 -9 -15 -16
-12 -10 -15 -10 -15 4 0 9 7 16 15 16 8 0 15 -2 15 -4z m-1082 -47 c-24 -16
-29 -9 -11 18 15 23 18 24 21 9 2 -10 -2 -22 -10 -27z m1889 -6 c-11 -10 -37
12 -37 31 1 21 1 21 21 -3 11 -13 18 -26 16 -28z m-1447 7 c0 -13 -5 -18 -15
-14 -12 5 -13 10 -4 20 15 19 19 18 19 -6z m248 -10 c-2 -6 -8 -6 -18 0 -13 9
-13 11 0 20 15 10 25 0 18 -20z m512 15 c0 -1 -7 -8 -15 -15 -13 -10 -15 -9
-15 8 0 15 5 20 15 16 8 -4 15 -7 15 -9z m250 -5 c0 -4 -7 -10 -15 -14 -10 -4
-15 1 -15 14 0 13 5 18 15 14 8 -4 15 -10 15 -14z m-1710 -41 c-21 -40 -70
-163 -70 -175 0 -3 21 12 48 34 55 46 171 116 178 109 3 -3 -6 -27 -19 -54
-14 -26 -30 -67 -37 -90 -7 -24 -17 -43 -21 -43 -4 0 -13 25 -20 55 -7 30 -16
55 -20 55 -5 0 -20 -39 -35 -87 -41 -139 -38 -137 -62 -47 -12 44 -22 94 -23
110 -1 16 -4 40 -8 54 -6 21 -13 9 -39 -73 -18 -53 -32 -105 -33 -115 -1 -37
-18 23 -18 69 -1 38 5 54 34 91 34 46 156 160 163 154 2 -2 -6 -23 -18 -47z
m953 -39 c-4 -4 -24 -17 -44 -28 l-36 -22 -7 37 c-3 21 -6 53 -6 71 l0 34 51
-42 c27 -24 47 -46 42 -50z m562 5 l-6 -53 -46 26 -46 26 49 42 c55 49 60 45
49 -41z m952 -11 c2 -6 1 -38 -4 -70 l-8 -58 -38 97 c-22 53 -43 99 -48 103
-5 3 -9 10 -9 16 0 12 100 -70 107 -88z m-2024 64 c-4 -7 -24 -37 -45 -67 -21
-30 -38 -58 -38 -62 0 -5 29 -6 65 -2 36 3 65 4 65 2 0 -3 -18 -39 -39 -82
-21 -43 -47 -107 -57 -143 -9 -35 -20 -63 -24 -62 -12 5 -80 89 -80 99 0 4 26
16 58 26 32 10 60 20 62 23 2 3 -10 33 -27 67 l-31 62 -25 -57 c-14 -31 -29
-69 -32 -84 -4 -16 -11 -25 -16 -22 -11 6 -59 99 -59 113 0 6 26 18 58 27 31
10 60 21 65 24 4 4 1 24 -6 46 -30 85 -30 92 0 97 65 10 114 7 106 -5z m1624
-1 c2 -2 -6 -33 -16 -68 -11 -35 -18 -65 -15 -68 9 -10 118 -40 124 -35 3 3
-14 42 -38 86 -23 45 -41 82 -40 83 3 3 121 -35 126 -40 8 -7 -33 -121 -68
-192 -31 -64 -39 -74 -45 -58 -4 11 -21 50 -37 87 l-30 66 -31 -59 c-17 -32
-33 -59 -37 -59 -5 0 -48 78 -69 124 -2 5 24 6 63 2 36 -3 66 -3 66 2 0 4 -21
39 -46 77 l-46 68 68 -6 c37 -4 69 -8 71 -10z m-1937 -18 c-7 -11 -14 -19 -16
-16 -7 7 7 37 17 37 6 0 5 -9 -1 -21z m140 -47 c-16 -27 -35 -64 -41 -81 -6
-18 -15 -29 -20 -24 -8 8 -41 125 -36 128 12 10 123 40 125 34 2 -4 -11 -29
-28 -57z m1998 33 c-9 -9 -30 14 -23 25 6 9 10 8 17 -4 6 -10 8 -19 6 -21z
m-1442 -12 c-10 -10 -19 5 -10 18 6 11 8 11 12 0 2 -7 1 -15 -2 -18z m744 6
c0 -5 -4 -9 -10 -9 -5 0 -10 7 -10 16 0 8 5 12 10 9 6 -3 10 -10 10 -16z
m-361 -36 c7 -27 14 -56 17 -65 5 -15 -1 -18 -36 -18 -35 0 -41 3 -36 18 3 9
10 38 17 65 6 26 15 47 19 47 4 0 13 -21 19 -47z m-75 -60 c5 -16 3 -23 -6
-23 -7 0 -23 -3 -35 -6 -22 -6 -23 -4 -23 53 0 33 3 63 7 66 7 8 46 -54 57
-90z m116 76 c0 -5 -4 -9 -10 -9 -5 0 -10 7 -10 16 0 8 5 12 10 9 6 -3 10 -10
10 -16z m60 -50 l0 -61 -32 7 c-18 4 -35 9 -37 11 -7 7 52 113 60 108 5 -3 9
-32 9 -65z m-452 6 c2 -2 -29 -35 -68 -74 -40 -39 -70 -76 -68 -83 2 -6 31
-21 64 -31 32 -11 60 -21 62 -22 5 -4 -33 -65 -40 -65 -4 0 -27 25 -52 55
l-44 55 -21 -34 c-12 -18 -21 -38 -21 -45 0 -6 -4 -11 -9 -11 -11 0 -81 83
-81 95 0 4 29 5 65 1 l66 -7 -31 61 c-34 67 -31 70 46 44 25 -8 48 -13 51 -10
3 3 -2 26 -11 52 -25 74 -23 78 37 48 28 -15 53 -28 55 -29z m757 -16 c-9 -27
-15 -52 -13 -54 2 -2 26 2 53 10 76 23 79 22 49 -37 -15 -29 -28 -54 -29 -56
-2 -2 -37 31 -80 73 -42 43 -75 78 -73 80 17 15 104 51 106 44 2 -5 -4 -32
-13 -60z m686 30 c38 -23 88 -58 111 -78 l42 -38 -19 -68 c-20 -77 -17 -80
-59 58 -15 48 -31 87 -35 87 -4 0 -13 -25 -20 -55 -12 -52 -31 -75 -31 -37 0
9 -15 52 -34 95 -19 42 -32 77 -29 77 2 0 36 -19 74 -41z m326 -208 c4 -88 2
-121 -6 -117 -6 4 -11 24 -12 44 0 20 -8 67 -18 105 -9 37 -16 67 -14 67 1 0
11 -17 22 -37 28 -53 26 -19 -5 78 -37 119 -38 121 -3 49 29 -60 32 -75 36
-189z m-2177 219 c0 -13 -7 -20 -20 -20 -18 0 -19 2 -8 20 7 11 16 20 20 20 5
0 8 -9 8 -20z m1355 -18 c-22 -5 -27 1 -19 23 7 17 8 17 21 -1 12 -17 12 -19
-2 -22z m153 18 c11 -18 10 -20 -8 -20 -13 0 -20 7 -20 20 0 11 3 20 8 20 4 0
13 -9 20 -20z m-1368 -5 c0 -8 -7 -15 -15 -15 -26 0 -18 20 13 29 1 1 2 -6 2
-14z m431 -37 l41 -53 -32 -13 c-18 -7 -36 -10 -40 -5 -9 9 -23 123 -15 123 2
0 23 -24 46 -52z m19 42 c0 -5 -2 -10 -4 -10 -3 0 -8 5 -11 10 -3 6 -1 10 4
10 6 0 11 -4 11 -10z m320 6 c0 -3 -4 -8 -10 -11 -5 -3 -10 -1 -10 4 0 6 5 11
10 11 6 0 10 -2 10 -4z m44 -53 c-4 -32 -10 -61 -14 -66 -3 -4 -21 -1 -39 6
l-32 14 41 51 c22 29 43 52 45 52 3 0 2 -26 -1 -57z m-1097 13 c-4 -9 -13 -16
-22 -16 -18 0 -19 4 -3 30 14 22 34 10 25 -14z m1803 -8 c0 -12 -28 -9 -35 2
-4 6 -4 18 -1 27 6 14 8 14 21 -3 8 -10 15 -22 15 -26z m415 -4 c29 -39 35
-55 35 -96 0 -27 -5 -58 -10 -69 -9 -15 -7 -26 8 -47 11 -15 28 -46 39 -68 19
-40 19 -45 4 -103 -8 -34 -18 -61 -22 -61 -3 0 -9 44 -12 98 -3 53 -9 108 -14
121 -8 21 -11 17 -23 -33 -15 -63 -30 -82 -30 -39 0 25 -20 131 -35 187 -4 14
7 7 35 -24 25 -29 40 -39 40 -29 0 17 -41 159 -55 192 -13 30 3 18 40 -29z
m-1799 -1 c-10 -10 -19 5 -10 18 6 11 8 11 12 0 2 -7 1 -15 -2 -18z m944 6 c0
-5 -4 -9 -10 -9 -5 0 -10 7 -10 16 0 8 5 12 10 9 6 -3 10 -10 10 -16z m-730 1
c0 -5 -2 -10 -4 -10 -3 0 -8 5 -11 10 -3 6 -1 10 4 10 6 0 11 -4 11 -10z m520
6 c0 -2 -7 -9 -15 -16 -12 -10 -15 -10 -15 4 0 9 7 16 15 16 8 0 15 -2 15 -4z
m-529 -47 c27 -22 49 -44 49 -47 0 -7 -61 -45 -65 -40 -7 9 -43 128 -38 128 3
0 27 -18 54 -41z m557 -21 c-12 -35 -22 -65 -24 -67 -2 -2 -17 7 -35 20 l-32
23 49 43 c27 23 52 43 56 43 4 0 -3 -28 -14 -62z m-1319 33 c8 -15 6 -20 -14
-29 -23 -11 -23 -10 -13 19 12 34 14 35 27 10z m2069 -6 c16 -35 15 -37 -8
-25 -11 6 -20 20 -20 30 0 28 15 25 28 -5z m-1378 -21 c0 -8 -5 -12 -10 -9 -6
4 -8 11 -5 16 9 14 15 11 15 -7z m675 7 c3 -5 1 -12 -5 -16 -5 -3 -10 1 -10 9
0 18 6 21 15 7z m-364 -61 c7 -33 16 -60 19 -60 3 0 12 27 19 60 8 33 17 60
22 60 5 0 9 -30 9 -67 l0 -68 -50 0 -50 0 0 68 c0 37 4 67 9 67 5 0 14 -27 22
-60z m-987 -35 c-13 -42 -24 -82 -24 -90 0 -31 -21 -13 -49 43 -19 37 -31 52
-35 42 -12 -32 -36 -146 -36 -173 l0 -28 66 51 c61 47 162 106 169 98 4 -5
-30 -168 -35 -168 -3 1 -23 23 -45 51 -38 49 -40 50 -46 26 -4 -14 -10 -58
-14 -99 l-8 -73 -43 50 c-25 27 -59 78 -77 112 -39 76 -47 68 -54 -63 -6 -103
-14 -108 -48 -34 -10 22 -22 40 -27 40 -4 0 -8 -49 -8 -110 0 -60 4 -110 8
-110 5 0 17 18 27 40 34 74 41 69 48 -35 9 -131 15 -138 54 -62 18 34 52 85
77 112 l43 50 8 -73 c4 -41 10 -85 14 -99 6 -24 8 -23 46 26 22 28 42 50 45
51 5 0 39 -163 35 -168 -7 -8 -108 51 -169 98 -57 44 -66 48 -66 30 0 -26 30
-171 37 -184 4 -5 19 16 35 47 28 57 48 73 48 40 0 -10 11 -49 24 -88 14 -38
23 -72 21 -73 -2 -2 -31 10 -64 28 -78 42 -180 127 -222 185 -24 34 -35 42
-37 31 -3 -15 18 -134 35 -195 15 -57 -75 55 -124 155 l-30 59 21 65 20 65 7
-95 c3 -53 10 -111 14 -129 7 -33 7 -32 30 35 20 59 21 71 10 84 -8 9 -24 37
-35 63 l-21 47 21 47 c11 26 27 54 35 63 11 13 10 25 -10 84 -23 67 -23 68
-30 35 -4 -18 -11 -76 -14 -129 l-7 -95 -20 65 c-19 59 -19 68 -6 100 18 44
97 162 124 187 21 18 21 18 14 -7 -15 -55 -37 -181 -34 -196 2 -11 14 -1 37
31 41 57 142 142 219 184 31 17 60 31 63 31 4 0 -4 -34 -17 -75z m321 37 c-22
-5 -29 3 -21 25 7 17 8 17 22 -2 13 -18 13 -20 -1 -23z m350 7 l55 -31 -23
-28 c-12 -16 -25 -29 -29 -29 -6 -1 -46 68 -66 112 -6 13 7 8 63 -24z m249
-26 c27 -56 25 -72 -10 -73 -5 0 -32 -14 -58 -31 -27 -16 -50 -29 -51 -27 -11
11 -65 111 -62 114 1 2 27 -18 57 -44 34 -30 51 -40 46 -27 -17 40 -36 108
-32 112 2 3 21 -18 42 -46 21 -28 39 -49 41 -47 2 1 -1 31 -5 64 -5 34 -6 62
-2 62 3 0 18 -25 34 -57z m204 -5 c-4 -33 -7 -63 -5 -64 2 -2 20 19 41 47 21
28 40 49 42 46 4 -4 -15 -72 -32 -112 -5 -13 12 -3 46 27 30 26 56 46 57 44 3
-3 -51 -103 -62 -114 -1 -2 -24 11 -51 27 -26 17 -53 31 -58 31 -35 1 -37 17
-10 73 16 32 31 57 34 57 4 0 3 -28 -2 -62z m280 55 c-2 -5 -16 -32 -31 -62
l-29 -53 -29 28 c-16 15 -27 30 -24 32 9 10 100 61 108 61 5 1 7 -2 5 -6z
m312 -19 c0 -8 -9 -14 -20 -14 -18 0 -19 3 -10 20 12 22 30 18 30 -6z m349
-10 c81 -45 168 -119 217 -186 l37 -50 -28 -59 c-16 -32 -32 -59 -35 -59 -4 0
-10 46 -13 101 -3 56 -9 105 -14 110 -4 4 -23 -20 -40 -54 -18 -34 -52 -85
-76 -112 l-44 -49 -7 79 c-5 44 -11 88 -15 99 -6 16 -10 14 -33 -16 -45 -59
-164 -167 -172 -157 -2 2 -6 37 -10 77 l-6 72 52 -27 c29 -15 56 -29 61 -31
12 -6 8 49 -7 108 -8 30 -13 56 -11 58 7 7 107 -51 169 -98 l66 -51 0 31 c0
39 -29 168 -39 174 -4 3 -19 -20 -34 -50 -27 -55 -47 -70 -47 -35 0 11 -11 51
-24 90 -13 39 -21 71 -18 71 3 0 35 -16 71 -36z m-495 11 c4 -10 -1 -15 -16
-15 -17 0 -18 2 -8 15 7 8 14 15 15 15 2 0 5 -7 9 -15z m-1104 -5 c0 -5 -7
-10 -16 -10 -8 0 -12 5 -9 10 3 6 10 10 16 10 5 0 9 -4 9 -10z m1390 -21 c0
-20 -15 -26 -24 -10 -8 13 4 42 15 35 5 -3 9 -14 9 -25z m317 -15 c-9 -10 -27
15 -21 31 7 17 8 16 16 -5 5 -13 7 -24 5 -26z m-2321 10 c-4 -9 -9 -15 -11
-12 -3 3 -3 13 1 22 4 9 9 15 11 12 3 -3 3 -13 -1 -22z m332 8 c2 -7 -4 -15
-13 -18 -20 -8 -27 -1 -19 20 7 18 25 17 32 -2z m417 -12 c3 -5 1 -10 -4 -10
-6 0 -11 5 -11 10 0 6 2 10 4 10 3 0 8 -4 11 -10z m830 0 c-3 -5 -11 -10 -16
-10 -6 0 -7 5 -4 10 3 6 11 10 16 10 6 0 7 -4 4 -10z m-1391 -57 c-23 -17 -27
-12 -18 22 7 27 8 27 21 9 12 -16 11 -20 -3 -31z m327 10 c-10 -21 -22 -49
-26 -62 l-7 -24 70 7 71 7 -17 -50 c-9 -28 -20 -51 -25 -51 -12 0 -187 176
-187 188 0 13 28 19 93 21 l47 1 -19 -37z m1219 -13 c-23 -27 -43 -50 -45 -50
-2 0 -14 20 -28 44 l-25 45 27 4 c14 2 46 5 69 6 l44 1 -42 -50z m149 44 c17
-4 31 -11 31 -16 0 -13 -175 -188 -188 -188 -5 0 -12 12 -16 28 -3 15 -8 37
-12 50 -6 23 -6 23 60 16 44 -4 66 -3 66 4 0 6 -9 31 -20 57 -11 26 -20 49
-20 51 0 6 63 5 99 -2z m261 -37 c0 -15 -3 -16 -20 -7 -17 9 -18 14 -9 32 9
17 13 18 20 7 5 -8 9 -22 9 -32z m-561 -28 l-43 -51 -23 28 c-13 16 -23 32
-23 35 0 6 123 47 129 43 2 -2 -16 -26 -40 -55z m419 36 c28 -9 52 -20 52 -25
0 -20 -108 -134 -171 -180 l-26 -19 -11 61 c-6 34 -10 64 -7 66 2 2 29 -4 60
-13 32 -9 60 -14 63 -11 5 6 -16 90 -33 129 -5 12 -3 16 6 13 8 -2 38 -12 67
-21z m-221 -52 c-11 -10 -26 8 -20 23 5 15 7 14 15 -1 6 -9 7 -19 5 -22z
m-1236 4 c-13 -13 -26 -3 -16 12 3 6 11 8 17 5 6 -4 6 -10 -1 -17z m144 13 c3
-5 1 -10 -4 -10 -6 0 -11 5 -11 10 0 6 2 10 4 10 3 0 8 -4 11 -10z m199 -21
c28 -17 52 -33 54 -34 2 -1 -11 -24 -27 -51 -17 -26 -31 -53 -31 -58 -1 -35
-17 -37 -73 -10 -58 29 -75 48 -34 40 12 -3 42 -7 67 -10 45 -6 45 -6 20 12
-41 29 -81 64 -77 68 3 4 68 -14 112 -31 16 -6 14 -1 -10 26 -81 91 -81 97 -1
48z m235 -31 c13 -57 14 -68 2 -68 -9 0 -13 14 -26 95 -9 54 9 34 24 -27z m41
2 c0 -33 -4 -60 -10 -60 -6 0 -10 27 -10 60 0 33 4 60 10 60 6 0 10 -27 10
-60z m40 -4 c-10 -60 -15 -74 -26 -63 -6 6 13 102 23 120 11 19 12 -3 3 -57z
m251 26 c-48 -61 -59 -68 -78 -49 -19 19 -22 16 42 56 66 40 73 39 36 -7z
m179 28 c0 -5 -5 -10 -11 -10 -5 0 -7 5 -4 10 3 6 8 10 11 10 2 0 4 -4 4 -10z
m786 -17 c-10 -10 -19 5 -10 18 6 11 8 11 12 0 2 -7 1 -15 -2 -18z m-2351 -10
c11 -14 10 -20 -4 -30 -24 -19 -28 -16 -23 17 5 34 10 37 27 13z m342 0 c2 -6
-3 -13 -12 -16 -10 -5 -15 0 -15 14 0 21 21 22 27 2z m673 -43 c20 -44 22 -53
10 -61 -26 -15 -34 -10 -63 36 -40 68 -33 76 13 15 22 -29 40 -51 40 -48 0 3
-9 30 -20 62 -23 68 -13 67 20 -4z m159 3 c-10 -31 -19 -58 -19 -61 0 -2 17
18 38 46 44 61 54 53 15 -12 -29 -47 -37 -52 -63 -36 -12 8 -11 17 13 65 15
30 29 55 31 55 3 0 -4 -25 -15 -57z m681 37 c0 -21 -15 -27 -25 -10 -7 12 2
30 16 30 5 0 9 -9 9 -20z m340 -12 c0 -29 -2 -31 -15 -17 -9 9 -13 23 -9 32
10 28 24 19 24 -15z m368 -118 c0 -67 -1 -70 -8 -30 -4 25 -10 77 -13 115 -5
69 -5 69 8 30 7 -22 13 -74 13 -115z m-1875 100 c5 -4 2 -22 -5 -40 l-13 -32
-53 41 c-28 23 -52 44 -52 47 0 8 113 -7 123 -16z m917 15 c0 -2 -23 -23 -52
-45 l-51 -41 -14 32 c-7 18 -10 36 -6 40 11 11 123 24 123 14z m-1394 -44
c-13 -20 -26 -11 -26 16 0 25 1 26 16 11 9 -9 13 -21 10 -27z m1776 10 c4 -26
2 -29 -14 -20 -21 11 -23 20 -6 37 16 16 15 16 20 -17z m-1586 -8 c-15 -59
-18 -244 -7 -304 7 -34 10 -63 8 -66 -7 -6 -127 28 -127 36 0 4 23 24 50 46
28 22 50 42 50 45 0 3 -25 18 -55 34 -30 16 -55 32 -55 36 0 4 25 20 55 36 30
16 55 31 55 34 0 3 -22 23 -50 45 -27 22 -50 42 -50 46 0 7 94 37 119 38 10 1
12 -7 7 -26z m1029 -1 c-17 -15 -41 -35 -55 -44 l-25 -18 45 6 c25 3 55 7 68
10 40 8 23 -11 -34 -39 -31 -16 -58 -27 -59 -25 -1 2 -12 24 -23 50 l-20 47
41 15 c93 33 100 33 62 -2z m-471 -31 c16 -17 26 -34 23 -38 -8 -7 -63 42 -79
70 -8 16 -7 17 9 9 10 -6 31 -24 47 -41z m307 32 c-15 -29 -70 -77 -78 -69 -4
4 11 25 34 47 46 42 59 49 44 22z m-686 -13 c3 -5 1 -10 -4 -10 -6 0 -11 5
-11 10 0 6 2 10 4 10 3 0 8 -4 11 -10z m1025 0 c0 -5 -5 -10 -11 -10 -5 0 -7
5 -4 10 3 6 8 10 11 10 2 0 4 -4 4 -10z m-1345 -159 l0 -160 -68 37 c-37 20
-89 56 -115 79 l-47 43 45 41 c25 22 76 58 115 80 38 21 70 39 70 39 0 0 0
-72 0 -159z m1054 146 c-2 -2 -26 -20 -53 -40 -27 -20 -47 -37 -44 -37 3 0 31
9 64 20 67 23 57 6 -14 -25 -37 -16 -45 -17 -53 -4 -5 8 -9 19 -9 24 0 11 102
76 109 69 2 -2 2 -5 0 -7z m-869 -18 c0 -5 -4 -9 -10 -9 -5 0 -10 7 -10 16 0
8 5 12 10 9 6 -3 10 -10 10 -16z m475 -6 c46 -29 51 -37 36 -62 -8 -13 -16
-12 -53 4 -71 31 -81 48 -14 25 72 -24 78 -25 46 -3 -85 58 -97 85 -15 36z
m821 0 c-10 -10 -19 5 -10 18 6 11 8 11 12 0 2 -7 1 -15 -2 -18z m-1854 -15
c-9 -9 -12 -7 -12 12 0 19 3 21 12 12 9 -9 9 -15 0 -24z m2408 10 c0 -16 -3
-19 -11 -11 -6 6 -8 16 -5 22 11 17 16 13 16 -11z m-2204 -27 c-13 -20 -26
-11 -26 16 0 25 1 26 16 11 9 -9 13 -21 10 -27z m2013 -5 c-6 -6 -13 -6 -21 2
-8 8 -8 15 2 28 13 15 15 14 21 -3 4 -10 3 -22 -2 -27z m-1443 2 c-3 -17 -8
-34 -11 -36 -6 -7 -115 50 -115 60 0 4 30 8 66 8 l67 0 -7 -32z m511 -10 c44
-41 35 -135 -18 -172 -34 -23 -110 -21 -142 4 -36 28 -52 81 -37 124 14 44 41
68 88 76 43 7 78 -3 109 -32z m463 34 c0 -10 -108 -67 -114 -61 -2 2 -7 19
-11 37 l-7 32 66 0 c36 0 66 -4 66 -8z m803 -174 l-32 -63 0 125 0 125 32 -62
31 -63 -31 -62z m-1921 122 c-2 -27 -8 -50 -13 -50 -22 0 -111 52 -103 60 7 7
93 36 114 39 3 1 3 -21 2 -49z m1194 34 c27 -9 53 -20 58 -25 5 -4 -15 -19
-44 -34 -28 -14 -54 -25 -56 -22 -6 6 -17 97 -12 97 2 0 27 -7 54 -16z m838
-66 c19 -81 20 -188 1 -243 l-14 -40 4 45 c13 128 15 194 6 175 -5 -11 -10
-30 -10 -42 -1 -12 -4 -24 -8 -26 -5 -3 -8 44 -8 103 0 60 3 106 6 102 3 -4
14 -37 23 -74z m-2619 -28 c0 -55 -3 -100 -7 -100 -8 0 -78 89 -78 100 0 11
70 100 78 100 4 0 7 -45 7 -100z m380 80 c0 -7 -6 -15 -12 -17 -8 -3 -13 4
-13 17 0 13 5 20 13 18 6 -3 12 -11 12 -18z m1575 -7 c0 -25 -1 -26 -16 -11
-9 9 -13 21 -10 27 13 20 26 11 26 -16z m415 -33 l28 -40 -28 -40 c-52 -75
-55 -74 -55 40 0 114 3 115 55 40z m-175 -25 c15 -18 7 -30 -52 -76 l-38 -31
0 92 0 92 38 -31 c22 -17 45 -37 52 -46z m-496 40 c-4 -8 -11 -12 -16 -9 -6 4
-5 10 3 15 19 12 19 11 13 -6z m-1064 1 c0 -3 -4 -8 -10 -11 -5 -3 -10 -1 -10
4 0 6 5 11 10 11 6 0 10 -2 10 -4z m353 -12 c26 -5 39 -24 16 -24 -22 0 -104
23 -114 32 -9 9 16 7 98 -8z m433 8 c-7 -11 -116 -36 -123 -28 -11 10 4 17 54
26 67 11 75 11 69 2z m505 -19 c27 -14 49 -29 49 -33 0 -8 -93 -60 -107 -60
-4 0 -8 27 -8 60 0 33 4 60 8 60 5 0 31 -12 58 -27z m-1053 -33 l0 -50 -71 0
c-81 0 -81 13 1 32 29 7 52 15 52 18 0 3 -23 11 -52 18 -82 19 -82 32 -1 32
l71 0 0 -50z m696 40 c-6 -6 -33 -16 -62 -22 -29 -7 -52 -15 -52 -18 0 -3 23
-11 52 -18 81 -19 82 -32 2 -32 l-69 0 0 50 0 50 70 0 c46 0 66 -3 59 -10z
m-844 -40 c0 -22 -3 -40 -7 -40 -19 0 -123 34 -123 40 0 7 91 37 118 39 8 1
12 -13 12 -39z m932 24 c32 -9 58 -20 58 -24 0 -6 -104 -40 -123 -40 -4 0 -7
18 -7 40 0 22 3 40 7 40 4 0 33 -7 65 -16z m-1608 -11 c4 -9 0 -23 -9 -32 -13
-14 -15 -12 -15 17 0 34 14 43 24 15z m2026 -13 c0 -27 -2 -29 -20 -18 -18 11
-18 14 -3 30 21 24 23 23 23 -12z m210 -2 c0 -30 -1 -31 -17 -16 -13 14 -14
20 -3 32 18 22 20 20 20 -16z m-1780 2 c0 -5 -4 -10 -10 -10 -5 0 -10 5 -10
10 0 6 5 10 10 10 6 0 10 -4 10 -10z m510 0 c0 -6 -28 -10 -65 -10 -37 0 -65
4 -65 10 0 6 28 10 65 10 37 0 65 -4 65 -10z m410 0 c0 -6 -27 -10 -60 -10
-33 0 -60 4 -60 10 0 6 27 10 60 10 33 0 60 -4 60 -10z m400 0 c0 -5 -4 -10
-10 -10 -5 0 -10 5 -10 10 0 6 5 10 10 10 6 0 10 -4 10 -10z m-1238 -60 c1
-28 3 -50 2 -50 -11 0 -112 34 -118 40 -8 8 77 59 101 60 6 0 12 -21 15 -50z
m1210 24 c28 -14 47 -29 42 -33 -13 -12 -106 -42 -112 -36 -6 5 7 95 14 95 3
0 28 -12 56 -26z m249 -11 c48 -41 77 -71 117 -122 23 -29 27 -31 33 -15 4 11
10 55 15 99 l7 79 44 -49 c24 -27 58 -78 76 -112 17 -34 36 -58 40 -54 5 5 11
54 14 110 3 55 9 101 13 101 10 0 77 -147 93 -204 12 -44 15 -47 21 -25 4 13
10 68 13 122 3 53 9 97 12 97 4 0 13 -27 22 -59 l15 -59 -29 -58 c-47 -92
-140 -212 -123 -157 14 43 36 160 36 188 l-1 30 -21 -30 c-39 -56 -152 -156
-213 -190 -100 -56 -97 -57 -69 25 13 40 24 80 24 91 0 35 20 20 47 -35 15
-30 30 -53 34 -50 10 6 39 135 39 174 l0 31 -66 -51 c-62 -47 -162 -105 -169
-98 -2 2 3 28 11 58 15 59 19 114 7 108 -5 -2 -32 -16 -62 -31 l-54 -29 6 39
c4 21 7 55 7 76 0 20 4 37 8 37 5 0 28 -17 53 -37z m-1031 17 c0 -5 -17 -12
-37 -15 -21 -4 -51 -9 -68 -12 -43 -8 -22 10 28 24 54 14 77 15 77 3z m348 -1
c61 -15 81 -33 27 -24 -81 13 -95 17 -95 26 0 12 11 11 68 -2z m-634 -41 c12
-46 9 -48 -59 -48 -36 0 -65 4 -65 8 0 8 97 62 111 62 4 0 9 -10 13 -22z m301
1 c4 -11 5 -22 3 -23 -1 -2 -22 -15 -45 -30 -65 -40 -73 -31 -13 14 29 22 51
40 48 40 -3 0 -31 -9 -64 -20 -62 -22 -61 -9 3 21 50 23 60 23 68 -2z m318 1
c67 -30 67 -42 1 -20 -32 11 -59 20 -62 20 -3 0 19 -18 48 -40 60 -45 52 -54
-13 -14 -23 15 -44 28 -45 30 -7 5 9 44 17 44 5 0 29 -9 54 -20z m302 -7 c30
-15 55 -31 55 -35 0 -4 -30 -8 -66 -8 -64 0 -66 1 -60 23 3 12 6 28 6 35 0 16
1 16 65 -15z m-1271 11 c13 -5 14 -9 5 -20 -16 -20 -29 -17 -29 6 0 22 1 23
24 14z m505 -27 c7 -19 23 -49 36 -67 14 -19 25 -36 25 -40 0 -8 -110 -73
-115 -68 -3 2 17 28 43 58 30 34 40 51 27 46 -39 -16 -108 -36 -112 -32 -4 4
36 39 77 68 25 18 25 18 -20 12 -25 -3 -55 -7 -67 -10 -40 -8 -25 11 30 38 28
15 55 27 59 27 3 1 11 -14 17 -32z m616 6 c56 -28 73 -47 33 -39 -13 3 -43 7
-68 10 -45 6 -45 6 -20 -12 41 -29 81 -64 77 -68 -4 -4 -73 16 -112 32 -13 5
-3 -12 27 -46 26 -30 45 -56 43 -58 -3 -3 -98 50 -113 63 -2 2 8 20 22 42 14
21 30 53 37 71 6 17 13 32 15 32 2 0 28 -12 59 -27z m455 7 c0 -23 -13 -26
-29 -6 -9 11 -9 15 1 19 23 10 28 7 28 -13z m-9 -62 c44 -40 109 -117 109
-129 0 -7 -121 -50 -127 -45 -1 1 7 26 17 56 20 56 25 90 14 90 -3 0 -31 -7
-61 -16 -30 -9 -56 -14 -58 -12 -3 2 1 32 7 66 l11 61 26 -19 c14 -10 42 -34
62 -52z m-1781 42 c0 -4 -7 -13 -15 -20 -13 -11 -15 -8 -15 13 0 19 4 25 15
21 8 -4 15 -10 15 -14z m2010 -7 c0 -26 -1 -26 -17 -10 -16 16 -16 19 -3 27
20 13 20 13 20 -17z m-2218 -25 c-9 -9 -12 -7 -12 12 0 19 3 21 12 12 9 -9 9
-15 0 -24z m1098 23 c0 -9 -76 -81 -85 -81 -11 0 -4 12 31 50 35 39 54 50 54
31z m254 -31 c35 -38 42 -50 31 -50 -9 0 -85 72 -85 81 0 19 19 8 54 -31z
m1056 18 c0 -16 -3 -19 -11 -11 -6 6 -8 16 -5 22 11 17 16 13 16 -11z m-1850
-7 c0 -17 -18 -21 -24 -6 -3 9 0 15 9 15 8 0 15 -4 15 -9z m92 -42 l17 -50
-71 7 -70 7 7 -24 c4 -13 16 -41 26 -61 l19 -38 -39 0 c-53 0 -101 10 -101 22
0 12 175 188 187 188 5 0 16 -23 25 -51z m488 42 c12 -8 10 -17 -10 -61 -33
-71 -43 -72 -20 -4 11 32 20 59 20 62 0 3 -18 -19 -40 -48 -46 -61 -53 -53
-13 15 29 46 37 51 63 36z m183 -37 c39 -65 29 -73 -15 -12 -21 28 -38 48 -38
46 0 -3 9 -30 20 -62 23 -68 13 -67 -20 4 -20 44 -22 53 -10 61 26 15 34 10
63 -37z m548 -43 c49 -49 89 -94 89 -99 0 -11 -48 -22 -96 -22 -39 0 -38 -2
-20 41 7 19 17 45 21 58 l7 24 -67 -7 c-67 -7 -67 -7 -61 16 4 13 9 35 12 51
4 15 11 27 16 27 5 0 50 -40 99 -89z m-11 73 c0 -8 -4 -12 -10 -9 -5 3 -10 10
-10 16 0 5 5 9 10 9 6 0 10 -7 10 -16z m-1053 -65 c-16 -9 -127 -22 -127 -15
0 3 23 24 52 47 l52 41 17 -34 c12 -24 14 -35 6 -39z m878 17 l40 -36 -60 6
c-33 3 -63 9 -68 13 -4 4 -2 22 4 39 13 37 21 35 84 -22z m-505 33 c0 -5 -5
-31 -11 -57 -13 -54 -34 -84 -26 -37 3 17 8 47 12 68 3 20 10 37 15 37 6 0 10
-5 10 -11z m30 -54 c0 -37 -4 -65 -10 -65 -6 0 -10 28 -10 65 0 37 4 65 10 65
6 0 10 -28 10 -65z m34 38 c15 -82 17 -107 8 -98 -9 10 -32 92 -32 114 0 23
19 10 24 -16z m-544 13 c0 -3 -4 -8 -10 -11 -5 -3 -10 -1 -10 4 0 6 5 11 10
11 6 0 10 -2 10 -4z m1020 -6 c0 -5 -2 -10 -4 -10 -3 0 -8 5 -11 10 -3 6 -1
10 4 10 6 0 11 -4 11 -10z m-1395 -20 c0 -7 -6 -15 -12 -17 -8 -3 -13 4 -13
17 0 13 5 20 13 18 6 -3 12 -11 12 -18z m1775 -7 c0 -25 -1 -26 -16 -11 -9 9
-13 21 -10 27 13 20 26 11 26 -16z m-1688 -69 c26 -82 82 -194 96 -194 4 0 20
25 36 55 16 30 31 55 35 55 3 -1 23 -27 44 -60 44 -67 121 -142 189 -185 26
-17 47 -33 48 -36 0 -4 -25 -19 -55 -35 -30 -16 -55 -32 -55 -36 0 -14 112
-70 194 -96 47 -15 85 -30 83 -33 -4 -11 -88 -79 -98 -79 -4 0 -17 28 -27 63
-11 34 -23 61 -26 60 -4 -1 -33 -15 -66 -32 l-60 -29 74 -31 c41 -17 80 -31
86 -31 21 0 -1 -20 -50 -45 -27 -14 -54 -25 -59 -25 -6 0 -18 26 -27 58 -10
31 -21 60 -24 65 -3 4 -28 0 -56 -9 -27 -9 -55 -18 -63 -20 -19 -6 3 -21 94
-67 37 -19 64 -37 59 -39 -14 -8 -126 -40 -129 -36 -1 2 -12 34 -25 71 -21 64
-24 68 -47 62 -34 -8 -206 -8 -235 0 -21 7 -19 3 11 -28 19 -20 58 -53 87 -74
29 -21 53 -41 54 -45 0 -6 -25 -4 -107 8 -29 4 -33 10 -51 67 -11 34 -23 80
-27 102 -8 48 -8 205 1 239 5 22 1 25 -63 46 -37 13 -69 24 -70 25 -7 5 30
118 55 171 39 78 126 204 142 204 3 0 17 -39 32 -86z m2225 -36 c-4 -106 -8
-132 -32 -186 -15 -34 -29 -61 -31 -59 -2 1 10 45 26 97 34 108 38 141 9 88
-11 -21 -21 -38 -22 -38 -2 0 5 30 14 68 10 37 18 83 18 103 1 32 7 49 19 49
2 0 2 -55 -1 -122z m-2523 59 c-9 -24 -24 -11 -24 21 0 24 2 25 15 11 9 -9 13
-23 9 -32z m2196 13 c0 -32 -14 -40 -24 -14 -5 14 8 44 20 44 2 0 4 -13 4 -30z
m-1851 -16 c-13 -16 -29 -10 -29 11 0 8 7 11 20 8 16 -4 18 -8 9 -19z m384 -5
c10 -18 16 -33 15 -34 -2 -1 -30 -11 -62 -22 -33 -10 -61 -24 -64 -31 -5 -15
125 -145 140 -140 7 3 21 31 31 64 11 32 21 60 22 62 4 5 65 -33 65 -40 0 -4
-25 -27 -55 -52 l-55 -44 36 -21 c19 -12 39 -21 45 -21 20 0 7 -20 -35 -54
-23 -20 -47 -36 -51 -36 -4 0 -5 30 -1 66 4 36 3 64 -1 62 -4 -2 -32 -16 -60
-31 -59 -31 -62 -27 -37 47 9 26 14 49 11 52 -3 3 -26 -2 -51 -10 -77 -26 -80
-23 -46 44 l31 61 -66 -7 c-36 -4 -65 -3 -65 1 0 4 16 28 36 51 34 42 54 55
54 35 0 -6 9 -26 21 -45 l21 -36 44 55 c25 30 48 55 52 55 4 0 15 -14 25 -31z
m204 1 c26 -16 52 -30 57 -30 35 -1 37 -17 10 -73 -16 -32 -31 -57 -34 -57 -4
0 -3 28 2 62 4 33 7 63 5 64 -2 2 -20 -19 -41 -47 -21 -28 -40 -49 -42 -46 -4
4 15 72 32 112 5 13 -12 3 -46 -27 -30 -26 -55 -46 -57 -44 -3 3 59 116 64
116 1 0 24 -13 50 -30z m391 -26 c18 -31 31 -58 29 -60 -2 -2 -27 18 -57 44
-34 30 -51 40 -46 27 17 -40 36 -108 32 -112 -2 -3 -21 18 -42 46 -21 28 -39
49 -41 47 -2 -1 1 -31 5 -64 5 -34 6 -62 2 -62 -5 0 -60 104 -60 114 0 3 15 9
33 15 18 6 48 22 67 36 19 13 37 24 40 25 3 0 20 -25 38 -56z m232 -46 c0 -4
-25 2 -57 13 -31 10 -60 19 -65 19 -5 0 4 -26 21 -57 17 -31 29 -58 27 -60 -2
-3 -29 10 -60 27 -37 21 -56 27 -55 18 1 -28 36 -112 48 -116 6 -2 43 28 82
68 39 39 72 70 74 68 1 -2 14 -27 29 -55 30 -60 26 -63 -50 -37 -25 8 -48 13
-51 10 -3 -3 2 -26 11 -52 25 -75 23 -78 -44 -44 l-61 31 7 -66 c4 -36 3 -65
-1 -65 -12 0 -95 70 -95 81 0 5 5 9 11 9 7 0 27 9 45 21 l34 21 -55 44 c-30
25 -55 48 -54 52 0 4 21 21 47 37 26 17 65 54 87 84 l39 53 43 -48 c23 -27 43
-52 43 -56z m300 82 c0 -23 -25 -27 -33 -6 -4 9 1 17 11 19 9 3 18 5 20 6 1 0
2 -8 2 -19z m-167 -98 c-8 -2 -39 -1 -68 3 l-53 6 26 46 26 46 42 -49 c33 -37
39 -50 27 -52z m667 72 c0 -8 -5 -12 -10 -9 -6 4 -8 11 -5 16 9 14 15 11 15
-7z m-1870 -4 c0 -5 -4 -10 -9 -10 -6 0 -13 5 -16 10 -3 6 1 10 9 10 9 0 16
-4 16 -10z m1090 6 c0 -3 -4 -8 -10 -11 -5 -3 -10 -1 -10 4 0 6 5 11 10 11 6
0 10 -2 10 -4z m134 -11 c-4 -8 -10 -12 -15 -9 -14 8 -10 24 6 24 9 0 12 -6 9
-15z m635 -107 c1 -9 -20 -34 -46 -55 -48 -40 -173 -117 -179 -111 -2 2 10 32
27 67 16 34 32 76 36 92 8 44 20 35 34 -26 7 -30 16 -55 20 -55 7 0 36 82 60
170 l12 45 18 -55 c10 -30 18 -62 18 -72z m-2219 72 c0 -11 -4 -22 -10 -25 -5
-3 -10 -3 -10 2 0 4 -3 18 -6 31 -5 18 -3 21 10 16 9 -3 16 -14 16 -24z m1944
-5 c-7 -27 -8 -27 -21 -9 -12 16 -11 20 3 31 23 17 27 12 18 -22z m-1289 0
c14 -14 25 -28 25 -29 0 -7 -112 -67 -116 -63 -4 4 55 117 61 117 2 0 16 -11
30 -25z m355 -48 c0 -81 -13 -81 -32 1 -7 29 -15 52 -18 52 -3 0 -11 -23 -18
-52 -19 -82 -32 -82 -32 -1 l0 71 50 0 50 0 0 -71z m906 -9 c33 -69 70 -176
62 -182 -11 -10 -129 -44 -126 -36 2 4 21 42 43 83 22 42 37 78 35 81 -6 5
-115 -26 -124 -35 -3 -3 4 -33 15 -68 10 -35 18 -66 16 -68 -2 -2 -35 -6 -72
-10 l-68 -6 42 61 c64 94 64 92 -14 85 -40 -4 -66 -2 -64 3 21 46 64 124 69
124 4 0 20 -27 37 -59 l31 -60 31 70 c17 38 31 74 31 79 0 29 24 2 56 -62z
m414 -4 c0 -43 -5 -58 -36 -98 -20 -26 -38 -46 -40 -44 -2 2 5 26 15 54 10 27
24 75 32 107 15 68 29 58 29 -19z m-2516 4 c-4 -6 -10 -5 -15 3 -14 22 -10 33
6 19 8 -7 12 -17 9 -22z m1996 13 c0 -11 -4 -22 -9 -25 -11 -7 -23 22 -15 35
9 16 24 10 24 -10z m320 5 c0 -17 -14 -29 -23 -20 -8 8 3 34 14 34 5 0 9 -6 9
-14z m-510 -58 l33 -61 -72 7 c-39 3 -71 3 -71 -1 0 -3 8 -30 17 -59 9 -30 13
-57 10 -61 -4 -3 -31 1 -61 10 -29 9 -56 17 -59 17 -4 0 -4 -32 -1 -71 l7 -72
-61 33 c-34 18 -62 36 -62 39 0 3 18 16 40 29 59 34 160 132 200 195 19 31 38
56 41 57 3 0 21 -28 39 -62z m-1340 28 c0 -8 -4 -18 -10 -21 -5 -3 -10 -4 -10
-1 0 2 -3 11 -6 20 -4 11 -1 16 10 16 9 0 16 -6 16 -14z m140 5 c0 -17 -18
-21 -24 -6 -3 9 0 15 9 15 8 0 15 -4 15 -9z m1104 -6 c-4 -8 -10 -12 -15 -9
-14 8 -10 24 6 24 9 0 12 -6 9 -15z m144 -2 c-4 -22 -22 -20 -26 1 -2 10 3 16
13 16 10 0 15 -7 13 -17z m-848 -52 c-4 -9 -25 -34 -45 -56 l-36 -40 6 55 c11
92 10 92 50 73 26 -12 32 -20 25 -32z m353 -21 c4 -30 6 -58 4 -64 -2 -5 -23
14 -46 44 l-43 55 28 12 c16 7 33 11 39 9 5 -1 13 -27 18 -56z m1016 -122
c-49 -43 -77 -57 -51 -26 8 11 48 103 78 183 5 15 10 2 17 -45 l9 -65 -53 -47z
m-2253 147 c8 -21 -6 -41 -17 -24 -12 19 -11 39 1 39 6 0 13 -7 16 -15z m2074
6 c0 -17 -12 -41 -21 -41 -10 0 -12 33 -2 43 9 10 23 9 23 -2z m-1102 -16 c8
-8 -50 -115 -59 -109 -5 3 -9 32 -9 66 l0 61 32 -7 c17 -3 34 -8 36 -11z m172
-43 c0 -32 -3 -62 -7 -65 -7 -8 -46 54 -57 90 -5 16 -2 23 11 26 50 13 53 10
53 -51z m-84 31 c-3 -10 -10 -39 -17 -65 -6 -27 -15 -48 -19 -48 -4 0 -13 21
-19 48 -7 26 -14 55 -17 65 -5 14 1 17 36 17 35 0 41 -3 36 -17z m1324 -84
c-6 -24 -12 -57 -14 -74 -5 -41 -41 -115 -76 -156 -25 -29 -22 -19 21 64 51
97 62 142 19 72 -34 -55 -35 -34 -2 31 16 33 36 79 43 104 18 57 25 23 9 -41z
m-1820 55 c0 -14 -3 -14 -15 -4 -8 7 -15 14 -15 16 0 2 7 4 15 4 8 0 15 -7 15
-16z m720 6 c0 -5 -4 -10 -10 -10 -5 0 -10 5 -10 10 0 6 5 10 10 10 6 0 10 -4
10 -10z m220 1 c0 -17 -18 -21 -24 -6 -3 9 0 15 9 15 8 0 15 -4 15 -9z m428
-16 c-11 -25 -28 -25 -28 0 0 12 13 22 32 24 4 1 3 -10 -4 -24z m-194 -43 c9
-32 16 -62 16 -67 0 -4 -32 -5 -70 -1 l-70 6 6 -70 c4 -38 3 -70 -1 -70 -19 0
-125 33 -124 39 0 3 27 27 60 54 32 26 80 74 106 106 27 33 51 60 54 60 4 1
14 -25 23 -57z m477 25 c-10 -9 -11 -8 -5 6 3 10 9 15 12 12 3 -3 0 -11 -7
-18z m-561 4 c0 -5 -7 -14 -15 -21 -8 -7 -15 -10 -15 -7 0 3 -3 12 -6 21 -4
12 0 16 15 16 12 0 21 -4 21 -9z m140 5 c0 -12 -13 -36 -20 -36 -4 0 -10 9
-13 20 -4 15 0 20 14 20 10 0 19 -2 19 -4z m391 -113 c1 -55 -1 -109 -5 -119
-3 -11 -7 -33 -9 -49 -2 -17 -12 -54 -21 -83 -16 -46 -24 -56 -69 -82 -71 -41
-78 -38 -30 13 48 50 115 138 110 144 -2 2 -24 -8 -48 -22 -24 -13 -48 -25
-52 -25 -4 0 10 24 31 53 47 64 99 151 86 146 -5 -2 -32 -16 -61 -32 l-52 -27
52 99 c29 55 55 96 60 92 4 -4 8 -52 8 -108z m-996 97 c3 -5 1 -10 -4 -10 -6
0 -11 5 -11 10 0 6 2 10 4 10 3 0 8 -4 11 -10z m-215 -20 c0 -5 -5 -10 -11
-10 -5 0 -7 5 -4 10 3 6 8 10 11 10 2 0 4 -4 4 -10z m110 0 c0 -5 -4 -10 -10
-10 -5 0 -10 5 -10 10 0 6 5 10 10 10 6 0 10 -4 10 -10z m-180 -42 c0 -13
-175 -188 -187 -188 -12 0 -23 47 -23 101 l0 39 38 -19 c20 -10 48 -22 61 -26
l24 -7 -6 70 -7 70 50 -16 c28 -9 50 -20 50 -24z m334 -29 l-7 -71 24 7 c13 4
41 16 62 26 l37 19 0 -32 c0 -53 -12 -108 -23 -108 -12 0 -187 175 -187 188 0
5 21 16 48 24 26 9 48 17 50 17 1 1 -1 -31 -4 -70z m-1431 -52 c52 -99 55
-107 30 -89 -62 45 -80 74 -88 142 -3 36 -5 63 -2 60 2 -3 29 -54 60 -113z
m857 97 c0 -8 -4 -12 -10 -9 -5 3 -10 10 -10 16 0 5 5 9 10 9 6 0 10 -7 10
-16z m740 8 c0 -13 -12 -22 -22 -16 -10 6 -1 24 13 24 5 0 9 -4 9 -8z m-1434
-29 c-7 -7 -26 7 -26 19 0 6 6 6 15 -2 9 -7 13 -15 11 -17z m2126 1 c-7 -12
-11 -13 -17 -4 -4 7 -2 16 6 21 18 11 23 4 11 -17z m202 -31 c-7 -61 -27 -92
-88 -136 l-29 -21 27 45 c15 24 41 72 58 107 16 34 32 62 34 62 2 0 1 -26 -2
-57z m-2267 8 c12 -21 38 -59 58 -85 l36 -48 -33 7 c-18 4 -48 13 -65 21 -33
13 -33 14 -33 78 0 37 3 66 8 66 4 0 17 -17 29 -39z m983 18 c0 -21 -52 -111
-60 -103 -6 6 -40 107 -40 118 0 1 22 -1 50 -2 27 -2 50 -8 50 -13z m104 -40
c-9 -30 -20 -58 -24 -63 -8 -8 -60 82 -60 103 0 7 82 20 97 15 2 0 -4 -25 -13
-55z m934 -6 l-3 -68 -54 -18 c-29 -10 -56 -16 -58 -13 -2 2 16 32 41 65 25
34 48 71 51 81 14 43 26 18 23 -47z m-1268 17 c0 -13 -5 -18 -15 -14 -12 5
-13 10 -4 20 15 19 19 18 19 -6z m499 6 c9 -10 8 -15 -4 -20 -10 -4 -15 1 -15
14 0 24 4 25 19 6z m261 -5 c0 -5 -7 -11 -15 -15 -9 -3 -15 0 -15 9 0 8 7 15
15 15 8 0 15 -4 15 -9z m371 -118 c1 -125 -5 -149 -39 -158 -38 -10 -220 -7
-238 3 -12 7 -8 14 23 37 21 15 55 44 76 64 l38 36 -7 -75 -7 -75 43 36 c24
19 60 55 79 79 l36 43 -75 -7 -75 -7 36 38 c20 21 49 55 64 76 38 51 45 36 46
-90z m53 102 c-20 -30 -24 -31 -24 -6 0 11 8 22 18 24 9 3 18 5 20 6 1 0 -5
-10 -14 -24z m-1864 -5 c0 -11 -2 -20 -5 -20 -2 0 -9 9 -15 20 -9 16 -8 20 5
20 8 0 15 -9 15 -20z m1664 -41 c3 -34 3 -65 0 -70 -5 -8 -122 -2 -132 6 -4 4
111 123 119 124 3 1 9 -26 13 -60z m-865 12 c-15 -5 -22 6 -14 19 6 9 10 9 16
-1 5 -8 4 -15 -2 -18z m261 8 c0 -5 -7 -9 -15 -9 -9 0 -12 6 -9 15 6 15 24 11
24 -6z m520 12 c0 -5 -7 -14 -15 -21 -13 -10 -15 -9 -15 9 0 12 6 21 15 21 8
0 15 -4 15 -9z m140 -11 c-6 -11 -15 -20 -20 -20 -6 0 -10 9 -10 20 0 13 7 20
20 20 18 0 19 -3 10 -20z m-790 -5 c0 -8 -7 -15 -16 -15 -14 0 -14 3 -4 15 7
8 14 15 16 15 2 0 4 -7 4 -15z m-370 -40 c0 -8 -4 -15 -9 -15 -13 0 -22 16
-14 24 11 11 23 6 23 -9z m323 -2 c67 -3 130 -1 168 6 34 7 63 10 66 8 6 -7
-28 -127 -36 -127 -4 0 -24 23 -45 50 -21 28 -41 50 -45 50 -3 0 -19 -25 -35
-55 -16 -30 -32 -55 -36 -55 -4 0 -20 25 -36 55 -16 30 -32 55 -35 55 -4 0
-24 -22 -45 -50 -21 -27 -41 -50 -45 -50 -6 0 -39 105 -39 124 0 5 12 5 28 2
15 -4 75 -10 135 -13z m419 2 c0 -5 -5 -11 -11 -13 -6 -2 -11 4 -11 13 0 9 5
15 11 13 6 -2 11 -8 11 -13z m-1390 -32 c9 -16 40 -54 68 -86 29 -32 50 -60
48 -62 -3 -3 -32 4 -66 16 l-61 20 -6 47 c-3 26 -8 57 -11 70 -6 30 8 28 28
-5z m1464 -38 c-4 -36 -3 -65 2 -65 5 0 33 17 63 38 89 63 83 64 76 -13 -4
-37 -8 -70 -10 -72 -2 -2 -33 6 -68 16 -35 11 -66 17 -69 13 -4 -4 -14 -33
-24 -64 -9 -32 -21 -58 -27 -58 -14 0 -107 48 -113 59 -3 5 6 12 22 16 15 3
53 18 84 32 l57 25 -62 31 c-34 17 -64 30 -66 30 -3 -1 -13 -29 -23 -62 -10
-34 -23 -61 -27 -61 -10 0 -95 68 -98 79 -1 3 37 19 85 34 49 15 110 41 138
57 27 16 53 29 58 29 5 1 6 -28 2 -64z m578 28 c-14 -107 -9 -100 -76 -122
-34 -12 -64 -19 -67 -16 -2 3 13 24 35 48 23 23 55 61 73 85 18 23 34 42 36
42 2 0 2 -17 -1 -37z m210 -19 c-15 -43 -85 -134 -105 -134 -3 0 21 42 55 94
33 51 62 93 63 91 2 -1 -4 -24 -13 -51z m-1457 -10 c-2 -2 -12 -2 -21 2 -13 5
-14 9 -5 21 11 12 14 12 22 -2 5 -9 7 -19 4 -21z m448 3 c-20 -11 -29 -3 -21
19 5 13 9 14 22 3 14 -11 14 -13 -1 -22z m289 14 c3 -5 -1 -12 -10 -15 -22 -9
-24 -8 -24 9 0 16 25 21 34 6z m-1454 -21 c0 -5 -2 -10 -4 -10 -3 0 -8 5 -11
10 -3 6 -1 10 4 10 6 0 11 -4 11 -10z m870 -16 c0 -16 -2 -16 -24 -8 -13 5
-14 9 -5 20 13 16 29 9 29 -12z m145 -7 c-20 -11 -29 -3 -21 19 5 13 9 14 22
3 14 -11 14 -13 -1 -22z m860 23 c-3 -5 -10 -10 -16 -10 -5 0 -9 5 -9 10 0 6
7 10 16 10 8 0 12 -4 9 -10z m-288 -8 c9 -6 7 -11 -7 -20 -17 -11 -20 -10 -20
8 0 21 7 25 27 12z m153 -11 c0 -5 -7 -14 -15 -21 -13 -10 -15 -9 -15 9 0 12
6 21 15 21 8 0 15 -4 15 -9z m-1140 -46 c0 -8 -6 -15 -14 -15 -20 0 -29 17
-14 23 22 9 28 7 28 -8z m457 -49 l-31 -59 -48 53 -48 54 -48 -54 -48 -53 -31
59 -32 59 159 0 159 0 -32 -59z m227 58 c18 -7 12 -24 -10 -24 -8 0 -14 7 -14
15 0 17 2 18 24 9z m824 -76 c-19 -29 -52 -68 -74 -86 -66 -55 -78 -68 -113
-112 -30 -38 -137 -117 -146 -108 -2 2 29 29 69 61 40 31 81 67 92 78 17 20
13 19 -31 -6 l-50 -27 48 43 c27 24 67 64 89 89 l40 45 -27 -50 -28 -50 27 25
c15 14 51 55 79 92 28 37 53 65 55 63 2 -2 -12 -27 -30 -57z m-2032 -115 c-1
-2 -29 6 -62 17 -64 22 -65 23 -102 140 -3 8 34 -23 81 -69 48 -47 85 -86 83
-88z m1853 99 c-22 -66 -10 -58 -139 -100 -8 -3 23 34 69 81 47 48 86 85 88
83 2 -1 -6 -30 -18 -64z m-1159 33 c0 -8 -9 -15 -20 -15 -22 0 -27 15 -7 23
21 9 27 7 27 -8z m344 9 c24 -9 19 -21 -9 -26 -28 -6 -27 -6 -19 16 7 18 7 18
28 10z m-646 -28 c3 -15 1 -16 -17 -6 -12 6 -19 16 -15 21 9 15 28 5 32 -15z
m955 15 c17 -6 16 -8 -7 -19 -23 -10 -26 -9 -26 8 0 21 4 23 33 11z m-473 -16
c0 -8 -9 -15 -20 -15 -20 0 -26 11 -13 23 12 13 33 7 33 -8z m548 -47 c-12
-35 -22 -64 -23 -66 -3 -4 -76 15 -113 29 -24 9 -23 11 43 45 38 19 74 39 79
44 6 6 16 10 22 10 9 0 7 -17 -8 -62z m310 50 c-3 -7 -13 -36 -22 -65 -15 -46
-21 -53 -49 -57 -82 -12 -107 -14 -107 -8 0 4 22 21 48 39 26 18 63 48 82 68
34 35 56 46 48 23z m-1477 -91 c22 -12 39 -25 39 -29 0 -5 -29 -8 -66 -8 -64
0 -65 0 -78 33 -8 17 -17 47 -21 65 l-7 33 48 -36 c26 -20 64 -46 85 -58z
m1312 22 l-18 -54 -67 -3 c-38 -2 -68 1 -68 5 0 4 21 20 48 35 26 15 63 40 82
56 19 17 36 27 38 22 1 -4 -5 -31 -15 -61z m-1315 21 c-2 -5 -12 -2 -23 6 -17
13 -18 16 -5 24 15 9 35 -11 28 -30z m434 18 c37 -7 68 -15 68 -18 -1 -3 -23
-23 -51 -45 -49 -38 -50 -40 -26 -46 14 -4 58 -10 99 -14 l73 -8 -50 -43 c-27
-25 -78 -59 -112 -77 -76 -39 -68 -47 63 -54 52 -3 94 -9 94 -13 0 -4 -22 -17
-50 -30 -27 -13 -50 -27 -50 -32 0 -4 53 -8 118 -8 l117 -1 -55 -30 -55 -30
100 5 c55 3 111 9 124 14 20 7 16 10 -33 22 -31 7 -59 17 -61 21 -3 4 20 10
51 14 31 4 81 13 112 21 30 8 57 13 59 10 7 -7 -111 -93 -171 -124 -56 -29
-59 -29 -109 -15 -29 8 -60 18 -70 24 -10 5 -23 6 -30 2 -7 -4 -37 -15 -67
-24 -55 -15 -55 -15 -114 14 -61 30 -159 97 -172 118 -5 9 1 10 22 5 66 -17
161 -36 182 -36 39 0 16 -16 -44 -30 -49 -12 -53 -15 -33 -22 13 -5 69 -11
124 -14 l100 -5 -49 26 c-27 15 -54 31 -60 36 -102 81 -141 117 -180 170 -46
60 -101 157 -94 164 2 2 35 -7 73 -21 39 -13 78 -24 88 -24 33 0 17 -20 -40
-49 -38 -19 -53 -31 -43 -35 32 -12 146 -36 173 -36 l28 0 -51 66 c-45 59
-100 152 -100 170 0 3 7 3 17 0 9 -4 47 -12 85 -18z m438 17 c0 -17 -56 -112
-100 -169 l-51 -66 28 0 c27 0 141 24 173 36 10 4 -5 16 -42 35 -56 28 -74 49
-43 49 8 0 48 11 90 24 67 21 76 22 70 8 -14 -39 -78 -140 -112 -180 l-37 -43
30 7 c70 16 184 56 184 63 0 4 -25 13 -55 20 -30 7 -55 16 -55 20 0 4 19 14
43 21 23 7 64 23 90 37 27 13 51 22 53 20 8 -7 -66 -128 -109 -179 -21 -27
-37 -48 -34 -48 13 0 120 41 164 64 29 14 55 26 59 26 3 0 -13 -22 -36 -50
-23 -27 -39 -50 -36 -50 11 0 112 49 165 80 l54 32 -21 -29 c-11 -15 -34 -41
-52 -58 l-31 -30 -127 1 c-103 1 -142 6 -208 26 l-81 24 -34 -29 c-75 -64 -74
-63 -140 -32 -32 16 -59 32 -59 35 0 4 46 10 102 13 56 4 105 10 109 14 5 5
-20 23 -54 40 -34 18 -85 52 -112 77 l-50 44 80 7 c122 12 125 14 66 60 -28
22 -50 42 -51 45 0 3 35 12 78 21 42 9 80 17 85 17 4 1 7 0 7 -3z m360 -25
c-27 -20 -36 -19 -27 5 4 8 17 15 29 15 l23 0 -25 -20z m-1385 0 c3 -6 -1 -7
-9 -4 -18 7 -21 14 -7 14 6 0 13 -4 16 -10z m1535 6 c0 -2 -7 -6 -15 -10 -8
-3 -15 -1 -15 4 0 6 7 10 15 10 8 0 15 -2 15 -4z m-690 -16 c0 -3 -20 -28 -45
-55 l-45 -50 -45 50 c-25 27 -45 52 -45 55 0 3 41 5 90 5 50 0 90 -2 90 -5z
m-360 -32 c0 -11 -12 -10 -30 2 -13 9 -13 11 0 19 14 9 29 -2 30 -21z m580 13
c0 -10 -30 -24 -37 -17 -3 3 -2 9 2 15 8 13 35 15 35 2z m-1151 -130 c29 -23
55 -40 58 -38 2 2 -8 24 -22 48 -13 24 -25 47 -25 51 0 4 43 -22 97 -58 53
-35 98 -63 99 -61 2 2 -10 29 -27 60 -27 51 -29 73 -4 48 6 -5 48 -30 93 -54
46 -25 79 -47 74 -51 -14 -8 -203 -10 -228 -2 -11 3 -33 7 -49 9 -17 2 -47 9
-68 16 -21 7 -41 11 -43 8 -6 -6 106 -87 154 -111 46 -24 35 -30 -19 -11 -60
20 -33 0 73 -55 87 -46 109 -48 51 -7 -45 32 -37 35 16 7 51 -26 142 -60 160
-60 8 0 -10 22 -40 49 -61 55 -142 148 -119 139 8 -4 51 -22 95 -41 132 -58
136 -58 89 -1 -44 53 -118 174 -110 181 2 2 26 -7 53 -20 26 -14 67 -30 91
-37 23 -7 42 -17 42 -21 0 -4 -25 -13 -55 -20 -30 -7 -55 -15 -55 -19 0 -4 39
-20 88 -35 138 -42 136 -39 46 -63 -44 -12 -94 -22 -110 -23 -16 -1 -40 -4
-54 -8 -21 -6 -9 -13 73 -39 53 -18 105 -32 115 -32 16 -1 16 -1 -1 -11 -10
-6 -64 -9 -129 -6 l-112 3 81 -27 c45 -15 96 -30 115 -33 32 -6 32 -6 -12 19
-25 14 -36 23 -25 21 93 -24 155 -36 183 -36 17 0 32 -4 32 -10 0 -5 -19 -10
-42 -10 -23 0 -39 -2 -37 -4 6 -7 211 -27 216 -22 3 2 -17 10 -43 18 -46 13
-44 13 76 13 120 0 122 0 76 -13 -26 -8 -46 -16 -43 -18 5 -5 210 15 216 22 2
2 -14 4 -37 4 -23 0 -42 5 -42 10 0 6 15 10 33 10 17 0 67 9 110 19 42 10 77
17 77 15 0 -2 -17 -12 -37 -23 -21 -11 -33 -20 -28 -21 17 0 147 38 185 54
l35 15 -50 -5 -50 -5 61 24 c33 14 79 35 103 47 53 27 65 20 16 -10 -64 -39
-29 -33 53 10 106 55 133 75 73 55 -24 -8 -45 -14 -46 -13 -1 2 40 31 91 65
106 69 108 57 7 -38 -72 -68 -145 -109 -201 -115 -19 -1 -42 -10 -51 -18 -35
-31 -136 -68 -198 -72 -33 -2 -87 -12 -120 -23 -85 -28 -381 -28 -466 0 -33
11 -87 21 -120 23 -62 4 -163 41 -198 72 -9 8 -33 17 -52 19 -60 5 -150 61
-226 141 -40 41 -69 79 -66 84 4 6 2 10 -4 10 -9 0 -71 100 -71 116 0 4 17 -8
38 -28 20 -19 61 -54 91 -77z m761 88 c0 -5 -12 -9 -27 -9 -27 1 -27 1 -9 15
19 14 36 12 36 -6z m190 -9 c-30 -8 -34 -6 -26 15 5 13 9 14 28 4 l23 -13 -25
-6z m831 -34 c-28 -48 -38 -57 -84 -72 -28 -9 -65 -19 -82 -21 -16 -2 -38 -6
-49 -9 -27 -9 -218 -6 -227 3 -4 5 37 32 92 61 l101 52 -31 -57 c-17 -31 -29
-58 -27 -60 2 -2 47 25 100 60 53 36 96 62 96 58 0 -3 -12 -26 -25 -50 -14
-24 -24 -46 -22 -48 5 -5 127 89 156 121 36 39 37 24 2 -38z m-1351 19 c0 -17
-2 -18 -24 -9 -23 9 -20 24 4 24 11 0 20 -7 20 -15z m854 6 c3 -5 -1 -12 -10
-15 -25 -10 -34 -7 -28 9 7 17 30 20 38 6z m131 -41 c-3 -5 -10 -10 -16 -10
-5 0 -9 5 -9 10 0 6 7 10 16 10 8 0 12 -4 9 -10z m-774 -38 c-7 -2 -19 -1 -29
3 -14 5 -14 7 -2 15 9 5 20 4 28 -3 10 -8 11 -12 3 -15z m433 7 c-3 -5 -14 -9
-26 -9 -17 0 -18 3 -8 14 12 15 44 10 34 -5z m-214 -14 c11 -13 8 -15 -14 -15
-25 0 -33 10 -19 23 10 11 19 8 33 -8z m334 -34 c3 -5 -1 -11 -9 -14 -9 -4
-12 -1 -8 9 6 16 10 17 17 5z m-689 -11 c3 -6 -1 -7 -9 -4 -18 7 -21 14 -7 14
6 0 13 -4 16 -10z m435 -2 c0 -8 -89 -78 -100 -78 -11 0 -100 70 -100 78 0 4
45 7 100 7 55 0 100 -3 100 -7z m-640 -116 c3 -2 -24 -1 -60 3 -68 7 -97 25
-142 88 -18 25 -10 22 89 -30 59 -31 110 -58 113 -61z m430 78 c0 -5 -4 -10
-10 -10 -5 0 -10 5 -10 10 0 6 5 10 10 10 6 0 10 -4 10 -10z m240 0 c0 -5 -4
-10 -10 -10 -5 0 -10 5 -10 10 0 6 5 10 10 10 6 0 10 -4 10 -10z m380 -95 c0
-2 -21 -20 -46 -40 -40 -30 -55 -35 -98 -35 -50 0 -106 19 -61 20 11 1 58 14
105 29 91 31 100 33 100 26z"/>
<path d="M1118 2368 l-67 -30 57 -29 c31 -15 61 -29 66 -29 7 -1 45 96 46 118
0 9 -45 -4 -102 -30z m52 -33 c0 -8 -6 -15 -14 -15 -17 0 -28 14 -19 24 12 12
33 6 33 -9z"/>
<path d="M556 1574 c-8 -20 -8 -128 0 -148 5 -12 16 -7 55 27 27 23 49 44 49
47 0 3 -22 24 -49 47 -39 34 -50 39 -55 27z m41 -91 c-16 -16 -17 -15 -17 17
0 32 1 33 17 17 16 -16 16 -18 0 -34z"/>
<path d="M600 1208 c0 -24 66 -163 105 -223 22 -33 44 -66 49 -74 7 -12 -2
-13 -58 -8 -36 3 -66 3 -66 -2 0 -4 27 -40 61 -80 l60 -72 -70 7 c-39 3 -71 5
-71 3 0 -3 34 -38 76 -79 l76 -75 -7 73 -6 73 72 -60 c40 -34 76 -61 80 -61 5
0 5 30 2 66 -5 56 -4 65 8 58 8 -5 40 -26 71 -46 31 -21 58 -38 60 -38 2 0 3
63 3 140 0 77 -2 140 -4 140 -2 0 -28 -8 -57 -17 -30 -9 -57 -13 -61 -10 -3 4
1 31 10 61 9 29 17 55 17 57 0 2 -60 4 -134 4 -74 0 -138 4 -143 8 -4 5 7 35
25 68 24 42 29 60 20 63 -7 2 -35 11 -62 20 -59 19 -56 19 -56 4z m75 -56 c0
-18 -20 -15 -23 4 -3 10 1 15 10 12 7 -3 13 -10 13 -16z m194 -190 c29 -34 75
-81 104 -103 29 -23 53 -45 55 -49 2 -6 -100 -40 -123 -40 -4 0 -5 32 -1 70
l6 70 -70 -6 c-38 -4 -70 -3 -70 1 0 22 34 125 40 123 4 -2 31 -31 59 -66z
m-109 28 c0 -11 -4 -20 -10 -20 -5 0 -10 2 -10 4 0 2 -3 11 -6 20 -4 11 -1 16
10 16 9 0 16 -8 16 -20z m141 5 c1 -17 -18 -17 -25 0 -4 11 -1 15 10 13 8 -2
15 -7 15 -13z m109 -111 c0 -14 -3 -14 -15 -4 -8 7 -15 14 -15 16 0 2 7 4 15
4 8 0 15 -7 15 -16z m-176 -54 c33 -33 58 -62 55 -64 -10 -9 -128 -16 -133 -7
-7 11 5 131 13 131 3 0 33 -27 65 -60z m-104 20 c0 -11 -4 -20 -10 -20 -5 0
-14 9 -20 20 -9 17 -8 20 10 20 13 0 20 -7 20 -20z m148 8 c-6 -18 -25 -20
-31 -3 -5 10 0 15 14 15 12 0 19 -5 17 -12z m132 -114 c0 -17 -22 -14 -28 4
-2 7 3 12 12 12 9 0 16 -7 16 -16z m-140 -34 c0 -18 -3 -19 -20 -8 -14 9 -16
14 -7 20 20 13 27 9 27 -12z m-150 -5 c0 -8 -4 -15 -9 -15 -5 0 -11 7 -15 15
-3 9 0 15 9 15 8 0 15 -7 15 -15z"/>
<path d="M530 1085 c0 -15 83 -165 88 -160 12 12 41 120 34 126 -4 3 -27 11
-51 18 -23 7 -49 15 -57 18 -8 3 -14 2 -14 -2z m74 -51 c17 -7 22 -34 6 -34
-5 0 -14 9 -20 20 -12 22 -10 23 14 14z"/>
</g>
</svg>
