<?xml version="1.0" encoding="utf-8"?>
<!-- Generator: Adobe Illustrator 24.3.0, SVG Export Plug-In . SVG Version: 6.00 Build 0)  -->
<svg version="1.1" id="focus-four-me-logo-4" xmlns="http://www.w3.org/2000/svg" xmlns:xlink="http://www.w3.org/1999/xlink"
	 x="0px" y="0px" viewBox="0 0 864 864" style="enable-background:new 0 0 864 864;" xml:space="preserve">
<style type="text/css">
	.st0{fill:#DD1010;}
</style>
<g id="focus-four-me-logo-4-parts">
	<path id="focus-word" d="M109.6,388.5c0.1,0.4,0.1,0.8,0.1,1.2c0,0.5,0,0.9-0.1,1.2c-0.1,0.3-0.1,0.5-0.2,0.7
		c-0.1,0.2-0.2,0.3-0.3,0.4c-0.1,0.1-0.3,0.1-0.5,0.1c-0.3,0-0.6-0.1-1-0.3c-0.4-0.2-0.9-0.4-1.5-0.6s-1.3-0.4-2.1-0.6
		s-1.8-0.3-2.9-0.3c-1.5,0-2.8,0.2-3.9,0.7c-1.1,0.5-1.9,1.2-2.6,2.3c-0.7,1-1.1,2.4-1.4,4s-0.4,3.6-0.4,5.9v5.6h12.1
		c0.3,0,0.5,0.1,0.7,0.2c0.2,0.1,0.3,0.3,0.5,0.5c0.1,0.2,0.3,0.5,0.3,0.8c0.1,0.3,0.1,0.7,0.1,1.2c0,0.9-0.1,1.5-0.4,2
		c-0.3,0.4-0.7,0.7-1.1,0.7H92.8v43.3c0,0.2-0.1,0.4-0.2,0.6c-0.1,0.2-0.3,0.3-0.5,0.4c-0.2,0.1-0.6,0.2-1,0.3
		c-0.4,0.1-1,0.1-1.6,0.1c-0.6,0-1.1,0-1.6-0.1c-0.4-0.1-0.8-0.2-1-0.3c-0.3-0.1-0.4-0.2-0.5-0.4c-0.1-0.2-0.1-0.4-0.1-0.6v-43.3
		h-7.4c-0.5,0-0.9-0.2-1.2-0.7s-0.4-1.1-0.4-2c0-0.5,0-0.8,0.1-1.2c0.1-0.3,0.2-0.6,0.3-0.8c0.1-0.2,0.3-0.4,0.5-0.5
		c0.2-0.1,0.4-0.2,0.7-0.2h7.4v-5.4c0-3.3,0.3-6.2,0.9-8.5c0.6-2.3,1.6-4.3,2.8-5.7c1.3-1.5,2.8-2.5,4.7-3.2c1.9-0.7,4.1-1,6.6-1
		c1.2,0,2.4,0.1,3.6,0.3c1.2,0.2,2,0.5,2.6,0.7c0.6,0.3,1,0.5,1.2,0.7c0.2,0.2,0.4,0.4,0.5,0.7C109.4,387.8,109.5,388.1,109.6,388.5
		z M170.3,422.7c1,3.1,1.5,6.6,1.5,10.5c0,3.8-0.5,7.3-1.5,10.4c-1,3.2-2.5,5.9-4.6,8.3c-2,2.3-4.5,4.2-7.5,5.5c-3,1.3-6.5,2-10.5,2
		c-3.9,0-7.2-0.6-10.1-1.8c-2.9-1.2-5.3-2.9-7.2-5c-1.9-2.2-3.4-4.8-4.4-8c-1-3.1-1.4-6.6-1.4-10.5c0-3.8,0.5-7.3,1.5-10.4
		c1-3.2,2.5-5.9,4.5-8.3c2-2.3,4.5-4.1,7.5-5.4c3-1.3,6.5-1.9,10.6-1.9c3.9,0,7.2,0.6,10.1,1.7c2.9,1.2,5.3,2.8,7.2,5
		C167.9,417,169.3,419.6,170.3,422.7z M164.9,433.8c0-2.7-0.3-5.3-0.8-7.7c-0.5-2.4-1.5-4.6-2.7-6.5c-1.3-1.9-3-3.4-5.1-4.5
		c-2.1-1.1-4.8-1.7-8-1.7c-2.9,0-5.5,0.5-7.6,1.5c-2.1,1-3.9,2.4-5.3,4.2s-2.4,3.9-3,6.4c-0.7,2.4-1,5.1-1,7.9
		c0,2.7,0.3,5.3,0.8,7.8c0.5,2.5,1.5,4.6,2.7,6.5c1.3,1.9,3,3.3,5.1,4.4c2.1,1.1,4.8,1.6,8,1.6c2.9,0,5.5-0.5,7.6-1.5
		c2.1-1,3.9-2.4,5.3-4.2c1.4-1.8,2.4-3.9,3-6.3C164.6,439.3,164.9,436.7,164.9,433.8z M233.9,448.2c-0.1-0.3-0.2-0.5-0.4-0.6
		c-0.2-0.1-0.4-0.2-0.6-0.2c-0.4,0-1,0.3-1.8,1c-0.8,0.7-1.8,1.4-3.1,2.2c-1.2,0.8-2.7,1.5-4.4,2.2c-1.7,0.7-3.6,1-5.8,1
		c-2.3,0-4.4-0.4-6.3-1.2s-3.4-2.1-4.7-3.7c-1.3-1.7-2.3-3.7-3-6.2c-0.7-2.5-1-5.4-1-8.7c0-6.6,1.3-11.7,3.8-15.2
		c2.6-3.5,6.2-5.2,10.9-5.2c2.3,0,4.3,0.3,5.9,0.9c1.7,0.6,3.1,1.3,4.2,2.1c1.2,0.8,2.1,1.4,2.9,2.1c0.7,0.6,1.4,0.9,1.9,0.9
		c0.4,0,0.7-0.2,1-0.6c0.3-0.4,0.5-1.1,0.5-2.1c0-0.5,0-0.8-0.1-1.2c0-0.3-0.1-0.6-0.2-0.9c-0.1-0.3-0.2-0.5-0.4-0.8
		c-0.2-0.2-0.5-0.6-0.9-1c-0.5-0.4-1.2-1-2.2-1.6c-1-0.6-2.1-1.2-3.4-1.7c-1.3-0.5-2.6-0.9-4.1-1.2c-1.5-0.3-3.1-0.4-4.7-0.4
		c-3.1,0-5.9,0.5-8.6,1.5c-2.7,1-5,2.5-7,4.6c-2,2.1-3.6,4.8-4.7,8.1s-1.7,7.2-1.7,11.9c0,4.1,0.5,7.7,1.4,10.8
		c0.9,3.1,2.3,5.8,4.1,7.9c1.8,2.2,4,3.8,6.6,4.9c2.6,1.1,5.7,1.7,9.1,1.7c1.7,0,3.4-0.2,5-0.5c1.6-0.3,3.1-0.8,4.5-1.3
		c1.4-0.5,2.6-1.1,3.7-1.8c1.1-0.7,1.9-1.3,2.4-1.7c0.5-0.5,0.8-0.8,0.9-1c0.1-0.2,0.2-0.4,0.3-0.7c0.1-0.2,0.1-0.5,0.2-0.9
		c0-0.3,0.1-0.7,0.1-1.1c0-0.5,0-0.9-0.1-1.3C234.1,448.8,234,448.5,233.9,448.2z M299.7,409c-0.2-0.1-0.6-0.2-1-0.3
		c-0.4-0.1-0.9-0.1-1.6-0.1c-0.7,0-1.2,0-1.6,0.1c-0.4,0.1-0.8,0.1-1,0.3c-0.3,0.1-0.4,0.3-0.5,0.4c-0.1,0.2-0.1,0.4-0.1,0.6V444
		c-2.8,3.3-5.4,5.8-7.9,7.6c-2.5,1.7-5,2.6-7.5,2.6c-2,0-3.7-0.4-5.2-1.1c-1.5-0.7-2.7-1.7-3.6-3c-0.9-1.3-1.7-2.9-2.1-4.7
		c-0.5-1.9-0.7-4.3-0.7-7.2V410c0-0.2-0.1-0.4-0.2-0.6c-0.1-0.2-0.3-0.3-0.5-0.4c-0.2-0.1-0.6-0.2-1-0.3c-0.4-0.1-1-0.1-1.6-0.1
		c-0.6,0-1.1,0-1.6,0.1c-0.4,0.1-0.8,0.1-1,0.3c-0.3,0.1-0.4,0.3-0.5,0.4c-0.1,0.2-0.1,0.4-0.1,0.6v28.7c0,3.4,0.3,6.2,0.9,8.6
		s1.6,4.5,2.9,6.3c1.4,1.8,3.2,3.2,5.4,4.3c2.2,1,4.9,1.6,8.2,1.6c2.7,0,5.4-0.7,8.1-2c2.7-1.4,5.5-3.6,8.3-6.6v6.7
		c0,0.2,0,0.4,0.1,0.6c0.1,0.2,0.2,0.3,0.5,0.4c0.2,0.1,0.5,0.2,0.9,0.3c0.4,0.1,0.9,0.1,1.6,0.1c0.6,0,1.1,0,1.5-0.1
		c0.4-0.1,0.7-0.2,1-0.3c0.3-0.1,0.4-0.2,0.5-0.4c0.1-0.2,0.1-0.4,0.1-0.6V410c0-0.2-0.1-0.4-0.2-0.6
		C300.1,409.2,300,409.1,299.7,409z M359.9,439.7c-0.7-1.4-1.7-2.6-2.9-3.6c-1.2-1-2.6-1.9-4.1-2.6c-1.5-0.7-3.1-1.4-4.7-2
		c-1.6-0.6-3.1-1.2-4.7-1.8c-1.5-0.6-2.9-1.3-4.1-2c-1.2-0.8-2.2-1.7-2.9-2.7s-1.1-2.3-1.1-3.9c0-1.1,0.2-2.2,0.6-3.1
		c0.4-0.9,1-1.8,1.9-2.5c0.8-0.7,1.9-1.2,3.2-1.6c1.3-0.4,2.8-0.6,4.5-0.6c1.7,0,3.2,0.2,4.5,0.6c1.3,0.4,2.4,0.8,3.4,1.3
		c0.9,0.5,1.7,0.9,2.3,1.3c0.6,0.4,1,0.6,1.3,0.6c0.2,0,0.4-0.1,0.6-0.2c0.2-0.1,0.3-0.3,0.4-0.6c0.1-0.2,0.2-0.5,0.2-0.9
		c0.1-0.3,0.1-0.7,0.1-1.1s0-0.8-0.1-1.1c0-0.3-0.1-0.6-0.1-0.8s-0.1-0.4-0.3-0.6c-0.1-0.2-0.4-0.4-0.8-0.7c-0.4-0.3-0.9-0.6-1.7-1
		c-0.7-0.4-1.6-0.7-2.6-1c-1-0.3-2.1-0.6-3.3-0.8c-1.2-0.2-2.4-0.3-3.7-0.3c-2.9,0-5.4,0.4-7.5,1.2c-2.1,0.8-3.9,1.8-5.2,3
		s-2.4,2.7-3,4.3c-0.7,1.6-1,3.2-1,4.9c0,2.1,0.4,3.8,1.1,5.3c0.7,1.5,1.7,2.7,2.9,3.8c1.2,1,2.5,1.9,4,2.7s3.1,1.4,4.6,2
		c1.6,0.6,3.1,1.2,4.6,1.8s2.9,1.2,4,2s2.1,1.6,2.9,2.6c0.7,1,1.1,2.3,1.1,3.7c0,1.5-0.3,2.8-0.8,3.9c-0.6,1.1-1.4,2-2.4,2.7
		c-1,0.7-2.2,1.2-3.6,1.6s-2.9,0.5-4.6,0.5c-2.1,0-3.9-0.2-5.5-0.7s-2.9-1-4.1-1.6s-2.1-1.1-2.9-1.6c-0.8-0.5-1.3-0.7-1.7-0.7
		c-0.2,0-0.4,0.1-0.6,0.2s-0.3,0.3-0.4,0.6c-0.1,0.2-0.2,0.5-0.3,0.9c-0.1,0.4-0.1,0.8-0.1,1.2c0,0.9,0.1,1.6,0.3,2.1
		c0.2,0.5,0.5,1,0.9,1.3c0.4,0.4,1,0.8,1.9,1.2c0.9,0.5,1.9,0.9,3.1,1.3c1.2,0.4,2.6,0.7,4.1,1c1.5,0.3,3.1,0.4,4.9,0.4
		c2.7,0,5.2-0.3,7.5-1c2.3-0.7,4.2-1.6,5.8-2.9c1.6-1.3,2.9-2.8,3.7-4.6c0.9-1.8,1.3-3.8,1.3-6.1C361,442.8,360.6,441.1,359.9,439.7
		z"/>
	<path id="four-word" class="st0" d="M429.4,388.5c0.1,0.4,0.1,0.8,0.1,1.2c0,0.5,0,0.9-0.1,1.2s-0.1,0.5-0.2,0.7
		c-0.1,0.2-0.2,0.3-0.3,0.4c-0.1,0.1-0.3,0.1-0.5,0.1c-0.3,0-0.6-0.1-1-0.3c-0.4-0.2-0.9-0.4-1.5-0.6c-0.6-0.2-1.3-0.4-2.1-0.6
		s-1.8-0.3-2.9-0.3c-1.5,0-2.8,0.2-3.9,0.7c-1.1,0.5-1.9,1.2-2.6,2.3c-0.7,1-1.1,2.4-1.4,4s-0.4,3.6-0.4,5.9v5.6h12.1
		c0.3,0,0.5,0.1,0.7,0.2c0.2,0.1,0.3,0.3,0.5,0.5s0.3,0.5,0.3,0.8c0.1,0.3,0.1,0.7,0.1,1.2c0,0.9-0.1,1.5-0.4,2s-0.7,0.7-1.1,0.7
		h-12.1v43.3c0,0.2-0.1,0.4-0.2,0.6c-0.1,0.2-0.3,0.3-0.5,0.4c-0.2,0.1-0.6,0.2-1,0.3c-0.4,0.1-1,0.1-1.6,0.1c-0.6,0-1.1,0-1.6-0.1
		c-0.4-0.1-0.8-0.2-1-0.3c-0.3-0.1-0.4-0.2-0.5-0.4c-0.1-0.2-0.1-0.4-0.1-0.6v-43.3h-7.4c-0.5,0-0.9-0.2-1.2-0.7
		c-0.3-0.4-0.4-1.1-0.4-2c0-0.5,0-0.8,0.1-1.2c0.1-0.3,0.2-0.6,0.3-0.8s0.3-0.4,0.5-0.5c0.2-0.1,0.4-0.2,0.7-0.2h7.4v-5.4
		c0-3.3,0.3-6.2,0.9-8.5c0.6-2.3,1.6-4.3,2.8-5.7c1.3-1.5,2.8-2.5,4.7-3.2c1.9-0.7,4.1-1,6.6-1c1.2,0,2.4,0.1,3.6,0.3
		c1.2,0.2,2,0.5,2.6,0.7c0.6,0.3,1,0.5,1.2,0.7c0.2,0.2,0.4,0.4,0.5,0.7C429.3,387.8,429.4,388.1,429.4,388.5z M490.1,422.7
		c1,3.1,1.5,6.6,1.5,10.5c0,3.8-0.5,7.3-1.5,10.4c-1,3.2-2.5,5.9-4.6,8.3c-2,2.3-4.5,4.2-7.5,5.5c-3,1.3-6.5,2-10.5,2
		c-3.9,0-7.2-0.6-10.1-1.8c-2.9-1.2-5.3-2.9-7.2-5c-1.9-2.2-3.4-4.8-4.4-8c-1-3.1-1.4-6.6-1.4-10.5c0-3.8,0.5-7.3,1.5-10.4
		c1-3.2,2.5-5.9,4.5-8.3c2-2.3,4.5-4.1,7.5-5.4c3-1.3,6.5-1.9,10.6-1.9c3.9,0,7.2,0.6,10.1,1.7c2.9,1.2,5.3,2.8,7.2,5
		C487.7,417,489.2,419.6,490.1,422.7z M484.7,433.8c0-2.7-0.3-5.3-0.8-7.7c-0.5-2.4-1.5-4.6-2.7-6.5c-1.3-1.9-3-3.4-5.1-4.5
		c-2.1-1.1-4.8-1.7-8-1.7c-2.9,0-5.5,0.5-7.6,1.5c-2.1,1-3.9,2.4-5.3,4.2c-1.4,1.8-2.4,3.9-3,6.4c-0.7,2.4-1,5.1-1,7.9
		c0,2.7,0.3,5.3,0.8,7.8c0.5,2.5,1.5,4.6,2.7,6.5c1.3,1.9,3,3.3,5.1,4.4c2.1,1.1,4.8,1.6,8,1.6c2.9,0,5.5-0.5,7.6-1.5
		c2.1-1,3.9-2.4,5.3-4.2s2.4-3.9,3-6.3C484.4,439.3,484.7,436.7,484.7,433.8z M558.7,409c-0.2-0.1-0.6-0.2-1-0.3
		c-0.4-0.1-0.9-0.1-1.6-0.1c-0.7,0-1.2,0-1.6,0.1s-0.8,0.1-1,0.3c-0.3,0.1-0.4,0.3-0.5,0.4c-0.1,0.2-0.1,0.4-0.1,0.6V444
		c-2.8,3.3-5.4,5.8-7.9,7.6c-2.5,1.7-5,2.6-7.5,2.6c-2,0-3.7-0.4-5.2-1.1c-1.5-0.7-2.7-1.7-3.6-3c-0.9-1.3-1.7-2.9-2.1-4.7
		c-0.5-1.9-0.7-4.3-0.7-7.2V410c0-0.2-0.1-0.4-0.2-0.6c-0.1-0.2-0.3-0.3-0.5-0.4s-0.6-0.2-1-0.3c-0.4-0.1-1-0.1-1.6-0.1
		c-0.6,0-1.1,0-1.6,0.1c-0.4,0.1-0.8,0.1-1,0.3c-0.3,0.1-0.4,0.3-0.5,0.4c-0.1,0.2-0.1,0.4-0.1,0.6v28.7c0,3.4,0.3,6.2,0.9,8.6
		s1.6,4.5,2.9,6.3s3.2,3.2,5.4,4.3c2.2,1,4.9,1.6,8.2,1.6c2.7,0,5.4-0.7,8.1-2c2.7-1.4,5.5-3.6,8.3-6.6v6.7c0,0.2,0,0.4,0.1,0.6
		c0.1,0.2,0.2,0.3,0.5,0.4c0.2,0.1,0.5,0.2,0.9,0.3c0.4,0.1,0.9,0.1,1.6,0.1c0.6,0,1.1,0,1.5-0.1c0.4-0.1,0.7-0.2,1-0.3
		c0.3-0.1,0.4-0.2,0.5-0.4c0.1-0.2,0.1-0.4,0.1-0.6V410c0-0.2-0.1-0.4-0.2-0.6C559.1,409.2,558.9,409.1,558.7,409z M618.2,410.3
		c-0.1-0.2-0.1-0.3-0.2-0.5c-0.1-0.1-0.2-0.3-0.4-0.4c-0.2-0.2-0.6-0.3-1.2-0.5s-1.2-0.4-1.9-0.5c-0.7-0.1-1.4-0.2-2-0.3
		c-0.6-0.1-1.2-0.1-1.6-0.1c-1.1,0-2.2,0.1-3.2,0.4c-1,0.2-2.1,0.7-3.2,1.4c-1.1,0.7-2.2,1.6-3.4,2.9c-1.2,1.2-2.5,2.8-3.9,4.8V410
		c0-0.2,0-0.4-0.1-0.6c-0.1-0.2-0.2-0.3-0.5-0.4c-0.2-0.1-0.5-0.2-0.9-0.3s-0.9-0.1-1.5-0.1c-0.6,0-1.1,0-1.5,0.1s-0.7,0.1-1,0.3
		c-0.3,0.1-0.4,0.3-0.5,0.4c-0.1,0.2-0.1,0.4-0.1,0.6v47.5c0,0.2,0,0.4,0.1,0.6c0.1,0.2,0.3,0.3,0.5,0.4c0.3,0.1,0.6,0.2,1,0.3
		c0.4,0.1,0.9,0.1,1.6,0.1c0.7,0,1.2,0,1.6-0.1c0.4-0.1,0.7-0.2,1-0.3c0.2-0.1,0.4-0.2,0.5-0.4c0.1-0.2,0.2-0.4,0.2-0.6v-32.1
		c1.4-2.1,2.6-3.9,3.8-5.4c1.1-1.5,2.2-2.6,3.3-3.5c1-0.9,2-1.5,3-1.9c0.9-0.4,1.9-0.6,2.9-0.6c0.8,0,1.6,0.1,2.3,0.2
		c0.7,0.2,1.3,0.3,1.9,0.5c0.6,0.2,1.1,0.3,1.5,0.5c0.4,0.2,0.8,0.2,1.1,0.2c0.2,0,0.4-0.1,0.5-0.2c0.1-0.1,0.2-0.3,0.3-0.5
		c0.1-0.2,0.2-0.5,0.2-0.9c0-0.4,0.1-0.8,0.1-1.3c0-0.5,0-1,0-1.3C618.3,410.8,618.2,410.5,618.2,410.3z M639,449.8
		c-0.7-0.6-1.9-1-3.6-1c-1.8,0-3,0.3-3.7,1c-0.7,0.7-1,2-1,4.1c0,2,0.3,3.4,1,4c0.7,0.6,1.9,1,3.6,1c1.8,0,3-0.3,3.7-1s1-2,1-4.1
		C640,451.8,639.7,450.4,639,449.8z"/>
	<path id="me-word" d="M724.5,424.7c0-0.1,0.4-0.5,0.8-0.8c0.4-0.3,0.5-0.4,0.6-0.4l-0.4,0.6c-0.5,0.5-0.8,0.8-0.9,0.8
		C724.6,424.9,724.5,424.9,724.5,424.7z M699,427.8c-0.1,0-0.1,0.3-0.1,0.7s0.1,0.7,0.1,0.7s0.1-0.1,0.1-0.1l0.1-0.6l-0.1-0.6
		L699,427.8z M740.6,421.7c0,2.9-0.7,6.9-2.1,11.7c-4.5,15.9-6.2,23.4-6.2,27c0,0.7,0.1,1.3,0.2,1.8c0.4,1.2,0.7,1.4,2.4,1.5
		c1.7,0.1,2.4,0.9,2.4,1.7c0,1.2-1.4,2.5-3.8,2.5h-0.1c-0.5-0.1-2.8-0.9-5-1.9c-4.7-2.3-6.2-4-7.4-8.6c-0.4-1.7-0.7-3.8-0.7-6.1
		c0-4.1,0.6-8.7,1.8-12.9c0.8-2.8,1.6-5.4,1.8-5.8c0.1-0.3,0.2-0.5,0.2-0.6c0-0.1-0.1-0.1-0.1-0.1c-0.4,0-2.1,1.7-5.8,5.6
		c-7.6,8-12.6,12.8-14.4,13.7c-0.8,0.4-1.6,0.6-2.4,0.6c-1.2,0-2.6-0.5-3.6-1.4c-0.7-0.6-1.5-1.1-1.9-1.1c-1.2,0-3.5-1.5-4.3-2.9
		c-0.4-0.6-0.6-1.7-0.6-3.1c0-2.1,0.5-4.9,1.4-8c0.5-1.7,0.8-3.1,0.8-3.5v-0.1l-0.1-0.1c-1.1,0-8,8.6-15.2,18.9
		c-6.6,9.4-7.7,10.7-9.1,11l-0.4,0.1c-1.2,0-2.7-1.2-2.7-2.2c0-0.2-0.2-0.3-0.7-0.3l-1.1,0.1c-1.4,0-3.4-1-3.8-1.9
		c-0.1-0.2-0.1-0.4-0.1-0.7c0-1.6,1.5-5.1,5.5-13.4l5.8-12.2c2.1-4.9,5-9.9,5.7-9.9h0.1c0.3,0,0.4,0,0.4,0.2c0,0.3-0.4,1.3-1.6,3.7
		c-1,2-2.6,5.8-3.7,8.4c-1.1,2.6-3.6,8.1-5.5,12.1c-1.6,3.5-2.7,6.2-2.7,6.6h0.1c0.7-0.7,5.6-11.1,9.3-19.6c3.2-7.4,4.3-9.6,4.8-9.9
		c0.2-0.1,0.2-0.1,0.4-0.1c0.1,0,0.1,0,0.1,0.1c0,0.3-0.4,1.1-1.2,3.1c-0.7,1.5-2.5,5.8-4,9.5c-1.5,3.7-3.3,7.8-4,9.4
		c-0.7,1.4-1,2.1-1,2.2c0,0.1,0,0.1,0.1,0.1s0.2-0.2,0.6-0.5c1-0.9,3.9-6.2,5.1-9.5c0.3-1,0.9-2.4,1.3-3.2c0.4-0.8,1.2-2.9,1.9-4.7
		c0.7-1.8,1.5-3.4,1.8-3.7c0.4-0.3,0.8-1,1.2-1.8c0.3-0.7,0.5-1,0.8-1c0.2,0,0.3,0.1,0.5,0.2c0.5,0.3,0.7,1.1,0.7,2.1
		c0,0.9-0.2,2.2-0.7,3.6c-0.4,1.3-0.7,2.5-0.7,2.9l0.1,0.1c0.3,0,2.4-1.8,4.8-4.1c5.1-4.9,8-7.1,9.4-7.1c0.7,0,1.1,0.5,1.2,1.3
		c0.2,0.7,0.7,0.9,2.5,0.9c3.4,0.1,4.8,1.5,4.8,5.8c0,1.5-0.2,3.5-0.5,5.8c-0.2,1.5-0.4,2.9-0.4,3.4c0,0.2,0,0.3,0.1,0.3
		c0.2,0,2.7-2.1,5.6-4.8c8.5-7.7,21.6-18.7,22.8-19.2h0.1c0.2,0,0.5,0.3,0.7,0.8c0.1,0.5,0.5,1,0.7,1c0.2,0,0.2,0.1,0.2,0.3
		l-0.2,0.8c0,0.1,0.1,0.2,0.1,0.2c0.2,0,0.5-0.5,0.8-1c0.2-0.5,0.3-0.7,0.4-0.7c0.1,0,0.1,0.3,0.1,1c0.1,0.9,0.1,1.1,0.7,1.1
		l1.2-0.2c0.5-0.1,1.1-0.1,1.6-0.1c0.5,0,1,0,1.2,0.1C739.9,417.3,740.6,419,740.6,421.7z M686,429.3c0,0.1,0.2,0.2,0.4,0.2
		s0.5-0.3,0.7-0.7l0.1-0.5c0-0.1,0-0.1-0.1-0.1c-0.1,0-0.2,0.1-0.5,0.3C686.3,428.9,686,429.1,686,429.3z M694.6,424.5
		c0-0.2-0.1-0.3-0.2-0.3c-0.7,0-2.6,1.7-6.6,5.6c-7.2,7.1-11.7,12.9-11.7,15c0,0.1,0,0.1,0.1,0.1c0.3,0,1.6-1.4,3.1-3.3
		c1.7-2.2,4.3-5.4,5.8-7c1.5-1.6,4.2-4.4,6.1-6.1C693,426.6,694.6,424.9,694.6,424.5z M693.9,441.6c0.4-1.8,1.2-5.4,1.8-8.2
		c0.7-2.5,1.1-4.6,1.1-5.1v-0.1h-0.1c-0.7,0-3.5,11-3.5,14.3v0.2c0,0.9,0,1.3,0.1,1.3C693.4,444.1,693.5,443.3,693.9,441.6z
		 M696.9,442.2l-0.1-0.5l-0.1-0.2c-0.1,0-0.1,0.1-0.2,0.5c0,0.4,0.1,0.7,0.2,0.7l0.1-0.1C696.8,442.5,696.9,442.4,696.9,442.2z
		 M697.4,440l-0.1-0.6l-0.1-0.2c-0.1,0-0.1,0.3-0.1,0.7c0,0.5,0.1,0.7,0.1,0.7s0.1-0.1,0.1-0.1L697.4,440z M698.8,433.5l-0.1-0.5
		l-0.1-0.2c-0.1,0-0.1,0.1-0.2,0.5c0,0.4,0.1,0.7,0.2,0.7l0.1-0.1C698.7,433.8,698.8,433.7,698.8,433.5z M699.7,427.2
		c0-0.6-0.2-0.9-0.5-0.9H699c-0.6,0.1-1.2,2-2.6,8.4c-1.2,5.7-1.8,7.8-1.8,8.6c0,0.2,0.1,0.3,0.2,0.3l0.4-0.1
		c0.3-0.1,0.9-1.6,1.3-3.4c0.4-1.6,0.8-2.6,1-2.6l0.2,0.2l0.1-0.3l-0.2-2.1c0-0.2,0.1-0.2,0.1-0.2s0.1,0.1,0.3,0.4
		c0.1,0.3,0.2,0.5,0.3,0.5l0.1-0.2l-0.1-1l-0.1-1c0-0.7,0.1-1.4,0.2-1.9c0.2-0.6,0.4-0.9,0.4-0.9s0.1,0.2,0.1,0.5l0.1,0.2
		c0.2,0,0.8-2.7,0.8-4.3V427.2z M707.4,441.8c-0.1,0-0.2,0.1-0.6,0.4c-0.5,0.3-0.8,0.7-0.8,0.8s0.1,0.2,0.1,0.2
		c0.1,0,0.4-0.3,0.9-0.8L707.4,441.8z M726.8,422.9c0.4-0.6,0.5-1,0.5-1.1l-0.1-0.1l-0.7,0.5c-1.5,1.1-2.7,2.3-2.7,2.8v0.1
		c0,0.1-0.1,0.2-0.2,0.2h-0.1c-0.5,0-3.9,2.6-3.9,3c0,0.1,0.1,0.1,0.2,0.1l1.1-0.2h0.1l-0.4,0.3c-0.2,0.2-0.7,0.3-0.9,0.3l-0.3-0.1
		c-0.8,0-16.9,15.3-16.9,16.1c0.2,0,1.6-1.1,3.3-2.7c1.7-1.6,3.3-2.9,3.7-2.9l0.4,0.1c0.2,0,0.4-0.1,0.5-0.3
		c0.1-0.1,0.1-0.2,0.1-0.3v-0.1l-0.3,0.1c-0.2,0.1-0.4,0.2-0.5,0.2c-0.1,0-0.1,0-0.1-0.1c0-0.2,0.5-1,1.4-1.8
		c0.7-0.6,1.2-0.9,1.6-0.9l0.2,0.1l0.1,0.1l-0.1-0.3l-0.2-0.4c0-0.1,0.1-0.1,0.2-0.1l0.8,0.2c0.1,0,0.2-0.1,0.2-0.1l-0.1-0.2
		c0-0.6,2.6-3.5,3.3-3.5l0.1,0.1c0,0.1-0.1,0.3-0.4,0.5c-0.3,0.2-0.5,0.3-0.5,0.3l0.1,0.1l0.4-0.1c0.4-0.1,0.7-0.5,0.7-0.9
		c0-0.3,0.2-0.5,0.4-0.5h0.2c0.3,0,0.6-0.3,0.8-0.6c0.1-0.1,0.1-0.2,0.1-0.3c0-0.1,0-0.1-0.1-0.1l-0.5,0.2l-0.1-0.1l0.1-0.3
		c0.2-0.3,0.5-0.5,0.7-0.5l0.2,0.1C720.3,429.6,725.7,424.6,726.8,422.9z M723.8,453.4c0.1-6.7,0.7-10,4.5-21.8
		c0.7-2.2,1.2-4.2,1.2-4.6v-0.1h-0.1c-0.1,0-0.3,0.3-0.5,1c-0.1,0.5-0.4,1-0.6,1l-0.2-0.1c-0.1,0-0.2,0.1-0.2,0.2l0.1,0.5
		c0.1,0.2,0.1,0.4,0.1,0.5c0,0.2,0,0.2-0.1,0.2l-0.2-0.1l-0.2-0.1c-0.1,0-0.1,0.1-0.1,0.2c0,0.1,0,0.4,0.1,0.7l0.1,0.7
		c0,0.2-0.1,0.3-0.2,0.3l-0.1-0.1l-0.2-0.1c-0.1,0-0.2,0.1-0.2,0.3c0,0.3,0,1.2-0.1,1.9c-0.1,0.7-0.1,1-0.2,1
		c-0.1,0-0.2-0.1-0.4-0.3c-0.1-0.2-0.2-0.3-0.3-0.3v0.1c0,0.1,0,0.3,0.1,0.7l0.1,0.6c0,0.2,0,0.2-0.1,0.2l-0.3-0.1
		c-0.2-0.1-0.2-0.1-0.3-0.1h-0.1l0.1,0.2l0.1,0.3c0,0.7-0.4,2.6-1,4.7c-1.4,5.4-2.1,9.5-2.1,12.5l0.1,1.6c0.2,2.3,0.7,4.3,1,4.3
		L723.8,453.4z M727.3,459.2l-0.1-1l-0.1-0.2c-0.1,0-0.1,0.5-0.1,1.3c0,0.8,0.1,1.3,0.1,1.3l0.1-0.2L727.3,459.2z M727.3,453.7
		l-0.1-1.3l-0.1-0.3c-0.1,0-0.1,0.6-0.1,1.5s0.1,1.5,0.1,1.5l0.1-0.3L727.3,453.7z M728.2,447.2l-0.1-0.5l-0.1-0.2
		c-0.1,0-0.1,0.1-0.2,0.5c0,0.4,0.1,0.7,0.2,0.7l0.1-0.1C728.2,447.5,728.2,447.4,728.2,447.2z M728.7,453.1l-0.1-0.5l-0.1-0.2
		c-0.1,0-0.1,0.1-0.2,0.5c0,0.4,0.1,0.7,0.2,0.7l0.1-0.1C728.7,453.5,728.7,453.4,728.7,453.1z M730.1,459.5l-0.1-0.5l-0.1-0.2
		c-0.1,0-0.1,0.1-0.2,0.5c0,0.4,0.1,0.7,0.2,0.7l0.1-0.1C730.1,459.9,730.1,459.8,730.1,459.5z M731.1,448.6l-0.1-0.5l-0.1-0.2
		c-0.1,0-0.1,0.1-0.2,0.5c0,0.4,0.1,0.7,0.2,0.7l0.1-0.1C731,448.9,731.1,448.8,731.1,448.6z M731.6,435.3l-0.1-0.5l-0.1-0.2
		c-0.1,0-0.1,0.1-0.2,0.5c0,0.4,0.1,0.7,0.2,0.7l0.1-0.1C731.5,435.7,731.6,435.5,731.6,435.3z M733.9,423.3l-0.2-0.1
		c-1,0-3.3,6-6.4,16.6c-1.8,6.1-2.7,10.7-2.7,14.3c0,2.1,0.3,3.8,0.8,5.4c0.3,0.9,0.5,1.4,0.7,1.4c0.1,0,0.1-0.2,0.1-0.5
		c0-0.5-0.1-1.1-0.2-2.1c-0.1-0.7-0.1-1.4-0.1-2.2c0-5,1.8-12.6,5.9-25.7C733,426.7,733.9,423.6,733.9,423.3z M733.9,427.2
		c0-0.2-0.1-0.3-0.1-0.3c-0.1,0-0.2,0.2-0.3,0.5c-0.3,0.6-0.4,1.1-0.4,1.4c0,0.1,0,0.1,0.1,0.1s0.2-0.1,0.4-0.3
		C733.8,428.2,733.9,427.5,733.9,427.2z M735.4,433.5l-0.1-0.5l-0.1-0.2c-0.1,0-0.1,0.1-0.2,0.5c0,0.4,0.1,0.7,0.2,0.7l0.1-0.1
		C735.3,433.8,735.4,433.7,735.4,433.5z M738.7,421.7l-0.1-0.6l-0.1-0.2c-0.1,0-0.1,0.3-0.1,0.7c0,0.5,0.1,0.7,0.1,0.7
		c0.1,0,0.1-0.1,0.1-0.1L738.7,421.7z M800.5,447.3c0,0.4-0.1,1-0.3,1.7c-0.7,2.5-1.7,4.1-4.9,7.6c-5.6,6.1-14.4,10.1-21.7,10.1
		c-1.3,0-2.6-0.1-3.7-0.4c-3.7-0.8-10.6-4.2-12.6-6.2c-2.6-2.4-3.8-5.5-3.8-9.1c0-1.4,0.2-2.9,0.5-4.4c2.3-9.8,11.2-25.5,19.6-34.3
		c2.6-2.7,7.4-6.5,9.6-7.6c1.1-0.5,3-1,4.4-1.2l1.4-0.1c1.1,0,1.5,0.3,2.8,1.5c0.9,0.9,2.7,2,3.9,2.4c1.7,0.6,2.3,1,3.1,2.6
		c0.6,1.2,0.9,2.6,0.9,4.3c0,6.4-4.5,15.5-11.5,22.3c-4,3.8-7.5,5.7-10.7,5.7c-1.8,0-2.7-0.3-4.5-1.6c-1.2-0.9-2.4-1.6-2.6-1.6
		c-0.6,0-3.3,6.9-4.1,10.5c-0.4,1.9-0.6,3.4-0.6,4.6c0,2.6,0.4,2.9,1.3,5l2.8-0.3c6.7-0.7,12.6-3.5,19-8.8c3.5-2.8,5.1-4,5.6-4
		c0.1,0,0.2,0.1,0.2,0.2c0,0.2-0.2,0.6-0.5,0.7c-0.2,0.1-0.2,0.3-0.2,0.6l0.1,0.3c0.1,0.3,0.2,0.5,0.4,0.5c0.1,0,0.3-0.1,0.5-0.3
		l0.5-0.3c0.1,0,0.2,0.1,0.2,0.2c0,0.3-1.7,2.2-3.7,4.3c-1.5,1.5-2.5,2.7-2.5,2.9c0,0.1,0,0.1,0.1,0.1l0.2-0.1c0.8-0.6,1.7-1,1.9-1
		s2.1-1.8,4.3-4c2.4-2.5,3.7-3.5,4.2-3.5l0.2,0.1C800.3,446.7,800.5,446.9,800.5,447.3z M779,432.9L779,432.9
		c-0.2,0-1.1,0.4-2.1,1.1c-1.3,0.8-2.4,1.7-2.4,1.8l0.1,0.1C775,435.9,778.6,433.6,779,432.9L779,432.9z M793.3,414.5
		c-1.7,6.5-5.5,12.5-11.4,18.1c-1.2,1.1-2,1.9-2,2.2l0.1,0.1l0.2-0.1c0.7-0.3,2.4-1.8,4-3.1c4.7-4.3,8.4-9.9,9.7-14.6
		c0.3-1,0.7-1.7,0.8-1.7h0.1c0.1,0,0.1-0.4,0.1-1v-0.8c-0.1-1.1-0.4-2-0.5-2C794.3,411.5,793.7,412.9,793.3,414.5z M791.6,414.2
		c-0.8,2.6-2.3,5.4-4.9,9.4l-1.7,2.5v0.1c0.1,0,0.5-0.5,1.3-1.3c0.9-1,2.8-3.7,4-5.9c1.2-2.2,2.4-4.9,2.6-5.9l0.1-1
		c0-0.3-0.1-0.4-0.1-0.4C792.6,411.7,792.1,412.6,791.6,414.2z M781.5,420.1c-2.4,3-7.4,10.5-7.4,11.1c0,0.1,0.1,0.1,0.1,0.1
		c0.7,0,4.5-2.9,7-5.3c1.5-1.4,3.3-3.5,4.2-4.6c1.9-2.7,4.3-7.2,4.3-8.1v-0.1c0-0.1-0.1-0.1-0.1-0.1
		C788.6,413.2,783.8,417.2,781.5,420.1z M785,407.2c0,0.1,0.1,0.2,0.4,0.2c0.2,0,0.6-0.2,0.8-0.5l0.1-0.2c0-0.1-0.1-0.1-0.2-0.1
		l-0.4,0.1C785.2,406.9,785,407.1,785,407.2z M760.1,437.3c0.1,0.1,0.2,0.1,0.4,0.1c0.4,0,0.8-0.4,0.8-0.9c0-0.6,3.4-7.1,5.5-10.7
		c2.7-4.5,7.1-10,10.6-13.2c0.8-0.7,1.4-1.4,1.4-1.5l-0.1-0.1c-1.2,0-7.8,7.5-11.5,13C764.6,427.9,760.1,436.4,760.1,437.3
		L760.1,437.3z M758.5,443c0.7-1.9,1.3-3.8,1.5-4.2l0.1-0.5c0-0.2-0.1-0.3-0.2-0.3c-0.5,0-1.8,2.5-1.8,3.4l0.1,0.4
		c0,0.1-0.1,0.3-0.3,0.3c-0.3,0.1-0.6,0.8-0.7,1.5c-0.1,0.7-0.4,2.3-0.7,3.4c-0.2,1-0.5,2.8-0.5,4.3v0.5c0,1.3,0,1.9,0.1,1.9
		c0.1,0,0.2-1,0.6-3.3C757.1,448.3,757.8,444.9,758.5,443z M760.4,449.7c0-0.6-0.1-0.9-0.1-0.9l-0.1,0.2c-0.3,0.7-0.5,3.4-0.5,5.1
		c0,0.7,0.1,1.3,0.1,1.3h0.1c0.1-0.1,0.2-1.8,0.4-3.8L760.4,449.7z M764.6,435.7c1.7-3.3,7.2-12.3,9.7-15.5
		c2.5-3.3,7.7-8.5,10.3-10.3c1.1-0.8,1.8-1.2,2.1-1.2c0.1,0,0.1,0.1,0.1,0.1c0,0.1-0.1,0.3-0.4,0.6c-0.2,0.2-0.3,0.4-0.3,0.5v0.1
		c0.1,0,0.5-0.2,1.1-0.6c1.1-0.7,1.7-1,1.7-1.1l-0.1-0.1l-0.8,0.2c-0.3,0.1-0.5,0.1-0.7,0.1c-0.1,0-0.2,0-0.2-0.1l0.1-0.3
		c0-0.1,0-0.1-0.1-0.1c-0.5,0-2.6,1.1-4.6,2.5c-6.4,4.5-12.8,12.7-18.4,23.5c-3.3,6.3-6.1,14-6.1,16.8c0,1.8,0.6,4.5,1.1,4.5
		c0.1,0,0.1-1.2,0.2-2.6C759.2,448.5,760.9,443.5,764.6,435.7z M782.9,457.7l-0.1-0.1c-0.3,0-0.9,0.3-1.4,0.7
		c-0.4,0.2-0.5,0.5-0.5,0.6c0,0.1,0,0.1,0.1,0.1c0.2,0,0.9-0.3,1.4-0.6C782.6,458.1,782.9,457.8,782.9,457.7z M785.1,456.3l-0.1-0.1
		c-0.2,0-0.5,0.2-0.9,0.6c-0.4,0.4-0.6,0.6-0.6,0.6c0.1,0,0.4-0.1,0.8-0.4C784.8,456.9,785.1,456.6,785.1,456.3L785.1,456.3z
		 M787.2,455.2c0-0.1-0.1-0.1-0.2-0.1l-0.4,0.1c-0.5,0.2-0.7,0.3-0.7,0.5s0.1,0.2,0.4,0.2c0.2,0,0.6-0.2,0.8-0.5L787.2,455.2z"/>
</g>
</svg>
