<?xml version="1.0" encoding="utf-8"?>
<!-- Generator: Adobe Illustrator 24.3.0, SVG Export Plug-In . SVG Version: 6.00 Build 0)  -->
<svg version="1.1" id="focus-four-me-logo-9" xmlns="http://www.w3.org/2000/svg" xmlns:xlink="http://www.w3.org/1999/xlink"
	 x="0px" y="0px" viewBox="0 0 1500 550" style="enable-background:new 0 0 1500 550;" xml:space="preserve">
<style type="text/css">
	.st0{fill:#FFFFFF;}
</style>
<g id="focus-four-me-logo-9-parts">
	<g id="product-link-logo-parts">
		<path id="head-body-part" class="st0" d="M314,387.4c-0.4-3-0.8-6.1-1.2-9.1c-0.3-2.1-0.6-4.2-0.9-6.4c-0.4-2.5-0.9-5-1.4-7.5
			c-1.1-6-2.3-12-3.4-18.1c-0.7-4.1-1.4-8.2-2.2-12.3c-0.8-4.4-1.5-8.9-2.3-13.3c-1.3-6.7-2.6-13.5-4-20.2
			c-1.6-7.2-4.6-13.9-8.3-20.2c-2.8-4.7-5.8-9.3-9.5-13.4c-1.9-2.2-4.1-4.2-6.2-6.3c-1.6-1.6-3.2-3.2-5-4.7
			c-1.1-0.9-2.3-1.7-3.5-2.5c-3-2-5.9-4.1-8.9-6c-4.1-2.6-8.5-4.5-13.1-6c-1.1-0.4-2.1-0.9-3-1.8c0.2-0.4,0.4-0.8,0.7-1.2
			c3.4-5.1,6.9-10.2,10.2-15.3c2.3-3.6,4.7-7.2,6.7-11c3-5.9,5-12.2,6.5-18.7c0.9-3.8,1.5-7.7,1.8-11.7c0.3-4.2,0.2-8.4-0.4-12.6
			c-0.1-0.9-0.1-1.9-0.1-2.9c-0.5-5.2-1.4-10.3-3.4-15.2c-0.6-1.6-1-3.3-1.7-4.8c-2.4-5.9-5.6-11.4-9.8-16.2
			c-1.5-1.7-2.8-3.6-4.5-5.3c-7.3-7.4-15.8-12.9-25.4-16.6c-6.4-2.5-13-4-19.9-4.4c-1.4-0.1-2.7-0.2-4.1-0.3c-0.7,0-1.5,0.3-2.1-0.2
			h-5.8c-0.9,0.2-1.7,0.5-2.6,0.5c-6.4,0.4-12.6,1.8-18.4,4.4c-2.5,1.1-5,2-7.5,3.1c-2.6,1-4.9,2.6-7.2,4.1
			c-0.7,0.5-1.4,0.8-2.1,1.3c-0.3,0.2-0.5,0.3-0.8,0.5c-3.3,2.9-6.7,5.7-9.8,8.8c-2.2,2.3-4.1,4.9-6,7.5c-1.3,1.7-2.5,3.6-3.6,5.5
			c-1,1.8-1.9,3.7-2.8,5.7c-3.1,6.9-5,14.1-6.1,21.5c-0.7,4.6-0.7,9.3-0.5,13.9c0.5,10.6,3,20.7,7.5,30.4c2.7,5.7,5.9,11,9.6,16.2
			c3,4.2,6,8.4,9,12.6c0.1,0.1,0.1,0.2,0.2,0.5c-0.6,0.3-1.1,0.7-1.7,0.9c-3.4,1.5-6.8,3-10.2,4.6c-3.1,1.4-6,3.2-8.8,5.2
			c-2,1.4-4,2.7-5.9,4.2c-2.1,1.6-4.1,3.2-6,4.9c-3.7,3.4-7.2,6.9-10.3,10.9c-4,5.2-7.3,10.9-10.2,16.8c-3.3,6.8-5.2,14-6.5,21.4
			c-1.2,6.5-2.3,13.1-3.5,19.6c-0.5,2.7-1.2,5.4-1.7,8.1c-1,5.4-1.9,10.8-2.9,16.1c-0.6,3.6-1.2,7.2-1.9,10.9
			c-0.8,4.4-1.5,8.8-2.3,13.2c-0.5,2.7-1,5.4-1.5,8.1c-0.2,1.4-0.3,2.8-0.4,4.2c0,0.3-0.1,0.6-0.2,0.8l0.4,0.9l10.5-25.6l11.5-15.7
			c-0.1,0.1-0.2,0.1-0.3,0c-0.1,0,0,0-0.2-0.1c0-0.4-0.1-0.9,0-1.3c1.3-6.9,2.7-13.7,3.9-20.6c0.8-4.6,1.6-9.2,2.2-13.8
			c0.5-3.9,1.7-7.6,3.1-11.2c1.3-3.5,2.5-7.1,3.8-10.6c0.5-1.2,1.2-2.4,1.8-3.5c2.4-3.9,4.8-7.8,7.9-11.2c2.4-2.6,4.6-5.4,7.4-7.6
			c4.4-3.5,8.9-6.9,14-9.3c6.9-3.3,13.8-6.6,20.7-9.9c4.4-2.1,8.5-4.5,12.2-7.8c5.4-4.9,9.1-10.8,10.2-18.1
			c0.9-5.8,0.2-11.5-2.7-16.7c-2.2-3.9-4.6-7.8-6.9-11.7c-2-3.5-3.9-7.1-5-11c-0.3-1.3-0.5-2.7-0.7-4c-0.3-2.8-0.5-5.6-0.2-8.4
			c0.8-8.7,4.7-15.3,12.5-19.5c3.2-1.7,6.7-2.8,10.4-3.2c2.7-0.3,5.4-0.4,8,0.2c2.3,0.6,4.6,1.5,6.8,2.3c2.8,1,5.2,2.7,7.4,4.7
			c3.4,3.2,5.4,7.1,6.3,11.6c0.3,1.8,0.4,3.6,0.6,5.5c0.1,0.7,0.1,1.5,0.2,2.2c0.2,2.4-0.6,4.6-1.1,6.9c-0.3,1.5-0.7,2.9-1,4.3
			c-0.5,2.4-1.4,4.6-2.7,6.6c-1.6,2.5-3.2,5-4.8,7.5c-1.9,3-3.7,6.1-4.9,9.4c-0.7,2-1.1,4.1-1.2,6.3c-0.1,2.6-0.2,5.1,0.2,7.7
			c0.5,3.5,2,6.6,4,9.5c0.7,1,1.4,2.1,2.1,3.2c0.3,0.4,0.6,0.8,1,1.2c3.2,3.1,6.4,6.3,10.2,8.6c2.6,1.6,5.3,3.1,8.1,4.4
			c3.6,1.6,7.3,2.9,10.9,4.5c3.8,1.7,7.5,3.6,11,6c2.7,1.9,5.4,3.7,8.1,5.6c0.2,0.1,0.4,0.3,0.5,0.4c6.2,5.9,12,12.2,16.3,19.7
			c3.5,6,5.7,12.5,7.2,19.2c0.9,4.1,1.9,8.3,2.8,12.4c0.5,2.5,0.9,5,1.3,7.5c1.2,7.2,2.5,14.4,3.7,21.6c0,0.1,0,0.3,0,0.5
			c0.3,0.5,0.4,0.7,1.1,1.5c0.3,0.3,0.3,0.4,0.9,1l2.1,2.5l12.3,19.9l2.2,5.2l3.1,8.6C314.2,387.8,314.1,387.6,314,387.4z
			 M229.6,229.2c-0.5,0.6-1,1.2-1.5,1.8c-0.7,0.8-1.6,0.9-2.2,0.2c-1.6-1.8-3.3-3.7-4.8-5.6c-0.5-0.7-0.7-1.8-0.9-2.7
			c-0.8-2.8-0.4-5.4,0.9-8c1.8-3.7,4-7.1,6.1-10.6c3.6-5.8,6.3-12,7.6-18.8c0.3-1.4,0.5-2.8,0.6-4.1c0.1-0.8-0.1-1.6-0.1-2.3
			c0-2.7,0.2-5.5-0.1-8.2c-0.2-2.2-0.7-4.3-1.1-6.5c-1.7-9.2-6.8-16.2-14.2-21.6c-5.4-4-11.6-6.1-18.1-7.3
			c-4.2-0.8-8.4-0.6-12.6,0.1c-1.9,0.3-3.8,0.5-5.7,0.9c-6.3,1.3-11.7,4.4-16.6,8.5c-2.4,2-4.5,4.1-6.1,6.8c-1,1.7-2,3.3-2.8,5.1
			c-0.8,1.6-1.2,3.4-1.9,5c-1.1,2.8-1.8,5.7-1.9,8.8c0,1.8-0.2,3.7-0.3,5.5c-0.1,8.7,2.2,16.7,6.3,24.3c2.8,5.1,5.7,10.1,8.6,15
			c0.6,1,0.8,2.1,0.9,3.2c0.3,4.9-1.7,8.7-5.3,11.9c-0.3,0.3-0.7,0.6-1,0.9c-0.9,0.7-1.2,0.7-2-0.2c-0.8-1-1.6-1.9-2.5-2.9
			c-0.7-0.8-1.4-1.6-2.1-2.3c-1.7-1.6-2.6-3.7-3.8-5.6c-2-3.3-4.1-6.5-6.1-9.8c-4.5-7.5-7.5-15.6-8.9-24.3c-0.3-2.1-0.5-4.3-0.6-6.4
			c-0.1-1.7-0.3-3.5-0.2-5.2c0.3-7.1,1.3-14,3.9-20.7c0.6-1.5,1-3.2,1.8-4.6c1.5-2.8,3.5-5.4,5.4-7.9c1.8-2.4,3.6-4.8,5.5-7.2
			c0.8-1,1.8-1.9,2.8-2.7c3.5-2.5,7.1-5,11-7c4.8-2.5,10-4.1,15.3-5.2c1.9-0.4,3.9-0.8,5.8-1c2-0.2,4-0.2,6-0.3
			c4.1-0.2,8,0.5,12,1.3c8.4,1.6,16.1,4.9,23,9.9c4.6,3.3,8.6,7.3,12,11.9c1.5,2,2.5,4.3,3.8,6.5c1.9,3.3,3,7,4.1,10.6
			c0.6,2.1,1.3,4.3,1.8,6.4c0.3,1,0.3,2.1,0.3,3.1c0.2,2.9,0.3,5.8,0.5,8.6c0.1,2.1,0.1,4.1-0.2,6.2c-0.4,2.7-0.7,5.5-1.2,8.2
			c-0.8,3.7-2.1,7.3-3.8,10.8c-2.1,4.5-4.6,8.7-7,13.1C237.3,220,233.3,224.6,229.6,229.2z"/>
		<path id="hands-part" class="st0" d="M218.1,327.9c3.6,3.5,7.5,6.7,11.5,9.6c4.7,3.5,9.4,7,14,10.5c0.2,0.2,0.2,0.2,0.6,0.4
			c0.2-0.1,8.5-5.7,16.7-7.5c0.5-0.1-0.2-0.3-1-0.7c-5.4-3.1-10.8-6.2-15.8-9.9c-2.4-1.8-4.9-3.6-7.2-5.5c-2.8-2.3-5.4-4.8-8.1-7.3
			c-4.9-4.5-9.1-9.6-13.2-14.8c-2.9-3.6-5-7.6-7.6-11.4c-1.4-2.1-2.7-4.2-4-6.4c-1.7-2.8-4.1-4.5-7.3-5c-4.1-0.6-7.6,0.4-10.2,3.8
			c-1.5,2-2.6,4.2-4,6.3c-2.2,3.5-4.3,7-6.7,10.4c-2,2.8-4.3,5.3-6.5,7.9c-2.4,2.8-4.7,5.5-7.2,8.1c-1.7,1.8-3.7,3.4-5.5,5
			c-4.7,4.1-9.5,8-14.6,11.3c-3.6,2.3-7.2,4.5-10.9,6.7c-1.7,1-1.7,0.9-3.5,1.5c3,0.6,5.3,1.3,8.5,2.4c2.6,0.9,7.7,3,9.7,4.7
			c1.5-1.1,2.6-1.8,3.9-2.7c4.4-3.2,8.7-6.3,13-9.6c2-1.5,3.7-3.3,5.6-5c1.2-1,2.4-2,3.6-3.1c0.5-0.5,1-1,1.4-1.5
			c2.6-2.8,5.3-5.5,7.7-8.5c3-3.7,5.7-7.6,8.5-11.4c1.2-1.7,2.3-3.4,3.5-5.1c0.6-0.8,1.3-1.4,2-2.2c0.2,0.3,0.5,0.5,0.7,0.8
			c2.5,3.5,5,7,7.4,10.5c2.4,3.5,5.2,6.7,8,9.8C213.3,322.8,215.6,325.5,218.1,327.9z"/>
		<path id="eye-part" class="st0" d="M195.3,161.7c2,0,4.2,0.7,6.2,1.9c1.6,0.9,3,2.1,4.3,3.5c0.8,0.9,0.8,1.8,0,2.7
			c-2.8,3.1-6.2,5-10.3,5.6c-0.5,0.1-1.1-0.1-1.7-0.2c-3.7-0.7-6.8-2.4-9.3-5.3c-1-1.1-1-2,0.1-3c1.5-1.5,3.2-2.9,5.1-3.9
			C191.4,162.1,193.1,161.6,195.3,161.7z"/>
		<path id="feet-part" class="st0" d="M308.2,370.9c-0.2-0.5-0.5-0.9-0.7-1.4c-2.1-4-4.5-7.9-7.4-11.7c-1.8-2.4-3.8-4.7-5.9-7
			c-0.5-0.5-1-1.1-1.5-1.6c0,0-0.1-0.1-0.1-0.1c0,0,0,0,0,0c-1.2-0.7-2.3-1.3-3.5-1.9c-3.6-1.9-7.3-3.7-11.2-4.7
			c-1.6-0.4-3.3-0.5-4.9-0.7c-3.5-0.4-7-0.7-10.4-1.1c-0.3,0-1.5,0-1.9,0.1c-6.1,1.4-11.3,4.3-16.3,7.3c-2.3,1.7-4.6,3.3-7,5
			c-4.1,2.8-8.1,5.7-11.8,9.1c-5.8,5.3-11.5,10.6-16.6,16.6c-1.7,2-3.4,4.1-5,6.3c-3.1,4.1-6.1,8.2-9.3,12.4c-0.6-0.4-1-1.2-1.4-1.8
			c-1.9-2.9-3.7-5.9-5.8-8.8c-0.5-0.7-1-1.3-1.5-2c-1.7-2.2-3.6-4.3-5.3-6.6c-2.9-3.9-6.3-7.3-9.7-10.7c-3.5-3.5-7.4-6.6-11.4-9.5
			c-1-0.7-1.9-1.5-2.9-2.2c-0.2-0.1-0.3-0.2-0.5-0.4c-3.2-2.2-6.4-4.5-9.6-6.7c-0.3-0.2-0.7-0.5-1.2-0.9c-4.2-3.2-15.7-6.8-19-7
			c-1.4-0.1-2.3,0-3.7,0.1c-0.8,0.1-1.7,0.2-2.6,0.3c-3.9,0.6-7.9,1.1-11.7,2.2c-3.6,1.1-6.9,2.7-9.9,4.8c-0.4,0.3-0.9,0.6-1.3,0.8
			c-0.5,0.5-1,1.1-1.5,1.6c-2.1,2.3-4.1,4.6-5.9,7c-2.9,3.8-5.3,7.7-7.4,11.7c-0.2,0.5-0.5,0.9-0.7,1.4c-2.9,5.8-4.9,11.8-6.1,17.7
			c-0.3,1.3-0.5,2.5-0.6,3.8c0.5,0.7,0.1,1.5,0.2,2.2c0.5,1.6,0.9,3.2,1,5c0.1,2.6,1,4.9,2.1,7.3c1.8,3.8,3.6,7.5,5.9,11
			c2,2.8,4.3,5.3,7,7.4c2.2,1.7,4.4,3.4,6.8,4.8c5.7,3.3,11.8,5.2,18.4,5.6c0.2,0,0.3,0.1,0.5,0.1c0.5,0,1,0,1.5,0
			c0.2,0,0.5,0,0.7,0c0.2,0,0.5,0.2,0.7,0.2h14.5c0.2-0.1,0.4-0.3,0.5-0.2c1.1,0.1,2.3-0.3,3.4,0.2h130.7c0.4-0.1,0.7-0.2,1.1-0.3
			c1.1,0,2.3,0,3.4,0c1.9-0.3,3.7-0.6,5.6-1c1.5-0.3,3-0.8,4.4-1.3c4.3-1.7,8.5-3.4,12-6.6c1.9-1.7,4.2-3.1,6-4.9
			c1.7-1.6,3.2-3.4,4.5-5.3c4-5.8,6.5-12.2,7.8-19.2c0.1-0.8,0.1-1.6,0.2-2.4c0-0.2,0.1-0.5,0.2-0.7v-6
			C313,382.6,311,376.7,308.2,370.9z M187.1,421c-7.7,0-15.4,0-23.1,0c-3.7,0-7.4,0-11.1,0c-7,0-14.1,0-21.1,0
			c-2.8,0-5.5,0.1-8.3,0.1c-4.1,0-8.1-0.5-12.1-1.6c-6.8-1.9-11.9-5.9-15.9-11.6c-2-2.9-3.4-6-4.5-9.3c-0.5-1.4-0.5-2.9-0.8-4.4
			c-0.7-4.1,0-8.1,0.9-12.1c0.5-2,0.8-4.1,1.7-5.9c4.5-8.8,11.1-15.3,20.5-18.7c2-0.7,4.1-1.3,6.2-1.6c2.4-0.3,4.9-0.7,7.3-0.2
			c1.3,0.3,2.6,0.7,3.8,1.4c3.4,1.9,6.8,4,10.1,6.1c2,1.3,3.9,2.8,5.8,4.3c3.3,2.6,6.7,5.1,9.9,7.8c2.2,1.8,4.4,3.7,6.3,6
			c2.1,2.5,4.5,4.9,6.7,7.4c0.5,0.6,1,1.2,1.5,1.8c2.9,3.5,5.6,7.2,8.1,11c0.8,1.1,1.5,2.3,2.2,3.5c1.7,2.8,3.4,5.6,5,8.5
			c1.2,2.3,2.2,4.7,3.5,7.4C188.6,420.9,187.8,421,187.1,421z M299,390.8c-0.2,1.8-0.3,3.6-0.4,5.4c-0.1,2.2-0.6,4.2-1.5,6.2
			c-1.7,3.8-4,7-6.9,10c-2.1,2.2-4.8,3.5-7.4,4.9c-0.8,0.4-1.7,0.8-2.4,1.3c-2.4,1.5-5.1,1.9-7.8,2.1c-2.1,0.2-4.3,0.3-6.4,0.3
			c-9.5,0-19.1,0-28.6,0c-3.9,0-7.8,0-11.7,0c-5.5,0-10.9,0-16.4,0c-1.4,0-2.8-0.1-4.3-0.2c-0.3-0.8-0.5-1.6-0.7-2.3
			c-0.2-0.7-0.5-1.3-0.8-1.9c-0.8-1.8-0.7-3.5,0.4-5.1c1.4-2.2,2.6-4.6,4-6.8c0.8-1.2,1.6-2.4,2.4-3.6c1.1-1.7,2.3-3.3,3.4-5
			c1.6-2.4,3.5-4.7,5.5-6.9c0.7-0.7,1.4-1.5,2.1-2.2c3.8-3.9,7.7-7.8,11.5-11.8c1.5-1.6,3.4-2.8,5.1-4.1c4.3-3.2,8.6-6.3,13-9.4
			c1.8-1.2,3.8-2.2,5.7-3.3c0.8-0.5,1.7-0.9,2.5-1.5c1.6-1.1,3.4-1.6,5.4-1.5c4.7,0.3,9.4,1.2,13.8,3c6.2,2.7,11,6.9,14.8,12.4
			c2.4,3.5,4.3,7.2,5.2,11.4C299.2,385.1,299.3,387.9,299,390.8z"/>
		<path id="outer-head-part" class="st0" d="M266.6,169.3c-0.1-0.9-0.1-1.9-0.1-2.9c-0.5-5.2-1.4-10.3-3.4-15.2
			c-0.6-1.6-1-3.3-1.7-4.8c-1.9-4.7-4.3-9-7.3-13.1c-0.8-1.1-1.7-2.1-2.6-3.2c-1.5-1.7-2.8-3.6-4.5-5.3
			c-7.3-7.4-15.8-12.9-25.4-16.6c-6.4-2.5-13-4-19.9-4.4c-1.4-0.1-2.7-0.2-4.1-0.3c-0.7,0-1.5,0.3-2.1-0.2h-5.8
			c-0.9,0.2-1.7,0.5-2.6,0.5c-6.4,0.4-12.6,1.8-18.4,4.4c-2.5,1.1-5,2-7.5,3.1c-2.6,1-4.9,2.6-7.2,4.1c-0.7,0.5-1.4,0.8-2.1,1.3
			c-0.3,0.2-0.5,0.3-0.8,0.5c-3.3,2.9-6.7,5.7-9.8,8.8c-2.2,2.2-4,4.8-5.9,7.3c0,0.1-0.1,0.1-0.1,0.2c-1.3,1.7-2.5,3.6-3.6,5.5
			c-1,1.8-1.9,3.7-2.8,5.7c-3.1,6.9-5,14.1-6.1,21.5c-0.7,4.6-0.7,9.3-0.5,13.9c0.5,10.6,3,20.7,7.5,30.4c2.7,5.7,5.9,11,9.6,16.2
			c3,4.2,6,8.4,9,12.6c0.1,0.1,0.1,0.2,0.2,0.5c0.2,0.3,0.7,0.1,1-0.1c4.2-2.4,8.4-4.4,12.6-7.5c-0.3-0.3-0.3-0.3-0.8-0.9
			c-0.8-1-1.6-1.9-2.5-2.9c-0.7-0.8-1.4-1.6-2.1-2.3c-1.7-1.6-2.6-3.7-3.8-5.6c-2-3.3-4.1-6.5-6.1-9.8c-4.5-7.5-7.5-15.6-8.9-24.3
			c-0.3-2.1-0.5-4.3-0.6-6.4c-0.1-1.7-0.3-3.5-0.2-5.2c0.3-7.1,1.3-14,3.9-20.7c0.6-1.5,1-3.2,1.8-4.6c1.5-2.8,3.5-5.4,5.4-7.9
			c1.8-2.4,3.6-4.8,5.5-7.2c0.8-1,1.8-1.9,2.8-2.7c0.7-0.5,1.3-0.9,2-1.4c2.9-2,5.8-4,9-5.6c4.8-2.5,10-4.1,15.3-5.2
			c1.9-0.4,3.9-0.8,5.8-1c2-0.2,4-0.2,6-0.3c4.1-0.2,8,0.5,12,1.3c8.4,1.6,16.1,4.9,23,9.9c0.4,0.3,0.8,0.6,1.2,0.9
			c4.1,3.1,7.7,6.8,10.8,11c1.5,2,2.5,4.3,3.8,6.5c1.9,3.3,3,7,4.1,10.6c0.6,2.1,1.3,4.3,1.8,6.4c0.3,1,0.3,2.1,0.3,3.1
			c0.2,2.9,0.3,5.8,0.5,8.6c0.1,2.1,0.1,4.1-0.2,6.2c-0.4,2.7-0.7,5.5-1.2,8.2c-0.8,3.7-2.1,7.3-3.8,10.8c-2.1,4.5-4.6,8.7-7,13.1
			c-2.8,5.4-6.8,9.9-10.5,14.6c-0.5,0.6-1,1.2-1.5,1.8c-0.5,0.6-1.1,0.8-1.6,0.6c4.3,3.2,8.9,5.5,13.3,8c0.4,0.2,1,0.6,1.4,0.1
			c0.2-0.4,0.4-0.8,0.7-1.2c3.4-5.1,6.9-10.2,10.2-15.3c2.3-3.6,4.7-7.2,6.7-11c3-5.9,5-12.2,6.5-18.7c0.9-3.8,1.5-7.7,1.8-11.7
			C267.2,177.7,267.2,173.5,266.6,169.3z"/>
	</g>
	<g id="me-letters">
		<path class="st0" d="M1291.1,265.5c0.7,0.5,1.2,0.7,1.4,0.7c0.2,0,0.8-0.4,1.6-1.1c0.8-0.7,1.3-1.1,1.6-1.1
			c1.6,1.2,2.2,2.1,1.8,2.8c0.2,0,0.6,0.1,1.2,0.2c0.6,0.1,1,0.3,1.2,0.5c0,1.9-0.1,3.5-0.4,4.9c-0.2,1.4-0.8,3-1.6,4.8
			c-0.8,1.8-1.4,3-1.6,3.7c-0.2,0-0.6-0.1-1.1-0.4c-0.5-0.2-0.8-0.2-1.1,0c-0.2,0.5-0.1,0.8,0.5,0.9c0.6,0.1,0.9,0.3,0.9,0.5
			c-0.5,1.6-1.3,2.5-2.5,2.5c0.7,1.6,0.6,3.8-0.2,6.4c-0.8,2.6-2.1,4.7-3.7,6.4c0.7,0.2,0.9,0.7,0.7,1.4c0,0.2-0.4,0.4-1.1,0.4
			c0.9,0.5,1,1.6,0.2,3.5c-0.8,1.9-1.1,3.2-0.9,3.9c-0.2,0-0.4,0.6-0.4,1.8c-1.2,0.2-2.1,0.9-2.8,2.1c0.2,0.2,0.6,0.2,1.2,0
			c0.6-0.2,1.1-0.1,1.6,0.4c-1.2,0.7-2.4,1.1-3.5,1.1c0.7,0.5,1,1.1,0.9,1.8c-0.1,0.7,0.1,1.5,0.5,2.5c-0.5,0-0.9,0.2-1.4,0.7
			c-0.2,0.5-0.1,0.8,0.4,0.9c0.5,0.1,0.6,0.4,0.4,0.9c-0.2,0-0.7,0.4-1.4,1.2c-0.7,0.8-1.4,1.4-2.1,1.6c0,0.5,0.1,0.8,0.2,0.9
			c0.1,0.1,0.3,0.1,0.5-0.2c0.7,0,1.2,0.1,1.4,0.4c-0.2,0.2-0.7,1.1-1.4,2.5s-1.4,2.2-2.1,2.5c0.2,0.5,0.5,0.9,0.7,1.4v0.7
			c0,0.2-0.5,0.4-1.4,0.4c0.7,4-0.6,10.6-3.9,19.8c0,0.5,0.6,0.9,1.8,1.4c-0.7,0.2-1.2,0.9-1.4,1.9c-0.2,1.1-0.5,1.7-0.7,1.9
			c0.7,1.4,0.9,3.9,0.5,7.4c-0.4,3.5-0.3,6,0.2,7.4c1.4-0.5,2.3,0.1,2.6,1.6c0.4,1.5,0.8,3.1,1.4,4.6c0.6,1.5,1.8,2.3,3.7,2.3
			c-0.2,0.7-0.2,1.2,0.2,1.6s0.5,0.6,0.5,0.9c-1.4,1.2-2.9,1.8-4.4,1.9c-1.5,0.1-2.9-0.3-4.2-1.2c-1.3-0.9-2.5-1.9-3.5-3
			s-2.2-2.4-3.5-3.9c-1.3-1.5-2.3-2.6-3-3.4v0.7c-2.8-4.2-4.4-9.3-4.8-15.3c-0.4-6,0.1-11.3,1.2-16c1.2-4.7,2.6-10.3,4.4-16.9
			c1.8-6.6,2.9-11.5,3.4-14.8c-20.2,25.6-34.7,30.1-43.4,13.4c-0.2,0-0.4,0.2-0.5,0.5c-0.1,0.4-0.4,0.4-0.9,0.2
			c-1.2-2.1-1.8-4.4-1.9-6.9c-0.1-2.5,0.1-5.6,0.5-9.3c0.5-3.8,0.7-6.4,0.7-7.8c-1.6,2.1-7.3,10.4-16.9,24.7
			c-9.6,14.3-18.1,24.1-25.4,29.3c-3.5-0.5-6.4-1.5-8.6-3.2c-2.2-1.6-3.8-3.7-4.6-6.2c-0.8-2.5-1.3-5-1.6-7.6
			c-0.2-2.6,0-5.6,0.7-9.2s1.4-6.6,1.9-9.2c0.6-2.6,1.5-5.8,2.6-9.5c1.2-3.8,2-6.5,2.5-8.1c0.7-9.9,4-21.2,9.9-33.9
			c2.6-3.1,5.8-3.2,9.7-0.5c3.9,2.7,5.6,6.1,5.1,10.1c-0.7,6.8-5.9,24-15.5,51.5c2.3-1.9,5.1-5.1,8.1-9.5c3.1-4.5,5.5-7.5,7.4-9.2
			c1.2-3.1,3.5-6.8,7.1-11.1c3.5-4.3,5.9-7.6,7.1-9.7c0.5-0.2,2-1.7,4.6-4.4c2.6-2.7,5.5-3.8,8.8-3.4c-0.2,0.5-0.2,0.8,0,1.1
			c0.2,0.2,0.4,0.6,0.4,1.1c0.2,0,0.7,0,1.4,0s1.1,0.1,1.1,0.2c0,0.1-0.1,0.4-0.4,0.9c2.6-0.7,4.7-0.9,6.4-0.7
			c0.2,0.5,0.2,0.7,0,0.7l-1.1,0.4c0.2,0.5,0.8,0.8,1.8,1.1c0.9,0.2,1.5,0.5,1.8,0.7c0,0.7,0,1.4,0,2.1s0,1.3,0,1.8
			c0,0.5,0.2,0.9,0.5,1.2c0.4,0.4,0.8,0.7,1.2,0.9c-0.7,4.7-0.6,8.3,0.4,10.9c-0.9,0.9-1.5,2.4-1.8,4.2c-0.2,1.9-0.4,4.1-0.4,6.5
			s-0.1,4.3-0.4,5.5c3.1-1.4,5.7-3.1,7.9-5.1c2.2-2,5.1-5.1,8.6-9.3c3.5-4.2,5.5-6.6,6-7.1h-1.4c3.5-2.6,7.6-7.3,12.3-14.1
			c4.7-6.8,8.3-11.5,10.9-14.1c0-1.2,0.4-2.4,1.1-3.7c0.7-1.3,1.2-2.2,1.4-2.6c1.9,0.5,3.2,0.8,3.9,1.1c0,0.2-0.4,1.1-1.1,2.5
			c0.2,0.7,0.5,0.8,0.9,0.2c0.4-0.6,0.8-0.9,1.2-0.9c-0.2,0.5-0.2,0.8,0,1.1C1290.2,266.1,1290.6,266,1291.1,265.5z M1209.9,295.5
			c-1.4,4-4.2,9-8.5,15c-4.2,6-7.1,10.3-8.5,12.9c0.9-0.5,1.9-1.6,3-3.5c1.1-1.9,2.1-3.1,3-3.5c0,0.2-0.2,0.6-0.7,1.1l0.7,0.7
			c0-0.2,0.5-1,1.6-2.3c1.1-1.3,1.4-2.5,0.9-3.7c1.9-0.5,3.7-2.3,5.5-5.6c1.8-3.3,3.6-5.4,5.5-6.4c-0.5,0.5-0.7,0.9-0.5,1.2
			c0.1,0.4,0.4,0.5,0.9,0.5c1.2-2.1,3.2-4.8,6-7.9c2.8-3.2,4.7-5.3,5.6-6.5c-1.4,0.2-2.1-0.1-2.1-1.1c1.4-0.2,2.2-0.4,2.5-0.4
			c-0.2-0.5-0.4-1.2-0.4-2.1c0-0.9,0-1.5,0-1.8c-2.4,1.2-4.9,3.5-7.6,6.9C1214.1,292.4,1211.8,294.6,1209.9,295.5z M1207.8,307.5
			v0.7c0.2,0.2,0.5,0.2,0.7,0c0-0.5-0.1-0.8-0.4-1.1C1208.2,307.4,1208.1,307.5,1207.8,307.5z M1211,303.2c-0.5,0.2-0.9,0.8-1.4,1.6
			c-0.5,0.8-0.5,1.4,0,1.6C1209.8,306,1210.3,304.9,1211,303.2z M1213.1,297.6c0.9,0.9,0.9,1.8,0,2.5c-0.5,0-0.7-0.7-0.7-2.1
			C1212.9,298.4,1213.1,298.3,1213.1,297.6z M1217,292.7c0.9,0.7,0.4,2-1.8,3.9c-0.5,0.2-0.8,0.5-1.1,0.7
			C1214.4,295.8,1215.4,294.3,1217,292.7z M1218.1,285.3h0.7v-0.7h-0.7V285.3z M1222.6,288.1c0,0.7-0.4,1.3-1.1,1.8
			c-0.7,0.5-1.4,0.4-2.1-0.4C1220.6,288.3,1221.7,287.9,1222.6,288.1z M1226.5,302.9c0-0.5,0.1-0.7,0.4-0.7c0-0.5-0.4-0.7-1.1-0.7
			l0.4,0.7C1226.2,302.4,1226.3,302.7,1226.5,302.9z M1244.2,318.8c0.5,0.5,0.7,0.8,0.7,1.1c0.5,0,1-0.2,1.6-0.7
			c0.6-0.5,1-0.7,1.2-0.7c-0.7-0.7-0.7-1.4,0-2.1s1.1-1.3,1.1-1.8C1246.4,315.2,1244.9,316.7,1244.2,318.8z M1275.9,280.3
			c0,1.6-0.9,2.9-2.8,3.9l0.4-0.4c0-0.2,0-0.5,0-0.7c-1.2,0-1.8,0.5-1.8,1.4l0.4,0.4l0.4,0.4c-1.2,1.9-2,2.8-2.5,2.8v-0.4
			c0.2-0.2,0.4-0.5,0.4-0.7c-1.9,0.9-2.8,2.1-2.8,3.5c0.5,0,0.8-0.4,1.1-1.2c0.2-0.8,0.7-1.1,1.4-0.9c-4.2,7.1-7.6,11.2-10.2,12.3
			c0.7-0.5,1.1-0.2,1.1,0.7c-2.1,1.9-5.4,5.5-9.9,10.9c1.2-0.2,2.2-0.9,3.2-2.1c0.9-1.2,1.9-1.9,2.8-2.1c-0.2,0.2-0.5,0.6-0.9,1.1
			c-0.4,0.5-0.5,0.8-0.5,1.1c0.7,0,1.2-0.4,1.6-1.1s0.8-1.2,1.2-1.4c0.2,0.2,0.9,0.4,2.1,0.4c0-0.2-0.2-0.5-0.5-0.7
			c-0.4-0.2-0.5-0.6-0.5-1.1c0.5,0,0.9-0.5,1.4-1.4c0.5-0.9,1.1-1.2,1.8-0.7c0,0.2-0.2,0.5-0.5,0.7c-0.4,0.2-0.5,0.5-0.5,0.7
			c0.2,0,0.6-0.1,1.2-0.2c0.6-0.1,1-0.3,1.2-0.5c-0.5-0.5-0.6-0.8-0.4-1.1c0.2-0.2,0.7-0.2,1.4,0v-1.8c-0.2-0.2-0.6-0.1-1.1,0.4
			c-0.5,0.5-0.8,0.4-1.1-0.4c0.5-0.2,1.1-0.8,1.8-1.6c0.7-0.8,1.5-1.1,2.5-0.9c0-0.7,1.1-1.6,3.2-2.8c0.2-0.5,0.1-0.9-0.4-1.4
			l-1.1-0.7c1.4-1.4,2.2-2.1,2.5-2.1c0.2,0,0.4,0.4,0.4,1.1c0.7-0.2,1.5-0.9,2.3-2.1c0.8-1.2,1.6-1.9,2.3-2.1
			c-0.2-0.5-0.1-1.2,0.5-2.3c0.6-1.1,0.3-1.7-0.9-1.9c2.3,0,3.1-1.6,2.1-4.9c0.7-0.2,1.6-2.2,2.8-6c-2.4,0.5-4.6,3.2-6.7,8.1
			c0.2-0.2,0.5-0.6,0.7-1.1C1275.1,280.9,1275.4,280.6,1275.9,280.3z M1261.8,301.5c0-0.2,0.2-0.4,0.7-0.4
			C1262.5,301.4,1262.3,301.5,1261.8,301.5z M1263.2,295.8c0.5,0.2,0.9,0,1.4-0.7C1264.1,295.1,1263.7,295.4,1263.2,295.8z
			 M1266.7,354.7c0-0.5-0.2-0.8-0.7-0.9c-0.5-0.1-0.9-0.1-1.4,0c-0.5,0.1-0.7,0.3-0.7,0.5C1264.4,354.6,1265.3,354.7,1266.7,354.7z
			 M1263.9,356.9h1.1v-0.7h-1.1V356.9z M1265.3,356.5c0.9,0,1.4-0.2,1.4-0.7h-1.1v0.4L1265.3,356.5z M1266.7,340.3
			c0-0.2,0.1-0.4,0.4-0.4c0-0.7-0.4-0.9-1.1-0.7l0.4,0.4C1266.4,340,1266.5,340.3,1266.7,340.3z M1266,350.2h1.1v-0.7h-1.1V350.2z
			 M1266.7,337.8c0-0.2,0.1-0.6,0.4-1.1c0.5-0.9,0.4-1.4-0.4-1.4c0,0.5-0.1,0.9-0.4,1.4C1266.1,337.2,1266.3,337.6,1266.7,337.8z
			 M1266.7,347.7h0.7v-1.8h-0.7V347.7z M1267.4,343.1c0.7,0.2,1.2-0.1,1.4-1.1c-0.5-0.5-0.8-0.8-1.1-1.1c0,0.2,0,0.6,0,1.1
			C1267.8,342.5,1267.7,342.9,1267.4,343.1z M1268.1,333.2c0-0.2,0.2-0.4,0.7-0.4c-0.2-0.7-0.6-1.1-1.1-1.1
			C1267.8,332.8,1267.9,333.2,1268.1,333.2z M1268.1,354.7v1.1c0.5,0.2,0.8,0.1,1.1-0.5c0.2-0.6,0.1-0.9-0.4-0.9
			C1268.9,354.6,1268.6,354.7,1268.1,354.7z M1269.2,337.8c1.4-3.1,1.5-4.7,0.4-4.9c0,0.2-0.1,0.8-0.2,1.6c-0.1,0.8-0.2,1.5-0.4,1.9
			C1268.9,336.9,1269,337.3,1269.2,337.8z M1269.2,327.2h0.7v-0.7h-0.7V327.2z M1269.9,331.5h1.4c0-0.7-0.5-0.9-1.4-0.7V331.5z
			 M1271.7,294.8c-0.2,0-0.5-0.1-0.7-0.4c-0.2-0.2-0.5-0.2-0.7,0c-0.2,0.5-0.1,0.8,0.5,0.9C1271.4,295.4,1271.7,295.3,1271.7,294.8z
			 M1271.3,329c0-0.2,0.1-0.5,0.4-0.7c0.5-0.9,0.4-1.4-0.4-1.4c0,0.2-0.1,0.5-0.4,0.7C1270.5,328.3,1270.6,328.8,1271.3,329z
			 M1272,336.8c0.9-2.1,0.9-3.3,0-3.5c-0.2,0.2-0.4,0.8-0.4,1.8C1271.7,335.9,1271.8,336.5,1272,336.8z M1273.1,288.8v1.4
			C1272.4,290,1272.4,289.5,1273.1,288.8z M1274.5,335.7c0-0.2-0.2-0.4-0.5-0.4s-0.5,0.1-0.5,0.4c0,0.2,0.1,0.5,0.4,0.7
			C1274,336.2,1274.3,335.9,1274.5,335.7z M1274.5,311.4c0.9-2.1,0.9-3.1,0-2.8c0.2,0.5,0.2,1.1-0.2,1.8S1274,311.4,1274.5,311.4z
			 M1275.6,305.7c0.2,0,0.9-1.2,2.1-3.5c-0.7,0-1.2,0.2-1.4,0.5c-0.2,0.4-0.4,0.9-0.4,1.6S1275.8,305.5,1275.6,305.7z M1275.9,280.3
			c0-0.2,0.1-0.4,0.4-0.4C1276.3,280.2,1276.1,280.3,1275.9,280.3z M1276.3,280l1.8-2.5C1278,278.7,1277.4,279.5,1276.3,280z
			 M1277.3,322.7c0-0.5-0.4-0.9-1.1-1.4C1276.3,322.4,1276.6,322.9,1277.3,322.7z M1276.3,339.6c0.5,0.2,0.9,0.1,1.2-0.4
			c0.4-0.5,0.5-0.9,0.5-1.4c0-0.5-0.1-0.8-0.4-1.1c0.2,0.7,0.1,1.2-0.5,1.6C1276.6,338.7,1276.3,339.1,1276.3,339.6z M1277.3,300.1
			v1.1c0.5,0.2,0.8,0.1,0.9-0.5c0.1-0.6-0.1-0.9-0.5-0.9C1277.7,300.2,1277.5,300.3,1277.3,300.1z M1278,331.1
			c0-0.2,0.1-0.5,0.4-0.7c0.2-0.2,0.4-0.5,0.4-0.7c-0.2,0-0.4-0.1-0.4-0.4h-0.7C1277.7,330.5,1277.8,331.1,1278,331.1z M1278,316.3
			c0.5,0,0.9-0.2,1.4-0.7C1279,315.6,1278.5,315.8,1278,316.3z M1278.7,322.3c0.7-0.5,0.5-1.1-0.7-1.8
			C1278,321.2,1278.3,321.8,1278.7,322.3z M1279.8,314.2c0-0.5-0.4-0.9-1.1-1.4C1278.7,314,1279.1,314.4,1279.8,314.2z
			 M1279.4,320.5h0.7l0.4-0.4v-0.4l-0.4-0.4c-0.2-0.2-0.5-0.4-0.7-0.4V320.5z M1280.8,273.3c0-0.2,0.2-0.6,0.7-1.2
			c0.5-0.6,0.7-1.1,0.7-1.6h-1.4c0.2,0.5,0.2,1.1-0.2,1.8S1280.4,273.3,1280.8,273.3z M1288.3,306.4c0.5,0.5,0.7,0.8,0.7,1.1h-0.7
			V306.4z M1290.4,293.4h1.1c0-0.7-0.1-1.1-0.4-1.1c0,0.2-0.2,0.4-0.5,0.5C1290.2,293,1290.1,293.1,1290.4,293.4z M1291.1,265.5
			v-0.7c-0.2-0.2-0.4-0.5-0.4-0.7c0.7-0.2,1.1-0.2,1.2,0.2c0.1,0.4-0.1,0.8-0.5,1.2H1291.1z"/>
		<path class="st0" d="M1447.3,277.5c0,0.5,0.1,0.7,0.4,0.7c-13.9,5.9-24,10.5-30.3,13.8c0.5,0.9,0.9,1.3,1.4,1.1
			c0.5-0.2,1.1-0.6,1.9-1.2c0.8-0.6,1.5-0.9,1.9-0.9c-1.4,1.4-3.2,2.9-5.5,4.4c-2.2,1.5-4.1,2.6-5.5,3.4s-3.8,1.8-7.1,3.2
			c-3.3,1.4-5.3,2.2-6,2.5c-0.2,0.7-0.1,1.4,0.4,1.9c0.5,0.6,0.7,1.1,0.7,1.6c-0.7,0.2-1.2,0-1.4-0.7c-0.2-0.7-0.6-1.1-1.1-1.1
			c-0.7,1.2-2.1,2.1-4.1,2.6c-2,0.6-3.4,1.4-4.1,2.3c-0.2,0.2,0,0.5,0.7,0.7c0.2,0.2,0.5,0.4,0.7,0.4c-0.5,0.5-1.4,1-2.6,1.6
			c-1.3,0.6-2.1,1-2.3,1.2c0,0.9,0.5,1.3,1.4,1.1c-2.6,2.1-4.8,2.6-6.7,1.4c-1.4,1.9-2.4,3.2-2.8,3.9c-2.1,0.7-6.3,2.2-12.5,4.6
			c-6.2,2.4-11.6,4.1-16.2,5.3c-4.6,1.2-9.6,1.9-15,2.1c-9.2,0-16-2.9-20.6-8.8c-4.6-5.9-6.7-12.6-6.4-20.3c0.4-7.6,2.5-14.6,6.5-21
			c5.4-5.9,9.7-10.3,12.9-13.2c3.2-2.9,7.8-6,13.9-9.2c6.1-3.2,12.6-4.8,19.4-4.8c4.2,2.6,6.7,6.6,7.4,12.2c0.7,5.5-0.2,10.5-2.8,15
			c-2.1,1.6-5,4.2-8.6,7.6c-3.6,3.4-7.1,6.3-10.2,8.6c-3.2,2.4-6.6,4.1-10.4,5.3c-8.2,0.7-13.2-2-14.8-8.1c-3.8,2.6-6,7.5-6.7,14.8
			c1.9,2.1,4.4,3.9,7.4,5.3c14.8,0,29.3-2.2,43.6-6.7c14.2-4.5,29.2-10.3,44.8-17.5C1424.7,285.3,1437.5,280.3,1447.3,277.5z
			 M1358.8,261.6c-10.8,2.6-20.6,10.1-29.3,22.6c0.9,0,1.4,0.1,1.4,0.4c-0.5,0.7-1.6,1.4-3.4,2.1s-2.8,1.5-3,2.5
			c19.3-5.9,31.4-15.2,36.3-27.9c-0.5,0-0.8-0.2-1.1-0.5c-0.2-0.4-0.5-0.5-0.7-0.5c0,0.2,0,0.6,0,1.1L1358.8,261.6z M1332.3,320.9
			c3.1,1.2,4.9,1.4,5.6,0.7c-0.5-0.5-1.5-0.9-3.2-1.2C1333.2,320,1332.3,320.2,1332.3,320.9z M1344.3,316.3c4.5,1.4,12.3,0,23.6-4.2
			c16.2-3.5,32.5-9.9,48.7-19c-2.4,0.7-12.4,4.5-30.2,11.3C1368.7,311.1,1354.7,315.1,1344.3,316.3z M1375.7,320.5
			c0.7,0.5,1.1,0.4,1.1-0.4C1375.8,319.7,1375.5,319.8,1375.7,320.5z M1381.4,317.4h1.1v-0.7h-1.1V317.4z M1383.1,316.7
			c1.2-0.5,1.9-0.8,2.1-1.1c-0.5-0.5-0.9-0.6-1.4-0.4C1383.4,315.5,1383.1,315.9,1383.1,316.7z M1384.9,313.5c2.3-1.2,3.5-2,3.5-2.5
			C1386.1,312.2,1384.9,313,1384.9,313.5z M1391.2,311c0.9-0.5,1.4-0.2,1.4,0.7h-1.4V311z M1396.2,307.8h1.1v1.1h-1.1V307.8z
			 M1400.1,305.4c0.9,0.2,1.2,0.8,0.7,1.8C1400.3,306.9,1400.1,306.3,1400.1,305.4z M1424.1,290.9h0.7c0.2,0.5-0.1,0.7-1.1,0.7
			l0.4-0.4V290.9z M1424.4,289.1h1.1v1.1h-1.1V289.1z M1430,287.7c-0.7,1.6-2.1,2.2-4.2,1.8C1426.3,288.8,1427.7,288.2,1430,287.7z
			 M1430,287.7c0-0.7,0.4-0.9,1.1-0.7l0.7,0.7C1431.6,288.7,1431,288.7,1430,287.7z M1447.3,277.5c0.5-0.7,1.1-1.1,1.8-1.1
			c0.2,0.7-0.1,1.1-1.1,1.1C1447.8,277.5,1447.6,277.5,1447.3,277.5z"/>
	</g>
	<g id="focus-letters">
		<path id="focus-letter-f" class="st0" d="M382.8,246.6c0,0.7,0,1.2-0.1,1.6c-0.1,0.4-0.2,0.7-0.3,1c-0.1,0.2-0.3,0.4-0.5,0.5
			c-0.2,0.1-0.4,0.1-0.6,0.1c-0.4,0-0.9-0.1-1.4-0.4c-0.6-0.2-1.2-0.5-2.1-0.8c-0.8-0.3-1.8-0.6-2.9-0.8c-1.1-0.2-2.5-0.4-4-0.4
			c-2.1,0-3.9,0.3-5.4,1c-1.5,0.7-2.6,1.7-3.5,3.1c-0.9,1.4-1.5,3.3-1.9,5.5s-0.6,5-0.6,8.2v7.8h16.7c0.4,0,0.7,0.1,0.9,0.2
			c0.3,0.1,0.5,0.4,0.7,0.7c0.2,0.3,0.4,0.7,0.5,1.2c0.1,0.5,0.2,1,0.2,1.6c0,1.2-0.2,2.1-0.6,2.7c-0.4,0.6-0.9,0.9-1.6,0.9h-16.7
			v59.9c0,0.3-0.1,0.6-0.2,0.8c-0.2,0.2-0.4,0.4-0.7,0.6c-0.3,0.1-0.8,0.3-1.4,0.4c-0.6,0.1-1.3,0.1-2.2,0.1c-0.9,0-1.6,0-2.2-0.1
			c-0.6-0.1-1-0.2-1.4-0.4c-0.4-0.1-0.6-0.3-0.7-0.6c-0.1-0.2-0.2-0.5-0.2-0.8v-59.9h-10.3c-0.7,0-1.2-0.3-1.6-0.9s-0.6-1.5-0.6-2.7
			c0-0.6,0-1.2,0.2-1.6c0.1-0.5,0.2-0.8,0.4-1.2c0.2-0.3,0.4-0.5,0.7-0.7c0.3-0.1,0.6-0.2,0.9-0.2h10.3v-7.5c0-4.6,0.4-8.5,1.3-11.8
			c0.9-3.2,2.2-5.9,3.9-7.9c1.7-2,3.9-3.5,6.5-4.4c2.6-0.9,5.7-1.4,9.1-1.4c1.7,0,3.4,0.2,5,0.5c1.6,0.3,2.8,0.7,3.7,1
			c0.8,0.4,1.4,0.7,1.7,0.9c0.3,0.3,0.5,0.6,0.7,1c0.2,0.4,0.3,0.8,0.4,1.3C382.7,245.4,382.8,245.9,382.8,246.6z"/>
		<path id="focus-letter-o" class="st0" d="M468.8,306.8c0,5.2-0.7,10-2.1,14.5c-1.4,4.4-3.5,8.2-6.3,11.5
			c-2.8,3.2-6.3,5.8-10.4,7.6c-4.2,1.8-9,2.7-14.6,2.7c-5.3,0-10-0.8-14-2.4c-4-1.6-7.3-3.9-10-7c-2.7-3-4.7-6.7-6-11
			c-1.3-4.3-2-9.2-2-14.6c0-5.2,0.7-10,2.1-14.5c1.4-4.4,3.5-8.2,6.3-11.4c2.8-3.2,6.3-5.7,10.4-7.5c4.2-1.8,9.1-2.7,14.6-2.7
			c5.3,0,10,0.8,14,2.4c4,1.6,7.3,3.9,10,6.9c2.7,3,4.7,6.7,6,11C468.1,296.6,468.8,301.4,468.8,306.8z M459.2,307.6
			c0-3.7-0.4-7.3-1.1-10.7c-0.8-3.4-2-6.4-3.8-9c-1.8-2.6-4.1-4.6-7.1-6.2c-3-1.5-6.7-2.3-11.1-2.3c-4.1,0-7.6,0.7-10.6,2.1
			c-3,1.4-5.4,3.4-7.3,5.8c-1.9,2.5-3.3,5.4-4.2,8.8c-0.9,3.4-1.4,7-1.4,11c0,3.8,0.4,7.4,1.1,10.8c0.8,3.4,2,6.4,3.8,9
			c1.8,2.6,4.1,4.6,7.1,6.1c3,1.5,6.7,2.3,11.1,2.3c4.1,0,7.6-0.7,10.6-2.1c3-1.4,5.4-3.3,7.3-5.8c1.9-2.5,3.3-5.4,4.2-8.8
			C458.8,315.2,459.2,311.6,459.2,307.6z"/>
		<path id="focus-letter-c" class="st0" d="M555.1,330.6c0,0.6,0,1.1-0.1,1.6c-0.1,0.5-0.1,0.9-0.2,1.2c-0.1,0.3-0.2,0.6-0.4,0.9
			c-0.2,0.3-0.6,0.7-1.2,1.3c-0.7,0.6-1.7,1.4-3.3,2.4c-1.5,1-3.3,1.8-5.2,2.5c-1.9,0.7-4,1.3-6.2,1.8c-2.2,0.5-4.5,0.7-6.9,0.7
			c-4.7,0-8.9-0.8-12.6-2.3c-3.6-1.5-6.7-3.8-9.2-6.8c-2.5-3-4.3-6.6-5.6-11c-1.3-4.3-1.9-9.3-1.9-15c0-6.4,0.8-11.9,2.4-16.4
			c1.6-4.6,3.8-8.3,6.5-11.2c2.8-2.9,6-5,9.7-6.4c3.7-1.4,7.7-2.1,11.9-2.1c2.3,0,4.4,0.2,6.5,0.6c2.1,0.4,4,1,5.7,1.6
			c1.7,0.7,3.3,1.5,4.6,2.3c1.4,0.9,2.4,1.6,3,2.2c0.6,0.6,1.1,1.1,1.3,1.4c0.2,0.3,0.4,0.7,0.5,1.1c0.1,0.4,0.2,0.8,0.3,1.3
			c0,0.5,0.1,1,0.1,1.6c0,1.4-0.2,2.4-0.6,2.9c-0.4,0.6-0.9,0.8-1.4,0.8c-0.7,0-1.6-0.4-2.6-1.3c-1-0.9-2.4-1.8-4-2.9
			c-1.6-1-3.6-2-5.8-2.9c-2.3-0.9-5-1.3-8.2-1.3c-6.5,0-11.6,2.4-15.1,7.3c-3.5,4.8-5.3,11.8-5.3,21c0,4.6,0.5,8.6,1.4,12.1
			c1,3.5,2.3,6.3,4.1,8.6c1.8,2.3,4,4,6.5,5.2c2.6,1.1,5.5,1.7,8.7,1.7c3,0,5.7-0.5,8-1.4c2.3-0.9,4.3-1.9,6-3.1
			c1.7-1.1,3.1-2.1,4.3-3.1c1.1-0.9,2-1.4,2.5-1.4c0.3,0,0.6,0.1,0.8,0.3c0.2,0.2,0.4,0.4,0.6,0.8c0.2,0.4,0.3,0.8,0.3,1.3
			C555.1,329.3,555.1,329.9,555.1,330.6z"/>
		<path id="focus-letter-u" class="st0" d="M646.8,340.3c0,0.3-0.1,0.6-0.2,0.8c-0.1,0.2-0.4,0.4-0.7,0.6c-0.4,0.1-0.8,0.3-1.4,0.4
			c-0.6,0.1-1.2,0.1-2,0.1c-0.9,0-1.6,0-2.2-0.1c-0.6-0.1-1-0.2-1.3-0.4c-0.3-0.1-0.5-0.3-0.6-0.6c-0.1-0.2-0.2-0.5-0.2-0.8V331
			c-3.9,4.2-7.8,7.3-11.5,9.2c-3.7,1.9-7.5,2.8-11.2,2.8c-4.5,0-8.2-0.7-11.3-2.2c-3.1-1.5-5.5-3.4-7.4-5.9
			c-1.9-2.5-3.2-5.4-4.1-8.7c-0.8-3.3-1.2-7.3-1.2-11.9v-39.7c0-0.3,0.1-0.6,0.2-0.8c0.1-0.2,0.4-0.4,0.7-0.6
			c0.4-0.2,0.8-0.3,1.4-0.4c0.6-0.1,1.3-0.1,2.2-0.1c0.9,0,1.6,0,2.2,0.1c0.6,0.1,1,0.2,1.4,0.4c0.3,0.2,0.6,0.4,0.7,0.6
			c0.2,0.2,0.2,0.5,0.2,0.8v38.9c0,4.1,0.3,7.4,1,10c0.7,2.6,1.6,4.8,2.9,6.6c1.3,1.8,3,3.2,5,4.2c2,1,4.4,1.5,7.1,1.5
			c3.5,0,6.9-1.2,10.4-3.6c3.4-2.4,7.1-5.9,11-10.5v-47.1c0-0.3,0.1-0.6,0.2-0.8c0.1-0.2,0.4-0.4,0.7-0.6c0.4-0.2,0.8-0.3,1.4-0.4
			c0.6-0.1,1.3-0.1,2.2-0.1c0.9,0,1.6,0,2.2,0.1c0.6,0.1,1,0.2,1.4,0.4c0.3,0.2,0.6,0.4,0.7,0.6c0.2,0.2,0.2,0.5,0.2,0.8V340.3z"/>
		<path id="focus-letter-s" class="st0" d="M730.7,322.8c0,3.1-0.6,6-1.8,8.5c-1.2,2.5-2.9,4.6-5.2,6.4c-2.2,1.7-4.9,3.1-8,4
			c-3.1,0.9-6.6,1.4-10.3,1.4c-2.4,0-4.6-0.2-6.7-0.5c-2.1-0.4-4-0.8-5.7-1.4c-1.7-0.6-3.2-1.2-4.3-1.8c-1.2-0.6-2-1.2-2.6-1.7
			c-0.6-0.5-1-1.1-1.2-1.8c-0.3-0.7-0.4-1.7-0.4-2.9c0-0.6,0-1.2,0.2-1.7c0.1-0.5,0.2-0.9,0.4-1.2c0.2-0.3,0.4-0.6,0.6-0.8
			c0.3-0.2,0.5-0.3,0.8-0.3c0.6,0,1.4,0.3,2.4,1c1.1,0.7,2.4,1.4,4,2.2c1.6,0.8,3.5,1.5,5.7,2.2c2.2,0.7,4.7,1,7.6,1
			c2.3,0,4.4-0.2,6.3-0.7s3.6-1.2,5-2.2c1.4-1,2.5-2.2,3.3-3.7c0.8-1.5,1.2-3.3,1.2-5.3c0-2-0.5-3.8-1.5-5.2c-1-1.4-2.3-2.6-4-3.7
			c-1.6-1-3.5-2-5.6-2.8c-2.1-0.8-4.2-1.6-6.4-2.5c-2.2-0.8-4.3-1.8-6.4-2.8c-2.1-1-3.9-2.3-5.6-3.7c-1.6-1.5-3-3.2-4-5.2
			c-1-2-1.5-4.5-1.5-7.3c0-2.3,0.5-4.5,1.4-6.7c0.9-2.2,2.3-4.2,4.2-5.9s4.3-3.1,7.2-4.2c2.9-1.1,6.4-1.6,10.4-1.6
			c1.7,0,3.4,0.1,5.1,0.4c1.7,0.3,3.2,0.6,4.6,1.1c1.4,0.4,2.6,0.9,3.6,1.4c1,0.5,1.8,1,2.3,1.3c0.5,0.4,0.9,0.7,1.1,1
			c0.2,0.3,0.3,0.5,0.4,0.8c0.1,0.3,0.1,0.6,0.2,1.1c0,0.4,0.1,0.9,0.1,1.5c0,0.6,0,1.1-0.1,1.6c-0.1,0.5-0.2,0.9-0.3,1.2
			c-0.2,0.3-0.3,0.6-0.6,0.8c-0.2,0.2-0.5,0.3-0.8,0.3c-0.4,0-1-0.3-1.8-0.8c-0.8-0.5-1.9-1.1-3.2-1.7c-1.3-0.6-2.9-1.2-4.7-1.7
			c-1.8-0.5-3.9-0.8-6.3-0.8c-2.4,0-4.4,0.3-6.2,0.8c-1.8,0.5-3.3,1.3-4.4,2.3c-1.2,1-2,2.1-2.6,3.4c-0.6,1.3-0.9,2.7-0.9,4.3
			c0,2.1,0.5,3.9,1.5,5.4c1,1.5,2.3,2.7,4,3.8c1.7,1.1,3.5,2,5.7,2.8c2.1,0.8,4.3,1.6,6.5,2.5c2.2,0.8,4.3,1.7,6.5,2.7
			c2.1,1,4,2.2,5.7,3.6c1.7,1.4,3,3.1,4,5C730.2,317.7,730.7,320.1,730.7,322.8z"/>
	</g>
	<g id="four-letters">
		<path id="four-letter-f" class="st0" d="M825.5,246.6c0,0.7,0,1.2-0.1,1.6c-0.1,0.4-0.2,0.7-0.3,1c-0.1,0.2-0.3,0.4-0.5,0.5
			c-0.2,0.1-0.4,0.1-0.6,0.1c-0.4,0-0.9-0.1-1.4-0.4c-0.6-0.2-1.2-0.5-2.1-0.8c-0.8-0.3-1.8-0.6-2.9-0.8c-1.1-0.2-2.5-0.4-4-0.4
			c-2.1,0-3.9,0.3-5.4,1c-1.5,0.7-2.6,1.7-3.5,3.1c-0.9,1.4-1.5,3.3-1.9,5.5c-0.4,2.3-0.6,5-0.6,8.2v7.8h16.7c0.4,0,0.7,0.1,0.9,0.2
			c0.3,0.1,0.5,0.4,0.7,0.7s0.4,0.7,0.5,1.2c0.1,0.5,0.2,1,0.2,1.6c0,1.2-0.2,2.1-0.6,2.7s-0.9,0.9-1.6,0.9h-16.7v59.9
			c0,0.3-0.1,0.6-0.2,0.8c-0.2,0.2-0.4,0.4-0.7,0.6c-0.3,0.1-0.8,0.3-1.4,0.4c-0.6,0.1-1.3,0.1-2.2,0.1c-0.9,0-1.6,0-2.2-0.1
			c-0.6-0.1-1-0.2-1.4-0.4c-0.4-0.1-0.6-0.3-0.7-0.6c-0.1-0.2-0.2-0.5-0.2-0.8v-59.9h-10.3c-0.7,0-1.2-0.3-1.6-0.9
			c-0.4-0.6-0.6-1.5-0.6-2.7c0-0.6,0.1-1.2,0.2-1.6c0.1-0.5,0.2-0.8,0.4-1.2s0.4-0.5,0.7-0.7c0.3-0.1,0.6-0.2,0.9-0.2h10.3v-7.5
			c0-4.6,0.4-8.5,1.3-11.8c0.9-3.2,2.1-5.9,3.9-7.9c1.7-2,3.9-3.5,6.5-4.4c2.6-0.9,5.7-1.4,9.1-1.4c1.7,0,3.4,0.2,5,0.5
			c1.6,0.3,2.8,0.7,3.7,1c0.8,0.4,1.4,0.7,1.7,0.9c0.3,0.3,0.5,0.6,0.7,1c0.2,0.4,0.3,0.8,0.4,1.3
			C825.4,245.4,825.5,245.9,825.5,246.6z"/>
		<path id="four-letter-o" class="st0" d="M911.5,306.8c0,5.2-0.7,10-2.1,14.5c-1.4,4.4-3.5,8.2-6.3,11.5c-2.8,3.2-6.3,5.8-10.4,7.6
			c-4.2,1.8-9,2.7-14.6,2.7c-5.3,0-10-0.8-14-2.4c-4-1.6-7.3-3.9-10-7c-2.7-3-4.7-6.7-6-11c-1.3-4.3-2-9.2-2-14.6
			c0-5.2,0.7-10,2.1-14.5c1.4-4.4,3.5-8.2,6.3-11.4c2.8-3.2,6.3-5.7,10.4-7.5c4.2-1.8,9.1-2.7,14.6-2.7c5.3,0,10,0.8,14,2.4
			c4,1.6,7.3,3.9,10,6.9c2.7,3,4.7,6.7,6,11C910.8,296.6,911.5,301.4,911.5,306.8z M902,307.6c0-3.7-0.4-7.3-1.1-10.7
			c-0.8-3.4-2-6.4-3.8-9c-1.8-2.6-4.1-4.6-7.1-6.2c-3-1.5-6.7-2.3-11.1-2.3c-4.1,0-7.6,0.7-10.6,2.1c-3,1.4-5.4,3.4-7.3,5.8
			c-1.9,2.5-3.3,5.4-4.2,8.8c-0.9,3.4-1.4,7-1.4,11c0,3.8,0.4,7.4,1.1,10.8c0.8,3.4,2,6.4,3.8,9c1.8,2.6,4.1,4.6,7.1,6.1
			c3,1.5,6.7,2.3,11.1,2.3c4.1,0,7.6-0.7,10.6-2.1c3-1.4,5.4-3.3,7.3-5.8s3.3-5.4,4.2-8.8C901.5,315.2,902,311.6,902,307.6z"/>
		<path id="four-letter-u" class="st0" d="M1005.2,340.3c0,0.3-0.1,0.6-0.2,0.8c-0.1,0.2-0.4,0.4-0.7,0.6c-0.4,0.1-0.8,0.3-1.4,0.4
			c-0.6,0.1-1.2,0.1-2,0.1c-0.9,0-1.6,0-2.2-0.1c-0.6-0.1-1-0.2-1.3-0.4c-0.3-0.1-0.5-0.3-0.6-0.6c-0.1-0.2-0.2-0.5-0.2-0.8V331
			c-3.9,4.2-7.8,7.3-11.5,9.2c-3.7,1.9-7.5,2.8-11.2,2.8c-4.5,0-8.3-0.7-11.3-2.2c-3.1-1.5-5.5-3.4-7.4-5.9
			c-1.9-2.5-3.2-5.4-4.1-8.7c-0.8-3.3-1.2-7.3-1.2-11.9v-39.7c0-0.3,0.1-0.6,0.2-0.8c0.1-0.2,0.4-0.4,0.7-0.6
			c0.4-0.2,0.8-0.3,1.4-0.4c0.6-0.1,1.3-0.1,2.1-0.1c0.9,0,1.6,0,2.2,0.1c0.6,0.1,1,0.2,1.4,0.4c0.3,0.2,0.6,0.4,0.7,0.6
			c0.2,0.2,0.2,0.5,0.2,0.8v38.9c0,4.1,0.3,7.4,1,10c0.7,2.6,1.6,4.8,2.9,6.6c1.3,1.8,3,3.2,5,4.2c2,1,4.4,1.5,7.1,1.5
			c3.5,0,6.9-1.2,10.4-3.6c3.4-2.4,7.1-5.9,11-10.5v-47.1c0-0.3,0.1-0.6,0.2-0.8c0.1-0.2,0.4-0.4,0.7-0.6c0.4-0.2,0.8-0.3,1.4-0.4
			c0.6-0.1,1.3-0.1,2.2-0.1c0.9,0,1.6,0,2.2,0.1c0.6,0.1,1,0.2,1.4,0.4c0.3,0.2,0.6,0.4,0.7,0.6c0.2,0.2,0.2,0.5,0.2,0.8V340.3z"/>
		<path id="four-letter-r" class="st0" d="M1086.9,277.9c0,0.7,0,1.3-0.1,1.9c-0.1,0.5-0.1,0.9-0.3,1.2c-0.1,0.3-0.3,0.6-0.5,0.7
			c-0.2,0.2-0.4,0.3-0.7,0.3c-0.5,0-1-0.1-1.6-0.3c-0.6-0.2-1.3-0.4-2.1-0.7c-0.8-0.2-1.7-0.5-2.6-0.7c-1-0.2-2-0.3-3.2-0.3
			c-1.4,0-2.7,0.3-4,0.8c-1.3,0.6-2.7,1.5-4.1,2.7c-1.4,1.2-2.9,2.9-4.5,4.9c-1.6,2-3.3,4.5-5.2,7.5v44.5c0,0.3-0.1,0.6-0.2,0.8
			c-0.2,0.2-0.4,0.4-0.7,0.6c-0.3,0.1-0.8,0.3-1.4,0.4c-0.6,0.1-1.3,0.1-2.2,0.1c-0.9,0-1.6,0-2.1-0.1c-0.6-0.1-1-0.2-1.4-0.4
			c-0.4-0.1-0.6-0.3-0.7-0.6c-0.1-0.2-0.2-0.5-0.2-0.8v-65.7c0-0.3,0.1-0.6,0.2-0.8c0.1-0.2,0.4-0.4,0.7-0.6
			c0.4-0.2,0.8-0.3,1.3-0.4s1.2-0.1,2.1-0.1c0.9,0,1.6,0,2.1,0.1c0.6,0.1,1,0.2,1.3,0.4c0.3,0.2,0.5,0.4,0.6,0.6
			c0.1,0.2,0.2,0.5,0.2,0.8V285c2-2.8,3.8-5,5.4-6.7c1.7-1.7,3.2-3,4.8-4c1.5-0.9,3-1.6,4.4-1.9c1.4-0.3,2.9-0.5,4.4-0.5
			c0.7,0,1.4,0,2.3,0.1c0.9,0.1,1.8,0.2,2.8,0.4c1,0.2,1.9,0.4,2.6,0.7c0.8,0.3,1.3,0.5,1.6,0.7c0.3,0.2,0.5,0.4,0.6,0.6
			c0.1,0.2,0.2,0.4,0.3,0.7c0.1,0.3,0.1,0.6,0.2,1.1C1086.8,276.6,1086.9,277.2,1086.9,277.9z"/>
		<path id="four-dot" class="st0" d="M1116.9,335.3c0,2.9-0.5,4.7-1.4,5.7c-1,0.9-2.7,1.4-5.1,1.4c-2.4,0-4-0.4-4.9-1.3
			c-0.9-0.9-1.4-2.7-1.4-5.6c0-2.9,0.5-4.7,1.4-5.7c1-0.9,2.7-1.4,5.1-1.4c2.4,0,4,0.4,4.9,1.3
			C1116.5,330.6,1116.9,332.5,1116.9,335.3z"/>
	</g>
</g>
</svg>
