<?xml version="1.0" encoding="utf-8"?>
<!-- Generator: Adobe Illustrator 24.3.0, SVG Export Plug-In . SVG Version: 6.00 Build 0)  -->
<svg version="1.1" id="focus-four-me-logo-5" xmlns="http://www.w3.org/2000/svg" xmlns:xlink="http://www.w3.org/1999/xlink"
	 x="0px" y="0px" viewBox="0 0 864 864" style="enable-background:new 0 0 864 864;" xml:space="preserve">
<style type="text/css">
	.st0{fill:#00BB00;}
</style>
<g id="focus-four-me-logo-5-parts">
	<path id="focus-word" d="M109.5,388.4c0.1,0.5,0.2,0.9,0.2,1.3c0,0.5,0,0.9-0.1,1.2c-0.1,0.3-0.1,0.5-0.2,0.7
		c-0.1,0.2-0.2,0.3-0.3,0.4c-0.1,0.1-0.3,0.1-0.5,0.1c-0.3,0-0.6-0.1-1-0.3c-0.4-0.2-0.9-0.4-1.5-0.6c-0.6-0.2-1.3-0.4-2.1-0.6
		s-1.8-0.3-2.9-0.3c-1.5,0-2.8,0.2-3.9,0.7c-1.1,0.5-1.9,1.2-2.6,2.3c-0.7,1-1.1,2.4-1.4,4c-0.3,1.6-0.4,3.6-0.4,5.9v5.6h12.1
		c0.3,0,0.5,0.1,0.7,0.2c0.2,0.1,0.3,0.3,0.5,0.5c0.1,0.2,0.3,0.5,0.3,0.8c0.1,0.3,0.1,0.7,0.1,1.2c0,0.9-0.1,1.5-0.4,2
		c-0.3,0.4-0.7,0.7-1.1,0.7H92.8v43.3c0,0.2-0.1,0.4-0.2,0.6c-0.1,0.2-0.3,0.3-0.5,0.4c-0.2,0.1-0.6,0.2-1,0.3
		c-0.4,0.1-1,0.1-1.6,0.1c-0.6,0-1.1,0-1.6-0.1c-0.4-0.1-0.8-0.2-1-0.3c-0.3-0.1-0.4-0.2-0.5-0.4c-0.1-0.2-0.1-0.4-0.1-0.6v-43.3
		h-7.4c-0.5,0-0.9-0.2-1.2-0.7s-0.4-1.1-0.4-2c0-0.5,0-0.8,0.1-1.2c0.1-0.3,0.2-0.6,0.3-0.8c0.1-0.2,0.3-0.4,0.5-0.5
		c0.2-0.1,0.4-0.2,0.7-0.2h7.4v-5.4c0-3.3,0.3-6.2,0.9-8.5s1.6-4.3,2.8-5.7c1.3-1.5,2.8-2.5,4.7-3.2c1.9-0.7,4.1-1,6.6-1
		c1.2,0,2.4,0.1,3.6,0.3c1.2,0.2,2,0.5,2.6,0.7c0.6,0.3,1,0.5,1.2,0.7s0.4,0.4,0.5,0.7S109.4,388,109.5,388.4z M170.4,422.8
		c0.9,3,1.4,6.5,1.4,10.4c0,3.8-0.5,7.3-1.5,10.4c-1,3.2-2.5,5.9-4.6,8.3c-2,2.3-4.5,4.2-7.5,5.5s-6.5,2-10.5,2
		c-3.9,0-7.2-0.6-10.1-1.8c-2.9-1.2-5.3-2.9-7.2-5c-1.9-2.2-3.4-4.8-4.4-8c-1-3.1-1.4-6.6-1.4-10.5c0-3.8,0.5-7.3,1.5-10.4
		c1-3.2,2.5-5.9,4.5-8.3c2-2.3,4.5-4.1,7.5-5.4s6.5-1.9,10.6-1.9c3.9,0,7.2,0.6,10.1,1.7c2.9,1.2,5.3,2.8,7.2,5
		C167.9,417,169.4,419.6,170.4,422.8z M164.9,433.8c0-2.7-0.3-5.3-0.8-7.7s-1.5-4.6-2.7-6.5c-1.3-1.9-3-3.4-5.1-4.5
		c-2.1-1.1-4.8-1.7-8-1.7c-2.9,0-5.5,0.5-7.6,1.5c-2.1,1-3.9,2.4-5.3,4.2c-1.4,1.8-2.4,3.9-3,6.4c-0.7,2.4-1,5.1-1,7.9
		c0,2.7,0.3,5.3,0.8,7.8s1.5,4.6,2.7,6.5c1.3,1.9,3,3.3,5.1,4.4c2.1,1.1,4.8,1.6,8,1.6c2.9,0,5.5-0.5,7.6-1.5c2.1-1,3.9-2.4,5.3-4.2
		c1.4-1.8,2.4-3.9,3-6.3C164.6,439.3,164.9,436.7,164.9,433.8z M233.9,448.1c-0.1-0.3-0.2-0.5-0.4-0.6c-0.2-0.1-0.4-0.2-0.6-0.2
		c-0.4,0-1,0.3-1.8,1c-0.8,0.7-1.9,1.4-3.1,2.2c-1.3,0.8-2.7,1.5-4.4,2.2c-1.7,0.7-3.6,1-5.8,1c-2.4,0-4.5-0.4-6.3-1.2
		c-1.8-0.8-3.4-2-4.7-3.7c-1.3-1.6-2.3-3.7-3-6.2c-0.7-2.5-1-5.4-1-8.7c0-6.6,1.2-11.7,3.8-15.2c2.5-3.5,6.2-5.2,10.9-5.2
		c2.3,0,4.2,0.3,5.9,0.9c1.6,0.7,3,1.3,4.2,2.1c1.2,0.8,2.2,1.5,2.9,2.1c0.8,0.6,1.4,0.9,1.9,0.9c0.4,0,0.7-0.2,1-0.6
		c0.3-0.4,0.5-1.1,0.5-2.1c0-0.5-0.1-0.9-0.1-1.2s-0.1-0.6-0.2-0.9c-0.1-0.3-0.2-0.6-0.4-0.8c-0.1-0.2-0.4-0.6-0.9-1
		c-0.5-0.4-1.2-1-2.2-1.6c-1-0.7-2.1-1.2-3.4-1.7c-1.2-0.5-2.6-0.9-4.1-1.2s-3.1-0.4-4.7-0.4c-3.1,0-5.9,0.5-8.6,1.5s-5,2.5-7,4.6
		c-2,2.1-3.6,4.8-4.7,8.1c-1.1,3.3-1.7,7.3-1.7,11.9c0,4.1,0.5,7.7,1.4,10.8c1,3.1,2.3,5.7,4.1,7.9c1.8,2.2,4,3.8,6.6,4.9
		c2.7,1.1,5.7,1.7,9.1,1.7c1.7,0,3.4-0.2,5-0.5c1.6-0.3,3.1-0.8,4.5-1.3c1.3-0.5,2.6-1.1,3.7-1.8c1.1-0.7,1.9-1.2,2.4-1.7
		s0.8-0.8,0.9-1c0.1-0.2,0.2-0.5,0.3-0.7c0.1-0.3,0.2-0.6,0.2-0.9c0.1-0.3,0.1-0.7,0.1-1.1c0-0.5,0-0.9-0.1-1.4
		C234.1,448.7,234,448.4,233.9,448.1z M299.7,409c-0.3-0.2-0.6-0.2-1-0.3c-0.5-0.1-1-0.1-1.6-0.1c-0.6,0-1.2,0-1.6,0.1
		c-0.4,0.1-0.7,0.2-1,0.3c-0.2,0.1-0.4,0.2-0.5,0.4c-0.1,0.2-0.1,0.4-0.1,0.6v33.9c-2.8,3.4-5.4,5.9-7.9,7.6s-5,2.6-7.5,2.6
		c-2,0-3.7-0.4-5.2-1.1c-1.4-0.7-2.7-1.7-3.6-3c-0.9-1.3-1.6-2.8-2.1-4.7s-0.7-4.3-0.7-7.2V410c0-0.2-0.1-0.4-0.2-0.6
		c-0.1-0.1-0.3-0.3-0.5-0.4c-0.3-0.2-0.6-0.2-1-0.3c-0.4-0.1-0.9-0.1-1.6-0.1s-1.2,0-1.6,0.1c-0.4,0.1-0.7,0.2-1,0.3
		c-0.2,0.1-0.4,0.2-0.5,0.4c-0.1,0.2-0.1,0.4-0.1,0.6v28.6c0,3.4,0.3,6.2,0.9,8.6c0.6,2.4,1.5,4.5,2.9,6.3c1.4,1.8,3.2,3.3,5.4,4.3
		c2.2,1.1,5,1.6,8.2,1.6c2.7,0,5.4-0.6,8.1-2c2.7-1.4,5.5-3.6,8.3-6.6v6.7c0,0.2,0,0.4,0.1,0.6c0.1,0.2,0.3,0.3,0.5,0.4
		c0.2,0.1,0.5,0.2,0.9,0.3c0.4,0.1,0.9,0.1,1.6,0.1c0.6,0,1.1,0,1.5-0.1c0.4-0.1,0.7-0.2,1-0.3c0.2-0.1,0.4-0.2,0.5-0.4
		c0.1-0.2,0.1-0.4,0.1-0.6h0V410c0-0.2-0.1-0.4-0.2-0.6C300.1,409.3,299.9,409.1,299.7,409z M360.1,439.5c-0.7-1.4-1.7-2.6-2.9-3.6
		s-2.6-1.9-4.1-2.6c-1.6-0.7-3.1-1.4-4.7-2c-1.6-0.6-3.2-1.2-4.7-1.8c-1.5-0.5-2.9-1.2-4.1-2c-1.2-0.7-2.2-1.6-2.9-2.7
		c-0.7-1.1-1.1-2.4-1.1-3.9c0-1.1,0.2-2.2,0.6-3.1c0.4-1,1.1-1.8,1.9-2.5c0.8-0.7,1.9-1.2,3.2-1.6c1.3-0.4,2.8-0.6,4.5-0.6
		s3.2,0.2,4.5,0.6c1.3,0.4,2.5,0.8,3.4,1.3c1,0.5,1.7,0.9,2.3,1.3c0.6,0.4,1,0.6,1.3,0.6c0.2,0,0.4-0.1,0.6-0.2
		c0.2-0.2,0.3-0.4,0.4-0.6c0.1-0.3,0.1-0.6,0.2-0.9c0.1-0.3,0.1-0.7,0.1-1.1c0-0.4-0.1-0.8-0.1-1.1s0-0.6-0.1-0.8s-0.2-0.4-0.3-0.6
		c-0.2-0.2-0.4-0.4-0.8-0.7s-1-0.6-1.7-1c-0.7-0.3-1.6-0.7-2.6-1c-1-0.4-2.1-0.6-3.3-0.8c-1.2-0.2-2.5-0.3-3.7-0.3
		c-2.9,0-5.4,0.4-7.5,1.2c-2.1,0.7-3.9,1.7-5.2,3s-2.3,2.7-3,4.3c-0.7,1.6-1,3.3-1,4.9c0,2.1,0.4,3.8,1.1,5.3
		c0.8,1.5,1.7,2.8,2.9,3.8c1.1,1.1,2.5,2,4,2.7s3,1.4,4.6,2c1.5,0.6,3.1,1.2,4.6,1.8c1.5,0.6,2.8,1.3,4,2c1.2,0.7,2.2,1.6,2.9,2.6
		s1.1,2.2,1.1,3.7s-0.2,2.8-0.8,3.9c-0.6,1.1-1.4,2-2.4,2.7s-2.2,1.3-3.6,1.6c-1.4,0.3-2.9,0.5-4.6,0.5c-2.1,0-3.9-0.2-5.5-0.7
		c-1.6-0.5-2.9-1-4.1-1.6c-1.2-0.6-2.1-1.1-2.9-1.6c-0.7-0.5-1.3-0.7-1.7-0.7c-0.2,0-0.5,0-0.6,0.2c-0.1,0.2-0.3,0.4-0.4,0.6
		c-0.1,0.3-0.2,0.6-0.3,0.9c-0.1,0.3-0.1,0.7-0.1,1.2c0,0.9,0.1,1.6,0.3,2.1c0.2,0.5,0.5,1,0.9,1.3c0.4,0.3,1,0.7,1.9,1.2
		c0.8,0.5,1.9,0.9,3.1,1.3c1.2,0.4,2.6,0.7,4.1,1c1.6,0.3,3.2,0.4,4.9,0.4c2.8,0,5.2-0.3,7.5-1c2.2-0.7,4.2-1.6,5.8-2.9
		c1.6-1.3,2.8-2.8,3.7-4.6c0.9-1.8,1.3-3.8,1.3-6.1C361,442.8,360.6,441.1,360.1,439.5z"/>
	<path id="four-word" class="st0" d="M429.4,388.4c0.1,0.4,0.1,0.9,0.1,1.3c0,0.5,0,0.9-0.1,1.2c-0.1,0.3-0.1,0.5-0.2,0.7
		c-0.1,0.2-0.2,0.3-0.3,0.4c-0.1,0.1-0.3,0.1-0.5,0.1c-0.3,0-0.6-0.1-1-0.3c-0.4-0.2-0.9-0.4-1.5-0.6c-0.6-0.2-1.3-0.4-2.1-0.6
		c-0.8-0.2-1.8-0.3-2.9-0.3c-1.5,0-2.8,0.2-3.9,0.7c-1.1,0.5-1.9,1.2-2.6,2.3c-0.7,1-1.1,2.4-1.4,4c-0.3,1.6-0.4,3.6-0.4,5.9v5.6
		h12.1c0.3,0,0.5,0.1,0.7,0.2c0.2,0.1,0.3,0.3,0.5,0.5s0.3,0.5,0.3,0.8c0.1,0.3,0.1,0.7,0.1,1.2c0,0.9-0.1,1.5-0.4,2
		s-0.7,0.7-1.1,0.7h-12.1v43.3c0,0.2-0.1,0.4-0.2,0.6c-0.1,0.2-0.3,0.3-0.5,0.4c-0.2,0.1-0.6,0.2-1,0.3c-0.4,0.1-1,0.1-1.6,0.1
		c-0.6,0-1.1,0-1.6-0.1c-0.4-0.1-0.8-0.2-1-0.3c-0.3-0.1-0.4-0.2-0.5-0.4c-0.1-0.2-0.1-0.4-0.1-0.6v-43.3h-7.4
		c-0.5,0-0.9-0.2-1.2-0.7c-0.3-0.4-0.4-1.1-0.4-2c0-0.5,0-0.8,0.1-1.2c0.1-0.3,0.2-0.6,0.3-0.8c0.1-0.2,0.3-0.4,0.5-0.5
		c0.2-0.1,0.4-0.2,0.7-0.2h7.4v-5.4c0-3.3,0.3-6.2,0.9-8.5c0.6-2.3,1.6-4.3,2.8-5.7c1.3-1.5,2.8-2.5,4.7-3.2s4.1-1,6.6-1
		c1.2,0,2.4,0.1,3.6,0.3c1.2,0.2,2,0.5,2.6,0.7c0.6,0.3,1,0.5,1.2,0.7s0.4,0.4,0.5,0.7C429.2,387.7,429.3,388,429.4,388.4z
		 M490.2,422.8c0.9,3,1.4,6.5,1.4,10.4c0,3.8-0.5,7.3-1.5,10.4c-1,3.2-2.5,5.9-4.6,8.3c-2,2.3-4.5,4.2-7.5,5.5s-6.5,2-10.5,2
		c-3.9,0-7.2-0.6-10.1-1.8c-2.9-1.2-5.3-2.9-7.2-5c-1.9-2.2-3.4-4.8-4.4-8c-1-3.1-1.4-6.6-1.4-10.5c0-3.8,0.5-7.3,1.5-10.4
		c1-3.2,2.5-5.9,4.5-8.3c2-2.3,4.5-4.1,7.5-5.4s6.5-1.9,10.6-1.9c3.9,0,7.2,0.6,10.1,1.7c2.9,1.2,5.3,2.8,7.2,5
		C487.7,417,489.2,419.6,490.2,422.8z M484.7,433.8c0-2.7-0.3-5.3-0.8-7.7s-1.5-4.6-2.7-6.5c-1.3-1.9-3-3.4-5.1-4.5
		c-2.1-1.1-4.8-1.7-8-1.7c-2.9,0-5.5,0.5-7.6,1.5c-2.1,1-3.9,2.4-5.3,4.2c-1.4,1.8-2.4,3.9-3,6.4c-0.7,2.4-1,5.1-1,7.9
		c0,2.7,0.3,5.3,0.8,7.8s1.5,4.6,2.7,6.5c1.3,1.9,3,3.3,5.1,4.4c2.1,1.1,4.8,1.6,8,1.6c2.9,0,5.5-0.5,7.6-1.5c2.1-1,3.9-2.4,5.3-4.2
		c1.4-1.8,2.4-3.9,3-6.3C484.4,439.3,484.7,436.7,484.7,433.8z M559.3,410c0-0.2-0.1-0.4-0.2-0.6c-0.1-0.1-0.2-0.2-0.5-0.4
		c-0.3-0.2-0.6-0.2-1-0.3c-0.5-0.1-1-0.1-1.6-0.1s-1.2,0-1.6,0.1s-0.7,0.2-1,0.3c-0.2,0.1-0.4,0.2-0.5,0.4s-0.1,0.4-0.1,0.6v33.9
		c-2.8,3.4-5.4,5.9-7.9,7.6s-5,2.6-7.5,2.6c-2,0-3.7-0.4-5.2-1.1c-1.4-0.7-2.7-1.7-3.6-3c-0.9-1.3-1.6-2.8-2.1-4.7s-0.7-4.3-0.7-7.2
		V410c0-0.2-0.1-0.4-0.2-0.6c-0.1-0.1-0.2-0.2-0.5-0.4c-0.3-0.2-0.6-0.2-1-0.3c-0.4-0.1-0.9-0.1-1.6-0.1c-0.7,0-1.2,0-1.6,0.1
		c-0.4,0.1-0.7,0.2-1,0.3c-0.2,0.1-0.4,0.2-0.5,0.4s-0.1,0.4-0.1,0.6v28.6c0,3.4,0.3,6.2,0.9,8.6c0.6,2.4,1.5,4.5,2.9,6.3
		s3.2,3.3,5.4,4.3c2.2,1.1,5,1.6,8.2,1.6c2.7,0,5.4-0.6,8.1-2c2.7-1.4,5.5-3.6,8.3-6.6v6.7c0,0.2,0,0.4,0.1,0.6s0.3,0.3,0.5,0.4
		c0.2,0.1,0.5,0.2,0.9,0.3c0.4,0.1,0.9,0.1,1.6,0.1c0.6,0,1.1,0,1.5-0.1s0.7-0.2,1-0.3c0.2-0.1,0.4-0.2,0.5-0.4s0.1-0.4,0.1-0.6h0
		V410z M618,410.3c-0.1-0.2-0.1-0.4-0.2-0.5c0-0.1-0.2-0.2-0.4-0.4c-0.2-0.1-0.6-0.3-1.2-0.5s-1.2-0.4-1.9-0.5
		c-0.7-0.2-1.4-0.2-2-0.3c-0.6-0.1-1.1-0.1-1.6-0.1c-1.1,0-2.2,0.2-3.2,0.4c-1,0.3-2.1,0.7-3.2,1.4c-1.1,0.7-2.2,1.7-3.4,2.9
		c-1.2,1.2-2.5,2.8-3.9,4.8V410c0-0.2,0-0.4-0.1-0.6c-0.1-0.1-0.3-0.3-0.5-0.4c-0.2-0.2-0.5-0.2-0.9-0.3c-0.4-0.1-0.9-0.1-1.5-0.1
		s-1.1,0-1.5,0.1s-0.7,0.2-1,0.3c-0.2,0.1-0.4,0.2-0.5,0.4s-0.1,0.4-0.1,0.6v47.4c0,0.2,0,0.4,0.1,0.6s0.2,0.3,0.5,0.4
		c0.2,0.1,0.6,0.2,1,0.3c0.5,0.1,1,0.1,1.6,0.1s1.2,0,1.6-0.1s0.8-0.2,1-0.3c0.2-0.1,0.4-0.2,0.5-0.4c0.1-0.2,0.2-0.4,0.2-0.6v-32.1
		c1.4-2.1,2.7-3.9,3.8-5.4c1.2-1.4,2.3-2.6,3.3-3.5c1.1-0.9,2.1-1.5,3-1.9c1-0.4,1.9-0.6,2.9-0.6c0.8,0,1.6,0,2.3,0.2
		s1.3,0.3,1.9,0.5s1.1,0.3,1.5,0.5c0.4,0.1,0.8,0.2,1.1,0.2c0.2,0,0.4-0.1,0.5-0.2c0.1-0.1,0.2-0.3,0.3-0.5c0.1-0.2,0.2-0.5,0.2-0.9
		c0.1-0.3,0.1-0.8,0.1-1.3s0-1-0.2-1.3C618.1,410.8,618.1,410.5,618,410.3z M639,449.8c-0.7-0.7-1.9-1-3.6-1c-1.8,0-3,0.3-3.7,1
		s-1,2-1,4.1c0,2,0.3,3.4,1,4c0.7,0.7,1.9,1,3.6,1c1.8,0,3-0.3,3.7-1s1-2,1-4.1C640,451.8,639.7,450.4,639,449.8z"/>
	<path id="me-word" d="M739,417c-0.2-0.1-0.7-0.1-1.2-0.1s-1.1,0-1.6,0.1l-1.2,0.2c-0.6,0-0.6-0.2-0.7-1.1c0-0.7,0-1-0.1-1
		c-0.1,0-0.2,0.2-0.4,0.7c-0.3,0.5-0.6,1-0.8,1c0,0-0.1-0.1-0.1-0.2l0.2-0.8c0-0.2,0-0.3-0.2-0.3s-0.6-0.5-0.7-1
		c-0.2-0.5-0.5-0.8-0.7-0.8h-0.1c-1.2,0.5-14.3,11.5-22.8,19.2c-2.9,2.7-5.4,4.8-5.6,4.8c-0.1,0-0.1-0.1-0.1-0.3
		c0-0.5,0.2-1.9,0.4-3.4c0.3-2.3,0.5-4.3,0.5-5.8c0-4.3-1.4-5.7-4.8-5.8c-1.8,0-2.3-0.2-2.5-0.9c-0.1-0.8-0.5-1.3-1.2-1.3
		c-1.4,0-4.3,2.2-9.4,7.1c-2.4,2.3-4.5,4.1-4.8,4.1l-0.1-0.1c0-0.4,0.3-1.6,0.7-2.9c0.5-1.4,0.7-2.7,0.7-3.6c0-1-0.2-1.8-0.7-2.1
		c-0.2-0.1-0.3-0.2-0.5-0.2c-0.3,0-0.5,0.3-0.8,1c-0.4,0.8-0.8,1.5-1.2,1.8c-0.3,0.3-1.1,1.9-1.8,3.7c-0.7,1.8-1.5,3.9-1.9,4.7
		c-0.4,0.8-1,2.2-1.3,3.2c-1.2,3.3-4.1,8.6-5.1,9.5c-0.4,0.3-0.5,0.5-0.6,0.5s-0.1,0-0.1-0.1c0-0.1,0.3-0.8,1-2.2
		c0.7-1.6,2.5-5.7,4-9.4s3.3-8,4-9.5c0.8-2,1.2-2.8,1.2-3.1c0-0.1,0-0.1-0.1-0.1c-0.2,0-0.2,0-0.4,0.1c-0.5,0.3-1.6,2.5-4.8,9.9
		c-3.7,8.5-8.6,18.9-9.3,19.6h-0.1c0-0.4,1.1-3.1,2.7-6.6c1.9-4,4.4-9.5,5.5-12.1c1.1-2.6,2.7-6.4,3.7-8.4c1.2-2.4,1.6-3.4,1.6-3.7
		c0-0.2-0.1-0.2-0.4-0.2h-0.1c-0.7,0-3.6,5-5.7,9.9l-5.8,12.2c-4,8.3-5.5,11.8-5.5,13.4c0,0.3,0,0.5,0.1,0.7
		c0.4,0.9,2.4,1.9,3.8,1.9l1.1-0.1c0.5,0,0.7,0.1,0.7,0.3c0,1,1.5,2.2,2.7,2.2l0.4-0.1c1.4-0.3,2.5-1.6,9.1-11
		c7.2-10.3,14.1-18.9,15.2-18.9l0.1,0.1v0.1c0,0.4-0.3,1.8-0.8,3.5c-0.9,3.1-1.4,5.9-1.4,8c0,1.4,0.2,2.5,0.6,3.1
		c0.8,1.4,3.1,2.9,4.3,2.9c0.4,0,1.2,0.5,1.9,1.1c1,0.9,2.4,1.4,3.6,1.4c0.8,0,1.6-0.2,2.4-0.6c1.8-0.9,6.8-5.7,14.4-13.7
		c3.7-3.9,5.4-5.6,5.8-5.6c0,0,0.1,0,0.1,0.1c0,0.1-0.1,0.3-0.2,0.6c-0.2,0.4-1,3-1.8,5.8c-1.2,4.2-1.8,8.8-1.8,12.9
		c0,2.3,0.3,4.4,0.7,6.1c1.2,4.6,2.7,6.3,7.4,8.6c2.2,1,4.5,1.8,5,1.9c2.5,0,3.9-1.3,4.3-2.5c0-0.8-0.7-1.6-2.4-1.7
		c-1.7-0.1-2-0.3-2.4-1.5c-0.1-0.5-0.2-1.1-0.2-1.8c0-3.6,1.7-11.1,6.2-27c1.4-4.8,2.1-8.8,2.1-11.7
		C740.9,419.1,740.2,417.3,739,417z M686.7,428.4c0.3-0.2,0.4-0.3,0.5-0.3s0.1,0,0.1,0.1l-0.1,0.5c-0.2,0.4-0.6,0.6-0.8,0.6
		s-0.4-0.1-0.4-0.2C686,429,686.2,428.7,686.7,428.4z M691.1,428.4c-1.9,1.7-4.6,4.5-6.1,6.1c-1.5,1.6-4.1,4.8-5.8,7
		c-1.5,2-2.8,3.4-3.1,3.4c-0.1,0-0.1,0-0.1-0.1c0-2.1,4.5-7.9,11.7-15c4-3.9,5.9-5.6,6.6-5.6c0.1,0,0.2,0.1,0.2,0.3
		C694.5,424.9,693,426.6,691.1,428.4z M693.3,444c-0.1,0-0.1-0.4-0.1-1.3v-0.2c0-3.3,2.8-14.3,3.5-14.3h0.1v0.1
		c0,0.5-0.4,2.6-1.1,5.1c-0.6,2.8-1.4,6.4-1.8,8.2C693.5,443.3,693.4,444.1,693.3,444z M696.8,442.6c-0.3,0.1-0.3-0.2-0.3-0.7
		c0.1-0.4,0.1-0.5,0.2-0.5l0.1,0.2l0.1,0.5C696.9,442.4,696.9,442.5,696.8,442.6z M697.3,440.6C697.2,440.6,697.2,440.6,697.3,440.6
		c-0.1,0-0.2-0.2-0.2-0.7c0-0.4,0-0.7,0.1-0.7l0.1,0.2l0.1,0.6L697.3,440.6z M698.7,433.9c-0.3,0.1-0.3-0.2-0.3-0.7
		c0.1-0.4,0.1-0.5,0.2-0.5l0.1,0.2l0.1,0.5C698.8,433.7,698.8,433.8,698.7,433.9z M699.8,427.4c0,1.6-0.6,4.3-0.8,4.3l-0.1-0.2
		c0-0.3-0.1-0.5-0.1-0.5s-0.2,0.3-0.4,0.9c-0.1,0.5-0.2,1.2-0.2,1.9l0.1,1l0.1,1l-0.1,0.2c-0.1,0-0.2-0.2-0.3-0.5
		c-0.2-0.3-0.3-0.4-0.3-0.4s-0.1,0-0.1,0.2l0.2,2.1l-0.1,0.3l-0.2-0.2c-0.2,0-0.6,1-1,2.6c-0.4,1.8-1,3.3-1.3,3.4h-0.4
		c-0.1,0-0.2-0.1-0.2-0.3c0-0.8,0.6-2.9,1.8-8.6c1.4-6.4,2-8.3,2.6-8.4h0.3c0.3,0,0.5,0.3,0.5,0.9V427.4z M707,442.4
		c-0.5,0.5-0.8,0.8-0.9,0.8c0,0-0.1-0.1-0.1-0.2s0.3-0.5,0.8-0.8c0.4-0.3,0.5-0.4,0.6-0.4L707,442.4z M719.3,429.8l-0.2-0.1
		c-0.2,0-0.5,0.2-0.7,0.5l-0.1,0.3l0.1,0.1l0.5-0.2c0.1,0,0.1,0,0.1,0.1s0,0.2-0.1,0.3c-0.2,0.3-0.5,0.6-0.8,0.6h-0.2
		c-0.2,0-0.4,0.2-0.4,0.5c0,0.4-0.3,0.8-0.7,0.9l-0.4,0.1l-0.1-0.1c0,0,0.2-0.1,0.5-0.3c0.3-0.2,0.4-0.4,0.4-0.5l-0.1-0.1
		c-0.7,0-3.3,2.9-3.3,3.5l0.1,0.2c0,0-0.1,0.1-0.2,0.1l-0.8-0.2c-0.1,0-0.2,0-0.2,0.1l0.2,0.4l0.1,0.3l-0.1-0.1l-0.2-0.1
		c-0.4,0-0.9,0.3-1.6,0.9c-0.9,0.8-1.4,1.6-1.4,1.8c0,0.1,0,0.1,0.1,0.1s0.3-0.1,0.5-0.2l0.3-0.1v0.1c0,0.1,0,0.2-0.1,0.3
		c-0.1,0.2-0.3,0.3-0.5,0.3l-0.4-0.1c-0.4,0-2,1.3-3.7,2.9c-1.6,1.6-3,2.7-3.6,2.9c0-0.8,16.1-16.1,16.9-16.1l0.3,0.1
		c0.2,0,0.7-0.1,0.9-0.3l0.4-0.3h-0.1l-1.1,0.2c-0.1,0-0.2,0-0.2-0.1c0-0.4,3.4-3,3.9-3h0.1c0.1,0,0.2-0.1,0.2-0.2v-0.1
		c0-0.5,1.2-1.7,2.7-2.8l0.7-0.5l0.1,0.1c0,0.1-0.1,0.5-0.5,1.1C725.6,424.8,720.2,429.8,719.3,429.8z M723.6,459.3
		c-0.3,0-0.8-2-1-4.3l-0.1-1.6c0-3,0.7-7.1,2.1-12.5c0.6-2.1,1-4,1-4.7l-0.1-0.3l-0.1-0.2h0.1c0.1,0,0.1,0,0.3,0.1l0.3,0.1
		c0.1,0,0.1,0,0.1-0.2l-0.1-0.6c-0.1-0.4-0.1-0.6-0.1-0.7v-0.1c0.1,0,0.2,0.1,0.3,0.3c0.2,0.2,0.3,0.3,0.4,0.3c0.1,0,0.1-0.3,0.2-1
		c0.1-0.7,0.1-1.6,0.1-1.9c0-0.2,0.1-0.3,0.2-0.3l0.2,0.1l0.1,0.1c0.1,0,0.2-0.1,0.2-0.3l-0.1-0.7c-0.1-0.3-0.1-0.6-0.1-0.7
		c0-0.1,0-0.2,0.1-0.2l0.2,0.1l0.2,0.1c0.1,0,0.1,0,0.1-0.2c0-0.1,0-0.3-0.1-0.5l-0.1-0.5c0-0.1,0.1-0.2,0.2-0.2l0.2,0.1
		c0.2,0,0.5-0.5,0.6-1c0.2-0.7,0.4-1,0.5-1h0.1v0.1c0,0.4-0.5,2.4-1.2,4.6c-3.8,11.8-4.4,15.1-4.5,21.8L723.6,459.3z M727.2,460.2
		l-0.1,0.4c0,0-0.1-0.5-0.1-1.3s0-1.3,0.1-1.3l0.1,0.2l0.1,1L727.2,460.2z M727.2,455l-0.1,0.1c0,0-0.1-0.6-0.1-1.5
		c0-0.9,0-1.5,0.1-1.5l0.1,0.3l0.1,1.3L727.2,455z M728.1,447.7c-0.2,0-0.3-0.3-0.3-0.7c0.1-0.4,0.1-0.5,0.2-0.5l0.1,0.2l0.1,0.5
		C728.2,447.5,728.2,447.6,728.1,447.7z M728.6,453.6c-0.2,0.1-0.3-0.2-0.3-0.7c0.1-0.4,0.1-0.5,0.2-0.5l0.1,0.2l0.1,0.5
		C728.7,453.4,728.7,453.5,728.6,453.6z M730,460c-0.2,0.1-0.3-0.2-0.3-0.7c0.1-0.4,0.1-0.5,0.2-0.5l0.1,0.2l0.1,0.5
		C730.1,459.8,730.1,459.9,730,460z M731,449c-0.3,0.1-0.3-0.2-0.3-0.7c0.1-0.4,0.1-0.5,0.2-0.5l0.1,0.2l0.1,0.5
		C731.1,448.8,731.1,448.9,731,449z M731.4,435.8c-0.2,0-0.3-0.3-0.3-0.7c0.1-0.4,0.1-0.5,0.2-0.5l0.1,0.2l0.1,0.5
		C731.5,435.6,731.5,435.7,731.4,435.8z M733.5,428.6c-0.2,0.2-0.2,0.3-0.3,0.3s-0.1,0-0.1-0.1c0-0.3,0.1-0.8,0.4-1.4
		c0.1-0.3,0.2-0.5,0.3-0.5c0,0,0.1,0.1,0.1,0.3C733.9,427.6,733.7,428.2,733.5,428.6z M731.9,430.4c-4.1,13.1-5.9,20.7-5.9,25.7
		c0,0.8,0,1.5,0.1,2.2c0.1,1,0.2,1.6,0.2,2.1c0,0.3-0.1,0.5-0.2,0.4c-0.2,0-0.4-0.5-0.7-1.4c-0.5-1.6-0.8-3.3-0.8-5.4
		c0-3.6,0.9-8.2,2.7-14.3c3.1-10.6,5.4-16.6,6.4-16.6l0.2,0.1C733.9,423.5,733,426.7,731.9,430.4z M735.2,433.9
		c-0.2,0.1-0.3-0.2-0.3-0.7c0.1-0.4,0.1-0.5,0.2-0.5l0.1,0.2l0.1,0.5C735.3,433.7,735.3,433.8,735.2,433.9z M738.6,422.3
		C738.5,422.3,738.5,422.4,738.6,422.3c-0.1,0-0.2-0.2-0.2-0.7c0-0.4,0-0.7,0.1-0.7l0.1,0.2l0.1,0.6L738.6,422.3z M724.5,424.7
		c0-0.1,0.4-0.5,0.8-0.8c0.4-0.3,0.5-0.4,0.6-0.4l-0.4,0.6c-0.5,0.5-0.8,0.8-0.9,0.8C724.6,424.9,724.5,424.9,724.5,424.7z
		 M699.1,428.1l0.1,0.6l-0.1,0.6c-0.1,0.1-0.1,0.1-0.1,0.1s-0.1-0.4-0.1-0.8c0-0.5,0.1-0.7,0.1-0.7L699.1,428.1z M800.2,446.6
		l-0.2-0.1c-0.5,0-1.8,1-4.2,3.5c-2.2,2.2-4.1,4-4.3,4s-1.1,0.4-1.9,1l-0.2,0.1c-0.1,0-0.1,0-0.1-0.1c0-0.2,1-1.4,2.5-2.9
		c2-2.1,3.7-4,3.7-4.3c0-0.1-0.1-0.2-0.2-0.2l-0.5,0.3c-0.2,0.2-0.4,0.3-0.5,0.3c-0.2,0-0.3-0.2-0.4-0.5l-0.1-0.3
		c0-0.3,0-0.5,0.2-0.6c0.3-0.1,0.5-0.5,0.5-0.7c0-0.1-0.1-0.2-0.2-0.2c-0.5,0-2.1,1.2-5.6,4c-6.4,5.3-12.3,8.1-19,8.8l-2.8,0.3
		c-0.9-2.1-1.3-2.4-1.3-5c0-1.2,0.2-2.7,0.6-4.6c0.8-3.6,3.5-10.5,4.1-10.5c0.2,0,1.4,0.7,2.6,1.6c1.8,1.3,2.7,1.6,4.5,1.6
		c3.2,0,6.7-1.9,10.7-5.7c7-6.8,11.5-15.9,11.5-22.3c0-1.7-0.3-3.1-0.9-4.3c-0.8-1.6-1.4-2-3.1-2.6c-1.2-0.4-3-1.5-3.9-2.4
		c-1.3-1.2-1.7-1.5-2.8-1.5l-1.4,0.1c-1.4,0.2-3.3,0.7-4.4,1.2c-2.2,1.1-7,4.9-9.6,7.6c-8.4,8.8-17.3,24.5-19.6,34.3
		c-0.3,1.5-0.5,3-0.5,4.4c0,3.6,1.2,6.7,3.8,9.1c2,2,8.9,5.4,12.6,6.2c1.2,0.3,2.4,0.4,3.8,0.5c7.3,0,16.1-4,21.7-10.1
		c3.2-3.5,4.2-5.1,4.9-7.6c0.2-0.7,0.3-1.3,0.3-1.7C800.5,447,800.4,446.8,800.2,446.6z M774.6,435.9L774.6,435.9
		c-0.1-0.2,1-1.1,2.3-1.9c1-0.7,1.9-1.1,2.1-1C778.6,433.6,775,435.9,774.6,435.9z M794.4,411.6c0.1,0,0.4,0.9,0.5,2v0.8
		c0,0.6,0,1-0.1,1h-0.1c-0.1,0-0.5,0.7-0.8,1.7c-1.3,4.7-5,10.3-9.7,14.6c-1.6,1.3-3.3,2.8-4,3.1L780,435l-0.1-0.1
		c0-0.3,0.8-1.1,2-2.2c5.9-5.6,9.7-11.6,11.4-18.1C793.7,413,794.2,411.6,794.4,411.6z M792.9,411.7c0,0,0.1,0.1,0.1,0.4l-0.1,1
		c-0.2,1-1.4,3.7-2.6,5.9c-1.2,2.2-3.1,4.9-4,5.9c-0.8,0.8-1.2,1.3-1.2,1.4v-0.1l1.7-2.5c2.6-4,4.1-6.8,4.9-9.4
		C792.2,412.7,792.7,411.7,792.9,411.7z M789.6,413.2c0,0,0.1,0,0.1,0.1v0.1c0,0.9-2.4,5.4-4.3,8.1c-0.9,1.1-2.7,3.2-4.2,4.6
		c-2.5,2.4-6.3,5.2-6.9,5.2c0,0-0.1,0-0.1-0.1c0-0.6,5-8.1,7.4-11.1C784,417.2,788.7,413.2,789.6,413.2z M785.6,406.7l0.4-0.1
		c0.1,0,0.2,0,0.2,0.1l-0.1,0.2c-0.1,0.2-0.5,0.5-0.8,0.5s-0.4-0.1-0.4-0.2C784.9,407,785.1,406.9,785.6,406.7z M760,437.1
		c0-0.8,4.5-9.3,7.1-13.1c3.7-5.5,10.3-13,11.5-13l0.1,0.1c0,0.1-0.6,0.8-1.4,1.5c-3.5,3.2-7.9,8.7-10.6,13.2
		c-2.1,3.6-5.5,10.1-5.5,10.7c0,0.5-0.4,0.9-0.8,0.8C760.2,437.3,760.1,437.3,760,437.1L760,437.1z M756.7,450.6
		c-0.3,2.3-0.5,3.2-0.6,3.2c-0.1,0-0.1-0.6-0.1-1.9v-0.5c0-1.5,0.3-3.3,0.5-4.3c0.3-1.1,0.6-2.7,0.7-3.4c0.1-0.7,0.4-1.4,0.7-1.5
		c0.2,0,0.3-0.2,0.3-0.3l-0.1-0.4c0-0.9,1.3-3.4,1.8-3.4c0.1,0,0.2,0.1,0.2,0.3l-0.1,0.5c-0.2,0.4-0.8,2.3-1.5,4.2
		C757.8,444.9,757.1,448.3,756.7,450.6z M760.4,451.5c-0.2,2-0.4,3.7-0.4,3.9h-0.1c0,0-0.1-0.6-0.1-1.3c0-1.7,0.2-4.4,0.5-5.1
		l0.1-0.2c0,0,0.1,0.3,0.1,0.9L760.4,451.5z M759.1,452.7c0,1.5-0.1,2.7,0,2.6c-0.5,0-1.1-2.7-1.1-4.5c0-2.8,2.8-10.5,6.1-16.8
		c5.6-10.8,12-19,18.4-23.5c2-1.4,4.1-2.5,4.6-2.5c0.1,0,0.1,0,0.1,0.1l-0.1,0.3c0,0.1,0.1,0.1,0.2,0.1c0.2,0,0.4,0,0.7-0.1l0.8-0.2
		l0.1,0.1c0,0.1-0.6,0.4-1.7,1.1c-0.6,0.4-1,0.6-1.1,0.6v-0.1c0-0.1,0.1-0.3,0.3-0.5c0.3-0.3,0.4-0.5,0.4-0.6c0,0,0-0.1-0.1-0.1
		c-0.3,0-1,0.4-2.1,1.2c-2.6,1.8-7.8,7-10.3,10.3c-2.5,3.2-8,12.2-9.7,15.5C760.8,443.4,759.2,448.5,759.1,452.7z M782.3,458.3
		c-0.5,0.4-1.1,0.7-1.3,0.7c-0.1,0-0.1,0-0.1-0.1c0-0.1,0.1-0.4,0.5-0.6c0.5-0.4,1.1-0.7,1.4-0.7l0.1,0.1
		C782.9,457.8,782.7,458,782.3,458.3z M785.1,456.4c0,0.1-0.3,0.4-0.8,0.7c-0.4,0.3-0.7,0.4-0.8,0.3c0,0,0.2-0.2,0.6-0.6
		c0.4-0.4,0.7-0.6,0.9-0.6L785.1,456.4L785.1,456.4z M787.1,455.4c-0.2,0.2-0.5,0.4-0.8,0.5c-0.3,0-0.4,0-0.4-0.2s0.2-0.3,0.7-0.5
		l0.4-0.1c0.1,0,0.2,0,0.2,0.1L787.1,455.4z"/>
</g>
</svg>
