<?xml version="1.0" encoding="utf-8"?>
<!-- Generator: Adobe Illustrator 24.3.0, SVG Export Plug-In . SVG Version: 6.00 Build 0)  -->
<svg version="1.1" id="focus-four-me-logo-2" xmlns="http://www.w3.org/2000/svg" xmlns:xlink="http://www.w3.org/1999/xlink"
	 x="0px" y="0px" viewBox="0 0 864 864" style="enable-background:new 0 0 864 864;" xml:space="preserve">
<style type="text/css">
	.st0{fill:#DD1010;}
</style>
<g id="focus-four-me-logo-2-parts">
	<path id="product-link-logo-main" d="M652.5,578.7c0-0.1-0.1-0.3-0.1-0.4c-0.7-5.4-1.5-10.8-2.2-16.2c-0.5-3.8-1-7.5-1.7-11.3
		c-0.8-4.4-1.6-8.9-2.5-13.3c-2-10.7-4-21.4-6-32.1c-1.3-7.3-2.6-14.5-3.8-21.8c-1.4-7.9-2.7-15.8-4.2-23.7c-2.3-12-4.6-24-7.1-35.9
		c-2.8-12.9-8.1-24.7-14.8-36c-5-8.4-10.4-16.5-16.9-23.8c-3.5-3.9-7.3-7.5-11-11.2c-2.9-2.8-5.8-5.7-8.8-8.3
		c-1.9-1.7-4.1-3-6.3-4.5c-5.3-3.6-10.5-7.3-15.9-10.7c-7.3-4.6-15.2-7.9-23.3-10.7c-2-0.7-3.7-1.6-5.3-3.1c0.4-0.7,0.8-1.4,1.3-2.1
		c6.1-9.1,12.2-18.1,18.2-27.3c4.2-6.4,8.4-12.7,11.9-19.6c5.3-10.6,8.9-21.7,11.5-33.2c1.5-6.8,2.7-13.7,3.1-20.7
		c0.5-7.5,0.4-15-0.6-22.4c-0.2-1.7-0.1-3.4-0.3-5.1c-0.9-9.2-2.6-18.3-6-27c-1.1-2.8-1.8-5.8-3-8.6c-0.5-1.2-1-2.4-1.5-3.6
		c-0.2-0.4-0.3-0.7-0.5-1.1c-0.4-0.8-0.8-1.6-1.2-2.5c-0.2-0.4-0.4-0.8-0.6-1.2c-0.4-0.8-0.8-1.7-1.3-2.5c-0.2-0.3-0.3-0.6-0.5-1
		c-0.6-1.1-1.2-2.2-1.9-3.3c-0.1-0.2-0.3-0.4-0.4-0.7c-0.5-0.9-1.1-1.7-1.6-2.6c-0.2-0.4-0.5-0.7-0.7-1.1c-0.5-0.7-1-1.4-1.5-2.1
		c-0.3-0.4-0.5-0.7-0.8-1.1c-0.1-0.2-0.3-0.4-0.4-0.6c-0.4-0.5-0.8-1-1.2-1.5c-0.3-0.4-0.6-0.7-0.8-1.1c-0.8-1-1.7-2-2.5-3
		c-2.7-3.1-5-6.5-7.9-9.5c-12.9-13.2-28.1-22.9-45.2-29.6c-11.4-4.5-23.2-7.2-35.4-7.9c-2.4-0.1-4.8-0.4-7.2-0.5
		c-1.3-0.1-2.6,0.6-3.8-0.4h-10.3c-1.5,0.3-3.1,0.8-4.6,0.9c-11.4,0.7-22.3,3.2-32.8,7.9c-4.4,2-8.9,3.6-13.4,5.4
		c-4.6,1.9-8.7,4.6-12.7,7.4c-1.2,0.8-2.5,1.5-3.8,2.2c-0.5,0.3-1,0.5-1.4,0.9c-5.8,5.2-11.9,10.1-17.4,15.6c-0.5,0.5-1,1-1.5,1.5
		c-0.2,0.2-0.3,0.4-0.5,0.6c-0.3,0.3-0.6,0.7-0.9,1c-0.2,0.2-0.3,0.4-0.5,0.6c-0.3,0.3-0.6,0.7-0.9,1c-0.1,0.2-0.3,0.4-0.4,0.6
		c-0.3,0.4-0.6,0.7-0.9,1.1c-0.1,0.1-0.2,0.3-0.3,0.4c-0.3,0.4-0.7,0.9-1,1.3c0,0-0.1,0.1-0.1,0.1c-1.2,1.6-2.4,3.2-3.6,4.8
		c-0.1,0.1-0.1,0.2-0.2,0.3c-2.3,3.1-4.5,6.4-6.4,9.7c-1.9,3.2-3.4,6.7-4.9,10.1c-5.5,12.2-8.8,25.1-10.8,38.3
		c-1.2,8.2-1.3,16.5-0.9,24.8c0.8,18.9,5.4,36.9,13.4,54c4.7,10.2,10.5,19.6,17,28.7c5.3,7.5,10.7,15,16.1,22.4
		c0.1,0.2,0.2,0.4,0.4,0.9c-1,0.6-1.9,1.2-3,1.7c-6,2.7-12.1,5.4-18.1,8.1c-5.5,2.5-10.7,5.8-15.7,9.2c-3.5,2.5-7.1,4.8-10.5,7.4
		c-3.7,2.8-7.3,5.6-10.7,8.7c-6.6,6-12.8,12.3-18.3,19.4c-7.2,9.3-13,19.4-18.1,30c-5.9,12.1-9.2,25-11.6,38.1
		c-2.1,11.6-4.1,23.3-6.2,34.9c-0.9,4.8-2.1,9.6-2.9,14.4c-1.8,9.6-3.4,19.1-5.1,28.7c-1.1,6.4-2.2,12.9-3.3,19.3
		c-1.3,7.8-2.7,15.6-4,23.4c-0.8,4.8-1.8,9.6-2.6,14.5c-0.4,2.4-0.5,4.9-0.8,7.4c-0.1,0.5-0.3,1-0.4,1.5l0.7,1.5
		c-0.2,1.1-0.4,2.3-0.5,3.4c0.9,1.2,0.3,2.6,0.4,3.9c0.9,2.9,1.7,5.8,1.8,8.8c0.2,4.5,1.8,8.8,3.8,12.9c3.2,6.7,6.4,13.4,10.6,19.5
		c3.5,5,7.7,9.4,12.5,13.2c3.9,3.1,7.8,6.1,12.2,8.6c10.2,5.8,21,9.3,32.8,10c0.3,0,0.6,0.2,0.9,0.2c0.9,0,1.8,0,2.7,0
		c0.4,0,0.9,0,1.3,0c0.4,0,0.8,0.3,1.2,0.4h25.8c0.3-0.2,0.7-0.5,1-0.4c2,0.2,4.1-0.6,6.1,0.4h232.6c0.6-0.2,1.3-0.4,1.9-0.4
		c2-0.1,4,0,6,0c3.3-0.5,6.6-1,9.9-1.7c2.7-0.6,5.3-1.4,7.8-2.4c7.6-3,15.1-6.1,21.3-11.8c3.4-3.1,7.4-5.5,10.7-8.7
		c3-2.8,5.6-6.1,7.9-9.5c7-10.4,11.6-21.8,13.9-34.1c0.3-1.4,0.2-2.8,0.3-4.2c0-0.4,0.2-0.9,0.3-1.3V580c-0.1-0.6-0.2-1.1-0.4-1.7
		L652.5,578.7z M355,263.7c-8-13.4-13.4-27.8-15.9-43.2c-0.6-3.8-0.9-7.6-1.1-11.4c-0.2-3.1-0.4-6.2-0.3-9.3c0.6-12.6,2.3-25,7-36.8
		c1.1-2.7,1.7-5.6,3.1-8.3c2.7-5.1,6.2-9.6,9.6-14.1c3.2-4.3,6.4-8.6,9.8-12.8c1.5-1.8,3.2-3.5,5.1-4.8c1-0.7,2-1.4,3-2.1
		c0.3-0.2,0.5-0.4,0.8-0.6c1.1-0.8,2.3-1.6,3.5-2.4c0.1-0.1,0.3-0.2,0.4-0.3c1.1-0.7,2.1-1.4,3.2-2.1c0.2-0.1,0.4-0.3,0.7-0.4
		c1.2-0.7,2.3-1.4,3.5-2.1c0.2-0.1,0.5-0.3,0.7-0.4c1.2-0.7,2.5-1.4,3.7-2c8.6-4.4,17.7-7.3,27.1-9.2c3.4-0.7,6.9-1.5,10.3-1.9
		c3.6-0.4,7.2-0.3,10.7-0.5c7.2-0.4,14.3,1,21.3,2.4c14.9,2.9,28.6,8.8,40.9,17.6c0.9,0.6,1.7,1.3,2.6,1.9c0.4,0.3,0.9,0.7,1.3,1
		c0.5,0.4,1,0.8,1.5,1.2c0.4,0.3,0.8,0.7,1.2,1.1c0.5,0.4,1,0.9,1.5,1.3c0.4,0.4,0.8,0.7,1.2,1.1c0.5,0.5,1,1,1.5,1.4
		c0.4,0.4,0.7,0.7,1.1,1.1c0.5,0.5,1,1,1.5,1.5c0.3,0.3,0.7,0.7,1,1.1c0.5,0.6,1,1.1,1.5,1.7c0.3,0.3,0.6,0.7,0.9,1
		c0.5,0.6,1.1,1.3,1.6,1.9c0.2,0.3,0.5,0.6,0.7,0.8c0.8,0.9,1.5,1.9,2.2,2.9c2.6,3.5,4.5,7.6,6.7,11.5c3.4,5.9,5.4,12.4,7.2,18.9
		c1.1,3.8,2.3,7.6,3.3,11.4c0.5,1.8,0.5,3.7,0.6,5.6c0.3,5.1,0.6,10.3,1,15.4c0.3,3.7,0.2,7.3-0.4,11c-0.7,4.8-1.2,9.7-2.2,14.5
		c-1.4,6.6-3.8,13.1-6.7,19.1c-3.8,7.9-8.3,15.6-12.4,23.3c-5,9.5-12,17.6-18.8,25.9c-0.9,1.1-1.8,2.2-2.7,3.2
		c-0.1,0.2-0.3,0.3-0.4,0.4c0,0-0.1,0.1-0.1,0.1c-0.1,0.1-0.2,0.2-0.4,0.3c0,0-0.1,0-0.1,0.1c-0.2,0.1-0.3,0.2-0.5,0.2
		c0,0-0.1,0-0.1,0c-0.1,0-0.2,0.1-0.4,0.1c0,0-0.1,0-0.1,0c-0.2,0-0.3,0-0.5,0c0,0,0,0,0,0c-0.5-0.1-1-0.4-1.4-0.9
		c-2.9-3.3-5.8-6.5-8.5-10c-1-1.3-1.2-3.2-1.6-4.8c-1.4-5-0.7-9.7,1.6-14.2c3.2-6.5,7-12.7,10.9-18.8c6.4-10.4,11.3-21.4,13.6-33.4
		c0.5-2.4,0.9-4.9,1.1-7.4c0.1-1.4-0.2-2.8-0.3-4.2c0-4.9,0.3-9.8-0.2-14.7c-0.4-3.9-1.2-7.7-1.9-11.5c-3-16.4-12.1-28.8-25.3-38.4
		c-9.7-7.1-20.6-10.8-32.3-12.9c-7.5-1.4-14.9-1-22.3,0.2c-3.4,0.5-6.8,0.9-10.2,1.6c-11.2,2.2-20.8,7.8-29.5,15
		c-4.2,3.5-8.1,7.4-10.8,12.2c-1.7,3-3.5,5.9-5,9c-1.3,2.9-2.2,6-3.4,9c-2,5-3.3,10.2-3.3,15.7c0,3.3-0.4,6.5-0.6,9.8
		c-0.2,15.5,3.9,29.8,11.3,43.2c4.9,9,10.2,17.9,15.4,26.8c1.1,1.8,1.5,3.7,1.6,5.7c0.5,8.7-3.1,15.5-9.4,21.2
		c-0.6,0.5-1.2,1-1.8,1.5c-1.6,1.2-2.2,1.2-3.5-0.3c-1.5-1.7-2.9-3.4-4.4-5.1c-1.2-1.4-2.5-2.8-3.8-4.1c-3-2.9-4.7-6.6-6.8-10
		C362.2,275.4,358.5,269.6,355,263.7z M266.1,507.8c2.3-12.2,4.8-24.4,7-36.7c1.5-8.2,2.9-16.4,4-24.6c0.9-6.9,3.1-13.5,5.5-20
		c2.3-6.3,4.4-12.6,6.8-18.9c0.8-2.2,2-4.2,3.3-6.2c4.3-6.9,8.5-13.9,14-19.9c4.3-4.6,8.2-9.6,13.2-13.6
		c7.8-6.3,15.8-12.2,24.9-16.6c12.3-5.9,24.6-11.7,36.9-17.7c7.7-3.7,15.2-8,21.6-13.8c9.6-8.7,16.1-19.2,18.2-32.1
		c1.6-10.4,0.4-20.4-4.8-29.7c-3.9-7-8.1-13.8-12.2-20.8c-3.6-6.2-7-12.6-8.8-19.6c-0.6-2.3-0.9-4.7-1.2-7.1c-0.6-5-0.8-10-0.4-14.9
		c1.4-15.4,8.3-27.2,22.2-34.6c5.8-3.1,11.9-4.9,18.4-5.7c4.7-0.5,9.5-0.7,14.2,0.4c4.1,1,8.2,2.6,12.2,4.1c5,1.8,9.3,4.7,13.2,8.3
		c6,5.6,9.6,12.6,11.2,20.6c0.6,3.2,0.7,6.5,1.1,9.7c0.1,1.3,0.2,2.6,0.3,3.9c0.4,4.2-1.1,8.2-1.9,12.2c-0.5,2.6-1.2,5.1-1.8,7.7
		c-1,4.2-2.5,8.2-4.9,11.8c-2.9,4.4-5.7,8.9-8.6,13.4c-3.5,5.3-6.5,10.8-8.7,16.8c-1.3,3.6-2,7.4-2.2,11.2
		c-0.2,4.6-0.3,9.1,0.3,13.7c0.9,6.2,3.6,11.7,7.1,16.8c1.3,1.9,2.5,3.8,3.8,5.6c0.5,0.8,1.1,1.5,1.8,2.1
		c5.8,5.5,11.3,11.2,18.2,15.4c4.7,2.8,9.4,5.5,14.4,7.8c6.4,2.9,13,5.2,19.4,8c6.8,3,13.4,6.4,19.5,10.6c4.8,3.3,9.6,6.6,14.4,10
		c0.3,0.2,0.6,0.4,0.9,0.7c11,10.6,21.3,21.7,28.9,35.1c6.1,10.7,10.1,22.2,12.7,34.2c1.6,7.4,3.4,14.7,5,22.1
		c0.9,4.4,1.6,8.9,2.4,13.3c2.2,12.8,4.4,25.6,6.5,38.4c0,0.2,0,0.4,0,0.8c0,0,0,0,0,0c0,0,0,0,0,0.1c-2.1-1.2-4.1-2.3-6.1-3.4
		c-6.4-3.4-12.9-6.6-20-8.3c-2.9-0.7-5.8-1-8.8-1.3c-6.2-0.7-12.4-1.2-18.6-2c-0.5-0.1-1.8,0-2.7,0.1c-0.2-0.2-1.1-0.5-2.1-1.1
		c-9.6-5.5-19.2-11.1-28.1-17.6c-4.3-3.2-8.7-6.4-12.8-9.9c-4.9-4.2-9.7-8.6-14.4-13c-8.6-8-16.1-17.1-23.5-26.3
		c-5.1-6.4-8.9-13.5-13.4-20.2c-2.5-3.7-4.7-7.5-7.1-11.3c-3-4.9-7.4-8.1-13.1-9c-7.2-1.1-13.6,0.8-18.1,6.8
		c-2.6,3.5-4.7,7.5-7.1,11.3c-3.9,6.2-7.7,12.5-12,18.4c-3.5,4.9-7.6,9.5-11.6,14.1c-4.2,4.9-8.4,9.8-12.9,14.5
		c-3.1,3.2-6.5,6.1-9.8,9c-8.3,7.2-16.8,14.2-26,20.2c-6.3,4.1-12.8,8.1-19.3,11.8c-3.1,1.8-3.1,1.6-6.2,2.6
		c-0.7-0.1-1.3-0.2-1.8-0.2c-2.6-0.2-4.1-0.1-6.5,0.2c-1.5,0.2-3.1,0.3-4.6,0.6c-7,1.1-14,2-20.9,4c-6.3,1.9-12.2,4.8-17.6,8.6
		c-0.7,0.5-1.5,1-2.2,1.4l0,0c-0.2,0.1-0.3,0.1-0.5,0c-0.2-0.1-0.1-0.1-0.3-0.1C266.1,509.4,265.9,508.6,266.1,507.8z M426.5,637.9
		c-13.7,0-27.4,0-41.2,0c-6.6,0-13.2,0-19.8,0c-12.5,0-25,0-37.5,0c-4.9,0-9.8,0.3-14.7,0.2c-7.3-0.1-14.4-0.9-21.5-2.9
		c-12.1-3.3-21.2-10.5-28.3-20.6c-3.6-5.1-6.1-10.7-8-16.6c-0.8-2.5-0.9-5.2-1.4-7.8c-1.3-7.3-0.1-14.4,1.7-21.5
		c0.9-3.5,1.5-7.3,3.1-10.5c7.9-15.6,19.8-27.1,36.4-33.2c3.6-1.3,7.3-2.3,11-2.8c4.3-0.6,8.7-1.3,13-0.4c2.3,0.5,4.7,1.3,6.8,2.4
		c6.1,3.5,12.1,7.1,18,10.9c3.6,2.3,7,5,10.4,7.6c5.9,4.6,11.8,9.1,17.6,13.9c4,3.2,7.8,6.6,11.2,10.6c3.8,4.5,8,8.7,11.9,13.2
		c0.9,1.1,1.8,2.1,2.7,3.2c5.2,6.2,10,12.7,14.4,19.5c1.3,2,2.6,4.1,3.9,6.2c3,5,6.1,10,8.9,15.1c2.2,4.1,4,8.4,6.2,13.1
		C429.2,637.7,427.9,637.9,426.5,637.9z M437.5,592.9c-3.4-5.2-6.7-10.6-10.3-15.6c-0.9-1.2-1.8-2.3-2.7-3.5
		c-3.1-3.9-6.4-7.7-9.4-11.7c-5.1-6.9-11.2-13-17.3-19c-6.2-6.3-13.1-11.8-20.2-17c-1.7-1.3-3.4-2.6-5.1-3.9
		c-0.3-0.2-0.6-0.4-0.9-0.6c-5.7-4-11.4-7.9-17.1-11.9c-0.5-0.4-1.1-0.8-1.8-1.4c2.6-1.8,4.6-3.1,6.9-4.8
		c7.7-5.7,15.6-11.2,23.2-17.1c3.5-2.7,6.6-5.9,9.9-8.9c2.1-1.9,4.3-3.6,6.3-5.5c0.9-0.8,1.7-1.8,2.6-2.7c4.6-5,9.4-9.8,13.7-15.1
		c5.3-6.5,10.1-13.5,15.1-20.3c2.2-3,4.1-6.1,6.3-9c1-1.4,2.3-2.5,3.5-3.9c0.4,0.5,0.9,0.9,1.2,1.4c4.4,6.2,8.8,12.5,13.2,18.7
		c4.3,6.2,9.3,11.9,14.3,17.5c4.2,4.6,8.2,9.4,12.7,13.8c6.3,6.2,13.3,11.8,20.4,17.1c8.3,6.2,16.6,12.4,25,18.6
		c0.4,0.3,0.5,0.3,0.9,0.7c-3.9,2.9-8,5.7-12,8.5c-7.3,5.1-14.5,10.1-21,16.1c-10.3,9.4-20.5,18.9-29.4,29.5
		c-3.1,3.6-6,7.3-8.9,11.1c-5.5,7.2-10.9,14.7-16.5,22C439,595.4,438.3,594.1,437.5,592.9z M625.6,584.2c-0.3,3.2-0.6,6.4-0.7,9.5
		c-0.1,3.9-1.1,7.5-2.7,11c-3,6.7-7.1,12.5-12.2,17.8c-3.8,4-8.5,6.3-13.1,8.8c-1.4,0.8-2.9,1.5-4.3,2.3c-4.3,2.6-9.1,3.3-13.9,3.7
		c-3.8,0.3-7.6,0.5-11.4,0.5c-17,0-33.9,0-50.9,0c-6.9,0-13.8,0-20.8,0c-9.7,0-19.4,0-29.2,0c-2.5,0-5-0.2-7.6-0.4
		c-0.5-1.5-0.9-2.8-1.3-4.1c-0.4-1.2-0.9-2.3-1.4-3.4c-1.4-3.2-1.2-6.2,0.7-9.1c2.5-4,4.6-8.1,7.2-12c1.4-2.1,2.8-4.3,4.3-6.4
		c2-3,4.1-5.9,6.1-8.9c2.9-4.3,6.2-8.4,9.7-12.2c1.2-1.3,2.5-2.6,3.7-3.9c6.8-7,13.7-13.9,20.4-21c2.7-2.8,6-5,9.1-7.3
		c7.7-5.6,15.3-11.3,23.1-16.7c3.2-2.2,6.7-3.9,10.1-5.9c1.5-0.9,3-1.7,4.4-2.6c2.9-2,6.1-2.8,9.5-2.6c8.4,0.6,16.7,2,24.5,5.4
		c11,4.7,19.6,12.3,26.4,22c4.3,6.2,7.6,12.9,9.3,20.3C625.9,574.1,626.2,579.1,625.6,584.2z M652.5,578.7c0.1,0.2,0.2,0.4,0.2,0.6
		L652.5,578.7z M422,191.2c-1.8-2-1.8-3.5,0.2-5.4c2.7-2.7,5.6-5.2,9.1-6.9c2.9-1.5,6-2.3,10-2.3c3.5,0.1,7.4,1.2,11.1,3.3
		c2.9,1.6,5.3,3.8,7.6,6.2c1.4,1.5,1.4,3.3,0.1,4.8c-4.9,5.5-11,8.9-18.3,9.9c-1,0.1-2-0.1-3-0.3C432,199.3,426.5,196.2,422,191.2z"
		/>
	<path id="focus-word" d="M97,694.1c0.1,0.4,0.1,0.8,0.1,1.2c0,0.5,0,0.9-0.1,1.2c-0.1,0.3-0.1,0.5-0.2,0.7
		c-0.1,0.2-0.2,0.3-0.3,0.4c-0.1,0.1-0.3,0.1-0.5,0.1c-0.3,0-0.6-0.1-1-0.3c-0.4-0.2-0.9-0.4-1.5-0.6s-1.3-0.4-2.1-0.6
		s-1.8-0.3-2.9-0.3c-1.5,0-2.8,0.2-3.9,0.7c-1.1,0.5-1.9,1.2-2.6,2.3c-0.7,1-1.1,2.4-1.4,4s-0.4,3.6-0.4,5.9v5.6h12.1
		c0.3,0,0.5,0.1,0.7,0.2c0.2,0.1,0.3,0.3,0.5,0.5c0.1,0.2,0.3,0.5,0.3,0.8c0.1,0.3,0.1,0.7,0.1,1.2c0,0.9-0.1,1.5-0.4,2
		c-0.3,0.4-0.7,0.7-1.1,0.7H80.3v43.3c0,0.2-0.1,0.4-0.2,0.6c-0.1,0.2-0.3,0.3-0.5,0.4c-0.2,0.1-0.6,0.2-1,0.3
		c-0.4,0.1-1,0.1-1.6,0.1c-0.6,0-1.1,0-1.6-0.1c-0.4-0.1-0.8-0.2-1-0.3c-0.3-0.1-0.4-0.2-0.5-0.4c-0.1-0.2-0.1-0.4-0.1-0.6v-43.3
		h-7.4c-0.5,0-0.9-0.2-1.2-0.7s-0.4-1.1-0.4-2c0-0.5,0-0.8,0.1-1.2c0.1-0.3,0.2-0.6,0.3-0.8c0.1-0.2,0.3-0.4,0.5-0.5
		c0.2-0.1,0.4-0.2,0.7-0.2h7.4v-5.4c0-3.3,0.3-6.2,0.9-8.5c0.6-2.3,1.6-4.3,2.8-5.7c1.3-1.5,2.8-2.5,4.7-3.2c1.9-0.7,4.1-1,6.6-1
		c1.2,0,2.4,0.1,3.6,0.3c1.2,0.2,2,0.5,2.6,0.7c0.6,0.3,1,0.5,1.2,0.7c0.2,0.2,0.4,0.4,0.5,0.7C96.9,693.4,97,693.7,97,694.1z
		 M157.8,728.3c1,3.1,1.5,6.6,1.5,10.5c0,3.8-0.5,7.3-1.5,10.4c-1,3.2-2.5,5.9-4.6,8.3c-2,2.3-4.5,4.2-7.5,5.5c-3,1.3-6.5,2-10.5,2
		c-3.9,0-7.2-0.6-10.1-1.8c-2.9-1.2-5.3-2.9-7.2-5c-1.9-2.2-3.4-4.8-4.4-8c-1-3.1-1.4-6.6-1.4-10.5c0-3.8,0.5-7.3,1.5-10.4
		c1-3.2,2.5-5.9,4.5-8.3c2-2.3,4.5-4.1,7.5-5.4c3-1.3,6.5-1.9,10.6-1.9c3.9,0,7.2,0.6,10.1,1.7c2.9,1.2,5.3,2.8,7.2,5
		C155.3,722.5,156.8,725.2,157.8,728.3z M152.4,739.4c0-2.7-0.3-5.3-0.8-7.7c-0.5-2.4-1.5-4.6-2.7-6.5c-1.3-1.9-3-3.4-5.1-4.5
		c-2.1-1.1-4.8-1.7-8-1.7c-2.9,0-5.5,0.5-7.6,1.5c-2.1,1-3.9,2.4-5.3,4.2s-2.4,3.9-3,6.4c-0.7,2.4-1,5.1-1,7.9
		c0,2.7,0.3,5.3,0.8,7.8c0.5,2.5,1.5,4.6,2.7,6.5c1.3,1.9,3,3.3,5.1,4.4c2.1,1.1,4.8,1.6,8,1.6c2.9,0,5.5-0.5,7.6-1.5
		c2.1-1,3.9-2.4,5.3-4.2c1.4-1.8,2.4-3.9,3-6.3C152,744.9,152.4,742.3,152.4,739.4z M221.3,753.8c-0.1-0.3-0.2-0.5-0.4-0.6
		c-0.2-0.1-0.4-0.2-0.6-0.2c-0.4,0-1,0.3-1.8,1c-0.8,0.7-1.8,1.4-3.1,2.2c-1.2,0.8-2.7,1.5-4.4,2.2c-1.7,0.7-3.6,1-5.8,1
		c-2.3,0-4.4-0.4-6.3-1.2s-3.4-2.1-4.7-3.7c-1.3-1.7-2.3-3.7-3-6.2c-0.7-2.5-1-5.4-1-8.7c0-6.6,1.3-11.7,3.8-15.2
		c2.6-3.5,6.2-5.2,10.9-5.2c2.3,0,4.3,0.3,5.9,0.9c1.7,0.6,3.1,1.3,4.2,2.1c1.2,0.8,2.1,1.4,2.9,2.1c0.7,0.6,1.4,0.9,1.9,0.9
		c0.4,0,0.7-0.2,1-0.6c0.3-0.4,0.5-1.1,0.5-2.1c0-0.5,0-0.8-0.1-1.2c0-0.3-0.1-0.6-0.2-0.9c-0.1-0.3-0.2-0.5-0.4-0.8
		c-0.2-0.2-0.5-0.6-0.9-1c-0.5-0.4-1.2-1-2.2-1.6c-1-0.6-2.1-1.2-3.4-1.7c-1.3-0.5-2.6-0.9-4.1-1.2c-1.5-0.3-3.1-0.4-4.7-0.4
		c-3.1,0-5.9,0.5-8.6,1.5c-2.7,1-5,2.5-7,4.6c-2,2.1-3.6,4.8-4.7,8.1s-1.7,7.2-1.7,11.9c0,4.1,0.5,7.7,1.4,10.8
		c0.9,3.1,2.3,5.8,4.1,7.9c1.8,2.2,4,3.8,6.6,4.9c2.6,1.1,5.7,1.7,9.1,1.7c1.7,0,3.4-0.2,5-0.5c1.6-0.3,3.1-0.8,4.5-1.3
		c1.4-0.5,2.6-1.1,3.7-1.8c1.1-0.7,1.9-1.3,2.4-1.7c0.5-0.5,0.8-0.8,0.9-1c0.1-0.2,0.2-0.4,0.3-0.7c0.1-0.2,0.1-0.5,0.2-0.9
		c0-0.3,0.1-0.7,0.1-1.1c0-0.5,0-0.9-0.1-1.3C221.5,754.4,221.4,754.1,221.3,753.8z M287.2,714.5c-0.2-0.1-0.6-0.2-1-0.3
		c-0.4-0.1-0.9-0.1-1.6-0.1c-0.7,0-1.2,0-1.6,0.1c-0.4,0.1-0.8,0.1-1,0.3c-0.3,0.1-0.4,0.3-0.5,0.4c-0.1,0.2-0.1,0.4-0.1,0.6v34.1
		c-2.8,3.3-5.4,5.8-7.9,7.6c-2.5,1.7-5,2.6-7.5,2.6c-2,0-3.7-0.4-5.2-1.1c-1.5-0.7-2.7-1.7-3.6-3c-0.9-1.3-1.7-2.9-2.1-4.7
		c-0.5-1.9-0.7-4.3-0.7-7.2v-28.1c0-0.2-0.1-0.4-0.2-0.6c-0.1-0.2-0.3-0.3-0.5-0.4c-0.2-0.1-0.6-0.2-1-0.3c-0.4-0.1-1-0.1-1.6-0.1
		c-0.6,0-1.1,0-1.6,0.1c-0.4,0.1-0.8,0.1-1,0.3c-0.3,0.1-0.4,0.3-0.5,0.4c-0.1,0.2-0.1,0.4-0.1,0.6v28.7c0,3.4,0.3,6.2,0.9,8.6
		s1.6,4.5,2.9,6.3c1.4,1.8,3.2,3.2,5.4,4.3c2.2,1,4.9,1.6,8.2,1.6c2.7,0,5.4-0.7,8.1-2c2.7-1.4,5.5-3.6,8.3-6.6v6.7
		c0,0.2,0,0.4,0.1,0.6c0.1,0.2,0.2,0.3,0.5,0.4c0.2,0.1,0.5,0.2,0.9,0.3c0.4,0.1,0.9,0.1,1.6,0.1c0.6,0,1.1,0,1.5-0.1
		c0.4-0.1,0.7-0.2,1-0.3c0.3-0.1,0.4-0.2,0.5-0.4c0.1-0.2,0.1-0.4,0.1-0.6v-47.5c0-0.2-0.1-0.4-0.2-0.6
		C287.6,714.8,287.4,714.7,287.2,714.5z M347.3,745.3c-0.7-1.4-1.7-2.6-2.9-3.6c-1.2-1-2.6-1.9-4.1-2.6c-1.5-0.7-3.1-1.4-4.7-2
		c-1.6-0.6-3.1-1.2-4.7-1.8c-1.5-0.6-2.9-1.3-4.1-2c-1.2-0.8-2.2-1.7-2.9-2.7s-1.1-2.3-1.1-3.9c0-1.1,0.2-2.2,0.6-3.1
		c0.4-0.9,1-1.8,1.9-2.5c0.8-0.7,1.9-1.2,3.2-1.6c1.3-0.4,2.8-0.6,4.5-0.6c1.7,0,3.2,0.2,4.5,0.6c1.3,0.4,2.4,0.8,3.4,1.3
		c0.9,0.5,1.7,0.9,2.3,1.3c0.6,0.4,1,0.6,1.3,0.6c0.2,0,0.4-0.1,0.6-0.2c0.2-0.1,0.3-0.3,0.4-0.6c0.1-0.2,0.2-0.5,0.2-0.9
		c0.1-0.3,0.1-0.7,0.1-1.1s0-0.8-0.1-1.1c0-0.3-0.1-0.6-0.1-0.8s-0.1-0.4-0.3-0.6c-0.1-0.2-0.4-0.4-0.8-0.7c-0.4-0.3-0.9-0.6-1.7-1
		c-0.7-0.4-1.6-0.7-2.6-1c-1-0.3-2.1-0.6-3.3-0.8c-1.2-0.2-2.4-0.3-3.7-0.3c-2.9,0-5.4,0.4-7.5,1.2c-2.1,0.8-3.9,1.8-5.2,3
		s-2.4,2.7-3,4.3c-0.7,1.6-1,3.2-1,4.9c0,2.1,0.4,3.8,1.1,5.3c0.7,1.5,1.7,2.7,2.9,3.8c1.2,1,2.5,1.9,4,2.7s3.1,1.4,4.6,2
		c1.6,0.6,3.1,1.2,4.6,1.8s2.9,1.2,4,2s2.1,1.6,2.9,2.6c0.7,1,1.1,2.3,1.1,3.7c0,1.5-0.3,2.8-0.8,3.9c-0.6,1.1-1.4,2-2.4,2.7
		c-1,0.7-2.2,1.2-3.6,1.6s-2.9,0.5-4.6,0.5c-2.1,0-3.9-0.2-5.5-0.7s-2.9-1-4.1-1.6s-2.1-1.1-2.9-1.6c-0.8-0.5-1.3-0.7-1.7-0.7
		c-0.2,0-0.4,0.1-0.6,0.2s-0.3,0.3-0.4,0.6c-0.1,0.2-0.2,0.5-0.3,0.9c-0.1,0.4-0.1,0.8-0.1,1.2c0,0.9,0.1,1.6,0.3,2.1
		c0.2,0.5,0.5,1,0.9,1.3c0.4,0.4,1,0.8,1.9,1.2c0.9,0.5,1.9,0.9,3.1,1.3c1.2,0.4,2.6,0.7,4.1,1c1.5,0.3,3.1,0.4,4.9,0.4
		c2.7,0,5.2-0.3,7.5-1c2.3-0.7,4.2-1.6,5.8-2.9c1.6-1.3,2.9-2.8,3.7-4.6c0.9-1.8,1.3-3.8,1.3-6.1
		C348.4,748.4,348.1,746.7,347.3,745.3z"/>
	<path id="four-word" class="st0" d="M416.8,694.1c0.1,0.4,0.1,0.8,0.1,1.2c0,0.5,0,0.9-0.1,1.2s-0.1,0.5-0.2,0.7
		c-0.1,0.2-0.2,0.3-0.3,0.4c-0.1,0.1-0.3,0.1-0.5,0.1c-0.3,0-0.6-0.1-1-0.3c-0.4-0.2-0.9-0.4-1.5-0.6c-0.6-0.2-1.3-0.4-2.1-0.6
		s-1.8-0.3-2.9-0.3c-1.5,0-2.8,0.2-3.9,0.7c-1.1,0.5-1.9,1.2-2.6,2.3c-0.7,1-1.1,2.4-1.4,4s-0.4,3.6-0.4,5.9v5.6h12.1
		c0.3,0,0.5,0.1,0.7,0.2c0.2,0.1,0.3,0.3,0.5,0.5s0.3,0.5,0.3,0.8c0.1,0.3,0.1,0.7,0.1,1.2c0,0.9-0.1,1.5-0.4,2s-0.7,0.7-1.1,0.7
		h-12.1v43.3c0,0.2-0.1,0.4-0.2,0.6c-0.1,0.2-0.3,0.3-0.5,0.4c-0.2,0.1-0.6,0.2-1,0.3c-0.4,0.1-1,0.1-1.6,0.1c-0.6,0-1.1,0-1.6-0.1
		c-0.4-0.1-0.8-0.2-1-0.3c-0.3-0.1-0.4-0.2-0.5-0.4c-0.1-0.2-0.1-0.4-0.1-0.6v-43.3h-7.4c-0.5,0-0.9-0.2-1.2-0.7
		c-0.3-0.4-0.4-1.1-0.4-2c0-0.5,0-0.8,0.1-1.2c0.1-0.3,0.2-0.6,0.3-0.8s0.3-0.4,0.5-0.5c0.2-0.1,0.4-0.2,0.7-0.2h7.4v-5.4
		c0-3.3,0.3-6.2,0.9-8.5c0.6-2.3,1.6-4.3,2.8-5.7c1.3-1.5,2.8-2.5,4.7-3.2c1.9-0.7,4.1-1,6.6-1c1.2,0,2.4,0.1,3.6,0.3
		c1.2,0.2,2,0.5,2.6,0.7c0.6,0.3,1,0.5,1.2,0.7c0.2,0.2,0.4,0.4,0.5,0.7C416.7,693.4,416.8,693.7,416.8,694.1z M477.6,728.3
		c1,3.1,1.5,6.6,1.5,10.5c0,3.8-0.5,7.3-1.5,10.4c-1,3.2-2.5,5.9-4.6,8.3c-2,2.3-4.5,4.2-7.5,5.5c-3,1.3-6.5,2-10.5,2
		c-3.9,0-7.2-0.6-10.1-1.8c-2.9-1.2-5.3-2.9-7.2-5c-1.9-2.2-3.4-4.8-4.4-8c-1-3.1-1.4-6.6-1.4-10.5c0-3.8,0.5-7.3,1.5-10.4
		c1-3.2,2.5-5.9,4.5-8.3c2-2.3,4.5-4.1,7.5-5.4c3-1.3,6.5-1.9,10.6-1.9c3.9,0,7.2,0.6,10.1,1.7c2.9,1.2,5.3,2.8,7.2,5
		C475.1,722.5,476.6,725.2,477.6,728.3z M472.2,739.4c0-2.7-0.3-5.3-0.8-7.7c-0.5-2.4-1.5-4.6-2.7-6.5c-1.3-1.9-3-3.4-5.1-4.5
		c-2.1-1.1-4.8-1.7-8-1.7c-2.9,0-5.5,0.5-7.6,1.5c-2.1,1-3.9,2.4-5.3,4.2c-1.4,1.8-2.4,3.9-3,6.4c-0.7,2.4-1,5.1-1,7.9
		c0,2.7,0.3,5.3,0.8,7.8c0.5,2.5,1.5,4.6,2.7,6.5c1.3,1.9,3,3.3,5.1,4.4c2.1,1.1,4.8,1.6,8,1.6c2.9,0,5.5-0.5,7.6-1.5
		c2.1-1,3.9-2.4,5.3-4.2s2.4-3.9,3-6.3C471.9,744.9,472.2,742.3,472.2,739.4z M546.1,714.5c-0.2-0.1-0.6-0.2-1-0.3
		c-0.4-0.1-0.9-0.1-1.6-0.1c-0.7,0-1.2,0-1.6,0.1s-0.8,0.1-1,0.3c-0.3,0.1-0.4,0.3-0.5,0.4c-0.1,0.2-0.1,0.4-0.1,0.6v34.1
		c-2.8,3.3-5.4,5.8-7.9,7.6c-2.5,1.7-5,2.6-7.5,2.6c-2,0-3.7-0.4-5.2-1.1c-1.5-0.7-2.7-1.7-3.6-3c-0.9-1.3-1.7-2.9-2.1-4.7
		c-0.5-1.9-0.7-4.3-0.7-7.2v-28.1c0-0.2-0.1-0.4-0.2-0.6c-0.1-0.2-0.3-0.3-0.5-0.4s-0.6-0.2-1-0.3c-0.4-0.1-1-0.1-1.6-0.1
		c-0.6,0-1.1,0-1.6,0.1c-0.4,0.1-0.8,0.1-1,0.3c-0.3,0.1-0.4,0.3-0.5,0.4c-0.1,0.2-0.1,0.4-0.1,0.6v28.7c0,3.4,0.3,6.2,0.9,8.6
		s1.6,4.5,2.9,6.3s3.2,3.2,5.4,4.3c2.2,1,4.9,1.6,8.2,1.6c2.7,0,5.4-0.7,8.1-2c2.7-1.4,5.5-3.6,8.3-6.6v6.7c0,0.2,0,0.4,0.1,0.6
		c0.1,0.2,0.2,0.3,0.5,0.4c0.2,0.1,0.5,0.2,0.9,0.3c0.4,0.1,0.9,0.1,1.6,0.1c0.6,0,1.1,0,1.5-0.1c0.4-0.1,0.7-0.2,1-0.3
		c0.3-0.1,0.4-0.2,0.5-0.4c0.1-0.2,0.1-0.4,0.1-0.6v-47.5c0-0.2-0.1-0.4-0.2-0.6C546.5,714.8,546.3,714.7,546.1,714.5z M605.6,715.9
		c-0.1-0.2-0.1-0.3-0.2-0.5c-0.1-0.1-0.2-0.3-0.4-0.4c-0.2-0.2-0.6-0.3-1.2-0.5s-1.2-0.4-1.9-0.5c-0.7-0.1-1.4-0.2-2-0.3
		c-0.6-0.1-1.2-0.1-1.6-0.1c-1.1,0-2.2,0.1-3.2,0.4c-1,0.2-2.1,0.7-3.2,1.4c-1.1,0.7-2.2,1.6-3.4,2.9c-1.2,1.2-2.5,2.8-3.9,4.8v-7.5
		c0-0.2,0-0.4-0.1-0.6c-0.1-0.2-0.2-0.3-0.5-0.4c-0.2-0.1-0.5-0.2-0.9-0.3s-0.9-0.1-1.5-0.1c-0.6,0-1.1,0-1.5,0.1s-0.7,0.1-1,0.3
		c-0.3,0.1-0.4,0.3-0.5,0.4c-0.1,0.2-0.1,0.4-0.1,0.6v47.5c0,0.2,0,0.4,0.1,0.6c0.1,0.2,0.3,0.3,0.5,0.4c0.3,0.1,0.6,0.2,1,0.3
		c0.4,0.1,0.9,0.1,1.6,0.1c0.7,0,1.2,0,1.6-0.1c0.4-0.1,0.7-0.2,1-0.3c0.2-0.1,0.4-0.2,0.5-0.4c0.1-0.2,0.2-0.4,0.2-0.6v-32.1
		c1.4-2.1,2.6-3.9,3.8-5.4c1.1-1.5,2.2-2.6,3.3-3.5c1-0.9,2-1.5,3-1.9c0.9-0.4,1.9-0.6,2.9-0.6c0.8,0,1.6,0.1,2.3,0.2
		c0.7,0.2,1.3,0.3,1.9,0.5c0.6,0.2,1.1,0.3,1.5,0.5c0.4,0.2,0.8,0.2,1.1,0.2c0.2,0,0.4-0.1,0.5-0.2c0.1-0.1,0.2-0.3,0.3-0.5
		c0.1-0.2,0.2-0.5,0.2-0.9c0-0.4,0.1-0.8,0.1-1.3c0-0.5,0-1,0-1.3C605.7,716.4,605.7,716.1,605.6,715.9z M626.5,755.4
		c-0.7-0.6-1.9-1-3.6-1c-1.8,0-3,0.3-3.7,1c-0.7,0.7-1,2-1,4.1c0,2,0.3,3.4,1,4c0.7,0.6,1.9,1,3.6,1c1.8,0,3-0.3,3.7-1s1-2,1-4.1
		C627.5,757.4,627.1,756,626.5,755.4z"/>
	<path id="me-word" d="M686.6,733.6l0.1,0.6l-0.1,0.6c-0.1,0.1-0.1,0.1-0.1,0.1s-0.1-0.2-0.1-0.7s0.1-0.7,0.1-0.7L686.6,733.6z
		 M728,727.2c0,2.9-0.7,6.9-2.1,11.7c-4.5,15.9-6.2,23.4-6.2,27c0,0.7,0.1,1.3,0.2,1.8c0.4,1.2,0.7,1.4,2.4,1.5
		c1.7,0.1,2.4,0.9,2.4,1.7c0,1.2-1.4,2.5-3.8,2.5h-0.1c-0.5-0.1-2.8-0.9-5-1.9c-4.7-2.3-6.2-4-7.4-8.6c-0.4-1.7-0.7-3.8-0.7-6.1
		c0-4.1,0.6-8.7,1.8-12.9c0.8-2.8,1.6-5.4,1.8-5.8c0.1-0.3,0.2-0.5,0.2-0.6c0-0.1-0.1-0.1-0.1-0.1c-0.4,0-2.1,1.7-5.8,5.6
		c-7.6,8-12.6,12.8-14.4,13.7c-0.8,0.4-1.6,0.6-2.4,0.6c-1.2,0-2.6-0.5-3.6-1.4c-0.7-0.6-1.5-1.1-1.9-1.1c-1.2,0-3.5-1.5-4.3-2.9
		c-0.4-0.6-0.6-1.7-0.6-3.1c0-2.1,0.5-4.9,1.4-8c0.5-1.7,0.8-3.1,0.8-3.5v-0.1l-0.1-0.1c-1.1,0-8,8.6-15.2,18.9
		c-6.6,9.4-7.7,10.7-9.1,11l-0.4,0.1c-1.2,0-2.7-1.2-2.7-2.2c0-0.2-0.2-0.3-0.7-0.3l-1.1,0.1c-1.4,0-3.4-1-3.8-1.9
		c-0.1-0.2-0.1-0.4-0.1-0.7c0-1.6,1.5-5.1,5.5-13.4l5.8-12.2c2.1-4.9,5-9.9,5.7-9.9h0.1c0.3,0,0.4,0,0.4,0.2c0,0.3-0.4,1.3-1.6,3.7
		c-1,2-2.6,5.8-3.7,8.4c-1.1,2.6-3.6,8.1-5.5,12.1c-1.6,3.5-2.7,6.2-2.7,6.6h0.1c0.7-0.7,5.6-11.1,9.3-19.6c3.2-7.4,4.3-9.6,4.8-9.9
		c0.2-0.1,0.2-0.1,0.4-0.1c0.1,0,0.1,0,0.1,0.1c0,0.3-0.4,1.1-1.2,3.1c-0.7,1.5-2.5,5.8-4,9.5c-1.5,3.7-3.3,7.8-4,9.4
		c-0.7,1.4-1,2.1-1,2.2c0,0.1,0,0.1,0.1,0.1s0.2-0.2,0.6-0.5c1-0.9,3.9-6.2,5.1-9.5c0.3-1,0.9-2.4,1.3-3.2c0.4-0.8,1.2-2.9,1.9-4.7
		c0.7-1.8,1.5-3.4,1.8-3.7c0.4-0.3,0.8-1,1.2-1.8c0.3-0.7,0.5-1,0.8-1c0.2,0,0.3,0.1,0.5,0.2c0.5,0.3,0.7,1.1,0.7,2.1
		c0,0.9-0.2,2.2-0.7,3.6c-0.4,1.3-0.7,2.5-0.7,2.9l0.1,0.1c0.3,0,2.4-1.8,4.8-4.1c5.1-4.9,8-7.1,9.4-7.1c0.7,0,1.1,0.5,1.2,1.3
		c0.2,0.7,0.7,0.9,2.5,0.9c3.4,0.1,4.8,1.5,4.8,5.8c0,1.5-0.2,3.5-0.5,5.8c-0.2,1.5-0.4,2.9-0.4,3.4c0,0.2,0,0.3,0.1,0.3
		c0.2,0,2.7-2.1,5.6-4.8c8.5-7.7,21.6-18.7,22.8-19.2h0.1c0.2,0,0.5,0.3,0.7,0.8c0.1,0.5,0.5,1,0.7,1c0.2,0,0.2,0.1,0.2,0.3
		l-0.2,0.8c0,0.1,0.1,0.2,0.1,0.2c0.2,0,0.5-0.5,0.8-1c0.2-0.5,0.3-0.7,0.4-0.7c0.1,0,0.1,0.3,0.1,1c0.1,0.9,0.1,1.1,0.7,1.1
		l1.2-0.2c0.5-0.1,1.1-0.1,1.6-0.1c0.5,0,1,0,1.2,0.1C727.4,722.8,728,724.5,728,727.2z M673.5,734.9c0,0.1,0.2,0.2,0.4,0.2
		s0.5-0.3,0.7-0.7l0.1-0.5c0-0.1,0-0.1-0.1-0.1c-0.1,0-0.2,0.1-0.5,0.3C673.7,734.5,673.5,734.7,673.5,734.9z M682,730.1
		c0-0.2-0.1-0.3-0.2-0.3c-0.7,0-2.6,1.7-6.6,5.6c-7.2,7.1-11.7,12.9-11.7,15c0,0.1,0,0.1,0.1,0.1c0.3,0,1.6-1.4,3.1-3.3
		c1.7-2.2,4.3-5.4,5.8-7c1.5-1.6,4.2-4.4,6.1-6.1C680.5,732.2,682,730.5,682,730.1z M681.3,747.2c0.4-1.8,1.2-5.4,1.8-8.2
		c0.7-2.5,1.1-4.6,1.1-5.1v-0.1h-0.1c-0.7,0-3.5,11-3.5,14.3v0.2c0,0.9,0,1.3,0.1,1.3C680.8,749.6,681,748.8,681.3,747.2z
		 M684.3,747.8l-0.1-0.5l-0.1-0.2c-0.1,0-0.1,0.1-0.2,0.5c0,0.4,0.1,0.7,0.2,0.7l0.1-0.1C684.3,748.1,684.3,748,684.3,747.8z
		 M684.8,745.6l-0.1-0.6l-0.1-0.2c-0.1,0-0.1,0.3-0.1,0.7c0,0.5,0.1,0.7,0.1,0.7s0.1-0.1,0.1-0.1L684.8,745.6z M686.2,739.1
		l-0.1-0.5l-0.1-0.2c-0.1,0-0.1,0.1-0.2,0.5c0,0.4,0.1,0.7,0.2,0.7l0.1-0.1C686.2,739.4,686.2,739.3,686.2,739.1z M687.2,732.8
		c0-0.6-0.2-0.9-0.5-0.9h-0.2c-0.6,0.1-1.2,2-2.6,8.4c-1.2,5.7-1.8,7.8-1.8,8.6c0,0.2,0.1,0.3,0.2,0.3l0.4-0.1
		c0.3-0.1,0.9-1.6,1.3-3.4c0.4-1.6,0.8-2.6,1-2.6l0.2,0.2l0.1-0.3l-0.2-2.1c0-0.2,0.1-0.2,0.1-0.2s0.1,0.1,0.3,0.4
		c0.1,0.3,0.2,0.5,0.3,0.5l0.1-0.2l-0.1-1l-0.1-1c0-0.7,0.1-1.4,0.2-1.9c0.2-0.6,0.4-0.9,0.4-0.9s0.1,0.2,0.1,0.5l0.1,0.2
		c0.2,0,0.8-2.7,0.8-4.3V732.8z M694.8,747.4c-0.1,0-0.2,0.1-0.6,0.4c-0.5,0.3-0.8,0.7-0.8,0.8s0.1,0.2,0.1,0.2
		c0.1,0,0.4-0.3,0.9-0.8L694.8,747.4z M714.2,728.4c0.4-0.6,0.5-1,0.5-1.1l-0.1-0.1l-0.7,0.5c-1.5,1.1-2.7,2.3-2.7,2.8v0.1
		c0,0.1-0.1,0.2-0.2,0.2H711c-0.5,0-3.9,2.6-3.9,3c0,0.1,0.1,0.1,0.2,0.1l1.1-0.2h0.1l-0.4,0.3c-0.2,0.2-0.7,0.3-0.9,0.3l-0.3-0.1
		c-0.8,0-16.9,15.3-16.9,16.1c0.2,0,1.6-1.1,3.3-2.7c1.7-1.6,3.3-2.9,3.7-2.9l0.4,0.1c0.2,0,0.4-0.1,0.5-0.3
		c0.1-0.1,0.1-0.2,0.1-0.3v-0.1l-0.3,0.1c-0.2,0.1-0.4,0.2-0.5,0.2c-0.1,0-0.1,0-0.1-0.1c0-0.2,0.5-1,1.4-1.8
		c0.7-0.6,1.2-0.9,1.6-0.9l0.2,0.1l0.1,0.1l-0.1-0.3l-0.2-0.4c0-0.1,0.1-0.1,0.2-0.1l0.8,0.2c0.1,0,0.2-0.1,0.2-0.1l-0.1-0.2
		c0-0.6,2.6-3.5,3.3-3.5l0.1,0.1c0,0.1-0.1,0.3-0.4,0.5c-0.3,0.2-0.5,0.3-0.5,0.3l0.1,0.1l0.4-0.1c0.4-0.1,0.7-0.5,0.7-0.9
		c0-0.3,0.2-0.5,0.4-0.5h0.2c0.3,0,0.6-0.3,0.8-0.6c0.1-0.1,0.1-0.2,0.1-0.3c0-0.1,0-0.1-0.1-0.1l-0.5,0.2l-0.1-0.1l0.1-0.3
		c0.2-0.3,0.5-0.5,0.7-0.5l0.2,0.1C707.8,735.2,713.2,730.1,714.2,728.4z M711.3,759c0.1-6.7,0.7-10,4.5-21.8
		c0.7-2.2,1.2-4.2,1.2-4.6v-0.1h-0.1c-0.1,0-0.3,0.3-0.5,1c-0.1,0.5-0.4,1-0.6,1l-0.2-0.1c-0.1,0-0.2,0.1-0.2,0.2l0.1,0.5
		c0.1,0.2,0.1,0.4,0.1,0.5c0,0.2,0,0.2-0.1,0.2l-0.2-0.1l-0.2-0.1c-0.1,0-0.1,0.1-0.1,0.2c0,0.1,0,0.4,0.1,0.7l0.1,0.7
		c0,0.2-0.1,0.3-0.2,0.3l-0.1-0.1l-0.2-0.1c-0.1,0-0.2,0.1-0.2,0.3c0,0.3,0,1.2-0.1,1.9c-0.1,0.7-0.1,1-0.2,1
		c-0.1,0-0.2-0.1-0.4-0.3c-0.1-0.2-0.2-0.3-0.3-0.3v0.1c0,0.1,0,0.3,0.1,0.7l0.1,0.6c0,0.2,0,0.2-0.1,0.2l-0.3-0.1
		c-0.2-0.1-0.2-0.1-0.3-0.1h-0.1l0.1,0.2l0.1,0.3c0,0.7-0.4,2.6-1,4.7c-1.4,5.4-2.1,9.5-2.1,12.5l0.1,1.6c0.2,2.3,0.7,4.3,1,4.3
		L711.3,759z M714.7,764.8l-0.1-1l-0.1-0.2c-0.1,0-0.1,0.5-0.1,1.3c0,0.8,0.1,1.3,0.1,1.3l0.1-0.2L714.7,764.8z M714.7,759.3
		l-0.1-1.3l-0.1-0.3c-0.1,0-0.1,0.6-0.1,1.5s0.1,1.5,0.1,1.5l0.1-0.3L714.7,759.3z M715.7,752.8l-0.1-0.5l-0.1-0.2
		c-0.1,0-0.1,0.1-0.2,0.5c0,0.4,0.1,0.7,0.2,0.7l0.1-0.1C715.6,753.1,715.7,753,715.7,752.8z M716.2,758.7l-0.1-0.5l-0.1-0.2
		c-0.1,0-0.1,0.1-0.2,0.5c0,0.4,0.1,0.7,0.2,0.7l0.1-0.1C716.1,759.1,716.2,759,716.2,758.7z M717.6,765.1l-0.1-0.5l-0.1-0.2
		c-0.1,0-0.1,0.1-0.2,0.5c0,0.4,0.1,0.7,0.2,0.7l0.1-0.1C717.5,765.5,717.6,765.4,717.6,765.1z M718.5,754.2l-0.1-0.5l-0.1-0.2
		c-0.1,0-0.1,0.1-0.2,0.5c0,0.4,0.1,0.7,0.2,0.7l0.1-0.1C718.5,754.5,718.5,754.4,718.5,754.2z M719,740.9l-0.1-0.5l-0.1-0.2
		c-0.1,0-0.1,0.1-0.2,0.5c0,0.4,0.1,0.7,0.2,0.7l0.1-0.1C718.9,741.2,719,741.1,719,740.9z M721.3,728.8l-0.2-0.1
		c-1,0-3.3,6-6.4,16.6c-1.8,6.1-2.7,10.7-2.7,14.3c0,2.1,0.3,3.8,0.8,5.4c0.3,0.9,0.5,1.4,0.7,1.4c0.1,0,0.1-0.2,0.1-0.5
		c0-0.5-0.1-1.1-0.2-2.1c-0.1-0.7-0.1-1.4-0.1-2.2c0-5,1.8-12.6,5.9-25.7C720.4,732.3,721.3,729.2,721.3,728.8z M721.4,732.8
		c0-0.2-0.1-0.3-0.1-0.3c-0.1,0-0.2,0.2-0.3,0.5c-0.3,0.6-0.4,1.1-0.4,1.4c0,0.1,0,0.1,0.1,0.1s0.2-0.1,0.4-0.3
		C721.2,733.8,721.4,733.1,721.4,732.8z M722.8,739.1l-0.1-0.5l-0.1-0.2c-0.1,0-0.1,0.1-0.2,0.5c0,0.4,0.1,0.7,0.2,0.7l0.1-0.1
		C722.7,739.4,722.8,739.3,722.8,739.1z M726.1,727.3l-0.1-0.6l-0.1-0.2c-0.1,0-0.1,0.3-0.1,0.7c0,0.5,0.1,0.7,0.1,0.7
		c0.1,0,0.1-0.1,0.1-0.1L726.1,727.3z M712.1,730.5c0.1,0,0.4-0.3,0.9-0.8l0.4-0.6c-0.1,0-0.2,0.1-0.6,0.4c-0.5,0.3-0.8,0.7-0.8,0.8
		S712,730.5,712.1,730.5z M787.9,752.8c0,0.4-0.1,1-0.3,1.7c-0.7,2.5-1.7,4.1-4.9,7.6c-5.6,6.1-14.4,10.1-21.7,10.1
		c-1.3,0-2.6-0.1-3.7-0.4c-3.7-0.8-10.6-4.2-12.6-6.2c-2.6-2.4-3.8-5.5-3.8-9.1c0-1.4,0.2-2.9,0.5-4.4c2.3-9.8,11.2-25.5,19.6-34.3
		c2.6-2.7,7.4-6.5,9.6-7.6c1.1-0.5,3-1,4.4-1.2l1.4-0.1c1.1,0,1.5,0.3,2.8,1.5c0.9,0.9,2.7,2,3.9,2.4c1.7,0.6,2.3,1,3.1,2.6
		c0.6,1.2,0.9,2.6,0.9,4.3c0,6.4-4.5,15.5-11.5,22.3c-4,3.8-7.5,5.7-10.7,5.7c-1.8,0-2.7-0.3-4.5-1.6c-1.2-0.9-2.4-1.6-2.6-1.6
		c-0.6,0-3.3,6.9-4.1,10.5c-0.4,1.9-0.6,3.4-0.6,4.6c0,2.6,0.4,2.9,1.3,5l2.8-0.3c6.7-0.7,12.6-3.5,19-8.8c3.5-2.8,5.1-4,5.6-4
		c0.1,0,0.2,0.1,0.2,0.2c0,0.2-0.2,0.6-0.5,0.7c-0.2,0.1-0.2,0.3-0.2,0.6l0.1,0.3c0.1,0.3,0.2,0.5,0.4,0.5c0.1,0,0.3-0.1,0.5-0.3
		l0.5-0.3c0.1,0,0.2,0.1,0.2,0.2c0,0.3-1.7,2.2-3.7,4.3c-1.5,1.5-2.5,2.7-2.5,2.9c0,0.1,0,0.1,0.1,0.1l0.2-0.1c0.8-0.6,1.7-1,1.9-1
		s2.1-1.8,4.3-4c2.4-2.5,3.7-3.5,4.2-3.5l0.2,0.1C787.8,752.3,787.9,752.5,787.9,752.8z M766.5,738.5L766.5,738.5
		c-0.2,0-1.1,0.4-2.1,1.1c-1.3,0.8-2.4,1.7-2.4,1.8l0.1,0.1C762.5,741.5,766,739.2,766.5,738.5L766.5,738.5z M780.8,720.1
		c-1.7,6.5-5.5,12.5-11.4,18.1c-1.2,1.1-2,1.9-2,2.2l0.1,0.1l0.2-0.1c0.7-0.3,2.4-1.8,4-3.1c4.7-4.3,8.4-9.9,9.7-14.6
		c0.3-1,0.7-1.7,0.8-1.7h0.1c0.1,0,0.1-0.4,0.1-1v-0.8c-0.1-1.1-0.4-2-0.5-2C781.7,717.1,781.2,718.4,780.8,720.1z M779,719.8
		c-0.8,2.6-2.3,5.4-4.9,9.4l-1.7,2.5v0.1c0.1,0,0.5-0.5,1.3-1.3c0.9-1,2.8-3.7,4-5.9c1.2-2.2,2.4-4.9,2.6-5.9l0.1-1
		c0-0.3-0.1-0.4-0.1-0.4C780,717.2,779.5,718.2,779,719.8z M768.9,725.7c-2.4,3-7.4,10.5-7.4,11.1c0,0.1,0.1,0.1,0.1,0.1
		c0.7,0,4.5-2.9,7-5.3c1.5-1.4,3.3-3.5,4.2-4.6c1.9-2.7,4.3-7.2,4.3-8.1v-0.1c0-0.1-0.1-0.1-0.1-0.1
		C776,718.8,771.3,722.8,768.9,725.7z M772.4,712.8c0,0.1,0.1,0.2,0.4,0.2c0.2,0,0.6-0.2,0.8-0.5l0.1-0.2c0-0.1-0.1-0.1-0.2-0.1
		l-0.4,0.1C772.6,712.5,772.4,712.7,772.4,712.8z M747.5,742.8c0.1,0.1,0.2,0.1,0.4,0.1c0.4,0,0.8-0.4,0.8-0.9
		c0-0.6,3.4-7.1,5.5-10.7c2.7-4.5,7.1-10,10.6-13.2c0.8-0.7,1.4-1.4,1.4-1.5l-0.1-0.1c-1.2,0-7.8,7.5-11.5,13
		C752,733.5,747.5,742,747.5,742.8L747.5,742.8z M745.9,748.6c0.7-1.9,1.3-3.8,1.5-4.2l0.1-0.5c0-0.2-0.1-0.3-0.2-0.3
		c-0.5,0-1.8,2.5-1.8,3.4l0.1,0.4c0,0.1-0.1,0.3-0.3,0.3c-0.3,0.1-0.6,0.8-0.7,1.5c-0.1,0.7-0.4,2.3-0.7,3.4c-0.2,1-0.5,2.8-0.5,4.3
		v0.5c0,1.3,0,1.9,0.1,1.9c0.1,0,0.2-1,0.6-3.3C744.5,753.9,745.3,750.5,745.9,748.6z M747.9,755.3c0-0.6-0.1-0.9-0.1-0.9l-0.1,0.2
		c-0.3,0.7-0.5,3.4-0.5,5.1c0,0.7,0.1,1.3,0.1,1.3h0.1c0.1-0.1,0.2-1.8,0.4-3.8L747.9,755.3z M752,741.3c1.7-3.3,7.2-12.3,9.7-15.5
		c2.5-3.3,7.7-8.5,10.3-10.3c1.1-0.8,1.8-1.2,2.1-1.2c0.1,0,0.1,0.1,0.1,0.1c0,0.1-0.1,0.3-0.4,0.6c-0.2,0.2-0.3,0.4-0.3,0.5v0.1
		c0.1,0,0.5-0.2,1.1-0.6c1.1-0.7,1.7-1,1.7-1.1l-0.1-0.1l-0.8,0.2c-0.3,0.1-0.5,0.1-0.7,0.1c-0.1,0-0.2,0-0.2-0.1l0.1-0.3
		c0-0.1,0-0.1-0.1-0.1c-0.5,0-2.6,1.1-4.6,2.5c-6.4,4.5-12.8,12.7-18.4,23.5c-3.3,6.3-6.1,14-6.1,16.8c0,1.8,0.6,4.5,1.1,4.5
		c0.1,0,0.1-1.2,0.2-2.6C746.6,754.1,748.3,749.1,752,741.3z M770.3,763.3l-0.1-0.1c-0.3,0-0.9,0.3-1.4,0.7
		c-0.4,0.2-0.5,0.5-0.5,0.6c0,0.1,0,0.1,0.1,0.1c0.2,0,0.9-0.3,1.4-0.6C770.1,763.6,770.3,763.4,770.3,763.3z M772.6,761.9l-0.1-0.1
		c-0.2,0-0.5,0.2-0.9,0.6c-0.4,0.4-0.6,0.6-0.6,0.6c0.1,0,0.4-0.1,0.8-0.4C772.3,762.4,772.6,762.2,772.6,761.9L772.6,761.9z
		 M774.6,760.8c0-0.1-0.1-0.1-0.2-0.1l-0.4,0.1c-0.5,0.2-0.7,0.3-0.7,0.5s0.1,0.2,0.4,0.2c0.2,0,0.6-0.2,0.8-0.5L774.6,760.8z"/>
</g>
</svg>
