<?xml version="1.0" encoding="utf-8"?>
<!-- Generator: Adobe Illustrator 24.3.0, SVG Export Plug-In . SVG Version: 6.00 Build 0)  -->
<svg version="1.1" id="focus-four-me-logo-3" xmlns="http://www.w3.org/2000/svg" xmlns:xlink="http://www.w3.org/1999/xlink"
	 x="0px" y="0px" viewBox="0 0 1500 550" style="enable-background:new 0 0 1500 550;" xml:space="preserve">
<style type="text/css">
	.st0{fill:#DD1010;}
</style>
<g id="focus-four-me-logo-3-parts">
	<path id="product-link-main" d="M862.1,337.2c0,0.1,0.1,0.3,0.1,0.4L862.1,337.2z M862,336.9c0.1,0.3,0.2,0.7,0.2,1v6.3
		c-0.1,0.3-0.2,0.5-0.2,0.8c-0.1,0.8,0,1.7-0.2,2.5c-1.4,7.3-4.1,14-8.2,20.1c-1.4,2-2.9,3.9-4.7,5.6c-2,1.9-4.3,3.3-6.3,5.1
		c-3.7,3.3-8.1,5.2-12.6,6.9c-1.5,0.6-3.1,1-4.6,1.4c-1.9,0.4-3.9,0.8-5.8,1c-1.2,0-2.4,0-3.6,0c-0.4,0-0.8,0.2-1.1,0.3H677.4
		c-1.2-0.6-2.4-0.1-3.6-0.3c-0.2,0-0.4,0.2-0.6,0.3H658c-0.2-0.1-0.5-0.3-0.7-0.3c-0.3,0-0.5,0-0.8,0c-0.5,0-1.1,0-1.6,0
		c-0.2-0.1-0.3-0.1-0.5-0.1c-6.9-0.4-13.3-2.5-19.4-5.9c-2.6-1.5-4.9-3.3-7.2-5.1c-2.8-2.3-5.3-4.8-7.4-7.8
		c-2.5-3.6-4.4-7.6-6.3-11.5c-1.2-2.4-2.1-4.9-2.2-7.6c-0.1-1.8-0.5-3.5-1.1-5.2c-0.1-0.8,0.3-1.6-0.2-2.3c0.1-0.7,0.2-1.3,0.3-2
		l-0.4-0.9c0.1-0.3,0.2-0.6,0.2-0.9c0.2-1.5,0.2-2.9,0.5-4.4c0.5-2.9,1-5.7,1.6-8.6c0.8-4.6,1.6-9.2,2.4-13.9
		c0.7-3.8,1.3-7.6,2-11.4c1-5.7,2-11.3,3-17c0.5-2.8,1.2-5.7,1.7-8.5c1.2-6.9,2.4-13.8,3.6-20.6c1.4-7.8,3.4-15.3,6.8-22.5
		c3-6.2,6.5-12.2,10.7-17.7c3.2-4.2,6.9-7.9,10.8-11.5c2-1.8,4.2-3.5,6.3-5.1c2-1.5,4.1-2.9,6.2-4.4c2.9-2.1,6-4,9.3-5.5
		c3.6-1.6,7.1-3.2,10.7-4.8c0.6-0.3,1.2-0.7,1.8-1c-0.1-0.3-0.2-0.4-0.2-0.5c-3.2-4.4-6.3-8.8-9.5-13.3c-3.8-5.4-7.3-11-10-17
		c-4.7-10.1-7.4-20.8-7.9-31.9c-0.2-4.9-0.2-9.8,0.6-14.6c1.1-7.8,3.1-15.4,6.4-22.7c0.9-2,1.8-4,2.9-5.9c1.1-2,2.4-3.9,3.8-5.8
		c0.1-0.2,0.3-0.4,0.4-0.6c0.7-0.9,1.4-1.9,2.1-2.8c0.2-0.2,0.3-0.5,0.5-0.7c0.3-0.4,0.7-0.9,1.1-1.3c0.2-0.2,0.4-0.4,0.5-0.7
		c0.5-0.6,1.1-1.2,1.7-1.8c3.2-3.3,6.8-6.2,10.3-9.2c0.2-0.2,0.5-0.4,0.8-0.5c0.7-0.4,1.5-0.8,2.2-1.3c2.4-1.6,4.8-3.3,7.5-4.4
		c2.6-1.1,5.3-2,7.9-3.2c6.2-2.8,12.6-4.2,19.4-4.7c0.9-0.1,1.8-0.3,2.7-0.5h6.1c0.7,0.6,1.5,0.2,2.2,0.2c1.4,0.1,2.8,0.2,4.3,0.3
		c7.2,0.4,14.2,2,20.9,4.6c10.1,4,19.1,9.7,26.7,17.5c1.7,1.8,3.1,3.8,4.7,5.6c0.5,0.6,1,1.2,1.5,1.8c0.2,0.2,0.3,0.4,0.5,0.6
		c0.2,0.3,0.5,0.6,0.7,0.9c0.1,0.1,0.2,0.2,0.2,0.3c0.2,0.2,0.3,0.4,0.5,0.7c0.3,0.4,0.6,0.8,0.9,1.3c0.1,0.2,0.3,0.4,0.4,0.7
		c0.3,0.5,0.6,1,1,1.5c0.1,0.1,0.2,0.3,0.2,0.4c0.4,0.6,0.8,1.3,1.1,2c0.1,0.2,0.2,0.4,0.3,0.6c0.3,0.5,0.5,1,0.8,1.5
		c0.1,0.2,0.2,0.5,0.3,0.7c0.2,0.5,0.5,1,0.7,1.5c0.1,0.2,0.2,0.4,0.3,0.6c0.3,0.7,0.6,1.4,0.9,2.1c0.7,1.7,1.1,3.4,1.7,5.1
		c2,5.1,3,10.5,3.5,16c0.1,1,0,2,0.2,3c0.6,4.4,0.7,8.8,0.4,13.2c-0.3,4.1-0.9,8.2-1.9,12.3c-1.5,6.8-3.7,13.4-6.8,19.6
		c-2,4-4.6,7.8-7,11.6c-3.5,5.4-7.2,10.7-10.7,16.1c-0.3,0.4-0.5,0.8-0.7,1.2c1,0.9,2,1.5,3.2,1.9c4.8,1.7,9.5,3.6,13.8,6.3
		c3.2,2,6.3,4.2,9.4,6.3c1.3,0.9,2.6,1.7,3.7,2.7c1.8,1.6,3.5,3.2,5.2,4.9c2.2,2.2,4.4,4.3,6.5,6.6c3.8,4.3,7,9.1,10,14.1
		c4,6.7,7.1,13.7,8.8,21.3c1.5,7.1,2.9,14.1,4.2,21.2c0.9,4.6,1.6,9.3,2.5,14c0.8,4.3,1.5,8.6,2.3,12.9c1.2,6.3,2.4,12.7,3.5,19
		c0.5,2.6,1,5.2,1.5,7.9c0.4,2.2,0.7,4.4,1,6.7C861.2,330.6,861.6,333.8,862,336.9c0,0.1,0.1,0.2,0.1,0.2L862,336.9z M692.7,161.4
		c1.3,2,2.2,4.2,4,5.9c0.8,0.8,1.5,1.6,2.3,2.4c0.9,1,1.7,2,2.6,3c0.8,0.9,1.1,0.9,2.1,0.2c0.4-0.3,0.7-0.6,1.1-0.9
		c3.7-3.4,5.9-7.4,5.5-12.5c-0.1-1.2-0.3-2.3-1-3.4c-3.1-5.2-6.2-10.5-9.1-15.8c-4.3-7.9-6.8-16.4-6.6-25.5c0.1-1.9,0.3-3.9,0.3-5.8
		c0-3.2,0.8-6.3,2-9.2c0.7-1.8,1.2-3.6,2-5.3c0.9-1.8,1.9-3.6,2.9-5.3c1.6-2.8,3.9-5.1,6.4-7.2c5.1-4.3,10.8-7.6,17.4-8.9
		c2-0.4,4-0.6,6-0.9c4.4-0.7,8.8-0.9,13.2-0.1c6.9,1.3,13.3,3.5,19.1,7.7c7.8,5.7,13.2,13,15,22.7c0.4,2.3,0.9,4.5,1.1,6.8
		c0.3,2.9,0.1,5.8,0.1,8.7c0,0.8,0.2,1.7,0.1,2.5c-0.1,1.5-0.4,2.9-0.7,4.4c-1.3,7.1-4.2,13.6-8,19.7c-2.3,3.6-4.5,7.3-6.4,11.1
		c-1.3,2.7-1.8,5.5-0.9,8.4c0.3,1,0.4,2.1,1,2.8c1.6,2.1,3.3,4,5,5.9c0.2,0.2,0.5,0.4,0.7,0.5c0.1,0,0.2,0,0.3,0.1c0,0,0.1,0,0.1,0
		c0.1,0,0.3,0,0.4-0.1c0,0,0,0,0.1,0c0.1,0,0.2-0.1,0.3-0.2c0,0,0.1,0,0.1-0.1c0.1-0.1,0.2-0.2,0.4-0.3c0.6-0.6,1.1-1.3,1.6-1.9
		c4-4.9,8.1-9.7,11.1-15.3c2.4-4.6,5.1-9.1,7.3-13.8c1.7-3.6,3.1-7.4,4-11.3c0.6-2.8,0.9-5.7,1.3-8.6c0.3-2.2,0.4-4.3,0.2-6.5
		c-0.2-3-0.4-6.1-0.6-9.1c-0.1-1.1-0.1-2.2-0.4-3.3c-0.6-2.3-1.3-4.5-1.9-6.8c-1.1-3.9-2.3-7.7-4.3-11.2c-1.3-2.3-2.4-4.7-4-6.8
		c-0.8-1-1.5-2-2.4-3c-0.1-0.1-0.2-0.2-0.3-0.3c-0.8-0.9-1.6-1.8-2.4-2.6c-0.1-0.1-0.3-0.3-0.4-0.4c-0.8-0.8-1.7-1.6-2.6-2.4
		c-0.1-0.1-0.3-0.3-0.4-0.4c-0.9-0.8-1.8-1.5-2.8-2.3c-0.5-0.4-0.9-0.7-1.4-1.1c-7.3-5.2-15.3-8.7-24.2-10.4
		c-4.2-0.8-8.3-1.6-12.6-1.4c-2.1,0.1-4.2,0.1-6.3,0.3c-2.1,0.2-4.1,0.7-6.1,1.1c-5.6,1.1-11,2.8-16,5.5c-0.9,0.5-1.9,1-2.8,1.5
		c-0.3,0.2-0.6,0.4-0.9,0.5c-0.6,0.4-1.2,0.8-1.9,1.2c-0.3,0.2-0.6,0.4-1,0.6c-0.6,0.4-1.2,0.8-1.8,1.2c-0.3,0.2-0.6,0.4-0.9,0.6
		c-0.8,0.6-1.6,1.1-2.4,1.7c-1.1,0.8-2.1,1.8-3,2.8c-2,2.5-3.9,5-5.8,7.6c-2,2.7-4.1,5.3-5.7,8.3c-0.8,1.6-1.2,3.3-1.9,4.9
		c-2.7,7-3.8,14.3-4.1,21.7c-0.1,1.8,0,3.7,0.2,5.5c0.2,2.2,0.3,4.5,0.7,6.7c1.5,9.1,4.7,17.6,9.4,25.5
		C688.4,154.5,690.6,158,692.7,161.4z M633.8,296.7c0.1,0,0,0,0.2,0.1c0.1,0,0.2,0,0.3,0l0,0c0.4-0.3,0.9-0.5,1.3-0.8
		c3.2-2.2,6.7-3.9,10.4-5.1c4-1.2,8.2-1.7,12.3-2.4c0.9-0.1,1.8-0.2,2.7-0.3c1.5-0.2,2.3-0.3,3.9-0.1c0.3,0,0.7,0.1,1.1,0.1
		c1.8-0.5,1.9-0.5,3.7-1.5c3.9-2.2,7.7-4.6,11.4-7c5.4-3.5,10.5-7.6,15.4-11.9c2-1.7,4-3.4,5.8-5.3c2.6-2.8,5.1-5.7,7.6-8.6
		c2.3-2.7,4.7-5.4,6.8-8.3c2.5-3.5,4.8-7.2,7.1-10.9c1.4-2.2,2.6-4.6,4.2-6.7c2.7-3.5,6.4-4.7,10.7-4c3.4,0.5,5.9,2.4,7.7,5.3
		c1.4,2.2,2.7,4.5,4.2,6.7c2.7,4,4.9,8.2,7.9,11.9c4.4,5.4,8.8,10.8,13.9,15.5c2.8,2.6,5.6,5.2,8.5,7.7c2.4,2,5,3.9,7.5,5.8
		c5.3,3.9,10.9,7.2,16.6,10.4c0.6,0.3,1.1,0.5,1.2,0.6c0.5-0.1,1.3-0.1,1.6-0.1c3.6,0.5,7.3,0.8,11,1.2c1.7,0.2,3.5,0.4,5.2,0.8
		c4.2,1,8,2.9,11.8,4.9c1.2,0.6,2.4,1.3,3.6,2c0,0,0,0,0,0c0,0,0,0,0,0c0-0.2,0-0.4,0-0.5c-1.3-7.6-2.6-15.1-3.9-22.7
		c-0.5-2.6-0.8-5.3-1.4-7.9c-0.9-4.4-2-8.7-3-13.1c-1.5-7.1-3.9-13.9-7.5-20.2c-4.5-7.9-10.6-14.5-17.1-20.7
		c-0.2-0.2-0.4-0.3-0.5-0.4c-2.8-2-5.7-3.9-8.5-5.9c-3.6-2.5-7.5-4.5-11.5-6.3c-3.8-1.7-7.7-3-11.5-4.7c-2.9-1.3-5.7-2.9-8.5-4.6
		c-4.1-2.4-7.3-5.9-10.7-9.1c-0.4-0.4-0.8-0.8-1.1-1.2c-0.8-1.1-1.5-2.2-2.3-3.3c-2.1-3-3.7-6.2-4.2-9.9c-0.4-2.7-0.3-5.4-0.2-8.1
		c0.1-2.3,0.5-4.5,1.3-6.6c1.3-3.5,3.1-6.8,5.1-9.9c1.7-2.6,3.4-5.3,5.1-7.9c1.4-2.1,2.3-4.5,2.9-7c0.4-1.5,0.8-3,1.1-4.6
		c0.5-2.4,1.3-4.7,1.1-7.2c-0.1-0.8-0.1-1.6-0.2-2.3c-0.2-1.9-0.3-3.9-0.6-5.7c-0.9-4.7-3-8.9-6.6-12.2c-2.3-2.1-4.8-3.8-7.8-4.9
		c-2.4-0.9-4.7-1.8-7.2-2.4c-2.7-0.7-5.6-0.6-8.4-0.3c-3.8,0.4-7.5,1.5-10.9,3.3c-8.2,4.4-12.3,11.4-13.1,20.5
		c-0.3,2.9-0.1,5.9,0.2,8.8c0.2,1.4,0.4,2.8,0.7,4.2c1.1,4.1,3.1,7.9,5.2,11.6c2.4,4.1,4.9,8.1,7.2,12.3c3.1,5.5,3.8,11.4,2.8,17.5
		c-1.2,7.7-5,13.9-10.7,19c-3.8,3.4-8.2,5.9-12.8,8.2c-7.3,3.5-14.5,7-21.8,10.4c-5.4,2.6-10.1,6.1-14.7,9.8c-2.9,2.4-5.3,5.3-7.8,8
		c-3.3,3.5-5.7,7.7-8.3,11.7c-0.7,1.2-1.5,2.4-1.9,3.7c-1.4,3.7-2.6,7.5-4,11.2c-1.4,3.8-2.7,7.7-3.2,11.8
		c-0.6,4.9-1.5,9.7-2.3,14.6c-1.3,7.2-2.8,14.4-4.1,21.7C633.7,295.8,633.8,296.2,633.8,296.7z M731.4,372c-1.3-2.8-2.3-5.3-3.6-7.8
		c-1.6-3-3.4-6-5.2-8.9c-0.8-1.2-1.5-2.4-2.3-3.6c-2.6-4-5.5-7.8-8.5-11.5c-0.5-0.6-1.1-1.3-1.6-1.9c-2.3-2.7-4.8-5.1-7-7.8
		c-2-2.3-4.3-4.3-6.6-6.3c-3.4-2.8-6.9-5.5-10.4-8.2c-2-1.5-4-3.1-6.1-4.5c-3.5-2.2-7-4.4-10.7-6.4c-1.2-0.7-2.6-1.1-4-1.4
		c-2.6-0.5-5.2-0.1-7.7,0.2c-2.2,0.3-4.4,0.9-6.5,1.7c-9.8,3.6-16.8,10.4-21.5,19.6c-1,1.9-1.3,4.1-1.8,6.2c-1,4.2-1.7,8.4-1,12.7
		c0.3,1.5,0.3,3.1,0.8,4.6c1.1,3.5,2.6,6.8,4.7,9.8c4.2,6,9.6,10.2,16.7,12.2c4.2,1.2,8.4,1.6,12.7,1.7c2.9,0,5.8-0.1,8.7-0.1
		c7.4,0,14.8,0,22.2,0c3.9,0,7.8,0,11.7,0c8.1,0,16.2,0,24.3,0C729.4,372.2,730.2,372.1,731.4,372z M736.6,347.5
		c3.3-4.3,6.5-8.7,9.7-13c1.7-2.2,3.5-4.4,5.3-6.6c5.3-6.3,11.3-11.9,17.4-17.4c3.9-3.5,8.1-6.5,12.4-9.5c2.4-1.6,4.7-3.3,7.1-5
		c-0.3-0.2-0.3-0.2-0.5-0.4c-4.9-3.7-9.8-7.3-14.7-11c-4.2-3.1-8.3-6.4-12.1-10.1c-2.6-2.6-5-5.4-7.5-8.1c-3-3.3-5.9-6.7-8.5-10.4
		c-2.6-3.7-5.2-7.4-7.8-11.1c-0.2-0.3-0.5-0.5-0.7-0.8c-0.7,0.8-1.5,1.5-2.1,2.3c-1.3,1.8-2.4,3.6-3.7,5.3c-2.9,4-5.8,8.1-8.9,12
		c-2.5,3.1-5.4,5.9-8.1,8.9c-0.5,0.5-1,1.1-1.5,1.6c-1.2,1.1-2.5,2.1-3.7,3.2c-2,1.7-3.8,3.7-5.9,5.3c-4.5,3.4-9.1,6.7-13.7,10.1
		c-1.4,1-2.5,1.7-4.1,2.8c0.4,0.3,0.8,0.6,1.1,0.8c3.4,2.3,6.7,4.7,10.1,7c0.2,0.1,0.3,0.2,0.5,0.4c1,0.8,2,1.6,3,2.3
		c4.2,3.1,8.3,6.3,12,10c3.6,3.6,7.2,7.1,10.2,11.2c1.8,2.4,3.7,4.6,5.5,6.9c0.5,0.7,1.1,1.4,1.6,2.1c2.2,3,4.1,6.1,6.1,9.2
		C735.6,346.3,736,347.1,736.6,347.5z M845.8,331.5c-1-4.4-2.9-8.3-5.5-12c-4-5.8-9.1-10.2-15.6-13c-4.6-2-9.5-2.8-14.5-3.2
		c-2.1-0.1-3.9,0.4-5.6,1.5c-0.8,0.6-1.7,1.1-2.6,1.6c-2,1.1-4.1,2.1-6,3.5c-4.6,3.2-9.1,6.6-13.7,9.9c-1.9,1.4-3.8,2.6-5.4,4.3
		c-4,4.2-8,8.3-12.1,12.4c-0.7,0.8-1.5,1.5-2.2,2.3c-2.1,2.3-4,4.6-5.7,7.2c-1.2,1.8-2.4,3.5-3.6,5.3c-0.9,1.2-1.7,2.5-2.5,3.8
		c-1.5,2.3-2.8,4.8-4.2,7.1c-1.1,1.8-1.2,3.5-0.4,5.4c0.3,0.7,0.6,1.3,0.8,2c0.3,0.8,0.5,1.5,0.8,2.4c1.6,0.1,3.1,0.2,4.5,0.2
		c5.7,0,11.5,0,17.2,0c4.1,0,8.2,0,12.3,0c10,0,20,0,30.1,0c2.3,0,4.5-0.1,6.8-0.3c2.8-0.3,5.7-0.7,8.2-2.2c0.8-0.5,1.7-0.9,2.6-1.4
		c2.7-1.5,5.5-2.9,7.7-5.2c3-3.1,5.4-6.6,7.2-10.5c0.9-2.1,1.5-4.2,1.6-6.5c0.1-1.9,0.2-3.8,0.4-5.6
		C846.6,337.5,846.4,334.5,845.8,331.5z M735.7,113.8c0.6,0.1,1.2,0.3,1.8,0.2c4.3-0.6,7.9-2.6,10.8-5.9c0.8-0.9,0.8-1.9,0-2.8
		c-1.3-1.4-2.8-2.7-4.5-3.7c-2.2-1.2-4.5-1.9-6.5-2c-2.4,0-4.2,0.5-5.9,1.3c-2,1-3.8,2.5-5.4,4.1c-1.2,1.1-1.2,2-0.1,3.2
		C728.5,111.2,731.8,113,735.7,113.8z"/>
	<path id="me-word" d="M886.6,465l0.7-1C887.3,464.5,887,464.8,886.6,465z M886.6,465c-0.1,0-0.1,0-0.1,0.1
		C886.5,465.1,886.6,465.1,886.6,465z M861.3,472c0.1-0.1,0.2-0.2,0.4-0.3c0.9-0.8,1.1-1.3,0.7-1.6
		C861.8,470.8,861.4,471.4,861.3,472z M880.7,473.7c0.2,0,0.3,0,0.3-0.1C880.8,473.6,880.7,473.6,880.7,473.7z M863.5,468.9
		c0.3,0.3,0.6,0.3,0.9,0.1c0.3-0.2,0.4-0.4,0.4-0.7C864.4,468.2,863.9,468.4,863.5,468.9z M893,458.6c0-0.1-0.2-0.2-0.5-0.1
		c0,0.1,0,0.2,0.1,0.3v0.3h0.1C892.9,458.9,893,458.7,893,458.6z M895.7,459.7c0.2,0,0.4,0.1,0.5,0.2c0,0.8,0,1.4-0.1,2
		c-0.1,0.6-0.3,1.2-0.6,1.9c-0.3,0.7-0.6,1.2-0.6,1.5c-0.1,0-0.2,0-0.4-0.1c-0.2-0.1-0.3-0.1-0.4,0c-0.1,0.2,0,0.3,0.2,0.4
		c0.2,0,0.4,0.1,0.4,0.2c-0.2,0.7-0.5,1-1,1c0.3,0.7,0.3,1.5-0.1,2.6c-0.3,1.1-0.8,1.9-1.5,2.6c0.3,0.1,0.4,0.3,0.3,0.6
		c0,0.1-0.1,0.1-0.4,0.1c0.4,0.2,0.4,0.7,0.1,1.4c-0.3,0.8-0.5,1.3-0.4,1.6c-0.1,0-0.1,0.2-0.1,0.7c-0.5,0.1-0.9,0.4-1.1,0.9
		c0.1,0.1,0.3,0.1,0.5,0c0.2-0.1,0.5,0,0.6,0.1c-0.5,0.3-1,0.4-1.4,0.4c0.3,0.2,0.4,0.4,0.4,0.7c0,0.3,0,0.6,0.2,1
		c-0.2,0-0.4,0.1-0.6,0.3c-0.1,0.2,0,0.3,0.1,0.4c0.2,0,0.2,0.2,0.1,0.4c-0.1,0-0.3,0.2-0.6,0.5c-0.3,0.3-0.6,0.6-0.9,0.6
		c0,0.2,0,0.3,0.1,0.4c0,0,0.1,0,0.2-0.1c0.3,0,0.5,0,0.6,0.1c-0.1,0.1-0.3,0.4-0.6,1s-0.6,0.9-0.9,1c0.1,0.2,0.2,0.4,0.3,0.6v0.3
		c0,0.1-0.2,0.1-0.6,0.1c0.3,1.6-0.2,4.3-1.6,8c0,0.2,0.2,0.4,0.7,0.6c-0.3,0.1-0.5,0.4-0.6,0.8c-0.1,0.4-0.2,0.7-0.3,0.8
		c0.3,0.6,0.4,1.6,0.2,3c-0.1,1.4-0.1,2.4,0.1,3c0.6-0.2,0.9,0,1.1,0.6c0.1,0.6,0.3,1.2,0.6,1.9c0.2,0.6,0.7,0.9,1.5,0.9
		c-0.1,0.3-0.1,0.5,0.1,0.6s0.2,0.3,0.2,0.4c-0.6,0.5-1.2,0.7-1.8,0.8c-0.6,0-1.2-0.1-1.7-0.5c-0.5-0.4-1-0.8-1.4-1.2
		s-0.9-1-1.4-1.6c-0.5-0.6-0.9-1.1-1.2-1.4v0.3c-1.1-1.7-1.8-3.8-1.9-6.2c-0.1-2.4,0-4.6,0.5-6.5c0.5-1.9,1.1-4.2,1.8-6.9
		c0.7-2.7,1.2-4.7,1.4-6c-8.2,10.4-14.1,12.2-17.7,5.5c-0.1,0-0.2,0.1-0.2,0.2c0,0.1-0.2,0.2-0.4,0.1c-0.5-0.9-0.7-1.8-0.8-2.8
		c0-1,0-2.3,0.2-3.8c0.2-1.5,0.3-2.6,0.3-3.2c-0.7,0.9-3,4.2-6.9,10c-3.9,5.8-7.4,9.8-10.3,11.9c-1.4-0.2-2.6-0.6-3.5-1.3
		c-0.9-0.7-1.5-1.5-1.9-2.5c-0.3-1-0.5-2-0.6-3.1c-0.1-1.1,0-2.3,0.3-3.7s0.6-2.7,0.8-3.7c0.2-1.1,0.6-2.3,1.1-3.9
		c0.5-1.5,0.8-2.6,1-3.3c0.3-4,1.6-8.6,4-13.8c1.1-1.2,2.4-1.3,3.9-0.2c1.6,1.1,2.3,2.5,2.1,4.1c-0.3,2.8-2.4,9.8-6.3,21
		c1-0.8,2.1-2.1,3.3-3.9c1.2-1.8,2.2-3.1,3-3.7c0.5-1.2,1.4-2.8,2.9-4.5c1.4-1.8,2.4-3.1,2.9-3.9c0.2-0.1,0.8-0.7,1.9-1.8
		c1.1-1.1,2.2-1.6,3.6-1.4c-0.1,0.2-0.1,0.3,0,0.4c0.1,0.1,0.1,0.2,0.1,0.4c0.1,0,0.3,0,0.6,0s0.4,0,0.4,0.1c0,0,0,0.2-0.1,0.4
		c1.1-0.3,1.9-0.4,2.6-0.3c0.1,0.2,0.1,0.3,0,0.3l-0.4,0.1c0.1,0.2,0.3,0.3,0.7,0.4c0.4,0.1,0.6,0.2,0.7,0.3c0,0.3,0,0.6,0,0.9
		s0,0.5,0,0.7c0,0.2,0.1,0.4,0.2,0.5c0.1,0.1,0.3,0.3,0.5,0.4c-0.3,1.9-0.2,3.4,0.1,4.4c-0.4,0.4-0.6,1-0.7,1.7
		c-0.1,0.8-0.1,1.7-0.1,2.7s0,1.7-0.1,2.2c1.2-0.6,2.3-1.3,3.2-2.1c0.9-0.8,2.1-2.1,3.5-3.8c1.4-1.7,2.2-2.7,2.4-2.9h-0.6
		c1.4-1.1,3.1-3,5-5.7c1.9-2.8,3.4-4.7,4.5-5.7c0-0.5,0.1-1,0.4-1.5c0.3-0.5,0.5-0.9,0.6-1.1c0.8,0.2,1.3,0.3,1.6,0.4
		c0,0.1-0.1,0.4-0.4,1c0.1,0.3,0.2,0.3,0.4,0.1c0.1-0.2,0.3-0.4,0.5-0.4c-0.1,0.2-0.1,0.3,0,0.4c0.1,0.1,0.2,0,0.4-0.1
		c0.3,0.2,0.5,0.3,0.6,0.3c0.1,0,0.3-0.1,0.6-0.4c0.3-0.3,0.5-0.4,0.6-0.4c0.7,0.5,0.9,0.9,0.7,1.1
		C895.3,459.7,895.4,459.7,895.7,459.7z M862.9,467.1h0.3v-0.3h-0.3V467.1z M859,476.5c0-0.2,0-0.3-0.1-0.4c0,0.1,0,0.1-0.1,0.1v0.3
		C858.8,476.6,858.9,476.6,859,476.5z M860,474.5c-0.2,0.1-0.4,0.3-0.6,0.6c-0.2,0.3-0.2,0.6,0,0.6
		C859.5,475.6,859.7,475.1,860,474.5z M864.6,467.6c0.6-0.1,0.9-0.1,1-0.1c-0.1-0.2-0.1-0.5-0.1-0.9c0-0.4,0-0.6,0-0.7
		c-1,0.5-2,1.4-3.1,2.8c-1.1,1.4-2,2.3-2.8,2.7c-0.6,1.6-1.7,3.7-3.4,6.1c-1.7,2.4-2.9,4.2-3.4,5.2c0.4-0.2,0.8-0.7,1.2-1.4
		c0.4-0.8,0.8-1.2,1.2-1.4c0,0.1-0.1,0.2-0.3,0.4l0.3,0.3c0-0.1,0.2-0.4,0.6-0.9c0.4-0.5,0.5-1,0.4-1.5c0.8-0.2,1.5-1,2.2-2.3
		c0.7-1.3,1.5-2.2,2.2-2.6c-0.2,0.2-0.3,0.4-0.2,0.5c0,0.1,0.2,0.2,0.4,0.2c0.5-0.9,1.3-1.9,2.4-3.2s1.9-2.2,2.3-2.7
		C864.9,468.1,864.6,467.9,864.6,467.6z M866.5,474c0-0.2-0.1-0.3-0.4-0.3l0.1,0.3c0,0.1,0,0.2,0.1,0.3
		C866.3,474.1,866.4,474,866.5,474z M881.3,471.4c0.2,0.1,0.4,0,0.6-0.3C881.6,471.2,881.4,471.2,881.3,471.4z M875.4,479
		c-1,0.3-1.6,0.9-1.9,1.7c0.2,0.2,0.3,0.3,0.3,0.4c0.2,0,0.4-0.1,0.6-0.3c0.2-0.2,0.4-0.3,0.5-0.3c-0.3-0.3-0.3-0.6,0-0.9
		S875.4,479.2,875.4,479z M883.7,484.2h0.3v-0.3h-0.3V484.2z M883.1,486.1c0,0.4,0,0.6,0.1,0.6c0-0.1,0.1-0.1,0.3-0.1
		C883.5,486.2,883.3,486.1,883.1,486.1z M882.7,488.5c0-0.1,0-0.2,0.1-0.4c0.2-0.4,0.1-0.6-0.1-0.6c0,0.2,0,0.4-0.1,0.6
		C882.5,488.3,882.5,488.4,882.7,488.5z M882.4,489.1l0.1,0.1c0,0.2,0,0.3,0.1,0.3c0-0.1,0-0.1,0.1-0.1
		C882.8,489.1,882.7,489,882.4,489.1z M882,496h-0.4v0.3h0.4V496z M882.7,495.8h-0.4v0.1l-0.1,0.1
		C882.5,496.1,882.7,496,882.7,495.8z M882.7,495.4c0-0.2-0.1-0.3-0.3-0.4c-0.2,0-0.4,0-0.6,0c-0.2,0-0.3,0.1-0.3,0.2
		C881.7,495.4,882.1,495.4,882.7,495.4z M882.8,493.3h-0.4v0.3h0.4V493.3z M883,491.8h-0.3v0.7h0.3V491.8z M883.6,490.2
		c-0.2-0.2-0.3-0.3-0.4-0.4c0,0.1,0,0.2,0,0.4c0,0.2,0,0.3-0.1,0.4C883.3,490.8,883.5,490.6,883.6,490.2z M883.6,495.3
		c0,0.1-0.1,0.1-0.3,0.1v0.4c0.2,0.1,0.3,0,0.4-0.2C883.8,495.4,883.7,495.3,883.6,495.3z M883.8,486.5c0,0.1,0,0.3-0.1,0.6
		c0,0.3-0.1,0.6-0.1,0.8c0,0.2,0,0.4,0.1,0.6C884.3,487.3,884.3,486.6,883.8,486.5z M884.6,485.9c0-0.3-0.2-0.4-0.6-0.3v0.3H884.6z
		 M884.6,484.9c0-0.1,0-0.2,0.1-0.3c0.2-0.4,0.1-0.6-0.1-0.6c0,0.1,0,0.2-0.1,0.3C884.2,484.6,884.3,484.8,884.6,484.9z
		 M884.3,471.2c0.2,0,0.4,0,0.4-0.2c-0.1,0-0.2,0-0.3-0.1c-0.1-0.1-0.2-0.1-0.3,0C884,471.1,884.1,471.2,884.3,471.2z M884.8,486.7
		c-0.1,0.1-0.1,0.3-0.1,0.7c0,0.4,0,0.6,0.1,0.7C885.2,487.2,885.2,486.8,884.8,486.7z M885.9,487.7c0-0.1-0.1-0.1-0.2-0.1
		s-0.2,0-0.2,0.1c0,0.1,0,0.2,0.1,0.3C885.7,487.9,885.8,487.8,885.9,487.7z M885.9,476.6c0.1,0.2,0.1,0.4-0.1,0.7s-0.1,0.4,0.1,0.4
		C886.2,476.9,886.2,476.5,885.9,476.6z M887.1,474c-0.3,0-0.5,0.1-0.6,0.2c-0.1,0.1-0.1,0.4-0.1,0.6s0,0.5-0.1,0.6
		C886.4,475.5,886.7,475,887.1,474z M887.4,473.4c0-0.2,0-0.4-0.2-0.4c0,0.2,0,0.2-0.1,0.1v0.4C887.2,473.7,887.3,473.6,887.4,473.4
		z M886.6,481.8c0,0.5,0.1,0.7,0.4,0.6C887,482.2,886.9,482,886.6,481.8z M887.3,488.5c0-0.2,0-0.3-0.1-0.4c0.1,0.3,0,0.5-0.2,0.6
		c-0.2,0.1-0.4,0.3-0.4,0.5c0.2,0.1,0.4,0,0.5-0.1C887.2,488.9,887.3,488.7,887.3,488.5z M887.6,485.2c-0.1,0-0.1,0-0.1-0.1h-0.3
		c0,0.5,0,0.7,0.1,0.7c0-0.1,0-0.2,0.1-0.3C887.5,485.4,887.6,485.3,887.6,485.2z M887.3,481.5c0,0.3,0.1,0.5,0.3,0.7
		C887.9,482,887.8,481.8,887.3,481.5z M887.9,479.5c-0.2,0-0.4,0.1-0.6,0.3C887.5,479.8,887.7,479.7,887.9,479.5z M888,478.9
		c0-0.2-0.1-0.4-0.4-0.6C887.6,478.8,887.7,479,888,478.9z M888.3,481.2l-0.1-0.1c-0.1-0.1-0.2-0.1-0.3-0.1v0.6h0.3l0.1-0.1V481.2z
		 M888.4,462.7c-1,0.2-1.9,1.3-2.7,3.3c0.1-0.1,0.2-0.2,0.3-0.4c0.1-0.2,0.2-0.3,0.4-0.4c0,0.7-0.4,1.2-1.1,1.6l0.1-0.1
		c0-0.1,0-0.2,0-0.3c-0.5,0-0.7,0.2-0.7,0.6l0.1,0.1l0.1,0.1c-0.5,0.8-0.8,1.1-1,1.1v-0.1c0.1-0.1,0.1-0.2,0.1-0.3
		c-0.8,0.4-1.1,0.9-1.1,1.4c0.2,0,0.3-0.2,0.4-0.5c0.1-0.3,0.3-0.5,0.6-0.4c-1.7,2.9-3.1,4.5-4.2,5c0.3-0.2,0.4-0.1,0.4,0.3
		c-0.9,0.8-2.2,2.2-4,4.5c0.5-0.1,0.9-0.4,1.3-0.9c0.4-0.5,0.8-0.8,1.1-0.9c-0.1,0.1-0.2,0.2-0.4,0.4c-0.1,0.2-0.2,0.3-0.2,0.4
		c0.3,0,0.5-0.1,0.6-0.4s0.3-0.5,0.5-0.6c0.1,0.1,0.4,0.1,0.9,0.1c0-0.1-0.1-0.2-0.2-0.3c-0.1-0.1-0.2-0.2-0.2-0.4
		c0.2,0,0.4-0.2,0.6-0.6c0.2-0.4,0.4-0.5,0.7-0.3c0,0.1-0.1,0.2-0.2,0.3c-0.1,0.1-0.2,0.2-0.2,0.3c0.1,0,0.3,0,0.5-0.1
		c0.2,0,0.4-0.1,0.5-0.2c-0.2-0.2-0.2-0.3-0.1-0.4c0.1-0.1,0.3-0.1,0.6,0V474c-0.1-0.1-0.2,0-0.4,0.1c-0.2,0.2-0.3,0.1-0.4-0.1
		c0.2-0.1,0.4-0.3,0.7-0.6c0.3-0.3,0.6-0.5,1-0.4c0-0.3,0.4-0.7,1.3-1.1c0.1-0.2,0-0.4-0.1-0.6l-0.4-0.3c0.6-0.6,0.9-0.9,1-0.9
		c0.1,0,0.1,0.1,0.1,0.4c0.3-0.1,0.6-0.4,0.9-0.9c0.3-0.5,0.6-0.8,0.9-0.9c-0.1-0.2,0-0.5,0.2-0.9c0.2-0.4,0.1-0.7-0.4-0.8
		c1,0,1.2-0.7,0.9-2C887.6,465,888,464.2,888.4,462.7z M889,461.1h-0.6c0.1,0.2,0.1,0.4-0.1,0.7s-0.1,0.4,0.1,0.4
		c0-0.1,0.1-0.3,0.3-0.5C888.9,461.5,889,461.3,889,461.1z M892.7,470.4c0-0.3,0-0.4-0.1-0.4c0,0.1-0.1,0.2-0.2,0.2
		c-0.1,0-0.2,0.1-0.1,0.2H892.7z M885.3,469.1v-0.6C885,468.9,885,469,885.3,469.1z M860.6,472.3c0,0.6,0.1,0.9,0.3,0.9
		c0.4-0.3,0.4-0.6,0-1C860.9,472.4,860.8,472.5,860.6,472.3z M891.7,476.2c0-0.1-0.1-0.2-0.3-0.4v0.4H891.7z M956.9,463.5
		c-0.3,0-0.5,0.1-0.7,0.4c0.1,0,0.2,0,0.3,0C956.8,464,957,463.8,956.9,463.5z M940.6,470.1c6.4-2.9,11.6-5,15.6-6.1
		c0,0.2,0,0.3,0.1,0.3c-5.6,2.4-9.8,4.3-12.3,5.6c0.2,0.4,0.4,0.5,0.6,0.4c0.2-0.1,0.5-0.3,0.8-0.5c0.3-0.2,0.6-0.4,0.8-0.4
		c-0.6,0.6-1.3,1.2-2.2,1.8c-0.9,0.6-1.7,1.1-2.2,1.4s-1.5,0.7-2.9,1.3c-1.3,0.6-2.2,0.9-2.4,1c-0.1,0.3,0,0.6,0.1,0.8
		c0.2,0.2,0.3,0.5,0.3,0.6c-0.3,0.1-0.5,0-0.6-0.3c-0.1-0.3-0.2-0.4-0.4-0.4c-0.3,0.5-0.8,0.8-1.7,1.1c-0.8,0.2-1.4,0.6-1.7,0.9
		c-0.1,0.1,0,0.2,0.3,0.3c0.1,0.1,0.2,0.1,0.3,0.1c-0.2,0.2-0.6,0.4-1.1,0.6c-0.5,0.2-0.8,0.4-0.9,0.5c0,0.4,0.2,0.5,0.6,0.4
		c-1.1,0.9-2,1.1-2.7,0.6c-0.6,0.8-1,1.3-1.1,1.6c-0.9,0.3-2.6,0.9-5.1,1.9c-2.5,1-4.7,1.7-6.6,2.2c-1.9,0.5-3.9,0.8-6.1,0.9
		c-3.7,0-6.5-1.2-8.4-3.6c-1.9-2.4-2.7-5.1-2.6-8.3c0.1-3.1,1-6,2.7-8.5c2.2-2.4,3.9-4.2,5.2-5.4c1.3-1.2,3.2-2.4,5.7-3.7
		c2.5-1.3,5.1-1.9,7.9-1.9c1.7,1.1,2.7,2.7,3,5c0.3,2.2-0.1,4.3-1.1,6.1c-0.9,0.7-2,1.7-3.5,3.1c-1.5,1.4-2.9,2.6-4.2,3.5
		c-1.3,1-2.7,1.7-4.2,2.2c-3.4,0.3-5.4-0.8-6-3.3c-1.5,1.1-2.4,3.1-2.7,6c0.8,0.9,1.8,1.6,3,2.2c6,0,11.9-0.9,17.7-2.7
		C928.2,475.4,934.2,473,940.6,470.1z M906.2,468.7c7.8-2.4,12.8-6.2,14.8-11.3c-0.2,0-0.3-0.1-0.4-0.2c-0.1-0.1-0.2-0.2-0.3-0.2
		c0,0.1,0,0.2,0,0.4l-0.1,0.1c-4.4,1.1-8.4,4.1-11.9,9.2c0.4,0,0.6,0,0.6,0.1c-0.2,0.3-0.6,0.6-1.4,0.9S906.3,468.3,906.2,468.7z
		 M911.7,481.9c-0.2-0.2-0.6-0.4-1.3-0.5c-0.7-0.1-1-0.1-1,0.2C910.6,482.1,911.4,482.2,911.7,481.9z M927.5,481.3
		c-0.4-0.2-0.5-0.1-0.4,0.1C927.3,481.7,927.5,481.6,927.5,481.3z M929.8,479.9h-0.4v0.3h0.4V479.9z M930.9,479.5
		c-0.2-0.2-0.4-0.2-0.6-0.1c-0.2,0.1-0.3,0.3-0.3,0.6C930.5,479.7,930.8,479.6,930.9,479.5z M932.2,477.6c-1,0.5-1.4,0.8-1.4,1
		C931.7,478.1,932.2,477.8,932.2,477.6z M943.7,470.3c-1,0.3-5,1.8-12.3,4.6c-7.2,2.8-12.9,4.4-17.2,4.9c1.8,0.6,5,0,9.6-1.7
		C930.5,476.6,937.1,474,943.7,470.3z M936.9,475.3c0,0.4,0.1,0.6,0.3,0.7C937.4,475.7,937.3,475.4,936.9,475.3z M935.4,476.8h0.4
		v-0.4h-0.4V476.8z M946.7,469.4v0.1l-0.1,0.1c0.4,0,0.5-0.1,0.4-0.3H946.7z M933.4,477.6v0.3h0.6
		C933.9,477.5,933.7,477.4,933.4,477.6z M946.9,469.1h0.4v-0.4h-0.4V469.1z M949.1,468.1c-1,0.2-1.5,0.4-1.7,0.7
		C948.3,469,948.9,468.8,949.1,468.1z M949.1,468.1c0.4,0.4,0.6,0.4,0.7,0l-0.3-0.3C949.3,467.8,949.1,467.9,949.1,468.1z"/>
	<path id="focus-word" d="M522.9,450.7c0,0.2,0,0.4,0,0.7c0,0.3,0,0.5,0,0.7c0,0.2-0.1,0.3-0.1,0.4c-0.1,0.1-0.1,0.2-0.2,0.2
		c-0.1,0-0.2,0.1-0.3,0.1c-0.2,0-0.4,0-0.6-0.1c-0.2-0.1-0.5-0.2-0.8-0.3s-0.7-0.2-1.2-0.3c-0.5-0.1-1-0.1-1.6-0.1
		c-0.9,0-1.6,0.1-2.2,0.4c-0.6,0.3-1.1,0.7-1.4,1.3c-0.4,0.6-0.6,1.3-0.8,2.2c-0.2,0.9-0.2,2-0.2,3.3v3.2h6.8c0.1,0,0.3,0,0.4,0.1
		c0.1,0.1,0.2,0.2,0.3,0.3c0.1,0.1,0.1,0.3,0.2,0.5c0,0.2,0.1,0.4,0.1,0.7c0,0.5-0.1,0.9-0.2,1.1c-0.2,0.2-0.4,0.4-0.6,0.4h-6.8
		v24.4c0,0.1,0,0.2-0.1,0.3c-0.1,0.1-0.2,0.2-0.3,0.2c-0.1,0.1-0.3,0.1-0.6,0.1c-0.2,0-0.5,0.1-0.9,0.1c-0.3,0-0.6,0-0.9-0.1
		c-0.2,0-0.4-0.1-0.6-0.1c-0.1-0.1-0.2-0.1-0.3-0.2c-0.1-0.1-0.1-0.2-0.1-0.3v-24.4h-4.2c-0.3,0-0.5-0.1-0.7-0.4
		c-0.2-0.2-0.2-0.6-0.2-1.1c0-0.3,0-0.5,0.1-0.7c0-0.2,0.1-0.3,0.2-0.5c0.1-0.1,0.2-0.2,0.3-0.3c0.1-0.1,0.2-0.1,0.4-0.1h4.2v-3
		c0-1.9,0.2-3.5,0.5-4.8c0.3-1.3,0.9-2.4,1.6-3.2c0.7-0.8,1.6-1.4,2.7-1.8c1.1-0.4,2.3-0.6,3.7-0.6c0.7,0,1.4,0.1,2,0.2
		c0.7,0.1,1.2,0.3,1.5,0.4c0.3,0.1,0.6,0.3,0.7,0.4c0.1,0.1,0.2,0.2,0.3,0.4C522.9,450.3,522.9,450.5,522.9,450.7z M557.2,470
		c0.6,1.8,0.8,3.7,0.8,5.9c0,2.1-0.3,4.1-0.9,5.9c-0.6,1.8-1.4,3.4-2.6,4.7c-1.1,1.3-2.6,2.3-4.3,3.1c-1.7,0.7-3.7,1.1-5.9,1.1
		c-2.2,0-4.1-0.3-5.7-1c-1.6-0.7-3-1.6-4.1-2.8c-1.1-1.2-1.9-2.7-2.5-4.5c-0.5-1.8-0.8-3.7-0.8-5.9c0-2.1,0.3-4.1,0.8-5.9
		c0.6-1.8,1.4-3.3,2.5-4.7c1.1-1.3,2.6-2.3,4.3-3.1c1.7-0.7,3.7-1.1,6-1.1c2.2,0,4.1,0.3,5.7,1c1.6,0.7,3,1.6,4.1,2.8
		C555.8,466.7,556.6,468.2,557.2,470z M554.1,476.2c0-1.5-0.2-3-0.5-4.3c-0.3-1.4-0.8-2.6-1.5-3.7c-0.7-1.1-1.7-1.9-2.9-2.5
		c-1.2-0.6-2.7-0.9-4.5-0.9c-1.7,0-3.1,0.3-4.3,0.9c-1.2,0.6-2.2,1.4-3,2.4c-0.8,1-1.3,2.2-1.7,3.6c-0.4,1.4-0.6,2.9-0.6,4.5
		c0,1.5,0.2,3,0.5,4.4c0.3,1.4,0.8,2.6,1.5,3.7c0.7,1,1.7,1.9,2.9,2.5c1.2,0.6,2.7,0.9,4.5,0.9c1.7,0,3.1-0.3,4.3-0.9
		c1.2-0.6,2.2-1.4,3-2.4c0.8-1,1.3-2.2,1.7-3.6C553.9,479.3,554.1,477.8,554.1,476.2z M592.9,484.3c-0.1-0.1-0.1-0.3-0.2-0.3
		c-0.1-0.1-0.2-0.1-0.3-0.1c-0.2,0-0.6,0.2-1,0.6c-0.5,0.4-1,0.8-1.7,1.2c-0.7,0.5-1.5,0.9-2.5,1.2c-0.9,0.4-2,0.6-3.3,0.6
		c-1.3,0-2.5-0.2-3.5-0.7c-1-0.5-1.9-1.2-2.7-2.1c-0.7-0.9-1.3-2.1-1.7-3.5c-0.4-1.4-0.6-3-0.6-4.9c0-3.7,0.7-6.6,2.2-8.5
		c1.4-2,3.5-3,6.2-3c1.3,0,2.4,0.2,3.3,0.5c0.9,0.4,1.7,0.7,2.4,1.2c0.7,0.4,1.2,0.8,1.6,1.2c0.4,0.4,0.8,0.5,1.1,0.5
		c0.2,0,0.4-0.1,0.6-0.3c0.2-0.2,0.3-0.6,0.3-1.2c0-0.3,0-0.5,0-0.7c0-0.2-0.1-0.4-0.1-0.5c-0.1-0.2-0.1-0.3-0.2-0.4
		c-0.1-0.1-0.3-0.3-0.5-0.6c-0.3-0.2-0.7-0.5-1.2-0.9c-0.6-0.4-1.2-0.7-1.9-0.9c-0.7-0.3-1.5-0.5-2.3-0.7c-0.8-0.2-1.7-0.3-2.6-0.3
		c-1.7,0-3.3,0.3-4.8,0.8c-1.5,0.6-2.8,1.4-3.9,2.6c-1.1,1.2-2,2.7-2.7,4.6c-0.6,1.9-1,4.1-1,6.7c0,2.3,0.3,4.3,0.8,6.1
		c0.5,1.8,1.3,3.3,2.3,4.5c1,1.2,2.2,2.1,3.7,2.7c1.5,0.6,3.2,0.9,5.1,0.9c1,0,1.9-0.1,2.8-0.3c0.9-0.2,1.7-0.4,2.5-0.7
		c0.8-0.3,1.5-0.6,2.1-1c0.6-0.4,1.1-0.7,1.3-1c0.3-0.3,0.4-0.4,0.5-0.5c0.1-0.1,0.1-0.2,0.2-0.4c0-0.1,0.1-0.3,0.1-0.5
		c0-0.2,0-0.4,0-0.6c0-0.3,0-0.5,0-0.7C593,484.7,593,484.5,592.9,484.3z M630,462.2c-0.1-0.1-0.3-0.1-0.6-0.1c-0.2,0-0.5,0-0.9,0
		c-0.4,0-0.7,0-0.9,0c-0.2,0-0.4,0.1-0.6,0.1c-0.1,0.1-0.2,0.2-0.3,0.3c-0.1,0.1-0.1,0.2-0.1,0.3V482c-1.6,1.9-3.1,3.3-4.5,4.3
		c-1.4,1-2.8,1.4-4.2,1.4c-1.1,0-2.1-0.2-2.9-0.6c-0.8-0.4-1.5-1-2-1.7c-0.5-0.7-0.9-1.6-1.2-2.7c-0.3-1-0.4-2.4-0.4-4v-15.8
		c0-0.1,0-0.2-0.1-0.3c-0.1-0.1-0.2-0.2-0.3-0.3c-0.1-0.1-0.3-0.1-0.6-0.1c-0.2,0-0.5,0-0.9,0c-0.3,0-0.6,0-0.9,0
		c-0.2,0-0.4,0.1-0.6,0.1c-0.1,0.1-0.2,0.2-0.3,0.3c-0.1,0.1-0.1,0.2-0.1,0.3V479c0,1.9,0.2,3.5,0.5,4.8s0.9,2.5,1.7,3.5
		c0.8,1,1.8,1.8,3,2.4c1.2,0.6,2.8,0.9,4.6,0.9c1.5,0,3-0.4,4.6-1.2c1.5-0.8,3.1-2,4.7-3.7v3.8c0,0.1,0,0.2,0.1,0.3
		c0.1,0.1,0.1,0.2,0.3,0.2c0.1,0.1,0.3,0.1,0.5,0.1c0.2,0,0.5,0.1,0.9,0.1c0.3,0,0.6,0,0.8-0.1c0.2,0,0.4-0.1,0.6-0.1
		c0.1-0.1,0.2-0.1,0.3-0.2c0.1-0.1,0.1-0.2,0.1-0.3v-26.8c0-0.1,0-0.2-0.1-0.3C630.3,462.4,630.2,462.3,630,462.2z M663.9,479.5
		c-0.4-0.8-1-1.5-1.6-2.1c-0.7-0.6-1.4-1.1-2.3-1.5c-0.9-0.4-1.7-0.8-2.6-1.1c-0.9-0.3-1.8-0.7-2.6-1c-0.9-0.3-1.6-0.7-2.3-1.2
		c-0.7-0.4-1.2-0.9-1.6-1.5c-0.4-0.6-0.6-1.3-0.6-2.2c0-0.6,0.1-1.2,0.4-1.7c0.2-0.5,0.6-1,1.1-1.4c0.5-0.4,1.1-0.7,1.8-0.9
		c0.7-0.2,1.6-0.3,2.5-0.3c1,0,1.8,0.1,2.5,0.3c0.7,0.2,1.4,0.5,1.9,0.7c0.5,0.3,1,0.5,1.3,0.7c0.3,0.2,0.6,0.3,0.7,0.3
		c0.1,0,0.2,0,0.3-0.1c0.1-0.1,0.2-0.2,0.2-0.3c0.1-0.1,0.1-0.3,0.1-0.5c0-0.2,0-0.4,0-0.6c0-0.2,0-0.4,0-0.6c0-0.2,0-0.3-0.1-0.4
		c0-0.1-0.1-0.2-0.2-0.3c-0.1-0.1-0.2-0.2-0.4-0.4c-0.2-0.2-0.5-0.3-0.9-0.5c-0.4-0.2-0.9-0.4-1.5-0.6c-0.6-0.2-1.2-0.3-1.9-0.4
		c-0.7-0.1-1.4-0.2-2.1-0.2c-1.6,0-3.1,0.2-4.3,0.7c-1.2,0.4-2.2,1-2.9,1.7c-0.8,0.7-1.3,1.5-1.7,2.4c-0.4,0.9-0.6,1.8-0.6,2.7
		c0,1.2,0.2,2.2,0.6,3c0.4,0.8,0.9,1.5,1.6,2.1c0.7,0.6,1.4,1.1,2.3,1.5c0.8,0.4,1.7,0.8,2.6,1.1c0.9,0.3,1.8,0.7,2.6,1
		c0.8,0.3,1.6,0.7,2.3,1.1c0.7,0.4,1.2,0.9,1.6,1.5c0.4,0.6,0.6,1.3,0.6,2.1c0,0.8-0.2,1.6-0.5,2.2c-0.3,0.6-0.8,1.1-1.3,1.5
		c-0.6,0.4-1.2,0.7-2,0.9c-0.8,0.2-1.6,0.3-2.6,0.3c-1.2,0-2.2-0.1-3.1-0.4c-0.9-0.3-1.7-0.6-2.3-0.9c-0.6-0.3-1.2-0.6-1.6-0.9
		c-0.4-0.3-0.8-0.4-1-0.4c-0.1,0-0.2,0-0.3,0.1c-0.1,0.1-0.2,0.2-0.2,0.3c-0.1,0.1-0.1,0.3-0.2,0.5c0,0.2-0.1,0.4-0.1,0.7
		c0,0.5,0.1,0.9,0.2,1.2c0.1,0.3,0.3,0.5,0.5,0.7c0.2,0.2,0.6,0.4,1.1,0.7c0.5,0.3,1.1,0.5,1.8,0.7c0.7,0.2,1.5,0.4,2.3,0.6
		c0.9,0.1,1.8,0.2,2.7,0.2c1.5,0,2.9-0.2,4.2-0.6c1.3-0.4,2.4-0.9,3.3-1.6c0.9-0.7,1.6-1.6,2.1-2.6c0.5-1,0.7-2.2,0.7-3.4
		C664.6,481.3,664.3,480.3,663.9,479.5z"/>
	<path id="four-word" class="st0" d="M703.1,450.7c0,0.2,0,0.4,0,0.7c0,0.3,0,0.5,0,0.7c0,0.2-0.1,0.3-0.1,0.4
		c-0.1,0.1-0.1,0.2-0.2,0.2c-0.1,0-0.2,0.1-0.3,0.1c-0.2,0-0.4,0-0.6-0.1c-0.2-0.1-0.5-0.2-0.8-0.3c-0.3-0.1-0.7-0.2-1.2-0.3
		c-0.5-0.1-1-0.1-1.6-0.1c-0.9,0-1.6,0.1-2.2,0.4c-0.6,0.3-1.1,0.7-1.4,1.3c-0.4,0.6-0.6,1.3-0.8,2.2c-0.2,0.9-0.2,2-0.2,3.3v3.2
		h6.8c0.1,0,0.3,0,0.4,0.1c0.1,0.1,0.2,0.2,0.3,0.3s0.1,0.3,0.2,0.5c0,0.2,0.1,0.4,0.1,0.7c0,0.5-0.1,0.9-0.2,1.1
		c-0.2,0.2-0.4,0.4-0.6,0.4h-6.8v24.4c0,0.1,0,0.2-0.1,0.3c-0.1,0.1-0.2,0.2-0.3,0.2c-0.1,0.1-0.3,0.1-0.6,0.1
		c-0.2,0-0.5,0.1-0.9,0.1c-0.3,0-0.6,0-0.9-0.1c-0.2,0-0.4-0.1-0.6-0.1c-0.1-0.1-0.2-0.1-0.3-0.2c-0.1-0.1-0.1-0.2-0.1-0.3v-24.4
		h-4.2c-0.3,0-0.5-0.1-0.7-0.4c-0.2-0.2-0.2-0.6-0.2-1.1c0-0.3,0-0.5,0.1-0.7c0-0.2,0.1-0.3,0.2-0.5s0.2-0.2,0.3-0.3
		c0.1-0.1,0.2-0.1,0.4-0.1h4.2v-3c0-1.9,0.2-3.5,0.5-4.8c0.3-1.3,0.9-2.4,1.6-3.2c0.7-0.8,1.6-1.4,2.7-1.8c1.1-0.4,2.3-0.6,3.7-0.6
		c0.7,0,1.4,0.1,2,0.2c0.7,0.1,1.2,0.3,1.5,0.4c0.3,0.1,0.6,0.3,0.7,0.4c0.1,0.1,0.2,0.2,0.3,0.4C703,450.3,703.1,450.5,703.1,450.7
		z M737.3,470c0.6,1.8,0.8,3.7,0.8,5.9c0,2.1-0.3,4.1-0.9,5.9c-0.6,1.8-1.4,3.4-2.6,4.7c-1.1,1.3-2.6,2.3-4.3,3.1
		c-1.7,0.7-3.7,1.1-5.9,1.1c-2.2,0-4.1-0.3-5.7-1c-1.6-0.7-3-1.6-4.1-2.8c-1.1-1.2-1.9-2.7-2.5-4.5c-0.5-1.8-0.8-3.7-0.8-5.9
		c0-2.1,0.3-4.1,0.8-5.9c0.6-1.8,1.4-3.3,2.5-4.7c1.1-1.3,2.6-2.3,4.3-3.1c1.7-0.7,3.7-1.1,6-1.1c2.2,0,4.1,0.3,5.7,1
		c1.6,0.7,3,1.6,4.1,2.8C735.9,466.7,736.7,468.2,737.3,470z M734.3,476.2c0-1.5-0.2-3-0.5-4.3c-0.3-1.4-0.8-2.6-1.5-3.7
		c-0.7-1.1-1.7-1.9-2.9-2.5c-1.2-0.6-2.7-0.9-4.5-0.9c-1.7,0-3.1,0.3-4.3,0.9c-1.2,0.6-2.2,1.4-3,2.4c-0.8,1-1.3,2.2-1.7,3.6
		c-0.4,1.4-0.6,2.9-0.6,4.5c0,1.5,0.2,3,0.5,4.4c0.3,1.4,0.8,2.6,1.5,3.7c0.7,1,1.7,1.9,2.9,2.5c1.2,0.6,2.7,0.9,4.5,0.9
		c1.7,0,3.1-0.3,4.3-0.9c1.2-0.6,2.2-1.4,3-2.4c0.8-1,1.3-2.2,1.7-3.6C734.1,479.3,734.3,477.8,734.3,476.2z M775.9,462.2
		c-0.1-0.1-0.3-0.1-0.6-0.1c-0.2,0-0.5,0-0.9,0c-0.4,0-0.7,0-0.9,0c-0.2,0-0.4,0.1-0.6,0.1c-0.1,0.1-0.2,0.2-0.3,0.3
		c-0.1,0.1-0.1,0.2-0.1,0.3V482c-1.6,1.9-3.1,3.3-4.5,4.3c-1.4,1-2.8,1.4-4.2,1.4c-1.1,0-2.1-0.2-2.9-0.6c-0.8-0.4-1.5-1-2-1.7
		c-0.5-0.7-0.9-1.6-1.2-2.7c-0.3-1-0.4-2.4-0.4-4v-15.8c0-0.1,0-0.2-0.1-0.3c-0.1-0.1-0.2-0.2-0.3-0.3c-0.1-0.1-0.3-0.1-0.6-0.1
		c-0.2,0-0.5,0-0.9,0c-0.3,0-0.6,0-0.9,0c-0.2,0-0.4,0.1-0.6,0.1c-0.1,0.1-0.2,0.2-0.3,0.3c-0.1,0.1-0.1,0.2-0.1,0.3V479
		c0,1.9,0.2,3.5,0.5,4.8c0.3,1.3,0.9,2.5,1.7,3.5c0.8,1,1.8,1.8,3,2.4c1.2,0.6,2.8,0.9,4.6,0.9c1.5,0,3-0.4,4.6-1.2
		c1.5-0.8,3.1-2,4.7-3.7v3.8c0,0.1,0,0.2,0.1,0.3c0.1,0.1,0.1,0.2,0.3,0.2c0.1,0.1,0.3,0.1,0.5,0.1c0.2,0,0.5,0.1,0.9,0.1
		c0.3,0,0.6,0,0.8-0.1c0.2,0,0.4-0.1,0.6-0.1c0.1-0.1,0.2-0.1,0.3-0.2c0.1-0.1,0.1-0.2,0.1-0.3v-26.8c0-0.1,0-0.2-0.1-0.3
		C776.1,462.4,776,462.3,775.9,462.2z M809.4,463c0-0.1-0.1-0.2-0.1-0.3c0-0.1-0.1-0.1-0.2-0.2c-0.1-0.1-0.3-0.2-0.7-0.3
		c-0.3-0.1-0.7-0.2-1.1-0.3c-0.4-0.1-0.8-0.1-1.1-0.2c-0.3,0-0.7,0-0.9,0c-0.6,0-1.2,0.1-1.8,0.2c-0.6,0.1-1.2,0.4-1.8,0.8
		c-0.6,0.4-1.3,0.9-1.9,1.6c-0.7,0.7-1.4,1.6-2.2,2.7v-4.2c0-0.1,0-0.2-0.1-0.3c-0.1-0.1-0.1-0.2-0.3-0.3c-0.1-0.1-0.3-0.1-0.5-0.1
		s-0.5,0-0.9,0c-0.3,0-0.6,0-0.8,0c-0.2,0-0.4,0.1-0.5,0.1c-0.1,0.1-0.2,0.2-0.3,0.3c-0.1,0.1-0.1,0.2-0.1,0.3v26.8
		c0,0.1,0,0.2,0.1,0.3c0.1,0.1,0.1,0.2,0.3,0.2c0.1,0.1,0.3,0.1,0.6,0.1c0.2,0,0.5,0.1,0.9,0.1c0.4,0,0.7,0,0.9-0.1
		c0.2,0,0.4-0.1,0.6-0.1c0.1-0.1,0.2-0.1,0.3-0.2c0.1-0.1,0.1-0.2,0.1-0.3v-18.1c0.8-1.2,1.5-2.2,2.1-3c0.6-0.8,1.3-1.5,1.8-2
		c0.6-0.5,1.1-0.9,1.7-1.1c0.5-0.2,1.1-0.3,1.6-0.3c0.5,0,0.9,0,1.3,0.1c0.4,0.1,0.7,0.2,1.1,0.3c0.3,0.1,0.6,0.2,0.9,0.3
		c0.2,0.1,0.5,0.1,0.6,0.1c0.1,0,0.2,0,0.3-0.1c0.1-0.1,0.1-0.2,0.2-0.3c0.1-0.1,0.1-0.3,0.1-0.5c0-0.2,0-0.5,0-0.8
		c0-0.3,0-0.5,0-0.7C809.5,463.2,809.5,463.1,809.4,463z M821.2,485.2c-0.4-0.4-1-0.5-2-0.5c-1,0-1.7,0.2-2.1,0.6
		c-0.4,0.4-0.6,1.1-0.6,2.3c0,1.1,0.2,1.9,0.6,2.3c0.4,0.4,1,0.5,2,0.5c1,0,1.7-0.2,2.1-0.6c0.4-0.4,0.6-1.1,0.6-2.3
		C821.7,486.3,821.5,485.6,821.2,485.2z"/>
</g>
</svg>
