<?xml version="1.0" encoding="utf-8"?>
<!-- Generator: Adobe Illustrator 24.3.0, SVG Export Plug-In . SVG Version: 6.00 Build 0)  -->
<svg version="1.1" id="focus-four-me-logo-2" xmlns="http://www.w3.org/2000/svg" xmlns:xlink="http://www.w3.org/1999/xlink"
	 x="0px" y="0px" viewBox="0 0 864 864" style="enable-background:new 0 0 864 864;" xml:space="preserve">
<style type="text/css">
	.st0{fill:#DD1010;}
</style>
<g id="focus-four-me-logo-2-parts">
	<g id="product-link-logo-parts">
		<path id="head-body-part" d="M652.3,578.3c-0.7-5.4-1.5-10.8-2.2-16.2c-0.5-3.8-1-7.5-1.7-11.3c-0.8-4.4-1.6-8.9-2.5-13.3
			c-2-10.7-4-21.4-6-32.1c-1.3-7.3-2.6-14.5-3.8-21.8c-1.4-7.9-2.7-15.8-4.2-23.7c-2.3-12-4.6-24-7.1-35.9
			c-2.8-12.9-8.1-24.7-14.8-36c-5-8.4-10.4-16.5-16.9-23.8c-3.5-3.9-7.3-7.5-11-11.2c-2.9-2.8-5.8-5.7-8.8-8.3
			c-1.9-1.7-4.1-3-6.3-4.5c-5.3-3.6-10.5-7.3-15.9-10.7c-7.3-4.6-15.2-7.9-23.3-10.7c-2-0.7-3.7-1.6-5.3-3.1
			c0.4-0.7,0.8-1.4,1.3-2.1c6.1-9.1,12.2-18.1,18.2-27.3c4.2-6.4,8.4-12.7,11.9-19.6c5.3-10.6,8.9-21.7,11.5-33.2
			c1.5-6.8,2.7-13.7,3.1-20.7c0.5-7.5,0.4-15-0.6-22.4c-0.2-1.7-0.1-3.4-0.3-5.1c-0.9-9.2-2.6-18.3-6-27c-1.1-2.8-1.8-5.8-3-8.6
			c-4.3-10.5-10-20.3-17.5-28.9c-2.7-3.1-5-6.5-7.9-9.5c-12.9-13.2-28.1-22.9-45.2-29.6c-11.4-4.5-23.2-7.2-35.4-7.9
			c-2.4-0.1-4.8-0.4-7.2-0.5c-1.3-0.1-2.6,0.6-3.8-0.4h-10.3c-1.5,0.3-3.1,0.8-4.6,0.9c-11.4,0.7-22.3,3.2-32.8,7.9
			c-4.4,2-8.9,3.6-13.4,5.4c-4.6,1.9-8.7,4.6-12.7,7.4c-1.2,0.8-2.5,1.5-3.8,2.2c-0.5,0.3-1,0.5-1.4,0.9
			c-5.8,5.2-11.9,10.1-17.4,15.6c-4,4-7.3,8.7-10.7,13.3c-2.3,3.1-4.5,6.4-6.4,9.7c-1.9,3.2-3.4,6.7-4.9,10.1
			c-5.5,12.2-8.8,25.1-10.8,38.3c-1.2,8.2-1.3,16.5-0.9,24.8c0.8,18.9,5.4,36.9,13.4,54c4.7,10.2,10.5,19.6,17,28.7
			c5.3,7.5,10.7,15,16.1,22.4c0.1,0.2,0.2,0.4,0.4,0.9c-1,0.6-1.9,1.2-3,1.7c-6,2.7-12.1,5.4-18.1,8.1c-5.5,2.5-10.7,5.8-15.7,9.2
			c-3.5,2.5-7.1,4.8-10.5,7.4c-3.7,2.8-7.3,5.6-10.7,8.7c-6.6,6-12.8,12.3-18.3,19.4c-7.2,9.3-13,19.4-18.1,30
			c-5.9,12.1-9.2,25-11.6,38.1c-2.1,11.6-4.1,23.3-6.2,34.9c-0.9,4.8-2.1,9.6-2.9,14.4c-1.8,9.6-3.4,19.1-5.1,28.7
			c-1.1,6.4-2.2,12.9-3.3,19.3c-1.3,7.8-2.7,15.6-4,23.4c-0.8,4.8-1.8,9.6-2.6,14.5c-0.4,2.4-0.5,4.9-0.8,7.4
			c-0.1,0.5-0.3,1-0.4,1.5l0.7,1.6l18.7-45.5l20.5-28c-0.2,0.1-0.3,0.1-0.5,0c-0.2-0.1-0.1-0.1-0.3-0.1c0-0.8-0.2-1.6,0-2.4
			c2.3-12.2,4.8-24.4,7-36.7c1.5-8.2,2.9-16.4,4-24.6c0.9-6.9,3.1-13.5,5.5-20c2.3-6.3,4.4-12.6,6.8-18.9c0.8-2.2,2-4.2,3.3-6.2
			c4.3-6.9,8.5-13.9,14-19.9c4.3-4.6,8.2-9.6,13.2-13.6c7.8-6.3,15.8-12.2,24.9-16.6c12.3-5.9,24.6-11.7,36.9-17.7
			c7.7-3.7,15.2-8,21.6-13.8c9.6-8.7,16.1-19.2,18.2-32.1c1.6-10.4,0.4-20.4-4.8-29.7c-3.9-7-8.1-13.8-12.2-20.8
			c-3.6-6.2-7-12.6-8.8-19.6c-0.6-2.3-0.9-4.7-1.2-7.1c-0.6-5-0.8-10-0.4-14.9c1.4-15.4,8.3-27.2,22.2-34.6
			c5.8-3.1,11.9-4.9,18.4-5.7c4.7-0.5,9.5-0.7,14.2,0.4c4.1,1,8.2,2.6,12.2,4.1c5,1.8,9.3,4.7,13.2,8.3c6,5.6,9.6,12.6,11.2,20.6
			c0.6,3.2,0.7,6.5,1.1,9.7c0.1,1.3,0.2,2.6,0.3,3.9c0.4,4.2-1.1,8.2-1.9,12.2c-0.5,2.6-1.2,5.1-1.8,7.7c-1,4.2-2.5,8.2-4.9,11.8
			c-2.9,4.4-5.7,8.9-8.6,13.4c-3.5,5.3-6.5,10.8-8.7,16.8c-1.3,3.6-2,7.4-2.2,11.2c-0.2,4.6-0.3,9.1,0.3,13.7
			c0.9,6.2,3.6,11.7,7.1,16.8c1.3,1.9,2.5,3.8,3.8,5.6c0.5,0.8,1.1,1.5,1.8,2.1c5.8,5.5,11.3,11.2,18.2,15.4
			c4.7,2.8,9.4,5.5,14.4,7.8c6.4,2.9,13,5.2,19.4,8c6.8,3,13.4,6.4,19.5,10.6c4.8,3.3,9.6,6.6,14.4,10c0.3,0.2,0.6,0.4,0.9,0.7
			c11,10.6,21.3,21.7,28.9,35.1c6.1,10.7,10.1,22.2,12.7,34.2c1.6,7.4,3.4,14.7,5,22.1c0.9,4.4,1.6,8.9,2.4,13.3
			c2.2,12.8,4.4,25.6,6.5,38.4c0,0.2,0,0.5-0.1,0.9c0.5,1,0.7,1.2,2,2.6c0.5,0.5,0.6,0.7,1.6,1.8l3.8,4.5l21.9,35.4l3.9,9.3
			l5.4,15.4C652.6,579,652.4,578.6,652.3,578.3z M502,296.9c-0.9,1.1-1.8,2.2-2.7,3.2c-1.2,1.4-2.8,1.6-4,0.3
			c-2.9-3.3-5.8-6.5-8.5-10c-1-1.3-1.2-3.2-1.6-4.8c-1.4-5-0.7-9.7,1.6-14.2c3.2-6.5,7-12.7,10.9-18.8c6.4-10.4,11.3-21.4,13.6-33.4
			c0.5-2.4,0.9-4.9,1.1-7.4c0.1-1.4-0.2-2.8-0.3-4.2c0-4.9,0.3-9.8-0.2-14.7c-0.4-3.9-1.2-7.7-1.9-11.5c-3-16.4-12.1-28.8-25.3-38.4
			c-9.7-7.1-20.6-10.8-32.3-12.9c-7.5-1.4-14.9-1-22.3,0.2c-3.4,0.5-6.8,0.9-10.2,1.6c-11.2,2.2-20.8,7.8-29.5,15
			c-4.2,3.5-8.1,7.4-10.8,12.2c-1.7,3-3.5,5.9-5,9c-1.3,2.9-2.2,6-3.4,9c-2,5-3.3,10.2-3.3,15.7c0,3.3-0.4,6.5-0.6,9.8
			c-0.2,15.5,3.9,29.8,11.3,43.2c4.9,9,10.2,17.9,15.4,26.8c1.1,1.8,1.5,3.7,1.6,5.7c0.5,8.7-3.1,15.5-9.4,21.2
			c-0.6,0.5-1.2,1-1.8,1.5c-1.6,1.2-2.2,1.2-3.5-0.3c-1.5-1.7-2.9-3.4-4.4-5.1c-1.2-1.4-2.5-2.8-3.8-4.1c-3-2.9-4.7-6.6-6.8-10
			c-3.6-5.8-7.3-11.6-10.9-17.5c-8-13.4-13.4-27.8-15.9-43.2c-0.6-3.8-0.9-7.6-1.1-11.4c-0.2-3.1-0.4-6.2-0.3-9.3
			c0.6-12.6,2.3-25,7-36.8c1.1-2.7,1.7-5.6,3.1-8.3c2.7-5.1,6.2-9.6,9.6-14.1c3.2-4.3,6.4-8.6,9.8-12.8c1.5-1.8,3.2-3.5,5.1-4.8
			c6.3-4.5,12.6-8.9,19.5-12.4c8.6-4.4,17.7-7.3,27.1-9.2c3.4-0.7,6.9-1.5,10.3-1.9c3.6-0.4,7.2-0.3,10.7-0.5
			c7.2-0.4,14.3,1,21.3,2.4c14.9,2.9,28.6,8.8,40.9,17.6c8.2,5.9,15.4,13,21.4,21.1c2.6,3.5,4.5,7.6,6.7,11.5
			c3.4,5.9,5.4,12.4,7.2,18.9c1.1,3.8,2.3,7.6,3.3,11.4c0.5,1.8,0.5,3.7,0.6,5.6c0.3,5.1,0.6,10.3,1,15.4c0.3,3.7,0.2,7.3-0.4,11
			c-0.7,4.8-1.2,9.7-2.2,14.5c-1.4,6.6-3.8,13.1-6.7,19.1c-3.8,7.9-8.3,15.6-12.4,23.3C515.8,280.5,508.8,288.6,502,296.9z"/>
		<path id="hands-part" d="M481.6,472.5c6.3,6.2,13.3,11.8,20.4,17.1c8.3,6.2,16.6,12.4,25,18.6c0.4,0.3,0.4,0.3,1,0.8
			c0.3-0.1,15.2-10.2,29.6-13.3c0.9-0.2-0.4-0.5-1.8-1.3c-9.6-5.5-19.2-11.1-28.1-17.6c-4.3-3.2-8.7-6.4-12.8-9.9
			c-4.9-4.2-9.7-8.6-14.4-13c-8.6-8-16.1-17.1-23.5-26.3c-5.1-6.4-8.9-13.5-13.4-20.2c-2.5-3.7-4.7-7.5-7.1-11.3
			c-3-4.9-7.4-8.1-13.1-9c-7.2-1.1-13.6,0.8-18.1,6.8c-2.6,3.5-4.7,7.5-7.1,11.3c-3.9,6.2-7.7,12.5-12,18.4
			c-3.5,4.9-7.6,9.5-11.6,14.1c-4.2,4.9-8.4,9.8-12.9,14.5c-3.1,3.2-6.5,6.1-9.8,9c-8.3,7.2-16.8,14.2-26,20.2
			c-6.3,4.1-12.8,8.1-19.3,11.8c-3.1,1.8-3.1,1.6-6.3,2.6c5.3,1.1,9.4,2.4,15.1,4.3c4.6,1.5,13.7,5.3,17.2,8.3
			c2.6-1.9,4.6-3.1,7-4.8c7.7-5.7,15.6-11.2,23.2-17.1c3.5-2.7,6.6-5.9,9.9-8.9c2.1-1.9,4.3-3.6,6.3-5.5c0.9-0.8,1.7-1.8,2.6-2.7
			c4.6-5,9.4-9.8,13.7-15.1c5.3-6.5,10.1-13.5,15.1-20.3c2.2-3,4.1-6.1,6.3-9c1-1.4,2.3-2.5,3.5-3.9c0.4,0.5,0.9,0.9,1.2,1.4
			c4.4,6.2,8.8,12.5,13.2,18.7c4.3,6.2,9.3,11.9,14.3,17.5C473.1,463.3,477.2,468.1,481.6,472.5z"/>
		<path id="eye-part" d="M441.2,176.6c3.5,0.1,7.4,1.2,11.1,3.3c2.9,1.6,5.3,3.8,7.6,6.2c1.4,1.5,1.4,3.3,0.1,4.8
			c-4.9,5.5-11,8.9-18.3,9.9c-1,0.1-2-0.1-3-0.3c-6.6-1.3-12.1-4.3-16.6-9.3c-1.8-2-1.8-3.5,0.2-5.4c2.7-2.7,5.6-5.2,9.1-6.9
			C434.2,177.4,437.2,176.6,441.2,176.6z"/>
		<path id="feet-part" d="M641.9,548.9c-0.4-0.8-0.8-1.7-1.3-2.5c-3.7-7.1-8.1-14.1-13.2-20.8c-3.2-4.2-6.7-8.4-10.5-12.4
			c-0.9-1-1.8-1.9-2.8-2.9c-0.1-0.1-0.1-0.1-0.2-0.2c0,0,0,0,0,0.1c-2.1-1.2-4.1-2.3-6.1-3.4c-6.4-3.4-12.9-6.6-20-8.3
			c-2.9-0.7-5.8-1-8.8-1.3c-6.2-0.7-12.4-1.2-18.6-2c-0.6-0.1-2.6,0.1-3.3,0.2c-10.8,2.5-20.2,7.6-28.9,13c-4.1,3-8.3,5.9-12.4,8.8
			c-7.3,5.1-14.5,10.1-21,16.1c-10.3,9.4-20.5,18.9-29.4,29.5c-3.1,3.6-6,7.3-8.9,11.1c-5.5,7.2-10.9,14.7-16.5,22
			c-1.1-0.7-1.7-2-2.5-3.2c-3.4-5.2-6.7-10.6-10.3-15.6c-0.9-1.2-1.8-2.3-2.7-3.5c-3.1-3.9-6.4-7.7-9.4-11.7
			c-5.1-6.9-11.2-13-17.3-19c-6.2-6.3-13.1-11.8-20.2-17c-1.7-1.3-3.4-2.6-5.1-3.9c-0.3-0.2-0.6-0.4-0.9-0.6
			c-5.7-4-11.4-7.9-17.1-11.9c-0.6-0.4-1.2-0.9-2.2-1.6c-7.5-5.7-27.8-12-33.8-12.5c-2.6-0.2-4.1-0.1-6.5,0.2
			c-1.5,0.2-3.1,0.3-4.6,0.6c-7,1.1-14,2-20.9,4c-6.3,1.9-12.2,4.8-17.6,8.6c-0.8,0.5-1.5,1-2.3,1.5c-0.9,0.9-1.8,1.9-2.8,2.9
			c-3.8,4-7.2,8.1-10.5,12.4c-5.1,6.7-9.5,13.7-13.2,20.8c-0.4,0.8-0.9,1.7-1.3,2.5c-5.1,10.4-8.8,21-10.8,31.4
			c-0.4,2.2-0.8,4.5-1.1,6.7c0.9,1.2,0.3,2.6,0.4,3.9c0.9,2.9,1.7,5.8,1.8,8.8c0.2,4.5,1.8,8.8,3.8,12.9c3.2,6.7,6.4,13.4,10.6,19.5
			c3.5,5,7.7,9.4,12.5,13.2c3.9,3.1,7.8,6.1,12.2,8.6c10.2,5.8,21,9.3,32.8,10c0.3,0,0.6,0.2,0.9,0.2c0.9,0,1.8,0,2.7,0
			c0.4,0,0.9,0,1.3,0c0.4,0,0.8,0.3,1.2,0.4h25.8c0.3-0.2,0.7-0.5,1-0.4c2,0.2,4.1-0.6,6.1,0.4h232.6c0.6-0.2,1.3-0.4,1.9-0.4
			c2-0.1,4,0,6,0c3.3-0.5,6.6-1,9.9-1.7c2.7-0.6,5.3-1.4,7.8-2.4c7.6-3,15.1-6.1,21.3-11.8c3.4-3.1,7.4-5.5,10.7-8.7
			c3-2.8,5.6-6.1,7.9-9.5c7-10.4,11.6-21.8,13.9-34.1c0.3-1.4,0.2-2.8,0.3-4.2c0-0.4,0.2-0.9,0.3-1.3V580
			C650.6,569.6,647,559.1,641.9,548.9z M426.5,637.9c-13.7,0-27.4,0-41.2,0c-6.6,0-13.2,0-19.8,0c-12.5,0-25,0-37.5,0
			c-4.9,0-9.8,0.3-14.7,0.2c-7.3-0.1-14.4-0.9-21.5-2.9c-12.1-3.3-21.2-10.5-28.3-20.6c-3.6-5.1-6.1-10.7-8-16.6
			c-0.8-2.5-0.9-5.2-1.4-7.8c-1.3-7.3-0.1-14.4,1.7-21.5c0.9-3.5,1.5-7.3,3.1-10.5c7.9-15.6,19.8-27.1,36.4-33.2
			c3.6-1.3,7.3-2.3,11-2.8c4.3-0.6,8.7-1.3,13-0.4c2.3,0.5,4.7,1.3,6.8,2.4c6.1,3.5,12.1,7.1,18,10.9c3.6,2.3,7,5,10.4,7.6
			c5.9,4.6,11.8,9.1,17.6,13.9c4,3.2,7.8,6.6,11.2,10.6c3.8,4.5,8,8.7,11.9,13.2c0.9,1.1,1.8,2.1,2.7,3.2c5.2,6.2,10,12.7,14.4,19.5
			c1.3,2,2.6,4.1,3.9,6.2c3,5,6.1,10,8.9,15.1c2.2,4.1,4,8.4,6.2,13.1C429.2,637.7,427.9,637.9,426.5,637.9z M625.6,584.2
			c-0.3,3.2-0.6,6.4-0.7,9.5c-0.1,3.9-1.1,7.5-2.7,11c-3,6.7-7.1,12.5-12.2,17.8c-3.8,4-8.5,6.3-13.1,8.8c-1.4,0.8-2.9,1.5-4.3,2.3
			c-4.3,2.6-9.1,3.3-13.9,3.7c-3.8,0.3-7.6,0.5-11.4,0.5c-17,0-33.9,0-50.9,0c-6.9,0-13.8,0-20.8,0c-9.7,0-19.4,0-29.2,0
			c-2.5,0-5-0.2-7.6-0.4c-0.5-1.5-0.9-2.8-1.3-4.1c-0.4-1.2-0.9-2.3-1.4-3.4c-1.4-3.2-1.2-6.2,0.7-9.1c2.5-4,4.6-8.1,7.2-12
			c1.4-2.1,2.8-4.3,4.3-6.4c2-3,4.1-5.9,6.1-8.9c2.9-4.3,6.2-8.4,9.7-12.2c1.2-1.3,2.5-2.6,3.7-3.9c6.8-7,13.7-13.9,20.4-21
			c2.7-2.8,6-5,9.1-7.3c7.7-5.6,15.3-11.3,23.1-16.7c3.2-2.2,6.7-3.9,10.1-5.9c1.5-0.9,3-1.7,4.4-2.6c2.9-2,6.1-2.8,9.5-2.6
			c8.4,0.6,16.7,2,24.5,5.4c11,4.7,19.6,12.3,26.4,22c4.3,6.2,7.6,12.9,9.3,20.3C625.9,574.1,626.2,579.1,625.6,584.2z"/>
		<path id="outer-head-part" d="M568,190.3c-0.2-1.7-0.1-3.4-0.3-5.1c-0.9-9.2-2.6-18.3-6-27c-1.1-2.8-1.8-5.8-3-8.6
			c-3.4-8.3-7.6-16.1-12.9-23.2c-1.4-1.9-3-3.8-4.6-5.6c-2.7-3.1-5-6.5-7.9-9.5c-12.9-13.2-28.1-22.9-45.2-29.6
			c-11.4-4.5-23.2-7.2-35.4-7.9c-2.4-0.1-4.8-0.4-7.2-0.5c-1.3-0.1-2.6,0.6-3.8-0.4h-10.3c-1.5,0.3-3.1,0.8-4.6,0.9
			c-11.4,0.7-22.3,3.2-32.8,7.9c-4.4,2-8.9,3.6-13.4,5.4c-4.6,1.9-8.7,4.6-12.7,7.4c-1.2,0.8-2.5,1.5-3.8,2.2
			c-0.5,0.3-1,0.5-1.4,0.9c-5.8,5.2-11.9,10.1-17.4,15.6c-3.9,3.9-7.2,8.5-10.5,13c-0.1,0.1-0.1,0.2-0.2,0.3
			c-2.3,3.1-4.5,6.4-6.4,9.7c-1.9,3.2-3.4,6.7-4.9,10.1c-5.5,12.2-8.8,25.1-10.8,38.3c-1.2,8.2-1.3,16.5-0.9,24.8
			c0.8,18.9,5.4,36.9,13.4,54c4.7,10.2,10.5,19.6,17,28.7c5.3,7.5,10.7,15,16.1,22.4c0.1,0.2,0.2,0.4,0.4,0.9
			c0.4,0.6,1.3,0.2,1.8-0.1c7.5-4.2,14.9-7.9,22.3-13.3c-0.5-0.5-0.6-0.6-1.4-1.5c-1.5-1.7-2.9-3.4-4.4-5.1
			c-1.2-1.4-2.5-2.8-3.8-4.1c-3-2.9-4.7-6.6-6.8-10c-3.6-5.8-7.3-11.6-10.9-17.5c-8-13.4-13.4-27.8-15.9-43.2
			c-0.6-3.8-0.9-7.6-1.1-11.4c-0.2-3.1-0.4-6.2-0.3-9.3c0.6-12.6,2.3-25,7-36.8c1.1-2.7,1.7-5.6,3.1-8.3c2.7-5.1,6.2-9.6,9.6-14.1
			c3.2-4.3,6.4-8.6,9.8-12.8c1.5-1.8,3.2-3.5,5.1-4.8c1.2-0.8,2.3-1.7,3.5-2.5c5.2-3.6,10.4-7.1,16-10c8.6-4.4,17.7-7.3,27.1-9.2
			c3.4-0.7,6.9-1.5,10.3-1.9c3.6-0.4,7.2-0.3,10.7-0.5c7.2-0.4,14.3,1,21.3,2.4c14.9,2.9,28.6,8.8,40.9,17.6
			c0.7,0.5,1.4,1.1,2.2,1.6c7.3,5.6,13.7,12.1,19.2,19.5c2.6,3.5,4.5,7.6,6.7,11.5c3.4,5.9,5.4,12.4,7.2,18.9
			c1.1,3.8,2.3,7.6,3.3,11.4c0.5,1.8,0.5,3.7,0.6,5.6c0.3,5.1,0.6,10.3,1,15.4c0.3,3.7,0.2,7.3-0.4,11c-0.7,4.8-1.2,9.7-2.2,14.5
			c-1.4,6.6-3.8,13.1-6.7,19.1c-3.8,7.9-8.3,15.6-12.4,23.3c-5,9.5-12,17.6-18.8,25.9c-0.9,1.1-1.8,2.2-2.7,3.2
			c-0.9,1-1.9,1.4-2.9,1c7.6,5.6,15.9,9.9,23.7,14.2c0.7,0.4,1.8,1.1,2.5,0.2c0.4-0.7,0.8-1.4,1.3-2.1c6.1-9.1,12.2-18.1,18.2-27.3
			c4.2-6.4,8.4-12.7,11.9-19.6c5.3-10.6,8.9-21.7,11.5-33.2c1.5-6.8,2.7-13.7,3.1-20.7C569.1,205.2,569,197.7,568,190.3z"/>
	</g>
	<g id="focus-letters">
		<path id="focus-letter-f" d="M97.1,695.3c0,0.5,0,0.9-0.1,1.2c-0.1,0.3-0.1,0.5-0.2,0.7c-0.1,0.2-0.2,0.3-0.3,0.4
			c-0.1,0.1-0.3,0.1-0.5,0.1c-0.3,0-0.6-0.1-1-0.3c-0.4-0.2-0.9-0.4-1.5-0.6s-1.3-0.4-2.1-0.6s-1.8-0.3-2.9-0.3
			c-1.5,0-2.8,0.2-3.9,0.7c-1.1,0.5-1.9,1.2-2.6,2.3c-0.7,1-1.1,2.4-1.4,4s-0.4,3.6-0.4,5.9v5.6h12.1c0.3,0,0.5,0.1,0.7,0.2
			c0.2,0.1,0.3,0.3,0.5,0.5c0.1,0.2,0.3,0.5,0.3,0.8c0.1,0.3,0.1,0.7,0.1,1.2c0,0.9-0.1,1.5-0.4,2c-0.3,0.4-0.7,0.7-1.1,0.7H80.3
			v43.3c0,0.2-0.1,0.4-0.2,0.6c-0.1,0.2-0.3,0.3-0.5,0.4c-0.2,0.1-0.6,0.2-1,0.3c-0.4,0.1-1,0.1-1.6,0.1c-0.6,0-1.1,0-1.6-0.1
			c-0.4-0.1-0.8-0.2-1-0.3c-0.3-0.1-0.4-0.2-0.5-0.4c-0.1-0.2-0.1-0.4-0.1-0.6v-43.3h-7.4c-0.5,0-0.9-0.2-1.2-0.7s-0.4-1.1-0.4-2
			c0-0.5,0-0.8,0.1-1.2c0.1-0.3,0.2-0.6,0.3-0.8c0.1-0.2,0.3-0.4,0.5-0.5c0.2-0.1,0.4-0.2,0.7-0.2h7.4v-5.4c0-3.3,0.3-6.2,0.9-8.5
			c0.6-2.3,1.6-4.3,2.8-5.7c1.3-1.5,2.8-2.5,4.7-3.2c1.9-0.7,4.1-1,6.6-1c1.2,0,2.4,0.1,3.6,0.3c1.2,0.2,2,0.5,2.6,0.7
			c0.6,0.3,1,0.5,1.2,0.7c0.2,0.2,0.4,0.4,0.5,0.7c0.1,0.3,0.2,0.6,0.3,1C97.1,694.4,97.1,694.9,97.1,695.3z"/>
		<path id="focus-letter-o" d="M159.2,738.8c0,3.8-0.5,7.3-1.5,10.4c-1,3.2-2.5,5.9-4.6,8.3c-2,2.3-4.5,4.2-7.5,5.5
			c-3,1.3-6.5,2-10.5,2c-3.9,0-7.2-0.6-10.1-1.8c-2.9-1.2-5.3-2.9-7.2-5c-1.9-2.2-3.4-4.8-4.4-8c-1-3.1-1.4-6.6-1.4-10.5
			c0-3.8,0.5-7.3,1.5-10.4c1-3.2,2.5-5.9,4.5-8.3c2-2.3,4.5-4.1,7.5-5.4c3-1.3,6.5-1.9,10.6-1.9c3.9,0,7.2,0.6,10.1,1.7
			c2.9,1.2,5.3,2.8,7.2,5c1.9,2.2,3.4,4.8,4.4,8C158.7,731.4,159.2,734.9,159.2,738.8z M152.4,739.4c0-2.7-0.3-5.3-0.8-7.7
			c-0.5-2.4-1.5-4.6-2.7-6.5c-1.3-1.9-3-3.4-5.1-4.5c-2.1-1.1-4.8-1.7-8-1.7c-2.9,0-5.5,0.5-7.6,1.5c-2.1,1-3.9,2.4-5.3,4.2
			s-2.4,3.9-3,6.4c-0.7,2.4-1,5.1-1,7.9c0,2.7,0.3,5.3,0.8,7.8c0.5,2.5,1.5,4.6,2.7,6.5c1.3,1.9,3,3.3,5.1,4.4
			c2.1,1.1,4.8,1.6,8,1.6c2.9,0,5.5-0.5,7.6-1.5c2.1-1,3.9-2.4,5.3-4.2c1.4-1.8,2.4-3.9,3-6.3C152,744.9,152.4,742.3,152.4,739.4z"
			/>
		<path id="focus-letter-c" d="M221.6,756c0,0.4,0,0.8-0.1,1.1c0,0.3-0.1,0.6-0.2,0.9c-0.1,0.2-0.2,0.5-0.3,0.7
			c-0.1,0.2-0.4,0.5-0.9,1c-0.5,0.5-1.3,1-2.4,1.7c-1.1,0.7-2.4,1.3-3.7,1.8c-1.4,0.5-2.9,1-4.5,1.3c-1.6,0.3-3.3,0.5-5,0.5
			c-3.4,0-6.4-0.6-9.1-1.7c-2.6-1.1-4.8-2.7-6.6-4.9c-1.8-2.2-3.1-4.8-4.1-7.9c-0.9-3.1-1.4-6.7-1.4-10.8c0-4.6,0.6-8.6,1.7-11.9
			s2.7-6,4.7-8.1c2-2.1,4.3-3.6,7-4.6c2.7-1,5.5-1.5,8.6-1.5c1.6,0,3.2,0.1,4.7,0.4c1.5,0.3,2.9,0.7,4.1,1.2c1.3,0.5,2.4,1,3.4,1.7
			c1,0.6,1.7,1.2,2.2,1.6c0.5,0.4,0.8,0.8,0.9,1c0.2,0.2,0.3,0.5,0.4,0.8c0.1,0.3,0.2,0.6,0.2,0.9c0,0.3,0.1,0.7,0.1,1.2
			c0,1-0.2,1.7-0.5,2.1c-0.3,0.4-0.6,0.6-1,0.6c-0.5,0-1.1-0.3-1.9-0.9c-0.7-0.6-1.7-1.3-2.9-2.1c-1.2-0.8-2.6-1.4-4.2-2.1
			c-1.7-0.6-3.6-0.9-5.9-0.9c-4.7,0-8.4,1.7-10.9,5.2c-2.6,3.5-3.8,8.6-3.8,15.2c0,3.3,0.3,6.2,1,8.7c0.7,2.5,1.7,4.6,3,6.2
			c1.3,1.7,2.9,2.9,4.7,3.7s3.9,1.2,6.3,1.2c2.2,0,4.1-0.3,5.8-1c1.7-0.7,3.1-1.4,4.4-2.2c1.2-0.8,2.3-1.5,3.1-2.2
			c0.8-0.7,1.4-1,1.8-1c0.2,0,0.4,0.1,0.6,0.2c0.2,0.1,0.3,0.3,0.4,0.6s0.2,0.6,0.2,0.9C221.6,755.1,221.6,755.5,221.6,756z"/>
		<path id="focus-letter-u" d="M287.8,763.1c0,0.2,0,0.4-0.1,0.6c-0.1,0.2-0.3,0.3-0.5,0.4c-0.3,0.1-0.6,0.2-1,0.3
			c-0.4,0.1-0.9,0.1-1.5,0.1c-0.7,0-1.2,0-1.6-0.1c-0.4-0.1-0.7-0.2-0.9-0.3c-0.2-0.1-0.4-0.2-0.5-0.4c-0.1-0.2-0.1-0.4-0.1-0.6
			v-6.7c-2.8,3-5.6,5.2-8.3,6.6c-2.7,1.4-5.4,2-8.1,2c-3.2,0-6-0.5-8.2-1.6c-2.2-1-4-2.5-5.4-4.3c-1.4-1.8-2.3-3.9-2.9-6.3
			s-0.9-5.2-0.9-8.6v-28.7c0-0.2,0-0.4,0.1-0.6c0.1-0.2,0.3-0.3,0.5-0.4c0.3-0.1,0.6-0.2,1-0.3c0.4-0.1,0.9-0.1,1.6-0.1
			c0.7,0,1.2,0,1.6,0.1c0.4,0.1,0.7,0.1,1,0.3c0.2,0.1,0.4,0.3,0.5,0.4c0.1,0.2,0.2,0.4,0.2,0.6v28.1c0,2.9,0.2,5.3,0.7,7.2
			c0.5,1.9,1.2,3.4,2.1,4.7c0.9,1.3,2.2,2.3,3.6,3c1.5,0.7,3.2,1.1,5.2,1.1c2.5,0,5-0.9,7.5-2.6c2.5-1.7,5.1-4.2,7.9-7.6v-34.1
			c0-0.2,0-0.4,0.1-0.6c0.1-0.2,0.3-0.3,0.5-0.4c0.3-0.1,0.6-0.2,1-0.3c0.4-0.1,1-0.1,1.6-0.1c0.6,0,1.1,0,1.6,0.1
			c0.4,0.1,0.7,0.1,1,0.3c0.2,0.1,0.4,0.3,0.5,0.4c0.1,0.2,0.2,0.4,0.2,0.6V763.1z"/>
		<path id="focus-letter-s" d="M348.4,750.4c0,2.3-0.4,4.3-1.3,6.1c-0.9,1.8-2.1,3.3-3.7,4.6c-1.6,1.3-3.6,2.2-5.8,2.9
			c-2.3,0.7-4.7,1-7.5,1c-1.7,0-3.3-0.1-4.9-0.4c-1.5-0.3-2.9-0.6-4.1-1c-1.2-0.4-2.3-0.8-3.1-1.3c-0.9-0.5-1.5-0.9-1.9-1.2
			c-0.4-0.3-0.7-0.8-0.9-1.3c-0.2-0.5-0.3-1.2-0.3-2.1c0-0.5,0-0.9,0.1-1.2c0.1-0.3,0.2-0.6,0.3-0.9c0.1-0.2,0.3-0.4,0.4-0.6
			s0.4-0.2,0.6-0.2c0.4,0,1,0.2,1.7,0.7c0.8,0.5,1.7,1,2.9,1.6s2.5,1.1,4.1,1.6s3.4,0.7,5.5,0.7c1.7,0,3.2-0.2,4.6-0.5
			s2.6-0.9,3.6-1.6c1-0.7,1.8-1.6,2.4-2.7c0.6-1.1,0.8-2.4,0.8-3.9c0-1.5-0.4-2.7-1.1-3.7c-0.7-1-1.7-1.9-2.9-2.6s-2.5-1.4-4-2
			s-3.1-1.2-4.6-1.8c-1.6-0.6-3.1-1.3-4.6-2s-2.9-1.6-4-2.7c-1.2-1-2.1-2.3-2.9-3.8c-0.7-1.5-1.1-3.2-1.1-5.3c0-1.6,0.3-3.3,1-4.9
			c0.7-1.6,1.7-3,3-4.3s3.1-2.3,5.2-3c2.1-0.8,4.6-1.2,7.5-1.2c1.2,0,2.5,0.1,3.7,0.3c1.2,0.2,2.3,0.4,3.3,0.8c1,0.3,1.9,0.7,2.6,1
			c0.7,0.4,1.3,0.7,1.7,1c0.4,0.3,0.6,0.5,0.8,0.7c0.1,0.2,0.2,0.4,0.3,0.6s0.1,0.5,0.1,0.8c0,0.3,0.1,0.7,0.1,1.1s0,0.8-0.1,1.1
			c-0.1,0.3-0.1,0.6-0.2,0.9c-0.1,0.2-0.2,0.4-0.4,0.6c-0.2,0.1-0.4,0.2-0.6,0.2c-0.3,0-0.7-0.2-1.3-0.6c-0.6-0.4-1.3-0.8-2.3-1.3
			c-0.9-0.5-2.1-0.9-3.4-1.3c-1.3-0.4-2.8-0.6-4.5-0.6c-1.7,0-3.2,0.2-4.5,0.6c-1.3,0.4-2.4,0.9-3.2,1.6c-0.8,0.7-1.5,1.5-1.9,2.5
			c-0.4,0.9-0.6,2-0.6,3.1c0,1.5,0.4,2.8,1.1,3.9s1.7,2,2.9,2.7c1.2,0.8,2.6,1.5,4.1,2c1.5,0.6,3.1,1.2,4.7,1.8
			c1.6,0.6,3.1,1.3,4.7,2c1.5,0.7,2.9,1.6,4.1,2.6c1.2,1,2.2,2.2,2.9,3.6C348.1,746.7,348.4,748.4,348.4,750.4z"/>
	</g>
	<g id="four-letters">
		<path id="four-letter-f" class="st0" d="M416.9,695.3c0,0.5,0,0.9-0.1,1.2s-0.1,0.5-0.2,0.7c-0.1,0.2-0.2,0.3-0.3,0.4
			c-0.1,0.1-0.3,0.1-0.5,0.1c-0.3,0-0.6-0.1-1-0.3c-0.4-0.2-0.9-0.4-1.5-0.6c-0.6-0.2-1.3-0.4-2.1-0.6s-1.8-0.3-2.9-0.3
			c-1.5,0-2.8,0.2-3.9,0.7c-1.1,0.5-1.9,1.2-2.6,2.3c-0.7,1-1.1,2.4-1.4,4s-0.4,3.6-0.4,5.9v5.6h12.1c0.3,0,0.5,0.1,0.7,0.2
			c0.2,0.1,0.3,0.3,0.5,0.5s0.3,0.5,0.3,0.8c0.1,0.3,0.1,0.7,0.1,1.2c0,0.9-0.1,1.5-0.4,2s-0.7,0.7-1.1,0.7h-12.1v43.3
			c0,0.2-0.1,0.4-0.2,0.6c-0.1,0.2-0.3,0.3-0.5,0.4c-0.2,0.1-0.6,0.2-1,0.3c-0.4,0.1-1,0.1-1.6,0.1c-0.6,0-1.1,0-1.6-0.1
			c-0.4-0.1-0.8-0.2-1-0.3c-0.3-0.1-0.4-0.2-0.5-0.4c-0.1-0.2-0.1-0.4-0.1-0.6v-43.3h-7.4c-0.5,0-0.9-0.2-1.2-0.7
			c-0.3-0.4-0.4-1.1-0.4-2c0-0.5,0-0.8,0.1-1.2c0.1-0.3,0.2-0.6,0.3-0.8s0.3-0.4,0.5-0.5c0.2-0.1,0.4-0.2,0.7-0.2h7.4v-5.4
			c0-3.3,0.3-6.2,0.9-8.5c0.6-2.3,1.6-4.3,2.8-5.7c1.3-1.5,2.8-2.5,4.7-3.2c1.9-0.7,4.1-1,6.6-1c1.2,0,2.4,0.1,3.6,0.3
			c1.2,0.2,2,0.5,2.6,0.7c0.6,0.3,1,0.5,1.2,0.7c0.2,0.2,0.4,0.4,0.5,0.7c0.1,0.3,0.2,0.6,0.3,1S416.9,694.9,416.9,695.3z"/>
		<path id="four-letter-o" class="st0" d="M479.1,738.8c0,3.8-0.5,7.3-1.5,10.4c-1,3.2-2.5,5.9-4.6,8.3c-2,2.3-4.5,4.2-7.5,5.5
			c-3,1.3-6.5,2-10.5,2c-3.9,0-7.2-0.6-10.1-1.8c-2.9-1.2-5.3-2.9-7.2-5c-1.9-2.2-3.4-4.8-4.4-8c-1-3.1-1.4-6.6-1.4-10.5
			c0-3.8,0.5-7.3,1.5-10.4c1-3.2,2.5-5.9,4.5-8.3c2-2.3,4.5-4.1,7.5-5.4c3-1.3,6.5-1.9,10.6-1.9c3.9,0,7.2,0.6,10.1,1.7
			c2.9,1.2,5.3,2.8,7.2,5c1.9,2.2,3.4,4.8,4.4,8C478.6,731.4,479.1,734.9,479.1,738.8z M472.2,739.4c0-2.7-0.3-5.3-0.8-7.7
			c-0.5-2.4-1.5-4.6-2.7-6.5c-1.3-1.9-3-3.4-5.1-4.5c-2.1-1.1-4.8-1.7-8-1.7c-2.9,0-5.5,0.5-7.6,1.5c-2.1,1-3.9,2.4-5.3,4.2
			c-1.4,1.8-2.4,3.9-3,6.4c-0.7,2.4-1,5.1-1,7.9c0,2.7,0.3,5.3,0.8,7.8c0.5,2.5,1.5,4.6,2.7,6.5c1.3,1.9,3,3.3,5.1,4.4
			c2.1,1.1,4.8,1.6,8,1.6c2.9,0,5.5-0.5,7.6-1.5c2.1-1,3.9-2.4,5.3-4.2s2.4-3.9,3-6.3C471.9,744.9,472.2,742.3,472.2,739.4z"/>
		<path id="four-letter-u" class="st0" d="M546.8,763.1c0,0.2,0,0.4-0.1,0.6c-0.1,0.2-0.3,0.3-0.5,0.4c-0.3,0.1-0.6,0.2-1,0.3
			c-0.4,0.1-0.9,0.1-1.5,0.1c-0.7,0-1.2,0-1.6-0.1c-0.4-0.1-0.7-0.2-0.9-0.3c-0.2-0.1-0.4-0.2-0.5-0.4c-0.1-0.2-0.1-0.4-0.1-0.6
			v-6.7c-2.8,3-5.6,5.2-8.3,6.6c-2.7,1.4-5.4,2-8.1,2c-3.2,0-6-0.5-8.2-1.6c-2.2-1-4-2.5-5.4-4.3s-2.3-3.9-2.9-6.3s-0.9-5.2-0.9-8.6
			v-28.7c0-0.2,0-0.4,0.1-0.6c0.1-0.2,0.3-0.3,0.5-0.4c0.3-0.1,0.6-0.2,1-0.3c0.4-0.1,0.9-0.1,1.6-0.1c0.7,0,1.2,0,1.6,0.1
			c0.4,0.1,0.7,0.1,1,0.3s0.4,0.3,0.5,0.4c0.1,0.2,0.2,0.4,0.2,0.6v28.1c0,2.9,0.2,5.3,0.7,7.2c0.5,1.9,1.2,3.4,2.1,4.7
			c0.9,1.3,2.2,2.3,3.6,3c1.5,0.7,3.2,1.1,5.2,1.1c2.5,0,5-0.9,7.5-2.6c2.5-1.7,5.1-4.2,7.9-7.6v-34.1c0-0.2,0-0.4,0.1-0.6
			c0.1-0.2,0.3-0.3,0.5-0.4c0.3-0.1,0.6-0.2,1-0.3s1-0.1,1.6-0.1c0.6,0,1.1,0,1.6,0.1c0.4,0.1,0.7,0.1,1,0.3s0.4,0.3,0.5,0.4
			c0.1,0.2,0.2,0.4,0.2,0.6V763.1z"/>
		<path id="four-letter-r" class="st0" d="M605.7,718c0,0.5,0,1-0.1,1.3c0,0.4-0.1,0.7-0.2,0.9c-0.1,0.2-0.2,0.4-0.3,0.5
			c-0.1,0.1-0.3,0.2-0.5,0.2c-0.3,0-0.7-0.1-1.1-0.2c-0.4-0.2-0.9-0.3-1.5-0.5c-0.6-0.2-1.2-0.3-1.9-0.5c-0.7-0.2-1.5-0.2-2.3-0.2
			c-1,0-1.9,0.2-2.9,0.6c-0.9,0.4-1.9,1-3,1.9c-1,0.9-2.1,2.1-3.3,3.5c-1.1,1.5-2.4,3.3-3.8,5.4v32.1c0,0.2-0.1,0.4-0.2,0.6
			c-0.1,0.2-0.3,0.3-0.5,0.4c-0.2,0.1-0.6,0.2-1,0.3c-0.4,0.1-1,0.1-1.6,0.1c-0.6,0-1.1,0-1.6-0.1c-0.4-0.1-0.8-0.2-1-0.3
			c-0.3-0.1-0.4-0.2-0.5-0.4c-0.1-0.2-0.1-0.4-0.1-0.6v-47.5c0-0.2,0-0.4,0.1-0.6c0.1-0.2,0.3-0.3,0.5-0.4c0.3-0.1,0.6-0.2,1-0.3
			s0.9-0.1,1.5-0.1c0.6,0,1.1,0,1.5,0.1s0.7,0.1,0.9,0.3c0.2,0.1,0.4,0.3,0.5,0.4c0.1,0.2,0.1,0.4,0.1,0.6v7.5
			c1.4-2,2.7-3.6,3.9-4.8c1.2-1.2,2.3-2.2,3.4-2.9c1.1-0.7,2.2-1.1,3.2-1.4c1-0.2,2.1-0.4,3.2-0.4c0.5,0,1,0,1.6,0.1
			c0.6,0.1,1.3,0.1,2,0.3c0.7,0.1,1.3,0.3,1.9,0.5s1,0.4,1.2,0.5c0.2,0.2,0.4,0.3,0.4,0.4c0.1,0.1,0.1,0.3,0.2,0.5s0.1,0.5,0.1,0.8
			C605.7,717,605.7,717.5,605.7,718z"/>
		<path id="four-dot" class="st0" d="M627.5,759.4c0,2.1-0.3,3.4-1,4.1s-1.9,1-3.7,1c-1.7,0-2.9-0.3-3.6-1c-0.7-0.6-1-2-1-4
			c0-2.1,0.3-3.4,1-4.1c0.7-0.7,1.9-1,3.7-1c1.7,0,2.9,0.3,3.6,1C627.1,756,627.5,757.4,627.5,759.4z"/>
	</g>
	<g id="me-letters">
		<path id="me-letter-m" d="M720.8,773.5c-0.5-0.1-2.8-0.9-5-1.9c-4.7-2.3-6.2-4-7.4-8.6c-0.4-1.7-0.7-3.8-0.7-6.1
			c0-4.1,0.6-8.7,1.8-12.9c0.8-2.8,1.6-5.4,1.8-5.8c0.1-0.3,0.2-0.5,0.2-0.6c0-0.1-0.1-0.1-0.1-0.1c-0.4,0-2.1,1.7-5.8,5.6
			c-7.6,8-12.6,12.8-14.4,13.7c-0.8,0.4-1.6,0.6-2.4,0.6c-1.2,0-2.6-0.5-3.6-1.4c-0.7-0.6-1.5-1.1-1.9-1.1c-1.2,0-3.5-1.5-4.3-2.9
			c-0.4-0.6-0.6-1.7-0.6-3.1c0-2.1,0.5-4.9,1.4-8c0.5-1.7,0.8-3.1,0.8-3.5v-0.1l-0.1-0.1c-1.1,0-8,8.6-15.2,18.9
			c-6.6,9.4-7.7,10.7-9.1,11l-0.4,0.1c-1.2,0-2.7-1.2-2.7-2.2c0-0.2-0.2-0.3-0.7-0.3l-1.1,0.1c-1.4,0-3.4-1-3.8-1.9
			c-0.1-0.2-0.1-0.4-0.1-0.7c0-1.6,1.5-5.1,5.5-13.4l5.8-12.2c2.1-4.9,5-9.9,5.7-9.9h0.1c0.3,0,0.4,0,0.4,0.2c0,0.3-0.4,1.3-1.6,3.7
			c-1,2-2.6,5.8-3.7,8.4c-1.1,2.6-3.6,8.1-5.5,12.1c-1.6,3.5-2.7,6.2-2.7,6.6h0.1c0.7-0.7,5.6-11.1,9.3-19.6
			c3.2-7.4,4.3-9.6,4.8-9.9c0.2-0.1,0.2-0.1,0.4-0.1c0.1,0,0.1,0,0.1,0.1c0,0.3-0.4,1.1-1.2,3.1c-0.7,1.5-2.5,5.8-4,9.5
			c-1.5,3.7-3.3,7.8-4,9.4c-0.7,1.4-1,2.1-1,2.2c0,0.1,0,0.1,0.1,0.1s0.2-0.2,0.6-0.5c1-0.9,3.9-6.2,5.1-9.5c0.3-1,0.9-2.4,1.3-3.2
			c0.4-0.8,1.2-2.9,1.9-4.7c0.7-1.8,1.5-3.4,1.8-3.7c0.4-0.3,0.8-1,1.2-1.8c0.3-0.7,0.5-1,0.8-1c0.2,0,0.3,0.1,0.5,0.2
			c0.5,0.3,0.7,1.1,0.7,2.1c0,0.9-0.2,2.2-0.7,3.6c-0.4,1.3-0.7,2.5-0.7,2.9l0.1,0.1c0.3,0,2.4-1.8,4.8-4.1c5.1-4.9,8-7.1,9.4-7.1
			c0.7,0,1.1,0.5,1.2,1.3c0.2,0.7,0.7,0.9,2.5,0.9c3.4,0.1,4.8,1.5,4.8,5.8c0,1.5-0.2,3.5-0.5,5.8c-0.2,1.5-0.4,2.9-0.4,3.4
			c0,0.2,0,0.3,0.1,0.3c0.2,0,2.7-2.1,5.6-4.8c8.5-7.7,21.6-18.7,22.8-19.2h0.1c0.2,0,0.5,0.3,0.7,0.8c0.1,0.5,0.5,1,0.7,1
			c0.2,0,0.2,0.1,0.2,0.3l-0.2,0.8c0,0.1,0.1,0.2,0.1,0.2c0.2,0,0.5-0.5,0.8-1c0.2-0.5,0.3-0.7,0.4-0.7c0.1,0,0.1,0.3,0.1,1
			c0.1,0.9,0.1,1.1,0.7,1.1l1.2-0.2c0.5-0.1,1.1-0.1,1.6-0.1c0.5,0,1,0,1.2,0.1c1.2,0.3,1.9,2.1,1.9,4.7c0,2.9-0.7,6.9-2.1,11.7
			c-4.5,15.9-6.2,23.4-6.2,27c0,0.7,0.1,1.3,0.2,1.8c0.4,1.2,0.7,1.4,2.4,1.5c1.7,0.1,2.4,0.9,2.4,1.7
			C724.6,772.2,723.2,773.5,720.8,773.5L720.8,773.5z M666.6,747.1c1.7-2.2,4.3-5.4,5.8-7c1.5-1.6,4.2-4.4,6.1-6.1
			c1.9-1.8,3.4-3.5,3.4-3.9c0-0.2-0.1-0.3-0.2-0.3c-0.7,0-2.6,1.7-6.6,5.6c-7.2,7.1-11.7,12.9-11.7,15c0,0.1,0,0.1,0.1,0.1
			C663.9,750.4,665.2,749.1,666.6,747.1z M674.6,734.3l0.1-0.5c0-0.1,0-0.1-0.1-0.1c-0.1,0-0.2,0.1-0.5,0.3
			c-0.5,0.3-0.7,0.6-0.7,0.7c0,0.1,0.2,0.2,0.4,0.2S674.4,734.7,674.6,734.3z M681.3,747.2c0.4-1.8,1.2-5.4,1.8-8.2
			c0.7-2.5,1.1-4.6,1.1-5.1v-0.1h-0.1c-0.7,0-3.5,11-3.5,14.3v0.2c0,0.9,0,1.3,0.1,1.3C680.8,749.6,681,748.8,681.3,747.2z
			 M682.6,749.1c0.3-0.1,0.9-1.6,1.3-3.4c0.4-1.6,0.8-2.6,1-2.6l0.2,0.2l0.1-0.3l-0.2-2.1c0-0.2,0.1-0.2,0.1-0.2s0.1,0.1,0.3,0.4
			c0.1,0.3,0.2,0.5,0.3,0.5l0.1-0.2l-0.1-1l-0.1-1c0-0.7,0.1-1.4,0.2-1.9c0.2-0.6,0.4-0.9,0.4-0.9s0.1,0.2,0.1,0.5l0.1,0.2
			c0.2,0,0.8-2.7,0.8-4.3v-0.3c0-0.6-0.2-0.9-0.5-0.9h-0.2c-0.6,0.1-1.2,2-2.6,8.4c-1.2,5.7-1.8,7.8-1.8,8.6c0,0.2,0.1,0.3,0.2,0.3
			L682.6,749.1z M684.2,748.2c0.1-0.1,0.1-0.2,0.1-0.5l-0.1-0.5l-0.1-0.2c-0.1,0-0.1,0.1-0.2,0.5C683.9,748,684,748.3,684.2,748.2
			L684.2,748.2z M684.7,746.2l0.1-0.6l-0.1-0.6l-0.1-0.2c-0.1,0-0.1,0.3-0.1,0.7c0,0.5,0.1,0.7,0.1,0.7S684.6,746.2,684.7,746.2z
			 M686.1,739.5c0.1-0.1,0.1-0.2,0.1-0.5l-0.1-0.5l-0.1-0.2c-0.1,0-0.1,0.1-0.2,0.5C685.8,739.3,685.9,739.6,686.1,739.5
			L686.1,739.5z M686.4,734.1c0-0.5,0.1-0.7,0.1-0.7l0.1,0.2l0.1,0.6l-0.1,0.6c-0.1,0.1-0.1,0.1-0.1,0.1S686.4,734.6,686.4,734.1z
			 M693.4,747.7c1.7-1.6,3.3-2.9,3.7-2.9l0.4,0.1c0.2,0,0.4-0.1,0.5-0.3c0.1-0.1,0.1-0.2,0.1-0.3v-0.1l-0.3,0.1
			c-0.2,0.1-0.4,0.2-0.5,0.2c-0.1,0-0.1,0-0.1-0.1c0-0.2,0.5-1,1.4-1.8c0.7-0.6,1.2-0.9,1.6-0.9l0.2,0.1l0.1,0.1l-0.1-0.3l-0.2-0.4
			c0-0.1,0.1-0.1,0.2-0.1l0.8,0.2c0.1,0,0.2-0.1,0.2-0.1l-0.1-0.2c0-0.6,2.6-3.5,3.3-3.5l0.1,0.1c0,0.1-0.1,0.3-0.4,0.5
			c-0.3,0.2-0.5,0.3-0.5,0.3l0.1,0.1l0.4-0.1c0.4-0.1,0.7-0.5,0.7-0.9c0-0.3,0.2-0.5,0.4-0.5h0.2c0.3,0,0.6-0.3,0.8-0.6
			c0.1-0.1,0.1-0.2,0.1-0.3c0-0.1,0-0.1-0.1-0.1l-0.5,0.2l-0.1-0.1l0.1-0.3c0.2-0.3,0.5-0.5,0.7-0.5l0.2,0.1c0.9,0,6.3-5,7.3-6.7
			c0.4-0.6,0.5-1,0.5-1.1l-0.1-0.1l-0.7,0.5c-1.5,1.1-2.7,2.3-2.7,2.8v0.1c0,0.1-0.1,0.2-0.2,0.2H711c-0.5,0-3.9,2.6-3.9,3
			c0,0.1,0.1,0.1,0.2,0.1l1.1-0.2h0.1l-0.4,0.3c-0.2,0.2-0.7,0.3-0.9,0.3l-0.3-0.1c-0.8,0-16.9,15.3-16.9,16.1
			C690.3,750.4,691.7,749.3,693.4,747.7z M694.4,748l0.4-0.6c-0.1,0-0.2,0.1-0.6,0.4c-0.5,0.3-0.8,0.7-0.8,0.8s0.1,0.2,0.1,0.2
			C693.7,748.8,694,748.5,694.4,748z M711.3,759c0.1-6.7,0.7-10,4.5-21.8c0.7-2.2,1.2-4.2,1.2-4.6v-0.1h-0.1c-0.1,0-0.3,0.3-0.5,1
			c-0.1,0.5-0.4,1-0.6,1l-0.2-0.1c-0.1,0-0.2,0.1-0.2,0.2l0.1,0.5c0.1,0.2,0.1,0.4,0.1,0.5c0,0.2,0,0.2-0.1,0.2l-0.2-0.1l-0.2-0.1
			c-0.1,0-0.1,0.1-0.1,0.2c0,0.1,0,0.4,0.1,0.7l0.1,0.7c0,0.2-0.1,0.3-0.2,0.3l-0.1-0.1l-0.2-0.1c-0.1,0-0.2,0.1-0.2,0.3
			c0,0.3,0,1.2-0.1,1.9c-0.1,0.7-0.1,1-0.2,1c-0.1,0-0.2-0.1-0.4-0.3c-0.1-0.2-0.2-0.3-0.3-0.3v0.1c0,0.1,0,0.3,0.1,0.7l0.1,0.6
			c0,0.2,0,0.2-0.1,0.2l-0.3-0.1c-0.2-0.1-0.2-0.1-0.3-0.1h-0.1l0.1,0.2l0.1,0.3c0,0.7-0.4,2.6-1,4.7c-1.4,5.4-2.1,9.5-2.1,12.5
			l0.1,1.6c0.2,2.3,0.7,4.3,1,4.3L711.3,759z M711.9,730.3c0-0.1,0.4-0.5,0.8-0.8c0.4-0.3,0.5-0.4,0.6-0.4l-0.4,0.6
			c-0.5,0.5-0.8,0.8-0.9,0.8C712,730.5,711.9,730.4,711.9,730.3z M713.7,766c0-0.5-0.1-1.1-0.2-2.1c-0.1-0.7-0.1-1.4-0.1-2.2
			c0-5,1.8-12.6,5.9-25.7c1.1-3.7,2-6.9,2-7.2l-0.2-0.1c-1,0-3.3,6-6.4,16.6c-1.8,6.1-2.7,10.7-2.7,14.3c0,2.1,0.3,3.8,0.8,5.4
			c0.3,0.9,0.5,1.4,0.7,1.4C713.7,766.5,713.7,766.3,713.7,766z M714.6,760.6l0.1-1.3l-0.1-1.3l-0.1-0.3c-0.1,0-0.1,0.6-0.1,1.5
			s0.1,1.5,0.1,1.5L714.6,760.6z M714.6,765.8l0.1-1l-0.1-1l-0.1-0.2c-0.1,0-0.1,0.5-0.1,1.3c0,0.8,0.1,1.3,0.1,1.3L714.6,765.8z
			 M715.6,753.2c0.1-0.1,0.1-0.2,0.1-0.5l-0.1-0.5l-0.1-0.2c-0.1,0-0.1,0.1-0.2,0.5C715.3,753,715.3,753.3,715.6,753.2L715.6,753.2z
			 M716,759.2c0.1-0.1,0.1-0.2,0.1-0.5l-0.1-0.5l-0.1-0.2c-0.1,0-0.1,0.1-0.2,0.5C715.7,759,715.8,759.2,716,759.2L716,759.2z
			 M717.5,765.6c0.1-0.1,0.1-0.2,0.1-0.5l-0.1-0.5l-0.1-0.2c-0.1,0-0.1,0.1-0.2,0.5C717.2,765.4,717.2,765.6,717.5,765.6
			L717.5,765.6z M718.4,754.6c0.1-0.1,0.1-0.2,0.1-0.5l-0.1-0.5l-0.1-0.2c-0.1,0-0.1,0.1-0.2,0.5
			C718.1,754.4,718.2,754.7,718.4,754.6L718.4,754.6z M718.9,741.3c0.1-0.1,0.1-0.2,0.1-0.5l-0.1-0.5l-0.1-0.2
			c-0.1,0-0.1,0.1-0.2,0.5C718.6,741.1,718.6,741.4,718.9,741.3L718.9,741.3z M721,734.1c0.2-0.4,0.4-1,0.4-1.4
			c0-0.2-0.1-0.3-0.1-0.3c-0.1,0-0.2,0.2-0.3,0.5c-0.3,0.6-0.4,1.1-0.4,1.4c0,0.1,0,0.1,0.1,0.1S720.8,734.4,721,734.1z
			 M722.7,739.5c0.1-0.1,0.1-0.2,0.1-0.5l-0.1-0.5l-0.1-0.2c-0.1,0-0.1,0.1-0.2,0.5C722.4,739.3,722.4,739.6,722.7,739.5
			L722.7,739.5z M726,727.9l0.1-0.6l-0.1-0.6l-0.1-0.2c-0.1,0-0.1,0.3-0.1,0.7c0,0.5,0.1,0.7,0.1,0.7
			C725.9,728,725.9,727.9,726,727.9z"/>
		<path id="me-letter-e" d="M757.2,771.8c-3.7-0.8-10.6-4.2-12.6-6.2c-2.6-2.4-3.8-5.5-3.8-9.1c0-1.4,0.2-2.9,0.5-4.4
			c2.3-9.8,11.2-25.5,19.6-34.3c2.6-2.7,7.4-6.5,9.6-7.6c1.1-0.5,3-1,4.4-1.2l1.4-0.1c1.1,0,1.5,0.3,2.8,1.5c0.9,0.9,2.7,2,3.9,2.4
			c1.7,0.6,2.3,1,3.1,2.6c0.6,1.2,0.9,2.6,0.9,4.3c0,6.4-4.5,15.5-11.5,22.3c-4,3.8-7.5,5.7-10.7,5.7c-1.8,0-2.7-0.3-4.5-1.6
			c-1.2-0.9-2.4-1.6-2.6-1.6c-0.6,0-3.3,6.9-4.1,10.5c-0.4,1.9-0.6,3.4-0.6,4.6c0,2.6,0.4,2.9,1.3,5l2.8-0.3
			c6.7-0.7,12.6-3.5,19-8.8c3.5-2.8,5.1-4,5.6-4c0.1,0,0.2,0.1,0.2,0.2c0,0.2-0.2,0.6-0.5,0.7c-0.2,0.1-0.2,0.3-0.2,0.6l0.1,0.3
			c0.1,0.3,0.2,0.5,0.4,0.5c0.1,0,0.3-0.1,0.5-0.3l0.5-0.3c0.1,0,0.2,0.1,0.2,0.2c0,0.3-1.7,2.2-3.7,4.3c-1.5,1.5-2.5,2.7-2.5,2.9
			c0,0.1,0,0.1,0.1,0.1l0.2-0.1c0.8-0.6,1.7-1,1.9-1s2.1-1.8,4.3-4c2.4-2.5,3.7-3.5,4.2-3.5l0.2,0.1c0.2,0.2,0.3,0.4,0.3,0.7
			c0,0.4-0.1,1-0.3,1.7c-0.7,2.5-1.7,4.1-4.9,7.6c-5.6,6.1-14.4,10.1-21.7,10.1C759.6,772.2,758.4,772,757.2,771.8z M744.1,756.2
			c0.4-2.3,1.1-5.7,1.8-7.5c0.7-1.9,1.3-3.8,1.5-4.2l0.1-0.5c0-0.2-0.1-0.3-0.2-0.3c-0.5,0-1.8,2.5-1.8,3.4l0.1,0.4
			c0,0.1-0.1,0.3-0.3,0.3c-0.3,0.1-0.6,0.8-0.7,1.5c-0.1,0.7-0.4,2.3-0.7,3.4c-0.2,1-0.5,2.8-0.5,4.3v0.5c0,1.3,0,1.9,0.1,1.9
			C743.7,759.4,743.8,758.4,744.1,756.2z M746.6,758.3c0.1-4.2,1.7-9.3,5.5-17c1.7-3.3,7.2-12.3,9.7-15.5c2.5-3.3,7.7-8.5,10.3-10.3
			c1.1-0.8,1.8-1.2,2.1-1.2c0.1,0,0.1,0.1,0.1,0.1c0,0.1-0.1,0.3-0.4,0.6c-0.2,0.2-0.3,0.4-0.3,0.5v0.1c0.1,0,0.5-0.2,1.1-0.6
			c1.1-0.7,1.7-1,1.7-1.1l-0.1-0.1l-0.8,0.2c-0.3,0.1-0.5,0.1-0.7,0.1c-0.1,0-0.2,0-0.2-0.1l0.1-0.3c0-0.1,0-0.1-0.1-0.1
			c-0.5,0-2.6,1.1-4.6,2.5c-6.4,4.5-12.8,12.7-18.4,23.5c-3.3,6.3-6.1,14-6.1,16.8c0,1.8,0.6,4.5,1.1,4.5
			C746.5,761,746.5,759.8,746.6,758.3z M747.8,757.1l0.1-1.8c0-0.6-0.1-0.9-0.1-0.9l-0.1,0.2c-0.3,0.7-0.5,3.4-0.5,5.1
			c0,0.7,0.1,1.3,0.1,1.3h0.1C747.5,760.8,747.6,759.1,747.8,757.1z M748.7,742c0-0.6,3.4-7.1,5.5-10.7c2.7-4.5,7.1-10,10.6-13.2
			c0.8-0.7,1.4-1.4,1.4-1.5l-0.1-0.1c-1.2,0-7.8,7.5-11.5,13c-2.6,3.8-7.1,12.3-7.1,13.1v0.1c0.1,0.1,0.2,0.1,0.4,0.1
			C748.2,743,748.7,742.5,748.7,742z M768.6,731.6c1.5-1.4,3.3-3.5,4.2-4.6c1.9-2.7,4.3-7.2,4.3-8.1v-0.1c0-0.1-0.1-0.1-0.1-0.1
			c-0.9,0-5.6,4-8,6.9c-2.4,3-7.4,10.5-7.4,11.1c0,0.1,0.1,0.1,0.1,0.1C762.3,736.9,766.1,734,768.6,731.6z M766.5,738.5
			L766.5,738.5L766.5,738.5c-0.2-0.1-1.1,0.3-2.1,1c-1.3,0.8-2.4,1.7-2.4,1.8l0.1,0.1C762.5,741.5,766,739.2,766.5,738.5z
			 M767.7,740.4c0.7-0.3,2.4-1.8,4-3.1c4.7-4.3,8.4-9.9,9.7-14.6c0.3-1,0.7-1.7,0.8-1.7h0.1c0.1,0,0.1-0.4,0.1-1v-0.8
			c-0.1-1.1-0.4-2-0.5-2c-0.2,0-0.7,1.4-1.1,3c-1.7,6.5-5.5,12.5-11.4,18.1c-1.2,1.1-2,1.9-2,2.2l0.1,0.1L767.7,740.4z M769.7,763.9
			c0.4-0.3,0.6-0.5,0.6-0.6l-0.1-0.1c-0.3,0-0.9,0.3-1.4,0.7c-0.4,0.2-0.5,0.5-0.5,0.6c0,0.1,0,0.1,0.1,0.1
			C768.6,764.6,769.3,764.3,769.7,763.9z M771.7,762.7c0.5-0.3,0.8-0.6,0.8-0.7v-0.1l-0.1-0.1c-0.2,0-0.5,0.2-0.9,0.6
			c-0.4,0.4-0.6,0.6-0.6,0.6C771,763.1,771.3,763,771.7,762.7z M773.6,712.5l0.1-0.2c0-0.1-0.1-0.1-0.2-0.1l-0.4,0.1
			c-0.5,0.2-0.7,0.3-0.7,0.5c0,0.1,0.1,0.2,0.4,0.2C773.1,712.9,773.4,712.7,773.6,712.5z M773.7,730.5c0.9-1,2.8-3.7,4-5.9
			c1.2-2.2,2.4-4.9,2.6-5.9l0.1-1c0-0.3-0.1-0.4-0.1-0.4c-0.2,0-0.7,1-1.2,2.6c-0.8,2.6-2.3,5.4-4.9,9.4l-1.7,2.5v0.1
			C772.5,731.8,772.9,731.3,773.7,730.5z M774.5,761l0.1-0.2c0-0.1-0.1-0.1-0.2-0.1l-0.4,0.1c-0.5,0.2-0.7,0.3-0.7,0.5
			s0.1,0.2,0.4,0.2C774,761.4,774.4,761.2,774.5,761z"/>
	</g>
</g>
</svg>
