<?xml version="1.0" encoding="utf-8"?>
<!-- Generator: Adobe Illustrator 24.3.0, SVG Export Plug-In . SVG Version: 6.00 Build 0)  -->
<svg version="1.1" id="focus-four-me-logo-9" xmlns="http://www.w3.org/2000/svg" xmlns:xlink="http://www.w3.org/1999/xlink"
	 x="0px" y="0px" viewBox="0 0 1500 550" style="enable-background:new 0 0 1500 550;" xml:space="preserve">
<style type="text/css">
	.st0{fill:#FFFFFF;}
</style>
<g id="focus-four-me-logo-9-parts">
	<path id="product-link-main" class="st0" d="M314.1,387.7c0,0.1,0.1,0.2,0.1,0.4L314.1,387.7z M314,387.4c0.1,0.3,0.1,0.6,0.2,0.9
		v6c-0.1,0.2-0.2,0.5-0.2,0.7c-0.1,0.8,0,1.6-0.2,2.4c-1.3,6.9-3.9,13.3-7.8,19.2c-1.3,1.9-2.8,3.7-4.5,5.3c-1.9,1.8-4.1,3.1-6,4.9
		c-3.5,3.2-7.7,4.9-12,6.6c-1.4,0.6-2.9,1-4.4,1.3c-1.8,0.4-3.7,0.7-5.6,1c-1.1,0-2.3,0-3.4,0c-0.4,0-0.7,0.2-1.1,0.3H138.4
		c-1.1-0.6-2.3-0.1-3.4-0.2c-0.2,0-0.4,0.2-0.5,0.2H120c-0.2-0.1-0.4-0.2-0.7-0.2c-0.2,0-0.5,0-0.7,0c-0.5,0-1,0-1.5,0
		c-0.2,0-0.3-0.1-0.5-0.1c-6.6-0.4-12.7-2.4-18.4-5.6c-2.4-1.4-4.6-3.1-6.8-4.8c-2.7-2.1-5.1-4.6-7-7.4c-2.4-3.4-4.2-7.2-5.9-11
		c-1.1-2.3-2-4.7-2.1-7.3c-0.1-1.7-0.5-3.3-1-5c-0.1-0.7,0.3-1.5-0.2-2.2c0.1-0.6,0.2-1.3,0.3-1.9l-0.4-0.9c0.1-0.3,0.2-0.6,0.2-0.8
		c0.2-1.4,0.2-2.8,0.4-4.2c0.4-2.7,1-5.4,1.5-8.1c0.8-4.4,1.5-8.8,2.3-13.2c0.6-3.6,1.2-7.2,1.9-10.9c0.9-5.4,1.9-10.8,2.9-16.1
		c0.5-2.7,1.2-5.4,1.7-8.1c1.2-6.5,2.3-13.1,3.5-19.6c1.4-7.4,3.2-14.6,6.5-21.4c2.9-5.9,6.1-11.6,10.2-16.8
		c3.1-4,6.6-7.5,10.3-10.9c1.9-1.7,3.9-3.3,6-4.9c1.9-1.5,3.9-2.8,5.9-4.2c2.8-2,5.7-3.8,8.8-5.2c3.4-1.5,6.8-3,10.2-4.6
		c0.6-0.3,1.1-0.6,1.7-0.9c-0.1-0.3-0.1-0.4-0.2-0.5c-3-4.2-6-8.4-9-12.6c-3.6-5.1-6.9-10.4-9.6-16.2c-4.5-9.6-7-19.8-7.5-30.4
		c-0.2-4.6-0.1-9.3,0.5-13.9c1.1-7.4,3-14.7,6.1-21.5c0.9-1.9,1.7-3.8,2.8-5.7c1.1-1.9,2.3-3.7,3.6-5.5c0.2-0.2,0.3-0.5,0.5-0.7
		c0.6-0.8,1.3-1.7,1.9-2.5c0.2-0.2,0.3-0.4,0.5-0.7c0.3-0.4,0.7-0.8,1-1.2c0.2-0.2,0.3-0.4,0.5-0.6c0.5-0.6,1-1.2,1.6-1.7
		c3.1-3.1,6.5-5.9,9.8-8.8c0.2-0.2,0.5-0.3,0.8-0.5c0.7-0.4,1.5-0.8,2.1-1.3c2.3-1.5,4.6-3.1,7.2-4.1c2.5-1,5.1-1.9,7.5-3.1
		c5.9-2.6,12-4,18.4-4.4c0.9-0.1,1.7-0.3,2.6-0.5h5.8c0.7,0.5,1.4,0.2,2.1,0.2c1.4,0.1,2.7,0.2,4.1,0.3c6.9,0.4,13.5,1.9,19.9,4.4
		c9.6,3.8,18.2,9.2,25.4,16.6c1.6,1.7,2.9,3.6,4.5,5.3c0.5,0.6,1,1.1,1.4,1.7c0.2,0.2,0.3,0.4,0.5,0.6c0.2,0.3,0.4,0.6,0.7,0.8
		c0.1,0.1,0.2,0.2,0.2,0.3c0.2,0.2,0.3,0.4,0.4,0.6c0.3,0.4,0.6,0.8,0.8,1.2c0.1,0.2,0.3,0.4,0.4,0.6c0.3,0.5,0.6,1,0.9,1.4
		c0.1,0.1,0.2,0.3,0.2,0.4c0.4,0.6,0.7,1.2,1.1,1.9c0.1,0.2,0.2,0.4,0.3,0.5c0.2,0.5,0.5,0.9,0.7,1.4c0.1,0.2,0.2,0.4,0.3,0.7
		c0.2,0.5,0.4,0.9,0.7,1.4c0.1,0.2,0.2,0.4,0.3,0.6c0.3,0.7,0.6,1.3,0.9,2c0.6,1.6,1,3.3,1.7,4.8c1.9,4.9,2.8,10,3.4,15.2
		c0.1,1,0,1.9,0.1,2.9c0.6,4.2,0.6,8.4,0.4,12.6c-0.2,3.9-0.9,7.8-1.8,11.7c-1.5,6.5-3.5,12.7-6.5,18.7c-1.9,3.8-4.3,7.4-6.7,11
		c-3.4,5.1-6.8,10.2-10.2,15.3c-0.3,0.4-0.5,0.8-0.7,1.2c0.9,0.9,1.9,1.4,3,1.8c4.6,1.6,9,3.5,13.1,6c3,1.9,6,4,8.9,6
		c1.2,0.8,2.4,1.6,3.5,2.5c1.7,1.5,3.3,3.1,5,4.7c2.1,2.1,4.2,4.1,6.2,6.3c3.6,4.1,6.7,8.7,9.5,13.4c3.8,6.3,6.8,13,8.3,20.2
		c1.4,6.7,2.7,13.5,4,20.2c0.8,4.4,1.6,8.9,2.3,13.3c0.7,4.1,1.4,8.2,2.2,12.3c1.1,6,2.2,12,3.4,18.1c0.5,2.5,1,5,1.4,7.5
		c0.4,2.1,0.6,4.2,0.9,6.4C313.2,381.4,313.6,384.4,314,387.4c0,0.1,0.1,0.2,0.1,0.2L314,387.4z M153,220.4c1.2,1.9,2.1,4,3.8,5.6
		c0.8,0.7,1.4,1.5,2.1,2.3c0.8,1,1.7,1.9,2.5,2.9c0.7,0.8,1.1,0.9,2,0.2c0.3-0.3,0.7-0.6,1-0.9c3.5-3.2,5.6-7.1,5.3-11.9
		c-0.1-1.1-0.3-2.2-0.9-3.2c-2.9-5-5.9-10-8.6-15c-4.1-7.5-6.5-15.6-6.3-24.3c0.1-1.8,0.3-3.7,0.3-5.5c0-3.1,0.8-6,1.9-8.8
		c0.7-1.7,1.1-3.4,1.9-5c0.8-1.7,1.8-3.4,2.8-5.1c1.6-2.7,3.7-4.9,6.1-6.8c4.9-4.1,10.3-7.2,16.6-8.5c1.9-0.4,3.8-0.6,5.7-0.9
		c4.2-0.7,8.4-0.9,12.6-0.1c6.5,1.2,12.7,3.3,18.1,7.3c7.5,5.4,12.5,12.4,14.2,21.6c0.4,2.1,0.8,4.3,1.1,6.5
		c0.3,2.7,0.1,5.5,0.1,8.2c0,0.8,0.2,1.6,0.1,2.3c-0.1,1.4-0.4,2.8-0.6,4.1c-1.3,6.8-4,13-7.6,18.8c-2.1,3.5-4.3,6.9-6.1,10.6
		c-1.3,2.6-1.7,5.2-0.9,8c0.3,0.9,0.4,2,0.9,2.7c1.5,2,3.1,3.8,4.8,5.6c0.2,0.2,0.4,0.4,0.7,0.4c0.1,0,0.2,0,0.3,0c0,0,0.1,0,0.1,0
		c0.1,0,0.2,0,0.4-0.1c0,0,0,0,0.1,0c0.1,0,0.2-0.1,0.3-0.2c0,0,0.1,0,0.1-0.1c0.1-0.1,0.2-0.2,0.3-0.3c0.5-0.6,1-1.2,1.5-1.8
		c3.8-4.7,7.7-9.2,10.5-14.6c2.3-4.4,4.8-8.7,7-13.1c1.6-3.4,3-7,3.8-10.8c0.6-2.7,0.8-5.4,1.2-8.2c0.3-2,0.3-4.1,0.2-6.2
		c-0.2-2.9-0.3-5.8-0.5-8.6c-0.1-1-0.1-2.1-0.3-3.1c-0.5-2.2-1.2-4.3-1.8-6.4c-1-3.7-2.1-7.3-4.1-10.6c-1.3-2.2-2.3-4.5-3.8-6.5
		c-0.7-1-1.5-1.9-2.2-2.8c-0.1-0.1-0.2-0.2-0.3-0.3c-0.7-0.9-1.5-1.7-2.3-2.5c-0.1-0.1-0.3-0.3-0.4-0.4c-0.8-0.8-1.6-1.6-2.4-2.3
		c-0.1-0.1-0.3-0.3-0.4-0.4c-0.9-0.7-1.7-1.5-2.6-2.2c-0.4-0.3-0.9-0.7-1.3-1c-6.9-5-14.6-8.3-23-9.9c-4-0.8-7.9-1.5-12-1.3
		c-2,0.1-4,0.1-6,0.3c-2,0.2-3.9,0.7-5.8,1c-5.3,1.1-10.4,2.7-15.3,5.2c-0.9,0.5-1.8,1-2.6,1.5c-0.3,0.2-0.6,0.3-0.8,0.5
		c-0.6,0.4-1.2,0.7-1.8,1.1c-0.3,0.2-0.6,0.4-0.9,0.6c-0.6,0.4-1.1,0.8-1.7,1.1c-0.3,0.2-0.6,0.4-0.8,0.6c-0.8,0.5-1.5,1.1-2.3,1.6
		c-1.1,0.8-2,1.7-2.8,2.7c-1.9,2.3-3.7,4.8-5.5,7.2c-1.9,2.5-3.9,5.1-5.4,7.9c-0.8,1.5-1.2,3.1-1.8,4.6c-2.6,6.6-3.6,13.6-3.9,20.7
		c-0.1,1.7,0,3.5,0.2,5.2c0.2,2.1,0.3,4.3,0.6,6.4c1.4,8.7,4.5,16.7,8.9,24.3C148.9,213.9,151,217.2,153,220.4z M96.9,349.2
		c0.1,0,0,0,0.2,0.1c0.1,0,0.2,0,0.3,0l0,0c0.4-0.3,0.8-0.5,1.2-0.8c3-2.1,6.3-3.7,9.9-4.8c3.8-1.2,7.8-1.6,11.7-2.2
		c0.9-0.1,1.8-0.2,2.6-0.3c1.4-0.2,2.2-0.3,3.7-0.1c0.3,0,0.6,0.1,1,0.1c1.7-0.5,1.8-0.4,3.5-1.4c3.7-2.1,7.3-4.3,10.9-6.7
		c5.2-3.4,10-7.3,14.6-11.3c1.9-1.6,3.8-3.2,5.5-5c2.5-2.6,4.9-5.4,7.2-8.1c2.2-2.6,4.5-5.1,6.5-7.9c2.4-3.3,4.5-6.9,6.7-10.4
		c1.3-2.1,2.5-4.4,4-6.3c2.5-3.4,6.1-4.4,10.2-3.8c3.2,0.5,5.6,2.3,7.3,5c1.3,2.1,2.6,4.3,4,6.4c2.5,3.8,4.7,7.8,7.6,11.4
		c4.1,5.2,8.3,10.3,13.2,14.8c2.7,2.5,5.3,4.9,8.1,7.3c2.3,1.9,4.7,3.7,7.2,5.5c5,3.7,10.4,6.8,15.8,9.9c0.6,0.3,1.1,0.5,1.2,0.6
		c0.5-0.1,1.3-0.1,1.5-0.1c3.5,0.4,7,0.7,10.4,1.1c1.6,0.2,3.3,0.3,4.9,0.7c4,1,7.6,2.8,11.2,4.7c1.1,0.6,2.3,1.2,3.5,1.9
		c0,0,0,0,0,0c0,0,0,0,0,0c0-0.2,0-0.3,0-0.5c-1.2-7.2-2.4-14.4-3.7-21.6c-0.4-2.5-0.8-5-1.3-7.5c-0.9-4.2-1.9-8.3-2.8-12.4
		c-1.5-6.8-3.7-13.2-7.2-19.2c-4.3-7.5-10.1-13.8-16.3-19.7c-0.2-0.2-0.3-0.3-0.5-0.4c-2.7-1.9-5.4-3.7-8.1-5.6
		c-3.4-2.4-7.1-4.3-11-6c-3.6-1.6-7.3-2.9-10.9-4.5c-2.8-1.3-5.5-2.8-8.1-4.4c-3.9-2.3-7-5.6-10.2-8.6c-0.4-0.4-0.7-0.8-1-1.2
		c-0.7-1-1.4-2.1-2.1-3.2c-2-2.9-3.5-5.9-4-9.5c-0.4-2.6-0.3-5.1-0.2-7.7c0.1-2.1,0.5-4.2,1.2-6.3c1.2-3.4,2.9-6.4,4.9-9.4
		c1.6-2.5,3.2-5,4.8-7.5c1.3-2,2.2-4.3,2.7-6.6c0.3-1.4,0.7-2.9,1-4.3c0.5-2.3,1.3-4.5,1.1-6.9c-0.1-0.7-0.1-1.5-0.2-2.2
		c-0.2-1.8-0.2-3.7-0.6-5.5c-0.9-4.5-2.9-8.4-6.3-11.6c-2.2-2-4.6-3.6-7.4-4.7c-2.3-0.8-4.5-1.7-6.8-2.3c-2.6-0.6-5.3-0.5-8-0.2
		c-3.7,0.4-7.1,1.5-10.4,3.2c-7.8,4.2-11.7,10.8-12.5,19.5c-0.2,2.8-0.1,5.6,0.2,8.4c0.2,1.3,0.3,2.7,0.7,4c1,3.9,2.9,7.5,5,11
		c2.3,3.9,4.7,7.7,6.9,11.7c2.9,5.2,3.6,10.9,2.7,16.7c-1.1,7.3-4.8,13.2-10.2,18.1c-3.6,3.3-7.8,5.7-12.2,7.8
		c-6.9,3.3-13.8,6.6-20.7,9.9c-5.1,2.4-9.6,5.8-14,9.3c-2.8,2.2-5,5-7.4,7.6c-3.1,3.4-5.4,7.3-7.9,11.2c-0.7,1.1-1.4,2.3-1.8,3.5
		c-1.3,3.5-2.5,7.1-3.8,10.6c-1.4,3.7-2.6,7.3-3.1,11.2c-0.6,4.6-1.4,9.2-2.2,13.8c-1.3,6.9-2.6,13.7-3.9,20.6
		C96.8,348.3,96.9,348.7,96.9,349.2z M189.8,420.8c-1.2-2.7-2.2-5.1-3.5-7.4c-1.6-2.9-3.3-5.7-5-8.5c-0.7-1.2-1.4-2.3-2.2-3.5
		c-2.5-3.8-5.2-7.5-8.1-11c-0.5-0.6-1-1.2-1.5-1.8c-2.2-2.5-4.5-4.9-6.7-7.4c-1.9-2.2-4-4.1-6.3-6c-3.3-2.7-6.6-5.2-9.9-7.8
		c-1.9-1.5-3.8-3-5.8-4.3c-3.3-2.1-6.7-4.2-10.1-6.1c-1.2-0.7-2.5-1.1-3.8-1.4c-2.4-0.5-4.9-0.1-7.3,0.2c-2.1,0.3-4.2,0.9-6.2,1.6
		c-9.4,3.4-16,9.9-20.5,18.7c-0.9,1.8-1.3,3.9-1.7,5.9c-1,4-1.7,8-0.9,12.1c0.3,1.5,0.3,3,0.8,4.4c1.1,3.3,2.5,6.5,4.5,9.3
		c4,5.7,9.2,9.7,15.9,11.6c4,1.1,8,1.6,12.1,1.6c2.8,0,5.5-0.1,8.3-0.1c7,0,14.1,0,21.1,0c3.7,0,7.4,0,11.1,0c7.7,0,15.4,0,23.1,0
		C187.8,421,188.6,420.9,189.8,420.8z M194.7,397.5c3.1-4.1,6.1-8.3,9.3-12.4c1.6-2.1,3.3-4.2,5-6.3c5.1-5.9,10.8-11.3,16.6-16.6
		c3.7-3.4,7.7-6.2,11.8-9.1c2.2-1.6,4.5-3.1,6.7-4.8c-0.3-0.2-0.3-0.2-0.5-0.4c-4.7-3.5-9.3-7-14-10.5c-4-3-7.9-6.1-11.5-9.6
		c-2.5-2.5-4.8-5.1-7.1-7.7c-2.8-3.1-5.6-6.4-8-9.8c-2.5-3.5-4.9-7-7.4-10.5c-0.2-0.3-0.4-0.5-0.7-0.8c-0.7,0.8-1.4,1.4-2,2.2
		c-1.2,1.7-2.3,3.4-3.5,5.1c-2.8,3.8-5.5,7.7-8.5,11.4c-2.4,3-5.1,5.7-7.7,8.5c-0.5,0.5-0.9,1.1-1.4,1.5c-1.2,1-2.4,2-3.6,3.1
		c-1.9,1.7-3.6,3.5-5.6,5c-4.3,3.3-8.7,6.4-13,9.6c-1.3,0.9-2.4,1.6-3.9,2.7c0.4,0.3,0.7,0.6,1,0.8c3.2,2.2,6.4,4.4,9.6,6.7
		c0.2,0.1,0.3,0.2,0.5,0.4c1,0.7,1.9,1.5,2.9,2.2c4,2.9,7.9,6,11.4,9.5c3.4,3.4,6.8,6.8,9.7,10.7c1.7,2.3,3.5,4.4,5.3,6.6
		c0.5,0.6,1,1.3,1.5,2c2.1,2.8,3.9,5.8,5.8,8.8C193.7,396.3,194.1,397,194.7,397.5z M298.6,382.3c-0.9-4.2-2.8-7.9-5.2-11.4
		c-3.8-5.5-8.7-9.7-14.8-12.4c-4.4-1.9-9-2.7-13.8-3c-2-0.1-3.7,0.4-5.4,1.5c-0.8,0.5-1.6,1-2.5,1.5c-1.9,1.1-3.9,2-5.7,3.3
		c-4.4,3.1-8.7,6.2-13,9.4c-1.8,1.3-3.6,2.5-5.1,4.1c-3.8,4-7.7,7.9-11.5,11.8c-0.7,0.7-1.4,1.5-2.1,2.2c-2,2.2-3.8,4.4-5.5,6.9
		c-1.1,1.7-2.3,3.3-3.4,5c-0.8,1.2-1.6,2.4-2.4,3.6c-1.4,2.2-2.6,4.5-4,6.8c-1,1.7-1.2,3.3-0.4,5.1c0.3,0.6,0.5,1.3,0.8,1.9
		c0.3,0.7,0.5,1.5,0.7,2.3c1.5,0.1,2.9,0.2,4.3,0.2c5.5,0,10.9,0,16.4,0c3.9,0,7.8,0,11.7,0c9.5,0,19.1,0,28.6,0
		c2.1,0,4.3-0.1,6.4-0.3c2.7-0.2,5.4-0.6,7.8-2.1c0.8-0.5,1.6-0.9,2.4-1.3c2.6-1.4,5.2-2.7,7.4-4.9c2.9-3,5.2-6.3,6.9-10
		c0.9-2,1.5-4,1.5-6.2c0-1.8,0.2-3.6,0.4-5.4C299.3,387.9,299.2,385.1,298.6,382.3z M193.9,175.1c0.6,0.1,1.1,0.3,1.7,0.2
		c4.1-0.6,7.5-2.5,10.3-5.6c0.8-0.9,0.7-1.8,0-2.7c-1.2-1.4-2.6-2.6-4.3-3.5c-2.1-1.2-4.3-1.8-6.2-1.9c-2.2,0-4,0.4-5.6,1.3
		c-1.9,1-3.6,2.4-5.1,3.9c-1.1,1.1-1.1,1.9-0.1,3C187.1,172.7,190.2,174.4,193.9,175.1z"/>
	<path id="me-word" class="st0" d="M1213.1,297.6c0.9,0.9,0.9,1.8,0,2.5c-0.5,0-0.7-0.7-0.7-2.1
		C1212.9,298.4,1213.1,298.3,1213.1,297.6z M1289,307.5c0-0.2-0.2-0.6-0.7-1.1v1.1H1289z M1292,264.3c-0.1-0.4-0.5-0.4-1.2-0.2
		c0,0.2,0.1,0.5,0.4,0.7v0.7h0.4C1291.9,265,1292.1,264.6,1292,264.3z M1278,277.5l-1.8,2.5C1277.4,279.5,1278,278.7,1278,277.5z
		 M1276.3,280c-0.2,0-0.4,0.1-0.4,0.4C1276.1,280.3,1276.3,280.2,1276.3,280z M1214.2,297.3c0.2-0.2,0.6-0.5,1.1-0.7
		c2.1-1.9,2.7-3.2,1.8-3.9C1215.4,294.3,1214.4,295.8,1214.2,297.3z M1219.5,289.5c0.7,0.7,1.4,0.8,2.1,0.4c0.7-0.5,1.1-1.1,1.1-1.8
		C1221.7,287.9,1220.6,288.3,1219.5,289.5z M1261.8,301.5c0.5,0,0.7-0.1,0.7-0.4C1262,301.1,1261.8,301.3,1261.8,301.5z
		 M1298.7,267.1c0.6,0.1,1,0.3,1.2,0.5c0,1.9-0.1,3.5-0.4,4.9c-0.2,1.4-0.8,3-1.6,4.8c-0.8,1.8-1.4,3-1.6,3.7
		c-0.2,0-0.6-0.1-1.1-0.4c-0.5-0.2-0.8-0.2-1.1,0c-0.2,0.5-0.1,0.8,0.5,0.9c0.6,0.1,0.9,0.3,0.9,0.5c-0.5,1.6-1.3,2.5-2.5,2.5
		c0.7,1.6,0.6,3.8-0.2,6.4c-0.8,2.6-2.1,4.7-3.7,6.4c0.7,0.2,0.9,0.7,0.7,1.4c0,0.2-0.4,0.4-1.1,0.4c0.9,0.5,1,1.6,0.2,3.5
		c-0.8,1.9-1.1,3.2-0.9,3.9c-0.2,0-0.4,0.6-0.4,1.8c-1.2,0.2-2.1,0.9-2.8,2.1c0.2,0.2,0.6,0.2,1.2,0c0.6-0.2,1.1-0.1,1.6,0.4
		c-1.2,0.7-2.4,1.1-3.5,1.1c0.7,0.5,1,1.1,0.9,1.8c-0.1,0.7,0.1,1.5,0.5,2.5c-0.5,0-0.9,0.2-1.4,0.7c-0.2,0.5-0.1,0.8,0.4,0.9
		c0.5,0.1,0.6,0.4,0.4,0.9c-0.2,0-0.7,0.4-1.4,1.2c-0.7,0.8-1.4,1.4-2.1,1.6c0,0.5,0.1,0.8,0.2,0.9c0.1,0.1,0.3,0.1,0.5-0.2
		c0.7,0,1.2,0.1,1.4,0.4c-0.2,0.2-0.7,1.1-1.4,2.5s-1.4,2.2-2.1,2.5c0.2,0.5,0.5,0.9,0.7,1.4v0.7c0,0.2-0.5,0.4-1.4,0.4
		c0.7,4-0.6,10.6-3.9,19.8c0,0.5,0.6,0.9,1.8,1.4c-0.7,0.2-1.2,0.9-1.4,1.9c-0.2,1.1-0.5,1.7-0.7,1.9c0.7,1.4,0.9,3.9,0.5,7.4
		c-0.4,3.5-0.3,6,0.2,7.4c1.4-0.5,2.3,0.1,2.6,1.6c0.4,1.5,0.8,3.1,1.4,4.6c0.6,1.5,1.8,2.3,3.7,2.3c-0.2,0.7-0.2,1.2,0.2,1.6
		s0.5,0.6,0.5,0.9c-1.4,1.2-2.9,1.8-4.4,1.9c-1.5,0.1-2.9-0.3-4.2-1.2c-1.3-0.9-2.5-1.9-3.5-3s-2.2-2.4-3.5-3.9
		c-1.3-1.5-2.3-2.6-3-3.4v0.7c-2.8-4.2-4.4-9.3-4.8-15.3c-0.4-6,0.1-11.3,1.2-16c1.2-4.7,2.6-10.3,4.4-16.9
		c1.8-6.6,2.9-11.5,3.4-14.8c-20.2,25.6-34.7,30.1-43.4,13.4c-0.2,0-0.4,0.2-0.5,0.5c-0.1,0.4-0.4,0.4-0.9,0.2
		c-1.2-2.1-1.8-4.4-1.9-6.9c-0.1-2.5,0.1-5.6,0.5-9.3c0.5-3.8,0.7-6.4,0.7-7.8c-1.6,2.1-7.3,10.4-16.9,24.7
		c-9.6,14.3-18.1,24.1-25.4,29.3c-3.5-0.5-6.4-1.5-8.6-3.2c-2.2-1.6-3.8-3.7-4.6-6.2c-0.8-2.5-1.3-5-1.6-7.6c-0.2-2.6,0-5.6,0.7-9.2
		s1.4-6.6,1.9-9.2c0.6-2.6,1.5-5.8,2.6-9.5c1.2-3.8,2-6.5,2.5-8.1c0.7-9.9,4-21.2,9.9-33.9c2.6-3.1,5.8-3.2,9.7-0.5
		c3.9,2.7,5.6,6.1,5.1,10.1c-0.7,6.8-5.9,24-15.5,51.5c2.3-1.9,5.1-5.1,8.1-9.5c3.1-4.5,5.5-7.5,7.4-9.2c1.2-3.1,3.5-6.8,7.1-11.1
		c3.5-4.3,5.9-7.6,7.1-9.7c0.5-0.2,2-1.7,4.6-4.4c2.6-2.7,5.5-3.8,8.8-3.4c-0.2,0.5-0.2,0.8,0,1.1c0.2,0.2,0.4,0.6,0.4,1.1
		c0.2,0,0.7,0,1.4,0s1.1,0.1,1.1,0.2c0,0.1-0.1,0.4-0.4,0.9c2.6-0.7,4.7-0.9,6.4-0.7c0.2,0.5,0.2,0.7,0,0.7l-1.1,0.4
		c0.2,0.5,0.8,0.8,1.8,1.1c0.9,0.2,1.5,0.5,1.8,0.7c0,0.7,0,1.4,0,2.1s0,1.3,0,1.8c0,0.5,0.2,0.9,0.5,1.2c0.4,0.4,0.8,0.7,1.2,0.9
		c-0.7,4.7-0.6,8.3,0.4,10.9c-0.9,0.9-1.5,2.4-1.8,4.2c-0.2,1.9-0.4,4.1-0.4,6.5s-0.1,4.3-0.4,5.5c3.1-1.4,5.7-3.1,7.9-5.1
		c2.2-2,5.1-5.1,8.6-9.3c3.5-4.2,5.5-6.6,6-7.1h-1.4c3.5-2.6,7.6-7.3,12.3-14.1c4.7-6.8,8.3-11.5,10.9-14.1c0-1.2,0.4-2.4,1.1-3.7
		c0.7-1.3,1.2-2.2,1.4-2.6c1.9,0.5,3.2,0.8,3.9,1.1c0,0.2-0.4,1.1-1.1,2.5c0.2,0.7,0.5,0.8,0.9,0.2c0.4-0.6,0.8-0.9,1.2-0.9
		c-0.2,0.5-0.2,0.8,0,1.1c0.2,0.2,0.6,0.1,1.1-0.4c0.7,0.5,1.2,0.7,1.4,0.7c0.2,0,0.8-0.4,1.6-1.1c0.8-0.7,1.3-1.1,1.6-1.1
		c1.6,1.2,2.2,2.1,1.8,2.8C1297.7,266.9,1298.1,267,1298.7,267.1z M1218.1,285.3h0.7v-0.7h-0.7V285.3z M1208.5,308.2
		c0-0.5-0.1-0.8-0.4-1.1c0,0.2-0.1,0.4-0.4,0.4v0.7C1208.1,308.4,1208.3,308.4,1208.5,308.2z M1211,303.2c-0.5,0.2-0.9,0.8-1.4,1.6
		c-0.5,0.8-0.5,1.4,0,1.6C1209.8,306,1210.3,304.9,1211,303.2z M1222.3,286.3c1.4-0.2,2.2-0.4,2.5-0.4c-0.2-0.5-0.4-1.2-0.4-2.1
		c0-0.9,0-1.5,0-1.8c-2.4,1.2-4.9,3.5-7.6,6.9c-2.7,3.4-5,5.6-6.9,6.5c-1.4,4-4.2,9-8.5,15c-4.2,6-7.1,10.3-8.5,12.9
		c0.9-0.5,1.9-1.6,3-3.5c1.1-1.9,2.1-3.1,3-3.5c0,0.2-0.2,0.6-0.7,1.1l0.7,0.7c0-0.2,0.5-1,1.6-2.3c1.1-1.3,1.4-2.5,0.9-3.7
		c1.9-0.5,3.7-2.3,5.5-5.6c1.8-3.3,3.6-5.4,5.5-6.4c-0.5,0.5-0.7,0.9-0.5,1.2c0.1,0.4,0.4,0.5,0.9,0.5c1.2-2.1,3.2-4.8,6-7.9
		s4.7-5.3,5.6-6.5C1223,287.6,1222.3,287.3,1222.3,286.3z M1226.9,302.2c0-0.5-0.4-0.7-1.1-0.7l0.4,0.7c0,0.2,0.1,0.5,0.4,0.7
		C1226.5,302.4,1226.6,302.2,1226.9,302.2z M1263.2,295.8c0.5,0.2,0.9,0,1.4-0.7C1264.1,295.1,1263.7,295.4,1263.2,295.8z
		 M1248.7,314.5c-2.4,0.7-3.9,2.1-4.6,4.2c0.5,0.5,0.7,0.8,0.7,1.1c0.5,0,1-0.2,1.6-0.7c0.6-0.5,1-0.7,1.2-0.7
		c-0.7-0.7-0.7-1.4,0-2.1S1248.7,315,1248.7,314.5z M1269.2,327.2h0.7v-0.7h-0.7V327.2z M1267.8,331.8c0,0.9,0.1,1.4,0.4,1.4
		c0-0.2,0.2-0.4,0.7-0.4C1268.6,332.2,1268.3,331.8,1267.8,331.8z M1266.7,337.8c0-0.2,0.1-0.6,0.4-1.1c0.5-0.9,0.4-1.4-0.4-1.4
		c0,0.5-0.1,0.9-0.4,1.4C1266.1,337.2,1266.3,337.6,1266.7,337.8z M1266,339.2l0.4,0.4c0,0.5,0.1,0.7,0.4,0.7c0-0.2,0.1-0.4,0.4-0.4
		C1267.1,339.2,1266.7,339,1266,339.2z M1265,356.2h-1.1v0.7h1.1V356.2z M1266.7,355.8h-1.1v0.4l-0.4,0.4
		C1266.3,356.5,1266.7,356.3,1266.7,355.8z M1266.7,354.7c0-0.5-0.2-0.8-0.7-0.9c-0.5-0.1-0.9-0.1-1.4,0c-0.5,0.1-0.7,0.3-0.7,0.5
		C1264.4,354.6,1265.3,354.7,1266.7,354.7z M1267.1,349.5h-1.1v0.7h1.1V349.5z M1267.4,345.9h-0.7v1.8h0.7V345.9z M1268.9,342.1
		c-0.5-0.5-0.8-0.8-1.1-1.1c0,0.2,0,0.6,0,1.1c0,0.5-0.1,0.8-0.4,1.1C1268.1,343.3,1268.6,343,1268.9,342.1z M1268.9,354.4
		c0,0.2-0.2,0.4-0.7,0.4v1.1c0.5,0.2,0.8,0.1,1.1-0.5C1269.4,354.7,1269.3,354.4,1268.9,354.4z M1269.6,332.9c0,0.2-0.1,0.8-0.2,1.6
		c-0.1,0.8-0.2,1.5-0.4,1.9c-0.1,0.5-0.1,0.9,0.2,1.4C1270.6,334.8,1270.7,333.1,1269.6,332.9z M1271.3,331.5c0-0.7-0.5-0.9-1.4-0.7
		v0.7H1271.3z M1271.3,329c0-0.2,0.1-0.5,0.4-0.7c0.5-0.9,0.4-1.4-0.4-1.4c0,0.2-0.1,0.5-0.4,0.7
		C1270.5,328.3,1270.6,328.8,1271.3,329z M1270.8,295.3c0.6,0.1,0.9-0.1,0.9-0.5c-0.2,0-0.5-0.1-0.7-0.4c-0.2-0.2-0.5-0.2-0.7,0
		C1270,294.9,1270.2,295.2,1270.8,295.3z M1272,333.2c-0.2,0.2-0.4,0.8-0.4,1.8c0,0.9,0.1,1.5,0.4,1.8
		C1273,334.6,1273,333.5,1272,333.2z M1274.5,335.7c0-0.2-0.2-0.4-0.5-0.4s-0.5,0.1-0.5,0.4c0,0.2,0.1,0.5,0.4,0.7
		C1274,336.2,1274.3,335.9,1274.5,335.7z M1274.5,308.5c0.2,0.5,0.2,1.1-0.2,1.8s-0.3,1.1,0.2,1.1
		C1275.4,309.2,1275.4,308.3,1274.5,308.5z M1277.7,302.2c-0.7,0-1.2,0.2-1.4,0.5c-0.2,0.4-0.4,0.9-0.4,1.6s-0.1,1.2-0.4,1.4
		C1275.8,305.7,1276.5,304.5,1277.7,302.2z M1278.2,300.6c0.1-0.6-0.1-0.9-0.5-0.9c0,0.5-0.1,0.6-0.4,0.4v1.1
		C1277.8,301.4,1278.1,301.2,1278.2,300.6z M1276.3,321.2c0,1.2,0.4,1.6,1.1,1.4C1277.3,322.2,1277,321.7,1276.3,321.2z M1278,337.8
		c0-0.5-0.1-0.8-0.4-1.1c0.2,0.7,0.1,1.2-0.5,1.6c-0.6,0.4-0.9,0.8-0.9,1.2c0.5,0.2,0.9,0.1,1.2-0.4
		C1277.8,338.8,1278,338.3,1278,337.8z M1278.7,329.7c-0.2,0-0.4-0.1-0.4-0.4h-0.7c0,1.2,0.1,1.8,0.4,1.8c0-0.2,0.1-0.5,0.4-0.7
		C1278.6,330.2,1278.7,329.9,1278.7,329.7z M1278,320.5c0,0.7,0.2,1.3,0.7,1.8C1279.4,321.8,1279.2,321.2,1278,320.5z M1279.4,315.6
		c-0.5,0-0.9,0.2-1.4,0.7C1278.5,316.3,1279,316.1,1279.4,315.6z M1279.8,314.2c0-0.5-0.4-0.9-1.1-1.4
		C1278.7,314,1279.1,314.4,1279.8,314.2z M1280.5,319.8l-0.4-0.4c-0.2-0.2-0.5-0.4-0.7-0.4v1.4h0.7l0.4-0.4V319.8z M1280.8,274.3
		c-2.4,0.5-4.6,3.2-6.7,8.1c0.2-0.2,0.5-0.6,0.7-1.1c0.2-0.5,0.6-0.8,1.1-1.1c0,1.6-0.9,2.9-2.8,3.9l0.4-0.4c0-0.2,0-0.5,0-0.7
		c-1.2,0-1.8,0.5-1.8,1.4l0.4,0.4l0.4,0.4c-1.2,1.9-2,2.8-2.5,2.8v-0.4c0.2-0.2,0.4-0.5,0.4-0.7c-1.9,0.9-2.8,2.1-2.8,3.5
		c0.5,0,0.8-0.4,1.1-1.2c0.2-0.8,0.7-1.1,1.4-0.9c-4.1,6.8-7.3,10.8-9.9,12.2c0.5-0.2,0.7,0.1,0.7,0.9c-2.1,1.9-5.4,5.5-9.9,10.9
		c1.2-0.2,2.2-0.9,3.2-2.1c0.9-1.2,1.9-1.9,2.8-2.1c-0.2,0.2-0.5,0.6-0.9,1.1c-0.4,0.5-0.5,0.8-0.5,1.1c0.7,0,1.2-0.4,1.6-1.1
		s0.8-1.2,1.2-1.4c0.2,0.2,0.9,0.4,2.1,0.4c0-0.2-0.2-0.5-0.5-0.7c-0.4-0.2-0.5-0.6-0.5-1.1c0.5,0,0.9-0.5,1.4-1.4
		c0.5-0.9,1.1-1.2,1.8-0.7c0,0.2-0.2,0.5-0.5,0.7c-0.4,0.2-0.5,0.5-0.5,0.7c0.2,0,0.6-0.1,1.2-0.2c0.6-0.1,1-0.3,1.2-0.5
		c-0.5-0.5-0.6-0.8-0.4-1.1c0.2-0.2,0.7-0.2,1.4,0v-1.8c-0.2-0.2-0.6-0.1-1.1,0.4c-0.5,0.5-0.8,0.4-1.1-0.4c0.5-0.2,1.1-0.8,1.8-1.6
		c0.7-0.8,1.5-1.1,2.5-0.9c0-0.7,1.1-1.6,3.2-2.8c0.2-0.5,0.1-0.9-0.4-1.4l-1.1-0.7c1.4-1.4,2.2-2.1,2.5-2.1c0.2,0,0.4,0.4,0.4,1.1
		c0.7-0.2,1.5-0.9,2.3-2.1c0.8-1.2,1.6-1.9,2.3-2.1c-0.2-0.5-0.1-1.2,0.5-2.3c0.6-1.1,0.3-1.7-0.9-1.9c2.3,0,3.1-1.6,2.1-4.9
		C1278.7,280.1,1279.7,278.1,1280.8,274.3z M1282.3,270.4h-1.4c0.2,0.5,0.2,1.1-0.2,1.8s-0.3,1.1,0.2,1.1c0-0.2,0.2-0.6,0.7-1.2
		C1282,271.4,1282.3,270.9,1282.3,270.4z M1291.4,293.4c0-0.7-0.1-1.1-0.4-1.1c0,0.2-0.2,0.4-0.5,0.5c-0.4,0.1-0.4,0.3-0.2,0.5
		H1291.4z M1273.1,290.2v-1.4C1272.4,289.5,1272.4,290,1273.1,290.2z M1409.1,292.5c15.6-7.2,28.4-12.2,38.3-15
		c0,0.5,0.1,0.7,0.4,0.7c-13.9,5.9-24,10.5-30.3,13.8c0.5,0.9,0.9,1.3,1.4,1.1c0.5-0.2,1.1-0.6,1.9-1.2c0.8-0.6,1.5-0.9,1.9-0.9
		c-1.4,1.4-3.2,2.9-5.5,4.4c-2.2,1.5-4.1,2.6-5.5,3.4s-3.8,1.8-7.1,3.2c-3.3,1.4-5.3,2.2-6,2.5c-0.2,0.7-0.1,1.4,0.4,1.9
		c0.5,0.6,0.7,1.1,0.7,1.6c-0.7,0.2-1.2,0-1.4-0.7c-0.2-0.7-0.6-1.1-1.1-1.1c-0.7,1.2-2.1,2.1-4.1,2.6c-2,0.6-3.4,1.4-4.1,2.3
		c-0.2,0.2,0,0.5,0.7,0.7c0.2,0.2,0.5,0.4,0.7,0.4c-0.5,0.5-1.4,1-2.6,1.6c-1.3,0.6-2.1,1-2.3,1.2c0,0.9,0.5,1.3,1.4,1.1
		c-2.6,2.1-4.8,2.6-6.7,1.4c-1.4,1.9-2.4,3.2-2.8,3.9c-2.1,0.7-6.3,2.2-12.5,4.6c-6.2,2.4-11.6,4.1-16.2,5.3
		c-4.6,1.2-9.6,1.9-15,2.1c-9.2,0-16-2.9-20.6-8.8c-4.6-5.9-6.7-12.6-6.4-20.3c0.4-7.6,2.5-14.6,6.5-21c5.4-5.9,9.7-10.3,12.9-13.2
		c3.2-2.9,7.8-6,13.9-9.2c6.1-3.2,12.6-4.8,19.4-4.8c4.2,2.6,6.7,6.6,7.4,12.2c0.7,5.5-0.2,10.5-2.8,15c-2.1,1.6-5,4.2-8.6,7.6
		c-3.6,3.4-7.1,6.3-10.2,8.6c-3.2,2.4-6.6,4.1-10.4,5.3c-8.2,0.7-13.2-2-14.8-8.1c-3.8,2.6-6,7.5-6.7,14.8c1.9,2.1,4.4,3.9,7.4,5.3
		c14.8,0,29.3-2.2,43.6-6.7C1378.5,305.5,1393.4,299.7,1409.1,292.5z M1324.6,289.1c19.3-5.9,31.4-15.2,36.3-27.9
		c-0.5,0-0.8-0.2-1.1-0.5c-0.2-0.4-0.5-0.5-0.7-0.5c0,0.2,0,0.6,0,1.1l-0.4,0.4c-10.8,2.6-20.6,10.1-29.3,22.6
		c0.9,0,1.4,0.1,1.4,0.4c-0.5,0.7-1.6,1.4-3.4,2.1S1324.8,288.2,1324.6,289.1z M1338,321.6c-0.5-0.5-1.5-0.9-3.2-1.2
		c-1.6-0.4-2.5-0.2-2.5,0.5C1335.4,322.1,1337.3,322.3,1338,321.6z M1376.8,320.2c-0.9-0.5-1.3-0.4-1.1,0.4
		C1376.4,321,1376.8,320.9,1376.8,320.2z M1382.4,316.7h-1.1v0.7h1.1V316.7z M1385.2,315.6c-0.5-0.5-0.9-0.6-1.4-0.4
		c-0.5,0.2-0.7,0.7-0.7,1.4C1384.3,316.2,1385,315.8,1385.2,315.6z M1388.4,311c-2.4,1.2-3.5,2-3.5,2.5
		C1387.2,312.3,1388.4,311.5,1388.4,311z M1416.6,293c-2.4,0.7-12.4,4.5-30.2,11.3c-17.8,6.8-31.8,10.8-42.2,12
		c4.5,1.4,12.3,0,23.6-4.2C1384.2,308.5,1400.4,302.2,1416.6,293z M1396.2,308.9h1.1v-1.1h-1.1V308.9z M1449.1,276.4
		c-0.7,0-1.3,0.4-1.8,1.1c0.2,0,0.5,0,0.7,0C1449,277.5,1449.3,277.1,1449.1,276.4z M1391.2,311v0.7h1.4
		C1392.7,310.8,1392.2,310.5,1391.2,311z M1430,287.7c0.9,0.9,1.5,0.9,1.8,0l-0.7-0.7C1430.4,286.8,1430,287,1430,287.7z
		 M1400.1,305.4c0,0.9,0.2,1.5,0.7,1.8C1401.2,306.2,1401,305.6,1400.1,305.4z M1425.8,289.5c2.1,0.5,3.5-0.1,4.2-1.8
		C1427.7,288.2,1426.3,288.8,1425.8,289.5z M1424.4,290.2h1.1v-1.1h-1.1V290.2z M1424.1,290.9v0.4l-0.4,0.4c0.9,0,1.3-0.2,1.1-0.7
		H1424.1z"/>
	<path id="focus-word" class="st0" d="M382.6,244.9c0.1,0.5,0.1,1.1,0.1,1.7c0,0.7,0,1.2-0.1,1.6c-0.1,0.4-0.2,0.7-0.3,1
		c-0.1,0.2-0.3,0.4-0.5,0.5c-0.2,0.1-0.4,0.1-0.6,0.1c-0.4,0-0.9-0.1-1.4-0.4c-0.6-0.2-1.2-0.5-2.1-0.8s-1.8-0.6-2.9-0.8
		c-1.1-0.2-2.5-0.4-4-0.4c-2.1,0-3.9,0.3-5.4,1c-1.5,0.7-2.6,1.7-3.5,3.1c-0.9,1.4-1.5,3.3-1.9,5.5c-0.4,2.3-0.6,5-0.6,8.2v7.8h16.7
		c0.4,0,0.7,0.1,0.9,0.2c0.3,0.1,0.5,0.4,0.7,0.7c0.2,0.3,0.4,0.7,0.5,1.2c0.1,0.5,0.2,1,0.2,1.6c0,1.2-0.2,2.1-0.6,2.7
		c-0.4,0.6-0.9,0.9-1.6,0.9h-16.7v59.9c0,0.3-0.1,0.6-0.2,0.8c-0.2,0.2-0.4,0.4-0.7,0.6c-0.3,0.1-0.8,0.3-1.4,0.4
		c-0.6,0.1-1.3,0.1-2.2,0.1c-0.9,0-1.6,0-2.2-0.1c-0.6-0.1-1-0.2-1.4-0.4c-0.4-0.1-0.6-0.3-0.7-0.6c-0.1-0.2-0.2-0.5-0.2-0.8v-59.9
		h-10.3c-0.7,0-1.2-0.3-1.6-0.9c-0.4-0.6-0.6-1.5-0.6-2.7c0-0.6,0-1.2,0.2-1.6c0.1-0.5,0.2-0.8,0.4-1.2c0.2-0.3,0.4-0.5,0.7-0.7
		c0.3-0.1,0.6-0.2,0.9-0.2h10.3v-7.5c0-4.6,0.4-8.5,1.3-11.8c0.9-3.2,2.2-5.9,3.9-7.9c1.7-2,3.9-3.5,6.5-4.4
		c2.6-0.9,5.7-1.4,9.1-1.4c1.7,0,3.4,0.2,5,0.5c1.6,0.3,2.8,0.7,3.7,1c0.8,0.4,1.4,0.7,1.7,0.9c0.3,0.3,0.5,0.6,0.7,1
		C382.4,243.9,382.6,244.3,382.6,244.9z M466.7,292.3c1.4,4.3,2,9.2,2,14.5c0,5.2-0.7,10-2.1,14.5c-1.4,4.4-3.5,8.2-6.3,11.5
		c-2.8,3.2-6.3,5.8-10.4,7.6c-4.2,1.8-9,2.7-14.6,2.7c-5.3,0-10-0.8-14-2.4c-4-1.6-7.3-3.9-10-7c-2.7-3-4.7-6.7-6-11
		c-1.3-4.3-2-9.2-2-14.6c0-5.2,0.7-10,2.1-14.5c1.4-4.4,3.5-8.2,6.3-11.4c2.8-3.2,6.3-5.7,10.4-7.5c4.2-1.8,9.1-2.7,14.6-2.7
		c5.3,0,10,0.8,14,2.4c4,1.6,7.3,3.9,10,6.9C463.3,284.3,465.4,287.9,466.7,292.3z M459.2,307.6c0-3.7-0.4-7.3-1.1-10.7
		c-0.8-3.4-2-6.4-3.8-9c-1.8-2.6-4.1-4.6-7.1-6.2c-3-1.5-6.7-2.3-11.1-2.3c-4.1,0-7.6,0.7-10.6,2.1c-3,1.4-5.4,3.4-7.3,5.8
		c-1.9,2.5-3.3,5.4-4.2,8.8c-0.9,3.4-1.4,7-1.4,11c0,3.8,0.4,7.4,1.1,10.8c0.8,3.4,2,6.4,3.8,9c1.8,2.6,4.1,4.6,7.1,6.1
		c3,1.5,6.7,2.3,11.1,2.3c4.1,0,7.6-0.7,10.6-2.1c3-1.4,5.4-3.3,7.3-5.8c1.9-2.5,3.3-5.4,4.2-8.8
		C458.8,315.2,459.2,311.6,459.2,307.6z M554.7,327.5c-0.2-0.4-0.3-0.6-0.6-0.8c-0.2-0.2-0.5-0.3-0.8-0.3c-0.6,0-1.4,0.5-2.5,1.4
		c-1.1,0.9-2.6,1.9-4.3,3.1c-1.7,1.1-3.7,2.1-6,3.1c-2.3,0.9-5,1.4-8,1.4c-3.2,0-6.1-0.6-8.7-1.7c-2.6-1.1-4.7-2.9-6.5-5.2
		c-1.8-2.3-3.2-5.2-4.1-8.6c-1-3.5-1.4-7.5-1.4-12.1c0-9.2,1.8-16.2,5.3-21c3.5-4.8,8.6-7.3,15.1-7.3c3.2,0,5.9,0.4,8.2,1.3
		c2.3,0.9,4.2,1.8,5.8,2.9c1.6,1,2.9,2,4,2.9c1,0.9,1.9,1.3,2.6,1.3c0.5,0,1-0.3,1.4-0.8c0.4-0.6,0.6-1.5,0.6-2.9
		c0-0.6,0-1.2-0.1-1.6c-0.1-0.5-0.1-0.9-0.3-1.3c-0.1-0.4-0.3-0.7-0.5-1.1c-0.2-0.3-0.7-0.8-1.3-1.4c-0.6-0.6-1.6-1.3-3-2.2
		c-1.4-0.9-2.9-1.6-4.6-2.3c-1.7-0.7-3.6-1.2-5.7-1.6c-2.1-0.4-4.2-0.6-6.5-0.6c-4.2,0-8.2,0.7-11.9,2.1c-3.7,1.4-6.9,3.5-9.7,6.4
		c-2.8,2.9-4.9,6.6-6.5,11.2c-1.6,4.6-2.4,10-2.4,16.4c0,5.7,0.6,10.7,1.9,15c1.3,4.3,3.2,8,5.6,11c2.5,3,5.5,5.2,9.2,6.8
		c3.6,1.5,7.8,2.3,12.6,2.3c2.4,0,4.7-0.2,6.9-0.7c2.2-0.5,4.3-1.1,6.2-1.8c1.9-0.7,3.6-1.6,5.2-2.5c1.5-1,2.6-1.8,3.3-2.4
		c0.7-0.6,1.1-1.1,1.2-1.3c0.2-0.3,0.3-0.6,0.4-0.9c0.1-0.3,0.2-0.7,0.2-1.2c0-0.5,0.1-1,0.1-1.6c0-0.7,0-1.3-0.1-1.8
		C554.9,328.3,554.8,327.9,554.7,327.5z M645.8,273.2c-0.3-0.2-0.8-0.3-1.4-0.4c-0.6-0.1-1.3-0.1-2.2-0.1c-0.9,0-1.6,0-2.2,0.1
		c-0.6,0.1-1,0.2-1.4,0.4c-0.4,0.2-0.6,0.4-0.7,0.6c-0.1,0.2-0.2,0.5-0.2,0.8v47.1c-3.9,4.6-7.5,8.1-11,10.5
		c-3.4,2.4-6.9,3.6-10.4,3.6c-2.7,0-5.1-0.5-7.1-1.5c-2-1-3.7-2.4-5-4.2c-1.3-1.8-2.3-4-2.9-6.6c-0.7-2.6-1-5.9-1-10v-38.9
		c0-0.3-0.1-0.6-0.2-0.8c-0.2-0.2-0.4-0.4-0.7-0.6c-0.3-0.2-0.8-0.3-1.4-0.4c-0.6-0.1-1.3-0.1-2.2-0.1c-0.9,0-1.6,0-2.2,0.1
		c-0.6,0.1-1,0.2-1.4,0.4c-0.4,0.2-0.6,0.4-0.7,0.6c-0.1,0.2-0.2,0.5-0.2,0.8v39.7c0,4.6,0.4,8.6,1.2,11.9s2.2,6.2,4.1,8.7
		c1.9,2.5,4.4,4.5,7.4,5.9c3.1,1.5,6.8,2.2,11.3,2.2c3.7,0,7.5-0.9,11.2-2.8c3.7-1.9,7.6-4.9,11.5-9.2v9.3c0,0.3,0.1,0.6,0.2,0.8
		c0.1,0.2,0.3,0.4,0.6,0.6c0.3,0.1,0.7,0.3,1.3,0.4c0.6,0.1,1.3,0.1,2.2,0.1c0.8,0,1.5,0,2-0.1c0.6-0.1,1-0.2,1.4-0.4
		c0.4-0.1,0.6-0.3,0.7-0.6c0.1-0.2,0.2-0.5,0.2-0.8v-65.7c0-0.3-0.1-0.6-0.2-0.8C646.4,273.6,646.2,273.4,645.8,273.2z M729.1,315.8
		c-1-2-2.3-3.6-4-5c-1.7-1.4-3.5-2.6-5.7-3.6c-2.1-1-4.3-1.9-6.5-2.7c-2.2-0.8-4.3-1.6-6.5-2.5c-2.1-0.8-4-1.8-5.7-2.8
		c-1.7-1.1-3-2.3-4-3.8c-1-1.5-1.5-3.2-1.5-5.4c0-1.5,0.3-3,0.9-4.3c0.6-1.3,1.4-2.4,2.6-3.4c1.2-1,2.6-1.7,4.4-2.3
		c1.8-0.5,3.9-0.8,6.2-0.8c2.4,0,4.5,0.3,6.3,0.8c1.8,0.5,3.4,1.1,4.7,1.7c1.3,0.6,2.4,1.2,3.2,1.7c0.8,0.5,1.4,0.8,1.8,0.8
		c0.3,0,0.6-0.1,0.8-0.3c0.2-0.2,0.4-0.4,0.6-0.8c0.2-0.3,0.3-0.7,0.3-1.2c0.1-0.5,0.1-1,0.1-1.6c0-0.6,0-1.1-0.1-1.5
		c-0.1-0.4-0.1-0.8-0.2-1.1c-0.1-0.3-0.2-0.6-0.4-0.8c-0.2-0.3-0.5-0.6-1.1-1c-0.5-0.4-1.3-0.8-2.3-1.3c-1-0.5-2.2-1-3.6-1.4
		c-1.4-0.4-2.9-0.8-4.6-1.1c-1.7-0.3-3.4-0.4-5.1-0.4c-4,0-7.5,0.5-10.4,1.6c-2.9,1.1-5.4,2.5-7.2,4.2c-1.9,1.7-3.3,3.7-4.2,5.9
		c-0.9,2.2-1.4,4.4-1.4,6.7c0,2.9,0.5,5.3,1.5,7.3c1,2,2.3,3.8,4,5.2c1.6,1.5,3.5,2.7,5.6,3.7c2.1,1,4.2,1.9,6.4,2.8
		c2.2,0.8,4.3,1.7,6.4,2.5s3.9,1.7,5.6,2.8c1.6,1,3,2.3,4,3.7c1,1.4,1.5,3.1,1.5,5.2c0,2-0.4,3.8-1.2,5.3c-0.8,1.5-1.9,2.8-3.3,3.7
		c-1.4,1-3.1,1.7-5,2.2s-4,0.7-6.3,0.7c-2.9,0-5.4-0.3-7.6-1c-2.2-0.7-4.1-1.4-5.7-2.2c-1.6-0.8-2.9-1.5-4-2.2c-1.1-0.7-1.9-1-2.4-1
		c-0.3,0-0.6,0.1-0.8,0.3c-0.3,0.2-0.5,0.4-0.6,0.8c-0.2,0.3-0.3,0.8-0.4,1.2c-0.1,0.5-0.2,1-0.2,1.7c0,1.2,0.1,2.2,0.4,2.9
		c0.3,0.7,0.7,1.3,1.2,1.8c0.6,0.5,1.4,1,2.6,1.7c1.2,0.6,2.6,1.2,4.3,1.8c1.7,0.6,3.6,1,5.7,1.4c2.1,0.4,4.4,0.5,6.7,0.5
		c3.8,0,7.2-0.5,10.3-1.4c3.1-0.9,5.8-2.3,8-4c2.2-1.7,4-3.9,5.2-6.4c1.2-2.5,1.8-5.3,1.8-8.5C730.7,320.1,730.2,317.7,729.1,315.8z
		"/>
	<path id="four-word" class="st0" d="M825.4,244.9c0.1,0.5,0.1,1.1,0.1,1.7c0,0.7,0,1.2-0.1,1.6c-0.1,0.4-0.2,0.7-0.3,1
		c-0.1,0.2-0.3,0.4-0.5,0.5c-0.2,0.1-0.4,0.1-0.6,0.1c-0.4,0-0.9-0.1-1.4-0.4c-0.6-0.2-1.2-0.5-2.1-0.8c-0.8-0.3-1.8-0.6-2.9-0.8
		c-1.1-0.2-2.5-0.4-4-0.4c-2.1,0-3.9,0.3-5.4,1c-1.5,0.7-2.6,1.7-3.5,3.1c-0.9,1.4-1.5,3.3-1.9,5.5c-0.4,2.3-0.6,5-0.6,8.2v7.8h16.7
		c0.4,0,0.7,0.1,0.9,0.2c0.3,0.1,0.5,0.4,0.7,0.7c0.2,0.3,0.4,0.7,0.5,1.2c0.1,0.5,0.2,1,0.2,1.6c0,1.2-0.2,2.1-0.6,2.7
		c-0.4,0.6-0.9,0.9-1.6,0.9h-16.7v59.9c0,0.3-0.1,0.6-0.2,0.8c-0.2,0.2-0.4,0.4-0.7,0.6c-0.3,0.1-0.8,0.3-1.4,0.4
		c-0.6,0.1-1.3,0.1-2.2,0.1c-0.9,0-1.6,0-2.2-0.1c-0.6-0.1-1-0.2-1.4-0.4c-0.4-0.1-0.6-0.3-0.7-0.6c-0.1-0.2-0.2-0.5-0.2-0.8v-59.9
		h-10.3c-0.7,0-1.2-0.3-1.6-0.9c-0.4-0.6-0.6-1.5-0.6-2.7c0-0.6,0.1-1.2,0.2-1.6c0.1-0.5,0.2-0.8,0.4-1.2c0.2-0.3,0.4-0.5,0.7-0.7
		c0.3-0.1,0.6-0.2,0.9-0.2h10.3v-7.5c0-4.6,0.4-8.5,1.3-11.8c0.9-3.2,2.1-5.9,3.9-7.9c1.7-2,3.9-3.5,6.5-4.4
		c2.6-0.9,5.7-1.4,9.1-1.4c1.7,0,3.4,0.2,5,0.5c1.6,0.3,2.8,0.7,3.7,1c0.8,0.4,1.4,0.7,1.7,0.9c0.3,0.3,0.5,0.6,0.7,1
		C825.2,243.9,825.3,244.3,825.4,244.9z M909.4,292.3c1.4,4.3,2,9.2,2,14.5c0,5.2-0.7,10-2.1,14.5c-1.4,4.4-3.5,8.2-6.3,11.5
		c-2.8,3.2-6.3,5.8-10.4,7.6c-4.2,1.8-9,2.7-14.6,2.7c-5.3,0-10-0.8-14-2.4c-4-1.6-7.3-3.9-10-7c-2.7-3-4.7-6.7-6-11
		c-1.3-4.3-2-9.2-2-14.6c0-5.2,0.7-10,2.1-14.5c1.4-4.4,3.5-8.2,6.3-11.4c2.8-3.2,6.3-5.7,10.4-7.5c4.2-1.8,9.1-2.7,14.6-2.7
		c5.3,0,10,0.8,14,2.4c4,1.6,7.3,3.9,10,6.9C906.1,284.3,908.1,287.9,909.4,292.3z M902,307.6c0-3.7-0.4-7.3-1.1-10.7
		c-0.8-3.4-2-6.4-3.8-9c-1.8-2.6-4.1-4.6-7.1-6.2c-3-1.5-6.7-2.3-11.1-2.3c-4.1,0-7.6,0.7-10.6,2.1c-3,1.4-5.4,3.4-7.3,5.8
		c-1.9,2.5-3.3,5.4-4.2,8.8c-0.9,3.4-1.4,7-1.4,11c0,3.8,0.4,7.4,1.1,10.8c0.8,3.4,2,6.4,3.8,9c1.8,2.6,4.1,4.6,7.1,6.1
		c3,1.5,6.7,2.3,11.1,2.3c4.1,0,7.6-0.7,10.6-2.1c3-1.4,5.4-3.3,7.3-5.8c1.9-2.5,3.3-5.4,4.2-8.8C901.5,315.2,902,311.6,902,307.6z
		 M1004.3,273.2c-0.3-0.2-0.8-0.3-1.4-0.4c-0.6-0.1-1.3-0.1-2.2-0.1c-0.9,0-1.6,0-2.2,0.1c-0.6,0.1-1,0.2-1.4,0.4
		c-0.4,0.2-0.6,0.4-0.7,0.6c-0.1,0.2-0.2,0.5-0.2,0.8v47.1c-3.9,4.6-7.5,8.1-11,10.5c-3.4,2.4-6.9,3.6-10.4,3.6
		c-2.7,0-5.1-0.5-7.1-1.5c-2-1-3.7-2.4-5-4.2c-1.3-1.8-2.3-4-2.9-6.6c-0.7-2.6-1-5.9-1-10v-38.9c0-0.3-0.1-0.6-0.2-0.8
		c-0.2-0.2-0.4-0.4-0.7-0.6c-0.3-0.2-0.8-0.3-1.4-0.4c-0.6-0.1-1.3-0.1-2.2-0.1c-0.9,0-1.6,0-2.1,0.1c-0.6,0.1-1,0.2-1.4,0.4
		c-0.4,0.2-0.6,0.4-0.7,0.6c-0.1,0.2-0.2,0.5-0.2,0.8v39.7c0,4.6,0.4,8.6,1.2,11.9s2.2,6.2,4.1,8.7c1.9,2.5,4.4,4.5,7.4,5.9
		c3.1,1.5,6.8,2.2,11.3,2.2c3.7,0,7.5-0.9,11.2-2.8c3.7-1.9,7.6-4.9,11.5-9.2v9.3c0,0.3,0.1,0.6,0.2,0.8c0.1,0.2,0.3,0.4,0.6,0.6
		c0.3,0.1,0.7,0.3,1.3,0.4c0.6,0.1,1.3,0.1,2.2,0.1c0.8,0,1.5,0,2-0.1c0.6-0.1,1-0.2,1.4-0.4c0.4-0.1,0.6-0.3,0.7-0.6
		c0.1-0.2,0.2-0.5,0.2-0.8v-65.7c0-0.3-0.1-0.6-0.2-0.8C1004.9,273.6,1004.6,273.4,1004.3,273.2z M1086.7,275.1
		c-0.1-0.3-0.2-0.5-0.3-0.7c-0.1-0.2-0.3-0.4-0.6-0.6c-0.3-0.2-0.8-0.5-1.6-0.7c-0.8-0.3-1.7-0.5-2.6-0.7c-1-0.2-1.9-0.3-2.8-0.4
		c-0.9-0.1-1.6-0.1-2.3-0.1c-1.5,0-3,0.2-4.4,0.5c-1.4,0.3-2.9,1-4.4,1.9c-1.5,0.9-3.1,2.3-4.8,4c-1.7,1.7-3.5,3.9-5.4,6.7v-10.4
		c0-0.3-0.1-0.6-0.2-0.8c-0.1-0.2-0.3-0.4-0.6-0.6c-0.3-0.2-0.7-0.3-1.3-0.4c-0.6-0.1-1.3-0.1-2.1-0.1c-0.9,0-1.5,0-2.1,0.1
		s-1,0.2-1.3,0.4c-0.4,0.2-0.6,0.4-0.7,0.6c-0.1,0.2-0.2,0.5-0.2,0.8v65.7c0,0.3,0.1,0.6,0.2,0.8c0.1,0.2,0.4,0.4,0.7,0.6
		c0.4,0.1,0.8,0.3,1.4,0.4c0.6,0.1,1.3,0.1,2.1,0.1c0.9,0,1.6,0,2.2-0.1c0.6-0.1,1-0.2,1.4-0.4c0.3-0.1,0.6-0.3,0.7-0.6
		c0.2-0.2,0.2-0.5,0.2-0.8v-44.5c1.9-3,3.7-5.4,5.2-7.5c1.6-2,3.1-3.7,4.5-4.9c1.4-1.2,2.8-2.1,4.1-2.7c1.3-0.6,2.6-0.8,4-0.8
		c1.2,0,2.2,0.1,3.2,0.3c1,0.2,1.8,0.4,2.6,0.7c0.8,0.2,1.5,0.5,2.1,0.7c0.6,0.2,1.1,0.3,1.6,0.3c0.3,0,0.5-0.1,0.7-0.3
		c0.2-0.2,0.3-0.4,0.5-0.7c0.1-0.3,0.2-0.7,0.3-1.2c0.1-0.5,0.1-1.1,0.1-1.9c0-0.7,0-1.3,0-1.8
		C1086.8,275.7,1086.7,275.3,1086.7,275.1z M1115.5,329.7c-0.9-0.9-2.6-1.3-4.9-1.3c-2.5,0-4.2,0.5-5.1,1.4c-1,0.9-1.4,2.8-1.4,5.7
		c0,2.8,0.5,4.7,1.4,5.6c0.9,0.9,2.6,1.3,4.9,1.3c2.5,0,4.2-0.5,5.1-1.4c1-0.9,1.4-2.8,1.4-5.7
		C1116.9,332.5,1116.5,330.6,1115.5,329.7z"/>
</g>
</svg>
