<?xml version="1.0" encoding="utf-8"?>
<!-- Generator: Adobe Illustrator 24.3.0, SVG Export Plug-In . SVG Version: 6.00 Build 0)  -->
<svg version="1.1" id="focus-four-me-logo-4" xmlns="http://www.w3.org/2000/svg" xmlns:xlink="http://www.w3.org/1999/xlink"
	 x="0px" y="0px" viewBox="0 0 864 864" style="enable-background:new 0 0 864 864;" xml:space="preserve">
<style type="text/css">
	.st0{fill:#DD1010;}
</style>
<g id="focus-four-me-logo-4-parts">
	<g id="focus-letters">
		<path id="focus-letter-f" d="M109.7,389.7c0,0.5,0,0.9-0.1,1.2c-0.1,0.3-0.1,0.5-0.2,0.7c-0.1,0.2-0.2,0.3-0.3,0.4
			c-0.1,0.1-0.3,0.1-0.5,0.1c-0.3,0-0.6-0.1-1-0.3c-0.4-0.2-0.9-0.4-1.5-0.6s-1.3-0.4-2.1-0.6s-1.8-0.3-2.9-0.3
			c-1.5,0-2.8,0.2-3.9,0.7c-1.1,0.5-1.9,1.2-2.6,2.3c-0.7,1-1.1,2.4-1.4,4s-0.4,3.6-0.4,5.9v5.6h12.1c0.3,0,0.5,0.1,0.7,0.2
			c0.2,0.1,0.3,0.3,0.5,0.5c0.1,0.2,0.3,0.5,0.3,0.8c0.1,0.3,0.1,0.7,0.1,1.2c0,0.9-0.1,1.5-0.4,2c-0.3,0.4-0.7,0.7-1.1,0.7H92.8
			v43.3c0,0.2-0.1,0.4-0.2,0.6c-0.1,0.2-0.3,0.3-0.5,0.4c-0.2,0.1-0.6,0.2-1,0.3c-0.4,0.1-1,0.1-1.6,0.1c-0.6,0-1.1,0-1.6-0.1
			c-0.4-0.1-0.8-0.2-1-0.3c-0.3-0.1-0.4-0.2-0.5-0.4c-0.1-0.2-0.1-0.4-0.1-0.6v-43.3h-7.4c-0.5,0-0.9-0.2-1.2-0.7s-0.4-1.1-0.4-2
			c0-0.5,0-0.8,0.1-1.2c0.1-0.3,0.2-0.6,0.3-0.8c0.1-0.2,0.3-0.4,0.5-0.5c0.2-0.1,0.4-0.2,0.7-0.2h7.4v-5.4c0-3.3,0.3-6.2,0.9-8.5
			c0.6-2.3,1.6-4.3,2.8-5.7c1.3-1.5,2.8-2.5,4.7-3.2c1.9-0.7,4.1-1,6.6-1c1.2,0,2.4,0.1,3.6,0.3c1.2,0.2,2,0.5,2.6,0.7
			c0.6,0.3,1,0.5,1.2,0.7c0.2,0.2,0.4,0.4,0.5,0.7c0.1,0.3,0.2,0.6,0.3,1C109.6,388.9,109.7,389.3,109.7,389.7z"/>
		<path id="focus-letter-o" d="M171.8,433.2c0,3.8-0.5,7.3-1.5,10.4c-1,3.2-2.5,5.9-4.6,8.3c-2,2.3-4.5,4.2-7.5,5.5
			c-3,1.3-6.5,2-10.5,2c-3.9,0-7.2-0.6-10.1-1.8c-2.9-1.2-5.3-2.9-7.2-5c-1.9-2.2-3.4-4.8-4.4-8c-1-3.1-1.4-6.6-1.4-10.5
			c0-3.8,0.5-7.3,1.5-10.4c1-3.2,2.5-5.9,4.5-8.3c2-2.3,4.5-4.1,7.5-5.4c3-1.3,6.5-1.9,10.6-1.9c3.9,0,7.2,0.6,10.1,1.7
			c2.9,1.2,5.3,2.8,7.2,5c1.9,2.2,3.4,4.8,4.4,8C171.3,425.8,171.8,429.3,171.8,433.2z M164.9,433.8c0-2.7-0.3-5.3-0.8-7.7
			c-0.5-2.4-1.5-4.6-2.7-6.5c-1.3-1.9-3-3.4-5.1-4.5c-2.1-1.1-4.8-1.7-8-1.7c-2.9,0-5.5,0.5-7.6,1.5c-2.1,1-3.9,2.4-5.3,4.2
			s-2.4,3.9-3,6.4c-0.7,2.4-1,5.1-1,7.9c0,2.7,0.3,5.3,0.8,7.8c0.5,2.5,1.5,4.6,2.7,6.5c1.3,1.9,3,3.3,5.1,4.4
			c2.1,1.1,4.8,1.6,8,1.6c2.9,0,5.5-0.5,7.6-1.5c2.1-1,3.9-2.4,5.3-4.2c1.4-1.8,2.4-3.9,3-6.3C164.6,439.3,164.9,436.7,164.9,433.8z
			"/>
		<path id="focus-letter-c" d="M234.2,450.4c0,0.4,0,0.8-0.1,1.1c0,0.3-0.1,0.6-0.2,0.9c-0.1,0.2-0.2,0.5-0.3,0.7
			c-0.1,0.2-0.4,0.5-0.9,1c-0.5,0.5-1.3,1-2.4,1.7c-1.1,0.7-2.4,1.3-3.7,1.8c-1.4,0.5-2.9,1-4.5,1.3c-1.6,0.3-3.3,0.5-5,0.5
			c-3.4,0-6.4-0.6-9.1-1.7c-2.6-1.1-4.8-2.7-6.6-4.9c-1.8-2.2-3.1-4.8-4.1-7.9c-0.9-3.1-1.4-6.7-1.4-10.8c0-4.6,0.6-8.6,1.7-11.9
			s2.7-6,4.7-8.1c2-2.1,4.3-3.6,7-4.6c2.7-1,5.5-1.5,8.6-1.5c1.6,0,3.2,0.1,4.7,0.4c1.5,0.3,2.9,0.7,4.1,1.2c1.3,0.5,2.4,1,3.4,1.7
			c1,0.6,1.7,1.2,2.2,1.6c0.5,0.4,0.8,0.8,0.9,1c0.2,0.2,0.3,0.5,0.4,0.8c0.1,0.3,0.2,0.6,0.2,0.9c0,0.3,0.1,0.7,0.1,1.2
			c0,1-0.2,1.7-0.5,2.1c-0.3,0.4-0.6,0.6-1,0.6c-0.5,0-1.1-0.3-1.9-0.9c-0.7-0.6-1.7-1.3-2.9-2.1c-1.2-0.8-2.6-1.4-4.2-2.1
			c-1.7-0.6-3.6-0.9-5.9-0.9c-4.7,0-8.4,1.7-10.9,5.2c-2.6,3.5-3.8,8.6-3.8,15.2c0,3.3,0.3,6.2,1,8.7c0.7,2.5,1.7,4.6,3,6.2
			c1.3,1.7,2.9,2.9,4.7,3.7s3.9,1.2,6.3,1.2c2.2,0,4.1-0.3,5.8-1c1.7-0.7,3.1-1.4,4.4-2.2c1.2-0.8,2.3-1.5,3.1-2.2
			c0.8-0.7,1.4-1,1.8-1c0.2,0,0.4,0.1,0.6,0.2c0.2,0.1,0.3,0.3,0.4,0.6s0.2,0.6,0.2,0.9C234.2,449.5,234.2,449.9,234.2,450.4z"/>
		<path id="focus-letter-u" d="M300.4,457.5c0,0.2,0,0.4-0.1,0.6c-0.1,0.2-0.3,0.3-0.5,0.4c-0.3,0.1-0.6,0.2-1,0.3
			c-0.4,0.1-0.9,0.1-1.5,0.1c-0.7,0-1.2,0-1.6-0.1c-0.4-0.1-0.7-0.2-0.9-0.3c-0.2-0.1-0.4-0.2-0.5-0.4c-0.1-0.2-0.1-0.4-0.1-0.6
			v-6.7c-2.8,3-5.6,5.2-8.3,6.6c-2.7,1.4-5.4,2-8.1,2c-3.2,0-6-0.5-8.2-1.6c-2.2-1-4-2.5-5.4-4.3c-1.4-1.8-2.3-3.9-2.9-6.3
			s-0.9-5.2-0.9-8.6V410c0-0.2,0-0.4,0.1-0.6c0.1-0.2,0.3-0.3,0.5-0.4c0.3-0.1,0.6-0.2,1-0.3c0.4-0.1,0.9-0.1,1.6-0.1
			c0.7,0,1.2,0,1.6,0.1c0.4,0.1,0.7,0.1,1,0.3c0.2,0.1,0.4,0.3,0.5,0.4c0.1,0.2,0.2,0.4,0.2,0.6v28.1c0,2.9,0.2,5.3,0.7,7.2
			c0.5,1.9,1.2,3.4,2.1,4.7c0.9,1.3,2.2,2.3,3.6,3c1.5,0.7,3.2,1.1,5.2,1.1c2.5,0,5-0.9,7.5-2.6c2.5-1.7,5.1-4.2,7.9-7.6V410
			c0-0.2,0-0.4,0.1-0.6c0.1-0.2,0.3-0.3,0.5-0.4c0.3-0.1,0.6-0.2,1-0.3c0.4-0.1,1-0.1,1.6-0.1c0.6,0,1.1,0,1.6,0.1
			c0.4,0.1,0.7,0.1,1,0.3c0.2,0.1,0.4,0.3,0.5,0.4c0.1,0.2,0.2,0.4,0.2,0.6V457.5z"/>
		<path id="focus-letter-s" d="M361,444.8c0,2.3-0.4,4.3-1.3,6.1c-0.9,1.8-2.1,3.3-3.7,4.6c-1.6,1.3-3.6,2.2-5.8,2.9
			c-2.3,0.7-4.7,1-7.5,1c-1.7,0-3.3-0.1-4.9-0.4c-1.5-0.3-2.9-0.6-4.1-1c-1.2-0.4-2.3-0.8-3.1-1.3c-0.9-0.5-1.5-0.9-1.9-1.2
			c-0.4-0.3-0.7-0.8-0.9-1.3c-0.2-0.5-0.3-1.2-0.3-2.1c0-0.5,0-0.9,0.1-1.2c0.1-0.3,0.2-0.6,0.3-0.9c0.1-0.2,0.3-0.4,0.4-0.6
			s0.4-0.2,0.6-0.2c0.4,0,1,0.2,1.7,0.7c0.8,0.5,1.7,1,2.9,1.6s2.5,1.1,4.1,1.6s3.4,0.7,5.5,0.7c1.7,0,3.2-0.2,4.6-0.5
			s2.6-0.9,3.6-1.6c1-0.7,1.8-1.6,2.4-2.7c0.6-1.1,0.8-2.4,0.8-3.9c0-1.5-0.4-2.7-1.1-3.7c-0.7-1-1.7-1.9-2.9-2.6s-2.5-1.4-4-2
			s-3.1-1.2-4.6-1.8c-1.6-0.6-3.1-1.3-4.6-2s-2.9-1.6-4-2.7c-1.2-1-2.1-2.3-2.9-3.8c-0.7-1.5-1.1-3.2-1.1-5.3c0-1.6,0.3-3.3,1-4.9
			c0.7-1.6,1.7-3,3-4.3s3.1-2.3,5.2-3c2.1-0.8,4.6-1.2,7.5-1.2c1.2,0,2.5,0.1,3.7,0.3c1.2,0.2,2.3,0.4,3.3,0.8c1,0.3,1.9,0.7,2.6,1
			c0.7,0.4,1.3,0.7,1.7,1c0.4,0.3,0.6,0.5,0.8,0.7c0.1,0.2,0.2,0.4,0.3,0.6s0.1,0.5,0.1,0.8c0,0.3,0.1,0.7,0.1,1.1s0,0.8-0.1,1.1
			c-0.1,0.3-0.1,0.6-0.2,0.9c-0.1,0.2-0.2,0.4-0.4,0.6c-0.2,0.1-0.4,0.2-0.6,0.2c-0.3,0-0.7-0.2-1.3-0.6c-0.6-0.4-1.3-0.8-2.3-1.3
			c-0.9-0.5-2.1-0.9-3.4-1.3c-1.3-0.4-2.8-0.6-4.5-0.6c-1.7,0-3.2,0.2-4.5,0.6c-1.3,0.4-2.4,0.9-3.2,1.6c-0.8,0.7-1.5,1.5-1.9,2.5
			c-0.4,0.9-0.6,2-0.6,3.1c0,1.5,0.4,2.8,1.1,3.9s1.7,2,2.9,2.7c1.2,0.8,2.6,1.5,4.1,2c1.5,0.6,3.1,1.2,4.7,1.8
			c1.6,0.6,3.1,1.3,4.7,2c1.5,0.7,2.9,1.6,4.1,2.6c1.2,1,2.2,2.2,2.9,3.6C360.6,441.1,361,442.8,361,444.8z"/>
	</g>
	<g id="four-letters">
		<path id="four-letter-f" class="st0" d="M429.5,389.7c0,0.5,0,0.9-0.1,1.2s-0.1,0.5-0.2,0.7c-0.1,0.2-0.2,0.3-0.3,0.4
			c-0.1,0.1-0.3,0.1-0.5,0.1c-0.3,0-0.6-0.1-1-0.3c-0.4-0.2-0.9-0.4-1.5-0.6c-0.6-0.2-1.3-0.4-2.1-0.6s-1.8-0.3-2.9-0.3
			c-1.5,0-2.8,0.2-3.9,0.7c-1.1,0.5-1.9,1.2-2.6,2.3c-0.7,1-1.1,2.4-1.4,4s-0.4,3.6-0.4,5.9v5.6h12.1c0.3,0,0.5,0.1,0.7,0.2
			c0.2,0.1,0.3,0.3,0.5,0.5s0.3,0.5,0.3,0.8c0.1,0.3,0.1,0.7,0.1,1.2c0,0.9-0.1,1.5-0.4,2s-0.7,0.7-1.1,0.7h-12.1v43.3
			c0,0.2-0.1,0.4-0.2,0.6c-0.1,0.2-0.3,0.3-0.5,0.4c-0.2,0.1-0.6,0.2-1,0.3c-0.4,0.1-1,0.1-1.6,0.1c-0.6,0-1.1,0-1.6-0.1
			c-0.4-0.1-0.8-0.2-1-0.3c-0.3-0.1-0.4-0.2-0.5-0.4c-0.1-0.2-0.1-0.4-0.1-0.6v-43.3h-7.4c-0.5,0-0.9-0.2-1.2-0.7
			c-0.3-0.4-0.4-1.1-0.4-2c0-0.5,0-0.8,0.1-1.2c0.1-0.3,0.2-0.6,0.3-0.8s0.3-0.4,0.5-0.5c0.2-0.1,0.4-0.2,0.7-0.2h7.4v-5.4
			c0-3.3,0.3-6.2,0.9-8.5c0.6-2.3,1.6-4.3,2.8-5.7c1.3-1.5,2.8-2.5,4.7-3.2c1.9-0.7,4.1-1,6.6-1c1.2,0,2.4,0.1,3.6,0.3
			c1.2,0.2,2,0.5,2.6,0.7c0.6,0.3,1,0.5,1.2,0.7c0.2,0.2,0.4,0.4,0.5,0.7c0.1,0.3,0.2,0.6,0.3,1S429.5,389.3,429.5,389.7z"/>
		<path id="four-letter-o" class="st0" d="M491.6,433.2c0,3.8-0.5,7.3-1.5,10.4c-1,3.2-2.5,5.9-4.6,8.3c-2,2.3-4.5,4.2-7.5,5.5
			c-3,1.3-6.5,2-10.5,2c-3.9,0-7.2-0.6-10.1-1.8c-2.9-1.2-5.3-2.9-7.2-5c-1.9-2.2-3.4-4.8-4.4-8c-1-3.1-1.4-6.6-1.4-10.5
			c0-3.8,0.5-7.3,1.5-10.4c1-3.2,2.5-5.9,4.5-8.3c2-2.3,4.5-4.1,7.5-5.4c3-1.3,6.5-1.9,10.6-1.9c3.9,0,7.2,0.6,10.1,1.7
			c2.9,1.2,5.3,2.8,7.2,5c1.9,2.2,3.4,4.8,4.4,8C491.1,425.8,491.6,429.3,491.6,433.2z M484.7,433.8c0-2.7-0.3-5.3-0.8-7.7
			c-0.5-2.4-1.5-4.6-2.7-6.5c-1.3-1.9-3-3.4-5.1-4.5c-2.1-1.1-4.8-1.7-8-1.7c-2.9,0-5.5,0.5-7.6,1.5c-2.1,1-3.9,2.4-5.3,4.2
			c-1.4,1.8-2.4,3.9-3,6.4c-0.7,2.4-1,5.1-1,7.9c0,2.7,0.3,5.3,0.8,7.8c0.5,2.5,1.5,4.6,2.7,6.5c1.3,1.9,3,3.3,5.1,4.4
			c2.1,1.1,4.8,1.6,8,1.6c2.9,0,5.5-0.5,7.6-1.5c2.1-1,3.9-2.4,5.3-4.2s2.4-3.9,3-6.3C484.4,439.3,484.7,436.7,484.7,433.8z"/>
		<path id="four-letter-u" class="st0" d="M559.3,457.5c0,0.2,0,0.4-0.1,0.6c-0.1,0.2-0.3,0.3-0.5,0.4c-0.3,0.1-0.6,0.2-1,0.3
			c-0.4,0.1-0.9,0.1-1.5,0.1c-0.7,0-1.2,0-1.6-0.1c-0.4-0.1-0.7-0.2-0.9-0.3c-0.2-0.1-0.4-0.2-0.5-0.4c-0.1-0.2-0.1-0.4-0.1-0.6
			v-6.7c-2.8,3-5.6,5.2-8.3,6.6c-2.7,1.4-5.4,2-8.1,2c-3.2,0-6-0.5-8.2-1.6c-2.2-1-4-2.5-5.4-4.3s-2.3-3.9-2.9-6.3s-0.9-5.2-0.9-8.6
			V410c0-0.2,0-0.4,0.1-0.6c0.1-0.2,0.3-0.3,0.5-0.4c0.3-0.1,0.6-0.2,1-0.3c0.4-0.1,0.9-0.1,1.6-0.1c0.7,0,1.2,0,1.6,0.1
			c0.4,0.1,0.7,0.1,1,0.3s0.4,0.3,0.5,0.4c0.1,0.2,0.2,0.4,0.2,0.6v28.1c0,2.9,0.2,5.3,0.7,7.2c0.5,1.9,1.2,3.4,2.1,4.7
			c0.9,1.3,2.2,2.3,3.6,3c1.5,0.7,3.2,1.1,5.2,1.1c2.5,0,5-0.9,7.5-2.6c2.5-1.7,5.1-4.2,7.9-7.6V410c0-0.2,0-0.4,0.1-0.6
			c0.1-0.2,0.3-0.3,0.5-0.4c0.3-0.1,0.6-0.2,1-0.3s1-0.1,1.6-0.1c0.6,0,1.1,0,1.6,0.1c0.4,0.1,0.7,0.1,1,0.3s0.4,0.3,0.5,0.4
			c0.1,0.2,0.2,0.4,0.2,0.6V457.5z"/>
		<path id="four-letter-r" class="st0" d="M618.3,412.4c0,0.5,0,1-0.1,1.3c0,0.4-0.1,0.7-0.2,0.9c-0.1,0.2-0.2,0.4-0.3,0.5
			c-0.1,0.1-0.3,0.2-0.5,0.2c-0.3,0-0.7-0.1-1.1-0.2c-0.4-0.2-0.9-0.3-1.5-0.5c-0.6-0.2-1.2-0.3-1.9-0.5c-0.7-0.2-1.5-0.2-2.3-0.2
			c-1,0-1.9,0.2-2.9,0.6c-0.9,0.4-1.9,1-3,1.9c-1,0.9-2.1,2.1-3.3,3.5c-1.1,1.5-2.4,3.3-3.8,5.4v32.1c0,0.2-0.1,0.4-0.2,0.6
			c-0.1,0.2-0.3,0.3-0.5,0.4c-0.2,0.1-0.6,0.2-1,0.3c-0.4,0.1-1,0.1-1.6,0.1c-0.6,0-1.1,0-1.6-0.1c-0.4-0.1-0.8-0.2-1-0.3
			c-0.3-0.1-0.4-0.2-0.5-0.4c-0.1-0.2-0.1-0.4-0.1-0.6V410c0-0.2,0-0.4,0.1-0.6c0.1-0.2,0.3-0.3,0.5-0.4c0.3-0.1,0.6-0.2,1-0.3
			s0.9-0.1,1.5-0.1c0.6,0,1.1,0,1.5,0.1s0.7,0.1,0.9,0.3c0.2,0.1,0.4,0.3,0.5,0.4c0.1,0.2,0.1,0.4,0.1,0.6v7.5
			c1.4-2,2.7-3.6,3.9-4.8c1.2-1.2,2.3-2.2,3.4-2.9c1.1-0.7,2.2-1.1,3.2-1.4c1-0.2,2.1-0.4,3.2-0.4c0.5,0,1,0,1.6,0.1
			c0.6,0.1,1.3,0.1,2,0.3c0.7,0.1,1.3,0.3,1.9,0.5s1,0.4,1.2,0.5c0.2,0.2,0.4,0.3,0.4,0.4c0.1,0.1,0.1,0.3,0.2,0.5s0.1,0.5,0.1,0.8
			C618.3,411.4,618.3,411.9,618.3,412.4z"/>
		<path id="four-dot" class="st0" d="M640,453.8c0,2.1-0.3,3.4-1,4.1s-1.9,1-3.7,1c-1.7,0-2.9-0.3-3.6-1c-0.7-0.6-1-2-1-4
			c0-2.1,0.3-3.4,1-4.1c0.7-0.7,1.9-1,3.7-1c1.7,0,2.9,0.3,3.6,1C639.7,450.4,640,451.8,640,453.8z"/>
	</g>
	<g id="me-letters">
		<path id="me-letter-m" d="M733.3,467.9c-0.5-0.1-2.8-0.9-5-1.9c-4.7-2.3-6.2-4-7.4-8.6c-0.4-1.7-0.7-3.8-0.7-6.1
			c0-4.1,0.6-8.7,1.8-12.9c0.8-2.8,1.6-5.4,1.8-5.8c0.1-0.3,0.2-0.5,0.2-0.6c0-0.1-0.1-0.1-0.1-0.1c-0.4,0-2.1,1.7-5.8,5.6
			c-7.6,8-12.6,12.8-14.4,13.7c-0.8,0.4-1.6,0.6-2.4,0.6c-1.2,0-2.6-0.5-3.6-1.4c-0.7-0.6-1.5-1.1-1.9-1.1c-1.2,0-3.5-1.5-4.3-2.9
			c-0.4-0.6-0.6-1.7-0.6-3.1c0-2.1,0.5-4.9,1.4-8c0.5-1.7,0.8-3.1,0.8-3.5v-0.1l-0.1-0.1c-1.1,0-8,8.6-15.2,18.9
			c-6.6,9.4-7.7,10.7-9.1,11l-0.4,0.1c-1.2,0-2.7-1.2-2.7-2.2c0-0.2-0.2-0.3-0.7-0.3l-1.1,0.1c-1.4,0-3.4-1-3.8-1.9
			c-0.1-0.2-0.1-0.4-0.1-0.7c0-1.6,1.5-5.1,5.5-13.4l5.8-12.2c2.1-4.9,5-9.9,5.7-9.9h0.1c0.3,0,0.4,0,0.4,0.2c0,0.3-0.4,1.3-1.6,3.7
			c-1,2-2.6,5.8-3.7,8.4c-1.1,2.6-3.6,8.1-5.5,12.1c-1.6,3.5-2.7,6.2-2.7,6.6h0.1c0.7-0.7,5.6-11.1,9.3-19.6
			c3.2-7.4,4.3-9.6,4.8-9.9c0.2-0.1,0.2-0.1,0.4-0.1c0.1,0,0.1,0,0.1,0.1c0,0.3-0.4,1.1-1.2,3.1c-0.7,1.5-2.5,5.8-4,9.5
			c-1.5,3.7-3.3,7.8-4,9.4c-0.7,1.4-1,2.1-1,2.2c0,0.1,0,0.1,0.1,0.1s0.2-0.2,0.6-0.5c1-0.9,3.9-6.2,5.1-9.5c0.3-1,0.9-2.4,1.3-3.2
			c0.4-0.8,1.2-2.9,1.9-4.7c0.7-1.8,1.5-3.4,1.8-3.7c0.4-0.3,0.8-1,1.2-1.8c0.3-0.7,0.5-1,0.8-1c0.2,0,0.3,0.1,0.5,0.2
			c0.5,0.3,0.7,1.1,0.7,2.1c0,0.9-0.2,2.2-0.7,3.6c-0.4,1.3-0.7,2.5-0.7,2.9l0.1,0.1c0.3,0,2.4-1.8,4.8-4.1c5.1-4.9,8-7.1,9.4-7.1
			c0.7,0,1.1,0.5,1.2,1.3c0.2,0.7,0.7,0.9,2.5,0.9c3.4,0.1,4.8,1.5,4.8,5.8c0,1.5-0.2,3.5-0.5,5.8c-0.2,1.5-0.4,2.9-0.4,3.4
			c0,0.2,0,0.3,0.1,0.3c0.2,0,2.7-2.1,5.6-4.8c8.5-7.7,21.6-18.7,22.8-19.2h0.1c0.2,0,0.5,0.3,0.7,0.8c0.1,0.5,0.5,1,0.7,1
			c0.2,0,0.2,0.1,0.2,0.3l-0.2,0.8c0,0.1,0.1,0.2,0.1,0.2c0.2,0,0.5-0.5,0.8-1c0.2-0.5,0.3-0.7,0.4-0.7c0.1,0,0.1,0.3,0.1,1
			c0.1,0.9,0.1,1.1,0.7,1.1l1.2-0.2c0.5-0.1,1.1-0.1,1.6-0.1c0.5,0,1,0,1.2,0.1c1.2,0.3,1.9,2.1,1.9,4.7c0,2.9-0.7,6.9-2.1,11.7
			c-4.5,15.9-6.2,23.4-6.2,27c0,0.7,0.1,1.3,0.2,1.8c0.4,1.2,0.7,1.4,2.4,1.5c1.7,0.1,2.4,0.9,2.4,1.7
			C737.2,466.6,735.8,467.9,733.3,467.9L733.3,467.9z M679.2,441.5c1.7-2.2,4.3-5.4,5.8-7c1.5-1.6,4.2-4.4,6.1-6.1
			c1.9-1.8,3.4-3.5,3.4-3.9c0-0.2-0.1-0.3-0.2-0.3c-0.7,0-2.6,1.7-6.6,5.6c-7.2,7.1-11.7,12.9-11.7,15c0,0.1,0,0.1,0.1,0.1
			C676.4,444.9,677.7,443.5,679.2,441.5z M687.2,428.7l0.1-0.5c0-0.1,0-0.1-0.1-0.1c-0.1,0-0.2,0.1-0.5,0.3
			c-0.5,0.3-0.7,0.6-0.7,0.7c0,0.1,0.2,0.2,0.4,0.2S687,429.1,687.2,428.7z M693.9,441.6c0.4-1.8,1.2-5.4,1.8-8.2
			c0.7-2.5,1.1-4.6,1.1-5.1v-0.1h-0.1c-0.7,0-3.5,11-3.5,14.3v0.2c0,0.9,0,1.3,0.1,1.3C693.4,444.1,693.5,443.3,693.9,441.6z
			 M695.2,443.5c0.3-0.1,0.9-1.6,1.3-3.4c0.4-1.6,0.8-2.6,1-2.6l0.2,0.2l0.1-0.3l-0.2-2.1c0-0.2,0.1-0.2,0.1-0.2s0.1,0.1,0.3,0.4
			c0.1,0.3,0.2,0.5,0.3,0.5l0.1-0.2l-0.1-1l-0.1-1c0-0.7,0.1-1.4,0.2-1.9c0.2-0.6,0.4-0.9,0.4-0.9s0.1,0.2,0.1,0.5l0.1,0.2
			c0.2,0,0.8-2.7,0.8-4.3v-0.3c0-0.6-0.2-0.9-0.5-0.9H699c-0.6,0.1-1.2,2-2.6,8.4c-1.2,5.7-1.8,7.8-1.8,8.6c0,0.2,0.1,0.3,0.2,0.3
			L695.2,443.5z M696.8,442.6c0.1-0.1,0.1-0.2,0.1-0.5l-0.1-0.5l-0.1-0.2c-0.1,0-0.1,0.1-0.2,0.5
			C696.5,442.4,696.5,442.7,696.8,442.6L696.8,442.6z M697.3,440.6l0.1-0.6l-0.1-0.6l-0.1-0.2c-0.1,0-0.1,0.3-0.1,0.7
			c0,0.5,0.1,0.7,0.1,0.7S697.2,440.6,697.3,440.6z M698.7,433.9c0.1-0.1,0.1-0.2,0.1-0.5l-0.1-0.5l-0.1-0.2c-0.1,0-0.1,0.1-0.2,0.5
			C698.4,433.7,698.4,434,698.7,433.9L698.7,433.9z M698.9,428.6c0-0.5,0.1-0.7,0.1-0.7l0.1,0.2l0.1,0.6l-0.1,0.6
			c-0.1,0.1-0.1,0.1-0.1,0.1S698.9,429,698.9,428.6z M705.9,442.1c1.7-1.6,3.3-2.9,3.7-2.9l0.4,0.1c0.2,0,0.4-0.1,0.5-0.3
			c0.1-0.1,0.1-0.2,0.1-0.3v-0.1l-0.3,0.1c-0.2,0.1-0.4,0.2-0.5,0.2c-0.1,0-0.1,0-0.1-0.1c0-0.2,0.5-1,1.4-1.8
			c0.7-0.6,1.2-0.9,1.6-0.9l0.2,0.1l0.1,0.1l-0.1-0.3l-0.2-0.4c0-0.1,0.1-0.1,0.2-0.1l0.8,0.2c0.1,0,0.2-0.1,0.2-0.1l-0.1-0.2
			c0-0.6,2.6-3.5,3.3-3.5l0.1,0.1c0,0.1-0.1,0.3-0.4,0.5c-0.3,0.2-0.5,0.3-0.5,0.3l0.1,0.1l0.4-0.1c0.4-0.1,0.7-0.5,0.7-0.9
			c0-0.3,0.2-0.5,0.4-0.5h0.2c0.3,0,0.6-0.3,0.8-0.6c0.1-0.1,0.1-0.2,0.1-0.3c0-0.1,0-0.1-0.1-0.1l-0.5,0.2l-0.1-0.1l0.1-0.3
			c0.2-0.3,0.5-0.5,0.7-0.5l0.2,0.1c0.9,0,6.3-5,7.3-6.7c0.4-0.6,0.5-1,0.5-1.1l-0.1-0.1l-0.7,0.5c-1.5,1.1-2.7,2.3-2.7,2.8v0.1
			c0,0.1-0.1,0.2-0.2,0.2h-0.1c-0.5,0-3.9,2.6-3.9,3c0,0.1,0.1,0.1,0.2,0.1l1.1-0.2h0.1l-0.4,0.3c-0.2,0.2-0.7,0.3-0.9,0.3l-0.3-0.1
			c-0.8,0-16.9,15.3-16.9,16.1C702.9,444.8,704.3,443.7,705.9,442.1z M707,442.4l0.4-0.6c-0.1,0-0.2,0.1-0.6,0.4
			c-0.5,0.3-0.8,0.7-0.8,0.8s0.1,0.2,0.1,0.2C706.2,443.2,706.5,442.9,707,442.4z M723.8,453.4c0.1-6.7,0.7-10,4.5-21.8
			c0.7-2.2,1.2-4.2,1.2-4.6v-0.1h-0.1c-0.1,0-0.3,0.3-0.5,1c-0.1,0.5-0.4,1-0.6,1l-0.2-0.1c-0.1,0-0.2,0.1-0.2,0.2l0.1,0.5
			c0.1,0.2,0.1,0.4,0.1,0.5c0,0.2,0,0.2-0.1,0.2l-0.2-0.1l-0.2-0.1c-0.1,0-0.1,0.1-0.1,0.2c0,0.1,0,0.4,0.1,0.7l0.1,0.7
			c0,0.2-0.1,0.3-0.2,0.3l-0.1-0.1l-0.2-0.1c-0.1,0-0.2,0.1-0.2,0.3c0,0.3,0,1.2-0.1,1.9c-0.1,0.7-0.1,1-0.2,1
			c-0.1,0-0.2-0.1-0.4-0.3c-0.1-0.2-0.2-0.3-0.3-0.3v0.1c0,0.1,0,0.3,0.1,0.7l0.1,0.6c0,0.2,0,0.2-0.1,0.2l-0.3-0.1
			c-0.2-0.1-0.2-0.1-0.3-0.1h-0.1l0.1,0.2l0.1,0.3c0,0.7-0.4,2.6-1,4.7c-1.4,5.4-2.1,9.5-2.1,12.5l0.1,1.6c0.2,2.3,0.7,4.3,1,4.3
			L723.8,453.4z M724.5,424.7c0-0.1,0.4-0.5,0.8-0.8c0.4-0.3,0.5-0.4,0.6-0.4l-0.4,0.6c-0.5,0.5-0.8,0.8-0.9,0.8
			C724.6,424.9,724.5,424.9,724.5,424.7z M726.3,460.4c0-0.5-0.1-1.1-0.2-2.1c-0.1-0.7-0.1-1.4-0.1-2.2c0-5,1.8-12.6,5.9-25.7
			c1.1-3.7,2-6.9,2-7.2l-0.2-0.1c-1,0-3.3,6-6.4,16.6c-1.8,6.1-2.7,10.7-2.7,14.3c0,2.1,0.3,3.8,0.8,5.4c0.3,0.9,0.5,1.4,0.7,1.4
			C726.2,460.9,726.3,460.7,726.3,460.4z M727.2,455l0.1-1.3l-0.1-1.3l-0.1-0.3c-0.1,0-0.1,0.6-0.1,1.5s0.1,1.5,0.1,1.5L727.2,455z
			 M727.2,460.2l0.1-1l-0.1-1l-0.1-0.2c-0.1,0-0.1,0.5-0.1,1.3c0,0.8,0.1,1.3,0.1,1.3L727.2,460.2z M728.1,447.7
			c0.1-0.1,0.1-0.2,0.1-0.5l-0.1-0.5l-0.1-0.2c-0.1,0-0.1,0.1-0.2,0.5C727.8,447.4,727.9,447.7,728.1,447.7L728.1,447.7z
			 M728.6,453.6c0.1-0.1,0.1-0.2,0.1-0.5l-0.1-0.5l-0.1-0.2c-0.1,0-0.1,0.1-0.2,0.5C728.3,453.4,728.4,453.7,728.6,453.6
			L728.6,453.6z M730,460c0.1-0.1,0.1-0.2,0.1-0.5l-0.1-0.5l-0.1-0.2c-0.1,0-0.1,0.1-0.2,0.5C729.7,459.8,729.8,460.1,730,460
			L730,460z M731,449c0.1-0.1,0.1-0.2,0.1-0.5l-0.1-0.5l-0.1-0.2c-0.1,0-0.1,0.1-0.2,0.5C730.7,448.8,730.7,449.1,731,449L731,449z
			 M731.4,435.8c0.1-0.1,0.1-0.2,0.1-0.5l-0.1-0.5l-0.1-0.2c-0.1,0-0.1,0.1-0.2,0.5C731.1,435.5,731.2,435.8,731.4,435.8
			L731.4,435.8z M733.5,428.6c0.2-0.4,0.4-1,0.4-1.4c0-0.2-0.1-0.3-0.1-0.3c-0.1,0-0.2,0.2-0.3,0.5c-0.3,0.6-0.4,1.1-0.4,1.4
			c0,0.1,0,0.1,0.1,0.1S733.3,428.8,733.5,428.6z M735.2,433.9c0.1-0.1,0.1-0.2,0.1-0.5l-0.1-0.5l-0.1-0.2c-0.1,0-0.1,0.1-0.2,0.5
			C734.9,433.7,735,434,735.2,433.9L735.2,433.9z M738.6,422.3l0.1-0.6l-0.1-0.6l-0.1-0.2c-0.1,0-0.1,0.3-0.1,0.7
			c0,0.5,0.1,0.7,0.1,0.7C738.5,422.4,738.5,422.3,738.6,422.3z"/>
		<path id="me-letter-e" d="M769.8,466.2c-3.7-0.8-10.6-4.2-12.6-6.2c-2.6-2.4-3.8-5.5-3.8-9.1c0-1.4,0.2-2.9,0.5-4.4
			c2.3-9.8,11.2-25.5,19.6-34.3c2.6-2.7,7.4-6.5,9.6-7.6c1.1-0.5,3-1,4.4-1.2l1.4-0.1c1.1,0,1.5,0.3,2.8,1.5c0.9,0.9,2.7,2,3.9,2.4
			c1.7,0.6,2.3,1,3.1,2.6c0.6,1.2,0.9,2.6,0.9,4.3c0,6.4-4.5,15.5-11.5,22.3c-4,3.8-7.5,5.7-10.7,5.7c-1.8,0-2.7-0.3-4.5-1.6
			c-1.2-0.9-2.4-1.6-2.6-1.6c-0.6,0-3.3,6.9-4.1,10.5c-0.4,1.9-0.6,3.4-0.6,4.6c0,2.6,0.4,2.9,1.3,5l2.8-0.3
			c6.7-0.7,12.6-3.5,19-8.8c3.5-2.8,5.1-4,5.6-4c0.1,0,0.2,0.1,0.2,0.2c0,0.2-0.2,0.6-0.5,0.7c-0.2,0.1-0.2,0.3-0.2,0.6l0.1,0.3
			c0.1,0.3,0.2,0.5,0.4,0.5c0.1,0,0.3-0.1,0.5-0.3l0.5-0.3c0.1,0,0.2,0.1,0.2,0.2c0,0.3-1.7,2.2-3.7,4.3c-1.5,1.5-2.5,2.7-2.5,2.9
			c0,0.1,0,0.1,0.1,0.1l0.2-0.1c0.8-0.6,1.7-1,1.9-1s2.1-1.8,4.3-4c2.4-2.5,3.7-3.5,4.2-3.5l0.2,0.1c0.2,0.2,0.3,0.4,0.3,0.7
			c0,0.4-0.1,1-0.3,1.7c-0.7,2.5-1.7,4.1-4.9,7.6c-5.6,6.1-14.4,10.1-21.7,10.1C772.2,466.6,771,466.5,769.8,466.2z M756.7,450.6
			c0.4-2.3,1.1-5.7,1.8-7.5c0.7-1.9,1.3-3.8,1.5-4.2l0.1-0.5c0-0.2-0.1-0.3-0.2-0.3c-0.5,0-1.8,2.5-1.8,3.4l0.1,0.4
			c0,0.1-0.1,0.3-0.3,0.3c-0.3,0.1-0.6,0.8-0.7,1.5c-0.1,0.7-0.4,2.3-0.7,3.4c-0.2,1-0.5,2.8-0.5,4.3v0.5c0,1.3,0,1.9,0.1,1.9
			C756.2,453.8,756.4,452.9,756.7,450.6z M759.1,452.7c0.1-4.2,1.7-9.3,5.5-17c1.7-3.3,7.2-12.3,9.7-15.5c2.5-3.3,7.7-8.5,10.3-10.3
			c1.1-0.8,1.8-1.2,2.1-1.2c0.1,0,0.1,0.1,0.1,0.1c0,0.1-0.1,0.3-0.4,0.6c-0.2,0.2-0.3,0.4-0.3,0.5v0.1c0.1,0,0.5-0.2,1.1-0.6
			c1.1-0.7,1.7-1,1.7-1.1l-0.1-0.1l-0.8,0.2c-0.3,0.1-0.5,0.1-0.7,0.1c-0.1,0-0.2,0-0.2-0.1l0.1-0.3c0-0.1,0-0.1-0.1-0.1
			c-0.5,0-2.6,1.1-4.6,2.5c-6.4,4.5-12.8,12.7-18.4,23.5c-3.3,6.3-6.1,14-6.1,16.8c0,1.8,0.6,4.5,1.1,4.5
			C759,455.4,759.1,454.2,759.1,452.7z M760.4,451.5l0.1-1.8c0-0.6-0.1-0.9-0.1-0.9l-0.1,0.2c-0.3,0.7-0.5,3.4-0.5,5.1
			c0,0.7,0.1,1.3,0.1,1.3h0.1C760,455.2,760.2,453.5,760.4,451.5z M761.2,436.5c0-0.6,3.4-7.1,5.5-10.7c2.7-4.5,7.1-10,10.6-13.2
			c0.8-0.7,1.4-1.4,1.4-1.5l-0.1-0.1c-1.2,0-7.8,7.5-11.5,13c-2.6,3.8-7.1,12.3-7.1,13.1v0.1c0.1,0.1,0.2,0.1,0.4,0.1
			C760.8,437.4,761.2,437,761.2,436.5z M781.2,426.1c1.5-1.4,3.3-3.5,4.2-4.6c1.9-2.7,4.3-7.2,4.3-8.1v-0.1c0-0.1-0.1-0.1-0.1-0.1
			c-0.9,0-5.6,4-8,6.9c-2.4,3-7.4,10.5-7.4,11.1c0,0.1,0.1,0.1,0.1,0.1C774.9,431.3,778.7,428.5,781.2,426.1z M779,433L779,433
			L779,433c-0.2-0.1-1.1,0.3-2.1,1c-1.3,0.8-2.4,1.7-2.4,1.8l0.1,0.1C775,435.9,778.6,433.6,779,433z M780.2,434.8
			c0.7-0.3,2.4-1.8,4-3.1c4.7-4.3,8.4-9.9,9.7-14.6c0.3-1,0.7-1.7,0.8-1.7h0.1c0.1,0,0.1-0.4,0.1-1v-0.8c-0.1-1.1-0.4-2-0.5-2
			c-0.2,0-0.7,1.4-1.1,3c-1.7,6.5-5.5,12.5-11.4,18.1c-1.2,1.1-2,1.9-2,2.2l0.1,0.1L780.2,434.8z M782.3,458.3
			c0.4-0.3,0.6-0.5,0.6-0.6l-0.1-0.1c-0.3,0-0.9,0.3-1.4,0.7c-0.4,0.2-0.5,0.5-0.5,0.6c0,0.1,0,0.1,0.1,0.1
			C781.2,459,781.8,458.7,782.3,458.3z M784.3,457.1c0.5-0.3,0.8-0.6,0.8-0.7v-0.1l-0.1-0.1c-0.2,0-0.5,0.2-0.9,0.6
			c-0.4,0.4-0.6,0.6-0.6,0.6C783.6,457.5,783.9,457.4,784.3,457.1z M786.1,406.9l0.1-0.2c0-0.1-0.1-0.1-0.2-0.1l-0.4,0.1
			c-0.5,0.2-0.7,0.3-0.7,0.5c0,0.1,0.1,0.2,0.4,0.2C785.6,407.4,786,407.1,786.1,406.9z M786.3,424.9c0.9-1,2.8-3.7,4-5.9
			c1.2-2.2,2.4-4.9,2.6-5.9l0.1-1c0-0.3-0.1-0.4-0.1-0.4c-0.2,0-0.7,1-1.2,2.6c-0.8,2.6-2.3,5.4-4.9,9.4l-1.7,2.5v0.1
			C785.1,426.2,785.5,425.7,786.3,424.9z M787.1,455.4l0.1-0.2c0-0.1-0.1-0.1-0.2-0.1l-0.4,0.1c-0.5,0.2-0.7,0.3-0.7,0.5
			s0.1,0.2,0.4,0.2C786.6,455.8,786.9,455.6,787.1,455.4z"/>
	</g>
</g>
</svg>
