<?xml version="1.0" encoding="utf-8"?>
<!-- Generator: Adobe Illustrator 24.3.0, SVG Export Plug-In . SVG Version: 6.00 Build 0)  -->
<svg version="1.1" id="focus-four-me-logo-3" xmlns="http://www.w3.org/2000/svg" xmlns:xlink="http://www.w3.org/1999/xlink"
	 x="0px" y="0px" viewBox="0 0 1500 550" style="enable-background:new 0 0 1500 550;" xml:space="preserve">
<style type="text/css">
	.st0{fill:#DD1010;}
</style>
<g id="focus-four-me-logo-3-parts">
	<g id="product-link-logo-parts">
		<path id="head-body-part" d="M862,336.9c-0.4-3.2-0.9-6.4-1.3-9.6c-0.3-2.2-0.6-4.5-1-6.7c-0.4-2.6-1-5.2-1.5-7.9
			c-1.2-6.3-2.4-12.6-3.5-19c-0.8-4.3-1.5-8.6-2.3-12.9c-0.8-4.7-1.6-9.3-2.5-14c-1.4-7.1-2.7-14.2-4.2-21.2
			c-1.6-7.6-4.8-14.6-8.8-21.3c-2.9-5-6.1-9.8-10-14.1c-2-2.3-4.3-4.4-6.5-6.6c-1.7-1.7-3.4-3.4-5.2-4.9c-1.1-1-2.5-1.8-3.7-2.7
			c-3.1-2.1-6.2-4.3-9.4-6.3c-4.3-2.7-9-4.7-13.8-6.3c-1.2-0.4-2.2-0.9-3.2-1.9c0.2-0.4,0.5-0.8,0.7-1.2c3.6-5.4,7.2-10.7,10.7-16.1
			c2.5-3.8,5-7.5,7-11.6c3.2-6.2,5.3-12.8,6.8-19.6c0.9-4,1.6-8.1,1.9-12.3c0.3-4.4,0.3-8.8-0.4-13.2c-0.1-1-0.1-2-0.2-3
			c-0.6-5.5-1.5-10.8-3.5-16c-0.7-1.7-1.1-3.4-1.7-5.1c-2.5-6.2-5.9-12-10.3-17.1c-1.6-1.8-3-3.8-4.7-5.6
			c-7.6-7.8-16.6-13.5-26.7-17.5c-6.7-2.6-13.7-4.2-20.9-4.6c-1.4-0.1-2.8-0.2-4.3-0.3c-0.8,0-1.5,0.3-2.2-0.2h-6.1
			c-0.9,0.2-1.8,0.5-2.7,0.5c-6.7,0.4-13.2,1.9-19.4,4.7c-2.6,1.2-5.3,2.1-7.9,3.2c-2.7,1.1-5.1,2.7-7.5,4.4
			c-0.7,0.5-1.5,0.9-2.2,1.3c-0.3,0.2-0.6,0.3-0.8,0.5c-3.4,3.1-7,6-10.3,9.2c-2.4,2.4-4.3,5.2-6.3,7.8c-1.4,1.8-2.6,3.8-3.8,5.8
			c-1.1,1.9-2,3.9-2.9,5.9c-3.3,7.2-5.2,14.8-6.4,22.7c-0.7,4.8-0.8,9.7-0.6,14.6c0.5,11.2,3.2,21.8,7.9,31.9c2.8,6,6.2,11.6,10,17
			c3.2,4.4,6.3,8.8,9.5,13.3c0.1,0.1,0.1,0.2,0.2,0.5c-0.6,0.3-1.2,0.7-1.8,1c-3.6,1.6-7.2,3.2-10.7,4.8c-3.3,1.5-6.3,3.4-9.3,5.5
			c-2.1,1.5-4.2,2.8-6.2,4.4c-2.2,1.6-4.3,3.3-6.3,5.1c-3.9,3.5-7.6,7.3-10.8,11.5c-4.2,5.5-7.7,11.5-10.7,17.7
			c-3.5,7.2-5.4,14.8-6.8,22.5c-1.3,6.9-2.4,13.8-3.6,20.6c-0.5,2.9-1.2,5.7-1.7,8.5c-1,5.7-2,11.3-3,17c-0.7,3.8-1.3,7.6-2,11.4
			c-0.8,4.6-1.6,9.2-2.4,13.9c-0.5,2.9-1.1,5.7-1.6,8.6c-0.2,1.4-0.3,2.9-0.5,4.4c0,0.3-0.2,0.6-0.2,0.9l0.4,1l11-26.9l12.1-16.5
			c-0.1,0.1-0.2,0.1-0.3,0c-0.1,0,0,0-0.2-0.1c0-0.5-0.1-1,0-1.4c1.4-7.2,2.8-14.4,4.1-21.7c0.9-4.8,1.7-9.7,2.3-14.6
			c0.5-4.1,1.8-8,3.2-11.8c1.4-3.7,2.6-7.5,4-11.2c0.5-1.3,1.2-2.5,1.9-3.7c2.5-4.1,5-8.2,8.3-11.7c2.5-2.7,4.9-5.7,7.8-8
			c4.6-3.7,9.3-7.2,14.7-9.8c7.3-3.5,14.6-6.9,21.8-10.4c4.6-2.2,9-4.7,12.8-8.2c5.7-5.1,9.5-11.3,10.7-19
			c0.9-6.1,0.2-12.1-2.8-17.5c-2.3-4.1-4.8-8.2-7.2-12.3c-2.2-3.7-4.1-7.4-5.2-11.6c-0.4-1.4-0.5-2.8-0.7-4.2
			c-0.3-2.9-0.5-5.9-0.2-8.8c0.8-9.1,4.9-16.1,13.1-20.5c3.4-1.8,7.1-2.9,10.9-3.3c2.8-0.3,5.6-0.4,8.4,0.3c2.4,0.6,4.8,1.5,7.2,2.4
			c2.9,1.1,5.5,2.8,7.8,4.9c3.6,3.3,5.7,7.5,6.6,12.2c0.4,1.9,0.4,3.8,0.6,5.7c0.1,0.8,0.1,1.6,0.2,2.3c0.2,2.5-0.6,4.8-1.1,7.2
			c-0.3,1.5-0.7,3-1.1,4.6c-0.6,2.5-1.5,4.8-2.9,7c-1.7,2.6-3.4,5.3-5.1,7.9c-2,3.1-3.9,6.4-5.1,9.9c-0.8,2.1-1.2,4.3-1.3,6.6
			c-0.1,2.7-0.2,5.4,0.2,8.1c0.6,3.7,2.1,6.9,4.2,9.9c0.8,1.1,1.5,2.2,2.3,3.3c0.3,0.4,0.7,0.9,1.1,1.2c3.4,3.2,6.7,6.6,10.7,9.1
			c2.8,1.7,5.6,3.3,8.5,4.6c3.8,1.7,7.7,3.1,11.5,4.7c4,1.8,7.9,3.8,11.5,6.3c2.8,2,5.7,3.9,8.5,5.9c0.2,0.1,0.4,0.3,0.5,0.4
			c6.5,6.3,12.6,12.8,17.1,20.7c3.6,6.3,6,13.1,7.5,20.2c0.9,4.4,2,8.7,3,13.1c0.6,2.6,0.9,5.2,1.4,7.9c1.3,7.6,2.6,15.1,3.9,22.7
			c0,0.1,0,0.3,0,0.5c0.3,0.6,0.4,0.7,1.2,1.5c0.3,0.3,0.4,0.4,1,1.1l2.3,2.7l12.9,20.9l2.3,5.5l3.2,9.1
			C862.2,337.4,862.1,337.2,862,336.9z M773.2,170.7c-0.5,0.6-1.1,1.3-1.6,1.9c-0.7,0.8-1.7,0.9-2.4,0.2c-1.7-1.9-3.4-3.8-5-5.9
			c-0.6-0.8-0.7-1.9-1-2.8c-0.8-2.9-0.4-5.7,0.9-8.4c1.9-3.8,4.2-7.5,6.4-11.1c3.8-6.1,6.7-12.6,8-19.7c0.3-1.4,0.5-2.9,0.7-4.4
			c0.1-0.8-0.1-1.6-0.1-2.5c0-2.9,0.2-5.8-0.1-8.7c-0.2-2.3-0.7-4.5-1.1-6.8c-1.8-9.7-7.1-17-15-22.7c-5.7-4.2-12.2-6.4-19.1-7.7
			c-4.4-0.8-8.8-0.6-13.2,0.1c-2,0.3-4,0.5-6,0.9c-6.6,1.3-12.3,4.6-17.4,8.9c-2.5,2.1-4.8,4.4-6.4,7.2c-1,1.8-2.1,3.5-2.9,5.3
			c-0.8,1.7-1.3,3.5-2,5.3c-1.2,3-1.9,6-2,9.2c0,1.9-0.2,3.9-0.3,5.8c-0.1,9.1,2.3,17.6,6.6,25.5c2.9,5.3,6,10.6,9.1,15.8
			c0.6,1.1,0.9,2.2,1,3.4c0.3,5.1-1.8,9.2-5.5,12.5c-0.3,0.3-0.7,0.6-1.1,0.9c-0.9,0.7-1.3,0.7-2.1-0.2c-0.9-1-1.7-2-2.6-3
			c-0.7-0.8-1.5-1.7-2.3-2.4c-1.8-1.7-2.8-3.9-4-5.9c-2.2-3.4-4.3-6.9-6.4-10.3c-4.7-7.9-7.9-16.4-9.4-25.5
			c-0.4-2.2-0.5-4.5-0.7-6.7c-0.1-1.8-0.3-3.7-0.2-5.5c0.4-7.4,1.4-14.7,4.1-21.7c0.6-1.6,1-3.3,1.9-4.9c1.6-3,3.6-5.6,5.7-8.3
			c1.9-2.5,3.8-5.1,5.8-7.6c0.9-1.1,1.9-2,3-2.8c3.7-2.6,7.5-5.3,11.5-7.3c5.1-2.6,10.5-4.3,16-5.5c2-0.4,4.1-0.9,6.1-1.1
			c2.1-0.2,4.2-0.2,6.3-0.3c4.3-0.2,8.4,0.6,12.6,1.4c8.8,1.7,16.9,5.2,24.2,10.4c4.9,3.5,9.1,7.7,12.6,12.5c1.6,2.1,2.7,4.5,4,6.8
			c2,3.5,3.2,7.3,4.3,11.2c0.6,2.3,1.4,4.5,1.9,6.8c0.3,1.1,0.3,2.2,0.4,3.3c0.2,3,0.4,6.1,0.6,9.1c0.2,2.2,0.1,4.3-0.2,6.5
			c-0.4,2.9-0.7,5.8-1.3,8.6c-0.8,3.9-2.2,7.7-4,11.3c-2.3,4.7-4.9,9.2-7.3,13.8C781.3,161,777.2,165.8,773.2,170.7z"/>
		<path id="hands-part" d="M761.1,274.4c3.7,3.7,7.8,7,12.1,10.1c4.9,3.6,9.8,7.3,14.7,11c0.2,0.2,0.3,0.2,0.6,0.5
			c0.2-0.1,9-6,17.5-7.9c0.5-0.1-0.2-0.3-1.1-0.8c-5.7-3.2-11.3-6.5-16.6-10.4c-2.6-1.9-5.1-3.8-7.5-5.8c-2.9-2.5-5.7-5.1-8.5-7.7
			c-5.1-4.7-9.5-10.1-13.9-15.5c-3-3.8-5.3-8-7.9-11.9c-1.5-2.2-2.8-4.4-4.2-6.7c-1.8-2.9-4.3-4.8-7.7-5.3c-4.3-0.7-8,0.5-10.7,4
			c-1.6,2.1-2.8,4.5-4.2,6.7c-2.3,3.7-4.6,7.4-7.1,10.9c-2.1,2.9-4.5,5.6-6.8,8.3c-2.5,2.9-5,5.8-7.6,8.6c-1.8,1.9-3.8,3.6-5.8,5.3
			c-4.9,4.3-9.9,8.4-15.4,11.9c-3.7,2.4-7.6,4.8-11.4,7c-1.8,1.1-1.8,1-3.7,1.5c3.2,0.7,5.5,1.4,8.9,2.5c2.7,0.9,8.1,3.1,10.2,4.9
			c1.6-1.1,2.7-1.9,4.1-2.9c4.6-3.3,9.2-6.6,13.7-10.1c2.1-1.6,3.9-3.5,5.9-5.3c1.2-1.1,2.5-2.1,3.7-3.2c0.5-0.5,1-1.1,1.5-1.6
			c2.7-3,5.6-5.8,8.1-8.9c3.1-3.9,6-8,8.9-12c1.3-1.7,2.4-3.6,3.7-5.3c0.6-0.8,1.3-1.5,2.1-2.3c0.3,0.3,0.5,0.5,0.7,0.8
			c2.6,3.7,5.2,7.4,7.8,11.1c2.6,3.7,5.5,7,8.5,10.4C756.1,269,758.5,271.8,761.1,274.4z"/>
		<path id="eye-part" d="M737.3,99.6c2.1,0,4.4,0.7,6.5,2c1.7,1,3.2,2.2,4.5,3.7c0.8,0.9,0.9,1.9,0,2.8c-2.9,3.3-6.5,5.2-10.8,5.9
			c-0.6,0.1-1.2-0.1-1.8-0.2c-3.9-0.7-7.2-2.6-9.8-5.5c-1.1-1.2-1-2.1,0.1-3.2c1.6-1.6,3.3-3,5.4-4.1
			C733.1,100.1,734.9,99.6,737.3,99.6z"/>
		<path id="feet-part" d="M855.9,319.6c-0.2-0.5-0.5-1-0.8-1.5c-2.2-4.2-4.8-8.3-7.8-12.3c-1.9-2.5-4-4.9-6.2-7.3
			c-0.5-0.6-1.1-1.1-1.6-1.7c0,0-0.1-0.1-0.1-0.1c0,0,0,0,0,0c-1.2-0.7-2.4-1.4-3.6-2c-3.8-2-7.6-3.9-11.8-4.9
			c-1.7-0.4-3.4-0.6-5.2-0.8c-3.7-0.4-7.3-0.7-11-1.2c-0.4,0-1.6,0-2,0.1c-6.4,1.5-11.9,4.5-17.1,7.7c-2.4,1.8-4.9,3.5-7.3,5.2
			c-4.3,3-8.6,6-12.4,9.5c-6.1,5.6-12.1,11.2-17.4,17.4c-1.8,2.1-3.6,4.3-5.3,6.6c-3.3,4.3-6.4,8.7-9.7,13c-0.6-0.4-1-1.2-1.5-1.9
			c-2-3.1-3.9-6.2-6.1-9.2c-0.5-0.7-1-1.4-1.6-2.1c-1.8-2.3-3.8-4.5-5.5-6.9c-3-4.1-6.6-7.7-10.2-11.2c-3.7-3.7-7.7-7-12-10
			c-1-0.7-2-1.6-3-2.3c-0.2-0.1-0.3-0.3-0.5-0.4c-3.3-2.4-6.7-4.7-10.1-7c-0.4-0.3-0.7-0.5-1.3-1c-4.4-3.4-16.5-7.1-20-7.4
			c-1.5-0.1-2.4,0-3.9,0.1c-0.9,0.1-1.8,0.2-2.7,0.3c-4.1,0.7-8.3,1.2-12.3,2.4c-3.7,1.1-7.2,2.8-10.4,5.1c-0.4,0.3-0.9,0.6-1.4,0.9
			c-0.5,0.6-1.1,1.1-1.6,1.7c-2.2,2.4-4.3,4.8-6.2,7.3c-3,4-5.6,8.1-7.8,12.3c-0.3,0.5-0.5,1-0.8,1.5c-3,6.1-5.2,12.4-6.4,18.6
			c-0.3,1.3-0.5,2.6-0.7,4c0.5,0.7,0.1,1.6,0.2,2.3c0.6,1.7,1,3.4,1.1,5.2c0.1,2.7,1.1,5.2,2.2,7.6c1.9,3.9,3.8,7.9,6.3,11.5
			c2.1,3,4.5,5.5,7.4,7.8c2.3,1.8,4.6,3.6,7.2,5.1c6,3.4,12.4,5.5,19.4,5.9c0.2,0,0.4,0.1,0.5,0.1c0.5,0,1.1,0,1.6,0
			c0.3,0,0.5,0,0.8,0c0.2,0,0.5,0.2,0.7,0.3h15.2c0.2-0.1,0.4-0.3,0.6-0.3c1.2,0.1,2.4-0.3,3.6,0.3h137.4c0.4-0.1,0.8-0.3,1.1-0.3
			c1.2,0,2.4,0,3.6,0c2-0.3,3.9-0.6,5.8-1c1.6-0.4,3.1-0.8,4.6-1.4c4.5-1.8,8.9-3.6,12.6-6.9c2-1.8,4.4-3.3,6.3-5.1
			c1.7-1.7,3.3-3.6,4.7-5.6c4.2-6.1,6.9-12.9,8.2-20.1c0.2-0.8,0.1-1.7,0.2-2.5c0-0.3,0.1-0.5,0.2-0.8v-6.3
			C861,331.8,858.9,325.6,855.9,319.6z M728.6,372.2c-8.1,0-16.2,0-24.3,0c-3.9,0-7.8,0-11.7,0c-7.4,0-14.8,0-22.2,0
			c-2.9,0-5.8,0.1-8.7,0.1c-4.3-0.1-8.5-0.5-12.7-1.7c-7.1-2-12.5-6.2-16.7-12.2c-2.1-3-3.6-6.3-4.7-9.8c-0.5-1.5-0.5-3.1-0.8-4.6
			c-0.8-4.3,0-8.5,1-12.7c0.5-2.1,0.9-4.3,1.8-6.2c4.7-9.2,11.7-16,21.5-19.6c2.1-0.8,4.3-1.4,6.5-1.7c2.5-0.4,5.1-0.8,7.7-0.2
			c1.4,0.3,2.8,0.7,4,1.4c3.6,2,7.2,4.2,10.7,6.4c2.1,1.4,4.1,2.9,6.1,4.5c3.5,2.7,7,5.4,10.4,8.2c2.3,1.9,4.6,3.9,6.6,6.3
			c2.3,2.7,4.7,5.2,7,7.8c0.5,0.6,1.1,1.3,1.6,1.9c3.1,3.7,5.9,7.5,8.5,11.5c0.8,1.2,1.6,2.4,2.3,3.6c1.8,2.9,3.6,5.9,5.2,8.9
			c1.3,2.4,2.3,5,3.6,7.8C730.2,372.1,729.4,372.2,728.6,372.2z M846.2,340.5c-0.2,1.9-0.3,3.8-0.4,5.6c-0.1,2.3-0.7,4.4-1.6,6.5
			c-1.8,3.9-4.2,7.4-7.2,10.5c-2.3,2.3-5,3.7-7.7,5.2c-0.8,0.5-1.7,0.9-2.6,1.4c-2.5,1.5-5.3,2-8.2,2.2c-2.2,0.2-4.5,0.3-6.8,0.3
			c-10,0-20,0-30.1,0c-4.1,0-8.2,0-12.3,0c-5.7,0-11.5,0-17.2,0c-1.5,0-2.9-0.1-4.5-0.2c-0.3-0.9-0.5-1.6-0.8-2.4
			c-0.2-0.7-0.5-1.4-0.8-2c-0.8-1.9-0.7-3.6,0.4-5.4c1.5-2.3,2.7-4.8,4.2-7.1c0.8-1.3,1.7-2.5,2.5-3.8c1.2-1.8,2.4-3.5,3.6-5.3
			c1.7-2.6,3.7-4.9,5.7-7.2c0.7-0.8,1.5-1.6,2.2-2.3c4-4.1,8.1-8.2,12.1-12.4c1.6-1.7,3.5-2.9,5.4-4.3c4.5-3.3,9.1-6.7,13.7-9.9
			c1.9-1.3,4-2.3,6-3.5c0.9-0.5,1.8-1,2.6-1.6c1.7-1.2,3.6-1.7,5.6-1.5c5,0.3,9.9,1.2,14.5,3.2c6.5,2.8,11.6,7.3,15.6,13
			c2.6,3.7,4.5,7.6,5.5,12C846.4,334.5,846.6,337.5,846.2,340.5z"/>
		<path id="outer-head-part" d="M812.2,107.7c-0.1-1-0.1-2-0.2-3c-0.6-5.5-1.5-10.8-3.5-16c-0.7-1.7-1.1-3.4-1.7-5.1
			c-2-4.9-4.5-9.5-7.6-13.7c-0.8-1.1-1.7-2.3-2.7-3.3c-1.6-1.8-3-3.8-4.7-5.6c-7.6-7.8-16.6-13.5-26.7-17.5
			c-6.7-2.6-13.7-4.2-20.9-4.6c-1.4-0.1-2.8-0.2-4.3-0.3c-0.8,0-1.5,0.3-2.2-0.2h-6.1c-0.9,0.2-1.8,0.5-2.7,0.5
			c-6.7,0.4-13.2,1.9-19.4,4.7c-2.6,1.2-5.3,2.1-7.9,3.2c-2.7,1.1-5.1,2.7-7.5,4.4c-0.7,0.5-1.5,0.9-2.2,1.3
			c-0.3,0.2-0.6,0.3-0.8,0.5c-3.4,3.1-7,6-10.3,9.2c-2.3,2.3-4.2,5-6.2,7.7c0,0.1-0.1,0.1-0.1,0.2c-1.4,1.8-2.6,3.8-3.8,5.8
			c-1.1,1.9-2,3.9-2.9,5.9c-3.3,7.2-5.2,14.8-6.4,22.7c-0.7,4.8-0.8,9.7-0.6,14.6c0.5,11.2,3.2,21.8,7.9,31.9c2.8,6,6.2,11.6,10,17
			c3.2,4.4,6.3,8.8,9.5,13.3c0.1,0.1,0.1,0.2,0.2,0.5c0.3,0.3,0.8,0.1,1-0.1c4.5-2.5,8.8-4.7,13.2-7.9c-0.3-0.3-0.3-0.3-0.8-0.9
			c-0.9-1-1.7-2-2.6-3c-0.7-0.8-1.5-1.7-2.3-2.4c-1.8-1.7-2.8-3.9-4-5.9c-2.2-3.4-4.3-6.9-6.4-10.3c-4.7-7.9-7.9-16.4-9.4-25.5
			c-0.4-2.2-0.5-4.5-0.7-6.7c-0.1-1.8-0.3-3.7-0.2-5.5c0.4-7.4,1.4-14.7,4.1-21.7c0.6-1.6,1-3.3,1.9-4.9c1.6-3,3.6-5.6,5.7-8.3
			c1.9-2.5,3.8-5.1,5.8-7.6c0.9-1.1,1.9-2,3-2.8c0.7-0.5,1.4-1,2.1-1.5c3-2.1,6.1-4.2,9.5-5.9c5.1-2.6,10.5-4.3,16-5.5
			c2-0.4,4.1-0.9,6.1-1.1c2.1-0.2,4.2-0.2,6.3-0.3c4.3-0.2,8.4,0.6,12.6,1.4c8.8,1.7,16.9,5.2,24.2,10.4c0.4,0.3,0.9,0.6,1.3,0.9
			c4.3,3.3,8.1,7.2,11.4,11.5c1.6,2.1,2.7,4.5,4,6.8c2,3.5,3.2,7.3,4.3,11.2c0.6,2.3,1.4,4.5,1.9,6.8c0.3,1.1,0.3,2.2,0.4,3.3
			c0.2,3,0.4,6.1,0.6,9.1c0.2,2.2,0.1,4.3-0.2,6.5c-0.4,2.9-0.7,5.8-1.3,8.6c-0.8,3.9-2.2,7.7-4,11.3c-2.3,4.7-4.9,9.2-7.3,13.8
			c-3,5.6-7.1,10.4-11.1,15.3c-0.5,0.6-1.1,1.3-1.6,1.9c-0.5,0.6-1.1,0.8-1.7,0.6c4.5,3.3,9.4,5.8,14,8.4c0.4,0.2,1.1,0.7,1.5,0.1
			c0.2-0.4,0.5-0.8,0.7-1.2c3.6-5.4,7.2-10.7,10.7-16.1c2.5-3.8,5-7.5,7-11.6c3.2-6.2,5.3-12.8,6.8-19.6c0.9-4,1.6-8.1,1.9-12.3
			C812.8,116.5,812.8,112.1,812.2,107.7z"/>
	</g>
	<g id="me-letters">
		<path d="M892.6,459.1c0.3,0.2,0.5,0.3,0.6,0.3c0.1,0,0.3-0.1,0.6-0.4c0.3-0.3,0.5-0.4,0.6-0.4c0.7,0.5,0.9,0.9,0.7,1.1
			c0.1,0,0.3,0,0.5,0.1c0.2,0,0.4,0.1,0.5,0.2c0,0.8,0,1.4-0.1,2c-0.1,0.6-0.3,1.2-0.6,1.9c-0.3,0.7-0.6,1.2-0.6,1.5
			c-0.1,0-0.2,0-0.4-0.1c-0.2-0.1-0.3-0.1-0.4,0c-0.1,0.2,0,0.3,0.2,0.4c0.2,0,0.4,0.1,0.4,0.2c-0.2,0.7-0.5,1-1,1
			c0.3,0.7,0.3,1.5-0.1,2.6c-0.3,1.1-0.8,1.9-1.5,2.6c0.3,0.1,0.4,0.3,0.3,0.6c0,0.1-0.1,0.1-0.4,0.1c0.4,0.2,0.4,0.7,0.1,1.4
			c-0.3,0.8-0.5,1.3-0.4,1.6c-0.1,0-0.1,0.2-0.1,0.7c-0.5,0.1-0.9,0.4-1.1,0.9c0.1,0.1,0.3,0.1,0.5,0c0.2-0.1,0.5,0,0.6,0.1
			c-0.5,0.3-1,0.4-1.4,0.4c0.3,0.2,0.4,0.4,0.4,0.7c0,0.3,0,0.6,0.2,1c-0.2,0-0.4,0.1-0.6,0.3c-0.1,0.2,0,0.3,0.1,0.4
			c0.2,0,0.2,0.2,0.1,0.4c-0.1,0-0.3,0.2-0.6,0.5c-0.3,0.3-0.6,0.6-0.9,0.6c0,0.2,0,0.3,0.1,0.4c0,0,0.1,0,0.2-0.1
			c0.3,0,0.5,0,0.6,0.1c-0.1,0.1-0.3,0.4-0.6,1s-0.6,0.9-0.9,1c0.1,0.2,0.2,0.4,0.3,0.6v0.3c0,0.1-0.2,0.1-0.6,0.1
			c0.3,1.6-0.2,4.3-1.6,8c0,0.2,0.2,0.4,0.7,0.6c-0.3,0.1-0.5,0.4-0.6,0.8c-0.1,0.4-0.2,0.7-0.3,0.8c0.3,0.6,0.4,1.6,0.2,3
			c-0.1,1.4-0.1,2.4,0.1,3c0.6-0.2,0.9,0,1.1,0.6c0.1,0.6,0.3,1.2,0.6,1.9c0.2,0.6,0.7,0.9,1.5,0.9c-0.1,0.3-0.1,0.5,0.1,0.6
			s0.2,0.3,0.2,0.4c-0.6,0.5-1.2,0.7-1.8,0.8c-0.6,0-1.2-0.1-1.7-0.5c-0.5-0.4-1-0.8-1.4-1.2s-0.9-1-1.4-1.6
			c-0.5-0.6-0.9-1.1-1.2-1.4v0.3c-1.1-1.7-1.8-3.8-1.9-6.2c-0.1-2.4,0-4.6,0.5-6.5c0.5-1.9,1.1-4.2,1.8-6.9c0.7-2.7,1.2-4.7,1.4-6
			c-8.2,10.4-14.1,12.2-17.7,5.5c-0.1,0-0.2,0.1-0.2,0.2c0,0.1-0.2,0.2-0.4,0.1c-0.5-0.9-0.7-1.8-0.8-2.8c0-1,0-2.3,0.2-3.8
			c0.2-1.5,0.3-2.6,0.3-3.2c-0.7,0.9-3,4.2-6.9,10c-3.9,5.8-7.4,9.8-10.3,11.9c-1.4-0.2-2.6-0.6-3.5-1.3c-0.9-0.7-1.5-1.5-1.9-2.5
			c-0.3-1-0.5-2-0.6-3.1c-0.1-1.1,0-2.3,0.3-3.7s0.6-2.7,0.8-3.7c0.2-1.1,0.6-2.3,1.1-3.9c0.5-1.5,0.8-2.6,1-3.3
			c0.3-4,1.6-8.6,4-13.8c1.1-1.2,2.4-1.3,3.9-0.2c1.6,1.1,2.3,2.5,2.1,4.1c-0.3,2.8-2.4,9.8-6.3,21c1-0.8,2.1-2.1,3.3-3.9
			c1.2-1.8,2.2-3.1,3-3.7c0.5-1.2,1.4-2.8,2.9-4.5c1.4-1.8,2.4-3.1,2.9-3.9c0.2-0.1,0.8-0.7,1.9-1.8c1.1-1.1,2.2-1.6,3.6-1.4
			c-0.1,0.2-0.1,0.3,0,0.4c0.1,0.1,0.1,0.2,0.1,0.4c0.1,0,0.3,0,0.6,0s0.4,0,0.4,0.1c0,0,0,0.2-0.1,0.4c1.1-0.3,1.9-0.4,2.6-0.3
			c0.1,0.2,0.1,0.3,0,0.3l-0.4,0.1c0.1,0.2,0.3,0.3,0.7,0.4c0.4,0.1,0.6,0.2,0.7,0.3c0,0.3,0,0.6,0,0.9s0,0.5,0,0.7
			c0,0.2,0.1,0.4,0.2,0.5c0.1,0.1,0.3,0.3,0.5,0.4c-0.3,1.9-0.2,3.4,0.1,4.4c-0.4,0.4-0.6,1-0.7,1.7c-0.1,0.8-0.1,1.7-0.1,2.7
			s0,1.7-0.1,2.2c1.2-0.6,2.3-1.3,3.2-2.1c0.9-0.8,2.1-2.1,3.5-3.8c1.4-1.7,2.2-2.7,2.4-2.9h-0.6c1.4-1.1,3.1-3,5-5.7
			c1.9-2.8,3.4-4.7,4.5-5.7c0-0.5,0.1-1,0.4-1.5c0.3-0.5,0.5-0.9,0.6-1.1c0.8,0.2,1.3,0.3,1.6,0.4c0,0.1-0.1,0.4-0.4,1
			c0.1,0.3,0.2,0.3,0.4,0.1c0.1-0.2,0.3-0.4,0.5-0.4c-0.1,0.2-0.1,0.3,0,0.4C892.3,459.3,892.4,459.3,892.6,459.1z M859.6,471.3
			c-0.6,1.6-1.7,3.7-3.4,6.1c-1.7,2.4-2.9,4.2-3.4,5.2c0.4-0.2,0.8-0.7,1.2-1.4c0.4-0.8,0.8-1.2,1.2-1.4c0,0.1-0.1,0.2-0.3,0.4
			l0.3,0.3c0-0.1,0.2-0.4,0.6-0.9c0.4-0.5,0.5-1,0.4-1.5c0.8-0.2,1.5-1,2.2-2.3c0.7-1.3,1.5-2.2,2.2-2.6c-0.2,0.2-0.3,0.4-0.2,0.5
			c0,0.1,0.2,0.2,0.4,0.2c0.5-0.9,1.3-1.9,2.4-3.2s1.9-2.2,2.3-2.7c-0.6,0.1-0.9,0-0.9-0.4c0.6-0.1,0.9-0.1,1-0.1
			c-0.1-0.2-0.1-0.5-0.1-0.9c0-0.4,0-0.6,0-0.7c-1,0.5-2,1.4-3.1,2.8C861.3,470,860.3,470.9,859.6,471.3z M858.7,476.2v0.3
			c0.1,0.1,0.2,0.1,0.3,0c0-0.2,0-0.3-0.1-0.4C858.9,476.1,858.8,476.2,858.7,476.2z M860,474.5c-0.2,0.1-0.4,0.3-0.6,0.6
			c-0.2,0.3-0.2,0.6,0,0.6C859.5,475.6,859.7,475.1,860,474.5z M860.9,472.2c0.4,0.4,0.4,0.7,0,1c-0.2,0-0.3-0.3-0.3-0.9
			C860.8,472.5,860.9,472.4,860.9,472.2z M862.5,470.1c0.4,0.3,0.1,0.8-0.7,1.6c-0.2,0.1-0.3,0.2-0.4,0.3
			C861.4,471.4,861.8,470.8,862.5,470.1z M862.9,467.1h0.3v-0.3h-0.3V467.1z M864.8,468.3c0,0.3-0.1,0.5-0.4,0.7
			c-0.3,0.2-0.6,0.1-0.9-0.1C863.9,468.4,864.4,468.2,864.8,468.3z M866.3,474.3c0-0.2,0-0.3,0.1-0.3c0-0.2-0.1-0.3-0.4-0.3l0.1,0.3
			C866.2,474.1,866.2,474.2,866.3,474.3z M873.5,480.8c0.2,0.2,0.3,0.3,0.3,0.4c0.2,0,0.4-0.1,0.6-0.3c0.2-0.2,0.4-0.3,0.5-0.3
			c-0.3-0.3-0.3-0.6,0-0.9s0.4-0.5,0.4-0.7C874.4,479.3,873.8,479.9,873.5,480.8z M886.4,465.1c0,0.7-0.4,1.2-1.1,1.6l0.1-0.1
			c0-0.1,0-0.2,0-0.3c-0.5,0-0.7,0.2-0.7,0.6l0.1,0.1l0.1,0.1c-0.5,0.8-0.8,1.1-1,1.1v-0.1c0.1-0.1,0.1-0.2,0.1-0.3
			c-0.8,0.4-1.1,0.9-1.1,1.4c0.2,0,0.3-0.2,0.4-0.5c0.1-0.3,0.3-0.5,0.6-0.4c-1.7,2.9-3.1,4.5-4.2,5c0.3-0.2,0.4-0.1,0.4,0.3
			c-0.9,0.8-2.2,2.2-4,4.5c0.5-0.1,0.9-0.4,1.3-0.9c0.4-0.5,0.8-0.8,1.1-0.9c-0.1,0.1-0.2,0.2-0.4,0.4c-0.1,0.2-0.2,0.3-0.2,0.4
			c0.3,0,0.5-0.1,0.6-0.4s0.3-0.5,0.5-0.6c0.1,0.1,0.4,0.1,0.9,0.1c0-0.1-0.1-0.2-0.2-0.3c-0.1-0.1-0.2-0.2-0.2-0.4
			c0.2,0,0.4-0.2,0.6-0.6c0.2-0.4,0.4-0.5,0.7-0.3c0,0.1-0.1,0.2-0.2,0.3c-0.1,0.1-0.2,0.2-0.2,0.3c0.1,0,0.3,0,0.5-0.1
			c0.2,0,0.4-0.1,0.5-0.2c-0.2-0.2-0.2-0.3-0.1-0.4c0.1-0.1,0.3-0.1,0.6,0V474c-0.1-0.1-0.2,0-0.4,0.1c-0.2,0.2-0.3,0.1-0.4-0.1
			c0.2-0.1,0.4-0.3,0.7-0.6c0.3-0.3,0.6-0.5,1-0.4c0-0.3,0.4-0.7,1.3-1.1c0.1-0.2,0-0.4-0.1-0.6l-0.4-0.3c0.6-0.6,0.9-0.9,1-0.9
			c0.1,0,0.1,0.1,0.1,0.4c0.3-0.1,0.6-0.4,0.9-0.9c0.3-0.5,0.6-0.8,0.9-0.9c-0.1-0.2,0-0.5,0.2-0.9c0.2-0.4,0.1-0.7-0.4-0.8
			c1,0,1.2-0.7,0.9-2c0.3-0.1,0.7-0.9,1.1-2.4c-1,0.2-1.9,1.3-2.7,3.3c0.1-0.1,0.2-0.2,0.3-0.4C886.1,465.4,886.2,465.2,886.4,465.1
			z M880.7,473.7c0-0.1,0.1-0.1,0.3-0.1C881,473.7,880.9,473.7,880.7,473.7z M881.3,471.4c0.2,0.1,0.4,0,0.6-0.3
			C881.6,471.2,881.4,471.2,881.3,471.4z M882.7,495.4c0-0.2-0.1-0.3-0.3-0.4c-0.2,0-0.4,0-0.6,0c-0.2,0-0.3,0.1-0.3,0.2
			C881.7,495.4,882.1,495.4,882.7,495.4z M881.5,496.3h0.4V496h-0.4V496.3z M882.1,496.1c0.4,0,0.6-0.1,0.6-0.3h-0.4v0.1
			L882.1,496.1z M882.7,489.5c0-0.1,0-0.1,0.1-0.1c0-0.3-0.1-0.4-0.4-0.3l0.1,0.1C882.6,489.4,882.6,489.5,882.7,489.5z
			 M882.4,493.5h0.4v-0.3h-0.4V493.5z M882.7,488.5c0-0.1,0-0.2,0.1-0.4c0.2-0.4,0.1-0.6-0.1-0.6c0,0.2,0,0.4-0.1,0.6
			C882.5,488.3,882.5,488.4,882.7,488.5z M882.7,492.5h0.3v-0.7h-0.3V492.5z M883,490.7c0.3,0.1,0.5,0,0.6-0.4
			c-0.2-0.2-0.3-0.3-0.4-0.4c0,0.1,0,0.2,0,0.4C883.1,490.4,883.1,490.6,883,490.7z M883.3,486.7c0-0.1,0.1-0.1,0.3-0.1
			c-0.1-0.3-0.2-0.4-0.4-0.4C883.1,486.5,883.2,486.7,883.3,486.7z M883.3,495.4v0.4c0.2,0.1,0.3,0,0.4-0.2c0.1-0.2,0-0.4-0.1-0.4
			C883.6,495.4,883.5,495.4,883.3,495.4z M883.7,488.5c0.6-1.2,0.6-1.9,0.1-2c0,0.1,0,0.3-0.1,0.6c0,0.3-0.1,0.6-0.1,0.8
			C883.6,488.1,883.6,488.3,883.7,488.5z M883.7,484.2h0.3v-0.3h-0.3V484.2z M884,485.9h0.6c0-0.3-0.2-0.4-0.6-0.3V485.9z
			 M884.7,471c-0.1,0-0.2,0-0.3-0.1c-0.1-0.1-0.2-0.1-0.3,0c-0.1,0.2,0,0.3,0.2,0.4C884.6,471.3,884.7,471.2,884.7,471z
			 M884.6,484.9c0-0.1,0-0.2,0.1-0.3c0.2-0.4,0.1-0.6-0.1-0.6c0,0.1,0,0.2-0.1,0.3C884.2,484.6,884.3,484.8,884.6,484.9z
			 M884.8,488.1c0.4-0.9,0.4-1.3,0-1.4c-0.1,0.1-0.1,0.3-0.1,0.7C884.7,487.8,884.8,488,884.8,488.1z M885.3,468.6v0.6
			C885,469,885,468.9,885.3,468.6z M885.9,487.7c0-0.1-0.1-0.1-0.2-0.1s-0.2,0-0.2,0.1c0,0.1,0,0.2,0.1,0.3
			C885.7,487.9,885.8,487.8,885.9,487.7z M885.9,477.8c0.4-0.9,0.4-1.2,0-1.1c0.1,0.2,0.1,0.4-0.1,0.7S885.7,477.8,885.9,477.8z
			 M886.3,475.5c0.1,0,0.4-0.5,0.9-1.4c-0.3,0-0.5,0.1-0.6,0.2c-0.1,0.1-0.1,0.4-0.1,0.6S886.4,475.4,886.3,475.5z M886.4,465.1
			c0-0.1,0-0.1,0.1-0.1C886.6,465.1,886.5,465.1,886.4,465.1z M886.6,465l0.7-1C887.3,464.5,887,464.8,886.6,465z M887,482.3
			c0-0.2-0.1-0.4-0.4-0.6C886.6,482.3,886.7,482.4,887,482.3z M886.6,489.2c0.2,0.1,0.4,0,0.5-0.1c0.1-0.2,0.2-0.4,0.2-0.6
			s0-0.3-0.1-0.4c0.1,0.3,0,0.5-0.2,0.6C886.7,488.9,886.6,489,886.6,489.2z M887,473.2v0.4c0.2,0.1,0.3,0,0.4-0.2
			c0-0.2,0-0.4-0.2-0.4C887.1,473.2,887.1,473.3,887,473.2z M887.3,485.8c0-0.1,0-0.2,0.1-0.3c0.1-0.1,0.1-0.2,0.1-0.3
			c-0.1,0-0.1,0-0.1-0.1h-0.3C887.1,485.6,887.2,485.8,887.3,485.8z M887.3,479.8c0.2,0,0.4-0.1,0.6-0.3
			C887.7,479.5,887.5,479.6,887.3,479.8z M887.6,482.2c0.3-0.2,0.2-0.4-0.3-0.7C887.3,481.8,887.4,482,887.6,482.2z M888,478.9
			c0-0.2-0.1-0.4-0.4-0.6C887.6,478.8,887.7,479,888,478.9z M887.9,481.5h0.3l0.1-0.1v-0.1l-0.1-0.1c-0.1-0.1-0.2-0.1-0.3-0.1V481.5
			z M888.4,462.3c0-0.1,0.1-0.3,0.3-0.5c0.2-0.2,0.3-0.5,0.3-0.6h-0.6c0.1,0.2,0.1,0.4-0.1,0.7S888.2,462.3,888.4,462.3z
			 M891.4,475.7c0.2,0.2,0.3,0.3,0.3,0.4h-0.3V475.7z M892.3,470.4h0.4c0-0.3,0-0.4-0.1-0.4c0,0.1-0.1,0.2-0.2,0.2
			C892.2,470.3,892.2,470.3,892.3,470.4z M892.6,459.1v-0.3c-0.1-0.1-0.1-0.2-0.1-0.3c0.3-0.1,0.5-0.1,0.5,0.1c0,0.1,0,0.3-0.2,0.5
			H892.6z"/>
		<path d="M956.2,464c0,0.2,0,0.3,0.1,0.3c-5.6,2.4-9.8,4.3-12.3,5.6c0.2,0.4,0.4,0.5,0.6,0.4c0.2-0.1,0.5-0.3,0.8-0.5
			c0.3-0.2,0.6-0.4,0.8-0.4c-0.6,0.6-1.3,1.2-2.2,1.8c-0.9,0.6-1.7,1.1-2.2,1.4s-1.5,0.7-2.9,1.3c-1.3,0.6-2.2,0.9-2.4,1
			c-0.1,0.3,0,0.6,0.1,0.8c0.2,0.2,0.3,0.5,0.3,0.6c-0.3,0.1-0.5,0-0.6-0.3c-0.1-0.3-0.2-0.4-0.4-0.4c-0.3,0.5-0.8,0.8-1.7,1.1
			c-0.8,0.2-1.4,0.6-1.7,0.9c-0.1,0.1,0,0.2,0.3,0.3c0.1,0.1,0.2,0.1,0.3,0.1c-0.2,0.2-0.6,0.4-1.1,0.6c-0.5,0.2-0.8,0.4-0.9,0.5
			c0,0.4,0.2,0.5,0.6,0.4c-1.1,0.9-2,1.1-2.7,0.6c-0.6,0.8-1,1.3-1.1,1.6c-0.9,0.3-2.6,0.9-5.1,1.9c-2.5,1-4.7,1.7-6.6,2.2
			c-1.9,0.5-3.9,0.8-6.1,0.9c-3.7,0-6.5-1.2-8.4-3.6c-1.9-2.4-2.7-5.1-2.6-8.3c0.1-3.1,1-6,2.7-8.5c2.2-2.4,3.9-4.2,5.2-5.4
			c1.3-1.2,3.2-2.4,5.7-3.7c2.5-1.3,5.1-1.9,7.9-1.9c1.7,1.1,2.7,2.7,3,5c0.3,2.2-0.1,4.3-1.1,6.1c-0.9,0.7-2,1.7-3.5,3.1
			c-1.5,1.4-2.9,2.6-4.2,3.5c-1.3,1-2.7,1.7-4.2,2.2c-3.4,0.3-5.4-0.8-6-3.3c-1.5,1.1-2.4,3.1-2.7,6c0.8,0.9,1.8,1.6,3,2.2
			c6,0,11.9-0.9,17.7-2.7c5.8-1.8,11.9-4.2,18.2-7.1C947,467.2,952.2,465.1,956.2,464z M920.2,457.5c-4.4,1.1-8.4,4.1-11.9,9.2
			c0.4,0,0.6,0,0.6,0.1c-0.2,0.3-0.6,0.6-1.4,0.9s-1.1,0.6-1.2,1c7.8-2.4,12.8-6.2,14.8-11.3c-0.2,0-0.3-0.1-0.4-0.2
			c-0.1-0.1-0.2-0.2-0.3-0.2c0,0.1,0,0.2,0,0.4L920.2,457.5z M909.4,481.6c1.2,0.5,2,0.6,2.3,0.3c-0.2-0.2-0.6-0.4-1.3-0.5
			C909.7,481.3,909.4,481.3,909.4,481.6z M914.3,479.8c1.8,0.6,5,0,9.6-1.7c6.6-1.4,13.2-4,19.8-7.8c-1,0.3-5,1.8-12.3,4.6
			C924.2,477.7,918.5,479.3,914.3,479.8z M927,481.5c0.3,0.2,0.4,0.1,0.4-0.1C927.1,481.2,926.9,481.2,927,481.5z M929.3,480.2h0.4
			v-0.3h-0.4V480.2z M930.1,479.9c0.5-0.2,0.8-0.3,0.9-0.4c-0.2-0.2-0.4-0.2-0.6-0.1C930.2,479.4,930.1,479.6,930.1,479.9z
			 M930.8,478.6c1-0.5,1.4-0.8,1.4-1C931.3,478.1,930.8,478.4,930.8,478.6z M933.4,477.6c0.4-0.2,0.6-0.1,0.6,0.3h-0.6V477.6z
			 M935.4,476.3h0.4v0.4h-0.4V476.3z M936.9,475.3c0.4,0.1,0.5,0.3,0.3,0.7C937,475.9,936.9,475.7,936.9,475.3z M946.7,469.4h0.3
			c0.1,0.2,0,0.3-0.4,0.3l0.1-0.1V469.4z M946.9,468.7h0.4v0.4h-0.4V468.7z M949.1,468.1c-0.3,0.7-0.9,0.9-1.7,0.7
			C947.6,468.6,948.2,468.3,949.1,468.1z M949.1,468.1c0-0.3,0.1-0.4,0.4-0.3l0.3,0.3C949.8,468.5,949.5,468.5,949.1,468.1z
			 M956.2,464c0.2-0.3,0.4-0.4,0.7-0.4c0.1,0.3,0,0.4-0.4,0.4C956.4,464,956.3,464,956.2,464z"/>
	</g>
	<g id="focus-letters">
		<path id="focus-letter-f" d="M523,451.4c0,0.3,0,0.5,0,0.7c0,0.2-0.1,0.3-0.1,0.4c-0.1,0.1-0.1,0.2-0.2,0.2
			c-0.1,0-0.2,0.1-0.3,0.1c-0.2,0-0.4,0-0.6-0.1c-0.2-0.1-0.5-0.2-0.8-0.3c-0.3-0.1-0.7-0.2-1.2-0.3c-0.5-0.1-1-0.1-1.6-0.1
			c-0.9,0-1.6,0.1-2.2,0.4c-0.6,0.3-1.1,0.7-1.4,1.3c-0.4,0.6-0.6,1.3-0.8,2.2c-0.2,0.9-0.2,2-0.2,3.3v3.2h6.8c0.1,0,0.3,0,0.4,0.1
			c0.1,0.1,0.2,0.2,0.3,0.3c0.1,0.1,0.1,0.3,0.2,0.5c0,0.2,0.1,0.4,0.1,0.7c0,0.5-0.1,0.9-0.2,1.1c-0.2,0.2-0.4,0.4-0.6,0.4h-6.8
			v24.4c0,0.1,0,0.2-0.1,0.3c-0.1,0.1-0.2,0.2-0.3,0.2c-0.1,0.1-0.3,0.1-0.6,0.1c-0.2,0-0.5,0.1-0.9,0.1c-0.3,0-0.6,0-0.9-0.1
			c-0.2,0-0.4-0.1-0.6-0.1c-0.1-0.1-0.2-0.1-0.3-0.2c-0.1-0.1-0.1-0.2-0.1-0.3v-24.4h-4.2c-0.3,0-0.5-0.1-0.7-0.4
			c-0.2-0.2-0.2-0.6-0.2-1.1c0-0.3,0-0.5,0.1-0.7c0-0.2,0.1-0.3,0.2-0.5c0.1-0.1,0.2-0.2,0.3-0.3c0.1-0.1,0.2-0.1,0.4-0.1h4.2v-3
			c0-1.9,0.2-3.5,0.5-4.8c0.3-1.3,0.9-2.4,1.6-3.2c0.7-0.8,1.6-1.4,2.7-1.8c1.1-0.4,2.3-0.6,3.7-0.6c0.7,0,1.4,0.1,2,0.2
			c0.7,0.1,1.2,0.3,1.5,0.4c0.3,0.1,0.6,0.3,0.7,0.4c0.1,0.1,0.2,0.2,0.3,0.4c0.1,0.2,0.1,0.3,0.2,0.5
			C523,450.9,523,451.1,523,451.4z"/>
		<path id="focus-letter-o" d="M558,475.9c0,2.1-0.3,4.1-0.9,5.9c-0.6,1.8-1.4,3.4-2.6,4.7c-1.1,1.3-2.6,2.3-4.3,3.1
			c-1.7,0.7-3.7,1.1-5.9,1.1c-2.2,0-4.1-0.3-5.7-1c-1.6-0.7-3-1.6-4.1-2.8c-1.1-1.2-1.9-2.7-2.5-4.5c-0.5-1.8-0.8-3.7-0.8-5.9
			c0-2.1,0.3-4.1,0.8-5.9c0.6-1.8,1.4-3.3,2.5-4.7c1.1-1.3,2.6-2.3,4.3-3.1c1.7-0.7,3.7-1.1,6-1.1c2.2,0,4.1,0.3,5.7,1
			c1.6,0.7,3,1.6,4.1,2.8c1.1,1.2,1.9,2.7,2.5,4.5C557.7,471.7,558,473.7,558,475.9z M554.1,476.2c0-1.5-0.2-3-0.5-4.3
			c-0.3-1.4-0.8-2.6-1.5-3.7c-0.7-1.1-1.7-1.9-2.9-2.5c-1.2-0.6-2.7-0.9-4.5-0.9c-1.7,0-3.1,0.3-4.3,0.9c-1.2,0.6-2.2,1.4-3,2.4
			s-1.3,2.2-1.7,3.6c-0.4,1.4-0.6,2.9-0.6,4.5c0,1.5,0.2,3,0.5,4.4c0.3,1.4,0.8,2.6,1.5,3.7c0.7,1,1.7,1.9,2.9,2.5
			c1.2,0.6,2.7,0.9,4.5,0.9c1.7,0,3.1-0.3,4.3-0.9c1.2-0.6,2.2-1.4,3-2.4c0.8-1,1.3-2.2,1.7-3.6
			C553.9,479.3,554.1,477.8,554.1,476.2z"/>
		<path id="focus-letter-c" d="M593.1,485.6c0,0.2,0,0.4,0,0.6c0,0.2-0.1,0.3-0.1,0.5c0,0.1-0.1,0.3-0.2,0.4
			c-0.1,0.1-0.2,0.3-0.5,0.5c-0.3,0.3-0.7,0.6-1.3,1c-0.6,0.4-1.3,0.7-2.1,1c-0.8,0.3-1.6,0.5-2.5,0.7c-0.9,0.2-1.8,0.3-2.8,0.3
			c-1.9,0-3.6-0.3-5.1-0.9c-1.5-0.6-2.7-1.5-3.7-2.7c-1-1.2-1.8-2.7-2.3-4.5c-0.5-1.8-0.8-3.8-0.8-6.1c0-2.6,0.3-4.8,1-6.7
			c0.6-1.9,1.5-3.4,2.7-4.6c1.1-1.2,2.4-2.1,3.9-2.6c1.5-0.6,3.1-0.8,4.8-0.8c0.9,0,1.8,0.1,2.6,0.3c0.8,0.2,1.6,0.4,2.3,0.7
			c0.7,0.3,1.3,0.6,1.9,0.9c0.6,0.4,1,0.7,1.2,0.9c0.3,0.2,0.4,0.4,0.5,0.6c0.1,0.1,0.2,0.3,0.2,0.4c0.1,0.2,0.1,0.3,0.1,0.5
			c0,0.2,0,0.4,0,0.7c0,0.6-0.1,1-0.3,1.2c-0.2,0.2-0.4,0.3-0.6,0.3c-0.3,0-0.6-0.2-1.1-0.5c-0.4-0.4-1-0.7-1.6-1.2
			c-0.7-0.4-1.4-0.8-2.4-1.2c-0.9-0.4-2-0.5-3.3-0.5c-2.7,0-4.7,1-6.2,3c-1.4,2-2.2,4.8-2.2,8.5c0,1.9,0.2,3.5,0.6,4.9
			c0.4,1.4,0.9,2.6,1.7,3.5c0.7,0.9,1.6,1.6,2.7,2.1c1,0.5,2.2,0.7,3.5,0.7c1.2,0,2.3-0.2,3.3-0.6c0.9-0.4,1.8-0.8,2.5-1.2
			c0.7-0.5,1.3-0.9,1.7-1.2c0.5-0.4,0.8-0.6,1-0.6c0.1,0,0.2,0,0.3,0.1c0.1,0.1,0.2,0.2,0.2,0.3c0.1,0.1,0.1,0.3,0.1,0.5
			C593.1,485.1,593.1,485.3,593.1,485.6z"/>
		<path id="focus-letter-u" d="M630.4,489.5c0,0.1,0,0.2-0.1,0.3c-0.1,0.1-0.1,0.2-0.3,0.2c-0.1,0.1-0.3,0.1-0.6,0.1
			c-0.2,0-0.5,0.1-0.8,0.1c-0.4,0-0.7,0-0.9-0.1c-0.2,0-0.4-0.1-0.5-0.1c-0.1-0.1-0.2-0.1-0.3-0.2c-0.1-0.1-0.1-0.2-0.1-0.3v-3.8
			c-1.6,1.7-3.2,3-4.7,3.7c-1.5,0.8-3,1.2-4.6,1.2c-1.8,0-3.4-0.3-4.6-0.9c-1.2-0.6-2.3-1.4-3-2.4c-0.8-1-1.3-2.2-1.7-3.5
			c-0.3-1.3-0.5-3-0.5-4.8v-16.2c0-0.1,0-0.2,0.1-0.3c0.1-0.1,0.1-0.2,0.3-0.3c0.1-0.1,0.3-0.1,0.6-0.1c0.2,0,0.5,0,0.9,0
			c0.4,0,0.7,0,0.9,0c0.2,0,0.4,0.1,0.6,0.1c0.1,0.1,0.2,0.2,0.3,0.3c0.1,0.1,0.1,0.2,0.1,0.3v15.8c0,1.7,0.1,3,0.4,4
			c0.3,1,0.7,1.9,1.2,2.7c0.5,0.7,1.2,1.3,2,1.7c0.8,0.4,1.8,0.6,2.9,0.6c1.4,0,2.8-0.5,4.2-1.4c1.4-1,2.9-2.4,4.5-4.3v-19.2
			c0-0.1,0-0.2,0.1-0.3c0.1-0.1,0.1-0.2,0.3-0.3c0.1-0.1,0.3-0.1,0.6-0.1c0.2,0,0.5,0,0.9,0c0.3,0,0.6,0,0.9,0
			c0.2,0,0.4,0.1,0.6,0.1c0.1,0.1,0.2,0.2,0.3,0.3c0.1,0.1,0.1,0.2,0.1,0.3V489.5z"/>
		<path id="focus-letter-s" d="M664.6,482.4c0,1.3-0.2,2.4-0.7,3.4c-0.5,1-1.2,1.9-2.1,2.6c-0.9,0.7-2,1.3-3.3,1.6
			c-1.3,0.4-2.7,0.6-4.2,0.6c-1,0-1.9-0.1-2.7-0.2c-0.9-0.1-1.6-0.3-2.3-0.6c-0.7-0.2-1.3-0.5-1.8-0.7c-0.5-0.3-0.8-0.5-1.1-0.7
			c-0.2-0.2-0.4-0.4-0.5-0.7c-0.1-0.3-0.2-0.7-0.2-1.2c0-0.3,0-0.5,0.1-0.7c0-0.2,0.1-0.4,0.2-0.5c0.1-0.1,0.1-0.2,0.2-0.3
			c0.1-0.1,0.2-0.1,0.3-0.1c0.2,0,0.6,0.1,1,0.4c0.4,0.3,1,0.6,1.6,0.9s1.4,0.6,2.3,0.9c0.9,0.3,1.9,0.4,3.1,0.4
			c0.9,0,1.8-0.1,2.6-0.3c0.8-0.2,1.5-0.5,2-0.9c0.6-0.4,1-0.9,1.3-1.5c0.3-0.6,0.5-1.3,0.5-2.2c0-0.8-0.2-1.5-0.6-2.1
			c-0.4-0.6-0.9-1.1-1.6-1.5c-0.7-0.4-1.4-0.8-2.3-1.1c-0.8-0.3-1.7-0.7-2.6-1c-0.9-0.3-1.8-0.7-2.6-1.1c-0.8-0.4-1.6-0.9-2.3-1.5
			c-0.7-0.6-1.2-1.3-1.6-2.1c-0.4-0.8-0.6-1.8-0.6-3c0-0.9,0.2-1.8,0.6-2.7c0.4-0.9,0.9-1.7,1.7-2.4c0.8-0.7,1.7-1.3,2.9-1.7
			c1.2-0.4,2.6-0.7,4.3-0.7c0.7,0,1.4,0.1,2.1,0.2c0.7,0.1,1.3,0.3,1.9,0.4c0.6,0.2,1,0.4,1.5,0.6c0.4,0.2,0.7,0.4,0.9,0.5
			c0.2,0.2,0.4,0.3,0.4,0.4c0.1,0.1,0.1,0.2,0.2,0.3c0,0.1,0.1,0.3,0.1,0.4c0,0.2,0,0.4,0,0.6s0,0.4,0,0.6c0,0.2-0.1,0.4-0.1,0.5
			c-0.1,0.1-0.1,0.2-0.2,0.3c-0.1,0.1-0.2,0.1-0.3,0.1c-0.2,0-0.4-0.1-0.7-0.3c-0.3-0.2-0.8-0.5-1.3-0.7c-0.5-0.3-1.2-0.5-1.9-0.7
			c-0.7-0.2-1.6-0.3-2.5-0.3c-1,0-1.8,0.1-2.5,0.3c-0.7,0.2-1.3,0.5-1.8,0.9c-0.5,0.4-0.8,0.9-1.1,1.4c-0.2,0.5-0.4,1.1-0.4,1.7
			c0,0.9,0.2,1.6,0.6,2.2c0.4,0.6,1,1.1,1.6,1.5c0.7,0.4,1.4,0.8,2.3,1.2c0.9,0.3,1.7,0.7,2.6,1c0.9,0.3,1.8,0.7,2.6,1.1
			c0.9,0.4,1.6,0.9,2.3,1.5c0.7,0.6,1.2,1.3,1.6,2.1C664.3,480.3,664.6,481.3,664.6,482.4z"/>
	</g>
	<g id="four-letters">
		<path id="four-letter-f" class="st0" d="M703.1,451.4c0,0.3,0,0.5,0,0.7c0,0.2-0.1,0.3-0.1,0.4c-0.1,0.1-0.1,0.2-0.2,0.2
			c-0.1,0-0.2,0.1-0.3,0.1c-0.2,0-0.4,0-0.6-0.1c-0.2-0.1-0.5-0.2-0.8-0.3c-0.3-0.1-0.7-0.2-1.2-0.3c-0.5-0.1-1-0.1-1.6-0.1
			c-0.9,0-1.6,0.1-2.2,0.4c-0.6,0.3-1.1,0.7-1.4,1.3c-0.4,0.6-0.6,1.3-0.8,2.2c-0.2,0.9-0.2,2-0.2,3.3v3.2h6.8c0.1,0,0.3,0,0.4,0.1
			c0.1,0.1,0.2,0.2,0.3,0.3s0.1,0.3,0.2,0.5c0,0.2,0.1,0.4,0.1,0.7c0,0.5-0.1,0.9-0.2,1.1c-0.2,0.2-0.4,0.4-0.6,0.4h-6.8v24.4
			c0,0.1,0,0.2-0.1,0.3c-0.1,0.1-0.2,0.2-0.3,0.2c-0.1,0.1-0.3,0.1-0.6,0.1c-0.2,0-0.5,0.1-0.9,0.1c-0.3,0-0.6,0-0.9-0.1
			c-0.2,0-0.4-0.1-0.6-0.1c-0.1-0.1-0.2-0.1-0.3-0.2c-0.1-0.1-0.1-0.2-0.1-0.3v-24.4h-4.2c-0.3,0-0.5-0.1-0.7-0.4
			c-0.2-0.2-0.2-0.6-0.2-1.1c0-0.3,0-0.5,0.1-0.7c0-0.2,0.1-0.3,0.2-0.5s0.2-0.2,0.3-0.3c0.1-0.1,0.2-0.1,0.4-0.1h4.2v-3
			c0-1.9,0.2-3.5,0.5-4.8c0.3-1.3,0.9-2.4,1.6-3.2c0.7-0.8,1.6-1.4,2.7-1.8c1.1-0.4,2.3-0.6,3.7-0.6c0.7,0,1.4,0.1,2,0.2
			c0.7,0.1,1.2,0.3,1.5,0.4c0.3,0.1,0.6,0.3,0.7,0.4c0.1,0.1,0.2,0.2,0.3,0.4c0.1,0.2,0.1,0.3,0.2,0.5
			C703.1,450.9,703.1,451.1,703.1,451.4z"/>
		<path id="four-letter-o" class="st0" d="M738.1,475.9c0,2.1-0.3,4.1-0.9,5.9c-0.6,1.8-1.4,3.4-2.6,4.7c-1.1,1.3-2.6,2.3-4.3,3.1
			c-1.7,0.7-3.7,1.1-5.9,1.1c-2.2,0-4.1-0.3-5.7-1c-1.6-0.7-3-1.6-4.1-2.8c-1.1-1.2-1.9-2.7-2.5-4.5c-0.5-1.8-0.8-3.7-0.8-5.9
			c0-2.1,0.3-4.1,0.8-5.9c0.6-1.8,1.4-3.3,2.5-4.7c1.1-1.3,2.6-2.3,4.3-3.1c1.7-0.7,3.7-1.1,6-1.1c2.2,0,4.1,0.3,5.7,1
			c1.6,0.7,3,1.6,4.1,2.8c1.1,1.2,1.9,2.7,2.5,4.5C737.9,471.7,738.1,473.7,738.1,475.9z M734.3,476.2c0-1.5-0.2-3-0.5-4.3
			c-0.3-1.4-0.8-2.6-1.5-3.7c-0.7-1.1-1.7-1.9-2.9-2.5c-1.2-0.6-2.7-0.9-4.5-0.9c-1.7,0-3.1,0.3-4.3,0.9c-1.2,0.6-2.2,1.4-3,2.4
			c-0.8,1-1.3,2.2-1.7,3.6c-0.4,1.4-0.6,2.9-0.6,4.5c0,1.5,0.2,3,0.5,4.4c0.3,1.4,0.8,2.6,1.5,3.7c0.7,1,1.7,1.9,2.9,2.5
			c1.2,0.6,2.7,0.9,4.5,0.9c1.7,0,3.1-0.3,4.3-0.9c1.2-0.6,2.2-1.4,3-2.4c0.8-1,1.3-2.2,1.7-3.6
			C734.1,479.3,734.3,477.8,734.3,476.2z"/>
		<path id="four-letter-u" class="st0" d="M776.3,489.5c0,0.1,0,0.2-0.1,0.3c-0.1,0.1-0.1,0.2-0.3,0.2c-0.1,0.1-0.3,0.1-0.6,0.1
			c-0.2,0-0.5,0.1-0.8,0.1c-0.4,0-0.7,0-0.9-0.1c-0.2,0-0.4-0.1-0.5-0.1c-0.1-0.1-0.2-0.1-0.3-0.2c-0.1-0.1-0.1-0.2-0.1-0.3v-3.8
			c-1.6,1.7-3.2,3-4.7,3.7c-1.5,0.8-3,1.2-4.6,1.2c-1.8,0-3.4-0.3-4.6-0.9c-1.2-0.6-2.3-1.4-3-2.4c-0.8-1-1.3-2.2-1.7-3.5
			c-0.3-1.3-0.5-3-0.5-4.8v-16.2c0-0.1,0-0.2,0.1-0.3c0.1-0.1,0.1-0.2,0.3-0.3c0.1-0.1,0.3-0.1,0.6-0.1c0.2,0,0.5,0,0.9,0
			c0.4,0,0.7,0,0.9,0c0.2,0,0.4,0.1,0.6,0.1c0.1,0.1,0.2,0.2,0.3,0.3c0.1,0.1,0.1,0.2,0.1,0.3v15.8c0,1.7,0.1,3,0.4,4
			c0.3,1,0.7,1.9,1.2,2.7c0.5,0.7,1.2,1.3,2,1.7c0.8,0.4,1.8,0.6,2.9,0.6c1.4,0,2.8-0.5,4.2-1.4c1.4-1,2.9-2.4,4.5-4.3v-19.2
			c0-0.1,0-0.2,0.1-0.3c0.1-0.1,0.1-0.2,0.3-0.3c0.1-0.1,0.3-0.1,0.6-0.1c0.2,0,0.5,0,0.9,0c0.3,0,0.6,0,0.9,0
			c0.2,0,0.4,0.1,0.6,0.1c0.1,0.1,0.2,0.2,0.3,0.3c0.1,0.1,0.1,0.2,0.1,0.3V489.5z"/>
		<path id="four-letter-r" class="st0" d="M809.5,464.2c0,0.3,0,0.5,0,0.8c0,0.2-0.1,0.4-0.1,0.5c-0.1,0.1-0.1,0.2-0.2,0.3
			c-0.1,0.1-0.2,0.1-0.3,0.1c-0.2,0-0.4,0-0.6-0.1c-0.2-0.1-0.5-0.2-0.9-0.3c-0.3-0.1-0.7-0.2-1.1-0.3c-0.4-0.1-0.8-0.1-1.3-0.1
			c-0.6,0-1.1,0.1-1.6,0.3c-0.5,0.2-1.1,0.6-1.7,1.1c-0.6,0.5-1.2,1.2-1.8,2c-0.6,0.8-1.4,1.8-2.1,3v18.1c0,0.1,0,0.2-0.1,0.3
			c-0.1,0.1-0.2,0.2-0.3,0.2c-0.1,0.1-0.3,0.1-0.6,0.1c-0.2,0-0.5,0.1-0.9,0.1c-0.3,0-0.6,0-0.9-0.1c-0.2,0-0.4-0.1-0.6-0.1
			c-0.1-0.1-0.2-0.1-0.3-0.2c-0.1-0.1-0.1-0.2-0.1-0.3v-26.8c0-0.1,0-0.2,0.1-0.3c0.1-0.1,0.1-0.2,0.3-0.3c0.1-0.1,0.3-0.1,0.5-0.1
			c0.2,0,0.5,0,0.8,0c0.3,0,0.6,0,0.9,0c0.2,0,0.4,0.1,0.5,0.1c0.1,0.1,0.2,0.2,0.3,0.3c0.1,0.1,0.1,0.2,0.1,0.3v4.2
			c0.8-1.1,1.5-2,2.2-2.7c0.7-0.7,1.3-1.2,1.9-1.6c0.6-0.4,1.2-0.6,1.8-0.8c0.6-0.1,1.2-0.2,1.8-0.2c0.3,0,0.6,0,0.9,0
			c0.3,0,0.7,0.1,1.1,0.2c0.4,0.1,0.8,0.2,1.1,0.3s0.5,0.2,0.7,0.3c0.1,0.1,0.2,0.2,0.2,0.2c0,0.1,0.1,0.2,0.1,0.3
			c0,0.1,0.1,0.3,0.1,0.4C809.5,463.6,809.5,463.9,809.5,464.2z"/>
		<path id="four-dot" class="st0" d="M821.7,487.5c0,1.2-0.2,1.9-0.6,2.3c-0.4,0.4-1.1,0.6-2.1,0.6c-1,0-1.6-0.2-2-0.5
			c-0.4-0.4-0.6-1.1-0.6-2.3c0-1.2,0.2-1.9,0.6-2.3c0.4-0.4,1.1-0.6,2.1-0.6c1,0,1.6,0.2,2,0.5C821.5,485.6,821.7,486.3,821.7,487.5
			z"/>
	</g>
</g>
</svg>
